<svg width="359" height="795" viewBox="0 0 359 795" fill="none" xmlns="http://www.w3.org/2000/svg">
<path d="M112.026 478.906L112.701 479.429L112.344 482.174L113.892 482.696L116.492 481.808L117.961 482.592L117.783 483.638L114.964 483.689L114.369 484.893L117.088 486.304L116.85 489.648L117.644 490.771L118.438 488.446L119.986 488.289L122.686 481.547L125.643 480.187L130.566 480.239L137.434 476.082L145.91 476.579L148.371 473.859L152.917 473.205L154.425 482.252L154.167 488.604L154.981 492L156.509 491.556L160.32 488.211L161.174 489.021L160.598 491.425L162.583 493.437L163.615 493.724L166.731 492.81L167.565 496.754L171.635 502.055L172.984 506.728L177.649 510.355L177.411 513.644L183.306 514.427L188.725 512.183L190.928 513.879L194.164 517.792L195.474 518.392L202.6 517.505L208.535 516.044L211.771 520.427L213.517 526.372L216.237 529.918L219.095 538.127L221.497 541.02L223.641 541.696L223.581 545.864L224.812 548.624L227.392 550.551L231.938 549.77L237.476 550.968L237.714 552.452L236.801 555.836L233.466 561.249L232.91 563.461L236.007 568.273L236.84 576.334L238.607 582.807L239.024 588.003L235.411 588.315L232.891 589.458L230.092 589.718L227.472 588.652L225.089 588.497L223.501 590.212L222.708 593.433L223.125 595.926L224.851 599.405L224.355 601.378L222.033 601.716L219.174 600.365L213.14 600.703L210.083 601.871L208.217 603.48L210.083 605.012L210.242 606.518L203.711 610.877L201.468 607.166L193.965 599.354L192.477 594.835L189.182 593.978L185.589 594.212L185.251 589.406L180.884 582.261L176.339 577.322L171.714 575.606L169.669 573.422L167.843 572.98L164.767 574.229L163.556 579.479L161.273 576.725L160.102 574.307L159.229 573.969L157.779 574.072L155.358 575.477L150.594 573.969L147.736 573.942L142.356 576.438L130.129 572.59L130.347 568.897L129.593 566.271L126.536 562.134L123.896 562.55L123.321 562.159L123.281 560.364L121.673 559.375L120.582 557.71L119.39 551.749L114.904 544.979L113.456 544.849L113.674 543.416L117.306 538.987L115.877 529.865L113.217 527.415L111.689 523.217L106.727 517.74L105.833 514.948L105.992 511.399L104.066 505.188L99.8984 498.269L99.9984 491.765L100.732 492.601L101.585 492.652L103.312 490.902L101.645 489.465L101.923 488.524L103.888 486.904L102.339 486.408L101.942 485.676L102.32 484.709L103.649 484.238L103.431 482.305L105.992 482.592L107.084 481.651L108.215 483.794L108.87 483.82L111.173 479.455L112.026 478.906Z" fill="#C7C7C7" stroke="white" stroke-width="2"/>
<path d="M192.039 212.776L193.369 212.883L195.195 214.317L199.363 212.962L204.266 209.881L205.16 208.686L209.785 206.827L210.062 203.691L211.611 203.452L217.089 207.65L217.784 208.739L218.141 214.476L216.751 217.981L216.831 220.264L220.841 226.103L223.441 227.085L225.843 226.926L228.125 225.599L233.564 223.9L234.041 221.883L233.445 218.406L234.021 217.53L240.035 217.131L251.607 217.955L257.542 216.388L257.423 215.007L255.578 213.732L255.935 212.378L257.225 212.219L259.349 213.6L259.926 219.919L259.329 225.174L261.633 232.232L261.671 234.54L256.729 234.619L256.471 236.794L253.871 237.801L254.287 239.923L251.389 244.721L251.25 248.353L250.178 251.718L250.992 254.605L252.541 256.751L253.057 261.386L250.417 268.614L252.541 271.34L252.322 275.071L253.871 276.209L255.796 278.934L255.319 279.516L256.292 280.891L256.57 282.531L257.741 283.854L258.477 289.538L255.22 290.86L251.627 294.005L246.566 294.798L244.938 295.67L241.286 295.354L239.856 295.855L239.658 296.437L241.782 297.969L241.703 300.136L238.348 304.653L238.467 306.951L240.393 308.351L242.715 308.721L242.576 310.807L243.985 312.443L246.208 313.262L247.975 317.802L248.392 321.47L249.623 323.766L248.789 325.322L249.067 326.219L250.675 327.591L251.905 327.327L252.68 327.987L255.3 328.145L254.922 330.123L258.516 333.077L259.171 335.371L259.29 337.005L257.979 337.717L257.086 340.722L256.153 341.618L257.364 343.146V344.069L254.962 346.388L254.466 348.469L252.62 349.681L252.342 352.236L250.457 354.185L247.856 351.789L246.903 351.551L246.665 354.185L245.415 355.37L246.725 356.897L248.868 363.637L248.471 365.006L249.265 366.901L247.142 367.217L244.243 366.69L240.71 368.401L238.983 368.006L236.244 368.822L233.624 368.454L231.698 366.98L230.488 364.006L229.515 363.427L222.846 367.296L220.364 368.138L218.439 367.743L218.756 366.454L220.623 364.111L221.456 358.267L221.238 356.002L220.325 354.449L213.874 350.366L214.489 345.044L213.318 343.437L210.36 341.618L205.954 341.328L203.75 342.04L200.574 345.281L194.262 349.813L190.55 350.945L190.034 347.89L188.565 346.52L185.786 345.966L182.849 346.915L181.002 346.493L178.72 343.964L172.646 334.606L170.879 333.235L168.279 333.709L163.416 340.406L162.979 340.353L162.284 336.214L159.386 332.417L156.548 330.492L152.756 329.859L150.692 328.382L147.675 320.098L143.388 314.027L135.11 307.638L130.862 307.163L129.155 303.729L125.126 298.736L120.402 295.142L117.126 289.723L115.638 279.992L111.747 274.462L112.204 269.196L111.728 266.258L110.159 263.398L105.396 258.499L110.298 255.903L114.586 251.32L119.211 256.539L125.761 256.937L131.081 254.738L133.582 255.559L136.162 257.254L141.025 258.711L142.951 254.552L144.34 253.307L148.648 251.161L151.407 252.088L153.729 255.665L156.131 256.009L158.275 254.552L158.632 251.665L160.577 249.386L161.907 248.697L162.324 247.027L164.329 245.172L164.984 242.786L172.546 242.309L183.623 240.374L185.866 240.506L184.873 235.335L184.714 230.773L182.193 229.924L181.539 228.889L181.975 220.98L184.734 219.494L186.342 213.892L188.585 213.069L192.039 212.776Z" fill="#C7C7C7" stroke="white" stroke-width="2"/>
<path d="M44.3199 291.626L51.4859 293.001L54.8209 292.763L60.3789 291.124L63.2969 292.948L66.4929 292.446L67.0489 292.684L67.0289 294.005L68.8349 293.476L76.2589 295.723L82.9279 298.656L89.1209 299.211L93.6469 298.709L107.879 294.903L111.829 293.238L117.129 289.722L120.404 295.14L125.128 298.734L129.157 303.727L130.864 307.161L130.685 311.016L129.038 312.759L126.458 317.616L123.897 320.123L121.277 324.081L119.749 324.424L117.903 322.841L115.302 324.82L108.871 325.743L103.769 329.515L101.189 332.838L97.4369 334.974L92.2169 335.343L88.2269 332.364L87.7309 320.44L84.9319 321.892L85.3889 324.794L83.0069 325.058L81.3999 326.746L80.6059 326.799L79.2359 325.348L78.0249 325.058L75.1269 326.878L73.4989 326.377L72.0899 328.698L73.1619 335.713L72.5469 341.222L76.2779 347.704V349.391L75.1069 352.341L75.0469 355.212L76.5949 362.084L76.4759 363.505L70.7989 370.61L68.4969 375.766L66.8089 373.714L64.6649 372.53L57.6579 373.898L52.2989 372.846L50.6109 367.821L47.9309 364.321L47.8909 363.4L45.9259 361.452L44.8739 360.715L44.1399 360.346L41.1029 359.899L40.8449 360.32L39.5149 359.952L38.6609 361.952L39.0979 363.005L37.9869 361.609L35.5459 360.74L35.2079 358.792L32.9449 357.212L32.4489 350.074L32.6869 345.068L33.4009 343.909L33.4209 342.512L32.8249 341.062L30.1449 338.954L29.7679 337.504L28.5369 336.503L27.0879 334.051L29.8469 335.554L30.4029 336.635L29.5289 335.739L29.8659 336.635L31.7909 338.032L35.3439 338.243L37.4479 337.189L38.5199 336.055L39.8699 332.891L39.9099 332.575L39.1759 333.788L39.4539 331.81L40.1679 332.153L39.8709 331.098L39.5529 329.305L39.9099 329.041L39.7909 328.777L39.2899 329.077L38.8379 328.566L38.9369 329.278L37.9839 328.671L39.0159 330.728L38.6789 330.886L38.9369 333.075L38.3219 330.253L36.8729 327.8L40.7039 327.009L44.8329 324.16L46.7779 322.049L50.6289 315.847L51.9389 312.098L51.9189 305.523L51.3239 302.406L49.9939 300.636L43.1859 297.994L41.4389 296.461L40.9429 295.642L41.1019 293.924L38.7799 288.981L37.9059 288.241L43.1269 290.383L44.3199 291.626Z" fill="#C7C7C7" stroke="white" stroke-width="2"/>
<path d="M190.55 350.945L194.262 349.813L200.574 345.281L203.75 342.04L205.954 341.328L210.36 341.618L213.318 343.437L214.489 345.044L213.874 350.366L220.325 354.449L221.238 356.002L221.456 358.267L220.623 364.111L218.756 366.454L218.439 367.743L220.364 368.138L222.846 367.296L229.515 363.427L230.488 364.006L231.698 366.98L233.624 368.454L236.244 368.822L238.983 368.006L240.71 368.401L244.243 366.69L247.142 367.217L249.265 366.901L249.821 367.533L249.246 370.085L249.603 373.558L251.548 378.135L250.516 379.555L250.198 381.921L253.533 387.337L254.208 390.648L258.773 392.383L259.29 395.011L263.101 400.947L263.656 403.232L265.641 406.278L266.078 408.93L264.808 410.138L263.617 413.55L265.244 415.57L266.078 418.194L267.07 418.798L269.453 425.67L267.15 435.896L266.912 440.587L265.562 437.232L264.629 436.604L257.304 435.555L255.002 435.765L250.833 437.442L246.585 437.809L242.08 441.242L238.13 443.364L232.79 444.281L231.341 446.351L230.567 454.05L229.456 457.637L225.625 462.322L225.466 463.735L228.165 469.021L233.445 475.193L237.614 483.35L241.881 489.831L240.591 500.201L240.135 501.429L238.03 503.596L237.594 506.415L236.403 507.642L234.597 508.372L233.068 512.131L231.599 512.104L227.411 510.199L222.627 510.8L217.784 509.625L216.692 510.304L215.64 512.783L214.231 513.879L207.264 513.122L208.534 516.044L202.599 517.505L195.473 518.392L194.163 517.792L190.927 513.879L188.724 512.183L183.305 514.427L177.41 513.644L177.648 510.355L172.983 506.728L171.634 502.055L167.564 496.754L166.73 492.81L163.614 493.724L162.582 493.437L160.597 491.425L161.173 489.021L160.319 488.211L156.508 491.556L154.98 492L154.166 488.604L154.424 482.252L152.916 473.205L148.37 473.859L145.909 476.579L137.433 476.082L130.565 480.239L125.642 480.187L122.685 481.547L119.985 488.289L118.437 488.446L117.643 490.771L116.849 489.648L117.087 486.304L114.368 484.893L114.963 483.689L117.782 483.638L117.96 482.592L116.769 481.808L113.891 482.696L112.343 482.174L112.7 479.429L112.025 478.906L113.435 477.677L112.68 473.074L108.313 469.177L108.353 467.843L110.159 464.546L110.417 459.705L110.259 456.302L108.095 452.27L107.917 447.477L110.12 441.714L109.167 441.085L104.284 441.11L96.1463 438.229L92.8904 439.25L90.3303 438.778L88.7023 437.337L85.8633 431.858L83.4023 429.054L85.6053 426.93L89.1783 425.539L91.2433 419.296L97.7533 413.996L98.6273 409.508L100.354 407.88L102.498 407.617L104.602 409.849L106.388 410.558L110.894 408.536L112.641 409.219L113.554 408.956L115.281 406.777L117.266 405.359L119.905 405.727L121.375 401.814L123.895 400.605L125.404 397.927L128.5 397.506L130.485 396.035L135.249 394.012L138.664 390.596L145.928 385.628L151.804 374.189L154.126 371.585L157.104 370.743L161.788 373.689L164.527 374.426L166.195 374.005L172.348 369.322L175.604 367.638L176.08 365.638L174.968 361.637L176.04 359.109L179.712 356.582L189.359 352.947L190.53 352.21L190.55 350.945Z" fill="#C7C7C7" stroke="white" stroke-width="2"/>
<path d="M36.1614 442.762L38.3444 441.714L40.9454 441.504L40.8854 439.984L39.7544 439.041L39.3374 436.132L40.2304 434.664L41.3624 434.113L41.0444 432.383L41.8184 432.279L42.7314 433.852L43.5444 433.773L43.7034 432.881L42.4134 432.148L41.7784 430.496L42.9094 429.867L43.5054 430.601L44.8154 429.237L46.3834 429.841L48.1704 434.114L48.8054 434.533L49.7784 433.38L49.6194 430.208L51.0284 432.122L52.1994 430.47L53.0324 430.235L55.2164 431.284L57.8764 431.205L58.7304 431.992L60.4374 432.096L60.9334 431.492L60.4374 429.5L60.7154 428.294L64.2684 427.98L64.8634 425.671L65.7374 425.226L67.4444 425.593L68.7354 424.544L70.5814 426.642L71.4154 426.458L72.7654 424.518L73.7584 424.806L72.8644 426.458L73.1624 426.904L75.3464 425.303L75.6444 427.192L76.2794 427.9L77.5894 426.196L80.0704 425.776L83.4044 429.054L85.8654 431.859L88.7044 437.338L90.3314 438.779L92.8924 439.251L96.1474 438.23L104.285 441.112L109.168 441.087L110.121 441.716L107.918 447.479L108.097 452.272L110.261 456.304L110.42 459.707L110.162 464.548L108.356 467.845L108.316 469.179L112.683 473.076L113.437 477.679L112.028 478.908L111.174 479.457L108.871 483.822L108.216 483.796L107.085 481.653L105.993 482.593L103.432 482.306L103.65 484.24L102.32 484.711L101.943 485.678L102.34 486.41L103.888 486.906L101.923 488.526L101.645 489.466L103.312 490.904L101.585 492.654L100.731 492.602L99.9974 491.766L99.8974 498.27L104.065 505.189L105.99 511.401L105.831 514.95L106.725 517.742L111.687 523.219L113.215 527.417L115.875 529.867L117.304 538.989L113.672 543.418L113.454 544.851L114.903 544.981L119.389 551.752L120.58 557.713L121.671 559.378L123.279 560.367L123.319 562.162L123.894 562.553L126.534 562.137L129.591 566.274L130.345 568.901L130.127 572.593L126.495 572.307L125.284 572.854L121.513 576.597L119.389 580.055L114.109 584.551L112.482 588.76L110.537 591.461L108.254 593.357L104.879 594.551L102.775 591.695L101.365 590.889L101.048 588.525L99.2224 588.162L97.4754 586.421L96.2844 586.344L97.1174 581.51L98.3084 579.534L97.7324 576.753L97.9704 574.751L95.9264 574.491L92.8094 575.869L91.5594 574.777V573.373L94.6564 568.328L94.5774 566.638L92.3534 566.091L90.1894 566.638L86.8754 566.507L85.9424 565.545L82.2504 564.114L79.7694 562.423L78.5394 560.575L73.1804 557.869L71.4534 557.765L69.4884 559.952L68.6344 559.588L67.8404 557.661L66.8674 556.985H66.2524L65.6174 558.468L63.7914 558.051L63.1764 556.646L63.5134 554.356L62.3424 554.486L61.8454 553.445L62.0244 552.742L63.5724 552.325L63.6324 551.44L61.1114 550.138L59.1664 552.117L57.1814 552.872L56.1494 551.154L56.3084 547.248L54.5414 546.128L52.1994 546.623L51.8424 545.972L52.2394 544.983L51.4654 543.811L48.1314 544.28L46.8014 543.004L45.9284 544.071L45.0154 543.837L44.9154 541.91L46.6824 539.878L43.4864 538.992L42.2954 537.715L40.3904 538.132L39.0604 536.022L40.0924 533.051L39.3384 532.347L35.1504 534.744L33.4234 534.822L32.6494 536.099L33.1654 537.402L32.4114 537.923L29.5534 536.724L28.3034 533.545L27.3904 532.816L20.0064 530.339L17.0094 531.043L13.7344 534.457L11.0154 533.806L9.94336 531.929L11.9284 529.661L13.6754 529.269L11.4124 530.625L15.9184 529.165L17.2684 527.835L18.0624 528.513L18.6584 528.096L18.2014 526.584L18.2214 527.81L17.0304 527.106L13.9934 529.244L18.8374 523.925L22.3704 516.649L22.4894 507.072L22.5294 505.323L22.9264 503.182L23.7004 504.148L24.5344 503.365L24.8124 500.78L23.9984 499.161L23.2444 498.927L23.2844 497.725L25.0114 491.143L25.5084 491.717L25.7664 492.319L27.5724 489.758L27.2754 491.352L28.7244 490.412L27.3944 488.844L26.9974 489.785L26.0044 489.262L24.6344 490.726L23.8404 490.229L27.2154 483.8L29.1014 476.977L30.6294 474.623L29.2394 479.147L29.7554 479.643L30.9664 479.539L32.2164 478.598L32.1364 476.035L31.6004 475.068L31.0044 475.146L31.1834 473.865L29.6354 472.034L29.0994 472.845L29.5954 475.304L29.1784 476.35L28.5434 467.718L30.7274 469.419L32.1764 469.262L31.7394 467.928L31.1444 468.869L31.0844 465.128L28.9004 467.404L29.7334 465.441L30.1304 465.075L32.7904 461.752L38.7654 457.328L38.9644 457.826L34.0214 461.124L32.1754 463.27L35.0534 464.212L36.7204 463.819L38.9804 464.284L39.8544 463.656L39.5964 461.824L40.8064 462.609L39.3974 460.306L42.9104 455.62L40.9654 456.484L41.6404 456.771L40.4294 456.928L40.8864 457.347L39.6554 457.19L42.5934 455.017L43.5664 453.341L44.0434 448.261L42.5744 444.07L42.2774 444.411L43.0114 445.851L40.1534 443.992L39.9944 443.153L37.5724 442.944L38.1684 443.861L39.5184 444.332L38.5064 444.307L36.5414 443.809L36.1614 442.762Z" fill="#C7C7C7" stroke="white" stroke-width="2"/>
<path d="M130.13 572.59L142.357 576.438L147.737 573.942L150.595 573.969L155.359 575.477L157.78 574.072L159.23 573.969L160.103 574.307L161.274 576.725L163.557 579.479L164.768 574.229L167.844 572.98L169.67 573.422L171.715 575.606L176.34 577.322L180.885 582.261L185.252 589.406L185.59 594.212L189.183 593.978L192.478 594.835L193.966 599.354L201.469 607.166L203.712 610.877L210.243 606.518L210.084 605.012L208.218 603.48L210.084 601.871L213.141 600.703L219.175 600.365L222.034 601.716L224.356 601.378L224.852 599.405L223.126 595.926L222.709 593.433L223.502 590.212L225.09 588.497L227.473 588.652L230.093 589.718L232.892 589.458L235.412 588.315L239.025 588.003L238.767 595.017L237.338 599.639L239.759 604.025L244.325 608.101L243.829 610.565L240.355 616.584L240.077 618.011L240.732 620.552L243.293 622.834L243.71 632.14L244.603 632.632L246.826 638.591L248.454 646.465L250.419 650.918L257.287 659.717L256.929 664.994L262.269 670.864L264.075 674.562L265.127 679.06L266.775 681.308L268.74 682.677L266.953 684.563L264.73 684.356L261.733 685.622L257.564 685.906L249.605 681.049L248.692 683.22L247.004 684.201L246.151 685.752L245.099 686.062L241.764 685.261L239.918 683.245L237.675 683.479L231.502 686.785L229.676 689.394L229.358 690.686L230.291 692.726L228.723 696.754L226.976 698.432L227.294 701.014L226.163 703.801L221.716 705.582L214.233 704.859L209.965 705.117L211.255 708.987L214.491 712.78L216.496 716.468L215.086 722.347L217.25 724.409L219.949 725.956L221.696 730.26L223.642 731.42L225.09 736.778L230.49 744.093L229.775 745.534L230.271 746.977L229.398 751.609L225.567 756.885L223.602 758.068L221.16 757.297L217.587 753.514L210.878 751.584L208.258 750.014L205.737 744.505L202.224 743.191L201.311 738.839L198.155 731.857L193.093 726.11L192.676 722.038L193.629 718.763L193.45 717.345L185.987 715.023L181.501 710.123L176.757 708.214L175.109 706.949L171.596 702.769L169.531 701.323L168.34 697.89L163.279 693.165L160.46 689.059L155.935 685.209L155.16 685.468L154.347 687.069L153.096 687.198L146.942 683.091L142.238 686.785L141.087 686.992L139.916 686.242L136.482 677.482L131.777 668.744L127.728 664.864L122.627 661.813L119.193 650.658L114.191 642.71L113.714 637.788L111.452 633.565L111.471 632.735L113.297 630.196L110.479 629.082L109.248 625.245L99.0449 613.938L99.8389 612.252L110.399 602.157L108.355 599.405L106.965 599.041L104.881 594.549L108.256 593.354L110.539 591.458L112.484 588.757L114.111 584.548L119.391 580.052L121.515 576.594L125.287 572.851L126.498 572.304L130.13 572.59Z" fill="#C7C7C7" stroke="white" stroke-width="2"/>
<path d="M269.335 419.165L281.324 420.66L293.353 465.959L298.732 468.053L301.313 467.581L303.933 467.896L308.34 469.308L311.397 467.66L313.838 462.061L316.28 458.894L324.855 462.505L327.316 464.206L328.507 464.311L329.817 462.897L331.841 463.159L334.342 462.453L335.574 462.819L338.154 465.357L339.544 465.985L342.878 470.668L343.454 496.258L342.183 499.418L337.856 502.604L339.88 503.438L341.112 504.691L343.057 504.744L343.235 511.217L344.208 512.626L347.622 514.453L351.096 518.496L357.746 529.865L357.05 537.424L357.666 541.306L357.15 542.53L355.641 543.598L355.879 546.697L355.462 548.494L354.669 549.197L355.602 553.675L354.947 557.97L352.902 559.063L351.116 558.282L347.88 559.167L346.531 561.978L346.193 564.293L342.402 566.765L341.846 568.039L340.436 567.961L339.544 570.822L340.417 573.578L340.278 575.71L337.162 579.766L337.995 580.961L332.12 582.963L328.11 579.506L324.081 579.739L321.143 580.753L319.496 580.363L317.848 578.908L315.446 578.362L313.262 581.688L312.806 585.119L311.159 587.146L311.059 588.835L309.035 588.601L305.739 590.472L303.894 592.289L305.204 595.744L304.132 598.912L305.283 603.48L304.787 608.905L302.127 610.462L301.889 611.292L302.484 612.615L301.571 612.563L299.606 614.017L298.712 615.754L298.534 616.974L299.765 619.541L297.76 621.563L294.227 622.237L293.036 626.022L289.661 629.496L288.986 631.207L288.649 633.28L289.126 635.275L291.329 637.114L291.586 639.887L291.13 642.166L291.884 644.289L291.17 646.542L289.403 648.303L288.252 651.047L285.493 651.875L282.674 653.661L283.111 654.723L282.079 659.897L285.771 663.287L285.354 664.503L283.607 666.21L282.237 669.727L283.012 673.424L282.377 676.19L282.734 677.612L279.935 678.077L278.605 679.06L272.293 679.008L271.36 679.628L270.883 681.075L268.74 682.677L266.775 681.308L265.127 679.06L264.075 674.562L262.269 670.864L256.929 664.994L257.287 659.717L250.419 650.918L248.454 646.465L246.826 638.591L244.603 632.632L243.71 632.14L243.293 622.834L240.732 620.552L240.077 618.011L240.355 616.584L243.829 610.565L244.325 608.101L239.759 604.025L237.338 599.639L238.767 595.017L239.025 588.003L238.608 582.807L236.841 576.334L236.008 568.273L232.911 563.461L233.467 561.249L236.802 555.836L237.715 552.452L237.477 550.968L231.939 549.77L227.393 550.551L224.813 548.624L223.582 545.864L223.642 541.696L221.498 541.02L219.096 538.127L216.238 529.918L213.518 526.372L211.772 520.427L208.536 516.044L207.266 513.122L214.233 513.879L215.642 512.783L216.694 510.304L217.786 509.625L222.629 510.8L227.413 510.199L231.601 512.104L233.07 512.131L234.599 508.372L236.405 507.642L237.596 506.415L238.032 503.596L240.137 501.429L240.593 500.201L241.883 489.831L237.616 483.35L233.447 475.193L228.167 469.021L225.468 463.735L225.627 462.322L229.458 457.637L230.569 454.05L231.343 446.351L232.792 444.281L238.132 443.364L242.082 441.242L246.587 437.809L250.835 437.442L255.004 435.765L257.306 435.555L264.631 436.604L265.564 437.232L266.914 440.587L267.152 435.896L269.455 425.67L267.072 418.798L269.335 419.165Z" fill="#C7C7C7" stroke="white" stroke-width="2"/>
<path d="M170.721 37.784L172.031 37.73L172.388 38.938L178.382 41.407L181.042 43.473L181.122 46.075L183.563 48.676L184.437 52.296L185.767 53.101L187.136 55.004L186.064 56.773L186.164 57.873L191.562 62.589L192.793 65.51L192.952 67.332L190.61 69.233L189.359 71.805L195.552 77.375L195.671 79.115L196.624 80.186L196.366 84.602L194.857 85.833L196.843 89.257L196.902 90.167L196.148 91.184L196.505 92.093L198.51 92.654L199.185 93.698L205.715 92.28L208.772 94.607L212.96 91.291H215.064L216.573 92.093L218.419 94.393L218.221 96.265L222.468 97.335L226.319 99.18L228.463 102.709L232.056 103.377L232.592 104.526L235.49 104.794L239.142 106.424L242.278 109.498L242.695 111.261L246.665 114.467L247.28 117.325L251.925 122.078L253.513 129.339L256.113 134.97L255.716 136.01L258.615 139.638L258.336 141.585L260.54 146.065L259.309 149.931L260.242 152.703L258.099 156.807L261.215 162.828L262.624 163.521L265.959 167.436L266.574 173.319L267.507 174.438L269.77 182.713L271.914 185.214L272.291 188.619L270.881 194.761L265.661 198.031L264.292 200.29L262.465 201.034L265.86 209.403L265.939 211.342L261.81 211.847L259.349 213.6L257.225 212.219L255.935 212.378L255.578 213.732L257.423 215.007L257.542 216.388L251.607 217.955L240.035 217.131L234.021 217.53L233.445 218.406L234.041 221.883L233.564 223.9L228.125 225.599L225.843 226.926L223.441 227.085L220.841 226.103L216.831 220.264L216.751 217.981L218.141 214.476L217.784 208.739L217.089 207.65L211.611 203.452L210.062 203.691L209.785 206.827L205.16 208.686L204.266 209.881L199.363 212.962L195.195 214.317L193.369 212.883L192.039 212.776L193.806 205.232L193.627 199.812L202.956 189.815L201.031 180.479L201.527 178.696L202.54 177.685L202.341 175.848L201.567 174.438L199.185 173.239L198.153 170.577L196.307 169.433L194.361 169.539L193.131 168.927L191.979 164.453L187.593 157.367L184.714 159.178L182.987 161.976L181.062 161.229L178.938 161.39L178.323 160.83L181.816 158.326L183.861 155.421L182.968 148.598L185.191 143.932L186.68 142.679L186.898 141.266L188.069 140.012L191.761 137.958L195.195 134.836L197.021 130.3L196.545 129.446L193.885 129.58L190.213 126.964L188.446 126.937L187.612 125.496L186.223 125.736L184.794 123.04L181.995 122.692L180.109 123.307L177.251 122.505L176.12 121.865L173.142 118.26L170.006 118.607L168.656 117.565L167.445 117.592L164.964 115.081L162.642 115.001L159.446 111.582L155.417 111.475L152.955 108.589L152.578 107.252L147.675 108.776L144.876 108.562L139.934 109.444L135.904 107.439L133.105 107.547L131.121 108.696L128.659 112.891L124.669 113.746L122.903 115.695L121.891 114.333L117.424 110.994L116.928 108.509L119.31 99.955L116.988 94.821L115.916 86.448L113.891 84.013L112.72 80.399L112.839 78.793L114.467 75.313L114.566 72.742L112.085 68.912L110.814 63.367L111.271 60.794L114.109 53.985L114.625 54.093L115.737 52.591L115.876 50.688L118.06 50.634L119.131 49.427L121.831 49.803L123.776 46.048L127.647 48.917L129.036 47.094L129.414 43.338L130.902 43.151L134.555 40.736L136.718 40.333L138.544 41.836L140.827 42.239L143.904 41.595L148.707 42.346L150.831 37.167L150.97 33.893L157.441 31.665L159.049 29.355L163.853 30.457L165.242 31.315L167.644 36.04L170.721 37.784Z" fill="#C7C7C7" stroke="white" stroke-width="2"/>
<path d="M68.1982 276.896L67.7412 276.922L67.7812 277.636L67.3242 277.028L67.0662 279.065L66.7482 275.89L65.6762 273.456L68.1982 276.896ZM61.6762 271.805L61.1912 269.884L61.3502 269.355L62.1832 269.302L61.6762 271.805ZM198.154 170.577L199.186 173.239L201.568 174.437L202.342 175.848L202.541 177.684L201.528 178.695L201.032 180.478L202.957 189.815L193.628 199.811L193.807 205.232L192.04 212.776L188.586 213.068L186.343 213.891L184.735 219.493L181.976 220.979L181.539 228.888L182.194 229.923L184.715 230.772L184.874 235.334L185.867 240.505L183.624 240.373L172.548 242.309L164.985 242.786L164.33 245.172L162.325 247.027L161.908 248.696L160.578 249.385L158.633 251.664L158.276 254.552L156.132 256.009L153.73 255.665L151.408 252.088L148.649 251.161L144.341 253.307L142.951 254.552L141.026 258.711L136.163 257.254L133.583 255.559L131.082 254.738L125.763 256.937L119.213 256.54L114.588 251.321L110.3 255.904L105.397 258.5L110.161 263.399L111.729 266.258L112.205 269.196L111.748 274.463L115.639 279.992L117.128 289.723L111.828 293.239L107.878 294.904L93.6462 298.71L89.1202 299.212L82.9272 298.657L76.2582 295.724L68.8342 293.477L67.0282 294.006L67.0482 292.685L66.4922 292.447L63.2962 292.949L60.3782 291.125L61.6882 290.279L62.7002 288.481L62.8992 285.07L64.7252 285.837L65.5792 285.044L66.9882 279.357L68.0802 280.415L68.3182 283.536L69.3902 284.065L69.2512 281.632L70.1442 278.855L69.5682 275.098L67.9012 274.78L68.0402 273.775L65.8762 272.664L65.3402 272.849L65.4792 273.643H64.5662L63.9132 274.025L62.9982 273.801L61.8472 272.002L62.7802 269.647L61.8072 268.403L64.2682 262.473L65.4392 256.752L65.3402 253.096L62.2832 245.756L62.0842 244.112L63.9102 240.745L64.9032 240.533L66.5112 241.328L68.3372 240.612L69.1312 236.342L68.7742 231.886L68.2782 229.844L67.0282 228.385L66.0552 228.173L65.4792 229.5L63.8122 228.836L55.7132 222.706L46.9992 218.804L48.3092 215.884L48.6662 213.282L47.6342 207.598L40.1312 200.689L39.6152 197.766L42.1362 196.33L45.0342 196.516L47.3372 198.935L50.1362 200.37L57.4412 206.216L60.5182 208.022H61.8282L63.3962 206.959L63.8732 205.843L62.1062 200.635L63.3562 198.429L62.5822 192.554L63.5942 191.172L65.6582 190.481L68.0002 190.933L71.4342 193.007L74.6702 193.113L75.0872 194.602L74.3922 197.181L74.9882 198.536L80.9432 199.254L87.2952 198.271L92.0392 200.477L94.1432 202.736L95.4732 205.26L96.5052 205.685L98.1722 204.596L101.288 201.115L102.678 197.713L102.718 194.603L106.529 193.566L108.454 191.04L110.261 191.067L111.412 192.715L113.596 194.177L116.296 194.337L120.981 192.396L121.775 191.359L122.092 189.577L124.732 187.875L126.32 187.689L130.151 188.859L132.95 185.774L134.518 185.482L136.106 188.142L141.525 208.901L142.557 209.405L144.423 207.519L146.269 207.147L149.028 207.678L151.231 210.095L152.7 210.44L156.67 203.692L159.608 197.314L163.975 195.001L167.052 192.076L168.461 188.646L168.441 185.933L169.295 184.098L182.197 177.606L194.564 172.921L198.154 170.577Z" fill="#C7C7C7" stroke="white" stroke-width="2"/>
<path d="M98.4088 10.658L98.9648 14.313L100.394 15.307L101.366 17.725L103.252 19.633L103.669 22.588L102.935 23.287L99.0048 23.26L98.2308 25.247L99.3628 27.959L98.3308 30.107L98.3908 31.718L97.1798 32.443L97.3588 33.57L100.416 39.206L101.389 44.384L104.367 45.94L106.868 49.802L114.113 53.985L111.275 60.794L110.818 63.367L112.089 68.912L114.57 72.742L114.471 75.313L112.843 78.793L112.724 80.399L113.895 84.012L115.919 86.447L116.991 94.82L119.313 99.954L116.931 108.508L117.427 110.993L121.893 114.332L122.905 115.694L124.672 113.744L128.662 112.889L131.123 108.694L133.108 107.545L135.907 107.438L139.936 109.442L144.879 108.56L147.678 108.774L152.581 107.251L152.958 108.587L155.419 111.473L159.448 111.58L162.644 114.999L164.966 115.079L167.447 117.59L168.658 117.564L170.008 118.606L173.144 118.259L176.122 121.864L177.253 122.505L180.111 123.306L181.997 122.692L184.796 123.039L186.225 125.735L187.614 125.495L188.448 126.936L190.215 126.963L193.887 129.579L196.547 129.446L197.023 130.3L195.197 134.836L191.763 137.958L188.071 140.012L186.9 141.266L186.682 142.679L185.193 143.932L182.97 148.598L183.863 155.421L181.819 158.325L178.325 160.829L178.94 161.389L181.064 161.229L182.989 161.975L184.716 159.178L187.594 157.366L191.981 164.452L193.132 168.926L194.362 169.538L196.307 169.432L198.153 170.577L194.56 172.92L182.193 177.605L169.291 184.097L168.437 185.932L168.457 188.645L167.048 192.075L163.973 195L159.606 197.313L156.668 203.691L152.698 210.439L151.229 210.094L149.026 207.677L146.267 207.146L144.421 207.518L142.555 209.404L141.523 208.9L136.104 188.141L134.516 185.481L132.948 185.773L130.149 188.858L126.318 187.688L124.73 187.874L122.09 189.576L121.773 191.358L120.979 192.395L116.294 194.336L113.594 194.176L111.41 192.714L110.259 191.066L108.452 191.039L106.527 193.565L102.716 194.602L102.676 197.712L101.286 201.114L98.1698 204.595L96.5028 205.684L95.4708 205.259L94.1408 202.735L92.0368 200.476L87.2928 198.27L80.9408 199.253L74.9858 198.535L74.3898 197.18L75.0848 194.601L74.6678 193.112L71.4318 193.006L67.9978 190.932L65.6558 190.48L63.5918 191.171L62.5798 192.553L63.3538 198.428L62.1038 200.634L63.8708 205.842L63.3938 206.958L61.8258 208.021H60.5158L57.4388 206.215L50.1338 200.369L47.3348 198.934L45.0318 196.515L42.1338 196.329L39.6128 197.765L40.1288 200.688L47.6318 207.597L48.6638 213.281L48.3068 215.883L46.9968 218.803L38.5408 216.201L31.8918 215.219L29.3908 215.777L26.2348 219.335L24.2298 218.247L23.0788 218.38L23.9118 215.193L24.0708 211.475L25.1428 209.191L22.8598 208.341L21.9668 205.791L18.1748 204.542L17.4818 203L18.2558 201.778L21.8878 200.848L23.2968 199.174L22.7808 197.526L19.1688 194.495L19.1888 190.374L20.6978 189.363L25.5408 188.911L26.5528 187.847L24.2898 185.294L25.3218 181.809L24.7858 179.095L23.3958 176.94L22.8998 168.208L24.4278 164.826L24.9438 158.779L29.1918 150.811L5.21484 130.514L18.7128 114.36L20.2808 110.085L25.2828 103.858L25.8188 99.875L33.2628 91.264L32.1908 89.07L31.6548 85.03L33.4408 83.692L33.3418 80.909L34.1358 79.303L36.5378 76.519L37.7688 75.876L40.1898 75.742L43.2468 73.707L46.2048 68.645L46.8198 65.912L47.9908 65.564L48.4678 63.233L49.7978 61.545L52.4578 60.393L52.9938 57.954L54.6008 56.667L56.3078 53.852L56.7048 51.894L58.6098 48.408L60.5548 46.155L61.4088 41.219L69.2688 36.711L69.5268 35.235L71.9678 33.758L71.4318 29.543L70.6978 28.389L71.0348 24.361L80.7018 11.061L81.6348 10.147L83.9178 10.738L84.9108 10.442L88.3648 6.437L88.3248 4.904L89.3968 3.559L93.0298 2L94.8558 2.86L96.7418 6.947L99.6398 8.103L99.7188 9.124L98.4088 10.658Z" fill="#C7C7C7" stroke="white" stroke-width="2"/>
<path d="M130.863 307.163L135.111 307.638L143.389 314.027L147.676 320.098L150.693 328.382L152.757 329.859L156.549 330.492L159.387 332.417L162.285 336.214L162.98 340.353L163.417 340.406L168.28 333.709L170.88 333.235L172.647 334.606L178.721 343.964L181.003 346.493L182.85 346.915L185.787 345.966L188.566 346.52L190.035 347.89L190.551 350.945L190.531 352.21L189.36 352.947L179.713 356.582L176.041 359.109L174.969 361.637L176.081 365.638L175.605 367.638L172.349 369.322L166.196 374.005L164.528 374.426L161.789 373.689L157.105 370.743L154.127 371.585L151.805 374.189L145.929 385.628L138.665 390.596L135.25 394.012L130.486 396.035L128.501 397.506L125.405 397.927L123.896 400.605L121.376 401.814L119.906 405.727L117.267 405.359L115.282 406.777L113.555 408.956L112.642 409.219L110.895 408.536L106.389 410.558L104.603 409.849L102.499 407.617L100.355 407.88L98.6276 409.508L97.7536 413.996L91.2436 419.296L89.1786 425.539L85.6056 426.93L83.4026 429.054L80.0676 425.775L77.5866 426.195L76.2766 427.899L75.6416 427.191L75.3436 425.303L73.1606 426.903L72.8626 426.457L73.7556 424.805L72.7636 424.517L71.4136 426.457L70.5796 426.641L68.7336 424.543L67.4436 425.592L65.7366 425.225L64.8626 425.67L64.2676 427.979L60.7146 428.293L60.4366 429.499L60.9326 431.491L60.4366 432.095L58.7296 431.99L57.8756 431.203L55.2166 431.282L53.0326 430.233L52.1996 430.469L51.0276 432.121L49.6186 430.207L49.7776 433.379L48.8046 434.532L48.1696 434.113L46.3826 429.84L44.8146 429.236L43.5046 430.601L42.9096 429.866L41.7776 430.495L42.4136 432.147L43.7036 432.881L43.5446 433.772L42.7306 433.852L41.8176 432.278L41.0436 432.383L41.3616 434.113L40.2296 434.664L39.3366 436.132L39.7536 439.041L40.8846 439.984L40.9446 441.504L38.3436 441.714L36.1606 442.762L36.5376 436.63L39.3366 427.008L40.1106 420.556L39.6346 412.657L36.1406 404.099L40.3686 403.573L42.7506 400.737L43.3066 396.088L44.5176 393.408L45.0536 390.228L49.9566 384.603L51.8616 379.896L52.6356 375.873L52.2986 372.848L57.6576 373.9L64.6646 372.532L66.8086 373.716L68.4956 375.768L70.7976 370.611L76.4756 363.506L76.5946 362.084L75.0456 355.212L75.1056 352.342L76.2766 349.392V347.705L72.5446 341.223L73.1606 335.713L72.0886 328.699L73.4976 326.377L75.1256 326.879L78.0236 325.059L79.2346 325.349L80.6046 326.8L81.3976 326.747L83.0056 325.059L85.3876 324.795L84.9316 321.893L87.7296 320.441L88.2266 332.365L92.2156 335.344L97.4366 334.975L101.188 332.839L103.769 329.517L108.87 325.745L115.301 324.821L117.902 322.842L119.748 324.425L121.276 324.083L123.896 320.125L126.457 317.617L129.037 312.76L130.685 311.018L130.863 307.163Z" fill="#C7C7C7" stroke="white" stroke-width="2"/>
<path d="M5.334 572.356L7.141 573.058L7.816 574.852L6.347 579.973L5.057 579.557L3.965 575.658L2.694 574.566L2 572.303L2.397 569.755L3.489 569.599L5.334 572.356ZM11.012 533.802L13.731 534.453L17.006 531.039L20.003 530.335L27.387 532.812L28.3 533.541L29.55 536.72L32.408 537.919L33.162 537.398L32.646 536.095L33.42 534.818L35.147 534.74L39.335 532.343L40.089 533.047L39.057 536.018L40.387 538.128L42.292 537.711L43.483 538.988L46.679 539.874L44.912 541.906L45.012 543.833L45.925 544.067L46.798 543L48.128 544.276L51.462 543.807L52.236 544.979L51.839 545.968L52.196 546.619L54.538 546.124L56.305 547.244L56.146 551.15L57.178 552.868L59.163 552.113L61.108 550.134L63.629 551.436L63.569 552.321L62.021 552.738L61.842 553.441L62.339 554.482L63.51 554.352L63.173 556.642L63.788 558.047L65.614 558.464L66.249 556.981H66.864L67.837 557.657L68.631 559.584L69.485 559.948L71.45 557.761L73.177 557.865L78.536 560.571L79.766 562.419L82.247 564.11L85.939 565.541L86.872 566.503L90.186 566.634L92.35 566.087L94.574 566.634L94.653 568.324L91.556 573.369V574.773L92.806 575.865L95.923 574.487L97.967 574.747L97.729 576.749L98.305 579.53L97.114 581.506L96.281 586.34L97.472 586.417L99.219 588.158L101.045 588.521L101.362 590.885L102.772 591.691L104.876 594.547L106.96 599.039L108.35 599.403L110.394 602.155L99.834 612.25L99.04 613.937L109.243 625.244L110.474 629.081L113.292 630.195L111.466 632.734L111.446 633.564L113.709 637.787L114.186 642.709L119.188 650.657L122.622 661.811L127.723 664.863L131.772 668.743L136.477 677.481L139.911 686.241L141.082 686.991L142.233 686.784L146.937 683.09L153.091 687.197L154.341 687.068L155.154 685.466L155.928 685.207L160.453 689.057L163.272 693.163L168.334 697.888L169.525 701.322L171.589 702.767L175.103 706.948L176.75 708.213L181.494 710.122L185.98 715.022L193.443 717.343L193.622 718.761L192.669 722.036L193.086 726.108L198.148 731.855L201.304 738.836L202.217 743.189L205.731 744.502L208.252 750.011L207.597 751.401L205.275 753.126L208.788 758.864L208.014 760.896L205.81 763.289L206.564 764.961L208.311 766.632L208.688 768.381L211.526 770.412L211.744 772.263L209.839 773.214L207.219 776.195L204.063 777.198L202.574 780.23L200.807 781.232L200.47 787.475L198.187 786.216L196.718 784.34L194.654 783.749L193.721 784.007L193.781 785.651L191.36 788.785L193.265 792.483L192.253 793.664L185.683 793.998L178.756 791.636L173.535 791.431L170.776 789.531L170.101 788.452L167.818 787.296L166.051 784.573L163.193 784.83L160.95 782.672L157.158 781.619L155.431 782.081L154.141 779.795L152.891 781.156L151.303 781.131L150.012 782.133L148.861 781.619L148.226 783.725L147.889 782.055L146.817 781.746L147.035 782.929L144.752 782.8L144.275 780.847L145.089 780.128L145.168 779.177L144.394 779.563V778.15L145.704 774.166L146.637 773.961L147.193 772.778L147.55 769.718L146.637 768.509L148.106 766.401L147.014 765.784L147.312 766.813L146.697 767.378L145.963 767.172L146.082 768.046L145.07 767.403L145.11 768.174L143.999 768.508L145.031 769.023L145.984 768.585L145.428 769.331L143.602 768.637L142.808 766.143L144.098 763.571H144.832L144.951 762.105L146.44 762.13L147.174 762.953L147.631 762.388L147.452 760.896L148.346 761.05L148.286 759.738L149.437 759.197L148.623 756.11L146.698 755.852L147.313 755.003L146.698 754.694L148.266 754.076L149.239 752.301L149.1 751.014L149.417 750.422L150.012 750.705L150.509 749.418L149.933 744.887L152.236 742.699L151.898 738.527L150.509 735.41L148.901 735.591L148.365 736.673L145.725 735.152L145.705 736.053L144.812 736.105L143.72 735.152L144.375 734.482L142.251 734.251L140.663 732.757L139.929 732.782L139.572 730.849L138.798 730.204L139.294 729.509L135.761 729.998L134.848 727.911L134.253 728.787L133.419 727.808L131.077 728.349L130.065 726.571L130.125 725.643L131.991 726.236L131.475 724.896L133.082 722.679L134.353 721.492L135.564 721.853L136.021 721.492L135.306 720.847L135.485 717.521L131.138 711.563L130.563 708.596L129.015 707.202L128.678 705.835L127.09 704.054L126.356 701.705L120.758 693.185L118.952 691.403L115.28 689.415L111.33 689.208L110.377 690.732L108.928 689.983L108.65 690.809L107.499 690.603L106.745 689.828L106.904 688.847L108.79 688.976L108.909 688.382L107.758 687.013L106.329 686.703L106.924 686.315L106.329 685.1L104.582 684.093L103.649 684.196L103.471 687.788L102.478 686.961L101.684 682L99.56 681.562L98.111 682.13L98.766 680.89L98.091 679.856L99.143 678.719L98.528 677.374L96.801 676.547L94.994 676.909L93.188 674.66L91.243 674.428L91.223 673.626L88.385 673.601L88.683 671.92L88.226 671.377L83.284 670.523L82.331 669.903L79.989 670.135L78.6 669.204L78.084 667.704L76.536 666.229L73.36 665.04L69.489 661.884L66.79 660.927L64.09 657.926L55.317 654.691L52.339 652.594L49.898 651.792L45.293 647.728L42.573 646.77L41.62 645.138L40.33 644.335L37.472 641.875L36.975 640.969L35.725 639.492L35.169 637.549L31.457 634.104L29.591 630.32L24.787 625.343L23.279 622.984L23.438 621.247L24.609 621.143L23.557 619.794L23.319 616.656L22.585 613.724L21.533 612.349L21.732 611.701L20.322 610.767L17.226 604.617L13.693 600.697L13.673 599.918L10.557 597.114L10.835 596.491L9.406 595.322L8.85 595.089L6.825 593.687L7.282 592.751L9.287 592.673L10.379 590.751L13.197 589.141L15.261 591.116L17.186 590.518L20.66 593.479L22.883 596.414L24.65 597.4L25.047 598.672L28.163 601.892L29.989 605.188L31.041 609.704L30.306 610.016L30.862 611.184L30.266 612.663L30.782 613.545L30.405 614.323L32.807 617.306L32.985 618.136L32.37 618.576L33.184 619.51L35.586 619.588L39.874 618.084L41.799 616.605L43.347 614.4L45.371 613.18L45.609 611.338L44.636 608.873L45.093 606.797L44.398 605.266L45.609 602.748L44.537 601.009L44.338 599.53L44.894 595.298L46.661 592.934L47.415 590.857V586.778L46.324 585.894L45.808 586.492L45.093 586.284L44.954 585.583L40.964 583.322L34.076 574.146L31.436 572.793L30.007 573.365L29.272 572.481L26.355 567.618L26.831 566.083L24.767 564.626L24.35 562.883L25.144 562.858L25.581 561.712L24.132 556.378L24.628 555.831L23.774 554.685L23.992 555.752L23.615 555.361L16.786 540.726L11.012 533.802Z" fill="#C7C7C7" stroke="white" stroke-width="2"/>
</svg>
