<svg width="796" height="650" viewBox="0 0 796 650" fill="none" xmlns="http://www.w3.org/2000/svg">
<path d="M492.161 81.6299L504.751 83.9099L512.421 84.8799L515.631 95.2299L518.671 98.21L521.101 100.33L525.221 102.19L528.221 103.03L530.341 104.47L533.651 105.48L536.521 104.22L537.771 102.53L539.201 100.67L540.951 98.9799L543.321 98.5499L546.511 99.3099L549.441 100.07L552.941 99.7399L557.061 98.1299L559.501 96.08L563.871 95.6599L565.591 94.4399L568.591 90.6899L571.661 89.5699L574.881 89.3699L577.581 89.5699L581.171 91.4999L586.121 92.8199L591.661 95.2499L594.961 96.1599L598.551 96.3699L603.121 95.96L608.291 95.7599L612.731 98.9999L614.861 101.54L622.551 103.69L628.761 108.3L639.251 116.83L653.461 116.3L658.351 113.88L664.031 113.32L669.851 115.27L674.941 115.45L679.061 114.61L686.451 111.49L688.581 113.98L690.051 119.67L690.921 125.42L683.331 134.16L678.931 137.93L676.821 144.1L673.811 151.79L671.191 154.66L668.571 156.18L666.071 158.21L664.571 163.45L662.801 170.7L663.201 188.04L664.201 189.73L667.321 191.92L678.061 191.2L699.071 193.25L709.561 199.21L722.791 205.46L733.071 208.87L748.391 212.56L772.741 208.87L777.801 206.86L783.171 207.03L784.921 210.07L785.921 212.44L787.421 217L789.661 219.36L792.041 224.6L794.001 229.97L792.681 231.87L789.321 235.56L781.801 242.34L775.561 245.55L771.691 248.42L766.321 252.13L756.201 256.36L748.591 255.3L727.491 255.68L715.241 257.78L712.041 260.07L708.851 262.91L704.651 266.42L696.661 276.15L692.371 279.93L691.511 281.49L683.591 281.92L676.101 281.58L665.611 281.92L647.381 279.22L633.151 278.2L620.921 276.52H612.671L606.181 274.83H596.691L589.951 274.49L584.711 275.84L582.461 279.22L579.211 281.92L575.471 280.23L572.721 275.5L569.981 274.49L564.731 274.83L560.241 280.57L554.991 284.28L550.001 288L545.001 293.07L538.261 299.48L532.311 305.78L530.531 306.54L520.831 310.84L515.441 310.36L510.651 309.22L507.541 306.03L503.061 302.98L493.191 302.45L491.251 300.43L488.551 298.1L484.881 293.94L481.961 291.11L479.411 290.6L476.641 291.21L473.641 293.23L466.451 294.35L464.131 295.36L460.461 296.07L458.121 296.58L455.051 298.5L450.031 303.37L447.211 307.05L445.751 310.12L442.261 310.66L440.551 309.7L433.781 311.37L431.171 313.9L428.871 316.47L426.171 317.68L421.681 317.41L417.691 316.06L416.741 314.86L413.951 310.9L409.561 308.74L407.361 307.26L400.571 307.66L386.491 307.93L371.801 308.47L318.131 310.8L321.491 308.81L329.881 303.42L333.811 301.83L336.191 297.78L337.431 290.85L340.061 282.58V276.33L338.311 269.75L335.691 264.51L332.091 261.98L330.671 259.54L330.071 256.91L330.221 252.65L329.171 247.48L327.521 244.04L326.251 241L326.171 234.23L327.601 226.12L327.671 217.81L327.071 212.03L325.951 207.67L324.321 206.56L324.431 204.61L325.151 202.66L327.591 200.55L330.521 199.71L332.741 197.5L335.191 194.69L338.861 192.86L341.931 190.13L344.101 186.17L345.531 183.23L346.131 179.89L345.451 175.27L346.721 169.6L347.021 165.24L347.701 161.79L350.171 159.66L351.741 157.73L353.391 155.5L354.811 153.47L356.841 152.56L361.411 151.55L369.131 149.5L371.451 146.71L374.821 144.52L377.061 140.97L382.561 135.58L384.801 131.16L387.051 128.46L389.551 126.6L394.541 124.91L398.791 124.06L405.411 122.54L411.271 122.37L412.441 120.04L412.851 116.28L412.281 112.98L411.091 111.44L409.911 109.94L409.641 106.6L411.531 98.3499L409.141 94.5299L407.041 90.9799L406.071 87.0399L407.781 86.4799L409.681 85.8499L413.181 82.8499L417.111 78.8699L420.941 79.52L423.941 83.9099L433.051 83.7399L438.231 85.8499L443.261 84.5499L451.291 83.09L458.541 83.2899L465.801 81.4699L469.631 77.2499L475.271 74.4899L477.661 74.1699L480.901 76.7599L484.971 80.0099L492.161 81.6299Z" fill="#C7C7C7" stroke="white" stroke-width="2"/>
<path d="M589.949 274.49L596.689 274.83H606.179L612.669 276.52H620.919L633.149 278.2L647.379 279.22L665.609 281.92L676.099 281.58L683.589 281.92L691.509 281.49L690.069 284.12L688.879 291L684.869 296.08L682.969 298.78L682.169 302.56L682.469 305.8L683.369 309.18L682.969 316.88L681.569 321.61L681.169 327.42L681.369 333.49L682.279 343.44L682.869 346.77L681.469 350.96L678.769 355.68L677.069 357.71L674.779 359.87L673.879 363.79L672.579 367.7L670.879 370L666.789 374.72L662.589 381.61L660.189 384.85L657.299 386.86L657.199 394.79L665.789 399.78L666.589 414.5L667.189 421.12L667.289 434.34L666.789 436.1L665.489 437.92L656.039 442.46L652.899 444.67L649.009 450.61L644.549 458.23L639.619 464.78L636.419 468.83L632.529 472.07L628.529 474.36L624.339 475.71L620.739 475.44L614.349 470.18L609.149 466.67L598.519 457.36L593.519 455.2L589.429 454.79L584.929 455.6L581.039 456.95L575.939 457.09L569.169 457.87L561.909 459.25L557.319 460.73L547.629 461.14L540.049 460.05L538.449 460.88L535.139 462.23L534.019 464.76L522.199 462.94L516.209 460.78L502.819 457.54L494.829 456.46L483.039 453.22L474.249 450.25L463.669 448.9L456.769 446.41L451.159 443.34L447.289 441.14L444.909 439.62L441.919 439.46L439.049 439.62L436.799 441.82L433.679 444.69L431.679 445.53L425.309 446.71L416.949 444.69L411.199 443L405.349 437.21L394.719 431.36L386.479 426.63L379.119 420.05L372.619 413.3L364.759 406.21L356.889 400.98L347.899 393.89L342.779 389.24L339.659 386.7L336.789 386.53L333.299 388.39L330.419 390.08L327.799 389.4L325.179 387.55L320.319 388.22L317.149 390.79L314.329 395.14L312.579 397.84L307.839 400.37L302.589 400.88L297.729 399.87L293.109 395.99L289.359 391.09L287.609 385.69L286.239 376.41L285.859 372.86L287.859 369.99L289.599 367.56L289.859 363.75L288.739 359.36L288.489 355.31L289.729 351.09L292.229 347.88L294.979 344.5L299.469 340.28L302.469 337.75L304.719 333.7L307.209 330.66L309.709 327.11L310.579 324.24L311.799 319.36L311.959 315.85L313.079 313.32L314.399 309.92L318.129 310.8L371.799 308.47L386.489 307.93L400.569 307.66L407.359 307.26L409.559 308.74L413.949 310.9L416.739 314.86L417.689 316.06L421.679 317.41L426.169 317.68L428.869 316.47L431.169 313.9L433.779 311.37L440.549 309.7L442.259 310.66L445.749 310.12L447.209 307.05L450.029 303.37L455.049 298.5L458.119 296.58L460.459 296.07L464.129 295.36L466.449 294.35L473.639 293.23L476.639 291.21L479.409 290.6L481.959 291.11L484.879 293.94L488.549 298.1L491.249 300.43L493.189 302.45L503.059 302.98L507.539 306.03L510.649 309.22L515.439 310.36L520.829 310.84L530.529 306.54L532.309 305.78L538.259 299.48L544.999 293.07L549.999 288L554.989 284.28L560.239 280.57L564.729 274.83L569.979 274.49L572.719 275.5L575.469 280.23L579.209 281.92L582.459 279.22L584.709 275.84L589.949 274.49Z" fill="#C7C7C7" stroke="white" stroke-width="2"/>
<path d="M142.509 150.57L144.259 152.43L145.879 154.29L150.369 155.14L154.369 157L161.979 159.73L163.859 163.42L167.349 165.11L170.719 164.77L173.459 163.66L179.209 166.46L182.589 174.4L182.609 179.95L181.959 184.13L183.279 189L184.359 194.19L184.119 200.84L183.759 206.03L184.599 210.24L184.959 216.89L187.119 221.43L190.349 224.84L192.509 228.73L194.069 234.08L196.709 238.95L200.539 244.27L205.219 248.43L207.969 251.03L212.169 252.49L216.599 254.11L218.759 257.51L220.199 262.22L222.359 267.24L224.629 268.05L227.269 269.51L230.149 273.89L230.749 278.27L229.549 281.02V286.05V290.27L232.189 294.16L232.869 298.32L233.709 299.05L234.829 301.34L240.459 300.8L246.209 299.67L247.889 300.8L253.279 301.45L258.189 303.56L263.469 304.86L270.589 308.88L276.019 310.32L282.049 308.4L288.419 308.24L292.039 305.7L297.649 304.35L301.769 305.7L309.769 306.88L314.399 309.92L313.079 313.32L311.959 315.85L311.799 319.36L310.579 324.24L309.709 327.11L307.209 330.66L304.719 333.7L302.469 337.75L299.469 340.28L294.979 344.5L292.229 347.88L289.729 351.09L288.489 355.31L288.739 359.36L289.859 363.75L289.599 367.56L287.859 369.99L285.859 372.86L284.549 371.25L282.359 371.71L279.689 374.24L273.449 375.76L266.329 376.77L259.459 375.42L252.529 372.18L241.609 372.89L238.069 376.1L233.819 373.91L229.079 375.09L225.889 379.48L224.649 382.01L221.019 385.22L216.409 385.89L210.159 386.23L205.289 386.9L202.049 391.29L197.799 394.67L194.579 394.83L191.309 395L187.189 396.19L184.069 399.9L181.569 401.25L177.449 401.08L172.959 401.25L167.209 400.07L162.089 400.91L156.979 401.08L152.349 403.27L144.989 405.64L137.369 407.33L133.879 409.69L129.009 412.56L124.009 413.74L121.839 414.19L122.599 412.85L121.519 407.67L119.849 402.97L111.099 383.04L107.979 377.05L104.739 372.35L99.8291 367.32L97.3091 364.25L94.0791 358.9L91.5591 352.09L90.4791 346.91L90.7191 342.69L92.1591 339.77L93.1191 337.34L93.1291 332.09L91.4491 329.82L87.6791 327.26L82.0091 324.42L76.7591 321.3L73.1891 319.88L68.9991 319.03H65.6391L62.2791 319.6L59.9691 321.3L52.6691 325.45L46.4291 328.04L41.6291 330.83L38.3491 331.24L36.0391 331.8L32.6891 333.51L28.0691 336.91L25.9691 338.33L21.8591 341.98L16.7091 342.63L13.7991 341.74L12.9591 341.45L12.5391 340.6L12.1191 337.2L12.5391 332.37L15.2691 329.5L17.1891 327.23L18.7491 324.31L21.7391 319.45L24.1391 317.02L24.2891 311.37V309.66L23.8691 303.7L24.4991 301.72L26.8091 297.74L29.9591 290.93L31.8491 286.67L34.1591 281.28L38.1391 276.45L41.4991 272.76L43.3891 271.62L48.2191 270.21L52.6291 268.22L57.6591 265.66L64.5891 262.54L68.1591 260.27L70.2591 258L73.8191 254.59L74.8691 252.6L75.2891 250.05L75.4991 246.36L75.0791 244.08L74.2391 241.81L73.3991 239.82L72.7691 238.69L70.6791 237.27L65.0091 236.13L61.2291 235.56L58.9191 234.43L56.1891 233.01L53.8791 231.59L52.6291 229.89L50.3191 226.19L47.1691 221.65L45.6991 219.38L44.2291 217.39L41.2891 212.56L39.3991 210.01L38.5591 208.3V207.17L38.7691 206.03L39.8191 204.33L40.2391 202.34L40.6591 200.63V198.93L41.0791 196.37L41.7091 194.95L42.7591 194.38L44.2291 193.82L47.7991 192.68L49.4791 191.83L51.7891 189.27L57.2391 183.87L62.4891 180.47L66.8991 175.92L67.9491 173.65L68.9991 168.54L69.6291 163.99L71.0991 161.72L72.3491 158.02L72.9791 152.91V149.55L84.3191 149.5L90.1891 151.21H94.3891L99.4691 152.11L102.829 151.14L105.099 149.35L107.859 142.21L114.329 141.83L117.059 139.56H126.499L132.959 148.29L139.139 150.07L142.509 150.57Z" fill="#C7C7C7" stroke="white" stroke-width="2"/>
<path d="M406.07 87.04L407.04 90.98L409.14 94.53L411.53 98.35L409.64 106.6L409.91 109.94L411.09 111.44L412.28 112.98L412.85 116.28L412.44 120.04L411.27 122.37L405.41 122.54L398.79 124.06L394.54 124.91L389.55 126.6L387.05 128.46L384.8 131.16L382.56 135.58L377.06 140.97L374.82 144.52L371.45 146.71L369.13 149.5L361.41 151.55L356.84 152.56L354.81 153.47L353.39 155.5L351.74 157.73L350.17 159.66L347.7 161.79L347.02 165.24L346.72 169.6L345.45 175.27L346.13 179.89L345.53 183.23L344.1 186.17L341.93 190.13L338.86 192.86L335.19 194.69L332.74 197.5L330.52 199.71L327.59 200.55L325.15 202.66L324.43 204.61L324.32 206.56L325.95 207.67L327.07 212.03L327.67 217.81L327.6 226.12L326.17 234.23L326.25 241L327.52 244.04L329.17 247.48L330.22 252.65L330.07 256.91L330.67 259.54L332.09 261.98L335.69 264.51L338.31 269.75L340.06 276.33V282.58L337.43 290.85L336.19 297.78L333.81 301.83L329.88 303.42L321.49 308.81L318.13 310.8L314.4 309.92L309.77 306.88L301.77 305.7L297.65 304.35L292.04 305.7L288.42 308.24L282.05 308.4L276.02 310.32L270.59 308.88L263.47 304.86L258.19 303.56L253.28 301.45L247.89 300.8L246.21 299.67L240.46 300.8L234.83 301.34L233.71 299.05L232.87 298.32L232.19 294.16L229.55 290.27V286.05V281.02L230.75 278.27L230.15 273.89L227.27 269.51L224.63 268.05L222.36 267.24L220.2 262.22L218.76 257.51L216.6 254.11L212.17 252.49L207.97 251.03L205.22 248.43L200.54 244.27L196.71 238.95L194.07 234.08L192.51 228.73L190.35 224.84L187.12 221.43L184.96 216.89L184.6 210.24L183.76 206.03L184.12 200.84L184.36 194.19L183.28 189L181.96 184.13L182.61 179.95L182.59 174.4L179.21 166.46L173.46 163.66L170.72 164.77L167.35 165.11L163.86 163.42L161.98 159.73L154.37 157L150.37 155.14L145.88 154.29L144.26 152.43L142.51 150.57L139.14 150.07L132.96 148.29L126.5 139.56L129.23 134.73L137.68 123.55L139.6 120.96L142.6 117.39L141.4 113.65L139.24 110.73L137.08 105.05L136.36 101.16L135.55 95.63L134.06 93.81L132.57 90L128.45 87.36L128.57 83.3L130.03 80.95L129.86 78.74L128.23 74.14L125.1 70.92L124.5 67.19L125.58 64.27L126.89 61.67L127.73 56.31L130.13 53.71L132.29 50.79L135.62 50.19L137.2 48.44L139.84 44.7L142.48 41.78L143.07 37.56V34.15L142.48 30.9L142.84 27.17L145.39 25.02L146.02 19.9L145.59 12.88L146.91 10.93L152.11 10.52L155.47 10.23H158.83L163.44 10.52H167.64L169.18 7.84998L173.02 6.54999L177.93 7.09998L178.98 8.23999L182.75 13.93L185.48 18.76L187.37 22.74L189.68 26.72L191.78 28.43L192.62 29L201.43 29.85L210.88 28.43L219.79 27.76L226.83 29.28L231.96 29.93L234.96 26.2L237.32 21.04L242.88 17.43L246.48 15.32L248.76 13.86L253.19 12.88L257.15 14.83L261.46 18.24L265.66 17.06L269.86 13.08L271.87 10.67L275.36 9.96002L280.28 7.52002L287.83 4.10999L292.98 2.16998L296.7 2L303.65 6.25L310.6 11.74L314.44 11.58L316 10.12L318.99 7.02997L324.64 6.82001L325.47 7.75L329.4 15.97L333.23 20.68L337.07 23.76L347.09 22.74L349.05 28.31L350.37 30.42V37.89L351.93 39.83L356.12 39.52L356.92 41.92L356.46 45.76L356.82 49.98L358.74 53.71L361.37 57.45L366.41 62.16L369.65 64.59H376.36L384.27 65.56L388.46 68.32L390.98 72.06L394.53 76.47L398.94 82.72L401.65 87.15L405.24 87.31L406.07 87.04Z" fill="#C7C7C7" stroke="white" stroke-width="2"/>
<path d="M102.62 460.2L108.24 464.41L112.76 467.04L116.63 469.75L120.88 473.29L126.5 477.5L133.11 481.55L138.6 484.25L144.97 488.81L152.09 494.54L158.71 500.28L165.2 506.35L171.44 509.55L176.94 510.57L184.18 507.7L188.42 505.84L193.54 501.29L198.66 498.08L203.16 498.25L208.4 499.43L213.75 501.46L218.62 503.48L226.61 506.52L236.73 507.36L245.09 507.53L257.45 507.87L263.57 509.22L275.93 510.23L284.17 509.72L284.67 517.14L286.29 522.88L288.79 526.76L293.29 527.6L297.53 527.77L300.59 528.46L302.15 529.79L302.52 532.83V535.69L303.52 540.92L306.4 544.46L309.02 546.99L313.01 551.88L316.88 556.6L318.76 559.47L320.09 562.46L318.74 563.81L317.79 565.57L316.7 572.34L317.06 576.08L318.69 582.27L317.98 590.9L319.6 600.88L318.91 604.63L315.97 605.41L311.6 605.83L308.16 608.36L307.54 614.26L307.23 623.11L307.54 629.43L306.92 636.17L304.73 637.86L298.49 638.7L295.99 637.01L293.81 636.59L290.68 637.86L287.56 638.28H281.32L278.51 637.01H275.39L273.21 639.54L264.78 638.7L264.6 638.62L261.25 639.47H250.44L246.67 643.33L242.62 644.6L238.56 645.02L230.44 648.81L217.96 647.55L211.4 646.28L204.85 642.49L203.72 640.77L193.04 635.51L184.64 633.52L171.21 633.81L160.51 634.94L158.69 634.62L151.88 632.74L142.42 629.01L134.62 628.16L129.31 626.9L127.34 625.35L100.64 624.4L97.05 622.46L90.4 621.91L87.89 620.77L84.11 618.79L80.33 614.26L76.34 609.72L73.61 605.19L72.98 604.34V603.49L74.03 603.2H76.76L78.57 603.59L78.11 600.29L77.75 597.7L77.03 594.63L75.71 592.85L75.23 589.93L74.16 586.7L72.96 584.92L70.92 583.46L70.26 575.15L70.05 572.03L70.26 569.76L70.68 568.91L71.72 567.5L73.4 565.79L76.76 562.68L78.44 561.26L81.17 557.58L80.96 555.59L80.54 554.74L78.65 553.04L75.5 551.05L72.77 549.07L69.83 546.52L68.37 544.54L67.53 542.55L66.9 537.73L67.11 533.48L66.9 527.81V525.26L66.48 521.57L66.69 519.3L67.32 516.75L68.44 514.67L67.03 511.95L60.81 506.08L54.37 498.69L50.7 494.54L32.27 494.24L28.65 493.4L25.8 492.72L24.6 492.79L23.01 493.6L20.76 494.14L18.76 493.4L17.36 490.77L15.88 488.67L11.99 488.94H9.89L8.79 489.75L7.29 490.43L5.6 490.16L4.2 488.81L3.2 487.32L2.5 485.57L2 483.14L3.5 480.17L5.6 478.55L8.09 476.8L11.29 474.37L13.89 471.8L15.48 469.78L17.08 467.49L19.98 465.73L22.68 464.52L29.27 464.38L31.77 463.84L34.56 462.63L37.07 462.42L45.21 462.79H58.49L65.29 461.45L68.87 458.04L76.27 456.59L81.17 454.43L86.66 450.92L88.07 449.25L92.14 452.94L97.25 456.99L102.62 460.2Z" fill="#C7C7C7" stroke="white" stroke-width="2"/>
<path d="M252.92 396.52L257.17 402.94L258.17 405.64L259.29 411.04L261.54 416.1L264.54 422.01L266.41 427.07L267.16 431.12L266.66 434.49L262.29 436.86L260.54 439.72L261.29 443.94L263.16 449.51L265.29 451.87L267.41 457.35L269.78 463.26L272.15 467.48L275.4 468.66L277.02 472.87L278.4 478.1L280.27 480.97L282.64 484.51L285.51 487.55L287.38 490.76L289.51 494.3L290.76 497.17V500.03L288.01 504.76L284.17 509.72L275.93 510.23L263.57 509.22L257.45 507.87L245.09 507.53L236.73 507.36L226.61 506.52L218.62 503.48L213.75 501.46L208.4 499.43L203.16 498.25L198.66 498.08L193.54 501.29L188.42 505.84L184.18 507.7L176.94 510.57L171.44 509.55L165.2 506.35L158.71 500.28L152.09 494.54L144.97 488.81L138.6 484.25L133.11 481.55L126.5 477.5L120.88 473.29L116.63 469.75L112.76 467.04L108.24 464.41L102.62 460.2L97.2503 456.99L92.1403 452.94L88.0703 449.25L89.8603 447.14L90.5403 442.57L91.1103 441.11L94.4803 438.38L96.5803 436.46L100.62 431.8L104.37 429.27L108.12 427.55L116.36 419.55L121.35 415.06L121.84 414.19L124.01 413.74L129.01 412.56L133.88 409.69L137.37 407.33L144.99 405.64L152.35 403.27L156.98 401.08L162.09 400.91L167.21 400.07L172.96 401.25L177.45 401.08L181.57 401.25L184.07 399.9L187.19 396.19L191.31 395L194.58 394.83L197.8 394.67L202.05 391.29L205.29 386.9L210.16 386.23L216.41 385.89L221.02 385.22L224.65 382.01L225.89 379.48L229.08 375.09L233.82 373.91L238.07 376.1L239.82 382.35L242.56 389.27L244.19 391.97L246.43 392.64L250.55 393.32L252.92 396.52Z" fill="#C7C7C7" stroke="white" stroke-width="2"/>
<path d="M238.07 376.1L241.61 372.89L252.53 372.18L259.46 375.42L266.33 376.77L273.45 375.76L279.69 374.24L282.36 371.71L284.55 371.25L285.86 372.86L286.24 376.41L287.61 385.69L289.36 391.09L293.11 395.99L297.73 399.87L302.59 400.88L307.84 400.37L312.58 397.84L314.33 395.14L317.15 390.79L320.32 388.22L325.18 387.55L327.8 389.4L330.42 390.08L333.3 388.39L336.79 386.53L339.66 386.7L342.78 389.24L347.9 393.89L356.89 400.98L364.76 406.21L372.62 413.3L379.12 420.05L386.48 426.63L394.72 431.36L405.35 437.21L411.2 443L416.95 444.69L425.31 446.71L431.68 445.53L433.68 444.69L436.8 441.82L439.05 439.62L441.92 439.46L444.91 439.62L447.29 441.14L451.16 443.34L456.77 446.41L463.67 448.9L474.25 450.25L483.04 453.22L494.83 456.46L502.82 457.54L516.21 460.78L522.2 462.94L534.02 464.76L532.65 469.4V473.09L532.77 481.44V489.45L532.46 497.72L531.71 500.42L530.96 503.54L530.4 505.9L530.58 508.01L532.15 509.86L533.02 512.81L535.99 516.75V519.87L533.05 522.14L529.36 525.06L526.66 529.91L523.4 536.31L520.04 538.02L510.17 538.58L505.77 537.16L501.99 535.46L498.63 536.88L495.27 539.78L491.38 541.8L485.68 540.59L482.98 536.45L479.29 536L476.38 538.87L472.8 541.4L470.1 543.69L468.96 547.3L466.27 548.27L463 547.98L461.69 546.61L456.44 544.25L453.5 542.77L449.18 541.47L444.48 544.82L441.12 544.54L435.03 543.69L430.21 543.97L424.96 545.67L420.76 546.24L415.94 545.39L410.27 543.4L403.97 538.58L399.13 538.7L396.21 539.43L394.79 541.08L391.04 542.21L386.74 543.69L382.84 544.91L379.15 548.55L375.35 553.81L371.16 561.9L370.18 566.08L365.14 581.95L363.04 585.92L360.32 587.62L356.24 586.89L351.71 581.95L346.46 576.28L339.54 566.93L337.62 562.51L335.2 560.17L332.89 559.54L329.65 559.85L328.15 561.1L326.33 563L324.48 562.8L322.24 562.94L320.09 562.46L318.76 559.47L316.88 556.6L313.01 551.88L309.02 546.99L306.4 544.46L303.52 540.92L302.52 535.69V532.83L302.15 529.79L300.59 528.46L297.53 527.77L293.29 527.6L288.79 526.76L286.29 522.88L284.67 517.14L284.17 509.72L288.01 504.76L290.76 500.03V497.17L289.51 494.3L287.38 490.76L285.51 487.55L282.64 484.51L280.27 480.97L278.4 478.1L277.02 472.87L275.4 468.66L272.15 467.48L269.78 463.26L267.41 457.35L265.29 451.87L263.16 449.51L261.29 443.94L260.54 439.72L262.29 436.86L266.66 434.49L267.16 431.12L266.41 427.07L264.54 422.01L261.54 416.1L259.29 411.04L258.17 405.64L257.17 402.94L252.92 396.52L250.55 393.32L246.43 392.64L244.19 391.97L242.56 389.27L239.82 382.35L238.07 376.1Z" fill="#C7C7C7" stroke="white" stroke-width="2"/>
</svg>
