<svg width="365" height="796" viewBox="0 0 365 796" fill="none" xmlns="http://www.w3.org/2000/svg">
<path d="M275.73 263.63L275.18 263.87L274.58 265.16V266.15L275.8 266.88L277.65 265.98L277.96 265.69L278.33 266.23L280.05 267.52L281.26 268.18L281.88 268.36L282.83 268.69L284.04 269.14L286.86 270.45L287.93 271.06L293.35 274.76L296.27 277.15L296.68 277.64L298.93 280.79L299.89 282.52L300.12 283.07L299.99 284.1L299.77 284.51L299.1 285.63L298.12 286.73L296.73 288.93L295.92 290.28L295.54 291L295.41 291.44L295.33 292.1V293.79L295.38 294.32L295.53 295.04L295.73 295.58L296.73 297.99L297.97 299.85L298.36 300.3L299.7 301.59L300.45 302.24L301.38 302.89L303.55 304.11L304.1 304.02L304.66 303.67L306.51 302.69L306.96 302.93L307.81 305.02L307.9 305.52L308.31 308.89L308.5 315.46L308.45 316.07L308.17 316.59L307.71 317.24L307.08 318.02L305.59 320.19L303.33 324L301.88 326.71L301.75 327.15L300.85 328.57L300.18 329.49L299.01 331.01L298.54 331.48L297.4 332.52L296.38 333.59L294.9 335.45L293.59 337.17L293.27 337.83L293.01 338.41L292.84 339.07L292.72 339.62L292.55 340.81L292.82 341.63L292.69 343.01L292.35 343.65L291.88 344.22L291.01 345.02L290.66 345.31L290.13 345.73L287.2 347.78L281.31 351.05L280.81 351.32L278.78 352.2L272.33 354.27L270.34 354.85L265.54 356.95L264.95 357.11L264.32 357.22L263.02 357.39L261.29 357.75L257.17 358.72L253.94 359.57L251.82 360.34L250.04 360.46L249.65 360.51L239.54 362.45L235.3 363.04L233.08 363.48L232.43 363.56L228.18 364.01L226.95 364.08L224.25 363.91L223.36 363.7L222.8 363.65L222.21 363.73L221.66 363.87L220.72 364.31L220.09 364.41L218.39 364.23L215.06 363.78L212.17 363.05L211.35 362.79L210.16 362.16L209.88 361.49L209.73 360.96L208 359.85L205.4 359.24L204.8 359.53L204.62 359.94L204.86 360.84L205.13 361.34L205.89 362.34L206.72 363.08L206.06 364.96L205.67 365.93L205.44 368L205.84 370.15L206.61 370.41L207.27 370.52L207.71 370.54L208.78 370.77L210.47 371.72L211.34 372.62V373.13L210.76 373.69L209.33 372.74L208.81 372.21L208.32 371.3L207.09 371.46L206.81 371.98L209.13 374.2L210.54 375.95L210.09 379.07L209.85 380.86L209.79 381.47L209.66 383.65L208.65 384.21L207.03 383.85L206.18 384.95L205.59 387.82L205.58 389.91L205.66 390.43L205.41 391.7L205.1 392.42L204.77 392.74L204.13 392.98L203.18 394.04L202.93 394.63L203.77 397.34L204.15 398.31L206.41 400.66L206.95 400.68L207.3 401.71L207.02 402.44L206.2 402.41L205.69 401.85L205.66 403.38L205.87 403.55L207.08 402.76L208.25 402.36L208.17 402.87L207.7 403.15L206.73 406L205.98 408L204.73 408.87L201.03 410.85L198.64 412.33L198.16 412.37L197.82 412.34L197.57 411.83L197.04 410.86L196.57 410.13L195.37 408.41L195.01 407.96L193.61 406.62L192.06 405.54L191.51 405.23L190.58 404.95L190.1 404.88L189.2 404.83L187.13 404.48L186.76 404.3L186.64 402.99L186.67 380.2L186.66 373.34L186.64 371.68L186.67 371.33L186.68 366.91L186.62 297.49L186.7 275.56L186.72 273.79L186.76 265.27V260.12L187.15 260.15L188.67 260.16L192.1 260.17L195.91 260.16L196.33 260.17L206.19 260.15L213.81 260.1L217.04 260.06L224.01 252.27L231.23 244.01L231.05 243.28L231.12 242.81L231.38 242.46L231.75 242.25L232.19 242.12L232.69 242.08L235.86 242.67L236.25 242.89L236.75 243.31L237.03 243.62L237.44 243.97L237.8 244.09L238.22 244.11L239.36 243.75L240.14 242.28L240.32 241.82L240.47 241L240.51 240.32L241.72 238.59L242.92 237.05L243.14 236.25L242.71 235.76L243.28 236.04L243.66 236.28L243.99 236.56L245.28 237.95L245.61 238.36L246.08 238.86L246.71 239.37L247.06 239.63L248.72 240.73L250.15 241.34L250.7 241.71L251.61 242.6L251.83 243.03L252.41 243.58L253.02 243.9L255.26 244.97L256.17 244.45L256.73 244.31L257.14 244.5L257.67 245.16L257.95 245.61L258.22 245.94L258.7 246.23L261.93 247.5L264.37 248.16L265.61 248.21L266.14 248.48L267.19 249.11L270.99 251.71L272.41 252.92L273.47 253.06L274.01 252.83L274.47 252.47L274.87 252.29L276.18 252.07V252.09L276.61 252.3L277.11 252.58L277.32 252.96L277.46 255.91L276.84 256.97L276.44 257.57L275.69 258.01L275.26 258.99L275.36 260.53L275.67 262.53L275.73 263.63ZM213.72 369.77L213.53 369.72L210.68 367.98L210.04 366.7L210 366.37L210.11 366.14L210.35 366.15L212.55 366.8L212.79 366.9L213.77 367.38L214.01 367.94L214.32 369.19L214.25 369.59L213.97 369.75L213.72 369.77Z" fill="#C7C7C7" stroke="white" stroke-width="2"/>
<path d="M154.39 123.75L154.48 123.93L155.05 126.19L155.73 129.58L156.01 131.09L156.05 131.55L156.14 133.17L156.15 134.01L156.13 134.52L156.01 135.5L155.66 136.17L155.05 136.82L154.18 137.89V138.44L154.21 138.97L154.76 139.17L155.2 139.4L155.64 139.89L155.82 140.68L156.1 144.52L156.17 147.17L156.49 150.64L156.61 151.42L156.77 152.04L157.57 154L159.18 157.08L159.48 157.49L159.58 157.61L158.46 157.87L158.06 157.98L158.77 163.92L158.51 164.29L155.14 168.04L154.04 166.57L153.03 165.4L148.19 159.72L145.17 156.1L143.8 154.15V152.76L143.64 152.19L143 151.05L142.76 150.72L137.17 145.53L136.34 144.94L135.8 144.63L135.31 144.41L134.83 144.26L134.3 144.02L133.28 143.52L132.86 143.2L132.44 142.43L132.21 140.07L130.34 135.78L130.13 135.44L129.87 135.14L129.5 134.79L128.99 134.47L122.16 131.57L121.79 131.47L120.85 131.3L120.35 131.49L120.04 131.96L119.67 132.39L119.31 132.65L118.58 132.82L118.02 132.8L114.64 132.42L114 131.63L112.2 130.45L111.67 130.47L110.83 131.58L110.2 132.69L109.71 133.25L109.14 133.43L108.68 133.39L106.89 132.94L105.99 132.54L105.55 132L105.14 131.43L104.65 130.63L104.46 129.97L104.31 128.88L102.79 128.25L100.61 127.94L99.1701 127.36L96.4701 125.85L95.6501 125.86L95.0501 125.37L95.0101 122.29L95.3401 121.13L95.3101 120.56L95.0201 120.27L94.0901 120.2L91.3001 120.48L89.5201 120.76L88.9401 121.06L87.8901 121.35L87.2901 121.43L85.4601 121.18L84.8101 121.11L84.1801 121.05L82.8201 120.99L82.9501 120.15L83.6701 118.07L84.1801 117.48L86.7501 112.65L87.3601 110.92L87.2101 110.14L87.4101 109.52L87.7601 108.84L88.4901 107.68L88.9401 107.42L89.7301 107.37L90.5201 107.5L91.4101 108.08L95.6601 106.62L96.0101 106.46L96.7001 106.09L97.2601 105.75L97.9001 103.52L97.7501 103.09L95.2101 99.15L93.3101 96.89L92.8201 96.11L92.6401 95.7L92.5401 95.3L92.5101 94.33V93.92L92.5901 92.82L92.6601 92.18L92.8901 91.25L93.2401 90.81L93.7001 90.43L94.4201 89.92L95.5101 88.91L95.8701 88.34L94.8801 83.25L94.1801 80L94.0401 79.51L93.0901 77.49L92.3001 75.11L92.2501 74.63L92.2901 74.02L92.3701 73.62L92.7401 72.08L92.9701 71.46L93.3401 70.64L93.4301 70.56L93.7901 69.14L94.1101 68.59L94.3101 68.42L94.5601 68.5L96.2301 68.83L106.61 70.83L112.91 70.77L119.07 70.7L124.97 70.62L128.97 70.54L129.49 71L130.83 74.79L130.37 77.38L130.04 77.79L129.3 78.33L128.84 78.53L127.31 78.62L125.89 78.66L124.79 79.57L124.59 79.96L124.53 80.71L124.55 81.28L124.67 81.9L124.9 82.68L125.08 83.03L125.3 83.35L125.55 83.64L127.4 86.04L128.12 87.09L128.93 88.62L129.39 89.72L129.76 90.53L130.09 91.02L131.44 92.44L131.77 92.75L132.16 92.95L132.53 92.9L132.8 92.6L133.06 91.97L133.25 91.4L133.66 90.45L133.98 89.97L134.47 89.74L136.57 89.76L136.43 90.71L135.61 92.56L135.39 93.15L135.45 96.17L135.89 96.44L136.85 96.54L137.78 96.67L138.21 96.79L138.92 97.13L141.73 99.27L141.95 99.58L142.05 100.06L141.71 103.41L141.51 103.98L141.25 104.45L140.72 105.2L140.18 105.66L139.07 106.81L138.71 107.26L136.76 109.9L135.92 111.88L136.8 112.23L137.57 112.33L138.66 113.07L139.6 113.98L140.08 116.4L140.65 118.65L142.33 121.51L142.86 121.6L143.58 121.23L144.78 121.96L144.98 122.61L145.04 123.16L145.13 123.65L145.43 124.52L145.71 125L147.21 126.62L147.65 126.11L147.93 125.48L148.31 124.95L149.4 123.96L150.04 123.5L151.26 122.72L151.63 122.85L152.21 123.4L152.76 123.81L153.11 123.98L153.53 124.07L153.95 123.98L154.39 123.75Z" fill="#C7C7C7" stroke="white" stroke-width="2"/>
<path d="M268.72 125.58L254.25 125.61H245.85L240.9 125.64H226.6L221.29 125.63L217.04 125.6L217.06 124.56L217.05 114.02L217.07 101.46L217.04 89.48L216.96 78.78L216.94 78.38L216.25 78.37L213.13 78.4L208.64 78.42H198.27L193.67 78.4L191.94 78.38L186.46 78.33L191.52 71.8L192.01 71.19L200.1 60.71L205.74 53.18L205.7 50.63L205.64 47.72L208.34 48.92L211.96 50.61L213.61 51.72L215.11 52.08L217.21 53.5L218.08 55L219.92 55.89L221.71 57.64L222.25 57.83L223.87 58.14H224.6L225.18 58.19L225.66 58.29L226.2 58.63L227.25 60.08L228.04 61.97L229.07 63.1L230.9 64.48L233.37 66.57L235.9 67.98L238.86 69.28L240.87 72.06L242.58 74.04L243.72 75.03L243.86 75.72L243.87 76.32L243.98 76.85L244.74 78.47L247.54 79.75L250.12 81.23L250.46 81.52L251.6 82.98L253.48 85.42L254.08 87.77L254.43 87.96L256.01 88.31H256.72L258.01 88.47L258.42 88.71L258.66 89.15L258.71 89.98L259.08 91.35L259.77 91.95L261.12 92.14L261.54 92.05L262.29 91.74L264.6 92.26L266.57 92.99L267.01 93.32L267.41 93.74L267.78 94.2L268.01 94.64L268.48 95.2L271.07 97.18L272.15 97.97L274.44 100.27L275.82 101.85L277.35 102.74L277.76 102.86L277.85 102.96L277.1 103.42L275.71 105.02L273.76 107.76L273.27 107.81L272.87 107.93L272.43 108.49L272.4 109.19L273.1 109.88L273.39 110.32L273.29 111.7L272.29 112.37L271.94 112.56L271.15 112.85L270.77 113.08L270.31 113.46L268.81 114.89L268.71 115.4L268.87 116.03L269.08 116.81L269.42 119.64L269.43 120.15L269.3 122.15L269.24 122.75L268.76 124.27L268.72 125.58Z" fill="#C7C7C7" stroke="white" stroke-width="2"/>
<path d="M37.0899 535.72L37.2099 535.66L37.8199 535.14L37.3799 533.23L36.9999 532.71L36.1899 532.33L35.6499 532.15L35.1199 531.82L34.4199 528.71L34.6099 526.8L35.1799 524.31L35.8599 523.8L36.5899 523.51L36.9999 523.42L37.3699 523.35L37.7899 523.38L40.3099 522.22L43.3599 517.79L42.8099 515.89L39.7499 511.91L38.8299 509.96L38.2199 509.35L35.3499 508.38L34.1599 508.21L31.8499 507.99L29.4499 507.47L29.1799 504.55L29.2899 504.03L29.7999 503.71L30.3099 503.84L30.7699 504.1L31.1299 504.27L31.5399 504.45L33.5399 504.69L34.0399 504.5L34.3699 503.95L34.7999 503.75L35.8299 503.97L36.2099 504.13L36.5699 504.3L36.9299 504.44L37.3799 504.37L37.7499 504.23L38.7099 503.72L39.3799 503.45H39.8699L40.2299 503.54L40.7499 503.9L41.5999 504.55L42.0799 504.79L42.6199 504.97H43.2399L43.7399 504.83L44.6799 503.53L44.7799 502.77L44.6499 502.05L44.5699 501.41L45.3299 499.6L46.1499 499.46L46.5699 499.01L46.7999 498.16L45.8399 496.04L45.2299 495.5L41.5099 494.75L40.0699 494.8L38.8899 494.99H37.4299L34.6699 494.94L33.7799 494.75L33.3199 494.04L33.5099 493.53L34.3299 492.93L34.3899 490.09L34.2799 489.45L33.9499 488.75L34.6599 486.78L35.2499 486.15L36.8999 483.58L37.0599 483.12L37.0199 482.57L36.1199 481.33L35.0799 480.15L34.1399 478.74L34.1499 478.02L34.5299 477.8L34.8899 477.66L36.0399 476.89L36.2699 476.32L36.0599 474.71L33.3999 472.19L31.8299 471.02L31.9299 469.37L32.5499 467.83L34.3699 467.23L35.0299 467.39L35.3699 467.15L35.4899 466.68L35.3799 464.14L33.6399 463.07L33.0499 462.92L31.9099 462.8L31.3999 462.78L30.6699 462.79L29.6999 462.37L29.2399 461.98L28.5199 460.75L28.1799 459.93L28.2399 458.7L28.3699 458.22L28.5999 457.67L28.7699 456.87L28.8099 456.21L28.7199 453.89L28.6499 452.91L28.3399 451.63L28.1399 449.72L28.2099 449.19L28.3799 448.66L28.6399 448.16L29.8499 444.29L29.6299 443.82L28.6899 443L28.2999 442.25L29.9699 438.93L30.3399 438.56L30.7699 438.33L31.3499 438.45L31.5999 438.87L31.7899 439.5L32.3399 439.59L34.6999 438.48L35.6099 437.62L35.5199 436.02L35.0099 435.3L41.5399 435.31L44.5599 435.29H56.0299L56.6299 435.31L68.6999 435.29L80.1699 435.31H88.0199L98.8899 435.29L107.35 435.3L128.47 435.29L141.15 435.31L155.04 435.29L156.32 435.55L157.2 437.55L157.56 438.03L158.12 438.64L158.64 439.12L159.68 439.91L162.2 440.86L164.63 441.56L165.01 441.57L165.8 441.29L166.51 441.41L167.15 441.77L166.87 442.22L166.38 442.65L165.89 443.17L165.57 443.69L164.68 445.23L164.78 445.89L167.38 446.17L173.11 445.94L173.51 445.82L174.43 444.97L174.71 444.51L174.75 442.87L174.42 442.09L174.05 441.8L173.56 441.63L172.99 441.56L171.53 441.61L171.06 441.67L170.26 441.68L169.62 441.3L170.2 440.9L172.64 440.42L175.32 439.33L177.41 438.02L177.88 437.8L178.31 437.7L179.67 437.49H180.08L180.41 437.74L181.06 439.31L181.27 439.96L181.5 440.59L181.87 441.24L182.51 441.95L182.74 442.4L182.91 442.83L183.05 443.39L183.18 450.31L182.29 453.99L181.28 455.25L180.69 455.48L180.07 455.57L178.49 455.92L174.41 456.97L173.78 457.04L173.08 456.65L171.07 454.25L171.02 453.62L171.49 452.19L171.96 451.06L169.83 448.74L169.49 448.49L168.35 447.88L167.34 447.67L166.61 447.68L166.1 447.7L164.36 447.97L162.26 448.95L161.89 449.46L161.47 450.06L160.7 450.65L160.35 450.81L159.7 450.86L158.74 451.12L158.29 451.45L157.11 453.48L157.28 454.32L157.64 454.72L158.53 454.91L160.97 455.88L162.34 456.68L163.28 457.52L163.67 457.81L164.2 458.11L164.81 458.33L168.06 459.23L168.5 459.18L169.73 458.6L170.19 459.57L168.96 460.55L168.46 460.91L164.85 462.67L162.81 463.08L161.63 463.47L161.07 463.77L160.5 464.15L158.72 465.62L156.84 467.49L156.67 467.93L155.05 471.16L152.83 473.98L152.31 474.82L151.53 476.21L151.36 477.58L151.39 478.16L151.72 480.34L152.05 480.96L152.31 481.58L152.54 482.41L152.77 483.91L153.27 483.7L153.64 483.62L153.31 487.46L152.82 487.68L152.13 487.97L151.79 489.37L151.86 489.88L152.58 491.85L152.93 492.54L151.6 494.87L151.31 495.44L150.43 497.82L146.64 500.22L146.14 500.69L145.87 501.03L144.97 502.65L144.42 504.27L144.39 505.03L144.54 505.63L145.34 506.2L146.08 506.28L147.72 507.23L146.38 510.5L144.98 511.06L144.32 510.61L143.87 510.26L142.19 509.63L137.31 508.99L136.03 509.07L132.93 510.79L129.96 512.13L129.69 512.83L129.07 514L126.92 515.05L124.32 515.32L123.88 515.41L122.19 516.48L121.4 517.19L120.54 518.62L119.39 520.79L117.93 523.48L117.65 523.83L116.68 524.63L115.82 525.29L115.45 525.89L115.26 526.49L114.32 530.43L113.67 531.03L111.5 533.88L110.64 535.74L109.75 535.72L92.8499 535.74L92.2499 535.72H74.7499L74.1399 535.74L50.5799 535.72L46.9699 535.74H39.1299L37.0899 535.72Z" fill="#C7C7C7" stroke="white" stroke-width="2"/>
<path d="M277.97 265.69L277.66 265.97L275.81 266.88L274.59 266.15V265.16L275.18 263.87L275.73 263.63L275.85 263.81L276.5 264.35L277 264.44L277.55 264.66L277.97 265.69Z" fill="#C7C7C7" stroke="white" stroke-width="2"/>
<path d="M155.88 273.78L155.9 269.76L155.92 253.77L155.91 251.88L155.88 251.04L155.5 244.17L155.09 234.6L155.35 233.98L155.82 233.15L156.66 231.88L157.34 230.24L158.02 227.35L159.07 223.46L159.59 222.13L159.74 220.7L159.01 215.56L158.48 215.07L157.88 215.17L157.46 215.29L157.07 215.47L156.43 215.64L154.44 215.9L153.91 215.8L153.13 212.78L153.09 212.01L152.94 211.32L151.84 210.1L145.93 206.55L145.26 206.43H143.69L143.67 206.35L143.64 202.65L143.56 191.95L143.55 189.02L145.1 184.53L145.47 183.5L147.98 175.14L148.59 174.36L150.17 169.72L151.37 169.37L151.75 169.28L154.8 168.4L155.14 168.04L158.51 164.29L158.77 163.92L158.06 157.98L158.46 157.87L159.58 157.61L159.95 157.53L170.66 154.78L174.77 156.05L174.75 156.71L175.44 157.68L178.89 159.49L179.6 159.61L180.11 159.62L180.61 159.61L181.18 159.54L181.65 159.41L182.19 159.28H182.81L184.58 159.67L185.4 160.07L186.25 160.97L186.6 162.04L189.17 162.23L190.15 162.25L200.34 162.12L207.11 162L208.94 166.8L210.21 170.06L209.25 176.21L208.48 176.26L208.36 178.57L211.67 180.9L214.56 182.02L212.72 188.91L209.4 201.27L207.36 202.99L207.72 205.48L207.94 207.13L207.88 209.82L207.8 210.47L207.85 211.76L209.22 213.37L209.87 213.66L210.18 213.88L210.55 214.31L210.82 215.02L210.95 215.93L211.19 216.63L211.6 217.17L212.02 217.5L212.53 217.84L212.98 218.23L213.38 218.77L213.69 219.53L214.11 221.11L214.82 223.3L216.48 225.93L216.64 226.68L216.15 229.87L216.03 230.4L215.7 231L215.27 231.48L214.42 232.01L213.7 232.02L212.96 233.07L205.99 244.49L198.51 256.65L196.55 259.78L196.32 260.19L195.91 260.17L192.09 260.18L188.67 260.17L187.15 260.16L186.76 260.12V265.27L186.72 273.78L186.32 273.77L164.44 273.73L157.91 273.71L157.04 273.72L155.88 273.78Z" fill="#C7C7C7" stroke="white" stroke-width="2"/>
<path d="M254.34 173.84L253.99 172.47L254.69 170.88L255.81 167.24L255.74 166.46L255.42 165.89L254.93 165.26L254.43 164.68L254.17 163.8L254.21 163.07L254.32 162.57L254.66 161.74L255.08 160.32L255.34 159.19L255.48 157.88L255.56 156.14L255.53 154.8L255.7 154.28L257.27 150.95L257.63 150.67L258.93 150.25L259.43 149.95L262.52 146.74L262.75 146.08L264.37 139.26L264.6 138.52L265.07 134.28V133.39L264.81 130.92L264.77 130.04L264.87 129.25L265.07 128.87L265.44 128.46L266.15 128.11L266.79 128.2H267.17L267.62 128.02L268.1 127.59L268.48 126.73L268.64 126.29L268.71 125.89L268.72 125.58L268.76 124.27L269.24 122.75L269.3 122.15L269.43 120.15L269.42 119.64L269.08 116.81L268.87 116.03L268.71 115.4L268.81 114.89L270.31 113.46L270.77 113.08L271.15 112.85L271.94 112.56L272.29 112.37L273.29 111.7L274.08 111.38L274.66 111.22L275.08 111.12L275.55 111.07L278.99 110.82L281.41 110.72L284.04 110.75L285.4 110.86L288.02 111.2L289.14 111.5L289.61 111.75L289.99 112.06L290.67 112.58L291.18 112.81L294.87 113.74L296.11 113.91L296.49 113.9L296.98 114.01L297.48 114.24L298.06 114.59L298.6 114.84L299.38 115.09L300.15 115.21L300.95 115.25L301.55 114.94L302.38 114.41L302.99 114.07L303.87 113.77L304.52 113.78L304.85 113.95L305.33 114.38L306.11 115.2L306.58 115.45L307.22 115.52L307.68 115.08L307.85 114.89L308.28 114.63L308.79 114.48L309.47 114.36L310 114.37L310.51 114.45L311.04 114.64L311.34 114.91L311.52 115.46L312.2 116.37L312.89 116.93L313.26 117.13H313.85L314.21 116.84L315.49 114.77L315.6 114.37L315.55 113.89L315.61 113.17L317.86 111.58L318.68 111.45L319.3 111.41L319.82 111.46L321.1 112L320.52 112.42L320.27 113.03L320.14 113.48L320.12 114.2L320.3 115.02L320.99 116.37L321.36 116.98L321.72 117.45L322.85 119.99L322.99 120.39L323.18 121.13L323.31 122.59L323.36 123.59L323.48 124L324.97 126.65L325.49 127.25L327.24 128.47L327.1 128.83L326.29 129.59L325.73 129.85L325.03 130.03L324.63 130.41L324.68 130.83L325.58 131.33L326.25 131.77L326.49 132.45L325.95 133.93L325.53 133.52L325.31 133.02L323.49 132.81L322.83 132.88L322.41 133.15L320.85 135.58L320.27 137.07L319.27 138.41L317.39 140.51L315.48 141.5L315.12 141.93L315 142.64L312.99 147.05L312.73 147.53L311.14 148.01L310.11 148.67L309.74 149L309.15 149.69L308.8 150.23L308.61 150.86L308.6 151.53L307.86 153.18L305.74 155.74L303.93 157.64L301.54 160.69L300.97 161.35L300.47 161.86L299.73 162.16L298.83 162.18L298.23 162.24L297.69 162.46L297.28 162.76L296.97 163.18L296.58 164.21V164.95L296.46 166.35L296.11 166.8L293.54 169.55L292.69 170.2L292.32 170.4L291.8 170.57L291.34 170.65L290.95 171.76L291.03 172.61L290.92 173.03L290.24 174.2L288.84 175.51L287.92 176.15L286.62 177.22L286.37 177.55L286.24 177.97V179.29L286.57 179.78L287.03 180.22L287.61 181.71L287.75 182.43L287.43 182.27L286.65 181.66L286.28 181.3L285.55 180.57L284.64 179.6L284.38 179.29L284.04 178.65L283.62 177.8L283.41 177.28L282.1 174.88L280.08 172.01L279.72 171.7L278.96 171.41L273.86 170.05L273.21 169.95L272.59 170.01L271.84 170.2L270.74 170.79L270.09 171.16L268.46 171.55L267.52 171.44L266.56 171.1L265.64 171.09L263.82 172.31L263.41 172.97L261.79 173.91L261.03 173.77L260.61 173.58L260.16 173.34L259.36 173.2L258.94 173.17L256.86 173.3L255.79 173.76L255.27 173.84H254.34Z" fill="#C7C7C7" stroke="white" stroke-width="2"/>
<path d="M242.68 235.76L242.55 235.54L241.72 234.39L241.21 234.06L239.74 233.29L238.66 232.86L238.32 232.6L235.55 227.07L235.37 226.55L235.23 225.86L234.59 221.87L234.53 219.3L234.91 217.75L235.72 215.74L235.18 212.23L236.25 203.31L236.64 202.89L237.33 202.68L238.43 202.56L239.05 202.52L240.17 202.35L240.88 201.82L241.73 200.92L245.39 196.68L246.06 195.6L246.32 194.96L246.54 194.25L246.87 193.43L247.39 192.59L248.24 191.98L249.21 190.61L250.19 188.88L251.88 186.24L252.52 185.4L252.76 185.05L253.71 183.45L255.52 180.16L255.69 179.08L255.67 176.55L255.57 175.82L255.21 175.36L254.42 174.09L254.34 173.84H255.27L255.79 173.76L256.86 173.3L258.94 173.17L259.36 173.2L260.16 173.34L260.61 173.58L261.03 173.77L261.79 173.91L263.41 172.97L263.82 172.31L265.64 171.09L266.56 171.1L267.52 171.44L268.46 171.55L270.09 171.16L270.74 170.79L271.84 170.2L272.59 170.01L273.21 169.95L273.86 170.05L278.96 171.41L279.72 171.7L280.08 172.01L282.1 174.88L283.41 177.28L283.62 177.8L284.04 178.65L284.38 179.29L284.64 179.6L285.55 180.57L286.28 181.3L286.65 181.66L287.43 182.27L287.75 182.43L287.81 182.79L287.9 183.64L287.92 185.27L286.89 189.1L285.68 193.42L284.16 196.52L283.54 196.85L283.01 197.2L282.81 197.75L283.06 198.14L283.6 198.41L284.01 198.76L284.43 199.28L284.64 199.97L284.58 200.79L283.51 204.38L283.09 204.88L282.47 205.19L281.72 205.34L281.3 205.49L280.9 205.89L280.62 206.62L281.34 207.82L281.6 208.71L281.5 210.27L281.32 211.01L281.01 211.54L280.94 212.2L281.29 213.04L281.71 213.58L282.4 214.28L282.48 215.13L282.4 215.79L281.79 216.4L281.52 216.73L281.04 217.47L280.63 218.45L280.62 218.41L280.39 218.75L280.24 219.23L280.17 219.98L280.18 221.04L280.64 223.92L281.52 229.03L281.59 231.21L281.44 231.67L281.18 231.98L280.83 232.19L280.23 232.28L279.82 232.24L279.43 232.15L277.59 231.98H276.94L276.53 232.33L276.51 235.87L275.99 237.46L275.69 237.84L275.05 239.05L274.72 240.69L274.61 241.38L274.29 244.49L274.28 245.04L274.33 246.13L274.6 246.89L275.39 248.11L275.79 248.56L276.26 251.44L276.12 252.08V252.07L274.81 252.29L274.41 252.47L273.95 252.83L273.41 253.06L272.35 252.92L270.93 251.71L267.14 249.11L266.08 248.48L265.56 248.21L264.31 248.15L261.87 247.49L258.64 246.23L258.16 245.93L257.9 245.61L257.62 245.15L257.09 244.5L256.68 244.31L256.13 244.45L255.22 244.98L252.98 243.91L252.37 243.59L251.79 243.04L251.57 242.61L250.66 241.72L250.11 241.34L248.69 240.73L247.02 239.63L246.68 239.37L246.05 238.86L245.58 238.36L245.25 237.95L243.96 236.56L243.63 236.28L243.26 236.04L242.68 235.76Z" fill="#C7C7C7" stroke="white" stroke-width="2"/>
<path d="M205.64 47.72V43.74L205.68 29.6L205.67 22.05L205.62 15.69L205.61 15.41L206.07 15.62L206.62 15.91L207.25 16.48L207.44 16.82L207.49 17.36L208.99 20.99L209.94 22.16L211.03 23.34L211.32 23.78L211.71 24.78L211.66 25.27L211.96 25.86L213.26 27.09L213.8 27.21L214.41 27.51L216.18 29.11L216.39 29.44L216.42 30.34L217.74 31.36L218.44 31.31L219.14 31.57L221.74 33.95L223.31 34.69L224.56 35.34L226.6 36.63L227.89 37.68L229.27 40.55L229.46 41.18L229.71 41.67L230.15 41.88L232.16 42.43L234.23 42.88H234.75L236.9 43.31L237.29 43.8L237.56 44.33L239.75 45.17L242.95 46.15L245.07 46.22L245.49 46.14L245.92 46.03L246.43 45.87L246.81 45.72L247.33 45.58L248.33 46.24L253.99 50L256.46 51.63L257.6 52.4L259.19 53.99L259.66 54.71L259.99 55.05L260.88 55.57L264.28 57.42L265.07 57.62L266.31 58.34L267.24 58.95L268.28 59.83L269.61 60.85L272.11 61.66L273.29 61.78L273.81 61.74L274.59 61.88L276.1 62.4L277.86 64.55L279.14 64.76L280.95 64.7L281.9 65.35L283.16 65.87L285.41 66.73L285.91 66.74L286.43 66.88L286.81 67.13L288.57 68.6L289 69.83L289.56 70.59L290.17 71.04L290.24 71.28L290.91 72.88L291.7 73.46L292.28 73.95L292.32 74.52L291.91 76.13L288.79 79.84L287.99 80.48L287.67 80.6L287.76 81.8L286.89 83.23L286.04 84.25L286.22 84.62L286.78 85.11L284.19 87.24L283.37 87.54L281.62 89.3L281.86 90.31L281.31 91.18L280.44 93.59L280.31 96.02L280.93 96.62L281.19 97.2L280.95 98.34L278.51 102.71L277.85 102.96L277.76 102.86L277.35 102.74L275.82 101.85L274.44 100.27L272.15 97.97L271.07 97.18L268.48 95.2L268.01 94.64L267.78 94.2L267.41 93.74L267.01 93.32L266.57 92.99L264.6 92.26L262.29 91.74L261.54 92.05L261.12 92.14L259.77 91.95L259.08 91.35L258.71 89.98L258.66 89.15L258.42 88.71L258.01 88.47L256.72 88.31H256.01L254.43 87.96L254.08 87.77L253.48 85.42L251.6 82.98L250.46 81.52L250.12 81.23L247.54 79.75L244.74 78.47L243.98 76.85L243.87 76.32L243.86 75.72L243.72 75.03L242.58 74.04L240.87 72.06L238.86 69.28L235.9 67.98L233.37 66.57L230.9 64.48L229.07 63.1L228.04 61.97L227.25 60.08L226.2 58.63L225.66 58.29L225.18 58.19L224.6 58.14H223.87L222.25 57.83L221.71 57.64L219.92 55.89L218.08 55L217.21 53.5L215.11 52.08L213.61 51.72L211.96 50.61L208.34 48.92L205.64 47.72Z" fill="#C7C7C7" stroke="white" stroke-width="2"/>
<path d="M154.01 8.1L153.41 9.57L153.17 10.61L153.12 11.52L153.14 12.4L151.91 15.1L151.67 15.53L151.44 15.85L151.31 16.27L151.4 17.23L152.25 20.44L152.56 22.6L153.18 24.53L153.69 25.17L154.05 25.42L154.52 25.52L155.02 25.51H155.79L156.17 25.55L156.64 25.65L157.05 26.06L157.3 26.67L157.32 27.22L157.26 27.87L157.17 28.62L156.97 29.26L156.65 30.45L156.84 31.03L157.4 31.31L157.91 31.43L158.22 31.66L158.56 32.24L159.5 34.27L159.6 35.15L160.88 35.69L161.43 35.44L161.72 35.12L162 34.86L163.38 34.55L165.51 35.66L166.17 36.26L166.98 37.32L168.31 36.52L168.84 35.63L172.28 35.7L172.37 39.75L172.41 42.11L172.4 42.69L172.52 46.43L172.58 47.58L172.7 48.9L172.6 49.54L172.32 50.28L171.75 51.27L170.82 52.59L170.57 52.9L170.09 53.41L169.65 53.65H169.15L168.13 53.79L166.09 55.13L165.76 55.41L165.37 55.85L164.98 56.46L164.35 57.55L164.19 57.49L163.29 56.67L162.76 56.11L162.29 55.62L160.72 54.33L160.35 54.66L160.05 55.14L159.8 55.77L159.61 56.33L159.35 56.94L159.06 57.2L158.49 57.17L156.75 56.49L156.19 56.12L155.25 55.39L152.3 55.29L151.69 55.13L147.83 54.01L146.86 53.4L143.93 49.18L143.75 48.78L143.7 48.35L143.76 47.85L143.82 47.23L143.55 46.72L141.42 45.12L140.87 44.98L140.53 45.25L140.16 45.33L139.35 44.37L138.86 42.68L138.93 40.97L139.19 40.36L139.6 39.9L139.62 36.61L139.44 36.16L138.81 35.54L137.37 34.61L136.26 33.99L134.68 33.42L133.27 32.98L132.62 33.21L132.37 33.88L132.02 35.36L131.97 35.88L131.99 36.47L132.41 37.68L132.64 38.67L132.67 39.29L132.66 40.16L132.49 40.97L130.34 47.86L129.89 48.54L127.75 48.25L126.89 48.04L126.39 47.83L124.1 46.78L123.76 46.6L122.45 45.16L121.19 43.61L119.94 42.23L119.45 41.93L118.74 41.85L117.29 40.79L116.86 40.39L116.68 40.14L118.49 33.43L118.71 32.77L119.53 30.48L120.36 28.18L121.21 25.81L119.33 23.81L117.9 22.27L118.97 20.27L121 18.61L120.82 16.45L122.56 15.56L123.94 15.07L125.31 14.56L125.37 13.55L125.99 10.68L126.86 10.07L128.17 9.99L129.2 9.73L130.36 9.39L132.05 8.87L133.08 8.53L133.78 7.75L134.06 6.94L134.23 5.83L135.06 2.32L135.3 2L135.81 2.15L137.93 3L140.68 4.97L141.74 6.37L142.73 7.65L143.87 8.4L145.54 8.38L146.6 8.2L154.01 8.1Z" fill="#C7C7C7" stroke="white" stroke-width="2"/>
<path d="M186.64 371.68L185.6 371.75L185.14 371.68L184.5 371.41L180.88 368.8L177.72 366.44L175.82 364.63L172.65 362.81L171.76 362.34L170.93 361.98L169.16 361.32L168.52 361.12L167.29 360.78L166.6 360.75L165.66 360.7L161.02 359.84L156.77 359.52L154.45 359.57L154.08 359.64L153.46 359.92L152.88 360.08L150.68 360.38L150.33 360.14L149.79 359.71L148.5 359.25L147.31 359.02L146.81 359.05L145.8 359.62L145.27 359.95L143.38 359.43L142.17 358.77L139.54 358.01L138.16 357.8L136.99 357.71L135.85 357.64L134.87 357.62L134.28 357.85L132.42 358.14L129.16 357.19L128.81 356.45L128.78 355.52L128.58 355.04L128.35 354.66L127.82 354.08L127.3 353.69L124.94 352.52L124.47 352.37L123.01 351.99L121.79 351.5L120.16 350.59L119.84 350.35L118.75 348.99L118.55 347.92L118.12 346.29L116.68 345.99L116.31 346.05L115.96 346.32L115.29 346.72L114.75 346.93L111.78 347.21L111.36 347.16L110.87 346.96L110.49 346.68L109.52 345.73L109.13 345.11L108.98 344.49L108.74 343.9L108.46 343.42L108.03 342.97L107.58 342.67L107.05 342.55L106.25 342.68L105.47 341.72L105.34 340.13L105.53 339.39L106.5 338.35L106.94 338.15L107.41 337.96L107.71 337.68L107.98 337.19L108.32 336.32L108.36 335.25L108.06 334.35L107.58 333.44L107.21 332.89L106.75 332.47L106.14 332.14L105.11 331.76L104.71 331.63L101.95 331.28L99.44 331.08L98.59 331.14L98.64 301.63L98.62 299.52H97.77L97.87 295.86L103.53 295.91L113.31 295.9L124.03 295.88L128.16 295.89L155.86 295.94L155.88 290.51L155.86 289.35L155.87 279.33L155.9 274.35L155.88 273.78L157.04 273.72L157.91 273.71L164.44 273.73L186.32 273.77L186.72 273.78L186.7 275.56L186.62 297.49L186.68 366.91L186.67 371.33L186.64 371.68Z" fill="#C7C7C7" stroke="white" stroke-width="2"/>
<path d="M155.14 168.04L154.8 168.4L151.75 169.28L151.37 169.37L150.17 169.72L148.59 174.36L147.98 175.14L145.47 183.5L145.1 184.53L143.55 189.02L143.56 191.95L143.64 202.65L143.67 206.35L143.69 206.43L141.7 206.85L140.64 206.72L140.19 206.4L139.65 206.15L139.18 206.04L138.3 206.13L137.54 206.32L137.04 206.51L136.44 206.86L135.73 207.19L135.19 207.33L134.61 207.41L132.76 207.52L128.89 207.12L127.96 206.73L127.39 206.44L126.7 206.23L126.32 206.22L126.11 206.24L125.72 205.14L125.36 204.39L123.91 201.92L121.94 200.5L120.41 198.96L119.27 195.26L119.65 192.74L119.82 191.67L120.14 189.48L118.89 188.51L119.75 185.54L118.03 182.14L117.58 181.57L117.06 181.31L116.56 181.09L115.67 179.79L114.37 178.09L113.3 177.22L110.96 174.69L110.53 172.98L110.33 172.61L109.89 172.11L109.43 171.68L106.92 169.57L105.51 168.45L104.91 168.11L104.53 167.76L102.92 166.14L102.61 165.36L102.43 164.97L101.62 164.22L99.9999 162.88L97.4199 160.84L96.2299 160.16L94.5999 159.55L90.6299 158.54L90.0799 158.57L89.4399 158.72L88.9799 158.92L88.2499 159.2L85.3999 159.25L84.7599 159.02L84.5599 158.52L84.5199 157.94L84.5899 157.23L84.6699 156.75L85.1899 154.69L85.7399 151.62L85.8899 150.04L86.4499 149.96L86.7399 149.54L86.9799 148.23L86.5499 144.7L84.3599 142.62L83.0099 141.13L82.7099 139.72L82.1699 138.26L78.6999 135.38L77.0099 135.1L73.1299 133.79L74.0399 133.12L75.3599 132.01L77.7699 129.27L78.6499 128.17L78.8799 127.7L79.0899 126.8L79.6399 125.53L80.3099 125.19L80.9799 125.12L81.4999 124.99L81.7799 124.61L82.0199 124.07L82.1899 123.61L82.8199 120.99L84.1799 121.05L84.8099 121.11L85.4599 121.18L87.2899 121.43L87.8899 121.35L88.9399 121.06L89.5199 120.76L91.2999 120.48L94.0899 120.2L95.0199 120.27L95.3099 120.56L95.3399 121.13L95.0099 122.29L95.0499 125.37L95.6499 125.86L96.4699 125.85L99.1699 127.36L100.61 127.94L102.79 128.25L104.31 128.88L104.46 129.97L104.65 130.63L105.14 131.43L105.55 132L105.99 132.54L106.89 132.94L108.68 133.39L109.14 133.43L109.71 133.25L110.2 132.69L110.83 131.58L111.67 130.47L112.2 130.45L114 131.63L114.64 132.42L118.02 132.8L118.58 132.82L119.31 132.65L119.67 132.39L120.04 131.96L120.35 131.49L120.85 131.3L121.79 131.47L122.16 131.57L128.99 134.47L129.5 134.79L129.87 135.14L130.13 135.44L130.34 135.78L132.21 140.07L132.44 142.43L132.86 143.2L133.28 143.52L134.3 144.02L134.83 144.26L135.31 144.41L135.8 144.63L136.34 144.94L137.17 145.53L142.76 150.72L143 151.05L143.64 152.19L143.8 152.76V154.15L145.17 156.1L148.19 159.72L153.03 165.4L154.04 166.57L155.14 168.04Z" fill="#C7C7C7" stroke="white" stroke-width="2"/>
<path d="M59.2001 298.92L59.7101 297.57L59.5101 295.24L59.4301 293.5L59.6001 293.01L60.0901 292.17L60.6601 291.68L60.1001 289.99L59.4801 288.59L59.3101 287.76L59.5701 287.31L59.7101 285.11L59.2401 281.77L57.2301 280.52L56.9201 280.28L56.6101 279.64L56.6501 279.07L57.1001 278.36L57.5301 278.25L58.1501 278.21L58.7201 278.1L59.9801 277.46L60.3101 276.92L60.4101 275.94L60.3301 275.48L60.3101 274.67L60.3301 273.83L60.3701 273.67L61.5001 270.51L62.6701 266.31L64.1701 263.46L66.0601 260.58L65.9401 259.59V258.3L66.0201 258.08L66.3501 257.88L67.1401 257.73L67.6601 257.75L68.0701 257.86L68.9101 257.92L70.1901 256.97L69.6301 253.97L68.9801 249.51L68.6201 248.11L68.6101 247.04L69.2501 242.21L70.3401 239.67L70.8101 239.13L70.9601 238.57L70.4401 236.24L69.1401 235.51L68.6501 235.34L68.2001 235.42L67.6901 235.94L67.3301 236.6L66.8801 236.66L65.1601 234.09L65.0601 233.53L65.2401 232.87L65.3501 231.89L65.0801 231.35L65.5901 230.36L66.5001 229.14L67.0101 227.57L66.0701 227.1L64.2601 225.06L63.7901 222.25L63.9101 221.25L64.1301 220.44L64.2301 219.65L64.0901 219L62.7101 216.14L62.4601 215.46L63.9501 215.15L66.4301 215.21L67.3601 215.37L68.1101 215.2L68.4901 215.01L68.9801 214.82L69.9601 214.6L70.8801 214.49L71.6101 214.46L72.9201 214.38L73.5401 213.85L73.6601 213.3L73.6101 212.47V211.99L73.8001 211.61L74.1601 211.31L76.9901 209.95L77.8201 209.89L80.4601 208.81L81.6601 207.94L82.4301 208.07L82.7501 208.29L83.1101 208.68L83.4401 209.14L83.6901 209.67L83.9901 210.09L84.6601 210.59L86.2401 210.37L87.2701 210.62L87.6201 210.82L88.1101 211.3L88.4701 211.5L89.3501 211.91L89.8201 212.1L92.8701 212.83L93.4701 212.9L94.0401 212.71L94.3801 212.24L94.4601 211.19L94.6301 210.65L95.0901 210.31L95.5601 210.35L96.3401 210.83L96.7501 210.93L99.0101 211.16L101.02 210.7L101.43 210.57L102.03 210.33L102.71 210.31L103.07 210.47L103.36 210.71L103.67 211.01L103.94 211.45L104.25 212.31L106.02 213.87L106.38 214.06L107.46 214.25L109.05 214.5L109.89 214.43L110.26 214.33L110.86 214.35L112.59 214.95L112.95 215.21L114.2 216.65L114.51 217.07L114.69 217.35L115.22 217.81L115.8 219.34L116.28 220.98L116.71 223.33L117.63 225.48L117.37 226.92L117.16 228.79L117.33 229.25L117.66 229.78L117.84 231.76L117.94 234.23L117.74 234.94L118.45 239.51L119.14 240.98L120.18 242.63L121.57 245.65L122.28 247.92L122.73 248.57L123.82 249.33L124.14 249.75L125.45 252.06L125.84 253.71L125.59 255.36L124.86 256.11L124.42 257L124.64 260.36L125.73 264.65L125.87 265.07L127.36 267.56L128.61 269.58L128.96 270.48L129.4 271.8L129.54 272.35L130.14 276.55L130.16 281.59L129.94 284.42L129.85 285.01L129.05 289.31L128.89 290.02L128.29 292.46L127.82 295.21L128.12 295.84L128.16 295.89L124.03 295.88L113.31 295.9L103.53 295.91L97.8701 295.86L97.7701 299.52H98.6201L98.6401 301.63L98.5901 331.14L96.9801 330.84L94.6001 329.74L92.4101 328.39L89.1501 326.69L88.7001 326.71L88.0801 326.91L87.6801 327.07H87.2801L85.7201 326.69L85.0501 326.44L84.5201 325.96L84.2701 325.21L84.1701 324.35L83.9501 323.77L83.5701 323.26L82.8301 322.79L80.2901 321.76L79.8301 321.73L79.0801 321.8L77.8701 321.97L77.2501 322.23L76.6801 322.36L75.1201 322.19L74.3601 322.04L73.5501 321.77L72.5701 321.11L71.9401 320.66L71.3901 320.1L70.3001 318.38L70.7301 317.35L70.8101 316.61L70.7901 315.81L70.6501 314.93L70.1201 314.77L69.2401 314.3L68.5401 313.7L68.2201 313.32L68.1001 312.61L67.7801 311.78L65.5601 309.52L64.4901 309.17L63.9601 308.9L63.1401 307.71L62.9301 307.2L62.8401 306.73L62.7601 306.14L62.3801 304.61L62.0801 304.05L61.7101 303.91L61.1601 304.21L60.6501 304.28L60.2401 303.76L59.9601 302.9L59.9901 302.12L60.3201 301.65L60.4101 300.51L60.1201 299.69L59.5601 299.09L59.2001 298.92Z" fill="#C7C7C7" stroke="white" stroke-width="2"/>
<path d="M321.1 112L321.86 111.89L322.42 112.01L322.87 112.54L323.02 113.21L323.28 113.51L324.86 114.23L325.33 114.13L327.71 112.21L327.99 111.69L328.28 110.46L328.25 110.04L328.05 109.63L328.2 108.65L328.66 107.55L331.02 105L331.32 104.75L331.71 104.6L333.67 104.02L334.03 103.99L336.23 102.71L337.57 101.3L337.96 101.14L338.72 101.11L339.25 100.9L339.5 100.6L339.66 100.04L339.87 98.98L340.25 98.57L340.82 98.32L341.44 98.36L344.14 93.74L344.76 90.88L344.6 89.94L345.08 89.45L345.11 88.91L344.72 88.31L344.73 84.67L345.75 84.02L345.61 80.78L345.4 78.11L345.85 76.61L346.8 76.55L348.2 77.55L348.5 77.8L349.74 76.76L351.02 76.25L351.65 76.2L353.48 76.38L353.87 75.86L354.75 75.07L358.71 77.82L359.2 78.85L359.86 81.17L359.85 81.6L359.69 82.77L359.83 84.17L361.43 86.91L362.77 89.03L362.96 89.51L363.03 90.16V90.43L362.96 90.72L362.69 91.37L362.29 91.87L361.92 92.46L361.96 95.41L361.66 98.35L361.48 99.14L361.82 100.89L362.15 102.91L362.03 103.49L361.51 104.83L361.3 105.33L360.18 107.89L359.61 108.74L359.27 108.3L358.51 108.42L356.59 109.15L356.22 109.83L355.81 110.34L355.41 110.71L355.03 111.01L354.63 111.17L354.06 111.15L352.45 113L351.62 113.88L350.21 114.54L348.53 114.79L347.1 115.23L344.27 116.53L342.72 116.73L342.39 116.51L342.34 116.08L341.96 116.13L340.42 118.87L340.36 119.7L340.24 120.09L338.19 122.2L337.43 122.44L335.33 122.66L332.76 124L331.8 125.05L331.71 125.46L331.69 126.12L330.47 127.36L328.04 128.31L327.24 128.47L325.49 127.25L324.97 126.65L323.48 124L323.36 123.59L323.31 122.59L323.18 121.13L322.99 120.39L322.85 119.99L321.72 117.45L321.36 116.98L320.99 116.37L320.3 115.02L320.12 114.2L320.14 113.48L320.27 113.03L320.52 112.42L321.1 112Z" fill="#C7C7C7" stroke="white" stroke-width="2"/>
<path d="M36.4201 377.32L36.7001 377.31L37.4501 378.37L37.9201 378.59L39.5901 378.5L39.8501 378.07L39.9801 377.19L40.6201 374.24L41.4701 371.79L41.7501 369.69L41.4901 367.12L41.3101 365.64L41.1301 365.02L41.1201 364.43L41.1901 363.19L41.3401 362.61L41.6401 362.1L42.2401 361.53L42.7201 361.22L44.4501 360.19L47.0001 358.68L47.8101 358.28L48.3001 358.21L48.8701 358.27L49.7501 358.29L50.1601 358.1L51.2701 356.93L51.8601 354.57L51.9301 353.83L51.6001 353.04L50.9301 352.51L50.4501 352.22L49.6801 351.41L49.2901 350.59L48.7201 347.59L48.5301 346.27L48.7601 344.59L48.8001 342.66L47.0501 338.37L46.5301 337.34L46.2901 336.28L45.8601 335.24L45.5201 334.12L45.4701 333.26L45.5901 332.52L45.9201 332.12L46.5401 331.65L46.8001 328.72L46.6301 328.17L46.1401 327.51L45.7501 326.9L45.2201 325.16L45.4601 324.4L46.0901 323.66L46.4201 322.66L46.7301 320.91L46.0801 317.76L45.4001 314.83L46.2901 312.5L47.7801 308.12L48.1501 306.7L48.4701 306.52L49.1001 306.7L49.6301 306.77L54.0801 305.15L54.2701 304.62L53.8701 303.57L54.1201 301.92L56.2201 299.56L57.7501 299.5L58.4201 299.55L58.9401 299.26L59.2001 298.92L59.5601 299.09L60.1201 299.69L60.4101 300.51L60.3201 301.65L59.9901 302.12L59.9601 302.9L60.2401 303.76L60.6501 304.28L61.1601 304.21L61.7101 303.91L62.0801 304.05L62.3801 304.61L62.7601 306.14L62.8401 306.73L62.9301 307.2L63.1401 307.71L63.9601 308.9L64.4901 309.17L65.5601 309.52L67.7801 311.78L68.1001 312.61L68.2201 313.32L68.5401 313.7L69.2401 314.3L70.1201 314.77L70.6501 314.93L70.7901 315.81L70.8101 316.61L70.7301 317.35L70.3001 318.38L71.3901 320.1L71.9401 320.66L72.5701 321.11L73.5501 321.77L74.3601 322.04L75.1201 322.19L76.6801 322.36L77.2501 322.23L77.8701 321.97L79.0801 321.8L79.8301 321.73L80.2901 321.76L82.8301 322.79L83.5701 323.26L83.9501 323.77L84.1701 324.35L84.2701 325.21L84.5201 325.96L85.0501 326.44L85.7201 326.69L87.2801 327.07H87.6801L88.0801 326.91L88.7001 326.71L89.1501 326.69L92.4101 328.39L94.6001 329.74L96.9801 330.84L98.5901 331.14L98.5801 331.57L98.5501 351.12L98.5101 363.4L94.3901 365.5L93.9101 365.6L93.2801 365.77L92.0001 366.89L91.5801 367.49L91.2801 368.44L91.1001 368.88L90.8001 369.25L88.9101 370.69L88.5101 371.11L87.1001 373.33L86.0701 375.15L85.4901 375.62L83.9901 376.33L83.4201 376.39L82.6201 376.41L80.8901 377.49L80.3901 377.85L79.9601 378.34L79.5801 378.9L79.2801 379.56L78.9501 380.3L78.6601 380.68L78.3301 381.01L76.5101 382.5L76.0101 382.78L75.0801 382.91L74.4501 383.09L71.2901 384.4L68.9801 385.45L68.4401 385.77L67.9001 386.19L67.4901 386.71L67.1301 387.41L66.7101 388.75L66.6801 389.25L66.8301 389.7L67.0701 390.08L67.0501 391.8L65.7301 395.83L65.3801 396.44L63.6201 398.69L63.2101 398.9L59.8801 399.87L59.1001 399.75L58.6601 399.49L58.2901 399.31L57.7101 399.32L56.9801 399.61L56.2401 400.06L55.9101 400.39L55.5001 400.91L55.1501 401.12L54.6701 401.21L53.1101 401.33L52.3001 401.37L51.4201 401.71L51.0201 401.92L49.2001 403.02L47.0201 404.97L46.8201 405.5L46.7301 406.27L46.9901 406.76L47.4401 407.21L47.7901 407.67L48.0301 408.27L48.1601 409.38L47.9301 410.2L47.6301 410.67L46.0001 412.57L44.4901 413.33L43.7101 413.51L43.0101 413.49L42.4101 413.4L41.7901 413.24L41.3901 413.09L40.4301 412.6L39.1301 412.05L38.3901 411.92L33.7501 411.46L33.2101 411.48L33.5901 410.15L33.3701 409.12L32.2101 406.58L31.5601 404.7L31.9201 404.09L32.4701 403.61L32.8501 403.22L33.2101 402.71L33.5701 401.7L33.5501 401.05L33.6001 400.06L34.6501 397.15L35.0301 397.18L35.4401 397.59L35.8101 397.49L36.0601 397.04L36.7501 395.38L36.6601 394.49L36.0401 394.07L35.7401 394.62L34.4401 393.28L33.9601 392.31L34.4401 390.2L35.1901 389.59L36.6901 388.6L37.3001 386.32L36.6501 384.06L36.0001 381.08L35.9301 378.72L36.2801 377.52L36.4201 377.32Z" fill="#C7C7C7" stroke="white" stroke-width="2"/>
<path d="M35.01 435.3L34.94 434L34.69 432.57L34.5 431.94L33.37 429.64L32.21 426.88V426.19L32.61 425.72L33.38 424.4L33.06 421.59L32.6 420.49L32.49 419.76L32.77 418.25L33.09 417.58L33.17 417L33.55 412.62L33.21 411.48L33.75 411.46L38.39 411.92L39.13 412.05L40.43 412.6L41.39 413.09L41.79 413.24L42.41 413.4L43.01 413.49L43.71 413.51L44.49 413.33L46 412.57L47.63 410.67L47.93 410.2L48.16 409.38L48.03 408.27L47.79 407.67L47.44 407.21L46.99 406.76L46.73 406.27L46.82 405.5L47.02 404.97L49.2 403.02L51.02 401.92L51.42 401.71L52.3 401.37L53.11 401.33L54.67 401.21L55.15 401.12L55.5 400.91L55.91 400.39L56.24 400.06L56.98 399.61L57.71 399.32L58.29 399.31L58.66 399.49L59.1 399.75L59.88 399.87L63.21 398.9L63.62 398.69L65.38 396.44L65.73 395.83L67.05 391.8L67.07 390.08L66.83 389.7L66.68 389.25L66.71 388.75L67.13 387.41L67.49 386.71L67.9 386.19L68.44 385.77L68.98 385.45L71.29 384.4L74.45 383.09L75.08 382.91L76.01 382.78L76.51 382.5L78.33 381.01L78.66 380.68L78.95 380.3L79.28 379.56L79.58 378.9L79.96 378.34L80.39 377.85L80.89 377.49L82.62 376.41L83.42 376.39L83.99 376.33L85.49 375.62L86.07 375.15L87.1 373.33L88.51 371.11L88.91 370.69L90.8 369.25L91.1 368.88L91.28 368.44L91.58 367.49L92 366.89L93.28 365.77L93.91 365.6L94.39 365.5L98.51 363.4L98.55 351.12L98.58 331.57L98.59 331.14L99.44 331.08L101.95 331.28L104.71 331.63L105.11 331.76L106.14 332.14L106.75 332.47L107.21 332.89L107.58 333.44L108.06 334.35L108.36 335.25L108.32 336.32L107.98 337.19L107.71 337.68L107.41 337.96L106.94 338.15L106.5 338.35L105.53 339.39L105.34 340.13L105.47 341.72L106.25 342.68L107.05 342.55L107.58 342.67L108.03 342.97L108.46 343.42L108.74 343.9L108.98 344.49L109.13 345.11L109.52 345.73L110.49 346.68L110.87 346.96L111.36 347.16L111.78 347.21L114.75 346.93L115.29 346.72L115.96 346.32L116.31 346.05L116.68 345.99L118.12 346.29L118.55 347.92L118.75 348.99L119.84 350.35L120.16 350.59L121.79 351.5L123.01 351.99L124.47 352.37L124.94 352.52L127.3 353.69L127.82 354.08L128.35 354.66L128.58 355.04L128.78 355.52L128.81 356.45L129.16 357.19L132.42 358.14L134.28 357.85L134.87 357.62L135.85 357.64L136.99 357.71L138.16 357.8L139.54 358.01L142.17 358.77L143.38 359.43L145.27 359.95L145.8 359.62L146.81 359.05L147.31 359.02L148.5 359.25L149.79 359.71L150.33 360.14L150.68 360.38L152.88 360.08L153.46 359.92L154.08 359.64L154.45 359.57L156.77 359.52L161.02 359.84L165.66 360.7L166.6 360.75L167.29 360.78L168.52 361.12L169.16 361.32L170.93 361.98L171.76 362.34L172.65 362.81L175.82 364.63L177.72 366.44L180.88 368.8L184.5 371.41L185.14 371.68L185.6 371.75L186.64 371.68L186.66 373.34L186.67 380.21L186.65 402.99L186.77 404.31L187.13 404.49L189.2 404.84L190.1 404.89L190.59 404.96L191.52 405.24L192.06 405.54L193.62 406.62L195.01 407.96L195.37 408.41L196.58 410.13L197.04 410.86L197.57 411.83L197.81 412.34L193.69 414.24L193.4 414.53L193.02 414.79L192.57 414.89L191.11 415.06L187.04 415.09L185.72 415.01L183.47 415.09L181.39 415.19L180.96 415.2L179.64 415.16L179.05 415.02L178.47 414.74L177.83 414.31L177.21 413.65L176.83 413.22L176.33 412.8L175.68 412.48L174.41 412.07L172.86 411.69L170.15 410.24L166.76 408.79L166.33 408.68L162.47 407.21L162 406.42L161.48 404.8L160.99 404.58L159.54 404.25L159.09 404.22L158.59 404.31L157.75 404.62L155.09 407.49L154.43 409.58L154.2 410.99L154.42 413.39L154.52 413.95L155.05 416.63L156.25 421.77L156.63 422.39L157 422.76L157.38 423.04L157.6 423.63L157.53 424.67L157.44 425.15L157.18 425.89L156.96 426.6L156.94 427.69L157.08 428.48L157.24 429L157.55 429.69L157.31 430.76L157.03 431.47L156.15 433.53L156.01 434.28L156.07 434.87L156.32 435.55L155.04 435.29L141.15 435.31L128.47 435.29L115.8 435.3L98.89 435.29L88.02 435.31H80.17L68.7 435.29L56.63 435.31L56.03 435.29H44.56L41.54 435.31L35.01 435.3Z" fill="#C7C7C7" stroke="white" stroke-width="2"/>
<path d="M186.46 78.33L176.93 78.19L174.29 77.34L172.64 76.79L172.01 76.57L167.8 85.82L166.96 88.66L166.75 89.57L166.6 89.62L162.86 89.66L162.26 89.55L161.67 89.39L160.96 89.41L160.52 89.55L160.06 89.83L159.64 90.27L159.16 90.55L158.57 90.69L158.13 90.59L156.42 90.08L152.52 88.5L152.18 87.36L151.81 86.72L151.33 86.62L150.93 86.82L150.33 87.23L149.87 87.51L149.45 87.58L147.42 87.14L145.43 86.64L145.09 87L145.02 87.6L145.06 88.42L144.77 90.73L144.4 91.21L139.52 90.49L138.48 90.27L136.57 89.76L134.47 89.74L133.98 89.97L133.66 90.45L133.25 91.4L133.06 91.97L132.8 92.6L132.53 92.9L132.16 92.95L131.77 92.75L131.44 92.44L130.09 91.02L129.76 90.53L129.39 89.72L128.93 88.62L128.12 87.09L127.4 86.04L125.55 83.64L125.3 83.35L125.08 83.03L124.9 82.68L124.67 81.9L124.55 81.28L124.53 80.71L124.59 79.96L124.79 79.57L125.89 78.66L127.31 78.62L128.84 78.53L129.3 78.33L130.04 77.79L130.37 77.38L130.83 74.79L129.49 71L128.97 70.54L124.97 70.62L119.07 70.7L112.91 70.77L106.61 70.83L96.23 68.83L94.56 68.5L94.31 68.42L95.5 68.23L96.67 67.6L94.05 63.1L93.18 62.6L92.77 61.48L92.83 60.86L93.32 59.82L93.91 58.64L94.72 57.34L96.04 55.35L96.49 55.07L97.33 55.21L98.09 54.23L98.52 53.26L99.67 52.73L104.94 50.4L109.63 48.31L115.14 45.82L116.68 40.14L116.86 40.39L117.29 40.79L118.74 41.85L119.45 41.93L119.94 42.23L121.19 43.61L122.45 45.16L123.76 46.6L124.1 46.78L126.39 47.83L126.89 48.04L127.75 48.25L129.89 48.54L130.34 47.86L132.49 40.97L132.66 40.16L132.67 39.29L132.64 38.67L132.41 37.68L131.99 36.47L131.97 35.88L132.02 35.36L132.37 33.88L132.62 33.21L133.27 32.98L134.68 33.42L136.26 33.99L137.37 34.61L138.81 35.54L139.44 36.16L139.62 36.61L139.6 39.9L139.19 40.36L138.93 40.97L138.86 42.68L139.35 44.37L140.16 45.33L140.53 45.25L140.87 44.98L141.42 45.12L143.55 46.72L143.82 47.23L143.76 47.85L143.7 48.35L143.75 48.78L143.93 49.18L146.86 53.4L147.83 54.01L151.69 55.13L152.3 55.29L155.25 55.39L156.19 56.12L156.75 56.49L158.49 57.17L159.06 57.2L159.35 56.94L159.61 56.33L159.8 55.77L160.05 55.14L160.35 54.66L160.72 54.33L162.29 55.62L162.76 56.11L163.29 56.67L164.19 57.49L164.35 57.55L164.98 56.46L165.37 55.85L165.76 55.41L166.09 55.13L168.13 53.79L169.15 53.65H169.65L170.09 53.41L170.57 52.9L170.82 52.59L171.75 51.27L172.32 50.28L172.6 49.54L172.7 48.9L172.58 47.58L172.52 46.43L172.4 42.69L172.41 42.11L172.37 39.75L172.28 35.7L168.84 35.63L168.31 36.52L166.98 37.32L166.17 36.26L165.51 35.66L163.38 34.55L162 34.86L161.72 35.12L161.43 35.44L160.88 35.69L159.6 35.15L159.5 34.27L158.56 32.24L158.22 31.66L157.91 31.43L157.4 31.31L156.84 31.03L156.65 30.45L156.97 29.26L157.17 28.62L157.26 27.87L157.32 27.22L157.3 26.67L157.05 26.06L156.64 25.65L156.17 25.55L155.79 25.51H155.02L154.52 25.52L154.05 25.42L153.69 25.17L153.18 24.53L152.56 22.6L152.25 20.44L151.4 17.23L151.31 16.27L151.44 15.85L151.67 15.53L151.91 15.1L153.14 12.4L153.12 11.52L153.17 10.61L153.41 9.57L154.01 8.1L157.66 8.02L158 8.35L162.6 9.8L163.18 9.67L164.83 10.4L165.66 11.33L165.78 11.83L166.03 14.21L167.2 16.27L167.52 17.55L167.32 18.24L167.36 18.8L168.02 19.57L168.99 20.61L169.18 21.2L169.26 22.12V22.68L169.44 23.21L169.83 23.03L170.1 22.48L170.42 20.95L170.38 20.43L170.49 18.83L170.98 17.31L171.14 16.96L171.52 16.24L171.95 15.89L172.44 15.41L173.27 14.24L175.69 8.09L176.63 6.28L180.4 6.31L182.93 6.32L191.32 6.27L196.99 6.21L197.29 6.59L197.43 7.4V8.08L197.44 8.5L197.93 9.27L199.89 10.85L200.13 10.9L200.6 11.62L202.35 13.47L204.68 15.15L205.21 15.37L205.61 15.41L205.62 15.69L205.67 22.05L205.68 29.6L205.64 43.74V47.72L205.7 50.63L205.74 53.18L200.1 60.71L192.01 71.19L191.52 71.8L186.46 78.33Z" fill="#C7C7C7" stroke="white" stroke-width="2"/>
<path d="M112.02 615.52L111.07 616.47L110.62 617.07L109.66 619.21L110.1 620.67L108.94 622.69L108.07 623.8L107.31 624.7L106.9 625.06L106.23 626.63L108.14 626.41L108.59 625.67L108.76 624.89L109.44 623.13L109.89 622.92L110.25 623.24L109.33 627.77L108.73 630.42L108.2 633.45L108.02 635.57L107.87 636.96L107.58 638.6L107.35 639.73L107.19 640.34L106.95 641.07L106.55 641.65L105.36 642.98L104.97 643.37L103.59 644.6L103.01 645.09L102.35 645.59L102 645.83L99.89 646.83L99.48 647.01L98.7 647.2L98.16 647.23H97.77L97.11 647.16L95.43 645.68L93.94 643.16L92.38 641.76L92.13 642.34L90.57 643.05L89.9 642.99L88.02 642.88L87.65 642.89L85.98 643.33L85.61 643.46L84.95 644.04L86.65 643.85L87.12 643.55L87.82 643.28L88.36 643.29L88.94 643.48L91.01 643.55L91.4 643.46L91.92 643.21H92.52L93.1 643.7L93.4 644.46L93.64 645.38L93.89 645.81L94.27 646.13L94.6 646.38L96.26 647.5L96.35 648.13L95.92 648.87L95.44 649.26L95.05 649.46L94.5 649.69L93.19 650.14L91.33 650.81L89.13 651.92L88.25 652.4L87.68 652.8L87.27 653.18L86.07 654.71L85.75 655.18L83.78 658.52L83.53 659.06L83.14 660.55L82.36 664.83L82.37 666.54L82.5 668.17L82.4 668.77L81.88 669.54L80.53 671.16L79.36 672.19L78.96 672.58L78.15 673.55L77.65 674.45L78.36 673.68L79.52 672.46L81.51 671.21L82.05 672.32L82.4 673.49L82.41 674.39L82.37 675.25L82.44 675.96L82.6 676.68L83.95 681.55L84.14 682.15L84.85 684.24L85.4 685.77L85.65 686.72L85.85 687.75L85.54 688.71L85.08 688.7L84.74 688.43L84.01 688.56L83.58 688.83L82.63 689.79L82.19 689.72L81.27 689.32L79.63 688.27L78.22 688.23L76.3 688.81L73.96 690.2L75.05 690.03L75.47 689.86L76.02 689.6L77.98 689.27L78.72 689.34L80.34 689.78L81.75 690.5L84.75 690L85.18 690.21L86.4 692.44L87.43 694.82L88.44 697.44L88.77 698.23L90.66 701.84L92 703.99L92.32 704.48L92.73 704.99L93.81 706.24L95.14 708.38L95.73 709.54L96.18 710.83L95.49 712.16L95.11 712.32L95.22 710.87L92.69 710.18L91.36 709.94L89.93 709.72L88.1 709.42L86.16 707.97L85.16 707.25L84.41 706.91L80.77 705.4L79.79 705.42L76.64 705.41L71.13 702.96L67.92 701.5L66.92 701.08H64.89L59.01 701.11H44.55L36.19 701.1L32.28 701.06L31.7 698.67V697.7L31.39 696.93L29.08 694.29L28.2 693.58L27.74 693.24L27.37 693L26.88 692.77L25.98 692.61L25.42 692.3L23.4 686.99L23.97 686.56L24.36 686.15L25.05 683.67L24.98 682.52L25.01 681.13L25.36 680.35L25.9 679.8L26.14 679.01L25.4 678.04L24.74 677.69L24.29 677.34L23.85 676.74L23.5 675.27L24.61 673.15L25.55 673.04L25.85 672.47L26.27 668L26.06 667.34L25.58 666.46L25.18 665.88L24.6 665.18L24.53 664.48L25.22 662.94L25.34 662.24L23.95 661.14L21.76 660.82L21.27 660.9L20.83 661.13L20.43 661.63L20.03 662.43L19.67 662.7L19.08 662.78L18.5 662.55L18.14 662.23L17.82 661.8L17.31 661.32H16.78L14.85 662.28L14.25 662.65L13.89 662.99L12.84 664.43L12.22 664.99L11.6 665.34L11.03 665.54L10.57 665.65L10.06 665.57L9.68 665.26L9.35 664.71L8.4 660.68L8.03 657.9L7.72 653.79L7.52 653.03L6.8 651.29L6.53 650.8L6.23 650.42L4.64 649.15L3.08 647.94L2.83 647.14L3.04 646.23L3.46 645.35L3.96 644.66L4.03 643.81L3.67 643.31L3.22 642.88L2.51 642.1L2.96 639.63L3.46 639.03L4.1 638.42L4.46 637.9L3.21 632.71L2.24 631.43L2 630.92L2.77 628.21L4.13 624.55L4.88 624.5L10.08 624.35L10.98 623.33L9.51 622.92L9.38 622.65L9.34 622.07L11.15 617.82L12.43 615.91L12.86 615.36L13.42 614.98L14.07 614.7L14.43 614.6L15.15 614.63L15.97 614.46L16.51 614.25L16.98 613.97L17.31 613.74L17.82 613.3L20.03 611.13L20.5 610.44L20.66 609.82V608.57L20.49 606.4L20.27 604.64L20.16 604.02L19.72 602.09L19.87 601.52L20.19 601.08L20.57 600.81L21.77 600.15L22.94 599.68L25.37 598.11L25.22 593.84L24.83 590.81L23.29 588.92L22.51 588.73L22 588.38L21.33 587.65L21.04 587.12L20.97 586.42L22.4 582.32L22.9 581.19L23.34 580.41L24.27 578.92L24.51 578.41L24.69 577.83L25.08 575.41L24.47 575L24.15 574.68L24.32 573.93L24.58 573.54L24.98 573.29L25.35 573.13L26.02 572.89L26.5 572.88L27.14 573.09L27.78 572.89L29.19 571.34L30.35 569.33L32.78 568.14L33.05 567.77L33.33 566.55L33.15 565.67L32.6 565.03L31.09 562.88L31.76 557.11L32.16 556.68L33.37 556.59L34.03 556.31L36.34 554.12L36.59 553.62L36.7 552.8L36.63 549.8L36.28 548.55L35.64 546.97L35.35 542.81L35.25 542.17L34.88 541.5L34.27 541.2L33.65 540.97L32.44 539.62L33.36 539.18L33.84 539.13L34.41 539L34.9 538.78L35.36 538.25L35.72 537.51L36.1 536.89L36.71 536.06L37.09 535.72L39.13 535.74H46.97L50.58 535.72H63.27L69.32 535.74H74.14L74.75 535.72H92.25L92.85 535.74L109.75 535.72L110.64 535.74L110.03 537.59L109.98 539.12L110.02 540.35L110.19 541.25L110.69 543.64L110.84 544.22L111.56 546.76L112.12 547.81L113.14 549.44L113.89 550.57L114.75 551.7L115.1 552.08L117.45 554L117.98 554.28L119.42 555.58L122.06 558.54L124.51 561.68L126.02 562.81L126.49 563.08L127.22 563.25L127.72 563.3L128.08 563.29L128.89 563.2L130.17 563.18L132.63 563.59L132.97 564.04L135.55 564.45L137.52 564.39L138.36 563.94L139.09 563.74L139.53 563.75L141.25 564.66L143.41 567.14L144.18 570.75V571.29L144.13 572.31L143.97 574.21L143.77 576.24L143.23 578.25L141.69 582.11L141.37 582.4L140.59 582.44L139.9 582.2L139.31 582.16L138.8 582.31L138.45 582.54L138.15 582.89L137.7 583.45L137.28 583.78L136.25 583.93L135.19 584.39L134.93 584.93L135.5 584.49L136.04 584.36L137.04 584.27L139.75 582.9L140.12 582.94L141.07 583.57L143.17 586.89L143.15 587.77L142.45 587.96L142 587.76L141.44 587.4L140.91 587.24L139.93 587.67L140.31 590.04L139.99 591.2L138.12 591.41L134.24 595.3L133.26 596.37L131.9 597.94L130.88 599.48L129.38 599.75L127.75 600.4L127.3 600.63L126.88 601.05L125.73 602.56L124.38 604.17L123.4 604.38L122.8 604.54L122.35 604.7L121.83 604.93L120.08 605.83L119.62 606.13L118.97 606.9L117.51 609.49L116.8 611.09L116.07 611.41L115.56 611.66L115.11 611.97L113.9 613.04L112.41 614.97L112.02 615.52Z" fill="#C7C7C7" stroke="white" stroke-width="2"/>
<path d="M154.39 123.75L155.69 123.57L156.15 123.3L157.41 121.1L156.87 119.58L156.5 118.81L156.26 118.26L156.18 117.58L156.32 114.82L156.56 114.34L158.56 112.06L159.06 111.9L159.49 111.82L160.39 110.05L160.81 108.99L161.81 105.71L162.66 103.9L163.48 101.23L164.16 101.19L164.93 98.77L166.23 98.86L166.58 98.74V97.95L166.55 97.38L166.36 96.07L166.11 94.56L166.05 93.89L166.17 93.4L166.47 92.56L166.75 91.71L166.85 91.18V90.69L166.75 89.57L166.96 88.66L167.8 85.82L172.01 76.57L172.64 76.79L174.29 77.34L176.93 78.19L186.46 78.33L191.94 78.38L193.67 78.4L198.27 78.42H208.64L213.13 78.4L216.25 78.37L216.94 78.38L216.96 78.78L217.04 89.48L217.07 101.46L217.05 114.02L217.06 124.56L217.04 125.6L216.41 129.78L216.32 130.47L215.33 137.07L213.96 146.13L212.98 152.48L211.92 159.15L210.21 170.06L208.94 166.8L207.11 162L200.34 162.12L190.15 162.25L189.17 162.23L186.6 162.04L186.25 160.97L185.4 160.07L184.58 159.67L182.81 159.28H182.19L181.65 159.41L181.18 159.54L180.61 159.61L180.11 159.62L179.6 159.61L178.89 159.49L175.44 157.68L174.75 156.71L174.77 156.05L170.66 154.78L159.95 157.53L159.58 157.61L159.48 157.49L159.18 157.08L157.57 154L156.77 152.04L156.61 151.42L156.49 150.64L156.17 147.17L156.1 144.52L155.82 140.68L155.64 139.89L155.2 139.4L154.76 139.17L154.21 138.97L154.18 138.44V137.89L155.05 136.82L155.66 136.17L156.01 135.5L156.13 134.52L156.15 134.01L156.14 133.17L156.05 131.55L156.01 131.09L155.73 129.58L155.05 126.19L154.48 123.93L154.39 123.75Z" fill="#C7C7C7" stroke="white" stroke-width="2"/>
<path d="M242.68 235.76L243.11 236.25L242.89 237.05L241.69 238.59L240.49 240.33L240.45 241L240.3 241.82L240.13 242.29L239.35 243.76L238.21 244.12L237.79 244.1L237.43 243.98L237.02 243.63L236.74 243.32L236.24 242.9L235.86 242.68L232.69 242.09L232.19 242.14L231.75 242.26L231.38 242.47L231.12 242.83L231.05 243.3L231.23 244.03L224.01 252.28L217.03 260.07L213.8 260.11L206.19 260.17L196.32 260.19L196.55 259.78L198.51 256.65L205.99 244.49L212.96 233.07L213.7 232.02L214.42 232.01L215.27 231.48L215.7 231L216.03 230.4L216.15 229.87L216.64 226.68L216.48 225.93L214.82 223.3L214.11 221.11L213.69 219.53L213.38 218.77L212.98 218.23L212.53 217.84L212.02 217.5L211.6 217.17L211.19 216.63L210.95 215.93L210.82 215.02L210.55 214.31L210.18 213.88L209.87 213.66L209.22 213.37L207.85 211.76L207.8 210.47L207.88 209.82L207.94 207.13L207.72 205.48L207.36 202.99L209.4 201.27L212.72 188.91L214.56 182.02L211.67 180.9L208.36 178.57L208.48 176.26L209.25 176.21L210.21 170.06L211.92 159.15L212.98 152.48L213.96 146.13L215.33 137.07L216.32 130.47L216.41 129.78L217.04 125.6L221.29 125.63L226.6 125.64H240.9L245.85 125.61H254.25L268.72 125.58L268.71 125.89L268.64 126.29L268.48 126.73L268.1 127.59L267.62 128.02L267.17 128.2H266.79L266.15 128.11L265.44 128.46L265.07 128.87L264.87 129.25L264.77 130.04L264.81 130.92L265.07 133.39V134.28L264.6 138.52L264.37 139.26L262.75 146.08L262.52 146.74L259.43 149.95L258.93 150.25L257.63 150.67L257.27 150.95L255.7 154.28L255.53 154.8L255.56 156.14L255.48 157.88L255.34 159.19L255.08 160.32L254.66 161.74L254.32 162.57L254.21 163.07L254.17 163.8L254.43 164.68L254.93 165.26L255.42 165.89L255.74 166.46L255.81 167.24L254.69 170.88L253.99 172.47L254.34 173.84L254.42 174.09L255.21 175.36L255.57 175.82L255.67 176.55L255.69 179.08L255.52 180.16L253.71 183.45L252.76 185.05L252.52 185.4L251.88 186.24L250.19 188.88L249.21 190.61L248.24 191.98L247.39 192.59L246.87 193.43L246.54 194.25L246.32 194.96L246.06 195.6L245.39 196.68L241.73 200.92L240.88 201.82L240.17 202.35L239.05 202.52L238.43 202.56L237.33 202.68L236.64 202.89L236.25 203.31L235.18 212.23L235.72 215.74L234.91 217.75L234.53 219.3L234.59 221.87L235.23 225.86L235.37 226.55L235.55 227.07L238.32 232.6L238.66 232.86L239.74 233.29L241.21 234.06L241.72 234.39L242.55 235.54L242.68 235.76Z" fill="#C7C7C7" stroke="white" stroke-width="2"/>
<path d="M62.46 215.46L61.21 214.91L61.07 214.51L61.15 213.72L60.57 210.71L61.33 209.88L62.09 209.76L62.68 208.12L62.58 207.55L61.73 206.56L61.38 206.36L60.12 206.44L59.43 206.29L59.09 206.07L58.8 205.65L58.57 205.3L56.26 199.61L56.4 198.9L56.61 197.61L56.74 194.51L57.26 191.53L57.45 191.07L58.71 189.71L59.09 190.11L60.33 189.68L61.54 188.34L61.61 187.63L60.95 186.81L60.88 186.28L60.96 185.43L61.16 184.04L62.01 180.97L62.31 180.12L63.05 178.48L64.46 175.97L65.95 175.04L66.35 175.1L66.92 175.04L68 174.57L68.72 173.58L69.94 170.77L69.98 169.8L69.75 169.31L69.36 168.97L68.25 166.8L68.36 166.26L68.56 165.1L68.6 162.63L68.44 160.99L68.39 160.84L67.79 160.45L67.56 160.12L67.45 159.64L67.54 159.09L67.67 158.5L67.61 157.58L67.52 157.16L66.83 154.85L66.36 153.83L66.26 153.36L66.36 152.1L67.61 150.24L68.67 148.96L69.82 148.83L70.4 148.44L70.64 148.07L70.75 147.56L70.71 146.44L71.28 143.76L71.9 141.93L71.79 141.24L71.6 140.78L71.48 140.32L71.49 139.3L72.3 137.68L72.88 137.37L73 136.67L73.13 133.79L77.01 135.1L78.7 135.38L82.17 138.26L82.71 139.72L83.01 141.13L84.36 142.62L86.55 144.7L86.98 148.23L86.74 149.54L86.45 149.96L85.89 150.04L85.74 151.62L85.19 154.69L84.67 156.75L84.59 157.23L84.52 157.94L84.56 158.52L84.76 159.02L85.4 159.25L88.25 159.2L88.98 158.92L89.44 158.72L90.08 158.57L90.63 158.54L94.6 159.55L96.23 160.16L97.42 160.84L100 162.88L101.62 164.22L102.43 164.97L102.61 165.36L102.92 166.14L104.53 167.76L104.91 168.11L105.51 168.45L106.92 169.57L109.43 171.68L109.89 172.11L110.33 172.61L110.53 172.98L110.96 174.69L113.3 177.22L114.37 178.09L115.67 179.79L116.56 181.09L117.06 181.31L117.58 181.57L118.03 182.14L119.75 185.54L118.89 188.51L120.14 189.48L119.82 191.67L119.65 192.74L119.27 195.26L120.41 198.96L121.94 200.5L123.91 201.92L125.36 204.39L125.72 205.14L126.11 206.24L125.16 206.42L122.26 206.56L121.75 206.55L117.95 206.03L115.62 205.68L114.85 205.64L114.52 205.85L114.2 206.51L114.03 209.98L114.1 214.32L114.23 215.9L114.39 216.51L114.69 217.35L114.51 217.07L114.2 216.65L112.95 215.21L112.59 214.95L110.86 214.35L110.26 214.33L109.89 214.43L109.05 214.5L107.46 214.25L106.38 214.06L106.02 213.87L104.25 212.31L103.94 211.45L103.67 211.01L103.36 210.71L103.07 210.47L102.71 210.31L102.03 210.33L101.43 210.57L101.02 210.7L99.01 211.16L96.75 210.93L96.34 210.83L95.56 210.35L95.09 210.31L94.63 210.65L94.46 211.19L94.38 212.24L94.04 212.71L93.47 212.9L92.87 212.83L89.82 212.1L89.35 211.91L88.47 211.5L88.11 211.3L87.62 210.82L87.27 210.62L86.24 210.37L84.66 210.59L83.99 210.09L83.69 209.67L83.44 209.14L83.11 208.68L82.75 208.29L82.43 208.07L81.66 207.94L80.46 208.81L77.82 209.89L76.99 209.95L74.16 211.31L73.8 211.61L73.61 211.99V212.47L73.66 213.3L73.54 213.85L72.92 214.38L71.61 214.46L70.88 214.49L69.96 214.6L68.98 214.82L68.49 215.01L68.11 215.2L67.36 215.37L66.43 215.21L63.95 215.15L62.46 215.46Z" fill="#C7C7C7" stroke="white" stroke-width="2"/>
<path d="M114.69 217.35L114.39 216.51L114.23 215.9L114.1 214.32L114.03 209.98L114.2 206.51L114.52 205.85L114.85 205.64L115.62 205.68L117.95 206.03L121.75 206.55L122.26 206.56L125.16 206.42L126.11 206.24L126.32 206.22L126.7 206.23L127.39 206.44L127.96 206.73L128.89 207.12L132.76 207.52L134.61 207.41L135.19 207.33L135.73 207.19L136.44 206.86L137.04 206.51L137.54 206.32L138.3 206.13L139.18 206.04L139.65 206.15L140.19 206.4L140.64 206.72L141.7 206.85L143.69 206.43H145.26L145.93 206.55L151.84 210.1L152.94 211.32L153.09 212.01L153.13 212.78L153.91 215.8L154.44 215.9L156.43 215.64L157.07 215.47L157.46 215.29L157.88 215.17L158.48 215.07L159.01 215.56L159.74 220.7L159.59 222.13L159.07 223.46L158.02 227.35L157.34 230.24L156.66 231.88L155.82 233.15L155.35 233.98L155.09 234.6L155.5 244.17L155.88 251.04L155.91 251.88L155.92 253.77L155.9 269.76L155.88 273.78L155.9 274.35L155.87 279.33L155.86 289.35L155.88 290.51L155.86 295.94L128.16 295.89L128.12 295.84L127.82 295.21L128.29 292.46L128.89 290.02L129.05 289.31L129.85 285.01L129.94 284.42L130.16 281.59L130.14 276.55L129.54 272.35L129.4 271.8L128.96 270.48L128.61 269.58L127.36 267.56L125.87 265.07L125.73 264.65L124.64 260.36L124.42 257L124.86 256.11L125.59 255.36L125.84 253.71L125.45 252.06L124.14 249.75L123.82 249.33L122.73 248.57L122.28 247.92L121.57 245.65L120.18 242.63L119.14 240.98L118.45 239.51L117.74 234.94L117.94 234.23L117.84 231.76L117.66 229.78L117.33 229.25L117.16 228.79L117.37 226.92L117.63 225.48L116.71 223.33L116.28 220.98L115.8 219.34L115.22 217.81L114.69 217.35Z" fill="#C7C7C7" stroke="white" stroke-width="2"/>
<path d="M101.91 787.57L101.3 787.23L101 787.1L100.36 786.89L98.67 786.62L97.52 786.95L97.32 787.4L97.09 787.5L94.2 787.83L93.79 787.85L93.44 787.76L93.08 787.59L92.7 787.21L91.61 785.72L91.68 778.15L91.71 772.22L91.69 771.58L91.74 761.19L91.78 756.35L91.83 746.28L91.85 741.07L91.84 739.2L91.9 724.74L91.94 720.43L91.96 720.16L92.8 721.5L93.65 723.11L94.98 725.28L95.72 726.21L96.85 727.35L97.14 727.68L97.67 728.59L97.82 728.86L97.95 729.14L98.28 730.05L98.42 730.53L98.5 730.86L99.1 734.08L99.11 734.44L98.82 734.41L98.58 733.67L98.49 733.34L98.39 732.82L98.25 731.94L98.13 731.44L97.89 731.01L97.49 730.74L97.24 730.72L96.5 731.01L96.07 731.3L93.32 734.69L92.98 735.49L92.89 736.13V736.55L92.97 736.88L93.07 737.21L93.32 737.8L93.65 738.3L93.84 738.53L94.15 738.84L94.87 739.37L95.37 739.71L95.85 739.85L96.58 739.96L97.56 739.99L98.04 739.95L99.08 739.54L99.54 739.48L99.92 739.52L100.22 739.75L100.44 740.06L101.38 742.04L101.51 742.35L101.62 742.66L101.99 744.81L102.41 746.69L103.04 748.11L103.25 748.53L103.4 748.8L103.73 749.3L106.74 752.38L107.92 753.53L109.38 754.89L109.91 755.31L110.69 756.11L110.72 756.57L110.63 756.91V757.33L110.67 757.71L110.8 758.21L110.91 758.53L111.09 758.78L114.79 762.17L116.46 763.47L121.41 767.02L123.66 768.32L124.13 768.48L125.7 769.45L126.43 770.01L126.67 770.2L127 770.52L129.1 773.63L129.46 774.02L133.6 777.02L135.04 777.93L138.56 779.64L142.91 781.66L144.75 782.1L145.12 782.15L145.34 782.14L149.79 781.4L151.56 780.97L152.16 780.91H153.28L153.58 780.93L154.67 781.21L155.01 781.53L153.23 786.55L151.77 789.32L151.44 789.84L151.19 790.13L150.72 790.22L150.36 790.05L150.27 789.69L148.75 789.34L146.63 790.26L144.75 790.07L144.61 789.77L144.37 789.46L144.18 789.33L143.63 789.13L141.63 788.99L141.44 789.02L140.58 789.22L140.29 789.84L139.73 790.5L139.24 790.98L137.53 791.78L137.18 791.88L136.04 792.05L134.69 791.91L133.26 791.86H133.04L132.61 791.98L132.44 792.13L131.33 794.04H131.11L129.41 793.82L128.89 793.7L127.95 793.35L127.58 793.18L127.18 792.82L126.98 792.58L126.82 792.3L126.55 791.92L126.22 791.6L125.86 791.3L124.96 790.69L124.5 790.51L121.06 789.53L120.87 789.49L118.42 789.2L112.4 788.54L110.31 788.7L109.94 788.77L109.36 788.84L108.95 788.86L108.32 788.84L106.29 788.54L103.14 788.03L102.62 787.91L102.02 787.65L101.91 787.57ZM163.28 789.45L163.44 788.25L162.83 787.57L162.39 787.48L161.97 787.43L161.88 787.08L162.15 786.3L163.02 785.37L163.47 785.31L163.82 785.49L164.27 785.9L164.54 786.06L164.74 786.08L166.23 785.58L168.72 784.47L169.46 783.84L172.52 784.31L175.15 783.98L177.02 783.41L177.24 783.39L178.79 783.6L178.95 783.86L177.96 785.6L176.4 786.47L176 785.8L175.36 785.42L174.84 785.78L173.11 786.69L170.9 787.38L170.71 786.97L170.76 786.29L169.65 785.74L169.24 786.19L167.91 787.34L167.37 787.57L167.17 787.61L166.78 787.58L165.11 788.23L163.98 789.29L163.28 789.45ZM91.59 786.23L91.86 786.57L92.04 786.89L92.51 787.99L92.64 788.12L92.85 788.25L93 788.43L92.97 788.62L92.8 788.72L92.6 788.76L92.33 788.89L92.13 788.95H91.87L91.67 788.92L91.46 788.85L91.57 788.74L91.59 786.23Z" fill="#C7C7C7" stroke="white" stroke-width="2"/>
<path d="M154.39 123.75L153.95 123.98L153.53 124.07L153.11 123.98L152.76 123.81L152.21 123.4L151.63 122.85L151.26 122.72L150.04 123.5L149.4 123.96L148.31 124.95L147.93 125.48L147.65 126.11L147.21 126.62L145.71 125L145.43 124.52L145.13 123.65L145.04 123.16L144.98 122.61L144.78 121.96L143.58 121.23L142.86 121.6L142.33 121.51L140.65 118.65L140.08 116.4L139.6 113.98L138.66 113.07L137.57 112.33L136.8 112.23L135.92 111.88L136.76 109.9L138.71 107.26L139.07 106.81L140.18 105.66L140.72 105.2L141.25 104.45L141.51 103.98L141.71 103.41L142.05 100.06L141.95 99.58L141.73 99.27L138.92 97.13L138.21 96.79L137.78 96.67L136.85 96.54L135.89 96.44L135.45 96.17L135.39 93.15L135.61 92.56L136.43 90.71L136.57 89.76L138.48 90.27L139.52 90.49L144.4 91.21L144.77 90.73L145.06 88.42L145.02 87.6L145.09 87L145.43 86.64L147.42 87.14L149.45 87.58L149.87 87.51L150.33 87.23L150.93 86.82L151.33 86.62L151.81 86.72L152.18 87.36L152.52 88.5L156.42 90.08L158.13 90.59L158.57 90.69L159.16 90.55L159.64 90.27L160.06 89.83L160.52 89.55L160.96 89.41L161.67 89.39L162.26 89.55L162.86 89.66L166.6 89.62L166.75 89.57L166.85 90.69V91.18L166.75 91.71L166.47 92.56L166.17 93.4L166.05 93.89L166.11 94.56L166.36 96.07L166.55 97.38L166.58 97.95V98.74L166.23 98.86L164.93 98.77L164.16 101.19L163.48 101.23L162.66 103.9L161.81 105.71L160.81 108.99L160.39 110.05L159.49 111.82L159.06 111.9L158.56 112.06L156.56 114.34L156.32 114.82L156.18 117.58L156.26 118.26L156.5 118.81L156.87 119.58L157.41 121.1L156.15 123.3L155.69 123.57L154.39 123.75Z" fill="#C7C7C7" stroke="white" stroke-width="2"/>
</svg>
