<svg width="617" height="317" viewBox="0 0 617 317" fill="none" xmlns="http://www.w3.org/2000/svg">
<path d="M607.79 110.35L609.55 113L608.05 114.1L609.03 116.24L607.65 117.5L609.1 118.65L607.71 120.28L609.46 121.55L611.13 120.35L615 123.21L609.72 127.56L611.45 128.78L609.52 131.77L611.26 132.87L609 138.89L603.57 139.72L602.97 140.87L606.29 143.32L605.92 144.51L608.03 146.82L606.27 148.67L607.74 156.44L609.35 158.69L592.78 161.05L591.86 160.87L591.38 157.2L588.3 161.71L582.02 161.86L579.67 155.79L574.66 154.8L572.81 152.71L570.67 152.45L565.94 153.62L565.38 158.35L561.89 159.41L560.06 161.93L557.89 160.06L557.56 162.82L555.97 163.77L560.63 165.58L561.19 166.79L564.41 166.5L568.44 169.28L572.3 168.16L574.21 168.79L575.77 170.94L576.11 174.04L575.16 175.31L579.26 178.63L577.16 182.11L574.21 183.33L575.6 186.39L574.96 188.51L569.14 192.4L568.23 194.26L563 194.03L561.9 196.33L560.98 194.32L557.85 194.19L559.07 197.22L558.31 200.18L556.81 200.67L559.2 202.72L561.24 209.16L559.47 212.4L556.6 212.5L557.18 216.55L555.34 217.97L556.33 220.37L558.37 220.01L559.14 222.33L558.43 225.36L563.39 224.69L564.43 227.21L562.21 227.57L562.09 229.19L559.07 231.04L559.91 233.42L563.71 235.3L557.46 237.6L557.2 238.54L557.92 239.35L559.41 238.44L563.11 241.76L560.82 242.69L558 241.4L557.84 242.65L556.53 242.86L555.05 241.42L551.88 242.21L550.04 240.87L549.38 242.53L546.23 242.19L545.46 240.4L544.04 246.37L542.36 246.38L539.86 249.41L537.88 249.01L536.45 252.78L532.73 256.48L529.41 257.94L526.88 260.91L521.99 261.27L523.34 255.58L527.08 252.2L527.85 249.74L529.61 249.43L531.82 243.37L534.66 242.89L532.45 240.65L531.21 238.26L531.86 236.92L529.28 232.85L531.41 224.84L528.36 215.55L529.15 214.68L528.31 211.77L528.59 211.37L524.83 201.6V200.4L524.68 197.45L527.37 196.88L528.82 194.25L529.73 194.4L528.71 195.62L529.59 196.42L530.87 193.49L535.67 192.43L539.99 191.89L544.57 188.58L549.25 181.51L546.91 177.97L547.23 175.59L548.54 171.7L551.8 168.79L551.95 166.34L550.25 163.12L550.7 162.11L546.71 161.21L545.31 156.43L546.37 149.74L543.57 148.75L544.97 146.6L547.18 147.17L546.65 149.06L548.1 149.24L553.13 142.82L550.12 140.08L553.11 138.06L555.09 138.26L555.65 136.15L555.99 135.47L555.5 134.75L557.95 131.92L563.61 130.88L568.45 137.57L572.61 132.52L572.5 130.56L577.99 128.16L578.67 122.59L582.51 122.62L585.8 120.62L588.39 120.81L589.64 117.68L593.33 115.2L595.47 115.98L595.59 118.06L599.8 119.18L599.53 120.92L600.48 121.28L603.27 115.24L599.6 112.61L600.04 111.6L600.99 110.78L602.5 112.24L603.81 111.66L602.4 113.21L604.88 113.85L607.45 109.94L607.79 110.35Z" fill="#C7C7C7" stroke="white" stroke-width="2"/>
<path d="M254.289 230.11L255.689 227.7L260.909 226.62L261.329 229.91L265.549 231.04L268.019 230.52L270.019 232.45L275.879 232.48L277.249 233.01L279.559 237.42L283.289 236.86L284.239 238.66L286.959 239.9L302.199 236.39L302.139 232.51L304.359 230.94L307.209 232L311.399 230.59L314.229 233.89L316.569 232.56L319.199 232.74L328.509 235.92L332.989 235.46L334.149 237.39L337.759 237.37L337.919 241.31L340.889 243.26L342.709 242.99L344.999 248.51L347.659 251.55L350.269 252.49L351.569 251.28L356.809 251.18L355.659 249.15L358.389 248.75V246.84L362.959 245.18L363.549 241.47L367.529 241.04L372.219 237.03L372.809 234.81L375.359 235.9L378.559 233.32L380.999 238.88L382.379 237.86L383.429 239.05L391.609 239.22L392.849 240.28L392.919 244.22L394.299 244.39L396.659 242.04L398.769 242.67L398.789 240.76L400.039 241.1L400.399 239.33L402.479 238.94L403.419 240.84L409.139 240.56L411.389 242.36L412.419 240.28L429.679 236.23L430.249 238.47L434.649 242.06L438.889 243.25L441.579 249.27L444.339 252.49L442.659 256.52L443.289 261.33L441.289 262.57L440.219 266.87L444.489 268.87L445.749 275.3L443.959 280.06L446.239 280.5L447.469 282.52L443.419 283.81L440.399 288.21L438.539 285.22L436.739 286.72L435.989 286.1L435.719 288.56L433.339 287.26L431.529 288.21L428.929 292.64L427.579 299.11L422.139 300.45L421.499 299.56L420.469 301.42L419.339 299.94L418.209 304.3L416.919 303.89L415.179 306.56L409.129 308.33L409.199 312.39L407.279 314.84L404.009 308.88L401.699 310.2L397.929 309.17L396.659 306.35L387.249 308.21L385.109 306.69L381.329 307.95L379.779 306.72L374.919 307.74L371.679 302.81L366.419 301.01L362.959 302.3L355.249 297.66L348.899 297.85L345.889 299.46L340.039 297.48L336.739 297.76L331.769 295.5L328.039 295.95L327.109 294.35L323.669 294.87L322.469 292.63L316.389 293.72L314.879 293.23L315.039 291.99L312.169 291.18L311.999 292.6L309.929 292.37L308.079 294.37L304.109 293.25L301.459 294.35L295.759 290.06L289.259 288.47L286.239 289.31L276.659 287.46L270.099 287.89L269.099 285.08L263.389 283.03L260.849 284.47L257.669 281.88L257.739 277.32L258.279 276.45L260.109 276.78L259.009 275.36L259.629 272.49L266.859 270.17L269.819 271.15L274.309 268.2L276.849 269.58L279.679 266.14L270.079 258.4L269.339 251.97L266.189 250.89L262.099 246.55L260.319 242.49L264.179 237.2L259.709 236.75L258.369 233.24L254.289 230.11Z" fill="#C7C7C7" stroke="white" stroke-width="2"/>
<path d="M444.979 2.07L447.419 2L447.719 3.92L450.449 4.58L452.869 3.74L454.759 4.68L454.259 6.19L455.789 8.51L455.099 10.81L457.409 10.73L460.209 8.67L463.169 9.47L464.549 4.46L466.029 6.23L471.579 6.06L476.249 9.74L478.699 10.49L479.709 9.7L482.299 11.57L483.379 14.37L488.449 16.43L491.209 16.24L497.429 21.35L498.919 20.73L502.329 21.84L504.469 19.03L509.299 18.7L510.309 19.9L509.549 20.86L511.369 21.72L512.169 20.8L513.009 23L513.979 22.21L514.559 23.36L513.569 22.88L513.629 23.86L515.659 23.35L516.789 25.71L517.539 24.71L518.739 25.25L518.199 27.43L521.629 30.63L529.669 34.52L544.289 35.14L548.659 36.34L549.449 34.5L550.919 36.81L552.479 36.64L556.909 32.19L558.049 28.09L559.639 27.3L563.649 28.21L565.339 26.4L569.599 30.25L575.159 30.36L576.509 33.01L576.649 36.78L580.079 35.6L581.849 36.26L582.689 38.23L586.099 39.46L588.759 38.12L591.439 38.76L592.429 37.36L594.219 38.02L596.229 47.09L595.529 49.49L597.319 50.24L596.949 55.71L598.279 58.71L597.529 61.56L595.119 62.67L595.499 64.62L593.669 64.67L593.809 65.98L590.189 70.23L590.809 75.99L590.179 78.15L588.819 78.53L589.629 81.94L591.959 82.32L591.919 83.59L594.799 85.03L593.779 87.03L596.009 91.41L598.689 92.46L597.909 95.76L600.089 103.54L604.299 107.22L606.539 106.97L607.439 109.97L604.869 113.88L602.389 113.24L603.799 111.69L602.479 112.27L600.979 110.8L600.019 111.62L599.589 112.63L603.259 115.25L600.459 121.29L599.519 120.93L599.789 119.19L595.569 118.07L595.459 115.98L593.319 115.21L589.629 117.69L588.379 120.82L585.789 120.63L582.509 122.63L578.669 122.59L577.989 128.16L572.499 130.56L572.599 132.52L568.439 137.57L563.599 130.88L557.939 131.91L555.499 134.74L555.989 135.46L555.649 136.14L555.089 138.25L553.109 138.05L550.109 140.07L553.119 142.81L548.089 149.23L546.639 149.05L547.169 147.16L544.959 146.59L543.559 148.74L546.359 149.72L545.299 156.41L546.709 161.19L550.699 162.09L550.239 163.1L551.939 166.33L551.789 168.78L548.529 171.69L547.229 175.59L546.909 177.96L549.239 181.5L544.559 188.57L539.979 191.88L535.669 192.42L533.739 190.91L531.889 186.81L531.909 181.92L531.169 182.43L530.999 180.83L529.979 180.54L526.589 184.82L524.229 181.8L518.469 181.22L515.549 179.5L513.319 174.77L510.009 175.31L510.909 169.09L509.419 169.28L507.939 167.16L504.609 166.55L501.689 167.81L500.209 165.81L499.749 158.64L497.909 158.3L496.379 159.9L494.489 157.73L493.149 157.98L491.169 153.76L483.239 154.26L483.499 152.14L478.259 151.38L477.279 148.9L475.129 149.77L474.629 146.26L469.859 144.73L466.219 145.7L465.319 149.17L459.619 148.62L458.479 151.56H459.019L458.189 153.5L453.479 152.55L452.709 154.21L449.279 155L447.069 155.05L445.019 153.46L441.999 154.87L440.109 154.5L436.549 158.38L434.919 158.5L432.379 157.75L431.109 154.67L429.319 155.66L427.939 154.25L423.669 156.57L421.449 153.99L422.039 153.13L419.389 149.03L420.979 147.86L419.159 145.52L420.469 142.98L419.169 141.82L423.519 139.15L424.139 137.89L423.159 135.72L420.599 131.83L418.639 132.94L412.709 130.98L406.889 126.25L402.519 124.91L398.899 119.29L398.859 114.56L400.029 113.94L399.059 113.46L401.979 110.91L399.929 109.6L401.469 98.09L404.249 95.77L408.439 97.13L415.019 104.42L417.729 105.39L419.789 102.8L421.679 103.42L429.029 101.33L430.799 97.27L432.969 96.29L437.319 96.49L439.079 99.79L440.459 100.14L438.769 97.2L441.439 93.3L441.009 85.94L437.589 85.4L439.339 77.49L435.549 77.6L437.769 75.51L437.449 73.59L432.499 69.42L431.559 66.45L436.009 63.53L434.279 61.44L429.739 60.55L430.229 59.74L426.969 57.42L424.199 57.7L423.069 56.4L421.229 58L417.619 53.98L418.379 54.34L419.949 52.06L419.249 46.11L420.419 41.69L426.909 36.05L427.009 30.59L432.689 30.42L433.279 31.65L438.679 33.1L440.609 31.44L438.479 29.22L439.699 23.66L440.989 22.91L439.939 19.17L440.959 18.99L441.579 15.59L440.499 6.24L442.039 4.82L441.889 2L444.979 2.07ZM549.929 89.55L548.709 90.28L545.229 91.81L542.589 95.32L541.179 95.4L539.199 93.2L538.539 92.83L537.809 96.73L536.719 97.4L537.969 97.6L538.269 100.09L536.759 103.73L538.009 105.62L539.579 105.76L538.869 106.46L539.799 108L541.089 107.93L539.849 109.34L543.759 108.21L547.099 109.87L548.359 107.77L556.969 109.87L556.719 107.81L563.179 105.2L567.639 107.83L568.309 107.13L568.029 105.04L566.259 104.8L566.029 102.89L564.979 102.5L565.809 92.89L563.839 92.72L562.719 91.51L563.109 89.97L561.779 89.28L560.579 89.2L560.139 91.26L557.549 89.3L557.409 87.84L557.279 87.38L556.129 85.83L554.239 86.11L554.179 86.3L553.569 86.08L551.959 86.63L552.389 88.04L552.159 89.8L550.409 90.31L549.929 89.55Z" fill="#C7C7C7" stroke="white" stroke-width="2"/>
<path d="M350.179 31.6801L352.279 32.0001L358.859 38.5101L362.609 39.1201L365.079 42.9501L367.109 43.2501L366.579 45.8201L364.329 45.8101L363.179 47.4701L364.709 49.0001L366.119 48.7701L365.679 50.6301L367.829 51.3901L367.689 52.7801L370.049 52.2201L369.999 53.1301L371.609 53.4901L372.869 52.4701L377.649 53.0501L381.679 54.9301L384.059 54.4601L389.109 57.9701L390.919 55.2601L393.429 55.5501L393.269 53.0201L396.719 53.5901L398.729 49.2201L397.809 47.0401L399.899 46.4101L402.499 50.1601L405.879 50.4201L407.189 51.6901L411.179 48.7501L412.199 51.4201L414.129 51.0301L415.439 54.4001L417.609 53.9801L421.219 58.0001L423.059 56.4001L424.199 57.7001L426.969 57.4201L430.229 59.7401L429.739 60.5501L434.279 61.4401L436.009 63.5301L431.559 66.4501L432.499 69.4201L437.449 73.5901L437.769 75.5101L435.549 77.5901L439.339 77.4901L437.589 85.4001L441.009 85.9401L441.449 93.3001L438.779 97.2001L440.469 100.14L439.089 99.7901L437.329 96.4901L432.979 96.2901L430.809 97.2701L429.039 101.33L421.689 103.42L419.789 102.8L417.729 105.39L415.019 104.43L408.439 97.1401L404.249 95.7701L401.469 98.0901L399.919 109.61L401.969 110.92L399.039 113.47L400.009 113.95L398.849 114.57L398.889 119.3L402.499 124.92L406.879 126.27L412.689 131L418.619 132.96L420.579 131.86L423.129 135.74L424.109 137.92L423.489 139.18L419.139 141.85L420.439 143.01L419.129 145.55L420.949 147.89L419.359 149.06L422.009 153.16L421.419 154.03L417.809 152.09L416.279 154.87L414.029 156.13L411.379 155.99L408.899 157.89L404.459 158.52L403.899 162.03L401.269 162.1L397.199 165.35L394.389 165.22L393.979 167.21L387.349 170.75L382.819 170.07L380.369 166.82L380.929 165.55L366.409 169.48L366.739 163.47L363.079 159.54L355.849 159.05L352.479 156.54L351.169 156.45L350.409 157.97L344.639 157.68L341.179 161.5L341.269 162.75L339.509 163.42L337.969 168.14L337.839 173.46L341.189 174.26L342.789 177.1L342.019 178.78L343.169 180.99L339.749 186.55L340.219 187.8L329.229 186.5L323.899 183.83L321.429 181.68L320.549 179.1L320.619 175.29L322.829 173.65L324.189 169.42L323.669 167.96L321.919 168L321.099 166.64L325.959 158.04L317.439 155.28L318.119 151.13L319.539 149.47L323.759 151.11L325.459 149.94L324.589 148.04L321.559 149.01L319.709 147.45L313.649 148.49L305.309 144.28L306.039 141.19L304.029 137.12L304.869 136.38L304.739 130.05L307.089 128.49L310.959 131.32L311.889 126.93L308.829 125.65L306.219 122.81L305.009 124.45L294.199 127.69L294.439 124.91L292.149 125.45L288.339 123.46L286.289 118.85L280.649 121.3L277.109 119.83L274.089 124.52L271.289 124.36L269.809 121.29L263.119 114.8L262.439 111.08L263.219 108.9L265.329 109.4L266.439 106.62L270.289 104.09L272.099 99.97L279.079 99.0401L284.139 93.3001L296.989 88.8501L302.839 89.1101L309.139 85.1501L315.249 79.3101L317.499 72.5901L316.489 69.4401L318.989 62.8201L317.499 57.2401L318.439 56.5301L320.479 57.4901L322.899 55.1701L323.089 53.4501L328.269 57.0201L330.889 56.2401L334.699 58.4401L335.629 60.1401L340.879 62.5001L342.199 60.3701L341.979 57.8001L342.959 56.5001L343.849 57.7101L346.389 55.2901L346.349 52.7001L348.189 50.5101L347.339 41.2201L349.329 40.3701L347.299 39.9901L345.909 38.3301L350.179 31.6801Z" fill="#C7C7C7" stroke="white" stroke-width="2"/>
<path d="M421.42 154.03L423.64 156.61L427.91 154.29L429.29 155.69L431.08 154.7L432.35 157.78L434.89 158.52L436.52 158.41L440.09 154.52L441.98 154.89L445 153.48L447.05 155.07L449.26 155.02L452.69 154.23L453.46 152.57L458.17 153.52L459.01 151.57H458.47L459.61 148.63L465.32 149.18L466.21 145.7L469.86 144.73L474.63 146.26L475.13 149.77L477.28 148.91L478.26 151.38L483.5 152.14L483.25 154.26L491.17 153.76L493.15 157.98L494.5 157.73L496.39 159.9L497.92 158.3L499.76 158.64L500.22 165.81L501.7 167.81L504.62 166.55L507.95 167.16L509.43 169.28L510.91 169.09L510.01 175.31L513.32 174.77L515.55 179.5L518.47 181.22L524.23 181.8L526.59 184.82L529.98 180.54L531 180.83L531.17 182.44L531.91 181.93L531.89 186.82L533.75 190.92L535.67 192.43L530.87 193.49L529.59 196.42L528.71 195.62L529.73 194.4L528.82 194.25L527.37 196.88L524.68 197.45L524.83 200.4V201.6L528.59 211.37L528.31 211.77L529.15 214.68L528.36 215.55L531.41 224.84L529.28 232.85L531.86 236.92L531.21 238.26L532.45 240.65L534.66 242.89L531.82 243.37L529.61 249.43L527.85 249.74L527.08 252.2L523.34 255.58L521.99 261.27L521.03 262.21L522.09 264.23L521.07 272.29L522.39 274.82L524.62 275.59L524.89 282.11L521.56 278.98L517.64 277.9L512.3 274.54L509.46 274.3L502.8 277.03L494.72 276.13L494.38 277.81L492.22 279.22L490.93 278.81L490.6 279.99L489.58 279.3L490.76 278.35L489.89 278.1L485.87 280.45L486.17 283.99L482.41 286.86L479.33 286.75L478.66 283.97L475.34 282.11L465.62 282.47L460.95 283.96L453.87 281.58L452.61 282.63L450.67 281.63L448.68 283.17L447.47 282.52L446.24 280.5L443.96 280.06L445.75 275.3L444.49 268.87L440.22 266.87L441.29 262.57L443.29 261.33L442.66 256.52L444.34 252.49L441.58 249.27L438.89 243.25L434.65 242.06L430.25 238.47L429.68 236.23L412.42 240.28L411.39 242.36L409.14 240.56L403.42 240.84L402.48 238.94L400.4 239.33L400.04 241.1L398.79 240.76L398.77 242.67L396.66 242.04L394.3 244.39L392.92 244.22L392.85 240.28L391.61 239.22L383.43 239.05L382.38 237.86L381 238.88L378.56 233.32L375.36 235.9L372.81 234.81L372.22 237.03L367.53 241.04L363.55 241.47L362.96 245.18L358.39 246.84V248.75L355.66 249.15L356.81 251.18L351.57 251.28L350.27 252.49L347.66 251.55L345 248.51L347.52 247.54L349.96 243.32L351.58 242.47L351.6 239.43L354.94 234.29L352.52 230.72L352.72 229.33L357.45 226.11L359.04 227.53L361.26 227.33L361.86 225.57L354.18 220.58L354.62 219.29L350.49 215.12L351.77 213.86L351.43 212.41L348.38 210.79L348.22 207.58L347.27 207.28L343.59 210.58L340.19 209.51L339.28 211.66L336.42 209.91L330.95 208.78L329.96 204.99L330.71 203.57L327.48 192.64L329.71 188.05L329.23 186.5L340.22 187.8L339.75 186.55L343.17 180.99L342.02 178.78L342.79 177.1L341.19 174.26L337.84 173.46L337.97 168.14L339.51 163.42L341.27 162.75L341.18 161.5L344.64 157.68L350.41 157.97L351.17 156.45L352.48 156.54L355.85 159.05L363.08 159.54L366.74 163.47L366.41 169.48L380.93 165.55L380.37 166.82L382.82 170.07L387.35 170.75L393.98 167.21L394.39 165.22L397.2 165.35L401.27 162.1L403.9 162.03L404.46 158.52L408.9 157.89L411.38 155.99L414.03 156.13L416.28 154.87L417.81 152.09L421.42 154.03Z" fill="#C7C7C7" stroke="white" stroke-width="2"/>
<path d="M271.29 124.36L274.09 124.52L277.11 119.83L280.65 121.3L286.29 118.85L288.34 123.46L292.15 125.45L294.44 124.91L294.2 127.69L305.01 124.45L306.22 122.81L308.83 125.65L311.89 126.93L310.96 131.32L307.09 128.49L304.74 130.05L304.87 136.38L304.03 137.12L306.04 141.19L305.31 144.28L313.65 148.49L319.71 147.45L321.56 149.01L324.59 148.04L325.46 149.94L323.76 151.11L319.54 149.47L318.12 151.13L317.44 155.28L325.96 158.04L321.1 166.64L321.92 168L323.67 167.96L324.19 169.42L322.83 173.65L320.62 175.29L320.55 179.1L321.43 181.68L323.9 183.83L329.23 186.5L329.71 188.05L327.48 192.64L330.71 203.57L329.96 204.99L330.95 208.78L336.42 209.91L339.28 211.66L340.19 209.51L343.59 210.58L347.27 207.28L348.22 207.58L348.38 210.79L351.43 212.41L351.77 213.86L350.49 215.12L354.62 219.29L354.18 220.58L361.86 225.57L361.26 227.33L359.04 227.53L357.45 226.11L352.72 229.33L352.52 230.72L354.94 234.29L351.6 239.43L351.58 242.47L349.96 243.32L347.52 247.54L345 248.51L342.71 242.99L340.89 243.26L337.92 241.31L337.76 237.37L334.15 237.39L332.99 235.46L328.51 235.92L319.2 232.74L316.57 232.56L314.23 233.89L311.4 230.59L307.21 232L304.36 230.94L302.14 232.51L302.2 236.39L286.96 239.9L284.24 238.66L283.29 236.86L279.56 237.42L277.25 233.01L275.88 232.48L270.02 232.45L268.02 230.52L265.55 231.04L261.33 229.91L260.91 226.62L255.69 227.7L254.29 230.11L252.49 228.04L248.24 226.37L246.57 227.01L241.98 223.69L235.8 225.37L234.41 224.2L231.73 225.57L230.82 229.19L227.87 229.68L227.16 231.14L225.66 230.95L223.4 233.54L221.45 233.96L220.44 232.3L217.27 231.12L213.32 232.53L209 219.19L211.23 213.42L208.57 209.98L211.27 206.42L214.09 207.96L216.01 206.4L219.05 206.69L220.32 205.45L221.45 206.76L222.77 205.96L223.69 206.63L226.15 203.14L232.4 205.56L235.25 205.32L237.91 203.58L240.06 204.08L242.28 201.7L240.77 198.58L242.91 195.89L247.43 195.13L248.65 196.03L252.28 193.12L253.49 190.57L253.15 187.29L255.64 187.46L258.36 185.96L252.93 177.78L255.75 174.28L254.52 172.93L248.48 171.26V167.68L250.91 162.9L254.44 163.19L256.94 161.71L261.01 161.97L263.2 163.92L265.14 162.81L263.24 165.45L268.47 170.02L266.34 170.85L264.97 173.68L266.26 176.72L270.29 177.79L270.75 179.71L273.08 180.72L275.19 183.63L279.9 186.31L280.37 185.04L281.98 185.78L282.69 187.59L286.23 184.18L286.26 180.6L285.04 179.15L287.12 175.97L285.89 174.3L288.16 172.96L287.46 171.27L290.34 167.37L288.61 163.23L288.9 161.22L283.82 156.9L280.28 158.76L276.73 158.41L275.11 156.9L277.89 152.08L276.7 151.13L282.75 141.98L277.52 130.85L276.24 131.29L275.58 129.29L272.44 128.49L271.29 124.36Z" fill="#C7C7C7" stroke="white" stroke-width="2"/>
<path d="M221.449 233.96L223.399 233.54L225.659 230.96L227.159 231.15L227.869 229.69L230.819 229.2L231.729 225.58L234.409 224.21L235.799 225.38L241.979 223.69L246.569 227.02L248.229 226.38L252.479 228.05L254.289 230.12L258.359 233.24L259.699 236.76L264.169 237.2L260.309 242.49L262.089 246.55L266.179 250.89L269.329 251.96L270.069 258.39L279.669 266.13L276.829 269.57L274.299 268.19L269.809 271.14L266.849 270.16L259.619 272.47L258.999 275.34L260.089 276.77L258.259 276.43L257.719 277.3L257.659 281.86L253.679 282.32L252.379 281.25L247.569 282.44L244.009 279.4L241.089 279.55L235.679 276.86L232.879 274.64L230.849 268.12L225.159 267.07L225.249 263.45L227.019 260.57L224.579 255.58L221.819 254.9L219.679 256.57L217.429 252.96L213.899 252.28L215.929 249.29L213.419 246.87L212.129 240.93L214.169 239.01L218.759 238.57L219.639 235.15L221.449 233.96ZM222.219 158.41L221.759 160.41L223.239 162.3L229.339 160.09L231.859 161.59L237.639 160.3L237.569 162.61L242.329 168.56L245.499 167.26L248.479 167.69L248.469 171.27L254.519 172.94L255.739 174.3L252.929 177.79L258.349 185.97L255.629 187.47L253.139 187.3L253.479 190.57L252.269 193.12L248.639 196.03L247.419 195.14L242.899 195.89L240.769 198.58L242.269 201.7L240.059 204.09L237.909 203.58L235.249 205.32L232.399 205.57L226.149 203.15L223.689 206.64L222.759 205.97L221.439 206.77L220.309 205.45L219.039 206.7L215.999 206.41L214.079 207.97L211.259 206.43L208.559 209.99L211.219 213.43L208.989 219.2L213.309 232.55L210.079 232.77L208.329 235L205.479 234.7L204.059 236.38L200.489 236.11L198.219 237.91L195.759 238.02L189.439 242.87L185.149 243.04L182.329 245.64L180.719 245.18L179.359 242.97L175.629 242.87L172.069 240.51L165.519 243.99L160.959 240.69L157.839 244.94L154.939 246.17L151.209 243.13L149.549 243.87L148.219 242.96L139.219 246.44L137.789 245.48L135.839 246.06L135.629 249.09L133.779 250.47L131.739 250.19L130.329 252.22L130.549 255.02L128.319 259.11L129.289 262.9L125.729 264.77L124.259 269.22L116.089 268.35L113.499 269.71L109.629 267.44L107.789 268.21L105.619 265.85L103.079 267.13L100.989 266.77L103.719 262.65L103.019 261.39L98.0692 259.38L98.0892 257.81L95.9692 256.61L86.4692 261.04L87.0492 259.67L82.6892 259.97L80.4392 258.82L79.9992 255.3L81.9292 249.04L76.9392 246.75V244.65L73.8592 241.81L69.9792 243.95L68.9792 247.26L67.4392 247.99L68.0892 250.59L66.5892 251.23L62.1392 249.97L60.9092 253.96L61.3292 257.53L58.3692 257.51L56.3692 259.39L54.4392 259.34L50.4492 250.69L52.5792 249.03L54.3092 243.98L55.4792 244L55.4492 242.23L53.0592 239.44L55.1792 236.26L54.8092 234.92L53.4392 234.6L53.3692 232.46L55.2992 228.65L57.6192 228.15L57.3192 227.17L59.6292 224.64L58.4192 219.37L59.5092 215.55L58.5392 214.58L60.3892 212.41L58.2892 211.88L57.1592 210.27L58.8792 209.54L61.4592 210.27L69.2092 206.18L74.5092 197.86L77.6592 197.24L77.6992 193.77L80.8292 191.18L80.2792 186.06L78.2492 185.12L77.2892 182.94L78.9892 176.95L77.2092 174.24L77.8392 173.39L81.2492 173.3L79.2092 176.79L84.6392 179.21L88.5192 179.36L90.6092 175.23L97.9392 176.36L98.2992 178.07L103.379 179.3L104.889 181.66L113.609 178.97L115.999 181.79L112.429 183.12L112.129 185.42L117.419 185.6L116.919 186.74L121.289 191.55L120.169 193.35L120.729 195.3L131.839 195.51L132.809 193.65L139.029 191.11L142.829 191.79L140.499 195.66L144.059 195.42L145.749 194.18L145.859 191.87L149.589 189.27L156.319 189.81L155.209 187.08L153.319 186.54L157.259 181.72L163.119 182.69L168.429 181.52L169.669 180.29L170.949 174.01L173.359 173.81L173.549 172.14L175.669 173.38L185.209 172.53L190.159 173.64L191.059 171.27L195.669 169.86L200.649 169.91L203.249 168.54L204.209 170.35L207.489 169.29L213.589 170.89L216.709 169.87L216.469 171.44L218.719 170.8L218.489 167.05L215.549 159.72L219.629 158.31L222.959 154.64L223.629 155.84L222.219 158.41Z" fill="#C7C7C7" stroke="white" stroke-width="2"/>
<path d="M27 172.19L28.87 173.94L28.05 177.69L32.72 179.95L33.22 177.59L36.39 179.77L39.78 179.17L40.37 177.81L39.95 180.73L42.36 182.92L41.7 183.53L42.79 185.28L46.21 184.74L48.32 188.46L49.95 188.14L51.15 191.71L48.42 194.11L50.64 200.31L52.21 198.02L55.92 198.76L57.4 195.88L59.81 197.43L60.94 196.45L61.73 197.13L58.73 203.55L59.57 206.2L56.72 208.09L57.14 210.25L58.26 211.86L60.36 212.38L58.51 214.55L59.49 215.53L58.4 219.35L59.61 224.62L57.3 227.15L57.6 228.13L55.28 228.64L53.35 232.45L53.42 234.59L54.8 234.91L55.16 236.25L53.05 239.43L55.43 242.22L55.47 244L54.3 243.97L52.57 249.03L50.45 250.68L54.44 259.33L51.23 260.45L49.82 258.14L47.25 258.06L44.33 253.45L42.08 253.35L41.02 251.76L37.95 252.07L33.06 249.55L32.56 246.16L34.26 243.16L32.6 240.75L33.2 239.5L29.81 240.4L25.51 237.43L20.37 236.8L17.3 234.58L13.55 235.89L11.52 234.79L11.67 232.88L13.42 231.88L13.39 226.67L12.69 224.58L8.37 221.64L9.38 218.1L7.64 215.6L8.47 213.7L5.36 210.2L9.59 205.17L11.29 200.59L12.81 198.88L16 198.15L16.74 196.1L15.08 194.38L14.46 191.03L15.54 188.65L11.71 186.68L10.54 187.39L3 176.15L21.42 179.35L24.03 172.88L27 172.19Z" fill="#C7C7C7" stroke="white" stroke-width="2"/>
<path d="M553.841 86.19L554.181 86.2701L554.241 86.08L556.131 85.8L557.281 87.3501L557.411 87.8L557.551 89.26L560.141 91.23L560.581 89.1701L561.771 89.2501L563.111 89.9501L562.721 91.4901L563.841 92.7001L565.811 92.87L564.981 102.48L566.031 102.87L566.261 104.79L568.041 105.02L568.321 107.11L567.651 107.82L563.191 105.19L556.721 107.81L556.971 109.87L548.361 107.77L547.101 109.87L543.761 108.21L539.851 109.35L541.091 107.94L539.791 108.01L538.861 106.47L539.571 105.76L538.001 105.62L536.751 103.73L538.261 100.09L537.961 97.6001L536.711 97.4L537.811 96.73L538.531 92.83L539.191 93.2001L541.171 95.4L542.581 95.3201L545.221 91.8101L548.701 90.2801L549.891 89.54L550.421 90.29L552.171 89.7801L552.401 88.0201L551.971 86.61L553.581 86.0601L553.841 86.19Z" fill="#C7C7C7" stroke="white" stroke-width="2"/>
</svg>
