<svg width="713" height="616" viewBox="0 0 713 616" fill="none" xmlns="http://www.w3.org/2000/svg">
<path d="M58.02 432.16L63.77 432.17L64 430.98L69.7 431.25L69.81 429.82L72.09 429.08L75.04 430.67L74.8 433.69L75.89 434.61L77.45 434.25L78.84 435.06L78.96 434.13L79.8 436.57L80.5 436.09V434.14L82.3 432.96L83.23 433.47L82.59 435.24L83.82 433.85L87.67 435.89L91.68 433.56L92.81 433.84L92.79 436.25L101.73 436.06L104.86 434.34L105.65 435.28L105.72 432.67L104.66 430.46L106.21 426.39L106.83 426.36L107.43 423.58L105.7 423.97L106.63 423.15L105.17 421.64L107.79 417.54L110.73 416.61L109.05 415.63L109.31 414.85L107.86 414.42L108.17 412.92L112.27 410.09L112.46 408.73L114.74 408.18L115.17 406.77L116.69 406.94L116.2 411.26L118.51 412.26L121.01 411.15L122.35 412.6L124.39 410.34L124.98 410.61L124.57 411.92L125.63 412.3L126.31 411.53L129.92 411.91L131.44 410.15L132.6 410.13L133.24 410.95L133.9 410.55L136.02 414.45L134.81 415.89L137.78 419.13L138.72 418.74L140.46 414.3L141.71 414.73L141.86 416.75L140.98 419.08L141.69 419.91L140.7 421.76L141.65 422.85L140.75 424.2L141.46 425.45L142.48 425.24L143.25 423.14L145.16 424.46L145 423.56L147.23 422.58L147.06 421.86L148.63 421.91L149.23 423.98L150.14 423.59L151.61 424.64L152.41 423.85L151.89 423.36L152.98 420.94L156.94 419.26L157.9 423.97L160.66 425.02L162.85 422.29L162.35 420.97L159.82 421.23L159.31 418.64L161.78 416.44L160.28 414.97L159.46 412.32L163.48 412.38L163.62 413.02L168.01 412.11L167.77 408.12L168.84 407.64L169.66 405.23L174.88 402.72L176.57 400.07L180.27 399.26L179.68 398.7L179.96 397.67L181.47 395.88L179.2 393.76L179.08 392.52L180.69 392.1L181.84 388.73H180.9L181.27 385.12L179.27 383.94L178.42 382.39L180.11 380.89L180.27 378.33L181.66 378.32L180.35 375.68L181.24 372.09L182.01 371.8L181 369.77L182.58 370.28L184.05 369.27L183.43 368.66L183.96 366.41L185.24 366.14L184.92 363.92L185.62 363.04L185.1 359.66L186.17 359.87L186.71 357.87L187.76 358.14L188.27 356.36L190.45 356.13L192.1 356.61L192.67 357.77L195.36 358.2L197.41 356.82L200.11 357.76L201.27 355.77L204.08 355.5L203.75 356.9L205.15 356.41L206.85 357.31L208.91 357.29L208.92 358.58H211.71L212.54 359.08L212.1 359.93L213.77 360.55L215.16 360.32L216.87 358L216.92 359.87L217.52 360.27L220.01 358.72L221.96 359.74L232.13 359.78L233.42 362.16L234.4 361.02L236.04 360.41L236.62 361.23L236.94 360.66L238.52 366L239.93 366.23L238.84 373.49L235.76 373.6L235.64 375.88L233.74 376.34L232.81 377.55L233.27 379.01L230.46 379.74L231.26 382.52L234.1 383.57L235.08 384.94L235.1 386.54L236.74 386.23L238.06 387.36L238.2 389.54L240.42 391.05L245.01 390.97L245.88 394.83L247.96 394.97L249.16 399.28L248.67 399.78L245.04 398.66L243.85 400.42L244.48 400.83L243.85 401.46L244.25 405.23L241.39 404.93L240.69 406.16L239.23 406.44L238.85 407.75L240.49 411.99L242.33 413.97L242.98 415.92L244.19 416.67L238.77 422.1L238.41 423.7L239.03 425.78L243.09 428.12L243.2 429.47L248.03 422.46L248.96 425.92L251.23 424.73L253.49 418.6L256.73 421.74L256.35 422.08L258.67 422.47L259.19 421.85L260.93 424.58L262.96 425.12L262.55 423.98L264.44 424.06L264.56 423.35L265.61 423.75L266.43 430.24L269.14 433.77L271.85 434.05L274.2 433.07L275.6 435.14L276.45 435.02L280.98 437.82L284.94 432.38L286.62 436.77L285.96 439.96L287.94 440.88L288.78 444.48L285.74 445.42L285.28 447.13L286.32 447.52L286.54 452.2L284.46 452.23L284.56 454.67L285.43 455.89L286.78 455.8L287.05 459.17L288.25 459.28L288.32 463.97L287.57 464.03L288.44 464.78L288.43 467.68L293.3 467.89L294.04 472.33L296.07 472.13L296.4 476.25L301.04 476.17L301.16 478.57L304.58 479.51L303.37 483.57L303.86 487.95L311.78 487.87L311.87 489.85L314.44 491.97L318.84 492.17L320.59 494.6L322.17 494.48L323.63 495.49L323.69 497.16L324.46 497.38L324.79 498.94L324.5 500.51L325.45 501.41L323.03 504.38L324.6 506.72L323.89 507.22L322.29 512.98L323 514.35L322.63 518.76L324.45 519.6L326.27 519.29L325.95 520.36L326.93 522.65H329.47L329.55 525.66L329.16 526.91L324.02 530.3L322.32 532.84L323.95 535.98L324.04 538.92L322.99 541.77L321.28 543.84L323.38 546.99L325.77 549.07L323.9 553.58L325.16 554.9L325.25 556.13L323.23 558.69L321.54 558.4L320.59 559.67L320.23 562.04L321 563.79L320.15 565.99L322.69 569.1L322.37 569.88L321.74 570.7L322 573.34L323.1 573.28L321.4 575.67L319.53 574.6L320.27 572.92L319.83 572.24L318.45 573.19L317.6 571.68L315.76 572.64L315.67 573.6L313.14 573.3L310.87 572.1L309.39 573.5L302.22 573.81L302.28 571.55L304.41 567.74L302.64 566.22L299.61 566.55L299.09 553.57L283.7 554.16L280.32 558.14L277.96 556.66L275.23 556.52L272.88 554.48L268.94 555.55L268.49 554.41L265.92 553.16L266.33 551.01L265.7 550.04L262.64 548.92L261.3 547.45L255.68 547.62L254.04 546.97L253.78 547.99L251.28 548.84L250.36 550.7L245.12 550.5L244.88 548.86L243 548.38L241.43 545.98L239.62 546.23L239.4 541.41L237.34 542.86L232.88 543.16L231.72 542.17L226.77 541.78L224.4 542.96L223.5 542.3L222 542.61L221.83 541.01L220.65 541.22L217.22 537.21L214.02 536.66L213.67 535.43L210.99 534.59L204.57 536.72L197.54 535.54L197.34 533.32L194.04 532.47L193.19 532.75L194.16 535.82L192.63 535.52L188.86 536.48L181.25 535.78L175.66 533.75L174.44 535.85L172.52 534.86L171.72 536.13H166.96L166.33 535.23L161.46 534.24L155.83 530.4L153.46 531.34L150.83 530.26L146.77 532.35L143.55 532.37L137.96 536.28L136.3 536.51L133.88 538.86L131.42 538.87L130.47 537.17L124.95 538.85L124.44 537.18L123.53 536.94L118.59 540.46H117.47L115.54 538.91L112.25 539.36L109.1 538.18L104.74 539.62L97.81 540.64L91.16 540.57L87.56 543.24L87.9 544.57L84.4 550.11L86.07 556.36L82.59 560.21L71.61 566.25L68.22 571.64L64.26 573.95L62.41 576.37L56.94 574.27L53.89 575.13L53.69 573.13L56.15 570.31L49.89 568.61L47.3 569.41L47.22 567L46.46 566.13L41.17 568.15L38.85 567.7L37.83 569.17L33.67 571.19L35.49 574.9L37.8 576.22L37.52 577.9L35.83 579.78L38.76 585.24L37.97 586.02L34.75 585.42L33.77 582.55L30.44 581.72L30.29 580.43L31.34 579.11L30.38 577.59L30.63 576.49L29.67 576.07L28.62 573.76L29.08 571.64L28.52 570.01L29.12 569.33L28.43 568.86L28.76 567.01L29.67 566.43L29.07 564.04L30 562.38L29.13 561.8L29.67 561.35L28.94 559.23L28.24 559.56L27.7 558.75L27.9 557.28L30.02 554.94L30.94 555.54L32.02 555.23L32.81 553.65L35.24 552.76L35.08 551.39L35.7 551.37L35.97 550.29L34.65 546.99L33.28 546.74L33.14 545.49L34.06 543.62L33.48 541.23L35.29 541.7L34.64 540.18L35.82 539.31L34.3 538.02L33.91 536.41L34.31 535.72L35.28 536.02L35.39 534.79L36.35 534.47L35.97 532.59L34.95 532.57L36.9 530.76L38.19 530.87L37.84 529.22L39.52 527.47L37.44 524.35L37.62 521.75L36.97 519.87L36.12 519.5L37.04 519.29L36.21 518.64L36.85 516.82L34.25 515.38L33.8 514.28L34.52 513.68L32.89 512.39L29.91 512.22L29.21 513.23L28.63 511.18L26.69 509.97L26.55 508.72L24.71 508.15L25.1 505.55L26.1 505.71L25.72 504.94L24.56 504.66L23.17 505.53L22.47 504.27L20.07 505.76L19.42 504.59L18.27 505.16L17.85 502.39L16.39 503.01L15.68 501.54L11.7 501.38L10.96 501.04L11.03 499.83L8.32 500.68L3.91 499.3L3.13 497.67L3.78 493.39L2 492.37L6.64 483.41L11.44 477.03L12.09 474.59L19.89 463.73L23.94 459.65L31.79 455.05L35.84 453.45L41.27 452.49L42.95 453.42L53.57 444.66L54.58 444.6L57.97 440.59L58.02 432.16Z" fill="#C7C7C7" stroke="white" stroke-width="2"/>
<path d="M392.57 444.4L393.59 445.12L395.69 443.09L396.36 444.18L398.3 443.48L401.34 444.21L402.14 443.14L403.65 443.36L405.61 442.18L409.1 443.5L410.96 442.1L413.59 443.45L415.92 440.84L415.89 439.84L419.77 439.82L419.67 437.76L418.27 438.14L418.02 436.86L417.04 436.82L417.68 433.56L421.16 434.69L422.78 432.72L424.43 433.01L430.3 424.81L429.89 421.79L439.36 420.52L439.69 421.06L441.4 420.17L440.43 415.84L444.79 408.93L446.29 408.1L448.18 409.25L450.97 409.41L452.14 411.2L457.58 411.75L459.41 412.42L459.5 413.23L460.13 411.74L461.44 411.91L461.31 413.49L462.62 413.48L463.43 414.56L466.95 412.97L470.14 409.49L470.89 410.06L473.54 409.83L474.06 410.44L476.51 409.69L478.67 409.96L480.24 411.33L480.4 410.61L481.01 410.96L481.62 412.11L485.72 410.8L485.06 409.39L486.57 407.69L482.55 405.94L481.58 405.14L481.03 402.9L480.04 402.36L483.11 398.49L482.25 396.61L480.05 397.38L478.41 394.06L480.32 392.77L479.32 390.33L479.57 389.42L480.62 389.63L480.65 388.55L481.36 388.49L482.21 390.43L484.3 389.88L485.37 390.69L489.45 388.57L488.2 388.3L487.94 386.96L489.48 385.46L488.65 385.65L488.39 384.45L489.45 383.64L487.36 382.6L490.92 381.32L488.81 375.63L489.55 375.42L489.28 374.08L487.85 372.36L487.78 367.27L491.42 363.6L494.85 361.91L495.66 365.83L497.79 364.93L497.13 364.04L498.09 363.55L499.52 364.61L499.82 365.65L498.78 366.17L498.39 367.66L501.88 368.18L503.03 366.18L502.91 364.85L512.13 367.02L513.09 368.2L512.93 369.2L514.8 370.38L516.93 377.28L518.02 378.2L519.88 377.2L520.44 377.77L521.87 376.92L523.35 377.34L525.4 374.68L525.48 375.94L529.03 375.19L530.32 373.89L533.71 374.42L533.92 372.41L536.18 370.62L539.6 371.68L540.66 370.34L540.46 369.32L542.26 369.63L543.19 367.05L545.86 367.32L547.48 364.83L547.79 362.72L549.02 363.4L547.57 366.08L548.94 366.82L548.31 368.24L555.3 369.6L554.25 371.76L556.16 373.6L559.22 373.24L559.17 371.48L561.7 371.25L562.37 370.35L567.5 371.08L568.83 369.91L568.51 368.53L570.04 368.01L573.05 367.41L573.48 368.32L580.28 367.76L580.65 368.46L579.75 370.42L577.67 372.4L578.83 374.22L580.26 373.2L581.35 374.35L582.24 373.82L582.85 374.6L582.21 376.91L584.14 378.12L584.25 381.02L586.72 380.53L587.33 382.55L588.69 382.93L588.84 384.92L587.23 386.47L588.32 388.47L594.77 387.89L596.03 391.38L596.58 390.66L597.68 391.22L598.09 390.62L598.11 391.49L603.8 391.61L604.82 393.87H606.32L604.31 394.47L603.93 400.53L602.2 401.13L599.13 400.43L597.56 402.07L602.49 405.28L603.41 406.63L605.88 407.5L606.5 410.11L607.53 411.26L607.26 414.57L615.35 422.71L619.39 422.94L619.46 425.11L618.1 426.32L618.96 427.86L621.18 429.26L621.39 430.48L623.04 430.96L623.21 434.97L624.02 437.01L622.11 438.81L621.15 441.33L616.36 443.03L620.97 448.62L621.62 450.2L621.3 454.79L622.45 455.11L626.32 458.83L629.35 459.17L626.63 461.61L625.73 460.18L624.89 460.52L624.79 461.99L623.63 462.63L623.53 464.7L620.93 464.39L622.05 466.97L624.18 465.98L625.72 467.67L624.34 470.71L622.55 471.53L624.49 472.11L624.62 473.46L623.71 473.96L624.18 475.65L623.46 476.57L625.49 476.39L626.2 478.77L625.81 486.96L622.71 487.23V487.91L625.83 491.83L626.2 491.04L627.83 493.29L630.22 493.43L632.17 494.84L631.12 495.96L632.03 498.25L631.99 500.81L630.43 503.32L631.86 504.29L633.74 503.65L637.31 504.31L637.6 510.58L638.6 512.19L632.95 515.16L632.37 513.79L629.28 512.87L624.34 512.92L618.01 511.55L615.21 512.59L613.79 512.1L613.08 509.77L609.46 509.66L607.47 510.7L608.06 512.12L603.55 514.03L602.66 516.22L603.18 516.88L601.54 520.32L598.38 521.55L596.32 520.53L595.25 519.21L595.35 518.01L591.47 517.1L590.12 514.39L586.85 515.83L584.52 515.77L578.64 517.32L576.79 516.66L576.86 515.75L575.94 515.92L576.07 517.67L574.68 517.87L575.77 520.63L575.04 520.57L574.62 519.35L573.99 519.63L575.1 521.26L573.94 521.91L574.83 522.77L573.91 522.64L574.44 523.79L573.25 524.02L573.74 524.78L573.24 525.61L574.52 526.1L574.55 527.3L573.41 527.59L572.32 526.1L571.63 527.14L572.91 528.22L571.09 528.63L571.38 530.33L570.14 530.65L569.46 530.07L567.68 531.23L567.65 532.08L568.75 532.12L568.06 532.97L566.5 531.99L565.54 532.83L566.64 536.1L565.05 538.79L560.95 538.36L560.29 540.58L557.96 542.57L557.14 546.21L553.92 547.63L555.23 551.04L554 552.39L554.24 553.39L552.39 553.35L551.05 554.18L551.3 555.06L553.11 554.55L553.67 555.12L552.16 557.99L551.81 560.59L547.39 561.53L548.31 564.88L547.87 566.77L546.35 566.6L544.85 565.15L543.88 565.86L545.22 567.37L543.46 569.54L543.27 570.89L545.25 571.42L545.14 572.22L546.8 573.33L546.1 574.01L544.09 573.51L543.35 574.4L544.73 575.95L546.64 576.51L544.8 577.42L544.77 578.42L546.14 580.99L547.82 579.84L548.68 580.36L547.7 584.62L548.76 585.63L549.28 588.55L551.63 589.89L551.54 590.65L548.59 591.75L548.93 594.37L549.57 595.06L551.35 594.59L551.45 595.85L553.99 599.97L552.71 602.33L553.71 604.88L551.7 605.72L549.51 607.87L550.88 608.66L550.22 609.47L551.7 608.92L550.6 611.66L549.51 611.6L545.64 613.95L543.12 611.74L539.1 612.59L539.82 608.72L535.46 608.4L529.72 602.5L531.97 600.44L530.79 595.51L531.56 595.03L530.3 594.74L527.03 590.39L523.86 587.77L520.59 586.66L518.46 584.66L517.61 587.31L515.02 585.16L514.53 585.4L515.03 587.12L514.41 587.46L506.83 585.52L506.48 587.24L504.94 588.22L503.93 587.89L503.13 589.45L500.32 587.26L497.94 587.88L497.08 588.71L497.57 589.37L496.66 592.49L494.04 591.11L492.03 591.97L491.23 590.8L490.39 591.07L490.38 592.9L486.81 591.02L485.51 587.32L486.87 586.72L486.74 584.26L486.2 582.52L484.66 582.54L484.14 583.53L481.49 584.75L481.25 585.71L480.3 585.39L479.24 586.16L478.51 585.5L477.7 586.85L476.68 587.06L476.63 589L474.84 590.44L471.63 588.37L469.99 592.3L470.19 595.04L468.83 597.99L462.18 596.41L460.06 597.5L457.95 599.86L455.63 600.4L455.75 597.45L454.27 591.37L451.6 590.51V588.93L450.06 586.47L451.02 582.47L450.49 578.12L447.4 577.37L446.99 574.53L444.84 572.77L445.36 571.51L443.85 570.86L444.79 568.59L444.07 567.89L439.75 568.09L433.94 575.52L431.74 577.23L430.01 577.38L429.49 575.39L425.06 575.53L421.05 578.41L418.87 578.85L414.29 587.49L415.38 588.94L415.78 591.62L415.19 591.87L414.94 594.55L413.63 595.93L412.49 593.53L412.51 589.91L409.89 592.71L408.53 592.13L405.51 579.64L406.37 578.75L404.96 579.31L404.72 578.79L406.74 577.82L399.22 577.61L399.21 576.4L396.95 576.1L396.4 575.18L392.89 574.9L387.18 579.88L384.29 581.28L383.64 577.16L379.03 571.35L377.19 571.61L377.94 565.11L377.22 564.37L370.94 568.63L370.64 571.22L369.5 573.15L367.6 573.46L365.85 576.54L364.54 577.11L363.29 576.6L360.92 578.18L353.77 579.09L356.38 574.79L354.91 574.86L353.99 576.44L352.4 576.84L352.5 573.6L351.67 572.15L347.56 570.53L345.54 571.54L344.9 572.22L346.3 573.26L345.35 577.52L347 581L345.92 581.89L343.36 582.27L340.12 589.07L338.76 588.72L333.3 584.08L334.25 583.67L334.43 581.35L337.44 578.45L338.11 575.6L337.71 573.79L335.41 573.71L334.6 572.85L332.02 572.36L330.2 573.65L324.96 569.95L324.03 571.58L322.51 569.97L322.84 569.19L320.3 566.08L321.15 563.88L320.38 562.12L320.73 559.75L321.68 558.48L323.37 558.78L325.39 556.21L325.31 554.98L324.05 553.66L325.92 549.15L323.53 547.08L321.43 543.92L323.14 541.86L324.2 539.01L324.1 536.07L322.48 532.93L324.18 530.38L329.32 527L329.71 525.74L329.63 522.74H327.09L326.11 520.45L326.44 519.37L324.62 519.68L322.8 518.84L323.17 514.43L322.46 513.06L324.06 507.3L324.77 506.8L323.21 504.46L325.63 501.49L324.68 500.59L324.98 499.03L324.65 497.47L323.88 497.25L323.82 495.58L322.37 494.57L320.78 494.69L319.04 492.26L314.64 492.06L312.06 489.94L311.97 487.96L304.06 488.05L303.57 483.66L304.78 479.61L304.81 478.89L306.98 477.82L307.84 476.23L311.07 473.58L311.74 472.31L309.89 467.74L311.5 467.55L311.53 466.57L312.31 466.52L313.84 462.71L318.43 463.62L318.68 462.49L322.78 463.14L324.29 462.54L324.49 461.09L326.39 462.88L328.21 460.98L328.61 462.03L329.91 461.38L329.81 463.21L331.27 463.27L330.03 468.85L332.02 468.91L337.82 472.5L338.2 474.8L344.15 474.2L350.88 476.04L352.96 474.82H355.01L355.09 471.52L356.79 470.54L355.93 465.92L357.75 464.93L367.24 463.7L368.13 468.17L372.75 467.3L373.19 469.56L383.66 467.89L390.39 461.19L390.5 448.75L392.57 444.4ZM619.15 469.43L618.97 468.15L621.64 468.28L622.42 468.99L621.9 470.8L621.02 469.32L619.15 469.43Z" fill="#C7C7C7" stroke="white" stroke-width="2"/>
<path d="M225.38 155.2L227.1 155.53L228.49 156.76L229.8 160.1L229.45 161.38L231.3 162.47L231.04 163.42L237.35 169.23L236.07 170.02L236.02 172.12L234.94 173L235.92 176.71L235.44 177.91L236.87 177.02L238.06 177.53L239.35 176.55L241.81 176.26L243.35 177.62L247.63 184.8L250.94 186.18L251.43 188.17L250.53 191.76L252.53 195.53L252.96 198.65L254.27 199.39L254.78 200.69L256.15 199.42L257.47 199.71L257.83 200.54L260.57 199.87L259.52 201.73L259.59 205.97L262.04 206.91L261.73 208.19L259.38 208.14L259.45 212.28L255.78 210.78L256.83 211.96L256.04 212.85L255.95 214.63L257.15 215.15L256.74 216.52L258.05 216.32L257.82 218.81L258.8 220.07L257.21 223.61L257.61 224.28L256.34 224.89L258.26 225.97L254.7 230.59L252.1 230.48L251.14 232.73L249.97 232.82L250.47 235.11L249.3 235.1L246.61 241.28L246.89 243.63L245.24 243.88L244.47 244.8L243.58 244.23L243.2 245.18L242.12 245.26L240.76 248.54L240.1 248.41L238.46 251.08L238.88 252.24L237.47 252.47L237.86 253.2L236.24 255.28L234.74 254.81L233.48 255.5L230.45 253.99L229.68 254.61L229.4 253.25L227.89 251.89L226.59 253.08L225.31 252.08L221.87 255.26L219.19 256.7L218.01 258.61L215.77 258.76L214.71 257.73L215.12 256.46L214.46 256.12L213.64 256.94L213.27 259.29L210.55 262.91L210.94 264.29L217.26 267.8L217.71 266.53L215.7 264.7L216.72 263.73L218.07 264.27L219.86 263.1L221.34 263.13L221.36 264.34L219.95 265.02L219.51 268.36L220.74 269.6L220.16 270.29L221.31 272.56L220.98 274.31L222.47 275.95L222.73 277.92L225.23 278.85L227.87 276.94L228.62 277.27L230.22 275.7L233.97 274.62L234.52 280.5L232.93 284.79L236.24 284.03L239.7 281.27L242.49 287.72L240.35 290.45L238.32 291.2L236.59 290.9L238.55 294.46L234.4 295.94L232.16 298.29L231.13 297.02L230.17 298.48L227.4 298.67L229.32 303.13L227.15 303.4L227.8 304.94L227.01 305.21L228.24 306.43L229.7 305.54L230.92 307L229.41 308.25L230.71 310.17L229.77 311.11L233.09 316.74L233.34 318.45L237.73 319.72L236.93 323.17L238.76 323.16L240.06 324.32L239.93 325.81L242.97 328.48L243.8 331.29L246.64 333.86L246.14 334.47L250.58 336.66L250.48 340.02L247 342.63L248.29 343.62L248.92 342.27L249.69 342.26L250.19 343.73L251.28 343.4L251.57 351.88L253.33 356L249.15 356.83L248.43 357.81L244.46 357.29L241.96 358.72L241.1 358.02L239.09 360.42L237.76 360.04L236.97 360.68L236.65 361.25L236.07 360.44L234.43 361.05L233.45 362.2L232.16 359.82L221.99 359.78L220.04 358.76L217.55 360.32L216.95 359.91L216.91 358.05L215.2 360.37L213.81 360.59L212.14 359.97L212.58 359.12L211.75 358.63H208.96L208.95 357.33L206.89 357.35L205.19 356.45L203.79 356.94L204.12 355.53L201.31 355.8L200.15 357.79L197.46 356.85L195.41 358.23L192.72 357.8L192.15 356.64L190.5 356.16L188.32 356.39L187.81 358.17L186.76 357.9L186.22 359.9L185.15 359.69L185.67 363.07L184.98 363.95L185.29 366.17L184.01 366.44L183.48 368.7L184.1 369.3L182.63 370.31L181.05 369.8L182.06 371.83L181.29 372.11L180.4 375.71L181.71 378.34L180.31 378.35L180.16 380.91L178.47 382.41L179.32 383.96L181.32 385.14L180.95 388.75H181.89L180.75 392.13L179.14 392.55L179.25 393.79L181.52 395.91L180.01 397.7L179.72 398.73L180.32 399.29L176.62 400.1L174.92 402.75L169.71 405.26L168.89 407.67L167.82 408.15L168.06 412.15L163.67 413.05L163.54 412.41L159.52 412.35L160.34 415L161.84 416.47L159.37 418.67L159.88 421.26L162.41 421L162.91 422.32L160.72 425.05L157.96 424L157 419.29L153.04 420.97L151.95 423.39L152.47 423.88L151.67 424.67L150.2 423.62L149.29 424.01L148.69 421.94L147.13 421.89L147.3 422.61L145.07 423.59L145.23 424.49L143.32 423.17L142.55 425.27L141.52 425.48L140.81 424.24L141.71 422.89L140.77 421.8L141.75 419.95L141.04 419.12L141.93 416.79L141.78 414.77L140.53 414.34L138.79 418.77L137.85 419.16L134.88 415.93L136.09 414.49L133.97 410.59L133.31 410.99L132.68 410.17L131.52 410.18L130 411.94L126.38 411.56L125.71 412.33L124.65 411.95L125.06 410.64L124.46 410.37L122.42 412.63L121.08 411.18L118.58 412.29L116.28 411.29L116.77 406.97L115.25 406.8L114.81 408.21L112.54 408.76L112.35 410.12L108.25 412.96L107.94 414.46L109.39 414.89L109.13 415.67L110.81 416.65L107.87 417.58L105.25 421.68L106.71 423.19L105.78 424.01L107.51 423.62L106.91 426.4L106.3 426.42L104.74 430.49L105.8 432.71L105.73 435.31L104.94 434.37L101.81 436.09L92.8701 436.28L92.8901 433.87L91.7701 433.59L87.7601 435.91L83.9101 433.88L82.6801 435.27L83.3201 433.5L82.3901 432.99L80.6001 434.17L80.5901 436.12L79.8901 436.6L79.0601 434.17L78.9401 435.1L77.5401 434.3L75.9801 434.65L74.9001 433.74L75.1401 430.72L72.1901 429.12L69.9101 429.86L69.8001 431.29L64.1001 431.02L63.8701 432.21L58.1201 432.2V428.45L57.0701 426.33L56.4501 413.22L58.6501 410.66L57.5201 408.53L57.1001 402.63L55.0801 399.61L55.3001 398.45L54.1401 398.1L53.1801 395.76L56.5301 386.4L55.4501 384.2L52.6201 381.8L51.9801 377.29L49.2201 375.69L37.5501 341.57L32.0601 318.86L31.8001 313.97L29.3401 310.68L29.5901 300.53L27.5001 299.08L26.5801 292.96L26.8501 287.34H27.8001L28.3801 288.81L31.6901 288.94L33.8101 291.02L36.6601 289.93L40.7701 290.02L41.3301 289.37L45.5001 291.35L46.6301 292.91L46.1301 294.25L47.2401 294.4L49.2801 293.05L47.8801 290.81L48.0501 289.88L51.3701 287.39L53.9301 289.03L55.0901 288.75L56.5201 285.7L60.0701 287.78L60.5501 290.81L62.0101 290.99L70.1501 289.39L71.1301 287.15L73.2101 287.54L74.2601 286.4L77.6101 285.54L78.5501 287.06L78.2901 288.07L79.8801 288.7L81.3801 287.71L81.8801 289.17L85.8901 293.62L87.1401 293.95L88.2901 292.59L89.0801 293.99L93.7201 293.28L93.4701 293.87L94.1801 294.27L94.0501 293.18L94.6901 293.21L94.7301 293.99L96.3601 293.18L97.7001 290.55L101.05 286.8L104.81 283.54L107.08 282.71L108.6 280.48L110.63 281.01L112.74 279.31L114.48 279.76L113.57 286.39L117.19 285.96L116.99 285L119.53 282.62L121.37 281.96L122.91 282.41L123.73 281.91L123.8 280.67L124.82 280.87L124.52 278.28L126.78 278.33L127.14 277.41L126.56 276.93L124.97 277.51L123.46 276.08L123.29 272.83L119.75 267.69L119.94 267L121.34 267.33L124.1 265.18L123.18 263.42L127.05 263.28L133.58 260.15L135.15 261.03L134.86 261.77L136.2 263.8L137.88 264.66L140.36 264.23L142.12 264.85L145.34 260.5L151.65 254.05L151.55 251.93L153.02 249.14L153.87 248.62L155.23 250.06L156.45 247.37L159.04 248.83L159.39 248.07L160.42 248.83L161.42 248.16L162.74 248.53L163.45 247.53L166.87 246.22L167.85 244.23L170.24 244.32L170.08 245.18L171.18 245.19L172.26 244.58L172.14 243.75L173.31 243.71L173.54 242.62L174.75 243.14L174.94 246.03L178.21 247.33L177.71 248.23L178.91 249.57L178.67 250.68L180.18 253.14L176.78 252.84L176.91 254.11L178.15 254.84L178.12 257.01L174.66 258.45L174.34 259.76L176.11 262.16L177.53 263.22L178.48 262.74L181.2 264.02L182.97 263.71L182.74 264.36L184.01 265.62L185.69 264.14H187.23L187.34 262.08L188.63 262.07L188.76 260.61L191.28 262.23L192.43 261.6L192.48 260.24L193.23 261.45L195.28 262L195.72 261.33L194.18 260.71L193.63 258.76L194.3 257.5L193.84 256.3L192.3 254.11L191.76 254.25L195.33 251.77L194.65 252.25L193.2 251.31L192.07 247.72L189.95 247.05L189.26 247.56L188.51 246.78L189.07 244.29L187.39 241.51L185.61 241.31L184.13 242.65L183.16 241.87L182.39 242.79L180.29 242.11L180.14 241.24L177.46 242.23L177.27 240.07L176.17 239.88L176.29 238.73L177.7 238.57L178.28 235.86L180.33 234.46L179.89 232.34L180.41 231.09L181.37 231.74L183.2 228.59L182.43 225.28L183.04 224.25L181.39 223.9L183.82 222.56L187.06 214.28L192.19 210.63L192.94 209.02L192.39 203.56L191.32 201.87L191.75 200.95L190.81 195.73L191.48 195.26L191.05 193.04L192.03 187.11L191.05 180.34L192.22 177.51L194.05 177.25L194.49 173.23L196.04 172.44L196.97 170.42L199.67 168.04L200.16 164.13L201.56 164.05L202.18 163.14L203.65 163.73L205.33 163.1L206.62 161.6L209.27 160.38L210.43 161.59L215.26 162.44L214.57 161.62L216.56 160.91L216.35 159.05L218.62 158.76L219.46 156.66L220.67 157.1L222.38 156L224.11 156.39L225.38 155.2ZM172.29 246.89L171.24 246.63L171.88 245.7L173.33 245.64L172.29 246.89Z" fill="#C7C7C7" stroke="white" stroke-width="2"/>
<path d="M461.07 250.92L463.16 250.41L464.38 251.52L465.35 249.97L466.23 250.28L466.49 249.13L467.61 249.7L469.16 247.35L468.95 245.62L470.4 245.25L470.82 242.94L474.04 243.2L473.19 240.43L474.1 238.71L477.72 237.35L477.69 238.81L480.84 239.98L482.92 242.21L484.47 241.28L488.71 241.76L492 240.96L493.9 239.22L496.04 240.65L497.35 238.84L497.02 238.24L497.92 237.82L498.75 238.5L497.49 240.28L499.47 242.3L498.65 243.42L501.98 245.09L502.15 244.36L503.7 244.51L505.36 243.11L504.2 246.74L506.91 246.73L507.8 246.26L506.07 243.44L506.21 241.93L509.61 243.01L509.6 241.85L511.54 241.2L509.44 240.22L508.52 238.41L510.95 238.56L512.36 240.48L514.21 237.4L512.36 235.39L512.89 233.74L515.77 233.2L515.96 234.06L515.05 235.08L514.12 235.05L514.23 236.01L517.24 234.98L519.09 237.55L518.99 239.69L520.65 239.58L521.71 237.2L520.92 236.07L521.78 235.43L524.21 237.31L524.89 236.7L526.15 238L527.09 237.55L528.09 232.38L530.05 233.41L528.9 235.93L529.46 237.63L526.63 240.1L525.31 244.16L530.71 245.57L533.02 241.88L536.17 242.16L535.71 240.28L536.4 238.94L537.09 240.04L538.04 240.05L538.61 243.71L540.02 244.86L540.59 247.56L542.55 246.13L542.91 248.41L544.3 248.33L543.64 249.23L545.56 249.67L544.6 248.41L544.73 246.96L547.52 246.92L544.81 245.97L548.05 243.35L546.81 242.72L548.29 239.45L549.3 238.78L550 239.17L550.66 237.8L549.59 236.16L548.13 236.03L547.55 235.14L548.97 234.24L550.53 234.48L553.11 232.87L553.83 233.36L556.64 232.37L555.56 229.47L556.16 228.39L558.17 227.74L560.4 228.59L560.71 229.35L563.35 229.33L563.82 231.61L566.63 230.74L569.75 231.76L571.65 230.81L571.48 228.64L572.58 228.1L572.48 226.38L574.31 224.93L575.75 227.82L577.64 227.55L578.42 228.58L580.36 228.25L581.65 231.52L584.23 228.76L584.74 227.14L587.03 226.77L587.56 225.76L590.39 224.48L589.23 222.28L591.04 222L592.13 223.16L594.6 222.47L596.78 223.01L597.07 226.86L597.91 227.31L598.22 229.52L599.54 231.12L598.24 234.02L601.81 235.59L603.38 239.03L600.74 241.52L603.28 242.4L602.51 246.39L602.92 250.79L604.43 250.55L606.24 251.75L607.55 250.28L608.09 253.5L610.04 253.26L609.8 254.45L608.34 254.03L607.76 255.15L611.84 255.56L614.88 259.03L616.3 258.85L616.73 259.6L615.97 261.42L618.62 262.62L620.46 262.6L621.18 264.41L625.84 264.89L627.9 263.79L627.67 264.65L629.43 266.68L629.49 268.54L633.07 267.29L633.74 268.55L634.7 267.66L636.81 267.36L636.26 270.62L635.29 271.78L637.76 271.94L640.39 269.79L641.53 271.25L642.77 270.35L643.51 271.6L644.47 270.71L645.86 271.21L644.73 272.9L645.69 274.95L645.34 277.05L642.82 280.82L643.62 282.24L645.27 282.72L645.38 285.86L642.65 287.75L642.86 290L642.18 290.24L640.88 294.16L641.05 296.16L638.71 297.02L639.61 297.81L640.12 297.47L640.18 298.39L639.53 299.46L638.07 299.63L637.39 301.2L638.34 301.57L638.1 302.29L635.67 302.54L636.78 303.94L636.03 307.21L636.62 307.64L637.18 306.03L637.9 306.61L638.15 305.83L639.16 305.75L639.5 306.58L640.39 306.37L646 309.7L646.55 308.35L648.13 307.94L649.84 308.62L652.63 306.16L656.93 306.83L656.65 305.93L659.54 306.27L660.7 304.89L662.76 304.37L664.36 306.53L666.15 306.71L666.48 307.58L667.13 306.81H668.81L670.18 310.77L672.29 310.93L672.75 310.04L674.47 309.64L674.7 310.39L673.57 311.62L677.29 311.47L678.89 313.03L679.61 316.38L680.6 316.99L682.54 315.43L684.9 315.58L687.31 314.38L687.51 316.45L689.61 317.35L690.17 318.38L690.33 320.89L686.94 323.13L685 322.85L683.94 323.63L683.89 324.9L684.25 327.2L685.14 327.69L685.09 325.21L686.49 326.94L684.94 330.85L687.31 334.71L688.86 335.59L688.37 337.82L691.15 338.3L694.12 340.46L693.33 341.81L697.89 342.38L698.06 346.67L699.73 347.02L701.14 343.41L701.68 344.59L704.14 346.02L702.18 346.55L701.92 347.79L707.89 348.97L708.73 348.2L710.2 348.45L708.73 350.54L709.81 353.49L708.17 353.68L708.11 355.17L708.85 356.4L710.09 356.16L710.71 357.55L709.47 356.76L708.04 356.97L708.29 358.13L706.96 359.58L708.9 364.26L705.29 364.93L704.02 363.72L702.55 364.69L701.48 366.94L698.9 363.79L699.1 366.81L697.63 366.88L696.52 369.75L693.68 368.4L692.22 369.44L692.03 367.75L689.37 368.23L689.51 368.95L691.36 369.54L691.26 370.64L686.44 379.88L685.3 380.22L683.79 382.6L681.82 382.18L679.76 382.79L678.39 384.29L678.69 385.93L677.85 387.67L675.66 389.73L671.3 389.81L670.49 391.42L670.83 393.33L667.08 392.27L666.04 394.68L660.38 396.09L654.74 394.46L654.61 393.34L652.94 394.19L652.63 395.14L648.48 395.38L646.98 394.75L647.52 392.69L646.67 392.19L644.8 391.43L643.68 392.36L640.87 391.92L638.46 388.25L637.78 383.83L636.46 383.38L634.61 381.26L633.52 381.79L625.98 377.41L622.39 381.87L619.66 382.15L619.18 381.12L617.17 381.07L616.67 380.43L609.31 379.49L610.32 383.92L608.87 384.71L608.74 386.55L606.37 388.25L606.51 390.02L607.45 390.05L608.94 392.04L608.29 393.6L606.24 393.8H604.74L603.72 391.54L598.04 391.42L598.02 390.54L597.6 391.15L596.5 390.58L595.95 391.3L594.68 387.82L588.24 388.4L587.15 386.39L588.76 384.85L588.61 382.85L587.25 382.47L586.64 380.46L584.17 380.95L584.06 378.05L582.13 376.84L582.77 374.53L582.17 373.75L581.28 374.28L580.19 373.14L578.76 374.16L577.6 372.33L579.67 370.35L580.57 368.39L580.21 367.69L573.4 368.24L572.98 367.33L569.97 367.94L568.44 368.45L568.76 369.83L567.43 371L562.3 370.28L561.64 371.18L559.1 371.41L559.15 373.17L556.1 373.53L554.18 371.69L555.23 369.54L548.24 368.18L548.88 366.76L547.5 366.02L548.95 363.35L547.72 362.67L547.41 364.78L545.78 367.27L543.11 367L542.18 369.57L540.38 369.27L540.58 370.29L539.51 371.63L536.1 370.57L533.84 372.36L533.63 374.37L530.24 373.84L528.95 375.14L525.4 375.89L525.31 374.64L523.27 377.3L521.79 376.88L520.37 377.73L519.81 377.16L517.95 378.16L516.85 377.23L514.73 370.34L512.86 369.16L513.02 368.16L512.06 366.97L502.84 364.8L502.96 366.14L501.81 368.13L498.33 367.62L498.72 366.12L499.76 365.61L499.46 364.57L498.03 363.51L497.07 364L497.74 364.89L495.6 365.79L494.79 361.87L491.36 363.56L487.72 367.23L487.78 372.32L489.22 374.05L489.48 375.39L488.74 375.6L490.85 381.29L487.3 382.57L489.39 383.62L488.32 384.43L488.58 385.63L489.41 385.45L487.86 386.95L488.12 388.29L489.37 388.55L485.3 390.68L484.22 389.87L482.14 390.42L481.29 388.48L480.58 388.54L480.55 389.62L479.5 389.42L479.25 390.32L480.24 392.76L478.34 394.05L479.98 397.38L482.18 396.6L483.04 398.48L479.97 402.35L480.96 402.89L481.51 405.13L482.48 405.93L486.51 407.68L485 409.38L485.66 410.78L481.57 412.09L480.95 410.94L480.35 410.59L480.19 411.31L478.62 409.94L476.46 409.67L474.01 410.42L473.5 409.8L470.85 410.04L470.1 409.46L466.91 412.95L463.39 414.53L462.58 413.46L461.28 413.47L461.4 411.89L460.09 411.72L459.46 413.22L459.37 412.41L457.54 411.74L452.1 411.19L450.93 409.4L448.14 409.24L446.25 408.09L444.75 408.92L440.39 415.83L441.35 420.16L439.65 421.05L439.32 420.52L429.86 421.79L430.27 424.81L424.4 433.01L422.76 432.72L421.14 434.69L417.66 433.56L417.02 436.82L418.01 436.86L418.26 438.14L419.66 437.76L419.76 439.81L415.87 439.84L415.9 440.84L413.58 443.45L410.95 442.1L409.09 443.5L405.6 442.17L403.63 443.35L402.12 443.13L401.33 444.2L398.29 443.47L396.35 444.18L395.69 443.08L393.59 445.11L392.57 444.4L392.96 444.07L391.38 441.98L388.63 440.07L385 439.07L385.08 436.98L385.42 435.12L389.18 432.56L391.12 427.88L389.54 424.36L388.65 424L388.77 422.59L392.24 421.67L391.96 420.77L393.31 419.03L392.44 415.96L391.78 415.79L389.76 411.47L390.79 408.91L391.47 408.32L392.5 409.05L394.24 407.1L396.38 408.65L398.1 408.8L399.61 405.83L397.38 403.27L397.24 400.12L396.49 399.39L397.54 397.22L396.37 393.38L397.54 392.12L396.42 391.58L395.56 389.27L394.41 389.82L395.67 387.72L394.2 385.67L388.24 387.3L386.93 387.03L386.87 386.23L387.77 386.1L385.59 385.08L386.05 386.9L383.6 387.66L383.11 386.23L383.6 385.4L381 386.12L382.73 385.1L383.67 382.51L383.38 381.55L380.76 380.53L378.9 383.54L377.43 381.6L376.05 381.74L375.7 383.17L374.75 382.99L374.26 381.6L371.68 382.7L371.2 380.27L369.92 380.57L366 378.27L366.41 376.4L364.72 375.23L364.01 371.89L366.16 372.64L368.38 371.21L368.97 372.2L372.48 373.42L379.65 374.06L382.13 373.91L382.12 371.98L388.51 371.78L389.86 371.13L389.79 366.1L387.48 363.34L384.18 362.05L383.93 360.68L384.64 357.85L386.13 358.14L386.2 357.11L387.82 356.19L387.85 349.68L385.47 347.49L382.76 346.62L383.81 346.63L384.2 345.38L385.49 345.12L387.73 346.45L388.68 344.66L389.9 344.88L392.67 341.33L393.25 342.19L394.14 341.49V339.58L394.92 339.89L396.06 342.43L396.83 341.12L399.9 340.86L400.04 339.51L398.77 339.84L397.92 338.59L398.49 340.39L394.28 339.32L397.01 336.8L401.07 337L401.34 334.25L403.93 334.36L403.18 333.17L403.89 330.08L410.53 334.17L415.48 334.37L415.19 332.21L418.23 331.12L419.42 334.09L422.38 334.39L425.02 337.87L425.13 339.73L428.65 340.32L428.7 341.33L429.42 341.55L428.2 335.94L429.73 335.59L428.07 334.99L427.98 334.05L431.49 332.36L431.9 333.38L437.35 333.93L438.24 332.34L436.96 331.28L437.15 328.72L436.29 328.05L436.88 326.65L438.55 327.49L439.42 326.15L438.87 323.28L439.32 320.81L441.1 320.99L441.24 322.62L443.03 321.96L444.82 324.98L446.31 324.61L447.05 323.07L449.9 322.44L450.62 320.73L453.97 319.76L455 318.04L454.81 315.24L455.49 313.46L457.03 313.45L458.91 316.33L460.7 315.85L460.4 312.3L461.39 312.48L462.83 311.36L459.84 310.4L460.47 308.27L466.67 308.74L467.85 308.07L468.15 306.15L466 305.73L465.41 304.52L463.11 304.97L462.41 302.46L458.87 303.4L457.96 302.76L460.07 301.85L462.76 298.41L460.17 299.92L458.79 298.91L458.85 298.23L460.52 298.01L461.22 296.89L459.19 296.06L461.12 292.03L459.27 290.91L459.45 287.48L457.5 285.9L458.89 284.3L458.48 282.42L456.06 280.03L457.07 278.3L460.94 276.18L463.57 276.22L462.71 274.98L464.38 260.53L463.33 259.42L465.13 257.86L465.53 256.07L464.83 255.74L465.93 255.08L464.63 254.66L464.89 253.82L463.96 253.93L463.89 252.66H461.51L461.07 250.92Z" fill="#C7C7C7" stroke="white" stroke-width="2"/>
<path d="M368.751 2.06L369.301 2.11L369.551 5.76L372.521 6.46L375.911 9.78L375.961 13.24L377.511 13.6L378.561 12.54L379.211 14.94L381.181 16.71L383.271 16.17L385.901 16.62L386.601 13.9L385.551 11.79L385.791 10.34L386.521 10.07L389.321 11.68L389.021 12.95L392.431 10.6L396.961 10.67L397.141 9.87L398.511 9.45L403.531 11.55L405.221 10.78L408.081 11.14L408.131 12.21L406.841 13.8L405.621 13.43L405.071 14.94L406.561 16.96L406.641 18.63L409.691 21.22L410.031 24.97L412.511 28.88L412.951 28.35L414.231 28.88L417.381 28.3L420.401 30.6L421.421 26.34L425.491 25.59L426.341 24.8L427.721 25.53L427.711 23.31L432.241 23.1L432.871 21.26L438.281 20.24L440.101 22.62L441.751 21.04L443.441 21.25L447.981 26.35L450.801 25.21L452.981 26.15L454.391 25.75L458.181 28.47L460.611 28.06L463.041 28.83L465.161 30.54L463.451 31.37L463.191 32.43L465.711 33.14L467.181 35.46L464.891 36.73L463.551 36.67L463.401 37.48L460.971 37.81L463.251 41.49L461.731 41.5L460.651 43.46L460.831 47.97L458.781 50.78L459.271 53.74L458.331 55.55L458.691 56.69L461.461 57.19L465.321 59.96L465.791 61.73L467.601 63.17L470.091 63.6L474.631 59.54L475.251 56.31L477.651 53.64L478.841 54.15L481.741 52.08L484.511 52.18L487.221 50.66L488.441 52.29L488.291 53.47L489.301 53.96L491.081 53.49L493.931 50.32L493.821 48.62L494.581 48.96L496.591 45.66L495.861 44.38L497.881 42.83L501.811 44.19L503.601 43.42L503.621 41.88L505.431 41.75L509.211 43.37L510.531 45.19L511.401 44.76L513.491 46.83L515.491 46.79L516.251 44.4L518.081 44.35L518.171 42.28L517.501 41.23L518.001 40.62L518.981 42.79L521.001 42.16L522.481 42.57L523.561 41.75L526.061 42.72L526.301 42L526.981 46.86L530.731 46.41L532.821 49.53L535.251 48.8L536.071 49.88L541.631 49.22L541.971 50.47L543.941 51.88L542.301 53.34L544.781 57.49L548.711 57.62L552.271 60.48L553.791 64.13L552.941 65.75L553.141 67.47L555.351 67.66L554.271 69.52L555.541 69.61L555.321 72.35L556.481 72.47L557.221 69.7L559.721 69.28L561.771 76.47L561.341 77.27L562.321 78.4L565.581 78.38L565.541 77.13L566.961 77L567.381 75.04L568.731 74.49L567.691 73.24L569.771 73L573.061 75.4L574.501 74.09L574.771 78.76L576.261 84.58L573.321 85.86L573.141 86.74L574.441 87.59L574.311 88.55L575.511 88.45L576.601 90.35L573.661 92.89L571.941 93.15L573.011 95.33L572.471 97.52L574.741 103.32L573.741 106.2L572.121 106.55L569.991 109.76L567.991 110.82L566.721 112.62L566.131 113.84L566.331 118.73L570.941 119.89L570.961 121.65L572.631 122.35L573.831 128.64L576.601 129.85L577.401 132.7L578.601 132.92L577.671 135.98L579.431 136.33L578.821 139.09L579.411 140.26L578.371 142.95L579.481 145.97L579.551 150.81L578.761 151.48L578.271 150.72L575.021 149.85L572.861 152.1L575.551 154.32L577.041 157.23L575.021 157.86L575.161 159.97L572.581 160.02L572.591 161.49L569.081 161.24L566.441 162.55L566.391 164.29L566.991 164.42L567.491 166.67L565.971 168.66L566.581 170.11L564.761 170.55L561.301 179.51L567.971 182.21L571.101 185.62L573.081 186.03L576.221 188.45L577.921 191.46L579.441 190.26L579.481 193.69L578.651 194.93L579.041 196.83L581.571 196.48L586.451 198.18L588.171 196.71L589.411 197.71L593.131 197.36L594.381 199.34L594.971 202.57L592.211 207.28L590.121 208.76L589.281 210.61L589.451 213.08L586.601 214.54L586.951 216.28L585.951 217.59L587.341 219.48L589.491 219.79L591.541 221.74L592.701 222.03L594.411 221.23L594.601 222.47L592.131 223.16L591.041 222L589.231 222.28L590.391 224.48L587.561 225.76L587.031 226.77L584.741 227.14L584.231 228.76L581.651 231.52L580.361 228.25L578.421 228.58L577.641 227.55L575.751 227.82L574.311 224.93L572.481 226.38L572.581 228.1L571.481 228.64L571.651 230.81L569.751 231.76L566.631 230.74L563.821 231.61L563.351 229.33L560.711 229.35L560.401 228.59L558.171 227.74L556.161 228.39L555.561 229.47L556.641 232.37L553.831 233.36L553.111 232.87L550.531 234.48L548.971 234.24L547.551 235.14L548.131 236.03L549.591 236.16L550.661 237.8L550.001 239.17L549.301 238.78L548.291 239.45L546.811 242.72L548.051 243.35L544.811 245.97L547.521 246.92L544.731 246.96L544.601 248.41L545.561 249.67L543.641 249.23L544.301 248.33L542.911 248.41L542.551 246.13L540.591 247.56L540.021 244.86L538.611 243.71L538.041 240.05L537.091 240.04L536.401 238.94L535.711 240.28L536.171 242.16L533.021 241.88L530.711 245.57L525.311 244.16L526.631 240.1L529.461 237.63L528.901 235.93L530.051 233.41L528.091 232.38L527.091 237.55L526.151 238L524.891 236.7L524.211 237.31L521.781 235.43L520.921 236.07L521.711 237.2L520.651 239.58L518.991 239.69L519.091 237.55L517.241 234.98L514.231 236.01L514.121 235.05L515.051 235.08L515.961 234.06L515.771 233.2L512.891 233.74L512.361 235.39L514.211 237.4L512.361 240.48L510.951 238.56L508.521 238.41L509.441 240.22L511.541 241.2L509.601 241.85L509.611 243.01L506.211 241.93L506.071 243.44L507.801 246.26L506.911 246.73L504.201 246.74L505.361 243.11L503.701 244.51L502.151 244.36L501.981 245.09L498.651 243.42L499.471 242.3L497.491 240.28L498.751 238.5L497.921 237.82L497.021 238.24L497.351 238.84L496.041 240.65L493.901 239.22L492.001 240.96L488.711 241.76L484.471 241.28L482.921 242.21L480.841 239.98L477.691 238.81L477.721 237.35L474.101 238.71L473.191 240.43L474.041 243.2L470.821 242.94L470.401 245.25L468.951 245.62L469.161 247.35L467.611 249.7L466.491 249.13L466.231 250.28L465.351 249.97L464.381 251.52L463.161 250.41L461.071 250.92L458.771 252.12L456.551 250.73L458.111 248.57L457.521 247.58L457.891 246.53L458.741 247.97L459.981 246.48L460.011 243.11L461.191 241.76L462.441 241.55L459.781 240.84L458.301 238.19L458.971 236.61L457.391 236.34L457.151 234.64L461.231 234.72L461.991 234.45L462.691 232.63L464.281 233.07L464.641 232.54L462.831 230.15L463.011 227.33L464.141 227.04L462.621 224.73L462.831 223.56L462.101 223.82L461.441 222.99L465.061 218.28L465.161 216.92L464.301 215.87L466.001 212.14L465.741 209.11L468.061 207.21L466.081 203.22L463.251 203.91L463.421 205.48L462.311 205.83L461.691 208L459.051 207.44L460.271 205.61L457.581 208.88L456.981 207.6L455.771 207.43L453.721 209.54L451.641 209.02L450.581 209.65L450.171 208.74L448.401 208.64L448.071 205.06L447.251 204.35L448.691 202.93L446.991 202.1L447.631 200.78L444.591 201.12L443.691 202.13L440.811 201.76L439.411 200.67L434.271 203.6L433.761 204.44L434.161 206.73L433.001 207.95L431.781 207.54L431.561 206.48L430.781 206.73L428.341 205.17L425.551 205.05L424.731 203.93L422.061 204.94L423.211 206.32L423.251 207.79L422.951 208.79L421.451 209.43L417.851 209.83L416.791 209.49L416.741 208.41L413.881 207.71L414.321 208.33L410.651 209.27L408.111 208.65L408.311 207.67L407.291 206.46L408.251 205.36L408.241 203.49L404.751 197.48L402.961 197.83L402.361 196.55L401.261 196.39L400.571 197.81L391.841 197.72L391.071 204.4L389.881 208.28L388.101 211.37L386.601 211.39L383.101 206.35L381.261 205.68L380.681 203.14L379.211 203.95L378.581 201.71L377.991 202.18L378.681 203.16L378.361 204.47L377.361 202.9L377.601 200.32L374.691 198.37L373.741 196.84L372.321 196.51L367.981 198.59L368.211 197.67L367.241 199.06L368.031 200.9L365.721 201.57L364.791 203.09L364.271 202L363.151 201.95L359.191 204.16L358.731 207.24L356.661 208.05L354.651 204.63L351.441 205.05L348.951 203.6L349.761 201.64L348.251 200.47L345.561 203.49L344.831 203.61L344.581 202.8L341.921 204.44L340.461 204.38L339.881 202.07L338.201 200.95L338.911 198.43L335.851 195.72L335.801 187.15L332.531 185.63L330.941 184.05L329.621 184.65L323.651 184.35L325.101 179.05L323.061 178.26L320.761 179.34L320.361 175.28L318.081 174.19L317.631 172.92L316.141 173.08L315.621 172.24L314.101 173.26L310.311 170.93L308.641 167.51L306.651 166.96L307.491 162.43L305.291 161.61L305.141 160.07L304.591 159.76L304.131 160.42L303.401 159.33L303.701 157.48L304.421 157.03L303.321 155L299.581 155.74L298.921 154.02L297.551 155.13L296.661 153.91L295.131 156.13L294.361 154.1L291.441 155.13L289.801 154.45L288.171 155.2L288.701 156.01L290.081 155.79L289.731 157.23L285.361 157.26L284.331 158.45L281.831 159L281.321 156.24L278.441 154.11L276.851 151.79L275.661 152.61L274.831 152.21L272.881 155.05L271.961 154.02L272.061 152.8L270.521 152.65L269.381 153.46L269.141 154.9L270.151 156.46L271.201 156.49L271.311 158.25L270.621 158.85L269.381 157.71L268.371 158.93L266.541 158.05L265.081 158.57L265.061 160.08L263.411 160.2L262.311 159.79L261.421 157.59L260.291 158.02L258.161 156.18L256.861 157.55L254.221 157.03L253.881 157.55L255.561 159.22L252.241 162.34L247.821 159.5L246.371 160.85L243.761 158.93L242.271 159.52L241.651 158.03L239.951 157.03L235.751 155.91L234.771 157.52L235.561 158.14L236.221 157.75L236.081 159.16L234.991 159.83L233.511 158.67L231.291 162.48L229.451 161.39L229.801 160.11L228.491 156.77L227.101 155.54L225.381 155.2L225.821 153.03L227.871 149.58L228.231 146.19L229.761 145.92L229.571 145.21L230.241 144.92L227.341 140.84L229.811 139.19L232.611 138.69L233.321 138.12L232.631 137.54L234.511 137.28L234.311 136.08L236.711 135.45L239.321 136.41L239.791 137.58L240.921 136.64L244.451 138.09L245.621 137.1L245.771 135.68L248.421 134.15L250.351 136.28L253.481 134.96L256.241 135.79L258.621 133.99L260.191 134.48L260.501 133L261.681 133.45L262.341 132.54L261.141 131.89L260.331 129.19L261.631 128.29L262.401 128.95L264.251 126.97L264.351 123.27L265.391 122.05L267.791 121.33L269.341 119.52L271.841 118.64L271.611 115.22L268.711 113.39L263.501 113.25L259.491 111.01L259.091 112.26L258.061 111.63L257.071 113.3L256.781 111.62L255.711 112.01L255.991 112.76L255.171 113.64L253.621 113.55L253.471 112.73L251.931 113.62L250.561 112.27L243.831 110.71L243.081 109.88L245.091 108.87L245.491 107.11L247.411 107.07L249.561 104.69L251.251 104.65L250.841 102.27L251.621 101.61L250.321 97.79L251.541 97.94L250.491 96.44L252.211 93.92L251.431 92.54L250.451 92.34L249.291 89.14L250.551 86.72L253.381 85.41L255.581 81.79L256.271 82.08L257.961 80.68L257.891 76.94L257.231 75.94L258.521 73.76L258.021 70.24L256.981 70.09L256.961 66.88L258.541 64.37L258.191 63.77L263.431 64.21L265.391 66.7L268.291 67.3L269.561 64.71L274.801 62.52L275.211 59.79L276.891 57.71L278.661 52.63L280.431 52.82L282.341 49.57L285.351 47.46L286.701 48.17L287.801 47.32L291.431 47.74L292.061 45.48L293.551 44.71L294.841 45.11L295.641 44.38L296.971 46.37L299.381 47.04L302.321 50.5L302.661 51.85L305.081 53.06L309.971 51.24L311.281 49.28L316.161 51.92L324.661 53.2L329.771 52.78L331.541 44.88L330.411 39.1L332.531 36.34V34.29L338.741 28.58L341.221 28.34L343.281 27.26L344.381 24.98L343.391 23.73L344.221 23.66L345.701 21.83L344.041 20.13L347.371 19.25L348.731 17.9L350.861 18.77L353.191 15.24L354.421 11.09L355.701 10.4L356.241 9L357.711 8.26L361.171 9.32L361.371 8.11L363.131 6.59L364.851 7.02L365.101 5.19L368.041 2L368.751 2.06Z" fill="#C7C7C7" stroke="white" stroke-width="2"/>
<path d="M328.4 308.12L327.66 307.92L326.61 305.47L327.31 304.45L328.08 304.7L328.4 308.12ZM351.2 298.97L350.48 298.9L350.43 297.15L351.69 297.89L351.2 298.97ZM361.49 296.08L363.1 298.08L361.72 299.12L359.18 296.13L361.49 296.08ZM327.84 286.31L330.3 287.65L331.86 286.95L331.51 288.25L332.92 289.13L334.61 288.81L335.72 287.65L338.04 288.02L338.57 287.18L339.52 287.44L338.76 291.09L334.63 293.18L336 297.84L335 300.53L338.24 302.9L338.72 299.53L343.14 299.74L344.61 301.32L342.4 303.01L342.3 304.7L340.3 305.12L337.62 303.22L336.62 304.59L336.94 306.12L334.52 307.28L333.99 306.7L334.62 305.65L333.41 304.81L334.62 303.97L333.99 302.65L332.41 303.81L330.3 304.07L320.14 303.07L319.25 303.7L318.78 302.65L316.57 301.91L315.73 299.33L313.99 299.96L314.04 300.7L312.09 299.49L313.99 297.7H314.99V292.75L316.41 289.85L318.57 287.69L320.94 286.85L327.84 286.31Z" fill="#C7C7C7" stroke="white" stroke-width="2"/>
<path d="M231.291 162.48L233.511 158.67L234.991 159.83L236.081 159.16L236.221 157.75L235.561 158.15L234.771 157.52L235.761 155.92L239.951 157.04L241.661 158.04L242.281 159.53L243.761 158.94L246.371 160.87L247.821 159.52L252.241 162.36L255.571 159.24L253.891 157.57L254.231 157.04L256.871 157.57L258.161 156.2L260.291 158.04L261.421 157.62L262.311 159.81L263.411 160.22L265.061 160.11L265.081 158.6L266.541 158.09L268.361 158.96L269.371 157.74L270.611 158.88L271.301 158.28L271.191 156.52L270.141 156.5L269.141 154.93L269.381 153.49L270.521 152.68L272.061 152.83L271.961 154.05L272.881 155.08L274.831 152.24L275.661 152.64L276.851 151.82L278.451 154.15L281.331 156.28L281.841 159.04L284.341 158.49L285.371 157.3L289.741 157.27L290.091 155.83L288.721 156.05L288.191 155.24L289.821 154.48L291.451 155.16L294.371 154.13L295.141 156.16L296.681 153.94L297.571 155.16L298.941 154.06L299.611 155.78L303.351 155.04L304.441 157.07L303.721 157.52L303.421 159.37L304.151 160.46L304.621 159.81L305.171 160.12L305.321 161.66L307.521 162.48L306.681 167.01L308.671 167.56L310.341 170.98L314.131 173.31L315.661 172.3L316.181 173.13L317.671 172.98L318.121 174.25L320.401 175.34L320.791 179.41L323.091 178.32L325.141 179.11L323.691 184.41L329.661 184.7L330.981 184.1L332.571 185.68L335.851 187.2L335.891 195.77L338.951 198.48L338.251 201L339.931 202.12L340.511 204.42L341.971 204.48L344.641 202.84L344.891 203.65L345.611 203.52L348.301 200.5L349.811 201.67L349.001 203.63L351.501 205.08L354.711 204.66L356.711 208.08L358.791 207.27L359.251 204.19L363.211 201.98L364.331 202.03L364.851 203.13L365.781 201.6L368.081 200.94L367.291 199.09L368.271 197.7L368.031 198.62L372.371 196.54L373.801 196.87L374.751 198.4L377.671 200.35L377.431 202.93L378.431 204.5L378.751 203.19L378.061 202.21L378.651 201.74L379.281 203.98L380.761 203.18L381.341 205.71L383.181 206.38L386.691 211.43L388.181 211.41L389.961 208.32L391.161 204.44L391.931 197.76L400.671 197.85L401.361 196.44L402.461 196.59L403.061 197.88L404.851 197.52L408.341 203.53L408.351 205.4L407.401 206.51L408.421 207.72L408.221 208.7L410.761 209.32L414.431 208.38L413.991 207.76L416.851 208.46L416.901 209.54L417.961 209.88L421.561 209.47L423.061 208.83L423.361 207.83L423.321 206.37L422.181 204.98L424.851 203.98L425.681 205.1L428.461 205.22L430.901 206.78L431.681 206.53L431.891 207.6L433.121 208.01L434.281 206.79L433.871 204.5L434.391 203.66L439.531 200.73L440.931 201.81L443.811 202.18L444.711 201.18L447.751 200.84L447.111 202.16L448.811 202.99L447.371 204.42L448.201 205.13L448.531 208.7L450.301 208.8L450.711 209.72L451.771 209.09L453.851 209.61L455.901 207.5L457.101 207.67L457.711 208.95L460.401 205.68L459.171 207.51L461.811 208.07L462.431 205.9L463.541 205.56L463.381 203.98L466.211 203.29L468.191 207.28L465.871 209.17L466.131 212.21L464.431 215.93L465.291 216.98L465.191 218.34L461.561 223.06L462.231 223.88L462.951 223.63L462.741 224.8L464.261 227.11L463.131 227.4L462.951 230.22L464.761 232.61L464.411 233.14L462.821 232.7L462.131 234.52L461.371 234.79L457.291 234.71L457.531 236.4L459.111 236.68L458.441 238.26L459.921 240.9L462.571 241.62L461.321 241.82L460.141 243.17L460.111 246.54L458.871 248.03L458.021 246.59L457.651 247.64L458.241 248.64L456.681 250.8L458.901 252.19L461.201 250.99L461.641 252.73H464.021L464.091 254L465.021 253.89L464.761 254.73L466.061 255.15L464.971 255.82L465.661 256.15L465.261 257.94L463.461 259.5L464.511 260.61L462.841 275.06L463.701 276.3L461.071 276.26L457.201 278.38L456.181 280.11L458.601 282.49L459.011 284.37L457.611 285.97L459.571 287.55L459.391 290.98L461.241 292.11L459.311 296.14L461.341 296.98L460.631 298.09L458.961 298.32L458.901 298.99L460.281 300L462.871 298.49L460.181 301.94L458.071 302.85L458.981 303.49L462.521 302.55L463.221 305.06L465.521 304.61L466.111 305.82L468.261 306.23L467.971 308.15L466.781 308.82L460.591 308.35L459.961 310.48L462.951 311.44L461.511 312.56L460.531 312.39L460.831 315.94L459.041 316.41L457.161 313.53L455.631 313.54L454.951 315.32L455.141 318.12L454.111 319.84L450.771 320.81L450.051 322.51L447.201 323.15L446.461 324.69L444.981 325.06L443.191 322.04L441.401 322.7L441.271 321.07L439.491 320.88L439.031 323.36L439.581 326.23L438.711 327.57L437.041 326.73L436.451 328.13L437.311 328.8L437.121 331.36L438.401 332.42L437.511 334.01L432.051 333.46L431.641 332.44L428.131 334.13L428.221 335.07L429.871 335.67L428.351 336.02L429.571 341.64L428.851 341.42L428.811 340.42L425.291 339.82L425.181 337.96L422.541 334.48L419.581 334.18L418.391 331.21L415.361 332.3L415.651 334.46L410.701 334.26L404.051 330.16L403.341 333.25L404.091 334.44L401.511 334.33L401.241 337.08L397.181 336.88L394.461 339.4L398.671 340.47L398.101 338.67L398.951 339.92L400.211 339.59L400.071 340.94L397.011 341.2L396.241 342.51L395.101 339.97L394.321 339.66L394.331 341.57L393.441 342.28L392.861 341.41L390.101 344.97L388.871 344.75L387.931 346.55L385.691 345.21L384.411 345.47L384.011 346.72L382.971 346.71L385.681 347.59L388.061 349.78L388.031 356.28L386.411 357.21L386.341 358.23L384.851 357.95L384.141 360.78L384.391 362.15L387.681 363.43L389.991 366.19L390.061 371.22L388.711 371.87L382.321 372.07L382.331 374L379.851 374.15L372.681 373.51L369.171 372.29L368.581 371.31L366.361 372.74L364.211 371.99L364.921 375.33L366.611 376.5L366.201 378.37L370.121 380.67L371.401 380.38L371.881 382.8L374.461 381.71L374.961 383.1L375.911 383.28L376.261 381.84L377.641 381.7L379.111 383.64L380.961 380.63L383.581 381.65L383.881 382.61L382.941 385.2L381.211 386.22L383.811 385.5L383.321 386.34L383.811 387.77L386.261 387.01L385.801 385.19L387.991 386.21L387.091 386.35L387.151 387.15L388.461 387.42L394.431 385.79L395.901 387.84L394.641 389.94L395.791 389.39L396.651 391.7L397.771 392.24L396.601 393.5L397.771 397.34L396.721 399.51L397.471 400.25L397.601 403.4L399.831 405.96L398.321 408.93L396.601 408.78L394.461 407.23L392.721 409.17L391.691 408.45L391.011 409.04L389.981 411.6L392.001 415.93L392.671 416.1L393.531 419.16L392.191 420.91L392.461 421.8L389.001 422.73L388.881 424.13L389.771 424.5L391.361 428.02L389.421 432.7L385.651 435.26L385.311 437.12L385.241 439.21L388.871 440.21L391.621 442.12L393.201 444.21L392.811 444.54L390.521 448.75L390.411 461.19L383.681 467.9L373.211 469.57L372.771 467.31L368.161 468.18L367.271 463.72L357.781 464.95L355.961 465.94L356.821 470.56L355.121 471.54L355.041 474.84H353.001L350.921 476.06L344.191 474.22L338.241 474.82L337.861 472.52L332.061 468.93L330.071 468.87L331.311 463.29L329.861 463.23L329.961 461.4L328.661 462.05L328.261 461L326.441 462.9L324.541 461.11L324.341 462.56L322.831 463.17L318.731 462.52L318.481 463.65L313.901 462.74L312.371 466.55L311.591 466.6L311.561 467.58L309.951 467.77L311.801 472.34L311.131 473.61L307.901 476.26L307.041 477.85L304.871 478.92L304.841 479.65L301.421 478.71L301.301 476.31L296.661 476.4L296.331 472.28L294.301 472.47L293.551 468.03L288.681 467.82L288.691 464.92L287.821 464.17L288.571 464.11L288.501 459.42L287.301 459.31L287.031 455.94L285.691 456.02L284.821 454.8L284.721 452.36L286.801 452.34L286.581 447.66L285.551 447.27L286.011 445.56L289.051 444.62L288.201 441.02L286.231 440.1L286.891 436.91L285.211 432.52L281.251 437.96L276.721 435.16L275.861 435.28L274.461 433.21L272.111 434.18L269.411 433.9L266.701 430.37L265.881 423.89L264.821 423.49L264.701 424.2L262.811 424.13L263.221 425.27L261.191 424.73L259.451 422L258.931 422.62L256.601 422.23L256.981 421.89L253.741 418.75L251.481 424.88L249.211 426.08L248.291 422.62L243.461 429.63L243.351 428.28L239.281 425.94L238.671 423.87L239.031 422.27L244.441 416.84L243.231 416.08L242.591 414.14L240.741 412.16L239.101 407.92L239.481 406.61L240.941 406.33L241.641 405.1L244.501 405.39L244.111 401.62L244.741 401L244.111 400.58L245.311 398.83L248.941 399.95L249.441 399.45L248.241 395.15L246.161 395L245.291 391.15L240.711 391.22L238.491 389.71L238.351 387.54L237.041 386.41L235.401 386.72L235.381 385.12L234.401 383.74L231.561 382.7L230.761 379.92L233.571 379.18L233.111 377.73L234.041 376.51L235.941 376.06L236.071 373.78L239.151 373.67L240.241 366.41L238.831 366.18L237.261 360.84L238.051 360.2L239.381 360.58L241.391 358.18L242.251 358.88L244.751 357.45L248.721 357.97L249.441 356.99L253.621 356.16L251.861 352.04L251.571 343.56L250.491 343.89L249.991 342.42L249.221 342.43L248.591 343.78L247.001 342.63L250.431 339.97L250.531 336.61L246.091 334.42L246.591 333.81L243.761 331.24L242.931 328.43L239.901 325.76L240.031 324.27L238.731 323.11L236.901 323.12L237.701 319.68L233.311 318.41L233.061 316.71L229.751 311.08L230.691 310.15L229.391 308.23L230.901 306.98L229.681 305.52L228.231 306.41L227.001 305.19L227.791 304.92L227.141 303.39L229.311 303.12L227.391 298.66L230.161 298.47L231.121 297.01L232.151 298.28L234.401 295.93L238.551 294.46L236.591 290.9L238.331 291.2L240.361 290.45L242.501 287.72L239.711 281.27L236.251 284.03L232.941 284.79L234.531 280.5L233.981 274.62L230.231 275.7L228.631 277.27L227.881 276.94L225.241 278.85L222.741 277.92L222.481 275.95L220.991 274.31L221.321 272.57L220.171 270.3L220.751 269.61L219.521 268.37L219.961 265.03L221.371 264.35L221.351 263.14L219.871 263.12L218.081 264.29L216.731 263.75L215.711 264.72L217.721 266.56L217.271 267.83L210.951 264.32L210.561 262.94L213.281 259.32L213.651 256.97L214.471 256.15L215.131 256.49L214.721 257.76L215.781 258.79L218.021 258.64L219.201 256.73L221.881 255.29L225.321 252.11L226.611 253.11L227.911 251.93L229.421 253.29L229.701 254.65L230.471 254.03L233.501 255.54L234.761 254.85L236.261 255.32L237.891 253.24L237.501 252.51L238.911 252.28L238.491 251.12L240.131 248.45L240.801 248.58L242.161 245.3L243.251 245.22L243.631 244.27L244.521 244.84L245.301 243.92L246.951 243.67L246.671 241.32L249.371 235.14L250.541 235.15L250.051 232.86L251.221 232.77L252.181 230.52L254.781 230.63L258.341 226.01L256.421 224.93L257.691 224.32L257.291 223.65L258.881 220.11L257.901 218.85L258.131 216.36L256.821 216.56L257.231 215.19L256.031 214.67L256.121 212.89L256.911 212L255.861 210.82L259.531 212.32L259.461 208.18L261.821 208.23L262.131 206.95L259.681 206.01L259.611 201.77L260.661 199.91L257.921 200.59L257.561 199.76L256.241 199.47L254.871 200.74L254.361 199.44L253.051 198.7L252.621 195.58L250.621 191.81L251.521 188.23L251.031 186.24L247.721 184.86L243.441 177.68L241.901 176.33L239.441 176.62L238.161 177.61L236.971 177.1L235.551 178L236.031 176.8L235.061 173.09L236.141 172.21L236.191 170.11L237.471 169.32L231.161 163.51L231.291 162.48ZM327.841 286.31L330.301 287.65L331.861 286.95L331.511 288.25L332.921 289.13L334.611 288.81L335.721 287.65L338.041 288.02L338.571 287.18L339.521 287.44L338.761 291.09L334.631 293.18L336.001 297.84L335.001 300.53L338.241 302.9L338.721 299.53L343.141 299.74L344.611 301.32L342.401 303.01L342.301 304.7L340.301 305.12L337.621 303.22L336.621 304.59L336.941 306.12L334.521 307.28L333.991 306.7L334.621 305.65L333.411 304.81L334.621 303.97L333.991 302.65L332.411 303.81L330.301 304.07L320.141 303.07L319.251 303.7L318.781 302.65L316.571 301.91L315.731 299.33L313.991 299.96L314.041 300.7L312.091 299.49L313.991 297.7H314.991V292.75L316.411 289.85L318.571 287.69L320.941 286.85L327.841 286.31ZM361.491 296.08L363.101 298.08L361.721 299.12L359.301 295.8L361.491 296.08ZM351.201 298.97L350.481 298.9L350.431 297.15L351.691 297.89L351.201 298.97ZM328.031 308.35L326.611 305.47L327.311 304.45L328.081 304.7L328.611 307.51L328.031 308.35Z" fill="#C7C7C7" stroke="white" stroke-width="2"/>
</svg>
