<svg width="755" height="614" viewBox="0 0 755 614" fill="none" xmlns="http://www.w3.org/2000/svg">
<path d="M470.18 16.32L467.18 17.75L467.32 23.04L462.9 21.11L463.62 17.78L465.49 19.77L467.14 17.34L465.56 16.28L470.18 16.32ZM437.75 1L448.82 6.98L449.7 13.99L445.54 17.73L446.96 25.32L450.13 25.07L447.95 26.84L436.06 22.17L435.75 27.43L453.86 29.11L458.02 26.56L464.26 33.93L480.5 18.09L481.14 10.8L485.42 5.44L488.67 9.68L495.09 10.08L500.19 22.28L493.85 34.26L505.56 48.43L506.09 58.62L511.56 60.27L518.82 56.89L526.66 62.07L523.8 73.52L526.04 75.54L521.96 80.1L521.55 88.19L530.58 99.52L530.85 109.73L525.44 115.14L519.94 113.07L517.55 118.39L512.38 119.04L510.8 119.32L505.28 119.66L498.49 129.48L482.31 132.88L481.84 138.31L476.22 145.35L473.2 141.99L467.15 144.67H466.24L459.92 149.33L444.3 152.6L439.24 144.03L433.25 148.44L427.86 147.95L420.86 156.37L422.79 151.5L418.3 148.32L403.01 152.73L401.84 158.13L398.69 158.78L392.33 154.62L388.4 158.26L380.64 153.39L378.6 158.66L373.39 154.31L362.17 157.42L361.06 152.76L357.87 151.71L359.29 146.65L352.17 151L352.81 147.76L339.93 142.76L331.97 144.52L330.51 142.58L326.62 145.79L322.34 143.51L323.84 138.08L321.56 137.06L319.28 124.74L326.42 118.34L333.52 120.57L346.32 117.05L349.67 107.99L349.53 99.23L347.08 98.02L348.5 93.5L344.26 92.2L341.48 77.45L347.72 68.18L339.61 62.6L337.61 50.37L331.33 46.77L327.25 40.21L350.34 39.22L351.84 45.06L359.76 46.08L369.14 43.31L359.92 25.8L362.37 19.45L358.77 17.71L377.21 7.96L389.87 6.68L391.68 9.51L388.33 16.83L389.38 24.92L397.14 22.03L409.63 25.05L415.29 23.9L414.94 18.27L419.98 15.97L431.55 1.17L437.75 1Z" fill="#C7C7C7" stroke="white" stroke-width="2"/>
<path d="M304.66 246.27L315.34 238.97L320.1 246.24L325.61 245.62L333.33 251.63L336.23 248.41H344.85L346.4 242.1L350.47 243.17L348.43 239.59L350.45 237.69L353.7 243.02L357.88 243.11V239.28L381.34 231.1L381.17 235.11L387.53 239.62L387.66 236.15L397.19 233.7L401.24 228.52L402.91 235.51L408.81 235.05L412.93 231.06L409.43 225.94L410.44 217.72L420.21 220.73L423.84 218.76L424.62 220.85L426.47 216.83L433.34 215.42L439.45 217.96L443.61 224.59L448.02 224.87L448.06 228.79L460.34 227.05H461.82L461.8 232.87L465.43 234.9L476.48 226.65L483.78 232.72L483.1 238.09L478.53 240.69L483.17 247.15L480.12 249.7L480.32 258.91L476.66 265.92L470.39 264.45L465.75 270.57L460.16 270.08L460.45 272.19L438.4 278.58L439.15 282L435.01 278.55L429.84 282.43L427.97 275.8L423.96 276.53L422.27 280.81L414.45 277.05L412.74 281.3L415.42 289.33L410.66 291.23L402.16 288.45L397.16 290.8L397.72 296.88L384.96 301.61L382.82 297.27L377.84 298.1L376.09 300.9L376.69 291.59L372.84 292.85L365.45 289.61L354.94 290.43L349.91 296.08L350.51 288.72L344.23 288.78L338.49 280.6L333.39 280.53L334.58 273.96L324.27 271.61L325.12 264.63L320.55 259.95L313.04 269.07L305.87 268.95L302.93 262.68L303.47 247.58L307.15 246.6L304.66 246.27Z" fill="#C7C7C7" stroke="white" stroke-width="2"/>
<path d="M368.21 187.3L368.99 187.88L370.37 193.08L367.51 196.52L374.77 201.35L377.7 210.35L372.96 213.39L373.72 215.57L376.81 215.91L380.5 219.9L377.74 220.14L375.21 221.22L360 228.3L350.12 224.99L344.69 213.64L340.16 214.99L333.57 211.67L333.08 212.16L332.96 211.79L334.93 209.24L335.49 206.48L340.49 206.23L339.99 196.8L343.25 191.97L346.6 188.87L347.67 188.25L350.45 186.28L351.7 186.01L358.93 187.33L363.08 182.71L365.6 184.56L367.59 185.91L368.21 187.3Z" fill="#C7C7C7" stroke="white" stroke-width="2"/>
<path d="M180.07 227.54L186.72 230.64L195.38 228.58L196.02 238.05L209.33 238.51L212.19 241.54L213.26 241.88L222.48 226.12L228.88 223.14L229.68 227.59L238.34 223.42L237.39 226.49L241.55 233.7L248.51 232.99L254 235.63L261.96 232.69L265.11 238.42L263.96 245.35L268.22 251.17L276.49 251.81H277.79L295.16 247.95L296.87 250.16L301.91 243.85V244.56L304.67 246.28L307.16 246.62L303.48 247.6L302.94 262.69L305.88 268.96L313.06 269.08L320.57 259.96L325.14 264.64L324.28 271.61L334.59 273.96L333.4 280.53L338.5 280.59L344.24 288.78L350.52 288.72L349.92 296.08L354.96 290.43L365.46 289.61L372.85 292.85L376.7 291.6L376.1 300.91L377.85 298.1L382.83 297.28L384.97 301.61L397.73 296.88L393.96 308.6V309.61L394.72 312.81L400.75 309.7L399.19 311.56L401.82 317.66L396.37 327.47L405.28 332.59L402.61 339.2L398.97 340.42L402.94 344.38L399.77 345.87L398.06 352.71L400.73 362.07L386.16 365.32L383.26 361.43L379.16 361.49L374.59 368.57L363.72 366.75L362.77 371.34L357.3 372.71L355.18 377.69L349.34 377.14L341.27 383.69L352.46 392.4L356.68 387.64L358.57 388.73H360.48L363.24 390.73L363.08 391.76L362.69 396.73H362.01L362.46 405.34L355.87 410.07L363.36 423.84L360.48 428.23L361.41 445.7L365.07 446.97L366 461.37L371.85 473.59L369.54 478.44L353.61 475L345.48 470.15L323.28 474.1L322.72 469.85L313.05 467.26L316.96 460.74L311.9 455.16L316.57 446.49L323.01 446.13L330.21 440.12L323.79 429.2L324.33 420.85L315.25 420.7L315.48 422.82L310.36 420.64L315.53 411.68L314.69 396.59L318.99 395.59L328.39 384.49L325.92 378.63L319.97 377.63L316.94 373.44L314.51 377.75L317.89 382.82L312.13 382.91L308.1 369.1L304.05 365.94L300.2 366.85L290.12 352.23L282.81 357.19L280.2 355.55L279.19 357.62L279.03 355.43L266.27 361.96L256.17 354.33L251.5 354.18L249.2 356.89L247.9 353.67L236.19 354.61L233.51 357.01L232.69 366.13L228.66 363.91L230.37 368.13L228.48 368.62L221.77 359.63L218.79 349.02L222.02 338.89L219.1 322.63L208.97 310.62L204.05 312.3L201.21 309.28L187.96 313.31L187.07 309.83L191.51 302.23L182.93 299.3L177.6 307.45L175.6 306.26L163.73 312.12L160.89 308.22L147.29 302L144.84 297.64L144.86 280.38L137.14 261.21L142.2 255.58L139.79 251.66L141.31 247.86L128.14 241.03L129.35 237.72L125.15 231.13L133.4 228L141.65 232.39L150.15 231.32L153.79 241.68L160.66 245.36L169.69 234.08L175.1 233.28V232.08L180.07 227.54ZM63.9202 246.08L65.2802 244.3L59.6602 237.4L61.7002 235.71L59.8502 232.74L65.0402 229.73L66.7502 231.42L66.8102 229.21L70.1802 231.88L75.3302 230.62L75.2102 228.29L83.0102 225.5L78.4002 219.42L90.7902 214.23L93.5902 216.56L92.3802 222.73L96.4502 223.59L94.4102 225.74L86.2002 232.55L78.9402 234.6L80.1702 238.65L73.1302 250.35L63.9202 246.08Z" fill="#C7C7C7" stroke="white" stroke-width="2"/>
<path d="M614.63 213.85L616.19 222.87L612.61 230.3L618.78 233.58L619.73 233.7L622.4 231.22L624.87 233.06L625.14 233.92H632.59L639.61 244L647.33 243.05L651.55 245.26L657 237.47L653.44 231.06L658.27 232.44L666.92 228.83L670.68 231.68L678.4 231.16L682.6 234.53L682.21 242.38L683.4 239.46L697.23 241.3L710.15 263.07L707.4 265.61L710.3 268.89L708.98 270.69L712.99 268.67L726.8 270.66L721.86 282.09L718.32 281.76L708.75 291.72L709.19 296.39L712.63 297.97L711.16 301.12L714.93 302.86L718.45 310.67L727.03 307.65L742.65 312.68L740.67 320.76L746.77 323.16L747.63 328.77L740.78 345.91L753.62 359.53L753.04 363.42L744.87 365.88L744.63 369.01L739.01 363.33L734.13 364.48L728.84 380.15L716.25 383.15L712.71 389.07L708.71 389.77L706.86 394.13L711.53 405.68L702.83 407.89L700.3 414.46L704.37 418L701.57 421.73L696.35 419.91L698.8 415.98L696.51 410.71L690.26 409.22L689.97 413.77L686.3 414.67L680.5 411.43L679.22 405.53L681.06 398.68L676.98 398.77L676.4 365.79L671.18 363.84L670.4 360.96L647.7 355.76L645.49 361.87L648.99 365.85L644.32 375.93H645.35L651.3 376.39L643.66 382.06L637.72 381L637 384L635.39 380.85L629.11 379.91L620.72 381.85L625.57 369.86L621.03 369.77L616.81 361.29L620.31 352.72L610.63 353.08L611.5 349.43L603.02 348.61L595.26 340.22L584.29 342.22L579.5 332.33L570.96 337.69L561.72 330.93L558.98 336.11H562.05L563.55 339.58L556.49 346.36L548.36 343.62L537.82 350.68L534.67 346.76L535.79 341.95L525.66 338.97L523.05 334.98L525.76 328.37L518.4 315.85L511.59 319.02L509.14 314.66L511.13 313.07L505.82 312.16L504.88 308.41L507.33 305.6L502.49 308.16L498.23 304.99L497.82 300.14L486.73 299.35L490.12 296.97L489.03 290.89L485.04 282.4L475.65 273.29L476.66 265.92L480.32 258.91L480.12 249.7L483.17 247.15L478.53 240.69L483.1 238.09L483.78 232.72L488.93 235.88L488.45 240.72L493.41 245.96L499.46 245.35L512.08 249.42L515.06 246.73L512.57 243.57L513.87 240.69L524.69 242.68L526.32 239.8L530.21 243.36L533.67 239.34L539.14 243.05L547.8 234.01L555.19 233.43L561.18 242.31L566.88 242.01L569.6 236.34L572.62 240.84L581.76 235.27L582.25 230.11L583.35 230.67L598.39 225.05L606.85 215.72L613.1 216.15L613.54 213.82L614.63 213.85Z" fill="#C7C7C7" stroke="white" stroke-width="2"/>
<path d="M632.3 227.08L637.16 230.85L644.24 228.24L645.21 231.34L652.1 226.8L653.44 231.06L657 237.47L651.55 245.25L647.33 243.04L639.61 243.99L632.59 233.91H625.14L624.87 233.05L622.4 231.21L619.73 233.69L618.78 233.57L612.61 230.29L623.68 229.55L629.26 222.8L632.3 227.08ZM583.9 70.14L588.22 74.2L589 87.35L606.6 94.81L607.86 98.74L628.64 99.17L630.92 109.07L640.02 104.09L645.91 111.45L637.1 119.64L641.44 125.82L634.42 127.83L635.26 137.12L630.18 136.75L627.13 145.55L630.65 148.85L628.72 156.68L619.91 167.62L621.41 169.9L625.81 168.42L627.04 171.41L620.33 183.97L615.82 183.63L611.7 192.64L605.16 195.56L606.02 209.11L613.57 213.81L613.12 216.14L606.88 215.71L598.42 225.04L583.38 230.65L582.27 230.1L581.78 235.25L572.64 240.83L569.62 236.32L566.9 241.99L561.2 242.3L555.21 233.41L547.82 233.99L539.16 243.03L533.69 239.32L530.23 243.33L526.34 239.78L524.71 242.66L513.87 240.69L512.57 243.57L515.06 246.73L512.08 249.43L499.45 245.36L503.2 237.24L499.68 235.43L500.89 230.62L502.51 228.53L501.21 221.66L509.5 214.72L508.12 214.66L505.14 213.03L506.33 202.71L509.89 193.33L514.21 193.91L516.02 185.73L512.34 182.68L506.23 182.83L505.63 180.28L501.66 181.79L497.63 184.07L494.98 180.25L492.47 181.7L488.19 173.76L494.77 168.4L495.41 160.48L504.28 156.97L502.53 149.72L504.67 148.64L505.08 151.29L510.58 148.61L502.74 140.71L495.35 141.64L495.99 148.77L491.09 151.55L488.35 148.5L484.36 149.92L481.77 143.94L476.19 145.36L481.81 138.32L482.28 132.89L498.46 129.49L505.25 119.67L510.77 119.33L512.35 119.05L517.52 118.4L519.91 113.08L525.41 115.15L530.82 109.74L530.55 99.53L521.52 88.2L521.93 80.11L526.01 75.55L545.11 75.05L547.04 71.27L560.95 74.99L574.29 63.17L580.22 64.72L583.9 70.14Z" fill="#C7C7C7" stroke="white" stroke-width="2"/>
<path d="M556.49 346.36L563.55 339.58L562.05 336.11H558.98L561.72 330.93L570.96 337.69L579.5 332.33L584.29 342.22L595.26 340.22L603.02 348.61L611.5 349.43L610.63 353.08L620.31 352.72L616.81 361.29L621.03 369.77L625.57 369.86L620.72 381.85L629.11 379.91L635.39 380.85L637 384L637.72 381L643.66 382.06L651.3 376.39L645.35 375.93H644.32L648.99 365.85L645.49 361.87L647.7 355.76L670.4 360.96L671.18 363.84L676.4 365.79L676.98 398.77L681.06 398.68L679.22 405.53L667.93 408.65L666.83 421.15L654.43 427.08L652.57 437.39L646.13 443.07L649.08 446.79L647.18 452.2L639.26 457.12L642.65 466.71L636.77 472.02L630.76 472.78L628.23 486.19L622.9 491.37L632.38 497.51L630.53 501L626.75 499.47L627.78 504.13L625.14 505.19L627.34 507.05L623.89 510.39L626.58 523.98L633.17 522.69L641.28 537.13L640.51 544.55L647.96 543.59L651.96 548.6L647.96 558.34L656.79 562.15L655.91 570.12L652.2 570.75L649.8 578.8L644.71 582.54L645.47 585.15L648.99 584.97L649.01 589.06L643.29 595.28L638.52 597.59L627.43 592.62L624.83 599.44L606.11 595.7L599.48 602.52L598.64 608.88L594.87 604.28L587.98 602.1L585.05 606.04L574.13 608.4L571.66 611.69L567.31 605.54L570.61 602.82L570.36 599.2L565.77 595.34L568.3 590.83L565.01 590.02L563.26 582.36L547.6 571.91L545.62 576.08L540.79 577.81L539.29 572.33L544.2 564.99L533.4 553.45L531.59 552.19L526.96 555.61L519.67 552.49L512.04 553.21L511.24 546.5L504.46 547.19L498 532.36L492.16 532.72L481.25 526.5L478.78 521.15L473.58 520.7L477.32 514L477.61 505.22L490.88 496.16L488.13 493.27L493.8 487.51L503.07 484.32L498.83 480.1L499.59 473.05L491.48 465.81L481.54 467.02L481.89 462.01L474.54 452.41L477.53 452.86L479.19 447.7L481.97 449.66L487.96 445.01L488.83 438.18L491.46 438.03L489.94 434.67L492.61 424.06L494.61 433.07L518.87 432.01L532.23 426.93V425.72L527.02 420.79L535.19 416.31L534.53 413.01L527.41 404.5L528.71 402.77L525.33 401.95L527.74 399.1L520.21 395.83L529.94 392.56L528.69 389.19L534.22 386.43L537.16 388.52L540.68 386.73L556.55 373.99L555.48 365.57L550.85 365L547.68 368.73L546.53 365.97L556.59 359.5L554 354.85L557.85 349.95L556.49 346.36Z" fill="#C7C7C7" stroke="white" stroke-width="2"/>
<path d="M397.72 296.88L397.16 290.8L402.16 288.45L410.66 291.23L415.42 289.33L412.74 281.3L414.45 277.05L422.27 280.81L423.96 276.53L427.97 275.8L429.84 282.43L435.01 278.55L439.15 282L438.4 278.58L460.45 272.19L460.16 270.08L465.75 270.57L470.39 264.45L476.66 265.92L475.65 273.29L485.04 282.4L489.03 290.89L490.12 296.97L486.73 299.35L497.82 300.14L498.23 304.99L502.49 308.16L507.33 305.6L504.88 308.41L505.82 312.16L511.13 313.07L509.14 314.66L511.59 319.02L518.4 315.85L525.76 328.37L523.05 334.98L525.66 338.97L535.79 341.95L534.67 346.76L537.82 350.68L548.36 343.62L556.49 346.36L557.85 349.95L554 354.85L556.59 359.5L546.53 365.97L547.68 368.73L550.85 365L555.48 365.57L556.55 373.99L540.68 386.73L537.16 388.52L534.22 386.43L528.69 389.19L529.94 392.56L520.21 395.83L527.74 399.1L525.33 401.95L528.71 402.77L527.41 404.5L534.53 413.01L535.19 416.31L527.02 420.79L532.23 425.72V426.93L518.87 432.01L494.61 433.07L492.61 424.06L489.94 434.67L491.46 438.03L488.83 438.18L487.96 445.01L481.97 449.66L479.19 447.7L477.53 452.86L474.54 452.41L481.89 462.01L481.54 467.02L491.48 465.81L499.59 473.05L498.83 480.1L503.07 484.32L493.8 487.51L488.13 493.27L490.88 496.16L477.61 505.22L477.32 514L473.58 520.7L465.84 525.03L450.75 523.23L455.28 515.26L449.89 501.09L452.54 501L457.89 488.21L449.93 476.55L438.96 473.56L438.69 470.36L439.33 466.23L444.25 462.67L444.54 453.19L448.72 449.45L444.62 441.32L448.12 440.66L450.65 430.26L454.72 434.37L453.88 424.78L459.44 419.64L455.65 414.73L447.63 414.34L445.92 410.04L433.51 419.67L431.06 427.2L420.03 435.25L417.39 440.84L421.18 445.49L418.17 453.13L419.86 462.19L401.46 464.84L390.43 470.12L387.2 475.73L369.51 478.41L371.83 473.56L365.97 461.34L365.04 446.94L361.38 445.67L360.45 428.2L363.33 423.82L355.84 410.04L362.43 405.32L361.99 396.71H362.67L363.06 391.74L363.21 390.71L360.45 388.7H358.54L356.66 387.61L352.44 392.37L341.25 383.67L349.32 377.11L355.16 377.66L357.28 372.68L362.74 371.32L363.7 366.73L374.57 368.55L379.14 361.47L383.25 361.41L386.15 365.3L400.72 362.05L398.05 352.69L399.76 345.85L402.93 344.35L398.97 340.4L402.6 339.18L405.27 332.57L396.36 327.46L401.81 317.65L399.18 311.55L400.74 309.69L394.71 312.8L393.95 309.6V308.59L397.72 296.88Z" fill="#C7C7C7" stroke="white" stroke-width="2"/>
<path d="M331.29 46.74L337.57 50.34L339.58 62.57L347.69 68.16L341.44 77.43L344.23 92.18L348.47 93.48L347.05 98L349.5 99.21L349.63 107.96L346.29 117.02L333.49 120.55L326.39 118.32L319.25 124.72L321.53 137.04L323.8 138.06L322.3 143.49L326.58 145.77L330.47 142.57L331.93 144.51L331.21 150.25L328.39 151.45L330.51 155.49L323.78 161.1L321.68 161.16L316.45 159.25L313.39 165.75L315.98 174.56L316.97 176.84L312.34 181.24L303.77 176.71L304.72 183.95L300.09 186.81L302.81 190.01L301.7 194.06L293.34 205.68L298.73 206.85L297.42 220.7L288.36 226.83L285.05 224.32L282.62 228.12L275.44 224.96L272.1 230.3L275.99 238.42L270.35 239.37L268.63 239.28L265.09 238.42L261.94 232.69L253.99 235.63L248.5 233L241.54 233.7L237.37 226.49L238.33 223.43L229.67 227.6L228.87 223.15L222.47 226.13L213.25 241.89L212.18 241.55L209.32 238.51L196.02 238.05L195.38 228.58L186.72 230.64L180.07 227.54L192.13 215.78L187.85 210.1L190.28 206.66L178.73 196.71L183.78 187.51L180.11 184.38L174.85 187.45L171.64 185.3L175.09 181.21L173.59 177.48L178.61 177.45L176.16 174.13L180.32 173.45L171.26 169.17L177.11 166.4L173.73 161.71L178.71 154.04L173.63 143.86H174.8L177.56 141.3L175.46 139.26L155.21 125.37L163.55 119.81L170.63 106.35L165.73 98.37L160.77 96.67L165.46 93.23L162.04 85.61L168.06 82.67L164.91 71.04L174.06 80.31L193.26 79.94L191 67.17L195.32 68.13L200.12 64.78L203.97 67.23L205.73 61.3L226.03 70.64L242 74.55L245.52 76.97L244.65 89.58L257.72 90.6L263.36 86.91L263.27 93.94L271.2 87.84L272.72 90.26L277.13 88.99L288.15 80.03L297.13 80.41L317.87 64.84L331.29 46.74Z" fill="#C7C7C7" stroke="white" stroke-width="2"/>
<path d="M476.19 145.34L481.77 143.92L484.36 149.9L488.35 148.48L491.09 151.53L495.99 148.75L495.35 141.62L502.74 140.69L510.58 148.59L505.08 151.27L504.67 148.62L502.53 149.7L504.28 156.95L495.41 160.46L494.77 168.38L488.19 173.74L492.47 181.68L494.98 180.23L497.63 184.05L501.66 181.77L505.63 180.26L506.23 182.81L512.34 182.66L516.02 185.71L514.21 193.89L509.89 193.31L506.33 202.69L505.14 213.01L508.12 214.64L509.5 214.7L501.21 221.64L502.51 228.51L500.89 230.6L499.68 235.41L503.2 237.22L499.45 245.34L493.4 245.95L488.44 240.71L488.93 235.87L483.77 232.71L476.48 226.64L465.43 234.89L461.79 232.87L461.81 227.04H460.33L448.06 228.79L448.02 224.86L443.6 224.58L439.44 217.95L433.33 215.4L426.46 216.81L424.61 220.83L423.83 218.74L420.19 220.7L410.43 217.69L409.42 225.91L412.92 231.03L408.8 235.02L402.91 235.48L401.24 228.49L397.19 233.67L387.66 236.12L387.52 239.58L381.16 235.07L381.34 231.05L357.88 239.24V243.07L353.7 242.98L350.45 237.65L348.43 239.55L350.47 243.14L346.4 242.07L344.84 248.38H336.22L333.32 251.6L325.6 245.6L320.09 246.21L315.32 238.95L304.64 246.24L301.88 244.52V243.81L296.84 250.12L295.13 247.91L277.76 251.77H276.46L268.19 251.13L263.93 245.31L265.08 238.38L268.62 239.24L270.33 239.33L275.97 238.38L272.08 230.26L275.43 224.92L282.61 228.08L285.04 224.28L288.35 226.8L297.41 220.66L298.71 206.81L293.32 205.64L301.68 194.02L302.79 189.96L300.07 186.76L304.7 183.9L303.75 176.67L312.33 181.19L316.96 176.79L315.97 174.51L313.38 165.7L316.43 159.2L321.66 161.11L323.76 161.05L330.49 155.44L328.37 151.4L331.19 150.2L331.91 144.46L339.87 142.7L352.75 147.7L352.11 150.94L359.23 146.59L357.81 151.65L361 152.7L362.11 157.36L373.33 154.25L378.54 158.6L380.58 153.33L388.34 158.2L392.27 154.56L398.63 158.72L401.78 158.07L402.95 152.67L418.24 148.26L422.73 151.44L420.8 156.31L427.8 147.89L433.19 148.38L439.18 143.97L444.24 152.54L459.86 149.27L466.18 144.61H467.09L473.14 141.93L476.19 145.34ZM351.7 186.01L350.45 186.29L347.67 188.26L346.6 188.88L343.25 191.99L339.98 196.82L340.49 206.25L335.49 206.5L334.93 209.26L332.97 211.81L333.09 212.18L333.58 211.69L340.17 215.01L344.7 213.66L350.13 225.02L360.01 228.33L375.22 221.24L377.75 220.17L380.51 219.92L376.81 215.93L373.72 215.59L372.96 213.41L377.71 210.37L374.77 201.37L367.51 196.54L370.37 193.1L368.99 187.9L367.59 185.93L365.61 184.58L363.08 182.73L358.94 187.34L351.7 186.01Z" fill="#C7C7C7" stroke="white" stroke-width="2"/>
<path d="M162.4 42.08L165.5 52.67L160.6 58.6L163.92 62.64L162.19 63.85L164.91 71.04L168.06 82.67L162.04 85.61L165.46 93.23L160.77 96.67L165.73 98.37L170.63 106.35L163.55 119.81L155.21 125.37L175.46 139.26L177.56 141.3L174.8 143.86H173.63L178.71 154.04L173.73 161.71L177.11 166.4L171.26 169.17L180.32 173.45L176.16 174.13L178.61 177.45L173.59 177.48L175.09 181.21L171.64 185.3L174.85 187.45L180.11 184.38L183.78 187.51L178.73 196.71L190.28 206.66L187.85 210.1L192.13 215.78L180.07 227.54L175.07 232.02V233.21L169.66 234.01L160.63 245.29L153.77 241.61L150.13 231.25L141.63 232.32L133.38 227.94L125.13 231.06L119.84 220.67L115.06 221.77L112.35 219.47L106.83 226.13L102.28 223.7L97.2 227.08L94.42 225.76L96.46 223.61L92.4 222.75L93.6 216.58L90.8 214.25L78.41 219.44L83.02 225.51L75.22 228.3L75.34 230.64L70.18 231.89L66.82 229.22L66.76 231.43L65.05 229.75L59.85 232.75L61.7 235.73L59.66 237.41L65.28 244.31L63.92 246.08L60.86 241.33L55.22 243.48L49.74 240.14L47.95 232.63L37.07 219.84L36.84 214.43L28.07 213.42L26.28 210.84L19.8 213.79L16.03 202.82L12.85 202.36L15.31 197.6L14.66 187.45L14.22 182.75L11.05 180.81L19.14 172.28L14.33 159.06L7.84 155.27L2 128.55L44.87 104.56L105.33 62.54L126.26 53.51L123.52 46.96L126.77 43.35L124.45 45.9L127.49 49.69L130.25 47.92L126.85 52.21L128.81 50.59L129.12 53.98L130.46 50.16L132.37 51.43L131.07 49.32L134.33 50.16L132.93 45.44L131.44 46.4L133.77 44.22L129.18 43.1L134 44.29L134.98 50.31L162.4 42.08Z" fill="#C7C7C7" stroke="white" stroke-width="2"/>
</svg>
