<svg width="616" height="696" viewBox="0 0 616 696" fill="none" xmlns="http://www.w3.org/2000/svg">
<path d="M146.85 311.4L132.87 297.27L131.18 296.65L130.44 295.8L129.9 294.43L129.53 288.83L122.5 276.88L121.52 275.89L117.87 275.85L115.12 273.91L114.16 271.4L114.09 269.47L115.07 264.67L114.69 262.24L109.95 257.43L108.51 252.99L108.63 246.96L107.69 239.15L109.6 233.87L108.81 223.65L110.83 211.69L112.26 208.03L113.85 207.28L118.38 201.07L118.25 199.88L116.85 199.09L115.73 193.06L116.19 191.54L119.36 186.84L121.57 185.65L128.26 177.25L133.32 173.18L137.94 158.07L139.12 152.65L138.34 148.86L138.87 140.74L139.49 139.94L140.29 139.19L140.98 137.71L140.3 134.59L140.99 129.9L142.52 124.93L142.65 123.31L141.13 118.6L139.49 115.63L140.33 107.55L140.98 106.44L147.84 104.23L150.37 102.05L149.95 98.83L151.09 93.53L152.12 91.96L155.54 91.2L163.19 91.28L170.18 87.44L171.35 86.47L172.72 84.25L172.6 82.9L178.22 74.76L182.41 67.61L184 62.6L183.14 61.88L181.39 61.77L185.25 58.76L186.74 58.65L189.75 59.36L198.28 53.42L203.65 47.21L210.17 43.24L212.82 39.65L213.79 38.86L216.89 38.35L217.12 39.38L216.56 40.83L214.56 42.42L214.76 49.83L217.18 56.82L220.92 63.19L221.59 68.54L216.58 77.94L217.15 83.3L219.29 89.95L221.2 94.52L222.24 95.07L224.67 95.12L225.61 95.78L228.31 100.69L226.3 105.65L227.18 107.71L229.31 108.74L230.88 105L233.71 107.86L234.67 110.67L236 118.87L236.43 119.87L237.64 120.98L246.46 121.88L247.39 122.54L250.04 128.1L256.14 131.22L261.24 132.82L262.22 139.19L266.03 143.03L268.47 144.42L272.49 145.13L275.24 144.98L278.39 145.31L285.29 146.97L286.28 147.95L290.92 148.48L292.4 147.52L293.81 145.73L297.5 144L303.83 144.54L313.94 149.66L314.3 150.97L316.76 153.95L321.33 156.53L325.26 156.62L326.82 155.34L330.99 153.02L334.33 154.26L335.24 158.76L338.01 163.48L342.93 166.61L349.33 172.04L353.44 170.12L355.58 172.12L355.6 173.4L368.75 179.24L374.61 178.99L375.81 178.25L377.37 177.96L382.42 179.65L383.84 185.7L388.02 190.38L389.51 191.06L394.5 195.11L394.78 196.49L396.2 199.48L397.73 199.99L408.65 197.85L308.1 255.79L288.84 261.15L289.47 262.58L290.56 267.36L289.52 278.89L290.65 282.94L294 290.38L303.59 305.1L306.2 307.68L313.19 311.44L315.37 314.76L318.86 321.71L317.43 322.56L261.96 320.29L256.84 319.96L252.81 319.04L247.81 319.94L227.38 322.32L222.91 331.3L223.38 333.25L220.85 340.89L219.97 342.87L218.99 343.82L214.54 346.13L206.9 348.51L196.32 351.41L192.7 351.47L186.64 350.25L181.73 348.5L174.32 343.63L164.41 332.67L162.97 330.65L161.34 326.03L159.02 323.11L146.85 311.4Z" fill="#C7C7C7" stroke="white" stroke-width="2"/>
<path d="M154.9 431.43L150.94 422.43L145.86 415.68L143.09 413L136.49 408.27L144.46 404.08L141.38 388.53L134.69 378.51L138.66 370.72L140.99 370.28L144.86 370.17L146.72 369.49L147.55 368.69L148.57 366.81L149.68 359.56L149.82 357.39L148.23 354.42L147.13 347.86L146.72 342.7L142.01 333.76L140.36 331.93L140.11 318.29L140.69 316.88L142.77 314.52L146.85 311.4L159.02 323.11L161.34 326.03L162.97 330.65L164.41 332.67L174.32 343.63L181.73 348.5L186.64 350.25L192.7 351.47L196.32 351.41L206.9 348.51L214.54 346.13L218.99 343.82L219.97 342.87L220.85 340.89L223.38 333.25L222.91 331.3L227.38 322.32L247.81 319.94L252.81 319.04L251.65 322.49L251.98 326.88L253.05 329.87L254.01 335.27L255.05 346.36L252.02 354.96L249.61 359.02L247.7 363.85L247.89 368.28L248.49 370.21L252.13 377.48L267.67 387.63L270.17 389.63L275.89 396.58L276.41 397.64L276.18 401.38L270.02 401.41L267.03 403.67L266.99 406.24L266.26 407.72L258.16 419.49L254.81 422.99L251.84 425.43L251.44 426.59L251.58 428.37L255.23 432.41L263.04 445.12L265.78 453.87L266.53 454.64L268.03 455.19L271.95 458.27L272.53 463.36L269.96 467.04L268.33 464.14L266.27 464.25L264.34 466.32L261.13 467.4L259.35 467.41L255.65 465.4L252.37 460.2L246.53 458.07L243.2 458.01L240.61 459.18L235.69 462.8L233.92 464.82L234.36 466.28L234.27 467.61L227.69 464.53L224.6 462.6L224.05 460.1L219.32 454.23L212.76 449.12L208.36 444.27L204.46 439.06L201.2 435.96L196.13 432.27L192.6 430.6L189.84 431.22L186.88 427.82L185.46 425.11L184.45 424.55L181.47 424.14L177.12 425.06L169.15 431.19L167.53 431.45L163.43 430.99L154.9 431.43Z" fill="#C7C7C7" stroke="white" stroke-width="2"/>
<path d="M224.92 620.34L220.14 616.39L214.2 610.37L212.9 607.59L212.73 605.84L213.13 595.98L214.69 591.25L215.34 583.38L217.91 575.96L221.15 569.38L221.91 566.47L218.34 552.17L218.18 549.1L220.67 540.27L225.32 537.46L229.82 536.65L233.07 536.5L234.95 535.97L242.06 532.05L247.55 526.67L250.18 522.83L246.84 517.8L245.44 513L245.63 510.68L243.87 506.39L241.01 503.91L237.21 503.59L235.94 503.93L234.46 504.92L229.53 504.7L221.68 501.1L217.67 498.4L217.18 496.77L210.73 488.96L209.62 485.6L211.69 481.4L211.25 474.95L215.22 471.1L215.59 469.97L215.48 468.91L214.54 468.05L206.22 466.64L204.98 459.79L202.94 454.9L203.34 450.78L214.02 453.39L218.16 454.74L219.32 454.23L224.05 460.1L224.6 462.6L227.69 464.53L234.27 467.61L234.36 466.28L233.92 464.82L235.69 462.8L240.61 459.18L243.2 458.01L246.53 458.07L252.37 460.2L255.65 465.4L259.35 467.41L261.13 467.4L264.34 466.32L266.27 464.25L268.33 464.14L269.96 467.04L271.23 467.85L271.36 471.35L273.08 475.68L284.89 489.02L287.01 493.69L289.27 494.12L290.34 493.9L291.33 493.01L291.99 491.72L292.27 487.88L293.04 486.98L300.33 487.08L298.95 498.23L300.86 524.05L300.94 535.09L302.48 539.29L302.93 543.09L302.88 547.23L303.68 561.27L304.52 561.97L312.15 562.62L316.62 559.61L323.1 563.32L378.12 563.12L374.56 567.98L374.98 591.48L336.2 591.65L288.46 591.33L285.14 588.98L283.77 587.06L278.47 585.64L277.94 587.01L278.04 592.72L277.24 597.38L276.55 598.57L275.55 599.22L268.93 598.73L262.33 596.07L258.43 592.56L254.69 588.35L251.29 587.74L249.43 590.68L249.06 593.28L247.95 595.86L245.33 596.41L243.41 595.48L241.27 593.26L232.92 589L228.78 588.51L228.01 590.08L224.92 620.34Z" fill="#C7C7C7" stroke="white" stroke-width="2"/>
<path d="M146.85 311.4L142.77 314.52L140.69 316.88L140.11 318.29L140.36 331.93L142.01 333.76L146.72 342.7L147.13 347.86L148.23 354.42L149.82 357.39L149.68 359.56L148.57 366.81L147.55 368.69L146.72 369.49L144.86 370.17L140.99 370.28L138.66 370.72L134.69 378.51L141.38 388.53L144.46 404.08L136.49 408.27L133.79 405.35L131.66 401.74L130.39 400.64L128.96 400.31L127.02 400.65L120.73 402.69L113.69 406.79L107.84 411.28L97.97 417.64L97.88 418.98L98.83 420.71L99 422.36L98.09 424.05L96.71 424.73L95.05 424.47L84.69 416.74L77.84 413.7L75.79 413.23L68.63 413.11L62.4 413.7L59.01 415.03L55.91 417.04L50.11 424.17L44.22 428.87L41.12 430.44L34.99 432.02L31.34 433.88L28.38 433.41L20.44 430.8L19.22 428.04L18.91 426.19L19.05 422.67L17.19 418.48L10.55 412.56L9.92003 405.85L9.85003 399.21L5.33003 394.82L2.03003 394.39L3.91003 390.59L8.32003 386.14L14.63 383.11L15.61 382.1L18.95 375.46L25.44 367.7L29.7 364.22L34.5 361.36L34.4 359.92L33.51 358.83L33.04 355.65L33.4 351.75L35.59 348.96L43.53 345.53L43.99 344.08L43.27 342.62L40.52 341.85L36.73 337.96L32.87 337.89L31.56 338.92L28.06 338.65L27.07 338.1L24.34 335.25L13.89 307.34L18.35 297.84L21.59 292.02L25.24 288.63L26.56 288.71L27.91 288.25L28.21 286.86L25.15 283.27L20.25 279.16L15.89 273.21L16.73 264.7L17.8 263.62L19.46 262.96L22.57 258.84L22.78 255.15L23.25 253.73L35.92 242.82L35.13 240.64L35 236.13L35.81 235.25L42.29 233.62L40.24 224.92L37.09 222.61L36.38 221.53L34.41 212.49L31.96 208.19L36.17 200.89L37.08 197.83L37.11 185.76L36.72 180.28L36.97 173.11L36.47 171.84V164.82L41.2 159.27L44.43 158.02L48.05 150.4L51.57 146.11L53.35 145.98L61.46 141.88L63.52 138.58L65.03 134.05L66.97 132.36L70.64 130.1L71.17 128.98L71.08 124.39L71.44 123.03L72.32 122.02L74.52 120.84L83.4 118.12L85.71 116.72L86.48 115.35L124.19 132.25L139.49 139.94L138.87 140.74L138.34 148.86L139.12 152.65L137.94 158.07L133.32 173.18L128.26 177.25L121.57 185.65L119.36 186.84L116.19 191.54L115.73 193.06L116.85 199.09L118.25 199.88L118.38 201.07L113.85 207.28L112.26 208.03L110.83 211.69L108.81 223.65L109.6 233.87L107.69 239.15L108.63 246.96L108.51 252.99L109.95 257.43L114.69 262.24L115.07 264.67L114.09 269.47L114.16 271.4L115.12 273.91L117.87 275.85L121.52 275.89L122.5 276.88L129.53 288.83L129.9 294.43L130.44 295.8L131.18 296.65L132.87 297.27L146.85 311.4Z" fill="#C7C7C7" stroke="white" stroke-width="2"/>
<path d="M51.57 146.11L38.89 120.32L6.45996 66.78H10.57L14.33 66.1L31.28 67.6L42.74 70.1L47.13 69.44L46.89 76.28L50.22 76.15L56.48 74.54L59.2 72.3L65.26 70.18L68.21 69.63L71.39 68.24L79.27 56.99L79.56 55.6L80.41 54.24L82.47 52.77L84.67 51.94L92.32 51.77L94.76 52.2L98.55 54.63L100.52 53.7L101.95 49.89L105.24 45.31L106.61 44L113.32 40.8L119.51 36.59L119.68 34.78L124.62 34.19L126.75 34.79L132.11 31.99L141.35 22.97L148.08 17.85L153.17 15.7L154.62 13.52L162.25 12.3L164.38 12.65L177.59 8L182.51 6.9L187.84 7.11L199.24 6.64L206.29 9.92L208.14 9.93L210.84 6.82L211.02 5.16L214.55 2L216.33 2.36L217.84 3.23L221.63 10.29L219.88 15.62L220.19 20.55L221.53 23.45L222.27 29.4L221.14 33.01L217.78 36.38L216.89 38.35L213.79 38.86L212.82 39.65L210.17 43.24L203.65 47.21L198.28 53.42L189.75 59.36L186.74 58.65L185.25 58.76L181.39 61.77L183.14 61.88L184 62.6L182.41 67.61L178.22 74.76L172.6 82.9L172.72 84.25L171.35 86.47L170.18 87.44L163.19 91.28L155.54 91.2L152.12 91.96L151.09 93.53L149.95 98.83L150.37 102.05L147.84 104.23L140.98 106.44L140.33 107.55L139.49 115.63L141.13 118.6L142.65 123.31L142.52 124.93L140.99 129.9L140.3 134.59L140.98 137.71L140.29 139.19L139.49 139.94L124.19 132.25L86.48 115.35L85.71 116.72L83.4 118.12L74.52 120.84L72.32 122.02L71.44 123.03L71.08 124.39L71.17 128.98L70.64 130.1L66.97 132.36L65.03 134.05L63.52 138.58L61.46 141.88L53.35 145.98L51.57 146.11Z" fill="#C7C7C7" stroke="white" stroke-width="2"/>
<path d="M31.3401 433.88L34.9901 432.02L41.1201 430.44L44.2201 428.87L50.1101 424.17L55.9101 417.04L59.0101 415.03L62.4001 413.7L68.6301 413.11L75.7901 413.23L77.8401 413.7L84.6901 416.74L95.0501 424.47L96.7101 424.73L98.0901 424.05L99.0001 422.36L98.8301 420.71L97.8801 418.98L97.9701 417.64L107.84 411.28L113.69 406.79L120.73 402.69L127.02 400.65L128.96 400.31L130.39 400.64L131.66 401.74L133.79 405.35L136.49 408.27L143.09 413L145.86 415.68L150.94 422.43L154.9 431.43L154.17 432.96L149.91 434.43L149.04 435.24L148.54 439.85L148.82 442.14L149.79 443.41L152.83 444.65L155.88 444.19L159.81 445.12L159.37 446.31L157.29 447.59L155.43 448.25L152.2 450.52L151.53 457.7L153.78 462.79L154.64 463.95L159.9 468.27L165.6 470.46L168.31 470.55L171.14 471.47L172.54 472.61L174.95 480.03L176.38 483.27L178.72 486.69L184.25 493.12L184.42 494.2L183.55 495.38L182.12 495.8L171.37 496.69L167.86 496.6L164.41 497.18L160.39 499.5L153.44 506.07L151.29 507.47L108.15 526.34L101.27 529.25L99.3801 529.59L85.2301 524.54L69.1401 519.4L56.6801 514.84L63.1801 507.77L60.7601 504.33L57.7601 501.69L53.1701 499.71L46.0901 492.27L40.1701 488.18L36.8501 482.26L38.5101 478.53L35.1001 471.13L33.8901 466.66L33.4801 461.45L33.9401 457.4L33.1201 455.16L31.3601 452.58L30.5401 443.92L28.2901 441.36L27.6101 439.83L28.0801 438.48L30.9701 436.47L31.4301 435.49L31.3401 433.88Z" fill="#C7C7C7" stroke="white" stroke-width="2"/>
<path d="M224.92 620.34L225.04 622.48L224.1 625.57L223.29 627.03L222.26 627.83L220.66 632.12L220.29 634.35L223.07 637.49L226.43 642.78L228.14 650.22L227.26 650.47L206.65 650.76L203.69 651.24L199.03 651.3L195.86 649.21L190.15 641.74L182.51 636.26L175.17 633.49L174.51 634.37L171.73 647.25L170.94 649.51L169 651.66L155.33 655.73L151.68 655.96L149.27 657.66L147.52 665.65L147.35 668.47L139.7 671.24L134.85 673.73L135.35 679.72L129.71 684.36L126.73 689.91L106.78 694.24L95.98 692.98L91.79 690.26L91.4 683.99L93.13 675.41L88.95 661.6L89.44 660.17L89.46 658.29L88.36 651.01L86.93 648.61L85.71 647.89L81.26 643.27L81.14 636.85L80.25 631.58L78.56 627.36L76.17 624.27L76.04 607.42L64.17 588.17L60.05 588.11L58.74 587.5L57.31 585.63L57.03 584.49L57.06 577.17L58.88 574.7L61.74 572.72L62 571.64L60.72 570.26L57.85 568.26L53.81 566.72L50.71 564.92L49.01 563.09L47.62 560.58L47.49 557.88L48.49 556.74L50.07 555.98L49.19 550.63L46.9 545.21L45.98 544.04L46.36 542.69L52.75 540.95L56.42 540.79L59.16 533.47L56.96 529.07L50.77 524.21L50.9 522.14L56.68 514.84L69.14 519.4L85.23 524.54L99.38 529.59L101.27 529.25L108.15 526.34L151.29 507.47L153.44 506.07L160.39 499.5L164.41 497.18L167.86 496.6L171.37 496.69L182.12 495.8L183.55 495.38L184.42 494.2L184.25 493.12L178.72 486.69L176.38 483.27L174.95 480.03L172.54 472.61L171.14 471.47L168.31 470.55L165.6 470.46L159.9 468.27L154.64 463.95L153.78 462.79L151.53 457.7L152.2 450.52L155.43 448.25L157.29 447.59L159.37 446.31L159.81 445.12L155.88 444.19L152.83 444.65L149.79 443.41L148.82 442.14L148.54 439.85L149.04 435.24L149.91 434.43L154.17 432.96L154.9 431.43L163.43 430.99L167.53 431.45L169.15 431.19L177.12 425.06L181.47 424.14L184.45 424.55L185.46 425.11L186.88 427.82L189.84 431.22L192.6 430.6L196.13 432.27L201.2 435.96L204.46 439.06L208.36 444.27L212.76 449.12L219.32 454.23L218.16 454.74L214.02 453.39L203.34 450.78L202.94 454.9L204.98 459.79L206.22 466.64L214.54 468.05L215.48 468.91L215.59 469.97L215.22 471.1L211.25 474.95L211.69 481.4L209.62 485.6L210.73 488.96L217.18 496.77L217.67 498.4L221.68 501.1L229.53 504.7L234.46 504.92L235.94 503.93L237.21 503.59L241.01 503.91L243.87 506.39L245.63 510.68L245.44 513L246.84 517.8L250.18 522.83L247.55 526.67L242.06 532.05L234.95 535.97L233.07 536.5L229.82 536.65L225.32 537.46L220.67 540.27L218.18 549.1L218.34 552.17L221.91 566.47L221.15 569.38L217.91 575.96L215.34 583.38L214.69 591.25L213.13 595.98L212.73 605.84L212.9 607.59L214.2 610.37L220.14 616.39L224.92 620.34Z" fill="#C7C7C7" stroke="white" stroke-width="2"/>
<path d="M534.61 503.26L489.93 500.5L458.08 509.12L401.14 519.01L392.53 542.2L378.12 563.12L323.1 563.32L316.62 559.61L312.15 562.62L304.52 561.97L303.68 561.27L302.88 547.23L302.93 543.09L302.48 539.29L300.94 535.09L300.86 524.05L298.95 498.23L300.33 487.08L293.04 486.98L292.27 487.88L291.99 491.72L291.33 493.01L290.34 493.9L289.27 494.12L287.01 493.69L284.89 489.02L273.08 475.68L271.36 471.35L271.23 467.85L269.96 467.04L272.53 463.36L271.95 458.27L268.03 455.19L266.53 454.64L265.78 453.87L263.04 445.12L255.23 432.41L251.58 428.37L251.44 426.59L251.84 425.43L254.81 422.99L258.16 419.49L266.26 407.72L266.99 406.24L267.03 403.67L270.02 401.41L276.18 401.38L276.41 397.64L275.89 396.58L270.17 389.63L267.67 387.63L252.13 377.48L248.49 370.21L247.89 368.28L247.7 363.85L249.61 359.02L252.02 354.96L255.05 346.36L254.01 335.27L253.05 329.87L251.98 326.88L251.65 322.49L252.81 319.04L256.84 319.96L261.96 320.29L317.43 322.56L318.86 321.71L315.37 314.76L313.19 311.44L306.2 307.68L303.59 305.1L294 290.38L290.65 282.94L289.52 278.89L290.56 267.36L289.47 262.58L288.84 261.15L308.1 255.79L408.65 197.85L409.46 198.82L412.3 200.08L413.73 200.23L436.62 197.12L438.37 199.58L440.71 201.75L449.09 206.73L451.48 206.88L454.94 209.78L464.97 213.13L469.62 222.62L468.81 224.81L467.54 226.74L465.57 228.53L464.71 231.95L466.29 238.32L467.46 240.04L474.84 255.51L475.96 279.9L460.2 280.1L477.55 299.9L480.93 340.78L567.73 344.26L568.95 343.75L570.27 341.81L573.36 341.62L573.52 347.73L572.41 353.47L568.73 357L566.28 360.69L565.88 362.29L566.51 374.12L568.47 379.84L569.33 385.2L569.23 389.32L570.19 392.94L571.16 393.96L575.03 395.05L577.27 396.44L583.8 400.99L584.39 402.36L585.26 403.23L589.04 405.44L590.71 405.61L594.84 403.57L602.71 410.51L601.69 411.5L601 412.81L602.02 415.4L604.14 417.54L604.06 423.72L614.03 442.64L612.45 444.9L611.9 446.38L601.46 479.77L603.85 480.17L604.77 487.06L601.14 487.27L583.77 524.14L597.35 536.62L594.88 539.48L584.35 545.89L581.87 546.9L582.96 544.14L583.17 542.32L583.26 537.19L582.27 528.92L576.36 525.36L534.61 503.26Z" fill="#C7C7C7" stroke="white" stroke-width="2"/>
<path d="M355.68 658.28L355 658.13L349.57 653.72L348.19 651.59L347.77 646.27L346.94 645.2L290.26 645.39L287.64 650.46L280.9 667.57L278.58 670.83L276.04 673.14L274.51 676.11L273.17 680.34L272.97 686.26L272.09 690.5L271.33 692.03L270.23 692.53L269.73 691.08L269.51 686.95L268.98 685.31L264.43 680.25L264.32 678.71L264.9 676.78L263.99 673.22L260.75 667.49L259.7 659.45L257.4 656.89L252.81 654.84L251.19 655.2L238.39 651.17L237.44 650.26L227.26 650.47L228.14 650.22L226.43 642.78L223.07 637.49L220.29 634.35L220.66 632.12L222.26 627.83L223.29 627.03L224.1 625.57L225.04 622.48L224.92 620.34L228.01 590.08L228.78 588.51L232.92 589L241.27 593.26L243.41 595.48L245.33 596.41L247.95 595.86L249.06 593.28L249.43 590.68L251.29 587.74L254.69 588.35L258.43 592.56L262.33 596.07L268.93 598.73L275.55 599.22L276.55 598.57L277.24 597.38L278.04 592.72L277.94 587.01L278.47 585.64L283.77 587.06L285.14 588.98L288.46 591.33L336.2 591.65L374.98 591.48L375.09 594.52L355.68 658.28Z" fill="#C7C7C7" stroke="white" stroke-width="2"/>
</svg>
