<svg width="616" height="591" viewBox="0 0 616 591" fill="none" xmlns="http://www.w3.org/2000/svg">
<path d="M88.03 60.63L89.08 64.12L73 67.73L83.83 93.33L89.41 92.02L95.32 101.53L99.58 102.52L107.46 91.03L120.91 96.28L130.1 94.31L134.04 96.61L137.98 94.64L142.57 102.85L154.72 101.86L160.3 105.14L163.58 109.08L167.84 122.87L165.88 131.07L174.41 135.01V144.2L176.38 148.46L179.66 150.76L177.36 157.65L180.64 161.26L179.33 165.2L177.03 167.83L172.11 169.47L165.22 170.13L123.54 165.53L111.4 168.81L111.07 175.05L114.52 183.11L111.33 180.79L106.74 179.15L95.58 178.82L90.66 173.9L86.72 180.46L90.33 190.96L90 193.92L88.03 194.25L91.31 202.45L90.98 212.95L84.09 217.22L84.75 225.42L81.02 227.18L78.83 209L80.04 205.77L78.71 203.03L71.35 199.47L65.88 198.84L64.62 195.02L68.44 195.41L72.24 193.47L69.02 189.41L68.91 183.64L67.33 182.55L69.27 176.43L66.66 169.13L51.45 160.92L48.07 154L48.85 152.71L52.89 152.82L52.48 148.79L55.42 148.44L51.7 139.3L42.87 134.9L39.85 126.34L34.45 124.06L30.59 118.64L24.61 120.94L23.31 123.36L17.96 124.17L16.32 120.79L11.68 118.42L2 103.25L3.02 100.75L8.4 100.59L12.87 96.61L7.6 91.57L5.72 78.69L7.93 69.99L13.19 69.02L12.91 61.96L6.85 49.01L12.55 37.92L9.38 25.89L16.71 16.58L19.52 17.08L21.9 13.01L29.92 14.67L29.7 12.32L34.38 11.77L34.59 15.62L36.58 17.81L42.89 13.63L49.63 17.37L50.34 20.74L48.24 24.23L53.09 24.61L54.09 29.14L56.24 29.39L58.72 35.07L59.57 40.97L69.88 45.85L81.12 56.67L82.38 60.91L88.03 60.63Z" fill="#C7C7C7" stroke="white" stroke-width="2"/>
<path d="M458.25 44.79L454.65 47.24L454.7 48.81L462.56 50.33L462.31 44.48L465.5 42.29L467.3 45.76L464.39 48.96L474.97 58.91L473.7 63.76L478.28 62.72L483.99 63.98L482.68 70.1L479.43 70.51L479.1 71.82L472.54 74.12L470.57 73.79L466.3 72.15L444.64 59.35L435.95 49.04L441.54 49.5L442.92 53.05L443.47 49.03L445.61 46.67L442.5 43.93L443.11 42.45L447.88 44.84L449.29 48.24L450.62 45.83L448.98 42.1L454.91 45.02L458.07 41.84L458.25 44.79ZM404.01 37.61L407.45 37.23L410.3 40.35L425.1 38.58L432.89 48.22L428.22 49.19L426.25 52.47H424.61L424.94 56.74L419.69 54.44L418.38 57.72L413.46 56.41L410.51 61.66L405.92 62.64L407.23 57.06L395.09 49.84L390.79 45.36L394.24 41.38L392.36 37.45L394.77 33.85L400.97 32.19L404.01 37.61Z" fill="#C7C7C7" stroke="white" stroke-width="2"/>
<path d="M410.5 155.19L421.33 153.88L425.93 148.63L420.35 143.71L415.1 144.03L410.17 139.44L411.16 137.8L408.86 134.52L403.94 133.53L397.05 129.27L391.47 129.59L386.55 125.33L383.92 126.97L381.95 124.34L383.59 121.06L382.28 117.12L384.91 114.83L397.05 111.54L400.33 112.86L407.55 112.2L414.77 103.34L413.13 100.39L414.77 93.82L422.97 82.99L421.66 80.37L428.55 81.02L429.54 79.71L433.48 81.68L434.46 85.95L440.7 92.84L442.01 99.73L449.33 100.23L448.9 100.39L444.31 103.67L439.38 103.34L439.06 106.62L443.32 108.92L443.98 110.23L441.35 111.54L444.96 113.84L445.95 115.48L444.63 117.12L449.56 123.03L458.75 122.05L461.37 125L466.95 124.67L472.53 118.76L481.39 117.12L482.38 120.73L484.02 117.78H485.99L486.29 117.41L488.94 122.37L488.28 126.64L479.09 130.58L476.47 133.53L474.17 140.75L476.8 148.3L479.75 151.58L484.67 153.22L485 159.13L491.89 160.44L497.14 164.71L502.07 164.38L504.69 162.08L507.32 151.91L514.21 145.02L516.18 146.99L518.15 145.02L522.74 147.97L520.44 153.22L521.36 155.66L521.58 159.29L517.6 165.58L519.76 167.41L518.1 173.37L515.12 172.71V178.5L510.81 179.33L505.51 191.92L500.54 190.26L496.57 191.92L495.41 197.22L492.43 200.37L487.62 202.02L487.46 204.84L480 208.32L477.68 211.96L480 220.91L479.67 227.53L484.47 237.31L484.77 237.5L481.53 244.26L477.88 242.77L471.92 245.59L472.91 247.41L467.61 246.91L465.13 243.27L457.18 243.6L452.04 241.28L448.56 235.81L443.43 233.16L444.09 218.26L431.84 206.33L421.73 206.83L422.39 201.69L428.03 202.19L428.85 199.87L419.25 190.76L417.09 192.25L408.98 187.95L409.47 184.96L407.65 183.64L409.64 179L408.65 175.52L402.85 169.06L406.99 168.23L404.67 163.93L407.49 161.11L405 156.42L410.5 155.19Z" fill="#C7C7C7" stroke="white" stroke-width="2"/>
<path d="M485.79 244.59L486.3 247.99L480.33 252.46L480.67 254.45L471.56 256.77L468.57 261.41L462.28 264.22L457.14 269.19L454.83 268.2L450.85 265.05L450.19 269.52L444.56 267.37L443.89 263.39L436.94 257.6L432.63 259.58L432.13 262.07L426.83 264.39L428.82 267.53L427.99 271.01L425.84 271.18L422.36 266.54L422.03 268.86L416.89 271.68L417.56 280.79L411.76 281.12L412.75 283.77L409.77 288.4L400.5 286.58L398.01 288.24L396.19 286.58L393.54 289.9L398.18 300L397.18 304.14L390.06 301.32L388.57 302.65L386.58 302.15L379.13 299.17L379.63 295.03L373.99 293.87L373.66 292.38L376.31 290.39L369.52 287.74L368.03 276.81L360.08 270.35L357.26 270.18L357.93 268.69L355.11 268.53L360.91 265.55L358.76 262.73L357.26 261.41L355.11 263.56L349.15 262.07L346.5 259.09L347.49 255.77L345.5 253.95L346.17 251.96L341.36 246.83L337.22 248.15L332.75 244.18L332.09 239.38L327.78 239.04L325.46 234.9L326.95 232.92L324.97 231.76L326.46 229.77L325.96 226.13L331.59 222.65L330.43 217.84L326.62 214.53L327.95 212.21L323.31 208.4L323.14 204.92L318.51 203.43L315.23 198.18L318.28 194.57L322.55 193.26L323.86 189.32L337.97 186.7L346.18 182.76L350.45 177.84L352.09 168.65L350.12 160.12L345.52 153.55L339.62 139.44L343.23 132.88L342.97 132.57L349.46 125.33L351.43 127.63L362.26 126.31L366.86 129.92H370.46L370.14 138.13L373.09 143.71L371.45 145.02L375.06 147.97L373.75 152.24L374.73 158.15L383.59 153.22L388.51 152.9L396.06 152.57L397.38 154.86L404.6 156.51L405 156.42L407.49 161.11L404.67 163.93L406.99 168.23L402.85 169.06L408.65 175.52L409.64 179L407.65 183.64L409.47 184.96L408.98 187.95L417.09 192.25L419.25 190.76L428.85 199.87L428.03 202.19L422.39 201.69L421.73 206.83L431.84 206.33L444.09 218.26L443.43 233.16L448.56 235.81L452.04 241.28L457.18 243.6L465.13 243.27L467.61 246.91L472.91 247.41L471.92 245.59L477.88 242.77L481.53 244.26L484.77 237.5L486.96 238.96L484.97 241.45L485.63 244.59H485.79Z" fill="#C7C7C7" stroke="white" stroke-width="2"/>
<path d="M442.1 359.23L442.57 358.97L445.72 356.32L446.05 358.14L450.68 359.63L451.84 358.14L455.99 358.97L458.64 353.67L458.47 353.58L462.58 351.18L468.04 352.84L477.65 335.78L479.64 335.94L483.45 332.46L495.54 333.79L501.17 331.31L504.15 332.96L504.48 339.75L508.46 341.41L512.93 350.68L515.25 349.86L518.89 354.83L502.99 366.59L500.34 369.9L500.84 371.39L489.58 376.03L486.43 375.53L483.61 377.19L477.32 375.2L462.58 365.92L456.95 365.1L454.13 367.91L450.49 368.08L442.1 359.23Z" fill="#C7C7C7" stroke="white" stroke-width="2"/>
<path d="M386.71 302.18L387.58 305.71L386.42 307.21L389.4 308.86L387.25 310.68L386.42 314.99L381.78 316.81L381.12 318.63L378.63 317.31L371.34 325.26H364.39L360.58 327.41L358.76 324.1L355.28 323.44L353.29 327.41L348.49 326.25L344.35 318.63L344.18 314.82L340.2 312.67L340.04 309.36L337.39 307.7L335.07 309.52L332.59 308.7L332.75 306.21L327.78 309.03L329.44 312.17L326.62 313.17L324.3 311.68L319.17 315.16L318.01 313L316.52 316.15L310.22 316.81L309.23 319.96L299.89 312.01L287.96 313.17L287.13 311.18L280.51 314L277.53 310.19L271.45 309.16L271.55 309.11L269.58 306.48L270.89 304.19L267.61 304.52L267.94 298.61L263.35 295.33L262.03 292.04L257.77 296.64L253.5 294.01L254.81 292.04L252.19 289.42L249.56 279.9L246.61 274.65L244.64 274.32L244.31 270.06L242.34 269.73L240.64 264.81L240.47 264.95L244.44 258.57L243.79 237.89L238.54 232.64L233.28 213.28L228.03 208.36V203.44L234.6 198.18L232.96 186.04L234.93 183.74L238.86 184.07L244.44 187.35L250.68 185.39L251.99 182.1L259.21 185.39L269.06 193.59L269.71 198.84L278.9 201.47L280.87 205.73L289.08 204.75L300.56 206.72L307.78 200.48L311.39 200.81L314.67 198.84L315.23 198.18L318.51 203.43L323.14 204.92L323.31 208.4L327.95 212.21L326.62 214.53L330.43 217.84L331.59 222.65L325.96 226.13L326.46 229.77L324.97 231.76L326.95 232.92L325.46 234.9L327.78 239.04L332.09 239.38L332.75 244.18L337.22 248.15L341.36 246.83L346.17 251.96L345.5 253.95L347.49 255.77L346.5 259.09L349.15 262.07L355.11 263.56L357.26 261.41L358.76 262.73L360.91 265.55L355.11 268.53L357.93 268.69L357.26 270.18L360.08 270.35L368.03 276.81L369.52 287.74L376.31 290.39L373.66 292.38L373.99 293.87L379.63 295.03L379.13 299.17L386.58 302.15L386.71 302.18Z" fill="#C7C7C7" stroke="white" stroke-width="2"/>
<path d="M392.02 396.51L386.88 392.59L384.56 395.9L363.53 393.75L356.9 399.88L358.56 406.5L353.42 414.46L354.75 420.42L362.53 424.72L361.54 438.47L357.56 447.58L354.09 451.23L348.78 453.55L344.81 459.51L346.47 464.15L351.1 467.96L350.94 474.08L356.9 473.75L361.37 482.2L351.1 491.81L351.43 496.12L348.62 502.91L351.77 507.54L353.75 515.33L356.9 518.14L356.07 523.11L358.89 526.1L358.39 528.75L362.7 529.41L368 536.78L370.65 537.77L378.43 546.22L380.42 549.53L379.59 551.52L388.54 554.5L389.2 557.98L395.16 564.61L395.99 567.75L399.47 568.91L403.61 573.72L403.45 575.7L407.08 578.18L406.33 579.81L399.3 582.04L388.28 568.88L384.04 569.41L382.18 564.47L375.72 562.68L375.89 557.53L365.83 549.99L360.62 548.85L358.68 544.17L355.26 543.43L351.6 539.73L342.46 537.27L343.29 532.25L339.65 531.08L336.67 525.06L336.35 518.57L330.84 513.97L326.39 520.04L317.24 513.59L311.89 512.68L305.36 520.72L302.44 517.55L290.26 511.36L301.04 515.08L293.94 509.59L299.42 509.23L300.29 507.33L302.36 507.84L314.91 502.41L307.44 488.57L305.46 480.78L301.26 476.24L302.21 475L300.38 472.84L302.21 469.53L305.85 467.71L302.7 465.39V459.59L306.51 459.43V458.27L302.04 454.95L299.72 450.48H296.24L291.44 447V443.86L293.76 444.52L293.92 443.03L291.94 437.73L294.92 434.58L296.91 435.24L299.89 433.26L308.34 437.56L310.82 435.74L313.14 437.23L317.61 431.76L310.49 425.8L312.31 420.67L307.84 416.69L314.8 413.05L312.97 410.4L303.7 405.26L299.56 405.92L299.89 401.62L297.57 397.64L293.1 394.5L292.1 390.35L286.64 388.2L287.8 387.04L280.01 382.4L279.35 380.09L285.31 379.26L285.97 376.44L291.61 378.1L295.42 373.79L289.45 370.31L293.59 362.53L286.16 356.92L286.65 355.71L279.76 355.06L277.46 346.52L275.16 342.91L271.22 340.94L270.24 336.02L258.1 333.4L262.03 331.1L261.71 326.83L259.41 324.21L260.72 320.27L259.74 316.66L269.25 310.1L271.45 309.16L277.53 310.19L280.51 314L287.13 311.18L287.96 313.17L299.89 312.01L309.23 319.96L310.22 316.81L316.52 316.15L318.01 313L319.17 315.16L324.3 311.68L326.62 313.17L329.44 312.17L327.78 309.03L332.75 306.21L332.59 308.7L335.07 309.52L337.39 307.7L340.04 309.36L340.2 312.67L344.18 314.82L344.35 318.63L348.49 326.25L353.29 327.41L355.28 323.44L358.76 324.1L360.58 327.41L360.62 327.39L366.38 339.26L369.03 339.09L370.85 343.07L365.71 345.05L368.69 346.38L369.19 349.53L371.18 350.52L373.99 348.53L379.3 350.35L381.45 347.21L385.42 348.7L385.26 350.68L389.56 356.15H392.05L395.03 359.63L391.88 364.6L394.2 367.91L396.36 364.93L398.34 365.92L402.32 372.38L407.62 366.59L408.45 362.61L415.07 364.43L413.91 368.57L417.06 372.38L420.63 370.71L416.53 378.59L413.55 380.42L415.87 383.23L413.88 395.49L410.9 394L405.27 397.15L398.31 394.33L392.02 396.48V396.51Z" fill="#C7C7C7" stroke="white" stroke-width="2"/>
<path d="M301.26 476.24L271.11 458.03L271.61 453.2L268.59 447.4L264.02 443.72L255.91 442.2L254.64 435.43L242.59 412.81L247.24 400.04L246.51 396.04L243.13 391.4L238.12 388L224.97 388.28L213.93 377.4L214.45 375.4L220.03 377.04L221.67 375.73L225.93 378.03L231.18 375.73L236.44 377.37L239.39 375.08L241.69 376.39L241.36 379.34L244.31 380L245.3 378.03L250.22 379.67L266.63 367.53L268.6 371.47L273.19 373.11L277.46 366.87L279.43 366.54L281.4 361.29L285.99 357.35L286.16 356.92L293.59 362.53L289.45 370.31L295.42 373.79L291.61 378.1L285.97 376.44L285.31 379.26L279.35 380.09L280.01 382.4L287.8 387.04L286.64 388.2L292.1 390.35L293.1 394.5L297.57 397.64L299.89 401.62L299.56 405.92L303.7 405.26L312.97 410.4L314.8 413.05L307.84 416.69L312.31 420.67L310.49 425.8L317.61 431.76L313.14 437.23L310.82 435.74L308.34 437.56L299.89 433.26L296.91 435.24L294.92 434.58L291.94 437.73L293.92 443.03L293.76 444.52L291.44 443.86V447L296.24 450.48H299.72L302.04 454.95L306.51 458.27V459.43L302.7 459.59V465.39L305.85 467.71L302.21 469.53L300.38 472.84L302.21 475L301.26 476.24Z" fill="#C7C7C7" stroke="white" stroke-width="2"/>
<path d="M456.97 269.12L454.49 270.52L453.34 275.65L449.53 278.47L446.05 286.09L443.4 287.74L434.95 306.29L436.11 311.26L433.29 313.42L430.64 319.71L422.03 315.57L418.72 317.23L411.43 326.83L411.93 330.48L417.06 332.63L418.72 335.94L417.89 337.93L424.18 344.06L447.7 343.73L450.35 348.86L454.16 351.18L458.64 353.67L455.99 358.97L451.84 358.14L450.68 359.63L446.05 358.14L445.72 356.32L442.57 358.97L439.59 360.62L434.12 358.14L432.8 354.33L429.81 353.67L421.7 363.77L420.04 367.41L420.7 370.4L417.06 372.38L413.91 368.57L415.07 364.43L408.45 362.61L407.62 366.59L402.32 372.38L398.34 365.92L396.36 364.93L394.2 367.91L391.88 364.6L395.03 359.63L392.05 356.15H389.56L385.26 350.68L385.42 348.7L381.45 347.21L379.3 350.35L373.99 348.53L371.18 350.52L369.19 349.53L368.69 346.38L365.71 345.05L370.85 343.07L369.03 339.09L366.38 339.26L360.62 327.39L364.39 325.26H371.34L378.63 317.31L381.12 318.63L381.78 316.81L386.42 314.99L387.25 310.68L389.4 308.86L386.42 307.21L387.58 305.71L386.71 302.18L388.57 302.65L390.06 301.32L397.18 304.14L398.18 300L393.54 289.9L396.19 286.58L398.01 288.24L400.5 286.58L409.77 288.4L412.75 283.77L411.76 281.12L417.56 280.79L416.89 271.68L422.03 268.86L422.36 266.54L425.84 271.18L427.99 271.01L428.82 267.53L426.83 264.39L432.13 262.07L432.63 259.58L436.94 257.6L443.89 263.39L444.56 267.37L450.19 269.52L450.85 265.05L454.83 268.2L456.97 269.12Z" fill="#C7C7C7" stroke="white" stroke-width="2"/>
<path d="M213.93 377.4L210.95 376.15L209.01 377.59L196.67 361.29L190.89 356.08L187.5 349.61L175.17 338.76L170.86 331.23L163.07 329.07L157.53 320.83L156.81 312.34L143.27 302.23L138.06 294.87L130.75 290.33L129.88 284.73L124.37 275.19L114.31 273.68L112.71 263L103.68 263.19L101.98 259.24L97.81 255.59L96.72 250.84L88.25 243.71L82.64 235.05L81.02 227.18L84.75 225.42L84.09 217.22L90.98 212.95L91.31 202.45L88.03 194.25L90 193.92L90.33 190.96L86.72 180.46L90.66 173.9L95.58 178.82L106.74 179.15L111.33 180.79L114.94 183.42L128.4 193.59L134.63 203.11L143.82 209.34L154 211.97L166.14 224.11L169.42 224.44L175 229.36L179.59 229.03L182.22 231.66L180.25 233.96L184.52 237.24L186.49 242.16L203.55 255.29L208.8 264.81H212.08L218.98 269.73L238.01 267.1L240.64 264.81L242.34 269.73L244.31 270.06L244.64 274.32L246.61 274.65L249.56 279.9L252.19 289.42L254.81 292.04L253.5 294.01L257.77 296.64L262.03 292.04L263.35 295.33L267.94 298.61L267.61 304.52L270.89 304.19L269.58 306.48L271.55 309.11L269.25 310.1L259.74 316.66L260.72 320.27L259.41 324.21L261.71 326.83L262.03 331.1L258.1 333.4L270.24 336.02L271.22 340.94L275.16 342.91L277.46 346.52L279.76 355.06L286.65 355.71L285.99 357.35L281.4 361.29L279.43 366.54L277.46 366.87L273.19 373.11L268.6 371.47L266.63 367.53L250.22 379.67L245.3 378.03L244.31 380L241.36 379.34L241.69 376.39L239.39 375.08L236.44 377.37L231.18 375.73L225.93 378.03L221.67 375.73L220.03 377.04L214.45 375.4L213.93 377.4Z" fill="#C7C7C7" stroke="white" stroke-width="2"/>
<path d="M514.36 95.3L514.54 98.75L518.15 100.39L515.19 104.32L512.24 100.39L507.97 102.35L504.69 111.87L501.08 114.17L497.14 112.86V114.5L495.5 112.53L490.58 111.87L487.63 112.53V115.81L485.99 117.78H484.02L482.38 120.73L481.39 117.12L472.53 118.76L466.95 124.67L461.37 125L458.75 122.05L449.56 123.03L444.63 117.12L445.95 115.48L444.96 113.84L441.35 111.54L443.98 110.23L443.32 108.92L439.06 106.62L439.38 103.34L444.31 103.67L448.9 100.39L452.51 99.07L458.09 89.23L457.76 86.6L460.06 85.62L461.04 82.34L467.61 79.38L470.04 73.6L470.56 73.8L472.53 74.13L479.09 71.83L479.42 70.52L482.67 70.11L485.8 75.21L483.58 76.98L477.43 75.54L480.59 80.1L479.3 83.39L488.54 89.95L491.74 94.15L514.36 95.3Z" fill="#C7C7C7" stroke="white" stroke-width="2"/>
<path d="M545.02 156.6L540.79 154.54L541.45 151.91L533.9 148.63L529.31 150.6L525.37 155.85H521.43L520.44 153.22L522.74 147.97L518.15 145.02L516.18 146.99L514.21 145.02L507.32 151.91L504.69 162.08L502.07 164.38L497.14 164.71L491.89 160.44L485 159.13L484.67 153.22L479.75 151.58L476.8 148.3L474.17 140.75L476.47 133.53L479.09 130.58L488.28 126.64L488.94 122.37L486.29 117.41L487.63 115.81V112.53L490.58 111.87L495.5 112.53L497.14 114.5V112.86L501.08 114.17L504.69 111.87L507.97 102.35L512.24 100.39L515.19 104.32L518.15 100.39L514.54 98.75L514.36 95.3L526.57 93.23L529.82 89.33L534.54 87.7L544.35 79.99L547.66 81.03L549.6 85.54L556.07 81.95L560.04 84.02L564.17 83.01L570.56 87.19L573.41 87.13L574.67 91.77L576.66 92.1L574.11 96L571.37 95.29L572.98 98.4L570.23 102.07L566.27 101.96L565.97 107.69L562.72 109.67L566.96 109.98L567.88 112L563.63 113.8L567.49 119.69L566.22 121.73L563.47 120.81L565.11 129.08L559.71 131.76L555.29 141.82L555.82 143.67L550.92 148.22L551.34 151.75L546.72 153.72L545.02 156.6Z" fill="#C7C7C7" stroke="white" stroke-width="2"/>
<path d="M324.15 44.27L324.85 47.55L320.25 52.8L320.91 57.07L323.86 58.38L322.22 64.29L324.19 67.57L322.55 77.41L326.82 87.26L326.49 91.2L324.85 100.06H322.22L316.31 105.31L317.63 107.93L316.31 109.9L319.92 113.19L318.28 116.47L320.25 118.76L319.92 121.06L322.22 124.34L325.18 123.36L329.44 125.98L330.1 133.2L334.04 136.81L333.71 133.53L336.99 131.89V128.61L338.96 131.24L341.26 130.58L343.23 132.88L339.62 139.44L345.52 153.55L350.12 160.12L352.09 168.65L350.45 177.84L346.18 182.76L337.97 186.7L323.86 189.32L322.55 193.26L318.28 194.57L314.67 198.84L311.39 200.81L307.78 200.48L300.56 206.72L289.08 204.75L280.87 205.73L278.9 201.47L269.71 198.84L269.06 193.59L259.21 185.39L251.99 182.1L250.68 185.39L244.44 187.35L238.86 184.07L234.93 183.74L232.96 186.04L234.6 198.18L228.03 203.44V208.36L233.28 213.28L238.54 232.64L243.79 237.89L244.44 258.57L240.47 264.95L238.01 267.1L218.98 269.73L212.08 264.81H208.8L203.55 255.29L186.49 242.16L184.52 237.24L180.25 233.96L182.22 231.66L179.59 229.03L175 229.36L169.42 224.44L166.14 224.11L154 211.97L143.82 209.34L134.63 203.11L128.4 193.59L114.94 183.42L114.52 183.11L111.07 175.05L111.4 168.81L123.54 165.53L165.22 170.13L172.11 169.47L177.03 167.83L179.33 165.2L180.64 161.26L177.36 157.65L179.66 150.76L176.38 148.46L174.41 144.2V135.01L165.88 131.07L167.84 122.87L163.58 109.08L160.3 105.14L154.72 101.86L142.57 102.85L137.98 94.64L134.04 96.61L130.1 94.31L120.91 96.28L107.46 91.03L99.58 102.52L95.32 101.53L89.41 92.02L83.83 93.33L73 67.73L89.08 64.12L88.03 60.63L90.22 62.96L102.34 62.52L102.76 56.23L106.8 51.79L107.61 46.05L110 43.11L108.75 38.3L119.35 31.6L121.04 22.86L126.55 14.34L130.03 12.94L137.75 13.74L140.68 12.21L147.8 17.02L155.56 19.72L161.27 17.37L175.15 22.29L178.87 20.07L177.51 15.45L179.48 14.1L178.51 12.04L184.38 11.81L192.68 2L196.12 6.25L193.44 9.07L193.99 12.92L199.5 12.63L197.46 9.18L198.61 7.61L200.67 9.16L202.14 14.05L203.86 13.01L204.04 10.33L206.45 10.84L204.66 15.38L208.81 13.21L211.11 18.5L230.91 30.54L241.83 30.67L246.01 21.31L247.92 24.08L251.59 23.59L251.78 26.31L254.49 26.16L254.58 29.3L259.87 32.46L268.34 33.19L273.3 27.57L274.58 30.69L273.74 34.85L280.25 32.88L278.81 38.85L281.94 37.54L286.19 38.94L289.06 34.32L289.93 38.96L293.31 37.5L296.72 39.42L307.65 33.17L321.46 43.86L324.15 44.27Z" fill="#C7C7C7" stroke="white" stroke-width="2"/>
<path d="M449.33 100.23L442.01 99.73L440.7 92.84L434.46 85.95L433.48 81.68L429.54 79.71L428.55 81.02L421.66 80.37L422.97 82.99L414.77 93.82L413.13 100.39L414.77 103.34L407.55 112.2L400.33 112.86L397.05 111.54L384.91 114.83L382.28 117.12L383.59 121.06L381.95 124.34L383.92 126.97L386.55 125.33L391.47 129.59L397.05 129.27L403.94 133.53L408.86 134.52L411.16 137.8L410.17 139.44L415.1 144.03L420.35 143.71L425.93 148.63L421.33 153.88L410.5 155.19L404.6 156.51L397.38 154.86L396.06 152.57L388.51 152.9L383.59 153.22L374.73 158.15L373.75 152.24L375.06 147.97L371.45 145.02L373.09 143.71L370.14 138.13L370.46 129.92H366.86L362.26 126.31L351.43 127.63L349.46 125.33L342.97 132.57L341.26 130.58L338.96 131.24L336.99 128.61V131.89L333.71 133.53L334.04 136.81L330.1 133.2L329.44 125.98L325.18 123.36L322.22 124.34L319.92 121.06L320.25 118.76L318.28 116.47L319.92 113.19L316.31 109.9L317.63 107.93L316.31 105.31L322.22 100.06H324.85L326.49 91.2L326.82 87.26L322.55 77.41L324.19 67.57L322.22 64.29L323.86 58.38L320.91 57.07L320.25 52.8L324.85 47.55L324.15 44.27L332.79 51.77L338.49 52.81L349.87 44.95L349.27 39.02L354.25 37.46L357.55 30.8L361.24 29.36L365.25 35.27L367.64 31.31L370.88 31.91L373.12 36.51L370.82 39.16L377.25 44.7L390.78 45.37L395.08 49.85L407.22 57.07L405.91 62.65L410.5 61.66L413.46 56.41L418.38 57.72L419.69 54.44L424.94 56.74L424.62 52.47H426.26L428.23 49.19L432.9 48.22L435.94 49.06L444.63 59.36L466.3 72.16L470.04 73.6L467.61 79.38L461.04 82.34L460.06 85.62L457.76 86.6L458.09 89.23L452.51 99.07L449.33 100.23Z" fill="#C7C7C7" stroke="white" stroke-width="2"/>
<path d="M468.54 441.33L464.73 439.38L464.57 435.74L458.77 430.44L455.79 431.27L448.5 425.47L442.7 426.8L432.6 421.99V426.46L429.12 426.13L425.14 430.94L421 433.09L407.92 422.99L405.43 415.2L399.47 412.72L396.32 416.19L396.16 420.17L387.71 415.37L389.03 409.4L396.65 408.08L392.35 397.64L392.02 396.48L398.31 394.33L405.27 397.15L410.9 394L413.88 395.49L415.87 383.23L413.55 380.42L416.53 378.59L420.63 370.71L422.86 371.72L427.33 370.4L425.84 368.57L426.83 366.09L439.26 363.94L439.19 360.44L442.1 359.23L450.49 368.08L454.13 367.91L456.95 365.1L462.58 365.92L477.32 375.2L483.61 377.19L486.43 375.53L489.58 376.03L500.84 371.39L500.34 369.9L502.99 366.59L518.89 354.83L515.25 349.86L512.93 350.68L508.46 341.41L510.12 340.08L518.23 343.56L523.04 340.75L531.15 343.23L537.78 349.53L544.07 348.03L543.91 345.55L539.43 342.07L538.77 334.62L534.63 326.5L542.42 328.99L547.22 323.69L544.73 321.04L551.53 317.06L548.88 314.41L548.71 311.93L551.36 311.76L549.37 308.61L550.03 306.63L543.24 296.69L544.57 294.53L548.38 295.2L550.03 293.7L550.23 293.95L551.56 291.8L557.52 290.89L562.34 295.09L562.89 298.45L566.99 300.26L567.6 305.55L571.78 307.97L577.24 315.86L579.04 326.73L587.32 331.07L588.62 335.59L595.53 341.44L598.57 359.96L596.44 362L594.5 359.7L592.73 361.19L594.56 364.65L593.28 368.66L595.67 370.66L593.94 372.43L587.19 371.78L581.25 375.05L574.56 366.76L568.77 369.46L559.26 367.45L556.08 369.31L555.39 382.63L542.09 380.28L537.01 384.91L524.72 376.09L519.97 375.74L518.4 377.42L516.04 375.72L512.99 381.55L507.46 383.42V387.27L508.57 388.41L510.58 384.93L512.08 385.74L512.91 398.19L516.29 401.73L518.32 400.87L522.52 415.66L530.87 428.23L530.61 436.07L523.53 437.53L518.1 444.29L513.89 440.25L513.82 436.61L509.23 434.42L509.84 425.96L507.6 425.7L502.14 419.4L491.3 421.95L493.74 428.06L483.97 430.82L468.54 441.33Z" fill="#C7C7C7" stroke="white" stroke-width="2"/>
<path d="M439.19 360.44L439.25 363.93L426.83 366.08L425.84 368.56L427.33 370.38L422.86 371.71L420.71 370.38L420.05 367.4L421.71 363.76L429.83 353.66L432.81 354.32L434.14 358.13L439.19 360.44ZM487.46 244.59L501.21 253.37L504.19 254.36L507.34 252.04L507.51 250.05L515.29 258.5L517.61 256.35L519.93 260.49L522.58 260.82L521.92 263.14L531.86 267.94L534.84 273.57L541.13 277.88L543.28 285L547.75 290.8L550.03 293.69L548.38 295.19L544.57 294.53L543.24 296.68L550.03 306.62L549.37 308.61L551.36 311.76L548.71 311.93L548.88 314.41L551.53 317.06L544.74 321.04L547.22 323.69L542.42 328.99L534.63 326.51L538.77 334.63L539.43 342.08L543.9 345.56L544.07 348.04L537.78 349.53L531.15 343.24L523.03 340.76L518.23 343.58L510.11 340.1L508.45 341.43L504.48 339.77L504.15 332.98L501.17 331.32L495.54 333.8L483.45 332.48L479.64 335.96L477.65 335.79L468.04 352.85L462.57 351.19L458.46 353.58L454.15 351.19L450.34 348.87L447.69 343.74L424.17 344.07L417.88 337.94L418.71 335.95L417.05 332.64L411.92 330.49L411.42 326.85L418.71 317.24L422.02 315.58L430.63 319.72L433.28 313.43L436.1 311.28L434.94 306.31L443.39 287.76L446.04 286.1L449.52 278.48L453.33 275.66L454.49 270.53L456.97 269.13L457.14 269.2L462.27 264.23L468.56 261.41L471.54 256.77L480.65 254.45L480.32 252.46L486.28 247.99L485.78 244.59H487.46V244.59Z" fill="#C7C7C7" stroke="white" stroke-width="2"/>
<path d="M392.02 396.51L392.35 397.64L396.65 408.08L389.03 409.4L387.71 415.37L396.16 420.17L396.32 416.19L399.47 412.72L405.43 415.2L407.92 422.99L421 433.09L425.14 430.94L429.12 426.13L432.6 426.46V421.99L442.7 426.8L448.5 425.47L455.79 431.27L458.77 430.44L464.57 435.74L464.73 439.38L468.54 441.33L468.06 444.06L472.24 448.47L462.72 461.68L461.06 469.59L469.25 492.37L461.52 494.82L446.1 492.35L443.19 495.52L437.98 508.42L435.76 510.1L436.93 516.3L439.81 520.3L435.15 529.32L436.76 538.9L432.94 540.77L434.7 544.79L434.02 548.04L437.18 549.31L440.69 555.43L447.17 554.88L449.2 557.49L447.53 561.62L449.09 571.33L438.88 573.41L437.55 575.45L444.45 583.29L438.36 584.15L434.92 588.94L428.39 589.83L419.13 581.42L416.56 577.04L407.08 578.18L403.45 575.7L403.61 573.72L399.47 568.91L395.99 567.75L395.16 564.61L389.2 557.98L388.54 554.5L379.59 551.52L380.42 549.53L378.43 546.22L370.65 537.77L368 536.78L362.7 529.41L358.39 528.75L358.89 526.1L356.07 523.11L356.9 518.14L353.75 515.33L351.77 507.54L348.62 502.91L351.43 496.12L351.1 491.81L361.37 482.2L356.9 473.75L350.94 474.08L351.1 467.96L346.47 464.15L344.81 459.51L348.78 453.55L354.09 451.23L357.56 447.58L361.54 438.47L362.53 424.72L354.75 420.42L353.42 414.46L358.56 406.5L356.9 399.88L363.53 393.75L384.56 395.9L386.88 392.59L392.02 396.51Z" fill="#C7C7C7" stroke="white" stroke-width="2"/>
<path d="M557.52 290.89L551.56 291.8L550.23 293.95L547.75 290.81L543.28 285.01L541.12 277.89L534.83 273.58L531.85 267.95L521.91 263.15L522.57 260.83L519.92 260.5L517.6 256.35L515.28 258.51L507.5 250.06L507.33 252.05L504.19 254.37L501.2 253.37L487.46 244.59H485.63L484.97 241.45L486.96 238.96L484.47 237.31L479.67 227.53L480 220.91L477.68 211.96L480 208.32L487.46 204.84L487.62 202.02L492.43 200.37L495.41 197.22L496.57 191.92L500.54 190.26L505.51 191.92L510.81 179.33L515.12 178.5V172.71L518.1 173.37L519.76 167.41L517.6 165.58L521.58 159.29L521.36 155.66L521.43 155.85H525.37L529.31 150.6L533.9 148.63L541.45 151.91L540.79 154.54L545.02 156.6L546.98 161.16L543.27 167.05L536.85 166.81L534.82 171.51L536.79 173.85L539.5 185.89L539.04 191.5L533.28 195.3L532.33 199.82L532.74 201.72L534.49 201.85L533.22 204.27L534.14 206.89L537.21 208L536.66 212.71L542.31 219.72L549.51 218.59L550.79 222.97L553.27 224.65L560.06 221.55L567.02 222.66L567.65 226.78L570.84 230.94L570.09 233.79L572.55 236.7L572.69 241.81L580.13 244.84L581.87 250.23L585.86 252.64L590.71 249.1L591.64 250.92L589.93 255.46L593.26 256.33L595.91 263.19L602.87 266L605.86 270.99L607.3 270.57L608.27 266.06L610.34 266.52L610.88 270.31L613.92 270.75L612.46 273.94L613.42 278.04L604.61 281.7L604.92 284.8L600.85 287.16L598.6 291.02L583.33 290.65L579.35 288.79L577.02 290.19L571.36 285.45L569.12 285.64L564.58 282.44L558.24 281.85L553.42 277.8L553.31 284.6L557.52 290.89Z" fill="#C7C7C7" stroke="white" stroke-width="2"/>
</svg>
