<svg width="616" height="591" viewBox="0 0 616 591" fill="none" xmlns="http://www.w3.org/2000/svg">
<path d="M458.33 44.79L454.73 47.24L454.78 48.81L462.64 50.33L462.39 44.48L465.58 42.29L467.38 45.76L464.47 48.96L475.05 58.91L473.78 63.76L478.36 62.72L484.07 63.98L482.76 70.1L479.51 70.51L479.18 71.82L472.62 74.12L470.65 73.79L466.38 72.15L444.72 59.35L436.03 49.04L441.62 49.5L443 53.05L443.55 49.03L445.69 46.67L442.58 43.93L443.19 42.45L447.96 44.84L449.37 48.24L450.7 45.83L449.06 42.1L454.99 45.02L458.15 41.84L458.33 44.79ZM404.09 37.61L407.53 37.23L410.38 40.35L425.18 38.58L432.97 48.22L428.3 49.19L426.33 52.47H424.69L425.02 56.74L419.77 54.44L418.46 57.72L413.54 56.41L410.59 61.66L406 62.64L407.31 57.06L395.17 49.84L390.87 45.36L394.32 41.38L392.44 37.45L394.85 33.85L401.05 32.19L404.09 37.61ZM35.1 12.41L34.68 15.62L36.43 17.79L42.19 13.45L49.29 16.95L50.42 20.73L48.32 24.23L53.17 24.61L54.17 29.14L56.31 29.38L58.8 35.06L59.65 40.96L69.96 45.84L81.2 56.67L82.47 60.91L88.12 60.63L89.17 64.12L73.09 67.73L83.92 93.33L89.5 92.02L95.41 101.54L99.68 102.52L107.56 91.03L121.02 96.28L130.21 94.31L134.15 96.61L138.09 94.64L142.68 102.85L154.82 101.87L160.4 105.15L163.68 109.09L167.95 122.87L165.98 131.07L174.51 135.01V144.2L176.48 148.47L179.76 150.77L177.46 157.66L180.74 161.27L179.43 165.21L177.13 167.84L172.21 169.48L165.32 170.14L123.64 165.55L111.5 168.83L111.17 175.07L114.62 183.13L128.5 193.61L134.74 203.13L143.93 209.37L154.1 212L166.24 224.14L169.52 224.47L175.1 229.39L179.69 229.06L182.32 231.69L180.35 233.99L184.62 237.27L186.59 242.19L203.66 255.32L208.91 264.84H212.19L219.08 269.76L235.49 268.45L240.58 264.98L244.55 258.6L243.89 237.92L238.64 232.67L233.39 213.31L228.14 208.39V203.47L234.7 198.22L233.06 186.08L235.03 183.78L238.97 184.11L244.55 187.39L250.79 185.42L252.1 182.14L264.57 188.7L269.16 193.62L269.82 198.87L279.01 201.5L280.98 205.77L289.18 204.79L300.67 206.76L307.89 200.52L311.5 200.85L318.39 194.61L322.66 193.3L323.97 189.36L338.08 186.73L346.29 182.79L350.56 177.87L352.2 168.68L350.23 160.15L345.64 153.59L339.73 139.48L343.08 132.61L349.58 125.37L351.55 127.67L362.38 126.36L366.97 129.97H370.58L370.25 138.17L373.2 143.75L371.56 145.06L375.17 148.01L373.86 152.28L374.84 158.19L383.7 153.27L396.17 152.61L397.48 154.91L404.7 156.55L421.44 153.92L426.03 148.67L420.45 143.75L415.2 144.08L410.28 139.49L411.27 137.85L408.97 134.57L404.05 133.59L397.16 129.32L391.58 129.65L386.66 125.38L384.03 127.02L382.06 124.39L383.7 121.11L382.39 117.17L385.02 114.87L397.16 111.59L400.44 112.9L407.66 112.24L414.88 103.38L413.24 100.43L414.88 93.87L423.09 83.04L421.78 80.41L428.67 81.07L429.65 79.76L433.59 81.73L434.57 86L440.81 92.89L442.12 99.78L449.44 100.28L449.01 100.44L444.42 103.72L439.5 103.39L439.17 106.67L443.44 108.97L444.1 110.28L441.47 111.59L445.08 113.89L446.06 115.53L444.75 117.17L449.67 123.08L458.86 122.1L461.49 125.05L467.07 124.72L472.65 118.81L481.51 117.17L482.49 120.78L484.13 117.83H486.1L486.41 117.46L489.06 122.42L488.4 126.69L479.21 130.63L476.58 133.58L474.28 140.8L476.91 148.35L479.86 151.63L484.78 153.27L485.11 159.18L492 160.49L497.25 164.76L502.17 164.43L504.8 162.13L507.43 151.96L512.35 145.72L514.32 145.06L516.29 147.03L518.26 145.06L520.56 146.37L522.86 148.01L520.56 153.26L521.69 159.33L517.71 165.62L519.86 167.44L518.2 173.4L515.22 172.74V178.54L510.91 179.37L505.61 191.96L500.64 190.3L496.66 191.96L495.5 197.26L492.52 200.41L487.72 202.07L487.55 204.89L480.1 208.37L477.78 212.01L480.1 220.95L479.77 227.58L482.75 235.36L487.06 239L485.07 241.48L486.4 248.02L480.44 252.49L480.77 254.48L471.66 256.8L468.68 261.44L462.39 264.26L454.6 270.55L453.44 275.68L449.63 278.5L446.15 286.12L443.5 287.78L435.05 306.33L436.21 311.3L433.39 313.45L430.74 319.74L422.13 315.6L418.82 317.26L411.53 326.87L412.03 330.51L417.16 332.66L418.82 335.97L417.99 337.96L424.28 344.09L447.8 343.76L450.45 348.89L458.57 353.6L462.68 351.21L468.15 352.87L477.76 335.81L479.75 335.98L483.56 332.5L495.65 333.82L501.28 331.34L504.26 333L504.59 339.79L508.56 341.45L513.03 350.73L515.35 349.9L518.99 354.87L503.09 366.63L500.44 369.94L500.94 371.43L483.71 377.23L474.1 373.75L462.67 365.96L457.04 365.13L454.22 367.95L450.58 368.12L442.2 359.27L439.69 360.67L434.22 358.19L432.89 354.38L429.91 353.72L421.79 363.82L420.13 367.46L420.59 372.51L413.63 380.46L415.95 383.28L413.96 395.54L410.98 394.05L405.35 397.2L398.39 394.38L392.1 396.56L386.96 392.64L384.64 395.95L363.6 393.8L356.97 399.93L358.63 406.56L353.5 414.51L354.83 420.47L362.62 424.78L361.63 438.53L357.66 447.64L354.18 451.28L348.88 453.6L344.9 459.56L346.56 464.2L351.2 468.01L351.03 474.14L356.99 473.81L361.46 482.26L351.19 491.87L351.52 496.18L348.7 502.97L351.85 507.61L353.84 515.4L356.99 518.22L356.16 523.19L358.98 526.17L358.48 528.82L362.79 529.48L368.09 536.85L370.74 537.84L378.53 546.29L380.52 549.6L379.69 551.59L388.63 554.57L389.29 558.05L395.25 564.68L396.08 567.83L399.56 568.99L403.7 573.79L403.53 575.78L407.17 578.26L406.41 579.89L399.38 582.11L388.36 568.95L384.12 569.48L382.26 564.54L375.8 562.76L375.97 557.6L365.91 550.06L360.7 548.91L358.76 544.24L355.35 543.5L351.69 539.8L342.55 537.34L343.38 532.32L339.73 531.15L336.76 525.13L336.43 518.64L330.92 514.04L326.48 520.11L317.33 513.66L311.98 512.74L305.45 520.79L302.52 517.62L289.94 511.02L301.13 515.15L294.03 509.66L299.51 509.3L300.39 507.4L302.46 507.91L314.95 502.28L303.65 477.86L271.21 458.1L271.71 453.27L268.69 447.47L264.12 443.79L256.01 442.27L254.74 435.5L242.69 412.88L246.82 404.36L246.15 395.3L238.2 388L225.51 388.49L213.84 377.26L211.04 376.14L209.1 377.58L196.75 361.28L190.98 356.07L187.58 349.6L175.25 338.75L170.95 331.22L164.08 329.67L161.51 327.01L157.43 320.31L156.1 311.34L143.36 302.23L138.15 294.87L130.84 290.32L129.96 284.73L124.45 275.19L114.7 274.06L112.79 263L103.76 263.2L102.05 259.25L97.89 255.6L96.79 250.84L88.11 243.43L82.48 234.29L79.51 219.49L78.92 208.77L80.13 205.78L78.8 203.03L65.59 198.4L64.82 194.58L68.53 195.41L72.33 193.47L69.11 189.41L69 183.64L67.42 182.55L69.36 176.43L66.75 169.13L51.54 160.93L48.15 154L48.93 152.71L52.97 152.82L52.56 148.79L55.5 148.44L51.78 139.3L42.95 134.89L39.93 126.33L34.53 124.05L30.66 118.63L24.68 120.94L23.38 123.36L18.03 124.17L16.39 120.79L11.76 118.42L2 102.97L3.1 100.75L8.48 100.6L12.96 96.62L7.69 91.58L5.9 80.54L7.79 70.3L13.27 69.02L12.99 61.96L6.93 49.01L12.63 37.92L9.35 26.18L12.28 21.29L16.79 16.58L19.61 17.09L21.79 13.1L30 14.67L29.94 12.23L35.1 12.41Z" fill="#C7C7C7" stroke="white" stroke-width="2"/>
<path d="M549.681 85.54L556.141 81.95L560.111 84.02L564.011 82.94L570.631 87.19L573.481 87.12L574.751 91.76L576.801 92.66L574.191 96L571.451 95.3L573.061 98.4L570.311 102.07L566.351 101.96L566.051 107.7L562.801 109.68L567.041 109.99L567.961 112.01L563.701 113.81L567.571 119.7L566.301 121.74L563.551 120.82L565.191 129.09L559.791 131.77L555.361 141.83L555.891 143.67L550.991 148.23L551.411 151.76L546.391 154.21L544.731 157.89L547.051 161.17L543.341 167.06L536.411 167.52L534.851 172.09L536.871 173.86L539.311 182.3L539.341 190.43L533.361 195.32L532.371 200.67L534.561 201.87L533.291 204.29L534.211 206.91L537.281 208.02L536.731 212.73L541.771 219.25L544.511 220.3L549.141 218.4L550.861 223L553.541 224.72L560.131 221.58L567.091 222.69L567.721 226.81L570.911 230.97L570.161 233.82L572.621 236.74L572.761 241.85L580.211 244.87L581.951 250.26L585.941 252.67L590.791 249.13L591.711 250.96L590.001 255.5L593.331 256.37L595.971 263.23L602.931 266.03L605.921 271.02L607.361 270.61L608.331 266.1L610.401 266.56L610.951 270.36L613.941 270.6L612.531 273.98L613.481 278.08L604.671 281.74L604.981 284.84L601.801 286.34L598.231 291.15L583.381 290.69L579.411 288.83L577.081 290.24L571.411 285.49L569.171 285.68L564.631 282.47L558.291 281.88L554.771 278.02L552.811 278.54L553.361 284.63L556.511 290.39L562.391 295.11L562.941 298.47L567.041 300.29L567.651 305.57L571.831 307.99L577.291 315.88L579.091 326.75L587.371 331.09L588.671 335.6L595.591 341.45L598.631 359.97L596.501 362.02L594.561 359.71L592.791 361.2L594.621 364.67L593.341 368.68L595.731 370.68L593.991 372.45L587.251 371.8L581.301 375.07L574.621 366.78L568.831 369.47L559.321 367.47L556.141 369.32L555.081 382.88L550.091 380.69L542.691 380.24L536.401 384.95L524.791 376.11L520.031 375.77L518.471 377.45L516.951 375.6L513.051 381.58L507.531 383.45L508.031 388.25L510.641 384.96L512.141 385.78L512.971 398.22L516.351 401.76L518.391 400.9L522.581 415.69L530.941 428.26L530.671 436.1L523.601 437.56L518.171 444.33L513.961 440.28L513.881 436.64L509.301 434.46L509.911 426L507.671 425.74L502.211 419.44L491.371 421.99L493.811 428.1L484.051 430.86L468.401 441.61L468.131 444.09L472.311 448.5L462.801 461.72L461.141 469.63L469.321 492.41L461.591 494.86L446.181 492.39L443.271 495.57L438.061 508.46L435.841 510.14L437.011 516.34L439.891 520.34L435.231 529.36L436.841 538.95L433.021 540.82L434.771 544.84L434.101 548.09L437.261 549.36L440.771 555.47L447.251 554.92L449.281 557.53L447.611 561.67L449.181 571.38L438.961 573.46L437.631 575.49L444.531 583.33L438.441 584.2L435.001 588.99L428.471 589.88L419.211 581.47L416.641 577.08L407.161 578.23L403.521 575.75L403.691 573.76L399.551 568.96L396.071 567.8L395.241 564.65L389.281 558.02L388.621 554.54L379.681 551.56L380.511 549.57L378.521 546.26L370.731 537.81L368.081 536.82L362.781 529.45L358.471 528.79L358.971 526.14L356.151 523.16L356.981 518.19L353.831 515.37L351.841 507.58L348.691 502.94L351.511 496.15L351.181 491.84L361.451 482.23L356.981 473.78L351.021 474.11L351.191 467.98L346.551 464.17L344.891 459.53L348.871 453.57L354.171 451.25L357.651 447.61L361.621 438.5L362.611 424.75L354.821 420.44L353.491 414.48L358.621 406.53L356.961 399.9L363.591 393.77L384.631 395.92L386.951 392.61L392.091 396.53L398.381 394.35L405.341 397.17L410.971 394.02L413.951 395.51L415.941 383.25L413.621 380.43L420.581 372.48L420.121 367.43L421.781 363.79L429.901 353.69L432.881 354.35L434.211 358.16L439.681 360.64L442.191 359.24L450.571 368.09L454.211 367.92L457.031 365.1L462.661 365.93L474.091 373.72L483.701 377.2L500.931 371.4L500.431 369.91L503.081 366.6L518.981 354.84L515.341 349.87L513.021 350.7L508.551 341.42L504.581 339.76L504.251 332.97L501.271 331.31L495.641 333.79L483.551 332.47L479.741 335.95L477.751 335.78L468.141 352.84L462.671 351.18L458.561 353.57L450.441 348.86L447.791 343.73L424.271 344.06L417.981 337.93L418.811 335.94L417.151 332.63L412.021 330.48L411.521 326.84L418.811 317.23L422.121 315.57L430.731 319.71L433.381 313.42L436.201 311.27L435.041 306.3L443.491 287.75L446.141 286.09L449.621 278.47L453.431 275.65L454.591 270.52L462.381 264.23L468.671 261.41L471.651 256.77L480.761 254.45L480.431 252.46L486.391 247.99L485.061 241.45L487.051 238.97L482.741 235.33L479.761 227.55L480.091 220.92L477.771 211.98L480.091 208.34L487.541 204.86L487.711 202.04L492.511 200.38L495.491 197.23L496.651 191.93L500.631 190.27L505.601 191.93L510.901 179.34L515.211 178.51V172.71L518.191 173.37L519.851 167.41L517.701 165.59L521.681 159.3L520.551 153.23L522.851 147.98L520.551 146.34L518.251 145.03L516.281 147L514.311 145.03L512.341 145.69L507.421 151.93L504.791 162.1L502.161 164.4L497.241 164.73L491.991 160.46L485.101 159.15L484.771 153.24L479.851 151.6L476.901 148.32L474.271 140.77L476.571 133.55L479.201 130.6L488.391 126.66L489.051 122.39L486.401 117.43L487.731 115.83V112.55L490.681 111.89L495.601 112.55L497.241 114.52V112.88L501.181 114.19L504.791 111.89L508.071 102.37L512.341 100.4L515.291 104.34L518.241 100.4L514.631 98.76L514.451 95.32L526.661 93.24L529.911 89.34L534.621 87.71L544.021 80.07L547.321 80.62L549.681 85.54ZM193.551 11.75L194.321 12.97L197.071 11.77L199.431 12.79L199.451 10.51L197.541 9.18L198.681 7.61L200.751 9.16L202.221 14.05L203.941 13.01L204.111 10.33L206.521 10.84L204.851 15.47L208.891 13.21L211.191 18.5L231.281 30.6L241.911 30.67L246.091 21.31L248.001 24.08L251.681 23.59L251.871 26.31L254.581 26.16L254.671 29.3L259.961 32.46L268.431 33.19L273.391 27.57L274.671 30.69L273.831 34.85L280.341 32.88L279.061 38.89L282.031 37.54L286.291 38.93L289.151 34.31L290.031 38.95L293.411 37.49L296.821 39.41L308.041 33.22L321.561 43.85L326.141 44.76L336.051 53.11L343.481 50.11L349.961 44.94L349.371 39.02L354.501 37.32L357.321 31.2L360.511 29.43L362.871 29.94L365.341 35.27L367.301 31.6L370.701 31.64L373.221 36.35L370.921 39.16L377.351 44.71L390.881 45.38L395.181 49.86L407.321 57.08L406.011 62.66L410.601 61.68L413.551 56.43L418.471 57.74L419.781 54.46L425.031 56.76L424.701 52.49H426.341L428.311 49.21L432.981 48.24L436.031 49.07L444.721 59.38L466.381 72.18L470.121 73.62L467.691 79.4L461.131 82.35L460.141 85.63L457.841 86.61L458.171 89.24L452.591 99.09L449.411 100.25L442.091 99.75L440.781 92.86L434.541 85.97L433.561 81.7L429.621 79.73L428.641 81.04L421.751 80.38L423.061 83.01L414.851 93.84L413.211 100.4L414.851 103.35L407.631 112.21L400.411 112.87L397.131 111.56L384.991 114.84L382.361 117.14L383.671 121.08L382.031 124.36L384.001 126.99L386.631 125.35L391.551 129.62L397.131 129.29L404.021 133.56L408.941 134.54L411.241 137.82L410.251 139.46L415.171 144.05L420.421 143.72L426.001 148.64L421.411 153.89L404.671 156.52L397.451 154.88L396.141 152.58L383.671 153.24L374.811 158.16L373.831 152.25L375.141 147.98L371.531 145.03L373.171 143.72L370.221 138.14L370.551 129.94H366.941L362.351 126.33L351.521 127.64L349.551 125.34L343.051 132.58L339.701 139.45L345.611 153.56L350.201 160.12L352.171 168.65L350.531 177.84L346.261 182.76L338.051 186.7L323.941 189.33L322.631 193.27L318.361 194.58L311.471 200.82L307.861 200.49L300.641 206.73L289.151 204.76L280.951 205.74L278.981 201.47L269.791 198.84L269.131 193.59L264.541 188.67L252.071 182.11L250.761 185.39L244.521 187.36L238.941 184.08L235.001 183.75L233.031 186.05L234.671 198.19L228.111 203.44V208.36L233.361 213.28L238.611 232.64L243.861 237.89L244.521 258.57L240.551 264.95L235.461 268.42L219.051 269.73L212.161 264.81H208.881L203.631 255.29L186.561 242.16L184.591 237.24L180.321 233.96L182.291 231.66L179.661 229.03L175.071 229.36L169.491 224.44L166.211 224.11L154.071 211.97L143.901 209.34L134.711 203.1L128.471 193.58L114.591 183.1L111.141 175.04L111.471 168.8L123.611 165.52L165.291 170.11L172.181 169.45L177.101 167.81L179.401 165.18L180.711 161.24L177.431 157.63L179.731 150.74L176.451 148.44L174.481 144.17V134.98L165.951 131.04L167.921 122.84L163.651 109.06L160.371 105.12L154.791 101.84L142.651 102.82L138.061 94.61L134.121 96.58L130.181 94.28L120.991 96.25L107.531 91L99.6506 102.49L95.3805 101.51L89.4706 91.99L83.8905 93.3L73.0605 67.7L89.1405 64.09L88.0905 60.6L90.2805 62.93L102.391 62.49L102.811 56.2L106.851 51.76L107.661 46.02L110.051 43.08L108.801 38.26L119.391 31.56L121.081 22.82L123.851 16.84L127.031 14.05L137.801 13.7L140.731 12.17L147.851 16.97L155.611 19.67L161.321 17.32L174.371 22.32L178.861 20.2L177.561 15.4L179.531 14.05L178.561 11.99L184.431 11.77L192.761 2L196.201 6.25L193.621 8.84L193.551 11.75Z" fill="#C7C7C7" stroke="white" stroke-width="2"/>
<path d="M514.441 95.3L514.621 98.75L518.231 100.39L515.271 104.32L512.321 100.39L508.051 102.35L504.771 111.87L501.161 114.17L497.221 112.86V114.5L495.581 112.53L490.661 111.87L487.711 112.53V115.81L486.071 117.78H484.101L482.461 120.73L481.471 117.12L472.611 118.76L467.031 124.67L461.451 125L458.831 122.05L449.641 123.03L444.711 117.12L446.031 115.48L445.041 113.84L441.431 111.54L444.061 110.23L443.401 108.92L439.141 106.62L439.461 103.34L444.391 103.67L448.981 100.39L452.591 99.07L458.171 89.23L457.841 86.6L460.141 85.62L461.121 82.34L467.691 79.38L470.121 73.6L470.641 73.8L472.611 74.13L479.171 71.83L479.501 70.52L482.751 70.11L485.881 75.21L483.661 76.98L477.511 75.54L480.671 80.1L479.381 83.39L488.621 89.95L491.821 94.15L514.441 95.3Z" fill="#C7C7C7" stroke="white" stroke-width="2"/>
</svg>
