<svg width="112" height="102" viewBox="0 0 112 102" fill="none" xmlns="http://www.w3.org/2000/svg">
    <g id="g3183">
        <path id="Brazil" d="M41.62 91.42C42.39 90.62 43.12 90 43.9 89.09C44.54 88.13 45.38 87.29 46.02 86.44C46.49 86.5 46.67 85.5099 47.67 85.1199C48.27 85.1 48.47 83.9699 49.43 84.0799C49.95 83.6199 50.97 83.49 51.28 82.66C51.18 81.55 51.55 80.54 50.9 79.48C50.62 78.4 49.57 79.49 49.13 78.89C49.43 77.73 49.97 76.3299 49.85 75.09C49.58 73.64 47.93 75.3199 47.04 74.6799C46.8 73.4699 46.62 72.26 46.38 71.17C46.25 70.25 44.65 69.89 44.18 70.1C43.19 70.64 41.82 69.84 40.8 69.9299C40.62 68.8799 41.09 67.95 41.02 66.89C40.86 66.35 40.71 65.65 40.26 65C41.36 64.4 39.82 63.3399 41.14 62.0499C41.09 61.1599 42.41 59.86 41.41 59.01C41.57 57.82 39.88 58.01 39.63 57.01C38.97 56.04 40.69 54.49 38.89 54.97C37.42 54.64 34.52 55.7599 35.11 53.2399C33.82 51.6099 35.38 52.1399 34.82 50.2999C34.42 49.2599 34.74 48.0999 33.14 47.8699C32.47 47.57 30.91 48.4 30.42 47.1C29.79 46.52 28.35 46.77 28.01 45.64C27.09 45.84 26.29 44.8299 25.36 45.2999C24.52 45.1199 23.97 44.1699 23.23 43.7999C22.88 43.2099 22.39 42.8299 22.34 42.0199C22.68 41.2199 21.72 40.31 22.51 39.5C22.61 38.03 22.03 38.52 21.27 38.29C19.95 38.43 18.67 38.98 17.61 39.76C16.79 40.71 15.66 40.3599 14.94 41.4899C13.76 42.1799 13.47 41.09 12.02 41.3699C10.9 41.0999 8.87001 42.2999 9.20001 40.6099C8.85001 39.6799 9.81 37.31 9.09 37.78C8.09 38.9 6.83001 39.21 5.32001 38.98C5.56001 37.62 3.99001 37.3499 2.79001 37.4899C4.11001 36.6499 2.63999 35.7099 2.20999 34.9899C1.30999 34.1399 1.82999 33.4499 0.799988 32.7999C1.63999 32.3199 0.959989 31.18 2.26999 30.5C3.41999 30.12 2.65001 28.5599 3.39001 27.6199C3.37001 26.49 4.51999 26.4799 5.17999 25.8699C6.17999 24.8499 7.75999 25.2399 8.54999 24.7099C8.99999 24.1099 9.76999 24.2299 10.21 24.7099C11.39 25.1699 11.04 22.49 11.46 21.5C11.49 19.62 12.92 17.4199 11.72 15.8299C11.47 14.9399 9.66 13.62 10.91 12.54C11.75 11.89 13.04 13.02 12.89 11.84C12.21 10.91 10.44 11.91 11.15 9.86995C12.14 9.29995 14.33 10.05 15.29 9.59996C14.79 8.49996 16.49 10.3899 17.07 8.73995C18.51 9.07995 17.39 11.4399 19.01 11.3599C19.83 12.9099 20.91 11.47 21.88 11.67C21.57 13.21 22.77 11.31 23.18 11.1C24.35 10.28 24.98 10.8399 25.52 9.64995C25.42 8.80995 28.22 8.69995 26.94 7.95995C25.21 8.38995 25.58 6.62997 25.11 5.47997C25.43 5.01997 22.77 2.77996 24.2 3.71996C25.48 3.57996 25.73 4.38995 26.94 4.39995C27.4 3.52995 29.09 6.34995 28.73 4.27995C29.15 3.27995 30.41 4.04995 31.25 3.45995C32.03 2.90995 32.81 3.06996 33.42 2.28996C34.67 1.54996 33.52 0.699966 35.24 0.979966C36.48 1.24997 34.55 3.02996 35.88 2.84996C36.48 3.07996 36.92 4.12996 36.52 4.59996C36.1853 5.03872 35.9503 5.54511 35.8311 6.08391C35.712 6.62271 35.7116 7.18099 35.83 7.71996C36.55 8.46996 36 9.55997 36.94 9.91997C37.6 10.64 38.64 11.32 39.45 10.67C39.61 9.80997 40.76 10.2 41.54 9.77995C42.27 8.69995 43.06 9.29997 44.03 9.16997C44.93 9.51997 46.67 9.41994 45.27 8.32994C45.65 7.33994 47.07 8.21997 47.82 7.69997C48.59 7.46997 48.88 8.43997 49.93 8.63997C50.6784 8.39834 51.4488 8.23086 52.23 8.13997C52.79 9.20997 54.36 7.95994 54.44 6.85994C55.0129 5.64002 55.7719 4.51661 56.69 3.52995C56.94 4.90995 56.62 1.56996 57.61 3.96996C57.74 4.57996 57.81 4.98997 58.11 6.63997C58.55 7.23997 58.69 8.78996 58.91 8.68996C59.09 10.01 61.48 9.06995 60.77 10.84C60.37 10.94 60.72 11.54 59.39 12.38C58.96 13.84 57.24 13.7399 56.96 15.1799C55.94 15.7999 56.29 17.74 54.95 17.3699C53.09 18.2499 54.63 17.43 54.95 18.22C56.1 17.67 57.49 17.15 58.21 16.25C58.34 16.58 58.7 17.74 58.77 18.53C57.79 18.73 59.63 18.6899 59.62 18.8999C60.27 18.2199 61.33 19.15 61.84 18.39C62.5 18.85 61.34 20.35 61.5 20.64C62.2 20.13 62.55 17.8899 63.26 18.1499C63.43 17.6499 64.36 17.9 64.69 17.69C63.66 17.21 65.33 16.97 65.14 15.94C65.88 15.42 66.13 15.85 66.67 15.51C66.87 16.28 67.28 14.97 67.8 15.87C68.32 16.14 68.7 15.65 69.06 16.41C69.42 16.31 69.96 16.33 70.16 16.79C70.6333 16.87 70.9733 16.9533 71.18 17.04C71.95 17.44 71.72 17.3799 72.26 17.5199C71.86 19.1499 72.46 17.2899 73.07 17.8599C73.32 17.3399 73.77 18.8199 74.18 18.7099C73.68 20.3099 73.94 18.97 74.55 19.91C73.83 20.05 73.48 22.3599 74.06 21.7099C74.33 21.1499 75.13 19.2799 75.28 20.3599C74.31 21.2999 75.2 21.0599 75.78 20.3999C76.88 20.2799 76.98 19.4099 78.54 20.3599C78.99 20.6899 80.59 21.3599 80.47 20.7699C81.67 21.2099 82.15 21.4399 83.04 21.1499C85.06 20.4199 87.08 21.91 88.68 23.04C89.99 23.67 90.71 25.4 92.21 25.79C92.88 26.74 94.41 26.75 95.59 26.59C97.62 26.5599 97.36 29.0199 97.98 30.2699C98.04 31.6899 98.55 31.3999 98.28 32.8299C98.2579 34.3934 97.7782 35.9162 96.9 37.2099C96.25 38.5099 95.29 37.6999 95.73 38.4299C95.07 39.6599 93.97 40.27 92.95 41.17C92.13 41.77 92.37 42.1499 91.54 43.4899C90.97 44.5999 90.29 46.12 89.08 46.53C89.46 45.23 88.33 45.99 88.11 45.85C89.17 46.52 87.44 47.25 87.94 47.88C87.84 48.53 87.6 49.0299 88.09 48.7999C87.65 50.4699 87.89 52.24 88.2 53.89C87.84 55.39 87.14 56.97 87.55 58.51C86.05 59.41 85.89 61.2799 86.16 62.8999C85.64 63.6599 84.56 64.97 84.73 65.23C84.3 66.45 83.13 66.91 82.82 68.22C83.72 69.9 81.82 69.9499 80.84 70.7399C80.7 72.1399 79.75 72.14 78.31 72.16C77.18 71.62 77.94 71.16 77.12 72.25C74.84 72.42 76.32 72.56 76 72.04C75.05 72.39 74.53 71.91 73.74 72.51C74.68 73.43 72.88 72.96 72.37 73.78C71.87 74.38 71.41 74.2499 70.31 74.3999C69.71 74.9799 69.29 74.71 68.18 75.56C67.74 76.6199 65.46 76.8699 65.65 78.0199C64.67 79.1199 64.95 77.82 64.1 78.72C63.93 78.16 64.36 80.07 64.09 79.81C63.97 80.9799 63.51 80.9499 63.97 82.2099C64.01 83.1499 64.4 83.2499 63.92 84.1099C64.12 84.7999 64.12 86.28 63.53 86.72C63.66 86.22 63.06 87.86 61.99 88.22C59.87 90.47 59.62 94.0499 56.74 95.7099C55.82 97.0499 54.71 96.0399 55.98 95.9899C56.8421 95.4944 57.5249 94.7381 57.93 93.8299C58.44 94.2599 58.9 91.3399 59.03 92.2399C59.75 90.5399 57.88 92.62 58.03 91.67C57.17 90.82 57.1 91.48 57.82 91.97C57.2 92.92 57.07 92.67 56.96 93.8699C56.06 93.9699 55.53 95.18 55.39 95.17C55.01 95.71 54.92 96.64 55.25 96.89C54.24 98.13 54.22 100.06 52.61 100.9C51.27 101.96 51.58 98.96 52.57 98.67C52.62 98.05 51.17 97.0999 50.76 96.2399C49.68 96.2399 49.46 94.81 48.36 94.7C47.41 94.74 46.8 92.3199 45.96 93.8599C45.46 93.4999 45.04 92.0399 44.05 91.59C43.02 90.27 42.52 92.52 41.62 91.42ZM88.04 47.5199C87.48 48.3199 88.51 48.3199 88.04 47.5199V47.5199ZM88.86 46.32C88.16 46.29 88.6 47.43 88.86 46.32V46.32ZM80.34 20.72C79.93 20.48 80.45 21.16 80.34 20.72V20.72ZM76.39 19.6C75.56 19.95 76.65 20.31 76.39 19.6V19.6ZM62.3 18.3599C61.69 18.0099 61.98 19.3599 62.3 18.3599V18.3599ZM73.25 17.16C72.49 16.96 73.21 18.04 73.25 17.16V17.16ZM64.67 16.6499C63.84 16.7599 65.12 17.4199 64.67 16.6499V16.6499ZM65.03 16.03C64 16.59 65.58 16.85 65.03 16.03V16.03ZM65.63 15.5799C65.31 15.9799 66.09 15.6299 65.63 15.5799V15.5799ZM58.5 15.53C57.36 15.45 57.8 16.63 58.5 15.53V15.53ZM66.36 15.4299C65.67 15.0799 66.63 16.3399 66.36 15.4299V15.4299ZM57.59 15.53C57.69 16.4 56.56 17.69 55.68 17.53C56.42 16.96 56.24 15.5099 57.18 15.4299C57.34 15.1699 57.46 15.3 57.59 15.53ZM57.64 14.35C56.6 15.09 57.35 15.84 57.64 14.35V14.35ZM64.37 15.42C64.17 16.16 63.47 17.63 63.17 17.22C63.6 18.05 61.89 17.5599 62.15 18.0199C61.52 18.1899 61.05 18.52 60.16 18.42C59.44 18.75 58.33 18.1 58.61 16.92C59.59 17.26 58.05 15.47 58.87 15.57C58.39 13.83 60.68 14.3 61.71 14.59C62.79 14.17 63.54 14.4999 64.61 14.7399C64.71 15.0199 64.25 15.1 64.37 15.42ZM58.12 14.72C57.72 13.22 59.96 14.48 58.12 14.72V14.72ZM60.96 14.2399C62.06 12.9799 62.84 14.7999 60.96 14.2399V14.2399ZM58.96 13.82C59.09 12.66 60.04 14.78 58.96 13.82V13.82ZM60.31 13.23C59.83 13.63 60.26 12.91 60.31 13.23V13.23ZM60.45 13.25C62.32 12.35 61.35 14.3999 60.22 13.8999C59.03 13.8699 59.72 13.4 60.45 13.25ZM59.6 13.38C58.77 14.04 60.08 11.3 59.6 13.38V13.38ZM59.77 12.9599C60.05 11.5799 61.14 13.1899 59.77 12.9599V12.9599ZM60.04 12.12C59.28 11.72 61.44 11.59 60.04 12.12V12.12ZM60.37 11.7C60.23 11.37 61.26 11.17 60.37 11.7V11.7ZM59.41 8.73995C58.71 9.73995 60.54 9.27995 59.41 8.73995V8.73995ZM59.18 8.64995C59.53 8.24995 59.64 9.06995 59.18 8.64995V8.64995ZM64.44 83.8999C63.61 85.2 64.64 85.2 64.44 83.8999V83.8999ZM64.16 81.06C63.18 81.71 64.57 79.88 64.16 81.06V81.06ZM66.72 76.7099C65.34 77.6399 65.76 77.6899 66.72 76.7099V76.7099ZM69.68 74.67C69.12 74.53 69.83 75.03 69.68 74.67V74.67ZM72.45 74.6099C71.22 75.2499 72.42 73.2799 72.45 74.6099V74.6099ZM75.21 72.6199C73.81 72.7 75.49 72.7299 75.21 72.6199V72.6199ZM111.77 11.79C111.67 12.16 112.15 11.69 111.77 11.79V11.79ZM64.72 78.5199C64.61 79.3099 65.17 78.1799 64.72 78.5199V78.5199ZM98.22 33.1799C97.9 33.6399 98.56 33.4899 98.22 33.1799V33.1799ZM79.87 20.7C79.69 21 80.36 20.81 79.87 20.7V20.7ZM75.89 20.1C75.99 20.6 76.16 19.71 75.89 20.1V20.1ZM76.56 19.88C76.22 19.89 76.72 20.15 76.56 19.88V19.88ZM61.83 18.1199C61.35 18.4199 62.33 18.2599 61.83 18.1199V18.1199Z" fill="#D1DBDD" stroke="black" stroke-width="0.2" stroke-linecap="round" stroke-linejoin="round"/>
    </g>
</svg>
