<svg width="616" height="642" viewBox="0 0 616 642" fill="none" xmlns="http://www.w3.org/2000/svg">
<path d="M32.5 239.77L30.42 239.73L30.96 237.92L30.75 237.09L30.5 236.6L29.25 235.9L29.11 235.45L29.38 234.3L28.61 232.35L27.52 231.71L21.92 230.46L14.58 230.27L14.85 229.71L17.34 227.45L18.23 226.22L18.52 225.02L18.3 223.79L17.62 222.88L16.79 222.44L15.11 219.49L14.34 219.05L13.44 218.86L12.31 217.73L11.39 215.35L9.39003 213.82L8.41003 210.2L7.54003 208.56L5.66003 207.48L5.58003 206.31L6.39003 206.41L6.81003 205.89L6.88003 205.22L6.68003 204.8L4.56003 203.87L4.20003 203.21L2.03003 201.32L2.07003 200.95L2.69003 200.9L3.19003 199.58L3.18003 198.27L6.19003 197.88L6.69003 197.49L6.47003 196.14L5.30003 194.57L23.25 202.05L46.91 207.71L59.05 210.85L85.49 225.02L114 237.15L116.97 238.41L116.67 238.89L115.1 239.55L113.01 241.14L110.15 243.93L108.5 244.79L107.84 244.61L106.31 244.79L106.26 245.35L104.34 246.65L102.26 247.64L100.82 249.47L100.38 250.65L99.77 250.93L98.6 250.18L97.84 250.05L95.47 250.1L94.79 250.36L94.16 250.81L93.8 251.67L91.36 255.15L87.59 256.4L86.75 257.09L84.81 257.6L83.78 257.63L83.86 255.52L82.5 255.72L78.95 254.95L73.71 254.48L68.62 254.86L67.96 254.28L65.69 254.11L62.13 255.94L59.4 256.56L57.72 255.89L56.32 254.45L54.68 255.61L54.72 238.06L54.77 236.96L55.24 236.25L55.31 233.9L55.05 233.02L56.02 231.84L56.5 230.7L55.34 230.9L52.37 233.49L50.77 234.5L48.71 236.88L46.76 237.55L46.11 238.63L44.3 239.62L32.5 239.77Z" fill="#C7C7C7" stroke="white" stroke-width="2"/>
<path d="M563.94 232.3L563.74 231.57L562.32 230.79L561.87 230.88L560.85 230.59L560.31 229.19L561.63 228.12L562.27 227.03L564.44 226.27L566.82 222.98L566.91 222.29L567.73 221.69L568.73 222.91L570.4 223.21L571.48 223.09L574.03 225.11L575.93 227.23L577.71 228.28L579.62 228.76L582.12 228.11L585.26 228.4L586.43 228.29L588.29 227.23L589.45 227.28L591.26 226.17L593.44 223.88L593.56 223.43L595.11 222.19L597.11 221.95L599.35 222.8L601.91 221.51L603.38 221.32L605.3 222.13L608.2 222.4L608.47 222.61L605.69 227.57L601.14 232.7L597.56 236.28L594.52 240.86L591.19 243.74L590.19 245.77L588.87 247.56L588.27 246.25L584.68 244.02L584.22 243.99L582.56 243.2L580.8 241.75L579.5 239.3L574.08 236.23L570.4 235.28L563.94 232.3Z" fill="#C7C7C7" stroke="white" stroke-width="2"/>
<path d="M167.85 49.29L168.57 50.07L169.32 50.41L169.93 50.42L171.06 50L171.69 50.11L171.75 51.07L172.96 52.24L173.93 52.61L174.81 52.4L176.17 52.51L178.12 53.46L178.61 54.12L177.7 57.44L176.99 58.94L179.72 62.68L181.38 67.44L181.57 69.7L182.44 70.82L182.49 71.27L180.87 72.73L181.23 74.32L181.89 75.9L181.12 78.94L180.55 79.9L180.84 84.88L181.72 87.05L182.94 87.89L183.52 88.79L184.65 93.12L184.59 93.7L183.45 95.02L181.61 94.69L181.47 95.83L186.48 100.25L187 100.29L188.96 101.6L190.44 103.25L191.48 105.29L192.01 105.36L193.35 104.94L195.71 105.98L195.27 103.87L196.02 101.58L196.27 99.85L195.9 98.05L196.72 95.08L197.74 93.82L199.02 93.13L201.11 92.42L201.66 91.53L203.26 91.47L206.09 92.4L207.96 94.44L208.88 96.95L210.7 97.18L211.95 96.72L213.36 95.31L215.39 94.76L215.81 94.37L215.83 93.84L214.69 92.43L214.46 91.7L214.57 91.04L215.72 88.4L215.79 87.27L217.45 84.24L219.78 80.98L219.75 80.3L238.24 80.37L238.64 85.23L238.21 86.68L238.39 88.95L238.63 89.63L240.33 90.48L240.51 90.89L240.16 91.58L240.11 93.69L241.94 95.68L242.3 95.87L243 95.69L244.84 96.92L245.39 98.75L245.43 99.68L245.73 100.13L250.37 103.9L254.95 106.44L255.58 107.34L256.93 108.43L258.81 109.1L261.18 110.41L263.44 111.06L264.8 111.21L266.12 112.03L266.2 112.64L267.47 113.98L270.17 115.42L271.27 117.59L273.14 118.38L273.99 117.77L275.37 117.42L275.56 117.9L275.43 118.68L277.24 120.35L247.34 184.59L246.56 185.9L245.11 187.03L244.53 188L244.5 189.13L245.32 191.46L245.7 192.03L246.77 192.61L248.35 194.17L248.99 195.43L249.14 197.39L249.71 197.96L248.53 199.16L248.33 199.77L248.27 200.53L248.61 201.37L248.34 202.38L247.14 204.2L246.28 204.84L245.86 205.69L245.96 206.54L246.62 207.91L247.08 209.85L245.7 214.07L244.52 219.29L243.31 220.02L195.46 220.34L195.5 219.64L195.14 219.26L193.75 218.98L191.83 220.06L191.29 221.8L190.61 221.99L187.37 220.51L186.69 217.63L186.07 217.43L185.09 217.56L184.63 217.35L183.38 214.08L180.84 213.1L179.51 211.83L178.71 209.92L178.26 209.43L176.11 208.3L165.32 208.36L163.94 210.92L162.22 211.42L162.31 212.59L162.05 212.81L159.57 213.34L158.38 214.93L158.33 215.6L159.23 216.3L159.4 216.75L159.04 217.77L158.23 218.92L156.17 220.13L156.06 221.94L156.3 223.4L152.43 222.94L150.3 223.32L149.1 224.39L147.31 224.29L146.47 223.74L146.01 223.72L144.26 224.98L143.73 225.82L143.99 227.57L141.45 230.73L140.77 230.81L140.09 230.28L139.45 228.02L139.07 227.93L137.23 228.95L135.93 230.16L134.56 230.55L133.79 230.42L132.71 230.92L132.3 231.45L132.17 232.17L130.95 232.96L130.58 232.98L128.27 230.65L127.55 230.28L124.68 230.61L120.72 230.35L120.88 231.64L120.73 232.2L119.18 234.01L117.26 234.59L114 237.15L85.49 225.02L59.05 210.85L46.91 207.71L23.25 202.05L5.29998 194.57L5.22998 193.92L5.92998 191L7.14998 189.6L12.07 186.13L14.33 185.89L14.8 185.59L15.78 184.03L15.86 183L14.12 178.51L14.5 177.32L15.68 175.13L16.96 173.81L17.88 172.56L18.3 171.58L18.6 169.84L18.31 168.52L18.98 166.48L19.29 164.17L20.02 163.42L23.68 161.79L25.87 160.56L27.02 159.52L27.46 158.12L28.24 157.75L29.65 157.64L31.3 156.71L34.84 153.98L37.26 153.55L38.77 153.84L42.96 152.62L44.46 151.85L46.28 151.49L49.61 151.87L50.91 150.28L51.54 148.83L52.63 148.22L54.77 148.42L55.41 148.96L56.73 148.72L57.83 147.98L59.54 148.1L59.85 148.63L59.83 149.81L61.44 151.1L64.27 151.18L64.85 150.78L65.31 150L65.2 149.61L66.37 144.69L73.07 107.52L74.23 104.6L73.24 99.64L73.36 99.38L72.06 98.33L70.58 95.58L70.54 95.09L71.19 93.7L70.67 91.92L70.3 91.52L68.6 90.93L65.57 88.58L63.63 86.3L63.83 74.79L67.72 74.53L69.47 73.36L72.97 72.44L75.65 74.2L76.87 74.31L78.14 73.88L77.65 72.19L77.95 70.47L76.58 68.37L76.01 67.83L74.86 67.23L73.35 67.76L70.56 67.15L66.99 67.24L66.93 57.34L67.89 57.38L69.21 56.8L71.49 56.2L74.33 57.07L93.36 57.13L92.9 56.47L92.11 56.33L91.73 55.13L92.68 53.2L94.11 53.6L94.72 55.12L95.59 56.44L96.25 56.79L97.08 56.8L98.69 56.19L100.63 54.1L100.95 53.26L102.21 52.02L104.76 50.63L106.05 51.09L107.22 53.67L108.84 55.66L109.58 56.96L110.24 58.74L110.47 60.29L109.98 63.92L110.18 65.68L113.38 64.93L121.69 71.99L122.48 72.27L124.98 72.48L127.28 71.48L128.98 69.78L131.09 68.62L133.28 68.51L133.84 68.8L134.61 69.88L134.59 70.85L133.48 72.55L133.85 73.53L134.43 73.8L135.76 73.08L136.32 72.17L136.55 70.88L137.55 69.72L138.02 69.49L139.02 69.67L139.57 69.49L139.98 68.83L140.44 66.52L140.95 66.15L142.46 65.79L145.39 64.02L146.36 64.57L147.29 64.28L148.89 63.24L149.91 61.63L152.02 60.42L154.05 60.97L156.41 59.32L156.96 58.5L157.4 55.84L157.37 54.55L158.14 53.63L159.17 53.21L160.91 53.19L162.25 52.8L164.31 51.2L165.27 50.83L167.55 50.53L167.85 49.29Z" fill="#C7C7C7" stroke="white" stroke-width="2"/>
<path d="M347.01 101.7L346.07 101.64L345.3 101.98L344 102.1L341.21 101.42L339.76 100.39L339.33 98.89L337.46 97.5L337.35 96.2L337.56 95.51L337.25 93.93L336.92 93.46L335.97 93.27L335.56 92.33L335.64 89.9L332.71 86.62L331.93 86.98L331.11 86.79L329.61 83.31L329.74 81.73L329.15 79.92L328.53 79.36L327.86 77.85L327.67 75.74L328.1 72.6L327.93 72.27L325.36 71.54L323.34 69.28L322.58 66.45L322.77 65.73L323.45 65.5L322.96 64.32L322.28 64.35L319.44 61.69L318.5 61.83L318.12 62.25L316.79 62.39L315.95 62.12L315.15 61.14L314.01 60.3L312.82 60.18L312.33 58.9L311.66 58.1L309.73 57.05L308.44 56.56L305.05 56.19L303.97 56.48L302.8 56.46L302.49 55.92L302.25 54.48L302.5 49.94L303.12 48.64L302.75 46.34L302.13 45.77L302.48 45.56L303.47 45.86L303.46 46.67L303.17 46.85L303.51 47.82L304.98 47.76L305.8 47.99L306.15 48.89L306.99 49.6L309.24 50.38L312.53 51.13L315.29 49.35L315.64 48.59L317.37 47.42L318.2 47.13L318.89 48.07L321.6 49.01L322.68 48.89L324.4 47.88L324.52 47.46L324.84 47.49L326.3 48.79L326.1 49.66L328.47 49.49L328.98 49.99L329.93 50.16L330.55 50.15L331.46 49.67L333.13 48.17L334.91 47.07L336.66 44.77L337.03 43.77L336.83 43.23L339.96 36.73L340.07 34.91L341.18 33.61L341.91 33.42L345.51 27.63L345.74 26.48L346.58 25.28L348.37 23.73L349 22.07L351.11 20.93L351.58 20.01L352.62 19.43L353.18 20.89L354.06 22.25L352.39 17.45L352.32 16.16L352.5 15.83L355.87 18.25L357.01 19.46L357.92 20.68L358.44 21.87L358.47 23.45L358.91 23.76L359.23 23.28L359.61 23.18L359.82 23.58L360.03 31.47L360.69 35.34L363.4 41.39L366.06 50.33L369.38 55.33L370.39 55.68L373.66 55.6L376.44 56.54L377.73 57.39L378.5 60.04L378.34 63.37L377.05 64.33L375.32 64.76L374.94 65.09L376.73 64.94L377.77 64.52L378.05 64.75L378.17 65.34L378 66.07L372.97 70.13L371.8 72.23L369.65 73.64L367.71 77.36L364.8 80.86L364.1 81.32L363.16 81.23L361.71 81.75L359.63 84.73L358.29 84.8L357.54 85.7L356.07 87.38L355.1 89.6L353.98 91.47L353.14 92.12L350.13 95.57L349.77 97.97L349.94 99.77L347.99 101.58L347.01 101.7ZM370.37 54.71L369.92 54.38L368.82 52.52L368.89 51.64L369.12 51.23L370.78 50.78L371.21 51.17L372.04 53.44L371.05 54.54L370.37 54.71ZM372.86 72.32L372.46 72.07L372.38 71.36L373.49 70.26L374.37 70.11L375.62 70.35L376.08 70.24L376.52 69.6L376.57 70.19L375.6 71.63L374.61 72.13L372.86 72.32ZM376.3 69.45L375.52 69.22V68.66L376.24 67.62L377.49 67.52L377.67 67.87L377.57 68.38L376.3 69.45ZM369.11 51.03L368.35 50.53L368.61 49.7L369.49 49.53L370.35 49.85L370.36 50.58L369.11 51.03Z" fill="#C7C7C7" stroke="white" stroke-width="2"/>
<path d="M529.53 367.33L529.17 366.5L529.85 365.15L529.84 364.62L529.31 363.58L525.18 360.53L525.03 360.02L525.25 358.51L524.68 357.28L524.03 357.52L523.83 357.97L523.49 358.15L523.27 357.9L523.8 353.5L524.62 350.2L525.44 349.32L527.91 349.56L528.93 348.85V348.43L528.37 347.41L528.53 344.76L533.49 340.54L534.96 337.46L534.54 336.29L533.76 335.27L532.87 335.21L532.14 334.83L529.31 332.36L527.19 332.38L525 331.78L522.73 330.7L520 330.14L518.02 330L516.7 330.99L515.23 331.49L512.62 331.04L512.05 331.25L511.61 327.29L505.09 321.09L504.71 320.91L500.32 322.14L498.79 320.9L498.28 321.11L497.35 320.89L494.81 319.67L492.64 318.05L491.66 318.23L487.31 314.6L486.21 314.06L483.48 313.31L481.71 313.56L479.83 314.46L479.02 315.58L478.38 315.76L473.05 314.29L472.44 313.8L472.18 312.3L472.32 311.41L473.61 308.67L472.75 308.21L470.47 307.69L468.29 307.65L467.09 307.15L465.3 307.07L461.47 308.65L457.21 311.68L456.57 312.79L453.2 314.66L451.18 315.06L450.23 316.24L448.42 317.79L446.99 318.31L445.99 318.16L444.14 320.74L443.1 321.51L440.97 321.13L440.25 321.26L439.56 322.26L438.22 323.18L437.82 322.94L439.25 319.51L438.74 317.1L440.22 315.13L440.47 314.36L440.24 313.09L439.57 311.37L439.67 310.7L440.38 309.28L440.33 308.82L437.12 306.2L435.43 302.74L434.81 299.22L434.86 297.67L436.06 293.84L437.65 292.81L437.88 292.43L437.94 291.49L436.31 290.65L436.2 290.32L436.68 287.8L438.11 286.74L438.09 286.37L435.37 283.91L435.33 282.98L436.69 280.6L436.65 279.53L436.48 279.11L435.02 278.62L434.08 277.97L433.73 276.71L433.79 273.79L433.98 272.94L435.93 271.27L437.07 270.85L438.03 270.13L437.74 269.5L437.16 268.98L436.24 268.69L435.21 268.87L434.86 268.54L434.77 268.04L435.19 267.08L437.23 266.26L437.79 265.81L437.75 265.05L435.87 264.07L432.29 263.4L430.43 261.44L430.2 260.52L430.7 259.36L431.71 258.63L433.23 255.15L434.13 254.54L435.14 254.27L435.49 253.89L434.2 252.09L434.39 251.72L437.6 249.1L441.42 247.08L441.98 246.61L442.2 245.63L442.89 244.98L445.22 244.96L446.66 246.3L447.32 247.34L447.85 249.55L449.61 252.04L453.79 253.9L455.59 253.38L457.7 253.56L458.03 253.35L458.78 251.9L459.92 251.53L460.59 250.66L461.76 249.77L463.97 249.02L465.3 249.19L466.78 249.72L468.13 249.3L471.1 246.88L474.05 241.83L474.77 240.97L475.01 240.05L475.31 237.49L475.19 236.33L472.95 231.9L473 230.97L476.24 229.32L478.19 229.3L479.69 229.76L480.1 230.69L480.42 230.87L482.54 230.44L483.93 229.9L485.26 230.28L486.97 231.27L486.84 231.92L487.03 232.21L487.85 232.49L490.85 232.38L492.32 231.74L494.02 231.64L494.84 230.42L496.35 229.08L499.08 228.74L499.85 228.38L500.66 227.4L502.83 227.41L503.45 228.04L503.76 228.09L505.62 226.28L505.52 223.88L507.51 223.5L508.3 223.68L509.35 223.02L510.85 220.71L511.31 219.56L512.2 219.96L513.36 219.69L515.56 219.98L518.38 221.37L518.82 221.88L518.76 224.61L519.48 226.55L521.69 227.46L521.96 229.46L521.04 231.14L522.87 231.76L523.83 231.54L524.65 230.62L527.52 229.74L528.29 226.16L528.79 225.29L529.54 225.13L530.32 225.66L530.95 225.71L533.34 224.69L534.44 223.45L534.61 222.86L534.36 221.5L534.65 221.25L536.89 220.8L537.66 218.75L539.31 218.31L541.84 216.85L542.43 216.75L543.92 217.31L544.75 218.75L546.11 219.56L548.47 220.34L551.46 220.74L553.04 221.89L553.58 223.54L553.97 223.81L554.4 223.66L554.69 221.91L555.12 221.47L556.12 221.46L556.57 221.78L556.59 222.41L555.97 223.29L556.42 224.12L556.92 224.49L559.02 225.35L559.04 226.29L560.26 229.34L560.8 230.74L561.82 231.03L562.27 230.94L563.7 231.73L563.9 232.45L563.23 233.61L563.44 235.75L564.72 238.25L566.71 240.2L567.46 241.35L567.38 244.47L566.72 246.09L566.63 246.97L567.39 249.72L567.09 250.3L566.4 250.85L563.85 251.85L562.72 251.1L561.01 251.09L560.69 251.39L560.1 252.97L560.12 253.74L561.07 255.34L562.17 256L562.69 257.49L564.12 259L564.27 259.39L564.14 260.81L563.8 261.2L563.92 261.62L564.51 262.14L566.44 263.06L566.92 263.77L567.46 264.11L569.01 264.75L571.9 263.87L572.54 263.85L572.9 264.26L568.82 273.09L564.99 278.28L563.96 280.61L558.93 286.35L556.48 287.61L555.61 287.6L555.91 286.17L556.28 286.02L556.42 284.92L555.97 282.99L554.1 282.74L553.67 281.44L552.99 280.69L552.62 281.29L552.16 283.62L551.66 284.49L551.11 284.87L550.55 284.58L550.06 282.84L550.17 282.52L550.48 282.39L550.45 282L549.58 283.29L550.51 284.98L550.97 285.21L551.34 285.06L552.49 285.32L552.03 287.13L550.82 288.28L550.57 290.1L549.32 291.07L548.97 291.74L548.77 292.58L548.95 293.43L547.6 293.04L547.39 293.43L547.03 295.95L547.39 295.23L548.14 295.44L548.38 295.98L548.15 296.39L548.21 297.01L548.51 297.31L548.84 298.31L547.8 300.82L548.37 304.26L547.82 304.75L547.25 304.53L547.11 305.66L547.7 306.12L548.91 304.4L548.44 302.19L549.26 301.58L549.51 302.12L549.45 303.88L548.49 306.49L547.75 311.92L547.24 313.73L547.44 316.2L548.22 319.05L548.41 323.59L549.28 330L550.27 333.42L548.06 340.08L546.71 346.73L546.24 347.74L546.08 350.6L545.02 354.32L544.93 356.65L545.32 361.07L546.21 362.78L543.97 365.76L542.16 366.43L541.22 367.07L538.5 370.96L537.93 373L529.84 367.86L529.53 367.33ZM551.81 289.33L551.58 288.13L552.32 287.72L553.38 286.68L553.54 286.04L553.17 285.31L553.93 285.45L554.75 286.5L554.7 287.03L551.81 289.33ZM549.28 296.18L548.65 296.15L548.66 295.48L548.92 295.12L548.12 294.9L547.7 294.5L547.83 293.43L549.7 293.28L549.86 293.48L549.97 294.61L549.28 296.18Z" fill="#C7C7C7" stroke="white" stroke-width="2"/>
<path d="M575.82 158.85L570.93 160.44L568.32 162.45L565.02 169.14L564.18 170.26L563.31 170.83L562.66 172.5L562.81 173.24L561.41 175.68L559.95 177.19L559.38 178.29L558.35 178.55L557.57 178.04L557.06 178.11L556.22 178.99L554.81 181.24L554.47 183.21L555.11 183.38L555.77 183L555.69 183.54L554.85 184.69L553.82 187.69L554.34 189L553.68 190.31L552.59 190.94L552.42 191.32L552.3 192.25L552.54 192.66L553.12 192.95L553.47 193.67L553.45 195.33L554.69 196.22L555.38 196.3L555.72 197.49L554.11 200.98L552.92 202.1L553.09 202.35L551.5 202.84L550.43 203.67L548.89 205.96L547.24 206.01L546.61 204.37L545.83 203.8L544.47 203.32L543.46 202.25L543 201.26L541.17 200.43L538.32 198.53L535.24 198.11L533.95 198.21L531.81 199.01L530.18 199.2L529.29 198.96L524.36 198.76L524.42 197.44L523.74 196.76L523.66 195.79L524.8 192.68L526.3 190.43L526.31 189.74L525.54 188.58L522.98 188.11L521.67 187.46L520.66 184.79L519.61 179.59L518.85 177.02L519.09 176.57L518.15 168.41L518.04 168.03L517.12 167.34L517.92 166.76L518.51 165.18L517.91 162.19L516.91 160.18L517.39 158.58L516.6 154.71L517.34 153.35L517.36 152.59L516 151L515.56 149.27L512.41 142.85L510.61 138.13L510.32 136.84L510.5 135.38L512.08 133.41L513.17 131.56L513.28 130.76L513.47 130.62L513.43 130L513.03 129.34L513.68 128.53L520.42 128.31L523.31 127.88L525.38 127.22L532.78 128.01L534.9 129.13L536.84 130.63L540.96 132.81L542.42 133.33L547.24 136.33L548.45 136.53L550.67 138.82L553.66 140.93L556.23 141.65L558.67 144.56L559.89 145.17L562.85 148.98L567.01 152.06L568.47 154.06L569.51 155.05L571.01 155.87L572.16 155.9L574.53 156.82L575.32 157.49L575.82 158.85Z" fill="#C7C7C7" stroke="white" stroke-width="2"/>
<path d="M418.74 335.87L404.05 335.85L403.53 332.59L404.45 330.76L404.83 327.03L416.78 327.04L418.61 329.02L418.67 331.23L418.08 332.42L417.87 334.86L418.74 335.87Z" fill="#C7C7C7" stroke="white" stroke-width="2"/>
<path d="M503.66 413.37L503.37 413.23L503.81 410.89L504.38 409.59L503.79 406.47L503.95 406.05L505.67 403.99L510.82 404.02L511.37 403.7L512.34 400.46L513.45 399.19L514.33 396.9L514.57 395.18L514.83 394.74L516.07 393.88L517.78 391.79L518.32 388.82L518.03 386.39L516.76 383.58L515.66 382.31L515.14 382.22L514.69 382.51L513.93 382.23L513.44 381.52L513.87 380.97L515.35 380.88L516.15 381.23L517.12 381.26L518.07 381.02L518.39 380.6L518.22 378.88L516.91 378.53L516.7 378.12L517 376.58L517.03 374.66L516.51 374L515.18 373.33L514.88 372.63L516.05 370.7L518.22 369.39L518.53 369.37L519.58 370.11L520.71 370.22L520.73 369.41L519.06 367.14L520.4 367.27L522.58 366.98L523.42 366.37L524.5 366.05L526.08 365.97L528.62 366.78L529.53 367.33L529.83 367.86L537.93 373L537 376.35L536.69 379.21L536.81 382.8L537.53 388.95L537.22 391.42L535.73 394.6L532.98 395.99L532.43 396.59L530.76 399.92L529.78 403.72L529.01 405.19L528.18 404.51L527.3 404.38L527.01 405.66L528.36 406.18L526.42 410.42L522.97 414.26L522.73 413.99L520.87 414.65L520.07 415.88L520.01 417.27L519.59 418.52L518 420.54L517.71 421.67L516.09 420.61L513.1 420.98L508.76 419.97L506.26 418.84L505.59 414.13L503.66 413.37Z" fill="#C7C7C7" stroke="white" stroke-width="2"/>
<path d="M418.74 335.87L417.87 334.86L418.08 332.42L418.67 331.23L418.61 329.02L416.78 327.04L404.83 327.03L404.45 330.76L403.53 332.59L404.05 335.85L418.74 335.87L418.21 337.39L418.52 338.96L417.84 340.55L416.8 341.8L416.39 343.27L417.24 344.48L418.09 344.82L419.51 345.85L421.16 350.41V351.01L418.84 353.72L415.6 356.73L415.17 358.87L416.26 359.98L417.16 359.51L418.74 360.08L419.21 360.69L419.39 361.69L419.22 362.4L418.49 363.3L417.98 365.19L419.17 368.65L416.08 370.71L414.92 370.91L414.06 371.81L413.58 372.93L408.69 375.67L407.99 374.9L403.64 373.04L403.09 373.52L402.51 373.61L400.76 373.62L399.28 373.34L395.42 373.5L393.41 372.61L389.28 375.25L386.37 378.17H386.04L384.73 376.75L383.21 376.45L380.02 378.09L376.31 377.47L373.83 378.43L371.6 378.97L370.19 381.07L368.98 383.53L369.04 384.53L368.2 385.83L367.38 386.11L366.54 385.95L366.09 386.09L365.15 386.83L363.51 388.93L362.94 390.83L363.5 391.44L363.49 391.78L363.13 392.01L362.27 391.55L362.03 391.1L359.37 388.86L356.22 388.25L354.6 386.7L352.7 386.27L351.21 386.23L347.86 384.89L347.18 384.04L344.11 382.48L343.44 381.87L342 381.16L340.86 380.99L338.16 379.31L335.38 379.47L331.58 378.77L331.45 378.44L331.71 377.6L332.28 376.43L333.59 374.67L333.51 374.25L331.26 373.35L330.12 374.02L329.46 373.83L329.18 373.42L328.95 372.31L329.21 369.73L329.02 367.96L328.07 365.76L327.89 362.33L326.48 360.14L326.32 359.43L326.72 356.02L329.27 352.17L329.65 349.26L330.35 348.49L332.37 347.65L334.29 345.88L335.54 343.86L335.87 341.91L336.37 340.9L337.65 339.86L338.47 338.43L338.55 336.89L340.3 335.92L341.7 333.3L344.35 333.17L347.07 332.31L347.39 332.03L349.37 327.84L350.08 326.88L350.72 322.78L351.1 322.04L353.02 320.1L354.67 319.09L355.74 318.83L356.97 319.51L358.18 318.78L359.57 317.35L360.41 314.42L361.58 311.55L361.57 310.75L361.09 309.61L361.67 306.87L363.27 303.78L363.15 298.6L364.36 297.82L365.39 295.19L367.39 292.02L367.78 290.95L367.62 288.23L367.97 287.33L368.94 286.47L369.21 285.34L369.13 284.71L369.47 284.26L369.67 282.38L370.33 281.15L372.14 279.06L372.7 278.76L372.67 280.47L371.45 282.35L370.93 284.69L373.33 285.09L375.53 286.12L379.46 286.52L382.55 288.23L386.62 289.66L387.25 289.43L388.88 283.49L390.35 281.1L391.53 280.13L392.68 281.44L393.72 283.32L394.83 287.03L395.44 290.13L396.58 290.18L397.33 289.43L397.63 288.43L398.19 287.89L400.95 288.23L405.48 287.7L405.7 288.44L405.14 290L408.27 291.47L411.62 292.15L412.31 292.07L412.82 288.77L413.37 288.8L414.88 291.42L415.34 291.66L417.12 290.76L419.64 288.68L424.17 287.68H425.72L428.28 286.58L430.02 285.24L435.38 283.82L438.1 286.28L438.12 286.66L436.69 287.72L436.21 290.24L436.31 290.57L437.94 291.41L437.88 292.35L437.65 292.73L436.06 293.76L434.87 297.59L434.82 299.14L435.44 302.66L437.14 306.12L440.35 308.74L440.4 309.21L439.68 310.63L439.58 311.3L440.25 313.02L440.48 314.3L440.23 315.07L438.75 317.04L437.75 318.05L434.52 317.71L433.62 315.95L431.2 314.47L430.03 315.96L430.61 319.73L430.04 320.27L429.64 320.4L426.86 319.26L425.69 319.49L425.32 319.77L424.6 322.95L425.32 323.05L425.81 324.21L425.24 325.15L424.51 325.85L424.55 327.75L424.97 328.36L425.5 328.55L426.19 332.81L425.66 333.34L422.3 334.24L420.01 335.75L418.74 335.87Z" fill="#C7C7C7"/>
<path d="M418.74 335.87L417.87 334.86L418.08 332.42L418.67 331.23L418.61 329.02L416.78 327.04L404.83 327.03L404.45 330.76L403.53 332.59L404.05 335.85L418.74 335.87ZM418.74 335.87L418.21 337.39L418.52 338.96L417.84 340.55L416.8 341.8L416.39 343.27L417.24 344.48L418.09 344.82L419.51 345.85L421.16 350.41V351.01L418.84 353.72L415.6 356.73L415.17 358.87L416.26 359.98L417.16 359.51L418.74 360.08L419.21 360.69L419.39 361.69L419.22 362.4L418.49 363.3L417.98 365.19L419.17 368.65L416.08 370.71L414.92 370.91L414.06 371.81L413.58 372.93L408.69 375.67L407.99 374.9L403.64 373.04L403.09 373.52L402.51 373.61L400.76 373.62L399.28 373.34L395.42 373.5L393.41 372.61L389.28 375.25L386.37 378.17H386.04L384.73 376.75L383.21 376.45L380.02 378.09L376.31 377.47L373.83 378.43L371.6 378.97L370.19 381.07L368.98 383.53L369.04 384.53L368.2 385.83L367.38 386.11L366.54 385.95L366.09 386.09L365.15 386.83L363.51 388.93L362.94 390.83L363.5 391.44L363.49 391.78L363.13 392.01L362.27 391.55L362.03 391.1L359.37 388.86L356.22 388.25L354.6 386.7L352.7 386.27L351.21 386.23L347.86 384.89L347.18 384.04L344.11 382.48L343.44 381.87L342 381.16L340.86 380.99L338.16 379.31L335.38 379.47L331.58 378.77L331.45 378.44L331.71 377.6L332.28 376.43L333.59 374.67L333.51 374.25L331.26 373.35L330.12 374.02L329.46 373.83L329.18 373.42L328.95 372.31L329.21 369.73L329.02 367.96L328.07 365.76L327.89 362.33L326.48 360.14L326.32 359.43L326.72 356.02L329.27 352.17L329.65 349.26L330.35 348.49L332.37 347.65L334.29 345.88L335.54 343.86L335.87 341.91L336.37 340.9L337.65 339.86L338.47 338.43L338.55 336.89L340.3 335.92L341.7 333.3L344.35 333.17L347.07 332.31L347.39 332.03L349.37 327.84L350.08 326.88L350.72 322.78L351.1 322.04L353.02 320.1L354.67 319.09L355.74 318.83L356.97 319.51L358.18 318.78L359.57 317.35L360.41 314.42L361.58 311.55L361.57 310.75L361.09 309.61L361.67 306.87L363.27 303.78L363.15 298.6L364.36 297.82L365.39 295.19L367.39 292.02L367.78 290.95L367.62 288.23L367.97 287.33L368.94 286.47L369.21 285.34L369.13 284.71L369.47 284.26L369.67 282.38L370.33 281.15L372.14 279.06L372.7 278.76L372.67 280.47L371.45 282.35L370.93 284.69L373.33 285.09L375.53 286.12L379.46 286.52L382.55 288.23L386.62 289.66L387.25 289.43L388.88 283.49L390.35 281.1L391.53 280.13L392.68 281.44L393.72 283.32L394.83 287.03L395.44 290.13L396.58 290.18L397.33 289.43L397.63 288.43L398.19 287.89L400.95 288.23L405.48 287.7L405.7 288.44L405.14 290L408.27 291.47L411.62 292.15L412.31 292.07L412.82 288.77L413.37 288.8L414.88 291.42L415.34 291.66L417.12 290.76L419.64 288.68L424.17 287.68H425.72L428.28 286.58L430.02 285.24L435.38 283.82L438.1 286.28L438.12 286.66L436.69 287.72L436.21 290.24L436.31 290.57L437.94 291.41L437.88 292.35L437.65 292.73L436.06 293.76L434.87 297.59L434.82 299.14L435.44 302.66L437.14 306.12L440.35 308.74L440.4 309.21L439.68 310.63L439.58 311.3L440.25 313.02L440.48 314.3L440.23 315.07L438.75 317.04L437.75 318.05L434.52 317.71L433.62 315.95L431.2 314.47L430.03 315.96L430.61 319.73L430.04 320.27L429.64 320.4L426.86 319.26L425.69 319.49L425.32 319.77L424.6 322.95L425.32 323.05L425.81 324.21L425.24 325.15L424.51 325.85L424.55 327.75L424.97 328.36L425.5 328.55L426.19 332.81L425.66 333.34L422.3 334.24L420.01 335.75L418.74 335.87Z" stroke="white" stroke-width="2"/>
<path d="M460.6 130.92L460.56 131.25L458.52 133.4L458.09 133.57L458.05 135.01L460.02 133.31L460.7 132.1L462.82 130.52L463.71 129.38L464.74 123.05L465.89 122.35L467 122.23L468.67 121.31L469.32 121.18L469.78 121.3L469.86 122.93L469.66 123.38L468.24 125.25L465.03 127L465 127.72L465.73 127.84L466.18 127.03L467.33 126.72L467.55 127.55L466.96 128.06L467.21 128.36L471.42 123.39L472.28 123.72L474.86 122.79L478.9 123.22L478.44 120.81L479.05 120.58L481.47 120.66L483.25 121.04L485.88 122.09L486.92 122.2L489.07 123.58L490.47 123.61L491.73 124.91L493.62 126.23L496.12 126.81L497.28 126.62L497.84 127.38L498.18 127.43L499.77 127.34L502.23 128L502.49 127.1L501.82 126.63L503.49 126.25L504.06 126.36L503.97 126.78L503.51 128.21L503.74 128.93L504.37 129.47L503.99 131L502.2 133.27L498.07 137.24L494.75 137.7L493.95 137.54L491.03 140.94L491.07 142.74L490.19 144.57L488.3 146.42L487.48 148.4L486.84 148.57L486.07 149.62L486.43 151.54L487.66 152.37L488.04 153.65L487.76 155.11L486.62 157.98L488.2 160.79L488.75 163.77L488.64 166.2L488.43 166.75L484.33 171.17L484.16 173.65L484.28 175.76L484.79 178.06L486.57 180.1L488.18 181.01L488.35 181.51L488.48 182.35L488.09 184.55L487.8 184.99L487.68 186.2L487.18 187.66L485.97 188.97L483.68 189.26L483.03 188.98L482.2 189.02L479.77 189.88L478.25 189.99L475.75 188.17L474.74 187.96L473.28 188.15L472.27 188.75L471.15 189.01L470.92 188.71L470.08 188.95L469.58 189.17L467.68 191.08L467.69 191.54L467.06 192.41L465.05 194.41L462.71 195.32L459.84 197.88L458.51 198.41L457.46 198.45L455.76 199.98L454.68 200.34L452.07 200.66L449.35 201.42L447.22 203.37L446.24 206.34L445.85 209.31L445.22 211.63L443.77 214.37L443.47 214.59L443.13 215.41L443 216.93L441.8 219.41L440.1 220.81L439.37 222.81L440.08 224.75L440.55 227.93L442.28 230.99L442.24 231.51L441.48 232.91L441.35 239.27L440.2 241.72L439.94 242.78L439.89 244.7L438.61 244.04L438 243.22L437.18 242.77L436.19 242.48L434.41 242.68L433.7 242.5L432.35 240.5L431.36 237.64L429.23 236.02L429.09 234.37L430.73 232.56L430.65 232.03L426.77 230.08L426.15 229.03L426.09 227.37L425.34 225.78L424.4 225.09L422.32 224.81L422.12 224.39L422.38 223.68L425.01 221.14L424.64 219.83L425.37 217.15L426.06 215.72L426.63 215.17L427.97 214.63L431.36 214.28L430.97 212.93L431.61 209.68L431.53 207.92L429.73 206.71L425.46 207.65L423.31 208.99L421.04 205.97L420.13 205.12L417.13 200.97L416.25 201.04L415.41 199.6L416.02 198.41L415.91 197.53L415.66 197.19L414.29 196.95L413.87 197.22L411.94 195.89L412.12 195.18L413.88 194.52L415.63 192.48L415.88 190.89L415.6 189.89L415.91 187.53L417.68 181.37L417.69 180.94L417.01 179.8L416.78 178.72L416.99 175L416.35 173.5L415.88 170.01L415.04 168.98L411.64 167.54L410.42 167.52L410.14 167.2L410.06 166.17L409.47 165.48L407.73 165.19L406.77 165.71L405.37 165.62L402.59 164.11L401.73 164.05L399.77 164.58L397.15 166.43L396.62 167.07L396.13 166.99L410.84 155.16L413.19 155.39L414.36 154.47L415.91 152.3L416.34 151.15L417.89 149.98L418.51 147.1L419.63 146.64L422.07 144.32L422.54 143.11L422.83 141.21L424.43 136.52L426.39 134.98L427.87 133.22L428.7 131.77L429.16 130.49L428.98 128.67L429.77 127.86L428.73 126.28L432.41 123.19L432.28 121.55L432.78 119.17L434.52 117.6L434.88 116.89L435.78 113.87L435.86 112.26L435.43 111.73L434.44 111.89L434.17 111.4L434.22 110.78L435.36 110.63L435.93 109.89L436.64 105.5L436.48 104.12L436.95 103.09L437.72 102.64H438.35L438.59 102.4L438.53 101.86L438.87 101.11L439.45 100.58L440.79 101.56L441.24 103.4L442.43 103.52L443.2 102.16L443.81 105.09L444.8 105.13L445.09 104.64L445.16 103.7L446.01 103.66L447.7 104.19L448.2 104.88L446.77 106.58L447.44 107.28L447.46 107.83L448.67 105.79L449.16 104.25H449.61L450.01 105.27V105.85L449.14 106.77L448.87 107.76L448.95 110.47L449.21 110.8L449.68 110.92L450.26 110.78L451.22 109.85L450.75 108.85L450.89 108.25L452.21 106.82L453.26 106.57L455.39 107.16L456.89 106.05L456.94 106.97L456.58 107.18L455.45 108.71L456.04 109.29L456.14 108.92L457.39 108.32L457.97 109.11L457.83 110.32L459.46 112.07L460.32 111.63L461.9 112.3L462.67 114.7L462.56 115.65L460.37 118.38L459.99 119.27L460.09 119.93L460.69 118.9L462.44 117.22L463.27 117.19L464.14 118L464.66 119.89L464.39 121.12L463.42 121.31L462.39 122.22L461.23 123.71L461.3 124.48L460.14 126.83L459.52 130.35L459.73 130.69L460.6 130.92ZM461.12 131.37L461.06 130.58L461.59 129.05L461.18 127.98L461.31 127.32L462.22 126.08L462.77 125.89L462.82 128.24L462.6 129.58L461.8 130.18L461.12 131.37ZM454.82 105.61L454.38 105.15L454.3 104.55L455.1 103.43L455.94 103.4L456.62 103.82L456.72 104.16L456.53 104.52L454.82 105.61ZM458.32 109.79L458.03 109.49L458.09 108.96L459.15 108.07L459.63 108.14L460.13 108.99L459.99 109.6L459.59 109.43L458.32 109.79ZM444.16 104.98L443.95 104.93L444.9 101.35L445.2 101.44L445.23 101.67L444.82 104.73L444.16 104.98Z" fill="#C7C7C7" stroke="white" stroke-width="2"/>
<path d="M529.53 367.33L528.62 366.78L526.08 365.97L524.5 366.05L523.42 366.37L522.58 366.98L520.4 367.27L519.06 367.14L520.73 369.41L520.71 370.22L519.58 370.11L518.53 369.37L518.22 369.39L516.05 370.7L514.88 372.63L515.18 373.33L516.51 374L517.03 374.66L517 376.58L516.7 378.12L516.91 378.53L518.22 378.88L518.39 380.6L518.07 381.02L517.12 381.26L516.15 381.23L515.35 380.88L513.87 380.97L513.44 381.52L513.93 382.23L514.69 382.51L515.14 382.22L515.66 382.31L516.76 383.58L518.03 386.39L518.32 388.82L517.78 391.79L516.07 393.88L514.83 394.74L514.57 395.18L514.33 396.9L513.45 399.19L512.34 400.46L511.37 403.7L510.82 404.02L505.67 403.99L503.95 406.05L503.79 406.47L504.38 409.59L503.81 410.89L503.37 413.23L503.66 413.37L501.13 415.72L499.89 415.99L499.33 416.49L500.07 417.19L497.71 423.24L495.81 426.95L495.72 427.7L497.16 427.83L497.45 428.44L497.24 428.96L494.71 429.94L485.2 434.47L483.83 434.67L483.85 434.21L483.36 434.04L480.83 433.77L480.26 433.83L478.64 434.77L477.39 434.93L474.19 435.01L473.83 434.69L473.32 434.77L469.22 436.55L468.17 437.32L466.46 438.09L465.96 437.81L463.37 437.98L460.46 439.32L458.04 440.06L457.36 440.55L456.11 441.28L453.91 441.5L451.98 442.52L450.75 443.76L448.96 444.43L446.58 444.68L444.24 444.6L444.23 444.11L444.58 443.62L444.49 443.27L443.3 443.6L443.12 445.9L443.36 446.13L443.31 446.97L442.56 447.95L441.26 448.27L440.69 447.84L437.08 448.84L436.89 448.31L434.88 448.55L433.76 448.3L431.73 444.99L432.95 444.28L432.43 442.57L430.63 441.74L428.84 440.51L428.13 438.9L428.66 437.34L428.85 433.89L428.59 430.95L430.45 428.23L431.15 426.05L431.2 424.78L430.97 424.41L427.27 423.09L426.27 423.14L425.99 423.5L425.21 423.81L423.6 423.86L423.63 423.01L422.8 421.02L421.5 419.23L421.13 417.02L420.82 416.4L420.03 415.66L420.22 413.72L421.74 411.69L421.8 411.13L421.4 409.58L419.52 408.37L418.94 407.76L419.23 405.39L419.8 404.38L419.6 403.34L416.33 399.99L415.03 400.28L414.18 400.92L412.53 400.14L410.15 400.25L409.84 400.86L410.04 401.32L409.6 402.31L406.82 402.99L405.71 402.56L404.2 401.11L403.19 402.36L395.01 403.04L394.55 403.52L394.07 404.71L394.34 407.25L393.93 407.69L392.74 407.17L392.73 404.39L392.48 403.43L392.12 403.04L391.56 402.99L391.3 403.18L390.89 404.31L390.22 405.25L389.68 405.57L389.06 405.55L387.85 403.45L387.52 402.03L387.66 401.12L385.98 400.33L383.8 398.91L381.81 399.5L380.19 399.28L378.52 399.63L374.23 398.67L371.68 398.59L369.95 397.04L369.2 396.9L367.7 397.51L366.27 399.2L364.35 399.57L362.2 400.68L360.98 401.81L361.29 399.19L360.7 395.98L361.69 391.8L362.27 391.55L363.13 392.01L363.49 391.78L363.5 391.44L362.94 390.83L363.51 388.93L365.15 386.83L366.09 386.09L366.54 385.95L367.38 386.11L368.2 385.83L369.04 384.53L368.98 383.53L370.19 381.07L371.6 378.97L373.83 378.43L376.31 377.47L380.02 378.09L383.21 376.45L384.73 376.75L386.04 378.17H386.37L389.28 375.25L393.41 372.61L395.42 373.5L399.28 373.34L400.76 373.62L402.51 373.61L403.09 373.52L403.64 373.04L407.99 374.9L408.69 375.67L413.58 372.93L414.06 371.81L414.92 370.91L416.08 370.71L419.17 368.65L417.98 365.19L418.49 363.3L419.22 362.4L419.39 361.69L419.21 360.69L418.74 360.08L417.16 359.51L416.26 359.98L415.17 358.87L415.6 356.73L418.84 353.72L421.16 351.01V350.41L419.51 345.85L418.09 344.82L417.24 344.48L416.39 343.27L416.8 341.8L417.84 340.55L418.52 338.96L418.21 337.39L418.74 335.87L420.01 335.75L422.3 334.24L425.66 333.34L426.19 332.81L425.5 328.55L424.97 328.36L424.55 327.75L424.51 325.85L425.24 325.15L425.81 324.21L425.32 323.05L424.6 322.95L425.32 319.77L425.69 319.49L426.86 319.26L429.64 320.4L430.04 320.27L430.61 319.73L430.03 315.96L431.2 314.47L433.62 315.95L434.52 317.71L437.75 318.05L438.75 317.04L439.26 319.45L437.83 322.89L438.23 323.12L439.57 322.21L440.27 321.21L440.99 321.08L443.12 321.46L444.16 320.69L446.01 318.12L447 318.27L448.43 317.74L450.24 316.19L451.19 315.02L453.21 314.61L456.58 312.75L457.22 311.64L461.49 308.61L465.31 307.03L467.11 307.12L468.31 307.62L470.49 307.65L472.77 308.18L473.62 308.64L472.33 311.38L472.18 312.27L472.44 313.76L473.05 314.26L478.38 315.72L479.02 315.55L479.83 314.43L481.71 313.54L483.48 313.28L486.21 314.03L487.31 314.57L491.66 318.21L492.64 318.03L494.81 319.65L497.34 320.87L498.27 321.09L498.78 320.88L500.31 322.12L504.7 320.89L505.08 321.07L511.6 327.27L512.04 331.23L512.61 331.02L515.22 331.47L516.69 330.97L518.01 329.98L520 330.13L522.73 330.69L524.99 331.77L527.18 332.38L529.3 332.35L532.13 334.82L532.86 335.2L533.75 335.27L534.53 336.29L534.95 337.46L533.48 340.54L528.52 344.76L528.37 347.41L528.93 348.43V348.85L527.91 349.56L525.43 349.32L524.61 350.2L523.79 353.5L523.26 357.9L523.48 358.15L523.83 357.96L524.03 357.51L524.67 357.27L525.25 358.5L525.03 360.01L525.18 360.52L529.32 363.58L529.85 364.62L529.86 365.15L529.18 366.5L529.53 367.33Z" fill="#C7C7C7" stroke="white" stroke-width="2"/>
<path d="M360.98 401.81L360.58 404.27L360.3 404.67L358.8 405.45L357.48 405.49L357.01 405.71L355.79 406.74L353.8 409.42L353.07 410.07L352.06 410.37L351.44 412.05L351.28 414.98L348.69 418.62L347.73 419.14L347.5 419.52L347.81 421.45L347.73 422.4L346.52 424.74L344.52 427L344.87 427.85L344.59 429.06L343.15 430.09L342.75 431.3L341.02 432.99L339.76 435.43L337.81 437.3L330.25 441.83L328.99 442.97L328.25 444.51L327.41 445.59L322 447.86L320.89 448.68L319.96 451.01L319.98 452.16L318.53 455.72L317.86 456.4L316.2 457.41L315.09 457.73L314.76 458.08L313.19 466L312.83 466.82L310.45 468.38L307.9 466.05L304.49 464.16L300.5 466.13L299.82 466.88L298.16 467.37L295.58 467.8L293.22 467.34L292.21 466.69L291.74 462.42L291.42 461.72L290.52 460.77L290.29 458.3L290.8 456.96L290.16 456.17L290.07 455.73V452.86L289.18 450.89L288.58 448.15L288.53 447.43L289.12 446.07L289.14 444.46L287.57 443.37L287.19 442.57L287.03 440.41L285.38 438.59L283.21 438.33L281.7 438.64L279.87 438.35L277.41 436.39L276.85 434.9L275.31 435.23L273.14 437.97L272.14 437.37L270.42 438.18L269.34 438.34L267.6 437.65L265.04 437.16L261.58 437.39L257.92 436.68L257.44 435.77L255.45 435.64L254.56 436.16L252.06 435.28L252.97 428.01L252.54 425.63L253.14 424.21L254.12 422.75L254.72 416.72L254.06 414.39L254.01 412.66L253.25 411.7L252.82 411.61L252.33 412.26L251.69 409L250.9 407.13L249.69 405.11L249.34 403.28L253.37 400.98L254.13 400.1L249.93 396.24L255.31 384.82L256.43 384.76L256.15 382.63L255.41 382.5L258.64 372.17L259.3 371.01L256.21 365.16L256.24 363.25L256.94 363.45L257.96 364.55L260.11 366.07L265.73 364.1L267.78 362.1L269.8 359.15L269.89 357.98L271.29 356.53L273.88 356.56L275.44 356.34L276.21 356.68L277.87 356.17L279.22 354.92L281.24 354.43L282.51 354.63L283.27 355.78L286.06 357.03L288.68 357.5L289.33 357.85L289.6 358.71L290.38 359.73L293.41 360.89L294.67 362L295.91 362.57L300.43 361.94L301.69 361.14L302.18 360.29L303.61 359.68L306.05 359.75L307.64 360.79L307.94 362.16L308.18 362.41L309.17 362.45L311.3 361.57L312.31 361.63L317.93 355.62L319.27 355.49L318.04 362.1L316.24 362.8L314.58 365.63L314.39 366.09L314.54 366.62L315.84 366.73L317.58 368L322.2 368.27L322.77 367.7L325.43 367.62L326.3 367.7L327.47 368.27L329.02 367.96L329.21 369.73L328.95 372.31L329.18 373.42L329.46 373.83L330.12 374.02L331.26 373.35L333.51 374.25L333.59 374.67L332.28 376.43L331.71 377.6L331.45 378.44L331.58 378.77L335.38 379.47L338.16 379.31L340.86 380.99L342 381.16L343.44 381.87L344.11 382.48L347.18 384.04L347.86 384.89L351.21 386.23L352.7 386.27L354.6 386.7L356.22 388.25L359.37 388.86L362.03 391.1L362.27 391.55L361.69 391.8L360.7 395.98L361.29 399.19L360.98 401.81Z" fill="#C7C7C7" stroke="white" stroke-width="2"/>
<path d="M208.99 298.05L210.46 296.62L214.57 294.05L215.09 291.6L216.52 287.82L217.45 286.74L219.09 286.21L219.52 285.8L220.1 284.96L220.62 282.71L222.28 280.7L222.84 278.46L222.91 276.75L222.33 275.26L222.37 273.21L220.84 269.87L219.94 269.9L219.36 269.39L218.93 266.14L219.07 264.82L220.43 263.74L221.83 261.99L222 261.24L220.59 257.65L219.52 257.22L218.41 257.11L214.91 257.2L213.69 256.09L213.93 255.53L196.77 255.48L197.67 246.48L196.17 243.73L195.9 241.97L195.93 241.17L196.93 237.65L196.55 235.72L197.49 234.05L196.66 231.78L196.51 230.39L196.25 229.78L195.47 229.31L195.41 228.96L196.7 223.97L197.46 222.55L196.86 221.31L195.46 220.34L243.31 220.02L244.52 219.29L245.7 214.07L247.08 209.85L246.62 207.91L245.96 206.54L245.86 205.69L246.28 204.84L247.14 204.2L248.34 202.38L248.61 201.37L248.27 200.53L248.33 199.77L248.53 199.16L249.71 197.96L250.88 199.04L253.33 203.1L253.73 204.86L255.1 208.82L256.42 210.75L257.19 212.37L256.96 214.81L257.44 217.21L258.17 219.41L259.7 220.52L262.7 223.27L266.08 224.97L266.31 225.91L266.27 227.01L266.5 227.5L267.45 227.9L268.27 227.73L269.9 228.18L270.44 228.9L270.64 229.98L270.99 230.3L272.36 229.85L276.05 231.34L310.09 233.76L373.06 237.24L372.41 238.26L371.85 240.15L370.75 241.4L370.31 244.54L369.88 245.39L369.51 245.66L367.57 250.95L367.03 253.92L366.99 256.87L365.11 262.86L365.17 263.72L366.56 265.06L366.4 265.93L365.58 266.82L365.53 267.32L366.63 269.57L366.16 272.88L366.17 274.45L366.69 275.03L367.13 278.08L366.39 280.84L367.37 284.18L368.33 284.69L369.13 284.71L369.21 285.34L368.94 286.47L367.97 287.33L367.62 288.23L367.78 290.95L367.39 292.02L365.39 295.19L364.36 297.82L363.15 298.6L363.27 303.78L361.67 306.87L361.09 309.61L361.57 310.75L361.58 311.55L360.41 314.42L359.57 317.35L358.18 318.78L356.97 319.51L355.74 318.83L354.67 319.09L353.02 320.1L351.1 322.04L350.72 322.78L350.08 326.88L349.37 327.84L347.39 332.03L347.07 332.31L344.35 333.17L341.7 333.3L340.3 335.92L338.55 336.89L338.47 338.43L337.65 339.86L336.37 340.9L335.87 341.91L335.54 343.86L334.29 345.88L332.37 347.65L330.35 348.49L329.65 349.26L329.27 352.17L326.72 356.02L326.32 359.43L326.48 360.14L327.89 362.33L328.07 365.76L329.02 367.96L327.47 368.27L326.3 367.7L325.43 367.62L322.77 367.7L322.2 368.27L317.58 368L315.84 366.73L314.54 366.62L314.39 366.09L314.58 365.63L316.24 362.8L318.04 362.1L319.27 355.49L317.93 355.62L312.31 361.63L311.3 361.57L309.17 362.45L308.18 362.41L307.94 362.16L307.64 360.79L306.05 359.75L303.61 359.68L302.18 360.29L301.69 361.14L300.43 361.94L295.91 362.57L294.67 362L293.41 360.89L290.38 359.73L289.6 358.71L289.33 357.85L288.68 357.5L286.06 357.03L283.27 355.78L282.51 354.63L281.24 354.43L279.22 354.92L277.87 356.17L276.21 356.68L275.44 356.34L273.88 356.56L271.29 356.53L269.89 357.98L269.8 359.15L267.78 362.1L265.73 364.1L260.11 366.07L257.96 364.55L256.94 363.45L256.24 363.25L255.58 362.58L255.26 361.78L255.8 361.07L253.36 358.92L252.08 359.55L251.56 359.5L250.39 358.82L249.94 358.12L247.92 356.71L246.03 355.95L245.73 355.63L245.43 354.51L245.2 351.58L244.59 349.81L244.4 346.15L245.28 344.51L246.42 343.42L246.76 341.64L246.71 339.75L245.75 339.81L245.35 340.41L244.97 340.57L218.11 339.49L217.06 326.84L211.69 320.71L216.57 320.65L216.22 313.1L213.58 307.78L213.09 305.81L213.35 304.75L213.96 304.2L214.61 302.92L213.17 299.99L210.06 298.95L208.99 298.05Z" fill="#C7C7C7" stroke="white" stroke-width="2"/>
<path d="M373.06 237.24L310.09 233.76L276.05 231.34L272.36 229.85L270.99 230.3L270.64 229.99L270.44 228.9L269.89 228.18L268.26 227.73L267.44 227.9L266.49 227.51L266.26 227.01L266.3 225.91L266.07 224.97L262.69 223.27L259.69 220.51L258.15 219.4L257.43 217.2L256.95 214.81L257.18 212.37L256.41 210.74L255.08 208.81L253.71 204.86L253.32 203.1L250.87 199.04L249.69 197.96L249.12 197.4L248.97 195.44L248.33 194.18L246.74 192.62L245.67 192.04L245.3 191.47L244.47 189.13L244.5 188L245.08 187.03L246.53 185.9L247.31 184.59L277.21 120.35L275.4 118.68L275.53 117.9L275.34 117.42L273.95 117.77L273.1 118.38L271.23 117.6L270.13 115.43L267.44 113.98L266.17 112.64L266.09 112.04L264.77 111.22L263.4 111.07L261.15 110.42L258.77 109.11L256.89 108.44L255.54 107.35L254.91 106.45L250.33 103.91L245.69 100.14L245.39 99.7L245.35 98.77L244.8 96.94L242.96 95.71L242.26 95.9L241.9 95.7L240.07 93.72L240.12 91.61L240.47 90.92L240.29 90.51L238.6 89.66L238.36 88.98L238.18 86.71L238.61 85.26L238.21 80.4L236.62 63.43L237.37 63.75L237.8 64.33L237.78 64.81L238.23 65.21L239.15 65.49L240.52 64.78L240.99 63.97L243.7 64.2L244.51 63.15L243.97 61.34L245.76 60.98L247.17 59.35L249.81 60.36L251.69 60.39L252.23 58.87L255.56 57.25L257.53 57.64L258.69 57.53L259.18 57.28L260.38 55.8L260.78 54.4L262.24 53.3L263.1 53.19L263.75 53.65L265.86 52.52L266.27 52.63L266.64 53.62L267.37 54.07L269.4 54.55L271.01 54.8L271.57 54.2L273.24 53.81L274.02 54.09L274.84 54.08L275.7 53.74L277.94 54.04L282.61 55.42L283.57 55.28L284.57 54.41L284.54 52.13L282.47 49.63L281.23 49L281.72 47.32L283.03 45.87L283.31 44.76L283.62 44.59L284.33 44.78L285.16 45.54L287.51 46.65L299.13 44.32L300.7 46.01L301.72 46.07L302.16 45.78L302.78 46.35L303.15 48.65L302.53 49.95L302.28 54.49L302.52 55.93L302.83 56.47L304 56.49L305.08 56.2L308.47 56.57L309.76 57.06L311.69 58.11L312.36 58.91L312.85 60.19L314.04 60.31L315.18 61.15L315.98 62.13L316.82 62.4L318.15 62.26L318.53 61.84L319.47 61.7L322.31 64.36L322.99 64.33L323.48 65.51L322.8 65.74L322.61 66.46L323.37 69.29L325.39 71.55L327.96 72.28L328.13 72.61L327.7 75.75L327.89 77.86L328.56 79.37L329.18 79.93L329.77 81.74L329.64 83.32L331.14 86.8L331.96 86.99L332.74 86.63L335.67 89.91L335.59 92.34L336 93.28L336.95 93.47L337.28 93.94L337.59 95.52L337.38 96.21L337.49 97.51L339.36 98.9L339.79 100.4L341.24 101.43L344.03 102.11L345.33 101.99L346.1 101.65L347.04 101.71L346.51 102.45L346.8 104.04L346.63 104.57L345.34 105.68L343.95 105.85L343.45 105.67L342.61 104.88L341.95 104.73L338.57 106.31L338.2 106.85L336.6 107.57L335.97 107.55L334.42 108.14L334.46 108.72L340.92 107.66L341.8 108.32L341.93 108.78V109.44L341.31 109.94L341.61 110.3L342.24 110.1L343.1 109.1L344.12 109.09L344.65 108.82L345.25 108.94L346.32 108.52L347.46 107.95L350.74 105.61L352.24 105.26L354.08 104.45L357.24 102.61L357.78 101.61L358.45 101.09L360.54 100.08L361.2 99.36L360.95 98.69L361.16 98.28L362.29 98L363.38 98.06L363.79 98.27L364.17 102.07L363.65 104.65L363.98 106.27L364.79 107.87L366.1 109.22L366.4 110.86L366.28 111.33L364.44 113.17L363.97 113.3L363.1 112.78L361.28 112.26L360.02 111.95L359.09 112.09L356.96 111.05L356.7 109.93L355.82 109.4L353.54 113.22L352.93 115.59L353.61 118.56L354.09 119.2L355.01 119.82L354 118.68L353.57 115.99L353.69 115.47L356.26 111.25L358.57 112.43L358.68 112.88L361.21 115.33L360.96 117.35L360.22 117.9L360.62 120.23L361.14 121.36L362.26 122.11L363 122.26L363.52 122.75L363.18 122.11L362.41 121.87L361.21 120.83L360.99 120.15L361.33 115.95L362.15 114.76L363.58 115.49L364.41 116.69L364.32 117.48L365.52 118.34L365.77 118.05L364.77 116.79L363.85 114.69V114.25L366.11 111.93L367.73 112.02L369.66 112.66L370 113.22L369.39 113.81L369.71 114.09L370.19 114.12L371.22 113.95L372.55 113.05L376.64 112.09L377.41 112.29L379.15 113.35L382.32 112.93L383.39 112.52L384.41 111.51L385.39 110.92L387.13 110.41L387.9 110.48L387.96 111.23L385.92 115.25L385.68 116.75L385.22 117.82L384.39 118.85L384.38 119.73L384.96 121.15L384.64 123.62L385.52 122.43L385.53 121.03L387.07 118.03L388.2 114.84L389.32 113.28L389.59 113.01L390.35 112.96L390.93 112.61L392.75 112.38L393.63 111.03L395.14 109.34L396.5 107.08L397.02 106.62L397.81 107.11L398.43 106.65L400.05 108.99L401.24 109.58L401.19 108.84L400.84 108.09L401.46 107.08L404.97 106.57L403.94 106.25L400.43 106.71L400.12 106.5L400.41 104.07L400.92 103.78L401.59 104.16L402.61 104.27L403.68 101.17L403 99.78L403.03 99.1L404.2 97.29L407.04 94.81L407.4 94.73L408.51 95.87L411.44 93.78L411.9 93.71L412.3 94.16L412.4 94.73L412.08 95.4L413.15 95.24L413.96 94.66L414.32 93.88L414.95 93.69L415.23 93.84L415.97 95.23L417.3 96.43L417.5 95.87L417.39 95.49L416.43 95L416.29 94.71L416.16 93.51L416.33 93.09L416.77 92.9L419.05 93.16L420.23 93.81L420.85 94.83L422.48 95.54L424.13 94.76L424.66 96.9L424.16 97.21L424.13 97.8L425.05 97.28L426.21 94.93L426.59 95.16L426.36 96.49L426.77 96.93L429.28 96.67L429.73 97.32L430.19 99L429.59 99.95L430.44 99.45L430.7 99.82L432.59 99.96L436.12 98.72L435.81 100.3L435.06 102.13L436.53 101.64L437.12 101.02L437.75 102.64L436.98 103.09L436.51 104.12L436.67 105.5L435.96 109.89L435.39 110.63L434.25 110.78L434.2 111.4L434.47 111.89L435.46 111.73L435.89 112.26L435.81 113.87L434.91 116.89L434.55 117.6L432.81 119.17L432.31 121.55L432.44 123.19L428.76 126.28L429.8 127.86L429.01 128.67L429.19 130.49L428.73 131.77L427.9 133.22L426.42 134.98L424.46 136.52L422.86 141.21L422.57 143.11L422.1 144.32L419.66 146.64L418.54 147.1L417.92 149.98L416.37 151.15L415.94 152.3L414.39 154.47L413.22 155.39L410.87 155.16L396.16 166.99L396.65 167.07L398.94 167.88L400.81 167.64L402.1 167.76L403.12 169.42L403.51 169.73L404.38 169.87L405.64 171.04L405.6 171.67L405.23 172.34L404.51 172.71L403.54 172.78L403.25 173.06L403.34 174.47L404.35 175.81L403.43 178.56L402.79 179.04L401.33 179.5L401.08 179.96L401.37 181.16L401.18 182.5L399.88 182.65L398.37 183.99L397.52 185.26L397.67 186.77L397.43 187.27L394.93 188.47L391.52 189.61L389.05 191.39L388.86 191.74L389.29 193.93L389.35 196.6L388.07 198.7L386.66 200.38L386.51 200.95L386.68 201.83L387.27 202.79L388.94 204.53L389.69 204.85L389.84 205.15L389.18 209.19L387.42 214.34L386.34 215.15L384.64 218.39L384.46 219.38L383.52 220.92L382.78 221.77L381.73 221.93L380.36 222.85L379.33 224.77L378.12 226.45L376.94 227.54L375.79 229.12L374.66 233.58L373.06 237.24ZM394.22 106.93L389.7 108.89L386.31 109.41L384.29 109.1L383.64 110.23L381.8 111.42L381.08 110.81L380.47 109.28L380.24 109.56L380.66 110.79L380.32 111.6L379.61 112.01L375.84 110.37L375.04 111.09L370.85 112.35L367.65 111.78L366.84 111.17L366.6 109.32L366.37 108.91L365.26 107.89L364.2 106.29L363.99 104.51L364.51 101.76L365.13 101.38L366.89 101.74L367.82 100.99L367.9 100.43L366.6 100.86L365.38 100.73L364.44 100.02L364.26 98.97L364.6 93.89L365.33 93.13L365.68 93.88L367.44 94.48L367.99 94.42L367.53 94L366.26 93.78L365.36 91.62L365.72 89.94L366.61 87.97L367.94 86.64L368.9 86.07L370.24 85.58L371.56 85.45L375.02 85.97L382.23 87.74L385.93 87.28L386.04 86.98L387.18 86.36L389.34 85.99L392.23 86.28L395.03 87.1L401.51 87.95L402.14 88.42L402.09 89.65L401.39 90.39L400.71 91.89L400.35 94.54L399.49 97.84L398.2 98.52L397.85 99.21L398.08 100.4L396.1 102.98L394.71 106.48L394.22 106.93ZM347.01 106.76L346.26 106.25L347.36 104L347.27 102.21L347.52 102L349.85 101.52L350.75 100.66L350.9 100.16L350.7 97.82L351.56 95.24L352.82 93.75L355.11 92.28L357.98 92.08L358.7 94.44L357.6 96.63L356.75 99.67L355.65 100.34L354.31 102.37L353.53 103.09L348.59 106.4L347.01 106.76ZM375.49 83.86L374.46 83.61L372.01 83.69L371.22 83.53L370.93 83.27L370.55 82.18L370.56 80.94L372.07 80.52L373.96 80.56L376.15 79.27L380.96 78.67L381.73 78.93L382.41 79.61L382.23 80.63L379.67 82.02L377.89 84.5L376.79 85L375.49 83.86ZM380.28 83.86L382.14 82.66L384.12 82.69L385.77 83.31L386.3 84.3L386.35 84.92L385.47 85.69L382.62 85.97L381.45 86.29L379.19 85.4L378.99 84.87L380.28 83.86ZM363.3 88.25L362.8 87.99L362.19 88.03L360.65 87.34L360.86 86.18L361.5 85.26L363.42 84.86L365.78 83.96L367.1 84.04L367.9 84.72L367.99 84.85L366.06 86.46L364.99 86.8L363.3 88.25ZM372.72 78.56L371.9 78.26L371.73 76.6L371.88 76L373.05 74.69L375.5 73.77L375.75 73.89L376.28 74.57L376.32 75.46L374.37 77.45L372.72 78.56ZM358.89 98.78L358.75 98.37L358.94 97.44L359.98 94.63L362.57 92.94L363.29 92.66L363.98 92.8L363.82 94.59L362.26 95.03L360.64 97.22L358.89 98.78ZM369.8 81.21L368.61 80.9L368.31 80.42L369.19 79.46L369.9 75.51L370.79 74.28L371.08 74.41L371.15 74.73L371.13 77.21L371.73 79.08L371.41 79.96L370.38 80.36L369.8 81.21ZM354.99 91.4L354.72 91.21L354.84 90.6L355.39 90.24L356.58 88.53L357.34 86.99L358.07 86.33L359.52 85.79L359.32 87.28L358.92 88.28L357.2 89.94L354.99 91.4ZM368.86 84.37L368.26 84.22L367.42 83.51L366.46 81.87L366.41 81.49L366.64 81.2L367.45 80.62L369.3 81.46L369.59 81.89L369.83 83.98L368.86 84.37ZM363.48 114.93L362.83 114.82L361.95 114.3L361.26 114.76L360.51 114.48L358.83 112.74V112.13L360.11 112.12L363.17 113.44L363.48 114.93ZM342.33 109.39L342.37 108.36L342.17 108.06L342.77 107.07L345.13 106.19L345.91 106.57L346.78 107.43L346.49 107.78L345.46 108.25L342.92 108.66L342.33 109.39ZM355.03 102.7L354.85 102.67L354.86 102.32L355.4 101.38L357.19 99.76L357.61 98.52L357.66 97.22L357.9 96.92L358.22 97.36V98.87L357.33 101.6L356.71 102.25L355.03 102.7ZM361.33 92.8L362.98 89.84L363.86 89.63L364.57 89.82L364.84 90.69L364.26 91.4L361.33 92.8ZM392.75 111.77L391.91 111.42L391.57 110.36L392.61 108.64L393.68 108.31L393.87 108.41L393.85 109.15L393.11 111.39L392.75 111.77ZM359.27 92.3L358.73 92.1L359.05 90.06L360.38 88.25L360.61 88.29L361.9 89.17L361.89 89.42L360.34 90.06L359.27 92.3ZM361.5 97.33L362.22 97.36L361.82 97.81L360.88 98.12L360.77 99.24L359.98 99.95L358.29 100.79L358.13 100.61L358.4 99.78L358.87 99.15L360.6 97.48L361.5 97.33ZM338.94 107.54L338.39 107.35L338.32 107L338.75 106.6L342.31 105L342.85 105.7L342.84 105.9L341.44 106.63L338.94 107.54ZM402.47 102.76L401.44 102.57L400.62 101.78L401.49 100.53L402.83 100.52L403.02 101.71L402.92 102.3L402.47 102.76ZM365.22 83.86L362.86 84.56L362.27 84.57L362.09 84.36L363.12 83.32L364.16 82.81L365.2 82.98L365.64 83.32L365.79 83.55L365.64 83.76L365.22 83.86ZM359.95 92.45L359.87 91.69L360.12 91.19L362.6 89.73L361.7 91.73L360.89 92.36L359.95 92.45ZM362.09 96.98L361.64 96.86L361.57 96.63L362.35 95.13L363.54 95.15L363.42 96.5L362.09 96.98ZM390.13 112.81L389.85 112.58L390.75 110.98L391.43 110.58L391.66 111.33L392.17 111.7L391.91 112.22L391.48 112.56L390.85 112.38L390.13 112.81ZM363.47 89.49L362.58 89.42L362.6 89.23L364.96 87.39L365 88.35L364.77 88.98L364.52 89.32L363.47 89.49ZM430.93 99.71L430.55 99.18L430.74 98.42L431.76 97.51L432.01 97.66L432.24 99.41L430.93 99.71Z" fill="#C7C7C7" stroke="white" stroke-width="2"/>
<path d="M612.46 201.15L609.96 199.09L609.14 198.83L606.49 198.62L604.18 199.69L602.7 200.97L602.25 202.77L600.35 203.8L598.34 204.25L597.2 204.23V204.83L596.4 205.36L594.22 205.65L590.34 205.39L588.73 206.27L588.18 206.91L586.36 207.01L585.47 207.7L584.93 208.46L585.32 209.19L585.33 209.73L584.93 210.21L583.15 211.74L581.81 211.9L580.16 212.74L578.56 211.95L577.61 211.01L577.26 208.77L577.5 208.28L577.32 207.98L576.18 207.66L575.74 207.95L574.23 208.2L574.27 207.75L576.8 205.11L576.97 204.68L576.25 202.81L576.21 202.34L576.58 201.56L579.58 200.49L579.69 200.19L579.19 198.8L575.69 196.88L574.21 197.29L571.99 198.55L571.06 200.06L569.58 200.93L568.53 201.24L565.83 203.12L564.31 204.76L562.68 204.99L560.05 205.96L559.28 205.63L559.33 204.95L558.7 203.71L558.32 203.63L557.39 204.36L555.88 204.68L554.89 204.35L553.49 202.44L553.09 202.35L552.92 202.1L554.11 200.98L555.72 197.49L555.38 196.3L554.69 196.22L553.45 195.33L553.47 193.67L553.12 192.95L552.54 192.66L552.3 192.25L552.42 191.32L552.59 190.94L553.68 190.31L554.34 189L553.82 187.69L554.85 184.69L555.69 183.54L555.77 183L556.34 182.54L558.27 184.18L559.17 184.6L562.05 185.21L563.21 184.08L566.44 182.42L567.26 181.71L567.36 180.67L567.77 179.72L570.95 178.51L572.38 178.39L575.64 177.35L576.28 177.43L576.81 177.87L576.82 179.06L573.83 182.27L573.39 183.23L573.01 184.97L572.6 185.35L571.75 185.6L571.54 185.91L571.46 187.63L574.99 188.15L575.31 188.38L575.62 189.76L575.91 189.99L579.06 188.73L580.83 188.65L582.78 188.95L583.67 190.12L583.15 191.66L583.98 192.4L586.33 191.47L586.83 190.73L587.38 189.52L586.91 188.58L586.75 187.16L587.23 186.57L588.24 186.89L587.71 185.36L586.99 184.58L587.3 183.1L589.12 181.75L590.5 181.7L590.92 182.09L590.82 183.09L591.44 183.58L594.86 183.98L595.39 184.33L601.22 183.94L603.39 184.24L605.85 185.34L606.89 184.94L610.39 185.15L611.32 184.91L611.41 187.31L612.86 191.7L612.92 192.34L612.74 193.28L612.37 193.73L612.34 194.61L612.92 193.87L613.43 192.37L613.44 194.35L614.03 195.36L613.76 200.54L613.4 201.14L612.46 201.15Z" fill="#C7C7C7" stroke="white" stroke-width="2"/>
<path d="M560.31 229.19L559.09 226.15L559.08 225.21L556.97 224.35L556.47 223.98L556.02 223.15L556.63 222.26L556.61 221.64L556.16 221.32L555.16 221.33L554.73 221.77L554.44 223.51L554.01 223.66L553.62 223.4L553.08 221.75L551.5 220.6L548.51 220.2L546.15 219.43L544.8 218.62L543.97 217.18L542.48 216.62L541.89 216.73L539.36 218.19L537.71 218.63L536.94 220.68L534.71 221.13L534.42 221.38L534.67 222.74L534.5 223.33L533.4 224.57L531.01 225.6L530.37 225.54L529.6 225.01L528.84 225.18L528.34 226.05L527.57 229.62L524.7 230.5L523.88 231.42L522.92 231.65L521.08 231.03L522 229.35L521.74 227.35L519.53 226.44L518.81 224.5L518.87 221.77L518.43 221.26L515.62 219.88L513.42 219.59L512.26 219.85L511.36 219.45L513.98 218.18L515.95 216.47L516.49 215.6L518.78 214.27L519.75 213.99L523.64 210.12L524.38 208.36L524.44 206.09L524.15 205.55L522.53 203.97L522.6 201.78L522 200.65L521.94 199.7L522.05 199.25L522.57 198.92L524.36 198.76L529.29 198.96L530.18 199.2L531.81 199.01L533.95 198.21L535.24 198.11L538.32 198.53L541.17 200.43L543 201.26L543.46 202.25L544.47 203.32L545.83 203.8L546.61 204.37L547.24 206.01L548.89 205.96L550.43 203.67L551.5 202.84L553.09 202.35L553.49 202.44L554.89 204.35L555.88 204.68L557.39 204.36L558.32 203.63L558.7 203.71L559.33 204.95L559.28 205.63L560.05 205.96L562.68 204.99L564.31 204.76L565.83 203.12L568.53 201.24L569.58 200.93L571.06 200.06L571.99 198.55L574.21 197.29L575.69 196.88L579.19 198.8L579.69 200.19L579.58 200.49L576.58 201.56L576.21 202.34L576.25 202.81L576.97 204.68L576.8 205.11L574.27 207.75L574.23 208.2L575.74 207.95L576.18 207.66L577.32 207.98L577.5 208.28L577.26 208.77L577.61 211.01L578.56 211.95L580.16 212.74L581.81 211.9L583.15 211.74L584.93 210.21L585.33 209.73L585.32 209.19L584.93 208.46L585.47 207.7L586.36 207.01L588.18 206.91L588.73 206.27L590.34 205.39L594.22 205.65L596.4 205.36L597.2 204.83V204.23L598.34 204.25L600.35 203.8L602.25 202.77L602.7 200.97L604.18 199.69L606.49 198.62L609.14 198.83L609.96 199.09L612.46 201.15L613.34 201.38L613.89 202.6L612.62 204.32L612.51 204.87L612.52 205.35L613.22 205.72L613.49 206.22L613.68 207.28L611.72 213.66L608.47 222.61L608.2 222.4L605.3 222.13L603.38 221.32L601.91 221.51L599.35 222.8L597.11 221.95L595.11 222.19L593.56 223.43L593.44 223.88L591.26 226.17L589.45 227.28L588.29 227.23L586.43 228.29L585.26 228.4L582.12 228.11L579.62 228.76L577.71 228.28L575.93 227.23L574.03 225.11L571.48 223.09L570.4 223.21L568.73 222.91L567.73 221.69L566.91 222.29L566.82 222.98L564.44 226.27L562.27 227.03L561.63 228.12L560.31 229.19Z" fill="#C7C7C7" stroke="white" stroke-width="2"/>
<path d="M507.73 128.91L509.04 129.03L509.73 128.8L511.97 129.31L512.96 130.16L513.28 130.76L513.17 131.56L512.08 133.41L510.5 135.38L510.32 136.84L510.61 138.13L512.41 142.85L515.56 149.27L516 151L517.36 152.59L517.34 153.35L516.6 154.71L517.39 158.58L516.91 160.18L517.91 162.19L518.51 165.18L517.92 166.76L517.12 167.34L518.04 168.03L518.15 168.41L519.09 176.57L518.85 177.02L519.61 179.59L520.66 184.79L521.67 187.46L522.98 188.11L525.54 188.58L526.31 189.74L526.3 190.43L524.8 192.68L523.66 195.79L523.74 196.76L524.42 197.44L524.36 198.76L522.57 198.92L522.05 199.25L521.94 199.7L522 200.65L522.6 201.78L522.53 203.97L524.15 205.55L524.44 206.09L524.38 208.36L523.64 210.12L519.75 213.99L518.78 214.27L516.49 215.6L515.95 216.47L513.98 218.18L511.36 219.45L510.91 220.61L509.41 222.91L508.36 223.58L507.57 223.4L505.57 223.78L505.68 226.18L503.82 227.98L503.5 227.93L502.88 227.31L500.72 227.3L499.9 228.28L499.13 228.64L496.4 228.98L494.89 230.32L494.07 231.54L492.37 231.64L490.89 232.28L487.89 232.39L487.07 232.11L486.88 231.83L487.01 231.17L485.3 230.19L483.97 229.8L482.58 230.35L480.45 230.78L480.13 230.6L479.72 229.67L478.22 229.21L476.27 229.23L473.03 230.88L472.97 231.81L475.21 236.25L475.33 237.4L475.04 239.97L474.79 240.88L474.07 241.74L471.12 246.79L468.15 249.21L466.8 249.63L465.32 249.1L463.98 248.93L461.78 249.68L460.61 250.57L459.94 251.44L458.8 251.82L458.05 253.27L457.72 253.48L455.61 253.3L453.81 253.82L449.63 251.97L447.86 249.48L447.33 247.27L446.67 246.23L445.23 244.89L442.9 244.91L439.96 244.7L440.01 242.78L440.27 241.72L441.42 239.27L441.55 232.91L442.31 231.51L442.34 231L440.61 227.94L440.14 224.75L439.44 222.81L440.17 220.81L441.87 219.41L443.07 216.93L443.2 215.42L443.54 214.59L443.84 214.38L445.28 211.64L445.91 209.32L446.3 206.35L447.28 203.37L449.41 201.42L452.13 200.66L454.74 200.35L455.81 199.98L457.51 198.45L458.56 198.41L459.9 197.89L462.76 195.32L465.1 194.41L467.11 192.41L467.74 191.54V191.08L469.64 189.16L470.14 188.94L470.98 188.7L471.21 189L472.33 188.74L473.33 188.14L474.79 187.95L475.8 188.16L478.31 189.98L479.82 189.88L482.26 189.02L483.09 188.98L483.74 189.26L486.02 188.97L487.23 187.66L487.73 186.2L487.85 184.99L488.14 184.55L488.53 182.35L488.4 181.5L488.23 181L486.62 180.09L484.84 178.06L484.33 175.76L484.22 173.65L484.39 171.17L488.49 166.74L488.7 166.19L488.8 163.76L488.25 160.78L486.67 157.98L487.81 155.11L488.09 153.64L487.71 152.37L486.48 151.53L486.13 149.61L486.9 148.56L487.54 148.39L488.36 146.41L490.25 144.56L491.13 142.73L491.09 140.94L494.01 137.53L494.82 137.69L498.13 137.23L502.26 133.26L504.05 130.99L504.44 129.46L503.8 128.93L503.58 128.21L504.04 126.77L504.77 126.89L506.24 127.76L506.75 128.27L506.62 128.58L507.73 128.91Z" fill="#C7C7C7" stroke="white" stroke-width="2"/>
<path d="M398.78 501.4L393.54 501.37L393.21 501.81L391.47 502.05L390.71 501.98L390.6 501.59L389.03 502.16L387.68 503.59L384.33 505.72L382.89 505.56L381.66 504.94L378.53 502.34L377.5 501.95L376.74 501.94L373.9 502.67L371.57 502.84L370.76 502.81L369.34 502.05L368.23 502.19L366.7 502.84L366.11 504.31L365.38 505.18L363.51 506.16L359.94 505.75L357.94 506.9L357.22 507.67L356.53 509.26L357.38 512.25L356.51 513.11L355.59 513.13L354.84 513.51L354.67 514L353.34 512.11L349.09 512.24L345.33 511.81L343.75 510.63L343.59 510.22L342.56 509.59L338.3 509.23L333.01 507.55L330.67 508.12L327.98 508.09L325.96 506.68L325.64 506.17L324.58 505.93L324.05 505.92L323.34 506.29L319.71 506.27L319.49 505.06L316.96 500.88L316.98 498.29L315.99 495.41L312.57 493.04L311.48 494.17L309.36 494.06L308.26 494.49L307.19 495.39L305.73 494.31L304.91 494.37L304.63 492.17L305.29 490.6L306.36 489.33L307.58 487.15L307.64 486.81L307.15 486.06L307.17 484.82L308.07 481.18L309.33 478.16L309.08 475.86L310.36 473.48L310.15 472.46L309.31 471.58L309 469.98L309.66 468.92L310.45 468.38L312.83 466.82L313.19 466L314.76 458.08L315.09 457.73L316.2 457.41L317.86 456.4L318.53 455.72L319.98 452.16L319.96 451.01L320.89 448.68L322 447.86L327.41 445.59L330.67 443.3L334.5 443.95L338.51 443.84L341.78 444.13L342.99 443.51L343.34 442.91L344.07 442.54L345.24 442.83L346.72 443.61L349.24 444.07L351.88 445.16L353.19 445.29L354.26 444.75L356.84 444.74L357.62 445.74L359.37 446.58L362.88 447.38L363.51 447.89L364.22 449.21L365.95 449.28L366.37 448.94L368.02 449.09L368.68 449.63L373.99 449.76L376.96 448.91L378.09 450.46L381.68 453.29L382.57 455.05L382.58 457.79L382.19 458.37L382.03 459.18L382.41 461.02L383.71 462.53L383.63 464.29L383.27 464.85L384.76 467.85L385.97 469L386.64 469.28L387.14 469.96L387.09 470.85L388.01 472.82L388.61 473.11L388.86 473.55L388.61 474.6L387.34 476.73L387.66 478.77L388.26 479.15L389.27 479.36L391.65 479.24L395.07 478.71L395.57 479.1L397.15 478.91L398.74 479.04L400.35 480.3L400.21 480.71L399.32 481.36L398.63 484.66L398.98 485.44L400.05 485.97L400.7 485.12L401.8 482.36L402.56 482.19L404.7 482.77L404.3 484.72L405.03 488.02L406.45 488.6L406.61 489.92L405.26 490.94L404.65 492.42L404.1 492.3L404.37 490.36L405.81 489.41L404.4 489.69L403.51 490.18L402.64 490.16L402.3 489.77L401.73 489.6L401.19 489.97L400.91 490.9L401.43 491.7L400.7 492.66L400.4 492.76L397.92 492.23L397.13 491.69L396.68 491.81L396.5 492.71L396.84 493.08L398.45 493.64L399.85 493.39L401.98 493.99L402.25 494.47L401.28 495.15L399.74 497.93L398.5 498.7L396.08 499.27L395.88 499.72L398.83 499.52L398.98 500.71L398.78 501.4Z" fill="#C7C7C7" stroke="white" stroke-width="2"/>
<path d="M470.38 452.28L470.31 451.5L470.69 451.23L473.88 451.45L476.47 450.86L473.94 449.31L472.54 448.81L469.73 449.49L468.37 451.09L467.34 451.41L466.64 451.36L465.29 449.21H464.81L463.91 449.63L462.95 450.69L459.8 451.49L459.46 452.4L459.27 454.3L461.46 454.43L462.53 455.44L461.38 456.52L460.44 456.35L459.02 456.52L458.54 456.26L456.91 454.53L456.86 454.12L457.95 450.62L459.04 449.47L461.39 448.46L461.89 448.61L464.66 448.25L466.16 447.54L467.81 445.39L467.06 443.75L465.36 443.74L462.21 444.27L460.44 443.88L459.21 442.29L458.65 441.12L457.38 440.58L458.06 440.09L460.48 439.35L463.39 438.01L465.97 437.84L466.47 438.11L468.19 437.34L469.24 436.57L473.33 434.78L473.85 434.71L474.21 435.02L477.41 434.95L478.66 434.78L480.29 433.84L480.86 433.78L483.39 434.05L483.88 434.22L483.86 434.69L485.24 434.49L494.75 429.96L497.28 428.97L497.49 428.45L497.21 427.84L495.77 427.71L495.86 426.96L497.75 423.25L500.11 417.21L499.38 416.5L499.94 416.01L501.18 415.74L503.71 413.38L505.64 414.14L506.31 418.85L508.81 419.98L513.14 420.99L516.13 420.62L517.75 421.68L517.67 422.95L516.73 424.56L516.51 426.69L517.65 433.47L517.15 434.15L514.07 435.9L508.1 437.84L505.27 439.56L501.77 443.25L501.66 444.91L501.97 446.1L501.78 447.72L501.05 449.2L499.23 449.71L492.68 449.54L486.89 450.24L484.5 449.78L484.01 449.4L483.95 448.72L484.98 447.24L485.65 445.79L485.56 445.17L484.78 444.99L481.99 446.14L481.73 446.83L482.04 447.62L483.42 448.79L483.67 449.76L483.08 450.28L481.45 450.79L479.88 450.76L471.84 451.83L470.38 452.28ZM465.27 454.27L464.6 453.3L466.71 451.75L468.57 452.69L469 453.39L466.54 453.89L466.13 453.54H465.66L465.27 454.27Z" fill="#C7C7C7" stroke="white" stroke-width="2"/>
<path d="M611.32 184.91L610.39 185.15L606.89 184.94L605.85 185.34L603.39 184.24L601.22 183.94L595.39 184.33L594.86 183.98L591.44 183.58L590.82 183.09L590.92 182.09L590.5 181.7L589.12 181.75L587.3 183.1L586.99 184.58L587.71 185.36L588.24 186.89L587.23 186.57L586.75 187.16L586.91 188.58L587.38 189.52L586.83 190.73L586.33 191.47L583.98 192.4L583.15 191.66L583.67 190.12L582.78 188.95L580.83 188.65L579.06 188.73L575.91 189.99L575.62 189.76L575.31 188.38L574.99 188.15L571.46 187.63L571.54 185.91L571.75 185.6L572.6 185.35L573.01 184.97L573.39 183.23L573.83 182.27L576.82 179.06L576.81 177.87L576.28 177.43L575.64 177.35L572.38 178.39L570.95 178.51L567.77 179.72L567.36 180.67L567.26 181.71L566.44 182.42L563.21 184.08L562.05 185.21L559.17 184.6L558.27 184.18L556.34 182.54L555.77 183L555.11 183.38L554.47 183.21L554.81 181.24L556.22 178.99L557.06 178.11L557.57 178.04L558.35 178.55L559.38 178.29L559.95 177.19L561.41 175.68L562.81 173.24L562.66 172.5L563.31 170.83L564.18 170.26L565.02 169.14L568.32 162.45L570.93 160.44L575.82 158.85L576.29 159.61L577.15 160.36L580.28 160.35L581.5 160.76L583.19 162.51L584.51 163.01L587.84 162.69L590.72 163.21L593.26 162.97L595.59 162.24L600.09 163.16L601.36 163.2L603.31 164.06L604.33 164.88L604.97 165.82L607.28 170.56L607.78 172.35L607.74 173.1L609.22 178.48L609.43 180.16L610.15 180.7L611.11 183.39L611.32 184.91Z" fill="#C7C7C7" stroke="white" stroke-width="2"/>
<path d="M189.35 292.95L188.06 291.5L187.62 289.62L186.06 289.1L185.2 289.42L183.39 289.5L179.32 287.69L179.31 287.29L178.65 286.68L177.38 287.27L175.4 285.59L173.88 284.62L173.02 283.16L172.74 281.77L171.7 281.38L169.93 282.5L168.71 282.47L167.3 281.67L166.43 280.34L163.3 278.76L161.34 278.59L160.2 279.13L159.3 279.98L157.87 279.81L157.56 279.51L155.42 279L152.36 278.72L151.6 278.29L150.42 277.1L150.12 275.13L148.54 274.64L146.65 273.67L145.83 271.95L145.54 271.75L142.82 271.47L142.44 271.12L141.6 267.41L140.72 266.52L140.24 267.68L139.58 267.36L139.31 266.72L139.93 265.19L139.09 263.67L137.73 263.28L136.47 259.81L136.3 258.15L137.85 255.24L137.64 253.58L136.48 251.61L135.73 249.45L135.67 247.16L136.29 246.66L136.67 245.29L137.71 244.24L138.07 242.77L137.83 241.28L137.41 240.39L137.32 238.86L137.86 237.21L136.69 235.03L135.67 234.65L134.58 235.63L134.52 236.14L133.68 237.1H133.11L130.93 236.08L125.75 236.16L120.14 237.94L118.45 237.93L116.97 238.41L114 237.15L117.26 234.59L119.18 234.01L120.73 232.2L120.88 231.64L120.72 230.35L124.68 230.61L127.55 230.28L128.27 230.65L130.58 232.98L130.95 232.96L132.17 232.17L132.3 231.45L132.71 230.92L133.79 230.42L134.56 230.55L135.93 230.16L137.23 228.95L139.07 227.93L139.45 228.02L140.09 230.28L140.77 230.81L141.45 230.73L143.99 227.57L143.73 225.82L144.26 224.98L146.01 223.72L146.47 223.74L147.31 224.29L149.1 224.39L150.3 223.32L152.43 222.94L156.3 223.4L156.06 221.94L156.17 220.13L158.23 218.92L159.04 217.77L159.4 216.75L159.23 216.3L158.33 215.6L158.38 214.93L159.57 213.34L162.05 212.81L162.31 212.59L162.22 211.42L163.94 210.92L165.32 208.36L176.11 208.3L178.26 209.43L178.71 209.92L179.51 211.83L180.84 213.1L183.38 214.08L184.63 217.35L185.09 217.56L186.07 217.43L186.69 217.63L187.37 220.51L190.61 221.99L191.29 221.8L191.83 220.06L193.75 218.98L195.14 219.26L195.5 219.64L195.46 220.34L196.86 221.31L197.46 222.55L196.7 223.97L195.41 228.96L195.47 229.31L196.25 229.78L196.51 230.39L196.66 231.78L197.49 234.05L196.55 235.72L196.93 237.65L195.93 241.17L195.9 241.97L196.17 243.73L197.67 246.48L196.77 255.48L213.93 255.53L213.69 256.09L214.91 257.2L218.41 257.11L219.52 257.22L220.59 257.65L222 261.24L221.83 261.99L220.43 263.74L219.07 264.82L218.93 266.14L219.36 269.39L219.94 269.9L220.84 269.87L222.37 273.21L222.33 275.26L222.91 276.75L222.84 278.46L222.28 280.7L220.62 282.71L220.1 284.96L219.52 285.8L219.09 286.21L217.45 286.74L216.52 287.82L215.09 291.6L214.57 294.05L210.46 296.62L208.99 298.05L208.25 298.01L205.66 296.46L204.39 295.03L197.31 295.99L195.99 295.56L195.74 295.26L192.36 295.92L191.88 295.76L191.36 294.41L189.35 292.95Z" fill="#C7C7C7" stroke="white" stroke-width="2"/>
<path d="M236.64 63.4L238.24 80.37L219.75 80.3L219.78 80.98L217.45 84.24L215.79 87.27L215.72 88.4L214.57 91.04L214.46 91.7L214.69 92.43L215.83 93.84L215.81 94.37L215.39 94.76L213.36 95.31L211.95 96.72L210.7 97.18L208.88 96.95L207.96 94.44L206.09 92.4L203.26 91.47L201.66 91.53L201.11 92.42L199.02 93.13L197.74 93.82L196.72 95.08L195.9 98.05L196.27 99.85L196.02 101.58L195.27 103.87L195.71 105.98L193.35 104.94L192.01 105.36L191.48 105.29L190.44 103.25L188.96 101.6L187 100.29L186.48 100.25L181.47 95.83L181.61 94.69L183.45 95.02L184.59 93.7L184.65 93.12L183.52 88.79L182.94 87.89L181.72 87.05L180.84 84.88L180.55 79.9L181.12 78.94L181.89 75.9L181.23 74.32L180.87 72.73L182.49 71.27L182.44 70.82L181.57 69.7L181.38 67.44L179.72 62.68L176.99 58.94L177.7 57.44L178.61 54.12L178.12 53.46L176.17 52.51L174.81 52.4L173.93 52.61L172.96 52.24L171.75 51.07L171.69 50.11L171.06 50L169.93 50.42L169.32 50.41L168.57 50.07L167.85 49.29L168.15 48.83L168.38 46.55L168.08 46.33L164.71 46.1L160.96 46.24L157.65 45.54L157.45 44.94L158.25 43.18L158.37 41.7L157.64 39.93L155.7 36.39L154.97 34.33L154.5 30.61L155.29 29.13L155.21 28.17L153.37 26.17L151.21 25.11L148.4 22.33L147.34 20.52L147.05 19.56L145.91 18.91L145.66 18.52L145.69 17.68L145.98 17.35L146.88 17.42L148 18.08L148.94 19.81L149.55 19.9L152.94 19.4L154.29 19.5L156.2 20.09L156.81 21.29L157.36 23.22L157.9 23.57L158.86 23.49L159.6 22.84L160.55 22.44L163.73 22.6L164.2 22.65L165.51 23.86L166.11 24.01L166.63 23.87L167.24 22.31L168.55 22.45L170 23.38L173.93 27.95L174.98 28.52L175.69 28.63L177.2 27.95L177.94 26.82L178.04 25.98L177.21 23.22L177.57 21.48L178.03 21.2L179.96 21.15L180.97 20.05L182.52 18.96L183.27 19.01L187.17 20.35L187.76 20.18L188.56 19.46L189.59 19.16L190.72 19.51L191.75 19.3L193.09 18.02L194.09 17.77L195.24 18L196.35 17.93L197.03 17.08L197.08 15.73L200.11 13.92L202.44 14.11L205.2 13.72L206.09 12.59L206.18 11.88L206.77 10.76L207.52 10.63L209.37 9.73L210.47 8.69L211.58 6.98L210.38 3.42L209.21 3.06L209.85 2.88L211.28 2.95L212.08 3.27L215.65 3.17L216.71 2.22L217.45 2L218.82 2.42L219.35 3.73L220.39 4.53L220.87 5.9L220.2 10.8L219.48 12.18L218.23 12.88L218.29 13.71L219.9 14.12L221.52 13.9L223.87 14.71L225.69 15.81L224.81 17.24L224.8 18.39L227.14 21.81L227.34 23.36L225.83 26.28L223.95 27.69L223.23 29.19L223.5 29.58L223.56 31.75L222.09 34.16L221.19 36.93L220.88 39.5L220.79 42.17L221.77 44.04L222.28 45.8L222.27 47.2L223.84 48.23L224.74 48.43L224.87 49.11L224.41 54.26L224.53 55L226.34 55.29L225.68 56.46L226.14 56.96L228.29 57.7L229.75 59.62L232.41 62.36L236.64 63.4Z" fill="#C7C7C7" stroke="white" stroke-width="2"/>
<path d="M324.02 640.52L323.66 640.53L321.72 639.42L321.52 638.96L322.04 634.69L321.58 630.44L321.73 629.37L322.36 628.13L325.2 625.75L326.03 624.19L328.33 621.63L326.87 619.98L325.8 619.36L323.55 618.76L321.23 616.51L320.02 614.89L319.92 613.3L319.49 612.12L318.26 610.09L316.2 607.85L315.53 607.26L313.14 606.05L311.69 606.26L309.79 604.75L308.27 603.12L307.02 602.34L306.88 600.64L304.98 598.48L301.66 598.02L300.74 597.55L299.01 595.89L297.25 596.02L295.08 594.64L293.17 590.93L292.06 589.44L289.53 587.32L288.83 587.4L288.16 589.19L285.57 591.43L282.9 591.55L283 588.69L283.4 587.41L283.01 586.41L279.36 582.12L276.99 580.35L274.81 578.29L273.06 576.18L270.37 573.97L268.47 573.83L266.32 574.04L265.18 575.4L265.12 576.36L264.09 577.33L262.98 577.35L262.4 576.87L259.24 577.01L258.59 576.53L258.43 575.62L257.94 575.4L258.79 575.18L259.83 574.46L262.35 571.69L262.46 569.85L263.06 568.6L263.88 568.15L265.17 568.08L265.81 567.82L266.73 566.82L272.18 560.34L272.81 558.92L272.98 557.81L273.8 556.74L275 555.89L276.37 555.48L278.33 551.26L278.43 550.65L278.74 550.28L280.38 549.42L282.01 547.62L282.86 546.47L283.37 545.18L284.71 543.08L285.64 542.79L287.21 542.97L287.76 543.76L288.23 542.48L288.02 541.9L286.67 541.08L286.62 540.72L286.97 540.39L288.05 540.01L288.87 539.05L291.66 538.1L292.71 537.03L292.81 536.11L293.63 535.2L295.84 534.05L298.31 533.65L300.08 531.84L300.23 530.78L301.55 528.42L301.88 528.38L301.93 528.74L302.22 528.94L303.55 528.77L305.99 527.64L308.67 527.05L309.88 526.48L311.98 524.13L312.48 524.14L313.15 523.75L314.16 522.4L316.47 521.67L316.77 522.05L320.29 522.44L323.55 521.29L324.11 520.48L325.46 521.06L325.31 521.98L328.39 521.95L330.02 522.94L332.58 522.57L334.5 523.72L337.08 523.31L338.62 523.49L341.42 523.33L343.68 524.25L346.16 525.65L347.16 528.09L348.75 528.28L348.84 527.8L350.65 527.45L356.21 530.99L357.58 532.54L358.29 532.51L359.85 533.49L362.88 536.98L364.52 539.19L365 540.67L367.17 543.33L368.34 543.88L375.03 544.94L377.14 544.54L380.49 544.88L381.37 547.22L379.29 548.8L378.02 549.21L377.29 551.07L377.51 553.26L377.13 554.82L376.61 556.12L375.43 556.32L374.14 558.01L374.11 559.42L375.91 560.59L376.18 560.39L375.9 559.42L375.91 558.46L377.4 557.64L378.98 558.28L379.71 559.19L380.88 560.04L381.33 560.01L379.93 561.74L376.03 568.78L371.82 580.38L365.52 590.86L360.08 597.52L353.57 603.48L347.48 607.16L344.38 611.47L344.2 611.04L344.85 609.46L345.19 607.28L344.01 605.57L344.11 605.15L345.04 604.98L346.05 605.38L346.61 605.96L347.63 606L350.21 604.59L351.03 603.91L353.88 600.2L354.63 599.51L355.08 599.7L356.1 599.51L357.15 598.67L358.08 597.4L358.45 595.92L358.63 594.99L358.4 592.89L358.6 591.52L360.17 591.45L360.91 591.75L361.18 592.58L361.53 592.32L361.24 590.92L361.75 588.85L362.23 588.28L364.97 586.69L365.7 585.61L366.17 582.86L365.96 580.58L366.52 579.9L367.02 580.7L367.39 580.73L367.82 580.31L368.29 577.23L368.19 576.79L367.24 575.57L366.57 575.54L366.31 576.23L366.48 576.62L366.34 577.19L365.99 577.39L364.48 577.37L362.47 577.77L362.13 579.38L361.6 579.43L360.79 578.99L360.89 577.28L360.07 576.39L359.03 576.72L358.43 576.24L357.7 574.98L357.3 573.53L357.42 572.96L356.78 572.27L356.17 574.98L356.61 577.23L357.86 579.34L357.29 580.15L356.55 582.69L356.93 585.72L356.75 586.49L356.27 586.12L356.53 585.88L356.5 585.17L356.03 583.89L355.58 583.5L355.05 584.16L355.02 585.53L353.61 588.8L353.56 590.69L353.78 591.21L353.06 591.91L351.45 592.55L350.84 594.13L346.75 595.7L346.03 596.23L345.5 597.82L345.4 600.09L344.43 602.36L342.07 603.66L341.96 605.42L342.44 606.25L342.69 607.27L341.74 607.83L341.49 609.34L341.92 609.94L342.6 609.8L343.9 610.43L344.05 611.34L341.92 612.99L339.6 617.51L337.67 624.39L335.66 628.88L333.98 631.4L326.19 638.93L324.02 640.52Z" fill="#C7C7C7" stroke="white" stroke-width="2"/>
<path d="M381.33 560.01L380.88 560.04L379.71 559.19L378.98 558.27L377.39 557.64L375.91 558.46L375.9 559.42L376.18 560.39L375.91 560.59L374.11 559.42L374.15 558.01L375.43 556.32L376.61 556.12L377.14 554.81L377.51 553.26L377.29 551.07L378.02 549.21L379.29 548.79L381.37 547.21L380.49 544.87L377.14 544.53L375.03 544.93L368.34 543.87L367.18 543.33L365.01 540.67L364.52 539.19L362.89 536.98L359.86 533.49L358.29 532.5L357.58 532.53L356.21 530.98L350.65 527.44L348.84 527.78L348.75 528.26L347.15 528.07L346.15 525.63L343.68 524.24L341.41 523.31L338.62 523.47L337.08 523.29L334.49 523.7L332.58 522.55L330.01 522.91L328.38 521.93L325.3 521.96L325.45 521.03L324.1 520.45L323.54 521.26L320.28 522.42L316.76 522.03L318.21 519.1L318.94 517.01L318.36 513.76L318.77 510.55L318.73 508L319.69 506.25L323.32 506.27L324.03 505.89L324.56 505.9L325.62 506.14L325.93 506.65L327.96 508.06L330.64 508.09L332.98 507.51L338.27 509.19L342.53 509.55L343.55 510.18L343.72 510.59L345.29 511.77L349.06 512.19L353.31 512.06L354.64 513.96L354.82 513.46L355.56 513.08L356.48 513.06L357.35 512.2L356.5 509.21L357.19 507.63L357.91 506.85L359.91 505.71L363.48 506.11L365.35 505.14L366.08 504.27L366.67 502.79L368.2 502.14L369.31 502L370.73 502.76L371.54 502.79L373.87 502.62L376.71 501.89L377.46 501.9L378.5 502.3L381.62 504.9L382.85 505.52L384.29 505.68L387.64 503.55L388.99 502.12L390.55 501.55L390.67 501.94L391.43 502.01L393.17 501.78L393.5 501.34L398.74 501.37L398.35 502.69L398.86 504.34L398.79 504.73L397.29 505.87L396.31 505.39L395.49 502.86L395.47 503.98L396.06 506.7L397.77 508.36L398.33 509.31L397.32 511.6L397.16 513.92L397.26 514.35L398.02 515.08L398.28 520.94L398.59 521.49L399.02 521.69L399.79 521.18L400.14 521.9L400.24 522.77L399.77 522.83L399.34 522.55L398.15 523.18L397.81 527.02L398.38 529.61L397.81 530.36L398.12 532.29L399.03 534.17L398.17 536.51L397.65 540.52L395.94 545.2L395.6 545.1L395.24 544.34L395.45 543.37L394.53 542.19L394.27 542.52L394.45 544.95L395.61 545.78L394.69 547.44L393.05 548.09L388.92 551.13L386.12 553.69L382.37 558.13L381.33 560.01ZM399.21 533.46L399.06 532.99L399.31 531.24L400.07 528.84L399.67 527.66L399.83 526.64L401.23 525.88L401.45 525.94L402.11 526.88L401.57 529.44L400.75 530.3L400.16 531.52L400.36 532.69L399.21 533.46ZM398.76 509.09L396.89 507.07L399.44 504.63L399.69 504.67L400.34 505.72L399.48 507.04L398.76 509.09Z" fill="#C7C7C7" stroke="white" stroke-width="2"/>
<path d="M571.97 263.69L569.07 264.58L567.52 263.94L566.98 263.6L566.5 262.88L564.58 261.96L563.98 261.44L563.86 261.03L564.2 260.64L564.33 259.22L564.18 258.83L562.75 257.32L562.23 255.83L561.14 255.16L560.18 253.56L560.16 252.79L560.75 251.21L561.07 250.91L562.77 250.92L563.9 251.67L566.45 250.68L567.14 250.13L567.44 249.55L566.68 246.8L566.76 245.92L567.42 244.3L567.5 241.19L566.75 240.04L564.76 238.09L563.49 235.59L563.27 233.45L563.94 232.3L570.4 235.28L574.08 236.23L579.5 239.3L580.8 241.75L582.56 243.2L584.22 243.99L584.68 244.02L588.27 246.25L588.87 247.56L586.49 248.32L581.92 251.26L580.95 252.15L579.4 254.36L579.08 254.34L579.19 253.24L578.14 251.42L577.15 251.58L577.49 252.74H578.73L578.96 252.98L578.44 254.95L577.17 257.04L576.64 256.69L576.27 256.02L575.28 255.86L575.48 256.54L576.61 257.16L576.35 258.93L575.49 260.08L574.56 262.11L573.78 262.26L573.48 261.8L573.96 260.4L574.37 260.27L574.68 259.84L575.05 258.8L574.24 258.43L574.34 259.11L573.89 260.24L573.41 260.74L573.15 261.83L573.43 262.55L573.17 263.07L571.97 263.69Z" fill="#C7C7C7" stroke="white" stroke-width="2"/>
<path d="M406.61 489.92L406.45 488.59L405.03 488.02L404.3 484.72L404.7 482.77L402.56 482.19L401.8 482.36L400.7 485.13L400.04 485.98L398.98 485.45L398.63 484.67L399.32 481.37L400.21 480.71L400.35 480.31L398.74 479.04L397.15 478.91L395.57 479.1L395.07 478.72L391.66 479.25L389.28 479.37L388.27 479.16L387.67 478.77L387.34 476.73L388.62 474.61L388.87 473.56L388.62 473.12L388.02 472.82L387.1 470.85L387.16 469.96L386.66 469.28L385.99 468.99L384.78 467.85L383.29 464.84L383.65 464.29L383.73 462.53L382.43 461.01L382.05 459.17L382.22 458.36L382.61 457.78L382.59 455.04L381.7 453.28L378.11 450.45L376.98 448.9L374.01 449.76L368.7 449.63L368.04 449.09L366.39 448.95L365.97 449.29L364.25 449.22L363.53 447.9L362.9 447.39L359.39 446.59L357.64 445.75L356.86 444.75L354.28 444.76L353.21 445.3L351.89 445.17L349.25 444.08L346.72 443.62L345.24 442.83L344.07 442.54L343.34 442.91L343 443.51L341.79 444.13L338.51 443.84L334.5 443.95L330.67 443.3L327.42 445.59L328.26 444.51L328.99 442.97L330.25 441.83L337.81 437.29L339.76 435.42L341.02 432.99L342.75 431.3L343.15 430.09L344.59 429.06L344.87 427.84L344.52 427L346.52 424.74L347.73 422.4L347.8 421.46L347.49 419.53L347.72 419.14L348.68 418.62L351.28 414.98L351.44 412.05L352.06 410.37L353.07 410.07L353.8 409.43L355.79 406.75L357.01 405.73L357.48 405.5L358.79 405.46L360.29 404.68L360.57 404.28L360.97 401.82L362.19 400.69L364.34 399.58L366.26 399.21L367.69 397.52L369.19 396.91L369.94 397.05L371.67 398.6L374.22 398.68L378.51 399.64L380.18 399.28L381.8 399.5L383.8 398.91L385.98 400.33L387.65 401.12L387.52 402.04L387.85 403.46L389.06 405.55L389.69 405.58L390.23 405.26L390.9 404.32L391.31 403.19L391.57 403L392.12 403.05L392.48 403.44L392.73 404.4L392.74 407.18L393.94 407.71L394.35 407.26L394.08 404.72L394.57 403.53L395.02 403.05L403.2 402.38L404.21 401.13L405.71 402.59L406.83 403.02L409.61 402.33L410.05 401.34L409.85 400.88L410.16 400.27L412.54 400.16L414.2 400.94L415.05 400.3L416.36 400.01L419.62 403.36L419.82 404.4L419.25 405.41L418.96 407.78L419.54 408.39L421.43 409.6L421.83 411.15L421.77 411.71L420.25 413.74L420.07 415.68L420.86 416.42L421.17 417.03L421.54 419.24L422.84 421.04L423.67 423.03L423.64 423.88L425.25 423.83L426.03 423.52L426.31 423.16L427.31 423.11L431.01 424.43L431.24 424.8L431.19 426.07L430.49 428.25L428.63 430.97L428.89 433.91L428.7 437.36L428.17 438.92L428.89 440.52L430.67 441.76L432.48 442.59L432.99 444.31L431.78 445.01L433.8 448.32L434.93 448.57L436.94 448.33L437.12 448.86L440.74 447.86L441.3 448.28L442.61 447.96L443.36 446.98L443.41 446.14L443.17 445.9L443.34 443.6L444.53 443.27L444.62 443.62L444.27 444.11L444.28 444.59L446.62 444.67L449.01 444.42L450.8 443.75L452.03 442.51L453.96 441.49L456.17 441.27L457.41 440.54L458.68 441.08L459.24 442.25L460.47 443.84L462.24 444.23L465.39 443.7L467.09 443.71L467.84 445.35L466.19 447.5L464.69 448.21L461.92 448.57L461.42 448.42L459.07 449.43L457.98 450.58L456.89 454.08L456.94 454.49L458.57 456.22L459.05 456.48L458.99 456.68L457.3 457.1L456.24 456.28L454.76 457.39L454.33 458.04L454.6 458.26L453.84 458.9L450.62 460.45L448.37 461.15L448.09 461.59L448.13 462.55L448.63 464.1L448.31 464.52L446.91 464.78L446.21 464.14L444.87 463.85L441.75 463.35L440.89 463.5L439.57 463.84L437.84 464.66L437.34 465.17L436.13 467.32L434.82 467.89L434.32 467.77L434.9 467.3L434.42 466.08L433.25 465.23L432.42 466.46L432.68 467.21L432.38 467.82L424.76 472.06L423.81 472.88L423.5 474.04L420.23 477.04L416.98 478.99L415.06 479.52L410.56 482.73L408.23 484.69L407.56 484.77L407.12 485.39L408.02 485.82L408.68 485.88L409.61 485.52V486.28L408.99 487.59L407.67 488.44L406.61 489.92ZM450.92 466.91L449.38 466.26L448.22 466.44L447.73 466.06L447.83 465.28L448.78 464.63L449.87 462.78L450.59 463.03L451.25 463.68L451.38 466.59L450.92 466.91Z" fill="#C7C7C7" stroke="white" stroke-width="2"/>
<path d="M435.38 283.82L430.02 285.24L428.28 286.58L425.72 287.68H424.17L419.64 288.68L417.12 290.76L415.34 291.66L414.88 291.42L413.37 288.8L412.82 288.77L412.31 292.07L411.62 292.15L408.27 291.47L405.14 290L405.7 288.44L405.48 287.7L400.95 288.23L398.19 287.89L397.63 288.43L397.33 289.43L396.58 290.18L395.44 290.13L394.83 287.03L393.72 283.32L392.68 281.44L391.53 280.13L390.35 281.1L388.88 283.49L387.25 289.43L386.62 289.66L382.55 288.23L379.46 286.52L375.53 286.12L373.33 285.09L370.93 284.69L371.45 282.35L372.67 280.47L372.7 278.76L372.14 279.06L370.33 281.15L369.67 282.38L369.47 284.26L369.13 284.71L368.33 284.69L367.37 284.18L366.39 280.84L367.13 278.08L366.69 275.03L366.17 274.45L366.16 272.88L366.63 269.57L365.53 267.32L365.58 266.82L366.4 265.93L366.56 265.06L365.17 263.72L365.11 262.86L366.99 256.87L367.03 253.92L367.57 250.95L369.51 245.66L369.88 245.39L370.31 244.54L370.75 241.4L371.85 240.15L372.41 238.26L373.06 237.24L374.68 233.55L375.81 229.1L376.96 227.52L378.15 226.42L379.36 224.74L380.39 222.82L381.76 221.9L382.81 221.74L383.54 220.89L384.48 219.35L384.66 218.36L386.36 215.12L387.45 214.32L389.21 209.17L389.87 205.13L389.72 204.83L388.98 204.51L387.31 202.77L386.71 201.82L386.55 200.94L386.69 200.37L388.1 198.68L389.39 196.58L389.33 193.91L388.9 191.73L389.09 191.38L391.56 189.6L394.97 188.46L397.47 187.25L397.71 186.75L397.56 185.24L398.42 183.97L399.93 182.63L401.22 182.48L401.41 181.14L401.12 179.94L401.37 179.48L402.83 179.02L403.47 178.54L404.4 175.79L403.38 174.45L403.29 173.05L403.58 172.77L404.55 172.69L405.27 172.32L405.64 171.66L405.67 171.02L404.41 169.85L403.54 169.71L403.15 169.4L402.13 167.74L400.84 167.62L398.97 167.87L396.68 167.06L397.21 166.42L399.83 164.57L401.79 164.04L402.66 164.09L405.44 165.61L406.84 165.69L407.79 165.17L409.53 165.46L410.12 166.15L410.2 167.18L410.48 167.5L411.7 167.53L415.1 168.96L415.94 169.99L416.41 173.49L417.05 174.99L416.84 178.71L417.07 179.79L417.74 180.92L417.73 181.36L415.96 187.51L415.65 189.88L415.93 190.88L415.68 192.47L413.93 194.51L412.17 195.18L411.99 195.89L413.93 197.21L414.35 196.94L415.72 197.18L415.97 197.53L416.08 198.41L415.46 199.6L416.31 201.04L417.19 200.97L420.19 205.13L421.1 205.98L423.38 209L425.52 207.66L429.79 206.72L431.59 207.94L431.67 209.69L431.03 212.94L431.42 214.29L428.03 214.64L426.69 215.18L426.12 215.73L425.44 217.16L424.71 219.84L425.08 221.14L422.45 223.69L422.19 224.39L422.39 224.81L424.47 225.1L425.41 225.79L426.15 227.38L426.21 229.04L426.83 230.08L430.71 232.03L430.8 232.56L429.16 234.37L429.29 236.02L431.43 237.64L432.42 240.51L433.76 242.51L434.47 242.69L436.25 242.48L437.25 242.78L438.07 243.22L438.68 244.04L439.96 244.7L442.9 244.91L442.21 245.56L441.99 246.54L441.43 247.01L437.61 249.03L434.4 251.65L434.21 252.02L435.5 253.82L435.14 254.21L434.13 254.48L433.23 255.09L431.71 258.58L430.7 259.3L430.2 260.46L430.43 261.38L432.29 263.33L435.88 264L437.75 264.99L437.8 265.75L437.24 266.2L435.2 267.01L434.77 267.97L434.86 268.47L435.21 268.8L436.24 268.62L437.16 268.91L437.74 269.42L438.03 270.06L437.07 270.77L435.92 271.19L433.97 272.86L433.78 273.71L433.73 276.63L434.08 277.88L435.02 278.54L436.07 278.78L436.48 279.03L436.65 279.45L436.7 280.51L435.34 282.89L435.38 283.82Z" fill="#C7C7C7" stroke="white" stroke-width="2"/>
</svg>
