<svg width="616" height="400" viewBox="0 0 616 400" fill="none" xmlns="http://www.w3.org/2000/svg">
<path d="M112.46 286.93L115.11 285.95L118.27 286.7L120.87 284.67L122.16 282.45L123.59 274.58L124.77 273.07L127.16 272.98L128.48 273.88L131.34 273.07L133.26 276.9L136.64 278.43L138.17 278.51L139.17 277.7L137.84 275.3L138.37 273.97H141.09L140.09 276.38L140.36 278.95L142.57 280.28L142.28 283.9L143.97 288.96L143.62 291.66L145.98 293.5L145.92 294.12L142.04 295.83L138.83 299.13L138.48 300.42L140.95 317.62L143.3 320.26L149.32 322.38L159.65 329.04L167.16 336.65L172.98 341.22L174.04 343.49L170.87 347.94L171.22 351.22L168.76 357.28L168.89 360.15L168.72 365.17L169.93 367.71L167.61 369.55L165.28 369.38L164.46 367.65L160.1 371.47L157.24 369.91L156.01 367L154.28 365.95L153.63 368.86L152.15 369.88L150.93 369.44L148.75 369.99L148.14 371.21L143.19 371.65L142.09 374.44L139.83 376.94L139.19 376.15L136.29 375.45L132.82 375.9L130.85 375.14L128.39 377.11L127.97 379.19L125.16 379.62L123.34 379.38L121.55 377.72L118.63 378.13L116.43 375.87L112.41 376.63L107.72 375.67L106.09 376.57L104.42 376.26L98.3899 381.04L96.3999 376.49L92.5999 376.42L90.1099 378.76L87.6399 379.7L87.0699 380.75L87.4999 383.18L85.1299 386.34L78.4999 387.82L73.2099 387.69L67.6699 385.05L65.6099 385.73L59.0499 384.48L58.6699 384.16L59.8599 382.8L61.5399 382.39L61.1999 378.96L61.7199 377.24L60.2999 374.16L62.9099 370.44L61.5299 368.17L61.7999 366.75L61.1799 366.46L60.9299 364.15L61.9499 362.93L62.0499 361.35L60.9199 358.81L62.0499 357.75L62.3199 355.42L61.5899 353.14L60.3099 352.06L60.5199 348.03L59.8899 346.12L60.9299 344.35L63.4399 344.17L63.1599 343.1L64.2799 340.92L68.2399 335.91L68.0499 333.47L65.9199 328.6L61.4799 327.67L61.5699 325.86L59.1899 322.03L58.7699 318.1L56.7499 314.31L55.4199 314.2L54.6799 309.11L52.7199 306.47L53.0299 301.23L52.8599 298.57L51.9199 297.63L52.1699 296.19L56.0899 294.3L58.1799 284.69L60.0599 283.32L61.0299 284.41L62.5399 289.31L66.2899 289.14L68.5399 292.08L78.0099 289.7L82.8399 285.28L84.0599 285L96.3499 289.11L99.7099 289.38L102.75 291.57L109.43 289.76L112.46 286.93Z" fill="#C7C7C7" stroke="white" stroke-width="2"/>
<path d="M466.56 174.77L472.54 171.44L482.44 172.4L485.49 173.59L491.78 179.02L496.85 182.33L502.42 181.64L504.77 183.24L509.18 180.25L519.15 181.82L523.83 181.55L526.1 182.34L525.45 184.1L525.82 184.97L530.76 187.87L534.86 188.89L539.21 187.35L542.77 187.56L544.53 196.21L543.4 199.07L544.61 203.76L544.28 205.75L527.61 204.74L526.41 206.48L526.01 209.15L527.32 210.87L528.99 211.25L526.89 211.41L526.04 213.08L524.21 212.31L522.72 214.23L519.87 213.93L518.5 216L518.44 221.94L520.08 225.05L519.39 225.25L516.78 223.68L515.15 224.57L513.52 223.82L511.14 225.58L509.06 224.48L507.15 224.96L504.43 228.64L503.72 234.37L502.83 233.63L502.5 234L501.9 233.72L501.29 234.45L501.12 233.88L500.33 234.86L500.25 237.21L501.92 238.89L501.95 239.88L501.26 240.47L502.22 242.07L503.15 241.08L502.3 239.93L503.29 237.3L506.86 241.61L508.34 240.43L509.21 237.92L511.38 239.26L513.12 239.39L512.88 238.39L513.73 237.11L516.08 239.55L517.68 239.19L517.85 237.64L518.8 239.11L520.19 238.79L519.84 240.3L520.43 240.74L519.61 242.42L521.06 243.98L522.56 244.28L524.07 243.04L524.39 242.16L524.84 241.95L524.6 242.81L525.31 242.89L525.46 244.2L527.85 244.1L527.4 245.51L525.8 245.83L525.9 247.55L527.31 248.37L526.02 249.24L526.17 250.39L528.68 254.85L530.37 255.09L530.69 254.18L533.36 253.93L532.98 255.55L532.09 255.95L534.19 257.74L531.82 258.65L532.11 259.35L530.41 260.39L530.39 261.73L531.43 263.27L530.19 263.63L530.2 265.53L532.41 266.31L533.28 267.26L532.68 267.34L532.66 268.51L536.5 270.96L537.65 272.76L538.63 272.84L539.02 274.51L540.55 275.45L539.98 276.45L540.87 276.56L541.37 277.51L542.04 277.17L542.3 278.7L544.16 279.56L545.69 281.65L546 283.71L547.28 284.81L549.16 284.63L550.84 287.39L551.33 290.1L551.37 289.23L553.55 290.19L553.06 291.19L555.64 294.51L555.29 295.19L557.47 298.41L557.79 300.3L555.25 301.03L552.21 299.56L550.54 301.25L550.15 300.57L548.73 301.17L548.02 300.21L547.62 301.22L546.92 300.53L545.86 301.84L544.76 300.66L544.67 299.24L542.57 298.9L540.79 297.47L541 298.8L540.4 299.36L539.95 297.89L539.32 299.5L537.97 298.5L536.8 300.04L536.79 301.31L537.48 301.66L536.95 303.01L538.17 303.19L538.41 305.08L536.39 304.28L536.38 305.83L535.23 304.43L534.31 305.1L534.02 304.26L532.83 304.43L533.52 302.96L532.66 302.75L532.21 303.6L531.67 302.5L529.39 302.45L529.94 301.91L528.86 300.93L528.41 301.73L525.05 301.15L525.52 302.06L523.77 302L522.47 304.07L522.21 303.27L521.21 304L520.87 303.23L519.56 304.08L519.18 303.5L518.78 304.04L517.63 303.57L518.36 304.67L516.93 305.98L516.26 306.16L516.01 305.06L514.43 307.18L514.32 306.47L513 306.4L512.27 308.17L513.18 308.68L511.86 309.27L512.81 310.46L511.68 310.7L509.65 309.12L506.62 303.52L505.85 304.37L502.66 303.56L502.31 302.34L500.53 302.37L498.91 299.33L497.42 299.38L496.77 298.02L495.07 297.51L492.5 290.84L489.39 290.43L488.41 287.67L487.56 287.88L486.98 286.86L485.83 286.77L485.17 285.44L483.51 285.49L482.97 284.62L480.96 285.15L480.03 284.41L478.26 285.28L477.66 287.08L475.98 287.79L476.28 290.35L474.79 289.93L474.32 288.98L473.08 289.64L471.6 288.73L469.48 289.37L467.23 286.86L463.22 285.95L460.24 287.29L458.02 284.31L452.9 281.31L450.2 277.68L449.86 275.56L452.65 272.27L452.49 270.66L450.17 266.06L450.2 264.41L451.76 261.01L449.26 259.14L447.45 255.21L443.91 252.18L442.94 247.94L444.22 246.42L451.42 245.19L453.26 242.91L453.33 240.43L452.49 239.58L448.26 240.76L446.28 239.88L444.94 235.99L442.4 232.94L440.8 228.54L437.46 224.33L433.6 215.39L429.91 212L425.38 206.04L425.75 202.42L422.84 196.9L421.47 195.61L417.49 195.16L414.76 191.81L414.73 188.85L415.86 185.88L413.88 178.83L414.32 176.25L411.21 176.2L412.89 175.37L417.46 175.96L418.1 176.68L417.05 178.54L417.97 179.9L425.57 179.83L431.89 175.36L436.84 175.61L439.92 175L443.83 176.64L449.38 175.55L450.61 175.87L452.41 178.76L454.42 179.33L461.66 175.44L466.56 174.77Z" fill="#C7C7C7" stroke="white" stroke-width="2"/>
<path d="M498.07 86.9399L500.9 88.7599L503.75 92.4899L504.58 98.1799L505.4 99.0599L507.8 98.9999L513.6 94.2799L515.68 94.0099L517.52 95.6599L517.55 100.79L522.72 103.39L528.02 103.14L530.06 107.19L532.27 108.97L540.27 118.97L541.54 118.5L546.01 113.29L550.13 113.5L551.61 114.1L554.77 117.53L557.45 122.6L559.7 124.48L557.9 130.64L554.81 136.38L548.7 137.6L546.92 138.76L546.67 140.76L546.45 139.71L545.03 139.83L546.17 140.25L545.35 141.09L545.99 142.67L548.89 142.87L549.08 143.43L545.77 157.58L543.44 160.72L543.45 165.74L545.04 175.23L544.1 177.03L544.7 185.12L543.42 185.52L542.79 187.54L539.23 187.33L534.88 188.87L530.78 187.85L525.84 184.95L525.46 184.08L526.11 182.33L523.84 181.54L519.16 181.81L509.19 180.24L504.77 183.23L502.43 181.64L496.86 182.33L491.79 179.01L485.49 173.58L482.44 172.4L472.54 171.44L466.56 174.77L466.84 170.86L465.15 169.92L464.55 167.24L461.63 166.13L461.81 165.28L463.03 164.73L464.49 162.74H467.96L470.57 161.34L478.03 159.85L476.47 154.68V151.1L474 148.4L475 144.59L483.98 139.29L482.13 135.22L481.93 131.32L480.83 128.88L480.44 125.29L480.89 124.1L483.64 124.98L485.56 123.26L485.2 118.47L484.29 115.76L484.55 112.43L489.64 104.71L489.18 102.94L487.3 102.53L489.22 98.9699V97.4999L486.57 96.3199L486.58 92.7799L487.29 91.9899L490.03 91.7599L496.11 89.7399L497.35 88.8799L498.07 86.9399Z" fill="#C7C7C7" stroke="white" stroke-width="2"/>
<path d="M298.17 83.02L304.22 81.69L306.55 83.61L308 83.56L309.08 82.42L309.43 84.81L307.71 87.1L307.51 88.64L311.15 97.84L313.05 99.08L313.68 101.04L315.41 101.59L316.31 102.73L316.4 105.11L314.85 108.98L324.69 114.36L327.69 111.95L329.17 111.8L333.15 115.45L336.51 117.03L341.06 116.79L346.8 119.05L351.39 117.19L353.27 121.65L358.25 122.77L364.89 129.13L363.94 132.03L366.26 133.93L366.51 135.31L368.83 137.68L369.25 139.02L369.2 140.74L366.09 142.91L365.45 146.45L364.17 149.06L363.8 155.76L364.61 159.19L365.26 160.64L368.89 163.72L368.44 165.18L365.7 166.61L365.17 168.54L376.32 172.45L373.68 176.47L362.23 182.55L361.73 183.58L362.86 185.64L362.54 188.15L355.72 193.57L354.25 193.65L350.11 192.1L344.28 193.54L339.03 192.57L336.31 192.85L332.4 192.14L326.1 194.47L323.01 196.5L320.08 194.18L319.5 190.8L317.86 187.98L319.11 186.21L321.74 184.42L322.08 182.37L320.05 181.37L319.98 177.74L315.75 177.2L313.75 175.06L313.84 170.33L317.86 166.48L318.02 165.08L317.22 163.65L313.25 162.6L310.62 160.38L308.47 160.81L304.36 159.03L301.07 159.74L298.62 157.63L291.6 157.98L290.84 155.95L292.19 151.72L291.16 150.45L288.45 150.48L283.44 152.77L277.21 151.16L274.2 147.23L271.09 145.12L270.57 141.22L272.71 141.52L273.99 140.62L274.1 136.78L276.92 132.59L277.16 129.13L284.35 121.81L285.4 118.29L284.61 116.18L280.72 115.42L280.95 113.2L282.31 110.31L281.79 108.79L274.87 109.54L273.92 109.07L273.58 107.46L274.68 105.64L280.15 103.81L281.24 102.63L282.57 94.28L280.14 90.25L281.52 87.55L281.83 83.87L280.65 79.84L281.8 77.9L286.39 75.04L294.46 81.92L298.17 83.02Z" fill="#C7C7C7" stroke="white" stroke-width="2"/>
<path d="M33.51 2.53L35.05 3.7L40.02 4.46L46.08 10.2L51.94 13.19L57.14 17.21L67.43 19.05L68.9 20.35L69.32 24.19L65.94 29.89L58.18 31.19L55.68 32.21L53.33 34.4L49.37 47.46L50.88 52.13L52.95 54.05L59.64 55.83L61.9 57.21L70.24 59.25L69.42 60.98L68.43 61.45L60.41 62.49L60.21 64.57L60.78 65.33L69.25 68.58L70.06 69.65L70.37 72.04L69.42 73.21L64.88 74.03L57.59 77.78L55.76 80.31L53.51 88.44L49.97 91.99L46.95 99.08L43.44 100.79L42.62 101.91L42.16 108.09L40.09 112.15L38.53 113.36L33.57 113.08L32.66 112.15L31.66 108.7L25.73 107.5L23.53 103.92L21.11 103.88L19.46 102.85L14.88 90.36L15.35 85.31L13.97 82.47L15.11 80.13L13.86 77.83L11.18 76.93L8.57 74.81L6.94 72.35L6.46 69.18L5.64 67.96L6.27 64.03L4.11 61.9L2 56.91L4.8 49.04L5.58 43.75L5.02 41.37L6.92 39.59L6.95 33.74L7.66 32.43L7.13 30.83L10.08 29.99L10.52 29.08L18.83 28.62L20.26 26.76L19.27 24.4L22.04 23.58L23.74 24.03L24.25 22.86L27.84 22.74L28.12 21.46L27.3 20.73L27.77 18.18L26.82 16.79L27.73 11.18L28.56 11.47L28.57 9.9L27.12 8.86L27.77 7.66L28.36 8.05L29.25 7.51L28.48 6.34L29.7 6.11L29.33 5.51L30.29 4.3L30.15 2.99L31.05 3.52L32.14 2.2L32.63 3.28L33.01 2L33.51 2.53Z" fill="#C7C7C7" stroke="white" stroke-width="2"/>
<path d="M155.45 65.94L160.17 66.22L168.49 69.53L171.54 71.94L179.83 74.49L192.6 72.37L196.55 72.41L194.44 81.94L192.78 80.88L192.41 82.9L190.6 80.34L188.86 80.45L183.16 87.7L179.93 86.4L178.56 87.2L180.18 92.65L180.33 100.13L187.28 103.07L186.05 105.27L185.66 109.91L184.23 110.22L182.56 109.6L175.32 111.21L174.45 111.96L174.68 113.24L173.51 116.44L162.55 117.41L160.19 119.15L158.37 134.4L159.68 136.3L160.44 136.41L164.48 135.15L166.48 137.54L167.44 150.15L162.01 150.14L162.11 156.8L162.21 159.73L161.13 160.81L156.33 158.37L146.75 158.11L144.2 156.22L140.38 157.03L134.85 160.51H133.53L129.81 158.11L120.03 166.73L117.38 165L111.48 156L110.63 150.88L114.4 145.58L114.22 144.27L111.82 143.39L105.59 142.83L104.53 140.53L104.5 137.57L105.9 135.85L109.6 135.9L110.2 134.56L109.84 132.43L106.52 130.2L99.6998 128.78L97.3398 126.99L97.2598 125.56L102.57 120.19L106.39 112.79L105.8 105.97L109.67 99.7L111.52 98.81L114.36 99.94L119.84 100.54L122.53 96.36H127.15L126.49 93.05L122.42 89.67L121.7 88.25L122.35 86.2L125.46 82.96L128.06 76.77L128.38 68.84L126.88 64.05L127.37 59.59L132.46 58.22L136.43 58.1L138.63 58.85L139.91 60.75L144.47 62.17L148.09 64.22L155.45 65.94Z" fill="#C7C7C7" stroke="white" stroke-width="2"/>
<path d="M270.57 141.22L271.09 145.12L274.2 147.23L277.21 151.16L283.44 152.77L288.45 150.48L291.16 150.45L292.19 151.72L290.84 155.95L291.6 157.98L298.62 157.63L301.07 159.74L304.36 159.03L308.47 160.81L310.62 160.38L313.25 162.6L317.22 163.65L318.02 165.08L317.86 166.48L313.84 170.33L313.75 175.06L315.75 177.2L319.98 177.74L320.05 181.37L322.08 182.37L321.74 184.42L319.11 186.21L317.86 187.98L319.5 190.8L320.08 194.18L323.01 196.5L322.82 198.16L320.49 199.12L317.26 196.32L314.35 198.53L312.52 198.71L308.97 197.91L306.09 194.99L302.95 194.75L303.38 198.37L302.22 199.4L290.3 196.1L286.6 196.66L280.36 192.89L277.52 195.08L274 195.35L269.78 197.86L262.59 196.95L263.11 192.86L260.28 187.28L255.76 181.22L251.99 180.2L250.82 178.83L249.11 173.01V169.1L250.28 165.3L252.04 162.78L256.51 161.2L256.46 157.83L255.46 155.4L255.53 151.48L256.56 149.18L259.34 147.27L259.06 138.32L264.75 140.38L270.57 141.22Z" fill="#C7C7C7" stroke="white" stroke-width="2"/>
<path d="M549.41 36.92L553.69 52.6L565.23 58.6L577.43 64.06L588.26 64.88L597.98 67.41L610.99 66.71L610.45 68.73L610.93 71.27L609.52 73.52L610.02 78.04L611.02 80.17L610.01 85.27L614 93.29L612.85 97.14L608.7 105.68L604.59 110.36L603.01 110.86L600.39 114.54L599.98 117.48L598.15 114.63L594.83 113.73L592.14 111.55L587.1 109.97L581.28 110.36L578.63 111.76L573.74 112.48L569.54 111.4L563.15 115.68L559.7 124.48L557.45 122.6L554.77 117.53L551.61 114.1L550.13 113.5L546.01 113.29L541.54 118.5L540.27 118.97L532.27 108.97L530.06 107.19L528.02 103.14L522.72 103.39L517.55 100.79L517.52 95.66L515.68 94.01L513.6 94.28L507.8 99L505.4 99.06L504.58 98.18L503.75 92.49L500.9 88.76L498.07 86.94L495.48 82.19L494.37 82.25L488.53 86.24L487.03 85.66L482.77 79.73L478.25 79.1L475.76 76.14L477.3 75.91L477.67 75.06L477.71 73.68L476.39 71.01L476.6 68.94L483.56 60.99L489.26 59.79L498.97 50.64L500.16 50.4L502.19 52.71L504.18 52.34L507.22 48.69L509.16 43.78L511.62 46.42L514.67 46.8L514.68 44.02L518.41 38.67L520.56 36.97L525.37 35.31L526.01 36.9L528.43 37.63L539.08 35.9L546.19 30.26L548.84 33.54L549.41 36.92Z" fill="#C7C7C7" stroke="white" stroke-width="2"/>
<path d="M288.57 306.32L287.25 310.75L290.36 323.05L292.27 320.88L293.69 320.34L294.62 318.22L295.88 317.9L298.23 323.54L302.17 325.05L305.61 327.71L314.09 330.32L318.8 328.3L320.01 328.57L322.22 331.35L323.12 337.27L325.19 341.41L324.8 344.2L323.81 345.93L324.83 348.51L327.22 346.98L330.96 348.64L333.7 346.81L334.5 344.53L336.46 343.67L342.3 344.45L343.95 349.79L341.53 351.04L339.76 353.06L337.83 359.5L337.95 361.79L340.08 362.73L341.76 365.32L343.14 365.98L342.31 369.29L342.49 372.71L350.95 380.77L351.97 382.54L352.44 386.75L349.62 388.34L347.26 388.74L345.88 387.65L346.07 385.71L344.32 385.79L341.39 383.3L340.7 384.58L338.05 385.12L336.95 386.61L335.28 386.19L333.75 387.36L331.24 387.08L329.96 390.48L327.68 388.52L325.13 387.56L320.74 388.84L315.63 387.13L313.97 388.32L312.65 392.31L309.89 391.13L307.23 390.94L302.92 392.63L302.53 393.88L301.31 393.71L298.23 394.93L296.62 394.52L293.51 396.91L289.9 396.37L288.64 397.74L286.61 396.51L283.47 396.16L282.39 391.9L280.83 390.39L278.66 389.57L278.33 388.18L277.29 387.67L277.61 385.38L275.58 384.32L275.35 380.61L274.4 378.57L278.15 373.75L277.72 372.76L275.8 373.03L275.13 372.45L276.44 367.84L275.74 365.38L274.8 364.04L272.01 362.79L266.47 365.45L261.42 363.57L261.16 360.12L259.57 355.43L259.4 353.5L260.4 352.21L267.56 349.59L269.66 347.14L269.39 341.02L270.68 336.25L268.53 330.37L267.79 327.25L268.19 326.06L270.39 324.99L272.19 322.36L273.97 321.4L275.67 316.91L279.29 311.82L288.57 306.32Z" fill="#C7C7C7" stroke="white" stroke-width="2"/>
<path d="M13.5 208.57L15.27 209.39L17.51 211.92L21.2 212.68L23.45 213.89L24.8 219.2L27.06 223.38L32.66 226.35L33.08 232.67L37.29 239.31L38.53 243.88L39.55 244.52L44.23 244.9L46.34 248.06H49.19L49.62 250.76L50.56 251.14L52.61 249.06L53.92 249.38L55.56 251.53H56.77L58.03 247.87L61.36 246.73L62.39 244.65L63.55 243.95L65.52 244.4L66.55 246.29L70.33 248.24L73.45 247.71L75.73 243.96L76.53 243.8L77.59 248.17L81.01 249.6L83.29 251.43L86.4 251.87L89.38 249.61L92.03 250.75L95.49 250.55L97.8 251.24L100.1 258.32L106.65 263.63V264.99L101.75 266.81L99.27 272.74L99.53 273.56L101.15 274.32L107.73 272.15L109.44 277.78L116.55 280.83L116.34 283.23L114.43 283.92L112.46 286.93L109.43 289.76L102.75 291.57L99.71 289.38L96.35 289.11L84.06 285L82.84 285.28L78.01 289.7L68.54 292.08L66.29 289.14L62.54 289.31L61.03 284.41L60.06 283.32L58.18 284.69L56.09 294.3L52.17 296.19L51.81 295.27L50.54 294.79L47.87 295.23L45.42 292.16L43.16 293.15L39.03 292.07L37.07 289.32L33.2 289.63L28.49 285.68L25.83 285.2L24.76 283.7L22.62 282.78L20.7 280.51L19.07 279.91L17.3 278.15L16.27 272.7L13.15 271.62L11.07 266.19L9.53996 264.28H8.62996L6.44996 261.22L6.26996 259.87L4.14996 257.5L2.45996 256.88L2.87996 255.76L6.13996 255.25L6.75996 254.49L8.67996 254.51L9.47996 255.54L11.38 254.22L12.3 252.69L12.01 250.59L14.05 248.11L13.87 246.29L17.9 245.61L18.16 243.6L19.34 242.4L20.21 237.13L21.66 234.88L20.46 231.15L18.05 228.69L15.72 227.48L13.02 224.14L9.93996 223.41L10.09 220.6L12.66 213.83L11.6 212.8L13.58 209.93L13.5 208.57Z" fill="#C7C7C7" stroke="white" stroke-width="2"/>
<path d="M166.48 137.54L167.98 136.8L173.48 136.22L176.67 133.73L179.98 132.81L186.34 134.47L192.44 133.85L196.52 131.91L198.32 132.03L201.69 128.43L202.83 130.58L205.65 131.2L209.05 134.49L226.53 136.73L227.27 135.2L227.09 130.72L227.64 129.62L230.8 133.09L233.22 128.68L237.74 125.04L241.7 123.35L246.28 123.59L248.9 125.43L253.56 127.09L256.4 125.41H258.61L262.29 121.82L264.78 116.31L266.29 116.82L268.26 123.08L269.38 124.54L274.74 126.99L277.16 129.13L276.92 132.59L274.1 136.78L273.99 140.62L272.71 141.52L270.57 141.22L264.75 140.38L259.06 138.32L259.34 147.27L256.56 149.18L255.53 151.48L255.46 155.4L256.46 157.83L256.51 161.2L252.04 162.78L250.28 165.3L249.11 169.1V173.01L250.82 178.83L251.99 180.2L255.76 181.22L260.28 187.28L263.11 192.86L262.59 196.95L252.89 201.22L250.7 201.16L246.69 199.36L237.51 200.88L234.86 200.11L232.55 195.74L228.33 192.42L215.56 190.91L211.86 195.47L202.58 195.64L192.69 192.79L187.29 193.22L180.32 191.94L180.11 190.59L183.37 188.42L183.42 186.64L184.36 185.1L181.75 183.14L181.37 178.4L178.24 176.19L178.92 174.83L181.37 173.03L174.53 169.37L173.67 163.09L168.78 160.65L168.2 157.11L162.11 156.8L162.01 150.14L167.44 150.15L166.48 137.54Z" fill="#C7C7C7" stroke="white" stroke-width="2"/>
<path d="M106.79 51.8L111.18 53.4901L115.34 54.03L118.36 57.2001L122.04 59.1L125.98 59.9901L127.37 59.59L126.88 64.05L128.38 68.84L128.06 76.77L125.46 82.96L122.35 86.2L121.7 88.25L122.42 89.67L126.49 93.0501L127.15 96.3601H122.53L119.84 100.54L114.36 99.9401L111.52 98.81L109.67 99.7L105.8 105.97L106.39 112.79L102.57 120.19L97.2603 125.56L97.3403 126.99L99.7003 128.78L106.52 130.2L109.84 132.43L110.2 134.56L109.6 135.9L105.9 135.85L104.5 137.57L104.53 140.53L105.59 142.83L99.1903 142.46L96.9603 144.18L94.8003 147.21L90.6603 147.31L86.4603 148.62L75.3203 148.55L73.0203 147.17L69.9703 142.72L66.0303 140.53L63.5303 137.25L61.6603 137.13L58.9803 138.58L54.8803 135.65L52.2103 131.48L52.0803 130.2L50.1503 129.04L49.8003 126.14L47.9903 121.67L44.9903 119.97L42.5403 117.21L42.1803 115.41L38.5303 113.36L40.0903 112.15L42.1603 108.09L42.6203 101.91L43.4403 100.79L46.9503 99.0801L49.9703 91.99L53.5103 88.4401L55.7603 80.31L57.5903 77.78L64.8803 74.03L69.4203 73.21L70.3703 72.0401L70.0603 69.6501L69.2503 68.5801L60.7803 65.3301L60.2103 64.57L60.4103 62.4901L68.4303 61.4501L69.4203 60.98L70.2403 59.25L79.0303 57.67L86.4603 53.9501L91.6103 52.41L106.79 51.8Z" fill="#C7C7C7" stroke="white" stroke-width="2"/>
<path d="M141.09 273.97L144.46 270.57L148.85 267.99L153.99 261.18L156.17 263.92L159.36 262.21L159.64 261L157.89 257.54L159.89 251.35L161.16 250.46L165.15 250.01L167.04 248.35L170.73 240.61L170.55 238.29L169.27 237.4L164.23 239.58L162.15 239.64L160.68 238.54L156.93 232.6L155.56 225.09L156.13 223.49L161.92 222.21L166.13 224.97L168.31 225.16L174.35 218.62L177.15 219.17L179.1 218.71L180.2 213.79L184.47 213.41L189.04 211.43L191.91 213.05L195.17 213.85L197.1 221.29L198.33 223.54L201.21 221.84L203.76 224.22L203.92 226.88L203.16 228.88L199.93 232.28L199.38 234.94L203.17 244.27L203.57 248.07L208.11 253L208.3 257.01L206.43 258.54L208 263.22L208.15 269.41L208.52 271.14L212.92 276.85L213.4 278.62L212.66 279.86L210.02 279.66L207.59 280.89L207.38 285.97L206.06 289.59L207.02 294.75L206.69 299.46L204.15 307.38L203.86 311.68L202.83 314.3L201.66 315.85L196.94 317.88L194.55 321.09L193.86 325.29L194.77 329.6L193.18 329.98L191.83 331.88L188.92 333.48L183.05 332.01L174.19 333.22L172.98 341.22L167.16 336.65L159.65 329.04L149.32 322.38L143.3 320.26L140.95 317.62L138.48 300.42L138.83 299.13L142.04 295.83L145.92 294.12L145.98 293.5L143.62 291.66L143.97 288.96L142.28 283.9L142.57 280.28L140.36 278.95L140.09 276.38L141.09 273.97Z" fill="#C7C7C7" stroke="white" stroke-width="2"/>
<path d="M28.0203 180.08L29.7303 182.12L31.4103 181.5L33.0803 182.35L33.6803 183.57L35.2903 181.33L36.1403 181.93L36.9303 180.96L39.5703 181.17L40.8503 179.91L41.9803 181.02L42.6303 184.38L46.6403 184.1L48.0803 185.5L49.8203 189.31L54.5903 190.06L57.4803 192.7L61.7403 193.47L63.7203 196.61L69.0603 198.91L70.4103 201.04L71.5303 203.29L74.7503 205.05L76.7303 208.45L79.0403 209.27L80.7203 210.89L81.8903 217.33L80.9403 219.53L85.4603 220.31L89.2503 225.99L91.8403 225.45L92.0903 227.09L90.1603 229.69L88.2403 236.27L88.4803 244.44L89.3803 249.61L86.4003 251.87L83.2903 251.43L81.0103 249.6L77.5903 248.17L76.5303 243.8L75.7303 243.96L73.4503 247.71L70.3303 248.24L66.5503 246.29L65.5203 244.4L63.5503 243.95L62.3903 244.65L61.3603 246.73L58.0303 247.87L56.7703 251.53H55.5603L53.9203 249.38L52.6103 249.06L50.5603 251.14L49.6203 250.76L49.1903 248.06H46.3403L44.2303 244.9L39.5503 244.52L38.5303 243.88L37.2903 239.31L33.0803 232.67L32.6603 226.35L27.0603 223.38L24.8003 219.2L23.4503 213.89L21.2003 212.68L17.5103 211.92L15.2703 209.39L13.5003 208.57L12.1003 207.24L13.1803 206.68L14.9303 202.92L15.8103 202.77L16.1003 200.38L12.2503 195.48L11.8503 193.58L10.4203 191.7L10.2803 189.34L13.6203 188.26L16.6803 185.8L17.6003 184.75L17.9603 182.62L19.3303 181.77L23.2503 183.94L23.2203 182.21L24.2203 180.27L28.0203 180.08Z" fill="#C7C7C7" stroke="white" stroke-width="2"/>
<path d="M234.65 74.26L236.88 73.84L241.76 70.77L249.56 71.31L253.4 69.69L254.42 68.6L256.89 68.18L260.67 68.51L266.29 73.19L270.58 74.23L272.47 74.05L274.6 72.78L278.7 72.31L286.39 75.04L281.8 77.9L280.65 79.84L281.83 83.87L281.52 87.55L280.14 90.25L282.57 94.28L281.24 102.63L280.15 103.81L274.68 105.64L273.58 107.46L273.92 109.07L274.87 109.54L281.79 108.79L282.31 110.31L280.95 113.2L280.72 115.42L284.61 116.18L285.4 118.29L284.35 121.81L277.16 129.13L274.74 126.99L269.38 124.54L268.26 123.08L266.29 116.82L264.78 116.31L262.29 121.82L258.61 125.41H256.4L253.56 127.09L248.9 125.43L246.28 123.59L241.7 123.35L237.74 125.04L233.22 128.68L230.8 133.09L227.64 129.62L227.09 130.72L227.27 135.2L226.53 136.73L209.05 134.49L205.65 131.2L202.83 130.58L201.69 128.43L198.32 132.03L196.52 131.91L192.44 133.85L186.34 134.47L179.98 132.81L176.67 133.73L173.48 136.22L167.98 136.8L166.48 137.54L164.48 135.15L160.44 136.41L159.68 136.3L158.37 134.4L160.19 119.15L162.55 117.41L173.51 116.44L174.68 113.24L174.45 111.96L175.32 111.21L182.56 109.6L184.23 110.22L185.66 109.91L186.05 105.27L187.28 103.07L180.33 100.13L180.18 92.65L178.56 87.2L179.93 86.4L183.16 87.7L188.86 80.45L190.6 80.34L192.41 82.9L192.78 80.88L194.44 81.94L196.55 72.41L199.79 70.48L202.5 67.3L212.8 63.67L224.37 66.45L230.35 72.24L234.65 74.26Z" fill="#C7C7C7" stroke="white" stroke-width="2"/>
<path d="M202.58 195.64L211.86 195.47L215.56 190.91L228.33 192.42L232.55 195.74L234.86 200.11L237.51 200.88L246.69 199.36L250.7 201.16L252.89 201.22L262.59 196.95L261.57 199.3L262.02 211.06L258.84 218.14L260.61 225.64L263.6 230.9L267.04 232.28H269.13L277.48 228.71L278.9 229.38L279.8 232.24L279.4 234.79L275.25 238.98L275.41 240.3L278.17 243.42L278.12 245.31L277.3 245.67L274.01 244.32L273.3 245.92L273.29 258.12L274.37 258.09L277.24 260.03L277.89 261.56L270.29 264.29L267.98 265.84L266.92 270.82L267.36 274.4L269.63 276.56L274.44 278.35L279.51 276.74L283.86 276.8L287.68 274.33L290.5 278.6L294.69 282.36L290.71 292.7L291.36 296.75L291.13 303.16L288.57 306.32L279.29 311.82L275.67 316.91L273.97 321.4L272.19 322.36L270.39 324.99L268.19 326.06L264.83 323.04L263.45 320.37L262.27 320.23L260.41 321.9L260.11 328.49L256.34 332.86L253.2 333.62L249.46 332.65L247.64 335.55L245.21 336.52L243.3 339.61L240.25 333.03L240.31 330.88L241.57 328.07L240.79 327.73L240.21 325.73L238.63 327.07L237.3 324.62L238.79 322.72L239.71 317.61L239.55 315.83L237.63 313.48L236.57 312.85L232.83 313.33L227.23 311.92L219.79 314.83L215.83 315.12L214.49 314.27L211.11 308.98L208.42 309.27L204.15 307.38L206.69 299.46L207.02 294.75L206.06 289.59L207.38 285.97L207.59 280.89L210.02 279.66L212.66 279.86L213.4 278.62L212.92 276.85L208.52 271.14L208.15 269.41L208 263.22L206.43 258.54L208.3 257.01L208.11 253L203.57 248.07L203.17 244.27L199.38 234.94L199.93 232.28L203.16 228.88L203.92 226.88L203.76 224.22L209.52 223.21L211.89 217.11L206.82 212.07L200.71 209.58L199.01 207.76L198.65 204.64L202.58 195.64Z" fill="#C7C7C7" stroke="white" stroke-width="2"/>
<path d="M394.44 39.78L400.88 39.54L403.65 40.34L406 44.12L412.73 43.32L415.23 46.63L416.02 50.96L423.27 53.3L426.73 53.51L428.77 54.75L431.42 54.15L432.69 56.37L433.45 56.57L437 52.91L440.77 57.52L445.18 58.89L448.02 64.22L451.53 64.6L452.9 68.68L457.07 72.56L458.05 74.1L458 77.17L456.53 79.38L452.24 81.5L450.99 84.42L449.02 85.57L446.41 85.61L443.31 83.95L442.37 88.18L436.65 93.04L436.21 95.15L437.39 95.49L436.96 99.09L433.32 101.73L433.39 103.5L430.92 104.44L430.44 105.39L431.29 107.32L430.76 108.9L434.66 111.14L435.62 113.1L434.34 115.44L431.37 117.46L428.75 117.93L427.59 116.89L426.09 117.88L424.1 116.23L422.73 119.94L421.85 120.64L420.24 119.8L416.2 120.1L410.8 117.74L405.98 119.92L403.01 119.39L403.34 121.47L402.11 122.13L399.35 126.82L399.17 129.43L395.03 131.42L393.86 129.5L395.22 126.87L393.93 124.85L390.77 123.73L390.06 121.33L397.03 116.5L399.88 113.46L399.61 110.08L400.63 108.19L400.46 107.13L395.16 105.86L394 104.23L392.68 99.51L388.64 98.63L385.84 94.95L383.38 93.71L382.01 92.11L380.53 91.95L378.73 92.76L376.46 95.92L375.47 95.49L369.22 96.01L367.45 94.81L365.73 90.36L363.91 87.88L364.85 86.59L364.31 84.56L368.57 82.98L370.93 82.83L375.25 77.56L378.96 78.39L385.96 83.72L394.54 80.87L400.05 82.12L405.95 81.39L409.2 76.41L409.19 69.59L407.63 65.64L405.6 63.84L401.62 63.11L397.96 59.87L396.84 59.7L394.76 61.41L393.97 60.14L389.53 60.87L387.04 60.51L384.56 59.16L384.63 56.17L385.41 54.91L388.29 53.29L391.18 44.47L393.98 41.41L394.44 39.78Z" fill="#C7C7C7" stroke="white" stroke-width="2"/>
<path d="M391.17 27.11L392.3 31.57L396.44 35.6L394.44 39.78L393.98 41.41L391.18 44.47L388.29 53.29L385.41 54.91L384.63 56.17L384.56 59.16L387.04 60.51L389.53 60.87L393.97 60.14L394.76 61.41L396.84 59.7L397.96 59.87L401.62 63.11L405.6 63.84L407.63 65.64L409.19 69.59L409.2 76.41L405.95 81.39L400.05 82.12L394.54 80.87L385.96 83.72L378.96 78.39L375.25 77.56L370.93 82.83L368.57 82.98L364.31 84.56L364.85 86.59L363.91 87.88L365.73 90.36L367.45 94.81L361.13 97.84L359.44 106.4L357.47 108.78L356.01 112L353.74 113.69L358.69 117.91L358.25 122.77L353.27 121.65L351.39 117.19L346.8 119.05L341.06 116.79L336.51 117.03L333.15 115.45L329.17 111.8L327.69 111.95L324.69 114.36L314.85 108.98L316.4 105.11L316.31 102.73L315.41 101.59L313.68 101.04L313.05 99.08L311.15 97.84L307.51 88.64L307.71 87.1L309.43 84.81L309.08 82.42L308 83.56L306.55 83.61L304.22 81.69L308.04 79.78L315.34 79.65L325.26 73.63L332.21 73.4L337.32 70.67L340.11 65.75L343.91 64.05L346.66 61.36L353.99 50.15L364.15 43.91L366.57 38.71L369.15 35.81L373.17 33.33L378.32 33.32L388.58 27.8L391.17 27.11Z" fill="#C7C7C7" stroke="white" stroke-width="2"/>
<path d="M465.76 13.04L469.1 12.78L476.46 15.88L479.54 16.06L483.07 14.8L484.42 17.25L483.72 18.75L485.09 21.87L491.52 24.21L495.77 30.31L502.83 28.94L516.47 30.26L519.6 25.43L522.48 27.83L525.37 35.31L520.56 36.97L518.41 38.67L514.68 44.02L514.67 46.8L511.62 46.42L509.16 43.78L507.22 48.69L504.18 52.34L502.19 52.71L500.16 50.4L498.97 50.64L489.26 59.79L483.56 60.99L476.6 68.94L476.39 71.01L477.71 73.68L477.67 75.06L477.3 75.91L475.76 76.14L473.66 75.45L471.47 76.31L467.94 72.99L465.96 69.51L464.92 69.34L459.58 72.25L457.07 72.56L452.9 68.68L451.53 64.6L448.02 64.22L445.18 58.89L440.77 57.52L437 52.91L433.45 56.57L432.69 56.37L431.42 54.15L428.77 54.75L426.73 53.51L423.27 53.3L416.02 50.96L415.23 46.63L412.73 43.32L406 44.12L403.65 40.34L400.88 39.54L394.44 39.78L396.44 35.6L392.3 31.57L391.17 27.11L396.01 25.78L401.88 26.93L410.98 24.42L417.22 24.8L423.01 23.3L426.33 21.61L429.5 22.06L432.71 21.4L441.88 16.1L447.36 13.87L455.53 13.64L462.66 11.51L465.76 13.04Z" fill="#C7C7C7" stroke="white" stroke-width="2"/>
<path d="M376.32 172.45L381.3 168.2L383.27 162.37L385.56 162.78L388.44 161.34L389.2 161.85L388.79 165.45L389.5 166.2L392.03 163.81L394.3 165.77L396.85 166.7L400.14 166.52L406.75 164.61L416.85 166.16L410.43 171.84L409.88 174.66L411.08 176.11L414.19 176.17L413.75 178.75L415.73 185.8L414.6 188.77L414.63 191.73L417.36 195.08L421.35 195.53L422.72 196.82L425.62 202.34L425.25 205.97L423.3 204.47L422.67 204.81L422.63 205.97L424.55 209.27L424.52 213.26L421.63 216.87L420.56 216.36L419.53 214.56L416.69 219.12L411.85 219.61L403.08 225.09L397.61 224.19L393.64 227.46L395.54 228.76L395.88 230.94L393.34 232.82L391.35 235.87L387.25 236.4L385.79 238.41L379.03 236.54L377.71 237.37L377.98 243.3L377.03 243.68L375.01 241.9L373.85 241.74L373.79 243.59L376.07 246.66L377.96 245.74L380.28 243.13L381.12 244.78L380.49 252.85L377.08 258.58L374.71 265.75L364.45 259.6L362.63 259.91L360.76 262.09L360.73 260.08L358.94 259.27L357.1 257.15L353.52 255.93L352.36 254.6L349.55 244.93L345.79 240.35L345.98 238.58L348.19 234.49L344.62 226.22L347.16 222.07L347.65 219.69L344.61 214.58L343.43 207.48L339.41 199.46L339.03 192.57L344.28 193.54L350.11 192.1L354.25 193.65L355.72 193.57L362.54 188.15L362.86 185.64L361.73 183.58L362.23 182.55L373.68 176.47L376.32 172.45Z" fill="#C7C7C7" stroke="white" stroke-width="2"/>
<path d="M204.15 307.38L208.42 309.27L211.11 308.98L214.49 314.27L215.83 315.12L219.79 314.83L227.23 311.92L232.83 313.33L236.57 312.85L237.63 313.48L239.55 315.83L239.71 317.61L238.79 322.72L237.3 324.62L238.63 327.07L240.21 325.73L240.79 327.73L241.57 328.07L240.31 330.88L240.25 333.03L243.3 339.61L245.21 336.52L247.64 335.55L249.46 332.65L253.2 333.62L256.34 332.86L260.11 328.49L260.41 321.9L262.27 320.23L263.45 320.37L264.83 323.04L268.19 326.06L267.79 327.25L268.53 330.37L270.68 336.25L269.39 341.02L269.66 347.14L267.56 349.59L260.4 352.21L259.4 353.5L259.57 355.43L261.16 360.12L261.42 363.57L266.47 365.45L272.01 362.79L274.8 364.04L275.74 365.38L276.44 367.84L275.13 372.45L275.8 373.03L277.72 372.76L278.15 373.75L274.4 378.57L275.35 380.61L275.58 384.32L277.61 385.38L277.29 387.67L273.91 386.49L272.04 384.22L270.51 385L268.34 384.09L266 381.02L258.61 379.61L255.01 378.23L252.21 375.44L250.31 375.72L249.11 377.46L248.32 377.58L242.92 376.37L243.31 378.18L242.67 382.3L241.32 383.36L235.8 378.88L234.15 374.42L230.73 374.03L229.66 373.24L227.25 374.25L227.66 372.38L226.87 371.91L222.54 373.04L221.29 371.09L221.19 368.1L218.88 366.59L217.6 363.1L217.86 361.28L216.28 358.22L216.98 356.92L215.98 355.98L215.11 356.17L215.13 355.13L214.41 354.65L209.26 356.77L208.14 357.82L208.02 359.85L206.93 360.67L205.81 359.74L203.43 359.63L202.45 358.34L200.43 358.74L198.63 361.25L195.98 360.06L192.48 362L191.82 360.04L192.36 358.53L189.26 355.91L189.69 354.66L188.47 353.95L186.37 355.28L185.31 357.13L183.36 356.85L181.49 359.35L181.72 360.75L180.99 361.48L179.67 361.27L179.83 360.58L178.58 359.71L178.36 358.7L175.92 359L175.64 358.12L173.3 357.8L172.91 356.88L170.43 357.99L169.99 359.37L168.89 360.15L168.76 357.28L171.22 351.22L170.87 347.94L174.04 343.49L172.98 341.22L174.19 333.22L183.05 332.01L188.92 333.48L191.83 331.88L193.18 329.98L194.77 329.6L193.86 325.29L194.55 321.09L196.94 317.88L201.66 315.85L202.83 314.3L203.86 311.68L204.15 307.38Z" fill="#C7C7C7" stroke="white" stroke-width="2"/>
<path d="M58.9796 138.58L61.6596 137.13L63.5296 137.25L66.0296 140.53L69.9696 142.72L73.0196 147.17L75.3196 148.55L86.4596 148.62L90.6596 147.31L94.7996 147.21L96.9596 144.18L99.1896 142.46L105.59 142.83L111.82 143.39L114.22 144.27L114.4 145.58L110.63 150.88L111.48 156L117.38 165L120.03 166.73L129.81 158.11L133.53 160.51H134.85L140.38 157.03L144.2 156.22L146.75 158.11L156.33 158.37L161.13 160.81L162.21 159.73L162.11 156.8L168.2 157.11L168.78 160.65L173.67 163.09L174.53 169.37L181.37 173.03L178.92 174.83L178.24 176.19L181.37 178.4L181.75 183.14L184.36 185.1L183.42 186.64L183.37 188.42L180.11 190.59L180.32 191.94L187.29 193.22L192.69 192.79L202.58 195.64L198.65 204.64L199.01 207.76L200.71 209.58L206.82 212.07L211.89 217.11L209.52 223.21L203.76 224.22L201.21 221.84L198.33 223.54L197.1 221.29L195.17 213.85L191.91 213.05L189.04 211.43L184.47 213.41L180.2 213.79L179.1 218.71L177.15 219.17L174.35 218.62L168.31 225.16L166.13 224.97L161.92 222.21L156.13 223.49L155.56 225.09L156.93 232.6L160.68 238.54L162.15 239.64L164.23 239.58L169.27 237.4L170.55 238.29L170.73 240.61L167.04 248.35L165.15 250.01L161.16 250.46L159.89 251.35L157.89 257.54L159.64 261L159.36 262.21L156.17 263.92L153.99 261.18L148.85 267.99L144.46 270.57L141.09 273.97H138.37L137.84 275.3L139.17 277.7L138.17 278.51L136.64 278.43L133.26 276.9L131.34 273.07L128.48 273.88L127.16 272.98L124.77 273.07L123.59 274.58L122.16 282.45L120.87 284.67L118.27 286.7L115.11 285.95L112.46 286.93L114.43 283.92L116.34 283.23L116.55 280.83L109.44 277.78L107.73 272.15L101.15 274.32L99.5296 273.56L99.2696 272.74L101.75 266.81L106.65 264.99V263.63L100.1 258.32L97.7996 251.24L95.4896 250.55L92.0296 250.75L89.3796 249.61L88.4796 244.44L88.2396 236.27L90.1596 229.69L92.0896 227.09L93.1496 228.18L97.3496 229.21L98.4196 230.85L100.94 232.42L105.29 238.68L106.47 239.06L108.16 238.07L108.61 234.17L110.42 229.14L113.14 229.45L113.98 229.98L116.76 236.36L117.22 238.62L116.8 242.07L117.48 244.91L119.34 244.2L123.91 245.92L129.87 243.76L127.64 236.36L125.19 232.41L125.35 230.48L123.97 229.69L120.78 224.58L121.26 218.46L120.41 213.7L119.79 212.93L116.56 212.12L115.83 211.19L116.47 208.75L118.67 207.89L119.82 203.94L123.41 202.68L124.66 201.44L127.48 190.76L126.22 185.83L124.63 185.6L122.8 187.38L120.55 188.05L112.69 182.95L101.31 185.84L99.4996 185.55L97.9796 183.97L96.4496 180.01L94.4196 177.9L93.5496 177.99L88.4496 190.63L88.2596 193.15L86.5796 195.67L86.5096 196.86L88.0296 198.03L87.3196 200.35L84.4996 199.44L82.1696 200.77L74.0296 200.5L70.4096 201.04L69.0596 198.91L63.7196 196.61L61.7396 193.47L57.4796 192.7L54.5896 190.06L49.8196 189.31L48.0796 185.5L46.6396 184.1L42.6296 184.38L41.9796 181.02L40.8496 179.91L43.3696 174.99L42.4296 172.85L43.7096 171.37L43.7996 168.28L50.0496 165.41L51.6096 162.9L54.8096 161.22L57.1596 155.03L60.1696 153.71L63.2196 151.06L64.6396 144.94L63.5596 143.69L65.5296 140.3L62.5496 138.56L58.9796 138.58Z" fill="#C7C7C7" stroke="white" stroke-width="2"/>
<path d="M70.4102 201.04L74.0302 200.5L82.1702 200.77L84.5002 199.44L87.3202 200.35L88.0302 198.03L86.5102 196.86L86.5802 195.67L88.2602 193.15L88.4501 190.63L93.5502 177.99L94.4202 177.9L96.4501 180.01L97.9802 183.97L99.5002 185.55L101.31 185.84L112.69 182.95L120.55 188.05L122.8 187.38L124.63 185.6L126.22 185.83L127.48 190.76L124.66 201.44L123.41 202.68L119.82 203.94L118.67 207.89L116.47 208.75L115.83 211.19L116.56 212.12L119.79 212.93L120.41 213.7L121.26 218.46L120.78 224.58L123.97 229.69L125.35 230.48L125.19 232.41L127.64 236.36L129.87 243.76L123.91 245.92L119.34 244.2L117.48 244.91L116.8 242.07L117.22 238.62L116.76 236.36L113.98 229.98L113.14 229.45L110.42 229.14L108.61 234.17L108.16 238.07L106.47 239.06L105.29 238.68L100.94 232.42L98.4202 230.85L97.3502 229.21L93.1502 228.18L92.0901 227.09L91.8401 225.45L89.2502 225.99L85.4602 220.31L80.9402 219.53L81.8902 217.33L80.7202 210.89L79.0402 209.27L76.7302 208.45L74.7502 205.05L71.5302 203.29L70.4102 201.04Z" fill="#C7C7C7" stroke="white" stroke-width="2"/>
<path d="M323.01 196.5L326.1 194.47L332.4 192.14L336.31 192.85L339.03 192.57L339.41 199.46L343.43 207.48L344.61 214.58L347.65 219.69L347.16 222.07L344.62 226.22L348.19 234.49L345.98 238.58L345.79 240.35L349.55 244.93L352.36 254.6L353.52 255.93L357.1 257.15L358.94 259.27L360.73 260.08L360.76 262.09L362.63 259.91L364.45 259.6L374.71 265.75L378.31 267.99L370.22 275.95L370.08 278.93L371.93 283.16L373.61 291.37L369.88 292.32L367.67 291.82L364.42 295.27L362.33 294.68L358.15 286.14L353.89 285.61L351.54 283.34L348.14 283.24L345.38 281.14L344.03 282.04L342.5 287.8L338.48 290.1L336.24 290.2L334.9 291.4L332.91 291.29L331.24 285.74L328.85 283.23L326.94 278.76L325.11 278.81L321.38 282.21L320.29 282.27L320.15 273.48L318.91 271.02L317.72 271.62L316.05 274.3L311.82 277.1L312 277.85L313.65 277.7L312.72 279.51L311.08 279.44L308.39 277.39L307.09 277.69L306.68 280.95L303.24 285.51L302.16 285.57L297.45 282.66L294.69 282.36L290.5 278.6L287.68 274.33L283.86 276.8L279.51 276.74L274.44 278.35L269.63 276.56L267.36 274.4L266.92 270.82L267.98 265.84L270.29 264.29L277.89 261.56L277.24 260.03L274.37 258.09L273.29 258.12L273.3 245.92L274.01 244.32L277.3 245.67L278.12 245.31L278.17 243.42L275.41 240.3L275.25 238.98L279.4 234.79L279.8 232.24L278.9 229.38L277.48 228.71L269.13 232.28H267.04L263.6 230.9L260.61 225.64L258.84 218.14L262.02 211.06L261.57 199.3L262.59 196.95L269.78 197.86L274 195.35L277.52 195.08L280.36 192.89L286.6 196.66L290.3 196.1L302.22 199.4L303.38 198.37L302.95 194.75L306.09 194.99L308.97 197.91L312.52 198.71L314.35 198.53L317.26 196.32L320.49 199.12L322.82 198.16L323.01 196.5Z" fill="#C7C7C7" stroke="white" stroke-width="2"/>
<path d="M367.45 94.81L369.22 96.01L375.47 95.49L376.46 95.92L378.73 92.76L380.53 91.95L382.01 92.11L383.38 93.71L385.84 94.95L388.64 98.63L392.68 99.51L394 104.23L395.16 105.86L400.46 107.13L400.63 108.19L399.61 110.08L399.88 113.46L397.03 116.5L390.06 121.33L390.77 123.73L393.93 124.85L395.22 126.87L393.86 129.5L395.03 131.42L399.17 129.43L399.35 126.82L402.11 122.13L403.34 121.47L403.01 119.39L405.98 119.92L410.8 117.74L416.2 120.1L420.24 119.8L421.85 120.64L422.73 119.94L424.1 116.23L426.09 117.88L427.59 116.89L428.75 117.93L431.37 117.46L430.14 119.05L430.8 126.91L434.06 129.89L434.55 132.41L433.08 134.61L428.74 138.54L428.31 141.36L426.58 144.61L424.33 145.48L422.6 144.88L423.42 148.79L425.35 152.93L425.32 154.55L423.31 155.76L422.79 158.18L420.02 159.98L419.39 162.85L420.06 164.56L416.85 166.16L406.75 164.61L400.14 166.52L396.85 166.7L394.3 165.77L392.03 163.81L389.5 166.2L388.79 165.45L389.2 161.85L388.44 161.34L385.56 162.78L383.27 162.37L381.3 168.2L376.32 172.45L365.17 168.54L365.7 166.61L368.44 165.18L368.89 163.72L365.26 160.64L364.61 159.19L363.8 155.76L364.17 149.06L365.45 146.45L366.09 142.91L369.2 140.74L369.25 139.02L368.83 137.68L366.51 135.31L366.26 133.93L363.94 132.03L364.89 129.13L358.25 122.77L358.69 117.91L353.74 113.69L356.01 112L357.47 108.78L359.44 106.4L361.13 97.84L367.45 94.81Z" fill="#C7C7C7" stroke="white" stroke-width="2"/>
<path d="M378.31 267.99L381.32 270.14L385.64 271.08L388.92 274.07L391.73 274.28L394.89 275.63L397.35 274.22L399.86 276.22L403.75 275.3L405.31 278.06L408.94 277.66L407.89 285.15L408.49 291.42L406.05 293.79L405.98 296.56L407.34 297.4L408.14 299.9L409.33 300.99L409.56 303.08L413.46 307.81L415.58 310.72L414.03 313.1L415.31 314.85L413.9 315.59L413.78 317.15L412.42 318.29L411.31 321.23L396.31 321.29L394.32 322.03L390.74 330.71L390.69 332.57L393.56 335.78L390.76 335.3L388.59 336.16L386.35 335.8L383.22 334.4L381.01 332.05L379.88 333.01L378.11 332.82L376.25 332.07L375.38 330.86L370.61 333.34L369.52 335.6L366.91 335.14L365.33 336.12L364.53 338.79L365.66 344.17L367.37 344.84L367.94 346.83L370.16 347.26L370.61 346.32L371.97 346.04L372.08 348.39L373.6 349.62L373.02 356.11L375.94 356.44L376.73 360.98L375.45 362.61L375.28 364.3L373.69 365.06L373.62 365.94L374.09 367.39L375.74 368.11L378.23 371.76L375.18 372.21L374.06 373.71L374.61 375.37L374.13 377.5L373.12 379.28L371.95 379.65L371.36 382.21L368.18 382.1L367.15 383.39L362.06 382.9L359.31 383.82L358.42 386.09L355.57 387.02L352.44 386.75L351.97 382.54L350.95 380.77L342.49 372.71L342.31 369.29L343.14 365.98L341.76 365.32L340.08 362.73L337.95 361.79L337.83 359.5L339.76 353.06L341.53 351.04L343.95 349.79L342.3 344.45L336.46 343.67L334.5 344.53L333.7 346.81L330.96 348.64L327.22 346.98L324.83 348.51L323.81 345.93L324.8 344.2L325.19 341.41L323.12 337.27L322.22 331.35L320.01 328.57L318.8 328.3L314.09 330.32L305.61 327.71L302.17 325.05L298.23 323.54L295.88 317.9L294.62 318.22L293.69 320.34L292.27 320.88L290.36 323.05L287.25 310.75L288.57 306.32L291.13 303.16L291.36 296.75L290.71 292.7L294.69 282.36L297.45 282.66L302.16 285.57L303.24 285.51L306.68 280.95L307.09 277.69L308.39 277.39L311.08 279.44L312.72 279.51L313.65 277.7L312 277.85L311.82 277.1L316.05 274.3L317.72 271.62L318.91 271.02L320.15 273.48L320.29 282.27L321.38 282.21L325.11 278.81L326.94 278.76L328.85 283.23L331.24 285.74L332.91 291.29L334.9 291.4L336.24 290.2L338.48 290.1L342.5 287.8L344.03 282.04L345.38 281.14L348.14 283.24L351.54 283.34L353.89 285.61L358.15 286.14L362.33 294.68L364.42 295.27L367.67 291.82L369.88 292.32L373.61 291.37L371.93 283.16L370.08 278.93L370.22 275.95L378.31 267.99Z" fill="#C7C7C7" stroke="white" stroke-width="2"/>
<path d="M425.25 205.97L429.78 211.92L433.47 215.32L437.34 224.26L440.68 228.47L442.27 232.87L444.82 235.93L446.16 239.81L448.14 240.7L452.36 239.52L453.2 240.37L453.14 242.85L451.3 245.14L444.09 246.37L442.81 247.88L443.78 252.12L447.32 255.15L449.13 259.08L451.63 260.96L450.07 264.36L450.04 266L452.36 270.6L452.52 272.2L449.73 275.49L450.07 277.61L452.77 281.24L457.89 284.24L460.11 287.22L458.68 287.51L459.16 290.14L457.22 292.9L454.63 293.12L454.91 295.4L452.73 298.46L449.45 297.94L447.21 299.76L443.73 299.4L441.74 300.55L441.07 302.19L438.04 301.43L435.77 299.51L432.73 302.36L432.24 303.65L428.32 302.34L423.7 302.66L419.63 300.82L419.03 302.72L413.46 307.81L409.56 303.08L409.33 300.99L408.14 299.9L407.34 297.4L405.98 296.56L406.05 293.79L408.49 291.42L407.89 285.15L408.94 277.66L405.31 278.06L403.75 275.3L399.86 276.22L397.35 274.22L394.89 275.63L391.73 274.28L388.92 274.07L385.64 271.08L381.32 270.14L378.31 267.99L374.71 265.75L377.08 258.58L380.49 252.85L381.12 244.78L380.28 243.13L377.96 245.74L376.07 246.66L373.79 243.59L373.85 241.74L375.01 241.9L377.03 243.68L377.98 243.3L377.71 237.37L379.03 236.54L385.79 238.41L387.25 236.4L391.35 235.87L393.34 232.82L395.88 230.94L395.54 228.76L393.64 227.46L397.61 224.19L403.08 225.09L411.85 219.61L416.69 219.12L419.53 214.56L420.56 216.36L421.63 216.87L424.52 213.26L424.55 209.27L422.63 205.97L422.67 204.81L423.3 204.47L425.25 205.97Z" fill="#C7C7C7" stroke="white" stroke-width="2"/>
<path d="M457.07 72.56L459.58 72.25L464.92 69.34L465.96 69.51L467.94 72.99L471.47 76.31L473.66 75.45L475.76 76.14L478.25 79.1L482.77 79.73L487.03 85.66L488.53 86.24L494.37 82.25L495.48 82.19L498.07 86.94L497.35 88.88L496.11 89.74L490.03 91.76L487.29 91.99L486.58 92.78L486.57 96.32L489.22 97.5V98.97L487.3 102.53L489.18 102.94L489.64 104.71L484.55 112.43L484.29 115.76L485.2 118.47L485.56 123.26L483.64 124.98L480.89 124.1L480.44 125.29L480.83 128.88L481.93 131.32L482.13 135.22L483.98 139.29L475 144.59L474 148.4L476.47 151.1V154.68L478.03 159.85L470.57 161.34L467.96 162.74H464.49L463.03 164.73L461.81 165.28L461.63 166.13L464.55 167.24L465.15 169.92L466.84 170.86L466.56 174.77L461.54 175.35L454.3 179.24L452.29 178.67L450.49 175.78L449.26 175.46L443.71 176.55L439.81 174.91L436.72 175.53L431.77 175.27L425.45 179.75L417.84 179.81L416.92 178.46L417.97 176.59L417.33 175.87L412.76 175.29L411.08 176.11L409.88 174.66L410.43 171.84L416.85 166.16L420.06 164.56L419.39 162.85L420.02 159.98L422.79 158.18L423.31 155.76L425.32 154.55L425.35 152.93L423.42 148.79L422.6 144.88L424.33 145.48L426.58 144.61L428.31 141.36L428.74 138.54L433.08 134.61L434.55 132.41L434.06 129.89L430.8 126.91L430.14 119.05L431.37 117.46L434.34 115.44L435.62 113.1L434.66 111.14L430.76 108.9L431.29 107.32L430.44 105.39L430.92 104.44L433.39 103.5L433.32 101.73L436.96 99.09L437.39 95.49L436.21 95.15L436.65 93.04L442.37 88.18L443.31 83.95L446.41 85.61L449.02 85.57L450.99 84.42L452.24 81.5L456.53 79.38L458 77.17L458.05 74.1L457.07 72.56Z" fill="#C7C7C7" stroke="white" stroke-width="2"/>
</svg>
