<svg width="514" height="616" viewBox="0 0 514 616" fill="none" xmlns="http://www.w3.org/2000/svg">
<path d="M275.13 1L275.318 1.874H276.071L275.883 2.744H274.566L273.812 3.617H272.495L272.118 2.165H273.06L274.377 1.583V1H275.13ZM293.955 3.325L294.897 4.486V5.647L294.332 5.938V7.099H292.45L292.638 8.842L290.003 8.555L289.061 9.424H287.743L287.368 8.264H286.614V8.842H285.674L284.732 11.167H283.791L283.226 10.007V8.263L284.168 7.098H285.297L286.614 5.646L290.944 4.776L291.321 3.902L293.955 3.325ZM341.203 3.616L343.838 5.646L343.65 6.811L344.404 7.389L344.592 8.554L345.155 8.263L345.72 5.938H346.472L347.414 7.099L347.979 5.36H349.108L349.296 6.52L349.859 6.812L350.047 5.069H350.612V4.486H351.552L353.247 5.938L352.307 6.52L352.119 7.39H353.436V6.811L354.376 7.098L354.564 8.841L355.129 9.132L354.187 10.006L354.375 10.875H354.94L355.317 10.006L356.069 10.293L355.881 11.749L354.752 12.618L353.623 12.036V12.909L352.87 13.2L352.682 14.069L351.553 13.778L350.047 17.263L347.036 16.681L345.718 15.521L343.836 15.812L343.27 16.972L344.965 18.424V21.617L343.27 22.199L342.895 24.523H342.141L341.953 23.941L339.13 23.65V25.974L337.436 25.683L337.248 27.134H336.308L335.743 28.003L334.802 27.716L335.179 29.167L334.614 29.745H333.108L332.732 31.196L331.791 32.069L328.403 32.938L323.696 33.229L322.568 33.811L321.25 35.84H320.497L320.309 35.262L319.18 35.84L318.427 37.582H317.675L317.487 38.164L316.922 37.582H315.604L315.229 37.004L313.723 37.873L312.97 37.004V38.746L312.218 39.324L310.9 38.746L310.336 37.582H309.394L308.83 36.713H308.265L306.948 38.455L305.819 37.873H304.501L303.371 36.713L302.996 34.971L302.431 34.68L302.996 32.938L301.866 31.487V30.327L302.808 30.618L302.996 30.036L301.866 28.876L301.678 27.425L303.56 28.003L303.748 26.261L304.313 26.843H305.254L306.006 25.974L306.008 24.81H304.689L304.314 25.683H302.055L302.431 23.068H308.078L309.395 21.908H310.337L311.466 20.457V18.424H309.96L310.337 16.394L313.914 15.812L314.666 16.681L316.549 16.394V16.972H319.184L320.313 16.394V14.943H320.69L322.196 16.681H322.761L323.138 14.652H322.761L322.573 13.487L321.632 13.2V12.327L322.007 11.166H322.949L324.83 12.909L325.019 12.036L324.453 11.166H323.889V10.583L326.713 11.456V14.068L327.467 15.811L328.784 16.68H329.724L329.912 16.102L331.041 15.811H333.864L334.806 13.777H335.371V12.908L335.183 12.326H334.052V11.748H333.675V9.132H335.558V6.229H336.5L336.688 4.486H337.628L338.57 5.647L338.758 7.972H340.075L339.887 7.099L339.134 6.52V5.36L339.887 3.904L341.203 3.616ZM208.308 14.651L209.249 15.229L208.308 16.393H207.178L206.612 17.262H205.672V16.68L204.355 16.971L204.543 15.811H205.109L206.049 14.651H208.308ZM348.543 17.845L349.297 19.296L349.109 20.456L348.544 20.747L347.981 20.165L347.227 20.747L346.851 19.587L347.604 18.136L348.543 17.845ZM299.414 32.646L301.297 33.81V35.261H298.095V34.679H297.532L297.909 32.646H299.414ZM319.556 41.024L320.685 41.064V41.937L320.12 42.515H319.368L318.426 41.355H317.862V40.773L319.556 41.024Z" fill="#C7C7C7" stroke="white" stroke-width="2"/>
<path d="M199.838 314.274V314.563L201.532 314.854L202.098 315.428V316.585L202.85 316.871V318.603L203.227 318.892L203.038 320.335H202.662L202.285 320.045H200.027H199.65L199.461 320.624L200.967 320.913V321.777H198.333V321.492L195.32 321.203V320.045H196.827L197.015 320.335L197.204 319.76L196.827 319.182L195.132 319.471V319.182L193.438 318.892L192.686 318.028V316.871L193.626 316.585V316.296L194.38 316.585L194.755 315.143H196.827V314.854L198.897 315.143L199.273 314.274H199.838Z" fill="#C7C7C7" stroke="white" stroke-width="2"/>
<path d="M76.3178 281.392L75.5048 285.723L71.8288 291.957L66.2948 297.417L62.1738 303.971L61.3058 302.893L52.4048 303.733L50.6318 301.755L46.6968 301.656L44.5688 300.367L38.6028 294.432L37.6348 285.973L38.3298 283.383L38.5188 283.958H39.0838L40.2128 285.401H42.0958V285.116H43.4128L43.6018 284.537H44.7298L45.1068 283.958H46.6128V283.383H48.3068L49.4358 282.514L50.5648 278.762V277.028L50.1898 276.16L48.8708 276.449V276.16H47.9308L46.9898 274.716H44.9188L44.1658 274.137L43.9768 271.828L46.2358 272.117L46.8008 272.692H47.7418L48.1188 273.272H49.0598L49.2478 271.828L49.6248 272.117L50.7528 271.828L51.5078 274.137L52.0718 274.426L52.4478 271.828H53.0138L53.2018 272.407L53.9538 272.692L54.1428 271.249H54.8958L55.0828 271.828L56.0248 272.117V272.407H57.9078V272.117H58.8478L59.2258 271.538L60.5428 271.249L60.9198 269.229H61.2948L61.8598 267.781L62.4248 267.496L62.6138 266.337L62.2368 266.051V265.182H62.9888L63.1778 264.028H63.5538V262.004L63.1778 261.425H62.4248L61.8598 260.56H61.1068L60.9198 261.139H60.3548V260.85H59.4138L58.6598 259.98L57.9078 260.27L57.7188 258.826L58.6598 257.381H59.2258L59.7888 258.826H60.1658L60.3548 259.405H60.9198L61.4828 258.246L63.3658 258.536V256.802H64.1198L64.3068 257.381L65.0598 256.802L65.4368 257.671H66.9428L67.5078 258.826L67.3188 260.56H68.0718L68.7138 264.683L69.1338 265.349V267.233L70.8428 269.309L72.1808 269.285L72.2938 273.641L72.7188 274.557L74.4998 274.617L76.7828 278.417L76.3178 279.428V281.392Z" fill="#C7C7C7" stroke="white" stroke-width="2"/>
<path d="M48.9455 318.698L49.2165 317.156L52.0415 316.74L56.6605 313.91L66.4215 313.125L66.5855 315.289L68.2785 316.276L70.4555 315.535L71.3425 316.276L70.2945 320.108L68.1975 321.469L71.0205 321.841L71.2615 322.828L69.2465 323.568L68.8245 325.819L67.8815 325.53L67.1295 327.263H66.7525V327.841L67.3175 328.415L67.1295 329.568L66.9415 329.857H65.6245L65.4355 329.568V330.726L65.0585 331.3H64.1185L63.7415 330.726L63.5525 331.59H62.7995L62.6125 330.726L62.2355 331.3L61.1055 331.015L61.4815 332.742L61.8585 333.032L61.6705 334.474H61.2935L60.9185 333.61L60.7295 333.899L59.2245 333.61L58.8465 332.457H58.0935L58.0945 332.168L55.4585 332.457V332.168L53.2005 331.879L52.8235 331.015L50.7515 331.879L50.5635 331.3L49.6235 331.015L49.4345 330.437L48.3055 331.3L47.3635 332.742V333.321H46.7995V333.032L46.1875 329.501L45.4625 328.638L44.9785 325.796L45.5425 323.695L48.2845 321.223L48.9455 318.698Z" fill="#C7C7C7" stroke="white" stroke-width="2"/>
<path d="M157.671 264.317L158.048 264.603L158.237 265.762H158.803V266.337L158.237 266.626V268.071L158.613 268.36L158.048 269.229L158.237 270.959L158.989 272.117L160.495 272.982L161.438 276.449L162.378 277.604H162.943V278.183L162.566 279.047H162.001L161.438 280.491H161.061L161.438 282.804L160.684 282.514V283.668L160.309 284.248L159.932 284.537H158.613L158.425 284.248L157.671 284.827V285.401H156.919L156.166 286.27H155.601L155.037 285.691L154.66 284.248H154.283V283.093L153.72 282.804L154.283 282.225V281.649L153.908 280.781H153.531V279.047H153.908L154.096 278.183H154.472L155.225 277.028L154.849 276.739V275.87L154.096 275.295L153.531 272.692L152.589 270.959L150.896 270.384V269.229H151.271L150.896 268.071L152.778 267.206V266.916L154.849 266.626L155.789 265.472H156.919L157.108 264.603L157.671 264.317Z" fill="#C7C7C7" stroke="white" stroke-width="2"/>
<path d="M147.507 284.827L148.07 286.846L147.13 287.136L146.942 286.561L146.755 287.136H146.19L145.814 285.982H145.438V285.118L145.626 284.828H147.507V284.827ZM149.201 287.135L149.578 287.714H150.141L150.329 288.868L151.081 289.447L150.895 290.312L150.328 290.601L149.764 291.755L149.011 292.045V292.624H148.447L148.07 293.489L146.564 293.199L145.624 290.891L146.001 290.601L145.813 289.447L147.13 288.004L149.201 287.135Z" fill="#C7C7C7" stroke="white" stroke-width="2"/>
<path d="M83.6582 299.471L82.3042 301.192L82.2272 304.34L76.2282 308.436L76.1122 310.513L72.2042 313.002L66.4212 313.125L56.6602 313.91L59.1472 308.34L62.1722 303.971L66.2932 297.417L71.8272 291.957L75.5032 285.723L76.3162 281.392L77.9732 281.046L78.6502 286.44L82.5522 293.662L83.1972 298.658L83.6582 299.471Z" fill="#C7C7C7" stroke="white" stroke-width="2"/>
<path d="M68.8249 325.819L69.2469 323.568L71.2619 322.828L71.0209 321.841L68.1979 321.469L70.2949 320.108L71.3429 316.276L70.4559 315.535L68.2789 316.276L66.5859 315.289L66.4219 313.125L72.2049 313.002L76.1129 310.513L76.2289 308.436L82.2279 304.34L82.3049 301.192L83.6589 299.471L85.3229 300.954L85.4779 302.972H89.3479L91.7859 302.203L93.2559 304.633L93.7599 310.925L98.3769 314.274L98.1899 315.428L98.7529 316.296L100.824 316.585L100.448 316.875L100.636 318.603L101.201 318.892L101.39 319.76H101.954L101.765 321.492L102.33 322.356H102.896L103.271 325.241L104.213 326.109V329.283L103.647 329.568L103.272 328.415L102.142 328.126L101.577 329.857V331.3L100.636 331.015L100.259 330.437L99.8819 331.3L97.8129 331.59L97.6249 332.457L96.8699 332.742L96.6839 333.321H95.5529V333.61L94.4239 333.321V332.168L95.5529 331.879V331.015H94.8009L95.1779 329.283L94.9889 327.552L96.3069 326.395L96.1189 325.241L95.9299 324.952L94.4239 325.241V324.952H93.6719L93.2949 324.377H92.5419L91.9779 323.799L91.7889 324.088L90.8469 323.799L89.1529 326.973L87.8359 326.684L87.6469 327.552L86.8949 328.126H85.5769L84.4479 327.263H83.8829L83.6949 328.126L84.2599 328.415L84.8239 329.568V330.726L84.0719 331.3H83.1289L82.9419 332.168L82.1889 332.457L81.0599 334.474L79.1769 334.188L79.3659 332.742L77.8599 331.59L77.1059 329.857L77.4819 328.705L77.1059 327.263L75.4119 327.841L74.6599 326.684H74.0939L73.9059 327.552L72.9649 327.263V326.973H72.2119V326.684H71.0829V326.395H70.3289L69.5769 326.973V326.395L68.8249 325.819Z" fill="#C7C7C7" stroke="white" stroke-width="2"/>
<path d="M99.6956 279.626L98.5656 282.225V283.958L100.072 285.401H101.202V285.691H101.766L102.143 286.56H103.085L103.648 288.003V289.447L105.343 292.044L105.154 292.913H104.589L104.403 292.334L103.648 292.044V293.198L102.897 293.488L102.143 291.755L101.578 291.469L100.825 292.334L100.072 292.044L100.26 293.488L101.578 294.646L103.648 294.931L104.214 295.51H104.589L104.966 294.646H105.532L105.907 296.954L105.72 297.243H104.403L104.025 296.664H101.014L100.449 297.243L100.26 296.954H98.9426L98.7536 297.243V297.822L99.8826 298.976H100.637L101.766 300.419H102.897V303.016L103.272 304.173L102.331 304.459L102.143 303.884H100.637L100.449 304.173L100.26 305.617L100.825 306.481L100.637 309.077L100.449 309.945L99.6956 310.235L100.449 313.121L98.3776 313.985V314.274L93.7606 310.925L93.2566 304.633L91.7866 302.203L89.3486 302.972H85.4786L85.3236 300.954L83.6596 299.471L83.1986 298.658L82.5536 293.662L78.6516 286.44L77.9746 281.046L79.1356 276.445L81.0706 275.505L85.4046 275.204L86.2916 275.822L89.9196 275.573L91.5326 277.306L99.6956 279.626Z" fill="#C7C7C7" stroke="white" stroke-width="2"/>
<path d="M11.035 283.383L11.787 285.691L12.163 290.022L11.6 291.469H11.035L10.847 292.044H10.093L9.341 289.446L8.965 289.156H8.023L7.647 289.735H6.894L6.142 288.866L5.202 288.576L5.014 286.843L5.766 286.268L5.202 284.246L5.954 283.956L6.331 284.535L8.4 285.399L8.965 284.245L9.718 283.666L11.035 283.383ZM3.506 285.98L3.881 287.134H4.446L4.258 288.867H3.506L3.318 288.003H2.375L2 287.424L2.375 286.27L3.506 285.98ZM39.472 330.147L38.711 326.639L36.312 326.084L34.713 324.78L33.01 321.341L31.72 320.013L30.882 318.273L29.115 318.571L28.496 319.443L26.716 319.343L26.703 317.738L22.575 315.071L20.718 317.168L19.161 320.576L21.531 321.952L24.214 325.241L23.837 325.53L22.708 324.666H21.956L20.639 326.684H19.885L18.756 325.82L17.25 326.973H16.685L15.794 324.96L14.582 323.612L16.22 321.615L18.519 320.441L18.498 320.088L15.11 316.651L14.349 316.672L13.098 315.621L12.543 314.273V313.984L14.049 313.694L14.8 315.426H16.306L16.683 314.273H16.118L15.93 313.409L17.059 312.541H18L18.188 311.967V311.677H17.247V311.967L16.494 311.677L16.682 310.809L17.435 310.235L17.247 309.077L17.435 308.792L19.129 309.077V308.503H19.881L20.258 307.924V305.617L21.198 302.441V300.998L20.258 298.976L19.881 295.511L17.812 295.221L17.624 295.8H17.059L16.118 294.356H14.988L14.799 293.777L14.423 294.067L13.294 293.777L13.671 292.334H14.048L14.611 291.18H15.365L15.177 289.158L15.554 288.579H16.306L16.683 289.737L17.812 290.023L18.565 291.181H19.13L27.585 294.901L27.779 297.633L30.023 302.617L33.584 302.677L34.745 305.29L34.9 310.748L36.448 311.759L38.654 310.748L40.434 313.183L42.64 313.955L44.769 316.801L46.665 316.92L47.052 318.7H48.948L48.286 321.224L45.545 323.697L44.981 325.798L45.465 328.64L46.191 329.503L46.803 333.034H46.238L46.05 332.459L44.921 331.881V331.017L43.604 331.302V331.592H42.851V331.302L41.533 331.592L40.404 330.15H39.472V330.147Z" fill="#C7C7C7" stroke="white" stroke-width="2"/>
<path d="M71.082 253.337V251.603L72.776 252.179L73.341 253.338H74.281V252.469L73.341 251.314L72.964 249.869L73.341 249.289L74.47 249.579L74.659 249H75.599L76.352 249.869H77.104L77.48 250.734L77.858 250.444V249L78.61 248.71L78.987 249.869L79.927 250.159V251.024L80.492 251.314L80.68 252.179L80.868 251.889L82.751 252.179L83.503 250.734L83.126 247.845L83.88 247.265H84.82V247.555L87.643 248.135L87.835 249L87.271 250.159H86.894L84.262 254.6L83.076 255.231L83.124 255.937L81.794 256.568L80.657 258.421L78.561 258.687L77.755 259.611L75.034 257.448L73.926 257.138L72.616 254.971L71.082 253.337ZM99.694 279.626L91.53 277.306L89.917 275.573L86.289 275.823L85.402 275.204L81.068 275.506L82.197 273.923L82.068 268.476L81.649 267.436H80.23L79.456 266.694L79.327 263.429L78.424 261.302L80.424 259.615L83.069 258.282L86.906 257.389L89.153 253.623V253.337H90.095L90.658 254.202H91.035L91.6 255.646L92.917 255.936L94.69 256.964L95.561 258.004L95.964 260.107L97.286 258.845L98.253 258.793L99.349 260.376L101.22 261.17L102.962 261.146L104.3 262.384L107.186 262.309L108.169 264.067L111.174 264.603V265.182L111.927 266.051L113.056 266.337L113.81 265.762L114.562 266.337L114.373 266.916L114.939 267.206L115.314 268.361L114.563 268.651V269.806L113.623 270.096V270.675L113.811 270.961H115.126L115.692 270.386L115.315 272.119L113.812 272.409L113.624 271.83H112.87V271.54H110.801L110.236 272.409H109.671L109.483 272.984L107.225 272.694L107.037 273.274H106.283V273.564L105.343 272.984V273.853H105.72L105.343 274.428L104.589 273.853L104.403 275.007H103.837L103.649 275.586L102.709 275.872V275.007H102.144L101.767 276.161H101.015L100.827 277.315H100.262V279.048L99.694 279.626Z" fill="#C7C7C7" stroke="white" stroke-width="2"/>
<path d="M56.6619 313.91L52.0429 316.74L49.2179 317.156L48.9469 318.698H47.0509L46.6639 316.918L44.7679 316.799L42.6389 313.953L40.4339 313.181L38.6529 310.746L36.4479 311.757L34.8989 310.746L34.7449 305.288L33.5839 302.675L30.0229 302.615L27.7789 297.631L27.5849 294.899L19.1309 291.18L22.8949 288.293L22.7059 287.424L21.1999 286.27H20.6369V285.116H21.9539L22.1419 284.537H22.7059L22.8949 285.98H23.2719L23.8349 286.845V287.714L24.4009 288.293L25.3429 286.845H26.4719L26.6599 287.424L27.7889 287.714L28.1659 288.868L30.6119 289.447L30.8009 288.868H31.3659L31.9299 287.714L32.6839 287.424L33.4359 286.27L32.4959 284.827V283.093L33.0609 282.225L34.0009 282.514V282.804L34.5659 282.514L34.7549 281.939L34.1889 281.36L34.3779 280.206L35.5069 280.491L36.2599 279.337H37.0129L37.2009 279.916H38.1429L37.5779 281.939H38.1419L38.7069 281.07L38.8959 281.649L39.6469 281.939V282.514L38.3299 283.383L37.6349 285.973L38.6029 294.432L44.5689 300.367L46.6969 301.656L50.6319 301.755L52.4049 303.733L61.3059 302.893L62.1739 303.971L59.1489 308.34L56.6619 313.91Z" fill="#C7C7C7" stroke="white" stroke-width="2"/>
<path d="M211.694 296.375L213.765 299.551V300.13H214.331L214.706 300.709V301.573L215.46 302.152H215.836L215.648 300.42L216.211 300.13L216.588 300.998L216.4 303.016L216.777 303.595L218.094 303.885V304.174L218.847 303.885L219.035 304.46L222.046 305.328L222.234 306.482L222.986 306.772L222.798 307.351H222.234L222.798 310.811L223.74 310.526V311.101L222.986 311.679L223.174 311.969L225.621 311.679L226.751 312.543H227.691L228.256 314.855L228.819 315.144L229.196 316.586L230.138 316.872L230.325 320.046L229.008 320.336L228.82 321.493L229.385 322.067L229.197 322.935H227.88L226.374 324.666L226.751 326.684L226.186 327.263L225.433 327.552L225.058 325.531H224.682V324.667H224.116V324.378H223.553L222.799 325.242L222.611 327.553L222.236 328.127H219.788L219.412 326.685H218.095L217.718 327.842L217.906 328.706H216.966L216.589 329.284V330.437L216.023 329.569L215.836 330.148L215.082 330.437L214.894 331.3L214.519 331.015L214.331 331.879L213.765 332.168V332.742V333.032V334.763H212.636L212.071 335.63L211.883 338.226H212.26V339.089L212.637 339.378L213.013 342.263L212.825 342.552L211.695 342.263V341.11L210.378 341.399L208.12 344.573H207.555L206.801 343.709L205.109 343.131L204.921 341.689L204.355 340.822H203.978L203.226 339.38L201.532 339.091V338.806L200.215 339.38L200.027 337.938L200.403 337.075H201.155L201.343 337.649H201.719V336.786L202.283 336.497L203.79 333.901L206.237 331.88L207.554 331.591L207.742 332.169H208.118V329.858H208.682L209.059 330.437H210.376L210.564 329.858L211.505 330.148L211.693 329.569H212.07L211.505 328.995H210.564L210.941 328.416L210.753 327.553L211.13 327.264L210.942 326.111H210.189V325.821L209.249 326.111L208.684 324.954L208.12 324.668L207.932 323.801L206.613 324.09L205.861 322.648L205.11 322.069L205.296 320.916L206.613 321.206L206.615 320.048L206.05 319.185L203.978 319.474L203.603 318.606V318.032L206.05 317.453L205.861 316.875L206.427 316.589L207.179 314.858L208.121 314.568L208.496 315.432H210.003L210.19 314.858H210.755L210.378 313.415L209.815 313.126L210.003 311.973L209.626 311.105L209.814 310.815L210.943 311.105L211.695 308.218H212.26L212.637 309.082H213.013L212.825 308.218L213.389 307.929V307.354L212.637 307.064L211.507 305.042L211.883 303.02L212.448 302.445V301.002H211.883L211.508 300.134L210.943 299.844V296.668L211.694 296.375ZM229.578 310.524L230.143 311.677H230.518V312.252L229.954 312.831H229.201L228.449 311.967V311.388L228.824 310.524H229.578V310.524ZM212.825 348.324V348.609H213.577L213.389 350.055L212.825 351.207L211.695 351.496V348.897L212.825 348.324Z" fill="#C7C7C7" stroke="white" stroke-width="2"/>
<path d="M16.6828 326.973V327.263H15.5538L14.9888 326.684L14.6118 326.973H13.8598V326.684L13.4828 326.973H11.2248L10.6598 325.531L9.90781 325.82L9.71981 326.684H9.15381L8.96581 325.531L8.02481 324.089H7.64781L7.45981 323.511H6.70581L6.51881 322.936L5.38981 322.647L5.20181 320.915L4.07081 320.626L4.25881 318.03L3.69581 316.873L3.88481 315.144L3.50781 314.855V313.987L4.07181 314.565H4.63681V313.697L5.57681 312.544H6.33081V311.97H7.27081V313.123L7.83581 313.697H8.39881L8.58681 313.123L9.90581 312.255L10.6578 313.123H11.2228V313.697L11.7868 314.276H12.5398L13.0948 315.624L14.3458 316.675L15.1068 316.654L18.4948 320.091L18.5158 320.444L16.2168 321.618L14.5788 323.615L15.7908 324.963L16.6828 326.973ZM39.4728 330.147L38.7068 330.436L38.3298 329.857L36.6358 330.147L35.8838 328.126H35.3188V328.994L34.5668 329.283L34.3788 328.415H33.8138L32.6848 326.684H32.3078L32.1198 327.263H31.3678L30.9918 328.126H30.0508V327.841L28.9208 328.126L27.9808 327.263L27.7928 326.11H25.9108L24.9698 324.953L24.2168 325.242L21.5338 321.953L19.1638 320.577L20.7208 317.169L22.5778 315.072L26.7058 317.739L26.7188 319.344L28.4988 319.444L29.1178 318.572L30.8848 318.274L31.7228 320.014L33.0128 321.342L34.7158 324.781L36.3148 326.085L38.7138 326.64L39.4728 330.147Z" fill="#C7C7C7" stroke="white" stroke-width="2"/>
<path d="M111.177 264.603L108.172 264.067L107.189 262.309L104.303 262.384L102.965 261.146L101.223 261.17L99.3519 260.376L98.2559 258.793L97.2889 258.845L95.9669 260.107L95.5639 258.004L94.6929 256.964L92.9199 255.936L93.2959 253.913L92.7309 253.623V252.758L93.2959 252.468L93.4839 250.444L92.3539 250.158L92.1659 249L94.2359 248.424L94.4239 245.245L94.8009 244.376L93.1069 243.8V242.931L92.5419 243.511H91.9779L91.7899 242.931L90.6599 243.221L90.4729 242.641L89.3429 242.355L89.1549 240.906L89.5319 240.041L91.7909 239.751L93.4849 238.306H94.2369L94.8019 238.886L95.5539 238.306L96.6849 238.596L97.0599 237.441H97.6249L98.9419 239.462H99.6949L100.259 238.017L101.201 238.307V237.152L101.953 236.862L102.329 237.442L102.141 239.177L101.2 240.332V241.487H100.447L100.259 242.932H100.824L101.389 243.801H102.141L102.329 242.932L103.646 243.222L104.211 244.957H106.092L106.658 244.377L106.846 243.222H107.975L108.163 240.332H108.728L108.916 239.752L109.857 239.462V238.886L109.292 238.596V237.727L109.857 236.861H110.422L111.174 237.727L112.116 238.017L112.304 239.176L112.867 239.752L112.304 241.197L113.622 240.907V241.197L114.562 241.487L114.75 240.907H115.125L115.502 241.776H115.879L116.067 241.196H117.007L117.761 240.621L117.949 239.176L119.455 239.462L119.643 240.621L120.206 240.907L119.643 242.352L120.206 242.932V244.087L120.771 244.377L120.206 246.401L120.394 246.691L120.959 246.401L121.712 247.846L121.531 249H121.906L121.531 251.024L121.906 252.758L121.154 254.203L120.966 256.516H122.095L122.283 257.671L121.342 259.115H119.648L119.271 258.825L119.083 257.67L117.578 257.96L117.766 258.825H118.519L118.894 259.405L118.706 260.27H117.954L117.578 260.85L118.143 263.449L117.767 266.052H117.39L117.202 265.472L114.944 265.762L114.567 265.182H112.495L112.12 264.603H111.177V264.603ZM123.79 245.245L123.978 248.135H123.226L122.66 246.98V245.245H123.79V245.245ZM89.1529 253.623L86.9059 257.389L83.0689 258.282L80.4239 259.615L78.4239 261.302L79.3269 263.429L79.4559 266.694L80.2299 267.436H81.6489L82.0679 268.476L82.1969 273.923L81.0679 275.506L79.1329 276.446L77.9719 281.047L76.3149 281.392V279.429L76.7789 278.418L74.4959 274.618L72.7159 274.558L72.2909 273.641L72.1779 269.285L70.8399 269.309L69.1309 267.234V265.35L68.7119 264.683L68.0689 260.56L68.6349 259.981H68.2579L67.8809 259.116V257.093L69.1979 257.383V257.093H70.1409V256.803L71.0809 256.517L70.7039 255.937H69.5749L69.1979 255.358H68.6349L68.2579 254.203L71.0819 253.338L72.6159 254.973L73.9259 257.14L75.0339 257.45L77.7549 259.613L78.5609 258.689L80.6569 258.423L81.7939 256.57L83.1239 255.939L83.0759 255.233L84.2619 254.602L86.8939 250.161L86.7049 252.182L89.1529 253.623ZM124.354 250.734L124.918 251.314L125.106 253.048L124.729 253.623L123.411 253.337L123.224 253.913H122.47L122.658 251.313L123.599 251.023V250.733H124.354V250.734Z" fill="#C7C7C7" stroke="white" stroke-width="2"/>
<path d="M436.093 594.634L436.214 588.137L433.372 582.325L431.356 583.003L428.293 580.019L427.708 580.145L426.357 579.068L425.572 579.62L423.939 577.96L423.294 578.761L421.943 578.575L421.581 579.991L416.865 583.804L414.788 584.293L414.507 583.618H413.217L411.563 581.683L411.645 580.512L409.71 580.299L409.689 579.159L409.146 578.93L409.904 578.275L411.13 578.473L411.484 577.782L412.421 578.031L415 575.716L414.322 567.106L415.29 566.224L415.161 565.336L416.387 565.384L416.677 566.318H417.289L417.676 565.285L417.645 562.188L415.612 558.839L418.354 558.102L418.418 557.167L421.675 557.66L426.546 555.442L431.285 556.871L431.511 557.608L432.317 557.463L433.968 555.253L436.993 556.034L438.509 555.541L439.38 556.674L440.734 556.527L441.024 555.64L441.863 555.541L442.25 557.068L441.411 559.873L442.508 560.22L442.845 561.036L440.969 563.62L439.84 569.079L439.464 568.791L438.899 569.938L439.651 570.227L439.087 575.109L441.723 589.753L442.852 591.476H443.417L443.794 592.623L442.663 593.482L442.288 595.205L441.158 594.346L440.781 595.78L439.84 595.205L438.899 596.928H437.582L436.093 594.634Z" fill="#C7C7C7" stroke="white" stroke-width="2"/>
<path d="M353.817 574.249L353.064 575.969H351.558L350.995 574.822V573.962L353.817 574.249ZM350.994 585.16V584.009L350.24 583.15L349.111 583.437L348.734 582.574L348.169 582.862L348.357 582.003L347.228 581.14L348.357 578.557V577.41L347.228 576.259L347.416 574.823L347.793 573.387L349.299 573.099L347.416 569.94V568.793L347.981 567.357L348.921 567.069L349.485 565.345L353.048 563.621L352.859 562.339L352.085 562.635L349.957 562.043L347.829 560.509L340.476 559.625L339.431 558.737L334.981 558.501L334.555 557.969L334.787 556.375L334.129 556.138L331.536 557.381L329.485 556.611L328.402 555.373L325.693 555.55L324.997 554.958L322.869 554.899L322.211 555.491L320.625 555.195L318.187 553.601L314.007 556.079L309.581 557.468L309.393 559.314L307.887 559.89L307.511 563.049L307.887 563.909L306.947 563.621L307.699 564.772H306.381L306.57 567.932L305.818 569.368L304.687 569.651L304.124 569.08L303.747 570.516L302.43 569.94L301.865 570.804L300.171 569.94V571.664L301.49 573.963H298.665L297.348 576.259L295.465 576.834L295.842 578.558H297.348L298.099 580.569L299.23 581.716H299.795L301.301 579.417L302.241 581.716L303.181 582.575H304.123L304.499 584.011L309.017 585.447L309.204 586.022L311.275 585.163L311.463 584.587L313.909 584.3L315.04 582.576L316.169 582.005H317.486L318.24 584.012H319.369V582.576L320.121 582.289L320.309 581.142L321.251 580.282H321.816L322.191 581.429H323.32L323.508 578.559L324.074 577.696L325.391 577.983L325.768 576.836L325.015 574.537H325.58L325.768 573.678H327.462L331.791 575.401L332.357 577.984L334.426 577.697L336.309 581.718L335.744 582.577L333.486 582.865L333.298 584.301L333.861 584.876H332.544L332.732 585.735L333.672 586.023L334.238 587.746L332.92 588.893L333.297 591.192L335.368 591.763L335.931 590.616H336.685L338.002 591.192V590.329L339.131 589.469L339.507 588.034L342.33 588.322L343.46 590.904H345.342L345.154 592.051H344.025L344.213 593.201L345.342 593.485L345.907 594.636H347.601L349.107 593.2L349.859 590.902L351.176 591.19L351.178 590.327L350.613 590.043L351.178 587.744L350.424 585.446L350.994 585.16Z" fill="#C7C7C7" stroke="white" stroke-width="2"/>
<path d="M429.299 610.99L429.864 611.853L429.487 613L428.922 612.141H426.664V611.279L429.299 610.99ZM397.485 582.861L399.369 585.731L400.874 586.307L403.888 590.612L404.263 592.048L406.523 593.771L407.276 595.494L409.91 597.217L411.041 596.929L411.229 596.358H412.735L413.11 597.217H414.052L415.933 593.484L419.887 593.2L423.087 591.19L423.463 590.327H427.039L430.053 591.19L436.093 594.635L436.214 588.138L433.372 582.326L431.356 583.004L428.293 580.02L427.708 580.146L426.357 579.07L425.572 579.622L423.939 577.962L423.293 578.763L421.942 578.577L421.58 579.993L416.863 583.806L414.787 584.295L414.505 583.62H413.216L411.563 581.684L411.644 580.513L409.708 580.3L409.688 579.16L409.144 578.931L405.112 579.499L405.335 580.852L404.045 580.974L402.674 582.449L400.437 582.358L399.45 581.652L399.429 580.789L398.26 580.607L396.003 582.172L395.824 582.862H396.356H397.485V582.861Z" fill="#C7C7C7" stroke="white" stroke-width="2"/>
<path d="M378.286 581.426L378.475 582.862L377.91 583.725H376.592V584.584L374.898 584.297L375.274 582.573H376.026L376.779 580.566L377.72 579.703H378.851L378.286 581.426ZM378.852 584.584V586.02L378.098 585.445L377.346 585.732L377.721 586.883L375.84 586.02V585.445L378.852 584.584ZM370.192 562.473L373.58 564.197L374.332 565.633L375.462 565.921L376.026 566.78H377.156L378.851 568.792L381.297 569.939L382.237 573.674L380.92 575.397L380.355 577.693L380.543 580.279L381.673 582.003V583.15L383.178 582.287L383.742 582.862L383.554 583.725L382.425 584.297V585.16H383.742L383.93 586.307L381.672 586.019V586.882L382.801 589.464L384.872 592.047L386.753 592.334L386.941 591.475L384.118 590.04L382.801 587.166L386.001 588.029L386.566 589.752L388.636 589.177L388.071 590.612L388.636 590.9L389.39 589.177L389.765 584.008L390.33 583.149H393.718L393.906 582.573L395.64 582.861L394.824 577.94L396.024 577.88L396.411 578.412L396.837 577.407L398.153 577.466L398.54 573.333L397.882 572.505L398.192 571.622L399.121 571.208L399.237 569.91L397.844 568.904L395.445 569.969L394.361 567.665L394.322 564.769L395.599 563.176L396.876 558.746L397.766 558.805L400.282 555.085L402.72 553.846L403.958 551.01L402.875 550.95L401.675 547.999L399.276 548.058L398.27 548.646L396.142 547.704L395.059 548.646L392.428 548.414L392.505 549.476L391.576 549.831V551.129L387.938 548.943L387.783 547.822L388.673 547.112L387.202 546.228L385.499 546.874L384.841 542.27L384.183 540.321L383.227 539.997L379.694 539.374L379.81 540.262L378.03 543.51L378.107 549.476L376.636 549.18L375.785 547.231L375.088 547.053L374.275 551.484L370.947 550.774L371.295 554.909L370.637 554.731L369.902 555.441L369.747 560.578L368.355 562.472H370.192V562.473Z" fill="#C7C7C7" stroke="white" stroke-width="2"/>
<path d="M383.23 539.999L379.697 539.376L379.813 540.264L379.366 538.725L380.697 534.356L379.608 528.94L380.092 525.681L379.407 524.264L376.988 524.078L374.005 522.724L371.707 522.969L367.797 522.108L365.136 523.154L364.975 522.538L361.508 521.247L359.775 521.37L360.025 520.77L361.428 519.092L360.944 517.615L359.734 517.244L358.001 515.029L356.751 515.274L352.761 518.906L352.72 516.135L353.849 514.042L354.535 514.228L355.26 513.612L356.308 511.827L356.268 510.532L356.994 510.781L357.477 510.043L356.913 507.33L355.139 506.283L353.97 506.899L353.245 506.161L351.108 505.667L350.463 503.883L346.271 502.776L345.533 501.912L345.91 500.68L347.039 500.392L347.604 498.954L348.733 498.093H353.063L352.308 495.218L352.686 493.491H353.439L354.003 494.929L355.886 496.367L356.451 495.79L357.016 496.078L357.768 495.218V494.064L358.522 493.779L359.085 495.218H360.028V496.078L362.663 496.943L363.228 499.818H364.545L364.734 500.392H365.674L366.24 501.256L368.686 502.405H371.323L373.769 501.545L376.592 502.693L377.346 501.833L379.227 501.256L380.733 502.693L380.545 504.992L381.11 505.568L383.933 506.146L385.627 503.843L387.887 506.146H388.793L388.839 507.393L387.912 508.38H386.421L386.501 509.241L385.897 509.305V511.396L386.421 512.136L386.179 514.966L385.131 515.274L385.373 516.384L384.566 517.366L385.816 517.675L386.139 519.277L386.421 517.86L387.469 518.599L387.792 521.185L386.864 522.045L387.348 526.17L386.743 526.972L386.945 529.802L388.598 533.74L387.832 535.65L388.396 538.113L386.703 538.852L384.365 538.974L383.23 539.999Z" fill="#C7C7C7" stroke="white" stroke-width="2"/>
<path d="M379.813 540.264L378.033 543.512L378.11 549.478L376.64 549.182L375.789 547.232L375.092 547.055L374.279 551.485L370.951 550.775L371.299 554.91L370.642 554.732L369.906 555.442L369.751 560.579L368.36 562.473L365.486 562.185L365.109 561.612L362.286 561.896L361.534 561.324L360.591 561.896L359.274 561.612L356.655 562.185L355.683 552.914L354.555 551.99L354.232 550.76L351.813 549.406L351.652 548.234L353.305 546.084L353.749 543.93L352.499 537.036L352.982 535.931L356.288 535.252L356.812 534.514L356.893 534.021L355.563 533.961L355.019 532.694L357.551 531.68L357.269 529.955L356.08 529.584L355.898 528.692L356.886 526.601L357.471 522.847L360.025 520.77L359.775 521.37L361.508 521.247L364.975 522.538L365.136 523.154L367.797 522.108L371.707 522.969L374.005 522.724L376.988 524.078L379.407 524.264L380.092 525.681L379.608 528.94L380.697 534.356L379.366 538.725L379.813 540.264Z" fill="#C7C7C7" stroke="white" stroke-width="2"/>
<path d="M509.486 462.132L510.803 465.009L507.792 463.571L507.98 462.417L509.486 462.132ZM511.181 467.024L511.558 469.613L512.687 471.913L510.804 473.355L510.617 467.308L511.181 467.024ZM447.18 559.313L447.368 560.177L446.051 561.036L446.428 562.184H446.992L447.933 560.46L450.003 559.888L450.567 555.004L449.438 553.856H447.744L446.991 553.281L446.803 551.556L448.308 549.832V548.972L447.555 548.684L446.049 549.256L445.297 548.684L446.049 545.811L444.355 545.524L443.603 542.651L442.286 541.787L441.721 539.202H442.849L443.415 538.054L444.167 538.338L444.355 536.901L443.792 536.329L445.298 535.465L445.673 534.893L447.744 534.605L447.556 533.741L448.497 533.169L451.698 534.606L452.261 535.466L454.897 535.754V535.178L452.45 534.318L451.885 533.454L448.874 532.017L448.121 532.305L446.238 530.58L445.861 527.13L444.732 526.27V525.41L445.861 524.546L445.673 523.685L443.792 523.109L441.721 524.547L441.533 523.686H440.592L438.145 521.673L436.451 522.249L436.076 520.809H432.499L432.122 519.814L428.124 521.385L427.311 520.796L424.409 521.681L419.765 520.738L418.527 522.629L417.133 528.598L415.121 528.89L415.297 532.115L415.818 532.38L415.857 533.501L419.533 535.272L419.765 538.702L417.947 541.95L418.488 544.431L422.242 545.315L423.094 547.086L421.585 548.685L418.991 549.331L417.521 550.396L417.714 552.286L425.995 552.697L427.736 551.34L429.71 551.044L431.297 552.582L433.541 553.348L433.968 555.257L436.993 556.038L438.509 555.545L439.38 556.678L440.734 556.532L441.024 555.644L441.863 555.545L442.25 557.072L441.411 559.877L442.508 560.224L442.845 561.04L443.417 560.181L444.734 560.465L445.111 559.893L447.18 559.313Z" fill="#C7C7C7" stroke="white" stroke-width="2"/>
<path d="M360.025 520.77L357.471 522.847L356.886 526.601L355.898 528.692L356.08 529.584L357.269 529.955L357.551 531.68L355.019 532.694L353.912 531.751L352.122 532.047L350.155 533.401L350.139 534.707L348.607 534.19L347.269 535.422L346.656 535.173L345.833 532L344.544 532.517L342.931 532.221L342.528 529.193L342.979 529.095L342.915 528.207L342.334 527.224L340.916 526.829L340.851 524.809L338.867 522.554L339.594 521.902V521.117L338.658 520.474L339.335 518.212L336.594 517.126L334.627 517.275L331.918 515.452L330.048 515.255L326.468 512.25L325.318 509.309L327.086 507.871L329.157 508.731L328.78 507.871L329.532 507.583L329.721 506.718H330.851L331.792 507.871H333.673L334.427 506.718H335.369L335.933 507.871H337.25L337.438 507.006H338.38L339.321 505.568L342.71 506.146V504.708L343.462 503.555L345.533 501.912L346.271 502.776L350.463 503.883L351.108 505.667L353.245 506.161L353.97 506.899L355.139 506.283L356.913 507.33L357.477 510.043L356.994 510.781L356.268 510.532L356.308 511.827L355.26 513.612L354.535 514.228L353.849 514.042L352.72 516.135L352.761 518.906L356.751 515.274L358.001 515.029L359.734 517.244L360.944 517.615L361.428 519.092L360.025 520.77Z" fill="#C7C7C7" stroke="white" stroke-width="2"/>
<path d="M338.867 522.554L335.658 523.45L335.594 524.484L333.884 526.454L332.466 526.506L331.95 527.935L331.337 527.836L332.208 534.384L331.466 534.925V536.057L329.724 538.618L327.112 540.339L326.725 541.866L322.436 542.359L318.534 545.264L317.179 544.475L317.083 542.655L316.019 540.982L307.697 542.28L306.756 535.753L305.062 532.88L304.309 532.592L303.933 530.579L303.179 529.719L303.367 528.854L301.862 527.705L300.921 525.692H300.167L299.792 523.968L298.473 522.818V520.232L297.721 519.084L295.461 517.932L295.275 516.782L293.392 517.07L292.638 518.508L290.944 518.22L291.321 515.922H290.567L290.38 515.057L291.321 514.196V513.332L289.815 511.318L290.003 510.457L288.686 507.871L289.062 503.555L289.626 502.693L290.944 502.405V501.256L293.015 499.818L293.956 497.517H298.096L299.604 498.669L299.415 499.242H300.921L301.673 500.107L303.744 500.392L303.933 499.818H304.873L305.25 496.078H306.379L306.945 494.929L308.262 494.641L308.451 497.517L311.462 498.669L312.215 500.107L316.168 501.545L316.92 502.405L318.051 501.833L318.991 502.693L319.557 504.42H321.439L321.814 506.146L324.075 507.583L324.263 508.731L325.318 509.309L326.468 512.25L330.048 515.255L331.918 515.452L334.627 517.275L336.594 517.126L339.335 518.212L338.658 520.474L339.594 521.117V521.902L338.867 522.554Z" fill="#C7C7C7" stroke="white" stroke-width="2"/>
<path d="M356.655 562.185L353.048 563.62L352.859 562.338L352.085 562.634L349.957 562.042L347.828 560.508L340.476 559.624L339.431 558.736L334.98 558.5L334.555 557.968L334.787 556.374L334.129 556.137L331.536 557.38L329.485 556.61L328.401 555.372L325.692 555.549L324.996 554.957L322.868 554.898L322.209 555.49L320.623 555.194L318.185 553.601L314.005 556.078L309.58 557.467L309.391 556.153L310.145 555.865V552.993L309.391 550.408L309.768 548.685H309.391L308.639 543.8L307.697 543.224V542.28L316.019 540.982L317.083 542.655L317.179 544.475L318.534 545.264L322.436 542.359L326.725 541.866L327.112 540.339L329.724 538.618L331.466 536.057V534.925L332.208 534.384L331.337 527.836L331.95 527.935L332.466 526.506L333.884 526.454L335.594 524.484L335.658 523.45L338.867 522.554L340.851 524.809L340.916 526.829L342.334 527.224L342.915 528.207L342.979 529.095L342.528 529.193L342.931 532.221L344.544 532.517L345.833 532L346.656 535.173L347.269 535.422L348.607 534.19L350.139 534.707L350.155 533.401L352.122 532.047L353.912 531.751L355.019 532.694L355.563 533.961L356.893 534.021L356.812 534.514L356.288 535.252L352.982 535.931L352.499 537.036L353.749 543.93L353.305 546.084L351.652 548.234L351.813 549.406L354.232 550.76L354.555 551.99L355.683 552.914L356.655 562.185Z" fill="#C7C7C7" stroke="white" stroke-width="2"/>
<path d="M395.644 582.861L394.828 577.94L396.027 577.881L396.414 578.413L396.84 577.408L398.156 577.467L398.542 573.334L397.885 572.506L398.194 571.623L399.123 571.209L399.239 569.911L397.846 568.905L395.447 569.971L394.363 567.667L394.324 564.771L395.602 563.179L396.878 558.749L397.769 558.808L400.284 555.088L402.722 553.849L403.96 551.013L404.181 549.048L402.728 547.631L403.132 544.68L402.446 544.309L403.293 543.756L405.672 543.879L406.68 542.584L408.292 543.385L409.219 541.538L411.799 540.493L412.202 536.803L412.968 535.753L412.202 535.2L412.403 534.34H413.976L414.298 532.615L415.296 532.11L415.816 532.375L415.855 533.496L419.531 535.268L419.764 538.697L417.945 541.945L418.486 544.427L422.24 545.311L423.092 547.082L421.583 548.681L418.989 549.327L417.52 550.393L417.713 552.282L425.994 552.693L427.735 551.336L429.709 551.04L431.296 552.578L433.54 553.344L433.967 555.253L432.316 557.463L431.51 557.608L431.284 556.871L426.544 555.442L421.674 557.66L418.417 557.167L418.353 558.102L415.611 558.839L417.644 562.188L417.675 565.285L417.288 566.318H416.676L416.386 565.384L415.16 565.336L415.289 566.224L414.321 567.106L414.999 575.716L412.419 578.031L411.483 577.782L411.129 578.473L409.903 578.275L409.145 578.93L405.112 579.498L405.335 580.851L404.045 580.973L402.674 582.447L400.437 582.356L399.449 581.65L399.429 580.787L398.26 580.605L396.002 582.171L395.824 582.861H395.644Z" fill="#C7C7C7" stroke="white" stroke-width="2"/>
<path d="M415.297 532.11L414.299 532.615L413.977 534.34H412.404L412.203 535.2L412.969 535.753L412.203 536.803L411.8 540.493L409.22 541.538L408.293 543.385L406.681 542.584L405.673 543.879L403.294 543.756L402.447 544.309L403.133 544.68L402.729 547.631L404.182 549.048L403.961 551.013L402.878 550.953L401.678 548.002L399.278 548.061L398.272 548.648L396.144 547.706L395.061 548.648L392.429 548.416L392.506 549.478L391.578 549.833V551.131L387.94 548.945L387.785 547.824L388.675 547.114L387.205 546.23L385.502 546.877L384.844 542.272L384.187 540.323L383.23 539.999L384.365 538.974L386.703 538.852L388.396 538.113L387.832 535.65L388.598 533.74L386.945 529.802L386.743 526.972L387.348 526.17L386.864 522.045L387.792 521.185L387.469 518.599L386.421 517.86L386.139 519.277L385.816 517.675L384.566 517.366L385.373 516.384L385.131 515.274L386.179 514.966L386.421 512.136L385.897 511.396V509.305L386.501 509.241L386.421 508.38H387.912L388.839 507.393L388.793 506.146L390.333 505.856L390.898 504.42L390.522 502.117H391.462L391.839 500.968L398.992 501.833L400.122 502.693L399.934 504.131L400.499 504.708L400.874 507.294L402.193 507.871L403.134 507.294L404.64 509.02L404.263 511.318L405.205 512.183V513.332L406.334 514.196V515.634L407.087 516.206L406.522 517.643L406.897 518.796L408.78 517.932L409.534 519.368L412.169 520.521H413.675L414.24 519.656L415.746 519.368V517.932L417.815 518.508L418.192 517.358L420.641 517.643L422.146 516.782L422.71 515.346L424.027 515.634L424.216 514.196L425.722 514.48L425.533 513.332L426.853 512.471L427.228 513.908L428.358 514.48L429.487 516.782L431.182 515.922L432.687 516.494L432.876 517.643L432.122 519.811L428.124 521.382L427.311 520.793L424.408 521.678L419.765 520.734L418.526 522.625L417.133 528.594L415.121 528.886L415.297 532.11Z" fill="#C7C7C7" stroke="white" stroke-width="2"/>
</svg>
