<svg width="614" height="712" viewBox="0 0 614 712" fill="none" xmlns="http://www.w3.org/2000/svg">
<path d="M521.22 475.64L521.44 475.59L521.9 474.62L521.75 474.22L520.88 474.04L520.57 474.36L520.19 474.42L518.77 473.75L518.01 472.84L517.33 472.13L516.2 471.22L515.74 471.04L515.43 471.13L515.01 471.61L514.74 471.98L514.21 472.05L513.54 471.97L513.19 471.89L512.93 471.66L512.87 471.2L513.08 470.16L513.44 470.07L514.3 470.03L514.58 469.9L515.09 469.09L514.11 467.62L513.7 466.75L513.8 466.02L514.11 465.49L514.53 465.3L514.82 465.27L515.71 465.47H516.15L517.41 465.02L520.26 463.43L521.03 462.76L522.76 461.19L523.32 460L523.74 458.92L524.93 455.61L525.02 453.74L524.24 454.46L523.11 455.28L521.62 454.14L520.48 453.11V452.55L519.16 451.93L518.25 451.64L517.8 451.58L517.21 451.46L516.82 451.23L515.43 449.76L515.33 449.14L515.47 448.51L516.45 447.59L517.49 446.7L517.5 445.95L517.99 444.91L519.19 442.49L519.56 442.5L520.2 442.34L521.63 441.85L521.54 441.31L522.48 441.33L522.77 441.56L523.66 441.79L526.41 442.26L526.61 441.48L527.08 440.78L527.69 440.15L528.16 439.82L528.84 440.09L528.91 440.92L530 442.74L530.3 442.87L530.94 442.93L531.36 443.22L531.83 443.82L532.09 444.35L532.2 445.12L534.19 444.9L534.39 444.11L536.39 443.13L536.87 443.11L537.94 443.61L538.65 444.58L538.68 445.01L538.55 445.37L537.25 447.39L536.79 447.88L536.24 449.43L536.49 449.98L536.58 450.48L536.53 452.71L535.88 453.18L535.73 453.58L536.1 454.13L536.8 454.29L538.97 454.33H540.12L541.04 454.18L542.17 454.14L545.09 454.73L545.57 455.15L546.32 456.82L546.14 457.49L545.81 457.85L545.17 457.95L544.57 459.37L544.63 459.87L544.73 460.44L544.65 461.03L543.91 462.06L543.52 462.17H543.03L542.6 462.03L542.23 461.84L541.56 461.33L541.15 461.04L540.86 460.97H540.48L539.95 461.18L539.2 461.58L538.91 461.69L538.56 461.75L538.28 461.64L537.99 461.5L537.69 461.38L536.88 461.2L536.54 461.36L536.28 461.8L535.89 461.95L534.32 461.76L534 461.62L533.71 461.48L533.35 461.28L532.95 461.18L532.55 461.43L532.46 461.84L532.67 464.13L534.55 464.54L536.37 464.71L537.31 464.84L539.56 465.61L540.04 466.09L540.77 467.62L543.17 470.75L543.61 472.24L541.21 475.72L539.24 476.63L538.91 476.61L538.62 476.66L538.3 476.74L537.73 476.96L537.19 477.36L536.74 479.31L536.59 480.81L537.14 483.25L537.56 483.51L537.99 483.65L538.63 483.95L538.92 484.36L539.27 485.86L538.78 486.27L538.69 486.32L538.39 486.59L537.91 487.24L537.61 487.73L537.33 488.31L536.97 488.73L536.59 488.9L536.15 489L535.77 489.04L535.05 489.38L536 490.44L536.49 490.62L536.97 490.86L537.26 491.38L537.34 491.88L537.57 495.15L538.07 496.39L538.34 497.37L538.4 499.73L538.31 500.38L538.12 500.77L536.31 502.49L535.79 502.71L534.83 502.78L534.52 503.11L533.99 507.64L535.18 509.33L535.61 509.83L535.75 510.52L535.53 511.48L535.32 511.78L533.41 512.71L532.5 514.29L531.4 515.51L530.9 515.67L530.39 515.5L530.01 515.51L529.49 515.7L529.2 515.83L528.89 516.02L528.68 516.33L528.55 516.92L528.8 517.17L529.28 517.5L528.98 519.4L528.84 519.86L528.65 520.26L527.92 521.42L527.57 522.03L527.18 522.92L526.05 526.14L526.1 526.69L526.33 527.11L526.85 527.69L527.25 527.96L527.86 528.11L529.07 529.6L529.38 531.98L529.5 535.33L527.59 536.56L526.67 536.93L525.73 537.45L525.43 537.66L525.18 538.01L525.06 538.46L525.4 539.97L525.49 540.45L525.67 541.83L525.8 543.54V544.52L525.67 545.01L525.3 545.55L523.57 547.26L523.17 547.61L522.91 547.79L522.54 548L522.12 548.17L521.47 548.3L520.91 548.27L520.63 548.35L520.12 548.57L519.68 548.87L519.34 549.3L518.33 550.8L516.92 554.14L516.95 554.6L517.05 554.81L516.81 554.64L512.6 551.01L509.21 548.08L504.29 543.8L504.25 543.6L503.56 543.16L502.78 543L502.39 543.02L501.87 543.22L501.57 543.36L501.26 543.49L500.74 543.45L499.92 542.37L499.55 540.97L500.19 540.04L501.59 538.59L502.34 538.07L503.07 538.51L504.54 539.59L504.82 539.29L504.91 536.72L503.65 536.31L503.28 535.83L503.03 535.58L502.71 535.52L501.9 535.4L502.26 535.02L503.51 534.72L501.44 533.93L499.53 532.2L498.24 530.71L496.91 529.73L496.37 529.72L496 529.56L495.85 528.56L496.21 527.94L497.71 527.02L499.3 527.67L500.23 528.41L500.52 528.91L500.72 529.35L500.98 530.15L501.26 531.95L502.14 532.86L502.57 532.73L501.48 530.02L500.61 528.45L500.53 528.04L500.9 527.83L502.37 527.77L504.12 527.84L504.48 528.1L504.92 528.64L505.72 528.95L507.22 528.93L508.44 528.57L510.98 530.86L511.03 531.88L511.54 533.17L511.74 532.38L512.41 531.68L513.1 531.74L513.43 531.86L513.8 532.1L514.44 532.14L515.13 531.51L515.36 531.22L515.47 530.64L515.51 529.93L515.32 529.46L515.21 530.6L514.94 531L514.36 531.45L514.08 531.51L513.71 531.35L512.49 530.55L511.17 529.02L510.23 527.63L510.1 526.02H511.29L511.41 526.7L511.88 527.32L512.14 527.5L512.45 527.64L513.17 527.84L516.16 528.02L515.54 527.49L514.55 527.18L514.06 527.16L513.69 527.21L513.19 527.34L512.65 527.24L512.03 526.78L509.22 523.31L508.8 522.25L508.88 521.7L509.17 521.27L509.61 520.83L510.02 520.22L509.75 518.83L509.05 518.08L508.4 519.42L508.95 519.82L509.03 520.29L508.42 523.45L508.14 523.76L507.79 523.99L506.1 524.73L504.95 524.5L504.68 524.36L504.32 523.47L503.87 523.39L503.17 523.36L500.78 522.87L499.65 522.61L498.43 522.96L498.07 523.17L497.38 523.29L496.36 523.13L495.97 522.99L495.01 522.49L494.62 521.86L496.57 518.9L497.19 518.48L497.48 518.43L498.71 518.56L499.1 518.7L499.88 519.36L500.2 520.44L500.7 521.78L501.28 522.47L501.78 522.72L502.31 522.79L502.65 522.64L502.25 522.65L501.53 522.42L501.14 522.01L500.91 521.21L501.5 520.2L502.77 519.87L503.52 520.19H503.89L504.5 519.93L504.28 518.24L503.3 518.75L502.78 519.29L501.11 519.65L500.83 519.58L497.82 516.42L497.66 516.03L498.44 514.62L499.91 513.15L500.23 512.5L500.43 512.04L500.62 511.55L502.41 511.26L502.71 511.42L502.85 512L502.87 512.72L503.54 514.09L503.66 514.21L503.54 513.91L503.15 512.66V512.13L503.29 511.43L503.47 511.09L504.51 510.07L506.04 507.67L504.95 506.58L504.63 506.44L504.31 506.41L504.03 506.56L503.61 506.82L503.19 506.68L501.64 504.29L501.39 503.06L501.37 502.55L500.32 502.11L496.35 502.51L496.3 503.68L496.74 503.57L497.32 503.55L498.93 504.04L498.76 504.6L498.36 504.92L497.98 504.94L497.08 504.83L495.96 504.33L492.53 502.69L490.81 501.82L489.86 499.88L489.82 499.28L490.01 498.8L490.78 497.82L491.77 496.81L491.7 495.43L491.38 495.95L491.15 496.61L489.76 498.13L489.22 498.58L488.24 499.22L485.93 499.88L485.35 499.75L484.78 499.7L483.74 500.03L482.81 500.48L482.42 500.8L481.64 502.12L481.93 502.44L482.62 501.86L484.18 500.79L484.57 500.82L484.95 501.06L486.05 504.45L485.92 504.97L485.05 505.59L484.28 505.93L483.98 506.05L483.86 506.07L483.72 506.05L482.85 505.76L481.8 504.5L480.82 502.69L480.72 501.28L480.9 499.4L481.79 498.07L482.07 498.02L482.42 498.05L482.88 498.12L483.54 497.77L485.31 496.21L485.21 495.49L485.86 494.73L486.2 494.42L487.15 493.91L487.78 494.5L487.81 494.75L487.87 493.52L488.09 492.52L489.67 490.78L490.26 490.72L491.54 490.77L493.46 488.67L493.93 487.53L494.86 484.8L495.35 483.13L495.56 482.84L498.66 482.45L499.92 482.14L500.4 482.31L500.67 483.02L501.41 482.52L502.94 482.28L503.22 482.5L503.58 483.03L504.33 485.28L503.94 487.43L503.73 488.02L503.4 488.64L503.09 488.97L502.85 489.2L503.17 489.16L504.07 488.42L504.34 487.35L504.31 486.92L504.19 486.47L504.37 486.09L505.48 487.18L505.58 487.62L505.54 488.21L505.35 488.75L505.16 489.07L504.79 489.48L504.08 490.11L503.33 490.55L502.39 490.99L500.72 491.49L500.28 491.53L499.85 491.34L499.23 490.88L498.89 490.58L498.26 490.16L499.45 491.39L499.77 491.64L500.04 491.81L500.42 491.83L501.83 491.46L502.96 491.13L503.41 490.88L504.15 490.52L504.49 490.45L505.08 492.34L506.56 493.32L506.97 493.5L507.1 493.52L507.25 493.31L506.86 492.72L506.51 492.49L506.05 492.16L504.9 490.77L505.37 489.64L505.7 489.33L506.67 489.24L508.52 491.34L508.46 492.47L508.32 493.23L508.11 493.83L507.87 494.32L506.85 495.6L506.4 496.08L505.23 497.88L506.39 498.77L506.93 498.79L507.33 498.55L507.55 498.26L508.3 496.6L508.48 496.13L508.8 495.03L511.24 491.99L511.8 490.27L513.32 487.92L513.07 487.69L511.7 489.63L511.12 490.64L510.87 491.33L510.44 492.2L510.06 492.67L509.58 492.84L509.53 491.93L509.63 491.51L510.12 490.46L510.34 489.66L510.51 488.79L510.55 488.11L510.19 486.89L509.9 485.99L511.64 482.52L513.09 480.84L513.36 480.55L513.81 480.16L514.19 479.99L514.48 479.95H515.2L515.99 480.04L516.44 479.95L516.74 479.63L514.79 478.97L514.24 479.03L513.63 479.24L513.14 479.65L512.74 480.4L512.54 480.7L511.4 481.8L511.11 481.87L511.25 480L512.04 475.33L513.71 473.76L515.17 472.7L516.3 472.22L516.74 472.64L516.84 473.28L517.28 473.74L517.88 474.26L519.14 475.19L520.05 475.51L521.22 475.64ZM521.29 460.88L521.23 460.96L520.53 461.5L519.87 461.85L518.91 462.88L518.76 463.19L518.6 463.45L518.47 463.59L517.52 464.35L516.65 464.76L516.25 464.9L515.74 464.98L515.51 464.94L515.3 464.8L513.79 463.05L513.68 462.83L513.65 462.6L513.75 462.41L515.15 461.9L515.4 462L515.55 462.12L515.78 462.37L516.38 462.23L516.51 462.13L516.13 461.78L515.21 461.38L514.62 461.75L514.46 461.94L514.31 462.07L514.14 462.08L513.92 461.95L513.77 461.76L513.31 460.81L513.12 460.33L512.86 459.06L513.42 458.22L513.54 458.07L513.97 457.98L514.13 458.01L515.52 457.75L515.7 456.83L515.76 456.05L515.73 455.76L515.78 455.52L516.06 454.74L516.21 454.54L516.39 454.46L518.2 453.86L519.47 453.55L519.63 453.6L521.32 454.98L522.45 455.38L522.72 455.6L523.34 456.66L523.44 456.89L523.4 457.12L522.3 458.73L522.17 458.87L522.01 458.98L521.74 459.04L520.84 458.95L520.68 458.83L520.49 458.61L519.74 458.33L519.76 458.6L519.89 458.81L520.75 459.4L521.18 459.54L521.75 459.66L521.87 459.97L521.67 460.4L521.45 460.74L521.29 460.88ZM488.14 542.87L487.97 542.99L487.63 543.09L486.99 541.55L486.78 540.51L486.47 538.48L486.51 538.14L486.82 537.24L485.38 536.38L484.47 536.85L484.26 536.92L483.92 537H483.63L483.44 536.95L483.17 536.77L483.07 536.58L483.04 536.33L483.11 536.08L483.39 535.84L483.65 535.66L484.05 535.49L484.56 535.45L484.92 535.4L485.14 535.33L485.42 535.18L485.65 534.97L485.89 534.61L486.06 534.27L485.87 534.21L485.21 534.61L483.33 534.84L483.17 534.59L482.65 529.96L482.74 529.72L483.33 528.97L483.74 528.65L485.81 528.07L486.06 528.12L486.23 528.32L487.1 531.06L487.2 531.43L487.3 532.68L487.81 534.32L488.15 535.26L488.56 535.73L489.08 536.65L489.82 538.76L489.98 540.61L489.88 541.01L489.76 541.2L488.14 542.87ZM496.36 542.71L494.62 541.46H494.37L494.13 541.58L493.91 541.65L493.64 541.66L491.98 541.31L491.06 540.78L490.86 540.61L490.78 540.4L490.55 538.83L490.61 538.43L490.74 538.18L490.86 538L491.88 536.86L492.11 536.73L493.04 536.62L493.21 536.66L493.33 536.95L493.63 537.44L493.69 537.73L493.81 537.97L494.44 538.5L495.12 537.66L495.16 537.43L494.98 537.17L494.84 537.08L494.43 536.99L493.94 536.06L493.83 535.81L493.66 535.01V534.74L493.69 534.45L494.3 531.29L494.43 530.96L494.54 530.77L494.72 530.59L494.89 530.68L495.16 531.06L495.26 531.25L495.32 531.6V532L495.4 532.83L495.57 534.33L496.87 536.65L496.58 537.66V538.9L496.65 539.86L496.74 540.23L497.44 541.18L497.64 541.23L497.77 541.06V540.85L497.69 540.64L497.7 540.39L497.88 540.31L498.03 540.38L498.2 540.51L498.33 540.67L498.36 540.98L498.25 541.58L498.16 541.96L498.04 542.14L497.88 542.28L497.15 542.74L496.89 542.84L496.59 542.86L496.36 542.71ZM490.63 537.4L490.43 537.39L490.24 537.29L488.22 532.8L487.33 530.09L487.38 529.47L487.86 529.42L488.78 529.62L490.44 530.03L490.83 530.24L492.02 531.21L493.62 531.62L493.78 531.82L493.81 532.17L493.77 532.61L493.29 535.69L493.17 535.87L492.96 535.95L492.56 535.93L491.82 536.43L491.48 536.68L491.08 537.01L490.63 537.4ZM509.04 471.84L508.17 471.56L507.64 470.93L507.04 470.91L506.24 471.12L505.99 471.13L505.44 471.09L505.25 471L505.09 470.88L504.94 470.62L503.66 469.13L503.22 469.37L502.26 469.59L502.03 469.54L501.89 469.4L501.8 468.9L501.72 468.26L501.73 468.06L501.83 467.65L502.04 467.37L502.53 466.88L502.72 466.72L502.99 466.66L503.32 466.68L503.46 466.76L503.72 466.85L504.37 466.79L505.48 466.59L505.79 466.5L506.32 466.16L506.49 466.03L506.71 465.98L507.02 466.03L507.28 466.12L507.43 466.2L508.3 466.87L508.44 467.01L508.57 467.16L508.68 467.32L509.25 468.25L509.47 468.83L509.49 469.07L509.48 469.33L509.44 469.88L509.04 471.84ZM500.7 527.6L500.17 527.32L498.42 526.6L498.15 526.36L498.14 526.12L499.29 524.84L499.44 524.69L499.7 524.53L501.05 523.81L501.33 523.74L504.53 524.81L506.24 525.51L506.62 525.56L506.83 525.49L507.26 525.12L507.44 525.01L507.59 525.02L507.77 525.14L508 525.42L508.06 525.64L507.98 525.94L507.71 526.74L507.45 526.91L506.98 527.08L506.78 527.1L506.25 527.12L504.72 527.11L504.44 527.07L504.11 526.94L503.91 526.83L503.6 526.77L503.41 526.79L501.11 527.45L500.7 527.6ZM501.48 462.27L501.22 462.23L500.83 462.09L500.57 461.93L500.42 461.81L500.21 461.6L499.9 461.19L499.34 459.97L499.33 459.72L499.37 458.87L499.54 458.7L501.48 458.19L501.7 458.15L502.95 458.16L505.22 458.29L505.7 458.45L505.89 458.54L506.23 458.76L506.37 458.89L506.56 459.11L506.93 459.69L507.01 459.99L504.99 460.54L502.58 461.61L502.23 461.8L501.48 462.27ZM489.98 488.34L489.81 488.16L489.71 487.92L489.55 487.28L489.63 487.06L489.79 486.94L491.47 486.47L491.67 486.56L491.56 486.12L491.2 486.03L490.81 486.18L490.29 486.22L490.06 486.16L489.93 485.87L489.41 484.04L489.49 483.84L489.72 483.65L490.03 483.56L491.33 484.08L491.52 484.18L491.76 484.37L492.64 483.87L493.85 482.76L494.59 482.4L494.92 482.35L495.07 482.69V483.02L495.01 483.34L494.35 486.17L494.26 486.37L494.15 486.55L493.77 487.03L492.25 488.5L492.02 488.62L491.01 488.7L490.67 488.66L490.16 488.49L489.98 488.34ZM482.39 542.64L482.76 542.13L483.2 542.22L483.6 542.1L483.82 542.05L484.2 541.85L484.36 541.72L484.63 541.39L484.71 541.1L484.58 540.97L484.32 541.22L484.08 541.43L483.89 541.53L483.59 541.58H483.39L482.42 541.47L481.75 541.13L481.47 540.49L481.74 538.2L482.16 537.44L482.44 537.37L485.47 537.08L486.16 537.22L486.24 537.53L486.52 540.56L486.45 540.79L485.79 541.39L485.47 541.66L484.56 542.37L484.13 542.67L483.94 542.77L483.72 542.84L483.29 542.89L482.78 542.85L482.5 542.74L482.39 542.64ZM498.7 481.85L498.48 481.77L498.32 481.5L498.17 481.12L498.14 480.85L498.26 480.61L498.59 480.23L498.84 479.87L498.85 479.09L498.71 478.23L498.57 477.59V477.27L498.6 476.99L498.67 476.62L498.73 476.39L498.88 475.95L499.07 475.56L499.3 475.19L499.62 475.07L500.93 475.7L501.17 475.89L501.32 476.08L501.61 476.67L501.75 477.08L502.08 478.13L502.25 478.96L501.98 479.71L501.86 479.88L499.66 481.6L499.49 481.71L498.7 481.85ZM492.6 529.43L492.4 529.42L491.63 529.18L490.76 528.79L490.57 528.68L490.46 528.43L490.67 528.01L490.38 527.76L490 527.67L489.62 527.7L489.34 527.87L489.02 528.26L488.78 528.63L488.57 528.7L488.22 528.77L487.73 528.82L487.43 528.76L487.23 528.57L488.05 527.38L488.45 527.05L488.62 526.93L489.59 526.64L490.04 526.53L490.32 526.54L491.6 525.66L492.58 524.27L493.41 523.85L493.62 524L493.73 524.72L493.75 524.97L493.77 525.76L493.74 528.74L492.99 529.31L492.85 529.39L492.6 529.43ZM510.16 481.48L510.03 481.46L509.78 481.31L508.31 479.64L508.24 477.49V477.17L508.28 476.84L508.36 476.62L508.51 476.34L509.28 475.2L509.43 475.08L509.72 475.03L509.97 475.05L511.01 475.39L511.16 475.62L511.2 476.33L510.73 480.2L510.4 481.26L510.25 481.47L510.16 481.48ZM501.28 466.74L501.14 466.73L500.1 466.45L500.03 466.27L500.23 465.76L502.38 463.68L502.59 463.53L502.85 463.45L503.11 463.46L505.68 464.13L505.86 464.3L506.4 464.99L506.5 465.23L506.34 465.41L505.83 465.72L505.53 465.82L504.65 466.07L504.41 466.09L503.28 466.08L502.55 466.02L502.29 466.1L502.12 466.19L501.28 466.74ZM508.84 460.99L508.65 460.98L507.75 459.72L507.7 457.82L507.76 457.51L507.97 457.32L509.35 456.98L509.59 457L509.83 457.12L510.06 457.34L510.51 458.49L511.05 460.15L511.02 460.36L510.86 460.47L509.31 460.95L508.84 460.99ZM505.32 445.06L504.94 444.62L503.52 444.19L502.86 443.93L502.75 443.77L503.04 442.7L503.22 442.51L503.45 442.4L504.31 442.51L504.54 442.57L506.42 442.29L507.21 441.59L508.21 442.72L508.5 443.61L508.58 444.05L507.3 444.16L507.11 443.98L506.87 443.88L506.8 443.68L507.01 443.51L507.15 443.33L506.94 443.18L506.56 443.13L505.73 443.34L505.65 443.77L505.82 443.97L505.87 444.19L506.22 444.39L505.77 444.95L505.53 445.04L505.32 445.06ZM505.21 473.3L505.02 473.27L503.32 472.62L503.17 472.43L502.85 471.15L503.17 470.73L504.04 470.35L504.26 470.33L504.46 470.42L504.59 470.57L504.77 471.12L504.9 471.27L505.07 471.38L505.3 471.44L505.55 471.48L506.08 471.5L506.33 471.49L506.84 471.39L507.24 471.33L507.62 471.39L507.81 471.49L507.95 471.62L508.15 471.97L508.28 472.37L508.31 472.75L508.16 473.06L508.02 473.12L506.98 473.13L505.75 473.17L505.21 473.3ZM497.74 535.17L497.61 535.08L496.73 533.18L496.69 532.94L496.67 532.56L496.66 532.03L496.68 531.23L497.17 530.51H497.41L497.69 530.75L498.14 531.19L499.68 532.75L500.02 533.44L499.44 534.29L499.28 534.43L497.74 535.17ZM508.45 490.68L507.99 490.25L507.86 490.1L506.15 487.81L506.16 487.47L506.35 486.92L506.51 486.73L506.71 486.66L507.38 486.63L507.64 486.66L508.91 487.22L509.52 487.68L509.72 487.91L509.8 488.26L509.7 488.63L508.93 490.16L508.73 490.54L508.56 490.65L508.45 490.68ZM499.51 457.15L497.93 456.77L497.68 456.54L497.6 456.35L497.42 455.68L497.51 455.39L497.82 455.05L498.02 454.91L500.74 454.08L501.45 454.32L501.94 455.13L502.1 455.44L502.09 455.65L501.75 455.77L500.49 456.09L499.53 456.3L499.34 456.38L499.51 457.15ZM505.41 480.74H505.28L504.53 480.6L504.35 480.43L503.91 479.3L503.64 478.56L503.63 478.14L504.34 477.25L504.81 476.96L505.05 476.94L505.73 477.3L506.39 477.97L506.68 478.57L506.69 478.89L506.57 479.51L506.29 480.28L505.41 480.74ZM482.28 544.96L482.15 544.94L481.98 544.86L481.76 544.61L481.69 544.3L481.79 542.99L482.13 542.95L482.77 543.24L483.41 543.4L483.69 543.44L483.92 543.39L484.08 543.26L484.93 542.48L486.04 541.5L486.71 541.97L486.91 542.55L486.97 542.78L487 543.09L486.72 543.51L486.48 543.71L484.02 544.62L482.28 544.96ZM503.24 477.8L503.17 477.67L503.19 477.44L503.26 476.9L503.33 476.59L503.46 476.43L503.67 476.27L503.68 475.84L503.8 475.57L503.99 475.31L504.13 475.05L504.21 474.83L504.38 474.65L504.59 474.62L504.79 474.75L504.98 474.85L505.24 474.88L505.56 474.87L505.72 474.93L505.88 475.05L506.01 475.2L506.4 475.39L506.59 475.55L506.78 475.65L506.99 475.6L507.34 475.32L507.58 475.23L507.8 475.4L507.86 475.71L507.76 476.12L507.61 476.47L507.51 476.74L507.26 477.16L507.18 477.56L506.99 477.61L506.7 477.41L506.56 477.4L506.34 477.33L506.09 476.96L505.8 476.88L505.52 476.86L505.06 476.66L504.59 476.55L504.44 476.6L504.21 476.79L503.89 476.88L503.67 477.11L503.52 477.5L503.39 477.73L503.24 477.8ZM502.79 510.58L502.61 510.46L501.98 509.65L501.96 509.37L501.98 509.09L502.44 507.74L502.57 507.51L502.72 507.38L502.88 507.33L504.73 507.43L505.54 508.06L504.38 509.71L504.06 510.05L503.9 510.18L503.72 510.28L503.01 510.53L502.79 510.58ZM507.43 465.27L506.89 464.74L506.44 464.22L506.29 463.96L506.21 463.78L506.11 462.3L506.2 461.99L506.42 461.73L506.63 461.6L506.84 461.55L507.15 461.53L507.44 461.66L507.58 461.86L508.48 464.17L508.55 464.78L508.47 465.05L508.37 465.24L508.15 465.43L507.87 465.48L507.69 465.44L507.5 465.35L507.43 465.27ZM501.34 537.9L501.14 537.6L500.99 537.46L500.73 537.27L499.73 536.6L499.43 536.44L498.71 536.16L498.51 535.99L498.3 535.69L498.24 535.47L500.08 534.07L500.32 533.95L500.51 533.93L500.82 534.01L501.02 534.25L501.01 534.6L500.81 535.21L500.8 535.47L500.97 535.8L501.38 536.43L501.65 536.74L501.95 536.97L502.15 537.18L502.08 537.47L501.92 537.61L501.52 537.86L501.34 537.9ZM495.24 480.89L495.2 480.66L495.19 480.28L495.24 480.03L495.5 478.96L495.59 478.76L495.69 478.57L495.88 478.33L496.03 478.21L496.21 478.11L497.01 477.73L497.35 477.74L497.51 477.87L497.57 478.08L497.38 480.01L496.95 481.08L496.76 481.25L496.59 481.36L496.31 481.41L496.12 481.39L495.39 481.22L495.25 481.08L495.24 480.89ZM506.52 486.13L506.36 486.07L506.23 485.86L506.01 485.21L505.99 484.9L506.12 484.58L506.21 484.39L506.6 483.77L506.82 483.5L508.9 482.26L509.1 482.3L509.28 482.61L509.35 482.81L509.42 483.14L509.48 484.18L509.26 484.03L509.13 483.88L508.9 483.83L508.3 483.89L508.02 484.01L507.76 484.97L507.3 485.86L506.52 486.13ZM488.39 524.51L488.45 524.15L488.41 523.91L488.28 523.75L487.67 523.52L487.41 523.47L487.12 523.44L486.87 523.37L486.7 523.12L487.24 522.54L489.01 521.56L489.26 521.68L489.69 522.26L489.87 522.65L490.13 523.49L490.06 523.81L489.85 524.17L489.72 524.33L489.53 524.51L489.12 524.74L488.14 524.93L488.39 524.51ZM504.89 484.69L504.23 483.12L503.89 482.52L503.72 482.01L503.88 481.65L504 481.49L504.52 481.05L504.72 481L505.7 481.35L505.74 482.04L505.69 483.54L505.62 483.84L505.42 484.36L504.98 484.67L504.89 484.69ZM499.74 463.32L499.48 463.28L498.6 462.72L497.72 461.33L497.7 461.04L497.85 460.8L498.01 460.69L498.86 460.41L499.14 460.54L500.76 462.86L500.75 463.07L499.85 463.3L499.74 463.32ZM499.7 474.12L498.36 473.32L498.21 473.2L498 472.99L497.74 472.63L497.68 472.42L497.78 472.14L497.97 471.95L498.26 471.84L498.49 471.81L498.74 471.8H499.38L499.66 471.89L499.85 472.06L500.09 472.37L500.26 472.68L500.8 474.03L500.65 474.19L500.41 474.29L500.13 474.35L499.77 474.24L499.7 474.12ZM504.58 457.29L504.23 457.21L503.78 457.08L503.5 456.93L503.37 456.79L503.3 456.53L503.37 455.12L504.85 455.33L505.22 455.4L505.51 455.53L505.66 455.65L505.81 455.84L505.9 456.08L505.98 456.39L506.01 456.75L505.95 457.05L505.75 457.19L504.58 457.29ZM517.09 446.82L516.67 446.73L515.57 446.18L515.4 445.91L515.32 445.53L515.36 445.21L515.6 444.69L515.78 444.45L516.72 443.94L517 443.89L517.18 443.93L517.33 444.05L517.44 444.2L517.48 444.54L517.27 446.63L517.09 446.82ZM505.12 452.81L504.87 452.79L504.7 452.71L504.15 452.23L503.91 451.9L503.45 450.19L504.32 449.23L504.53 449.28L505.42 450.35L505.92 450.99L505.1 451.29L505.05 451.6L505.06 451.85L505.12 452.81ZM510.11 448.96L509.11 447.16L508.7 446.19L508.69 445.87L508.77 445.56L508.96 445.2L509.08 445.05L509.4 445.06L510.42 446.45L510.73 447.83L510.65 448.35L510.25 448.85L510.11 448.96ZM499.04 539.13L498.75 538.42L498.04 537.12L497.97 536.91L497.95 536.68L498.2 536.41L498.43 536.42L498.8 536.59L499.86 537.2L500.57 537.69L500.82 537.89L500.94 538.13L500.92 538.37L500.73 538.55L500.45 538.7L499.68 539.09L499.32 539.24L499.14 539.21L499.04 539.13ZM500.44 472.12L499.7 471.52L499.48 471.32L499.35 471.17L499.24 470.95L499.26 470.64L499.46 469.58L499.64 469.23L500.01 469.2L500.2 469.3L501.35 470.38L500.92 472.15L500.76 472.27L500.58 472.23L500.44 472.12ZM498.58 460.11L498.04 460.08L496.27 460.09L495.62 459.76L495.63 459.5L495.71 459.3L496.28 458.7L496.49 458.57L496.77 458.52L496.97 458.53L497.33 458.6L498.4 458.84L498.63 458.96L498.74 459.92L498.58 460.11ZM498.6 510.29L498.26 509.57V508.83L498.37 508.65L499.23 508.17L499.44 508.1L499.92 508.04L500.35 508.08L500.66 508.16L500.78 508.32L500.74 508.63L500.61 509.03L500.49 509.21L498.92 510.51L498.69 510.65L498.57 510.42L498.6 510.29ZM489.78 464.66L489.64 464.65L489.43 464.51L488.96 463.12L488.9 462.92L488.87 462.7L488.91 462.44L489.06 462.17L489.37 461.74L489.7 461.65L489.91 461.79L490.68 463.08V464L490.02 464.62L489.78 464.66ZM505.69 454.84L504.21 454.05L504 453.82L503.71 452.7L503.96 452.6L506.21 453.31L506.28 454.94L506.19 455.13L505.91 455.06L505.69 454.84ZM500.59 457.76L500.47 457.73L500.31 457.59L500.1 457.32L499.99 457.1L499.98 456.86L500.07 456.67L501.07 456.2L502.49 456.08L503.25 457.15L502.53 457.35L500.59 457.76ZM504.28 538.4L504.16 538.39L503.86 538.2L502.65 537.37L501.79 536.49L501.66 536.15L501.75 535.85L502.04 535.74L502.3 535.73L502.45 535.74L502.76 535.82L504.14 536.78L504.31 536.91L504.45 537.13L504.51 537.36L504.28 538.4ZM509.65 486.96L509.51 486.95L508.13 486.56L507.78 486.29L507.67 486.03L507.69 485.75L508.37 484.41L508.57 484.26L508.73 484.21L509.36 484.82L509.77 486.84L509.65 486.96ZM509.6 462.86L509.1 462.55L508.83 462.33L508.72 461.52L508.82 461.24L510.42 460.83H510.62L510.81 460.99L510.85 461.21L510.63 462.69L510.38 462.96L510.11 463.02L509.75 462.96L509.6 462.86ZM507.12 450.18L506.03 449.97L505.54 449.82L505.34 449.67L505.21 449.52L505.12 449.35L505.06 449.1L505.59 448.55L505.96 448.25L506.27 448.19L506.42 448.25L507.03 448.68L507.66 449.48L507.56 449.85L507.47 450.04L507.31 450.12L507.12 450.18ZM504.62 463.29L504.26 463.26L502.79 462.65L502.59 462.42L502.85 462.24L503.65 462.12L504.08 462.03L504.28 461.96L504.63 461.77L504.88 461.6L505.14 461.53L505.71 461.67L505.84 461.91L505.75 462.7L505.59 462.89L505.42 462.99L504.91 463.22L504.62 463.29ZM491.04 523.42L490.92 523.41L490.36 522.94L490.24 522.77L489.9 521.54L490.05 521.4L490.38 521.39L491.54 521.64L491.68 521.72L491.94 522.04L492.26 522.58L492.34 522.83L492.18 523.12L491.62 523.34L491.04 523.42ZM494.04 459.88L493.9 459.8L493.61 459.34L493.55 459.14L493.48 458.69L493.47 458.32L493.5 457.54L493.6 457.28L493.73 457.13H493.94L494.7 457.59L494.83 457.8L494.88 458.08L494.86 458.35L494.66 459.56L494.33 459.78L494.16 459.87L494.04 459.88ZM506.35 474.86L505.34 474.56L504.96 474.43L504.88 474.24L504.96 473.97L505.16 473.82L505.8 473.59L506.09 473.55L507.54 473.58L507.72 473.68L507.76 473.97L507.73 474.34L506.73 474.84L506.57 474.87L506.35 474.86ZM507.27 452.93L505.86 452.66L505.69 452.46L505.62 451.78L507.82 451.57L508.05 451.64L508.16 452.37L508.13 452.67L507.93 452.81L507.72 452.86L507.39 452.92L507.27 452.93ZM518.85 441.01L519.47 440.58L520.18 440.44L520.72 441.01L521.08 441.15L521.32 441.17L521.11 441.37L520.21 441.45L518.85 441.01Z" fill="#C7C7C7" stroke="white"/>
<path d="M516.82 618.45L516.5 618.42L516.02 618.28L515.53 617.03L515.28 614.46L515.18 611.95L514.9 609.98L514.68 609.43L514.03 608.7L514.17 609.24L514.61 610.45L514.77 611.61L515.5 619.17L515.37 619.97L514.95 620.21L514.49 619.95L511.7 617.58L511.42 617.22L511.21 616.54L511.27 615.66L510.83 614.15L510.22 612.47L510.93 612.03L511.08 612.57L512.23 615.06L513.31 616.83L513.77 616.67L512.67 614.24L511.1 610.67L511.64 610.41L512.1 610.09L512.74 609.25L510.68 609.84L509.48 611.43L508.6 609.71L508.19 608.1L507.28 607.87L506.56 607.61L506.23 603.33L506.29 602.79L506.57 602.03L507.87 602.44L509.33 604.12L509.72 605.03L510.45 606.86L510.64 607.87L510.83 607.74L510.92 607.15L509.54 602.98L508.34 598.47L508.91 598.08L509.45 598.93L509.6 599.57L509.31 597.08L508.99 596.71L508.64 596.94L507.26 598.6L506.91 598.87L506.62 598.95L504.01 598.19L503.37 597.68L503.03 595.13L502.17 594.51L501.84 594.25L501.68 591.84L502.02 591.27L502.64 590.81L503.23 590.58L506.5 590.57L506.82 590.79L507.31 591.6L508.33 588.77L508.31 586.48L508.73 585.88L509.95 585.5H510.41L511.23 586.06L511.42 586.76L511.84 587.06L512.27 586.07L511.4 585.19L510.72 585.06L510.14 584.88L509.19 583.79L509.15 583.29L509.42 582.77L509.76 582.66L510.24 582.55L510.61 582.31L510.86 582.01L511.31 580.13L508.67 582.74L508.44 583.22L508.07 584.64L507.67 586.54L507.79 587.09L507.88 587.73L507.73 588.14L506.23 589.6L505.96 589.75L504.59 589.59L503.51 588.32L502.93 586.86L501.91 584.57L501.11 581.82L502.18 581.45L503.48 581.95L503.84 582.21L504.16 582.52L504.5 582.8L504.92 583.01L506.77 583.31L506.06 582.81L505.34 582.57L504.13 581.67L503.51 580.91L501.07 580.69L498.48 578.84L495.42 575.75L495.36 575.09L495.69 574.51L496.19 573.93L496.89 573.43L498.23 572.98L499.07 573.27L500.26 573.13L501.05 574.15L501.34 574.86L502.32 575.99L505.74 577.55L506.65 577.74L506.91 577.75L507.11 577.57L503.34 575.78L503.03 575.8L502.7 575.65L502.26 575.17L499.94 571L500.08 570.09L500.41 569.58L501.39 569.71L502.06 569.92L503.44 571.45L506.77 572.83L506.82 572.17L506.63 571.55L505.09 570.87L503.81 570.32L500.99 568.85L500.6 568.27L500.26 566.8L501.72 565.96L502.47 565.69L503.16 565.57L503.6 565.74L504.18 565.6L504.32 564.92L502.51 565.18L501.25 565.52L500.97 565.44L500.65 564.53L500.56 563.42L500.65 562.89L501.76 561.76L503.63 561.12L503.97 561.02L505.96 561.5L506.21 561.97L506.52 563.22L506.9 563.87L507.42 564.13L507.84 564.26L508.77 565.22L509.14 566.52L509.3 565.82L509.01 564.83L508.66 564L508.39 563.74L507.31 563.64L506.95 562.14L507 560.89L506.42 560.47L505.34 560.61L503.86 560.12L503.63 559.82L503.47 558.31L504.02 555.35L504.23 555.02L504.67 555.03L505.19 555.5L505.36 555.95L505.66 556.43L506.38 556.86L506.82 557L507.37 556.85L506.73 556.47L506.28 556.36L506.02 556.16L505.22 554.84L504.79 551.34L504.96 550.92L505.41 550.31L505.66 550.04L506 549.87L506.45 549.85L506.86 550.13L507.14 550.44L507.63 550.5L507.59 550.02L506.71 549.55L504.57 549.79L504.46 550.68L504.6 552.64L503.65 554.41L503.06 556.24L502.92 557.45L502.43 560.42L502.12 560.88L501.79 560.94L501.43 560.69L499.88 558.6L499.55 556.74L499.52 552.82L499.57 548.53L499.35 547.81L499.05 547.12L498.8 546.03V545.35L498.95 544.88L499.82 543.45L500.4 543.84L500.83 544L501.17 543.92L501.73 543.49L502.17 543.34L503.34 543.45L504.28 543.82L509.2 548.1L512.59 551.03L516.8 554.66L517.04 554.83L518.19 555.15L517.49 555.95L513.41 556.07L512.82 556.11L511.75 558.98L511.15 561.11L511.34 561.51L512.1 562.52L513.08 566.59L512.8 566.99L512.29 567.47L511.9 567.95L511.54 569.89L512.1 570.51L512.45 570.84L512.73 571.24L512.67 571.91L512.28 572.45L511.95 573.14L511.79 573.86L511.99 574.49L513.22 575.44L514.46 576.44L514.7 576.74L514.91 577.13L515.48 578.49L515.64 579.09L515.88 582.31L516.17 584.49L516.92 587.66L517.18 588.09L517.48 588.34L517.88 588.4L518.24 588.31L518.69 588.15L519.18 587.88L519.67 587.44L520.5 586.31L520.78 586.05L521.25 585.76L522.77 585.01H523.18L523.58 585.39L523.83 585.73L524.11 585.98L524.57 586.16L525.03 586.1L525.31 585.89L525.63 585.26L525.94 584.87L526.29 584.69L526.67 584.63L528.39 584.88L529.48 585.74L529.39 586.29L528.85 587.5L528.91 588.05L529.36 588.6L529.68 589.05L530.05 589.75L530.21 590.26L529.88 593.77L529.65 594.22L528.91 594.31L528.04 595.98L528.31 597.13L528.65 597.61L529.01 597.88L529.52 598.16L530.1 598.92L529.91 599.54L529.49 599.98L529.22 600.59L529.2 601.68L529.25 602.58L528.71 604.53L528.4 604.85L527.96 605.18L529.54 609.35L529.98 609.6L530.69 609.72L531.07 609.9L531.36 610.09L531.72 610.36L532.4 610.92L534.22 612.99L534.47 613.6V614.36L534.92 616.24L537.99 616.27L544.55 616.28H555.91L560.52 616.25H562.11L562.9 616.58L565.42 617.73L569.75 619.65L572.22 619.66L572.99 619.65L575.85 620.84L576.44 621.1L577.23 621.67L578.75 622.81L580.19 623.05L581.31 623.22L582.35 623.41L584.34 623.95L584.26 625.09L583.74 624.07L583.3 623.87L580.87 623.46L579.17 623.37L578.88 623.4L577.12 623.06L576.55 622.83L576.26 622.63L575.68 622.1L575.33 621.81L574.64 621.38L574.14 621.15L573.63 621.1L573.31 621.09L572.49 621.17L569.98 622.3L569.62 622.58L569.44 622.97L569.4 623.63L569.33 625.24L568.38 626.83L568.03 627.29L567.29 628.03L567.04 628.39L566.71 628.62L565.2 628.39L564.79 627.98L563.32 628.31L560.09 629.74L559.67 629.96L555.04 632.75L554.59 632.79L552.37 633.07L550.56 633.4L550.11 636.83L550.3 637.5L550.57 637.81L550.56 639.53L549.46 642.76L549.19 643.24L548.88 643.6L548.65 644.11L548.52 644.82L547.99 648.85L548.01 649.62L548.06 650.2L548.22 650.99L548.44 651.6L548.63 652.38L548.74 653.06L548.81 653.95L548.74 654.71L548.24 657.77L547.94 658.39L547.24 659.27L544.57 660.52L543.86 660.79L541.47 659.57L541.04 659.44L540.43 659.36L539.78 659.31H539.46L538.89 659.24L537.97 658.96L535.77 657.33L534.61 657.02L532.97 656.52L532.05 656.01L529.59 653.45L528.74 652.18L528.06 651.07L527.72 650.44L527.26 649.23L527.68 647.21L529.66 645.45L532.1 645.75L532.51 646.86L532.6 647.4L532.54 648.27L532.35 648.84L531.44 649.46L530.45 649.99L531 650.22L532.19 649.86L532.68 649.54L533.51 648.92L533.6 648.42L533.52 647.64L533.39 646.67L533.35 646.16L533.48 645.4L533.82 644.95H535.58L536 645.46L536.72 649.86L536.55 650.44L536.27 650.73L535.82 651.11L534.48 651.88L534.09 652.05L533.59 652.41L533.58 653.1L533.71 653.22L534.41 652.78L536.1 652.13L536.54 651.84L537.14 650.64L537.06 649.07L536.87 647.92L536.96 646.46L537.37 644.77L541.09 642.82L541.52 642.86L541.9 642.85L542.34 642.73L542.64 642.55L542.93 642.33L543.2 642.03L546.05 637.05L546.2 636.46L545.51 635.21L544.26 634.84L542.9 634.75L539.28 636.73L536.26 638.66L535.09 639.64L534.86 640.28L533.37 642.59L532.57 642.82L532.16 642.79L531.64 642.44L531.34 642.05L531.05 641.5L530.79 641.04L530.51 640.75L529.34 640.34L526.3 641.12L525.9 641.59L527.05 641.44L528.47 641.45L530.66 643.34L530.96 643.96L530.79 644.4L528.8 645.01L528.34 644.91L527.79 644.42L526.76 644.1L526.07 644.46L526.43 645.08L526.95 645.31L527.25 645.32L527.69 645.55L526.29 648.3L525.84 648.49L525.1 648.25L524.68 647.66L524.43 647.37L524.55 648.27L525.74 649.67L526.13 649.32L526.54 649.23L527.99 651.45L528.2 652.04L527.95 652.48L526.58 652.7L526.43 652.71L526.04 652.24L523.26 649.94L521.36 648.87L520.27 648.1L519.95 647.65L518.45 646.43L518.16 646.3L517.73 646.28L517.37 646.14L516.4 645.22L515.17 643.47L518.34 643.67L519.46 643.43L520.22 643.55L521.59 644.68L522.6 646.38L522.92 646.71L523.54 646.63L523.77 645.39L522.97 644.67L522.38 644.02L522.87 643.04L523.51 643.19H524.32L523.64 642.71L522.67 642.52L522.27 642.64L521.91 643.06L521.54 643.18L520.31 642.11L520.68 641.66L520.85 641.42L521.16 640.35L520.58 639.55L520.15 638.17L520.03 636.32L520.63 635.55L523.42 633.71L525.36 634.9L527.02 635.45L527.66 635.27L529.35 633.82L531.03 631.84L531.23 631.38L533.56 631.04L535.16 632.19L535.84 632.35L536.63 632.4L537.67 632.36L538.22 632.29L538.63 632.23L539.1 632.07L541.13 631.06L540.52 629.61L540.16 629.32L539.6 629.3L539.25 629.42L538.81 629.41L536.97 629.11L534.85 628.63L531.81 628.25L529.74 628.35L529.24 628.46L528.78 629.05L528.42 629.93L527.69 631.58L525.9 630.06L526.58 629.06L526.97 628.77L527.41 628.8L528.05 628.46L527.75 628.06L526.22 628.56L525.92 628.82L524.72 628.97L522.44 628.96L520.89 630.89L521.14 631.18L522.16 630.51L523.99 631.21L524.03 631.75L522.95 633.33L522.31 633.98L521.37 634.81L520.51 634.99L520.15 635.1L519.73 635.65L519.38 636.26L519.84 637.72L520.22 639.3L520.17 640.32L519.75 641.23L518.25 641.77L518.16 641.85L517.69 642.11L516.57 642.22L514.93 641.53L513.07 639.76L515.03 638.27L516.12 637.11L514.38 636.86L511.55 635.05L512.27 634.47L513.59 634.57L513.94 634.97L516.17 634.7L515.87 633.97L515.82 633.08L518.03 628.15L518.63 627.81L519.85 628.04L520.6 628.27L521.03 628.38L520.64 627.84L519.29 627.54L518.85 627.48L518.43 627.52L517.35 627.74L516.97 628.13L517.18 629.37L517.06 629.82L515.7 631.94L515.16 631.96L514.82 631.73L514.71 631.26L514.67 630.24L514.28 630.01L513.93 630.16L512.33 631.55L511.53 632.38L511.01 633.26L510.78 633.73L509.61 633.17L509.76 630.3L510.52 629.35L511.09 629.18L511.47 629.37L511.65 628.97L510.97 628.75L510.72 628.3L510 626.18L510.01 625.48L510.24 625.05L510.66 625.16L511.08 625.23L511.45 624L511.19 621.83L510.33 620.31L509.21 618.64L508.98 618.02L509.09 617.26L509.49 616.93L509.86 617.34L510.08 618.19L511.78 620.85L512.21 620.91L512.88 620.38L514.58 621.48L514.91 621.57L515.74 621.39L516.06 621.12L516.42 620.11L517.14 618.98L518.1 618.47L519.14 617.95L519.68 618.03L519.72 619.67L519.67 620.74L520.74 622.18L521.38 622.51L521.87 621.95L522.7 618.71L522.54 617.85L522.08 618.33L521.63 619.56L521.65 620.14L521.24 621.11L520.29 620.42L520.28 618.44L521.45 615.47L522.3 615.03L523.83 616.16L523.77 617.47L524.33 618.45L524.89 618.74L525.15 619L525.84 620.35L526.12 621.04L525.53 623.85L525.05 624.42L523.17 625.19L520.51 626.87L520.93 627.03L522.05 626.62L524.69 625.57L525.46 625.07L526.74 623.74L527.07 621.12L526.86 620.62L525.9 619.44L524.49 617.59L524.24 615.61L524.7 615.18L526.34 615.44L526.71 615.26L527.02 614.94L527.22 614.57L527.05 611.56L526.51 610.17L524.35 607.6L523.58 606.87L523.21 606.67L522.59 606.56L521.92 606.54L520.69 605.99L518.73 604.66L518.42 604.12L517.85 603.66L517.24 603.77L516.06 604.11L515.67 604.58L515.86 604.98L516.42 605.22L516.77 605.11L517.33 604.7L518.58 605.08L519.82 605.75L521.62 607.34L523.64 609.39L523.96 609.55L525.6 610.01L525.9 610.41L525.67 611.55L524.81 612.54L523.48 612.66L522.48 611.97L522.13 611.22L519.79 610.16L516.96 608.04L516.05 607.45L515.45 607.53L516.26 609.73L516.73 610.02L517.28 610.13L517.67 610.12L518.17 609.87L518.68 610.19L519.06 610.6L519.53 611.41L518.65 612.89L518.32 613.11L517.76 613.23L516.79 613.55L518.5 613.3L519.39 612.57L519.91 612.25L520.39 612.59L520.54 613.2L520.07 613.7L519.09 614.11L518.22 614.55L517.5 615.02L517.27 615.61L516.82 618.45ZM581.52 682.66L581.5 685.04L581.42 685.13L581.32 685.16L581.08 685.14L580.91 685.05L580.61 684.75L580.1 684.16L579.81 683.94L577.9 683.01L578.47 684.01L578.62 684.2L578.81 684.43L579.16 684.68L579.76 684.93L579.91 685.42L579.61 685.83L579.15 686.05L576.9 686.5L575.39 686.67L575.05 686.66L574.76 686.6L569.51 684.67L568.53 684.28L567.04 683.47L566.9 682.91L566.98 682.64L567.4 682.18L567.47 681.91L567.41 680.38L567.26 680.4L566.17 681.15L566.07 682.61L565.81 683.15L560.85 684.24L559.1 684.36L558.63 684.38L558.15 684.25L557.79 684.01L557.59 683.53L557.54 682.72L557.77 682.35L558.07 681.97L558.82 680.67L558.88 680.34L558.71 680.2L557.48 681.78L557.1 682.61L556.96 683.01L556.95 683.26L556.52 683.42L555.98 683.27L553.19 683.09L551.64 683.89L551.44 683.94L551.27 683.93L550.72 683.79L550.42 683.58L550.22 683.25L550.9 682.38L551.14 682.19L551.36 682.11L551.93 681.99L552.36 681.83L553.22 681.32L554.44 680.52L554.7 680.28L555.53 679.07L555.61 678.78L555.49 678.65L555.2 678.62L554.34 678.66L554.15 678.72L553.2 679.77L553.42 679.99L553.78 680.22L553.68 680.43L553.02 680.85L551.74 681.3L550.72 681.57L549.34 681.51L549.02 680.74L549.22 680.61L549.85 680.62L550.97 680.25L551.12 680.08L550.96 679.91L550.75 679.86L550.6 679.87L549.71 680.14L548.79 680.89L547.7 682.29L547.34 682.39L547.2 682.21L547.21 681.91L547.34 681.61L547.47 681.4L547.68 681.11L547.81 680.89L547.92 680.64L548.3 679.05L548.27 678.53L547.65 678.39L547.27 678.68L547.32 679.03L547.24 679.3L547.03 679.6L545.52 680.47L545.29 680.58L543.98 680L543.7 679.85L543.56 679.65L543.55 679.38L543.73 679.22L543.94 679.19L544.14 678.43L544.08 677.52L543.07 676.16L542.8 676.18L542.12 676.95L541.05 679.75L540.95 680.29L540.8 680.27L540.58 680.14L538.32 678.43L538.15 678.21L537.75 678.16L537.33 678.31L536.73 678.85L536.43 679.27L536.16 679.38L534.8 679.47L534.65 679.45L534.31 679.35L534.09 679.11L533.94 678.65L533.61 677.22L533.5 675.78L533.61 674.64L533.78 674.47L533.99 674.44L534.75 674.73L535.42 675.48L535.62 676L535.67 676.27L535.86 676.58L536.13 676.74L537.19 677.16L538.08 677.47L538.25 677.48L539.58 676.79L537.93 674.87L537.61 674.69L537.42 674.73L536.93 674.98L536.7 674.99L536.08 674.6L535.9 674.35L535.79 673.59L536.6 673.12L536.97 673.08L537.29 673.11L537.44 673.14L537.7 673.41L537.85 674.04L538.83 675.47L539.07 675.66L539.3 675.77L539.83 675.9L540.85 675.49L540.92 675.25L540.67 675L539.83 674.88L539.6 674.76L539.44 674.59L539.21 674.16L539.06 673.62L539.29 673.32L539.48 673.3L541.48 674.18L542.49 673.71L541.82 673.31L542.09 672.93L542.63 672.54L542.85 672.55L545.22 673.99L548.33 674.94L548.8 673.63L548.81 673.3L548.79 673L548.75 672.72L548.62 672.11L548.77 671.83L549.37 671.45L549.93 671.27L550.55 671.24L551.04 671.27L552.58 671.43L552.73 671.46L553.28 671.67L553.36 671.88L552.53 673.16L551.96 674.53L551.66 675.98L551.37 677.93L551.86 677.35L552.94 678.3L552.29 677.08L552.18 676.86L552.04 676.31L552.1 675.9L552.56 674.45L552.67 674.22L552.97 673.76L553.16 673.53L553.71 672.99L553.95 672.98L554.13 673.42L554.33 673.76L555.82 675.05L556.31 675.27L556.49 675.39L556.65 675.54L557.4 676.17L557.55 676.36L557.68 676.56L557.84 676.9L558.03 677.21L558.33 677.34L558.62 677.37L560.2 676.68L558.88 675.68L558.54 675.43L557.94 675.1L557.59 674.94L556.88 674.56L556.62 674.41L556.31 674.2L555.75 673.8L555.58 673.55L554.87 672.29L555 671.82L554.95 671.45L554.74 671.08L554.56 670.84L554.33 670.57L553.98 670.33L553.14 670.05L552.86 670L552.24 669.93L551.02 670L550.52 669.98L550.26 669.91L550.06 669.77L549.79 669.5L549.59 669.16L549.04 666.89L549.58 666.72L549.93 667.03L551 667.82L552.88 668.8L557.19 671.24L559.86 673.73L560.11 673.85L561.09 672.73L561.14 672.48L560.97 672.31L559.95 672.06L559.7 671.97L559.37 671.63L559.24 671.35L559.27 671.08L560.19 670.18L560.72 669.71L560.96 669.53L561.16 669.49L561.31 669.51L562 670L562.49 670.68L563.94 673.86L564.98 676.55L565.33 676.99L565.59 676.86L565.79 675.09L564.85 672.79L564.31 671.55L564.07 671.37L563.76 671.05L563.99 670.44L564.12 670.32L564.44 670.31L565.01 670.47L566.61 671.31L566.94 671.65L567.31 672.15L570.81 673.02L572.7 674.15L572.9 674.29L573.03 674.49L573.1 674.84L573.06 675.11L572 676.42L571.85 676.53L571.32 676.84L571.12 677.07L570.55 678.28L570.38 678.7L570.83 680.02L570.98 680.18L571.13 679.33L571.64 678.05L572.01 677.23L572.17 676.88L572.35 676.64L572.79 676.31L573.09 676.22L573.26 676.29L573.39 676.49L573.58 676.96L573.81 677.57L573.88 677.5L574.22 676.91L574.01 676.07L573.86 675.72L573.84 675.22L573.94 674.85L574.14 674.46L574.3 674.37L574.94 674.38L575.09 674.4L575.51 674.58L576.04 675.05L576.23 675.02L576.42 674.81L576.44 673.92L576.23 673.67L576.03 673.53L575.1 672.95L572.46 671.4L570.51 670.48L570.13 670.35L568.95 669.84L568.75 669.7L568.56 669.47L568.27 669L566.71 668.37L566.31 668.26L566.03 668.21L565.71 668.18L565.43 668.13L565.05 668L563.79 667.5L561.46 665.86L561.21 665.59L561.09 665.3L559.98 661.59L559.58 659.52L559.49 658.96L559.45 658.51L559.5 658.02L559.78 657.5L560.03 657.26L563.27 655.17L563.46 655.12L563.9 655.18L564.21 655.2L564.38 655.21L564.67 655.18L565.41 654.93L571.11 651.74L571.3 651.6L571.49 651.25L571.56 650.78V650.53L571.33 648.09L571.2 647.77L570.93 647.51L568.21 647.28L567.75 647.3L563.64 647.93L563.5 647.97L562.91 648.19L562.4 648.51L561.82 648.99L561.64 649.22L561.32 649.77L561.05 649.94L559.21 650.78L559 650.82L558.85 650.8L558.62 650.69L558.33 650.48L555.73 648.3L555.64 648.06L555.24 646.22L555.15 645.04L555.16 644.72L555.58 640.46L555.66 640.13L555.75 639.89L555.95 639.61L557.03 638.31L557.21 638.48L557 639.04L556.97 639.41L557.25 640.56L557.49 640.62L559.13 640.09L559.36 640L559.66 639.81L559.83 639.65L559.98 639.48L560.11 639.29L560.21 639.06L560.59 637.71L560.63 637.42L560.6 637.04L560.46 636.79L558.98 636.53L558.31 635.46L558.29 635.17L558.16 634.83L557.9 634.54L557.56 634.38L557.13 634.31H556.97L556.69 634.35L556.3 634.43L556.1 634.38L556.02 634.17L556.35 633.69L556.75 633.45L559.36 632.97L559.63 632.93L559.98 633L560.34 633.21L560.49 633.37L560.68 633.66L560.89 634.17L561.37 634.89L561.59 635.16L561.94 635.46L562.29 635.6L562.58 635.64L562.87 635.61L563.21 635.47L565.68 634L565.98 633.73L566.24 633.35L567.53 631.15L567.66 630.71L567.68 630.4L567.6 628.52L567.9 628.17L568.21 627.92L569.82 627.06L570.32 626.9L571.12 627.94L571.25 628.13L571.34 628.36L571.4 628.62L571.43 628.91L571.55 629.19L573.13 631.36L573.29 631.52L573.72 631.9L574.1 632.16L574.49 632.26L574.72 632.25L575.11 632.08L576.72 631.28L578.57 630.06L578.75 629.92L578.95 629.63L580.61 630.3L581.71 631.15L581.7 631.36L581.67 634.74L581.62 646.1L581.63 647.57L581.61 651.66L581.57 659.57L581.54 663.37L581.5 671.53L581.52 672.03L581.5 676.69L581.52 682.66ZM494.37 572.41L494.2 572.37L493.13 571.77L492.85 571.41L493.25 570.64L493.69 570.23L494.59 569.63L494.96 569.47L495.27 569.68L495.76 570.02L495.08 569.1L494.7 569.02L494.29 569.2L493.12 570.16L492.63 570.26L492.27 569.63L492.36 568.59L492.64 566.53L492.14 564.28L492.64 561.02L493.23 560.4L494.07 559.72L495.9 557.17L495.34 557.37L494.47 558.53L492.89 560.39L491.75 561.15L491.53 560.7L491.42 559.81L490.92 560.45L490.87 561.05L490.89 562.17L490.92 563.01L491.16 563.57L491.52 564.07L491.21 566.97L490.77 568.96L490.29 568.85L488.97 567.85L487.94 565.77L486.79 563.11L487.13 561.82L486.85 560.28L486.36 559.39L485.76 558.77L485.27 559L484.83 559.26L484.48 558.09L484.41 557.42L484.39 556.2L484.93 555.51L485.25 555.39L485.56 555.46L486.31 556.8L486.48 557.39L486.99 558.46L488.13 559.94L488.54 560.23L488.66 560.27L488.68 560.09L488.15 559.15L487.64 558.44L487.38 558.1L487.08 557.62L486.47 556.17L486.52 555.13L487.19 554.96L487.5 555.33L488.27 556.61L488.71 556.76L489.92 555.11L490.07 554.69L489.74 553.79L490.22 554.15L491.36 555.55L492.19 556.65L492.6 555.65L493.48 551.44L492.59 550.38L492.07 549.83L491.75 549.61L491.46 549.13L490.69 547.4L490.16 545.92L490.33 544.97L491.36 544.19L493.31 542.83L494.71 542.47L497.56 543.15L497.81 544.03L498.16 547.24L498.5 548.19L498.56 548.64L498.45 551.35L498.9 553.69L498.97 554.16L498.96 556.01L498.58 558.66L498.31 559.66L497.97 560.25L497.84 561.09L498.17 562.07L497.46 562.85L496.76 564.36L496.8 565L497.74 564.04L497.68 563.61L497.72 563.15L498.61 562.96L498.96 563.37L499.29 564.07L499.37 565.45L498.64 569.7L498.45 570.05L497.55 571.15L496.33 572.24L495.88 572.37L494.37 572.41ZM582.51 695.68L582.2 695.64L581.87 695.54L581.58 695.14L581.31 694.47L580.96 694.14L580.54 694.15L580.04 694.55L582.03 696.69L582.82 696.46L583.24 696.19L583.59 696.03L584.03 695.96L584.73 696.09L585.69 696.51L588.26 697.77L588.52 698.28L588.41 698.98L588.18 699.49L588.78 699.68L589.63 699.57L589.04 700.89L589.92 702.37L590.35 702.55L591.04 702.64L590.87 704.65L589.82 705.67L589.64 705.82L589.57 705.85L589.18 705.76L588.99 705.39L588.52 704.65L587.4 703.36L586.84 702.12L587.01 701.19L585.45 699.87L585.17 699.78L584.69 700.38L583.87 700.44L582.91 699.57L581.93 699.51L580.21 699.53L579.64 700.24L578.86 700.58L578.5 700.57L577.87 700.08L577.23 699.32L576.82 698.5L577.29 697.79L578.24 697.5L578.61 697.44L578.96 697.59L579.44 697.48L579.64 696.22L577.82 696.87L577.61 696.39L577.88 694.97L578.31 693.71L578.89 693.08L579.03 692.61L576.79 694.35L575.9 694.57L574.29 694.07L573.93 693.85L573.54 693.47L573.22 692.93L572.82 691.29L570.98 691.63L570.6 691.76L570.28 691.99L571.18 691.91L572.16 692.02L572.56 693.51L571.05 694.08L570.83 695.11L572.05 697L572.09 698.53L573.34 698.82L574.33 698.89L574.21 700.37L573.96 700.63L571.75 700.06L570.28 700.34L569.35 698.16L569.73 697.29L570.48 697.11L570.74 696.87L569.73 696.31L569.34 696.28L568.2 697.28L567.65 696.21L566.36 695.62L566.44 694.85L566.87 694.01L567.97 693.14L568.36 693.02L568.83 692.81L569.17 692.32H568.59L567.96 692.71L566.66 693.71L564.53 694.33L564.17 694.35L563.29 693.5L564.07 693.36L564.37 693.11L563.5 692.17L561.92 692.09L561.68 691.83L561.99 691.12L563.11 689.85L563.62 689.6L565.08 689.26L567.21 689.02L571.19 688.27L573.6 687.64L576.48 687.39L578.75 687.48L579.08 687.41L580.08 686.63L581.22 686.42L583.31 686.2L584.82 686.8L585.71 688.01L585.94 688.99L585.77 689.64L582.51 691.15L582.26 691.53L581.42 691.75L579.67 691.27L578.94 690.8L578.43 690.28L577.98 689.88L577.69 689.66L576.09 688.54H575.79L575.52 689.14L576.88 690.67L577.88 691.29L579.55 692.27L582.1 692.38L584.24 692.42L585.18 692.49L586.65 693.47L587.63 694.56L587.55 695.04L583.32 695.67L582.51 695.68ZM515.05 659.32L515.75 658.83L515.89 656.52L514.01 656.63L513.4 657.08L512.88 657.33L512.46 657.46L511.23 657.49L511.88 656.96L512.29 656.72L512.56 656.4L512.43 655.43L512.01 655.4L511.44 655.46L511 655.4L510.69 655.09L510.71 654.13L510.9 653.64L511.15 653.4L511.76 653.3L512.13 653.6L512.42 653.63L512.75 653.39L513.2 652.95L513.49 652.98L514.58 653.57L514.85 653.95L515.03 654.41L515.39 655.02L515.8 655.28L517.04 655.67L517.45 655.7L518.77 655.66L520.06 655.44L520.04 654.81L519.61 654.82L519.31 655.1L518.34 655.18L517.4 655.07L516.94 655L515.92 654.73L515.47 654.42L513.72 651.59L513.4 650.67L514.02 650.6L514.52 650.78L515.31 651.18L517.93 651.69L517.55 650.47L516.94 649.58L518.32 649.12L519.39 649.24L520.65 649.76L521.19 652.36L520.96 653.44L520.7 654.36L521.15 655.71L522 653.2L522.12 652.45L521.73 651.56L521.39 650.65L522.43 651.03L523.17 651.96L524.04 653.96L525.26 652.98L526.71 653.19L527.36 653.61L527.91 654.56L527.85 655.23L527.42 655.18L527.01 655.33L526.75 655.82L527.35 657.42L527.83 656.72L528.35 656.08L529.92 656.72L530.25 656.98L531.61 658.75L531.11 659.1L530.86 659.17L530.59 660.16L530.12 660.47L529.76 660.43L528.63 660.18L527.71 660.97L527.73 662.69L528 662.92L528.58 663.19L529.04 663.33L528.98 664.45L527.52 664.6L526.02 665.9H525.66L525.35 665.76L524.76 665.03L523.55 665.67L521.93 666.73L521.2 666.72L519.49 665.86L519.06 665.38L519.35 664.97L520.97 664.94L522.61 663.85L523.31 659.71L522.26 659.15L521.87 659.4L520.95 660.21L520.5 660.41L519.25 660.33L519.16 659.78L519.11 659.15L518.59 658.93L517.99 661.44L517.97 662.03L517.54 663.7L516.25 663.11L515.75 661.86L515.26 660.51L514.95 659.56L515.05 659.32ZM589.62 685.59L590.99 685.6L592.45 685.77L593.69 685.89L595.66 685.98L596.56 685.89L596.88 685.87L598.68 685.86L599.29 685.92L600.26 686.15L600.79 686.3L601.27 686.5L601.61 686.67L602.16 686.97L602.42 687.22L604.01 689.67L604.04 691.26L603.67 692.34L603.48 692.74L603.35 692.95L601.48 695.44L601.34 695.55L600.72 695.63H600.55L599.11 695.19L598.87 695.09L598.56 694.89L598.37 694.65L598.28 694.4L598.32 693.99L598.61 693.63L598.77 693.37L598.81 693.1L598.71 692.87L598.42 692.56L598.13 692.34L597.76 692.21L597.34 692.11L597.05 692.1L596.78 692.17L596.3 692.38L596.13 692.55L596 692.76L595.85 693.12L595.71 693.74L595.75 694.36L595.59 694.54L595.37 694.58L593.33 694.43L593.08 694.34L592.32 693.88L592.53 693.61H592.72L592.7 693.17L592.27 692.4L592 692.5L590.13 693.51L589.67 693.79L589.57 693.8L589.26 693.76L589.02 693.66L588.81 693.52L588.55 693.26L588.45 693.02L587.89 690.36L587.98 689.94L587.66 687.59L587.38 687.66L586.08 687.73L585.65 687.19L585.46 686.33L585.69 686.01L585.85 685.92L587.74 685.6L589.62 685.59ZM514.21 645.96L515.16 645.78L515.33 645.84L516.37 646.54L517.98 647.68L518.14 647.95L517.99 648.29L517.78 648.41L517.63 648.42L516.01 648.32L512.47 647.38L512.34 646.73L512.25 646.45L511.27 646L510.86 645.13L509.22 643.56L508.99 643.62L507.61 642.25L506.73 641.11L505.53 641.38L504.93 641.7L504.25 642.13L500.91 642L500.58 641.8L500.23 640.41L499.18 639.1L498.9 639.09L498.01 638.86L496.86 637.95L496.74 637.68L496.86 637.27L497.13 636.14L496.74 635.51L496.6 635.41L496.24 635.33L495.57 635L495.37 634.87L494.64 633.89L495.24 632.98L495.42 632.96L496.08 633.41L498.13 635.42L498.93 636.37L499.48 637.66L500.1 638.37L501.68 638.73L501.86 638.41L502.44 638.25L503.4 638.07L504.89 638.65L506.71 639.72L507.6 640.5L508.19 640.87L509.26 641.41L510.15 641.44L510.17 640.99L510.85 641.16L511.45 641.96L511.55 642.15L511.8 643.16L511.66 643.44L511.44 643.72L511.31 644.04L511.83 645.46L511.98 645.71L512.2 645.83L512.74 644.85L512.59 644.41L512.45 643.88L512.31 643.06L512.49 642.81L512.7 642.79L512.96 642.87L513.37 643.05L514.93 645L514.99 645.27L514.21 645.96ZM543.89 663.77L544.23 665.28L545.38 665.53L546.65 664.97L547.62 665.65L547.75 665.93L548.01 667.77L548.07 669.99L546.35 672.65L546.18 672.81L545.92 672.79L545.67 672.54L545.13 671.83L544.32 671.64L542.98 671.02L541.62 668.47L541.55 668.06L541.66 667.66L541.83 667.5L542.28 667.46L542.49 667.34L542.59 667.15L542.04 666.25L540.87 667.22L540.33 668.82L540.25 669.08L540.21 669.62L538.77 669.29L538.52 669.12L538.22 668.36L538.07 667.85L537.96 667.39L538.02 667.06L538.86 666.04L538.5 663.24L538.67 662.7L538.97 662.33L539.2 662.15L539.8 662.03L541.23 662.06L542.55 662.64L543.64 663.24L543.77 663.36L543.89 663.77ZM554.66 668.98L554.53 668.94L553.33 668.45L552.75 668.18L552.21 667.88L552.03 667.73L550.74 666.52L550.47 666.21L549.63 664.65L549.36 662.22L549.34 661.92L549.36 660.56L549.47 660.33L550.24 659.76L550.95 659.49L551.18 659.53L552.41 659.95L552.72 660.23L552.9 660.3L553.05 660.32L553.31 660.17L553.5 659.85L553.51 659.55L553.37 659.2L553.12 658.88L552.93 658.74L552.31 658.44L552.18 658.24L552.1 657.92L552.04 656.35L552.12 656.01L552.55 655.88L552.75 655.75L552.94 655.61L553.19 655.37L553.51 655.02L553.71 654.73L553.82 654.5L553.94 654.11L554.05 653.63L554.16 653.32L554.28 653.11L554.5 652.92L555.16 652.81L555.38 653.04L555.31 654.81L555.25 655.08L555.17 655.35L555.13 655.64L555.11 656.13L555.12 656.44L555.16 656.73L555.86 660.07L556.68 662.17L557.2 663.61L557.15 663.98L556.86 664.31L556.56 664.41L556.03 664.44L555.88 664.42L555.61 664.35L555.38 664.24L554.99 663.96L554.55 663.56L554.17 662.95L553.99 662.72L552.65 661.39L552.56 661.65V661.96L552.73 662.76L552.82 663L552.93 663.21L553.22 663.59L553.47 663.84L553.61 664.03L553.89 664.49L554.5 666.48L554.6 666.87L554.83 668.69L554.66 668.98ZM538.35 662.09L537.64 662.83L537.79 663.1L538.1 663.42L538.61 665.41L538.56 665.8L537.73 667.03L537.47 667.36L537.27 667.41L537.12 667.39L536.59 667.23L536.38 667.1L536.2 666.94L535.98 666.66L534.78 664.74L534.75 664.36L534.81 663.84L534.69 663.63L534.47 663.64L534.31 663.99L534.29 664.31L534.36 664.64L534.85 666.34L535.37 666.99L535.57 667.11L535.91 667.3L537.3 669.06L537.31 669.43L537.18 669.72L536.05 671.57L535.9 671.67L535.69 671.66L534.48 671.38L534.22 670.88L534.41 669.57L532.17 667.3L530.88 665.9L530.69 665.67L530.55 665.4L530.46 665.16L530.05 662.6L529.99 662.06L530.06 661.67L530.66 661.55L530.81 661.54L530.96 661.57L531.83 661.94L532.03 662.16L532.2 662.64L532.8 662.63L533.54 660.86L533.77 660.19L534.14 659.99L534.43 659.87L537.57 661.03L538.54 661.53L538.48 661.92L538.35 662.09ZM490.21 577.81L489.91 578.28L488.17 580.62L487.99 580.83L487.67 580.95L486.63 580.87L486.48 580.81L486.42 580.6V580.27L486.58 579.91L487.08 579.59L487.48 579.09L488.11 578.17L487.91 577.98L486.95 578.25L486.25 578.71L484.8 579.34H484.61L484.46 579.19L484.47 578.83L484.66 577.28L485.01 576.05L485.39 574.97L485.5 574.68L485.67 574.46L485.86 574.36L486.12 574.34L486.36 574.43L487.31 574.83L487.37 575.05L487.22 575.29L487.08 575.38L486.68 575.46H486.11L486.02 575.64L486.23 576.03L486.44 576.21L487.04 576.53L488.18 576.81L488.94 576.69L488.89 575.6L488.73 574.92L487.75 574.61L486.68 573.92L485.55 572.96L485.3 572.16L486.46 571.24L486.7 571.21L488.95 571.77L489.12 571.91L490.99 574.19L490.29 574.88L490.08 575.13L489.97 575.36L490.58 575.39L492.92 574.82L493.17 574.26L493.03 574L493.63 573.73L493.84 573.98L493.98 574.46L493.94 575.21L493.69 575.91L490.96 577.52L490.76 577.63L490.21 577.81ZM494.97 596.01L492.63 594.89L491.56 592.95L491.5 592.71V592.35L491.56 592L491.94 591L492.11 590.87L492.93 590.94L494.59 591.38L495.38 591.7L496.45 591.11L496.53 589.34L496.49 588.9L496.35 588.58L495.97 588.18L495.8 588.1L495.56 587.95L495.47 587.74L495.54 587.5L495.85 587.31L496.36 587.43L497.34 587.89L498.23 588.49L499.37 589.64L499.49 589.93L499.55 590.31L499.91 593.99L499.62 595.29L499.47 595.46L499.29 595.37L499.23 594.92L499.01 594.11L498.61 593.5L498.39 593.41L498.23 593.46L496.61 594.44L496.33 595.38L496.22 595.57L495.05 595.98L494.97 596.01ZM557.13 685.38L557.53 685.43L557.67 685.58L555.82 686.44L555.21 686.5L554.93 686.74L554.89 687.14L554.94 687.56L554.81 687.79L553.24 688.04L552.75 688L552.37 687.87L552.05 687.67L551.88 687.77L551.71 688.19L552.84 688.67L555.15 688.97L556.97 688.67L557.19 688.65L557.93 688.62L558.07 688.7L558.16 689.19L558.37 690.69L557.95 691.1L557.57 691.14L557.38 691.07L557.21 690.91L557.08 690.53L556.72 690.13L556.43 690.07L556.28 690.01L555.8 690.4L555.75 690.97L555.88 691.18L556.26 691.39L556.57 691.44L556.73 691.54L556.82 691.78L556.67 692.13L554.57 693.1L554.31 693.07L554.17 692.87L554.09 692.53L554.05 692.07V691.44L554.3 690.89L553.49 689.93L552.17 691.04L551.86 690.97L548.78 689.8L547.77 688.97L547.66 687.03L547.85 686.79L548.06 686.66L549.63 686.32L550.8 686.59L551.4 686.78L552.06 687.11L553.83 687.17L554.08 687.03L553.3 686.69L553.4 686.44L554.84 685.61L555.03 685.55L555.9 685.51L557.13 685.38ZM502.24 590.15L501.86 589.11L501.69 588.9L501.38 588.67L500.74 589.01L500.67 589.25L499.44 588.78L498.03 587.65L497.89 587.48L497.21 585.96L497.1 585.63L497.03 585.19L497.09 584.93L498.16 583.89L499.16 582.86L498.09 582.41L497.94 582.4L497.44 582.58H497.23L495.72 581.8L496.57 581.02L496.75 580.88L497.21 580.58L497.47 580.47L497.66 580.5L500.04 582.08L501.31 585L501.84 586.26L502.63 588.31L502.7 588.76L502.67 589.29L502.5 590.02L502.36 590.12L502.24 590.15ZM563.45 688.95L563.56 688.24L563.54 687.94L563.29 687.39L562.87 687.25L562.79 686.88L563.11 685.33L563.25 685.22L564.1 684.91L564.24 684.88L565.81 684.61L566.57 684.64L570.59 685.5L571 685.6L573.4 686.37L573.94 686.88L573.69 687.05L573.23 687.09L570.57 687.76L569.18 688.18L567.08 688.56L565.51 688.83L563.45 688.95ZM506.4 633.17L506.27 633.16L506.07 633.03L504.22 630.86L504.1 630.59L504.11 630.36L504.42 629.5L504.56 629.32L505.38 628.36L507.65 626.21L508.53 625.63L508.73 625.6L508.93 625.66L509.11 625.81L509.26 626.07L509.87 627.36L509.05 630.27L508.26 632L508.15 632.22L507.95 632.51L507.7 632.63L507.46 632.55L507.31 632.57L506.83 632.86L506.4 633.17ZM491.15 604.28L491.02 604.27L490.7 604.05L490.78 603.46L491.78 602.67L492.52 602.34L492.82 602.18L493.87 601.02L493.99 600.74L493.84 600.7L492.31 601.56L492.01 601.8L491.72 601.7L491.56 601.44L491.5 601.13L491.55 600.86L491.67 600.65L493.94 598.21L495.05 597.89L496.5 597.83L497.14 598.59L497.25 598.79L497.61 599.8L497.5 601.68L497.32 601.99L496.73 602.67L496.59 602.76H496.26L496.08 602.62L495.58 600.95L495 601.26L494.7 601.94L494.08 603.27L493.88 603.38L493.27 603.51L492.73 603.55L491.95 603.65L491.7 603.79L491.15 604.28ZM486.33 588.82L484.95 588.44L484.66 588.32L484.51 588.15L483.68 585.84L483.8 585.56L484.45 584.89L484.91 584.6L485.11 584.58L485.32 584.62L485.68 584.87L485.76 584.23L485.32 583.17L484.91 582.82L484.42 582.47L484.45 582.16L485.13 581.54L485.45 581.5L488.35 582.14L489.58 582.21L489.72 582.36L489.63 582.66L488.21 584.54L487.98 584.6L487.82 584.58L487.56 584.51L487.34 584.41L487.09 584.19L487.05 584.82L487.11 586.27L487.17 587.92L486.94 588.63L486.69 588.8L486.46 588.88L486.33 588.82ZM488.44 569.08L488.2 568.66L487.38 567.66L487.04 567.54L487.16 568.21L487.27 568.61L487.28 568.84L487.09 568.94L486.75 568.81L486.3 568.35L486.03 568.02L485.66 567.28L485.65 567.01L485.71 566.74L484.9 566.11L483.31 567.63L483.03 567.52L482.64 566.63L482.57 566.41L482.41 563.73L482.99 562.96L485.54 562.72L485.71 562.77L485.88 562.91L486.09 563.16L486.61 563.91L488.18 567.13L488.25 567.35L488.54 568.94L488.44 569.08ZM491.43 619L491.18 618.53L490.14 615.6L491.38 612.25L491.62 611.92L492.05 612.39L492.1 612.63L491.93 612.95L491.96 613.2L492.31 613.27L492.78 613.2L493.08 613.1L493.41 612.7L492.98 609.94L492.56 608.8L492.18 608.61L491.98 608.42L491.95 608.17L492.11 607.92L492.38 607.72L492.58 607.62L492.87 607.55L493.77 607.89L494 608.2L494.06 608.44L494.27 610.47L494.34 611.22L494.12 612.18L493.41 614.99L492.66 617.33L491.95 618.59L491.74 618.86L491.57 619H491.43ZM487.33 551.11L486.54 548.66L486.41 548.35L484.99 549.06L484.53 549.95L484.41 550.13L484.2 550.3L483.89 550.34L481.9 548.78L481.8 548.59L481.72 548.39L481.67 548.02V547.76L481.7 547.46L481.75 547.2L482 546.51L482.16 546.29L483.26 545.92L485.76 546.09L485.99 546.17L486.53 546.4L486.7 546.54L487 546.97L488.13 550.07V550.34L487.59 550.93L487.43 551.06L487.33 551.11ZM491.68 555.37L490.35 553.79L488.25 553.08L487.61 552.64L487.64 552.28L487.77 551.99L488.16 551.29L488.35 551.02L489.28 549.84L491.34 549.97L491.72 550.27L492.5 551.15L492.56 551.92L492.55 552.2L492.04 555.79L491.84 555.63L491.68 555.37ZM486.58 607.88L486.47 607.54L486.51 605.76L487.1 605.12L487.71 604.15L487.84 603.01L487.88 601.41L487.86 601.03L487.89 600.71L487.96 600.45L488.07 600.24L488.73 599.64L488.96 599.48L489.14 599.47L490.93 601.06L491.05 601.75L491 602.41L490.93 602.67L490.71 602.84H490.52L490.31 602.65L490.05 602.6L489.91 602.7L489.03 604.7L489.09 605.09L489.11 605.5L489.08 605.87L488.98 606.19L488.81 606.59L486.89 607.82L486.73 607.88H486.58ZM503.16 625.37L502.52 624.87L501.99 623.84L501.89 622.02L501.99 621.79L502.21 621.62L502.37 621.55L502.67 621.59L503.01 621.76L503.17 621.92L503.53 622.13L503.7 622.07L503.13 620.82L502.98 620.65L502.62 620.37L501.38 619.95L500.57 620.07L500.34 620.15L500.01 620.12L499.73 619.99L499.33 619.66L499.3 619.36L500.26 618.45L500.51 618.31L500.79 618.21L500.94 618.2L501.15 618.32L501.33 618.46L502.45 619.43L503.39 620.4L503.98 621.09L506.14 623.75L506.13 624.07L505.53 624.52L503.73 625.46L503.27 625.48L503.16 625.37ZM483.68 555.24L483.55 555.22L481.96 554.35L481.74 554.19L481.66 553.98L482.44 552.43L483.2 551.91L483.4 551.86L483.67 551.99L484.39 551.31L484.79 550.22L485.46 549.35L485.71 549.15L485.96 549.04L486.13 549.1L486.34 549.61L486.88 551.15L486.94 551.45L486.66 552.03L486.42 552.4L486.29 552.56L484.26 554.77L483.68 555.24ZM495.28 591.03L494.14 590.93L493.57 590.76L492.07 590.23L491.89 589.95L491.53 588.39L491.6 587.63L491.68 587.38L492.54 586.27L493.53 585.92L493.74 585.99L494.62 586.83L495.79 589.43L495.82 589.69L495.67 590.53L495.47 590.98L495.28 591.03ZM502.9 615.19L501.93 615.01L499.9 613.77L499.14 612.8L498.07 609.67L499.91 610.29L502.78 612.64L503.94 613.44L503.92 613.69L503.32 614.97L503.17 615.14L502.9 615.19ZM547.03 686.78L546.79 686.76L545.75 686.26L544.96 685.58L543.26 686.66L543.04 686.77L542.09 686.5L541.42 685.01L542.17 683.61L542.85 683.67L545.04 684.14L545.96 684.43L546.35 684.72L546.83 684.93L547.18 684.86L547.49 684.67L547.71 684.38L547.88 684.34L548.62 684.89L549.06 686.06L548.77 686.19L548.3 686.2L547.03 686.78ZM509.14 621.46L509.06 621.26L508.67 620.54L508.02 619.54L507.04 618.5L506.77 618.29L505.91 617.69L504.08 616.59L503.88 616.46L503.63 616.24L503.61 615.43L503.87 614.5L504.37 614.12L504.55 614.16L504.82 614.37L507.23 616.58L507.97 617.29L508.48 617.81L508.61 618.07L509.34 619.74L509.65 621L509.66 621.37L509.58 621.79L509.36 621.78L509.14 621.46ZM504.9 611.72L504.58 611.63L504.37 611.52L502.39 610.05L502.09 609.79L501.86 609.48L501.84 609.06L501.95 608.85L502.61 608.71L503.23 608.72L503.97 607.45L503.74 606.07L503.83 605.84L503.96 605.74L504.17 605.78L504.4 605.99L506.29 610.78L506.28 611.14L506.08 611.38L505.9 611.51L505.54 611.7L505.24 611.78L505.09 611.79L504.9 611.72ZM599.97 707.65L599.99 706.88L599.86 706.75L599.1 706.55L598.25 706.77L596.93 706.3L596.87 705.66L597.06 704.44L598.68 702.65L599.51 702.22L599.76 702.21L600.97 705.89L601.2 706.89L601.13 707.17L600.81 707.45L600.5 707.57L599.97 707.65ZM492.84 619.54L492.75 619.5L492.46 618.95L493.92 613.99L494.03 613.68L494.33 612.99L494.49 612.65L494.65 612.41L494.83 612.39L496.68 612.65L496.62 613L494.28 618.18L494.13 618.36L492.94 619.46L492.84 619.54ZM529.48 665.35L530.27 666.08L530.7 666.96L530.08 668.3L529.37 669.58L529.08 669.69L527.55 669.78L527.01 669.7L526.7 669.5L526.54 669.32L526.4 668.34L528.17 665.64L528.46 665.35L528.95 665.1L529.32 665.13L529.45 665.24L529.48 665.35ZM507.49 625.39L506.9 624.64L506.43 623.29L505.21 622.25L504.11 620.82L504 620.62L503.88 620.12L504.09 619.81L504.54 619.55L504.7 619.56L505.37 620.01L505.96 620.96L507.93 622.05L508.22 622.39L508.39 622.69L508.45 622.94L508.81 624.52L508.75 624.89L508.56 625.14L507.95 625.48L507.6 625.47L507.49 625.39ZM513.33 648.99L513.64 649.13L513.82 649.43L512.81 650.8L513.72 652.09L513.82 652.45L512.48 653.2L512.19 653.09L510.28 651.95L508.53 650.62L508.31 650.28L508.06 649.81L508.11 649.56L508.35 649.57L508.86 650.13L509.33 650.49L509.63 650.7L509.87 650.8L510.02 650.83L510.61 650.88L511.82 650.42L511.8 650.17L511.67 650.05L511.23 649.82L511.43 648.91L513.06 648.95L513.22 648.96L513.33 648.99ZM488.06 549.23L487.78 548.63L486.6 545.03L487.06 545L487.77 545.23L487.98 545.33L488.38 545.54L488.86 545.84L489.34 546.2L489.51 546.39L489.63 546.56L489.83 546.94L489.9 547.16L490.16 548.25L490.12 548.5L490 548.69L488.55 549.31L488.3 549.32L488.06 549.23ZM499.13 598.15L497.23 597.24L497.03 597.05L496.61 595.82L496.67 595.18L498.18 594.07L498.42 594.04L498.58 594.12L498.75 594.41L499.63 596.24L499.71 596.46L499.75 596.72V597.35L499.41 598.14L499.23 598.18L499.13 598.15ZM501.21 598.42L500.62 595.41L500.42 594.14L500.27 592.01L500.37 591.79L500.74 591.77L501.02 592.37L501.87 595.12L502.37 597.15L502.48 597.98L501.67 598.99L501.47 599.1L501.27 599.08L501.16 598.88L501.19 598.5L501.21 598.42ZM558.11 670.12H557.94L557.64 670.07L555.73 669.28L555.46 669.13L554.9 668.28L554.79 668.06L554.76 667.76L554.85 667.33L554.98 667.04L555.17 666.99L555.45 667.05L557.95 668.05L558.78 668.58L559.03 668.98L558.99 669.36L558.82 669.65L558.46 670.04L558.27 670.1L558.11 670.12ZM515.57 666.72L514.69 666.24L512.94 665.43L512.79 665.18L513.91 664.15L514.44 664.13L514.91 664.16L515.88 664.29L516.06 664.37L516.85 664.81L516.92 665.06L517.16 666.25L516.95 666.5L516.7 666.56L515.57 666.72ZM606.64 693.65L606.92 693.95L607.24 695.19L607.02 695.78L606.57 696.14L606.3 696.22L604.76 696.14L604.05 696.08L603.91 695.96L603.76 694.73L604.17 694.07L604.49 693.88L605.6 693.44L606 693.4L606.27 693.46L606.51 693.56L606.64 693.65ZM517.83 617.47L517.77 616.99L517.85 616.56L517.95 616.25L518.05 616.02L518.65 614.74L518.78 614.64L519.92 614.06L521.05 613.64L520.98 614.38L519.6 617.27L519.21 617.43L518.41 617.71L518.11 617.76L517.96 617.67L517.83 617.47ZM504.11 602.03L503.94 601.91L503.77 601.68L503.52 600.15L503.53 599.92L503.69 598.83L503.8 598.62L503.96 598.54L504.23 598.51L505.27 598.68L505.63 598.92L505.72 599.24L505.9 600.4L505.86 600.92L504.51 602.07L504.11 602.03ZM489.16 545.77L489.06 545.72L487.52 544.72L487.48 544.39L488.34 543.26L489.84 541.54L490.03 541.5L490.13 541.76L490.18 541.99L490.24 542.35L490.23 542.63L490.2 542.93L489.83 544.5L489.48 545.48L489.33 545.72L489.16 545.77ZM494.44 582.28L494.13 582.18L494.03 582.01L494.47 579.87L495.27 579.26L495.43 579.2L495.69 579.21L496.55 579.31L497.44 579.6L497.48 579.83L497.28 580.18L496.09 581.22L494.92 582.19L494.71 582.28H494.44ZM499.12 562.71L498.98 561.86L498.82 559.88L498.92 559.01L498.99 558.67L499.16 558.6L500.01 559.35L500.37 559.69L500.51 559.92L501.14 561.28L501.07 561.48L499.31 563.01L499.12 562.71ZM489.45 613.97L489.33 613.85L489.26 613.62L489.64 611.46L489.9 610.55L489.99 610.31L490.21 610.04L490.52 609.8L490.8 609.7L491.16 609.77L491.46 610.07L491.51 610.43L491.38 611.29L491.13 612.22L490.91 612.91L490.77 613.18L490.61 613.35L489.98 613.9L489.65 614.02L489.45 613.97ZM503.3 603.71L502.44 603.22L501.87 602.81L501.7 602.6L501.5 601.39L501.46 600.7L501.52 600.28L502.62 599.89L502.81 600.01L503.56 602.06L503.64 602.29L503.67 603.5L503.59 603.75L503.41 603.79L503.3 603.71ZM610.74 694.97L610.08 694.8L609.94 694.6L609.86 694.17L609.85 693.92L610.09 692.9L611.33 692L611.66 691.98L611.88 692.01L612.86 692.47L613.03 692.91L611.74 694.56L610.89 694.97H610.74ZM555.49 683.93L555.84 684.03L556.12 684.17L556.46 684.64L556.31 684.91L556.13 684.97L553.51 685.51H552.45L551.71 685.07L551.51 684.72L551.71 684.52L552.19 684.24L553.72 683.8L554.78 683.68L555.41 683.9L555.49 683.93ZM490.07 588.96L489.89 588.76L489.78 588.56L489.44 587.56L489.41 587.15L489.88 585.79L490.07 585.68L491.15 585.72L491.27 585.9L491.31 586.22L491.2 589.18L491.03 589.31L490.57 589.26L490.07 588.96ZM527.08 673.88L526.91 673.8L526.2 672.84L525.98 671.82L527.57 670.91L527.88 670.94L529.41 671.57L529.48 671.83L529.34 672.34L528.35 672.79L528.18 672.78L527.08 673.88ZM494.92 617.78L495.05 617.27L495.14 617.02L495.3 616.78L497.49 614.57L497.99 614.88L498.27 615.24L498.26 615.92L498.1 616.38L497.28 616.94L495.59 617.99L494.97 618.3L494.82 618.17L494.92 617.78ZM557.08 667.22L556.93 667.2L555.67 666.28L555.27 665.85L555.08 665.55L555.01 665.21L555.11 664.97L555.25 664.86L557.66 664.4L557.79 664.61L557.95 665.07L558.03 665.56L557.7 666.51L557.49 666.97L557.32 667.13L557.08 667.22ZM507.47 653.63L507.31 653.54L507.01 652.37L507.17 650.5L507.31 650.3L507.5 650.33L509.34 651.62L509.64 651.89L509.61 652.2L509.49 652.42L508.05 653.4L507.84 653.51L507.61 653.59L507.47 653.63ZM513.59 638.5L513.18 638.55L512.99 638.52L512.51 638.02L512.4 637.81L512.55 637.5L512.79 637.47L512.93 637.39L512.43 637.06L511.87 636.86L510.72 636.76L510.46 636.8L509.2 637.06L508.9 637.24L508.75 637.06L509.5 636.35L511.25 635.93L513.34 636.53L513.52 636.67L514.1 637.39L513.92 638.44L513.59 638.5ZM508.11 612.12H507.97L507.63 612.05L507.37 611.9L507.26 611.7L506.04 609.18L506.02 608.73L506.13 608.52L506.46 608.5L507.4 609.01L508.14 609.99L508.56 610.95L508.54 611.23L508.11 612.12ZM596.08 710.46L595.62 709.23L595.46 709.12L594.63 709.13L592.95 709.62L592.76 709.54L592.62 709.33L592.6 708.93L592.81 708.41L593.26 708.29L593.42 708.27L593.8 708.41L594.08 708.48L594.65 708.59L596.14 708.63L596.68 708.22L596.84 708.14L597.48 708.33L597.72 708.65L597.3 709.83L597.14 710.02L596.47 709.79L596.3 709.81L596.08 710.46ZM604.56 687.81L605.25 688L606.8 688.58L606.98 688.82L607.54 690.71L607.33 690.82L607.05 690.69L603.88 688.5L603.72 688.16L603.79 687.9L603.91 687.76L604.19 687.71L604.46 687.78L604.56 687.81ZM494.57 623.63L493.7 622.75L493.55 621.58L496.03 620.95L496.36 621.04L496.43 621.28L495.41 623.22L494.98 623.51L494.7 623.62L494.57 623.63ZM508.25 601.91L507.22 601.68L507.08 601.58L506.73 601.23L506.43 600.33L506.52 600.1L506.85 599.72L507.41 599.18L507.65 599.12L507.9 599.2L508.15 599.35L508.34 599.55L508.47 599.73L508.58 599.93L508.67 600.32L508.64 600.8L508.43 601.66L508.34 601.89L508.25 601.91ZM490.91 543.83L490.57 543.8L490.38 543.65L490.36 543.37L490.87 542.11L491.11 541.78L492.32 541.79L493.03 541.89L493.45 542.1L492.15 543.35L491.91 543.55L491.72 543.65L491.29 543.79L490.91 543.83ZM494.23 620.63L493.98 620.56L493.85 620.37L493.79 620.13L493.81 619.65L494 619.15L496.51 617.67L496.69 618.13L495.5 620.18L494.62 620.56L494.37 620.62L494.23 620.63ZM594.42 703.46L594.28 703.27L594.79 700.69L595 700.38L595.31 700.18L595.52 700.19L595.76 700.45L595.91 700.64L596.13 700.93L596.27 701.13L596.42 701.54L596.38 702.4L595.66 702.96L595.35 703.18L594.97 703.32L594.42 703.46ZM559.8 688.12L559.65 688.1L559.44 687.98L559.23 687.76V687.5L559.42 687.27L559.59 687.11L561.64 686L561.88 685.9L562.09 685.91L562.23 686.03L562.4 686.29L562.41 686.66L561.92 687.41L560.58 687.95L559.8 688.12ZM504.42 645.55L504.35 645.83L503.72 646.9L503.32 647.16L502.43 647.45L502.18 647.42L502.03 647.32L501.78 647L501.74 646.74L502.52 645.96L503.12 645.42L503.72 644.97H503.89L504.09 645.1L504.39 645.38L504.42 645.55ZM601.28 710.28L599.82 709.49L598.94 708.75L599.03 708.4L599.18 708.29L599.44 708.2L600.23 708.26L601.27 708.6L601.76 709.3L601.81 710.19L601.28 710.28ZM507.22 614.03L506.08 613.81L505.92 613.65L505.8 612.58L506.23 611.71L506.41 611.57L506.59 611.6L506.75 611.75L506.89 611.92L507.16 612.27L507.78 613.29L507.72 613.62L507.42 613.91L507.22 614.03Z" fill="#C7C7C7" stroke="white" stroke-width="0.5"/>
<path d="M558.1 28.98L560.39 28.87L562.62 27.48L564.84 25.81H568.74L570.97 27.48L573.19 27.2L573.47 25.53L574.86 24.14H577.01L576.83 24.55L577.76 26.22L579.43 27.38L580.03 27.91L581.2 29.25L581.43 29.47L581.91 29.7L582.28 29.8L582.72 30.03L583.57 30.78L584.25 31.75L582.72 33.34L582.42 33.74L582 34.36L580.79 35.8L580.75 36.38L581.66 37.03L582.5 37.75L583.12 39L582.35 41.06L581.88 41.03L581.31 41.11L579.51 41.6L579.4 41.98L579.66 42.31L580.31 43.83L580.56 45.35L580.11 45.56L579.83 45.88L579.86 46.64L580.05 47.04L580.26 47.35L580.74 47.86L581.15 48.14L581.61 48.37L582.03 48.54L582.45 48.68L582.75 48.81L583.56 49.37L583.92 49.76L583.85 50.06L583.32 50.38L583.04 50.62L582.53 51.32L582.52 53.39L582.6 53.71L582.63 53.75L581.56 53.68L578.98 53.34L577.73 53.5L577.41 53.58L577.14 53.74L576.99 54.1L577.2 54.4L577.6 54.64L578.72 55.08H579.11L579.47 55.05L580.25 54.88L580.66 54.98L580.83 55.36L580.72 56.01L580.58 56.42L580 57.49L579.77 57.85L579.59 58.24L579.5 58.67V59.15L578.18 59.72L576.4 59.91L572.58 61.06L568.02 62.13L566.95 62.37L565.96 62.01L565.08 61.86L563.48 61.68L563.12 61.65L561.57 61.73L561.36 61.81L560.9 60.92L560.83 60.44L561.16 59.93L560.38 56.96L560.04 56.19L559.73 55.54L559.97 54.71L560.23 54.22L560.12 53.43L559.89 53.01L559.65 52.82L559.12 52.35L559.71 46.2L560.13 44.83L560.2 44.42L559.83 43.48L559.99 42.34L560.18 41.9L560.32 41.46L560.35 40.29L560.34 39.87L560.14 38.87L559.63 34.91L559.2 32.6L558.7 30.77L558.07 29.62L558.1 28.98Z" fill="#C7C7C7" stroke="white" stroke-width="2"/>
<path d="M583.37 54.41L583.75 54.47L584.11 54.43L584.53 54.42L587.3 58.88L587.88 59.85L587.92 64.6L588.15 64.88L588.59 65.48L588.83 65.95L589.07 66.67L589.28 67.81L589.32 68.15L589.34 68.72L589.32 69.22L589.35 69.96L590.61 71.27L590.95 71.47L591.36 72.15L591.66 74.2V74.73L591.52 75.13L592.12 77.06L592.7 79.03L592.21 81.45L592.32 83.22L593.5 83.98L596.55 84.34L600.02 83.6L602.18 83.12L603.3 84.33L604.78 85.9L604.11 87.77L603.46 89.57L602.82 91.37L602.64 91.89L600.01 101.62L595.69 103.57L592 105.22L587.86 107.04L586.96 107.46L586.62 108.22L586.03 108.99L585.36 108.88L585.01 109.1L583.98 110.67L583.34 111.69L582.87 112.61L582.49 113.43L582.44 113.92L582.77 114.79L583.45 115.19L585.51 118.72L584.59 119.21L583.65 119.36L583.5 119.5L583.24 119.93L582.96 121.04L582.19 121.03L581.61 121.18L581.16 121.46L580.58 121.95L580.1 122.4L579.76 122.65L579.41 122.73L578.7 122.69L578.15 122.61L577.69 122.68L577.19 122.88L576.78 123.1L576.47 123.31L575.75 123.88L575.46 124.66L575.32 125.75L575.03 126.3L574.72 126.31L574.86 129.07H570.69L570.13 130.74L568.74 131.02L567.35 132.69L565.12 131.02L563.99 129.5L563.8 129.52L562.84 129.43L562.42 129.35L561.9 129.31L561.39 129.52L561.12 129.67L560.59 130.01L560.26 130.3L558.45 131.39L557.44 131.49L556.12 131.69L555.51 131.81L555.11 131.91L554.75 132.04L554.48 132.18L554.22 132.34L553.43 132.93L552.75 133.87L553.14 133.17L553.2 132.86L553.15 132.35L552.87 131.49L552.47 131.07L552.19 130.75L551.72 129.6L552.17 127.95L552.41 127.22L553.11 125.7L553.96 124.58L554.48 124.19L555.71 122.54L555.95 120.89L555.96 119.99L555.64 119.13L554.97 118.21L555.05 116.14L554.6 115.22L554.34 114.37L553.82 112.4L554.05 109.94L554.33 107.44L554.45 106.69L554.27 106.37L554.52 105.09L554.74 104.3L554.9 104L555.01 102.93L554.94 102L554.7 101.45L554.69 100.92L554.83 98.99L555.02 97.93L555.45 97.36L555.82 97.07L556.05 96.65L556.34 95.93L556.47 95.51L556.56 95.15L556.55 94.51L556.43 94.03L556.25 93.55L556.06 93.32L555.58 92.98L555.18 92.78L554.87 92.91L554.48 93.77L553.27 93.55L553.59 91.68L553.66 89.43L553.94 86.89L554.44 86.32L554.95 86.09L555.06 86.77L555.34 87.14L556.19 86.98L556.65 86.75L556.93 86.5L557.17 86.21L557.34 85.94L557.75 84.97L558.05 84.12L557.97 83.67L557.85 83.34L557.71 82.64L558.09 80.42L558.45 77.45L558.67 75.34L558.95 73.03L559.16 72.06L559.46 70.93L560 67.07L559.94 66.6L559.92 65.57L560.17 64.75L560.82 64.19L560.9 63.43L561.36 61.81L561.57 61.73L563.12 61.65L563.48 61.68L565.08 61.86L565.96 62.01L566.95 62.37L568.02 62.13L572.58 61.06L576.4 59.91L578.18 59.72L579.5 59.15V58.67L579.59 58.24L579.77 57.85L580 57.49L580.58 56.42L580.72 56.01L580.83 55.36L580.66 54.98L580.25 54.88L579.47 55.05L579.11 55.08H578.72L577.6 54.64L577.2 54.4L576.99 54.1L577.14 53.74L577.41 53.58L577.73 53.5L578.98 53.34L581.56 53.68L582.63 53.75L582.7 53.91L583 54.24L583.37 54.41Z" fill="#C7C7C7" stroke="white" stroke-width="2"/>
<path d="M582.42 122.24L582.13 123.45L582.07 123.76L582.03 124.24L582.08 124.62L582.69 126.49L583.44 128.07L583.55 128.46L584.1 131.01L584.88 135.01L584.6 135.46L583.74 136.25L583.17 136.65L582.81 136.94L582.54 137.29L582.35 138.03L582.3 138.52L582.24 139.39V139.71L582.26 140.47L582.34 140.79L582.48 141.11L582.87 141.72L584.36 143.49L586.36 146.59L586.47 146.92L585.97 148.68L585.53 148.95L584.99 149.24L584.72 149.37L581.38 150.51L580.68 150.05L580.05 149.95L579.44 149.99L579.08 150.19L578.51 151.11L578.23 151.64L578.07 152.13L578.2 152.74L577.71 154.1L575.7 157.89L575.3 158.35L574.73 159.99L574.63 160.65L574.13 162.7L574 163.07L573.81 163.49L573.59 163.79L573.18 163.89L572.66 163.94L572.13 164.21L571.7 165.21L571.54 165.92L571.35 166.28L570.67 167.15L568.77 169.3L567.73 170.17L567.02 170.7L566.92 172.96L566.82 173.51L566.37 173.76L565.73 175.03L565.72 175.83L565.82 176.19L565.96 176.55L566.05 177.09L565.57 178.53L565.12 180.64L565.15 181.51L565.06 181.91L564.88 182.2L564.42 182.51L563.52 182.61L562.68 183.62L561.7 185.08L561.62 186.07L561.7 186.44L562.07 187.24L562.61 189.05L562.66 189.24L560.95 189.08L558.44 187.97L557.33 187.41L555.36 186.85L555.44 186.41L555.47 185.78L555.27 185.11L555.1 184.85L553.23 182.67L552.9 182.33L552.51 181.96L552.05 181.65L551.64 181.4L551.18 181.27L550.09 182.12L549.53 183.24L548.42 186.02L546.19 186.3L545.08 184.63L544.15 182.61L543.95 182.73L543.66 182.86L541.94 183.25L541.4 183.36L540.87 183.34L541.09 182.11L540.67 179.96L540.63 178.66L540.75 178.26L541.24 177.71L542.53 176.46L543.68 175.05L543.8 174.19L543.87 173.22L544.22 172.52L544.62 171.89L545.57 169.87L545.65 168.03L545.66 166.73L545.9 163.64L546.4 161.76L546.72 160.82L547.25 159.83L547.78 159.09L548.39 158.8L549.12 158.25L549.43 156.07L549.19 155.22L548.8 153.62L548.37 151.16L548.49 150.77L548.67 150.34L548.99 150.09L549.83 149.91L550.54 148.93L550.95 148.13L550.72 147.15L550.48 146.62L550.4 146.2L552.12 141.91L552.26 141.37L552.41 139.38L553.04 137.25L552.61 135.65V135.12L552.75 133.87L553.43 132.93L554.22 132.34L554.48 132.18L554.75 132.04L555.11 131.91L555.51 131.81L556.12 131.69L557.44 131.49L558.45 131.39L560.26 130.3L560.59 130.01L561.12 129.67L561.39 129.52L561.9 129.31L562.42 129.35L562.84 129.43L563.8 129.52L563.99 129.5L565.12 131.02L567.35 132.69L568.74 131.02L570.13 130.74L570.69 129.07H574.86L574.72 126.31L575.03 126.3L575.32 125.75L575.46 124.66L575.75 123.88L576.47 123.31L576.78 123.1L577.19 122.88L577.69 122.68L578.15 122.61L578.7 122.69L579.41 122.73L579.76 122.65L580.1 122.4L580.58 121.95L581.16 121.46L581.61 121.18L582.19 121.03L582.96 121.04L582.89 121.11L582.6 121.75L582.42 122.24Z" fill="#C7C7C7" stroke="white" stroke-width="2"/>
<path d="M540.87 183.34L541.4 183.36L541.94 183.25L543.66 182.86L543.95 182.73L544.15 182.61L545.08 184.63L546.19 186.3L548.42 186.02L549.53 183.24L550.09 182.12L551.18 181.27L551.64 181.4L552.05 181.65L552.51 181.96L552.9 182.33L553.23 182.67L555.1 184.85L555.27 185.11L555.47 185.78L555.44 186.41L555.36 186.85L557.33 187.41L558.44 187.97L560.95 189.08L562.66 189.24L562.69 189.38L562.73 190.11L562.63 190.56L562.56 191L562.65 191.37L562.83 191.63L563.29 191.94L563.33 192.06L563.47 193.35L563.43 195.29L563.27 196.2L563.18 196.62L564.06 198.32L564.37 198.59L564.55 198.98L564.51 199.74L563.55 201.94L562.99 202.72L562.14 203.09L561.69 203.14L561.38 203.09L560.21 203.83L559.11 205.79L558.53 207.08L558.29 207.75L557.62 210.16L557.46 211.25L557.4 211.92L557.45 212.34L557.97 212.98L557.92 213.54L556.97 214.59L556 214.93L555.7 214.61L554.71 215.68L554.56 216.05L554.15 218.38L554.04 220.82L553.88 221.83L553.77 222.39L555.59 226.86L555.76 227.13L556 227.46L556.26 227.63L556.81 227.75L557.79 227.69L558.07 227.85L558.74 228.62L558.81 229.07L558.35 230.36L557.75 230.45L557.15 231.1L557.61 233.47L557.55 234.09L556.21 234.26L555.81 234.02L555.69 233.63L555.47 232.83L555.07 232.49L554.68 232.37L554.39 232.36L554 232.37L553.35 232.26L552.69 231.78L552.67 231.37L552.62 230.82L551.64 230.22L547.3 230.35L546.86 231.06L546.18 231.82L545.88 232.02L542.92 232.7L542.32 232.67L541.93 232.53L541.28 232.2L540.88 232.21L540.55 232.43L540.24 232.77L540.33 231.18L540.48 230.38L540.57 229.99L540.69 229.32L540.7 227.88L540.62 225.86L540.21 224.88L539.86 223.19L539.85 222.16L539.79 221.72L539.06 218.27L538.51 216.05L538.41 215.74V215.22L538.59 214.33L538.66 212.82L538.49 212.24L538.27 211.85L538.2 211.48L537.89 209.12L537.9 207.41L537.95 205.8L537.99 204.92L538.24 202.23L538.71 201.1L539.14 200.94L539.31 201.21L539.78 201.39L540.12 201.41L540.63 201.16L542.12 199.66L542.4 199.16L543.06 195.87L543.77 195.15L543.74 193.92L543.31 193.47L543.05 192.5L543.11 189.3L543.32 188.07L543.5 187.52L543.49 187.15L543.03 185.62L542.83 185.28L542.48 184.94L541.72 184.39L541.37 184.19L541.07 183.96L540.91 183.6L540.87 183.34Z" fill="#C7C7C7" stroke="white" stroke-width="2"/>
<path d="M561.44 268.31L561.43 267.95L561.33 267.61L560.97 267.35L560.29 267.08L559.83 266.59L559.76 266.24L559.81 265.11L559.64 264.41L559.39 264.22L559 264.25L558.6 264.54L558.26 264.63L557.26 264.29L557.39 263.42L556.83 261.57L556.51 261.28L556.01 261.11H555.51L553.84 261.76L553.28 262.11L552.24 262.19L551.85 262.06L550.68 262.79L548.81 264.96L548.75 265.35L548.8 266.07L547.63 266.34L546.27 266.38L546.23 266.36L545.07 264.66L543.28 263.89L542.38 262.23L540.08 262.36L538.67 261.78L539.43 261.29L539.89 259.72L540.2 259.71L541.01 259.75L541.73 259.97L542.2 259.94L542.9 259.19L543.52 256.85L542.99 255.55L542.78 254.38L542.79 254.04L543.17 253.84L544.17 252.83L544.61 252.26L544.73 251.87L544.7 250.67L544.89 250.31L545.77 250.16L546.64 250.14L547.63 249.47L547.58 247.35L547.4 246.58L547.53 245.95L547.82 245.81L549.46 245.18H551.42L552.76 245.51L553.49 245.78L554.07 246.33L554.26 246.99L554.75 247.7L555.09 247.73L556.01 246.95L556.34 246.99L557.33 248.09L558.79 248.74L559.98 247.7L560.7 247.31L560.91 247.73L560.82 248.51L560.68 249.02L560.76 249.47L562.11 251.49L562.46 251.44L562.75 250.92L563.15 250.51L563.5 250.45L563.89 250.58L564.91 251.15L565.32 252.99L565.2 253.42L564.83 253.85L563.97 255.84L563.47 259.64L563.48 260.47L563.76 261.57L564.27 265.08L564.71 267.43L563.71 268.18L563.05 268.13L562.72 268.04L562.31 268.03L561.7 268.15L561.44 268.31Z" fill="#C7C7C7" stroke="white" stroke-width="2"/>
<path d="M542.32 232.67L542.92 232.7L545.88 232.02L546.19 231.82L546.87 231.06L547.31 230.35L551.65 230.22L552.63 230.82L552.69 231.37L552.71 231.78L553.37 232.26L554.02 232.37L554.4 232.36L554.7 232.37L555.09 232.49L555.49 232.83L555.71 233.63L555.83 234.01L556.23 234.25L557.57 234.08L557.68 234.4L558.66 234.83L558.85 235.36L559.94 237.61L560.05 238.12L559.97 238.74L560.54 239.37L561.43 240.26L562.71 241.92L562.84 243.33L562.23 244.35L561.83 245.58L561.11 246.54L560.71 247.32L559.99 247.71L558.8 248.75L557.34 248.1L556.35 247L556.02 246.96L555.1 247.74L554.76 247.71L554.27 247L554.08 246.34L553.5 245.78L552.77 245.52L551.44 245.18H549.47L547.83 245.81L547.54 245.96L547.41 246.59L547.59 247.35L547.65 249.47L546.66 250.14L545.79 250.16L544.9 250.31L544.71 250.67L544.74 251.87L544.62 252.26L544.19 252.83L543.18 253.83L542.8 254.03L542.79 254.37L543 255.54L543.54 256.85L542.92 259.18L542.22 259.93L541.75 259.96L541.03 259.74L540.22 259.71L539.91 259.72L539.45 261.29L538.11 262.16L537.61 262.79L537.11 262.7L536.57 262.58L536.2 262.27L535.53 262.29L535.96 260.73L536.45 259.57L536.83 259.43L537.33 259.33L537.74 259.12L538.24 258.68L538.5 258.01L538.58 257.67L538.67 257.13L538.8 255.84L538.02 252.73L537.85 250.76L537.14 248.23L537.28 247.92L537.96 247.96L539.79 246.61L540.45 244.76L540.8 242.45L541.39 241.29L541.55 240.8L541.61 240.28L541.62 237.87L542.12 236.24L541.22 234.68L540.63 233.79L540.24 232.78L540.56 232.43L540.89 232.21L541.29 232.2L541.94 232.53L542.32 232.67ZM3.98003 150.41L3.24003 150.7L2.80003 150.69L2.63003 150.73L1.85003 151.14L1.47003 151.4L1.30003 151.54L1.05003 151.48L1.03003 151.14L1.38003 149.97L1.46003 149.78L1.55003 149.65L1.77003 149.38L2.12003 149.32L4.24003 149.86L4.27003 150.04L4.18003 150.24L3.98003 150.41Z" fill="#C7C7C7" stroke="white" stroke-width="2"/>
<path d="M512.26 339.25L512.32 339.26L512.6 339.4L513.04 339.64L514.21 340.42L517.95 336.74L518.18 336.29L518.28 335.94L518.39 335.39L518.13 334.96L517.63 334.71L517.11 333.3L518.81 330.7L519.22 330.21L519.38 328.59L519.19 328.23L518.29 328.15L517.98 327.77L519.29 326.13L521.24 325.84L521.84 326.17L522.44 326.56L522.95 326.86L524.9 327.33L526.11 327.3L526.98 328.32L527.38 329.3L528.26 330.56L528.91 330.96L529.21 331.08L529.69 331.16L530.2 331.29L530.56 331.47L531.78 332.52L531.95 332.95L532.41 333.52L532.71 333.73L534.85 334.09L536.61 333.92L537.03 333.8L537.52 333.99L537.98 334.66V335.4L537.92 335.95L537.89 336.54L537.95 336.96L538.23 338.02L538.41 338.38L538.92 338.75L539.15 338.29L539.34 337.84L539.57 337.59L540.83 336.99L541.76 336.5L542 336.27L542.22 335.66L543.7 335.34L546.99 335.27L547.9 335.42L547.88 336.24L547.7 337.56L547.85 338.6L548.3 340.95L548.6 341.59L549.21 342.23L549.59 342.46L550.11 342.88L550.37 343.49L550.31 344.08L549.86 345.93L548.98 346.85L548.66 347L547.97 346.98L547.52 346.93L547.13 346.99L546.5 347.31L544.49 348.49L543.14 349.3L542.76 349.54L542.29 349.99L542.05 350.39L541.94 350.85L541.88 351.82L541.89 352.29L542.03 352.77L542.17 353.93L542.38 355.95L542.16 357.6L541.49 359.53L540.99 361.84L540.88 362.53L540.68 362.87L539.37 362.94L539 362.77L538.41 361.94L538.19 361.95L538.15 361.55L538.06 361.09L537.89 360.65L537.59 360.6L536.63 360.58L535.83 360.02L535.44 359.64L534.99 359.33L534.63 359.21L532.36 359.01L531.98 359.08L531.62 359.26L531.2 359.66L530.92 359.97L530.56 360.17L529.21 360.69L528.67 360.61L528.01 360.28L525.91 359.55L525.49 359.54L524.42 359.74L524.01 359.76L523.57 359.72L523.16 359.63L522.8 359.38L522.38 358.91L521.96 358.14L521.81 357.09L521.49 356.84L519.43 356.88L518.73 357.75L518.45 358.23L518.07 358.62L517.63 358.85L517.19 358.9L516.79 358.85L516.43 358.76L515.95 358.62L516.31 357.98L516.21 355.96L515.41 353.12L512.9 345.94L512.07 343.16L511.73 341L511.75 340.42L512 339.37L512.26 339.25Z" fill="#C7C7C7" stroke="white" stroke-width="2"/>
<path d="M522.56 297.3L524.15 298.01L524.37 298.25L524.47 298.86L526.53 300.68L529.25 302.1L529.61 302.22L531.36 302.27L532.38 301.12L532.35 300.68L532.46 300.14L533.56 301.3L533.75 301.74L533.85 302.07L534.1 302.29L534.87 302.47L535.19 302.49L535.55 302.34L535.89 302.24L536.82 302.39L537.18 303.17L537.36 303.61L537.71 303.95L538.23 304.28L539.12 304.63L540.31 304.99L541.84 306.25L542.13 306.54L543.54 307.32L544.12 307.4L544.53 306.94L544.57 306.56L544.68 306.11L545.81 304.67L546.08 304.47L546.41 304.42L546.9 304.67L547 305.19L547.15 305.81L547.57 306.3L547.66 306.35L547.4 306.49L547.11 307.6L545.94 311.04L545.24 312.87L545.78 315.17L546.29 317.64L546.04 319.02L545.79 319.8L545.29 320.38L545.1 320.98L545.52 322.35L545.82 322.82L546.21 323.35L546.35 323.77L546.14 326.08L545.65 326.45L545.39 326.76L545.3 327.35L545.33 328.02L545.6 328.9L545.94 329.71L546.13 330.55L546.54 331.35L547.92 334.73L547.9 335.42L546.99 335.27L543.7 335.34L542.22 335.66L542 336.27L541.76 336.5L540.83 336.99L539.57 337.59L539.34 337.84L539.15 338.29L538.92 338.75L538.41 338.38L538.23 338.02L537.95 336.96L537.89 336.54L537.92 335.95L537.98 335.4V334.66L537.52 333.99L537.03 333.8L536.61 333.92L534.85 334.09L532.71 333.73L532.41 333.52L531.95 332.95L531.78 332.52L530.56 331.47L530.2 331.29L529.69 331.16L529.21 331.08L528.91 330.96L528.26 330.56L527.38 329.3L526.98 328.32L526.11 327.3L524.9 327.33L522.95 326.86L522.44 326.56L521.84 326.17L521.24 325.84L519.29 326.13L517.98 327.77L518.29 328.15L519.19 328.23L519.38 328.59L519.22 330.21L518.81 330.7L517.11 333.3L517.63 334.71L518.13 334.96L518.39 335.39L518.28 335.94L518.18 336.29L517.95 336.74L514.21 340.42L513.04 339.64L512.6 339.4L512.32 339.26L512.26 339.25L512.04 338.31L512.26 337.86L512.54 337.56L512.72 337.19L512.97 334.49L512.79 333.75L512.47 332.81L511.83 331.27L510.82 329.53L509.94 328.56L509.69 326.36L509.87 325.89L510.4 325.21L510.83 324.78L511 324.09L510.93 323.42L510.66 322.87L510.33 322.45L509.96 322.12L509.81 321.78L510.35 319.15L510.51 318.75L511.1 318.32L511.72 319.03L512.09 319.27L513.23 319.79L513.84 319.78L514.13 319.77L514.5 319.71L515.27 319.48L515.86 319.21L516.21 318.94L516.55 318.48L516.76 318L517.11 316.63L517.38 313.41L517.6 309.99L518.11 310.22L518.44 310.55L518.88 310.66H519.23L519.51 310.53L519.71 310.28L519.99 308.95L520.53 306.98L521.17 305.27L521.77 303.7L522.07 300.11L522.35 297.55L522.56 297.3Z" fill="#C7C7C7" stroke="white" stroke-width="2"/>
<path d="M538.67 261.78L540.08 262.36L542.38 262.23L543.28 263.89L545.07 264.66L546.23 266.36L546.27 266.38L547.63 266.34L548.8 266.07L548.75 265.35L548.81 264.96L550.68 262.79L551.85 262.06L552.24 262.19L553.28 262.11L553.84 261.76L555.51 261.11H556.01L556.51 261.28L556.83 261.57L557.39 263.42L557.26 264.29L558.26 264.63L558.6 264.54L559 264.25L559.39 264.22L559.64 264.41L559.81 265.11L559.76 266.24L559.83 266.59L560.29 267.08L560.97 267.35L561.33 267.61L561.43 267.95L561.44 268.31L561.37 268.48V269.49L561.47 270.27L559.99 272.52L558.81 274.76L557.88 278.07L557 280.54L556.89 280.55L556.05 280.49L553.47 280.23L551.87 279L551.27 278.39L550.99 278.22L547 277.03L546.46 276.89H546.06L543.53 277.09L542.35 278.11L542.4 278.49L542.46 279.08L540.28 278.69L538.12 278.55L536.67 278.11L534.71 277.31L534.22 276.57L533.4 275.56L533.14 275.38L532.72 275.21L532.86 274.54L533.07 272.25L532.96 271.24L532.92 270.57L533.22 270.08L533.75 269.78L533.89 269.34L533.88 268.46L533.79 267.19L533.49 266.79L533.38 266.45L533.43 265.88L535.13 262.79L535.52 262.29L536.19 262.27L536.56 262.58L537.1 262.7L537.59 262.78L538.09 262.16L538.67 261.78Z" fill="#C7C7C7" stroke="white" stroke-width="2"/>
<path d="M496.19 438.42L495.92 438.68L495.6 438.71L495.22 438.66L495.01 438.71L494.73 438.82L494.56 438.91L494.05 439.33L493.93 439.31L493.71 439.18L493.22 438.4L493.13 438.23L493.05 438.04L492.99 437.85L493.03 437.53L494.23 436.93L494.4 436.94L495.61 437.55L495.75 437.68L496.07 438.03L496.19 438.42ZM513.53 417.5L513.5 418.16L513.23 418.11L513.1 417.6L513.03 417.41L512.94 417.24L512.72 417.06L511.39 416.36L511.2 416.28L510.74 416.18L510.54 416.04L510.15 414.93L510.19 414.74L510.42 414.65L510.75 414.61L511.24 414.6L511.58 414.68L511.85 414.88L513.53 417.5ZM506.84 404.11L506.56 404.5H506.16L505.8 404.24L505.51 404.15L505.29 404.55L505.78 405.09L507.04 405.54L507.41 405.25L507.99 404.85L509.49 403.92L510.89 403.73L511.31 403.78L512.3 404.45L511.98 406.95L513.07 408.66L512.84 409.29L512.45 409.44L512.35 409.86L512.52 410.39L513.48 411.04L513.85 411.13L514.21 412.23L514.05 412.92L513.87 413.35L512.38 413.7L511.6 413.59L511.26 413.62L510.29 414.14L509.97 414.34L509.74 414.71L509.64 416.33L510.09 416.8L510.47 417L510.7 417.26L509.16 417.9L508.37 417.19L508.64 416.43L508.18 416.57L507.8 417.34L507.97 419.1L510.65 421.79L511.34 422.03L512.12 422.59L512.36 422.85L512.56 423.88L512.45 424.32L511.35 424.5L510.81 424.45L510.34 424.71L510.21 425.46L510.65 426.01L511.38 426.6L511.46 426.9L511.95 427.84L512.32 428.36L512.49 428.96L512.16 429.24L508.97 428.96L508.39 429.19L508.6 430.82L508.94 431.21L509.34 431.49L509.6 432.19L509.31 433.92L509.03 434.04L507.15 434.47L506.65 434.09L506.27 433.72L505.9 433.6L504.58 433.54L503.08 433.34L501.25 432.81L499.98 432.13L499.72 431.91L499.48 431.5L500.51 428.84L501.86 427.19L501.66 426.56L502.1 426.13L502.72 424.54L503.19 419.93L503.11 418.57L502.84 417.57L502.59 417.36L502.24 417.11L502.49 415.48L502.78 411.99L502.92 411.65L503.19 411.25L503.48 410.88L504.15 410.23L504.59 408.73L505.07 405.85L504.52 404.74L504.36 404.33L504.37 403.95L504.84 403.2L506.5 403.35L506.84 404.11ZM508.8 374.91L513.07 375.27L513.91 376.66L515.3 376.94L517.53 375.27L519.76 376.1L521.15 378.6L523.1 379.99L525.6 382.22L528.38 383.33L530.05 381.38L531.16 379.71L533.39 379.43L535.98 379.78L535.93 380.57L535.95 381.08L535.67 381.88L535.39 382.28L535.09 382.59L534.66 382.96L534.38 383.44L534.89 384.92L535.8 386.91L535.97 387.72L535.67 388.77L535.94 389.66L535.64 393.1L535.58 393.56L535.33 394.09L535.11 395.27L535.19 395.84L535.55 396.71L535.8 398.92L535.2 399.95L534.88 400.32V400.86L535.79 403.03L536.68 404.83L536.83 405.32L537.03 406.44L537.08 407.46L537.48 408.03L537.55 409.28L536.83 409.95L534.98 410.83L534.54 410.75L534.4 410.26L534.2 409.93L533.74 409.84L533.4 410.02L533.1 410.31L531.79 412.92L532.09 413.5L532.83 414.14L533 414.52L532.05 417.55L531.84 417.95L531.71 418.37L531.65 418.78L531.8 420.28L532.05 421.28L532.1 422.05L532.17 423.87L532.13 424.39L532 425.02L531.82 425.45L531.72 425.83L531.67 426.79L531.93 427.44L532.5 428.4L532.86 428.71L533.62 429.04L534.19 429.03L534.59 429.05L535.48 429.14L535.94 429.26L537.3 430.1L537.39 432.09L537.29 432.46L537.02 432.65L536.5 432.52L535.07 433L534.59 434.2L534.51 435.5L535.74 436.42L537.83 438.4L537.99 439.66L537.81 440.11L536.91 440.71L536.63 440.82L536.33 440.99V441.56L537.06 442.66L537.88 443.59L536.81 443.09L536.33 443.11L534.33 444.09L534.13 444.88L532.14 445.1L532.03 444.33L531.77 443.8L531.3 443.2L530.88 442.91L530.24 442.85L529.94 442.72L528.85 440.9L528.78 440.07L528.1 439.8L527.63 440.13L527.02 440.76L526.55 441.46L526.35 442.24L523.6 441.77L522.71 441.54L522.42 441.31L521.48 441.29V440.48L521.26 441.15L521.02 441.13L520.66 440.99L520.12 440.42L519.41 440.56L518.79 440.99L518.73 440.31L518.83 438.01L517.88 435.74L517.74 435.29L518.23 432.78L518.53 432.43L519.08 432.06L519.49 431.81L519.82 431.62L520.11 431.52L520.61 431.3L520.59 429.88L520.34 429.06L520.45 428.58L521.02 427.52L521.53 426.94L522 426.96L523 427.64L523.04 425.01L522.6 424.46L522.18 424.2L521.77 423.78L521.55 423.22L521.35 422.09L521.33 421.06L521.4 418.34L521.9 417.07L522.22 416.94L523.49 417.01L523.9 417.09L524.2 417.48L525.31 418.21L525.73 418.33L525.91 418.09L525.55 417.5L524.88 417.32L524.42 417.1L523.85 416.63L521.51 412.99L522.2 412.17L522.9 411.66L524.99 410.99L525.44 411.24L525.85 411.99L525.84 412.41L527.13 416.16L527.38 416.35L527.58 416L527.46 414.57L526.96 412.03L526.77 411.21L526.59 409.81L526.62 409.28L526.71 408.55L526.81 408.04L526.94 407.56L526.98 406.95L526.72 406.75L526.11 406.76L525.62 407.32L524.69 407.87L522.9 407.6L521.8 407L521.21 406.16L521.33 405.67L522.09 404.46L524.24 402.27L524.83 402.29L525.31 402.39L526.78 402.04L527.78 401.54L528.57 400.83L528.82 400.52L529.14 396.73L528.62 396.92L528.12 400.3L527.8 400.9L526.78 401.41L525.32 401.89L524.84 401.9L524.51 401.76L523.94 401.31L523.52 400.04L523.04 399.36L522.1 398.24L521.55 397.93L520.24 397.6L519.15 397.93L518.68 398.13L517.8 399.52L518 400.27L518.27 400.52L518.47 401.63L517.47 402.68L516.53 403.39L516.05 403.47L515.05 403.24L514.59 403.09L513.65 403.12L513.37 403.24L512.68 403.57L512.3 403.7L512.06 403.71L511.15 403.13L509.46 402.79L508.72 402.75L508.94 401.3L509.58 400.33L509.84 400.15L510.31 400.13L510.78 400.2L511.31 400.04L512.24 398.31L511.8 398.73L511.51 399.38L511.23 399.76L510.82 399.89L509.11 399.72L508.24 399.16L506.92 397.55L506.89 396.85L507.15 396.24L507.1 394.97L506.93 394.24L506.44 392.86L505.99 392.29L505.77 391.81L505.48 390.01L505.17 387.9L505.85 385.85L507.48 381.45L508.13 380.6L508.71 379.35L508.6 378.66L508.2 377.64L508.8 374.91Z" fill="#C7C7C7" stroke="white" stroke-width="2"/>
<path d="M547.66 306.35L547.57 306.3L547.15 305.81L547 305.19L546.9 304.67L546.41 304.42L546.08 304.47L545.81 304.67L544.68 306.11L544.57 306.56L544.53 306.94L544.12 307.4L543.54 307.32L542.13 306.54L541.84 306.25L540.31 304.99L539.12 304.63L538.23 304.28L537.71 303.95L537.36 303.61L537.18 303.17L536.82 302.39L535.89 302.24L535.55 302.34L535.19 302.49L534.87 302.47L534.1 302.29L533.85 302.07L533.75 301.74L533.56 301.3L532.46 300.14L532.35 300.68L532.38 301.12L531.36 302.27L529.61 302.22L529.25 302.1L526.53 300.68L524.47 298.86L524.37 298.25L524.15 298.01L522.56 297.3L522.83 297.12L523.54 296.46L525.08 294.9L525.26 294.54L525.38 293.99L525.35 293.35L525.01 292.52L524.41 291.04L524.45 290.55L524.77 290.17L525.36 289.84L526.34 289.01L527.25 286.71L527.75 285.26L527.96 284.84L528.56 284.12L529.02 283.82L529.57 283.5L530.38 282.71L530.67 282.07L530.8 281.3L530.84 280.78L530.86 280.17L530.88 279.67L531 278.73L531.78 277L532.1 276.66L532.38 276.23L532.72 275.21L533.14 275.38L533.4 275.56L534.22 276.57L534.71 277.31L536.67 278.11L538.12 278.55L540.28 278.69L542.46 279.08L542.4 278.49L542.35 278.11L543.53 277.09L546.06 276.89H546.46L547 277.03L550.99 278.22L551.27 278.39L551.87 279L553.47 280.23L556.05 280.49L556.89 280.55L557 280.54L556.97 280.67L556.95 281.33L556.97 281.97L557.03 282.33L556.95 283.1L556.7 283.52L555.7 284.03L555.26 284.12L554.77 284.14L554.43 284.23L554.08 284.78L554.05 285.23L554.29 285.73L554.54 285.93L556.11 286.91L556.48 289.53L556.37 291.26L556.16 291.62L556.3 292.27L556.79 293.36L557.23 294.69L556.78 295.07L556.4 295.73L556.26 296.12L556.32 297.49L556.48 299.31L556.08 300.37L555.88 300.64L555.47 300.87L554.94 300.83L553.74 300.88L552.09 302.74L551.9 304.03L552.21 304.85L552.06 305.27L548.56 306.54L548.15 306.48L547.66 306.35Z" fill="#C7C7C7" stroke="white" stroke-width="2"/>
<path d="M577.01 24.14H574.86L573.47 25.53L573.19 27.2L570.97 27.48L568.74 25.81H564.84L562.62 27.48L560.39 28.87L558.1 28.98L558.12 28.37L558.29 28L558.25 27.37L557.52 23.32L557.29 22.71L557.14 19.79L557.28 18.93L557.68 16.86L557.31 16.31L556.95 15.94L556.48 15.58L556.35 15.53L556.57 15.33L556.9 15.15L557.45 15.1L558.57 15.22L559.26 15.26L559.58 15.24L560.23 15.12L562.25 14.36L562.71 14.05L564 12.69L564.33 12.31L565.01 10.93L565.32 10.13L565.39 9.64L564.78 7.39L564.65 7.11L564.42 6.89L564.25 6.62L564.31 6.01L564.47 5.61L564.75 5.18L565.38 5.25L566.61 5.35L569.23 3L569.41 4.89L570.99 6.29L571.28 6.56L571.68 7.34L571.81 7.75L571.77 8.74L571.86 9.26L571.99 9.69L572.2 10.04L574.44 10.77L575.32 10.92L575.3 11.36L575.17 11.64L574.65 11.96L574.36 12.21L574.22 12.58L574.41 13.02L574.71 13.33L575.05 13.74L575.28 16.18L575.48 16.51L575.78 16.91L575.91 17.18L576.01 17.54L575.98 17.9L575.88 18.68L575.93 19.45L575.99 20.15L576.33 21.41L577.03 22.95L577.3 23.5L577.01 24.14Z" fill="#C7C7C7" stroke="white" stroke-width="2"/>
<path d="M535.98 379.79L533.39 379.44L531.16 379.72L530.05 381.39L528.38 383.34L525.6 382.22L523.09 380L521.14 378.6L519.75 376.1L517.53 375.27L515.3 376.94L513.91 376.66L513.07 375.27L508.8 374.91L509.1 373.17L510.06 372.01L509.99 370.93L509.84 370.44L509.47 369.99L509.28 369.59L509.57 369.13L509.78 368.89L512.46 367.58L513.7 367.8L514.07 367.24L514.04 365.06L515.09 362.37L515.31 361.96L515.82 360.65L516.26 359.19L515.95 358.62L516.43 358.76L516.79 358.85L517.19 358.9L517.63 358.85L518.07 358.62L518.45 358.23L518.73 357.75L519.43 356.88L521.49 356.84L521.81 357.09L521.96 358.14L522.38 358.91L522.8 359.38L523.16 359.63L523.57 359.72L524.01 359.76L524.42 359.74L525.49 359.54L525.91 359.55L528.01 360.28L528.67 360.61L529.21 360.69L530.56 360.17L530.92 359.97L531.2 359.66L531.62 359.26L531.98 359.08L532.36 359.01L534.63 359.21L534.99 359.33L535.44 359.64L535.83 360.02L536.63 360.58L537.59 360.6L537.89 360.65L538.06 361.09L538.15 361.55L538.19 361.95L538.08 362.1L537.81 363.04L537.86 364.9L538.37 367.24L538.88 369.01L538.41 370.8L537.22 371.58L536.64 372.05L536.26 373.71L536.64 374.48L537.66 375.53L537.9 375.1L538.38 375.43L538.45 376.13L537.91 377.43L537.71 377.78L537.43 377.86L537.1 377.54L536.8 377.51L535.98 379.79Z" fill="#C7C7C7" stroke="white" stroke-width="2"/>
</svg>
