<svg width="616" height="696" viewBox="0 0 616 696" fill="none" xmlns="http://www.w3.org/2000/svg">
<path d="M303.94 545.31L305.35 544.96L306.17 544.69L311.51 542.76L318.05 540.54L323.11 538.86L325.98 538L329.39 538.2L331.62 538.16L332.55 538.64L335.35 540.4L337.16 543.12L340.92 543.55L344.98 543.44L347.6 543.42L350.4 545.54L351.16 546.1L352.64 546.78L357.25 546.4L357.91 545.22L358.29 544.33L359.57 543H361.07L362 543.55L363.02 544.79L363.53 545.83L364.67 546.14L365.77 546.19L367.03 546.14L368.05 545.84L369.27 544.6L371.32 544.31L372.55 545.79L374.09 547.55L377.76 549.75L378.98 549.82L379.74 548.36L383.14 544.75L384.82 544.62L385.3 546.02L388.37 547.51H389.27L390.28 547.03L391.58 545.94L391.45 543.62L391.74 542.78L392.48 540.79L393.17 539.39L393.66 538.63L394.5 537.7L400.01 532.39L401.09 531.88L402.22 531.86L403.34 532.09L405.74 532.74L407.54 532.85L409.07 531.74L409.87 530.54L410.43 529.57L410.81 528.78L411.33 527.77L411.79 526.93L412.53 525.96L415.97 523.14L420.06 518.8L421.67 516.9L422.17 515.72L421.95 514.08L422.71 513.46L425.75 513.6L427.64 514.53L428.62 515.28L437.14 520.46L441.25 521.76L442.83 521.11L444.91 523.31L445.95 525.27L447.64 532.85L449.26 535.49L452.27 534.27L452.97 532.94L463.38 536.3L464.99 537.96L465.59 538.9L466.91 540.14L469.66 541.04L471.12 540.71L470.4 539.5L472.86 537.65L474.88 538.71L475.59 539.63L474.09 545.17L474.15 549.99L472.82 552.11L472.88 553.68L473.92 554.58L474.87 555.56L475.21 557.32L474.13 558.16L472.71 558.99L472.44 559.88L472.76 560.86L473.27 561.72L478.34 565.74L479.49 565.83L480.33 565.47L481.02 564.7L481.34 563.75L480.74 563.14L479.55 562.84L478.96 562.18L479.02 561.34L479.67 560.46L481.03 559.58L486.86 559.19L487.06 560.71L485.94 563.89L486.23 564.73L487.59 564.96L488.41 564.66L491.26 563.34L495.49 562.32L498.74 565.13L498.68 566.04L499.46 569.58L506.18 568.68L506.04 565.52L507.05 563.33L507.49 564.28L508.29 568L509.19 572.68L509.66 576.44L509.15 578.22L506.61 584.14L503.73 600.04L500.78 616.3L500.22 619.38L499.47 623.31L499.08 625.45L492.58 661.72L488.92 682.28L486.39 694.26L485.83 695.27L485.84 694.14L484.52 692.77L483.18 691.86L482.37 691.32L478.98 688.52L478.44 687.63L478.11 686.85L477.77 685.79L477.35 684.52L476.56 682.98L474.39 680.26L470.74 677.31L469.97 676.93L469.12 676.84L467.3 677.44L466.58 678L464.29 679.39L463.41 679.77H462.29L459.01 678.55L454.21 676.51L456.35 673.15L458.19 670.33L460.73 666.41L465.62 658.86L467.06 656.62L481.27 634.51L479.99 632.17L479.08 632.3L476.03 629.94L475.44 628.52L475.03 626.92L471.88 624.09L470.22 623.73L469.39 623.96L468.48 624.52L460.79 623.77L460.05 623.38L457.28 619.99L456.95 618.23L448.65 612.79L443.81 614.96L438.67 616.33L435.09 618.33L427.93 617.77L425.85 615.08L421.4 613.16L419.07 613.25L415.05 612.77L414.64 611.59L414.68 610.38L414.27 609.61L413.09 610.07L409.52 613.01L406.93 616.68L406.17 619.03L404.45 619.08L402.36 618.69L398.74 620.26L392.25 623.99L389.28 623.69L388.12 623.34L383.05 621.64L377.3 620.24L373.46 621.58L368.05 623.63L365.28 624.3L364.43 622.14L363.11 619.94L361.44 620.01L360.29 620.37L357.37 618.77L356.1 617.77L355.66 617.02L354.98 613.64L356.24 613.06L357.21 611.76L358.01 609.52L356.69 600.43L354.94 597.38L352.29 595.63L350.57 597.23L348.18 598.38L343.25 596.04L340.2 594.01L339.5 593.25L340.34 589.4L340.76 588.67L341.99 587.59L340.76 585.23L338.98 582.81L338.04 581.77L337.85 580.48L337.51 577.97L333.48 574.25L331.03 574.03L329.41 574.47L325.75 573.46L324.64 571.14L315.99 565.58L310.32 564.03L309.28 563.13L308.68 562.06L307.55 559.75L308.31 558.46L308.99 556.61L307.24 554.81L306.17 553.66L305.23 550.58L304.44 547.58L303.94 545.31Z" fill="#C7C7C7" stroke="white" stroke-width="2"/>
<path d="M291.93 285.09L290.74 284.89L284.42 286.73L279.11 287.33L277.16 287.79L276.12 289.15L275.41 290.16L271.42 292.95L270.15 292.37L268.77 291.31L267.42 290.06L266.58 289.71L262.15 289.37L255.7 287.46L254.12 286.95L252.76 286.75L252.7 287.93L253.31 291.75L253.48 294.76L252.78 295.28L250.17 295.02L248.32 294.84L246.01 295.13L244.89 295.42L241.83 297.04L240.99 297.15L237.48 297.23L236.89 296.89L235.33 295.44L234.46 294.46L232.53 291.98L232.17 290.96L232.91 289.32L233.02 288.06L232.78 286.88L232.15 285.34L231.53 284.2L231.1 283.12L230.92 282.13L231.1 281.15L231.73 279.95L231.94 276.8L229.57 276.33L228.73 276.05L227.99 275.39L227.38 273.74L227.23 272.49L227.18 271.17L226.97 268.32L226.37 267.62L224.49 266.61L223.53 266.47L213.96 268.16L212.77 268.53L211.87 268.64L207.55 268.45L204.16 263.69L203.87 262.73L203.88 261.64L203.87 258.27L203.59 256.72L199.92 248.95L199.04 248.13L196.94 246.79L196.55 241.37L198.82 240.61L200.39 240.72L201.87 241.25L203.8 239.64L203.88 238.13L203.37 236.72L202.62 235L203.29 233.99L209.15 233.77L212.09 234.37L213.49 235.07L214.32 235.3L215.09 234.88L216.26 227.86L215.85 226.2L215.29 224.84L214.69 223.93L212.62 221.12L211.07 220.69L210.17 220.23L207.67 218.23L200.09 210.51L199.21 209.59L198.4 208.72L195.92 205.91L194.63 204.31L191.57 203.63L191 199.83L192.5 199.38L193.45 198.79L194.34 197.83L194.94 196.3L195.17 194.84L195.61 192.66L196.14 191.91L198.49 190.25L199.59 189.91L200.98 189.5L202.21 187.57L202.4 187.74L202.46 189.51L202.29 191.99L200.9 191.65L199.97 191.15L198.99 191.78L198.55 193.68L198.7 195.73L200.84 196.83L203.11 197.01L205.54 196.42L206.09 195.74L206.61 191.46L206.32 189.34L205.73 184.92L205.23 178.99L204.88 176.07L202.9 173.13L200.64 171.51L198.52 170.86L198.51 169.57L200.31 167.34L203.06 166.85L209 165.08L218.95 156.8L219.19 155.56L219.89 156.11L220.31 156.84L220.6 157.65L220.68 158.49L220.7 159.99L220.82 161.08L221.04 162.36L221.6 164.38L222.18 165.45L222.77 166.21L223.56 166.95L224.49 167.53L225.69 168.15L226.76 168.57L228.23 169.31L228.84 170.04L229.03 171.09L229 172.86L228.93 174.21L228.73 175.58L228.39 176.66L227.76 177.74L227.01 178.61L225.82 179.79L225.01 180.36L223.05 182.36L222.02 183.55L221.03 185.61L220.56 187.03L220.25 188.45L219.89 190.61L219.75 191.74L219.66 193.82L219.19 195.43L217.62 196.99L216.64 197.95L215.86 199.28L215.48 203.55L215.46 205.01L215.52 205.94L215.85 208.1L216.19 209.59L216.53 210.74L217.14 211.86L218.7 214.25L222.58 219.29L223.99 219.52L225.22 219.47L226.13 219.37L228.95 219.26L237 219.21L239.01 219.24L242 219.39L243.28 219.07L250.19 210.5L250.72 207.44L251.92 205.4L252.43 204.67L253.48 203.65L254.76 203.42L255.66 203.9L256.95 205.04L257.82 205.32L258.51 204.7L258.94 202.74L259.77 200.43L260.78 200.08L262.14 199.63L263.24 199.11L264.17 197.83L264.46 197.01L264.94 195.84L269.51 191.49L270.65 191.19L273.1 191.29L275.27 191.46H277.61L278.74 191.41L279.76 191.12L280.61 190.71L281.43 190.09L282.07 189.33L282.55 188.6L283.84 186.75L285.1 185.4L287.18 187.17L289.41 189.05L290.21 189.64L291.91 190.76L294.07 192.05L295.18 192.75L295.99 193.37L296.95 194.42L297.32 195.2L297.53 196.21L297.55 197.1L297.53 200.19L297.72 202.18L298.6 203.26L297.64 207.82L294.88 214.71V215.68L295.3 216.43L295.91 217.16L299.24 220.58L301.42 218.89L301.93 218.08L302.88 216.13L303.76 214.98L304.57 214.45L305.35 214.78L305.86 215.82L305.97 217.26L305.49 218.06L304.56 219.16L303.77 220.65L303.56 221.65L303.29 225.6L303.42 226.81L305.81 233.92L307.27 234.14L308.48 234.12L310.05 233.73L314.41 229.96L315.67 228.81L317.6 226.9L319.92 224.57L322.16 222.32L321.94 223.07L321.73 224.29L321.74 225.14L322.23 229.5L322.76 230.54L323.53 231.47L323.99 233.11L323.92 234.16L322.06 235.86L320.19 236.7L318.79 237.45L316.67 239.72L315.59 241.52L314.81 242.88L314.17 243.51L312.9 244.52L308.03 248.31L305.32 249.57L304.02 249.61L302.53 251.46L302.14 252.87L302.47 256.4L303.52 258.13L303.17 258.99L299.28 263.32L298.31 264.04L296.67 264.74L296.17 265.31L295.56 266.13L294.44 269.57V271.29L294.61 276.4L293.91 277.11L292.5 282.15L291.93 285.09Z" fill="#C7C7C7" stroke="white" stroke-width="2"/>
<path d="M490.51 274.13L487.99 272.59L481.14 267.08L478.66 264.84L475.42 263.41L468.09 263.27L465.97 263.94L463.79 265.18L463.01 265.53L461.91 265.98L455.87 266.38H453.36L447.67 266.2L444.89 266.04L443.3 265.87L434.96 264.05L433.8 263.59L431.51 264.18L430.18 264.72L429.11 265.35L422.3 267.3L421.47 267.37L418.36 267.36L417.18 266.43L411.67 266.73L402.75 268.6L401.2 269.69L400.45 270.35L397.46 272.15L396.6 272.12L394.93 271.77L391.43 270.19L388.09 265.79L387.72 264.33L387.64 263.33L387.86 261.54L391.31 257.65L395.42 255.55L396.44 254.67L396.78 253.42L396.87 252.28L399.22 246.84L401.11 243.51L401.4 242.64L401.53 241.83L401.74 240.45L401.84 239.1L402.17 237.88L402.75 236.83L404.64 233.98L406.7 234.93L408.52 234.91L409.68 234.25L413.91 232.47L416.24 231.88L418.05 231.99L420.05 232.52L422.72 233.19L423.72 233.42L429.14 233.46L432.02 234.9L435.37 235.89L441.81 235.02L442.62 234.68L444.04 234.04L446.62 232.39L447.52 231.28L448.71 230.98L450.28 230.77L454.39 230.33L461.28 231.97L465.85 233.92L468.14 235.08L469.18 235.87L469.88 236.34L470.71 236.65L471.91 236.92L473.24 236.62L474.02 235.99L474.91 235.45L477.52 235.1L479.14 235.38L495.4 255.54L507.57 270.7L505.94 272.02L504.81 272.59L502.63 273.35L500.99 273.48L498.58 273.51L496.22 273.25L493.66 272.99L492.41 273.21L491.03 273.8L490.51 274.13Z" fill="#C7C7C7" stroke="white" stroke-width="2"/>
<path d="M267.93 76.85L268.81 76.63L276.36 72.45L276.68 71.2L277.04 69.92L281.24 65.65L283.43 63.53L283.72 63.29L283.69 63.53L284.5 65.54L285.82 66.38L286.79 67.3L287.32 68.19L289.53 72.26L289.64 77.98L289.57 80.7L289.35 84.99L288.97 86.79L287.07 88.05L286.18 88.89L285.44 89.84L283.2 94.95L281.47 99.16L278.32 96.49L273.41 93.52L268.35 89.86L268.01 88.09L268.32 86.74L268.55 85.69L268.63 84.48L268.39 83.12L267.61 80.77L268.65 79.82L268.28 78.45L267.65 79.11L267.73 77.67L267.93 76.85Z" fill="#C7C7C7" stroke="white" stroke-width="2"/>
<path d="M327.96 186.66L326.86 187.32L325.29 188.76L324.66 190.27L324.45 191.2L324.46 192.59L324.49 193.85L325.7 197.89L326.44 199.44L327.08 202.67L326.3 209.34L324.59 212.05L322.89 215.95L322.15 222.33L319.91 224.58L317.59 226.91L315.67 228.82L314.41 229.97L310.04 233.75L308.47 234.14L307.26 234.16L305.79 233.94L303.41 226.83L303.27 225.61L303.54 221.66L303.75 220.67L304.53 219.17L305.46 218.07L305.95 217.27L305.84 215.83L305.33 214.79L304.55 214.47L303.74 215L302.85 216.15L301.9 218.1L301.4 218.9L299.22 220.59L295.89 217.18L295.27 216.45L294.86 215.7L294.85 214.73L297.62 207.85L298.58 203.29L297.7 202.21L297.51 200.22L297.53 197.13L297.51 196.23L297.3 195.22L296.92 194.45L295.97 193.4L295.16 192.78L294.05 192.08L291.89 190.79L290.2 189.66L289.4 189.07L287.17 187.19L285.09 185.42L286.89 184.57L287.54 183.83L287.9 182.37L288.25 182.09L289.41 181.69L290.94 181.41L292.93 181.15L293.85 180.05L295.53 176.66L296.64 173.65L296.05 172.67L295.44 170.77L295.07 169.17L295.08 161.69L296.61 160.36L294.4 155.4L293.07 153.29L291.88 152.2L289.51 150.54L288.43 149.93L287.64 149.6L286.79 149.29L284.37 147.76L282.67 145.68L281.28 142.92L280.6 141.32L280.43 140.16L280.54 139.18L280.87 136.94L280.82 135.8L280.66 134.85L280 133.88L278.98 132.65L278.22 131.81L267.59 123.04L264.44 120.78L264.52 119.91L264.38 116.93L264 115.85L262.18 115.06L258.4 110.39L256.39 105.76L254.66 106.18L253.96 106.5L254.41 104.59L255.96 102.6L256.06 100.33L255.43 92.8L257.98 91.6L257.92 89.75L257.2 87.29L258.35 85.51L261.12 82.77L266.1 80.03L267.2 80.16L267.59 80.78L268.38 83.13L268.61 84.5L268.54 85.7L268.31 86.75L268 88.1L268.34 89.86L273.4 93.52L278.31 96.49L281.46 99.16L280.09 103.68L280.49 104.98L282.41 105.89L283.93 106.31L286.13 109.4L285.84 111.01L284.53 111.79L283.3 112.34L282.91 113.43L283.04 116L283.15 116.9L285.08 123.26L285.48 124L286.5 128.38L286.04 131.23L285.98 133.19L288.43 134.27L289.3 134.17L290.21 134.04L292.81 135.81L295.62 138.84L299.75 140.54L301.13 140.52L304.93 142.22L306.69 143.32L309.8 146.11L310.86 147.82L313.11 150.06L318.91 151.96L322.22 152.63L324.32 152.66L324.06 155.47L324.74 156.91L325.79 157.87L326.37 163.08L326.12 166.37L327.3 168.76L327.83 169.62L328.86 173.16L329.31 177.21L329.08 181.79L327.96 186.66ZM267.65 79.11L266.93 78.82L267.1 76.9L267.93 76.84L267.73 77.65L267.65 79.11Z" fill="#C7C7C7" stroke="white" stroke-width="2"/>
<path d="M380.53 238.98H383.05L385.79 238.89L386.77 238.57L387.98 237.5L388.57 236.38L389.23 235.01L393.37 232.65L394.22 232.34L395.29 232.44L396.66 232.81L397.81 232.84L398.61 232.47L399.41 231.82L401.94 233.71L404.64 233.98L402.75 236.83L402.17 237.88L401.84 239.1L401.74 240.45L401.53 241.83L401.4 242.64L401.11 243.51L399.22 246.84L396.87 252.28L396.78 253.42L396.44 254.67L395.42 255.55L391.31 257.65L387.86 261.54L387.53 261.77L386.31 262.97L385.68 264.01L385.38 265.07L385.28 266.23L385.04 271.43L387.11 273.66L385.95 278.57L385.38 279.19L384.7 282L389.17 283.92L391.11 287.23L391.16 288.19L389.34 292.63L386.03 294L385.26 293.53L384.41 293.86L383.78 294.46L383.01 295.54L382.26 296.66L381.15 298.24L380.4 299.15L375.02 303.04L371 303.59L369.74 302.17L367.67 300.65L362.47 307.12L361.35 310.26L361.76 311.09L363.85 312.99L364.29 313.92L364.15 314.73L362.98 316.04L361.73 316.75L360.33 317.06L359.27 317.94L358.55 319.13L357.21 323.6L356.96 324.64L357.09 325.47L358.4 327.67L356.66 330.59L354.87 330.82L352.79 330.47L351.86 329.96L351.29 329.18L349.97 327.5L347.41 325.7L346.44 325.23L345.59 324.94L344.34 324.46L343.35 324.04L342.12 323.27L339.71 321.67L338.33 320.35L338.02 319.17L338.73 316.45L339.38 315.41L340.88 313.81L340.17 309.74L339.37 308.12L338.59 306.71L336.8 301.02L333.95 297.62L331.04 296.87L327.83 293.7L326.12 294.08L324.13 295.48L323.57 296.97L323.5 298.17L321.7 300.07L320.85 300.88L320.08 301.26L318.66 301.82L317.69 301.75L312.34 297.76L309.58 296.8L306.09 292.35L305.67 290.82L306.83 289.49L307.61 288.45L306.93 284.51L305.85 283.27L304.19 284.53L301.86 285.64L300.29 285.38L298.46 284.83L293.44 285.89L292.7 286.5L292.68 285.91L291.93 285.09L292.5 282.15L293.91 277.11L294.61 276.4L294.44 271.29V269.57L295.56 266.13L296.17 265.31L296.67 264.74L298.06 266.37L300.23 269.88L301.82 272.26L303.24 273.56L304.41 273.9L305.19 273.56L305.94 273.15L307.02 272.82L308.07 273.2L309.97 277.25L313.69 280.7L318.16 283.2L318.85 283.87L319.62 285.9L320.43 286.57L325.34 285.36L330.75 284.74L332.06 285.78L333.31 286.61L334.31 285.94L335 283.56L335.17 282.7L335.96 277.96L338.4 272.05L339.67 270.34L344.49 272.88L345.28 273.62L345.68 274.57L345.76 275.69L345.66 276.59L345.35 277.71L344.25 279.78L344.09 280.8L344.36 282.49L344.98 283.68L345.87 284.37L347.25 284.76L348.49 284.62L350.79 283.54L351.49 282.79L351.66 281.8L351.15 280.37L351.32 279.15L351.98 278.42L353.1 277.87L353.98 277.64L355.15 277.51L356.27 277.73L358.86 278.14L361.87 275.17L369.51 265.72L370.61 263.7L371.23 261.98L371.12 259.9L370.48 258.71L369.83 257.68L369.54 256.24L369.57 252.1L370.78 251.91L373.15 253.38L373.68 254.56L374.44 257.29L376.6 257.22L377.56 257.01L378.35 256.54L379.02 255.74L379.49 254.79L381.4 249.28L381.65 248.19L381.72 246.98L381.25 240.94L380.84 239.66L380.53 238.98Z" fill="#C7C7C7" stroke="white" stroke-width="2"/>
<path d="M234.04 479.05L233.59 480.09L229.32 481.66L228.17 481.91L222.91 481.87L221.55 481.68L220.63 481.38L215.98 479.45L214.97 478.34L213.89 476.1L214.4 472.11L214.66 471.3L215.07 470.58L215.52 469.69L215.48 468.86L215.03 467.71L213.45 464.62L212.34 463.62L210.56 463.46L209.36 464.18L208.26 465.98L206.77 467.16L205.58 467.45L202.7 468.01L203.81 466.04L204.7 458.87L204.59 457.78L203.73 456.56L195.94 451.75L195.11 451.84L193.52 452.42L192.61 452.62L186.89 453.04L185.32 453.05L184.06 452.89L184.46 447.39L184.93 446.67L186.16 445.4L187.1 444.93L188.04 443.53L188.4 442.53L187.32 441.55L185.58 440.01L182.21 435.89L180.4 432.84L179.75 431.92L178.99 431.52L174.61 432.01L172.69 432.06H171.84L169.63 431.76L168.45 431.49L167.6 431.21L166.51 430.62L164.82 429.21L164.31 428.33L162.73 424.88L161.31 422.35L158.92 418.79L157.81 417.38L157.3 416.49L156.88 415.5L156.77 414.75L156.93 413.1L158.32 415.01L158.58 416.09L160.07 416.83L163.1 416.44L164.84 414.76L164.05 413.44L163.37 408.78L166.13 404.26L172.23 396.73L172.99 396.35L178.35 388.11L178.73 386.98L180.13 388.57L181.96 391.21L188.49 395.97L195.87 396.65L196.8 395.33L199.21 396.48L201.65 399.21L207.15 396.43L210.85 394.21L212.7 394L217.71 391.78L218.65 390.03L218.55 388.4L217.86 387.48L218.79 385.88L220.74 385.65L224.24 386.3L225.74 387.09L226.78 387.73L228.05 388.45L229.8 389.22L231.27 389.75L233.02 389.98L233.08 390.68L232.89 392.05L232.81 393.05L233.28 393.86L234.43 395.51L235.65 397.65L236.25 398.95L236.81 399.74L239.4 407.37L241.47 411.88L242.57 413.6L243.18 414.67L244.91 419.06L245.36 420.3L245.51 421.17L242.42 421.97L241.62 421.75L239.64 420.11L237.84 418.95L236.04 418.37L234.71 419.17L233.87 420.33L232.64 422.01L231.87 422.69L230.83 423.13L229.62 423.3L227.6 422.75L226.71 422.67L225.76 423.19L221.74 427.73L221.62 428.55L222.37 430.82L222.77 431.77L223.22 432.69L223.56 434.06V435.28L222.94 435.82L221.82 436.12L220.18 436.02L218.5 435.45L217.27 434.78L215.9 434.16L214.56 433.87L212.77 434.27L211.57 435.12L211.53 437.21L212.11 443.61L212.92 444.55L213.85 444.59L215.23 444.54L217.13 445.37L218.93 447.91L219.16 449.17L219.01 450.68L218.83 452.13L219.27 453.1L222.29 455.96L226.61 458.66L227.46 458.96L228.49 458.91L230.48 458.45L230.5 460.21L228.53 464.37L227.12 466.92L225.73 468.28L225.49 469.56L226.24 473.8L228.65 475.37L231.1 476.23L232.18 476.81L234.04 479.05Z" fill="#C7C7C7" stroke="white" stroke-width="2"/>
<path d="M327.96 186.66L329.08 181.78L329.31 177.2L328.86 173.15L327.83 169.61L327.31 168.75L326.13 166.36L326.38 163.07L325.81 157.86L324.76 156.89L324.08 155.46L324.34 152.65L324.73 151.98L326.14 149.95L327 148.41L326.14 147.04L324.89 145.73L323.68 144.66L321.52 139.98L321.17 138.75L320.34 137.36L318.4 134.33L317.86 133.53L316.64 132.44L315.31 131.9L314.44 131.12L317.05 127.58L318.21 126.94L322.6 127.18L328.07 126.86L325.82 120.45L320.91 113.58L316.17 107.3L317.17 103.47L317.55 102.38L321.44 95.7L323.68 94.47L324.52 94.19L330.03 92.11L338.15 88.21L337.65 86.77L336.1 85.24L335.79 84.11L335.76 83.27L335.87 82.4L336.44 81.45L337.27 79.47L335.79 77.75L334.21 76.03L333.65 75.2L333.46 73.94L333.74 73.02L334.51 71.99L335.22 73.11L335.93 73.84L337.12 74.16L338.17 74.26L341.83 74.32L345.11 74.3L347.03 74.21L348.27 74.42L349.7 75.3L356.58 82.69L357.19 84.27L356.73 87.09L356.23 88.16L354.93 88.73L352.66 91.6L354.94 93.15L356.35 93.07L357.79 92.81L358.7 92.56L360.32 92.21L361.59 92.1L363.7 92.3L364.18 92.42L363.92 95.59L362.93 105.33L362.2 106.76L361.34 110.09L360.97 114.12L360.22 119.8L357.05 126.4L355.57 128.39L350.31 134.74L345.42 142.32L344.83 144.58L344.58 144.97L344.17 145.81L343.66 147.1L343.47 147.92L342.49 154.62L342.34 157.74L342.7 159.84L342.79 162.28L342.2 163.79L341.55 164.62L340.17 165.96L339.6 166.95L339.29 168L338.96 170.99L340.7 177.82L341.17 178.85L342.32 179.2L343.48 178.24L343.53 177.1L343.47 176.2L343.32 174.86L343.86 174.11L345.3 174L346.23 174.43L346.67 175.19L346.86 176.11L346.89 177.46L346.78 179.39L346.44 181.08L345.27 181.8L344.35 181.92L343.71 182.65V183.63L344.31 185.1L345.86 187.25L346.81 189.25L347.24 190.42L348.21 194.35L347.97 195.76L345.46 200.99L344.46 202.56L343.38 203.57L341.61 204.5L340.45 204.79L335.96 205.34L335.76 204.82L334.7 203.86L332.95 203.72L330.42 203.55L329.88 202.46L330.26 200.97L331.22 199.53L332.03 198.22L332.34 196.53L330.93 192.52L330.12 190.73L328.51 187.65L327.96 186.66Z" fill="#C7C7C7" stroke="white" stroke-width="2"/>
<path d="M180.45 165.15L181.26 165.68L183.18 169.15L183.82 171.71L185.62 173.86L186.48 174.42L187.33 174.73L188.8 175.12L190.01 176.11L190.65 177.1L192.18 179.59L196.84 183.22L197.38 185.22L197.67 186.5L200.18 188.05L202.21 187.57L200.97 189.49L199.58 189.91L198.48 190.24L196.12 191.91L195.59 192.66L195.15 194.84L194.92 196.3L194.31 197.83L193.43 198.79L192.47 199.38L190.98 199.83L191.54 203.63L194.61 204.31L195.89 205.91L198.37 208.72L199.18 209.59L200.06 210.51L207.64 218.23L210.13 220.23L211.03 220.69L212.58 221.11L214.65 223.92L215.25 224.84L215.81 226.19L216.22 227.86L215.05 234.88L214.29 235.3L213.46 235.07L212.05 234.36L209.11 233.76L203.25 233.98L202.58 234.99L203.33 236.7L203.85 238.12L203.76 239.63L201.83 241.24L200.35 240.71L198.79 240.6L196.52 241.36L196.91 246.78L199.01 248.12L199.89 248.94L203.55 256.71L203.84 258.25L203.85 261.63L203.83 262.72L204.12 263.68L207.51 268.44L211.84 268.63L212.74 268.52L213.93 268.15L223.5 266.46L224.46 266.6L226.34 267.61L226.94 268.31L227.15 271.16L227.2 272.47L227.35 273.72L227.96 275.38L228.7 276.04L229.55 276.33L231.92 276.79L231.7 279.95L231.07 281.15L230.9 282.12L231.07 283.11L231.5 284.19L232.12 285.33L232.75 286.87L232.99 288.05L232.88 289.31L232.14 290.95L232.49 291.97L234.43 294.44L235.3 295.42L236.86 296.87L236.07 297.12L235.09 297.49L233.73 298L226.95 301.22L226.18 301.72L222.72 305.32L222.98 306.57L226.89 315.11L227.35 315.85L228.08 316.61L228.89 317.13L229.81 317.61L230.49 317.86L230.4 318.51L230.14 319.53L229.6 320.72L228.82 321.28L227.86 321.7L227.01 322.2L222.39 325.99L221.81 326.66L221.35 327.64L218.34 334.49L215.25 340.22L214.73 340.99L214.51 341.95L214.43 342.85L214.6 344.67L214.85 345.82L215.1 346.63L215.44 347.42L216.44 348.61L218.29 350.44L217.73 351.91L213.12 355.6L206.73 357.63L205.62 357.78L204.48 357.71L203.58 357.35L200.64 355.53L194.94 353.63L190.82 350.11L189.49 349.56L188.54 349.61L186.96 350L186.21 349.4L185.29 347.67L185.53 347.03L183.57 346.61L181.61 346.68L179.75 343.69L181.22 339.55L181.39 339.28L181.73 338.39L182.6 335.29L182.45 331.12L182.24 328.19L181.5 324.21L181.17 323.14L180.94 322.11L180.6 319.11L180.17 313.27L180.21 310.31L180.93 308.34L181.17 306.79L180.67 304.41L179.15 297.92L175.69 295.95L173.57 295.35L174.71 292.66L178.17 291.02L179.74 291.28L180.7 291.84L182.03 291.34L185.18 287.53L185.58 285.51L185.41 284.27L181.54 276.07L178.69 272.24L176.78 270.18L175.9 269.04L175.36 267.93L175.9 263.91L178.72 265.69L179.63 263.97L180.84 259.45L181.48 252.2L178.69 247.12L177.22 246.24L176.28 246.14L168.04 239.45L168.6 235.3L168.46 234.33L167.45 232.06L162.81 228.1L158.84 224.92L162.23 214.61L163.54 214.74L164.66 214.37L165.34 213.48L165.8 212.22L165.45 210.88L164.41 209.09L164.22 208.22L164.21 206.82L164.23 205.75L164.84 204.64L168.14 206.32L169.78 209.46L170.35 211.15L170.77 212.11L171.71 212.65L181.87 205.4L181.91 204.39L180.26 202.23L182.68 197.75L183.35 197.01L186.63 195.67L187.34 193.1L186.64 189.44L185.47 187.07L184.25 184.86L183.32 184.15L181.14 182L180.58 181.29L180.35 179.13L180.33 178.01L180.07 176.58L178.8 174.4L177.84 173.52L176.21 173.55L175.91 171.5L176.88 170.02L177.44 169.62L180.19 166.33L180.45 165.15ZM179.1 344.55L180.05 345.09L180.88 346.98L182.38 347.44L181.83 347.94L174.94 349.16L172.95 349.71L173.36 348.22L177.7 344.15L178.12 344.04L178.64 344.23L179.1 344.55Z" fill="#C7C7C7" stroke="white" stroke-width="2"/>
<path d="M261.55 324.44L258.24 321.58L256.56 320.54L255.71 320.49L252.52 320.32L248.23 318.76L243.63 319.84L242.17 319.85L241.28 319.12L239.64 314.69L240.24 313.28L244.74 309.1L248.82 306.79L250.26 305.12L251.23 303.23L247.76 300.76L244.95 301.4L243.36 302.19L242.27 302.54L241.57 301.64L241.83 297.04L244.89 295.42L246.01 295.13L248.32 294.84L250.17 295.02L252.78 295.28L253.48 294.76L253.31 291.75L252.7 287.93L252.76 286.75L254.12 286.95L255.7 287.46L262.15 289.37L266.58 289.71L267.42 290.06L268.77 291.31L270.15 292.37L271.42 292.95L275.41 290.16L276.12 289.15L277.16 287.79L279.11 287.33L284.42 286.73L290.74 284.89L291.93 285.09L292.68 285.91L292.7 286.5L292.39 287.04L291.67 295.95L291.96 297.79L290.69 301.02L290.11 302.18L289.48 303.24L288.37 304.81L288.34 304.78L287.44 304.46L285.83 304.05L284.11 303.94H281.62L280.69 304.13L277.78 304.83L276.68 305.42L275.42 306.42L274.44 307.42L274.03 308.14L273.52 309.33L272.82 309.78L269.11 310.16H267.71L266.38 310.36L265.23 311.65L264.94 312.49L263.18 318.92L263.69 320.06L264.43 321.03L264.41 321.94L263.76 322.71L261.55 324.44Z" fill="#C7C7C7" stroke="white" stroke-width="2"/>
<path d="M285.1 185.4L283.84 186.75L282.55 188.6L282.07 189.33L281.43 190.09L280.61 190.71L279.76 191.12L278.74 191.41L277.61 191.46H275.27L273.1 191.29L270.65 191.19L269.51 191.49L264.94 195.84L264.46 197.01L264.17 197.83L263.24 199.11L262.14 199.63L260.78 200.08L259.77 200.43L258.94 202.74L258.51 204.7L257.82 205.32L256.95 205.04L255.66 203.9L254.76 203.42L253.48 203.65L252.43 204.67L251.92 205.4L250.72 207.44L250.19 210.5L243.28 219.07L242 219.39L239.01 219.24L237 219.21L228.95 219.26L226.13 219.37L225.22 219.47L223.99 219.52L222.58 219.29L218.7 214.25L217.14 211.86L216.53 210.74L216.19 209.59L215.85 208.1L215.52 205.94L215.46 205.01L215.48 203.55L215.86 199.28L216.64 197.95L217.62 196.99L219.19 195.43L219.66 193.82L219.75 191.74L219.89 190.61L220.25 188.45L220.56 187.03L221.03 185.61L222.02 183.55L223.05 182.36L225.01 180.36L225.82 179.79L227.01 178.61L227.76 177.74L228.39 176.66L228.73 175.58L228.93 174.21L229 172.86L229.03 171.09L228.84 170.04L228.23 169.31L226.76 168.57L225.69 168.15L224.49 167.53L223.56 166.95L222.77 166.21L222.18 165.45L221.6 164.38L221.04 162.36L220.82 161.08L220.7 159.99L220.68 158.49L220.6 157.65L220.31 156.84L219.89 156.11L219.19 155.56L219.51 155.55L220.33 155.39L221.38 155.16L223.69 154.23L225.89 151.88L229.33 143.73L229.66 141.91L232.22 138.6L233.08 137.76L233.83 137.35L240.13 134.17L244.36 133.49L248.1 134.21L248.78 135.62L249.46 136.52L250.21 137.34L250.98 137.99L256.29 141.47L260.12 145.46L260.9 146.12L264.03 146.89L264.88 147.24L265.69 147.69L268.12 149.78L269.68 154.03L269.73 155.07L269.19 157.6L267.94 157.1L266.6 157.23L264.83 157.48L261.66 158.68L261.6 159.84L264 166.09L265.18 173.13L266.38 173.48L268.02 172.93L268.91 172.8L269.92 173.39L270.08 175.62L270.32 177.33L273.42 176.5L275.77 174.88L276.58 174.08L277.7 172.86L283.53 175.3L286.51 177.96L286.69 179.54L286.97 181.09L287.9 182.34L287.54 183.81L286.89 184.55L285.1 185.4Z" fill="#C7C7C7" stroke="white" stroke-width="2"/>
<path d="M400.23 494.11L401.03 494.8L403.8 498L406.54 502.78L407.98 507.19L410.57 507.85L413.57 510.58L416.84 512.65L420.65 514.75L421.56 514.5L421.95 514.08L422.17 515.72L421.67 516.9L420.06 518.8L415.97 523.14L412.53 525.96L411.79 526.93L411.33 527.77L410.81 528.78L410.43 529.57L409.87 530.54L409.07 531.74L407.54 532.85L405.74 532.74L403.34 532.09L402.22 531.86L401.09 531.88L400.01 532.39L394.5 537.7L393.66 538.63L393.17 539.39L392.48 540.79L391.74 542.78L391.45 543.62L391.58 545.94L390.28 547.03L389.27 547.51H388.37L385.3 546.02L384.82 544.62L383.14 544.75L379.74 548.36L378.98 549.82L377.76 549.75L374.09 547.55L372.55 545.79L371.32 544.31L369.27 544.6L368.05 545.84L367.03 546.14L365.77 546.19L364.67 546.14L363.53 545.83L363.02 544.79L362 543.55L361.07 543H359.57L358.29 544.33L357.91 545.22L357.25 546.4L352.64 546.78L351.16 546.1L350.4 545.54L347.6 543.42L344.98 543.44L340.92 543.55L337.16 543.12L335.35 540.4L332.55 538.64L331.62 538.16L329.39 538.2L325.98 538L322.47 537.15L320.99 536.63L318.24 535.14L316.26 533.17L314.83 531.67L311.76 530.82L308.19 528.79L307.4 527.7L305.54 526.26L301.18 524.93L300.51 525.53L300.66 526.36L299.87 527.09L294.99 526.18L291.75 524.24L290.85 521.02L291.75 520.29L292.38 519.62L290.82 515.11L290.16 514.06L289.35 513.45L284.92 512.82L283.67 512.53L279.33 510.71L278.29 505.96L278.84 504.85L278.95 504.03L278.43 502.95L277.78 502.32L273.87 500.51L272.72 501.26L271.47 501.97L270.31 501.71L269.04 499.09L268.89 497.83L269.27 496.41L267.64 492.01L266.47 491.11L264.82 490.71L263.65 491.07L262.84 491.24L260.63 491.39L257.19 490.47L256.25 489.52L255.71 488.2L251.9 486.06L250.15 486.7L247.32 487.12L243.56 485.76L240.79 482.71L240.32 481.87L240.46 480.42L239.47 479.17L234.62 478.82L234.04 479.05L232.18 476.81L231.1 476.23L228.65 475.37L226.24 473.8L225.49 469.56L225.73 468.28L227.12 466.92L228.53 464.37L230.5 460.21L230.48 458.45L231.02 458.15L235.33 457.81L236.98 457.69H238.33L239.66 456.74L247.51 446.59L251.81 441.54L255.27 436.91L256.04 434.55L262.61 426.81L264.43 425.25L266.14 422.06L266.56 419.77L266.91 418.39L267.44 417.58L268.77 416.34L270.25 416.73L271.07 417.06L272.28 416.75L276.65 413.18L278.51 410.86L278.27 409.55L277.77 408.66L276.98 407.46L276.88 405.92L277.41 404.75L280.52 400.86L280.77 400.55L284.48 401.47L286.14 401.95L287.01 402.31L287.87 402.77L291.93 405.6L292.78 406.22L293.65 407.06L294.15 407.73L294.64 408.88L294.75 409.75L294.66 410.72L294.36 411.8L293.84 412.9L292.89 414.02L292.31 414.6L291.06 416.38L290.72 417.52L291.34 425.55L291.54 426.59L292.39 429.03L293.09 430.62L293.4 431.69L293.8 434.49L293.76 435.83L293.74 437.52L293.8 438.36L294.07 439.53L295.49 442.07L296.84 443.75L298.09 445.21L299.33 446.05L301.24 446.83L303 447.2L304.28 447.45L305.27 447.57L306.33 447.66L307.63 447.87L310.15 448.49L312.78 451.08L313.79 452.69L318.86 456.35L320.17 456.59L322.21 456.35L323.31 456.16L325.22 455.43L326.66 454.97L329.75 454.07L331.08 453.88L332.18 453.96L333.54 454.44L333.48 454.8L333.42 456.31L333.79 458.46L334.57 459.72L337.77 463.67L339.52 465.15L341 466.83L342.48 469.98L342.74 471.19L342.8 472.53L343.47 473.74L344.26 474.58L345.08 475.37L346.51 476.38L347.59 477.07L348.84 477.92L352.51 481.03L353.28 482.34L356.44 483.67L357.93 483.78L358.91 483.56L365.26 478.79L365.77 477.95L365.3 477.05L365.14 476.08L366.64 473.86L368.52 472.96L372.09 472.28L374.79 472.96L375.66 474.37L379.1 476.63L379.94 476.87L381.51 476.57L384.03 479.02L389.02 485.64L390.07 488.41L391.9 491.95L392.78 491.68L393.7 491.27L397.57 492.62L399.51 494.13L400.23 494.11Z" fill="#C7C7C7" stroke="white" stroke-width="2"/>
<path d="M358.4 327.67L357.09 325.47L356.96 324.64L357.21 323.6L358.55 319.13L359.27 317.94L360.33 317.06L361.73 316.75L362.98 316.04L364.15 314.73L364.29 313.92L363.85 312.99L361.76 311.09L361.35 310.26L362.47 307.12L367.67 300.65L369.74 302.17L371 303.59L375.02 303.04L380.4 299.15L381.15 298.24L382.26 296.66L383.01 295.54L383.78 294.46L384.41 293.86L385.26 293.53L386.03 294L389.34 292.63L391.16 288.19L391.11 287.23L389.17 283.92L384.7 282L385.38 279.19L385.95 278.57L387.11 273.66L385.04 271.43L385.28 266.23L385.38 265.07L385.68 264.01L386.31 262.97L387.53 261.77L387.86 261.54L387.64 263.33L387.72 264.33L388.09 265.79L391.43 270.19L394.93 271.77L396.6 272.12L397.46 272.15L400.45 270.35L401.2 269.69L402.75 268.6L411.67 266.73L417.18 266.43L418.36 267.36L421.47 267.37L422.3 267.3L429.11 265.35L430.18 264.72L431.51 264.18L433.8 263.59L434.96 264.05L443.3 265.87L444.89 266.04L447.67 266.2L453.36 266.38H455.87L461.91 265.98L463.01 265.53L463.79 265.18L465.97 263.94L468.09 263.27L475.42 263.41L478.66 264.84L481.14 267.08L487.99 272.59L490.51 274.13L490.01 274.48L488.66 276.11L488.04 277.05L487.03 279.19L486.47 280.93L485.46 283.65L481.2 289.25L480.13 290.45L477.2 292.32L476.14 292.66L473.66 293.26L472.71 293.43L470.68 293.37L469.57 293.5L465.72 295.01L458.25 299.45L457.38 300L456.23 300.76L455.8 301.82V302.66L455.72 303.51L449.2 309.51L448.02 310.21L446.3 311.04L441.8 318.64L441.05 319.61L440.14 320.38L439.44 320.82L439.04 321.26L435.73 323.3L434.2 324.17L432.62 324.69L431.47 324.79L428.9 325.73L427.92 326.15L419.78 329.85L417.01 331.9L416.21 332.37L415.01 332.86L411.4 334.08L407.04 336.86L406.16 337.83L402.6 340.61L400 341.8L398.81 341.7L397.91 340.71L397.05 339.87L395.78 339.45L392.03 339.89L388.58 341.19L387.41 342.73L386.73 343.35L385.23 344.26L381.43 344.81L377.16 345.28L371.83 345.75L371.02 345.02L363.92 337.32L361.9 334.55L361.44 333.06L361.01 331.95L359.77 330.22L358.4 328.49V327.67Z" fill="#C7C7C7" stroke="white" stroke-width="2"/>
<path d="M288.34 304.78L288.37 304.81L289.48 303.24L290.11 302.18L290.69 301.02L291.96 297.79L291.67 295.95L292.39 287.04L292.7 286.5L293.44 285.89L298.46 284.83L300.29 285.38L301.86 285.64L304.19 284.53L305.85 283.27L306.93 284.51L307.61 288.45L306.83 289.49L305.67 290.82L306.09 292.35L309.58 296.8L312.34 297.76L317.69 301.75L318.66 301.82L320.08 301.26L320.85 300.88L321.7 300.07L323.5 298.17L323.57 296.97L324.13 295.48L326.12 294.08L327.83 293.7L331.04 296.87L333.95 297.62L336.8 301.02L338.59 306.71L339.37 308.12L340.17 309.74L340.88 313.81L339.38 315.41L338.73 316.45L338.02 319.17L338.33 320.35L339.71 321.67L342.12 323.27L343.35 324.04L344.34 324.46L345.59 324.94L346.44 325.23L347.41 325.7L349.97 327.5L351.29 329.18L351.86 329.96L352.79 330.47L354.87 330.82L356.66 330.59L358.4 327.67V328.49L358.09 329.39L357.37 333.25L355.19 345.17L351.91 346.88L345.19 345.19L343.09 345.72L342.06 346.4L341.17 346.59L339.11 346.14L338.19 345.37L337.37 343.09L337.17 342.15L336.94 340.71L336.42 339.27L335.62 338.63L334.49 338.05L329.27 336.72L327.97 337.71L326.5 339.96L325.9 341.46L326.63 342.43L327.84 342.73L329.61 346.44L329.78 347.36V349.42L328.68 349.98L327.75 349.97L326.02 350.03L319.35 353.43L318.57 354.04L317.71 354.91L316.82 355.61L315.05 356.73L314.07 357.08L313.01 357.16L312.94 354.57L314.13 349.74L315 345.42L315.28 341.33L315.51 340.29L316.02 339.09L316.39 338.33L317.16 337.11L318.16 336.14L318.93 335.21L319.69 333.98L319.81 327.11L319.48 325.14L317.36 324.02L316.34 324.19L312.01 331.68L310.62 341.27L310.83 344.13L311.25 346.76L311.05 348.26L308.85 353.62L307.8 354.01L305.73 354.08L303.41 357.34L303.52 360.15L302.69 363.32L302.33 364.08L301.08 366.24L299.78 368.04L298.77 368.87L298.88 368.65L299.33 367.42L299.19 366.47L297.56 365.57L296.96 364.81L296.91 364.55L297.94 361.98L298.05 360.73L298.2 356L299.57 353.21L299.53 351.97L299.11 351.01L297.75 348.96L296.77 347.83L295.62 347.49L294.16 347.98L293.18 349.55L292.01 350.08L291 349.97L282.99 346.88L282.17 346.23L282.84 344.41L285.73 338.94L286.45 336.74L285.94 335.59L285.67 334.09L285.5 332.77L285.08 328.3L287.28 323.52L289.09 311.97L288.51 305.23L288.34 304.78Z" fill="#C7C7C7" stroke="white" stroke-width="2"/>
<path d="M298.77 368.87L299.78 368.04L301.08 366.24L302.33 364.08L302.69 363.32L303.52 360.15L303.41 357.34L305.73 354.08L307.8 354.01L308.85 353.62L311.05 348.26L311.25 346.76L310.83 344.13L310.62 341.27L312.01 331.68L316.34 324.19L317.36 324.02L319.48 325.14L319.81 327.11L319.69 333.98L318.93 335.21L318.16 336.14L317.16 337.11L316.39 338.33L316.02 339.09L315.51 340.29L315.28 341.33L315 345.42L314.13 349.74L312.94 354.57L313.01 357.16L311.51 357.09L310.28 357.35L309.24 358.13L303.36 364.54L302.61 365.84L302.02 367.33L301.16 369.23L300.48 369.98L299.65 370.15L298.88 369.73L298.77 368.87Z" fill="#C7C7C7" stroke="white" stroke-width="2"/>
<path d="M578.49 355.85L579.14 359.02L579.64 361.01L581.51 366.08L582.3 367.67L582.97 368.42L583.91 368.76L585.36 368.59L586.6 368.53L587.45 369.09L589.68 372.21L590.04 373.86L591.39 377.78L591.98 378.87L592.73 379.4L593.61 379.67L595.06 380.23L595.62 382.56L593.41 385.93L592.45 386.3L589.74 388.39L587.08 390.98L580.63 397.04L573.36 403.85L573.75 405.88L576.13 405.66L581.54 406.61L582.72 407.27L583.39 408.46L585.63 411.91L587.68 413L594.29 420.35L596.09 421.79L597.06 422.2L598.64 422.85L599.76 423.69L600.51 425.99L600.08 426.82L599.14 427.69L598.75 428.5L598.97 429.79L599.5 431.27L600.47 433.49L601.07 434.34L603.02 438.68L608.03 452.23L610.72 461.9L611.85 469.09L612.16 470.43L612.84 471.47L613.03 471.68L612.42 471.67L606.34 473.25L604.59 473.66L604.22 472.79L604.07 469.82V469L604.38 464.95L604.65 463.75L605.07 462.78L605.35 459.43L604.76 455.32L603.01 450.63L601.06 447.2L599.18 444.86L598.29 444.2L596.78 441.95L594.96 438.43L594.51 437.19L594.28 436.15L593.69 435.14L590.28 433.92L586.84 435.39L584.37 437.02L583.54 437.6L580.23 440.86L579.79 442.36L579.37 443.07L575.91 447.19L574.24 448.61L571.73 449.8L569.99 450.21L568.88 450.32L567.81 450.18L566.86 449.86L566.06 449.26L565.02 447.91L563.78 445.78L563.38 445.01L562.83 442.76L562.16 441.75L561.37 441.26L559.29 440.69H558.38L557.14 442.49L556.71 443.47L555.88 445.8L556.88 448.97L557.76 449.12L558.95 449.34L560.17 451.07L532.32 450.99L521.02 450.93L515.37 450.91H509.91L508.77 450.24L506.34 449.59L502.44 448.62L496.39 450.21L492.91 451.75L490.4 451.63L489.03 450.51L485.25 449.59L484.11 449.42L482.83 449.34L481.64 448.93L480.02 447.66L477.95 445.88L476.98 444.51L476.7 440.79L477.69 440.3L478.32 439.37L477.81 437L477.7 436.77L478.36 435.43L480.7 433.71L481.73 433.13L483.97 430.46L482.64 428.21L480.79 427.34L479.03 428.37L471.33 429.82L463.94 429.89L457.75 426.98L456.61 424.65L455.4 421.93L452.28 418.06L449.66 418.04L448.78 416.87L450.7 415.22L452.86 413.88L455.9 412.08L457.2 411.26L462.57 407.65L463.4 406.46L465.37 406.11L467.3 405.6L468.34 405.14L471.42 400.92L471.32 399.65L471.01 397.91L471.3 394.65L473.36 391.18L475.05 390.74L476.69 390.73L478.49 390.41L478.22 387.38L477.56 386.42L476.96 385.07L478.31 383.29L481.7 382.08L482.85 382.76H484.89L489.76 378.48L494.29 376.71L496.21 376.39L498.77 375.14L500.3 373.64L500.4 372.63L500.13 371.21L500.96 370.32L504.73 370.11L506.78 371.17L509.52 370.8L510.67 369.82L514.1 369.33L515.91 370.09L517 370.98L517.25 372.36L523.51 371.13L528.39 370.09L530.57 371.02L532.52 369.33L534.73 367.18L537.3 366.44L539.3 366.61L542.24 366.81L544.27 366.16L544.98 364.82L545.49 364.16L551.22 359.11L552.12 358.66L559.27 357.83H564.69L568.05 359.48L568.64 360.27L568.73 361.34L569.47 361.97L571.47 360.49L572.84 359L573.8 357.81L574.57 357.26L577.57 356.14L578.49 355.85Z" fill="#C7C7C7" stroke="white" stroke-width="2"/>
<path d="M477.7 436.77L476.66 436.73L469.18 439.6L456.69 443.03L454.52 443.24L452.21 443.2L447.54 442.82L442.15 447.01L441.26 447.44L439.39 447.37L438.14 447.63L434.11 450.12L431.33 453.85L426.25 459.57L423.4 461.54L422.71 462.72L420.22 468.92L420.29 469.99L420.46 471.13L420.44 473.33L417.36 477.55L414.74 480.1L413.74 480.22L412.38 480.54L411.07 481.55L410.52 482.38L410.16 483.63L409.91 484.75L406.32 488.13L401.03 493.18L400.3 493.99L400.23 494.11L399.51 494.13L397.57 492.62L393.7 491.27L392.78 491.68L391.9 491.95L390.07 488.41L389.02 485.64L384.03 479.02L381.51 476.57L379.94 476.87L379.1 476.63L375.66 474.37L374.79 472.96L372.09 472.28L368.52 472.96L366.64 473.86L365.14 476.08L365.3 477.05L365.77 477.95L365.26 478.79L358.91 483.56L357.93 483.78L356.44 483.67L353.28 482.34L352.51 481.03L348.84 477.92L347.59 477.07L346.51 476.38L345.08 475.37L344.26 474.58L343.47 473.74L342.8 472.53L342.74 471.19L342.48 469.98L341 466.83L339.52 465.15L337.77 463.67L334.57 459.72L333.79 458.46L333.42 456.31L333.48 454.8L333.54 454.44L333.53 453.23L333.65 443.39L333.67 442.07L334.13 427.99L335.23 424.31L344.2 425.45L347.28 425.09L353.33 423.75L361.01 421.14L362.65 419.14L363.92 416.32L364.59 415.71L366.07 415.05L367.28 414.74L369 415.73L376.84 413.82L378.07 411.99L379.98 410.24L386.99 406.66L398.03 405.65L401.57 406.36L409.76 405.11L412.39 404.36L417.97 404.67L425.48 404.56L430.45 403.44L435.03 403.41H437.03L439.03 403.61L439.57 403.99L439.87 406.13L443.59 405.46L448.14 406.81L450.49 408.08L454.69 408.29L455.82 407.28L456.24 405.51L456.87 404.52L459.54 405.51L461.64 406.45L462.71 406.78L463.4 406.46L462.57 407.65L457.2 411.26L455.9 412.08L452.86 413.88L450.7 415.22L448.78 416.87L449.66 418.04L452.28 418.06L455.4 421.93L456.61 424.65L457.75 426.98L463.94 429.89L471.33 429.82L479.03 428.37L480.79 427.34L482.64 428.21L483.97 430.46L481.73 433.13L480.7 433.71L478.36 435.43L477.7 436.77Z" fill="#C7C7C7" stroke="white" stroke-width="2"/>
<path d="M230.48 458.45L228.49 458.91L227.46 458.96L226.61 458.66L222.29 455.96L219.27 453.1L218.83 452.13L219.01 450.68L219.16 449.17L218.93 447.91L217.13 445.37L215.23 444.54L213.85 444.59L212.92 444.55L212.11 443.61L211.53 437.21L211.57 435.12L212.77 434.27L214.56 433.87L215.9 434.16L217.27 434.78L218.5 435.45L220.18 436.02L221.82 436.12L222.94 435.82L223.56 435.28V434.06L223.22 432.69L222.77 431.77L222.37 430.82L221.62 428.55L221.74 427.73L225.76 423.19L226.71 422.67L227.6 422.75L229.62 423.3L230.83 423.13L231.87 422.69L232.64 422.01L233.87 420.33L234.71 419.17L236.04 418.37L237.84 418.95L239.64 420.11L241.62 421.75L242.42 421.97L245.51 421.17L245.36 420.3L244.91 419.06L243.18 414.67L242.57 413.6L241.47 411.88L239.4 407.37L236.81 399.74L236.25 398.95L236.49 399.01L237.31 399.03L238.35 398.96L240.83 398.35L242.44 397.71L245.06 395.83L246.04 394.83L248.27 392.66L249.37 392.22L250.98 392.17L252.34 392.11L253.57 391.95L254.38 391.62L254.6 390.72L254.46 389.36L256.66 385.6L257.28 384.81L263.44 382.23L264.57 381.87L275.78 380.18L276.97 380.53L277.42 381.42L277.19 383.09L276.62 383.89L275.79 384.56L275.28 385.75L276.17 386.76L277.98 387.22L279.22 387.17L280.37 386.9L283.12 384.9L286.65 380.66L286.58 379.43L286.22 378.44L286.51 377.59L288.75 373.87L290.35 371.55L293.34 367.75L294.36 366.5L295.61 365.46L296.59 364.72L296.91 364.55L296.96 364.81L297.56 365.57L299.19 366.47L299.33 367.42L298.88 368.65L298.77 368.87L297.15 372.95L296.69 373.88L296.07 374.69L295.04 375.9L294.55 376.83L293.85 379.26L293.17 381.98L293.4 382.85L293.54 383.83L293.65 386.16L291.37 390.12L290.64 391.12L289.73 392.19L288.62 393.03L287.91 393.48L286.85 394.07L285.15 395.22L282.9 396.87L281.84 397.79L280.77 400.55L280.52 400.86L277.41 404.75L276.88 405.92L276.98 407.46L277.77 408.66L278.27 409.55L278.51 410.86L276.65 413.18L272.28 416.75L271.07 417.06L270.25 416.73L268.77 416.34L267.44 417.58L266.91 418.39L266.56 419.77L266.14 422.06L264.43 425.25L262.61 426.81L256.04 434.55L255.27 436.91L251.81 441.54L247.51 446.59L239.66 456.74L238.33 457.69H236.98L235.33 457.81L231.02 458.15L230.48 458.45Z" fill="#C7C7C7" stroke="white" stroke-width="2"/>
<path d="M364.18 92.42L363.7 92.3L361.59 92.1L360.32 92.21L358.7 92.56L357.79 92.81L356.35 93.07L354.94 93.15L352.66 91.6L354.93 88.73L356.23 88.16L356.73 87.09L357.19 84.27L356.58 82.69L349.7 75.3L348.27 74.42L347.03 74.21L345.11 74.3L341.83 74.32L338.17 74.26L337.12 74.16L335.93 73.84L335.22 73.11L334.51 71.99L333.84 69.42L334.62 63.82L335.85 62.02L336.61 61.33L337.27 60.26L338 58.99L338.28 58.12L338.27 57.2L339.44 57.27L344.57 57.1L346.2 56.86L347.35 56.6L348.69 56.19L349.39 55.74L351.91 53.96L352.34 52.81L354.52 50.81L358.98 47.54L369.94 39.8L371.5 39.01L380.29 35.63L381.54 35.77L382.77 35.74L384.47 35.2L390.1 31.94L390.97 31.38L392.04 30.29L395.91 22.28L395.9 21.42L395.62 18.06L394.67 17.46L395.12 16.64L395.91 16.29L400.45 15.94L403.08 16.19L402.35 17.29L401.14 18.67L402.2 20.16L403.15 20.31L404.19 19.92L407.22 17.91L409.47 13.61L414.28 11.39L416.82 9.07999L415.84 8.34999L413.81 8.52999L412.48 9.38999L412.99 8.25999L414.37 7.48999L415.57 7.29999L419.61 7.72999L421.05 8.04999L431.48 12.24L432.82 13.26L433.74 14.09L438.11 22.61L438.27 23.58L438.13 24.69L437.43 26.01L435.68 27.39L433.28 28.77L431.2 30.15L429.67 32.38L429.46 32.89L426.22 34.57L423.55 35.29L417.02 36.97L413.1 38.37L411.12 39.26L402.93 40.7L398.63 47.84L393 58.09L388.53 61.66L387.21 61.71L382.17 62.91L381.38 63.4L379.37 67.19L375.51 72.85L372.58 78.09L368.24 85.59L367.14 87.1L364.39 91.68L364.18 92.42Z" fill="#C7C7C7" stroke="white" stroke-width="2"/>
<path d="M324.34 152.65L322.24 152.62L318.93 151.95L313.13 150.05L310.88 147.82L309.82 146.1L306.71 143.32L304.95 142.22L301.14 140.52L299.76 140.53L295.63 138.84L292.82 135.8L290.21 134.03L289.3 134.16L288.44 134.26L285.99 133.19L286.05 131.22L286.51 128.38L285.5 124L285.1 123.26L283.16 116.9L283.05 116L282.93 113.43L283.32 112.34L284.55 111.79L285.86 111L286.15 109.39L283.95 106.31L282.43 105.88L280.51 104.98L280.1 103.68L281.47 99.16L283.2 94.95L285.44 89.84L286.18 88.89L287.07 88.05L288.97 86.79L289.35 84.99L289.57 80.7L289.64 77.98L289.53 72.26L287.32 68.19L286.79 67.3L285.82 66.38L284.5 65.54L283.69 63.53L283.72 63.29L284.8 64.12L298.39 68.8L299.58 69.06L300.62 69.2L301.74 69.23H303.55L305.12 69.08L306.18 68.87L307.16 68.57L306.64 69.22L305.71 69.57L304.58 69.73L301.93 69.95L300.02 69.72L294.81 73.63L294.16 75.88L294.75 77.56L297.8 76.33L300.02 78.28L300.33 79.26L302.92 79.28L303.73 78.72L304.43 77.56L305.51 74.21L307.23 69.88L308.34 67.82L309.73 63.58L309.36 60.32L309.43 58.72L310.32 57.29L311.41 55.6L312.81 54.69L317.67 53.65L318.67 53.7L320.45 54.38L321.21 55.21L324.68 56.64L327.82 57.44L332.7 57.46L334.39 57.21L335.9 57.13L337.45 57.1L338.27 57.2L338.28 58.12L338 58.99L337.27 60.26L336.61 61.33L335.85 62.02L334.62 63.82L333.84 69.42L334.51 71.99L333.74 73.02L333.46 73.94L333.65 75.2L334.21 76.03L335.79 77.75L337.27 79.47L336.44 81.45L335.87 82.4L335.76 83.27L335.79 84.11L336.1 85.24L337.65 86.77L338.15 88.21L330.03 92.11L324.52 94.19L323.68 94.47L321.44 95.7L317.55 102.38L317.17 103.47L316.17 107.3L320.91 113.58L325.82 120.45L328.07 126.86L322.6 127.18L318.21 126.94L317.05 127.58L314.44 131.12L315.31 131.9L316.64 132.44L317.86 133.53L318.4 134.33L320.34 137.36L321.17 138.75L321.52 139.98L323.68 144.66L324.89 145.73L326.14 147.04L327 148.41L326.14 149.95L324.73 151.98L324.34 152.65Z" fill="#C7C7C7" stroke="white" stroke-width="2"/>
<path d="M439.44 320.82L439.36 321.19L439.38 342.34L439.4 351.49L439.44 362.03L439.47 387.34L439.5 397.86L439.52 403.46L439.57 403.99L439.03 403.61L437.03 403.41H435.03L430.45 403.44L425.48 404.56L417.97 404.67L412.39 404.36L409.76 405.11L401.57 406.36L398.03 405.65L386.99 406.66L379.98 410.24L378.07 411.99L376.84 413.82L369 415.73L367.28 414.74L366.07 415.05L364.59 415.71L363.92 416.32L362.65 419.14L361.01 421.14L353.33 423.75L347.28 425.09L344.2 425.45L335.23 424.31L334.13 427.99L333.67 442.07L333.65 443.39L333.53 453.23L333.54 454.44L332.18 453.96L331.08 453.88L329.75 454.07L326.66 454.97L325.22 455.43L323.31 456.16L322.21 456.35L320.17 456.59L318.86 456.35L313.79 452.69L312.78 451.08L310.15 448.49L307.63 447.87L306.33 447.66L305.27 447.57L304.28 447.45L303 447.2L301.24 446.83L299.33 446.05L298.09 445.21L296.84 443.75L295.49 442.07L294.07 439.53L293.8 438.36L293.74 437.52L293.76 435.83L293.8 434.49L293.4 431.69L293.09 430.62L292.39 429.03L291.54 426.59L291.34 425.55L290.72 417.52L291.06 416.38L292.31 414.6L292.89 414.02L293.84 412.9L294.36 411.8L294.66 410.72L294.75 409.75L294.64 408.88L294.15 407.73L293.65 407.06L292.78 406.22L291.93 405.6L287.87 402.77L287.01 402.31L286.14 401.95L284.48 401.47L280.77 400.55L281.84 397.79L282.9 396.87L285.15 395.22L286.85 394.07L287.91 393.48L288.62 393.03L289.73 392.19L290.64 391.12L291.37 390.12L293.65 386.16L293.54 383.83L293.4 382.85L293.17 381.98L293.85 379.26L294.55 376.83L295.04 375.9L296.07 374.69L296.69 373.88L297.15 372.95L298.77 368.87L298.88 369.73L299.65 370.15L300.48 369.98L301.16 369.23L302.02 367.33L302.61 365.84L303.36 364.54L309.24 358.13L310.28 357.35L311.51 357.09L313.01 357.16L314.07 357.08L315.05 356.73L316.82 355.61L317.71 354.91L318.57 354.04L319.35 353.43L326.02 350.03L327.75 349.97L328.68 349.98L329.78 349.42V347.36L329.61 346.44L327.84 342.73L326.63 342.43L325.9 341.46L326.5 339.96L327.97 337.71L329.27 336.72L334.49 338.05L335.62 338.63L336.42 339.27L336.94 340.71L337.17 342.15L337.37 343.09L338.19 345.37L339.11 346.14L341.17 346.59L342.06 346.4L343.09 345.72L345.19 345.19L351.91 346.88L355.19 345.17L357.37 333.25L358.09 329.39L358.4 328.49L359.77 330.22L361.01 331.95L361.44 333.06L361.9 334.55L363.92 337.32L371.02 345.02L371.83 345.75L377.16 345.28L381.43 344.81L385.23 344.26L386.73 343.35L387.41 342.73L388.58 341.19L392.03 339.89L395.78 339.45L397.05 339.87L397.91 340.71L398.81 341.7L400 341.8L402.6 340.61L406.16 337.83L407.04 336.86L411.4 334.08L415.01 332.86L416.21 332.37L417.01 331.9L419.78 329.85L427.92 326.15L428.9 325.73L431.47 324.79L432.62 324.69L434.2 324.17L435.73 323.3L439.04 321.26L439.44 320.82Z" fill="#C7C7C7" stroke="white" stroke-width="2"/>
<path d="M202.7 468.01L201.9 468.13L200.68 468.4L199.78 468.76L196.03 470.96L195.13 471.49L193.84 472.3L192.67 473.14L192.21 473.85L192.44 481.63L192.66 482.7L193.1 483.77L194.37 487.68L195.72 493.57L195.65 494.54L194.2 495.34L192.97 495.74L191.81 495.99L191.17 499.09L191.67 500.58L192.06 502.1L192.32 504.4L192.39 505.75L192.3 506.95L187.68 507.96L186.56 507.91L182.74 506.81L179.95 505.92L178.19 504.77L176.99 499.51L177.19 497.71L177.3 496.21L176.46 494.83L175.24 494.43L174.41 494.71L173.49 494.82L172.28 494.07L171.67 493.57L169.83 492.56L168.91 491.82L168.4 490.93L168.3 489.67L168.52 488.52L167.61 487.38L166.77 487.05L163.42 487.76L162.01 488.56L160.37 488.34L159.16 487.85L157.25 485.83L154.38 484.64L153.03 484.8L151.47 484.64L150.23 484.17L147.13 481.93L144.87 479.99L144.11 479.51L142.66 479.14L141.57 478.94L140.66 478.58L139.77 477.93L136.15 474.42L135.56 473.59L135.12 472.86L132.09 472.17L131.26 472.61L129.97 470.79L128.31 470.01L127.29 469.61L126.43 469.05L120.98 462.82L118.96 458.31L116.09 456.97L115.25 456.81L113.73 456.77L111.86 456.22L111.06 454.87L114.28 449.93L118.05 446.93L119.52 446.48L122.97 447.12L124.16 447.74L128.75 449.42L130.14 449.32L131.7 444.61L131.85 443.18L129.78 439.05L128.82 438.56L127.39 437.17L126.3 433.45L126.04 431.86L127.87 427.93L130.34 423.34L131.05 422.2L131.4 423.78L132.05 422.48L132.8 422L135.17 421.63L135.57 419.13L136.71 418.96L138.31 420.18L139.16 421.02L140.07 421.85L143.43 418.52L148.4 419.68L149.3 419.82L154.89 418.38L156.4 416.93L156.78 414.76L156.88 415.51L157.3 416.49L157.81 417.38L158.91 418.79L161.3 422.35L162.72 424.88L164.3 428.33L164.82 429.21L166.51 430.63L167.6 431.22L168.45 431.49L169.63 431.76L171.84 432.06H172.69L174.61 432.01L178.99 431.51L179.75 431.91L180.41 432.84L182.22 435.89L185.59 440L187.34 441.55L188.42 442.53L188.06 443.53L187.12 444.94L186.19 445.41L184.95 446.67L184.48 447.39L184.08 452.89L185.34 453.05L186.91 453.04L192.62 452.62L193.54 452.43L195.13 451.85L195.96 451.75L203.75 456.56L204.61 457.78L204.71 458.88L203.82 466.04L202.7 468.01ZM149.17 419.31L148.82 419.24L145.49 416.16L145.46 415.6L145.57 414.94L145.9 414.34L146.47 413.59L147.71 413.28L148.19 413.2L148.87 413.3L150 415.35L150.17 415.74L150.56 417.79L150.43 418.22L149.44 419.19L149.17 419.31Z" fill="#C7C7C7" stroke="white" stroke-width="2"/>
<path d="M399.41 231.82L398.61 232.47L397.81 232.84L396.66 232.81L395.29 232.44L394.22 232.34L393.37 232.65L389.23 235.01L388.57 236.38L387.98 237.5L386.77 238.57L385.79 238.89L383.05 238.98H380.53L379.98 239.18H379.13L378.58 238.53L378.74 236.91L378.69 235.39L378.02 234.76L375.04 235.59L374.13 236.21L365.88 232.72L365.64 226.08L366.04 221.32V220.37L365.88 219.39L364.78 216.43L364.23 215.34L360.74 209.3L359.73 209.02L351.95 208.99L351.11 209.44L350.62 210.24L349.75 211.69L347.03 211.92L341.33 210.18L340.52 209.92L339.59 209.14L339.07 207.69L337.44 206.06L335.96 205.34L340.45 204.79L341.61 204.5L343.38 203.57L344.46 202.56L345.46 200.99L347.97 195.76L348.21 194.35L347.24 190.42L346.81 189.25L345.86 187.25L344.31 185.1L343.71 183.63V182.65L344.35 181.92L345.27 181.8L346.44 181.08L346.78 179.39L346.89 177.46L346.86 176.11L346.67 175.19L346.23 174.43L345.3 174L343.86 174.11L343.32 174.86L343.47 176.2L343.53 177.1L343.48 178.24L342.32 179.2L341.17 178.85L340.7 177.82L338.96 170.99L339.29 168L339.6 166.95L340.17 165.96L341.55 164.62L342.2 163.79L342.79 162.28L342.7 159.84L342.34 157.74L342.49 154.62L343.47 147.92L343.66 147.1L344.17 145.81L344.58 144.97L344.83 144.58L346.17 144.79L351.27 144.59L353.59 143.57L354.5 142.4L360 139.16L361.19 140.87L362.13 143.35L361.96 144.3L365.13 146.74L369.49 148.36L371.25 155.12L374.24 166.56L384.19 176.96L384.92 177.12L385.07 177.19L385.63 177.8L386.13 179.15L387.75 186.8L388.23 189.4L388.08 190.53L387.37 191.11L385.58 191.12L382.68 196.37L382.11 207.29L382.16 213.83L384.35 217.02L385.07 217.57L385.23 217.61L388.28 218.16L390.81 218.31L395.25 220.96L394.87 222.44L394.84 223.55L395.64 226.18L396.15 227.23L396.95 228.67L397.81 230.1L398.9 231.8L399.41 231.82Z" fill="#C7C7C7" stroke="white" stroke-width="2"/>
<path d="M234.04 479.05L234.62 478.82L239.47 479.17L240.46 480.42L240.32 481.87L240.79 482.71L243.56 485.76L247.32 487.12L250.15 486.7L251.9 486.06L255.71 488.2L256.25 489.52L257.19 490.47L260.63 491.39L262.84 491.24L263.65 491.07L264.82 490.71L266.47 491.11L267.64 492.01L269.27 496.41L268.89 497.83L269.04 499.09L270.31 501.71L271.47 501.97L272.72 501.26L273.87 500.51L277.78 502.32L278.43 502.95L278.95 504.03L278.84 504.85L278.29 505.96L279.33 510.71L283.67 512.53L284.92 512.82L289.35 513.45L290.16 514.06L290.82 515.11L292.38 519.62L291.75 520.29L290.85 521.02L291.75 524.24L294.99 526.18L299.87 527.09L300.66 526.36L300.51 525.53L301.18 524.93L305.54 526.26L307.4 527.7L308.19 528.79L311.76 530.82L314.83 531.67L316.26 533.17L318.24 535.14L320.99 536.63L322.47 537.15L325.98 538L323.11 538.86L318.05 540.54L311.51 542.76L306.17 544.69L305.35 544.96L303.94 545.31L303.7 544.92L302.97 543.91L296.25 538.77L294.16 537.37L293.12 538.31L289.99 536.47L289.7 535.32L289.65 534.42L289.48 533.52L288.97 532.35L288.32 531.31L287.37 530.17L286.56 529.86L285.71 530.08L284.53 530.89L283.75 531.18L280.54 529.81L279.61 528.65L277.11 526.7L272.34 523.52L269.54 523.17L269.06 524.46L268.68 525.59L267.31 526.68L266.21 526.56L265.62 525.85L264.57 525.28L263.57 524.87L261.54 524.61L260.08 524.1L256.6 521.99L254.27 520.36L249.38 519.9L248 520.21L246.63 519.75L240.37 514.98L237.59 511.17L235.75 508.56L235.12 507.84L230.79 506.48L226.76 505.47L220.25 505.6L219.97 510.54L218.28 511.55L214.31 512.69L213.42 512.63L212.67 512.21L211.55 511.07L207.24 510.07L206.81 510.89L205.03 511.47L203.33 511.78L201.06 511.86L194.11 509.13L192.28 506.94L192.37 505.75L192.3 504.4L192.04 502.1L191.65 500.58L191.15 499.09L191.78 495.99L192.94 495.74L194.16 495.34L195.62 494.54L195.69 493.58L194.34 487.68L193.07 483.77L192.64 482.7L192.42 481.63L192.18 473.85L192.65 473.15L193.82 472.31L195.11 471.5L196.02 470.97L199.77 468.77L200.68 468.41L201.9 468.13L202.7 468.01L205.58 467.45L206.77 467.16L208.26 465.98L209.36 464.18L210.56 463.46L212.34 463.62L213.45 464.62L215.03 467.71L215.48 468.86L215.52 469.69L215.07 470.58L214.66 471.3L214.4 472.11L213.89 476.1L214.97 478.34L215.98 479.45L220.63 481.38L221.55 481.68L222.91 481.87L228.17 481.91L229.32 481.66L233.59 480.09L234.04 479.05Z" fill="#C7C7C7" stroke="white" stroke-width="2"/>
<path d="M248.94 329.38L249.54 329.1L253.84 329.41L256.53 329.82L257.76 330.15L258.89 330.11L261.49 328.62L261.78 329.17L258.51 333.96L255.67 337.37L254.43 338.96L253.96 339.88L254.05 341.82L253.95 343.46L253.64 344.3L253.29 345.09L252.9 345.82L252.39 346.47L251.36 347.67L248.87 351.4L248.45 353.52L248.5 354.62L247.58 353.97L246.83 352.64L246.21 350.56L245.45 347.87L242.57 335.16L242.28 333.75L242.38 332.8L243.04 332.21L245.11 332.39L247.09 332.35L248.95 331.97L249.43 331.17L248.94 329.38Z" fill="#C7C7C7" stroke="white" stroke-width="2"/>
<path d="M261.49 328.62L258.89 330.11L257.76 330.15L256.53 329.82L253.84 329.41L249.54 329.1L248.94 329.38L246.46 328.23L241.07 326.88L237.9 322.31L234.63 319.13L233.16 317.91L232.29 317.6L230.51 317.91L229.84 317.65L228.92 317.17L228.11 316.65L227.38 315.88L226.92 315.14L223.01 306.6L222.75 305.35L226.21 301.74L226.97 301.24L233.75 298.02L235.11 297.51L236.1 297.14L236.89 296.89L237.48 297.23L240.99 297.15L241.83 297.04L241.57 301.64L242.27 302.54L243.36 302.19L244.95 301.4L247.76 300.76L251.23 303.23L250.26 305.12L248.82 306.79L244.74 309.1L240.24 313.28L239.64 314.69L241.28 319.12L242.17 319.85L243.63 319.84L248.23 318.76L252.52 320.32L255.71 320.49L256.56 320.54L258.24 321.58L261.55 324.44L259.95 326.54L260.12 327.35L261.49 328.62Z" fill="#C7C7C7" stroke="white" stroke-width="2"/>
<path d="M322.16 222.32L322.9 215.94L324.6 212.05L326.31 209.34L327.09 202.67L326.45 199.44L325.71 197.89L324.5 193.85L324.47 192.59L324.45 191.2L324.66 190.27L325.29 188.76L326.86 187.32L327.96 186.66L328.51 187.65L330.12 190.73L330.93 192.52L332.34 196.53L332.03 198.22L331.22 199.53L330.26 200.97L329.88 202.46L330.42 203.55L332.95 203.72L334.7 203.86L335.76 204.82L335.96 205.34L337.44 206.06L339.07 207.69L339.59 209.14L340.52 209.92L341.33 210.18L347.03 211.92L349.75 211.69L350.62 210.24L351.11 209.44L351.95 208.99L359.73 209.02L360.74 209.3L364.23 215.34L364.78 216.43L365.88 219.39L366.04 220.37V221.32L365.64 226.08L365.88 232.72L374.13 236.21L375.04 235.59L378.02 234.76L378.69 235.39L378.74 236.91L378.58 238.53L379.13 239.18H379.98L380.53 238.98L380.84 239.66L381.25 240.94L381.72 246.98L381.65 248.19L381.4 249.28L379.49 254.79L379.02 255.74L378.35 256.54L377.56 257.01L376.6 257.22L374.44 257.29L373.68 254.56L373.15 253.38L370.78 251.91L369.57 252.1L369.54 256.24L369.83 257.68L370.48 258.71L371.12 259.9L371.23 261.98L370.61 263.7L369.51 265.72L361.87 275.17L358.86 278.14L356.27 277.73L355.15 277.51L353.98 277.64L353.1 277.87L351.98 278.42L351.32 279.15L351.15 280.37L351.66 281.8L351.49 282.79L350.79 283.54L348.49 284.62L347.25 284.76L345.87 284.37L344.98 283.68L344.36 282.49L344.09 280.8L344.25 279.78L345.35 277.71L345.66 276.59L345.76 275.69L345.68 274.57L345.28 273.62L344.49 272.88L339.67 270.34L338.4 272.05L335.96 277.96L335.17 282.7L335 283.56L334.31 285.94L333.31 286.61L332.06 285.78L330.75 284.74L325.34 285.36L320.43 286.57L319.62 285.9L318.85 283.87L318.16 283.2L313.69 280.7L309.97 277.25L308.07 273.2L307.02 272.82L305.94 273.15L305.19 273.56L304.41 273.9L303.24 273.56L301.82 272.26L300.23 269.88L298.06 266.37L296.67 264.74L298.31 264.04L299.28 263.32L303.17 258.99L303.52 258.13L302.47 256.4L302.14 252.87L302.53 251.46L304.02 249.61L305.32 249.57L308.03 248.31L312.9 244.52L314.17 243.51L314.81 242.88L315.59 241.52L316.67 239.72L318.79 237.45L320.19 236.7L322.06 235.86L323.92 234.16L323.99 233.11L323.53 231.47L322.76 230.54L322.23 229.5L321.74 225.14L321.73 224.29L321.94 223.07L322.16 222.32Z" fill="#C7C7C7" stroke="white" stroke-width="2"/>
<path d="M248.1 134.21L249.64 134.62L250.92 134.02L251.84 133.09L252.43 132.1L253.34 130L253.63 128.99L253.85 127.49L253.87 126.53L253.61 125.35L253.2 124.07L252.15 122.68L250.75 120.13L251.81 117.46L253.42 111.94L253.66 111.02L254.08 108.27V107.18L253.98 106.48L254.68 106.16L256.41 105.75L258.42 110.38L262.19 115.05L264.01 115.83L264.4 116.91L264.54 119.89L264.46 120.76L267.6 123.02L278.24 131.79L278.99 132.63L280.01 133.86L280.68 134.83L280.84 135.77L280.88 136.92L280.55 139.15L280.44 140.13L280.61 141.29L281.28 142.9L282.68 145.66L284.37 147.73L286.79 149.27L287.64 149.58L288.43 149.91L289.5 150.52L291.87 152.18L293.06 153.27L294.39 155.38L296.6 160.34L295.08 161.67L295.07 169.15L295.43 170.75L296.05 172.65L296.64 173.63L295.53 176.64L293.84 180.03L292.93 181.13L290.94 181.39L289.41 181.66L288.26 182.07L287.9 182.34L286.97 181.09L286.69 179.54L286.51 177.96L283.53 175.3L277.7 172.86L276.58 174.08L275.77 174.88L273.42 176.5L270.32 177.33L270.08 175.62L269.92 173.39L268.91 172.8L268.02 172.93L266.38 173.48L265.18 173.13L264 166.09L261.6 159.84L261.66 158.68L264.83 157.48L266.6 157.23L267.94 157.1L269.19 157.6L269.73 155.07L269.68 154.03L268.12 149.78L265.69 147.69L264.88 147.24L264.03 146.89L260.9 146.12L260.12 145.46L256.29 141.47L250.98 137.99L250.21 137.34L249.46 136.52L248.78 135.62L248.1 134.21Z" fill="#C7C7C7" stroke="white" stroke-width="2"/>
<path d="M1.32003 6.2L1.03003 5.94V3.89L1.29003 3.06L1.67003 2.42L2.18003 2L2.63003 2.19L2.23003 4.44L1.76003 5.48L1.44003 6.17L1.32003 6.2Z" fill="#C7C7C7" stroke="white" stroke-width="2"/>
<path d="M248.5 354.62L248.45 353.52L248.87 351.4L251.36 347.67L252.39 346.47L252.9 345.82L253.29 345.09L253.64 344.3L253.95 343.46L254.05 341.82L253.96 339.88L254.43 338.96L255.67 337.37L258.51 333.96L261.78 329.17L261.49 328.62L260.12 327.35L259.95 326.54L261.55 324.44L263.76 322.71L264.41 321.94L264.43 321.03L263.69 320.06L263.18 318.92L264.94 312.49L265.23 311.65L266.38 310.36L267.71 310.16H269.11L272.82 309.78L273.52 309.33L274.03 308.14L274.44 307.42L275.42 306.42L276.68 305.42L277.78 304.83L280.69 304.13L281.62 303.94H284.11L285.83 304.05L287.44 304.46L288.34 304.78L288.51 305.23L289.09 311.97L287.28 323.52L285.08 328.3L285.5 332.77L285.67 334.09L285.94 335.59L286.45 336.74L285.73 338.94L282.84 344.41L282.17 346.23L282.99 346.88L291 349.97L292.01 350.08L293.18 349.55L294.16 347.98L295.62 347.49L296.77 347.83L297.75 348.96L299.11 351.01L299.53 351.97L299.57 353.21L298.2 356L298.05 360.73L297.94 361.98L296.91 364.55L296.59 364.72L295.61 365.46L294.36 366.5L293.34 367.75L290.35 371.55L288.75 373.87L286.51 377.59L286.22 378.44L286.58 379.43L286.65 380.66L283.12 384.9L280.37 386.9L279.22 387.17L277.98 387.22L276.17 386.76L275.28 385.75L275.79 384.56L276.62 383.89L277.19 383.09L277.42 381.42L276.97 380.53L275.78 380.18L264.57 381.87L263.44 382.23L257.28 384.81L256.66 385.6L254.46 389.36L254.6 390.72L254.38 391.62L253.57 391.95L252.34 392.11L250.98 392.17L249.37 392.22L248.27 392.66L246.04 394.83L245.06 395.83L242.44 397.71L240.83 398.35L238.35 398.96L237.31 399.03L236.49 399.01L236.25 398.95L235.65 397.65L234.43 395.51L233.28 393.86L232.81 393.05L232.89 392.05L233.08 390.68L233.02 389.98L233.52 389.58L236.69 378.9L238.95 370.09L239.87 365.05L240.18 364.19L241.3 362.2L242.43 360.52L243.36 359.48L244.19 359.3L244.96 359.65L245.74 359.96L248.27 357.93L248.5 356.73L248.58 355.1L248.5 354.62Z" fill="#C7C7C7" stroke="white" stroke-width="2"/>
<path d="M233.02 389.98L231.27 389.75L229.8 389.22L228.05 388.45L226.78 387.73L225.74 387.09L224.24 386.3L220.74 385.65L218.79 385.88L217.86 387.48L218.55 388.4L218.65 390.03L217.71 391.78L212.7 394L210.85 394.21L207.15 396.43L201.65 399.21L199.21 396.48L196.8 395.33L195.87 396.65L188.49 395.97L181.96 391.21L180.13 388.57L178.73 386.98L177.77 386.45L176.27 385.26L177.01 384.14L180.56 381.88L185.5 375.57L186.84 375.21L189.75 371.49L190.27 369.72L190.38 367.27L194.21 361.13L192.14 361.61L190.92 362.11L188.98 363.42L187.79 364.2L185.79 364.39L184.62 364.34L183.74 363.86L183.29 361.23L183.78 359.8L184.84 359.15L186.72 358.93L187.84 355.31L186.88 354.62L184.82 353.86L183.41 355.18L182.68 356.1L182 358.34L181.37 359.79L180.47 360.82L178.15 357.84L177.66 356.49L177.55 351.95L178.02 350.45L181.66 348.87L184.18 348.96L185.33 347.71L186.25 349.43L187 350.04L188.58 349.65L189.53 349.61L190.86 350.15L194.98 353.68L200.68 355.58L203.62 357.4L204.53 357.77L205.67 357.84L206.78 357.69L213.17 355.66L217.78 351.97L218.33 350.5L216.49 348.67L215.48 347.47L215.14 346.69L214.89 345.88L214.63 344.73L214.46 342.9L214.54 342L214.76 341.04L215.28 340.27L218.37 334.54L221.38 327.69L221.83 326.71L222.41 326.04L227.03 322.25L227.88 321.75L228.84 321.33L229.62 320.77L230.16 319.57L230.42 318.55L230.51 317.91L232.29 317.6L233.16 317.91L234.63 319.13L237.9 322.31L241.07 326.88L246.46 328.23L248.94 329.38L249.43 331.17L248.95 331.97L247.09 332.35L245.11 332.39L243.04 332.21L242.38 332.8L242.28 333.75L242.57 335.16L245.45 347.87L246.21 350.56L246.83 352.64L247.58 353.97L248.5 354.62L248.58 355.1L248.5 356.73L248.27 357.93L245.74 359.96L244.96 359.65L244.19 359.3L243.36 359.48L242.43 360.52L241.3 362.2L240.18 364.19L239.87 365.05L238.95 370.09L236.69 378.9L233.52 389.58L233.02 389.98Z" fill="#C7C7C7" stroke="white" stroke-width="2"/>
<path d="M439.44 320.82L440.14 320.38L441.05 319.61L441.8 318.64L446.3 311.04L448.02 310.21L449.2 309.51L455.72 303.51L455.8 302.66V301.82L456.23 300.76L457.38 300L458.25 299.45L465.72 295.01L469.57 293.5L470.68 293.37L472.71 293.43L473.66 293.26L476.14 292.66L477.2 292.32L480.13 290.45L481.2 289.25L485.46 283.65L486.47 280.93L487.03 279.19L488.04 277.05L488.66 276.11L490.01 274.48L490.51 274.13L491.03 273.8L492.41 273.21L493.66 272.99L496.22 273.25L498.58 273.51L500.99 273.48L502.63 273.35L504.81 272.59L505.94 272.02L507.57 270.7L508.61 270.2L509.96 269.58L512.24 269.47L512.87 270.53L514.11 271.84L515.3 272.12L517.22 271.45L518.95 269.78L520.5 268.21L521.64 267.22L522.94 266.69L524.2 266.74L532.36 267.91L535.42 268.61L537.13 269.12L538.2 269.76L540.17 270.01L543.81 268.81L546.82 267.91L547.77 267.74L549.2 267.69L551.05 268.19L553.31 268.67L554.31 268.35L557.01 267.4L558.48 266.9L560.08 266.41L561.03 266.38L562.21 266.46L563.75 266.8L565.02 267.12L566.56 267.05L568.23 266.62L569.85 265.78L573.44 262.92L579.12 263.52L581.51 263.84L584.46 264.78L585.66 265.58L587.24 267.13L588.21 267.58L588.96 267.64L587.53 269.25L587.39 270.59L587.68 271.56L588.34 272.72L589.76 273.99L590.63 275.77L590.12 276.54L588.66 277.42L587.95 277.99L585.77 280.06L583.08 282.8L582.14 284.14L581.19 286.64L580.83 288.62L580.95 289.9L581.22 291.54L581.57 292.94L582.31 294.18L580.93 297.05L579.32 298.27L576.88 299.77L575.99 299.99L574.56 300.96L572.72 304.11L573.5 311.31L573.88 312.88L574.61 315.09L574.66 317.81L574.16 323.65L574.03 324.87L573.7 327.53L572.3 334.74L575.35 344.04L574.67 345.46L574.49 346.58L574.46 348.27L575.27 350.95L577.64 354.19L578.49 355.85L577.57 356.14L574.57 357.26L573.8 357.81L572.84 359L571.47 360.49L569.47 361.97L568.73 361.34L568.64 360.27L568.05 359.48L564.69 357.83H559.27L552.12 358.66L551.22 359.11L545.49 364.16L544.98 364.82L544.27 366.16L542.24 366.81L539.3 366.61L537.3 366.44L534.73 367.18L532.52 369.33L530.57 371.02L528.39 370.09L523.51 371.13L517.25 372.36L517 370.98L515.91 370.09L514.1 369.33L510.67 369.82L509.52 370.8L506.78 371.17L504.73 370.11L500.96 370.32L500.13 371.21L500.4 372.63L500.3 373.64L498.77 375.14L496.21 376.39L494.29 376.71L489.76 378.48L484.89 382.76H482.85L481.7 382.08L478.31 383.29L476.96 385.07L477.56 386.42L478.22 387.38L478.49 390.41L476.69 390.73L475.05 390.74L473.36 391.18L471.3 394.65L471.01 397.91L471.32 399.65L471.42 400.92L468.34 405.14L467.3 405.6L465.37 406.11L463.4 406.46L462.71 406.78L461.64 406.45L459.54 405.51L456.87 404.52L456.24 405.51L455.82 407.28L454.69 408.29L450.49 408.08L448.14 406.81L443.59 405.46L439.87 406.13L439.57 403.99L439.52 403.46L439.5 397.86L439.47 387.34L439.44 362.03L439.4 351.49L439.38 342.34L439.36 321.19L439.44 320.82Z" fill="#C7C7C7" stroke="white" stroke-width="2"/>
<path d="M507.05 563.33L506.04 565.52L506.18 568.68L499.46 569.58L498.68 566.04L498.74 565.13L495.49 562.32L491.26 563.34L488.41 564.66L487.59 564.96L486.23 564.73L485.94 563.89L487.06 560.71L486.86 559.19L481.03 559.58L479.67 560.46L479.02 561.34L478.96 562.18L479.55 562.84L480.74 563.14L481.34 563.75L481.02 564.7L480.33 565.47L479.49 565.83L478.34 565.74L473.27 561.72L472.76 560.86L472.44 559.88L472.71 558.99L474.13 558.16L475.21 557.32L474.87 555.56L473.92 554.58L472.88 553.68L472.82 552.11L474.15 549.99L474.09 545.17L475.59 539.63L474.88 538.71L472.86 537.65L470.4 539.5L471.12 540.71L469.66 541.04L466.91 540.14L465.59 538.9L464.99 537.96L463.38 536.3L452.97 532.94L452.27 534.27L449.26 535.49L447.64 532.85L445.95 525.27L444.91 523.31L442.83 521.11L441.25 521.76L437.14 520.46L428.62 515.28L427.64 514.53L425.75 513.6L422.71 513.46L421.95 514.08L421.56 514.5L420.65 514.75L416.84 512.65L413.57 510.58L410.57 507.85L407.98 507.19L406.54 502.78L403.8 498L401.03 494.8L400.23 494.11L400.3 493.99L401.03 493.18L406.32 488.13L409.91 484.75L410.16 483.63L410.52 482.38L411.07 481.55L412.38 480.54L413.74 480.22L414.74 480.1L417.36 477.55L420.44 473.33L420.46 471.13L420.29 469.99L420.22 468.92L422.71 462.72L423.4 461.54L426.25 459.57L431.33 453.85L434.11 450.12L438.14 447.63L439.39 447.37L441.26 447.44L442.15 447.01L447.54 442.82L452.21 443.2L454.52 443.24L456.69 443.03L469.18 439.6L476.66 436.73L477.7 436.77L477.81 437L478.32 439.37L477.69 440.3L476.7 440.79L476.98 444.51L477.95 445.88L480.02 447.66L481.64 448.93L482.83 449.34L484.11 449.42L485.25 449.59L489.03 450.51L490.4 451.63L490.55 452.14V477.77L495.66 477.76L499.98 477.53L507.33 479.15L509.74 478.41L511.32 477.74L514.35 479.34L515.87 480.76L519.48 486.31L518.7 490.84L520 495.3L516.62 496.43L513.42 496.16L511.71 494.79L506.34 491.51L497.1 493.94L494.36 495.71L492.47 497.04L487.25 497.19H484.73L482.21 497.71L482.14 500.73L482.06 506.58L482.01 509.1L481.89 515.78L481.76 521.66L481.68 525.27L481.66 528.11L483.16 530L486.79 534.12L494.79 540.32L495.71 540.53L496.89 540.77L499.28 541.89L500.27 542.95L501.63 547.66L501.25 549.01L500.69 550.34L499.91 551.32L500.02 552.61L503.93 559.88L505.45 560.76L507.37 562.65L507.05 563.33Z" fill="#C7C7C7" stroke="white" stroke-width="2"/>
</svg>
