<svg width="615" height="603" viewBox="0 0 615 603" fill="none" xmlns="http://www.w3.org/2000/svg">
<path d="M287.92 72.84L288.61 75.8L289.93 76.66L290.27 79.56L292.08 81.07L296.23 78.95L298.35 80.88L298.95 79.9L300.34 80.25L303.15 82.87L305.35 82.13L306.91 83.31L307.29 85.35L309.5 86.4L309.99 90.78L313.51 88.7L314.35 90.1L317.35 89.71L322.87 95.44L324.32 94.37L326.6 95.81L329.05 95.28L329.75 94.22L333.59 95.13L333.39 100.06L334.21 102.91L332.45 106.86L333.02 109.1L331.13 107.68L328.41 108.45L327.81 106.75L327.11 108.7L323.62 110.4L324.03 114.25L321.18 112.59L313.89 113.3L314.67 115.33L313.3 116.59L315.45 118.23L313.66 120.29L313.46 123.15L315.68 123.8L317.5 126.2L320.65 126.26L322.01 127.48L322.18 129.93L323.69 129.31L325.99 132.34H326.07L323.26 139.08L318.47 140.24L313.86 144.5L312.29 147.77L311.12 147.95L309.31 144.04L307.5 142.87L305.05 142.81L304.17 139.66L302.71 138.26L298.28 139.37V136.98L297.28 135.69L292.74 137.9L291.52 139.97L291.01 139.05L290.01 139.16L288.64 140.5L288.92 141.46L286.77 142.98L285.75 141.64L283.27 142.12L276.05 137.31L270.67 142.84L271.35 144.92L268.31 147.46L272.24 151.41L272.68 156L271.57 157.28L272.2 162.05L270.26 162.8L269.63 164.17L265.87 159.09L263.4 158.38L260.16 161.05L254.63 160.72L254.39 160.69L252.91 158.85L253.77 156.94L253.46 154.68L251.51 152.33L248.24 152.51L248 150.07L245 149.79L242.28 153.23L240.28 153.75L239.37 151.35L238.08 151.54L235.21 147.72L236.13 145.79L235.66 142.4L233.59 144.14L230.63 142.12L227.34 142.34L221.99 139L213.49 146.07L212.63 144.53L213.96 141.43L211.86 142.31L210.91 141.38L212.02 138.48L211.47 136.64L207.24 133.57L205.87 133.46L205.67 131.13L204.05 128.8L200.66 128.41L199.03 124.53L195.17 122L192.9 121.69L192.81 120.49L194.01 119.35L193.92 116.57L197.69 115.39L200.69 113.23L207.11 112.85L206.34 109.66L208.95 107.83L210.1 109.26L212.53 109.04L213.94 105.35L216.14 106.82L217.42 104.78L223.23 107.77L224.64 109.65L227.05 106.57L231.14 106.02L231.23 105.12L229.05 103.4L229.74 102.44L228.57 97.37L231.39 94.46L231.44 87.34L233.05 88.08L237.01 87.28L237.84 88.51L239.21 85.23L242.66 85.19L251.55 89.61L255.9 93.69L256.22 97.01L244.58 104.66L242.84 108L244.62 114.01L242.53 116.59L247.95 120.17L247.23 123.18L245.45 124.56L244.21 122.81L241.56 122.92L240.54 121.38L239.05 122.35L237.44 125.59L238.3 129.4L242.88 132.25L247.53 133.79L251.25 137.46L250.89 140.76H254.63L256.73 139.02L260.29 131.45L261.2 125.51L263.67 125.06L264.85 120.95L270.33 118.12L272.25 115.39L275.48 114.27L276.72 113.02L276.56 111.96L282.1 113.54L282.61 108.63L285.68 107.04L282.51 99.71L279.99 98.55L279.09 94.94L279.82 92.64L277.5 87.84L276.99 86.63L277.63 84.76L280.95 82.31L280.45 80.49L283.91 79.91L282.01 75.26L284.24 75.48L287.92 72.84Z" fill="#C7C7C7" stroke="white" stroke-width="2"/>
<path d="M247.47 42.24L248.56 43.82L248.95 48.5L253.66 50.07L254.9 51.17L255.21 52.96L259.4 53.92L260.72 55.15L263.72 55.21L270.54 53.74L272.66 53.96L273.5 55.99L276.82 56.12L278.85 53.13L282.27 51.86L283.14 52.89L281.81 54.39L287.31 54.96L285.59 57.31L287.83 60.19L286.59 68.99L287.92 72.84L284.24 75.48L282.01 75.26L283.91 79.91L280.45 80.49L280.95 82.31L277.63 84.76L276.99 86.63L277.5 87.84L273.52 87.75L272.82 89.65L269.32 90.01L266.24 92.47L256.22 97.01L255.9 93.69L251.55 89.61L242.66 85.19L239.21 85.23L237.84 88.51L237.01 87.28L233.05 88.08L231.44 87.34L230.74 82.87L231.85 82.31L231.93 80.86L232.41 80L232.26 77.76L233.89 76.39L232.14 74.15L227.63 71.93L226.39 72.5L226.27 70.96L225.17 70.01L223.59 70.52L222.49 69.79L222.74 68.51L221.66 68.11L220.75 65.82L221.49 62.68L219.98 61.32L221.76 60.29L220.75 58.7L224.97 55.03L225.24 52.56L224.54 51.99L225.33 50.59L228.55 49.01L233.41 49.76L233.6 50.73L235.81 49.95L235.79 51.56L237.49 51.75L239.54 50.67L241.02 47.39L240.17 44.77L243.44 44.37L244.3 43.21L246.08 43.33L247.47 42.24Z" fill="#C7C7C7" stroke="white" stroke-width="2"/>
<path d="M244.96 197.18L241.94 195.53L240.4 193.06L241.52 189.19L243.63 187.72L239.48 179.41L240.04 177.02L244.48 175.26L245.64 173.95L244.46 167.49L246.12 163.36L244.24 162.43L246.17 160.13L247.5 158.86L250.11 158.51L253.56 161.6L254.39 160.69L254.63 160.72L260.16 161.05L263.4 158.38L265.87 159.09L269.63 164.17L270.26 162.8L272.2 162.05L271.57 157.28L272.68 156L272.24 151.41L268.31 147.46L271.35 144.92L270.67 142.84L276.05 137.31L283.27 142.12L285.75 141.64L286.77 142.98L288.92 141.46L288.64 140.5L290.01 139.16L291.01 139.05L291.52 139.97L292.74 137.9L297.28 135.69L298.28 136.98V139.37L302.71 138.26L304.17 139.66L305.05 142.81L307.5 142.87L309.31 144.04L311.12 147.95L312.29 147.77L313.86 144.5L318.47 140.24L323.26 139.08L326.07 132.34L326.25 132.35L330.04 131.63L330.66 133.74L332.8 134.07L334.21 133.73L336.11 134.95L337.72 138.21L339.82 139.11L341.54 139.25L342.87 138.1L344.34 138.73L344.87 143.4L346.25 146.41L350.3 149.03L351.87 152.45L350.44 154.96L348.21 154.35L347.55 155.41L350.04 157.63L351.72 156.69L351.87 158.07L355.33 159.34L356.02 161.49L358.14 160.8L358.61 159.41L360.84 163.14L364.94 163.09L366.98 164.75L368.36 168.99L369.17 168.93L369.01 167.46L370.63 167.24L370.36 165.08L371.77 165.34L372.49 167.61L371.12 168.47L370.55 171.49L377.2 174.51L378.86 176.2L379.38 178.65L383.8 177.93L383.35 179.97L384.36 181.34L383.13 183.54L383.77 186.03L381.73 186.94L377.32 192.4L373.16 194.07L372.31 196.4L376.7 199.87L380.1 206.44L370.3 200.72L368.78 197.22L367.18 198.7L366.03 198.65L367.21 195.65L365.62 195.31L365.51 197.08L364.37 197.77L363.44 196.69L363.39 194.54L362.03 193.51L361.27 194.55L362.53 195.43L362.62 196.84L360.96 196.26L358.97 197.03L358.61 194.48L360.38 192.62L358.24 189.8L356.87 190.3L356.06 193L353.77 194.26L352.62 196.29L351.56 195.69L350.48 196.85L349.38 197.8L348.08 198.7L348.98 201.76L346.51 203.22L337.33 199.97L333.55 201.52L328.42 199.74L323.87 196.59L318.91 197.92L316.67 197.04L312.55 199.65L310.72 203.6L310.73 206.92L309.46 209.55L302.59 213.81L303.42 217L301.84 218.94L301.3 222.74L300.38 222.77L298.63 225.67L298.35 229.83L293.74 230.35L289.51 229.92L288.81 228.56L285.15 228.76L284.32 225.96L282.21 224.9L276.88 218.81L270.06 215.58L269.5 211.68L267.96 209.79L267.86 207.92L266.44 207.76L265.78 204.76L262.57 204.51L263.95 202.19L263.21 199.69L260.78 199.15L258.51 197.38L254.7 200.25L253.54 198.81L253.4 196.26L252.62 197.06L250.3 196.63L250.45 198.18L244.96 197.18Z" fill="#C7C7C7" stroke="white" stroke-width="2"/>
<path d="M193.92 116.57L194.01 119.35L192.81 120.49L192.9 121.69L195.17 122L199.03 124.53L200.66 128.41L204.05 128.8L205.67 131.13L205.87 133.46L207.24 133.57L211.47 136.64L212.02 138.48L210.91 141.38L211.86 142.31L213.96 141.43L212.63 144.53L213.49 146.07L221.99 139L227.34 142.34L230.63 142.12L233.59 144.14L235.66 142.4L236.13 145.79L235.21 147.72L238.08 151.54L239.37 151.35L240.28 153.75L242.28 153.23L245 149.79L248 150.07L248.24 152.51L251.51 152.33L253.46 154.68L253.77 156.94L252.91 158.85L254.39 160.69L253.56 161.6L250.11 158.51L247.5 158.86L246.17 160.13L244.24 162.43L246.12 163.36L244.46 167.49L245.64 173.95L244.48 175.26L240.04 177.02L239.48 179.41L243.63 187.72L241.52 189.19L240.4 193.06L241.94 195.53L244.96 197.18L243.58 199.78L241.71 199.44L241.18 200.98L238.73 202.56L236.8 205.8L238.96 213.56L235.19 220.9L239.2 229.46L239.38 234.13L235.91 234.77L235.9 237.43L234.45 240.53L231.65 242.77L229.58 242.28L226.34 239.19L221.1 241.32L219.75 240.31L218.75 237.66L216.63 236.57L214.7 240.08L212.84 241.58L213.6 243.66L216.5 246.18L215.78 247.65L213.74 245.02L212.77 245.34L211.64 242.53L206.08 242.02L203.81 240.88L195.87 229.17L193.92 228.15L192.37 228.56L189.35 226.85L187.8 224.02L182.54 221.16L179.58 218.03L178.3 214.53L174.65 215.84L172.3 219.32L167.45 217.73L167.14 216.34L164.98 214.35L159.16 211.95L154.93 205.65L156.66 200.39L155.77 197.14L156.6 196.26L156.7 193.31L154.23 190.34L156.27 188.97L156.19 186.74L157.32 184.61L159.84 183.57L161.83 186.61L166.4 187L166.75 189.01L168.5 189.52L170.81 186.3L173.87 186.18L176.45 184.82L176.88 183.31L176.01 182.19L181.64 172.35L181.28 170.16L182.19 169.08L181.21 167.65L183.34 163.75L186.33 161.9L192.37 163.8L194.01 163.24L195.33 160.44L198.17 158.69L192.46 155.09L190.63 153.16L190.72 152.07L189.37 151.47L189.09 144.57L186.85 141.52L189.99 140.12L189.48 137.51L194.52 136.62L194.11 135.15L196.66 135.23L198.3 136.44L200.39 134.86L199.34 134.26L196.48 128.56L195.63 130.52L194.39 131.19L194.56 129.27L195.54 129L195.82 127.78L195.23 124.94L193.35 124.99L191.34 127.56L191.55 130.89L190.04 128.69L190.38 127.28L189.37 127.32L189.08 128.86L187.53 125.53L186.36 125.93L185.7 124.45L184.11 124.66L182.95 123.8L185.35 122.95L189.14 119L193.92 116.57Z" fill="#C7C7C7" stroke="white" stroke-width="2"/>
<path d="M280.731 25.77L281.601 26.88L283.371 26.92L284.921 25.98L286.791 26.49L288.361 25.29L289.751 27.69L291.551 27.37L295.741 29.57L298.951 34.88L302.741 34.9L303.961 36.29L305.141 35.56L306.081 36.19L307.691 34.29L308.351 36.16L311.471 36.1L314.171 37.37L314.351 36.31L317.301 36.47L319.181 33.9L323.721 37.37L326.001 37.65L328.111 35.47L330.131 36.64L331.681 35.29L333.851 37.32L337.311 34.73L336.741 37.56L339.301 38.31L340.361 38.4L340.741 38.31L341.361 41.63L340.311 45.07L332.261 53.51L327.341 53.89L324.391 52.54L317.271 56.38L317.861 58.74L306.141 59.4L305.391 61.57L300.491 65.01L300.371 68.17L299.151 69.19L298.341 73.46L296.571 75.72L296.231 78.95L292.081 81.07L290.271 79.56L289.931 76.66L288.611 75.8L287.921 72.84L286.591 68.99L287.831 60.19L285.591 57.31L287.311 54.96L281.811 54.39L283.141 52.89L282.271 51.86L278.851 53.13L276.821 56.12L273.501 55.99L272.661 53.96L270.541 53.74L263.721 55.21H260.901L259.401 53.92L255.211 52.96L254.901 51.17L253.661 50.07L248.951 48.5L248.561 43.82L247.471 42.24L248.121 40.71L251.171 39.42L255.931 39.45L258.331 38.28L259.631 36.25L263.131 36.22L265.561 32.74L269.191 32.38L269.141 29.09L267.301 25.22L270.061 26.15L271.681 25.43L273.201 25.85L274.441 23.74L276.531 22.36L280.121 24.52L280.731 25.77Z" fill="#C7C7C7" stroke="white" stroke-width="2"/>
<path d="M350.68 31.39L352.38 33.11L352.05 36.74L353.04 38.53L353.03 41.91L357.36 44.34L360.02 47.22L362.06 46.85L362.42 49.58L366.09 50.14L371.69 53.04L373.65 55.33L374.4 54.57L375.64 55.05L376.59 56.82L377.61 56.48L378.04 57.89L379.29 57.21L381.5 57.69L381.47 59.37L383.84 60.53L383.28 66.87L386.97 66.04L387.59 66.95L386.67 68.27L388.98 68.24L387.59 70.8L389.33 71.26L389.88 73.19L388.93 74.06L392.98 74.58L391.62 76.14L391.25 78.55L392.98 78.07L395.53 79.04L391.7 80.95L394.14 82.82L396.65 82.68L395.42 84.29L395.63 85.32L391.89 86.21L387.08 85.59L385.06 89.82L378.6 98.12L377.76 101.1H376.12L374.46 98.17L371.89 97.31L370.22 92.68L367.56 93.78L365.17 92.9L363.47 93.5L364.43 89.74L363.66 87.9L361.09 86.17L358.82 85.22L353.75 85.62L356.99 80.18L354.73 80.17L354.22 78.25L352.74 77.09L353.02 75.51L351.52 74.62L351.91 72.18L349.19 71.5L347.94 69.76L347.04 70.21L347.81 73.75L346.68 75.86L342.06 77.52L342.81 75.65L341.42 74.99L335.87 78.37L335.81 81.06L334.18 83.72L333.59 95.13L329.75 94.22L329.05 95.28L326.6 95.81L324.32 94.37L322.87 95.44L317.35 89.71L314.35 90.1L313.51 88.7L309.99 90.78L309.5 86.4L307.29 85.35L306.91 83.31L305.35 82.13L303.15 82.87L300.34 80.25L298.95 79.9L298.35 80.88L296.23 78.95L296.57 75.72L298.34 73.46L299.15 69.19L300.37 68.17L300.49 65.01L305.39 61.57L306.14 59.4L317.86 58.74L317.27 56.38L324.39 52.54L327.34 53.89L332.26 53.51L340.31 45.07L341.36 41.63L340.74 38.31L340.86 37.5L341.41 38.34L342.54 37.38L343.09 38.77L344.56 36.86L345.08 40.64L347.49 40.28L348.18 36.53L349.65 34.74L349.94 30.3L350.68 31.39Z" fill="#C7C7C7" stroke="white" stroke-width="2"/>
<path d="M333.59 95.13L334.18 83.72L335.81 81.06L335.87 78.37L341.42 74.99L342.81 75.65L342.06 77.52L346.68 75.86L347.81 73.75L347.04 70.21L347.94 69.76L349.19 71.5L351.91 72.18L351.52 74.62L353.02 75.51L352.74 77.09L354.22 78.25L354.73 80.17L356.99 80.18L353.75 85.62L358.82 85.22L361.09 86.17L363.66 87.9L364.43 89.74L363.47 93.5L365.17 92.9L367.56 93.78L370.22 92.68L371.89 97.31L374.46 98.17L376.12 101.1H377.76L384.04 104.26L385.61 107.87L388.12 108.89L390.23 111.28L393.55 111.91L393.41 113.91L394.67 116.75L397.59 117.42L397.83 119.95L399.57 120.74L400.6 118.27L402.4 119.86L402.6 121.51L400.95 124.39L401.44 126L403.9 124.02L405.24 127.98L407.15 127.07L407.94 125.4L410.78 124.28L411.81 125.16L411.75 126.37L414.35 126.71L416.59 128.65L414.63 131.51L414.81 133.51L411.49 137.77L411.51 141.56L409.11 142.96L409.15 146.13L410.98 145.56L411.89 146.94L410.66 149.33L410.55 152.67L407.45 155.29L402.67 154.48L402.25 153.07L395.76 153.87L394.71 155.18L388.6 155L384.18 151.24L383.04 151.36L383.03 152.97L381.92 153.84L377.81 152.66L373.6 155.4L370.86 153.01L369.28 153.64L368.8 154.9L367.1 155.25L363.79 153.59L361.85 153.62L360.97 152.41L361.16 149.4L358.13 154.54L358.61 159.41L358.14 160.8L356.02 161.49L355.33 159.34L351.87 158.07L351.72 156.69L350.04 157.63L347.55 155.41L348.21 154.35L350.44 154.96L351.87 152.45L350.3 149.03L346.25 146.41L344.87 143.4L344.34 138.73L342.87 138.1L341.54 139.25L339.82 139.11L337.72 138.21L336.11 134.95L334.21 133.73L332.8 134.07L330.66 133.74L330.04 131.63L326.25 132.35L325.99 132.34L323.69 129.31L322.18 129.93L322.01 127.48L320.65 126.26L317.5 126.2L315.68 123.8L313.46 123.15L313.66 120.29L315.45 118.23L313.3 116.59L314.67 115.33L313.89 113.3L321.18 112.59L324.03 114.25L323.62 110.4L327.11 108.7L327.81 106.75L328.41 108.45L331.13 107.68L333.02 109.1L332.45 106.86L334.21 102.91L333.39 100.06L333.59 95.13Z" fill="#C7C7C7" stroke="white" stroke-width="2"/>
<path d="M111.58 308.5L113.57 309.18L114.76 311.19L112.53 310.32L112.24 311.14L110.65 310.89L109.57 309.16L110.94 307.66L111.58 308.5ZM88.65 301.13L86.24 303.14L84.26 299.86L86.74 300.45L88.65 301.13ZM83.4 275.94L84.26 277.22L84.14 279.34L83.36 280.05L81.4 278.51L82.24 282.48L83.67 286.26L83.57 287.55L81.01 285.45L79.11 285.38L78.75 284.16L80.38 283.28L79.49 279.55L81.97 276.2L83.54 275.34L83.4 275.94ZM89.94 272.12L90.7 271.98L91.83 274.01L92.71 273.56L93.72 273.6L95.34 274.92L96.19 279.68L95.85 285.62L100.86 294.6L103.69 297.37L104.52 297.18L104.76 298.84L107.82 299.74L108.87 302.46L110.4 303.26L110.87 304.43L109.55 306.21L108.3 306.33L106.4 304.29L105.44 302.99L105.65 302.02L101.39 299.34L102.34 298.41L101.02 298.45L100.42 295.99L103.25 297.96L99.56 293.24L98.76 292.89L98.77 293.92L97.37 291.97L96.77 292.06L97.07 294.12L96.06 293.99L95.67 294.9L93.06 293.87L93.88 291.8L93.47 289.93L94.2 289.09L94.71 289.77L95.54 287.79L93.79 283.89L91.17 281.77L89.59 274.72L89.94 272.12ZM141.7 275.79L133.96 267.63L139.91 272.51L141.7 275.79ZM124.43 259.6L127.78 261.29L132.84 266.46L130.7 265.05L128.28 265.38L126.69 265.35L124.89 264.19L123.95 261.91L122.45 260.91L123.52 259.11L124.43 259.6ZM141 251.67L141.42 253.43L140.31 253.53L140.26 255.48L139.25 253.63L137.95 253.46L137.5 251.73L141 251.67ZM129.83 251.79L132.35 251.63L132.48 253.07L133.59 253.11L132.98 255.28L131.23 256.56L140.44 265.44L143.67 271.25L144.11 270.47L144.5 272.91L143.6 272.45L142.69 273.77L141.3 273.58L135.35 266.65L133.93 266.42L134.02 265.59L128.02 261.67L126.96 258.01L129.89 258.96L124.86 252.85L127.27 252.84L129.5 254.28L128.95 252.97L129.83 251.79ZM133.72 248.18L135.71 250.81L132.24 250.62L130.68 248.39L131.79 248.27L131.66 246.79L133.72 248.18ZM135.22 239.85L139.21 242.43L141.29 247.06L134.27 242.82L133.94 239.69L135.22 239.85ZM109.81 232.95L111.94 236.49L110.1 236.65L104.81 232.74L107.37 232.96L108.71 231.78L109.81 232.95ZM88.38 205L91.64 206.36L93.03 208.89L92.14 209.34L91.22 213.33L95.99 228.43L99.51 233.08L103.25 232.66L104.98 236.66L103.23 237.61L102.33 237.04L102.21 244.06L100.81 248.15L103.15 260.65L101.43 259.85L100.94 261.2L103.28 264.16L104.2 267.18L102.58 269.81L104.06 274.6L106.43 277.24L107.73 279.14L106.77 282.64L108.21 281.99L108.59 283.7L109.94 283.28L111.11 283.72L109.44 284.04L109.27 285.69L108.05 286.86L107.13 286.88L106.25 287.95L103.38 285.59L102.08 284.76L102.13 283.3L100.93 282.81L99.99 280.14L98.08 277.91L97.68 277.4L95.13 274.69L95.98 272.28L95.04 268.4L95.8 268.46L95.78 267.39L94.37 266.39L94.11 267.25L92.96 265.77L93.03 262.41L92.11 261.04L92.58 258.85L91.19 256.63L90.39 257.69L89.41 257.15L89.12 251.38L87.68 248.45L87.82 246.73L86.67 243.4L86.12 242.83L85.83 239.38L87.22 237.06L92.13 244.19L92.96 243.42L95.04 244.4L96.23 242.94L95.27 239.04L94.4 238.5L95.19 236.58L97.75 237.95L96.97 236.06L95.21 235.99L93.76 231.53L90.97 229.79L91.92 226.22L90.71 222.43L86.24 219.95L84.74 215.6L83.24 214.9L82.77 212.49L84.69 210.4L85.76 206.3L86.66 205L88.33 204.49L88.38 205ZM113 194.7L114.35 195.87L114.39 194.74L115.85 195.24L116.92 197.14L114.93 196.76L120.05 205.88L117.42 205.12L116.4 208L117.26 208.28L120.47 206.48L123.68 208.54L124.9 210.57L123.57 212.41L123.83 214.73L123.14 216.67L124.24 218.7L127.28 220.58L128.81 219.65L129.8 220.86L130.55 221.61L131.71 222.22L131.46 224.83L139.44 233.05L139.38 234.26L138.59 234.38L138.16 235.4L132.56 234.51L131.98 236L133.44 237.82L133.16 238.85L130.55 239.48L125.84 237.42L124.66 235.15L122.04 235.3L118.69 233.26L118.31 232.33L119.55 231.62L119.22 224.3L117.44 226.11L118.64 226.87L118.71 228.1L114.45 226.25L112.67 228.25L108.94 227.84L107.16 226.54L106.19 226.91L105.19 226.28L99.67 220.18L99.61 216.67L103.17 215.73L102.75 212.91L103.82 211.42L106.84 213.2L109.13 212L109.4 209.12L108.67 208.16L109.76 208.09L111.12 205.72L109.98 203.51L109.97 200.96L111.23 200.76L111.71 199.82L111.69 197.32L110.2 195.64L111.57 195.67L111.97 194.26L113 194.7ZM114.36 131.79L115.19 132.32L116.69 131.67L118.27 132.73L116.38 138.09L119.46 140.05L122.19 143.28L125.01 143.68L126.37 145.46L127.08 147.52L125.93 148.83L125.5 151.67L126.2 152.86L127.07 152.77L127.42 151.59L128.99 151.71L133.05 155.04L137.09 156.38L139.16 162.62L148.56 160.13L149.13 153.99L151.01 152.47L156.3 156.98L159.38 157.33L160.9 158.95L163.81 157.71L167.02 159.36L167.12 161.79L172.44 165.22L174.57 167.95L176.94 168.19L178.2 166.26L179.32 167.69L181.2 167.65L182.17 169.08L181.26 170.17L181.62 172.36L175.99 182.2L176.86 183.32L176.44 184.83L173.86 186.19L170.8 186.31L168.49 189.54L166.74 189.03L166.39 187.02L161.82 186.62L159.83 183.58L157.32 184.62L156.18 186.75L156.26 188.98L154.22 190.36L156.69 193.32L156.59 196.28L155.76 197.16L156.65 200.41L154.92 205.66L159.14 211.96L160.65 217.32L158.55 220.71L155.03 220.39L152.23 221.43L151.29 218.98L149.23 220.48L149.12 221.82L146.76 222.19L147.06 224.22L145.79 225.36L141.85 216.09L142.37 213.18L140.9 214.32L140.94 213.2L138.86 213.38L128.4 208.16L128.17 206.61L122.24 200.59L117.87 198.2L118.29 197.03L116.86 195.39L113.91 193.78L114.13 192.67L113.34 190.43L112.91 188.92L114.62 189.08L113.52 187.41L110.14 185.22L112.47 188.61L111.76 189.55L110.72 189.39L106.06 186.88L103.87 184.67L104.37 183.92L103.6 184.55L102.02 183.14L91.84 179.96L88.59 177.98L83.78 185.41L79.85 199.27L79.98 202.65L78 207.89L75.46 206.22L76.19 199.3L74.59 192.71L75.24 186.13L75.94 184.3L77.35 183.71L75.83 177.11L74.18 175.29L74.26 173.72L76.16 171.94L68.25 166.91L66.52 163.87L67.1 161.94L66.5 159.53L68.21 160.27L72.39 159.49L75.47 160.64L75.54 158.83L77.3 156.18L79.68 155.39L81.56 158.28L83.93 157.28L85.7 158.75H87.1L88.16 160.63L90.1 158.82L95.14 157.57L97.4 155.32L98.96 155.72L104.79 151.19L106.69 143.84L106.37 141.2L109.77 140.11L112.44 136.22L113.81 131.45L114.36 131.79Z" fill="#C7C7C7" stroke="white" stroke-width="2"/>
<path d="M147.331 309.15L155.021 316.89L152.081 315.84L147.461 311.62L146.051 309.47L147.331 309.15ZM145.041 307.53L142.461 304.68L144.311 305.65L145.041 307.53ZM137.641 281.81L146.421 292.42L144.851 287.42L148.811 286.57L149.541 287.53L148.641 287.95L149.881 287.97L152.561 291.27L153.811 291.47L156.571 297.8L161.231 298.97L162.731 300.72L163.531 300.55L164.171 303.43L166.281 306.18L163.081 304.53L163.211 303.19L160.381 302.42L159.451 303.3L158.681 300.96L154.671 299.4L153.221 297.43L149.551 295.9L149.531 297.32L151.401 297.8L162.581 311.1L163.521 309.76L162.451 305.65L168.241 310.59L169.881 311L172.431 315.48L176.231 317.47L177.281 320.44L178.881 320.28L183.621 324.41L184.841 327.05L184.571 328.3L175.631 322L182.341 328.71L179.911 328.78L181.091 331.04L180.101 329.93L172.071 326.86L172.061 328.24L176.721 332.51L176.411 333.09L169.601 329L167.651 326.04L168.931 325.65L168.981 324.53L167.091 322.71L167.981 321.25L169.751 321.31L170.001 320.24L166.451 317.37L164.891 317.31L164.921 318.75L162.171 318.16L161.871 315.76L157.451 310.37L154.441 307.86L153.381 308.19L153.591 306.96L153.331 307.97L151.861 307.86L148.631 305.11L147.831 303.36L150.021 302.85L149.491 300.78L144.841 295.96L145.181 295.08L146.171 295.3L145.931 294.49L143.861 293.51L144.361 293.03L143.521 291.8L141.171 290.4L140.891 288.92L136.281 284.14L130.571 275.4L130.391 273.3L137.641 281.81ZM159.161 211.95L164.991 214.35L167.141 216.34L167.451 217.73L172.301 219.32L174.651 215.84L178.301 214.53L179.571 218.04L182.531 221.17L187.791 224.03L189.341 226.86L192.361 228.57L193.911 228.16L195.861 229.18L203.801 240.89L206.071 242.03L211.641 242.54L212.771 245.35L213.741 245.03L215.781 247.67L216.491 246.2L213.591 243.68L212.831 241.6L214.681 240.1L216.621 236.59L218.741 237.68L219.731 240.33L221.091 241.33L226.331 239.2L229.571 242.29L231.641 242.79L234.441 240.55L235.681 249.07L239.161 252.51L236.211 255.04L232.651 255.14L231.981 256.8L235.211 260.67L238.391 266.83L241.451 268.4L242.541 270.64L246.081 270.1L246.941 268.5L247.941 268.83L249.781 266.99L250.891 266.98L253.451 270.57L257.021 272.08L257.091 274.11L259.021 277.74L262.671 280.15L264.751 280.51L265.871 283.8L267.371 285.15L267.321 286.7L265.371 286.93L265.641 289.6L262.971 289.53L262.451 290.38L264.691 294.96L272.891 299.82L274.521 299.91L276.461 305.02L275.191 309.15L275.811 309.48L273.591 311.06L271.211 311.13L269.811 309.66L267.851 309.38L267.571 313.93L265.611 312.04L265.821 309.03L262.531 304.83L259.661 303.57L256.091 303.29L253.991 304.76L250.701 308.05H248.531L247.901 310.22L239.851 314L238.801 316.03L236.211 317.15L239.571 318.06L240.551 319.88L237.961 322.96L238.941 324.92L242.441 324.85L243.631 326.81L243.211 332.9L241.881 335.14L239.991 336.4L231.171 336.68L227.671 335.77L225.361 333.95L220.111 334.02L217.101 332.55L214.651 327.44L210.441 324.23L199.591 320.02L196.101 317.97L195.901 317.87L191.571 315.44L187.931 322.67L186.761 322.3L177.161 310.46L176.121 310.4L174.441 308.07L172.041 306.77L168.411 300.8L165.201 298.62L165.011 299.3L164.941 297.85L160.971 293.94L159.751 294.1L158.601 292.51L156.991 292.02L157.231 291.21L156.841 291.66L154.691 287.56L154.131 283.82L150.741 280.56L150.601 278.07L147.411 274.24L146.821 269.39L147.601 267.39L145.721 260.36L145.931 252.78L146.181 250.48L147.101 247.64L148.471 243.55L150.541 237.18L149.641 234L147.361 232.21L147.591 230.49L145.841 225.37L147.111 224.23L146.811 222.2L149.171 221.84L149.281 220.5L151.341 219L152.281 221.45L155.091 220.41L158.611 220.73L160.711 217.34L159.161 211.95Z" fill="#C7C7C7" stroke="white" stroke-width="2"/>
<path d="M401.44 86.88L402.07 87.44L402.05 88.73L401.62 89.98L400.25 88.99L400.62 91.57L404.57 90.81L405.37 93.24L407.32 92.01L407.6 93.38L409.79 93.7L409.23 91.03L409.97 90.43L419.59 92.8L423.58 92.41L429.35 97.37L432.46 105.69L433.76 107.21L436.83 107.09L438.56 108.15L441.46 108.35L443.44 111.01L445.59 110.3L449.11 112.19L450.23 111.29L451.46 114.68L452.97 115.48L454.18 117.88L457.34 114.58L459.75 114.47L459.73 117.03L461.95 122.8L468.63 125.24L471.64 136.99L473.59 137.3L472.4 140.51L467.9 146.37L468.2 149.24L465.34 150.49L463.91 154.63L461.98 157.02L456.84 159.46L456.26 159.22L454.51 158.57L451.59 160.28L446.52 160.46L447.95 159.08L445.7 157.18L438.68 156.6L435.85 154.85L430.24 154.65L428.39 153.16L426.43 149.65L423.92 149.37L419.89 145.63L417.92 145.66L416.62 148.12L413.32 146.57L412.5 144.76L410.98 145.56L409.15 146.13L409.11 142.96L411.51 141.56L411.49 137.77L414.81 133.51L414.63 131.51L416.59 128.65L414.35 126.71L411.75 126.37L411.81 125.16L410.78 124.28L407.94 125.4L407.15 127.07L405.24 127.98L403.9 124.02L401.44 126L400.95 124.39L402.6 121.51L402.4 119.86L400.6 118.27L399.57 120.74L397.83 119.95L397.59 117.42L394.67 116.75L393.41 113.91L393.55 111.91L390.23 111.28L388.12 108.89L385.61 107.87L384.04 104.26L377.76 101.1L378.6 98.12L385.06 89.82L387.08 85.59L391.89 86.21L395.63 85.32L396.72 85.81L397.21 84.55L398.32 84.62L396.81 87.46L398.77 87.83L399.81 85.87L398.68 84.46L399.33 83.58L401.44 86.88Z" fill="#C7C7C7" stroke="white" stroke-width="2"/>
<path d="M456.27 159.23L456.48 163.06L457.42 163.82L462.03 164.59L462.71 166.29L465.01 167.06L466.37 168.77L469.27 169.45L470.29 171.41L472.34 172.18L474.9 171.15L477.37 171.83L478.9 173.28L479.67 174.73L479.28 177.68L476.87 179.46L479.18 181.18L480.88 186.15L476.57 190.93L467.33 188.44L457.99 188.66L456.37 192.25L455.2 192.37L455.99 194.18L453.92 195.77L451.92 199.33L448.19 198.24L447.65 200.37L446.12 201.3L447.05 202.3L443.02 202.78L438.25 200.94L440.2 198.39L439.13 196.15L439.51 193.57L438.14 190.9L428.53 190.75L425.31 189.55L422.69 186.62L417.85 184.29L416.51 182.65L416.19 179.74L413.42 178.95L411.61 175.91L407.38 172.78L401.13 173.44L400.64 175.55L398.58 176.29L394.94 175.01L393.5 172.87L390.74 172.59L383.8 177.93L379.38 178.65L378.86 176.2L377.2 174.51L370.55 171.49L371.12 168.47L372.49 167.61L371.77 165.34L370.36 165.08L370.63 167.24L369.01 167.46L369.17 168.93L368.36 168.99L366.98 164.75L364.94 163.09L360.84 163.14L358.61 159.41L358.13 154.54L361.16 149.4L360.97 152.41L361.85 153.62L363.79 153.59L367.1 155.25L368.8 154.9L369.28 153.64L370.86 153.01L373.6 155.4L377.81 152.66L381.92 153.84L383.03 152.97L383.04 151.36L384.18 151.24L388.6 155L394.71 155.18L395.76 153.87L402.25 153.07L402.67 154.48L407.45 155.29L410.55 152.67L410.66 149.33L411.89 146.94L410.98 145.56L412.5 144.76L413.32 146.57L416.62 148.12L417.92 145.66L419.89 145.63L423.92 149.37L426.43 149.65L428.39 153.16L430.24 154.65L435.85 154.85L438.68 156.6L445.7 157.18L447.95 159.08L446.52 160.46L451.59 160.28L454.51 158.57L456.26 159.22L456.27 159.23Z" fill="#C7C7C7" stroke="white" stroke-width="2"/>
<path d="M383.8 177.93L390.74 172.59L393.5 172.87L394.94 175.01L398.58 176.29L400.64 175.55L401.13 173.44L407.38 172.78L411.61 175.91L413.42 178.95L416.19 179.74L416.51 182.65L417.85 184.29L422.69 186.62L425.31 189.55L428.53 190.75L438.14 190.9L439.51 193.57L439.13 196.15L440.2 198.39L438.25 200.94L443.02 202.78L447.05 202.3L446.12 201.3L447.65 200.37L448.19 198.24L451.92 199.33L453.92 195.77L455.99 194.18L455.2 192.37L456.37 192.25L457.99 188.66L467.33 188.44L476.57 190.93L477.68 192.38L479.88 193.14L482.89 192.81L483.94 194.62L485.23 194.02L488.28 194.98L489.4 197.2L491.17 197.86L496.42 197.01L499.61 194.49L505.94 193.86L509.09 194.64L510.31 196.32L513.78 198.23L521.93 199.55L525.26 201.99L519.79 211.85L521.7 215.9L523.81 216.56L523.34 217.55L525.4 219.36L523.98 220.93L523.41 223.61L522.71 221.23L520.62 221.63L517.19 220.59L512.21 214.15L501.58 215.14L500.17 213.11L497.58 213.27L496.87 210.48L494.95 209.67L490.42 212.03L490.22 213.74L491.42 215.86L489.58 218.22L487.39 218.94L483.04 217.59L481.03 218.35L475.94 214.38L477.46 212.52L475.79 209.41L473.55 209.38L472.25 211.81L470.62 208.28L469.42 207.9L467.16 208.85L464.98 213.25L461.68 214.29L462.08 218.21L457.79 221.63L452.87 223.61L450.57 222.56L446.32 218.09L443.29 217.49L434.35 210.46L432.3 210.9L429.62 213.4L426.93 214.56L424.67 213.28L422.43 214.25L422.66 212.06L421.85 211.18L419.96 214.23L418.16 214.28L417.15 213.31L415.18 214.2L414.69 213.49L416.05 211.91L416.03 210.23L414.17 211.51L411.72 211.53L412.28 208.78L411.43 206.72L410.49 206.88L409.84 208.98L408.15 210.43L402.55 209.95L399.05 207.86L398.99 205.78L397.2 205.88L397.08 204.08L394.64 204.41L393.38 202.58L390.32 208.9L383.39 208.68L380.1 206.44L376.7 199.87L372.31 196.4L373.16 194.07L377.32 192.4L381.73 186.94L383.77 186.03L383.13 183.54L384.36 181.34L383.35 179.97L383.8 177.93Z" fill="#C7C7C7" stroke="white" stroke-width="2"/>
<path d="M210.53 395.34L211.63 396.58L209.69 396.81L208.16 394.61L209.55 395.35L209.64 394.45L210.53 395.34ZM185.83 372.6L187.84 372.83L188.61 374.34L191.64 375.57L195.19 379.64L196.88 379.41L198.31 381.07L198.37 383.68L205.15 389.57L204.73 391.02L203.65 389.79L202.18 390.56L197.8 387L197.82 388.09L196.68 388.06L195.28 387.44L194.51 385.46L194.41 384.34L193.87 383.85L192.98 382.86L189.92 381.23L188.89 378.72L185.5 374.78L185.59 373.8L184.11 372.88L185.33 371.79L185.83 372.6ZM163.95 368.88L164.77 368.92L164.45 370.04L166.26 371.56L166.88 373.68L163.62 371.44L164.33 370.46L163.22 368.51L163.95 368.88ZM165.97 363.16L168.75 365.2L169.27 367.5L170.06 367.54L171.54 370.11L173.17 370.81L173.35 372.43L175.3 375.36L165.94 367.1L165.31 362.79L165.97 363.16ZM168.22 355.05L168.91 356.14L171.1 356.53L173.93 359.2L174.92 359.73L175.63 360.18L177.35 361.36L176.97 362.65L178.94 365.28L181.25 366.36L184.33 369.45L183.52 369.87L184.88 371.61L183.77 372.87L183.03 373.23L183.21 371.37L181.82 371L180.57 368.07L179.93 367.65L179.47 369.52L178.6 370.17L171.34 362.19L169.97 359.42L168.02 358.96L164.8 355.91L165.48 354.66L164.26 352.88L164.55 351.87L168.22 355.05ZM162.88 352.58L163.77 352.84L163.9 354.44L161.61 353.33L159.94 350.69L160.61 350.07L162.88 352.58ZM150.28 351.34L152.5 354L149.56 352.71L146.59 349.72L150.28 351.34ZM143.9 350.27L144.69 351.28L146.04 351.29L145.93 352.08L148.79 354.34L150 357.2L152.45 357.8L151.85 358.96L152.61 360.11L157.71 363.41L157.69 362.13L158.94 362.72L159.02 363.9L158.12 364.03L160.5 365.57L161.13 369.46L164.29 374.55L165.46 374.82L168.05 377.82L168.15 376.06L170.45 377.72L170.02 379.01L173.05 381.13L174.53 383.55L175.51 383.39L175.97 385.41L181.15 388.42L181.47 389.61L180.25 389.24L180.78 390.41L179.82 390.8L178.11 389.7L177.7 389.57L176.4 388.51L175.24 388.7L175.12 387.58L173.24 386.78L172.5 385.32L171.46 385.98L171.99 386.98L172.85 387.76L174.48 389.46L175.41 389.43L176.83 391.43L178.73 392.07L178.83 394.03L168.75 385.21L157.3 366.82L151.66 362.48L146.43 356.26L145.02 355.47L145.11 357.08L139.98 353.92L139.42 352.32L140.76 351.16L141.32 351.66L140.01 352.19L141 353.83L143.73 355.3L142.13 353.3L143.22 353.07L145.69 354.67L143.31 350.72L143.37 349.47L143.9 350.27ZM151.44 349.79L151.67 350.58L148.15 347.6L149.37 347.4L151.44 349.79ZM152.51 346.11L157.27 351.62L158.61 351.55L160.89 353.76L161.61 354.91L161.2 356.49L158.79 354.65L158.51 355.4L155.24 352.11L152.34 347.98L152.51 346.11ZM138.03 337.01L139.73 339.34L144.2 341.62L145.66 343.53L146.26 341.63L147.87 342.72L147.02 343.35L148.9 344.42L147.67 344.79L147.23 346.47L144.47 345.16L144.93 344.27L142.37 343.77L141.38 342.2L138.81 341L141.7 345.59L141.59 346.27L140.4 346.03L136.07 337.83L138.03 337.01ZM127.08 333.11L128.22 332.94L130.04 335.32L128.94 335.64L127.94 335.4L125.91 333.37L127.08 333.11ZM135.91 334.73L137.42 336.06L135.95 337.03L133.75 335.6L134.16 338L131.85 336.76L130.9 334.53L133.39 334.88L132.48 332.49L135.91 334.73ZM161.75 328.15L162.7 327.75L163.85 329.11L164.74 328.53L166.3 329.9L168.22 329.87L171.81 332.7L171.79 333.48L170.37 334.23L170.33 332.76L167.81 331.74L166.03 332.35L166.13 333.5L163.25 333.83L159.9 329.04L160.14 327.86L161.75 328.15ZM119.04 326.63L121.23 327.74L124.04 331.27L121.11 330.2L118.78 328.17L118.98 327.51L116.55 326.75L115 324.24L115.91 323.46L119.04 326.63ZM125.93 315.45L127.86 317.6L127.45 321.35L129.4 322.32L130.09 324.77L129.29 325.04L126.98 323.44L125.66 318.98L123.23 318.14L123.51 316.09L125.93 315.45ZM137 314.73L138.65 317.17L136.87 319.57L139.65 323.78L139.02 325.68L136.95 325.61L134.29 322.97L131.83 321.89L135.11 320.3L133.34 314.87L134.58 315.3L135.97 314.01L137 314.73ZM266.49 312.63L267.54 313.89L267.82 309.34L269.78 309.62L271.18 311.09L273.56 311.02L275.79 309.44L276.15 313.34L278.45 316.45L275.94 317.74L273.49 317.19L273.97 319.6L282.63 322.66L283.5 324.33L282.82 326.57L283.21 333.66L285.23 343.63L279.6 345.52L277.01 345.59L275.75 348.32L276.59 352.94L275.68 355.25L273.3 357.14L270.99 358.47L261.12 353.92L260.91 351.96L259.09 349.37L257.13 349.23L252.86 356.44L250.97 357.21L249.78 358.96L248.38 360.99L246 361.48L244.74 364.42L240.96 363.16L239.7 363.93L240.89 365.68L242.85 365.82L246.42 368.2L246.56 370.37L244.67 372.89L245.65 375.13L242.71 377.86L240.19 378.56L242.88 382.42L240.96 383.64L240.12 383.33L237.93 384.55L238.22 385.27L239.04 385.61L239.34 386.01L239.29 386.31L238.56 386.81L238.22 387.28L237.49 389.1L236.36 389.7L235.09 390.3L236.02 391.35L235.45 392.62L235.19 393.74L234.9 395.64L231.41 393.65L230.85 393.49L228.29 392.37L223.87 394.46L221.84 393.83L218.42 390.75L215.73 393.11L214.79 392.91L213.35 391.98L212.82 391.01L213.45 390.72L212.12 389.19L205.16 385.67L203.58 383.71L203.93 382.26L200.27 379.68L193.65 370.63L189.02 368.42L190.05 368.36L190.12 367.27L187.41 365.89L185.51 361.21L183.94 360.33L183.81 361.13L181.31 358.65L180.96 357.6L180.93 356.25L179.05 355.78L180.03 354.85L179.72 353.67L172.85 346.62L174.68 345.41L175.51 341.84L171.86 340.17L171.29 337.88L169.67 337.36L171.19 334.68L173.22 334.61L176.68 338.59L176 338.79L176.9 340.14L177.69 339.19L178.83 339.09L180.26 337.69L177.87 334.05L178.92 333.39L180.16 334.25L179.71 332.58L187.54 339.28L189.24 338.68L187.27 334.3L189.11 334.62L189.8 333.27L185.16 328.57L186.59 326.78L186.86 327.91L191.93 330.87L192.6 331.75L192.09 332.6L199.66 337.44L201.36 337.96L204.06 336.84L210.33 338.61L211.38 341.73L211.24 344.53L207.18 346.14L211.73 350.27L217.47 348.87L220.34 352.44L221.39 357.06L223 356.57L223.49 354.89L221.04 350.76L221.32 348.94L219.15 346.21L215.51 345.37L212.85 342.43L212.64 339L213.79 339.01L213.67 337.3L210.32 335.44L207.55 336.13L206.53 334.08L204.99 334.53L201.41 329.91L193.34 326.31L188.02 322.68L191.62 315.42L195.95 317.85L196.15 317.95L199.64 320L210.49 324.21L214.7 327.42L217.15 332.53L220.16 334L225.41 333.93L227.72 335.75L231.22 336.66L240.04 336.38L241.93 335.12L243.26 332.88L243.68 326.79L242.49 324.83L238.99 324.9L238.01 322.94L240.6 319.86L239.62 318.04L236.26 317.13L238.85 316.01L239.9 313.98L247.95 310.2L248.58 308.03H250.75L254.04 304.74L256.14 303.27L259.71 303.55L262.58 304.81L265.87 309.01L265.66 312.02L266.49 312.63Z" fill="#C7C7C7" stroke="white" stroke-width="2"/>
<path d="M541.95 95.93L550.77 101.1L552.26 100.9L552.71 96.49L553.87 97.41L554.62 101.95L557.41 104.14L556.79 112.27L560.35 116.26L562.75 126.45L564.85 128.77L568.71 130.75L565.85 138.61L563.11 138.76L562.17 139.73L563.35 141.92L561.07 145.56L561.36 147.31L565.59 151.27L567.63 151.75L571.07 150.67L571.99 148.53L574.34 148.42L575.57 151.67L579.01 152.19L582.54 154.73L582.27 156.91L580.66 158.77L576.57 159.14L573.35 157.53L571.96 157.79L570.85 163.77L571.84 165.7L570.94 166.36L566.72 166.19L563.21 161.4L559.83 159.28L556.99 159.25L556.47 160.59L552.6 160.94L550.96 162.08L552.97 168.49L550.98 168.64L550.87 170.58L548.22 171.15L547.47 169.66L546.24 169.34L541.87 170.13L539.52 172.31L535.42 172.93L535.4 178.12L532.68 179.64L533.38 183.66L529.25 183.97L527.5 186.72L524.6 186.21L521.74 187.95L521.73 194.52L526.1 197.14L528.18 196.94L527.37 201.3L525.26 201.99L521.93 199.55L513.78 198.23L510.31 196.32L509.09 194.64L505.94 193.86L499.61 194.49L496.42 197.01L491.17 197.86L489.4 197.2L488.28 194.98L485.23 194.02L483.94 194.62L482.89 192.81L479.88 193.14L477.68 192.38L476.57 190.93L480.88 186.15L479.18 181.18L476.87 179.46L479.28 177.68L479.67 174.73L478.9 173.28L477.37 171.83L474.9 171.15L472.34 172.18L470.29 171.41L469.27 169.45L466.37 168.77L465.01 167.06L462.71 166.29L462.03 164.59L457.42 163.82L456.48 163.06L456.27 159.23L456.84 159.46L461.98 157.02L463.91 154.63L465.34 150.49L468.2 149.24L467.9 146.37L472.4 140.51L473.59 137.3L471.64 136.99L468.63 125.24L461.95 122.8L459.73 117.03L459.75 114.47L465.65 114.44L468.34 113.42L471.17 115.85L477.06 117.76L479.29 117.19L481.23 114.18L484.12 114.38L486.04 116.09L487.87 114.41L492.34 115.69L493.81 118.2L497.25 119.19L499.29 118.39L503.11 119.49L503.51 120.46L505.55 117.39L506.26 116.54L509.41 118.67L509.69 120.7L510.67 121.38L514.87 121.87L514.73 118.26L515.81 117.15L518.41 117.64L519.37 113.45L522.52 115.09L523.82 113.57L525.78 113.56L526.34 112.14L527.97 112.53L527.96 110.43L529.99 109.6L530.82 107.6L533.04 106.79L533.11 104.63L533.89 101.38L534.69 102.67L536.25 101.49L534.98 99.61L537.16 98.35L538.05 96.2L541.95 95.93Z" fill="#C7C7C7" stroke="white" stroke-width="2"/>
<path d="M221.38 421.31L222.52 422.07L224.05 421.74L226.2 423.17L226.76 422.5L229.15 425.72L232.08 426.2L233.85 427.77L231.8 427.84L230.67 427.33L229.85 427.79L226.35 426.42L223.1 422.81L220.92 422.5L220.46 420.77L221.38 421.31ZM235.91 417.83L238 418.79L238.26 420.37L235.2 419.16L235.05 416.41L235.91 417.83ZM246.62 418.04L247.9 419.89L248 423.14L242.97 417.88L244.51 418.05L244.9 416.38L246.62 418.04ZM225.59 417.84L228.14 418.57L229.8 420.74L228.2 420.7L225.59 417.84ZM227.89 415L229.67 415.14L230.5 416.65L232.27 419.1L233.48 418.89L232.32 420.4L232.79 421.77L230.33 420.47L230.09 419.4L231.71 419.63L228.65 417.28L227.89 415ZM236.8 413.55L238.93 415.33L237.68 415.2L238.34 416.7L235.79 413.83L236.35 412.87L236.8 413.55ZM241.72 414.13L240.3 414.84L239.2 411.53L241.72 414.13ZM192.95 407.44L195.44 409.03L194.62 409.46L190.41 407.06L191.43 406.57L192.95 407.44ZM220.84 399.52L220.71 401.24L223.27 403.36L223.17 404.28L224.8 403.71L225.67 405.32L224.81 405.85L226.32 406.57L227.09 408.54L222.86 407.17L222.87 405.8L218.02 401.81L216.57 398.78L217.63 398.45L219.13 400.25L219.9 398.35L220.84 399.52ZM182.62 392.57L182.73 393.27L185.42 393.49L185.87 394.21L184.19 394.41L184.54 395.08L193.1 401.7L197.87 407.22L195.3 406L192.2 405.24L189.34 403.24L189.52 401.87L184.97 399.38L183 395.42L180.92 393.4L181.06 392.54L182.62 392.57ZM185.79 390.04L188.82 391.13L187.59 391.39L188.77 392.72L189.45 392.15L190.75 392.98L190.86 391.02L192.24 392.64L191.66 394L194.27 396.49L194.41 398.06L196.6 400.52L195.91 400.83L194.79 398.91L190.04 395.85L186.87 392.43L184.96 392.24L184.26 391.24L185.79 390.04ZM296.41 358.42L299.25 362.57L305.22 362.44L306.81 370.02L312.93 370.51L316.57 376.82L317.03 380.17L312.64 379.93L307.64 383.41L305.76 382.95L303.65 383.94L303.39 385.09L304.8 386.04L304.6 386.97L301.58 387.31L298.16 386.14L296.5 391.51L306.69 401.15L302.73 404.11L301.79 405.9L297.39 408.4L298.62 411.27L296.62 413.42L298.64 415.09L298.68 416.12L295.64 419.54L287.71 418.96L285.81 421.64L281.16 421.26L279.94 424.57L275.49 424.7L272.34 429.73L269.42 430.39L268.85 432.13L266.35 433.71L267.68 437.07L270.5 437.54L271.17 441.27L269.9 442.37L266.6 442.4L265.97 444.88L263.47 446L261.73 447.95L260.93 447.25L261.76 446.24L259.85 446.27L258.44 446.95L257.66 446.31L256.44 444.95L257.79 444.74L258.94 444.75L260.48 443.48L259.55 440.95L260.91 440.61L259.21 440.37L258.84 441.39L257.67 441.33L257.62 443.11L256.73 442.2L257.49 440.41L254.79 439.74L253.89 438.59L254.34 437.65L255.94 437.82L255.82 436.18L254.65 437.02L253.17 436.12L254.59 433.91L253.08 433.23L253.86 432.8L253.26 430.93L254.02 430.22L252.61 428.05L253.29 427.17L258.62 427.38L251.54 425.16L253.96 425.25L254.18 424.21L256.48 426.22L256.15 423.53L252.88 420.92L250.83 417.78L249.48 418.42L246.62 414.8L239.21 409.48L238.06 410.37L235.28 409.64L235.24 410.21L233.45 409.28L233.68 408.44L230.03 408.38L228.97 405.79L226.58 403.49L224.3 403.3L221.97 401.41L221.76 400.07L223.43 401.91L224.24 400.92L225.77 401.03L228.23 402.5L228.64 403.84L228.68 401.07L226.87 400.96L222.79 397.13L219.22 396.52L217.5 395.13L217.64 393.83L216.04 394.9L215.81 393.44L218.44 390.79L221.86 393.87L223.89 394.5L228.31 392.41L230.87 393.53L231.43 393.69L234.92 395.68L235.21 393.78L235.47 392.66L236.04 391.39L235.11 390.35L236.38 389.75L237.51 389.15L238.25 387.33L238.59 386.86L239.33 386.36L239.38 386.06L239.08 385.66L238.26 385.32L237.97 384.6L240.16 383.38L241 383.7L242.92 382.48L240.23 378.62L242.75 377.92L245.69 375.19L244.71 372.95L246.6 370.43L246.46 368.26L242.89 365.88L240.93 365.74L239.74 363.99L241 363.22L244.78 364.48L246.04 361.54L248.42 361.05L249.82 359.02L251.01 357.27L252.9 356.5L257.17 349.29L259.13 349.43L260.95 352.02L261.16 353.98L271.04 358.53L273.35 357.2L275.73 355.31L276.64 353L275.8 348.38L277.06 345.65L279.65 345.58L285.28 343.69L289.1 349.75L294.7 354.47L295.43 357.62L296.41 358.42Z" fill="#C7C7C7" stroke="white" stroke-width="2"/>
<path d="M525.26 201.99L527.37 201.3L528.18 196.94L526.1 197.14L521.73 194.52L521.74 187.95L524.6 186.21L527.5 186.72L529.25 183.97L533.38 183.66L532.68 179.64L535.4 178.12L535.42 172.93L539.52 172.31L541.87 170.13L546.24 169.34L547.47 169.66L548.22 171.15L550.87 170.58L550.98 168.64L552.97 168.49L550.96 162.08L552.6 160.94L556.47 160.59L556.99 159.25L559.83 159.28L563.21 161.4L566.72 166.19L570.94 166.36L571.84 165.7L574.34 167.77L574.3 169.65L573.48 171.16L571.62 171.5L569.4 174.98L574.6 179.67L581.68 181.21L583.68 186.93L598.09 194.46L613.4 196.09L613.93 201.17L612.92 203.03L613.27 204.98L609.08 205.58L605.02 200.91L602.58 201.14L601.81 205.09H599.45L590.64 200.61L590.23 201.51L591.71 203.21L591.35 205.06L587.14 211.22L585.7 211.92L581.58 211.4L581.49 214.13L583.11 216.57L582.19 218.34L584.07 220.46L584.01 222.82L582.19 224.72L582.92 228.91L581.93 230.76L577.65 233.43L583.83 234.41L586.83 232.92L588.1 236.64L586.88 238.37L582.88 240.08L580.34 243.17L573.22 244.19L574.66 250.97L569.07 251.8L556.77 251.15L547.69 243.63L548.55 241.46L546.45 238.45L547.37 238L550.15 239.41L551.98 238.4L549.9 234.73L550.92 231.05L547.01 229.98L543.98 230.66L544.82 227.45L542.59 224.65L540.36 224.08L537.82 220.87L539.75 218.75L538.71 216.6L537.6 216.4L536.54 217.65L537.03 221.07L536.31 221.85L531.31 220.62L531.38 219.73L534.2 217.57L533.8 216.22L532.82 216.29L531.55 218.27L527.63 216.34L527.25 217.13L528.71 218.81L527.97 220.4L526.9 218.15L523.81 216.56L521.7 215.9L519.79 211.85L525.26 201.99Z" fill="#C7C7C7" stroke="white" stroke-width="2"/>
<path d="M280.73 505.39L280.6 506.14L282.1 506.32L280.72 508.23L281.74 508.67L284.17 506.41L286.13 506.59L286.57 507.65L288 506.49L287.91 509.5L285.52 511.12L285.39 512.59L283.56 513.84L281.94 514.19L279.35 514.7L273.3 515.87L268.78 515.77L271.08 513.54L271.17 511.44L270.19 510.04L268.38 511L267.04 508.94L271.74 506.33L280.73 505.39ZM333.36 502.89L335.37 503.1L337.4 503.38L338.41 504.55L335.62 505.69L330.29 504.67L331.38 503.2L333.36 502.89ZM298.06 492.22L301.09 493.92L303.07 493.27L303.26 494.9L301.28 495.34L299.55 495.27L297.4 494.02L295.95 493.51L296.79 492.01L298.06 492.22ZM320.01 484.19L321.07 484.13L320.43 485.97L320.77 486.86L322 486.7L321.84 487.86L324.58 486.12L325.27 487.04L327.98 486.96L328.49 486.86L329.05 486.15L330.89 486.97L330.59 489.05L334.12 491.82L331.38 491.33L333.72 492.84L334.71 494.07L336.84 494.83L339.19 493.63L340.32 493.6L342.25 494.66L347.5 494.1L348.89 494.89L352.63 494.04L354.78 495.52L361.05 495.48L376.18 498.08L380.33 497.15L385.59 499.3L377.04 500.87L375.29 500.25L370.87 501.01L369.5 500.29L366.02 501.01L363.12 500.8L358.71 501.13L341.85 498.91L330.48 499.77L320.4 496.89L317.83 497.12L311.34 493.88L309.91 494.73L307.25 493.77L307.54 492.65L305.82 492.62L305.28 491.64L299.53 489.42L300.95 488.77L304.99 489.55L306.97 488.31L308.59 487.56L309.86 487.9L310.61 487.17L316.2 488.2L320.42 491.68L323.48 490.93L321.38 490.18L321.19 488.4L319.73 488.1L319.32 486.04L317.48 487.12L315.53 485.13L316.5 484.42L317 485.27L318.7 485.3L318.27 484.01L320.01 484.19ZM307.72 461.61L314.69 462.56L318.51 461.75L324.7 462.93L332.03 464.25L337.82 465.66L342.38 466.18L342.63 467.37L344.27 466.6L346.35 467.76L344.22 468.4L344.36 469.22L346.62 468.61L347.67 469.76L347.77 468.55L348.62 468.35L353.77 471.65L354.83 472.88L353.5 473.4L354.36 474.65L353 475.1L352.95 477L351.19 476.46L350.28 478.56L343.64 479.86L339.81 479.42L327.47 480.79L325.36 479.8L316.54 478.75L314.5 477.9L313.54 477.56L312.28 476.58L311.94 475.57L310.69 475.39L309.71 474.74L308.61 474.63L309.13 473.58L308.36 472.9L307.48 473.07L307.66 473.95L306.63 473.58L306.02 473.1L304.12 472.16L303.92 469.72L305.64 471.35L308.03 470.92L306.63 470.18L306.5 468.15L309.4 467.04L307.97 466.26L308.39 464.7L306.2 462.59L306.02 461.75L307.72 461.61ZM286.89 458.31L292.24 459.79L292.79 461.28L293.77 460.53L294.55 461.21L295.6 460.98L298.12 464.51L299.07 464.21L299.36 466.24L302.26 468.48L302.9 470.39L301.03 470.76L300.7 469.67L299.59 469.73L298.57 469.59L297.82 468.51L294.53 467.57L293.26 466.83L293.55 465.81L291.43 465.41L290.32 465.01L285.5 462.29L282.9 462.19L282.73 461.14L283.1 459.56L282.42 458.64L286.89 458.31ZM270.92 452.47L271.75 453.68L270.64 455.12L269.85 453.86L267.15 453.56L267.36 452.91L270.92 452.47ZM276.22 452.07L278.84 452.3L279.78 454.18L279.02 455.59L277.48 454.84L276.53 456.02L272.91 456.12L273.92 454.23L274.65 454.37L274.58 453.02L275.41 452.54L276.22 452.07ZM290.69 444.1L293 444.17L298.22 447.06L302.22 448.03L294.21 448.76L289.76 447.28L289.26 448.36L286.98 449.16L282.78 447L284.21 446.19L288.06 447.11L288.35 445.02L286.46 444.29L290.69 444.1ZM263.44 445.96L265.95 444.84L266.58 442.37L269.88 442.34L271.15 441.24L270.48 437.51L267.67 437.04L266.35 433.68L268.86 432.1L269.43 430.36L272.35 429.71L275.5 424.68L279.95 424.55L281.17 421.24L285.82 421.63L287.72 418.95L295.65 419.53L298.69 416.11L298.65 415.08L296.63 413.41L298.63 411.26L297.4 408.39L301.8 405.89L302.74 404.1L306.7 401.14L296.52 391.5L298.18 386.13L301.6 387.3L304.62 386.96L304.82 386.03L303.41 385.09L303.67 383.94L305.78 382.95L307.66 383.41L312.66 379.93L317.05 380.17L322.01 383.52L325.46 388.39L333.89 394.42L334.73 395.91L334.77 400.36L337.47 404.79L339.17 406.55L343.71 407.58L346.56 412.56L350.17 415.06L352.08 418.19L354.71 419.75L356.96 424.03L360.78 427.48L368.95 438.26L370.23 437.31L372.08 438.05L374.14 440.41L377.33 442.22L379.8 445.48L388.2 445.15L391.51 447.4L393.75 450.47L394.24 453.11L393.86 456.08L391.24 461.79L399.14 476.52L399.98 481L405.34 482L408.07 484.11L410.36 488.27L409.84 491.3L411.35 491.68L407.78 495.02L402.52 493.72L400.35 494.81L400.52 496.83L404.09 497.98L404.03 500.86L401.36 503.85L399.94 501.22L395.13 499.02L394.54 497.51L392.01 495.59L383.19 492.38L380.98 489.73L379.5 489.59L376.81 487.53L376.18 484.9L373.34 483.98L370.51 478.77L367.28 476.49L366.26 475.46L359.68 466.06L354.61 461.96L353.65 460.23L343.59 459.86L336.7 458.43L333.18 454.13L328.24 454.87L325.94 452.84L321.72 451.28L317.47 447.57L316.15 446.52L311.21 445.72L308.34 446.25L305.76 446.14L301.75 444.96L303.35 443.94L305.15 443.06L306.97 442.11L307.79 441.94L310.74 442.34L310.8 441.67L310.14 440.97L298.02 438.82L294.06 440.5L292.01 442.51L284.66 443.69L283.43 444.64L280.66 445.11L280.33 444.34L278.15 444.5L275.35 443.35L273.75 444.46L279.69 445.97L279.99 447.24L278.03 448.66L275.51 448.86L275.02 449.2L273.53 450.34L271.3 450.07L268.66 448.38L267.86 449.77L266.54 448.92L265.61 449.3L266.14 447.61L264.31 447.28L263.24 448.28L263.44 445.96Z" fill="#C7C7C7" stroke="white" stroke-width="2"/>
<path d="M28.69 240.78L29.62 241.71L30.47 241.4L31.46 241.82L31.18 243.02L32.13 243.5L30.4 244.33L30.34 243.56L29.56 243.66L29.06 246.41L28.39 243.83L29.24 242.11L27.2 241.02L28.69 240.78ZM56.43 155.03L61.68 159.05L66.48 159.49L67.08 161.9L66.5 163.83L68.23 166.87L76.14 171.9L74.25 173.68L74.17 175.25L75.82 177.07L77.34 183.67L75.93 184.26L75.23 186.09L74.58 192.67L76.18 199.26L75.46 206.18L78 207.85L77.81 210.07L76.01 213.05L75.08 214.44L72.98 218.15L71.7 219.45L70.49 218.46L69.76 220.17L71.05 221.48L71.42 224.06L71.18 225.26L70.66 225.99L71.97 228.53L72.39 232.09L70.01 236.25L68.74 234.73L67.34 235.66L66.79 234.45L65.71 234.38L61.34 238.1L62.19 234.46L64.4 233.52L62.95 232.14L62.61 229.4L61.53 230.1L60.21 229.53L60.73 227.41L59.32 223.89L58.65 225.66L59.44 227.98L58.51 230.07L61.7 230.9L62.47 233.22L61.24 233.25L61.33 234.78L60.04 235.42L60.01 237.67L57.93 236.77L59.78 239.1L58.58 242.09L57.67 242.7L57.44 243.89L55.16 245.67L52.61 244.27L52.62 245.67L55.02 246.89L53.74 247.72L54.74 249.96L52.61 251.53L52.42 253.33L53.44 255.05L53.7 256.19L54.89 258.71L49.32 258.72L47.85 256.66L46.61 256.86L46.78 255.65L45.23 254.82L44.19 255.68L44.4 256.64L45.69 257.12L46.81 258.75L45.74 260.31L46.43 262.14L46.46 262.68L46.14 263.45L44.94 263.77L44.61 257.9L42.13 257.8L40.35 257.31L39.71 256.98L38.86 255.77L40.5 255.12L40.17 254.41L38.56 254.67L38.43 253.07L37.32 254.39L36.8 253.81L37.73 251.89L35.35 251.28L33.68 250.03L33.59 248.17L35.75 249.84H37.77L38.3 249.21L38.68 248.63L38.97 246.97L37.64 246.78L37.2 247.76L35.88 247.94L34.5 246.95L33.53 246.03L34.96 244.68L35.47 242.55L34.44 242.32L34.29 240.38L30.22 232.2H27.32L25.72 228.99L24.76 228.8L24.97 226.82L22.63 226.66L22.7 224.41L21.67 223.75L22.52 222.7L18.73 220.38L16.43 220.89L15.98 219.93L17.18 219.71L16.41 217.91L17.37 217.47L17.5 215.95L16.56 215.53L14.75 214.73L13.93 213.3L12.95 209.5L13.18 208.43V207.77L14.42 206.94L12.12 204.41L13.75 203.84L11.27 201.13L12.02 200.25V199.52L12.88 197.6L13.06 196.68L13.36 194.54L12.78 192.91L10.84 192.69L10.53 191.44L11.52 189.56L13.76 189.62L13.44 188.37L11.94 188.46L10.04 186.39L12.32 186.58L12.33 185.42L14.76 184.13L12.85 183.85L12.32 183.94L9.09 184L8.6 183.71L9.49 182.92L7.02 181.92L6.89 178.66L8.63 177.72L7.33 177.32L7.47 175.57L7.38 174.79L6.39 173.72L6.66 171.4L4.59 169.28L5.41 166.12L4 165.55L4.67 163.73L3.83 163.16L3.94 160.93L2 158.5L3.3 156.28L5.72 156.82L13.91 162.03L18.18 163.12L21.05 165.37L25.93 163.08L27.14 161.45L28.84 161.23L33.49 163.13L33.57 165.45L34.76 166.8L37.57 166.76L38.85 168.04H41.36L44.68 164.04L48.96 163.31L51.12 164.62L52.71 163.31L53.13 159.32L49.96 156.29L50.69 154.98L53.9 155.63L53.77 154.29L54.66 153.89L56.43 155.03Z" fill="#C7C7C7" stroke="white" stroke-width="2"/>
<path d="M470.13 562.19L471.11 563.62L470.54 564.43L469.94 563.35L467.03 562.48L469.17 562.21L469.02 561.38L470.13 562.19ZM464.79 561L465.95 562.25L463.78 561.8L464.08 562.52L463.27 562.79L460.73 560.66L462.21 561.05L463.17 559.45L464.79 561ZM448.33 552.24L452.11 553.79V555.21L448.49 553.41L446.87 551.42L448.33 552.24ZM451.18 551.27L453.33 551.37L459.6 555.91L460.27 556.89L459.28 559.28L454.38 555.35L451.18 551.27ZM351.52 549.15L352.77 548.48L353.11 549.46L355.32 548.79L358.36 549.32L359.11 549.91L358.7 551.75L355.25 555.29L353.38 555.82L352.96 555.4L352.61 553.83L351.45 553.87L349 554.7L348.74 555.87L345.78 552.33L347.04 552.71L347.03 549.83L348.28 549.24L348.03 548.3L349.16 548.57L350.09 548.26L351.52 549.15ZM403.6 544.95L406.3 544.84L405.12 546.23L403.64 546.16L404.42 546.95L410.77 546.84L411.67 547.98L426.92 552.77L427.2 553.95L431.67 553.8L432.42 554.98L434.36 554.03L434.65 555.55L436.18 555.05L442.51 557.82L441.99 558.76L443.01 560.66L441.5 560.69L440.89 559.92L439.78 559.15L438.03 559.52L432.06 556.8L428.09 556.01L426.11 556.49L420.3 554.47L417.92 554.58L412.58 551.62L411.07 552.84L410.43 551.39L408.09 551.38L407.52 550.31L405.38 549.73L405.49 550.78L405.33 551.2L399.38 548.62L399.72 547L403.6 544.95ZM333.71 518.04L333.8 518.76L336.55 518.44L338.3 520.02L342.28 520.81L342.71 521.68L349.73 522.96L354.76 522.14L355.82 520.98L366.6 519.91L370.24 519.61L369.97 520.58L375.86 522.3L376.68 522.67L379.35 522.01L380.3 522.88L382.2 526.05L381.86 527.02L386.3 528.57L378.92 529.82L377.6 529.99L370.08 527.6L362.45 527.16L354.27 531.57L350.97 532.05L349.29 531.46L350.52 530.69L349.83 530.2L341.7 530.51L330.96 526.98L330.27 528.88L327.91 527.44L328.51 526.99L327.84 525.93L330.94 525.03L330.29 523.61L335.21 523.06L334.86 522.4L334.43 521.5L331.47 521.47L331.82 520.64L329.48 519.09L328.47 520.68L327.95 519.33L326.67 519.13L328.03 518.23L329.05 518.85L331.38 517.81L333.71 518.04ZM366.15 510.38L368.84 511.1L368.66 511.66L372.56 513.5L382.68 513.27L396.38 516.5L402.94 519.53L405.46 521.66L411.15 523.7L411.8 527.03L414.8 528.16L415.98 529.65L418.29 529.33L420.05 530.64L418.67 527.67L419.75 527.59L425.69 531.11L428.2 531.67L432.32 535.09L435.54 535.26L435.71 536.41L440.93 540.35L442.24 540.22L438.14 536.93L437.57 535.52L436.67 535.58L432.64 532.91L433.59 531.26L436.95 527.58L440.49 528.19L446.94 532.47L449.49 528.44L453.13 531.48L453.35 535.77L455.32 539.75L457.73 540.52L457.18 543.84L459.17 543.8L463.23 545.47L465.65 547.91L467.91 548.4L469.19 551.49L472.64 552.25L479.3 557.23L479.19 560.64L483.47 561.82L484.7 565.09L487.51 564.74L491.27 569.62L493.39 570.8L494.8 573.45L499.45 571.98L500.08 570.62L502.2 570.03L506.71 570.62L508.47 573.65L513.83 577.89L515.67 585.94L514.58 587.86L514.78 589.96L521.82 598L521.02 600.5L515.29 593.72L514.38 594.46L512.95 593.58L512.12 592.07L505.32 587.26L498.56 583.79L492.96 578.98L491.7 576.65L491.63 575.5L492.4 573.16L490.13 570.02L489.19 569.75L487.28 571.08L481.65 567.48L479.11 567.54L477.88 567.01L474.89 565.97L474.66 564.78L474.99 564.11L476.65 564.1L476.06 563.44L473.42 561.38L465.26 557.37L464.02 555.38L458.61 552.66L455.93 550.33L455.64 548.88L456.63 548.82L457.07 546.84L454.9 548.44L452.82 546.73L452.49 544.59L450.18 545.11L447.57 544.01L447.85 544.95L446.24 546.85L444.21 544.46L437.48 540.12L437.87 541.26L442.52 544.56L444.85 548.06L443.82 550.46L442.6 549.2L443.37 548.19L442.2 545.58L441.27 546.31L439.11 545.12L438.43 545.54L435.43 543.99L435.29 542.72L433.26 543.3L411.59 535.58L409.77 534.51L410.57 533.27L411.79 533.21L412.04 532.1L408.65 529.48L406.75 528.58L406.68 529.16L402.87 529.12L400.09 526.64L390.65 522.4L387.84 519.58L383.86 520.71L379.2 520.61L375.38 519.07L372.45 519.13L369.25 516.56L366.97 516L367.84 513.67L368.9 513.49L368.39 512.62L366.92 513L366.7 511L365.45 510.39L366.15 510.38ZM414.63 494.24L431.44 504.51L434.02 511.64L438.9 520.93L434.25 522.09L430.66 524.39L429.29 524.05L428.71 525.3L420.77 525.24L414.07 518.59L415.01 516.59L413.87 515.91L412.76 513.43L409.98 514.8L408.84 513.01L409.54 510.36L410.15 509.49L409.05 507.44L408.8 510.15L407.56 511.24L401.3 503.83L403.97 500.84L404.03 497.96L400.46 496.81L400.3 494.79L402.47 493.7L407.73 495L411.3 491.66L414.63 494.24Z" fill="#C7C7C7" stroke="white" stroke-width="2"/>
<path d="M303.39 3.88L306.01 3.91L306.93 5.87L309.03 5.38L309.7 6.71L312.49 7.22L312.47 8.42L315.52 9.71L315.01 10.88L315.79 11.45L317.04 10.85L321.59 13.45L326.12 13.06L326.67 14.16L329.36 13.98L330.49 14.91L331.09 16.07L335.86 24.38L337.6 23.3L338.1 25.17L340.2 26.35L342.06 26.43L342.93 25.37L344.16 25.44L346.98 28.22L348.03 28.49L349.94 30.3L349.65 34.74L348.18 36.53L347.49 40.28L345.08 40.64L344.56 36.86L343.09 38.77L342.54 37.38L341.41 38.34L340.86 37.5L340.74 38.31L340.36 38.4L339.3 38.31L336.74 37.56L337.31 34.73L333.85 37.32L331.68 35.29L330.13 36.64L328.11 35.47L326 37.65L323.72 37.37L319.18 33.9L317.3 36.47L314.35 36.31L314.17 37.37L311.47 36.1L308.35 36.16L307.69 34.29L306.08 36.19L305.14 35.56L303.96 36.29L302.74 34.9L298.95 34.88L295.74 29.57L291.55 27.37L293.34 23.56L289.55 18.89L287.43 9.66L289.28 6.17L292.2 6.18L295.41 3.85L296.62 4.38L297.18 2.5L298.46 3.08L299.24 2.3L300.28 4.01L302.24 2L303.39 3.88Z" fill="#C7C7C7" stroke="white" stroke-width="2"/>
<path d="M277.5 87.84L279.82 92.64L279.09 94.94L279.99 98.55L282.51 99.71L285.68 107.04L282.61 108.63L282.1 113.54L276.56 111.96L276.72 113.02L275.48 114.27L272.25 115.39L270.33 118.12L264.85 120.95L263.67 125.06L261.2 125.51L260.29 131.45L256.73 139.02L254.63 140.76H250.89L251.25 137.46L247.53 133.79L242.88 132.25L238.3 129.4L237.44 125.59L239.05 122.35L240.54 121.38L241.56 122.92L244.21 122.81L245.45 124.56L247.23 123.18L247.95 120.17L242.53 116.59L244.62 114.01L242.84 108L244.58 104.66L256.22 97.01L266.24 92.47L269.32 90.01L272.82 89.65L273.52 87.75L277.5 87.84Z" fill="#C7C7C7" stroke="white" stroke-width="2"/>
</svg>
