<svg width="616" height="354" viewBox="0 0 616 354" fill="none" xmlns="http://www.w3.org/2000/svg">
<path d="M153.37 219.55L154.91 220.3L158.54 217.77L160.23 220.06L163.03 218.05L163.79 219.67L165.47 219.49L164.79 220.48L168.46 221.32L170.06 218.96L172.38 219.89L172.96 218.12L174.36 218.88L175.88 216.01L175.41 214.41L176.68 214.73L178.09 213.13L181.17 213.57L181.1 217.46L183.72 217.52L184.18 216.49L185.86 217.64L185.51 216.16L188.06 217.35L192.28 216.27L193.5 217.05L195.06 212.77L199.37 212.28L201.62 215.3L202.23 214.59L204.8 216.06L204.56 217.78L205.4 216.95L207.72 217.8L209.57 215.48L212 216.34L211.33 213.35L213.18 215.67L214.67 214.66L216.59 217.12L217.74 215.13L225.24 217.12L227.86 215.35L227.21 218.91L231.9 218.74L233.04 220.96L233.33 218.8L236.28 216.12L241.08 214.69L239.81 212.06L240.51 207.93L242.03 208.21L241.7 206.82L243.5 206.18L243.94 204.53L245.02 206.8H245.72L248.1 207.21L250.99 210.93L251.93 209.17L253.85 209.38L255.13 214.03L257.48 215.3L258.37 215.03L258.85 214.46L259.77 218.05L256.48 218.02L255.97 219.35L258.93 223.71L257.6 224.96L258.31 227.44L255.97 231.41L257.23 231.88L254.86 238.55L258.94 241.44L256.3 244.59L263.07 252.61L264.21 252.85L267.68 249.66L270.62 253.1L274.41 253.4L274.07 256.23L271.77 255.67L273.92 257.35L276.13 256.44L277.59 260.03H278.46L279.95 260.73L282.21 257.96L288.13 260.49L287.77 262.23L289.06 260.87L295.86 260.68L296.66 263.92L295.41 267.6L303.31 274.3L304.86 272.24L307.25 274.11L310.42 274.14L311.7 272.5L313.38 273.31L314.14 271.88L316.23 272.81L316.73 274.55L315.23 274.67L318.49 276.12L317.68 276.89L319.38 278.53L318.34 278.91L318.91 280.21L314.98 279.96L315.09 282.09L313.83 282.53L314.55 284.6L312.5 285.35L313.25 287L309.07 290.85L309.67 291.98L310.95 290.73L312.35 291.31L312.39 293.78L317.4 295.18L316.82 296.54L317.96 297.56L316.26 298.45L315.57 300.31L316.52 300.44L314.73 300.99L313.87 303.13L311.52 302.43L310.3 299.26L307.34 297.13L306.22 298.04L303.44 297.18L298.15 293.02L291.87 293.22L290.2 291.21L288.64 296.88L285.3 295.98L282.12 298.31L279.51 298.41L280.3 295.8L278.57 293.17L279.1 291.44L271.08 290.59L270.44 288.35L264.61 288.42L264.75 291.64L262.81 294.71L264.22 303.63L263.52 307.68L262.36 307.88L263.55 312.12L262.43 312.17L260.74 318.23L263.16 320.81L262.8 322.22L260.94 323.66L254.83 322.02L254.16 320.62L247.73 320.81L247.61 326.99L240.27 333.37L238.94 338.37L239.73 345.11L237.95 347.68L234.63 347.75L233.15 343.93L230.97 344.38L229.81 341.36L225.29 344.68L223.81 343.25L219.98 342.95L217.02 338.71L214.67 339.42L215.72 341.89L213.44 346.84L209.54 346.2L209.72 349.06L206.88 348.73L204.73 351.81L203.88 350.19L199.11 347.82L196.42 348.35L191.86 346.22L186.45 345.57L185.03 346.73L183.21 346.32L183.26 345.28L180.6 345.92L180.75 344.34L178.32 343.48L178.81 341.38L177.21 341.64L175.49 339.91L176.79 338.03L179.33 338.04L179.94 335.13L177.64 334.79L174.84 330.46L170.6 329.77L163.15 322.4L157.59 321.47L157.77 318.25L155.79 313.9L153.19 313.13L150.86 306.18L148.86 307.32L144.87 307.01L140.44 298.96L141.09 297.58L139.17 299.09L136.63 294.62L133.95 294.97L132.67 292.5L133.35 287.88L135.86 283.59L137.33 284.39L138.78 282.85L138.24 278.34L136.6 276.06L138.17 275.58L137.41 273.06L138.37 271.09L137.36 270.38L141.13 271.78L143.65 268.57L146.9 268.02L146.05 267.69L146.7 264.72L149.17 263.58L146.72 260.18V259.6L147.31 257.67L148.31 257.97L147.91 256.81L149.71 257.02L150.03 254.99L148.06 254.95L147.42 251.99L149.86 252.19L150.6 250.21L149.22 249.32L149.45 247.66L153.96 245.71L153.68 243.39L155.6 240.21L152.74 235.44L153.18 232.23L155.32 230.56L153.3 228.06L153.72 223.62L151.85 223.32L152.18 222.27V221.77L153.37 219.55Z" fill="#C7C7C7" stroke="white" stroke-width="2"/>
<path d="M504.43 310.82L500.05 312.83L499.33 314.75L495.28 316.04L492.51 316.2L486.77 312.01L481.7 316.32L478.76 316.4L474.85 312.17L473.46 312.55L471.01 310.11L463.48 307.85L459.8 311.99L455.85 314.03L453.86 320.11L449.83 322.86L445.87 330.21L446.75 332.26L443.13 335.88L443.6 338.75L440.48 343.02L438.45 342.17L439.24 339.46L436.96 329.19L434.93 328.44L433.81 330.02L430.77 329.3L427.76 330.82L423.9 329.43L422.95 327.2L420.95 326.45L417.07 327.79L415.42 320.56L409.1 320.41L404.28 316.06L402.36 318.11L397.82 317.08L396.02 317.97L394.73 322.61L389.71 327.64L387.95 327.83L386.29 325.22L385.39 327.3L380.44 325.95L364.7 325.43L354.8 320.85L350.91 317.22L351.52 314.76L350.16 314.14L349.31 315.28L348.04 312.61L345.74 313.19L345.68 312.08L346.8 312.63L346.14 311.33L345.05 312.22L344.1 309.73L343.2 310.77L341.14 309.8L342 308.72L340.86 307.36L335.39 307.73L332.97 310.91L329.11 309.65L327.55 310.38L320.81 304.79H317.26L313.88 303.16L314.74 301.02L316.53 300.47L315.58 300.35L316.27 298.48L317.98 297.59L318 296.62L320.36 296.22L321.45 298.54L323.64 299.05L324.79 295.52L328.84 294.97L330.93 297.85L333.54 293.21L336.75 292.62L338.92 289.06L344.06 289.29L344.95 285.19L347.88 286.51L349.36 285.19L349.16 283.53L351.77 282.8L352.5 285.23L354.98 286.85L357.32 286.24L358.3 283.94L363.12 286.25L363.35 285.09L368.67 284.13L367.04 282.45L367.92 281.34L374.3 280.76L375.55 277.1L377.73 276.76L379.49 274.6L379.73 272.77L378.18 272.09L378.81 270.64L376.6 271.69L376.9 269.04L375.73 267.91L376.33 266.54L380.05 265.06L380.09 262.95L376.81 261.32L378.18 255.77L381.36 255.08L378.67 252.54L378.78 250.41L380.71 249.54L381.51 245.78L387.63 242.78H388.43L390.31 241.01L388.95 237.42L390.1 233.36L388.78 233.08L388.35 229.37L390.58 224.83L387.35 221.58L390.24 222.47L393.2 218.22L392.39 216.03L390.41 216.09L389.07 214.33L390.76 212.72L390.71 210.13L392.06 211.33L393.04 208.27L395.32 207.64L395.66 209.32L399.53 207.5L401.09 208.9L404.26 208.94L405.62 203.29L410.12 204.67L411.75 203.14L414.23 204.87L415.55 203.77L418.67 204.31L425.6 208.02L428.14 207.66L426.71 208.81L427.32 211.17L422.82 210.07L422.01 215.49L430.73 217.09L428.71 217.16L428.19 219.73L426.63 220.15L427.46 227.45L429.38 228.24L430.28 230.33L427.74 231.4L427.41 233.65L433.11 237.92L436.04 235L437.81 230.65L435.03 224.27L437.06 222.26L440.34 223L444.42 232.03L445.69 232.53L445.75 236.24L449.48 237.29L450.42 234.77L451.06 236.49L448.4 238.57L448.64 240.51L458.36 245.77L460.12 252.71L457.46 256.79L459.08 258.76L458.16 260.98L460.79 264.32L458.96 266.42L462.5 266.65L463.59 265.28L464.05 266.55L462.67 271.55L459.43 272.23L458.62 276.32L456.14 276.43L455.8 279.9L458.89 280.4L465.2 277.85L466.78 281.61L465.89 286.08L468.47 285.21L468.56 286.27L469.93 285.86L470.77 288.6L476.13 288.45L478.37 289.74L477.79 293.56L479.87 294.07L481.47 292.99L484.96 297.37L487.93 295.71L489.44 296.46L490.82 294.95L491.77 297.01L495.46 297.89L494.56 301.29L500.21 302.96L504.43 310.82Z" fill="#C7C7C7" stroke="white" stroke-width="2"/>
<path d="M74.37 90.92L79.45 94.65L81.87 96.69L86.01 96.07L88.41 97.81L89.93 96.58L91.44 98.05L93.04 97.79L93.01 101.1L94.6 102.77L96.26 101.02L100.74 102.4L103.08 100.82L105.56 104.41L104.64 106.84H104.42L105.22 109.83L103.6 113.03L105.28 113.41L105.48 116.67L104.14 117.52L107.19 119.73L105.22 122.44L107.75 122.78L109.01 128.04L110.09 128.08L109.76 129.63L108.14 129.59L109.68 132.4L105.54 131.76L105.49 131.87L104.87 132.91L106.31 134.06L108.87 133.76L111.41 137.75L109.62 137.79L109.25 140.88L111.14 141.23L109.59 144.38L105.19 144.8L105.25 152.11L102.4 151.35L100.96 149.29L100.44 150.25L98.63 148.18L93.89 148.27L92.95 146.79L85.81 153.54L84.62 153.08L84.13 154.69L80.51 155.37V156.46L81.06 159.65L78.32 162.29L77.27 161.91L77.59 162.78L74.75 160.92L70.79 162.37L66.93 160.17L64.97 160.06L63.62 161.64L62.55 160.97L62.58 161.15L60.89 160.97L59.72 162.48L57.3 162.04L58.14 164.02L54.56 164.46L55.27 166.87L52.16 163.38L49.88 163.87L47.5 166.57L43.57 164.91L43.01 162.55L36.36 159.57L38.86 155.6L38.03 154.31L35.36 152.36L32.8 153.84L32.71 151.34L30.1 150.99L29.96 149.46L26.99 149.25L24.28 146.13L23.37 147.12L22.42 144.27L17.32 143.49L18.58 140.95L16.14 138L14.64 138.44L11.76 136.33L11.27 131.7L13.22 127.99L10.8 124.35L11.53 123.72L10.25 123.65L9.48 121.63L8.16 122.01L7.29 118.52L5.21 118.91L2 116.59L2.56 114.75L6.38 112.88L4.48 109.84L5.04 108.55L2.84 106.91L10.38 106.33L11.76 108.62L11.86 113.36L16.75 113.61L17.76 116.48L15.88 115.33L15.36 117.12L20.25 120.66L18.55 124.07L19.91 126.87L24.16 127.44L22.94 126.21L24.32 124.69L22.94 122.61L24 120.94L23.61 117.72L26.25 117.67L25.6 114.8L27.27 111.59L29.8 110.49L29.82 106.39L32.7 106.29L33.65 103.6L36.1 101.72L37.98 102.49L37.75 99.46L40.03 95.78L54.53 92.96L57.58 95.73L60.18 90.75L65.59 88.35L66.95 90.9L67.77 86.87L74.37 90.92Z" fill="#C7C7C7" stroke="white" stroke-width="2"/>
<path d="M315.64 41.83L319.6 41.92L326.42 44.95L328.76 47.52L335.36 46.73L338.66 44.92L341.98 51.56L342.81 56.42L344.91 56.91L351.55 53.98L354.48 55.02L355.5 60.66L357.33 62.72L354.14 65.09L357.44 67.15L359.23 65.02L360.59 65.52L361.44 61.42L364.62 58.02L370.7 60.53L372.25 63.07L375.08 62.11L376.53 56.84L380.39 57.28L381.11 58.39L386.31 58.15L393.46 65.99L395.52 69.99L391.93 71.44L392.49 74.36L390.42 75.22L391.59 77.19L387.97 80.97L386.54 81.8L383.65 80.25L382.03 84.08L378.74 84.05L378.43 85.83L375.45 86.95L376.27 89.25L374.65 88.03L373.09 90.72L374.47 93.82L376.88 93.37L378.28 94.65L377.75 95.86L379.21 96.42L380.68 100.01L382.96 97.78L388.05 98.27L388.17 102.6L390.04 105.4L391.51 106.75L394.81 106.51L399.58 114.47L405.91 120.56L405.9 127.69L408.39 130.07L408.06 131.55L406.95 132.19L399.6 128.38L398.03 132.43L393.74 134.96L391.01 135.1L389.48 137.38L386.36 138.51L387.45 140.77L383.47 143.05L385.42 145.99L380.85 144.51L377.8 145.69L377.71 143.89L377.06 145.19L373.12 146.2L370.57 143L367.88 142.89L365.42 139.9L362.17 139.44L361.17 135.89L356.36 135.94L356.37 131.29L354.63 131.17L354.62 129.53L350 129.21L347.96 127.63L347.95 128.58L345.28 128.86L345.12 131.01L342.21 130.96L340.54 133.29L337.78 132.05L338.28 129.2L335.07 127.1L332 129.04L331.92 131.64L330.61 132.77L328.75 132.12L327.26 134.05L323.58 131.93L323.37 133.02L318.91 132.12L319.39 133L317.96 132.93L316.32 130.56L314.89 132.77L313.58 131.86L312.2 132.62L312.15 135.2L309.18 135.61V136.24L305.98 138.16L304.97 136.85L305.27 134.3L302.54 132.05L301.29 132.81L299.53 131.29L296.46 131.24L298.79 129.82L297.17 128.27L300.8 124.23L300.34 121.1L298.59 119.7L298.28 116.9L299.72 115.84L299.12 111.66L296.69 109.42L292.68 112.05L288.96 110.3L286.41 111.4L283.67 110.08L284.52 106.77L281.39 105.44L282.03 103.86L276.8 103.05L276.03 101.4L276.95 100.49L274.29 98.53L275.57 96.79L277.8 97.04L277.32 94.81L279.17 94.13L278.98 89.88L276.8 88.13L278.05 84.79L275.23 80.76L278.03 77.94L285.1 81.95L286.81 81.53L286.45 80.18L289.01 77.44L293.19 79.58L295.39 79.33L298.34 81.84L299.32 80.01L300.45 84.02L304.95 82.77L305.87 81.23L304.45 78.12L308.18 76.51L308.12 74.6L309.78 75.65L309.6 77.71L310.06 76.7L313.42 79.24L315.81 77.47L318.64 79.78L318.25 78.25L322.13 77.95L320.14 74.07L318.41 73.19L319.41 72.79L317.92 71.68L318.63 70.63L316.59 69.66L319.38 64.92L316.05 61.67L317.58 59.46L315.37 51.01L316.83 47.66L313.63 44.47L313.22 41.42L315.64 41.83Z" fill="#C7C7C7" stroke="white" stroke-width="2"/>
<path d="M266.8 6.51001L268.55 8.19L270 8.16L270.5 6.70001L274.45 8.38998L274.44 11.47L277.79 11.16L277.83 8.41L280.25 7.12L280.44 11.92L282.09 12.83L286.72 10.21L286.55 12.1L289.73 12.92L289.78 15.47L291.35 16.61L289.19 19.73L290.02 25.73L292.91 29.85L296.98 31.38L298.19 33.55L298.67 41.69L300.65 42.03L304.49 37.41L313.22 41.42L313.63 44.47L316.83 47.66L315.37 51.01L317.58 59.46L316.05 61.67L319.38 64.92L316.59 69.66L318.63 70.63L317.92 71.68L319.41 72.79L318.41 73.19L320.14 74.07L322.13 77.95L318.25 78.25L318.64 79.78L315.81 77.47L313.42 79.24L310.06 76.7L309.6 77.71L309.78 75.65L308.12 74.6L308.18 76.51L304.45 78.12L305.87 81.23L304.95 82.77L300.45 84.02L299.32 80.01L298.34 81.84L295.39 79.33L293.19 79.58L289.01 77.44L286.45 80.18L286.81 81.53L285.1 81.95L278.03 77.94L274.04 76.58L273.49 73.46L270.79 71.11L268.48 71.97L265.41 66.35L262.7 66.65L262.01 68.16L258.08 64.31L256.59 64.58L257.27 65.96L255.54 66.7L256.12 68.73L250.81 71.13L251.11 73.1L249.27 76.22L247.63 77.47L246.71 76.69L245.59 79.68L240.11 78.44L239.45 81.23L237.07 82.21L236.93 83.84L233.72 83.21L232.92 84.12L231.67 83.04L229.8 85.03L227.84 84.83L226.72 79.6L223.98 81.71L220.68 79.8L219.8 82.23L218.25 80.39L217.13 77.39L214.39 76.97L211.23 68.67L208.88 66.97L207.06 62.99L207.26 58.96L205.51 58.81L206.08 56.26L208.74 54.07L208.69 49.93L210.07 49.4L210.86 49.11L211.87 47.18L212.09 48.16L213.41 47.7L212.25 46.75L213.2 43.41L215.89 41.36L215.03 40.58L215.91 37.71L214.66 36.94L217.53 36.24L221.9 39.08L224.45 38.88L225.93 33.15L229.07 32.7L230.56 30.23L236.84 33.06L238.5 32.63L239.48 35.25L241.79 34.38L244.07 35.8L246.74 35.4L249.77 28.08L251.48 28.6L253.34 27.41L255.63 28.9L255.95 27.71L261.26 29.67L265.13 29.01L264.43 25.43L265.54 23.5L264.01 20.99L266.23 18.7L266.94 14.68L265.6 12.05L263.9 13.11L262.11 11.34L263.62 8.41L266.8 6.51001Z" fill="#C7C7C7" stroke="white" stroke-width="2"/>
<path d="M512.5 109.31L513.8 109.59L511.32 115.5L514.91 118.46L514.33 122.63L510.77 122.73L509.63 125.69L500.23 127.76L499.36 129.22L503.96 133.74L504.54 136.06L506.94 137.12L507.53 135.29H508.81L511.79 137.96L515.46 144.9L516.06 148.94L520.64 150.18L520.52 152.49L524.39 155.53L528.96 154.78L531.99 151.02L534.63 150.98L536.61 149.12L536.91 150.23L540.28 151L540.22 146.61L538.44 146.25L537.11 147.47L536.59 146.3L536.65 144.25L539.24 142.47L544.27 145.57L543.94 147.1L545.48 148.45L544.67 149.67L546.68 152.46L548.24 152L550.13 154.17L551.74 153.11L551.38 151.92L554.88 151.97L555.62 155.63L561.28 156.67L561.69 160.8L565.05 163.6L566.07 161.43L567 162.15L568.06 160.89L566.37 158.9L569.58 160.61L575.08 160.38L575.34 161.76L580.42 165.14L584.39 165.54L585.65 164.51L585.01 162.09L587.98 162.72L588.58 165.02L587.35 168.48L590.91 171.1L588.95 172.39L587.79 175.8L593.07 187.06L592.75 190.49L596.65 193.18L600.31 193L601.14 195.98L603.28 196.97L606.94 195.69L609.47 197.31L609.11 200.4L610.88 207.89L612.05 208.22L612 212.96L613.87 214.51L612.28 218.58L607.14 220.44L604.62 222.87L597.72 220.35L592.31 221.98L590.7 221.73L590.18 220.05L587.42 220.37L584.66 222.63L585.61 226.06L580.7 230.34L579.28 234.09L575.86 236.44L572.87 235.89L569.29 234.61L569.4 230.91L564.04 226.42L563.2 222.78L560.55 222.52L559.02 223.85L554.44 222.91L551.09 219.13L548.49 220.21L547.68 218.64L535.98 220.98L533.77 216.24L528.54 216.14L527.56 212.53L525.52 212.39L523.85 215.21L523 214.35L521.94 212.63L523.82 210.22L519.4 204.49L516.11 203.1L515.7 200.29L513.14 196.92L510.99 198.46L508.33 196.87L507.41 192.94L508.73 188.73H508.51L507.86 189.6L504.7 187.02L503.98 187.06L503.03 186.39L499.6 188.96L494.12 185.15L492.77 188.04L490.48 187.49L489.43 185.47L484.54 185.86L479.37 178.84L478.09 177.98L476.37 178.85H475.91L475.04 179.99L474.87 178.84L468.44 176.08L465.28 177.17L466.06 171.43L462.57 173.43L459.1 168.76L459.31 167.22L459.76 167.26L461.63 164.22L460.41 162.78L462.33 161.18H462.73L463.86 157.57L459.78 154.08L461.29 153.21L461.26 149.77L467.06 142.9L465.89 137.14L468.5 134.51L467.7 131.53L471.56 127.38L473.27 127.39L473.91 125.3L476.61 125.73L480.08 120.39L483.63 122.24L484.83 115.9L487.01 115.53L487.19 113.68L490.58 112.96L495.19 113.71L499.31 112.43L501.41 114.19L508.01 109.34L507.99 105.5L510.69 106.51L512.5 109.31Z" fill="#C7C7C7" stroke="white" stroke-width="2"/>
<path d="M438.29 89.02L443.48 92.7L445.59 91.38L450.52 94.33L455.72 94.58L455.8 96.22L458.74 97.98L464.2 97.3L463.94 100.31L468.26 104.83L472.23 106.89L477.45 105.45L476.45 107.54L477.81 108.22L476.59 111.71L477.5 114.36L478.75 114.3L478.93 111.99L481.18 111.86L483.99 112.65L484.83 115.9L483.63 122.24L480.08 120.39L476.61 125.73L473.91 125.3L473.27 127.39L471.56 127.38L467.7 131.53L468.5 134.51L465.89 137.14L467.06 142.9L461.26 149.77L461.29 153.21L459.78 154.08L463.86 157.57L462.73 161.18H462.33L460.41 162.78L461.63 164.22L459.76 167.26L459.31 167.22L459.1 168.76L462.57 173.43L466.06 171.43L465.28 177.17L468.44 176.08L474.87 178.84L475.04 179.99L475.91 178.85H476.37L478.09 177.98L479.37 178.84L484.54 185.86L489.43 185.47L490.48 187.49L492.77 188.04L494.12 185.15L499.6 188.96L503.03 186.39L503.98 187.06L504.7 187.02L507.86 189.6L508.51 188.73H508.73L507.41 192.94L508.33 196.87L510.99 198.46L513.14 196.92L515.7 200.29L516.11 203.1L519.4 204.49L523.82 210.22L521.94 212.63L523 214.35L523.85 215.21L525.52 212.39L527.56 212.53L528.54 216.14L527.19 219.92L521.95 218.31L521.64 220.92L516.96 223.17L518.08 225.57L516.07 227.21L516 229.21L515.6 230.15L510.9 230.11L508.39 226.63L505.95 227.53L505.82 229.91L504.41 228.23L502.12 228.54L504.6 233.2L502.68 235.43L499.16 235.71L498.3 234.32L493.54 235.85L491.34 235.12L492.4 237.63L488.61 241.58L486.3 238.28L484.6 238.78L481.14 237.04L479.62 238.09L480.64 234.65L479.18 233.38L475.93 237.64L477.95 243.17L474.88 244.86L472.36 248.94L470.39 249.97L466.53 249.42L465 250.72L463.33 249.66L461.84 253.62L460.13 252.68L458.36 245.74L448.64 240.48L448.4 238.55L451.06 236.47L450.42 234.75L449.48 237.27L445.75 236.22L445.69 232.51L444.42 232.01L440.34 222.98L437.06 222.24L435.03 224.25L437.8 230.63L436.03 234.99L433.1 237.91L427.41 233.64L427.74 231.4L430.28 230.33L429.38 228.23L427.46 227.44L426.63 220.14L428.18 219.73L428.7 217.16L430.72 217.09L422 215.49L422.81 210.07L427.31 211.17L426.71 208.81L428.14 207.65L428.43 204.49L429.52 204.35L427.82 202.27L428.04 199.83L431.92 196.3L432.03 191.4L430.63 189.53L426.77 189.89L428.8 186.96L427.02 185.51L428.12 184.2L424.14 180.12L424.18 177.13L421.95 175.59L422.14 171.19L424.81 169.13L419.79 151.83L422.96 151.52L423.11 152.42L423.54 151.76L424.82 149.29L428.83 147.24L429.08 143.41L427.64 141.96L429.84 139.69L428.22 136.48L430.2 135.33L433.77 126.72L433.66 123.75L435.33 123.52L436.79 120.27L441.93 120.32L443.69 117.25L445.79 121.25L448.42 119.34L446.07 115.61L447.7 112.6L446.17 109.15L441.11 107.29L437.7 96.85L433.12 94.26L435.14 89.27L438.29 89.02Z" fill="#C7C7C7" stroke="white" stroke-width="2"/>
<path d="M433.52 123.73L433.66 123.75L433.77 126.72L430.2 135.33L428.22 136.48L429.84 139.69L427.64 141.96L429.08 143.41L428.83 147.24L424.82 149.29L423.54 151.76L423.11 152.42L422.96 151.52L419.79 151.83L424.81 169.13L422.14 171.19L421.95 175.59L424.18 177.13L424.14 180.12L428.12 184.2L427.02 185.51L428.8 186.96L426.77 189.89L430.63 189.53L432.03 191.4L431.92 196.3L428.04 199.83L427.82 202.27L429.52 204.35L428.43 204.49L428.14 207.65L425.6 208.01L418.67 204.3L415.55 203.75L414.23 204.85L411.75 203.13L410.13 204.66L405.62 203.28L404.27 208.93L401.09 208.89L399.54 207.48L395.67 209.31L395.33 207.62L393.05 208.25L392.07 211.31L390.72 210.11L386.89 205.79L382.74 204.2L381.32 204.81L379.76 203.5L380.05 201.96L372.97 196.5L368.85 196.65L368.16 195.06L364.79 195.94L362.56 192.25L360.68 191.43H360.1L357.02 191.16L355.52 188.23L352.69 191.45V192.15L352.85 193.18L351.22 193.6L351.92 194.98L348.14 195.76L341.67 191.15L343.1 187.48L341.83 188.5L337.97 185.54L335.08 185.85L335.72 182.48L331.69 182.68L329.05 179.3L327.28 179.7L327.12 178.21L325.19 177.58L323.5 178.85L322.71 177.47L318.59 178.63L316.93 175.65L309.92 171.12L309.91 165.97L312.05 165.35L313.54 161.81L311.67 159.81L313.02 156.98L306.95 153.8L307.92 151.44L306.51 152.04L306.48 150.25L303.62 150.51L303.89 149.39L301.14 149.11L298.34 146.29L299.29 144.98L301.38 145.08L299.42 143.24L302.4 142.86L301.48 139.42L303.68 139.27L301.13 138.18L301.81 136.95L304.67 137.76L304.97 136.85L305.98 138.16L309.18 136.24V135.61L312.15 135.2L312.2 132.62L313.58 131.86L314.89 132.77L316.32 130.56L317.96 132.93L319.39 133L318.91 132.12L323.37 133.02L323.58 131.93L327.26 134.05L328.75 132.12L330.61 132.77L331.92 131.64L332 129.04L335.07 127.1L338.28 129.2L337.78 132.05L340.54 133.29L342.21 130.96L345.12 131.01L345.28 128.86L347.95 128.58L347.96 127.63L350 129.21L354.62 129.53L354.63 131.17L356.37 131.29L356.36 135.94L361.17 135.89L362.17 139.44L365.42 139.9L367.88 142.89L370.57 143L373.12 146.2L377.06 145.19L377.71 143.89L377.8 145.69L380.85 144.51L385.42 145.99L383.47 143.05L387.45 140.77L386.36 138.51L389.48 137.38L391.01 135.1L393.74 134.96L398.03 132.43L399.6 128.38L406.95 132.19L408.06 131.55L412.74 135.94L419.28 138.04L422.97 132.66L426.34 131.24L429 124.68L429.93 125.09L432.13 122.47L433.52 123.73Z" fill="#C7C7C7" stroke="white" stroke-width="2"/>
<path d="M572.87 235.89L569.29 234.61L569.4 230.91L564.04 226.42L563.2 222.78L560.55 222.52L559.02 223.85L554.44 222.91L551.09 219.13L548.49 220.21L547.68 218.64L535.98 220.98L533.77 216.24L528.54 216.14L527.19 219.92L521.95 218.31L521.64 220.92L516.96 223.17L518.08 225.57L516.07 227.21L515.6 230.15L510.9 230.11L508.39 226.63L505.95 227.53L505.82 229.91L504.41 228.23L502.25 228.48L504.6 233.2L502.68 235.43L499.16 235.71L498.3 234.32L493.54 235.85L491.34 235.12L492.4 237.63L488.61 241.58L486.3 238.28L484.6 238.78L481.14 237.04L479.62 238.09L480.64 234.65L479.18 233.38L475.93 237.64L477.95 243.17L474.88 244.86L472.36 248.94L470.39 249.97L466.53 249.42L465 250.72L463.33 249.66L461.84 253.62L460.13 252.68L457.47 256.76L459.09 258.73L458.16 260.96L460.8 264.29L458.97 266.39L462.51 266.63L463.61 265.26L464.07 266.53L462.69 271.53L459.45 272.21L458.63 276.3L456.16 276.41L455.81 279.88L458.91 280.37L465.22 277.83L466.8 281.59L465.9 286.06L468.48 285.19L468.57 286.25L469.94 285.84L470.78 288.57L476.14 288.42L478.38 289.71L477.8 293.53L479.88 294.04L481.48 292.95L484.97 297.34L487.95 295.67L489.46 296.43L490.83 294.92L491.78 296.98L495.47 297.86L494.57 301.26L500.22 302.93L504.43 310.82L509.43 310.01L516.57 301.22L525.65 300.74L528.27 289.44L529.94 287.81L538.44 287.66L542.57 285.64L545.17 282.6L546.76 277.83L546.26 272.19L548.52 268.45L548.07 264.83L550.25 260.79L549.52 256.63L553.02 253.25L552.99 251.11L560.26 249.74L569.34 245.91L572.78 242.19L573.45 237.81L572.87 235.89Z" fill="#C7C7C7" stroke="white" stroke-width="2"/>
<path d="M111.41 137.75L113.46 137.19L114.37 139.44L116.29 137.34L117.78 140.7L121.17 139.1L123.05 142.93L121.54 143.06L120.22 147.16L123.43 147.79L124.51 145.87L127.11 145.73L128.17 147.22L130.66 145.84L132.58 147.27L129.53 147.9L131.35 149.9L134.11 150.37L135.61 152.45L140.66 152.31H141.17L142.48 151.43L144.48 152.14L147.47 156.71L151.71 156.59L151.35 160.1L154.92 159.92L157.44 161.97L159.31 161.88L158.07 164.43L159.54 170.18L157.17 170.21L156.28 175.36L157.35 178.11L155.56 179.59L156.39 182.42L154.9 185.13L156.59 184.56L158.17 186.12L154.75 187.7L152.96 191.09L150.74 189.21L147.06 191.24L144.91 194.14L145.68 196.99L147.45 195.62L149.92 196.57L146.46 197.45L146.26 198.91L148.98 201.25L147.3 202.18L148.84 202.57L148.13 203.55L152.28 204.7L150.78 215.17L151.43 214.3L153.21 215.12L153.37 219.55L152.18 221.77V222.27L151.85 223.32L153.72 223.62L153.3 228.06L155.32 230.56L153.18 232.23L152.74 235.44L155.6 240.21L153.68 243.39L153.96 245.71L149.45 247.66L149.22 249.32L150.6 250.21L149.86 252.19L147.42 251.99L148.06 254.95L150.03 254.99L149.71 257.02L147.91 256.81L148.31 257.97L147.31 257.67L146.72 259.6V260.18L149.17 263.58L146.7 264.72L146.05 267.69L146.9 268.02L143.65 268.57L141.13 271.78L137.36 270.38L138.37 271.09L137.41 273.06L138.17 275.58L136.6 276.06L138.24 278.34L138.78 282.85L137.33 284.39L135.86 283.59L133.35 287.88L132.67 292.5L133.95 294.97L130.06 294.77V298.42L128.97 298.6L120.6 292.35L119.69 283.14L110.28 274.21L105.42 274.85L100.28 271.66L99.6598 266.76L94.2098 262.65L94.4598 260.47L92.0998 259.13L91.4798 256.52L89.6598 255.97L88.9998 254.16L87.1598 254.05L86.7298 248.58L84.6798 248.33L81.5798 244.44L74.0798 242.09L73.4698 245.05L70.3898 242.96L64.3398 242.67L62.1798 236.01L57.7598 231.87L53.1398 230.51L53.0898 227.89L50.9898 224.59L51.9398 218.13L51.2398 216.89L49.8998 217.71L47.0298 216.13L44.3698 204.78L41.4498 204.99L40.8798 195.5L37.7798 195.4L33.6698 193.11L30.2098 187.67L30.0498 185.13L36.4498 181.53L35.7398 178.15L36.6598 174.66L38.7698 174.32L38.7198 171.76L39.9798 171.41L43.5698 164.91L47.4998 166.57L49.8798 163.87L52.1598 163.38L55.2698 166.87L54.5598 164.46L58.1398 164.02L57.2998 162.04L59.7198 162.48L60.8898 160.97L62.5798 161.15L62.5498 160.97L63.6198 161.64L64.9698 160.06L66.9298 160.17L70.7898 162.37L74.7498 160.92L77.5898 162.78L77.2698 161.91L78.3198 162.29L81.0598 159.65L80.5098 156.46V155.37L84.1298 154.69L84.6198 153.08L85.8098 153.54L92.9498 146.79L93.8898 148.27L98.6298 148.18L100.44 150.25L100.96 149.29L102.4 151.35L105.25 152.11L105.19 144.8L109.59 144.38L111.14 141.23L109.25 140.88L109.62 137.79L111.41 137.75Z" fill="#C7C7C7" stroke="white" stroke-width="2"/>
<path d="M222.59 127.76L222.76 128.08L224.58 128.65L225.42 129.72L223.96 131.18L228.15 130.08L228.72 133.46L233.64 134.51L234.33 137.45L238.12 138.76L237.68 141.61L232.3 143.76L232.62 145.8L234.1 145.31L233.65 147.58L234.8 149.14L233.81 151.06L232.79 150.37L232.31 152.66L227.09 149.52L226.18 150.44L224.77 149.61L223.72 150.96L222.25 150.29L222.23 150.46L222.15 151.9L219.48 151.79L216.17 155.65L212.69 156.78L210.7 156.07L210.27 159.95L208.95 158.55L204.93 159.05L203.79 157.51L205.51 156.18L204.01 155.79L205.47 152.97L202.3 152.29L201.92 147.52L199.49 147.31L198.85 144.03L196.87 143.31L197.83 141.71L201.03 140.81L196.92 137.48L194.6 137.34L197.71 135.56L200.08 135.71L202.02 133.5L203.09 133.63L202.64 135.57L207.2 135.33L206.55 132.35L207.63 130.84L210.17 131.83L213.19 129.52L216.91 130.11L216.56 129.21L216.53 128.48L221.14 127.24L222.55 126.92L222.48 127.54L222.59 127.76Z" fill="#C7C7C7" stroke="white" stroke-width="2"/>
<path d="M218.25 80.39L219.8 82.23L220.68 79.79L223.98 81.7L226.72 79.59L227.84 84.82L229.8 85.02L231.67 83.04L232.92 84.12L233.72 83.21L236.93 83.83L237.07 82.2L239.45 81.22L240.11 78.43L245.59 79.68L246.71 76.69L247.63 77.47L249.27 76.22L251.11 73.1L250.81 71.13L256.12 68.73L255.54 66.7L257.27 65.96L256.59 64.58L258.08 64.31L262 68.16L262.7 66.65L265.4 66.35L268.47 71.96L270.78 71.11L273.47 73.45L274.02 76.57L278.01 77.93L275.21 80.75L278.03 84.78L276.78 88.12L278.96 89.88L279.15 94.13L277.31 94.81L277.79 97.04L275.56 96.79L274.28 98.53L276.95 100.49L276.03 101.39L276.8 103.04L282.03 103.85L281.39 105.43L284.52 106.76L283.67 110.08L286.41 111.39L288.96 110.29L292.68 112.04L296.69 109.41L299.12 111.65L299.72 115.83L298.28 116.89L298.59 119.7L300.34 121.1L300.8 124.23L297.17 128.27L298.79 129.82L296.47 131.24L299.54 131.3L301.3 132.82L302.55 132.06L305.28 134.31L304.98 136.85L304.68 137.76L301.81 136.94L301.13 138.18L303.68 139.26L301.48 139.41L302.39 142.85L299.42 143.23L301.38 145.07L299.28 144.97L298.33 146.28L301.13 149.1L303.88 149.38L303.62 150.5L306.48 150.23L306.51 152.03L307.92 151.43L306.95 153.79L313.02 156.97L311.67 159.81L313.53 161.81L312.05 165.35L309.91 165.97L309.92 171.12L307.09 174.45L305.27 173.29L302.99 175.18L302.52 176.89L304.54 179.13L303.09 180.76L302.57 180.72L299.53 179.73L298.2 182.97L296.38 184L290.75 184.47L288.87 186.58L287.66 186.05L288.03 184.88L286.5 185.7L286.12 185.69L284.99 186.32L284.5 189.91L281.37 192.28L281.06 195.33L281.76 198.09L286.16 198.63L287.45 201.46L286.84 204.41L285 205.69L282.07 204.69L281.55 206.05L280.37 205.67L279.57 209.06L275.52 206.07L273.95 207.68L269.94 208.39L267.89 207L266.96 208.04L265.26 206.4L263.06 206.73L262.14 208.15L263.67 210.33L259.49 210.44L259.94 213.43L258.84 213.5L258.87 214.24L258.84 214.46L258.36 215.03L257.46 215.29L255.12 214.03L253.84 209.37L251.92 209.16L250.98 210.93L248.09 207.2L245.71 206.8H245L243.92 204.53L243.48 206.17L241.68 206.81L242.01 208.2L240.48 207.92L239.78 212.05L241.05 214.68L236.25 216.11L233.29 218.79L233 220.96L231.86 218.74L227.18 218.91L227.82 215.35L225.21 217.11L217.71 215.12L216.56 217.11L214.64 214.65L213.15 215.66L211.3 213.34L211.97 216.33L209.55 215.47L207.7 217.79L205.38 216.94L204.55 217.77L204.79 216.05L202.22 214.58L201.61 215.29L199.36 212.27L195.06 212.76L193.5 217.04L192.28 216.26L188.07 217.34L185.52 216.15L185.86 217.64L184.18 216.49L183.73 217.52L181.11 217.46L181.17 213.57L178.1 213.13L176.69 214.73L175.42 214.41L175.88 216.01L174.36 218.89L172.96 218.13L172.38 219.91L170.07 218.98L168.47 221.34L164.8 220.49L165.48 219.5L163.8 219.68L163.04 218.05L160.25 220.06L158.56 217.77L154.93 220.3L153.39 219.55L153.23 215.12L151.45 214.3L150.8 215.18L152.3 204.71L148.15 203.55L148.86 202.58L147.31 202.19L148.99 201.26L146.27 198.92L146.48 197.46L149.93 196.58L147.46 195.63L145.69 197L144.92 194.16L147.07 191.26L150.75 189.22L152.97 191.1L154.76 187.71L158.19 186.13L156.61 184.57L154.92 185.14L156.41 182.43L155.58 179.6L157.37 178.12L156.3 175.37L157.19 170.22L159.56 170.19L158.1 164.44L159.34 161.89L157.47 161.97L154.95 159.93L151.38 160.11L151.74 156.59L147.5 156.72L144.52 152.15L142.51 151.44L141.21 152.32H140.69L135.64 152.46L134.14 150.38L131.37 149.9L129.55 147.91L132.61 147.28L130.68 145.85L128.19 147.23L127.13 145.74L124.53 145.88L123.45 147.8L120.24 147.17L121.56 143.07L123.07 142.94L121.19 139.1L120.84 137.89L122.6 136.47L125.96 136.82L126.67 133.16L128.47 133.85L127.55 131.74L128.72 130.9L128.26 128.37L129.43 128.45H129.76L133.55 124.79L135.63 125.68L139.1 124.71L139.83 122.17L141.33 122.2L144.75 118.87L144.76 120.34L151.94 120.23L152.24 118.75L153.83 119.09L157.64 114.69L160.21 117.88L162.37 117.54L163.5 113.75L167.26 113.36L170.58 110.72L170.25 108.53L173.81 109.04L172.95 104.78L175.26 102.97L187.37 105.22L190.81 104.81L191.04 103.17L196.96 105.46L197.48 104.49L197.64 104.52L199.37 101.85L201.2 102.6L201.95 102.13L203.81 101.31L207.6 102.27L208.83 95.97L207.01 91.27L208.75 90.34L212.61 92.26L211.61 90.97L213.03 89.72L212.77 87.85L217.25 88.39L215.76 81.66L217.41 81.25L217.06 79.86L218.25 80.39ZM216.56 129.21L216.9 130.11L213.18 129.52L210.16 131.83L207.62 130.85L206.54 132.35L207.18 135.33L202.62 135.57L203.07 133.63L202 133.5L200.06 135.71L197.69 135.56L194.58 137.35L196.89 137.49L201 140.82L197.8 141.72L196.84 143.32L198.82 144.04L199.46 147.33L201.88 147.54L202.26 152.31L205.43 152.98L203.97 155.8L205.47 156.19L203.74 157.52L204.88 159.06L208.9 158.56L210.22 159.96L210.64 156.08L212.64 156.79L216.11 155.65L219.43 151.79L222.1 151.9L222.18 150.46L222.2 150.29L223.66 150.96L224.72 149.61L226.13 150.44L227.03 149.51L232.26 152.65L232.74 150.36L233.76 151.05L234.75 149.13L233.57 147.32L234.05 145.3L232.58 145.79L232.26 143.75L237.63 141.6L238.07 138.75L234.28 137.44L233.59 134.5L228.67 133.45L228.09 130.07L223.9 131.17L225.36 129.71L224.52 128.64L222.69 128.08L222.41 127.53L222.48 126.91L221.07 127.23L216.46 128.47L216.56 129.21Z" fill="#C7C7C7" stroke="white" stroke-width="2"/>
<path d="M204.87 4.25L207.35 3.48999L209.57 6.26999L212.36 7.25L215.62 4.76999L219.07 6.57001L219.78 3.23001L219.6 6.76001L222.56 7.53L222.87 9.41998L225.56 8.54001L228.84 12.78L225.69 21.59L227.27 22.32L233.31 19.73L233.54 23.47L232.12 24.6L230.56 30.23L229.07 32.7L225.93 33.15L224.45 38.88L221.9 39.08L217.53 36.24L214.66 36.94L215.91 37.71L215.03 40.58L215.89 41.36L213.2 43.41L212.25 46.75L213.41 47.7L212.09 48.16L211.87 47.18L210.86 49.11L210.07 49.4L208.69 49.93L208.74 54.07L206.08 56.26L205.51 58.81L207.26 58.96L207.06 62.99L208.88 66.97L211.23 68.67L214.39 76.97L217.13 77.39L218.25 80.39L217.02 79.84L217.37 81.23L215.72 81.64L217.21 88.37L212.74 87.83L213 89.7L211.58 90.95L212.58 92.23L208.72 90.31L206.99 91.24L208.81 95.94L207.58 102.25L203.79 101.28L201.92 102.1L201.17 102.57L199.35 101.82L197.62 104.49L197.46 104.46L196.94 105.44L191.02 103.15L190.79 104.79L187.35 105.2L175.24 102.95L172.94 104.76L173.8 109.03L170.23 108.52L170.56 110.71L167.24 113.34L163.48 113.74L162.35 117.53L160.19 117.87L157.62 114.68L153.81 119.08L152.22 118.74L151.92 120.23L144.75 120.34L144.74 118.87L141.32 122.2L139.82 122.17L139.09 124.71L135.61 125.68L133.53 124.79L129.75 128.45H129.41L128.24 128.37L128.71 130.9L127.54 131.74L128.46 133.85L126.66 133.16L125.95 136.82L122.58 136.47L120.82 137.89L121.17 139.1L117.78 140.7L116.29 137.34L114.37 139.44L113.46 137.19L111.41 137.75L108.87 133.76L106.31 134.06L104.87 132.91L105.49 131.87L105.54 131.76L109.68 132.4L108.14 129.59L109.76 129.63L110.09 128.08L109.01 128.04L107.75 122.78L105.22 122.44L107.19 119.73L104.14 117.52L105.48 116.67L105.28 113.41L103.6 113.03L105.22 109.83L104.42 106.84H104.64L105.56 104.41L103.08 100.82L100.74 102.4L96.2604 101.02L94.6004 102.77L93.0104 101.1L93.0404 97.79L91.4404 98.05L89.9304 96.58L88.4104 97.81L86.0104 96.07L81.8704 96.69L79.4504 94.65L78.8604 93.58L82.3504 92.62L86.0104 88.44L87.0204 79.75L91.8704 81.19L96.0404 78.52L96.6304 80.19L101.78 80.66L106.48 68.09L109.3 68.06L110.42 70.55L113.31 69.85L113.54 65.94L118.19 63.09L117.77 59.87L119.45 60.37L121.69 64.65L126.34 66.5L129 62.66L131.58 61.39L130.56 59.36L133.23 56L131.74 51.98L134.63 50.68L138.63 51.32L144.24 48.26L148.1 50.31L149.87 47.96L151.11 48.91L154.44 47.67L161.56 48.84L162.07 46.69L165.34 46.42L164.32 42.96L165.52 39.48L168.88 39.89L170.41 37.42L173.61 35.71L177.25 37.95L181.51 36.81L182.56 34.81L194.8 29.96L195.65 26.07L198.66 24.97L202.01 26.55L206.13 25.31L206.19 24.01L209.55 24.52L210.47 19.09L202.67 16.43L203.24 15.68L201.98 14.84L204.27 13.75L203.97 12.12L200.24 13.25L198.03 11.67L198.12 8.73999L199.96 7.85999L200.41 6.03L199.3 4.32001L203.02 2L204.87 4.25Z" fill="#C7C7C7" stroke="white" stroke-width="2"/>
<path d="M309.92 171.12L316.93 175.65L318.59 178.63L322.71 177.47L323.5 178.85L325.19 177.58L327.12 178.21L327.28 179.7L329.05 179.3L331.69 182.68L335.72 182.48L335.08 185.85L337.97 185.54L341.83 188.5L343.1 187.48L341.67 191.15L348.14 195.76L351.92 194.98L351.22 193.6L352.85 193.18L352.69 192.15V191.45L355.52 188.23L357.02 191.16L360.1 191.43H360.68L362.56 192.25L364.79 195.94L368.16 195.06L368.85 196.65L372.97 196.5L380.05 201.96L379.76 203.5L381.32 204.81L382.74 204.2L386.89 205.79L390.72 210.11L390.78 212.7L389.09 214.31L390.42 216.08L392.4 216.02L393.22 218.21L390.26 222.46L387.37 221.57L390.6 224.82L388.36 229.36L388.8 233.07L390.12 233.35L388.97 237.41L390.33 241L388.44 242.77H387.65L381.53 245.77L380.72 249.53L378.8 250.4L378.69 252.53L381.37 255.07L378.19 255.76L376.82 261.31L380.1 262.94L380.06 265.05L376.34 266.53L375.74 267.89L376.91 269.02L376.61 271.67L378.82 270.62L378.18 272.07L379.73 272.75L379.48 274.58L377.72 276.74L375.54 277.08L374.29 280.75L367.91 281.32L367.03 282.44L368.66 284.12L363.34 285.08L363.11 286.23L358.29 283.92L357.31 286.22L354.97 286.83L352.5 285.2L351.76 282.77L349.15 283.5L349.35 285.16L347.87 286.48L344.94 285.16L344.05 289.26L338.91 289.02L336.74 292.58L333.53 293.17L330.91 297.82L328.82 294.93L324.77 295.48L323.62 299.01L321.44 298.5L320.34 296.18L317.98 296.58L317.96 297.56L316.82 296.54L317.4 295.18L312.39 293.78L312.35 291.31L310.95 290.73L309.67 291.98L309.07 290.85L313.25 287L312.5 285.35L314.55 284.6L313.83 282.53L315.09 282.09L314.98 279.96L318.91 280.21L318.34 278.91L319.38 278.53L317.68 276.89L318.49 276.12L315.23 274.67L316.73 274.55L316.23 272.81L314.14 271.88L313.38 273.31L311.7 272.5L310.42 274.14L307.25 274.11L304.86 272.24L303.31 274.3L295.41 267.6L296.66 263.92L295.86 260.68L289.06 260.87L287.77 262.23L288.13 260.49L282.21 257.96L279.95 260.73L278.46 260.03H277.59L276.13 256.44L273.92 257.35L271.77 255.67L274.07 256.23L274.41 253.4L270.62 253.1L267.68 249.66L264.21 252.85L263.07 252.61L256.3 244.59L258.94 241.44L254.86 238.55L257.23 231.88L255.97 231.41L258.31 227.44L257.6 224.96L258.93 223.71L255.97 219.35L256.48 218.02L259.77 218.05L258.85 214.46L258.88 214.24L258.85 213.5L259.95 213.44L259.5 210.45L263.68 210.33L262.15 208.15L263.07 206.73L265.27 206.4L266.97 208.04L267.9 207L269.95 208.39L273.96 207.68L275.53 206.06L279.58 209.06L280.39 205.66L281.57 206.04L282.09 204.67L285.02 205.68L286.85 204.39L287.47 201.44L286.17 198.62L281.77 198.07L281.08 195.31L281.38 192.26L284.51 189.89L285 186.31L286.13 185.68L286.51 185.69L288.04 184.87L287.67 186.04L288.88 186.57L290.76 184.46L296.39 183.99L298.21 182.96L299.54 179.72L302.58 180.71L303.09 180.75L304.54 179.11L302.52 176.88L302.99 175.17L305.27 173.29L307.09 174.45L309.92 171.12Z" fill="#C7C7C7" stroke="white" stroke-width="2"/>
</svg>
