<svg width="984" height="796" viewBox="0 0 984 796" fill="none" xmlns="http://www.w3.org/2000/svg">
<path d="M929.62 617.16L929.49 618.52L931.84 619.79L931.79 620.37L933.35 621.63L935.89 627.49L937.6 628.75L939.16 628.86L940.12 630.17L942.91 631.2L944.14 633.43L949.36 635.53L951.26 637.42L952.37 637.9L955.93 636.59L957.17 637.78L958.67 641.69L963.06 645.87L965.99 647.06L968.43 649.68L972.43 652.19L976.11 653.22L976.57 653.93L979.22 653.75L980.24 654.54L980.34 656.14L981.52 656.33L981.22 657.79L981.69 658.83L980.58 659.5L980.02 661.28L980.25 662.55L980.38 663.79L981.82 666.46L981.39 667.03L981.94 668.5L981.07 670.39L979.28 672.02L979.54 673.83L979.36 674.83L977.91 675L977.36 677.32L975.4 679.09L975.81 680.75L976.99 682.09L976.37 683.63L976.85 685.08L974.92 686.63L971.64 691.31L970.18 691.58L966.37 690L963.15 689.83L955.13 687.6L951.17 684.91L949.69 685L944.34 680.9L938.57 678.36L936.97 678.68L931.78 675.57L929.3 675.92L924.88 673.25L922.08 669.46L920.11 668.97L918.77 667.23L917.49 666.62L917.72 666.11L918.45 665.56L917.84 664.49L916.26 665.09L916.85 663.64L918.6 662.76L918.99 661.03L918.51 659.17L919.64 657.09L919.46 647.36L918.74 644.3L919.29 643.42L918.86 641.17L920.3 634.76L925.96 623.76L926.63 621.51L925.89 620.48L925.84 619.14L928.82 616.27L929.62 617.16ZM647.33 536.14L646.56 533.48L647.3 533.11L646.79 532.14L646.91 531.68L647.37 531.39L647.36 529.09L648.13 528.26L647.79 527.39L648.2 526.56H648.95L650.63 526.37L651.37 525.24L652.48 526.6L652.85 528.17L653.04 532.96L653.54 533.33L653.37 537.4L654.28 538.04L653.6 539.15L654.93 540.51L653.22 541.48L650.74 541.47L650.33 539.57L649.27 538.81L649.36 537.82L647.83 538.25L647.27 537.14L647.86 537.39L647.95 536.5L647.33 536.14ZM629.97 521.7L632.63 520.87L633.05 521.55L630.96 523.19L632.32 525.63L632.71 525.4L631.53 523.32L633 522.21L633.5 523.34L632.61 524.47L634.28 523.62L634.85 524.53L633.47 526.33L632.79 525.53L632.34 525.76L632.56 527.36L633.89 530.51L634.81 531.34V532.65L636 533.78L635.64 534.7L638.58 535.01L639.3 535.96L639.37 539.7L637.77 541.94L638.47 544.54L639.46 544.9L638.75 545.34L639.19 545.78L636.98 547.37L632.54 548.69L630.6 551.28L626.99 554.06L623.11 552.75L622.16 549.26L619.94 549.75L618.18 548.75L615.97 544.45L615.52 540.93L619.11 535.44L621.53 533.09L623.72 528.05L625.32 525.9L627.6 523.92L628.35 522.46H628.76L628.89 521.21L629.05 520.74L629.25 519.21L631.56 519.17L632.04 519.99L629.97 521.7ZM543.01 466.09L544.2 466.32L545.59 465.65L548.36 467.6L548.68 469.33L546.56 471.84L546.18 473.27L545.2 473.87L544.72 478.46L545.26 479.65L549.2 481.42L550.12 484.77L550.39 490.22L552.35 491.6L550.78 492.45L550.7 494.25L551.11 494.97L552.14 494.74L553.17 494.67L552.37 497.82L554.37 502.21L553.88 503.75L552.74 504.66L552.91 505.35L553.86 505.63L553.43 506.39L553.59 508.71L554.09 509.17L553.71 511.22L552.77 510.34L551.6 510.42L550.61 511.35L549.71 511.7L548.62 511.79L547.03 513.19L546.07 512.98L545.98 510.09L544.56 510.78L543.8 508.61L542.48 511.19L535.67 507.47L531.95 510.89L527.9 509.3L525.28 509.63L525.19 505.77L524.41 506.08L523.77 504.81L524.73 504.96L525.47 503.3L526.33 494.94L528.31 493.67L528.19 490.6L533.08 489.01L534.23 489.96L536.95 488.74L538.04 487.19L539.59 481.38L537.51 476.57L535.92 475.73L535.32 474.15L535.58 471.47L531.55 464.95L532.06 460.13L540.18 462.15L543.01 466.09ZM587.95 413.72L590.46 414.71L593.38 415.13L598.37 419.7L601.7 420.14L605.24 421.71L608.22 421.32L614 422.17L619.75 425.02L628.94 433.91L631.43 435.06L631.15 435.63L630.11 435.48L630.26 436.82L629.17 437.92L627.65 441.57L623.11 445.89L620.53 451.53L618.09 459.52L617.4 460.76L617.44 462.32L616.66 463.98L620.18 472.54L620.56 473.83L624.29 482.19L624.96 491.11L626.32 493.02L627.53 496.9L627.04 500.26L628.26 503.93L625.38 510.66L626.42 511.87L626.06 512.4L625.94 514.68L626.8 515.43L627.5 513.73L628.13 513.52L628.43 512.26L631.31 514.2L630.57 514.77L631.11 515.03L629.71 516.18L627.58 515.47L627.48 516.07L628.42 516.78L626.99 517.05L627.32 517.8L627.41 519.56L627.95 519.59L628.21 520.78L627.28 523.67L622.93 527.54L623.1 528.3L623 528.55L622.38 530.03L621.64 531.38L620.81 530.44L620.27 530.82L620.43 531.82L620.9 531.36L621.63 531.72L620.86 532.94L620.64 533.42L618.6 535.23L618.65 533.74L615.55 534.6L615.18 534.24L613.43 538.21L613.99 539.24L614.79 539.43L613.01 542.89L607.1 542L606.74 540.75L606.63 540.24L602.1 539.83L600.48 540.28L600.56 539.67L601.8 539.46L606.58 540.04L606.27 539.3L600.73 539.06L600.12 540.32L599.76 539.52L598.14 539.9L597.36 540.8L597.51 541.16L598.18 540.55L598.53 540.79L599.13 540.41L599.3 541.2L600.09 540.88L600.42 541.49L595.38 544.49L594.46 543.68L594.27 543.45L591.77 541.11L584.68 538.85L583.33 537.62L578.75 539.64L577.64 537.89L574.9 538.72L574.11 541.93L567.22 539.91L568.21 534.68L566.87 534.75L567.01 530.99L565.94 525.67L570.79 521.46L574.47 521.71L579.83 516.52L574.8 512.01L575.94 508.93L576.57 508.73L574.01 506.16L568.24 507.07L565.84 504.73L562.91 503.41L560.17 500.24L557.49 498.73L555.3 497.33L555.97 494.22L554.58 491.93L553.86 487.08L553.09 487.24L552.17 485.55L552.52 485.08L552.12 483.69L550.94 483.23L551.58 479.8L554.03 479.29L554.38 474.98L552.83 472.98L551.57 469.44L551.8 465.87L550.6 462.14L548.28 457.94L547.63 454.72L546.68 454.85L545.73 454.52L544.75 453.59L543.62 453.4L541.92 452.96L538.14 455.06L537.4 456.33L535.89 457.15L530 459.16L527.3 458.36L526.62 458.47L526.57 459.19L524.86 458.11L523.49 452.95L525.15 450.56L530.32 447.76L546.35 437.12L553.76 430.14L569.96 418.06L572.29 416.81L584.86 412.83L586.33 413.19L587.99 412.78L587.95 413.72Z" fill="#C7C7C7" stroke="white" stroke-width="2"/>
<path d="M313.77 501.44L312.96 506.91L312.56 507.66L310.91 508.36L307.25 506.74L302.56 507.05L300.88 505.84L300.85 504.92L302.8 503.41L306.32 504.03L309.93 503.03L309.49 501.41L310.74 499.45L310.44 498.33L311.46 495.51L312.86 498.05L313.77 501.44ZM280.66 486.71L281.56 486.76L282.44 487.84L281.21 489.28L279.79 489.72L278.69 489.58L277.18 488.55L276.3 486.49L278.61 485.44L280.66 486.71ZM28.3103 471.73L29.3403 472.87L29.1103 473.41L27.8903 472.7L26.5203 472.8L26.7103 471.19L28.3103 471.73ZM331.2 457.5L329.02 458.71L327.74 458.39L325.64 456.84L324.08 454.7L325.24 454.41L332.39 456.59L331.2 456.99V457.5ZM10.0503 444.24L10.4703 444.5L10.0803 445.23L10.5003 447.93L12.0503 450.13L11.7503 451.12L13.0903 453.78L13.3003 455.57L15.3103 457.13L15.1603 458.57L15.1203 459.42L14.8203 462.48L15.8103 463.34L15.5503 465.54L15.9103 466.56L15.7703 468.24L15.1703 468.99L17.0003 473.7L16.3903 475.83L17.1703 477.22L18.8003 478.29L15.7103 483.06L15.9303 487.78L17.8603 489.74L15.2603 490.22L12.9303 475.32L10.9203 455.61L9.77031 449.99L7.67031 444.99L10.0503 444.24ZM348.92 458.13L352.12 462.27L353.99 463.28L358.57 465.35L358.63 465.83L357.43 466.79L355.54 465.92L353.82 466.2L352.73 467.54L353.84 471.42L355.57 471.98L354.92 473.06L355.88 474.81L356.89 475.28L357.5 475.75L362.12 473.44L362.37 476.55L359.56 479.25L357.1 484.76L356.63 489.64L357.45 491.62L357.31 494.72L356.26 497.96L354.98 499.71L354.29 502.7L348.65 501.37L344.69 501.6L342.73 499.41L341.44 495.31L341.07 488.25L341.68 481.32L344.28 478.34L348.17 478.01L349.11 477.11L350.47 473.97L351.45 467.78L350.62 464.81L348.44 461.96L345.42 460.04L342.52 460.44L341.57 458.88L340.47 453.41L340.64 449.91L346.12 444.11L347.44 454.52L348.92 458.13ZM82.3303 299.99L81.6003 301.1L80.9203 300.61L80.0903 300.98L80.3303 302.22L81.6603 302.88L79.1803 307.16L78.7803 310.01L79.6003 311.6V314.27L77.3103 316.84L76.8603 316.57L78.7003 314.27L77.5003 311.91L77.5403 310L76.2503 307L80.0203 300.21L82.3303 299.99ZM72.2703 273.2L73.3703 275.35L72.0003 276.67L71.3503 280.29L70.4303 281.71L72.4403 284.92L73.9903 285.57L74.7503 284.44L74.3803 282.82L72.5303 282.06L73.0303 281.81L73.4303 279.69L74.9203 280.08L76.2403 279.46L78.8503 280.69L80.3203 279.98L79.8403 281.97L78.6203 283.74L79.6303 285.35L78.9003 288.2L80.0103 290.28L76.1203 286.47L74.0303 286.24L74.1903 289.37L73.5203 294.2L72.8803 295.21L67.6603 295.38L64.9703 297.15L65.0803 298.82L67.7003 299.85L68.6703 300.65L68.1603 300.98L64.7203 300.25L63.8403 298.65L62.8303 298.12L62.3103 295.44L61.0603 294.15L59.6903 288.56L58.4203 286.89L56.4903 285.83L55.0903 283.57L52.8503 281.97L50.5703 279.29L47.4903 277.76L47.6503 276.39L48.9003 276.63L49.3103 277.61L50.4803 277.72L53.0303 275.26L56.5603 274.09L58.6703 274.63L57.5603 274.64L57.4903 276.05L58.4703 277.37L60.5303 278.72L61.7103 278.61L64.6103 276.72L66.1803 274.51L67.8703 274.61L68.6403 273.28L71.0103 274.05L71.7403 272.55L72.2303 272.52L72.2703 273.2ZM496.68 260.79L498.5 261.25L492.11 265.81L487.89 271.75L486.33 272.97L483.27 273.52L481.33 273.02L479.12 268.47L477.83 266.41L477.08 266.13L480.45 263.69L484.88 264.52L496.68 260.79ZM139.21 244.4L145.57 248.72L144.82 250.57L145.32 252.85L148.15 260.15L153.73 266.8L154.21 268.26L150.32 270.61L148.59 272.74L146.66 275.89L146.28 278.61L143.43 278.37L143.82 283.58L144.54 284.52L142.56 284.16L141.54 284.7L137.54 288.61L136.29 292.65L135.88 297.17L136.18 299.09L137.08 301.4L137.6 302.9L137.21 303.72L137.82 304.72L136.9 305.08L137.97 306.35L140.53 306.33L142.71 303.23L143.41 300.75L142.38 298.09L143.15 294.74L145.9 293.49L147.13 295.22L148.72 295.54L150.95 293.01L150.97 290.76L147.49 291.46L145.25 290.39L149.03 287L150.95 281.63L151.61 282.48L151.57 284.09L150.9 284.77L150.78 286.6L151.96 288.9L153.61 290.06L155.68 290.22L159.12 287.97L161.02 288.66L166.51 288.38L165.68 288.74L166.29 289.72L167.61 289.11L169.34 289.95L170.83 293.16L170.15 293.11L169.73 294.37L170.1 294.87L166.17 297.56L165.5 297.21L165.22 299.79L163.92 302L165.28 302.61L166.01 306.59L167.95 309.45L170.88 312.1L172.66 312.15L171.58 313.61L171.5 315.4L172.51 315.09L172.45 314.24L176.55 310.34L178.96 311.01L180.27 312.03L181.14 311.72L180.58 307.63L180.91 305.06L181.81 303.85L180.89 303.51L179.46 303.96L176.8 306.09L172.72 307.54L171 307.24L169.66 304.48L171.11 296.56L171.19 294.99L170.35 294.07L171.79 293.43L172.98 291.4L173.44 289.23L173.11 286.88L174.27 285.45L174.91 282.38L174.17 277.37L178.94 277.57L180.5 279.77L184.74 279.08L184.58 282.07L189.54 285.6L192.97 286.23L195.97 276.76L198.09 276.6L198.51 274.81L202.64 275.25L203.16 275.57L202.29 277.51L202.88 278.05L203.71 277.66L203.89 278.77L204.44 278.65L204.89 279.59L203.09 281.29L203.48 282.74L208.58 283.35L208.02 286.71L212.6 288.27L216.57 287.5L222.75 288.38L223.51 291.92L219.14 293.41L219.01 300.55L223.68 298L228.62 299.25L233.84 306.7L240.08 305.14L245.2 307.94L251.59 306.53L252.07 303.09L252.9 301.97L255.03 302.13L261.26 300.26L262.72 296.34L265.39 297.77L274.14 295.09L280.43 290.72L284.37 289.56L285.57 286.31L285.39 283.88L290.26 282.43L290.03 279.31L295.56 275.79L295.21 274.3L296.7 274.93L303.15 270.84L305.25 270.79L307.66 272.05L310.07 271.17L311.16 270.12L315.16 270.02L317.16 272.19L318.56 280.01L317.03 280.17L316.73 280.92L318.17 284.05L318.02 285.71L315.85 289.69L309.58 293.18L307.41 297.66L304.94 298.45L302.43 301L302.01 303.32L300.92 305.85L300.08 306.86L298.91 306.77L298.07 309.78L299.83 319.66L297.82 326.43L297 327.02L293.65 327.44L286.12 330.83L284.81 330.35L284.46 328.88L280.46 328.43L278.64 328.93L278.82 329.43L275.82 329.79L274.15 330.97L273.19 331.38L267.6 331.03L264.49 333.99L265.47 333.68L266.73 332.2L267.75 331.19L273.25 331.68L277.41 329.9L280.73 329.33L283.79 330.19L286.59 331.39L294.12 327.72L295.82 327.68L298.71 326.75L302.9 328.5L309.06 328.08L308.77 327.62L305.16 327.18L302.94 327.45L301.46 326.84L300.58 325.44L300.47 324.07L300.69 320.11L300.6 319.28L300.73 316.25L300.23 315.32L301.04 310.06L301.84 308.4L303.33 307.62L303.38 305.63L306.15 301.3L308.12 300.26L310.24 297.56L310.21 293.58L311.35 293.75L312.43 295.16L313.6 295.17L315.85 296.5L316.32 301.05L317.3 303.36L320.66 308.32L324.53 312.15L327.51 314.17L338.6 317.21L345.86 316.84L361.25 313.02L367.3 312.75L370.99 312.24L374.55 310.95L378.53 311.09L380.6 312.16L384.16 312.79L387.58 316.05L389.77 323.69L392.78 325.26L395.06 327.57L396.38 327.97L399.83 331.37L400.21 333.46L400.96 334.2L400.53 336.25L399.14 336.21L397.77 337.34L396.39 340.38L396.96 340.97L396.58 342.89L396.72 343.59L395.74 344.32L395.86 347.3L394.94 350.74L394.91 359.5L389.08 367.56L387.85 370.39L384.54 372.48L383.47 374.02L380.62 381.04L377.9 384.28L374.58 385.31L372.32 387.42L370.68 390.39L369.97 393.61L370.76 400.17L367.21 409.63L363.74 409.79L362.49 408.63L362.17 406.37L361.03 405.62L357.65 402.79L356.61 400.41L356.58 398.4L357.36 398.18L359.04 399.41L360.27 398.9L361 397.77L360.87 396.52L362.09 394.21L361.68 391.87L360.26 389.73L359.07 388.83L353.44 388.25L351.59 388.68L349.47 390.36L348.13 393.24L348.23 394.55L346.24 395.96L343.52 399.82L342.18 404.16L343.58 407.13L344.8 408.24L345.73 414.03L345.48 416.74L343.84 419.55L339.33 421.38L334.98 410.21L336.33 408.62L339.9 408.9L341.54 403.21L340.43 402.06L338.22 402.68L338.35 403.23L336.51 402.57L333.32 400.19L331.11 399.8L328.95 400.84L328.44 402.71L326.44 404.61L322.95 404.63L320.71 403.04L319.85 398.73L317.95 397.12L316.65 397.32L316.33 396.76L316.68 394.95L318.19 395.52L324.65 393.41L325.39 392.23L325.05 390.93L326.02 390.39L327.37 390.81L327.5 390.13L329.29 390.44L327.23 392.94L328.52 394.88L330.98 395.18L331.79 395.92L332.89 395.44L334.94 393.48L333.21 390.11L333.61 388.97L333.04 388.11L331.81 387.83L330.52 389.31L330.28 388.3L332.61 385.19L334.17 384.24L335.33 382.28L335.54 380.33L336.52 379.82L338.62 380.03L338.8 378.95L337.87 378.01L338.34 376.72L334.96 374.76L333.9 377.21L332.93 376.89L334.08 375.38L331.93 375.31L331.24 374.69L331.63 372.15L331.13 371.64L330.13 372.64L327.67 371.55L326.04 373.02L326.19 372.65L325.05 372.23L324.05 372.68L322.44 372.27L321.38 373.09L321.2 374.06L322.3 375.85L320.44 377.96L318.46 377.44L316.27 379.69L316.41 382.38L317.29 383.4L315.99 384.53L315.35 383.87L315.11 386.68L310.77 388.93L308.08 393.05L307.3 395.31L304.24 396.62L302 398.59L299.88 403.16L300.62 403.88L298.7 405.83L298.25 405.46L298.18 407.19L300.02 405.8L298.82 409.77L301.95 407.98L302.42 407.16L301.78 406.61L302.59 405.65L303.19 406.7L302.79 407.09L303.23 407.81L299.95 410.34L298.04 410.4L297.44 411.27L298.13 413.05L299.95 415.08L301.41 419.51L302.83 421.75L304.41 429.6L305.99 432.93L306 434.76L305.49 438.77L303.93 439.57L303.74 438.3L302.36 438.73L299.99 441.74L298.12 442.51L298.9 443.07L301.46 442.43L303.22 439.58L304.08 439.83L304.81 439.19L306.57 439.05L307.46 439.79L305.92 441.27L303.58 446.58L303.48 449.87L305.34 455.22L304.17 462.19L304.16 466.81L301.44 467.62L297.24 472.77L295.12 473L295.4 476.77L296.6 478.24L296.86 479.58L296.51 479.84L295.15 481.27L295.99 483.94L295.2 484.96L290.57 482.75L288.21 480.01L287.78 478.93L288.51 476.12L286.93 474.22L286.4 475.66L284.99 476.7L284.54 478.37L285.2 478.75L285.04 479.4L282.96 478.97L279.8 482.09L276.01 482.46L273.87 483.62L273.67 481.43L276.65 477.01L284.29 478.36L284.8 476.63L283.96 475.44L283.8 473.84L278.45 473.46L277.22 474.54L273.61 475.51L270.82 475.6L268.33 474.37L265.02 474.46L264.18 474.66L263.29 477.64L264 478.48L263.93 479.64L259.24 479.01L256.95 479.9L253.65 476.94L253.83 475.69L255.02 475.57L254.58 475.02L252.06 474.43L250.75 475.21L250.16 474.49L248.36 474.47L248.56 475.47L250.99 476.14L253.44 475.57L253.25 476.53L254.11 478.22L252.05 478.79L251.22 480.17L251.25 481.16L251.66 482.44L252.03 482.66L253.63 483.7L261.17 486.02L264.2 486.27L265.07 487.12L268.53 487.93L269.68 487.73L271.27 485.57L271.68 486.47L270.79 487.56L271.49 488.01L270.5 489.86L272.79 488.34L275.52 488.35L275.93 488.83L275.94 490.08L277.69 492.12L271.3 498.89L270.8 500.13L270.97 502.57L272.05 504.28L279.22 505.71L279.94 507.51L276.02 507.44L273.58 510.18L270.85 510.5L268.73 511.8L268.53 514.02L270.76 515.26L271.22 514.81L272.68 519.45L270.31 518.28L265.18 519.8L257.67 520.36L252.23 521.89L249.56 523.12L247.21 525.14L243.52 526.24L242.03 524.02L238.59 523.14L233.46 523.41L229.71 519.31L229.18 517.98L226.98 517.88L226.17 516.87L223.17 515.65L224.9 509.83L224.49 506.5L220.4 504.02L219.83 505.42L216.61 504.34L213.51 505.88L211.12 502.92L212.76 500.74L211.24 498.68L210.38 500.3L204.82 500.66L205.05 498.12L202.19 497.61L200.38 491.58L199.91 487.46L197.03 487.39L197.09 486.07L192.1 485.58L193.25 481.81L191.11 480.88L193.88 478.89L183.68 464.8L184.09 464.57L183.64 463.22L183.69 462.7L178.47 459.87L177.97 460.55L177.99 460.62L177.32 461.02L176.81 461.56L174.6 460.99L173.12 459.89L172.24 460.42L169.08 460.08L165.82 456.33L160.59 456.03L157.24 461.94L157.32 465.39L150.99 473.57L146.51 477.08L143.71 475.13L141.99 477.66L140.05 483.19L138.38 481.66L136.65 485.17L134.41 484.15L131.55 486.59L124.43 482.93L125.5 473.25L113.87 470.58L113.54 471.06L111.6 470.66L110.28 474.39L108.07 474.01L105.79 482.45L101.82 484.83L106.29 489.35L96.9103 492.62L91.8603 490.71L89.8703 484.83L85.4703 482.24L73.9603 485.54L70.7603 482.4L65.5603 484L67.5003 488.63L66.1903 490.91L62.8603 491.6L63.0303 497.18L60.3703 499.83L54.1003 499.91L52.9003 497.05L49.3603 495.24L50.6003 494.36L44.5003 493.75L40.4603 488.65L36.4503 493.89L31.2403 493.77L30.5203 494.77L29.4503 494.83L25.7803 491.29L22.9003 489.72L23.0203 487.61L18.1403 486.3L16.8303 486.61L17.8303 482.73L17.4103 482.71L17.5903 481.65L19.2203 481.28L20.8603 478.77L20.4203 478.07L20.2303 477.44L20.6903 476.52L18.8903 474.88L19.3403 474.28L19.8603 474.67L21.3503 474.31L20.3403 472.61L20.8603 472.16L20.4003 470.9L21.1803 470.18L24.0503 470.71L24.1103 471.83L22.8003 471.7L24.5103 473.89L24.2803 474.32L25.6103 475.19L26.3203 475.01L26.2803 473.83L27.7503 473.44L28.8603 474L29.2903 473.54L30.6203 474.8L28.0003 477.83L28.3703 480.72L27.6503 482.62L29.2903 483.82L30.0703 482.01L30.7403 481.72L33.0003 480.48L33.8103 479.34L37.2203 477.12L38.1603 475.17L41.3403 471.54L44.6903 469.07L45.0203 468.2L44.4203 466.26L43.1203 465.06L44.0303 463.92L43.8803 462.26L43.9403 460.07L44.0003 458.29L43.0403 457.56L42.8603 456.57L42.2503 455.58L41.0703 454.36L39.5603 452.46L37.9903 450.75L35.2503 445.79L34.3903 441.39L34.6903 438.12L33.7903 435.38L34.4703 431.93L34.0403 430.51L30.2003 427.81L26.1103 423.87L23.8803 421.91L15.1803 418.77L14.1703 418.92L13.8203 418.11L9.49031 415.56L11.2503 417.59L11.2803 418.97L12.1903 420.34L10.3703 422.74L10.1203 423.94L9.51031 430.38L9.84031 432.17L9.11031 435.54L10.5803 442.57L11.9103 443.01L9.79031 443.94L8.68031 443.46L8.91031 444.25L7.78031 445L5.57031 433.97L6.36031 418.76L9.75031 392.78L9.98031 382.85L7.74031 352.61L8.22031 352.6L9.96031 352.68L10.4103 353.24L8.98031 353.07L8.62031 353.78L10.2503 353.54L10.9603 354.44L9.92031 356.17L10.0403 357.98L9.30031 358.32L9.69031 363.41L12.0103 362.77L12.4603 362.44L14.4903 361.22L14.9703 364.64L18.1303 363.72L20.3703 365.39L24.5803 365.06L24.2103 366.85L25.4403 369.97L23.9803 370.75L25.4103 372.96L26.4203 373.39L29.1603 371.16L30.0603 371.03L31.9903 366.98L33.4403 365.57L33.4603 364.78L31.9603 366.15L31.0103 365.2L27.7703 364.25L27.3003 363.99L26.9503 363.19L26.0703 363L26.4503 362.06L27.4703 361.83L26.5803 358.77L25.1703 357.91L25.1603 356.83L24.3503 355.93L21.8503 353.88L19.3803 352.78L17.4003 350.53L16.6903 348.07L14.8603 345.45L14.8803 342.58L14.1203 342.22L15.0703 341.23L14.3703 336.58L11.9803 337.44L9.83031 335.65L9.62031 337.08L8.82031 336.88L9.65031 338.12L9.88031 340.01L9.44031 341.01L8.66031 341.13L9.41031 343.28L8.59031 343.65L9.73031 344.37L8.55031 345.5L9.77031 345.59L10.3703 348.05L8.83031 347.79L9.83031 349.13L8.47031 350.45L9.72031 350.82L9.62031 351.87L7.52031 352.29L8.91031 327.09L7.62031 318.52L7.56031 314.31L8.71031 305.82L14.9903 280.36L19.7103 269.75L21.0903 268.1L22.3703 268.59L22.3903 269.54L21.7703 269.92L22.5003 270.63L22.9003 271.04L22.6603 272.95L22.3403 273.1L22.6803 274.32L23.4703 274.62L19.9003 279.02L21.7503 281.65L20.1303 282.38L18.7103 281.52L17.5203 287.39L19.1903 286.91L23.5603 289.01L23.6803 289.99L23.0903 290.34L23.6503 290.9L23.5103 293.82L24.4003 293.78L25.4203 294.96L29.1603 296L31.9703 295.72L33.3203 296.64L33.9003 298.52L31.3103 298.65L30.7703 299.32L31.0303 300.97L33.0503 304.2L32.3403 304.98L32.6503 307.13L33.5503 307.92L34.2203 307.73V302.53L37.0803 300.99L40.2903 301.65L45.2703 300.73L59.1203 307.37L61.7403 309.9L62.8303 310.16L65.4303 308.68L68.3603 304.92L69.9403 300.24L70.1303 304.9L71.3603 306.87L71.0003 309.67L72.6103 310.87L75.1803 315.9L74.1103 316.76L72.3003 320.51L72.6003 321.67L72.0003 321.63L71.7203 319.58L70.1203 319.11L67.8003 319.86L66.7503 321.39L67.2603 322.36L66.5803 323.95L64.7703 323.72L64.0603 324.51L64.9703 325.15L67.4603 324.67L67.5503 322.74L68.6703 320.97L70.4903 322.05L73.3603 321.84L74.4203 322.38L74.9703 321.95L74.4403 321.56L76.2303 320.5L76.2403 324.19L77.7003 326.91L81.3903 328.72L82.6903 328.71L92.7803 325.91L93.6303 325.04L94.4903 320.5L94.0503 315.16L93.1703 312.61L94.9903 309.46L96.3803 308.69L97.0203 307.32L95.6203 304.18L92.1503 302.1L88.3903 298.35L87.1503 293.74L84.9503 292.84L85.7903 289.01L87.4203 288.54L89.5403 289.59L92.1903 289.56L96.4103 285.41L98.7203 281.71L100.12 276.74L104.08 271.74L105.26 271.62L107.35 273.59L108.56 273.39L109.44 271.97L111.8 272.48L111.77 270.81L113.45 269.8L115.01 272.22L117.04 272.01L118.71 270.61L118.25 268.39L116.39 267.65L114.66 268.36L113.97 266.05L112.82 269.02L110.97 267.34L109.31 268.48L105.98 269.06L105.74 268.57L109.74 259.42L112.14 256.76L110.97 254.19L112.78 254.48L113.86 254.02L118 251.2L119.81 248.24L125 244.69L131.04 247.73L133.02 248.41L134.4 249.1L135.41 248.73L135.55 247.72L134.4 247.21L134.65 246.21L133.46 245.1L136.07 244.7L137.57 245.18L139.21 244.4ZM135.24 233.35L140.35 234.11L139.25 234.53L138.16 235.94L138.51 237.6L140.71 237.9L138.89 240.16L137.57 240.72L136.47 239.96L134.79 240.76L134.08 240.32L133.14 242.3L133.07 244.21L131.3 244.68L131.33 246.15L127.02 242.28L124.96 237.92L123.12 236.79L123.87 235.68L135.24 233.35Z" fill="#C7C7C7" stroke="white" stroke-width="2"/>
<path d="M66.9396 271.26L64.6996 270.66L65.0496 269.61L66.4896 269.19L66.9396 271.26ZM142.69 224.32L140.68 223.38L139.38 221.54L141.31 218.65L142.01 218.59L144.03 222.49L143.46 224.65L142.69 224.32ZM117.59 205.74L117.17 208.2L119.26 215.23L117.36 217.82L114.98 228.52L113.98 229.77L114.49 227.89L114.25 224.62L113.17 224.37L112.09 225.03L112.34 226.19L110.83 224.82L111.23 223.79L110.53 223.19L108.36 223.56L107.98 224.82L106.25 227.46L106.12 228.83L107.62 231.77L108.13 236.69L109.55 240.16L112.6 243.47L113.27 246.49L113.04 248.84L112.15 246.41L111.17 246.25L110.73 247.16L109.91 247.08L109.77 248.31L111.27 249.68L108.34 251.53L107.83 252.7L107.27 254.69L107.87 254.95L107.53 256.05L107.95 257.79L107.01 257.81L106.38 258.53L106.54 260.49L104.54 261.67L103.69 263.01L102.15 263.59L97.8496 269.36L98.8996 271.82L92.7896 274.83L92.6096 275.39L88.9996 274.79L80.4796 278.25L80.3496 276.88L79.4096 275.57L78.8196 274.61L79.4396 272.19L76.2396 268.79L76.4296 266.59L78.2696 266V265.34L77.7496 265L75.6896 265.65L74.8796 266.44L73.6596 265.89L74.1996 264.43L73.3796 262.5L71.5596 262.57L71.3196 263.56L71.3796 264.62L73.2496 264.86L71.9296 266.04L73.1796 268.19L69.3996 269.67L69.2396 268.49L68.2396 265.74L68.3196 265.12L71.1296 264.57L70.4896 263.22L66.3096 260.21L62.8396 263.88L61.1796 264.69L61.6796 262.57L61.2996 260.66L62.1796 258.59L64.2296 258.15L66.6496 255.97L68.0896 256.46L68.8396 255.65L67.3396 249.5L66.3096 248.42L67.9096 247.4L68.5296 248.65L69.4396 248.74L71.0996 246.42L72.7496 246.14L77.4196 247.29L83.5896 243.79L83.7896 241.6L83.1996 240.9L75.8896 239.63L75.8996 238.63L77.5996 236.63L80.1196 237.46L81.1496 236.8L81.2296 235.29L78.8996 235.31L81.2796 231.36L81.1196 227.62L80.4696 226.24L80.8496 225.19L79.7796 223.81L84.2496 222.36L86.7696 223.11L92.0196 222.11L93.4396 222.76L96.2796 220.46L99.2796 220.3L101.32 219.19L104.63 219.02L105.79 216.89L106.48 212.14L109.34 208.79L110.5 205.74L111.68 207.22L114.43 206.67L115.75 207.13L118.69 203.71L119.02 201.02L119.84 201.08L119.61 203.45L117.59 205.74ZM248.64 180.53L246.63 180.93L244.01 179.73L243.04 178.71L242.59 176.35L246.61 175.53L248.74 176.03L249.6 177.38L251.1 178.26L251.07 178.93L248.64 180.53ZM271.72 175.17L273.48 179.13L277.4 182.24L277.08 183.37L281.22 185.61L285.26 189.29L287.31 192.29L294.8 197.76L300.34 199.86L309.99 198.9L309.69 203.25L308.42 203.26L307.44 204.95L308.47 205.37L308.66 206.04L305.98 210.29L304.57 221.5L305.17 223.68L305.88 238.07L306.55 244.27L309.52 256.59L314.44 264.4L314.37 268.23L313.24 269.27L309.84 267.57L303.35 267.1L299.74 265.29L298.67 265.38L296.5 267.36L295.95 268.87L293.79 269.56L291.24 268.25L290.6 266.68L290.82 265.4L289.42 265.44L288.16 265.14L282.85 267.79L282.22 270.19L279.77 271.25L279.69 271.84L278.72 271.88L278.26 270.57L276.79 269.79L274.21 270.62L273.7 271.6L271.73 271.7L270.16 273.69L270.4 275.01L266.34 275.65L263.26 278.92L261.25 278.65L262.31 280.89L261.13 280.33L259.49 281.21L259.25 281.96L258.56 281.62L256.7 282.59L253.94 282.33L252.71 282.99L248.1 282.98L246.98 283.94L243.65 283.81L240.59 285.73L241.68 286.01L242.96 285.36L247.17 286.09L248.94 284.27L252.18 284.33L255.11 283.55L255.46 284.06L257.98 283.98L259.99 282.9L261.17 283.48L262.75 282.92L263.9 281.53L265.92 282.13L266.43 281.11L265.88 280.77L267.33 279.05L268.55 279.02L269.77 277.5L270.98 277.98L272.67 277.17L272.78 275.87L275.31 272.65L276.47 272.43L278.93 274.73L280.37 274.6L283.83 271.16L284.07 268.36L284.78 267.07L285.59 267.9L287.3 267.78L289.54 269.17L291.05 268.78L295.21 274.24L295.56 275.73L290.03 279.26L290.26 282.38L285.39 283.83L285.57 286.26L284.37 289.51L280.43 290.67L274.15 295.04L265.4 297.72L262.73 296.29L261.27 300.21L255.04 302.08L252.91 301.92L252.08 303.04L251.6 306.48L245.21 307.89L240.09 305.09L233.86 306.65L228.64 299.2L223.7 297.95L219.03 300.5L219.16 293.36L223.54 291.87L222.78 288.33L216.6 287.45L212.63 288.22L208.05 286.66L208.61 283.3L203.51 282.69L203.12 281.24L204.92 279.54L204.47 278.6L203.92 278.72L203.74 277.61L202.91 278L202.32 277.47L203.19 275.53L202.67 275.21L198.55 274.77L198.13 276.57L196.01 276.73L193.01 286.2L189.58 285.57L184.62 282.04L184.78 279.05L180.54 279.74L178.98 277.54L174.21 277.34L172.23 272.23L170.61 270.82L168.99 270.64L166.51 271.52L164.83 273.08L162.57 273.19L160.96 275L157.44 276.59L155.14 278.92L154.3 279.13L152.47 277.19L152.05 275.9L152.13 274.7L154.18 273.67L156.54 270.04L157.2 270.02L160.37 266.75L162.8 262.65L163.7 258.89L163.33 256.34L162.1 254.94L157.57 253.31L155.78 254.01L155.52 253.53L156.01 248.45L154.11 243.88L153.29 243.59L156.14 239.67L158.84 234.52L159.19 229.62L157.63 226.53L153.21 223.5L152.9 221.79L154.66 215.49L157.25 212.49L157.49 210.82L159.66 209.68L161.64 207.3L163.57 202.97L168.4 201.47L169.24 200.32L169.88 196.42L170.98 195.03L171.77 195.3L178.97 192.53L189.21 190.22L197.73 190.57L200.64 191.27L208.2 195.3L210.76 197.63L208.74 199.97L208.23 202.09L209.23 204.72L208.24 205.93L207.09 203.46L206.13 203.3L204.47 205.8L206.44 210.66L207.48 211.38L208.59 213.49L209.08 213.33L209.99 207.56L209.59 205.27L212.15 203.57L213.92 203.59L215.8 202.31L217.37 197.83L218.69 197.43L222.9 191.81L222.78 188.57L223.28 187.11L224.03 185.87L226.68 184.23L233.06 182.99L237.76 181.37L246.76 183.65L250.25 180.84L251.7 180.31L253.73 179.94L255.74 180.07L258.75 182.17L260.78 182.02L262.76 181.21L264.95 177.21L268.13 174.75L271.72 175.17ZM405.71 142.85L405.09 142.73V141.77L406.83 140.97L405.71 142.85ZM411.5 140.4L412.07 141.13L411.44 142.6L407.25 143.23L406.32 143.85L405.79 143.15L406.06 141.84L407.3 140.83L410.47 140.08L411.5 140.4ZM395.24 133.3L392.71 133.43L391.78 131.99L392.26 131.68L395.24 133.3ZM387.61 128.08L387.97 128.8L388.41 128.69L388.66 128.99L393.02 134.34L392.09 134.21L387.35 128.5L387.06 127.33L388.18 127.6L387.61 128.08ZM434.38 113L433.58 121.94L433.05 121.72L433.61 119.8L433.32 118.57L431.93 117.83L432.54 115.77L430.45 117.67L430.35 118.55L427.24 117.95L424.05 118.86L422.83 118.58L417.56 121.17L416.81 122.51L417.24 123.21L419.7 123.59L419.43 127.69L418.61 129.96L415.88 132.99L409.75 132.46L408.52 132.92L416.07 133.41L414.96 134.93L407.42 139.16L405.36 138.66L403.57 139.61L402.58 136.26L402.07 136.01L402.28 135.15L399.43 134.48L399.7 133.54L398.73 132.31L396.15 131.74L394.48 132.49L389.96 130.23L389.05 129.06L389.11 127.15L393.71 123.45L395.88 119.72L399.52 117.55L401.94 117.54L403.32 116.57L406.5 117L408.21 116.53L409.75 114.09L410.9 113.41L415.17 113.69L423.28 113.1L424.77 112.74L427.12 110.98L430.35 112.07L434.14 112.2L434.38 113ZM351.84 10.08L350.74 11.1L349.74 10.39L348.9 11.09L349.57 11.55L348.19 11.4L344.55 14.5L335.95 25.26L329.64 36.13L328.21 39.97L327.11 46.79L328.26 52.84L330.22 58.08L338.06 68.13L338 69.72L340.81 73.72L342.36 74.84L343.9 79.64L344.59 80.1L345.35 79.72L345.95 80.4L345.19 82.4L344.19 81.31L343.78 81.81L344.66 83.33L343.44 82.42L342.87 83.45L343.85 84L342.45 83.98L342.33 84.72L341.48 84.7L341.14 85.41L341.44 88.37L340.91 89.05L340.96 91.33L339.6 97.09L340.63 106.91L342.36 110.03L341.54 110.78L341.31 112.07L343.84 125.11L344.48 131.19L344.06 136.86L343.28 137.1L341.33 139.65L339.24 141.42L336.62 142.5L333.15 146.26L329.55 151.36L326.27 158.17L323.98 164.1L320.41 180.24L320.34 182.2L317.13 191.75L314.1 197.46L311.55 196.71L309.87 196.13L306.04 196.8L304.06 198.08L299.1 197.25L293.35 192.83L292.06 190.86L283.48 182.73L281.33 181.07L279.18 180.59L274.53 176.55L270.78 172.48L268.87 171.86L265.71 173.16L262.19 176.76L262.22 179.97L259.44 181.02L257.79 180.52L255.31 178.58L254.09 178.6L250.87 176.88L249.82 175.17L245.89 171.46L244.48 171.12L238.94 167.3L237.64 167.07L237.54 168.5L238.05 168.98L237.45 170.43L234.73 175.71L234.99 176.36L233.06 177.77L227.14 178.73L222.16 175.69L220.08 176.5L220.13 173.64L222.73 172.95L224.26 171L224.32 170.28L222.2 170.47L218.32 172.17L216.53 173.89L214.59 175.56L216.25 177.14L218.21 176.86L218.86 177.28L216.37 179L214.63 182.01L211.4 181.82L209.62 184.23L205.46 183.24L200.26 183.25L198.66 183.98L197.55 182.96L193.19 184.76L189.4 185.21L181.97 188.59L178.89 188.62L172.64 191.52L171.27 192.67L169.91 194.18L166.53 195.6L166.57 196.21L165.52 196.6L162.47 196.16L160.75 195.85L158.98 194.65L152.73 188.33L148.4 184.57L138.51 188.82L138.19 190.22L136.03 192.54L134.62 192.38L134.58 189.86L133.65 188.91L130.16 189.24L127.81 190.19L125.3 193.7L122.37 192.96L119.8 194.4L117.82 199.26L115.77 199.25L114.67 196.81L111.29 195.85L109.82 197.63L109.53 195.7L108.53 195.89L107.48 196.22L106.37 196.34L105.78 196.79L106.25 198.03L108.71 199.8L108.81 201.48L106.8 202.14L106.19 203.05L104.48 203.13L101.19 204.76L100.31 206.75L96.9996 208.13L95.2696 208.27L92.5696 207.14L91.1596 207.41L89.3196 206.49L87.4896 206.65L84.7096 206.54L83.9296 207.15L82.4796 211.21L83.1896 213.86L80.1196 216.89L80.0896 219.98L78.0496 222.84L78.8496 225.87L77.7996 227.27L77.8996 227.99L79.1396 228.86L75.9596 233.63L75.9496 234.6L71.0696 240.45L65.4596 240.76L65.0996 241.33L65.5496 243.69L63.3996 243.5L58.9696 246.17L56.4296 249.87L57.5996 252.49L60.7496 256.54L59.2096 258.44L57.7696 264.61L55.0596 267.13L58.4596 266.18L60.4396 266.67L62.9096 266.73L63.5096 267.87L62.1796 270.62L63.8996 269.65L64.6396 270.21L62.5296 272.87L62.7996 275.57L59.4096 274.4L58.0496 272.43L54.3096 271.03L50.4896 272.97L50.6596 273.7L49.3896 274.88L48.1096 274.33L47.4696 274.64L46.8896 276.37L47.6596 276.43L47.4996 277.81L40.7696 276.08L39.6896 272.19L38.6796 271.26L37.4496 268.39L35.3896 266.48L34.2996 263.52L32.9496 255.77L30.5796 252.93L27.0496 250.81L25.7896 269.13L25.7996 270.22L25.5196 270.77L24.5596 270.06L24.5696 267.31L23.0796 264.64L22.0596 264.58L22.5996 262.34L23.0996 249.99L24.3696 244.17L29.2096 230.48L41.5896 205.15L44.2296 203.64L48.3296 198.42L53.5596 190.31L56.1696 184.76L57.4296 183.44L59.4796 183.63L61.0996 182.77L65.0696 178.1L73.3596 164.23L73.1896 163.61L73.6096 163.3L74.0496 163.54L74.4296 164.17L77.5196 162.48L78.3496 163.32L85.6596 165.69L94.0196 169.42L96.1096 169.43L105.51 167.11L111.2 164.84L115.72 162.33L123.87 156.04L127.34 154.56L130.58 155.15L134.13 154.35L144.25 158.3L150.5 159.42L155.78 159.64L165.13 158.6L168.74 157.8L174.37 155.43L180.78 154.93L185.23 153.12L202.71 139.4L204.63 137.3L218.41 116.64L227.4 99.95L229.12 97.9L239.94 73.07L249.49 62.99L252.78 58.4L259.35 45.68L262.6 42.22L262 43.49L265.19 42.84L265.22 42.17L266.45 43.14L268.68 43.58L272.37 43.92L275.54 43.42L280.3 44.22L283.29 44.24L290.48 43L302.28 38.42L313.11 31.93L340.62 7.76L345.47 4.39L348.1 3.13L352.68 2L354.9 2.19L357.9 3.96L353.29 8.02L351.84 10.08Z" fill="#C7C7C7" stroke="white" stroke-width="2"/>
<path d="M476.65 709.56L475.99 710.27L475.12 709.79L473.8 710.63L475.69 713.32L478.31 714.89L478.43 715.95L476.84 715.16L473.17 716.1L472.58 713.21L474.58 712.58L473.72 711.11L473.27 711.25L472.26 710.26L472.13 709.42L476.65 709.56ZM443.23 698.93L447.29 701.63L450.83 706.85L451.85 706.62L454.57 707.4L456.48 708.65L456.71 713.19L459.75 716.57L461.92 718.01L463.38 718.17L464.87 719.58L466.29 719.65L465.7 721.3L466.57 721.94L468.46 720.82L470.81 721.4L471.56 722.4L470.9 725.71L471.43 727.07L472.58 726.65L474.89 727.39L474.93 729.02L477.52 728.58L480.33 729.55L483.51 729.59L484.93 730.91L488.37 730.17L488.79 729.25L486.46 728.41L484.39 725.56L484.82 724.03L486.13 724.05L487.52 722.78L490.99 724.87L493.72 723.94L495 722.63L496.92 722.51L496.81 721.07L495.68 719.81L496.45 715.33L494.76 712.76L494.88 711.65L498.02 712.3L498.56 713.23L499.76 713.54L501.4 715.85L505.3 718.69L506.39 719.18L509.4 718.57L510.15 719.37L509.01 720.78L508.71 722.3L510.44 727.14L511.78 727.22L514.61 729.04L515.96 728.95L514.74 731.72L514.92 734.99L517.12 736.76L517.39 737.99L518.65 738.01L519.03 738.71L520.43 739.05L522.07 741.32L524.45 742.87L525.39 744.04L525.32 746L525.35 747.09L526.31 748.45L526.45 751.75L523.93 753.52L523.9 754.17L522.07 754.25L519.58 752.2L519.98 753.18L519.48 755.02L520.61 756.06L518.43 757.08L519.09 758.58L519.63 759.56L521.59 760.9L523.74 761.88L524.59 761.37L525.73 762.55L525.51 764.08L522.75 764.57L524.66 766.43L522.85 767.56L524.07 768.64L523.1 768.58L519.81 770.3L522.16 772.1L520.88 772.56L519.99 772.12L519.73 773.25L518.63 772.87L517.94 773.73L515.4 772.69L511.36 772.02L509.11 772.24L507.54 771.62L508.27 770.57L507.17 768.69L506.41 769.31L506.86 771.15L505.17 772.04L504.18 770.07L501.91 769.01L499.43 769.65L498.73 768.51L498.09 769.56L498.56 770.09L497.81 770.74L497.53 770.11L496.72 770.62L495.43 769.53L493.71 769.42L493.58 770.18L492.26 770.39L490.81 770.23L488.48 768.94L487.38 769.45L488.47 770.34L488.2 770.63L484.35 770.33L484.23 771.1L485.49 772.02L482.98 772.16L482.85 773.56L481.93 774.9L478.97 775.18L478.25 776.01L475.52 776L470.57 781.71L474.87 784.63L476.12 784.65L477.26 785.51L478.96 785.35L479.59 784.59L479.65 785.52L477.55 785.94L475.75 785.55L468.58 781.14L463 776.47L457.67 773.5L455.29 771.45L454.33 771.29L447.92 763.98L443.18 760.11L439.54 758.53L438.03 758.46L434.69 756.42L422.44 751.48L414.13 749.01L407.15 745.26L401.6 735.69L400.5 729.21L401.03 728.19L401.87 727.79L404.56 729.71L401.75 728.27L401.49 728.9L402.35 729.79L402.34 730.61L401.45 730.24L400.88 731.21L401.68 735.27L402.9 737.46L403.64 737.57L404.1 737.25L406.51 737.26L407.91 736.24L408.63 734.86L407.79 733.59L404.68 731.63L406.89 731.85L408.83 733.12L409.59 732.77L410.83 734.17L411.93 734.19L412.99 736.99L416.48 736.82L417.83 735.12L416.15 733.41L416.37 731.44L418.6 734.02L419.69 733.73L420.51 731.53L422.27 730.82L421.93 729.33L423.81 729.66L424.44 729.23L424.09 728.45L422.92 729L421.41 728.36L419.58 728.78L419.47 729.36L418.42 728.07L417.63 728.48V725.25H416.33L416.1 723.36L414.5 722.09L415.19 720.13L413.05 720.56L413.11 718.71L412.51 718.36L411.41 719.94L410.98 719.82L410.9 717.11L410.11 718.2L409.24 717.46L408.95 715.4L410.63 709.54L415.11 705.98L416.69 703.4L418.26 702.58L419.2 703.17L421.53 702.94L422.76 703.87L423.34 705.19L423.36 703.48L422.22 701.55L423.02 700.94L424.66 702.04L424.78 700.38L426.58 700.93L428.46 699.31L429.87 699.59L431.93 698.17L443.23 698.93ZM463.57 696.08L465.68 697.51L469.01 697.09L471.7 700.15L471.87 701.04L471.61 702.24L466.67 701.85L462.79 707.19L462.13 707.36L461.7 706.44L458.16 704.05L456.92 698.73L455.74 698.74L455.13 696.17L456.25 696.14L457.35 697.21L457.69 698.22L457.26 699.04L457.95 700.74L458.79 700.63L458.93 699.24L459.35 699.23L461.53 699.93L462.61 701.13L463.24 700.98L463.57 699.87L463.13 697.57L463.57 696.08ZM522.84 698.26L524.15 698.8L524.67 698.9L528.21 702.13L527.64 703.22L529.69 704.91L529.87 707.29L531.84 708.44L533.55 708.73L533.96 708.32L534.34 707.26L534.62 706.69L534.79 702.93L535.9 703.98L538.46 703.05L540.54 703.24L542.47 704.72L542.07 705.61L542.47 708.77L543.39 710.61L543 711.55L545.6 713.61L549.27 714.59L551.11 714.43L553.17 715.33L555.18 714.19L558.22 715.32L561.79 715.74L562.72 720.42L566.68 725.19L568.02 728.4L567.18 729.77L563.73 731.19L562.66 734.66L561.18 736.56L556.3 739.37L550.68 746.92L548.59 753.02L547.26 755.12L543.37 758.52L541.1 762.7L539.8 768.6L539.74 772.42L541.51 790.18L541.04 794L533.71 790.4L534.43 789.12L534.4 788.6L533.93 788.72L534.06 785.6L530.15 777.44L527.44 773.5L526.56 770.74L528.14 765.46L528.27 763.03L531.19 759.61L532.73 756.55L532.21 755.8L531.52 756.03L527.08 754.08L527.78 750.6L529.08 749.2L526.77 746.2L525.99 742.87L524.09 740.51L522.47 739.71L521.68 737.4L519.07 736.84L516.89 734.65L516.65 733.79L518.31 732.47L519.44 729.8L519.32 728.81L518.01 727.83L518.32 726.16L515.14 723.69L511.21 723.3L511.64 721.99L511 719.93L510.41 719.59L511.44 717.1L510.06 716.1L509.17 713.45L509.62 711.81L511.15 709.75L511.21 707.89L509.81 705.5L504.87 705.43L504.19 704.85L506.44 701.93L507.6 702.63L508.61 702.48L509.09 701.36L507.78 700.65L509.59 698.01H512.79L515.06 699.41L517.51 703.84L519.38 703.4L520.49 702L521.42 698.37L520.5 697.15L520.57 696.36L521.59 696.59L522.84 698.26ZM559.44 697.81L559.09 699.13L558.35 699.34L558.83 700.84L557.73 699.71L555.59 700.99L553.38 699.79L559.44 697.81ZM478.35 690.55L482.68 691.36L485.22 695.15L481.79 699.29L481.14 701.37L479.3 698.79L477.96 695.37L475.56 693.24L476.2 691.78L478.35 690.55ZM563.27 691.27L561.27 693.89L561.1 695.58L559.87 695.19L559.4 696.33L559.15 695.13L560.98 693.25L560.45 692.23L561.08 691.48L562.22 692.02L563.27 691.27ZM530.44 691.02L531 694.02L529.31 693.09L527.69 689.85L528.9 689L529.98 689.74L530.44 691.02ZM456.03 681.43L454.29 682.89L454.15 681.55L457.14 679.09L458.41 679.03L458.24 680.42L456.03 681.43ZM577.8 674.44L575.21 680.47L572.58 678.86L570.93 678.76L569.99 677.28L572.42 676.8L574.04 674.72L575.09 674.27L576.47 673.87L577.9 673.98L577.8 674.44ZM583.73 678.15L585.11 680.09L588.83 681.89L598.77 682L603.31 683.16L605.3 682.69L609.02 683.03L617.28 686.67L620.77 693.18L621.52 696.93L621.54 698.58L619.92 701.46L615.51 702.14L609.72 700.06L608.9 699.19L602.96 697.64L598.39 696.89L594.77 697.11L588.78 699.75L584.14 703.52L578.83 709.92L577.4 712.94L573.69 717.02L570.01 717.75L564.67 717.03L562.33 712.75L563.16 712.62L563.68 713.12L563.34 713.41L564.72 713.62L564.69 712.71L565.69 712.81L565.51 712.42L560.04 712.01L545.44 707.27L544.19 704.53L544.5 702.56L542.73 700.73L542.92 699.48L544.08 698.86L544.68 699.35L544.69 701.82L545.37 703.46L546.37 703.61L546.24 704.4L547.89 704.74L549.46 703.37L554.62 703.39L557.26 706.31L555.49 710.27L556.29 709.85L556.62 710.58L559.46 711.39L561.96 710.42L561.07 708.72L560.17 708.49L561.55 704.73L565.32 702.25L563.05 701.31L562.22 700.36L561.87 698.58L565.19 696.87L565.17 696.13L567.65 695.36L570.17 696.32L570.49 695.59L568.6 693.35L568.21 691.76L572.35 693.2L573.12 693.91L573.08 695.61L573.66 696.58L577.28 694.54L580.25 693.81L581.09 692.82L583.41 692.49L584.41 693.34L583.14 695.19L582.77 697.03L582 697.42L582.95 697.91L583.87 697.14L585.35 696.97L588.25 693.67L593.71 692.25L594.11 691.93L592.85 691.55L588.16 692.29L587.12 691.73L586.59 691.5L584.57 693L583.79 692.13L582.53 688.79L584.15 686.27L584.19 684.77L582.11 681.21L581.09 680.62L581.32 680.06L580.16 679.02L579.25 679.19L579.13 679.85L577.78 679.55L577.21 678.34L577.59 676.74L580.11 675.47L581.3 673.87L582.57 674.9L583.73 678.15ZM582.91 672.77L582.41 672.9L582.23 671.73L580.9 670.44L580.87 668.92L579.82 667.99L580.81 668.16L581.72 669.31L581.33 669.63L582.77 670.46L582.91 672.77ZM561.84 656.92L560.06 657.87L558.18 657.38L559.92 656.78L561.84 656.92ZM507.41 655.42L505.88 658.73L505.26 655.7L506.28 653L506.7 653.25L506.28 654.19L507.41 655.42ZM431.19 647.36L431.53 648.32L429.23 650.34L427.53 654.76L425.15 649.98L428.68 647.05L429.26 647.46L431.46 645.93L431.19 647.36ZM500.73 645.17L500.7 649.39L502.78 650.63L503.52 651.95L504.02 651.83L505 652.61L505.21 653.65L504.58 653.75L501.06 650.12L498.17 649.19L496.25 646.08L497 645.64L498.57 646.54L499.84 645.18L500.73 645.17ZM472.67 642.09L471.89 642.07L472.62 640.89L474.23 640.5L474.46 640.92L472.67 642.09ZM506.45 644.19L505.68 647.04L504.27 646.39L502.15 647L501.75 646.16L502.61 643.01L503.76 641.62L503.87 639.74L504.54 639.57L505.74 640.74L508.04 641.34L506.45 644.19ZM433 630.46L431.94 631.31L431.34 630.76L431 631.53L431.52 631.4L431.2 632.64L433.48 634.84L434.04 638.06L435.31 640.73L434.93 641.64L433.99 641.21L433.92 641.77L435.74 642.94L437.1 640.75L436.6 643.7L435.99 644.23L430.86 640.64L430.32 632.84L430.97 630.17L430.13 628.57L430.67 627.98L432.19 628.88L433 630.46ZM405.16 606.33L403.4 607.6L405.65 607.33L399.06 609.92L402.89 606.43L405.17 605.9L405.16 606.33ZM594.4 543.67L595.32 544.48L594.07 545.24L593.74 544.52L594.01 544.05L594.4 543.67ZM448.5 501.51L449.06 502.51L447.18 501.27L445.44 497.47L446.09 494.95L447.53 496.4L446.84 497.7L448.8 499.92L448.5 501.51ZM523.73 498.29L523.55 500.29L522.04 503.41L522.41 504.63L519.43 506.25L517.72 504.38L516.36 504.27L513.93 498.32L514.57 497.58L516.05 497.56L517.17 495.89L518.37 497.73L519.64 498.29L521.14 494.39L520.32 492.63L521.12 491.77L523.17 494.83L523.73 498.29ZM429.68 472.59L433.13 476.56L436.21 478.27L436.68 480.56L435.13 478.91L428.29 476.66L426.61 475.3L422.74 470.24L418.41 468.27L417.61 464.63L422.72 466.48L423.7 468.58L426.95 470.19L429.68 472.59ZM455.05 450.08L459.63 452.85L464.69 454.18L473.46 454.52L478.96 456.77L488.55 454.2L490.9 458.13L494.14 459.79L496.65 459.75L503.53 457.59L506.23 456.12L509.7 452.97L514.18 450.47L516.12 455.34L516.33 457.36L515.79 457.59L515.77 456.46L514.57 456.23L511.12 459.46L510.28 463.48L510.95 466.4L510.72 468.2L508.23 469.71L505.06 468.52L504.54 466.28L503.11 465.84L501.92 466.57L500.67 465.74L499.91 466.41L498.8 470.63L499.16 474.06L502.37 475.77L504.76 479.01L505.45 481.45L507.84 485.11L508.16 488.95L505.58 492.56L505.01 491.48L498.47 489.59L496.45 491.97L497.43 493.15L496.22 493.66L496.17 495.45L491.26 497.85L491.09 499.01L494.02 501.03L496.78 500.73L499.22 500.07L501.08 498.05L502.71 497.68L503.95 496.42L506.55 496.2L508 494.95L509.65 496.74L510.37 500.46L511.96 502.57L510.88 503.22L510.4 501.29L509.27 503.03L510.18 504.65L513.22 506.1L513.25 507.73L512.34 507.55L510.34 509.08L508.11 508.96L506.54 509.81L498.35 510.26L496.92 511.04L497.64 512.49L496.97 512.64V513.45L498.51 513.81L498.61 514.72L504.4 513.87L505.39 513.22L506.55 513.72L507.36 513.6L508.71 513.7L510.43 512.95L513.2 513.56L513.94 512.19L512.47 511.44L512.42 510.81L512.83 510.47L513.54 511.07L515.15 512.85L516.46 515.6L516.34 518.8L517.1 519.38L517.9 519.13L518.41 521.77L517.78 522.81L515.97 523.12V525.69L514.15 526.35L513.15 528.22L513.4 528.82L514.99 528.83L516.03 528.46L517.28 527.71L517.89 528.36L518.91 527.21L519.24 525.09L521.78 523.16L522.51 522.68L523.02 517.03L525.34 510.98L526.42 510.86L527.89 509.4L531.94 510.99L535.67 507.57L542.48 511.29L542.39 514.65L541.6 515.47L540.1 519.75L539.43 519.89L537.24 523.74L536.51 526.97L535.78 527.15L535.41 528.04L535.02 530.11L535.76 531.56L537.01 528.24L538.55 527.54L538.12 526.98L538.42 524.61L544.71 523.97L543.83 522.73L543.79 521.07L542.38 520.26L543.92 519.13L543.87 516.98L544.38 517.98L546.2 517.35L544.66 519.81L545.06 520.4L545.91 520.77L547.01 519.51L547.79 520.27L549.42 519.83L551.17 521L550.78 522.3L551.75 522.35L552.39 523.17L552.07 523.99L550.22 522.88L548.4 523.34L547.07 521.83L544.87 521.2L544.59 522.2L545.83 522.23L546.75 525.1L546.07 526.51L547.38 525.71L548.18 525.75L548.58 526.56L549.37 526.4L550.01 525.65L550.95 526.47L551.39 525.39L553.19 525.16L553.01 526.35L553.65 526.85L552.87 527.68L552.85 529.15L554.81 529.61L556.18 530.96L556.98 529.95L557.66 526.02L556.43 526.14L555.25 524.97L554.83 523.6L556.01 521.5L556.89 521.21L557.81 522.53L558.26 520.46L556.45 520.84L556.62 520.09L557.03 519.54L558.76 519.73L560.24 517.99L560.83 516.46L559.17 516.12V514.02L560.49 513.5L559.99 512.89L561.44 512.29L561.6 511.68L561.24 511.21L559.71 511.33L560.14 510.68L558.27 508.07L559.1 506.43L559.02 505.02L556.9 502.6L557.46 498.91L560.14 500.42L562.88 503.59L565.81 504.91L568.21 507.25L573.98 506.34L576.54 508.92L575.91 509.12L574.77 512.2L579.8 516.71L574.44 521.9L570.77 521.65L565.92 525.87L566.99 531.19L566.85 534.95L568.19 534.88L567.2 540.11L574.09 542.13L574.88 538.92L577.63 538.09L578.74 539.84L583.32 537.83L584.67 539.06L591.76 541.32L594.26 543.66L593.44 544.85L593.79 545.5L586.06 549.51L584.72 550.85L581.64 553.32L578.34 557.35L575.02 566.14L571.89 575.38L572.69 578.08L572.42 578.86L572.14 579.58L572.84 582L575.02 585.31L576.58 586.38L587.04 591.84L595.64 592.72L602.75 599.51L606.66 604.69L606.99 607.84L608 608.81L606.7 612.76L607.05 616.29L608.08 617.86L607.72 620.01L606.68 621.93L605.06 622.69L602.4 625.93L600.33 626.8L599.87 627.54L598.44 627.1L597.49 627.76L596.31 627.42L594.13 631.8L592.34 631.23L586.34 631.25L582.94 630.35L577.48 631.96L573.45 634.55L571.8 634.66L568.16 637.58L567.94 637L567.31 637.1L563.99 642.43L560.94 644.69L560.09 646.51L559.85 650.13L560.66 654.85L558.74 656.39L557 656.58L555.87 655.43L556.83 651.72L556.73 649.52L558.4 646.65L557.74 646.04L553.6 646.51L549.25 648.63L546.63 652.94L546.66 653.58L547.66 654.22L549.49 654.2L550.05 654.82L550.69 656.49L549.84 658.04L550.03 659.22L551.7 658.45L552.27 658.76L551.81 659.31L552.84 659.79L554.5 657.43L557.02 657.49L557.62 658.03L557.04 659.26L559.17 659.11L559.53 658.24L560.88 658.89L562.59 658.29L562.18 657.21L563.17 657.1L568 658.85L570.22 661.23L570.11 663.44L569.35 663.61L568.73 664.96L568.72 667.73L566.51 670.47L563.86 668.89L562.19 669.82L561.82 668.5L560.78 668.03L560.35 667.47L558.95 666.88L559.44 668.46L561.22 668.64L561.7 670.07L561.15 670.62L562.59 670.97L561.04 672.33L561.98 672.38L562.22 674.35L563.21 675.37L562.78 677.32L565.05 677.77L564.38 679.59L568.8 687.89L568.52 690.31L567.95 689.79L565.52 689.83L564.62 690.5L561.93 690.05L560.19 691.14L559.48 692.63L558.2 693.21L555.81 695.9L552.33 697.85L548.64 697.81L542.09 694.46L539.8 692.2L538.75 689.65L533.01 687.65L532.39 688.1L533.73 688.69L533.87 690L530.92 690.18L529.08 688.32L526.27 687.04L524.77 685.12L521.48 683.06L518.76 679.77L513.91 677.37L507.75 675.62L503.51 673.59L500.83 671.55L493.34 669.54L492.54 668.8L494.42 668.9L506.76 673.01L510.12 673.34L520.96 678.87L522.02 677.61L521.51 675.89L519.11 673.11L518.73 671.53L514.8 669.3L513.94 667.99L512.94 668.69L513.43 669.86L514.54 670.57L512.04 670.37L510.31 667.72L511.45 667.75L512.31 666.18L511.41 666.83L509.61 666.39L506.39 661.59L506.34 658.86L507.01 657.83L507.97 658.64L507.52 659.94L510.45 659.66L511.91 660.28L512.63 659.64L513.09 657.77L514.48 656.93L518.5 657.84L519.73 657.3L519.92 656.34L518.85 652.74L517.66 652.7L516.8 651.81L515.97 651.86L515.38 653.29L514.55 653.5L513.43 652.74L513.71 651.19L510.84 651.8L509.31 651.23L508.25 652.18L505.94 651.22L505.48 650.56L505.7 648.08L509.59 645.39L508.96 644.35L507.43 645.12L506.93 645.05L506.99 644.46L509.88 641.15L508.6 641.33L508.01 640.27L505.43 638.46L501.69 639L497.36 643.5L497.52 645.1L495.23 646.31L493.96 645L492.43 644.88L489.36 643.01L487.08 643.49L485.81 642.88L483.03 642.98L479.8 641.42L476.41 640.66L474.97 641.19L474.35 639.41L472.82 638.93L471.41 639.5L471.54 638.23L469.97 636.61L468.75 637.29L467.44 636.14L466.29 635.99L465.4 638.1L464.16 639.08L464.54 639.89L465.56 639.7L465.91 639.02L468.25 639.45L469.04 640.06L468.67 640.87L469.75 641.51L469.9 643.45L466.86 644.05L462.71 642.9L460.33 643.18L461.45 641.54L462.23 642.5L462.77 642.01L464.47 643.22L465.18 643.02L464.4 642.53L463.92 639.09L461.74 638.47L459.16 640.9L457.78 641.14L456.79 640.52L455.52 638.29L454.05 639.21V640.24L453.39 640.61L452.5 638.35L450.57 638.4L449.92 640.58L450.57 641.71L449.66 641.91L447.66 642.41L445.73 640.55L442.44 640.33L441.22 639.38L440.58 638.72L441.41 638.44L439.64 636.15L439.77 635.64L441.58 635.15L439.14 630.02L439.93 629.44L441.05 629.97L440.99 630.82L444.26 631.41L444.92 632.32L445.71 631.93L446.74 628.19L447.25 627.27L448.05 627.14L449.21 624.31L448.54 621.47L447.13 621.82L446.55 622.79L446.08 626.85L447.12 627.64L444.66 629.29L443.76 631.26L442.52 629.27L441.69 628.92L440.94 629.45L439.88 628.6L440.7 625.4L439.61 622.88L439.31 619.73L434.51 616.47L430.97 614.98L427.65 611.41L424.83 610.06L424.66 608.49L425.55 607.94L426.17 608.9L427.98 609.12L428.16 609.66L430.39 609.49L431.66 610.3L432.82 609.98L433.17 608.74L435.23 607.59L435.51 606.11L435.09 605.5L434 605.26L431.79 603.29L429.66 603.22L428.48 604.25L429.14 605.3L428.66 606.44L429.41 607.17L426.32 608.78L425.82 607.48L423.95 607.33L421.94 604.69L419.63 605.04L419.85 603.79L422.56 599.38L423.43 600.69L427.69 600.01L431.35 597.09L434.78 596.35L436.42 593.98L436.6 592.71L436.37 591.39L433.82 587.7L435.11 581.45L434.62 579.04L431.41 573.65L431.47 570.41L430.87 568.54L426.38 564.04L425.73 562.14L424.41 561.42L423.87 559.83L422.79 560.87L423.14 562.35L424 562.07L422.45 564.79L419.91 565.16L417.97 564.13L419.24 559.38L420.06 558.98L421.27 559.58L422.76 558.77L426.26 558.89L426.1 559.47L426.85 559.96L427.98 559.35L428.4 558.41L426.59 559.23L426.48 558.69L427.97 556.32L428.65 553.88L427.65 546.95L424.8 540.33L422.15 537.56L412.27 531.28L408.08 529.97L399.05 528.96L397.63 527.85L397.49 526.19L398.65 525.34L401.17 525.88L401.95 526.68L405.08 527L406.68 526.46L414.77 528.31L416.51 528.36L418.54 527.36L418.93 528.38L419.47 527.59L420.96 527.3L421.21 526.5L420.58 526.77L419.27 526.12L419.45 525.58L420.44 525.81L420.37 525.32L421.13 525.31L420.98 524.72L420.21 525.08L416.77 523.73L417.91 526.18L417.44 526.26L415.34 523.17L410.23 519.39L406.13 513.04L404.7 512.28L402.51 511.69L396.99 512.35L394.32 511.86L391.01 510.33L388.73 508.39L392.61 508.24L399.31 506.32L405.03 507.54L407.91 508.68L409.1 509.85L413.29 511.15L418.12 510.32L421.87 508.38L424.57 506.15L427.13 505.86L429.04 506.42L431.52 505.59L431.87 507.11L431.33 507.37L434.12 511.14L436.31 510.99L437.21 509.23L436.64 508L437.69 507.26L438.44 508.52L442.42 511.68L444.25 511.23L446.45 509.24L447.22 505.86L447.93 505.68L448.92 508.48L449.74 505.73L452.39 505.89L455.24 504.86L458.18 502.22L459.1 499.84L459.85 497.13L458.94 494.93L459.08 488.84L458.52 486.23L457.33 484.19L455.97 484.45L456.35 483.71L457.12 483.23L458.72 484.53L459.05 485.62L461.37 486.91L463.19 486.33L468.83 482.77L472.07 482.47L473.77 483.19L474.98 482.91L478.27 478.43L479.54 473.83L479.29 470.89L479.72 465.77L478.4 461.98L470.75 457.73L459.02 456.73L453.38 452.77L449.76 451.29L448.14 451.31L446.9 449.2L445.29 442.59L448.86 447.88L455.05 450.08Z" fill="#C7C7C7" stroke="white" stroke-width="2"/>
<path d="M354.86 711.9L354.42 713.74L352.87 715.1L352.17 714.85L351.05 712.61L351.34 712.21L350.42 711.29L350.12 709.05L353.75 708.14L354.53 708.78L354.08 710.19L354.86 711.9ZM336.04 708.2L336.35 709.16L334.01 708.52L334.9 706.67L336.04 708.2ZM337.88 704.13L339.1 705.98L337.3 706.16L336.87 704.36L337.59 703.31L337.88 704.13ZM360.45 698L362.42 698.53L363.2 698.08L365.01 698.83L365.53 700.82L363.95 700.83L363.35 699.61L362.46 699.68L362.17 698.8L360.37 698.6L360.45 698ZM337.12 696.59L336.09 698.4L335.43 698.52L334.21 696.47L336.07 696.76L336.94 696.13L337.12 696.59ZM296.78 695.34L299.07 695.96L299.42 698.13L303.42 702.21L307.43 703.02L313.22 708.99L314.89 712.53L318.72 713.8L319.66 716.25L321.42 715.78L324.64 711.78L323.96 710.63L322.37 709.94L322.24 709.14L323 709.18L325.55 712L325.37 713.05L324.68 712.85L324.39 713.35L325.62 714.86L326.43 718.09L328.69 720.63L330.34 721.65L331.71 720.49L332.19 718.51L335.03 721.22L335.62 720.81L334.44 719.84L334.45 719.03L332.14 715.98L330.51 715.13L330.58 714.46L333.49 714.16L331.7 714.71L331.67 715.4L333.6 715.7L340.46 722.72L340.75 725L340.31 725.87L342.06 725.4L341.21 724.67L341.12 723.54L342.66 725.35L340.87 726.06L331.65 727.18L329.69 728.36L328.82 729.32L328.49 731.22L326.59 732.67L323.48 729.78L319.94 727.68L315.87 723.07L312.68 718.24L308.19 715.33L302.45 708.03L301.44 702.59L297.63 698.65L296.88 697.36L296.78 695.34ZM326.77 692.31L329.24 695.71L327.27 697.58L326.5 697.56L321.98 693.97L320.98 694.19L319.82 695.55L318.83 695.33L318.23 694.09L319.39 693.48L320.06 693.83L321.11 692.82L321.69 692.92L321.75 693.72L324.71 693.68L325.51 694.62L326.71 694.65L327.27 694.04L326.77 692.31ZM332.75 685.66L334.89 686.54L336.31 688L334.18 687.54L333.08 688.82L331.4 688.62L331.08 687.01L332.54 684.95L332.75 685.66ZM306.22 682.96L307.62 683.93L309.74 683.8L312.2 685.61L314.98 684.49L315.36 687.06L313.98 687.4L311.21 686.06L309.21 684.14L303.89 684.17L300.93 680.99L301.39 679.49L303.21 678.95L305.36 681.12L306.22 682.96ZM355.63 675.18L356.43 675.68L356.05 676.75L357.28 677.57L356.66 679.66L357.54 680.34L359.19 680.37L359.54 682.58L359.12 683.43L358.08 683.68L356.66 688.94L356.02 689.85L355.39 689.91L355.29 689.31L354.54 690.96L356.04 693.06L359.01 693.74L360.67 692.08L361.16 689.81L362.9 689.01L364.06 689.29L363.36 692.08L363.61 694.78L363.29 695.38L362.98 694.83L361 694.76L358.59 695.32L357.35 697.19L355.9 697.74L354.12 700.99L349.1 699.21L348.05 699.38L349.78 701.18L347.36 700.86L345.02 702.2L345.13 701.29L346.4 700.21L346.12 699.72L344.37 700.03L344.49 697.62L341.63 695.23L341.01 693.98L340.85 690.24L341.52 689.3L339.82 688.46L339.6 686.52L342.01 686.54L343.66 684.21L347.63 682.18L349.51 679.74L350.96 679.49L352.09 677.58L354.86 675.8L354.21 675.25L355.63 675.18ZM365.29 675.04L366.28 675.67L367.57 681.36L366.51 681.32L365.47 680.42L362.69 681.41L360.75 681.23L361.13 679.48L364.09 679.37L365.25 678.54L360.96 678.35L358.62 679.42L358.28 679.12L357.86 676.74L358.69 676.02L361.07 676.46L365.29 675.04ZM290.43 676.57L292.47 677.07L293.22 678.37L291.86 679.84L288.64 680.83L287.29 680.21L285.74 677.65L285.59 675.41L287.74 673.87L287.63 675.79L290.43 676.57ZM305.16 675.07L305.28 675.55L303.61 674.99L301.55 673.29L300.73 672.03L300.99 671.29L304.15 673.48L305.16 675.07ZM246.26 676.6L247.95 677.32L249.12 679.6L251.38 682.01L254.15 683.66L258.11 683.97L261.29 685.37L263.53 687.06L265.65 690L266.22 690.48L267.84 692.26L271.92 700.57L274.43 704.98L274.51 707.99L275.15 710.36L276.42 713.24L277.48 714.11L278.2 718.1L277.26 718.97L273.31 718.57L271.29 719.2L266.76 723.99L260.35 723.69L255.72 721.14L253.22 720.98L250.02 718.08L250.2 717.39L254.46 713.37L256.86 716.41L258.34 716.65L261.69 718.77L262.01 720.17L264.34 720.34L266.91 723.12L267.99 722.11L266.7 718.96L265.48 717.58L261.97 715.28L261.27 714.24L257.01 712.55L255.78 711.14L253.36 710.63L252.58 710.96L251.7 712.78L250.54 712.52L245.07 715.15L240.11 713.14L238.33 711.06L238.62 709.98L238.12 708.84L236.43 708.09L236.46 706.15L235.57 704.36L235.84 702.1L235.02 695.45L233.89 693.89L235.09 692.71L236.98 695.6L239.72 696.43L243.46 702.55L244.77 703.49L243.93 704.42L245.48 704.48L246.17 704.15L250.85 702.35L250.78 701.88L248.08 702.49L245.57 700.94L248.47 699.85L248.25 699.37L246.23 699.72L245.17 698.9L246.58 696.71L247.89 697.01L248.37 696.54L247.91 695.89L246.97 696.09L243.8 693.48L238.55 692.68L238.02 691.43L238.5 690.57L241.09 689.4L237.91 690.17L237.31 689.56L237.42 688.63L239.56 687.75L239.83 686.15L235.95 685.86L226.88 686.93L223.73 684.95L222.48 683.49L221.55 683.42L221.43 681.65L224.91 680.74L226.44 679.34L227.59 679.71L227.49 680.92L229.41 681.02L227.88 679.54L228.2 679.24L226.58 679.08L227.8 678.48L227.72 677.78L226.38 677.89L226.42 678.4L224.98 679.33L225.44 680.05L224.08 680.09L221.56 679.16L219.1 679.15L218.36 677.83L218.42 676.22L220.23 675.36L222.32 672.69L226.77 669.88L232.95 668.36L236.27 669.11L242.99 673.01L246.26 676.6ZM209.04 661.22L208.4 661.81L206.45 661.84L206.34 659.95L205.49 659.66L205.38 658.54L205.99 657.08L207.7 657.34L209.06 659.32L209.04 661.22ZM400.55 653.26L397.79 668.65L392.34 686.71L392.13 689.81L387.01 696.36L383.22 704.85L382.72 708.52L381.45 710.47L381.05 716.01L375.73 729.55L375.49 732.03L372.74 739.61L370.13 750.05L367.48 753.92L364.38 755.24L363.27 754.81L360.7 750.92L361.08 750.44L360.57 748.79L361.69 748.03L361.83 746.58L359.64 741.42L359.42 737.18L356.25 732.26L351.7 729.27L350.74 727.25L351.26 727.18L351.45 727.91L354.41 728.1L356.06 729.37L356.49 728.65L357.14 728.76L357.1 729.52L357.9 729.28L359.64 725.47L361.01 725.09L360.11 724.21L361.23 716.94L362.75 716.74L363.24 718.63L365.46 719.68L365.98 718.16L369.02 717.92L367.52 716.31L367.34 715.3L366.76 714.16L366.15 713.28L366.1 710.84L364.85 713.28L363.27 712.37L362.41 713.06L361.73 710.12L362.75 709.3L363.19 706.93L365.07 705.13L365.71 703.36L367.31 702.36L367.9 701.67L368.49 699.56L372.95 694.38L374.45 693.63L374.81 692.7L377.33 692.98L380.23 689.84L380.81 687.81L382.3 685.94L382.76 683.61L385.44 680.27L385.75 677.71L387.52 674.1L389.57 663.95L392.66 658.29L393.04 655.16L395.72 652.66L397.1 649.91L398.33 648.85L400.07 650.25L400.55 653.26ZM234.68 622.78L235.35 626.79L235.69 626.72L236.5 625.68L235.42 625.19L235.54 624.41L236.26 624.58L237.73 623.45L237.33 625.15L234.96 628.27L232.18 628.36L230.26 626.03L231.29 625.3L230.45 623.39L233.21 622.35L234.68 622.78ZM243.43 609.51L244.82 613.52L244.48 615.84L240.47 617.18L239.96 616.46L240.02 613.56L239.28 612.17L240.08 609.78L242.13 611.47L242.31 610.55L241.46 610.41L243.43 609.51ZM228.73 602.69L226.85 603.67L225.04 602.24L226.48 600.63L228.12 600.38L229.77 602.16L228.73 602.69ZM39.3 577.5L40.08 578.75L40.69 576.72L42.98 574.89L46.2 575.11L48.23 576.03L47.69 583.24L48.42 584.64L49.78 585.7L51.47 582.99L52.46 582.57L54.48 583.95L54.34 585.18L56.11 590.33L53.51 593.11L53.7 594.34L56.25 597.33L57.05 602.61L58.4 602.42L56.84 605.68L57.27 606.56L54.03 606.07L50.53 603.35L43.53 587.94L40.29 583.83L37.46 581.84L37.02 577.67L41.22 574.71L39.3 577.5ZM333.99 575.63L331.49 576.46L331.28 575.51L331.39 573.86L332.49 572.61L333.92 572.21L332.8 574L333.99 575.63ZM227.03 573.58L225.25 573.21L224.96 571.76L223.44 569.55L223.97 567.31L225.74 567.95L227.39 570.72L228.91 570.99L229.08 572.61L227.03 573.58ZM353 548.81L352.52 548.86L352.25 547.37L352.65 546.35L353 548.81ZM353.23 543.5L353.53 545.76L354.55 545.88L353.8 546.24L354 547.45L352.73 545.26L353.23 543.5ZM350.63 540.32L351.43 540.74L353.46 540.46L353.78 538.48L352.43 538.73L352.09 539.78L351.94 539.13L351.23 539.37L351.67 538.75L353.81 538.26L354.7 539.45L361.31 550.66L362.76 554.31L365.93 557.99L365.6 560.72L367.08 564.86L368.15 566.57L370.64 568.65L372.02 571.9L371.79 573.08L370.36 573.76L368.66 573.93L366.99 573.35L361.54 576.2L360.44 578.13L360.47 579.43L358.7 580.37L357.76 579.33L356.07 579.01L355.89 580.03L356.36 580.3L355.12 580.56L353.43 579.79L352.41 578.04L348.83 576.64L348.74 577.52L345.05 578.61L345.62 579.79L345.17 580.8L343.58 580.66L343.71 581.71L347.51 586.27L348.15 586.36L349.08 584.94L347.96 579.48L349.74 577.83L352.23 579.05L352.25 580.11L354.85 581L356.83 582.49L358.1 581.36L359.18 581.48L359.52 580.36L360.69 579.59L360.81 580.38L363.59 582.79L365.48 585.86L367.1 587.59L368.76 588.07L371.09 592.17L373.98 594.7L375.63 598.58L377.88 601.71L381.73 613.53L384.64 616.05L386.37 616.03L386.31 616.5L385.07 616.74L386.23 618.07L386.01 618.76L382.58 619.71L382.17 619.44L382.59 618.87L383.15 619.16L383.39 618.75L382.48 617.94L382.75 617.07L381.67 616.36L381.16 617.21L380.97 616.41L380.12 616.27L379.8 615.4L378.7 614.75L378.22 615.12L377.17 614.59L377.55 616.51L376.93 615.96L376.05 616.85L373.32 616.45L371.83 617.23L376.4 617.18L377.49 618.19L377.98 619.26L377.39 622.64L381.21 632.78L380.37 635.52L380.81 638.78L380.04 644.99L377.91 649.1L377.81 651.14L376.88 653.23L377.08 655.13L376.19 656.74L376.16 659.49L375.09 662.07L375.71 664.17L374.28 664.35L373.1 665.4L372.33 669.78L371.29 672.04L368.51 673.08L365.99 674.92L366.17 673.9L363.81 673.28L363.08 674.62L360.82 674.49L360.27 675.05L359.39 674.61L357.27 675.34L356.45 674.2L354.69 674.27L353.49 673.58L353.32 675.64L352.25 675.94L351.15 677.19L341.73 680.85L339.88 682.21L336.08 681.09L334.9 679.15L333.57 678.41L331.85 678.94L326.86 678.57L325.89 679.09L321.86 676.8L322.21 675.58L320.19 672.89L319.34 673.18L319.64 674.34L317.49 676.4L316.31 676.21L316.23 675.66L314.37 676.01L312.73 675.58L312.55 673.51L309.63 672.57L309.34 671.41L307.81 670.3L307.7 669.29L306.35 668.24L304.38 667.92L302.42 666.25L301.47 666.21L300.6 665.42L300.98 664.98L300.05 664.25L297.31 665.94L299.32 667.3L300.17 669.94L299.48 671.07L298.13 671.56L297.92 672.74L296.42 672.6L296.44 673.36L298.43 673.16L296.99 674.3L295.91 673.51L295.66 671.79L294.08 669.6L290.65 669.4L286.52 666.88L278.79 670.34L278.1 667.81L279.68 664.82L279.94 662.97L280.71 662.43L281.45 663.1L282.82 662.96L284.58 660.62L286.24 659.98L287.18 660.22L287.69 659.31L288.62 659.6L288.61 658.82L290.24 659.24L292.63 657.68L290.99 656.72L288.34 651.59L287.65 651.97L287.08 651.45L286.87 648.49L285.02 646.1L284.04 642.89L283.24 642.77L282.31 644.47L281.48 644.09L280.27 646.11L275.08 645.84L271.09 644.8L270.92 641.43L267.63 639.88L266.99 640.59L268.11 642.24L268.83 642.71L267.86 644.29L266.96 643.7L266.52 646.26L267.82 645.28L267.34 646.81L268.13 648.63L270.15 650L274.57 656.43L273.23 658.73L271.89 659.59L269.11 658.92L265.51 656.63L265.32 656.03L266.77 654.6L267.24 653.08L265.96 648.28L266.82 639.92L266.43 638.66L265.39 637.02L263.75 635.85L258.52 635.72L257.6 633.38L255.76 631.5L252.14 629.28L251.71 629.87L250.02 627.79L250.93 627.34L251.58 628.15L253.12 628.38L252.29 629.06L253.5 629.61L253.68 629.4L254.5 627.81L254.07 626.75L252.58 625.96L252.03 624.32L252.59 624.41L253.23 623.61L253.71 614.74L252.92 611.2L251.55 608.32L251.69 606.54L252.9 607.22L253.93 607.6L254.49 606.49L252.05 605.59L251.08 603.72L251.26 602.31L249.44 603.77L246.39 603.92L239.01 600.7L239.42 597.92L243.48 597.54L245.21 596.87L246.4 595.61L246.48 593.92L244.14 591.19L242.93 590.12L239.26 589.16L240.64 588.03L243.11 588.94L244.25 588.58L244.71 587.43L244.43 586.13L239.69 583.98L237.13 584.19L233.09 583.32L232.62 582.67L233.49 580.68L230.48 577.34L229.36 575.09L230.13 573.89L230.94 575.67L234.68 578.8L235.93 579.19L236.35 580.59L238.7 582.16L242.67 583.9L244.36 583.29L243.59 581.89L241.79 581.09L241.41 579.53L240.32 579.75L238.41 578.49L238.43 577.84L237.68 577.82L238.16 576.71L239.08 577.58L240.4 577.68L239.49 576.09L238.6 576.28L237.72 574.98L235.11 575.58L232.81 574.08L231.1 569.33L227.26 568.92L226.68 567.43L224.46 565.9L224 563.75L224.91 563.01L226.66 563.17L230.2 565.58L233.35 566L234.74 564.78L236.65 560.11L234.85 557.13H238.6L241.77 554.86L245.64 554.21L247.57 555.23L248.08 556.5L247.7 561.46L249.96 564.27L257 565.34L260.2 564.71L268.13 558.25L271.79 556.34L273.53 553.7L278.72 552.55L279.73 551.32L280.36 550.87L283.16 549.47L285.66 548.84L287.62 548.79L289.83 547.14L293.24 545.84L295.35 545.98L295.65 545.54L294.67 544.03L295.8 544.25L296.49 545.29L297.64 543.14L300.81 542.07L308.21 540.91L309.19 541.53L307.66 541.24L307.25 542.01L308.11 544.51L307.26 545.23L307.62 545.67L307.73 546.25L307.33 547.23L309.03 547.7L309.73 546.98L312.05 546.99L312.35 546.06L310.64 544.49L310.71 540.97L309.01 538.17L311.73 537.69L326.09 545.87L330.96 550.81L343.15 559.94L346.3 563.62L345.23 564.23L343.04 562.21L341.14 558.7L337.15 555.88L336.52 556.46L337.36 558.09L336.18 558.36L337.4 559.8L335.42 559.17L334.66 560.21L333.86 559.95L333.75 561.14L335.57 562.59L335.62 564.74L336.56 566.22L337.79 566.58L338.36 567.78L336.82 568.8L335.66 568.23L334.89 569.55L336.05 570.15L336.33 571.34L331.96 570.28L331.45 570.79L331.51 572.81L330.01 572.5L329.3 574.96L329.96 575.71L329.08 576.14L328.65 578.48L328.9 579.25L327.39 582.51L327.66 583.02L328.49 582.37L329.99 582.96L331.84 581.26L334.06 582.62L335.29 581.12L336.53 580.61L337.53 579.04L336.68 577.26L335.96 577.62L336.2 578.31L335.03 577.98L335.24 576.85L335.86 577.54L336.54 577.08L335.39 574.14L340.94 576.01L342.01 575.44L343.25 573.4L345.04 574.61L345.88 574.5L345.9 573.63L348.03 573.19L348.86 571.85L351.31 571.42L353.2 572.85L354.94 570.75L355.28 569.88L354.32 568.55L354.36 566.55L350.39 564.34L347.55 563.6L347.02 562.8L347.13 561.72L348.56 560.29L350.01 559.8L351.07 560.18L352.01 562.37L353.64 563.45L354.64 563.75L355.57 562.85L355.7 561.92L354.14 560.22L354.47 556.5L352.41 553.27L352.28 550.5L351.1 547.08L352.14 544.59L352.45 545.24L352.03 545.43L351.29 546.97L353.07 550.73L355.32 553.53L356.09 552.05L355.86 551.43L356.52 551.14L354.74 549.68L354.8 549.2L356.07 549.32L355.54 545.72L354.48 544.36L353.85 541.19L352.96 541.1L352.57 542L349.97 540L350.33 538.18L351.4 539.96L350.63 540.32ZM291.77 531.61L294.59 532.48L294.85 533.94L293.48 535.62L293.5 539.25L294.3 540.78L293.6 541.8L292.98 540.73L293.27 536.07L291.25 533.68L290.74 531.57L291.77 531.61ZM171.96 460.32L173.24 460.47L173.77 461.64L175.17 461.27L176.03 462.15L176.53 461.47L177.04 460.93L178.41 460.91L177.71 460.53L177.7 460.46L178.37 460.13L180.41 461.92L183.38 463.13L183.83 464.48L183.42 464.72L193.62 478.82L190.85 480.81L192.99 481.74L191.85 485.51L196.84 486L196.78 487.32L199.66 487.39L200.13 491.51L201.94 497.54L204.8 498.05L204.58 500.59L210.14 500.23L211 498.61L212.52 500.67L210.88 502.85L213.27 505.81L216.37 504.27L219.6 505.36L220.17 503.96L224.26 506.44L224.68 509.77L222.95 515.59L213.43 517.39L212.8 516.77L210.17 517.51L208.38 517.09L208.09 516.31L207.18 515.98L206.81 517.1L207.36 517.6L206.95 518.81L211.32 521.03L219.26 520.01L220.66 521.06L222.32 519.86L224.89 522.79L225.23 524.51L227.45 527.13L228.54 526.79L232.07 528.75L233.28 534.99L233.93 536.6L235.06 537.45L240.5 536.74L241.61 536.12L248.96 536.93L247.26 539.04L239.99 544.36L239.3 547.33L236.5 550.7L236.23 553.81L234.53 553.03L232.92 553.38L231.95 553.03L231.46 553.42L230.78 554.86L230.96 557.01L232.67 561.61L232.44 562.93L230.13 563.05L226.08 561.29L223.14 560.73L218.57 565.27L216.67 564.15L215.49 564.93L214.14 564.94L213.72 562.66L213.17 562.9L208.69 560.78L208.03 561.62L209.01 563.23L209.69 563.45L210.56 562.75L211.5 562.91V563.37L209.87 564.77L207.74 563.36L207.12 563.87L210.35 565.11L210.78 568.21L209.35 567.7L204.94 568.37L202.24 568.06L201.22 567.26L196.74 569.95L198.65 570.07L201.15 571.51L203.03 570.55L208.79 569.3L209.8 570.66L211.17 570.98L213.49 568.27L214.46 568.7L216.58 567.81L225.95 577L225.1 578.71L220.43 582.96L217.61 584.43L214.77 584.55L212.82 585.45L212.03 587.29L214.85 592.86L216.02 593.89L216.07 595.11L215.14 598.62L213.26 601.36L212.92 600.08L211.75 598.93L209.32 598.1L208.03 598.65L208.75 598.86L209.59 601.03L210.65 601.45L211.74 601.12L212.05 601.61L212.72 601.22L213.13 602.31L216.37 602.44L219.52 605.98L219.96 609.52L217.47 613.12L218.92 613.04L222.98 619.69L222.23 619.12L220.11 619.47L218.61 618.42L216.95 618.67L214.56 622.42L210.8 623.4L210.65 626.18L209.13 626.33L208.15 627.95L208.02 628.66L208.64 628.87L209.03 627.7L211.57 626.44L211.09 624.79L211.57 623.78L214.61 623.12L216.92 619.88L217.95 619.68L219.4 620.83L221.03 620.18L224.64 623.26L228.58 625.29L229.48 628.04L228.54 629.92L229.05 631.25L226.55 633.84L225.65 635.62L226.34 640.32L225.98 641.61L217.11 646.59L215.95 644.96L216.65 642.97L217.37 644.05L216.94 644.2L217.07 646.24L218.09 646.26L218.34 645.73L217.09 642.92L211.61 641.97L207.72 645.77L205.79 646.52L202.75 649.15L199.01 650.81L198.73 651.8L199.5 652.59L199.91 655.96L201.97 657.45L201.86 657.99L199.03 658.06L195.64 656.95L194.22 658.59L194.42 659.28L194.95 659.1L194.84 660.54L194.02 660.5L194.1 659.67L193.31 661.1L194.54 661.19L196.18 660.06L196.73 660.98L197.98 659.84L198.83 659.97L200.18 661.9L201.97 662.25L203.85 664.53L204.65 666.51L206.27 667.06L206.21 670.49L199.28 677.75L198.63 677.17L194.57 677.02L193.74 678.05L191.2 678.85L189.35 678.35L189.04 677.37L189.2 678.39L188.58 678.58L189.21 678.66L188.6 678.93L189.15 678.9L189.31 679.62L188.51 679.47L188.86 680.19L188.37 680.56L188.86 682.65L190.13 683.43L190.27 682.71L191.08 682.55L192.82 684.73L196.53 684.36L198.15 685.09L200.1 684.65L201.8 682.76L205.83 681.05L209.36 680.37L209.45 678.46L210.62 678.06L213.96 680.11L215.52 684.03L217.23 686.18L220.43 687.21L224.54 689.9L225.99 691.56L228.77 691L232.13 691.67L232.35 694.88L234.08 696.81L233.76 698.51L234.48 705.75L235.73 706.55L236.22 708.88L238.29 710.06L237.67 711.88L234.72 713.4L228.29 711.87L227.12 713.7L227.34 714.97L228.5 715.59L230.37 715.34L232.44 717.2L232.81 720.02L235 721.9L235.39 724.61L234.19 727.04L230.66 728.3L229.89 726.88L227.54 725.51L227.79 724.15L224.19 723L221.09 723.5L218.43 722.12L218.09 720.7L220.06 719.31L220.92 717.29L219.7 717.11L218.89 716.29L218.15 714.27L216.13 713.8L214.35 711.82L212.88 711.32L213.92 710.21L218.26 708.99L219.81 709.11L220.82 710.7L222.66 710.46L223.4 709.57L222.83 708.14L220.55 706.34L218.51 704.98L216.07 704.42L215.16 705.66L214.67 709.01L214.14 709.3L213.48 708.12L212.36 708.41L211.58 709.38L212.74 709.35L213.34 710.47L209.52 712.59L210.2 713.27L210 715.18L208.41 717.72L207.12 718.49L204.61 717.19L204.24 718.38L202.56 718.32L201.99 719.5L200.55 719.64L199 722.18L198.01 722.71L197.1 725.01L195.09 725.74L193.92 727.18L191.91 727.41L189.73 728.87L187.78 728.86L187.79 727.46L186.5 726.39L185.65 726.88L182.93 727.18L182.37 728.66L181.72 731.5L179.27 732.92L177.88 734.98L177.5 736.52L175.53 735.24L170.57 734.45L170.76 736.18L169.58 735.56L169.28 734.28L167.38 733.68L164.56 734.28L162.59 729.11L162.53 728.11L163.84 726.08L163.2 724.61L158.33 722.44L156.88 722.39L151.14 719.52L145.23 718.85L142.51 719.76L136.57 719.33L131.95 715.85L127.75 714.5L122.8 712.02L117.96 712.14L115.04 711.45L110.52 713.41L109.01 713.27L106.89 711L105.63 710.99L104.85 711.68L103.86 711.2L102.15 711.5L102.16 711.99L99.04 713.74L99.1 714.38L96.05 713.37L92.3 714.36L85.82 710.13L84.09 709.91L82.88 710.53L79.52 709.85L82.61 697.44L82.77 691.86L78.99 678.96L81 667.02L81.51 667.09L82.8 664.69L84.8 658.14L86 657.11L85.39 655.89L86.53 653.84L84.68 652.98L81.8 652.8L75.79 653.68L68.56 652.51L67.76 654.36L68.41 658.4L68.99 659.1L67.83 664.19L70.4 668.1L69.63 668.19L68.73 669.77L67.32 670.57L64.25 670.23L65.33 671.03L64.69 671.62L65.88 672.97L64.43 673.66L63.47 673.97L61.57 674.55L60.55 673.69L56.23 666.65L55.8 666.85L55.52 664.81L55.74 664.37L57.19 664.5L57.36 664.02L55.8 664L57.5 654.01L57.93 645.68L58.98 643.88L60.39 644.8L60.77 644.4L60.73 643.8L59.08 643.18L59.94 639.96L61.42 638.51L61.72 638.87L64.34 638.03L63.71 639.97L68 639.89L71 640.6L71.46 641.17L73.45 642.71L73.68 643.5L72.71 645.3L70.81 647.09L70.37 648.97L71.03 649.53L70.18 651.57L78.86 652.93L83.56 652.23L83.48 651.6L84.51 650.63L85.55 650.53L86.04 651.41L86.79 651.43L86.49 650.82L87.2 650.14L86.37 649.39L83.74 634.98L83.25 636.32L82.37 636.05L82.39 634.47L83.26 634.43L82.89 632.66L83.69 631.67L82.62 631.13L82.47 629.87L83.19 628.93L82.67 628.26L83.65 627.27L82.38 626.94L82.15 625.93L83.4 625.49L83.14 624.64L82.07 624.86L81.8 623.97L80.97 623.99L80.63 623.4L81.48 622.75L81.71 621.2L82.21 621.92L82.92 621.73L82.1 617.6L82.83 614.86L80.65 614.13L76.54 616.51L75.54 617.79L72.84 618.83L70.52 623.98L68.81 624.66L66.99 624.5L65.27 622.66L65.32 620.56L67.44 617.76L69.38 617.1L73.47 617.7L80.59 613.41L82.99 614.16L84.34 610.49L84.48 608.28L83.67 607.22L83.82 606.09L82.59 604.33L77.89 585.59L75.36 584.23L72.79 581.86L69.77 580.56L68.12 578.64L66.87 578.25L63.64 579.38L57.07 577.78L56.25 579.47L52.79 577.95L53.93 577.86L53.75 577.22L52.16 576.78L51.96 577.7L51.32 577.16L52.08 575.77L51.12 574.45L49.9 572.6L49.35 571.66L35.54 556.24L32.26 551.27L32.73 549.43L35.3 548.16L35.35 547.24L34.38 545.84L31.8 544.41L28.84 544.16L26.06 547.79L25.63 549.61L24.45 551.25L24.48 554.12L25.22 556.3L26.6 558.27L29.05 559.29L27.71 561.69L28.93 563.65L31.09 564.99L34.04 568.43L34.11 572.12L32.35 573.17L18.22 560.92L2 553.26L2.07 551.76L4.74 545.19L13.75 515.63L15.99 500.73L15.24 490.21L17.84 489.73L17.46 488.5L16.42 487.81L16.48 486.49L17.79 486.19L22.67 487.5L22.55 489.61L25.43 491.18L29.1 494.72L30.17 494.66L30.89 493.66L36.11 493.78L40.12 488.54L44.16 493.64L50.26 494.25L49.02 495.13L52.56 496.95L53.76 499.81L60.03 499.73L62.69 497.08L62.53 491.5L65.86 490.82L67.17 488.54L65.23 483.91L70.44 482.31L73.64 485.46L85.15 482.16L89.55 484.75L91.54 490.63L96.59 492.54L105.98 489.27L101.51 484.75L105.48 482.37L107.76 473.93L109.97 474.31L111.29 470.58L113.23 470.98L113.56 470.5L125.19 473.17L124.12 482.86L131.24 486.52L134.1 484.08L136.34 485.1L138.07 481.59L139.74 483.12L141.68 477.59L143.4 475.06L146.2 477.01L150.68 473.5L157.01 465.32L156.93 461.88L160.28 455.97L165.51 456.27L168.77 460.02L171.96 460.32ZM221.01 636.66L220.46 636.75L220.92 637.77L224.47 637.15L223.96 636.11L223.89 635.62L222.82 633.74L221.06 634.8L221.01 636.66Z" fill="#C7C7C7" stroke="white" stroke-width="2"/>
</svg>
