<svg width="796" height="311" viewBox="0 0 796 311" fill="none" xmlns="http://www.w3.org/2000/svg">
<path d="M589.44 190.27L590.851 189.7L592.471 189.64L593.371 190.02L593.471 190.29L594.281 190.17L597.021 190.88L598.801 192.9L599.271 196.35L599.081 197.13L598.681 197.48L599.271 199.5L601.531 200.92L604.601 200.53L604.861 200.69L606.401 200.8L607.351 199.5L608.421 198.43L609.26 199.26L610.801 201.99L611.871 202.59L612.461 204.13L612.581 205.44L613.301 206.27L614.361 206.63L615.791 206.27L618.411 206.03L618.541 204.38L618.671 204.35L619.671 203.42L620.421 201.36L621.671 200.01L622.82 199.29L624.021 198.88L625.361 198.67L626.75 198.31L627.171 198.05L627.561 195.81L628.621 194.51L629.281 194.55L629.271 194.38L631.051 193.76L630.88 195.58L631.241 196.88H632.431L633.851 195.69L634.171 194.86L634.681 195.1L635.991 195.22L637.421 196.05L637.541 197.24L637.301 198.31L636.231 198.55L635.5 198.58L635.161 199.08L633.731 198.9L631 199.73L629.811 200.57L628.981 201.52L628.621 203.06L628.861 204.61L629.111 204.63L629.811 205.42L629.57 206.98L628.981 208.05L627.561 209.12L626.721 210.43L626.491 211.97V215.18L626.01 217.32L625.061 218.63L623.75 219.46L621.26 219.94L619.711 221.24L618.76 223.26L617.57 225.64L614.601 226.47L612.82 227.78L612.111 227.66L611.871 229.68L610.211 230.63L608.421 232.06L606.76 233.48L607.121 234.79L607.51 235.88L607.481 236.17L606.641 237.11L606.051 239.13L606.88 241.98L606.171 242.93L605.061 243.21L604.921 243.07L604.151 242.93L602.961 241.98L602.361 238.53L601.771 237.11L600.581 235.92L599.981 235.57L599.551 235.93L597.07 237.48L596.19 236.86L595.401 235.14L595.171 234.11L595.181 233.11L595.101 230.81L592.951 230.02L588.491 229.92L587.13 229.64L583.561 229.25L582.311 229.19L582.291 229.03H581.331L580.26 228.43L579.911 226.17L580.38 225.82L581.331 224.27L581.931 223.56L581.971 222.44L581.931 220.83L580.621 220.11H579.351L575.271 218.87L573.76 217L574.07 216.17L574.901 216.83L575.5 215.3L576.721 212.57H577.311L578.181 210.95L578.94 208.44L580.69 204.93L582.701 201.16L585.711 195.89L587.471 194.64L588.971 193.64V190.36L589.44 190.27Z" fill="#C7C7C7" stroke="white" stroke-width="2"/>
<path d="M597.82 128.05L598.53 128.18L599.15 128.1L599.99 127.31L601.29 126.36L602.84 125.88L604.86 125.65L607.12 125.77L607.72 126.75L607.83 126.8L608.85 127.65L611.04 128.08L613.77 127.85L614.72 126.18L617.93 126.42L618.68 126.92L616.82 127.98L616.73 128.99L616.66 130.61L615.86 132.77L614.97 133.78L614.09 134.46L614.9 136.98L615.01 137.08L615.2 138.18L615.67 139.37L616.86 141.04L617.41 141.24V141.46L617.53 142.26L617.56 142.41L617.22 143L616.39 144.9L615.79 146.56V147.75L617.45 147.99L618.05 149.17L617.81 150.72L616.74 150.6V151.67L616.84 152.4L616.7 152.5L616.98 153.1L615.79 154.28L614.72 155.12L613.19 154.98L613.06 155.05L612.7 154.88L610.21 155.71L609.73 158.68L609.61 161.65L609.97 165.22L609.14 167.12V170.21L609.08 172.09L607.34 173.57L605.48 174.92L604.86 174.13L605.45 173.3L605.93 171.63L604.38 171.99L603.18 171.88L603.23 170.58L603.17 170.02L600.23 168.54L598.56 165.81L597.61 163.2L598.32 161.06L599.03 160.24L598.7 158.88L598.67 156.89L598.48 155.47H599.51L600.7 154.76L600.94 153.81L599.87 153.69L598.92 153.45H598.2L597.74 150.07L595.12 149.53L594.88 148.46L596.07 147.75L597.32 147.39L597.27 147.15L597.97 147.04L598.8 146.09L599.04 144.3L598.09 143.95H596.69L596.24 141.49L595.35 141.57L593.81 140.86L593.57 139.91L594.76 139.79L595.76 138.97L595.55 137.97L595.83 137.17L597.02 136.82L597.61 133.49L596.3 133.01L595.5 132.95L595.58 132.72L595.07 132.5L593.1 133.49L591.67 133.37L590.96 132.9L591.91 131.71L593.1 130.99L594.05 130.73V130.52L595.12 129.33L596.66 128.62L597.6 127.94L597.82 128.05Z" fill="#C7C7C7" stroke="white" stroke-width="2"/>
<path d="M658.75 29.93L661.12 32.07L665.76 32.31L667.63 32.65L670.03 31.72L673.96 30.88L675.61 32.12L676.38 32.65L676.45 33.62L674.91 34.69V35.99L676.14 36.47L678.39 38.83L677.44 39.9L675.91 39.68L674.48 41.22L673.77 43.95L671.63 46.69L670.36 48.41L669.9 48.71L669.15 49.59L668.82 50.54L668.39 52.75L666.69 52.69L665.33 52.44L664 51.94L662.17 50.93L661.19 49.56L657.33 47.32L655.06 47.2L654.81 47.06L654.04 45.32L654.16 43.06L653.92 41.28L652.26 38.9L650.12 37.12L648.46 34.75L646.91 32.96L645.49 32.56L644.96 32.03L643.28 31.07L641.8 31.18L639.19 30.71H638.52L636.96 30.05L636.86 29.76L635.5 29.46V27.49L634.23 26.84L634.01 25.19L634.17 24.55L633.96 23.52L633.84 20.31L634.64 20.16L634.61 19.89L635.86 19.12L636.1 17.46L635.74 15.08L635.93 14.23L637.1 14.57L640.09 16.51L640.69 18.53L643.04 20.39L644.73 21.26L646.98 22.09L650.19 22.8L651.38 24.23L651.5 25.18L654.21 26.93L656.49 29.1L658.75 29.93Z" fill="#C7C7C7" stroke="white" stroke-width="2"/>
<path d="M694.16 73.27L698.38 74.97L700.4 74.82L701.82 75.17L704.08 76H705.5L707.05 75.05L708.83 74.34L710.97 74.58L712.87 76.72L713.35 77.19L713.82 78.5L715.25 80.04L716.32 81.47L718.1 83.25L720.12 86.46L721.66 87.53L724.04 88.6L724.75 89.91L725.73 90.76L726.02 90.55L727.33 90.41L727.75 90.73L728.08 90.62L729.15 90.5L730.22 91.21L731.17 92.28L732.31 94.07L736.13 95.24L737.35 95.91H739.01L740.32 94.84L741.84 93.22L750.77 93.01L751.68 92.94L752.63 94.72L753.16 96.09L754.89 97L755.3 97.15L755.36 98.4L757.98 98.76L759.52 99.12V98.05L758.67 97.52L758.62 96.06L758.74 92.1L759.69 91.87L761.11 91.99L763.14 92.58L764.2 93.41L765.02 94.12L765.8 93.89H770.66L774.36 94.61L776.56 96.8L776.76 96.88L777.23 98.16L779.13 98.64L782.57 98.76L784.2 98.69L784.57 99.78L790.08 102.03L790.96 104.23L789.87 105.23L791.06 106.19L791.18 108.09L791.89 108.8V110.58L793.08 111.06L792.84 115.69L794.03 117.35H787.73L786.78 116.05L785.36 116.4V119.61L784.29 121.51L783.34 124.25L781.2 130.9L778.94 138.86L776.64 143.01L776.15 144.26L775.02 144.99L775.15 143.62V141.95H773.25L772.23 142.43L771.82 142.3L768.65 140.38L768.34 138.68L767.15 137.38L765.49 137.14L763.84 137.36L763.74 136.37L762.79 135.42L760.53 134.35L759.86 135.07L759.43 134.81L751.07 132.29L748.44 131.61L742.96 132.32L740.87 133.02L737.74 132.45L737.01 130.9L736.29 130.19L734.39 130.54H733.41L732.34 129.53L730.2 128.46L729.34 127.31V124.97L730.07 123.53L730.3 121.99L729.71 120.92L726.98 120.68L725.61 119.77L722.71 120.39L719.2 121.65L717.19 122.15L714.68 122.4L714.18 125.66L712.17 125.41L709.91 122.9L707.41 123.15L706.4 121.9L703.48 122.22L703.39 121.15L702.62 120.05L701.88 120.02L701.38 118.39L703.64 118.64L705.65 117.63L702.89 115.38L705.15 114.37V113.12L700.63 112.87L699.12 111.86L697.37 111.36V109.35L698.87 108.1L701.38 105.84V103.33H699.12L697.37 105.09L693.1 109.85L691.1 110.36L688.08 112.11L685.07 112.62L684.07 114.12L682.31 114.87L678.55 114.62L679.3 112.62L680.81 110.86L681.31 108.1L680.56 106.09L682.56 104.33L681.81 102.83L681.06 99.82L680.06 98.56L678.3 98.31L677.55 96.56L676.04 95.55L677.55 94.3H678.8V92.04L680.81 91.79L682.06 93.29L684.32 93.55V94.3L686.58 93.8L687.08 92.54H688.84L689.59 90.03H690.84V87.27L692.85 85.52L695.11 84.01L693.86 83.01V79.75L693.1 77.24L692.86 74.96L693.14 74.64L693.95 73.21L694.16 73.27Z" fill="#C7C7C7" stroke="white" stroke-width="2"/>
<path d="M635.93 14.23L635.74 15.08L636.1 17.46L635.86 19.12L634.61 19.89L634.64 20.16L633.84 20.31L633.96 23.52L634.17 24.55L634.01 25.19L634.23 26.84L635.5 27.49V29.46L636.86 29.76L636.96 30.05L638.52 30.71H638.36L638.59 31.66L638.83 32.25V33.32L637.92 33.27L637.93 33.39L637.29 33.32L636.1 34.03L635.98 34.86V37.36L637.76 38.04L638.71 38.79L639.9 40.45V41.99L638.95 43.66L638.48 44.37L637.17 44.96L636.45 45.44H635.52L635.28 45.71L633.84 45.5L633.57 47.67L629.21 52.67L628.27 53.32L626.77 53.47L625.84 52.91L624.87 51.52L622.03 51.83L621.13 52.81L620.29 53.88L618.04 53.64H615.54L614.37 53.39L613.83 53.65L612.42 54L611.26 55.06L608.77 54.95L605.92 55.18L604.56 55.54L603.09 55.02L600.01 54.32L598.43 54.83L598.19 56.85L597.48 57.56L596.65 58.27H595.34L595.46 60.53L596.53 61.36L597.12 61.96L596.17 64.33L594.67 66.53L594.55 69.63L592.99 69.18L591.73 70.44L591.23 71.69H585.96L583.7 70.94L582.43 70.41L582.39 69.56L582.63 67.66L584.11 65.68L583.1 65.46L582.82 65.25L582.88 64.57L582.04 63.86L580.08 63.93L578.38 63.14L577.69 62.45L577.58 62.3L578.72 60.41L578.96 59.58H579.43L579.19 57.8L578 57.32L577.29 56.97V55.78L577.77 54.83L577.65 54.11L576.7 52.45L575.15 52.21H574.32L573.3 55.1L573.13 54.98V55.54L571.59 56.37H569.81L568.49 56.31L567.57 57.17L567.01 58.61L565.57 59.19L564.62 58.72L563.97 57.72L562.87 55.02L562.7 54.3L562.92 54.03L563.19 52.9L561.57 52.15L561.26 50.14L560.86 49.21L561.81 47.64L562.64 45.5L562.76 44.07V42.53L561.12 41.13L560.44 40.18L559.43 39.8L558.24 38.13L558.96 35.76L559.2 34.33L560.62 32.43L562.64 32.31L565.61 32.78L568.46 31L570.96 29.93L572.74 29.34L573.57 27.79L574.76 26.61L576.42 25.66L579.16 24.59L581.28 23.35L583.09 23.53L584.52 23.29L586.19 22.09L588.81 21.14L591.3 19.95L595.34 19.83L597.12 19.36L598.77 19.14L601.02 18.96L602.59 19.24L603.9 18.88L605.44 17.69L607.89 15.91L608.25 13.65L611.34 11.04L614.31 8.9L616.97 6.75L619.15 2.42L620.08 2L624.29 4.27L627.02 8.07L628.02 9.61L629.33 10.68L630.57 11.3L633.91 13.65L635.93 14.23Z" fill="#C7C7C7" stroke="white" stroke-width="2"/>
<path d="M604.53 175.49L606.49 179.56L607.58 180.97L608.56 181.88L611.19 183.81L611.86 184.24L612.39 185.01L614.32 184.85H618.18L619.16 184.53L620.4 183.92L620.42 184.39L621.84 183.6L623.1 181.59H624.1L624.85 182.85L627.11 183.1L628.12 180.84H629.62L630.62 181.59H632.63L632.45 181.84L634.92 184.29L635.22 185.39L635.04 186.78L635.52 188.33L635.16 191.77L634.92 193.2L633.97 193.67L633.64 194.62L634.17 194.86L633.85 195.69L632.43 196.88H631.24L630.88 195.58L631.05 193.76L629.27 194.38L629.28 194.55L628.62 194.51L627.56 195.81L627.17 198.05L626.75 198.31L625.36 198.67L624.02 198.88L622.82 199.29L621.67 200.01L620.42 201.36L619.67 203.42L618.67 204.35L618.54 204.38L618.41 206.03L615.79 206.27L614.36 206.63L613.3 206.27L612.58 205.44L612.46 204.13L611.87 202.59L610.8 201.99L609.26 199.26L608.42 198.43L607.35 199.5L606.4 200.8L604.86 200.69L604.6 200.53L601.53 200.92L599.27 199.5L598.68 197.48L599.08 197.13L599.27 196.35L598.8 192.9L597.02 190.88L594.28 190.17L593.47 190.29L593.37 190.02L592.47 189.64L590.85 189.7L589.44 190.27L588.33 190.44L587.04 191.24L585.85 190.76L585.13 189.69L586.56 188.63L587.75 187.56L589.17 186.01L589.77 183.63L590.36 182.33L591.67 182.09L592.5 182.45L593.33 182.52L595.24 181.1L596.42 181.14L599.27 180.78H602.01L603.08 179L604.03 177.1L604.22 175.58L604.53 175.49Z" fill="#C7C7C7" stroke="white" stroke-width="2"/>
<path d="M556.92 214.73L553.55 215.68L552.68 215.77L551.46 217.43L547.42 217.07L545.52 214.81L543.98 212.08L543.74 209.82L544.93 209.94L546.95 211.96L548.02 214.22L549.71 214.74L550.1 206.88L550.25 206.36L550.44 205.88L552.84 200.91L558.74 198.41L561 197.92L561.89 197.85L564.65 199.6L567.52 200.72L567.51 202.22L566.44 203.76L563.59 204.24L558.01 211.81L557.45 214.01L556.92 214.73ZM583.2 111.2L588.11 111.03L587.63 113.05L587.12 113.94L587.08 114.12L587.39 114.3L587.86 116.2L587.98 117.63L586.79 118.82L585.92 118.92L585.52 120.56L583.05 121.5L578.59 124.19L577.68 124.91L576.02 126.81L575.63 127.73L575.07 130.16L574.8 131.1L574.44 132.06L573.27 133.59L571.97 134.74L570.65 136.01L570.04 136.86L569.56 138.31L569.4 140.06L569.48 141.45L569.94 146.18L570.07 146.54L569.44 147.66V148.97L570.27 149.92L570.75 152.06L571.46 152.65L574.07 153.01L574.43 154.55L575.62 156.21L575.98 158.23L577.05 159.42L579.31 161.68L580.85 161.8L581.34 161.17L581.48 161.23L582.04 160.73L583.82 159.9L585.96 160.02L586.46 160.74L587.11 160.63L588.59 161.21L591.82 163.86L593.63 165.87L594.55 167.3L595.22 168.75L595.85 169.73L597.27 171L597.52 171.15L598.1 169.99H598.69L599.64 171.06L601.18 172.13L601.3 173.1L602.66 173.76L602.94 173.1L603.05 172.92L603.19 171.95L604.39 172.01L605.93 171.65L605.46 173.31L604.87 174.14L605.47 174.95L605.07 175.27L604.57 175.51L604.26 175.59L604.03 177.1L603.08 179L602.01 180.78H599.28L596.43 181.14L595.25 181.1L593.34 182.52L592.51 182.44L591.68 182.08L590.37 182.32L589.78 183.63L589.19 186.01L587.76 187.55L586.57 188.62L585.14 189.69L585.85 190.76L587.04 191.24L588.33 190.44L588.97 190.36V193.64L587.47 194.64L585.71 195.89L582.7 201.16L580.69 204.92L578.93 208.43L578.18 210.94L577.31 212.56H576.72L575.5 215.29L574.9 216.82L574.07 216.15L573.74 216.97L568.23 216.74L568.04 216.83L568.43 215.86L568.74 214.9L569.61 209.84L570.96 204.59L573.39 197.71L573.94 196.93L575.01 196.28L572.16 196.16L572.99 192.48L571.8 191.89L571.09 197.12L568 197L568.59 194.39L569.18 192.13L568.13 191.71L567.38 192.95L566.15 194.02L565.49 197.12L562.4 196.53L560.02 195.34L559.73 193.62L561.45 186.6L562.58 183.39L563.97 182.85L564.97 181.34L561.62 182.58L559.99 185.94L559.29 187.89L557.78 190.74L554.49 194.31L552.39 196.17L550.86 197.37L550.71 201.28L548.87 201.03L547.87 200.7L544.92 197.73L541.73 197L535.5 190.71L534.75 189.78L537.54 186.6L539.8 186.1L540.8 185.35L543.06 182.34L546.57 181.84L549.83 181.09L551.08 180.34L552.08 176.83L553.08 174.57L551.32 172.56L551.07 168.8L550.32 168.55L548.06 168.05L547.56 165.79L545.3 164.03L543.04 163.28L540.78 162.78L539.78 160.02L539.03 158.51L538.78 156.25V151.48H540.54L543.8 150.73L545.81 152.34L545.95 152.35L546.51 151.79L547.46 151.08L548.65 151.79L550.31 152.15L550.55 151.32L552.57 151.2V149.18L551.26 148.11L549.72 146.45L549.48 145.38L551.74 145.62L553.88 144.67L554.71 144.19L554.59 143.36L553.4 142.05L553.28 141.22L553.52 139.79L554.47 137.77L555.9 137.65L556.02 134.2H556.93L556.97 134.01L557.4 132.99L558.75 133.25L560.77 131.11L561.6 130.52L562.21 129.31L563.9 128.6L563.98 128.03L564.1 126.01L565.29 125.42L566 125.9L566.95 125.78L567.43 125.3L568.1 125.12L568.28 124.67L569.69 123.93L570.52 122.86L570.64 121.67L571.59 121.08H572.54L572.78 118.7L574.32 117.87L575.03 116.8L575.09 115.29L575.41 115.12L576.34 112.75H577.17L577.41 113.34L579.14 113.66L580.6 113.32L581.02 112.55L581.74 112.62L583.24 111.67L583.2 111.2Z" fill="#C7C7C7" stroke="white" stroke-width="2"/>
<path d="M617.53 142.26L618.17 141.75L619 140.32L619.83 139.25L620.9 139.13L622.26 139.07L623.1 139.8L623.87 141.15L625.06 142.1H626.37L627.19 141.08L628.04 141.1L629.49 141.04L631.17 140.85L632.63 141.04L634.69 141.88L636.14 141.73L636.98 141.46L638.4 142.45L640.41 143.2L642.1 143.62L642.17 145.08L642.26 147.62L641.39 149.3L640.75 150.3L639.56 150.66L637.66 152.56L636.59 153.99L637.89 155.53L639.08 157.08L639.32 159.33L636.94 163.02L634.8 164.92L635.16 165.63L636.7 166.46L638.01 166.82L637.42 168.48L637.54 170.27L637.66 171.45L635.99 172.17L633.85 172.52L634.33 173.71L635.4 175.26L635.52 177.51L633.97 178.35L634.37 179.69L632.81 181.35L632.63 181.59H630.62L629.62 180.84H628.12L627.11 183.1L624.85 182.85L624.1 181.59H623.1L621.84 183.6L620.42 184.39L620.4 183.92L619.16 184.53L618.18 184.85H614.32L612.39 185.01L611.86 184.24L611.19 183.81L608.56 181.88L607.58 180.97L606.49 179.56L604.53 175.49L605 175.27L607.34 173.57L609.08 172.09L609.14 170.21V167.12L609.97 165.22L609.61 161.65L609.73 158.68L610.21 155.71L612.7 154.88L613.06 155.05L613.19 154.98L614.72 155.12L615.79 154.28L616.98 153.1L616.7 152.5L616.84 152.4L616.74 151.67V150.6L617.81 150.72L618.05 149.17L617.45 147.99L615.79 147.75V146.56L616.39 144.9L617.22 143L617.56 142.41L617.53 142.26Z" fill="#C7C7C7" stroke="white" stroke-width="2"/>
<path d="M668.39 52.75L667.61 54.73L666.28 55.36L666.04 57.26V58.74L665.62 59.83L663.9 60.47L662.12 61.66L661.64 62.83L661.31 62.86L660.34 61.78L659.39 61.42H656.89L655.94 62.02L654.04 62.73L652.73 63.09L652.27 63.92L648.42 64.51L647.33 64.57L647.11 64.54L645.96 63.03V61.72L645.49 59.7L644.3 61.36L643.82 61.96L642.19 62.31L640.93 60.39L640.12 59.33L639.22 58.98L637.59 59.01L635.54 59.29L633.11 59.57L628.72 59.93L626.37 59.86L625.25 59.34L623.72 59.24H620.72L614.68 59.68L614.12 59.22L611.86 58.75L611.03 57.92L610.91 56.97L608.65 56.25L608.23 54.99L608.77 54.95L611.26 55.06L612.42 54L613.83 53.65L614.37 53.39L615.54 53.64H618.04L620.29 53.88L621.13 52.81L622.03 51.83L624.87 51.52L625.84 52.91L626.77 53.47L628.27 53.32L629.21 52.67L633.57 47.67L633.84 45.5L635.28 45.71L635.52 45.44H636.45L637.17 44.96L638.48 44.37L638.95 43.66L639.9 41.99V40.45L638.71 38.79L637.76 38.04L635.98 37.36V34.86L636.1 34.03L637.29 33.32L637.93 33.39L637.92 33.27L638.83 33.32V32.25L638.59 31.66L638.36 30.71H639.19L641.8 31.18L643.28 31.07L644.96 32.03L645.49 32.56L646.91 32.96L648.46 34.75L650.12 37.12L652.26 38.9L653.92 41.28L654.16 43.06L654.04 45.32L654.81 47.06L655.06 47.2L657.33 47.32L661.19 49.56L662.17 50.93L664 51.94L665.33 52.44L666.69 52.69L668.39 52.75Z" fill="#C7C7C7" stroke="white" stroke-width="2"/>
<path d="M605.19 243.33L604.86 243.88L604.27 244.71L602.84 244.95L601.65 246.37L601.18 247.32V249.11L601.77 250.65L602.27 250.9L602.65 252.05L603.59 253.15L603.67 254.87L603.55 257.37L603.2 260.81V264.02L602.72 265.56L602.48 267.35L603.2 268.65L604.5 270.44V273.88L604.62 279.82L603.79 281.37L600.58 284.7L600.07 285.47L599.64 285.43L598.85 285.08L598.56 284.22L596.9 284.1L595.47 284.58L594.05 285.77L593.81 288.38L593.1 290.16L591.79 291.71L590.6 293.73V294.8L588.57 295.1L588.07 292.36L586.16 291.59L585.95 289.71L586.41 288.2L586.05 286.42L584.15 286.77L582.72 285.59L581.06 283.31L580.01 282.73L578.81 282.67L577.02 283.76L573.25 284.96L571.72 284.81L569.06 283.09L567.39 280.6L565.49 280.12L562.96 279.74L561.64 278.87L559.11 276.25L556.38 275.5L554.46 276.17L553.88 277.26L551.97 279.33L550.24 280.91L546.78 283.54L545.61 284.17L544.07 284.8L543.15 284.46L540.55 283.03L540.3 281.9L539.77 280.48L542.12 276.98L543.66 275.37L544.44 274.49L546.49 271.43L544.44 271.29L543.11 271.92L541.43 272.46L540.52 271.81L539.74 270.21L539.6 267.35L538.75 264.52L538.73 264.28L540.47 261.17L542.64 260.82L544.14 260.87L546.23 261.79L547.52 262.43L548.8 261.69L551.11 258.26L554.42 257.23L555.48 256.33L558.24 255.78L559.31 255.49L562.02 254.51L562.57 254.28L563.03 253.62L564.7 252.91L566.36 252.55L568.86 252.43L570.64 252.91L572.18 253.5L572.7 254.28L573.62 254.23L575.42 253.88L575.87 252.55L576.82 251.48L577.41 250.41L578 249.82L579.79 249.34L581.21 249.23L581.81 249.82L581.99 250.57L583.19 251.56L583.83 251.25L585.25 251.01L586.92 251.36L589.17 251.48L589.89 251.6L590.84 250.53L590.72 249.11L590.84 247.21L591.55 245.54L591.95 245.18L592.62 245.07L593.1 244.12L592.38 243.17L591.67 241.62L590.96 240.55L589.89 240.31L589.01 241.12L588.64 240.57L588.43 239.76L587.87 239.48L587.51 238.18L588.11 237.34L589.63 236.41L589.75 234.96L589.5 233.95L589.06 233.78L588.11 233.9L587.51 231.64L586.44 230.21L585.98 229.52L587.13 229.64L588.49 229.92L592.95 230.02L595.1 230.81L595.18 233.11L595.17 234.11L595.4 235.14L596.19 236.86L597.07 237.48L599.55 235.93L599.98 235.57L600.58 235.92L601.77 237.11L602.36 238.53L602.96 241.98L604.15 242.93L604.92 243.07L605.19 243.33Z" fill="#C7C7C7" stroke="white" stroke-width="2"/>
<path d="M583.23 111.69L581.73 112.63L581.02 112.56L580.6 113.33L579.14 113.67L577.41 113.35L577.17 112.75H576.34L575.41 115.12L575.09 115.29L575.03 116.79L574.32 117.86L572.78 118.7L572.54 121.07H571.59L570.64 121.67L570.52 122.85L569.69 123.92L568.28 124.66L568.1 125.11L567.43 125.29L566.95 125.77L566 125.88L565.29 125.41L564.1 126L563.98 128.02L563.9 128.59L562.21 129.31L561.61 130.52L560.78 131.11L558.75 133.25L557.4 132.99L556.97 134.02L556.93 134.2H556.02L555.9 137.65L554.48 137.77L553.53 139.79L553.29 141.21L553.41 142.04L554.6 143.35L554.71 144.18L553.88 144.66L551.74 145.61L549.49 145.37L549.72 146.44L551.27 148.11L552.58 149.17V151.19L550.56 151.31L550.32 152.15L548.66 151.79L547.47 151.08L546.52 151.79L545.95 152.35L545.82 152.34L543.81 150.73L540.55 151.48H538.54H535.78L535.82 151.16L535.94 151.08L535.7 149.89L534.63 149.53H532.97L532.27 150.29L531.69 150.19L525.38 150.13L524.43 150.3L523.42 150.81L522.1 147.99L521.75 146.85L522.18 145.2L523.36 142.24L524.85 141.45L525.8 140.74L527.23 134.92L523.93 130.23L521.65 128.5L520.06 124.91L518.86 121.19L518.96 120.18L523.67 115.43L526.74 114.63L528.65 115.02L533.1 114.96L536.02 113.65L537.57 110.08L538.16 106.75L539.23 104.62L539.95 102.36L541.96 99.15L543.54 97.91L542.55 96.27L540.06 92.38L539.83 89.29L543.87 85.6L544.58 82.63L545.89 81.38L547.67 80.08L548.86 79.36L550.52 78.65L551.95 77.7L556.17 72.18L557.42 70.68L559.51 67.79L560.65 64.44L561.21 62.97L561.69 61.54V59.64L561.93 58.09L561.69 56.31V53.82L562.7 54.3L562.87 55.02L563.97 57.72L564.62 58.72L565.57 59.19L567.01 58.61L567.57 57.17L568.49 56.31L569.81 56.37H571.59L573.13 55.54V54.98L573.3 55.1L574.32 52.21H575.15L576.7 52.45L577.65 54.11L577.77 54.83L577.29 55.78V56.97L578 57.32L579.19 57.8L579.43 59.58H578.96L578.72 60.41L577.58 62.3L577.69 62.45L578.38 63.14L580.08 63.93L582.04 63.86L582.88 64.57L582.82 65.25L583.1 65.46L584.11 65.68L582.63 67.66L582.39 69.56L582.51 72.29L582.98 75.5L584.1 78.29L586.2 78.95L588.22 79.07H590.6L591.43 79.66L592.15 80.97L592.03 83.11L592.26 86.2L592.5 90L590.84 90.83L588.96 94.82L588.12 96.47L587.64 96.98L588.63 96.95L588.11 100.63L587.04 101.35L586.01 101.91L585.52 103.03L585.85 105.39H585.02L584.44 104.93L583.49 105.5L582.88 107.06L583.23 111.69Z" fill="#C7C7C7" stroke="white" stroke-width="2"/>
<path d="M670.08 69.38L670.56 74.61L672.22 73.9L673.89 74.73L676.62 74.49L679.11 74.97H680.78L681.11 74.46L681.37 73.78L682.32 73.19L683.39 73.07L683.63 72.71L683.75 71.88L684.58 71.4L685.77 71.52L686.12 73.19L686.96 73.3L687.07 73.9L685.89 74.61L686.06 76.5L688.7 76.93L689.45 77.58L690.52 77.23L691.95 76.04L692.86 74.94L693.1 77.21L693.86 79.72V82.98L695.11 83.99L692.85 85.49L690.84 87.25V90.01H689.59L688.84 92.52H687.08L686.58 93.77L684.32 94.27V93.52L682.06 93.27L680.81 91.76L678.8 92.01V94.27H677.55L676.04 95.53L677.55 96.53L678.3 98.29L680.06 98.54L681.06 99.79L681.81 102.8L682.56 104.31L680.56 106.07L681.31 108.07L680.81 110.83L679.3 112.59L678.55 114.6L682.31 114.85L684.07 114.1L685.07 112.59L688.08 112.09L691.1 110.33L693.1 109.83L697.37 105.06L699.12 103.31H701.38V105.81L698.87 108.07L697.37 109.33V111.34L699.12 111.84L700.63 112.84L705.15 113.09V114.35L702.89 115.35L705.65 117.61L703.64 118.61L701.38 118.36L701.88 119.99L702.62 120.03L703.39 121.12L703.48 122.2L701.88 122.38H697.62L695.36 123.13L692.85 123.38L691.01 122.81L691.09 123.51L690.83 123.44L687.58 124.13L684.07 124.38L682.06 125.39L677.29 125.89L672.03 127.65L667.76 129.15L667.22 127.77L666.23 127.43H664.69L664.57 128.38L664.05 128.31L664.25 131.91L652.61 131.12L652.64 130.76L652.48 129.7L652.63 129.72L652.49 128.92L651.77 127.25L651.06 125.94L649.51 125.23L646.9 125.47L644.52 125.35L643.97 125.39L644.06 123.57L644.18 122.02L644.06 120L643.11 118.81L641.68 118.1L640.54 118.23L640.43 118.13L640.61 116.91L640.38 114.77L639.83 112.71L640 112.46L641.21 112.28L641.56 110.38L640.97 108L640.52 107.1V106.72L639.78 105.98L639.43 104.56L639.33 104.44L640.14 102.89L641.21 102.42L642.16 102.56L643.57 102.18L643.76 101.94L643.72 100.69L644.43 98.55L646.45 96.65L647.28 94.4L647.76 91.9L647.04 89.88L649.38 87.2L653.3 79.01L655.77 78.69L658.51 78.03L660.03 77.3L662.89 75.19L663.19 72.83L664.14 72.12L665.26 71.91L665.52 71.43L666.76 71.17L667.47 70.57L667.39 69.6L670.08 69.38Z" fill="#C7C7C7" stroke="white" stroke-width="2"/>
<path d="M575.27 218.87L579.35 220.11H580.62L581.93 220.83L581.97 222.44L581.93 223.56L581.33 224.27L580.38 225.82L579.91 226.17L580.26 228.43L581.33 229.03H582.29L582.31 229.19L583.56 229.25L585.98 229.52L586.44 230.21L587.51 231.64L588.11 233.9L589.06 233.78L589.5 233.95L589.75 234.96L589.63 236.41L588.11 237.34L587.51 238.18L587.87 239.48L588.43 239.76L588.64 240.57L589.01 241.12L589.89 240.31L590.96 240.55L591.67 241.62L592.38 243.17L593.1 244.12L592.62 245.07L591.95 245.18L591.55 245.54L590.84 247.21L590.72 249.11L590.84 250.53L589.89 251.6L589.17 251.48L586.92 251.36L585.25 251.01L583.83 251.25L583.19 251.56L581.99 250.57L581.81 249.82L581.21 249.23L579.79 249.34L578 249.82L577.41 250.41L576.82 251.48L575.87 252.55L575.42 253.88L573.62 254.23L572.7 254.28L572.18 253.5L570.64 252.91L568.86 252.43L566.36 252.55L564.7 252.91L563.03 253.62L562.57 254.28L562.02 254.51L559.31 255.49L558.24 255.78L555.48 256.33L554.36 255.13L552.69 249.39L552.86 248.34L552.94 244.48L552.62 242.53L551.55 237.81L550.39 233.99L546.48 232.22L547.29 231.23L548.84 229.73L549.87 230.22L555.99 230.03L558.96 227.3L560.5 223.86L562.16 222.31L564.42 220.53L566.68 218.3L568.03 216.84L568.23 216.75L573.73 216.96L575.27 218.87Z" fill="#C7C7C7" stroke="white" stroke-width="2"/>
<path d="M594.55 69.63L594.67 66.53L596.17 64.33L597.12 61.96L596.53 61.36L595.46 60.53L595.34 58.27H596.65L597.48 57.56L598.19 56.85L598.43 54.83L600.01 54.32L603.09 55.02L604.54 55.54L605.92 55.18L608.23 54.99L608.65 56.25L610.91 56.97L611.03 57.92L611.86 58.75L614.12 59.22L614.68 59.68L620.72 59.24H623.72L625.25 59.34L626.37 59.86L628.72 59.93L633.11 59.57L635.54 59.29L637.59 59.01L639.22 58.98L640.12 59.33L640.93 60.39L642.19 62.31L643.82 61.96L644.3 61.36L645.49 59.7L645.96 61.72V63.03L647.11 64.54L647.33 64.57L648.42 64.51L652.27 63.92L652.73 63.09L654.04 62.73L655.94 62.02L656.89 61.42H659.39L660.34 61.78L661.31 62.86L662.45 62.8L664.49 64.92L664.72 65L665.69 67.24L666.86 68.51L666.32 69.69L667.39 69.6L667.47 70.57L666.76 71.17L665.52 71.43L665.26 71.91L664.14 72.12L663.19 72.83L662.89 75.19L660.03 77.3L658.51 78.03L655.77 78.69L653.3 79.01L649.38 87.2L647.04 89.88L647.76 91.9L647.28 94.4L646.45 96.65L644.43 98.55L643.72 100.69L643.76 101.94L643.57 102.18L642.16 102.56L641.21 102.42L640.14 102.89L639.33 104.44L638 102.89L637.29 102.18L635.5 101.82L635.03 99.56L634.99 98.98L634.73 98.96L634.25 99.27L630.29 99.39L628.15 101.17L627.33 101.51L626.6 102.24H625.06L625.12 100.76L624.53 100.18L624.35 97.31L622.8 96.83L621.61 96.36L620.64 96.44L620.41 96.22L619.36 95.82L619.29 93.96L617.96 91.19L617.41 90.31L616.39 90.24L616.32 88.57L615.81 87.76L616.03 86.73H615.07V85.99H619.08L621.09 84.99L621.84 83.23L623.1 82.73V80.47L620.84 78.72H616.32L615.07 75.2L608.54 74.95L605.53 74.7L607.54 72.44L607.79 70.94H598.01L594.74 69.68L594.55 69.63Z" fill="#C7C7C7" stroke="white" stroke-width="2"/>
<path d="M601.3 173.08L601.18 172.11L599.63 171.04L598.68 169.97H598.09L597.51 171.13L597.26 170.98L595.84 169.71L595.21 168.72L594.55 167.28L593.63 165.84L591.82 163.83L588.59 161.18L587.11 160.6L586.46 160.71L585.97 159.99L583.83 159.87L582.04 160.7L581.48 161.2L581.35 161.14L580.86 161.77L579.31 161.65L577.05 159.39L575.99 158.21L575.63 156.19L574.44 154.52L574.08 152.98L571.47 152.62L570.76 152.03L570.28 149.89L569.45 148.94V147.63L570.08 146.51L569.95 146.15L569.49 141.42L569.41 140.04L569.57 138.29L570.05 136.84L570.67 135.99L571.99 134.72L573.29 133.57L574.46 132.04L574.82 131.08L575.09 130.14L575.65 127.71L576.03 126.8L577.69 124.9L578.6 124.18L583.06 121.49L585.53 120.56L585.93 118.92L586.8 118.81L587.99 117.63L587.87 116.2L587.39 114.3L587.09 114.12L587.12 113.94L587.63 113.05L588.11 111.03L583.2 111.2L582.88 107.06L583.49 105.5L584.44 104.93L585.02 105.39H585.85L585.52 103.03L586.01 101.91L587.04 101.35L588.11 100.63L588.63 96.95L588.86 96.94L589.95 97.05L591.43 96.12L594.88 96.36V98.38L594.28 99.81L594.48 100.81L594.31 102.22L594.62 103.45L596.31 103.86L596.86 103.82L599.26 102.12L604.98 97.48L605.94 96.55L607.4 98L606.05 99.92L605.22 101.7L604.98 103.25L604.27 104.56L602.72 106.58L602.6 108.24L601.41 109.78L599.87 112.16L598.2 113.71L597.14 115.25L597.37 117.39L598.09 117.51L598.2 118.22L597.02 120.36L595.95 121.9V123.92L597.25 125.59L597.49 127.49L597.58 127.93L596.66 128.62L595.12 129.33L594.05 130.52V130.73L593.1 130.99L591.91 131.71L590.96 132.9L591.67 133.37L593.1 133.49L595.07 132.5L595.58 132.72L595.5 132.95L596.3 133.01L597.61 133.49L597.02 136.82L595.83 137.17L595.55 137.97L595.76 138.97L594.76 139.79L593.57 139.91L593.81 140.86L595.35 141.57L596.24 141.49L596.69 143.95H598.09L599.04 144.3L598.8 146.09L597.97 147.04L597.27 147.15L597.32 147.39L596.07 147.75L594.88 148.46L595.12 149.53L597.74 150.07L598.2 153.45H598.92L599.87 153.69L600.94 153.81L600.7 154.76L599.51 155.47H598.48L598.67 156.89L598.7 158.88L599.03 160.24L598.32 161.06L597.61 163.2L598.56 165.81L600.23 168.54L603.17 170.02L603.23 170.58L603.19 171.83L603.05 172.84L602.67 173.74L601.3 173.08Z" fill="#C7C7C7" stroke="white" stroke-width="2"/>
<path d="M642.08 143.36L643.17 143.45L646.18 143.2L650.2 141.45L651.52 139.68L652.2 139.92L653.06 140.55L654.49 142.08L654.74 142.54L656.07 143.17L656.55 146.14L657.86 148.16L658.5 150.28L659.34 150.27L661.78 149.52L663.01 150.25L664.12 152.25L664.1 153.48L664.17 153.9L664.84 154.05L666.03 154.52L666.39 156.19L666.86 158.68L667.46 161.18L667.16 162.12L672.76 167.48L673.56 168.02L674.96 168.45L676.96 168.74L680.95 170.25L687.13 172.75L689.54 174L689.86 174.2L690.03 174.78L692.65 176.8L694.43 178.58L697.16 180.25L698.95 181.79L700.97 182.98L702.51 185.59L703.34 187.97L705.12 189.52L705.36 191.3L706.19 191.54L707.62 193.2L710.71 193.56L712.73 193.08L713.68 194.15L715.16 192.59L716.86 192.83L717.96 194.39L724.46 193.94L711.9 198.13L705.48 200.51L696.33 203.95L686.23 207.28L669.6 213.22L665.56 214.53L662.6 215.93L657.36 221.49L656.04 223.8H653.42V227.22L652.22 228.09L650.56 229.05L649.38 230.01L648.65 231.27L649.23 232.79L650.3 233.79L650.82 235.64L652.35 236.87L651.28 239.01L649.26 238.18L647.14 238.89L646.72 238.75L646.86 235.64L646.45 234.34L645.58 233.64L644.53 233.53L643.18 233.98L642.37 234.83L642.08 235.87L642.14 238.29L642 239.8H637.4L632.63 239.3L632.38 241.06L630.12 240.81L629.37 239.8H628.12L626.86 242.06L624 242.61L623.65 242.17L622.75 241.39L621.38 241.44L619.71 241.21L618.64 240.02L616.88 239.31L617.07 236.79L617.58 233.28L615.82 231.27H614.06L613.1 230.95L612.26 230.07L612.02 230.19L611.64 229.81L611.87 229.68L612.11 227.66L612.82 227.78L614.6 226.47L617.57 225.64L618.76 223.26L619.71 221.24L621.26 219.94L623.75 219.46L625.06 218.63L626.01 217.32L626.49 215.18V211.97L626.72 210.43L627.56 209.12L628.98 208.05L629.57 206.98L629.81 205.42L629.11 204.63L628.86 204.61L628.62 203.06L628.98 201.52L629.81 200.57L631 199.73L633.73 198.9L635.16 199.08L635.5 198.58L636.23 198.55L637.3 198.31L637.54 197.24L637.42 196.05L635.99 195.22L634.68 195.1L633.64 194.62L633.97 193.67L634.92 193.2L635.16 191.77L635.52 188.33L635.04 186.78L635.22 185.39L634.92 184.29L632.45 181.84L632.81 181.35L634.37 179.69L633.97 178.35L635.52 177.51L635.4 175.26L634.33 173.71L633.85 172.52L635.99 172.17L637.66 171.45L637.54 170.27L637.42 168.48L638.01 166.82L636.7 166.46L635.16 165.63L634.8 164.92L636.94 163.02L639.32 159.33L639.08 157.08L637.89 155.53L636.59 153.99L637.66 152.56L639.56 150.66L640.75 150.3L641.39 149.3L642.26 147.62L642.17 145.08L642.08 143.36Z" fill="#C7C7C7" stroke="white" stroke-width="2"/>
<path d="M594.74 69.68L598.01 70.94H607.79L607.54 72.44L605.53 74.7L608.54 74.95L615.07 75.2L616.32 78.72H620.84L623.1 80.47V82.73L621.84 83.23L621.09 84.99L619.08 85.99H615.07L615.01 86.73L613.77 87.44L612.94 87.92L612.7 89.11L611.16 90.18L611.11 91.11L609.74 92.47L609.73 93.68L610.92 94.99L611.75 96.06L610.32 96.53L610.21 98.44L607.59 98.2L605.94 96.55L604.98 97.48L599.26 102.12L596.86 103.82L596.31 103.86L594.62 103.45L594.31 102.22L594.48 100.81L594.28 99.81L594.88 98.38V96.36L591.43 96.12L589.95 97.05L588.86 96.94L587.64 96.98L588.12 96.47L588.96 94.82L590.84 90.83L592.5 90L592.26 86.2L592.03 83.11L592.15 80.97L591.43 79.66L590.6 79.07H588.22L586.2 78.95L584.1 78.29L582.98 75.5L582.51 72.29L582.43 70.41L583.7 70.94L585.96 71.69H591.23L591.73 70.44L592.99 69.18L594.74 69.68Z" fill="#C7C7C7" stroke="white" stroke-width="2"/>
<path d="M523.42 150.81L524.43 150.3L525.38 150.13L531.69 150.19L532.27 150.29L532.97 149.53H534.63L535.7 149.89L535.94 151.08L535.82 151.16L535.78 151.48H538.54H538.79V156.25L539.04 158.51L539.79 160.01L540.8 162.77L543.06 163.27L545.31 164.03L547.57 165.78L548.07 168.04L550.33 168.54L551.08 168.79L551.34 172.56L553.09 174.57L552.09 176.82L551.08 180.34L549.83 181.09L546.57 181.84L543.06 182.34L540.8 185.36L539.79 186.11L537.53 186.61L534.75 189.79L532.99 187.63L531.01 185.96L530.04 185.19L527.61 184.38L525.13 184.42L523.6 183.77L520.06 181.54L515.97 176.58L515.89 175.06L518.38 176.11L521.76 174.59L524.99 172.26L525.76 171.39L526.59 169.89L527.71 163.25L527.65 162.11L525.64 154.83L525.07 153.46L523.42 150.81Z" fill="#C7C7C7" stroke="white" stroke-width="2"/>
<path d="M640.54 118.23L641.68 118.1L643.11 118.81L644.06 120L644.18 122.02L644.06 123.57L643.97 125.39L644.52 125.35L646.9 125.47L649.51 125.23L651.06 125.94L651.77 127.25L652.49 128.92L652.63 129.72L652.48 129.7L652.64 130.76L652.52 132.3L653.35 134.8L652.76 136.82L652.22 137.09L652.2 137.68L651.52 138.54L650.58 139.35L651.52 139.68L650.2 141.45L646.18 143.2L643.17 143.45L642.08 143.36L642.1 143.62L640.41 143.2L638.4 142.45L636.98 141.46L636.14 141.73L634.69 141.88L632.63 141.04L631.17 140.85L629.49 141.04L628.04 141.1L627.19 141.08L626.37 142.1H625.06L623.87 141.15L623.1 139.8L622.26 139.07L620.9 139.13L619.83 139.25L619 140.32L618.17 141.75L617.53 142.26L617.41 141.46V141.24L616.86 141.04L615.67 139.37L615.2 138.18L615.01 137.08L614.9 136.98L614.09 134.46L614.97 133.78L615.86 132.77L616.66 130.61L616.73 128.99L616.82 127.98L619.47 126.47L620.58 125.88L622.31 125.18L624.97 125.52L626.16 125.46L627.11 125.29L631.71 123.93L631.95 123.09L632.55 121.43L635.04 122.02L635.54 122.79L635.74 122.97H637.64L638.71 121.55L639.78 120.48L640.38 119.41L640.45 118.14L640.54 118.23Z" fill="#C7C7C7" stroke="white" stroke-width="2"/>
<path d="M790.08 102.03L784.57 99.78L784.2 98.69L782.58 98.76L779.13 98.64L777.23 98.16L776.76 96.87L776.56 96.79L774.36 94.6L770.66 93.87H765.8L765.03 94.1L764.21 93.39L763.14 92.56L761.12 91.97L759.69 91.85L758.74 92.09L758.64 95.56L758.68 97.5L759.53 98.02V99.09L758.15 98.77L755.38 98.38L755.32 97.13L754.89 97L753.17 96.08L752.56 94.56L751.69 92.93L750 93.02L741.85 93.21L740.33 94.82L739.02 95.89H737.36L736.14 95.22L732.32 94.05L731.19 92.27L730.24 91.2L729.17 90.49L728.1 90.61L727.77 90.72L727.35 90.4L726.05 90.55L725.76 90.75L724.79 89.9L724.08 88.59L721.7 87.52L720.16 86.45L718.14 83.24L716.36 81.46L715.29 80.03L713.86 78.49L713.38 77.18L712.9 76.7L711 74.56L708.86 74.32L707.08 75.03L705.5 76H704.07L701.81 75.17L700.38 74.81L698.37 74.97L693.94 73.21L693.13 74.64L692.86 74.97L691.94 76.04L690.51 77.23L689.44 77.59L688.69 76.94L686.05 76.52L685.88 74.63L687.07 73.92L686.95 73.33L686.12 73.21L685.76 71.55L684.57 71.43L683.74 71.91L683.62 72.74L683.38 73.1L682.31 73.22L681.36 73.81L681.09 74.49L680.76 74.99H679.1L676.6 74.51L673.87 74.75L672.21 73.92L670.55 74.63L670.07 69.4L666.31 69.71L666.85 68.53L665.67 67.26L664.72 65L664.49 64.92L662.46 62.8L661.64 62.82L662.13 61.65L663.91 60.46L665.62 59.82L666.05 58.73V57.25L666.29 55.35L667.62 54.72L668.4 52.74L668.79 50.74L669.16 49.58L669.91 48.7L670.37 48.41L673.77 43.95L674.48 41.22L675.91 39.68L677.44 39.9L678.39 38.83L680.17 39.57L681.77 40.7L683.65 41.83L684.87 43.62L684.12 46.26L684.5 47.58L684.59 48.8L684.97 50.31L685.35 52L686.86 52.85L688.74 53.79L689.4 52.94L690.34 52.85L691.94 53.13L693.73 53.88L695.61 54.07L697.12 53.79L698.53 53.41L700.04 52.94L701.92 53.6L703.33 56.9L705.21 57.37L707 57.56L709.07 58.03L711.14 58.88L712.55 59.35L715.19 59.63L716.23 58.97L719.24 58.78L719.71 57.65H721.03L722.44 58.21L723.29 58.49H724.89L726.11 59.15L726.96 59.81L728.18 59.53L728.74 59.06L729.87 58.59H730.81L731.28 59.44H732.41L733.35 58.88L734.2 58.69L736.37 59.25V52.94L736.84 51.9L738.06 50.77L739.57 50.49L741.83 49.93L743.43 50.59L744.47 51.63L746.26 52.1L749.37 52.19L750.78 54.45H753.23L754.74 55.2L755.68 56.14L757.28 58.31L758.98 61.23L760.96 63.21L763.5 65.09L765.57 66.97L767.74 67.91H770.19L773.96 67.72L775.28 68.19L776.13 69.13L777.73 70.45L777.45 71.49L778.96 72.05L779.9 72.8L782.54 74.02L784.52 74.77L786.12 75.24L788 75.33L789.7 75.71L789.51 77.12L788.94 77.5L786.68 77.97L786.21 77.12L785.74 78.16L784.04 78.44L780.18 76.75H773.68V83.43L776.32 85.78L778.01 86.82L781.59 86.63L782.25 87.29L782.91 88.33L783.66 90.78L784.51 91.34L785.08 92.38H786.3L787.05 92.85L787.24 93.79L787.8 94.17L789.02 93.98L789.77 95.11L790.62 95.39L791.47 95.86L792.04 97.55L791.47 97.93L791.66 99.15L792.13 99.62L791.94 100.75L791.47 101.5L790.43 101.41L790.08 102.03Z" fill="#C7C7C7" stroke="white" stroke-width="2"/>
<path d="M98.99 139.65L95.58 140.08L93.66 139.01L91.32 137.09V135.38L93.03 133.67L95.16 132.82L99 133.25L100.49 134.32L102.62 136.45L101.34 138.16L98.99 139.65ZM61.26 135.36L60.85 135.45L59.62 135.26L58.22 134.42L57.18 133.46L56.87 133.09L58.5 129.2L58.99 128.87L61.07 128.86L64.28 131.03L64.45 131.72L64.17 132.42L62.96 134L62.25 134.78L61.26 135.36ZM81.73 113H79.17L77.25 111.29L77.04 108.95L79.38 107.88L81.94 108.52L83.22 111.29L81.73 113ZM108.91 115.37L104.48 116.46L103.89 116.39L99.93 115.06L99.96 114.4L100.43 113.56L101.65 112.8L102.34 112.51L103.36 111.89L104.15 111.37L107.28 109.12L107.61 107.67L107.85 107.25L108.62 106.18L109.95 105.22L112.72 103.68L114.34 103.45L114.95 103.41L117.75 103.61L118.28 104.4L117.59 106.36L116.9 107.32L115.42 108.99L110.13 114.63L108.91 115.37ZM52.74 102.13L49.97 103.2L47.84 101.92L46.77 99.58L47.2 98.3L49.97 97.23L52.1 98.3L53.17 99.58L52.74 102.13ZM69.79 106.41L65.75 108L61.33 107.47L56.09 103.73L55.56 100.91L56.3 98.57L57.74 96.72L58.57 95.92L60.19 95.23L68 94.49L73.04 96.78L73.44 97.91L72.94 102.05L72.43 103.5L69.79 106.41ZM69.79 91.69H67.45L65.53 90.2L66.6 87.64L69.58 86.57L72.14 88.7L71.93 90.62L69.79 91.69ZM9.96003 94.37H9.71003L4.50003 92.09L3.22003 90.42L2.59003 89.08L2.03003 85.77L3.55003 84.59L10.74 82.63L11.4 82.59L12.85 83.61L14.61 85.37L14.95 86.42L14.88 91.69L14.47 92.59L13.7 92.96L9.96003 94.37ZM55.71 85.08L53.92 87.97L53.13 88.59L52.9 88.62L49.77 87.35L48.79 87.27L47.09 87.68L46.42 87.76L42.28 86.82L39.98 83.58L41.89 79.14L42.91 78.18L43.88 77.82L46.08 78.47L49.47 79.65L51.07 80.27L52.1 80.89L52.5 81.16L53.22 81.74L55.52 84L55.71 85.08ZM21.67 70.68L23.5 71.29L24.19 72.24L24.42 75.03L24.27 76.54L24.24 77.53L25.06 80.8L25.76 82.17L28.82 85.45L30.33 86.23L31.91 87.19L33 88.17L35.67 90.88L36.43 95.8L35.74 96.94L38.61 100.74L39.76 101.88L40.95 103.19L43.05 105.67L39.99 114.41L37.48 116.89L26.02 120L24.31 120.1L23.48 119.61L19.75 119.19L18.54 119.1L17.32 119.36L16.03 119.71L13.77 119.23L12.76 118.26L10.24 114.55L9.83003 113.19L10.18 111.49L11.04 110.14L12.07 108.87L18.86 103.47L22.51 102.29L24.35 102.8L26.19 103.24L29.91 98.84L28.07 96.92L26.51 96.86L16.64 85.21L14.34 81.63L14.51 80.36L15 78.91L14.55 75.77L13.84 72.71L12.98 71.52L11.27 71.27L9.31003 71.95L7.91003 73.08L6.29003 73.06L4.85003 71.16L4.91003 70.67L8.04003 69.2L15.1 64.72L18.78 65.33L18.89 66.46L20.68 69.67L21.47 70.52L21.67 70.68ZM89.4 60.15L87.69 60.79L85.13 60.58L83.64 58.02L83.85 55.68L86.83 55.47L89.39 55.9L90.88 57.18V58.67L89.4 60.15ZM62.97 60.15L57.85 60.36L55.51 58.23L55.72 55.89L58.28 54.61L62.97 54.82L64.68 56.31L66.39 57.38L65.54 59.08L62.97 60.15ZM51.25 48.43L48.48 49.71L46.14 47.79L44.43 44.59L45.28 42.46L48.26 40.97L50.82 43.1L52.1 45.87L51.25 48.43Z" fill="#C7C7C7" stroke="white" stroke-width="2"/>
<path d="M618.68 126.92L617.93 126.42L614.72 126.18L613.77 127.85L611.04 128.08L608.85 127.65L607.83 126.8L607.72 126.75L607.12 125.77L604.86 125.65L602.84 125.88L601.29 126.36L599.99 127.31L599.15 128.1L598.53 128.18L597.82 128.05L597.56 127.92L597.49 127.49L597.25 125.59L595.95 123.92V121.9L597.02 120.36L598.2 118.22L598.09 117.51L597.37 117.39L597.14 115.25L598.2 113.71L599.87 112.16L601.41 109.78L602.6 108.24L602.72 106.58L604.27 104.56L604.98 103.25L605.22 101.7L606.05 99.92L607.4 98L607.59 98.2L610.21 98.44L610.32 96.53L611.75 96.06L610.92 94.99L609.73 93.68L609.74 92.47L611.11 91.11L611.16 90.18L612.7 89.11L612.94 87.92L613.77 87.44L614.96 86.73H616.03L615.81 87.76L616.32 88.57L616.39 90.24L617.41 90.31L617.96 91.19L619.29 93.96L619.36 95.82L620.41 96.22L620.64 96.44L621.61 96.36L622.8 96.83L624.35 97.31L624.53 100.18L625.12 100.76L625.06 102.24H626.6L627.33 101.51L628.15 101.17L630.29 99.39L634.25 99.27L634.73 98.96L634.99 98.98L635.03 99.56L635.5 101.82L637.29 102.18L638 102.89L639.43 104.56L639.78 105.98L640.52 106.72V107.1L640.97 108L641.56 110.38L641.21 112.28L640 112.46L639.83 112.71L640.38 114.77L640.61 116.91L640.44 118.13L640.38 119.41L639.78 120.48L638.71 121.55L637.64 122.97H635.74L635.54 122.79L635.04 122.02L632.55 121.43L631.95 123.09L631.71 123.93L627.11 125.29L626.16 125.46L624.97 125.52L622.31 125.18L620.58 125.88L619.47 126.47L618.68 126.92Z" fill="#C7C7C7" stroke="white" stroke-width="2"/>
<path d="M724.46 193.94L717.96 194.39L716.86 192.83L715.16 192.59L713.68 194.15L712.73 193.08L710.71 193.56L707.62 193.2L706.19 191.54L705.36 191.3L705.12 189.52L703.34 187.97L702.51 185.59L700.97 182.98L698.95 181.79L697.16 180.25L694.43 178.58L692.65 176.8L690.03 174.78L689.86 174.2L689.54 174L687.13 172.75L680.95 170.25L676.96 168.74L674.96 168.45L673.56 168.02L672.76 167.48L667.16 162.12L667.46 161.18L666.86 158.68L666.39 156.19L666.03 154.52L664.84 154.05L664.17 153.9L664.1 153.48L664.12 152.25L663.01 150.25L661.78 149.52L659.34 150.27L658.5 150.28L657.86 148.16L656.55 146.14L656.07 143.17L654.74 142.54L654.49 142.08L653.06 140.55L652.2 139.92L650.58 139.35L651.52 138.54L652.2 137.68L652.22 137.09L652.76 136.82L653.35 134.8L652.52 132.3L652.61 131.12L664.25 131.91L664.05 128.31L664.57 128.38L664.69 127.43H666.23L667.22 127.77L667.76 129.15L672.03 127.65L677.29 125.89L682.06 125.39L684.07 124.38L687.58 124.13L690.83 123.44L691.09 123.51L691.01 122.81L692.85 123.38L695.36 123.13L697.62 122.38H701.88L706.4 121.87L707.41 123.13L709.91 122.88L712.17 125.39L714.18 125.64L714.68 122.38L717.19 122.12L719.2 121.62L722.71 120.37L725.61 119.75L726.98 120.66L729.71 120.89L730.3 121.96L730.07 123.51L729.34 124.94V127.28L730.2 128.44L732.34 129.51L733.41 130.52H734.39L736.29 130.16L737.01 130.88L737.74 132.42L740.87 132.99L742.96 132.29L748.44 131.59L751.07 132.27L759.43 134.79L759.86 135.05L760.53 134.32L762.79 135.39L763.74 136.34L763.84 137.33L765.49 137.11L767.15 137.35L768.34 138.66L768.65 140.35L771.82 142.27L772.23 142.41L773.25 141.93H775.15V143.59L775 144.97L773.1 146.93L765.69 155.8L751.61 172.48L736.14 185.18L724.88 193.71L724.46 193.94Z" fill="#C7C7C7" stroke="white" stroke-width="2"/>
<path d="M611.64 229.81L612.02 230.19L612.26 230.07L613.1 230.95L614.06 231.27H615.82L617.58 233.28L617.07 236.79L616.88 239.31L618.64 240.02L619.71 241.21L621.38 241.44L622.75 241.39L623.65 242.17L624 242.61L626.86 242.06L628.12 239.8H629.37L630.12 240.81L632.38 241.06L632.63 239.3L637.4 239.8H642L641.9 241.38L641.42 244.35V247.8L640.71 249.7L639.64 251.6L637.74 254.34L634.53 257.9L633.82 260.75L632.63 260.99L632.31 262.36L632.3 264.12L631.32 264.79L631.08 266.34L630.25 267.76V273.11L628.17 275.21L627.31 276.27L627.28 279.41L627.63 281.88L627.75 284.56L626.81 285.94L625.5 287.49L624.55 288.79L624.23 290.08L622.65 292.12L620.75 293.07L617.7 293.56L616.89 294.31L614.69 295.92L613.74 298.18L613.38 301.27L611.95 302.82L610.17 305.67V308.04L608.86 309L607.32 309.23L605.3 307.93L602.11 308.05L601.15 307.99L599.78 308.05L597.2 308.09L595.44 304.6L592.94 303.89L592.82 301.39L590.71 301.38L589.54 300.07L589.22 298.59L588.57 295.1L590.6 294.8V293.73L591.79 291.71L593.1 290.16L593.81 288.38L594.05 285.77L595.47 284.58L596.9 284.1L598.56 284.22L598.85 285.08L599.64 285.43L600.07 285.47L600.58 284.7L603.79 281.37L604.62 279.82L604.5 273.88V270.44L603.2 268.65L602.48 267.35L602.72 265.56L603.2 264.02V260.81L603.55 257.37L603.67 254.87L603.59 253.15L602.65 252.05L602.27 250.9L601.77 250.65L601.18 249.11V247.32L601.65 246.37L602.84 244.95L604.27 244.71L604.86 243.88L605.19 243.33L605.06 243.21L606.17 242.93L606.88 241.98L606.05 239.13L606.64 237.11L607.48 236.17L607.51 235.88L607.12 234.79L606.76 233.48L608.42 232.06L610.21 230.63L611.64 229.81Z" fill="#C7C7C7" stroke="white" stroke-width="2"/>
</svg>
