<svg width="615" height="397" viewBox="0 0 615 397" fill="none" xmlns="http://www.w3.org/2000/svg">
<path d="M382.531 182.48L383.061 183.28L382.881 186.76L382.551 188.08L381.471 189.44L383.621 189.82L384.161 193.41L383.151 195.16L381.531 195.19L380.821 196.52L379.681 196.72L380.451 198.14L385.101 199.16L387.391 199.27L390.921 198.03L392.561 198.18L396.601 200.51L399.261 201.03L399.171 201.81L400.061 203.27L399.481 203.58L399.671 203.98L399.141 204.74L400.301 205.38L400.281 207.21L401.251 206.99L403.041 208.7L405.311 207.03L405.751 213.33L410.961 217.81L412.091 216.9L417.201 222.38L417.341 222.77L417.751 222.72L417.621 223.21L417.961 223.14L418.161 224.15L418.591 224.41L418.391 224.98L419.091 226.23L418.691 227.21L419.931 228.84L420.541 231.72L421.391 233.04L421.271 234.07L419.641 233.8L418.801 234.81L418.311 234.85L418.351 235.44L417.341 236.22L417.021 238.07L416.181 238.14L407.931 247.76L410.171 285.06L407.701 285.39L405.861 285.12L405.161 285.53L405.111 286.61L401.431 287.54L401.371 288.61L399.931 289.51L399.021 289.78L396.251 289.35L395.831 285.98L394.821 284.74L394.091 282.8L392.801 281.49L391.121 280.85L388.991 280.86L389.471 282.25L390.101 282.46L390.421 284.13L389.101 284.36L389.251 285.26L387.291 285.66L387.401 287.38L387.601 288.18L387.941 288.11L388.651 285.98L389.071 285.92L389.341 288.08L389.761 288.7L389.591 289.35L388.031 289.31L388.271 290.44L387.601 290.53L387.201 291.34L386.281 291.2L386.371 292.36L385.921 291.89L384.891 292.09L384.431 293.67L383.701 293.19L383.101 294.15L382.111 294.78L381.761 294.42L378.961 294.56L379.961 295.82L379.371 296.73L378.621 296.88L378.391 298.02L377.231 299.26L376.951 300.21L376.091 300.38L375.201 301.94L374.161 302.8L373.651 301.49L372.771 301.24L368.741 301.4L368.461 301.73L367.041 301.24L366.261 302.25L368.441 307.52L367.751 308.06L367.541 309.38L364.961 314.65L364.591 313.4L363.511 311.97L361.571 313.95L360.921 312.02L358.641 312.47L357.961 313.11L357.151 312.58L357.991 311.65L357.861 310.54L354.501 311.33L353.041 309.61L350.601 307.97L351.101 306.82L352.671 306.31L351.391 304.57L347.381 301.85L343.111 301.64L340.351 296.55L336.101 292.25L335.571 292.47L334.841 294.48L333.891 294.85L333.491 295.71L334.351 297.47L336.411 298.97L337.411 301.24L337.201 303.77L336.651 304.55L337.061 307.93L335.511 308.67L334.431 307.97L333.041 308.06L332.561 306.32L331.741 306.36L330.181 303.93L331.741 303.5L330.681 302.57L330.211 302.59L329.971 303.41L329.741 303.09L329.121 299.87L330.031 297.81L329.771 297.63L329.081 298.29L328.611 295.91L327.971 295.44L328.741 293.97L328.641 292.88L327.491 291.82L326.571 292.56L326.071 292.34L326.411 293.6L323.051 293.51L321.041 292.81L318.541 293.31L318.191 295.32L316.041 295.37L312.681 299.95L312.201 299.52L312.081 298.45L311.631 298.67L311.141 294.91L309.711 294.13L309.741 293.06L310.681 290.82L314.521 288.67L313.591 287.32L313.841 285.64L317.741 285.69L318.711 286.93L319.171 285.75L320.201 285.76L320.111 286.82L320.601 286.95L321.211 283.92L320.481 283.18L319.691 283.43L318.371 281.78L318.421 280.2L319.701 280.42L320.251 279.39L319.451 278.06L319.531 276.72L320.281 276L321.021 277.25L321.591 279.28L321.051 280.76L321.651 280.85L322.191 280.63L322.111 279.93L322.881 279.66L322.791 278.44L322.281 278.6L322.011 278.15L322.111 276.55L322.561 275.96L323.781 275.94L324.121 274.11H322.761L322.821 273.1L324.601 271.97L327.281 272.49L328.301 272.01L328.391 271.11L329.411 270.39L329.981 270.46L330.561 271.16L330.301 271.27L330.621 272.44L331.191 272.76L331.211 271.41L332.211 271.43L332.601 270.62L332.091 267.82L332.641 267.12L332.441 265.75L331.901 264.4L331.301 264.07L331.281 263.34L331.471 262.78L332.831 261.93L334.141 261.72L333.691 261.23L333.321 257.39L325.111 256.04L322.761 250.79L321.171 249.82L319.431 250.2L318.021 251.32L317.461 248.99L317.351 249.59L316.771 249.77L312.161 248.14L306.551 249.39L305.721 245.65L307.201 235.84L306.921 230.85L308.171 231.5L309.911 229.17L309.381 220.26L311.231 219.2L311.631 216.59L314.111 215.83L315.191 216.09L316.071 214.14L317.631 214.4L319.981 213.47L322.391 210.64L323.201 210.61L323.151 211.82L323.561 211.79L324.331 210.73H324.951L325.171 209.88L324.571 209.75L324.961 209.14L324.911 207.7L325.321 206.88L325.901 207.03L326.511 206.65L325.891 205.58L326.151 205.19L327.511 204.58L330.461 204.5L331.721 204.03L331.701 203.6L330.351 202.98L330.591 201.87L329.931 200.67L329.781 197.47L329.401 197.12L328.931 198.07L328.451 197.8L329.021 195.83L328.761 195.47L331.841 193.87L332.701 195.29L336.811 195.83L337.861 197.03L341.311 196.01L342.191 197.83L343.881 197.98L346.231 196.69L349.821 197.07L351.811 197.89L352.871 197.43L353.091 196.89L352.621 195.79L355.041 195.78L355.601 194.32L357.471 193.07L358.001 193.14L358.111 193.9L358.591 193.92L358.381 194.68L358.861 195.16L360.081 194.25L359.731 193.83L359.031 193.87L359.121 193.32L360.801 192.01L364.121 192.7L365.861 191.5L366.191 190.39L368.041 189.84L368.601 190.17L369.521 189.93L370.391 189.15L370.961 186.51L371.981 186.07L373.211 186.73L376.301 186.09L378.311 184.63L378.991 184.94L380.081 184.07L381.251 183.99L381.531 182.96L382.531 182.48Z" fill="#C7C7C7" stroke="white" stroke-width="2"/>
<path d="M462.569 285.53L465.769 284.47L465.569 282.78L467.209 281.06L465.959 280.85L465.709 280.22L465.909 279.3L467.329 279.55L466.049 278.66L465.499 276.99L465.299 275.53L465.939 274.49L466.759 275.26L469.489 275.35L470.809 274.81L471.619 273.46L473.139 273.05L473.729 273.43L474.229 275.26L473.499 277.51L474.679 276.32L475.239 276.37L475.729 277.07L476.039 276.01L476.689 275.96L478.829 274.38L480.719 274.27L481.829 275.69L481.709 274.4L482.529 274.07L483.559 272.22L485.009 271.86L485.089 271.16L485.499 271.36L485.469 269.31L486.119 266.72L486.629 265.37L487.369 265.26L487.599 263.98L488.629 262.8L489.429 262.53L490.429 264.07L490.019 264.96L490.599 266.61L491.609 266.07L491.989 264.52L493.739 264.99L494.459 263.89L496.369 264.29L495.999 265.8L496.579 266.79L499.109 266.02L499.989 264.74L500.709 266.18L502.319 264.61L501.919 263.16L502.659 261.66L502.289 260.56L502.759 260.02L503.829 259.92L504.369 260.8L505.369 260.96L506.569 263.28L509.529 262.36L510.149 262.29L510.229 262.76L510.919 262.2L510.869 259.88L511.439 259.21L512.549 259.32L513.689 261.55L514.409 261.75L518.699 261.48L519.689 261.88L521.179 261.81L521.499 262.89L524.899 263.28L524.119 267.12L531.569 268.68L532.119 267.82L535.449 270.07L536.189 269.38L537.839 269.53L538.979 272.28L548.549 273.46L555.289 285.62L558.619 289.48L557.949 290.57L556.089 297.72L557.289 305.86L557.739 306.45L560.739 308L560.299 307.13L560.629 306.18L559.899 304.46L559.919 303.89L560.259 303.82L560.979 304.05L561.719 305.41L564.049 306.29L563.679 307.38L564.229 307.77L564.569 309L562.819 312.01L563.429 312.7L563.449 314.29L562.249 314.9L561.239 314.88L560.899 315.33L562.159 316.88L562.059 317.61L562.469 318.27L563.389 319.04L563.329 320.63L566.499 321.33L566.269 323.14L564.559 323.89L565.509 324.87L567.889 323.91L569.079 324.8L570.019 324.71L570.409 325.75L571.169 326.14L573.279 325.18L575.479 325.53L575.799 325.62L576.029 326.98L575.219 327.8L575.679 328.33L575.379 329.85L575.819 331.04L575.629 331.91L573.559 334.03L573.829 335.6L573.179 335.19L571.959 336.95L570.499 336.63L568.649 337.72L566.599 336.47L565.549 334.78L564.749 336.04L563.329 336.77L561.149 335.88L557.609 335.72L553.999 336.9L552.059 337.11L550.569 336.79L550.379 337.16H546.749L546.149 337.48L544.729 336.9L544.009 337.04L543.679 336.61L542.389 336.77L540.479 335.94L539.859 336.24L539.229 336.19L538.549 335.83L535.959 336.2L534.739 337.15L534.099 336.72L533.539 338.11L532.659 338.13L531.719 339.89L531.249 339.5L531.379 338.53L530.339 338.91L529.609 338.53L529.359 337.52L527.809 337.38L527.419 335.19L524.339 335.06L524.909 332.04L526.069 330.7L525.999 329.51L527.119 329.9L527.869 328.97L527.749 328.6L528.869 328.56L529.069 327.48L529.639 327.53L530.009 326.85L530.229 325.45L529.159 324.75L528.239 325.04L527.439 324.16L528.019 323.89L527.759 322.25L526.679 322.2L526.839 324.71L526.279 325.57L523.229 323.7L521.099 324.21L518.379 322.52L518.529 321.75L516.249 321.91L515.829 322.31L515.169 320.36L513.369 320.95L513.109 319.42L511.439 316.58L509.649 316.78L508.959 316.15L509.309 315.49L509.019 314.97L507.079 316.78L506.679 316.63L506.339 317.69L504.949 316.69L504.599 316.88L504.739 317.52L503.749 317.6L503.469 318.54L504.459 320.36L504.769 321.88L506.629 323.48L506.449 324.05L503.239 323.41L503.209 322.66L500.139 322.93L498.339 322.61V321.91L497.969 321.75L497.799 322.52H497.449L496.659 321.5L495.799 321.54L495.429 317.86L492.529 319.45V319.95L490.819 320.63L489.879 320.52L488.539 321.99V320.38L487.569 320.36L484.919 321.17L483.419 320.59L480.249 322.29L479.179 320.95L478.869 319.9L478.729 320.25L477.229 320.36L476.839 319.9L475.159 321.31L474.619 319.79L473.629 319.92L473.189 319.42L472.629 319.67L471.319 318.92L470.949 317.92L470.469 317.81L469.429 318.88L468.729 318.6L468.039 319.51L465.679 319.61L465.199 318.76L462.349 319.72L461.299 318.27L460.149 317.9L460.429 316.95L458.929 317.6L458.219 317.1L458.109 315.28L457.219 315.06L457.109 314.54L458.249 313.45L458.109 311.72L458.629 311.22L458.639 310.45L458.279 309.93L459.109 309.33L457.979 308.54L457.309 306.61L457.809 305.59L458.589 305.54L458.699 303.55L459.409 303.48L459.549 300.53L458.559 300.12L458.379 298.61L458.979 297.27L458.129 297.14L457.789 297.81L457.959 295.82L457.509 295.28L458.179 293.45L459.779 291.68L459.559 290.05L460.949 287.97L461.099 286.01L462.569 285.53Z" fill="#C7C7C7" stroke="white" stroke-width="2"/>
<path d="M475.94 33.17L476.68 33.36L477.1 34.13L477.67 33.98L478.41 35.57L480.33 36.26L485.48 39.97L488.42 42.97L493.38 45L503.03 45.67L511.55 45.02L519.32 43.75L534.13 43.15L538.89 44.14L546.08 46.6L549.03 46.86L549.79 47.85L554.71 49.27L560.85 49.34L563.44 49.01L566.21 49.48L568.45 49.05L568.93 49.7L569.53 49.64L569.08 50.39L570.34 51.62L572.08 52.42L574.38 52.35L574.85 52.82L578.04 52.24L580.02 51.35L580.83 51.89L585.16 51.57L587.09 50.58L590.55 47.99L592.61 45.89L594.83 42.93L597.28 38.44L597.92 39.8L600.75 40.79L602.25 41.96L604.86 44.68L606.36 48.2L608.71 49.6L612.01 52.58L613.03 55L612.97 58.66L612.47 60.13L611.55 60.82L611.23 62.2L609.32 64.08L608.15 67.44L605.55 72.19L598.78 72.15L595.01 73.49L592.08 75.27L589.44 75.6L585.71 79.23L584.65 80.79L583.67 82.85L583.26 88.96L582.63 91.88L581.06 94.25L580.32 96.36L576.99 99.41L576.53 100.7L574.78 102.92L574.58 105.12L575.2 105.99L573.21 108.87L573.47 112.89L571.89 114.73L571.53 116.19L571.85 117.68L571.23 119.87L569.63 120.07L569.23 120.77L568.61 124.36L568.94 126.86L568.16 128.2L568.73 129.1L568.49 129.8L566.13 132.61L541.24 156.62L529.83 152.39L516.73 150.63L493.48 150.52L493.07 149.79L491.95 149.9L490.83 147.32L488.46 145.65L484.9 145.5L483.1 144.82L482.56 146.53L478.04 146.84L475.23 147.83L474.09 146.27L473.42 143.21L473.4 141.39L474.19 141.06L473.96 139.48L472.56 138.43L473.46 136.26L471.72 134.52L470.89 134.45L470.61 132.85L472.42 131.84L473.03 130.7L477.62 129.89L479.44 127.39L479.67 126.14L479.14 124.48L479.25 121.96L481.2 120.6L481.25 120.14L481.28 119.48L479.96 118.65L480.92 103.42L481.22 103.27L482.04 103.95L483.33 103.05L484.75 100.7L488.26 100.29L488.67 98.94L489.62 99.66L489.96 100.82L491.94 100.73L492.61 99.71L492.17 98.92L492.61 95.58L493.71 95.52L493.26 92.49L492.07 92.64L491.44 91.92L492.46 89.85L491.37 87.37L490.55 86.46L487.12 85.37L483.61 83.3L484.29 82.39L483.64 77.2L475.56 81.67L474.72 76.7L473.71 76.76L474.48 72.51L473.83 71.66L474.83 71.09L475.98 69.36L477.09 65.09L478 65.31L478.46 63.56L480.26 64.03L481.09 62.34L479.69 62.23L479.51 61.41L477.14 60.13L473.69 60.63L472.59 59.14H471.98L471.3 60.29L470.33 59.97L470.08 59.41L471.3 57.66L473.93 56.56L473.99 55.76L474.69 55.78L474.18 55.18L475.11 54.72L473.25 51.35L473.73 51.11L472.45 50.09L472.72 49.79L475.36 48.56L476.62 50.22L478.78 50.59L478.71 48.24L477.98 45.67L478.08 40.27L477.37 38.46L476.34 37.3L476.47 35.84L475.52 35.11L475.73 34.63L475.16 34.01L475.53 33.26L475.94 33.17Z" fill="#C7C7C7" stroke="white" stroke-width="2"/>
<path d="M536.67 182.77L544.87 217.95L550.97 241.34L544.74 252.67L544.98 266.63L548.55 273.46L538.98 272.28L537.84 269.53L536.19 269.38L535.45 270.07L532.12 267.82L531.57 268.68L524.12 267.12L524.9 263.28L521.5 262.89L521.18 261.81L519.69 261.88L518.7 261.48L514.41 261.75L513.69 261.55L512.55 259.32L511.44 259.21L510.87 259.88L510.92 262.2L510.23 262.76L510.15 262.29L509.53 262.36L506.57 263.28L505.37 260.96L504.37 260.8L503.83 259.92L502.76 260.02L502.29 260.56L502.66 261.66L501.92 263.16L502.32 264.61L500.71 266.18L499.99 264.74L499.11 266.02L496.58 266.79L496 265.8L496.37 264.29L494.46 263.89L493.74 264.99L491.99 264.52L491.61 266.07L490.6 266.61L490.02 264.96L490.43 264.07L489.43 262.53L488.63 262.8L487.6 263.98L487.37 265.26L486.63 265.37L486.12 266.72L485.47 269.31L485.5 271.36L485.09 271.16L485.01 271.86L483.56 272.22L482.53 274.07L481.71 274.4L481.83 275.69L480.72 274.27L478.83 274.38L476.69 275.96L476.04 276.01L475.73 277.07L475.24 276.37L474.68 276.32L473.5 277.51L474.23 275.26L473.73 273.43L473.14 273.05L471.62 273.46L470.81 274.81L469.49 275.35L466.76 275.26L465.94 274.49L465.3 275.53L465.5 276.99L466.05 278.66L467.33 279.55L465.91 279.3L465.71 280.22L465.96 280.85L467.21 281.06L465.57 282.78L465.77 284.47L462.57 285.53L462.34 284.53L460.55 284.78L460.53 282.35L457.43 281.24L457.39 279.14L456.33 278.21L452.7 277.63L450.16 278.1L449.21 279.79L447.43 280L444.94 281.92L443.93 281.17L442.79 281.71L442.93 280.25L442.35 278.37L441.92 278.06L442.15 277.51L441.87 277.07L440.81 277.67L438.46 276.5L434.76 283.72L433.05 282.86L431.65 283.13L430.57 282.86L429.29 287.04L423.4 286.88L417.72 286.19L417.27 284.99L415.58 285.87L415.19 285.55L414.6 286.82L414.03 285.28L412.03 285.98L410.17 285.06L407.93 247.76L416.18 238.14L417.02 238.07L417.34 236.22L418.35 235.44L418.31 234.85L418.8 234.81L419.64 233.8L421.27 234.07L421.39 233.04L420.54 231.72L419.93 228.84L418.69 227.21L419.09 226.23L418.39 224.98L418.59 224.41L418.16 224.15L417.96 223.14L417.62 223.21L417.75 222.72L417.34 222.77L417.2 222.38L417.61 221.78L417.11 220.8L417.59 220.84L417.58 220.07L418.06 220.47L417.83 219.49L418.66 218.9L418.1 218.55L419.03 217.48L421.03 219.57L422.63 218.39L424.33 219.42L432.56 213.26L435.03 212.51L435.85 210.86L437.45 210.97L439.34 212.17L439.75 214.85L441.39 215.8L440.85 214.67L441.94 211.68L442.43 211.77L443.44 210.5L444.72 210.03L445.35 210.88L446.94 210.35L449.04 211.93L449.78 211.89L450.5 210.95L449.4 210.26L450.57 209.23L454.86 208.74L454.23 210.21L452.81 210.35L452.79 210.9L453.94 211.62L454.53 211.46L455.33 212.15L456.87 210.64L459.29 213.15L461.23 214.38L462.09 213.46L464.21 213.13L465.15 212.2L464.26 211.19L464.38 209.23L464.78 207.94L466.63 206.01L465.98 204.72L468.33 206.19L469.2 208.1H469.91L470.85 209.41L471.53 209.34L473.4 208.05L473.58 206.41L475.12 207.41L476.76 206.16L478.9 206.79L479.07 206.21L480.02 205.81L480.03 205.36L482.12 205.07L481.7 203.54L484.12 203.38L483.81 200.89L485.17 193.05L486.18 192.92L491.66 195.07L494.59 197.8L495.04 197.71L495.27 196.92L496.16 197.94L496.54 197.81L496.24 196.67L496.95 196.29L497.25 196.85L498.2 197.2L498.82 198.23L498.92 199.71L499.53 200.25L501.13 200.21L501.28 197.96L500.42 197.3L499.83 195.03L500.52 193.67L499.92 192.54L498.5 192.88L498.38 191.68L500.29 190.81L501 191.32L502.35 190.7L502.6 189.51L503.99 188.73L505.57 189.59L506.52 187.44L505.65 186.47L505.92 186.04L510.3 184.05L510.97 184.41L511.12 185L535.26 176.68L536.67 182.77Z" fill="#C7C7C7" stroke="white" stroke-width="2"/>
<path d="M340.05 126.9L341.29 123.66L342.33 123.29L343.94 124.58L346.45 121.75L347.36 114.86L345.31 111.62L348.1 109.13L349.57 109.7L350.23 110.58L350.62 112.22L351.91 113.33L354.62 107.54L353.93 106.73L350.5 105.09L350.68 103.79L351.99 101.58L351.04 99.6L351.85 99.18L352.23 97.88L352.73 97.81L354.2 94.52L355.28 94.02L356.32 92.72L356.05 92.41L358.71 86.49L357.09 83.54L356.42 80.41L353.51 77.39L353.1 76.37L356.31 76.3L359.13 77.5L361.81 75.59L363.71 75.32L364.43 75.54L366.16 77.25L368.42 78.43L368.53 78.19L369.18 78.84L370.1 77.89L370.56 77.97L370.73 76.52L369.99 75.72L370.54 75.21L372.45 74.74L373.2 75.17L375.17 73.35L376.46 73.87L379.39 73.63L381.77 71.24L382.42 71.03L384.19 71.16L385.45 71.96L392.28 72.59L392.87 72.94L393.5 74.76L394.5 74.96L395.03 75.8L395.39 77.39L394.04 77.84L394.07 79.14L395.11 79.56L396.81 79.43L396.11 83.43L396.33 84.71L398.18 83.86L400.1 85.14L399.12 87.36L397.62 88.06L398.44 89.34L397.4 89.95L397.44 90.76L399.36 90.78L401.04 92.45L402.7 91.13L403.46 91.82L403.98 91.49L404.88 95.85L404.06 97.16L402.49 97.46L402.23 97.96L401.55 99.36L401.18 103.2L399.58 103.09L398.2 104.57L398.12 106.1L397.31 106.75L397.77 109.2L397.27 109.29L397.19 111.01L395.08 113.5L395.96 115.3L396.87 113.64L398.29 115.5L399.52 114.45L399.6 113.48L400.94 114.45L402.59 116.5L405.86 115.74L406.83 116.33L408.05 117.66L409.12 122.45L411.65 123.24L412.17 125.74L415.13 127.54L415.99 127.56L416.58 128.34L416.11 130.78L417.07 131.77L416.84 132.88L417.44 134.4L418.71 134.9L418.22 138.15L419.27 140.44L418.56 142.94L417.94 143.73L418.07 144.28L417.71 144.46L417.69 145.56L418.28 146.08L418.65 146.99L418.23 147.69L417.31 147.65L416.91 147.05L416.06 148.33L415.43 148.37L415.31 149.87L414.43 150.95L415.38 151.68L415.93 155.38L415.38 155.82L411.73 155.92L411.32 156.34L409.59 156.15L408.21 156.65L408.04 156.37L407 157.29L406.06 157.45L404.91 156.83L404.5 157.89L404.79 159.04L403.97 159.92L402.34 160.18L401.41 159.32L400.84 159.45L400.79 159.92L400.45 159.79L399.16 161.08L400 163.31L399.86 164.39L400.52 165.5L400.39 168.75L396.62 171.46L395.76 169.05L393.48 167.49L391.95 167.7L391.79 169.32L392.2 169.96L390.64 171.08L390.49 171.86L388.8 171.29L387.36 171.64L387.46 172.77L388.25 173.69L387.87 174.47L388.21 174.64L388.08 175.26L386.07 177.04L385.25 177.15L385.06 178.3L383.99 178.05L383.29 181.11L382.53 182.48L381.53 182.96L381.25 183.99L380.08 184.07L378.99 184.94L378.31 184.63L376.3 186.09L373.21 186.73L371.98 186.07L370.96 186.51L370.39 189.15L369.52 189.93L368.6 190.17L368.04 189.84L366.19 190.39L365.86 191.5L364.12 192.7L360.8 192.01L359.12 193.32L359.03 193.87L359.73 193.83L360.08 194.25L358.86 195.16L358.38 194.68L358.59 193.92L358.11 193.9L358 193.14L357.47 193.07L355.6 194.32L355.04 195.78L352.62 195.79L353.09 196.89L352.87 197.43L351.81 197.89L349.82 197.07L346.23 196.69L343.88 197.98L342.19 197.83L341.31 196.01L337.86 197.03L336.81 195.83L332.7 195.29L331.84 193.87L332.96 192.96L337.51 179.67L332.93 177.14L328.02 176.66L327.56 176.3L327.38 174.6L328.86 171.26L328.79 169.41L330.36 168.52L328.67 165.41L327.86 165.03L326.91 162.32L327.52 161.02L329.12 161.83L329.51 161.66L330.94 159.58V158.64L333.07 157.07L332.36 156.01L333.46 153.79L334.5 152.67L333.87 151.76L334.81 151.19L333.51 149.48L333.25 149.81L332.27 149.54L331.49 147.54L330.83 147.21L331.13 146.35L331.91 146.18L332.86 142.85L337.16 140.28L338.03 133.63L335.67 130.01L339.48 127.89L340.05 126.9Z" fill="#C7C7C7" stroke="white" stroke-width="2"/>
<path d="M457.22 315.06L458.11 315.28L458.22 317.1L458.93 317.6L460.43 316.95L460.15 317.9L461.3 318.27L462.35 319.72L465.2 318.76L465.68 319.61L468.04 319.51L468.73 318.6L469.43 318.88L470.47 317.81L470.95 317.92L471.32 318.92L472.63 319.67L473.19 319.42L473.63 319.92L474.62 319.79L475.16 321.31L476.84 319.9L477.23 320.36L478.73 320.25L478.87 319.9L479.18 320.95L480.25 322.29L483.42 320.59L484.92 321.17L487.57 320.36L488.54 320.38V321.99L489.88 320.52L490.82 320.63L492.53 319.95V319.45L495.43 317.86L495.8 321.54L496.66 321.5L497.45 322.52H497.8L497.97 321.75L498.34 321.91V322.61L500.14 322.93L503.21 322.66L503.24 323.41L506.45 324.05L506.63 323.48L504.77 321.88L504.46 320.36L503.47 318.54L503.75 317.6L504.74 317.52L504.6 316.88L504.95 316.69L506.34 317.69L506.68 316.63L507.08 316.78L509.02 314.97L509.31 315.49L508.96 316.15L509.65 316.78L511.44 316.58L513.11 319.42L513.37 320.95L515.17 320.36L515.83 322.31L516.25 321.91L518.53 321.75L518.38 322.52L521.1 324.21L523.23 323.7L526.28 325.57L526.84 324.71L526.68 322.2L527.76 322.25L528.02 323.89L527.44 324.16L528.24 325.04L529.16 324.75L530.23 325.45L530.01 326.85L529.64 327.53L529.07 327.48L528.87 328.56L527.75 328.6L527.87 328.97L527.12 329.9L526 329.51L526.07 330.7L524.91 332.04L524.34 335.06L527.42 335.19L527.81 337.38L529.36 337.52L529.61 338.53L530.34 338.91L531.38 338.53L531.25 339.5L531.72 339.89L532.66 338.13L533.54 338.11L534.1 336.72L534.74 337.15L535.96 336.2L538.55 335.83L539.23 336.19L539.86 336.24L540.48 335.94L542.39 336.77L543.68 336.61L544.01 337.04L544.73 336.9L546.15 337.48L546.75 337.16H550.38L551.37 337.56L550.93 339.01L550.18 338.96L550.27 339.98L550.95 339.94L551.01 340.28L550.02 340.56L549.88 341.38L549.2 341.68L549.51 342.32L549.3 344.21L548.82 344.72L548.52 344.47L547.99 344.83L547.47 344.31L546.61 344.95L545.96 344.56L545.48 345.01L546.43 345.7L547.14 347.3L546.7 349.08L548.59 350.64L547.18 351.72L548.76 351.83L548.68 353.41L549.56 354.53L550.17 354.65L548.49 355.57L548.13 358.98L546.79 358.5L546.47 359.39L545.73 359.46L545.25 356.3L544.65 357.13L543.43 357.58L542.76 359.07L541.01 357.75L539.37 359.1L539.24 360.79L537.74 360.81L537.93 361.44L534.74 364.79L533.92 366.74L534.63 367.42L534.44 368.19L534.97 368.65L534.5 369.58L534.65 370.37L535.43 371.52L536.48 372.14L536.46 373.61L535.44 374.53L535.52 375.01L535.7 375.45L536.89 375.22L537.01 375.93L535.15 377.27L534.59 378.46L533.12 378.09L532 378.86L529.19 382.19L529.26 383.18L529.98 384.38L529.84 385.49L530.51 386.55L530.4 387.64L531.52 389.76L531.76 392.62L531.26 391.9L529.25 391.81L526.48 389.25L525.07 389.14L524.74 388.12L523.73 388.09L523.42 387.22L521.28 387.5L520.1 386.44L517.09 386.85L513.94 385.53L510.14 385.17L508.42 384.24L506.49 382.38L505.23 382.36L504.24 381.5L502.76 381.55L501.82 380.88L502.37 380.17L502.51 378.79L501.3 377.47L497.92 377.4L497.67 376.62L496.33 376.07L495.42 377.55L494.74 377.43L493.37 377.98L492.71 376.76L493.59 375.8L493.61 374.87L492.48 374.55L491.27 372.55L489.61 372.5L488.46 374.02L485.55 375.57L484.9 376.44L485.28 377.22L485.02 379.61L484.09 379.89L482.74 381.36L480.97 381.87L479.65 381.51L478.91 383.02L477.33 381.73L477.42 382.43L478.11 382.96L477.18 385.28L475.37 385L476.8 383.34L476.71 382.72L474.71 381.89L473.33 380.7L472.81 381.64L473.55 382.75L472.84 383.83L472.1 383.41L470.87 384.15L469.73 383.34L469.63 384.2L467.48 384.38L467.06 385.19L467.95 385.33L467.88 385.84L467.32 386.21H465.28L461.77 390.79L461.74 394.16L459.45 392.87L459.71 391.56L459.35 391.44L459.44 389.43L459.09 389L458.37 390.17L457.02 390.79L456.86 391.88L457.25 392.69L456.54 393.7L453.32 393.06L450.92 391.54L449.83 388.14L449.77 386.64L448.04 382.56L448.88 381.73L449.7 379.73L446.14 379.41L446.55 378.62L446.86 378.93L447.23 378.56L447.8 379.13L450.69 373.79L445.37 369.33L447.97 365.13L450.39 363.06L451.33 361.66L450.89 359.39L450.32 358.96L449.83 359.28L449.85 357.51L449.28 357.44L448.59 358.64L448.11 358.59L448.08 356.78L447.02 354.79L446.09 354.01L446.43 352.82L447.02 352.95L447.46 352.29L448.62 352.61L449.28 351.54L450.33 351.19L449.73 350L449.81 348.45L449.22 347.99L450.48 347.57L450.53 345.49L449.37 344.51L448.59 344.56L447.36 345.75L446.74 345.47L445.72 345.74L445.34 346.45L445.06 346.23L444.84 344.24L444.32 343.6L443.41 343.62L443.26 342.32L442.82 342.18L444.13 340.63L444.15 339.99L443.07 337.75L443.27 336.67L442.61 335.56L442.7 334.92L444.78 333.52L443.15 331.06L440.97 330.95L440.31 330.27L439.83 330.49L438.57 329.31L440.59 328.56L441.16 326.19L442.87 324.64L442.95 323.43L442.39 322.68L442.55 321.38L440.99 320.09L442.05 317.92L442.79 317.79L443.32 318.72L444.29 318.92L446.48 317.69L448.3 317.65L448.74 318.24L449.37 318.18L449.48 316.4L450.67 315.4L451.53 315.6L452.04 316.19L454.07 315.81L454.32 315.33L455.83 315.92L456.56 314.95L457.22 315.06Z" fill="#C7C7C7" stroke="white" stroke-width="2"/>
<path d="M213.63 279.52L215.54 280.08L214.44 283.11L214.76 284.55L213.99 285.9L214.22 286.49L213.2 287.48L212.62 289.24L211.4 289.22L210.69 289.9L210.13 289.56L209 286.12L209.99 282.1L209.63 281.76L210.12 280.92L209.9 280.35L213.63 279.52ZM226.72 267.01L226.26 267.21L225.33 270.03L223.19 270.64L223.61 268.9L223.88 269.42L224.65 269.15L225.14 267.59L225.99 267.48L226.25 266.44L227.34 265.22L226.72 267.01ZM193 245.9L193.1 246.55L193.9 247.15L193.85 248.2L191.85 245.85L192.19 244.55L193 245.9ZM225.98 180.91L231.21 185.41L235.71 183.84L240.35 186.01L246.94 187.47L249.95 188.95L250.32 187.78L252.86 185.92L254.21 185.1L256.98 184.3L258.29 182.66L259.2 178.12L262.92 175.98L263.71 174.47L264.66 173.81L265.34 173.74L266.19 174.27L268.58 176.84L266.99 178.43L266.85 178.99L267.29 179.12L267.43 180.03L270.14 179.63L271 178.81L276 176.42L278.42 171.67L280.83 172.8L282.36 172.2L283.55 173.52L284.63 173.65L286.53 174.96L288.97 174.16L289.64 175L291.22 174.6L292.69 172.35L295.42 170.62L296.09 171.42L297.37 171.82L297.54 172.57L299.18 173.1L300.66 174.87L299.52 180.44L299.7 182.86L300.13 184.83L300.54 184.99V186.27L301.19 187.24L301.03 187.68L301.86 187.97L302.51 187.37L303.22 187.33L303.95 183.94L304.92 183.58L305.4 181.41L305.65 180.99L306.8 180.84L307.54 179.02L308.88 179.31L309.53 178.27L310.51 178.12L310.48 179.03L311.41 179.36L313.13 178.9L313.59 177.28L314.97 176.26L314.45 175.58L315.55 175.74L315.81 176.36L320.44 176.73L322.98 177.42L324.16 176.62L327.6 176.29L328.06 176.66L332.97 177.14L337.56 179.68L333 192.96L331.88 193.87L328.81 195.47L329.07 195.83L328.5 197.8L328.98 198.07L329.45 197.12L329.83 197.47L329.98 200.67L330.65 201.87L330.4 202.98L331.76 203.6L331.78 204.04L330.52 204.51L327.57 204.58L326.21 205.2L325.95 205.58L326.57 206.65L325.96 207.03L325.37 206.88L324.96 207.7L325.02 209.14L324.62 209.76L325.23 209.89L325.01 210.74H324.38L323.61 211.79L323.2 211.83L323.25 210.61L322.44 210.65L320.03 213.48L317.68 214.41L316.12 214.16L315.24 216.1L314.17 215.85L311.68 216.61L311.28 219.22L309.43 220.27L309.96 229.18L308.22 231.51L306.97 230.86L307.25 235.85L305.77 245.66L306.6 249.4L312.21 248.15L316.82 249.77L317.4 249.59L317.51 248.99L318.07 251.32L319.47 250.2L321.21 249.82L322.81 250.79L325.16 256.04L333.36 257.39L333.73 261.23L334.19 261.72L332.88 261.94L331.51 262.79L331.32 263.35L331.35 264.09L331.95 264.41L332.49 265.76L332.69 267.13L332.14 267.83L332.65 270.64L332.25 271.45L331.25 271.43L331.23 272.78L330.66 272.46L330.34 271.29L330.61 271.18L330.03 270.48L329.46 270.41L328.44 271.13L328.35 272.03L327.33 272.52L324.65 272L322.87 273.13L322.81 274.14H324.17L323.83 275.97L322.61 275.99L322.15 276.58L322.06 278.18L322.33 278.63L322.84 278.47L322.93 279.69L322.16 279.96L322.25 280.66L321.71 280.88L321.11 280.79L321.65 279.32L321.08 277.29L320.34 276.03L319.59 276.75L319.51 278.1L320.32 279.43L319.77 280.45L318.49 280.23L318.43 281.81L319.75 283.46L320.55 283.21L321.28 283.95L320.66 286.98L320.18 286.86L320.27 285.8L319.25 285.78L318.78 286.96L317.81 285.72L313.91 285.67L313.66 287.36L314.59 288.71L310.75 290.86L309.81 293.1L309.78 294.18L311.21 294.95L311.69 298.71L312.15 298.5L312.26 299.57L312.74 300L310.43 303.58L309.3 304.6L307.87 305.26L303.96 304.97L294.13 311.48L292.47 311.93L290.35 308.82L284.09 310.21L284 313.37L281.32 313.98L279.25 316.52L277.53 314.4L275.18 314.61L274.68 314.83L274.8 315.88L273.21 317.81L272.69 317.74L271.3 315.96L269.1 314.25L267.67 315.82L265.64 316.32L265.06 317.18L263.2 317.02L262.6 318.89L261.91 318.98L262.03 319.78L257.46 320.87L255.94 323.46L256.04 323.82L257.29 324.25L256.62 325.8L257.27 328.94L252.82 331.4L252.5 331.42L252.13 330.32L248.73 329.7L247.39 329.86L247.09 329.18L247.81 328.09L247.78 326.29L249.04 323.81L249.51 321.83L250.32 321.21L250.49 316.32L251.77 313.8L252.02 311.35L253.59 307.56L254.14 307.63L255.81 305.82L256.2 302.87L257.39 300.26L259.21 294.49L259.25 292.27L258.7 291.63L259.21 291.11L258.91 290.5L257.89 289.89L257.84 289.12L258.73 287.87L258.99 286.31L258.59 285.29V284.47L258.68 283.97L259.48 283.77L258.43 281.81L259.08 280.66L258.85 279.53L258.01 278.51L257.87 276.21L257.41 275.71L256.58 276.45L257.97 271.24L258.45 270.34L257.56 269.35L259.08 267.77L258.69 267.01L259.45 265.14L259.15 264.15L257.98 263.39L258.29 262.76L259.4 262.98L260.1 261.22L262.15 260.5L263.38 259.17L266 257.8L268.4 255.03L269.08 253.82L269.26 250.12L268.66 247.85L267.27 245.9L264.16 241.48L263.54 241.52L260.01 240.22L259.37 238.83L258.84 238.58L258.24 238.74L256.9 238.54L255.96 238.29L255.04 237.8L253.02 237.67L250.73 238.12L245.11 238.28L243.14 239.08L242.2 240L241.39 241.99L241.34 245.2L240.87 246.99L241.19 248.85L240.24 251.27L240 254.12L238.71 256.39L239.37 257.6L238.77 257.94L235.6 258.32L234.52 259.06L233.97 258.77L233.19 258.95L232.41 258.84L230.96 259.85L229.9 258.73L229.43 259.54L229.68 259.9L228.59 260.37L228.83 261L228.16 261.85L227.33 261.91L226.87 262.27L226.41 263.42L225.08 264.09L225.24 265.76L224.64 266.28L224.32 264.32L221.99 263.2L220.54 262.3L219.53 260.21L219.18 258.19L218.53 257.87L217.82 256.54L217.54 254.58L216.58 253.12L216.21 253.34L215.84 253L214.65 249.77L213.61 249.72L213.38 250.01L213.98 252.75L213.68 254.28L212.48 251.76L211.74 251.27L211.84 251.76L211.82 252.64L211.1 251.87L211.04 250.97L210.52 250.81L209.87 249.4L209.05 248.7L208.03 248.88L207.7 249.75L205.34 248.05L204.9 250.81L204.46 251.04L202.78 249.58L201.99 249.53L199.71 244.76L198.24 242.79L197.22 243.28L197.33 244.54L196.71 244.97L197.26 246.54L196.26 246.77L194.58 245.31L193.92 245.87L193.45 245.55L193.42 244.88L192.72 244.79L191.76 243.53L191.51 243.8L191.16 245.15L191.14 245.75L191.33 247.41L190.1 246.9L188.77 244.77L189.33 244.17L189.3 242.51L188.47 241.48L188.5 240.56L187.7 239.58L187.73 239.06L186.7 238.07L186.53 235.88L185.77 234.6L185.8 233.73L184.24 231.32L183.97 229.57L183.54 228.85L183.06 227.11L183.16 226.3L183.61 226.1L183.84 224.47L183.58 223.96L183.73 221.66L184.41 220.66L184.24 219.23L183.4 218.98L183.82 217.53L184.39 217.38L184.32 216.33L183.25 215.57L183.66 214.99L183.28 214.52L184.14 214.03L184.13 213.69L183.32 213.55L183.8 212.7L182.82 213.17L182.98 212.05H182.52L182.11 212.5L181.45 213.59L181.83 214.24L180.99 214.8L180.54 214.71L180.67 213.86L179.55 214.1L179.16 213.27L178.35 212.98L177.83 211.87L176.99 210.65L176.58 211.09L178.3 208.78L179.06 209.8L180.68 210.38L182.09 208.91L184.55 208.47L186.17 208.63L187.87 210.5L189.16 211.14L190.27 209.74L192.32 210.54L193.15 209.18L194.64 208.38L196.06 208.22L196.65 206.6L198.22 207.53L198.63 207.26L200.13 207.88L201.01 206.83L202.23 207.41L204.11 207.17L205.68 208.26L205.64 205.81L204.72 205.1L203.39 203.05L201.39 198.58L201.2 197.71L202.68 196.8L201.78 193.82L200.44 192.16L201.09 191.78L203.3 193.67L203.09 194.58L206.75 197.24L208.36 197.66L209.37 195.95L209.61 194.7L212.45 193.28L212.4 190.44L211.77 187.98L211.16 187.54L211.06 185.24L211.42 184.75L213.27 183.69L214.22 184.64L214.42 185.72L217.78 186.4L217.45 185.58L221.94 184.29L222.36 184.78L224.89 182.72L225.98 180.91Z" fill="#C7C7C7" stroke="white" stroke-width="2"/>
<path d="M400.321 8.41998L401.431 7.98996L401.191 8.84998L401.901 8.86996L401.741 9.27997L402.191 9.55997L402.691 9.27997L402.551 9.91998L401.941 9.80997L401.581 10.47L402.541 10.96L402.661 10.59L403.051 10.5L402.591 11.53L403.231 12.15L403.921 12.02L405.561 10.65L405.871 9.27997L406.291 9.29996L406.581 10.16L407.381 10.22L408.921 9.12997L407.901 10.65L407.911 11.33L408.321 11.12L409.171 12.04L409.521 12.71L409.581 13.4L411.231 14.13L412.061 13.94L413.141 14.61L413.211 15.08L412.711 14.57L411.681 15.19L411.781 16.07L412.781 17.44L414.541 17.18L417.311 17.69L424.551 16.92L429.051 17.35L429.811 18.53L430.281 18.46L430.931 19.81L432.101 20.19L434.441 22.88L435.541 23.07L437.941 22.64L438.951 23.8L443.571 24.34L443.771 24.86L444.861 24.9L444.681 25.87L446.611 27.12L447.711 27.03L447.991 27.8L448.491 28.08L448.721 29.03L450.091 29.96L450.351 30.6L451.511 31.05L451.971 30.45L450.771 29.57L452.191 29.8L454.991 28.92L455.011 29.52L455.551 29.8L457.881 28.98L459.531 25.9L459.331 24.91L457.591 23.77L459.341 24.22L459.541 22.93L460.141 24.02L460.901 23.78L461.021 23.37L462.441 23.82L462.841 24.62L465.151 24.6L465.991 25.68L466.121 25.98L466.831 26.43L468.961 26.52L470.211 27.85L471.301 27.94L471.251 28.95L471.851 29.77L472.351 29.23L473.071 29.77L474.051 29.12L474.481 29.51L474.191 30.29L474.641 30.59L473.981 31.47L474.411 31.73L474.321 32.14L475.641 32.57L475.591 33.28L475.221 34.03L475.791 34.65L475.581 35.14L476.531 35.87L476.401 37.33L477.431 38.49L478.141 40.3L478.041 45.71L478.771 48.28L478.841 50.63L476.681 50.26L475.421 48.6L472.781 49.83L472.511 50.13L473.791 51.15L473.311 51.39L475.171 54.76L474.241 55.23L474.751 55.83L474.051 55.81L473.991 56.61L471.361 57.71L470.141 59.46L470.391 60.02L471.361 60.34L472.041 59.19H472.651L473.751 60.68L477.211 60.18L479.581 61.46L479.761 62.28L481.161 62.39L480.331 64.08L478.531 63.62L478.081 65.37L477.171 65.15L476.061 69.42L474.911 71.15L473.911 71.72L474.561 72.57L473.791 76.82L474.801 76.76L475.651 81.73L483.731 77.26L484.381 82.45L483.701 83.36L487.211 85.43L490.641 86.52L491.471 87.43L492.561 89.91L491.541 91.98L492.171 92.7L493.361 92.55L493.821 95.58L492.721 95.64L492.281 98.99L492.721 99.79L492.061 100.81L490.081 100.9L489.741 99.74L488.791 99.02L488.381 100.37L484.871 100.78L483.451 103.13L482.161 104.03L481.341 103.35L481.041 103.5L480.081 118.73L481.401 119.56L481.371 120.22L481.321 120.68L479.381 122.04L479.271 124.56L479.801 126.22L479.571 127.47L477.751 129.97L473.161 130.78L472.551 131.92L470.741 132.93L469.991 132.89L469.661 131.9L468.761 132.07L462.631 134.73L460.171 136.71L456.871 138.31L454.721 138.2L455.181 137.54L454.891 136.37L453.701 135.62L449.901 136.3L450.091 137.29L448.361 138.1L448.651 140.12L446.871 140.43L447.711 143.57L447.511 144.23L446.091 144.73L446.251 146.38L443.721 146.89L443.071 147.37L443.171 148.25L442.561 148.64L441.371 148.22L439.171 148.57L438.891 147.78L438.201 147.91L437.921 146.31L437.131 145.83L436.471 144.12L435.751 143.99L435.391 143.33L436.211 142.82L435.601 140.49L433.051 140.6L431.501 141.17L430.811 142.47L430.071 141.72L429.171 141.96L428.861 144.66L426.771 145.39L418.471 146.2L417.881 145.69L417.901 144.59L418.261 144.41L418.131 143.86L418.751 143.07L419.461 140.57L418.421 138.28L418.901 135.03L417.641 134.53L417.031 133.01L417.271 131.91L416.301 130.92L416.781 128.48L416.191 127.71L415.331 127.69L412.371 125.89L411.861 123.39L409.331 122.6L408.261 117.81L407.041 116.48L406.071 115.89L402.801 116.65L401.151 114.6L399.811 113.62L399.731 114.6L398.501 115.65L397.081 113.79L396.181 115.45L395.301 113.64L397.411 111.15L397.501 109.44L397.991 109.35L397.541 106.9L398.351 106.25L398.441 104.72L399.821 103.24L401.421 103.35L401.801 99.51L402.481 98.11L402.751 97.61L404.321 97.32L405.141 96.01L404.241 91.65L403.731 91.98L402.971 91.3L401.311 92.61L399.631 90.95L397.711 90.93L397.661 90.12L398.701 89.51L397.881 88.23L399.391 87.53L400.371 85.31L398.441 84.03L396.601 84.88L396.371 83.6L397.071 79.6L395.371 79.73L394.341 79.3L394.301 78L395.651 77.56L395.301 75.97L398.401 75.47L399.301 74.71L398.511 73.3L398.871 72.28L397.701 68.68L398.161 67.68L397.141 62.91L397.421 61.18L396.731 58.3L395.771 56.42L393.881 54.36L393.721 52.2L392.621 51.12L393.161 50.43L392.661 49.52L393.841 47.38L393.781 46.64L392.941 45.56H392.341L392.101 44.05L390.201 44.24L388.941 43.92L387.461 32.45L386.131 29.95L386.221 29.33L384.621 28.88L384.791 27.63L384.311 25.97L387.701 24.57L388.601 23L387.591 21.47L389.401 20.14L390.031 20.74L391.341 19.73L391.581 17.2L390.891 16.17L391.421 14.93L390.771 12.4L391.071 9.97998L392.091 11.59L395.021 11.89L395.481 11.42L396.491 14.44L395.241 16.26L395.201 17.53L395.791 18.22L397.101 18.88L398.871 18.94L400.701 18.1L401.401 17.01L401.501 15.44L401.001 14.88L401.281 13.18L400.061 7.85999L400.321 8.41998Z" fill="#C7C7C7" stroke="white" stroke-width="2"/>
<path d="M126.621 169.1L126.701 169.9L125.391 169.28L126.151 168.66L126.621 169.1ZM123.791 166.76L123.151 168.77L123.081 168L121.981 167.03L122.741 166.77L122.531 165.82L122.921 165.56L123.931 166.2L123.791 166.76ZM106.671 164.9L107.861 165.56L107.621 165.74L108.041 166.55L107.541 167.17L107.471 166.49L107.751 166.53L107.411 166L107.111 165.96L106.851 166.05L106.371 166.22L106.421 165.84L106.491 165.51L105.991 165.45L106.671 164.9ZM117.611 159.65L118.091 161.32L119.621 161.94L119.851 163.68L119.431 164.08L119.501 164.65L118.921 163.37L119.021 162.64L117.561 161.67L116.891 160.72L117.081 159.71L117.611 159.65ZM106.251 157.74L107.141 157.81L106.981 158.54L107.991 158.96L106.231 160.26L106.481 160.55L106.151 161.92L106.561 163.07L107.241 163.13L107.341 163.66L106.921 163.73L107.461 164.48L107.181 164.77L106.571 164.48L105.821 165.1L105.951 164.31L104.901 164.64L104.611 164.31L103.861 165.15L104.341 166.19L103.471 166.08L103.171 165.42L102.561 165.6L102.511 166.51L102.171 166.2L101.341 167.86L101.841 168.26L101.891 169.07L101.431 168.54L100.601 168.8L100.071 168.11L100.561 168.15L100.971 166.89L100.261 166.74L100.271 167.78L99.9907 167.52L99.4107 167.87L98.9907 167.45L98.4207 167.78L98.5407 166.7L98.0207 166.22L98.0307 165.84L97.1007 165.26L95.7207 161.91L96.6307 162.24L98.1107 164.49L98.7807 164L98.1307 163.27L97.6507 163.34L97.6307 162.79L98.5307 162.9L98.4007 163.26L98.7507 163.54L100.401 162.75L100.751 161.91L100.761 159.31L101.331 159.55L102.061 158.67L102.541 158.65L103.201 159.55L104.301 159.77L106.251 157.74ZM125.041 157.38L125.921 158.97L124.841 161.66L123.961 160.67L124.731 160.12L124.651 159.41L125.271 159.56L124.221 157.42L125.041 157.38ZM130.511 155.73L130.871 156.22L131.961 156.44L132.031 157.37L131.541 157.21L130.231 158.16L129.481 157.43L129.171 155.88L130.001 155.19L130.511 155.73ZM118.581 138.13L119.371 138.37L119.901 139.49L120.301 139.18L120.391 139.57L122.261 140.56L122.741 142.76L121.711 143.97L121.641 144.58L119.681 142.32L119.651 139.73L118.481 138.81L118.581 138.13ZM79.9607 109.86L80.8607 109.81L82.4607 111.03L85.9307 109.87L89.7607 112.69L90.0607 113.35L89.1107 113.96L88.6907 117.7L89.3607 119.43L89.1107 120.59L89.6307 121.2L89.3807 122.23L90.9007 124.48L93.3007 125.11L95.0807 124.25L95.3907 124.75L97.1307 125.17L98.1107 125.92L99.0507 125.88L100.111 126.47L101.261 126.08L102.611 126.94L103.011 126.61L102.581 126.13L103.401 125.28L104.651 126.42L105.601 126.4L105.461 127.06L106.621 128.18L106.561 129.36L107.511 129.67L107.851 130.37L108.751 129.36L109.151 129.82L109.211 129.03L109.541 129.01L109.331 129.84L109.761 129.71L109.491 130.35L110.371 130.17L110.771 130.5L112.621 129.08L113.061 129.23L111.921 131.12L112.491 132.61L114.391 133.92L114.231 134.51L112.641 134.38L112.461 135.26L112.831 135.39L113.061 136.75L115.181 139.21L115.981 141.28L117.121 142L118.531 141.6L118.961 142.9L120.691 144.68L121.061 145.58L120.691 145.98L121.371 147.06L120.801 147.96L123.131 150.4L123.411 151.28L123.021 151.85L125.171 155.79L124.161 156.98L121.081 158.21L120.571 154.13L119.741 154.62L119.661 155.3L118.511 155.96L118.291 155.25L117.021 154.26L115.551 153.49L114.581 153.43L114.421 154.03L113.421 154.2L113.181 154.86L114.491 157L114.131 157.86L112.231 157.05L111.581 155.95L111.811 155.29L111.631 154.94L111.271 155.18L110.991 154.34L110.381 155.16L110.391 155.64L111.201 155.82L110.831 157.32L110.231 157.78L110.791 157.82L110.931 158.5L110.561 158.88L109.681 158.48L109.291 157.29L107.761 157.18L105.461 156.01L105.381 157.55L102.881 157.95L102.471 158.54L101.901 157.77L100.731 158.26L100.211 158.92L99.3507 159.21L99.2707 160.12L98.6707 159.74L98.4107 158.92L97.7507 159.45L97.6307 159.07L96.9507 159.09L96.5807 159.55L97.1507 161.07L96.2607 160.47L95.9507 160.31L96.2007 159.6L95.7107 159.82L95.3207 160.41L95.5207 161.22L94.7107 162.03L95.5907 162.38L95.9907 164.34L95.2007 163.79L94.3707 162.11L93.2107 161.51L93.3707 162.64L92.4607 163.12L92.0007 164.4L92.2207 165.31L91.3207 166.88L91.4807 167.17L92.2507 167.35L92.7707 167.88L91.9207 168.7L92.0207 169.16L91.5707 169.22L91.4907 170.21L88.4707 176.16L87.0207 181.32L86.7007 181.16L84.4307 182.2L81.7207 182.04L79.5507 182.97L77.4807 183.3L73.9707 181.93L73.2307 182.46L73.0807 181.97L69.0207 179.85L69.6407 179.61L69.4607 178.53L68.2507 178.42L67.9107 177.98L68.7207 177.74L67.8207 177.34L67.8507 176.78L68.8807 177.07L69.3307 176.36L71.0707 176.54L71.7107 176.23L71.8407 175.26L70.6707 173.67L69.7807 173.38L70.1607 172.81L69.5107 171.73L68.0607 171.27L67.4707 171.53L67.5707 170.93L68.1107 171L68.3907 170.38L69.1607 170.14L69.4707 168.61L69.2307 167.37L68.5607 166.42L67.3707 166.11L66.3907 165.05L65.8507 165.01L66.1207 163.95L67.5607 163L67.6907 162.42L66.9007 161.82L67.1307 161.49L64.8707 161.44L67.1307 160.82L67.2307 160.27L66.2707 160.33L66.9107 159.76L67.1907 157.66L66.8307 155.02L66.4007 154.03L65.5407 153.54L65.6007 152.92L64.9807 152.74L65.2307 151.9L64.3007 149.85L61.2407 146.13L58.2907 144.83L54.7707 145.6L54.1207 146.35L54.1907 147.16L53.6607 146.79L53.0207 147.47L52.6307 147.31L52.7707 146.74L50.7107 145.71L48.9807 146.52L48.8807 147.24L48.3607 147.63L46.0107 147.48L45.3707 147.99L44.4607 147.81L43.6607 148.25L42.1007 147.96L41.9507 147.52L40.1007 147.72L39.6407 146.77L39.1507 146.33L38.5407 146.4L37.9707 145.45H37.0107L36.6307 143.12L32.0307 141.39L30.0707 141.21L29.6107 140.42L28.8407 140.92L27.4707 139.38L28.2407 138.85L28.5807 137.51L27.8407 136.91L28.8407 136.41L30.0107 136.69L30.5207 136.29L30.6307 136.2L31.9107 135.81L32.1307 136.36L33.6707 137.02L36.2807 136.76L37.2107 137.51L43.1007 138.28L44.4507 137.75L46.3307 137.95L47.6707 136.7H48.4007L49.7707 135.76L51.7707 136.46L53.3007 135.49L57.1407 137.43L57.7307 137.89L59.1907 138.44L61.2507 138.11L62.9907 136.18L63.7607 134.47L63.9007 133.09L62.9407 132.54L62.9307 131.93L63.9507 131.91L64.6107 133.22L65.5407 133.86L66.6507 133.51L66.4207 132.1L67.0707 133.15L68.2607 132.8L68.0007 131.94H67.3207L65.3907 128.91L65.2907 127.09L67.6307 127.86L68.1207 127.75L68.3207 127.33L68.8507 127.79L68.8007 128.14L68.5707 128.73L69.9407 129.71L71.3507 128.66L70.3607 128.75L70.2407 128.12L69.4907 127.59L69.5707 126.91L70.8607 125.83L69.5707 125.22L70.2907 124.76L69.5807 123.95L70.4407 124.06L69.0807 123.03L69.5807 122.9L69.2007 121.56L68.8007 121.45L69.2007 121.12L70.1107 121.64L70.2207 121.03L71.1807 121.58L72.9307 121.82L74.5707 122.78L74.3707 121.92L75.0607 121.81L75.0407 121.18L74.4407 121.07L74.4007 120.67L74.1107 120.04L76.1807 119.98L76.5707 120.4L77.4507 120.14L77.7607 120.4L78.7307 119.39L78.6207 114.78L79.3207 110.08L79.1307 109.19L79.9607 109.86Z" fill="#C7C7C7" stroke="white" stroke-width="2"/>
<path d="M160.739 156.61L162.889 158.28L163.909 158.32L163.819 158.8L163.699 159.99L163.239 160.14L162.339 159.9L161.989 160.8L160.459 159.37L160.209 158.16L159.759 157.87L159.819 157.06L160.359 156.79L160.269 156.39L160.739 156.61ZM156.369 155.46L156.849 155.83L156.799 155.3L157.289 155.28L157.019 157.5L156.599 156.49L155.569 155.5L156.099 154.62L156.369 155.46ZM155.359 153.77L155.489 154.85L155.159 155.2L154.119 153.83L154.739 153.48L155.359 153.77ZM145.029 135.85L145.459 135.81L146.219 137.24L145.309 137.3L145.179 136.66L144.599 136.27L144.759 135.39L145.029 135.85ZM143.289 135.37L144.449 136.05L143.599 135.85L143.369 136.31L142.989 135.56L143.079 135.19L143.289 135.37ZM155.239 134.27L155.529 134.66L155.099 138.1L154.599 137.42L154.919 136.1L154.559 135.2L154.799 134.39L155.239 134.27ZM137.179 118.49L139.529 119.37L139.869 119.33L140.009 118.57L142.489 119.38L142.169 120.63L143.179 120.65L144.029 121.63L143.999 122.51L144.809 122.36L145.169 120.72L145.529 121.66L146.029 121.83L146.549 120.14L147.469 119.37L148.299 121.03L148.769 120.75L148.869 120.11L149.339 119.71L149.709 120.06L149.909 119.34L151.189 120.57L151.649 121.97L152.709 122.15L152.589 122.96L153.279 123.37L153.159 124.55L155.389 127.27L154.209 130.64L153.529 130.57L152.359 129.63L151.749 129.02L151.089 129.7L150.039 129.42L150.119 128.08L149.729 128.43L149.579 129.79L149.959 130.4L149.399 131.41L148.809 130.8L148.249 131.37L147.939 130.64L147.359 131.34L147.329 130.44L146.649 131.19L145.889 130.97L145.919 132.59L146.169 133.44L148.219 134.1L148.109 134.19L145.849 133.99L142.929 130.54L141.109 129.38L140.609 129.32L139.379 128.95L139.099 129.5L138.979 131.45L139.599 132.85L138.979 132.81L138.489 132.52L138.039 132.5L137.259 131.34L136.559 131.03L136.749 133.53L136.189 133.71L135.879 132.11L135.509 132.26L135.339 133.49L134.739 133.64L134.309 133.42L132.909 130.53L133.449 129.92L134.709 130.25L134.729 129.04L134.329 128.99L133.489 128.71L132.169 126.96L131.939 125.67L130.679 125.27L130.599 124.59L129.829 123.82L129.529 121.37L129.889 120.38L130.439 120.42L130.839 119.76L130.769 118.62L131.889 119.23L132.369 119.1L133.479 118.23L134.159 116.85L135.949 117.37L136.699 118.18L137.179 118.49ZM181.349 80.17L181.679 80.24L181.489 80.72L182.049 80.81L181.969 81.81L182.509 82.44L184.579 83.68L186.019 83.48L187.909 82.13L188.059 87.85H192.779L192.849 93.79L197.569 93.64L198.769 95.43L198.609 96.6L200.739 96.32L205.009 102.12L205.449 100.99L206.829 100.57L207.529 101.11L208.739 100.08L216.939 100.84L219.729 101.67L224.949 104.7L225.169 106.16L224.239 107.56L223.449 107.67L224.239 109.39L223.409 109.69L224.859 111.41L224.879 112.07L227.629 113.73L227.859 115.24L228.799 115.46L229.179 116.01L221.729 123.38L221.599 125.44L222.309 127.89L221.419 130.59L220.139 131.66L221.559 134.45L221.219 134.93L221.499 135.89L222.189 137.45L223.919 139.67L226.229 140.77L225.679 142.44L226.269 144.2L225.559 145.58L227.179 146.28L227.789 145.99L227.989 146.91L227.259 147.42L227.039 148.19L228.559 149.24L228.369 150.63L228.039 150.81L230.029 152.13L229.529 153.6L230.749 153.05L231.269 153.38L231.729 154.72L231.169 157.05L226.999 156.39L226.329 156.99L226.859 157.56L226.809 158.38L226.569 159.57L225.429 161.49H225.949L227.019 163.58L229.079 163.64L229.209 164.68L226.439 165.25L226.419 165.65L223.789 167.81L223.019 169.18L221.569 169.02L220.949 169.55L220.669 171.3L220.899 171.72L221.379 171.23L221.979 172.53L222.589 172.68L224.209 171.84L225.439 173.56L226.699 171.83L227.809 171.1L228.699 172.36L229.439 174.15L228.609 174.74L228.509 175.78L226.009 180.98L224.789 182.6L222.259 184.66L221.839 184.17L217.349 185.46L217.679 186.28L214.319 185.61L214.119 184.54L213.169 183.59L211.319 184.65L210.959 185.14L211.059 187.44L211.669 187.88L212.299 190.34L212.349 193.18L209.509 194.6L209.269 195.85L208.259 197.56L206.649 197.14L202.989 194.48L203.199 193.57L200.989 191.68L200.339 192.06L201.679 193.72L202.579 196.7L201.099 197.61L201.289 198.48L203.289 202.95L204.619 205L205.539 205.71L205.579 208.16L204.009 207.07L202.129 207.31L200.909 206.73L200.029 207.78L198.529 207.16L198.119 207.43L196.549 206.5L195.959 208.12L194.539 208.28L193.049 209.08L192.219 210.44L190.169 209.64L189.059 211.04L187.769 210.41L186.069 208.54L184.449 208.38L181.989 208.82L180.579 210.29L178.959 209.71L178.199 208.69L176.479 211L175.119 210.51L175.849 209.24L174.649 208.51L174.239 208.78L173.959 208.4L173.269 209.34L173.919 206.85L173.539 206.09H173.049L173.199 206.6L172.549 206.42L172.449 205.73L173.169 204.97L172.999 204.04L173.529 203.97L174.169 202.55L172.269 202.57L172.079 200.63L171.619 200.19L170.509 200.59L170.589 201.17L171.879 202.5L171.519 204.43L170.669 204.89L170.889 205.51L171.829 205.57L171.309 206.04L171.739 206.66L171.209 207.73L170.359 208.22L170.729 206.37L170.379 205.93L170.059 206.35L169.169 205.8L168.709 205.53L167.709 205.75L167.059 206.55L166.079 204.64L166.999 203.9L168.069 203.79L167.899 202.9L168.749 200.32L169.039 200.61L169.419 200.87L169.899 200.36L169.619 199.52L169.159 199.39L168.569 199.99L168.389 199.7L168.819 196.68L168.339 196.64L167.319 194.06L166.579 191.73L167.119 191.06L166.169 189.26L166.819 185.95L165.849 185.46L166.359 184.24L165.449 183.84L165.649 183.06L164.809 182.91L167.519 182.24L167.549 181.31L166.959 180.6L167.349 179.51L169.079 180.88L172.709 180.08L173.499 179.08L173.219 178.92L172.649 178.63L171.389 178.07L170.639 177.01L169.789 177.25L169.749 176.58L168.859 176.69L169.499 174.99L168.419 174.5L168.399 174.04L170.189 173.77L173.999 176.11L175.499 175.98L177.649 174.74L178.909 175.16L179.509 174.5L180.479 175.36L181.239 175.27L181.849 174.69L180.649 174.49L181.059 172.65L182.079 173.2L182.669 172.21L183.949 172.83L184.659 172.59L184.629 172.1L185.919 173.14L186.669 172.81L187.129 173.03L188.189 174.18L188.699 174.03L188.929 173.45L189.599 174.73L190.239 174.51L189.869 175.55L190.709 175.48L190.779 176.27L191.439 176.11L191.529 175.73L192.159 175.84L192.359 176.52L191.079 176.56L192.819 177.22L193.019 176.6L194.499 175.45L195.819 176.05L196.319 172.29L195.969 172.07L195.309 172.49L194.849 172.14L195.269 171.12L192.349 171.71L191.399 171.13L191.499 170.71L192.109 171.04L192.589 170.8L191.739 169.78L191.669 168.7L192.009 168.3L191.359 167.33L191.509 166.8L192.349 166.51L192.489 165.61L191.869 165.39L190.959 166.67L190.119 166.87L189.649 166.51L189.669 165.93L188.969 165.67L188.219 165.29L187.689 164.52L186.899 164.54L186.289 164.92L185.229 166.36L183.959 167.16L182.279 166.47L181.229 166.91L180.829 166.11L180.159 166L179.599 165.23L178.689 165.49L177.629 165.13L174.049 166.12L173.079 167.53L171.359 168.28L170.619 168.32L167.589 166.95L164.979 167.55L163.979 168.3H163.679L163.379 167.94L162.599 168.2L161.599 169.44L161.139 169.57L160.739 169.17L161.939 167.98L162.419 166.67L162.139 165.85L161.839 166.29L161.629 165.96L161.649 164.41L162.719 164.98L163.629 164.74L163.039 164.3L163.699 163.93L163.669 162.89L164.409 163.33L165.249 162.45L164.219 161.35L164.359 158.71L165.409 159.83L164.779 159.87L165.189 161.19L166.229 161.25L167.229 162.35L168.869 161.51L169.009 160.91L169.109 160.51L169.429 160.24L168.389 159.47L168.709 157.48L168.219 156.14L166.349 154.02L166.059 154.79L164.969 153.18L164.589 152.87L164.659 151.55L163.559 149.32L160.479 146.66L160.629 145.96L161.479 146.73L161.819 144.64L161.559 144.02L160.679 143.74L160.199 144.58L159.429 143.85L158.839 143.94L158.819 143.39L159.219 143.08L158.799 142.35L159.639 140.19L159.149 138.26L159.279 137.67L159.119 137.25L159.009 136.77L160.439 137.47L161.089 136.66L161.689 136.4L162.309 137.69L163.599 138.5L165.369 137.69L165.479 137.25L166.409 137.14L167.009 136.41L167.659 136.39L168.329 137.11L168.839 136.96L168.539 135.01L168.139 134.29L167.569 132.88L168.429 133.16L169.399 134.91L170.299 135.13L171.099 136.14L172.129 135.75L172.439 135.13L173.289 134.73L174.639 135.12L174.659 134.18L174.989 133.78L175.759 133.76L176.199 133.23L176.009 132.57L174.229 130.66L175.599 131.58L176.049 131.4L175.959 130.56L176.959 131.5L177.259 130.82L177.789 131.08L178.089 130.77L179.829 133.03L180.919 133.2L181.219 132.23L180.729 131.33L181.599 131.35L181.629 130.3L181.189 129.75L181.669 129.2L181.209 128.67L180.449 128.8L180.359 128.19L179.739 127.79L180.409 127.04L179.349 127L177.669 125.53L177.889 125.13L178.819 125.5L178.909 124.84L177.339 123.63L177.139 123.02L177.579 122.78L176.259 121.55L175.869 121.86L176.549 123.19L178.119 124.68L176.319 125.6L177.179 127.99L177.999 129.04L177.979 130.11L176.039 127.89L175.469 125.76L174.679 126.16L174.099 125.92L174.029 124.87L172.899 125.2L172.629 129.8L173.359 130.43L172.699 131.88L172.079 131.81L171.649 131.7L171.029 131.2L171.049 132.17L170.329 131.38L168.759 130.94L166.729 129.38L164.559 130.39L163.419 130.26L160.829 128.29L160.449 127.79L160.399 127.26L158.809 125.7L159.089 125.09L158.039 123.93L157.059 121.32L157.179 120.84H157.729L159.029 122.11L159.739 122.04L160.609 122.56L160.569 121.29L160.939 121.35L161.329 120.93L160.619 119.64L161.019 118.74L161.639 119.15L161.649 118.78L161.049 118.43L160.279 119.15L159.359 118.47L159.919 116.52L159.459 114.36L159.999 112L161.169 112.63L162.139 112.37L164.179 112.78L164.329 112.21L164.989 112.27L164.959 111.07L165.979 110.68L166.949 108.62L167.349 108.51L169.459 109.82L170.059 109.4L168.519 104.14L168.489 103.18L169.159 101.93L168.009 100.97L167.219 95.54L166.679 94.78L165.359 94.08L164.739 91.16L165.239 87.57L166.649 87.42L167.159 86.59L167.229 84.15L168.689 84.67L169.829 86.36L173.559 86.29L176.079 85.07L177.729 83.22L179.229 82.87L180.249 81.28L181.349 80.17ZM152.989 69.79L156.119 70.79L158.079 72.63L159.179 74.41L157.649 74.43L157.489 74.86L158.079 75.64L157.109 75.01L156.469 73.3L155.329 72.69L154.739 72.73L154.329 73.01L152.599 70.36L152.589 69.84L152.989 69.79Z" fill="#C7C7C7" stroke="white" stroke-width="2"/>
<path d="M410.17 285.06L412.03 285.98L414.03 285.28L414.6 286.82L415.19 285.55L415.58 285.87L417.27 284.99L417.72 286.19L423.4 286.88L429.29 287.04L430.57 282.86L431.27 283.13L433.05 282.86L434.76 283.72L438.46 276.5L440.81 277.67L441.87 277.07L442.15 277.51L441.92 278.06L442.35 278.37L442.93 280.25L442.79 281.71L443.93 281.17L444.94 281.92L447.43 280L449.21 279.79L450.16 278.1L452.7 277.63L456.33 278.21L457.39 279.14L457.43 281.24L460.53 282.35L460.55 284.78L462.34 284.53L462.57 285.53L461.1 286.01L460.95 287.97L459.56 290.05L459.78 291.68L458.18 293.45L457.51 295.28L457.96 295.82L457.79 297.81L458.13 297.14L458.98 297.27L458.38 298.61L458.56 300.12L459.55 300.53L459.41 303.48L458.7 303.55L458.59 305.54L457.81 305.59L457.31 306.61L457.98 308.54L459.11 309.33L458.28 309.93L458.64 310.45L458.63 311.22L458.11 311.72L458.25 313.45L457.11 314.54L457.22 315.06L456.56 314.95L455.83 315.92L454.32 315.33L454.07 315.81L452.04 316.19L451.53 315.6L450.67 315.4L449.48 316.4L449.37 318.18L448.74 318.24L448.3 317.65L446.48 317.69L444.29 318.92L443.32 318.72L442.79 317.79L442.05 317.92L440.99 320.09L442.55 321.38L442.39 322.68L442.95 323.43L442.87 324.64L441.16 326.19L440.59 328.56L438.57 329.31L439.83 330.49L440.31 330.27L440.97 330.95L443.15 331.06L444.78 333.52L442.7 334.92L442.61 335.56L443.27 336.67L443.07 337.75L444.15 339.99L444.13 340.63L442.82 342.18L443.26 342.32L443.41 343.62L444.32 343.6L444.84 344.24L445.06 346.23L445.34 346.45L445.72 345.74L446.74 345.47L447.36 345.75L448.59 344.56L449.37 344.51L450.53 345.49L450.48 347.57L449.22 347.99L449.81 348.45L449.73 350L450.33 351.19L449.28 351.54L448.62 352.61L447.46 352.29L447.02 352.95L446.43 352.82L446.09 354.01L447.02 354.79L448.08 356.78L448.11 358.59L448.59 358.64L449.28 357.44L449.85 357.51L449.83 359.28L450.32 358.96L450.89 359.39L451.33 361.66L450.39 363.06L447.97 365.13L445.37 369.33L450.69 373.79L447.8 379.13L447.23 378.56L446.86 378.93L446.55 378.62L446.14 379.41L449.7 379.73L448.88 381.73L448.04 382.56L443.34 383.25L441.66 383.14L436.29 381.16L435.3 382.04L434.49 381.97L433.96 380.98L433.48 380.83L433.53 380.31L433.05 380.29L433 379.5L430.83 379.69L430.46 378.99L429.6 378.56L428.62 376.35L426.89 374.92L426.6 372.48L427.12 371.68L426.37 370.16L425.75 369.81L426.55 369.36L426.36 367.96L425.2 367.73L423.99 366.72L423.7 364.23L422.15 363.15L420.75 362.86L421.51 361.64L422.58 358.22L421.92 357.12L419.83 355.59L417.21 355.01L416.29 353.64L416.79 352.63L416.34 351.83L410.95 349.02L408.89 349.73L407.05 348.15L405.41 348.81L405.25 347.94L405.95 347.3L405.62 345.15L406.4 344.15L406.81 341.06L408.46 337.61L408.89 335.9L408.78 334.3L406.87 333.94L405.65 334.48L404.45 332.41L403.56 332.14L399.89 334.74L397.03 333.44L393.79 333.68L392.79 334.26L392.81 332.84L392.05 332.39L391.71 331.06L390.19 332.59L386.25 331.54L383.25 325.21L383.45 323.93L382.42 322.97L379.77 322.22L378.52 321L377.63 321.31L376.94 323L375.53 324.36L373.34 324.29L373.05 322.9L371.27 322.98L370.02 322.22L369.75 321.02L368.48 319.31L364.01 317.22L364.96 314.65L367.54 309.38L367.75 308.06L368.44 307.52L366.26 302.25L367.04 301.24L368.46 301.73L368.74 301.4L372.77 301.24L373.65 301.49L374.16 302.8L375.2 301.94L376.09 300.38L376.95 300.21L377.23 299.26L378.39 298.02L378.62 296.88L379.37 296.73L379.96 295.82L378.96 294.56L381.76 294.42L382.11 294.78L383.1 294.15L383.7 293.19L384.43 293.67L384.89 292.09L385.92 291.89L386.37 292.36L386.28 291.2L387.2 291.34L387.6 290.53L388.27 290.44L388.03 289.31L389.59 289.35L389.76 288.7L389.34 288.08L389.07 285.92L388.65 285.98L387.94 288.11L387.6 288.18L387.4 287.38L387.29 285.66L389.25 285.26L389.1 284.36L390.42 284.13L390.1 282.46L389.47 282.25L388.99 280.86L391.12 280.85L392.8 281.49L394.09 282.8L394.82 284.74L395.83 285.98L396.25 289.35L399.02 289.78L399.93 289.51L401.37 288.61L401.43 287.54L405.11 286.61L405.16 285.53L405.86 285.12L407.7 285.39L410.17 285.06Z" fill="#C7C7C7" stroke="white" stroke-width="2"/>
<path d="M418.28 146.08L426.58 145.27L428.66 144.53L428.98 141.84L429.88 141.6L430.62 142.35L431.31 141.05L432.86 140.48L435.41 140.37L436.02 142.7L435.2 143.21L435.57 143.87L436.29 144L436.95 145.71L437.74 146.18L438.02 147.78L438.72 147.65L438.99 148.44L441.19 148.09L442.39 148.51L443 148.13L442.9 147.25L443.55 146.77L446.08 146.26L445.92 144.61L447.34 144.11L447.54 143.45L446.71 140.31L448.49 140L448.2 137.98L449.93 137.17L449.74 136.18L453.53 135.5L454.72 136.26L455.01 137.43L454.56 138.09L456.71 138.2L460.02 136.61L462.48 134.62L468.61 131.96L469.51 131.79L469.84 132.78L470.59 132.82L470.88 134.42L471.71 134.49L473.45 136.24L472.55 138.41L473.94 139.45L474.17 141.03L473.38 141.36L473.4 143.18L474.07 146.24L475.21 147.8L478.02 146.81L482.54 146.5L483.08 144.79L484.89 145.47L488.44 145.62L490.82 147.29L491.94 149.87L493.06 149.76L493.47 150.49L516.71 150.6L529.81 152.36L541.22 156.59L532.73 164.81L535.26 176.68L511.12 185L510.97 184.41L510.3 184.05L505.92 186.04L505.65 186.47L506.52 187.44L505.57 189.59L503.99 188.73L502.6 189.51L502.35 190.7L501 191.32L500.29 190.81L498.38 191.68L498.5 192.88L499.92 192.54L500.52 193.67L499.83 195.03L500.42 197.3L501.28 197.96L501.13 200.21L499.53 200.25L498.92 199.71L498.82 198.23L498.2 197.2L497.25 196.85L496.95 196.29L496.24 196.67L496.54 197.81L496.16 197.94L495.27 196.92L495.04 197.71L494.59 197.8L491.66 195.07L486.18 192.92L485.17 193.05L483.81 200.89L484.12 203.38L481.7 203.54L482.12 205.07L480.03 205.36L480.02 205.81L479.07 206.21L478.9 206.79L476.76 206.16L475.12 207.41L473.58 206.41L473.4 208.05L471.53 209.34L470.85 209.41L469.91 208.1H469.2L468.33 206.19L465.98 204.72L466.63 206.01L464.78 207.94L464.38 209.23L464.26 211.19L465.15 212.2L464.21 213.13L462.09 213.46L461.23 214.38L459.29 213.15L456.87 210.64L455.33 212.15L454.53 211.46L453.94 211.62L452.79 210.9L452.81 210.35L454.23 210.21L454.86 208.74L450.57 209.23L449.4 210.26L450.5 210.95L449.78 211.89L449.04 211.93L446.94 210.35L445.35 210.88L444.72 210.03L443.44 210.5L442.43 211.77L441.94 211.68L440.85 214.67L441.39 215.8L439.75 214.85L439.34 212.17L437.45 210.97L435.85 210.86L435.03 212.51L432.56 213.26L424.33 219.42L422.63 218.39L421.03 219.57L419.03 217.48L418.1 218.55L418.66 218.9L417.83 219.49L418.06 220.47L417.58 220.07L417.59 220.84L417.11 220.8L417.61 221.78L417.2 222.38L412.09 216.9L410.96 217.81L405.75 213.33L405.31 207.03L403.04 208.7L401.25 206.99L400.28 207.21L400.3 205.38L399.14 204.74L399.67 203.98L399.48 203.58L400.06 203.27L399.17 201.81L399.26 201.03L396.6 200.51L392.56 198.18L390.92 198.03L387.39 199.27L385.1 199.16L380.45 198.14L379.68 196.72L380.82 196.52L381.53 195.19L383.15 195.16L384.16 193.41L383.62 189.82L381.47 189.44L382.55 188.08L382.88 186.76L383.06 183.28L382.53 182.48L383.29 181.11L383.99 178.05L385.06 178.3L385.25 177.15L386.07 177.04L388.08 175.26L388.21 174.64L387.87 174.47L388.25 173.69L387.46 172.77L387.36 171.64L388.8 171.29L390.49 171.86L390.64 171.08L392.2 169.96L391.79 169.32L391.95 167.7L393.48 167.49L395.76 169.05L396.62 171.46L400.39 168.75L400.52 165.5L399.86 164.39L400 163.31L399.16 161.08L400.45 159.79L400.79 159.92L400.84 159.45L401.41 159.32L402.34 160.18L403.97 159.92L404.79 159.04L404.5 157.89L404.91 156.83L406.06 157.45L407 157.29L408.04 156.37L408.21 156.65L409.59 156.15L411.32 156.34L411.73 155.92L415.38 155.82L415.93 155.38L415.38 151.68L414.43 150.95L415.31 149.87L415.43 148.37L416.06 148.33L416.91 147.05L417.31 147.65L418.23 147.69L418.65 146.99L418.28 146.08Z" fill="#C7C7C7" stroke="white" stroke-width="2"/>
<path d="M222.299 127.88L223.559 127.56L223.319 126.24L225.359 125.21L228.049 120.83L229.659 122.04L230.439 120.85L232.459 119.61L234.829 122.74L235.969 122.95L237.959 121.44L239.169 121.4L239.949 121.9L240.169 123.66L241.719 124.34L241.989 123.52L241.329 121.62L241.859 120.98L242.349 121.38L243.259 120.85L243.319 119.69L242.879 119.71L242.509 118.78L243.169 117.79L244.089 117.38L244.399 115.93L245.119 116.48L245.409 115.84L246.549 115.47L246.859 116.22L248.599 115.27L247.599 113.79L247.969 113.2L247.789 112.35L246.489 112.98L246.179 112.54L247.369 111.54L246.669 110.14L247.099 108.89L248.599 110.01L249.279 110.05L249.629 109.22L255.789 109.05L257.779 107.95L260.339 107.37L265.229 108.06L266.249 108.79L267.369 108.33L267.659 108.59L267.669 103.13L266.299 103.24L265.959 101.87L264.709 100.89L268.189 99.73L266.349 97.29L266.469 95.74L267.429 93.24L267.389 90.58L270.119 91.12L272.659 88.56L273.519 86.25L274.559 86.49L274.839 85.42L277.249 85.45L277.669 85.82L278.939 85.12L279.619 86.1L280.179 86.34L280.809 86.01L281.279 86.86L281.659 86.71L281.299 85.67L282.289 84.82L284.119 87.23L284.899 86.9L285.099 87.32L285.889 87.36L286.729 88.23L287.209 89.56L288.269 89.67L288.779 84.92L292.529 84.99L293.179 84.4L295.729 83.88L298.419 84.54L299.949 83.92L299.229 88.01L299.239 90.93L299.399 92.26L301.119 91.89L301.189 95.87L301.659 96.09L301.209 97.2L304.749 99.16L306.399 99.36L306.989 98.73L308.249 100.16L309.399 99.45L309.989 101.32L311.439 102.78L311.669 103.94L313.989 106.71L318.179 108.24L320.789 108.18L321.469 107.63L322.209 109.05L323.279 108.61L325.279 110.03L326.099 109.86L327.509 110.38L326.169 111.76L325.749 113.02L327.759 116.24L326.619 116.85L327.699 118.69L327.409 119.24L330.529 119.8L330.659 120.17L329.889 120.05L329.729 120.9L332.209 120.94L333.099 121.67L333.319 121.4L334.029 121.64L334.399 122.28L333.479 123L334.629 123.61L334.979 124.38L336.249 124.58L335.999 125.39L336.299 126.37L336.799 126.15L339.319 127.38L340.049 126.9L339.479 127.89L335.669 130.01L338.029 133.63L337.159 140.28L332.859 142.85L331.909 146.18L331.129 146.35L330.829 147.21L331.489 147.54L332.269 149.54L333.249 149.81L333.509 149.48L334.809 151.19L333.869 151.76L334.499 152.67L333.459 153.79L332.359 156.01L333.069 157.07L330.939 158.64V159.58L329.509 161.66L329.119 161.83L327.519 161.02L326.909 162.32L327.859 165.03L328.669 165.41L330.359 168.52L328.789 169.41L328.859 171.26L327.379 174.6L327.559 176.3L324.129 176.62L322.949 177.43L320.409 176.73L315.769 176.37L315.519 175.75L314.419 175.59L314.939 176.26L313.559 177.28L313.109 178.91L311.389 179.36L310.459 179.03L310.489 178.12L309.509 178.27L308.859 179.31L307.529 179.02L306.789 180.84L305.639 180.98L305.389 181.41L304.909 183.58L303.939 183.94L303.209 187.33L302.499 187.36L301.849 187.97L301.019 187.67L301.189 187.24L300.539 186.27V185L300.129 184.83L299.709 182.86L299.519 180.44L300.659 174.87L299.179 173.1L297.539 172.57L297.369 171.82L296.089 171.42L295.409 170.62L292.679 172.35L291.209 174.6L289.629 175L288.969 174.16L286.529 174.96L284.629 173.65L283.549 173.52L282.359 172.21L280.829 172.81L278.419 171.68L275.999 176.42L270.999 178.82L270.139 179.64L267.429 180.04L267.289 179.12L266.849 179L266.999 178.43L268.589 176.84L266.199 174.27L265.339 173.74L264.659 173.81L263.709 174.47L262.919 175.99L259.199 178.12L258.289 182.66L256.979 184.3L254.209 185.11L252.859 185.93L250.319 187.78L249.949 188.95L246.939 187.47L240.349 186.02L235.709 183.85L231.209 185.42L225.979 180.91L228.479 175.71L228.579 174.67L229.409 174.09L228.669 172.3L227.769 171.04L226.659 171.77L225.399 173.5L224.169 171.79L222.539 172.63L221.939 172.48L221.339 171.18L220.859 171.68L220.639 171.26L220.919 169.5L221.539 168.97L222.989 169.14L223.759 167.77L226.389 165.61L226.409 165.21L229.179 164.64L229.049 163.6L226.989 163.54L225.909 161.46H225.389L226.529 159.54L226.769 158.35L226.819 157.53L226.279 156.96L226.959 156.35L231.129 157.01L231.689 154.69L231.229 153.35L230.709 153.02L229.489 153.57L229.999 152.11L227.999 150.79L228.329 150.6L228.519 149.21L227.009 148.17L227.219 147.4L227.949 146.88L227.759 145.96L227.149 146.26L225.519 145.56L226.239 144.19L225.649 142.42L226.199 140.75L223.889 139.65L222.159 137.43L221.469 135.87L221.199 134.92L221.539 134.44L220.119 131.64L221.399 130.58L222.299 127.88Z" fill="#C7C7C7" stroke="white" stroke-width="2"/>
<path d="M140.76 339.03L142.86 340.22L144.24 341.96L144.69 344.89L144.41 346.72L143.92 346.1L143.04 346.54L142.72 345.99L142.16 346.31L141.68 345.28L141.29 345.6L141.19 344.96L140.31 344.52L138.99 345.36L139.35 343.85L138.85 343.48L138.73 341.52L139.81 340.68L139.18 340.27L139.7 338.96L140.02 339.12L140.57 338.34L140.76 339.03ZM68.72 282.08L67.81 283.7L68.01 281.74L68.97 279.68L69.38 279.59L68.92 280.04L69.21 280.85L68.72 282.08ZM71.48 275.4L71.55 275.96L72.17 275.76L72.43 276.59L72.78 276.09L72.65 277.62L73.5 277.26L72.93 278.52L73.8 278.2L73.34 279.71L73.76 280.27L74.32 280.11L74.62 280.9L74.21 281.87L71.58 284.78L71.48 285.59L71.25 285.02L71.57 284.34L71.14 284.52L71.24 283.66L70.64 283.44L70.41 282.53L70 282.48L70.32 281.82L69.6 281.86L68.92 282.47L70.37 279.87L71.35 276.57L70.63 276.59L71.48 275.4ZM78.14 269.35L78.45 269.6L79.13 269.24L80.64 270.7L79.85 272.44L79.39 272.28L79.71 271.56L78.35 271.9L78.23 271.34L78.74 270.41L78.13 270.91L78.06 270.48L77.46 270.43L77.93 268.99L78.14 269.35ZM4.36 247.4L4.9 248.1L5.92 248.17L4.7 248.78L4.62 248.15L3.45 248.62L3.35 247.56L2 247.45L2.15 246.69L2.74 246.2L4.36 247.4ZM15.19 237L15.33 238.46L15.95 238.5L15.87 238.77L14.64 238.79L13.53 239.5L12.82 238.6L12.99 239.22L12.25 238.97L12.39 239.84L10.9 240.6L10.05 240.35L9.71 240.33L9.17 240.55L8.6 240.17L7.46 240.86L7.67 240.23L5.28 238.53L6.3 237.5L7.19 237.83L7.56 237.14L8.41 237.25L8.53 236.96L8.99 237.3L9.21 236.74L9.97 237.35L11.25 237.28L11.67 237.68L11.51 238.1L12.53 238.23L12.76 237.89L11.88 237.06L11.9 236.34L13.33 237.42L14.17 237.15L14.85 236.26L15.19 237ZM126.02 233.4L126.63 233.47L126.28 233.69L126.47 233.96L125.47 233.6L125.64 233.09L126.02 233.4ZM126.32 231.19L126.8 232L127.6 231.8L126.89 232.56L126.07 232.22L126.31 232.6L125.89 232.78L125.71 232.26L126.21 231.75L125.75 231.19H126.32V231.19ZM144.55 229.42L144.69 230.9L145.15 230.75V230.08L145.51 230.26L146.4 229.57L146.17 230.51L145.08 231.63L144.34 231.52L144.19 230.96L144.04 229.42H144.55V229.42ZM154.16 212.53L154.62 213.33L154.21 213.44L154.31 214.08L154.54 213.75L155.59 215.26L155.18 215.82L154.86 215.28L153.81 215.5L153.39 215.92L152.77 215.87L152.41 215.35L152.06 215.53L151.96 214.51L153.15 212.55H154.16V212.53ZM142.75 210.41L144.07 210.48L144.06 211.13L144.52 211.51L144.45 212.07L143.8 212.05L143.9 213.1L143.4 213.14L143.18 213.79L142.2 212.48L142.17 211.21L142.76 211.14L142.75 210.41ZM159.99 208.52L160.05 208.97L160.64 208.95L160.77 209.4L159.69 209.96L159.53 210.47L159.13 210.07L158.53 210.32L158.9 208.72L159.99 208.52ZM159.55 192.21L160.18 191.99L160.65 193.41L159.59 194.61L157.83 193.41L157.98 192.63L158.84 191.99L159.55 192.21ZM74.77 193.63L76.72 192.12L78.12 192.81L80.25 196.29L82.62 201.46L83.58 202.5L85.54 203.08H87.98L88.83 201.39L88.55 200.92L89.42 200.52L88.69 199.67L89.59 199L89.81 199.6L90.53 199.55L91.42 200.64L92.02 200.57L91.56 201.22L92.09 201.78L91.94 202.85L92.68 202.78L93.04 203.09L93.92 203.36L95.02 204.07L96.14 202.24L97.14 198.69L97.21 196.73L99.32 194.6L101.82 195.29L103.93 196.42L104.23 195.89L104.89 195.87L106.97 194.6L109.21 196.38L113.03 196.05L114.62 196.38L114.75 197.73L115.9 197.8L116.42 198.62L116.66 198.73L118.72 199.39L120.44 200.7L121.76 203.88L122.67 203.15L124.65 204.3L124.43 205.28H125.17L125.5 205.55L125.33 206.02L125.84 206.2L127.01 205.82L127.49 205.98L126.8 206.11L127.08 206.75L128.12 207.1L128.97 206.68L131.48 207.66L131.6 208.79L131 208.63L130.77 209.08L131.65 210.66L130.82 210.24L130.81 211.4L131.21 212.14L131.62 211.96L131.23 212.6L131.85 213.85L132.68 214.27L132.82 214.96L133.33 214.6L133.63 214.91L133.01 215.75H133.57L134.15 215.01L136.29 214.88L136.83 215.48L137.2 215.23L138.17 216.14H138.65L140.13 217.88L142.95 218.32L143.26 218.79L144.15 218.93L144.63 219.29L144.65 220.12L145.5 220.86L146.01 220.15L146.2 220.5L145.74 221.3L146.22 221.93L146.69 221.53L147.04 221.35L147.28 222.51L146.86 222.98L147.66 223.16L147 224.86L148.95 224.73L149.8 225.71L149.27 225.82L149.37 227L148.21 227.09L148.03 230.75L147.7 229.94L147.18 230.14L146.71 228.66L146.77 227.86L147.16 227.68L146.93 226.9L146.41 226.34L145.6 226.9L144.43 225.87L144.71 225.38L145.02 225.87L145.78 225.45L146.02 224.49L145.38 224.78L145.53 222.92L145.05 222.4L145.34 222.22L144.16 221.62L143.73 223.07L144.7 224.38L144.23 225.88L143.17 226.48L143.72 225.52L143.48 225.29L141.57 225.35L141.11 224.86L140.27 225.87L140.04 224.96L139.6 225.32L139.52 226.06L140.37 226.75L140.81 227.44L141.55 227.37L141.45 228.17L141.99 227.52L142.41 227.74L142.61 227.42L142.97 227.8L142.55 228.32L142.52 228.67L141.98 229.16L143.4 229.29L142.17 231.01L140.52 229.33L139.71 228.95L139.69 229.85L138.86 229.54L138.82 228.06L138.44 227.74L138.67 227.34L138.12 227.56L137.59 228.52L137.46 227.69L137.99 226.53L137.06 225.34L136.5 225.29L135.43 226.67L136.8 224.15L137.64 223.59L139.05 223.7L139.27 222.89L138.58 223.02L138.3 223L138.01 222.62L136.61 222.6L135.99 223.56L135.33 222.51L135.19 223L135.75 223.54L135.07 224.27L135.65 224.41L135.39 226.06L134.99 226.33L134.74 224.12L134.2 224.54L133.69 224.09L134.28 223.71L134.4 223.02L133.63 221.64L133.27 222.65L133.26 222.92L133.18 223.23L133.24 223.48L132.55 224.22L132.29 224.38L132.17 224.87L132.59 224.92L132.51 225.75L132.39 225.97L133.28 226.77L132.98 227.19L133.41 227.26L133.95 229.63L133.49 229.74L133 228.67L133.28 227.87L132.29 227.82L132.46 228.47L131.4 228.16L131.31 228.97L132.21 229.82L130.82 229.66L131.22 230.39L130.11 231.53L130.7 232L130 232.14L129.18 233.08L128.28 232.27L128.73 231.38L129.09 231.51L128.69 230.84L128.03 230.48L127.14 231.13L126.82 230.59L125.94 230.68L124.77 233.49L124.94 234L125.41 233.24L125.26 234.29L125.83 234.42L125.33 235L125.94 235.31L126.04 236.4L126.79 236.56L127.2 235.93L126.84 235.64L127.3 235.28L127.59 236.29L126.91 237.27L127.64 237.98L127.16 239.35L125.79 239.19L125.14 238.86L125.39 238.66L125.11 238.43L124.32 238.59L124.63 238.95L123.73 239.02L124.12 239.45L123.77 239.52L123.2 238.83L123.84 238.67L123.09 238L123.74 237.73L123.83 238.06L124.13 237.77L124.66 237.99L125.48 237.48L124.73 236.54L124.44 237.12L123.75 236.85L123.04 237.1L122.68 238.26L122.11 238.37L122.35 238.84L121.99 239.2L122.85 239.78L122.65 241.04L121.69 241.67L122.73 242.5L122.52 243.08L121.68 242.81L121.61 242.38L120.61 242.76L120.59 242.11L120.97 241.95L120.54 241.81L120.1 242.61L119.3 242.9L117.31 241.85L116.68 240.66L116.65 239.94L116.31 240.1L116.23 239.47L115.6 239.15L115.54 238.97L115.52 238.18L114.31 238.47L114.77 238.99L114.21 239.91L113.74 240.07L113.49 241.79L115.42 242.55L115.83 244.63L115.24 245.03L113.78 244.85L113.51 245.83L113.88 247.08L113.13 246.92L112.87 247.28L113.26 247.75L113.66 247.21L113.86 247.66L113.15 248.13L113.25 248.47L113.1 248.81L112.83 247.89L112.52 248.45L112.56 248.76L112.85 250.28L112.28 250.75L111.24 250.71L111.16 252.33L111.61 252.51L111.07 252.89L111.67 253.23L110.76 253.18L110.57 253.67L109.66 253.51L109.22 253.91L108.77 253.44L108.33 253.82L107.41 253.37L107.54 253.05L107.42 252.73L107.36 251.97L106.73 252.3L107.27 250.77L106.71 250.68L106.62 251.44L105.32 250.85L105.48 251.68L105 252.73L105.57 253.18L105.93 253.54L103.53 254.33L103.31 254.93L102.83 254.95L102.31 255.96L102.23 257.08L102.67 257.71L102.33 258.76L102.5 259.3L102.22 260L101.56 260.76L101.65 260.22L100.47 259.45L100.36 258.96L98.83 258.67L96.81 258.96L96.33 258.49L95.82 258.87L93.52 257.16L91.45 257.52L90.68 258.15L90.11 259.16L90.32 260.33L93.41 264.4L93.94 264.2L94.22 265.82L94.71 266.45L94.46 267.04L94.86 267.78L93.26 269.11L91.29 269.83L89.45 269L89.14 268.86L88.31 268.5L88.32 267.55L86.57 266.38L86.4 265.32L85.75 265.48L85.73 267.14L85 268.63L85.18 267.3L84.28 266.13L84.13 265.03L84.67 264.11L85.12 265.06L85.66 264.72L85.57 264.31L85.39 264.06L85.03 263.68L85.93 263.79L86.06 263.25L85.22 262.17L84.5 262.22L83.97 262.76L82.88 261.84L82.05 262.33L82.89 262.42L81.99 263.3L82.29 265.82L80.61 267.66L80.38 267.05L80.1 267.82L79.82 267.62L80.2 267.04L80.11 266.02L79.46 265.25L76.6 268.24L76.32 267.52L76.66 267.09L76.02 267.34L75.82 267.99L75.53 267.47L75.87 267.15L75.79 266.11L75.26 264.78L75.65 263.59L75.59 263.23L75.42 261.88L74 262.37L74.18 263.02L73.14 264.98L72.9 267.14L71.78 268.8L72.05 269.27L71.45 268.77L71.64 268.12L71.02 268.48L70.48 268.1L71.21 266.46L70.95 266.01L70.49 266.35L70.48 265.33L69.72 265.24L69.86 264.43L68.84 264.94L69 263.61L68.69 263.92L68.27 263.6L67.91 264.27L67.52 263.78L66.92 264.47L66.24 267.44L65.65 268L65.11 267.84L64.33 268.74L63.68 268.61L63.48 268.92L63.17 268.33L62.39 268.17L62.2 268.55L62.86 268.87L61.94 268.62L61.97 268.08L61.14 267.7L61.4 269.41L60.93 268.44L60 268.39L60.01 268.03H59.38L59.04 268.5L58.76 268.09L58.39 268.49L58.08 268.26L57.84 268.66L57.44 268.32L52.85 270.66L49.48 273.72L48.19 276.29L48.24 279.74L47.82 280.82L49.05 284.21L47.93 285.34L48.2 285.29L47.92 287.59L47.02 290.62L47.43 291.7L45.64 293.26L44.94 294.5L44.75 295.95L45.48 298.15L43.17 301.44L41.32 305.66L41.57 307.06L42.1 307.33L42.95 309.49L43.15 310.97L41.58 312.04L40.75 313.38L39.99 313.81L38.17 313.45L37.13 314.88L36.04 315.52L35.49 316.36L35.06 316.7L33.99 317.81L32.76 319.92L31.11 320.53L29.31 322.94L28.34 325.08L28.99 322.58L27.83 322.38L27.97 322.81L27.14 323.27L26.69 323.57L26.72 323.09L25.61 322.38L25.67 321.7L25.24 320.86L24.96 321.04L24.65 320.88L24.25 319.51L23.89 319.47L24.38 318.94L24.36 318.12L23.9 317.89L24.17 317.53L22.98 316.92L23.02 316.4L22.71 316.24L22.11 315.79L22.32 313.54L21.74 313.33L22.12 311.67L21.56 311.39L22.58 311.14L23.24 310.5L23.84 311.7L24.44 311.02L25.47 310.7L25.21 308.34L25.38 307.86L25.94 307.74L25.61 306.97L27.05 306.79L27.73 306.18L27.7 305.48L27.24 305.61L27.68 304.56L27.24 303.16L28.54 302.73L28.81 302.5L29.1 302.25L28.81 301.59L29.3 301.12L28.62 301.01L29.25 299.72L29.95 299.74L30.19 295.93L30.71 295.54L30.5 295L31.05 294.62L31.08 294.01L31.92 293.94L32.07 293.49L32.2 293.02L33.69 292.68L33.36 292.34L33.49 291.61L34.08 291.49L33.98 292.17L34.76 292.53L35.06 292.23L35.3 292.63L36.13 292.7L35.81 293.04L36.52 295.3L36.9 295.35L37.17 295.46L38.55 296.03L39.4 295.62L39.82 294.58L39.6 293.61L40.06 292.8L39.67 290.13L40.28 289.74L40.95 288.31L40.94 287.22L42.35 284.37L42.9 284.14L43.24 284.43L44.83 283.08L45.01 282.47L44.1 281.14L44.17 279.53L43.66 279.01L42.95 278.9L42.35 279.37L39.93 279.17L38.4 279.67L38.29 279.1L37.4 278.53L37.46 276.68H36.63H36.33L35.13 275.98L35.08 276.81L34.43 276.92L34.11 275.99L33.13 276.15L33.23 275L31.55 274.78L31.72 274.4L31.07 274.11L30.68 274.88L31.43 275.87L30.58 275.55L30.53 276.02L29.83 275.82L29.35 273.45L28.74 273.11L28.94 272.43L28.12 271.95L27.62 271L28.68 270.84L28.77 270.34L27.8 269.8L28.37 269.32L27.8 268.78L27.81 268.12L27.07 267.76L27.24 267.19L26.22 266.58L26.6 266.26L25.41 264.8L25.78 264.33L24.29 263.72L24.08 262.95L23.27 262.77L23.21 262.43L22.77 262.56L22.49 262.87L21.91 262.13L21.92 260.98L21.46 261.25L20.53 259.99L20.67 261.3L21.67 261.5L21.64 262.4L21.78 262.8L21.83 263.11L23.38 264.06L23.19 264.87L22.73 264.56L21.11 265.15L19.49 264.77L19.13 263.89L18.89 264.21L18.15 263.33L17.87 263.87L17.32 263.02L16.27 263.43L15.59 262.53L14.22 261.9L14.32 262.66L13.89 262.21L13.36 262.32L13.33 261.51L13.65 261.38L13.36 260.98L12.39 261.12L11.91 260.78L11.85 260.58L11.43 259.28L10.96 260.4L10.2 259.07L9.4 258.42L9.54 257.25L7.77 257.05L7.75 256.56L8.93 255.17L8.54 255.03L8.26 254.02L7.8 254.31L7.37 253.9L7.76 253.47L7.42 252.35L8.01 251.77L9.16 251.37L10.01 252.38L10.62 252.24L10.77 252.94L11.46 252.85L12.72 254.04L13.76 254.26L13.46 253.14L14.98 252.26L14.85 251.18L12.55 249.34L12.1 248.38L12.32 247.39L11.34 246.76L11.35 245.79L12.57 246.58L12.66 245.88L10.52 243.98L11.75 244.41L13.01 245.93L13.66 246.04L14.4 247.09L15.05 247.02L16.14 248.25L16 248.76L16.83 249.57L16.07 249.19L16.76 251.09L15.93 251.38L17.02 251.98L18.13 251.8L18.47 252.18L18.53 251.57L18.02 250.9L18.87 251.46L18.64 250.34L19.46 250.83L19.73 249.8L19.27 247.53L18.76 246.75L18.58 247.36L18.29 247.09L18.44 246.35L17.96 246.28L17.24 244.4L17.4 243.99L18.04 244.17L17.69 243.41L19.96 245.41L20.34 244.6L21.94 246.17L21.62 246.77L22.43 247.1L22.74 246.09L23.67 245.69L23.29 244.44L23.99 244.28L24.46 244.75L24.2 243.81L23.48 243.95L22.4 242.7L21.79 242.66L22.12 242.34L21.8 240.99L22.31 241.39L22.74 240.67L22.7 241.23L23.08 241.27L22.91 240.42L24.37 241.65L24.71 241.16L25.55 242.14L26.1 242.16L24.66 240.05L24.21 240.39L23.23 239.58L23.42 238.28L22.48 237.38L23.39 237.65L21.85 236.53L22.9 236.8L22.67 235.95L21.79 235.46L20.97 236.27L20.51 235.08L19.72 234.63L19.19 234.77L19.33 233.67L18.53 232.82L19.11 232.51L17.93 231.88L18.8 230.78L17.71 229.66L17.67 228.95L16.45 228.12L15.14 226.4L15.28 224.86L14.54 223.03L13.22 222.09L12.09 222.22L10.89 223.58L9.57 221.69L8.56 221.31L8.87 219.39L8.34 217.58L9.57 218.27L11.91 221.08L13.51 221.24L15.82 220.23L16.45 219.2L16.27 217.71L15.68 217.86L15.74 217.26L15.06 216.54L15.81 214.15L19.59 215.47L20.31 216.21L23.01 215.59L24.55 216.21L25.64 217.35L27.68 222.52L28.33 223.21L28.95 226.87L29.93 228.16L31.03 231.85L32.39 232.46L33.78 232.3L34.87 230.98L34.24 229.19L34.86 227.2L34.33 225.1L34.8 223.54L34.48 222.33L34.88 220.75L36.7 217.71L37.52 217.22L38.9 218.42L39.19 217.88L38.65 216.79L39.16 216.08L40.68 215.01L42.31 215.15L42.79 214.73L42.93 212.68L42.33 211.14L42.93 208.91L44.44 208.95L46.13 210.95L46.25 213.4L45.95 214.18L46.51 215.56L46.34 217.65L47.11 219.43L48.7 219.68L51.08 219.93L51.68 219.57L51.57 219.08L52.07 219.01L52.82 215.91L52.28 215.28L52.94 215.15L52.57 214.71L53.54 213.62L52.39 211.81L52.74 210.52L52.36 210.45L52.43 210.09L51.78 209.8L51.01 210.04L50.87 211.35L51.29 211.68L50.56 211.92L50.99 208.58L50.56 205.93L50.9 204.55L51.68 204.3L53.48 205.54L55.21 204.12L56.81 204.3L57.61 203.99L58.06 203.28L60.67 204.06L61.76 203.51L62.04 203.82L63.58 203.18L65.52 203.45L68.75 202.58L71.09 200.73L71.5 199.28L72.65 198.41L72.98 197.17L74.31 196.15L74.32 193.86L74.86 192.57L74.58 191.9L75 191.52L75.46 191.9L75.07 192.12L75.49 192.68L74.77 193.63ZM120.54 190.7L121.27 191.23L121.75 190.83L121.77 192.83L122.68 194.18L122.98 194.13L122.85 194.46L120.8 194.39L119.43 193.54L119.97 191.17L120.54 190.7ZM137.12 183.85L139.38 185.22L140.88 185.6L141.56 186.29L144.41 187.35L146.61 188.94L147.28 188.9L149.08 190.08L151.43 190.35L152.11 190.88L152.92 192.59L153 193.9L151.24 195.76L151.37 197.56L152.16 197.83L152.54 199.3L155.7 203.88L155.76 204.08L155.81 205.84L157.13 208.07L156.47 210.19L154.34 211.17L153.26 212.28L153.12 211.25L151.78 211.34L151.69 210.96L150.59 210.85L150 208.24L149.51 208.73L149.28 207.28L148.7 209.82L147.5 211.45L146.91 210.4L147.44 210.13L147.51 208.86H146.98L146.6 209.44L146.42 210.8L145.46 209.82L144.89 208.39L143.3 208.37L142.7 209.1L142.48 210.28L141.96 210.44L141.59 212.69L140.78 213.38L140.56 212.27L140.22 212.94L139.31 212.56L139.3 209.84L138.66 210.53L138.88 209.31L138.08 209.69L137.51 208.31L136.96 209.2L135.79 207.91L135.19 206.48L136.34 206.86L136.06 205.52L135.41 205.9L133.06 202.85L132.09 202.74L131.66 203.56L130.7 203.91L128.53 202.26L126.69 201.71L125.78 200.62L125.47 199.53L125.12 199.55L125.9 196.64L124.95 195.6L126.2 195.71L126.37 195.22L127.92 194.24L130.24 195.51L131.57 195.33L132.49 193.97L132.44 193.08L131.61 191.86L131.96 190.04L131.45 189.4L132 188.85L131.43 188.5L131.98 185.88L133.17 184.53L134.23 185.22L137.12 183.85Z" fill="#C7C7C7" stroke="white" stroke-width="2"/>
<path d="M205.29 61.75L206.11 62.09L206.23 63.15L207.12 63.6L206.18 63.77L205.35 62.92L205.18 63.35L206.74 64.91L207.1 64.58L208.28 66.51L208.84 68.83L207.51 70.35L205.91 69.7L205.83 68.83L202.04 64.52L200.41 61.79L200.53 61.42L201.71 61.89L204.25 61.09L205.29 61.75ZM213.34 61.6L214.64 65.99L214.14 66.36L214.4 67.72L212.22 67.81L211.95 67.66L210.9 67.6L210 66.36L210.36 64.91L210.03 64.17L208.92 63.43L208.36 62.06L206.93 61.86L207.97 61.19L208.56 59.59L209.38 58.96L211.99 60.08L213.34 61.6ZM344.48 29.77L344.8 31.26L344.11 32.21L344 31.2L342.8 30.04L344.01 29.16L344.48 29.77ZM333.05 24.35L334.46 24.43L334.88 24.92L334.32 25.41L334.63 26.48L333.86 24.97L333.05 24.35ZM328.08 18.84L328.78 19.23L329.01 19.21L330.11 18.35L331.61 21.57L330.18 20.09L329.41 19.94L328.79 20.33L327.19 17.8L328.08 18.84ZM287.92 16.91L288.2 17.43L287.47 17.8L285.85 19.8L284.41 19.63L283.63 18.32L283.8 17.27L285.72 16.75L285.95 16.38L286.93 17.62L287.8 17.15L287.47 16.16L287.92 16.91ZM262.1 13.41L262.49 13.45L263.29 16.24L264.46 17.85L266.01 24.12L266.91 25.47L266.69 26.09L265.2 26.13L265.02 26.5L262.99 25.86L261.21 24.51L260.86 23.8L260.45 23.88L258.85 20.38L259.87 19.02L259.78 18.29L260.51 17.24L260.81 15.56L261.37 15.04L261.85 13.34L262.1 13.41ZM318.13 15.88L316.31 14.61L315.99 12.7L318.13 15.88ZM305.9 5.63L306.7 6.54999L307.38 6.29001L307.67 6.91L309.4 7.29001L309.61 8.11002L310.32 8.14999L310.41 8.86002L311.96 10.57L312.42 11.73L312.32 12.46L311.5 13.17L311 12.16L308.64 11.26L308.04 11.88L307.12 12.05L306.98 13.04L306.33 11.3L308.12 10.31L307.21 9.11002L308.4 9.89999L308.48 9.04001L307.62 8.63L307.2 7.75L307.09 8.54001L306.63 7.14999L305.65 6.81L305.46 6.06L305.9 5.63ZM374.83 1.76001L375.95 1.59L375.45 3.01999L375.74 3.79001L376.41 3.67999L376.51 4.81L377.43 4.44L377.44 4.08002L377.68 3.41L380.2 5.67999L381.31 7.03L380.47 7.87L380.83 9.42999L381.44 10.09L382.81 10.24L383.07 10.76L382.41 12.22L381.65 12.73L382.66 15.24V18.85L382.23 19.66L383.5 20.47L384.5 20.02L385.61 20.43L385.93 21.46L387.31 21.29L388.32 22.82L387.42 24.39L384.03 25.79L384.51 27.45L384.34 28.7L385.94 29.15L385.86 29.77L387.19 32.27L388.67 43.74L389.93 44.06L391.83 43.87L392.07 45.38H392.67L393.52 46.46L393.58 47.21L392.4 49.35L392.9 50.26L392.36 50.95L393.46 52.03L393.62 54.19L395.51 56.26L396.47 58.14L397.16 61.02L396.88 62.75L397.9 67.52L397.44 68.52L398.61 72.12L398.25 73.14L399.04 74.55L398.14 75.31L395.05 75.81L394.52 74.98L393.51 74.78L392.88 72.96L392.29 72.61L385.46 71.98L384.21 71.18L382.44 71.05L381.79 71.25L379.41 73.64L376.48 73.88L375.19 73.36L373.23 75.18L372.48 74.75L370.57 75.21L370.02 75.73L370.76 76.53L370.59 77.98L370.13 77.91L369.21 78.86L368.53 78.19L368.42 78.43L366.16 77.24L364.43 75.53L363.71 75.31L361.81 75.59L359.12 77.5L356.3 76.3L353.09 76.37L353.5 77.39L356.41 80.41L357.08 83.54L358.69 86.48L356.03 92.4L356.31 92.71L355.27 94.01L354.19 94.51L352.72 97.8L352.23 97.87L351.85 99.16L351.03 99.59L351.98 101.57L350.67 103.79L350.49 105.08L353.93 106.72L354.61 107.53L351.91 113.32L350.62 112.21L350.23 110.57L349.57 109.68L348.1 109.11L345.31 111.6L347.36 114.84L346.46 121.73L343.94 124.57L342.34 123.28L341.3 123.65L340.06 126.89L339.34 127.37L336.82 126.14L336.32 126.36L336.03 125.39L336.28 124.58L335.01 124.38L334.66 123.61L333.51 123L334.43 122.28L334.06 121.64L333.35 121.4L333.13 121.68L332.24 120.94L329.76 120.9L329.92 120.05L330.69 120.16L330.57 119.79L327.45 119.24L327.73 118.69L326.66 116.85L327.8 116.24L325.79 113.01L326.21 111.76L327.55 110.38L326.15 109.86L325.33 110.03L323.34 108.61L322.27 109.05L321.53 107.63L320.85 108.18L318.24 108.24L314.05 106.71L311.73 103.94L311.49 102.78L310.05 101.32L309.45 99.46L308.3 100.16L307.05 98.74L306.45 99.37L304.8 99.17L301.27 97.21L301.72 96.1L301.25 95.88L301.18 91.9L299.46 92.27L299.3 90.94L299.29 88.02L300.01 83.93L298.48 84.56L295.78 83.89L293.24 84.41L292.59 85L288.84 84.93L288.33 89.69L287.28 89.58L286.8 88.25L285.97 87.38L285.17 87.34L284.97 86.91L284.19 87.24L282.36 84.83L281.37 85.68L281.73 86.72L281.35 86.87L280.88 86.02L280.25 86.35L279.69 86.11L279.02 85.13L277.75 85.83L277.32 85.46L274.91 85.42L274.63 86.49L273.59 86.25L272.74 88.56L270.2 91.11L267.48 90.57L267.52 93.23L266.56 95.73L266.44 97.28L268.28 99.72L264.8 100.88L266.05 101.86L266.39 103.23L267.76 103.12L267.75 108.58L267.46 108.32L266.35 108.78L265.33 108.04L260.44 107.36L257.88 107.93L255.89 109.04L249.74 109.21L249.39 110.04L248.71 110L247.21 108.88L246.78 110.13L247.47 111.53L246.28 112.53L246.59 112.97L247.89 112.34L248.07 113.19L247.7 113.78L248.7 115.26L246.96 116.22L246.65 115.46L245.51 115.83L245.22 116.48L244.51 115.93L244.2 117.39L243.28 117.8L242.62 118.8L242.99 119.72L243.44 119.7L243.37 120.86L242.47 121.39L241.98 120.99L241.45 121.64L242.12 123.54L241.84 124.37L240.17 123.66L239.95 121.89L239.17 121.39L237.95 121.43L235.96 122.94L234.82 122.74L232.46 119.61L230.44 120.84L229.66 122.04L228.05 120.82L225.36 125.2L223.32 126.23L223.56 127.56L222.3 127.87L221.59 125.42L221.72 123.36L229.17 115.99L228.79 115.44L227.85 115.22L227.62 113.71L224.87 112.05L224.85 111.39L223.4 109.67L224.23 109.38L223.44 107.66L224.23 107.55L225.16 106.15L224.94 104.69L219.72 101.66L216.93 100.83L208.73 100.07L207.52 101.1L206.82 100.57L205.44 101L205 102.13L200.73 96.33L198.6 96.61L198.76 95.45L197.56 93.66L192.84 93.81L192.77 87.87H188.05L187.9 82.15L188.62 81.3L189.22 79.3L189.07 78.69L188.17 78.39L187.96 77.89L188 75.28L188.67 75.97L189.85 75.41L191.28 76.15L192.27 75.37L193.12 73.33L195.57 73.13L196.62 72.5L198.71 73.39L200.7 75.02H201.78L202.24 76.43L204.74 74.3L205.63 75.15L208.85 76.1L210.12 75.62L210.86 74.53L211.64 74.4L212.18 74.12L214.12 73.34L214.75 73.58L215.29 72.84L216.35 73.08L217.02 72.39L217.91 73.47L218.57 72.95L218.9 73.71L219.55 74.04L221.29 73.93L221.34 75.04L220.74 75.13L220.45 75.93L220.89 76.71L221.13 76.17L222.17 76.26L222.42 75.69L223.99 73.26L224.81 69.96L225.29 69.57L224.59 69L224.87 68.41L224.22 68.15L223.25 65.46L219.81 63.19L217.93 61.07L217.11 59.1L216.91 54.02L217.4 53.7L219.46 54.76L220.85 54.65L223.1 56.25L223.9 56.31L226.5 57.98L227.63 58.24L228.11 58.52L228.68 60.21L232.67 62.89L236.37 62.33L237.06 59.93L235.51 56.17L234.29 54.85L231.91 53.83L230.56 52.45L231.27 52.58L232 50.7L233.05 50.87L232.76 52.04L233.61 52.71L235.62 53.05L238.26 51.23L240.35 50.97L243.78 48.23L245.81 47.43L246.81 45.01L246.7 43.97L246.26 43.6L246.58 40.23L247.9 39.2L247.63 38.18L248.42 38.48L249.04 37.85L249.47 38.32L254.01 38.17L255.32 38.79L257.48 39.03L259.77 41.55L260.43 42.93L263.53 43.88L265.05 45.06L267.28 44L268.17 42.86L267.26 41.11L267.74 40.38L268.24 40.94L269.2 40.98L269.9 42.06L275.03 45.47L275.65 46.37L276.6 46.54L276.52 46.19L278.22 44.92L278.49 42.94L278.14 42.51L277.17 42.21L276.71 41.48L276.31 40.88L275.51 40.4L275.43 39.86L275.04 39.6L274.91 38.74L277.06 40.14L278.79 39.77L279.25 40.07L279.74 38.62L279.57 37.95L278.92 37.63L278.64 36.36L278.96 35.89L279.37 36.77L279.98 36.73L280.33 37.18L280.7 36.75L280.71 36.41L280.69 35.46L281.35 37.48L282.76 38.3L282.22 38.34L281.46 40.11L280.7 40.95L280.35 40.86L280.09 41.63L281.52 40.92L282.43 42.23L282.91 41.65L283.27 41.8L283.77 42.25L284.8 43.07L285.48 42.64L285.7 43.27L285.89 43.44L286.37 43.5L287.17 43.31L288.67 43.79L289.97 42.54L291.62 39.69L291.54 38.98L291.96 39.04L292 38.98L292.34 38.59L293.09 36.11L292.91 35.33L292.06 35.03L292.02 34.38L291.38 33.52L290.93 33.32L290.63 33.38L290.19 32.41L290.81 31.79L290.8 30.84L289.85 29.72L289.2 30.13L288.56 25.57L288.99 19.87L289.42 21.37L291.69 21.91L291.85 22.9L292.48 23.33L293.5 23.54L294.26 23.09L294.88 24.34L295.31 24.21L295.79 24.23L296.36 23.74L297.35 23.98L297.75 25.53L298.16 25.38L298.57 25.83L298.62 26.3L298.04 26.69L298.08 27.53L300.26 29.49L300.17 32.91L300.57 33.38L300.6 33.42L300.94 33.77L302.13 34.29L302.14 33.62L302.32 33.43L303.04 34.27L303.59 33.95L304.51 34.14L305.64 35.15L308.55 34.01L309 32.8L308.76 31.94L312.24 32.33L313.32 33.26L315.83 32.85L316.64 32.03L316.98 32.18L316.78 33.19L317.5 34.42L318.73 35.39L319.75 35L320.06 36.44H320.66L322.48 37.6L322.54 36.52L324.61 34.92L325.19 33.05L324.76 31.43L323.51 31.56L323.11 30.4L321.56 28.61L322.24 28.12L322.13 25.41L322.31 26.01L323.17 26.37L323.45 27.15L324.38 27.9L326.29 28.67L327.3 30.86L327.04 31.87L327.55 32.43L329.78 32.49L331.38 31.54L333.73 29.37L334.08 27.91L334.74 29.24L334.33 31.24L335.64 32.12L337.69 32.74L338.96 33.9L341.2 34.48L343.31 33.83L344.41 34.61L346.83 35.23L347.47 34.84L348.9 35.18L350.46 34.57L351.81 33.6L351.74 32.98L352.27 32.57L351.92 30.18L353.99 29.43L356.36 29.9L357.27 29.53L358.71 29.66L360.11 28.2L361.22 25.34L360.94 24.48L359.79 23.58L358.7 21.92L358.21 20.74L358.29 18.89L356.22 16.46L356.03 14.96L355.27 13.82L355.26 9.16L355.56 7.47L356.18 7.26001L355.47 5.70001L356.14 5.94L356.6 5.53L358.02 6.62L357.37 7.07001L358.21 9L357.45 10.5L358.47 12L360.64 13.03L362.22 12.43L362.41 11.89L363.33 14.44L364.74 15.15L365.86 14.7L365.83 15.47L366.73 16.78L366.6 17.66L367.19 18.58L367.98 18.47L368.98 20.19L370.29 20.42L371.05 21.37L372.27 21.46L373.76 20.77L375.64 18.47L375.04 17.33L376.1 14.19L375.07 12.69L373.39 11.75L373.25 11.02L373.51 9.69L373.1 7.87L373.99 7.23001L374.09 5.89999L372.33 4.83002L372.04 4.06L372.72 3.26999L373.21 3.42001L374.23 2.58002L374.68 2.41L374.4 1L374.83 1.76001Z" fill="#C7C7C7" stroke="white" stroke-width="2"/>
</svg>
