<svg width="802" height="700" viewBox="0 0 802 700" fill="none" xmlns="http://www.w3.org/2000/svg">
<path d="M473.23 697.67L473.76 697.31L474.33 696.8L474.6 696.11L474.53 694.12V693.1L474.61 692.41L475.24 690.39L475.09 686.69L473.65 685.49L472.32 686.93L471.76 693.73L473.23 697.67ZM494.94 516.61L498.77 515.13L499.39 514.38L507.72 511.94L508.12 511.2L502.73 508.64L489.37 511.82L486.96 513.31L486.19 515.63L489.68 517.74L493.27 518.16L494.94 516.61ZM353.26 485.53L355.86 480.59L359.99 476.38L359.95 471.46L365.24 469.9L364.44 465.74L356.87 465.81L351.21 467.75L347.48 474.22L348.27 478.38L342.6 479.94L335.83 485.67L340.78 489.42L343.47 493.95L349.15 493.15L352.6 496.91L357.56 500.28L363.66 503.26L365.51 497.94L370.01 493.34L375.66 489.12L372.96 484.6L366.92 487.69L358.21 488.9L353.26 485.53ZM344.49 405.73L342.19 402.74L341.14 409.63L342.44 415.87L345.56 418.71L349.14 421.04L351.94 425.72L352.7 432.17L351.69 438.09L349.64 442.83L347.23 445.56L347.67 446.09L347.94 446.62L348.13 447.16L348.24 447.75L348.41 452.14L350.24 454.77L352.32 454.92L354.12 449.41L356.05 447.39L358.33 446.06L360.22 445.56L364.23 443.42L367.37 438.63L367.88 433.65L363.97 430.93L364.46 427.67L365.21 424.74L366.11 422.26L367.15 420.51L363.8 415.72L359.04 414.54L348.05 415.78L344.49 405.73ZM642.69 357.21L641.75 355.62L640.47 353.88L637.86 352.79L634.54 352.61L633.75 353.62L635.34 355.27L634.74 355.74L632.68 356.18L630.46 357.68L627.24 358.57L624.12 360.27L621.38 362.28L619.79 364.67L621.65 367.82L624.5 370.51L625.58 373.42L625.66 376.61L626.2 378.47L631.33 381.13L634.54 383.57L638.06 385.46L640.46 384.64L641.72 384.67L641.58 387.15L639.98 389.12L641.73 391.04L646.35 391.9L647.42 390.34L645.96 387.59L645.8 385.35L646.46 383.81L646.66 381.69L644.76 377.5L644.38 374.13L644.88 370.65L645.92 367.35L645.52 366.58L643.62 368.77L641.18 369.89L638.84 368.29L639.11 367.32L641.58 367.64L642.64 366.11L641.29 362.54V361.04L643.3 360.98L647.49 362.81L650.09 362.72L650.75 359.8L651.05 357.24L652.05 356.68L652 356.18L649.02 353.26L647.86 352.64L646.9 353L647.19 355.44L645.92 357.09L643.91 357.42L642.69 357.21ZM368.53 344.69L367.2 342.95L365.77 341.95L364.59 339.25L365.33 336.3L365.24 333.92L362.98 333.12L360.21 335.83L359.4 339.6L359.83 342.37L358.51 346.78L359.42 348.23L360.75 347.96L361.89 348.05L362.71 349.08L363.26 350.26L363.65 351.32L364.92 351.76L367.12 350.96L369.04 348.37L368.53 344.69ZM20.5798 294.45L27.2698 290.11L29.7198 289.31L28.4498 286.23L26.9998 283.86L25.3598 282.42L23.4098 281.92L21.0398 282.83L20.0798 285.09L19.6498 287.55L18.9198 289.31L18.1098 293.86L17.0898 295.33L13.3698 291.69L8.59978 290.28L6.60979 289.31L4.22979 290.11L3.11979 290.87L2.02979 291.98L8.57978 299.88L16.7298 305.52L24.4698 305.55L29.7198 296.68L27.2798 297.8L24.9098 298.27L22.6598 297.91L20.5798 296.68V294.45ZM385.89 285.38L393.25 285.23L395.27 283.65L395.46 275.26L396.93 270.57L396.01 270.92L390.04 276.67L388.95 277.64L381.61 278.49L379.37 280.31L378.9 282.95L380.12 286.41L382.37 287.17L385.89 285.38ZM99.8598 304.29L100.35 300.32L100.82 291.46L102.07 288.17L103.2 286.06L104.49 282.77L105.52 279.1L105.94 275.91L105.27 271.16L103.53 269.08L101.04 269.43L98.1898 272.07L95.7098 276.26L96.7398 277.79L98.8898 278.93L99.8598 281.92L97.7998 290.11L94.1698 293.86L89.7798 296.33L82.9998 302.55L66.8398 308.13L65.6898 307.28L66.2298 304.29L70.2398 298.15L81.1798 291.78L85.3898 288.17L86.3698 284.38L84.4598 281.74L79.9398 279.46L79.4398 278.58L79.2398 277.35L78.6198 275.97L76.8998 274.74L75.8798 274.53H73.4798L72.4498 274.74L69.2398 276.38L66.6298 279.02L62.4298 285.7L59.6998 291.78L58.4098 292.1L49.3398 291.92L45.7898 292.48L42.7198 294.6L38.8398 299.35L43.0098 300.59L46.5098 303.55L48.0398 308.69L46.3098 316.63H47.4098L48.0398 317.3L48.5498 318.21L49.3598 319.1L51.5698 320.15L56.2798 320.65L58.4798 321.56L59.4598 323.65L60.1198 326.59L61.5098 328.89L64.7198 328.98L64.1398 330.3L63.1898 333.92L73.6898 338.3L78.2098 338.54L84.6298 336.36L95.0698 333.92L98.1898 331.65L99.5698 329.01L101.13 322.42L102.89 319.1H93.6198L98.4498 308.54L99.8598 304.29ZM29.7198 244.83L25.4898 243.86L17.4898 240L12.6898 240.12L7.90978 242.2L5.11979 245.33L3.40979 250.13L2.02979 257.3L3.31979 261.52L5.61979 264.3L8.41979 266.06L11.1698 267.14L11.1398 256.39L11.8098 252.21L13.5198 248.61L17.1298 246.56L25.8898 247.11L29.7198 244.83ZM146.18 237.63L148.27 235.35L149.11 233.36L149.25 231.78L146.99 229.3L146.09 227.6L144.99 221.35L145.03 219.51L144.72 217.73L142.08 213.69L140.79 213.05L140.37 214.86L141.04 217.05L141.95 218.34L142.85 220.47L142.73 232.37L141.78 234.85L142.09 236.29L142.72 237.57L143.75 238.63L146.18 237.63ZM132.72 205.87L130.6 203.47L127.96 201.96L115.74 200.12L114 201.61L115.43 204.15L131.37 207.15L132.72 205.87ZM437.43 123.52L435.95 120.21L432.48 118.23L428.42 117.36L425.25 117.42L425.67 119.07L426.23 123.11L426.65 124.74L424.78 124.47L420.91 124.97L419.04 124.74L419.66 129.21L419.8 139.73L421.24 141.77L423.94 142.64L427.01 144.91L429.68 147.99L431.2 151.34L409.24 159.72L398.55 159.54L388.45 153.78L394.21 150.81L409.89 139.38V136.94L405.33 138.08L397.82 145.02L393.85 146.65L351.91 156.43H340.03L333.66 149.16H341.6L345.36 148.4L348.89 146.65L342.31 143.4L321.36 139.38L322.06 138.05L322.51 136.77L323.14 135.63L324.4 134.5V132.06L317.82 129.91L310.47 133.1L297 144.44L295.4 135.46L294.58 133.28L291.96 130.75L290.5 132.23L289.26 136.94L284.02 141.74L279.35 147.93L277.22 156.05L293.03 157.45L298.39 163.77L261.72 170.9L241.71 167.84L223.54 158.67L200.74 139.3L192.97 134.5L168.21 124.68L160.87 119.62L158.86 121.42L156.71 122.35L154.39 122.56L151.87 122.3L155.21 129.97L156.36 134.27L155.54 138.16L155.27 140.9L156.95 143.69L159.43 145.84L161.64 146.65L164.67 147.29L171.66 151.34L174.65 151.77L180.82 151.25L189.31 152.39L195.53 154.45L201.46 157.71L206.04 162.54L209.2 169.82L206.87 171.51L196.15 168.66H183.08L181 170.55L181.5 174.84L183.84 182.24L186.55 184.86L219.27 200.03L225.06 200.67L231.16 210.28L233.53 212.23L238.04 213.99L240.41 215.39L253.55 230.35L257.98 232.54L263.79 232.89L269.99 234.47L275.36 238.16L278.61 244.83L266.18 243.51L260.87 240.97L251.54 231.49L246.91 230.7L231.23 237.02L213.65 235.21L208.48 236.96L198.23 245.09L192.97 247.49L186.61 247.29L164.35 240.29L160.14 236.9L156.55 236.23L153.41 242.37L153.17 249.78L155.66 257.04L159.85 262.54L164.74 264.68L168.72 267.76L170.83 274.15L173.12 279.49L177.61 279.46L179.27 277.08L180.46 273.83L182.14 270.87L185.28 269.61H195.32L198.32 268.58L208.33 262.02L210.78 262.4L212.65 263.89H214.29L216.06 259.76L214.72 252.24L220.42 250.45L233.5 252.41L238.87 251.15L244.18 248.84L249.68 247.64L255.64 249.75L255.21 255.02L255.46 262.54L254.83 269.17L248 275.41L245.81 276.85L244.84 275.91L244.08 272.24L242.31 272.63L240.28 274.35L238.76 274.74L237.39 272.1L235.8 266.35L234.33 264.68L232.03 264.42L229.49 265.3L227.43 267.47L226.58 270.84L226.17 282.54L226.98 286.67L229.63 291.98L225.46 291.6L222.45 293.98L220.69 298.44L220.35 304.29L213.83 298.38L211.22 296.68L215.46 286.53L216.06 283.15L214.92 280.25H212.11L205.28 281.92L209.3 277.73L211.17 275.09L212.89 272.07L208.28 270.66L202.17 272.51L196.78 276.99L194.5 283.15L194.73 288.08L195.87 295.92L196.15 299.35L195.46 302.26L194.3 304.61L194.07 307.43L196.15 311.69L194.4 313.48L192.34 316.27L190.64 319.54L189.92 322.8L189.04 324.74L184.71 326.65L183.08 327.83L178.57 330.18L160.87 328.98L170.07 334.12L181.13 334.36L191.81 330.24L199.88 322.8L202.99 320.77L205.47 322.42L206.72 325.24L206.04 326.71L204.82 328.36L199.05 339.04L194.21 342.78L188.19 345.37L181.89 346.61L176.22 346.46V348.93L179.27 351.2L177.26 355.38L175.35 355.29L171.66 351.2L167.96 348.14L165.67 346.96L159.46 345.9L157.09 345.02L154.94 345.19L152.63 347.69L150.43 349.55L148.68 348.23L147.54 345.04L147.17 341.31L144.39 344.6L143.47 346.28L142.6 348.93H141.07L136.94 341.42L126.81 338.86L107.46 339.04L112.11 348.14L117.31 350.96L123.33 352.08L130.43 356.15V358.62L116.31 364.22L101.23 366.26L104.41 378.62L100.08 379.03L99.0598 376.17L99.1698 372.07L98.1898 368.53L95.8698 366.97L86.1598 366.26L74.1398 361.16L68.5498 359.92L66.2298 363.58L64.7198 372.27L68.1398 376.26L78.3998 378.62L82.4098 381.86L89.6898 392.14L93.6198 395.98L96.6298 396.8L99.6498 396.68L102.54 397.16L105.18 399.7L115.26 413.59L116.41 416.07L118.25 417.82L121.92 418.5H134.86L132.64 412.67L128.36 406.08L123.32 400.64L118.81 398.46L115.95 398.22L113.05 397.45L111.72 395.92L113.56 393.26L116.44 392.28L138.88 393.26L142.37 394.97L141.17 398.75L138.21 402.3L136.52 403.42L138.83 409.13L143.72 416.19L149.22 422.46L153.41 425.72L151.07 427.08L149.07 426.84L146.89 426.01L143.99 425.72L151.7 440.02L163.73 441.35L176.25 434.18L185.35 423.23L183.92 416.84L181.47 410.4L178.08 405.4L172.08 402.36L171.4 399.99L171.8 397.51L173.18 395.98L176.14 396.01L180.49 399.9L183.08 400.94L184.38 402.48L188.55 409.27L192.26 411.93L193.79 414L195.32 415.48L196.84 414.54L197.22 413.03L197.36 410.75L197.06 408.86L196.15 408.33L201.04 407.91L207.97 413L212.89 413.29L215.52 411.11L233.37 389.66L236.09 385.17L237.23 379.74L235.85 371.66L233.3 365.58L231.99 360.04L234.33 353.44L237.93 350.14L252.6 343.98L251.25 346.96L247.25 351.26L246.5 353.44L247.84 356.71L250.47 356.38L255.64 353.44L274.88 354.94L279.35 352.32L279.97 348.9L277.32 341.48L277.83 337.71L279.23 335.86L281.55 333.92L283.74 333.77L284.69 337.71L285.98 339.36L288.97 340.45L294.58 341.31L295.3 342.84L297 353.44L311.22 342.75L321.04 340.13L324.45 336.95L326.85 332.33L328.96 326.71L333.45 317.42L357.01 282.89L371.75 269.34L377.8 262.02L387.69 243.6L395.37 233.51L396.29 229.59L390.11 230.09L402.29 217.81L405.39 219.54L409.19 216.41L416.13 208.03L415.22 211.82L415.31 215.71L416.53 218.84L419.04 220.27L422.2 218.89L427.7 211.88L430.46 210.28L432.03 208L432.76 198.05L433.56 195.77L440.61 185.77V183.52L435.97 184.8L434.38 185.77L436.32 179.99L436.59 177.9L435.77 176V173.55L438.38 171.51L441.09 170.76L443.42 172.04L444.9 176L450.06 171.81L460.4 159.98L466.34 156.43L463.06 155.67L459.39 156.93L456.53 156.72L455.71 151.34L457.57 145.75L461.49 143.92L471.05 144.44L467.7 139.3L461.7 135.11L439.11 125.84L437.43 123.52ZM358.98 120.7L355.92 117.67L352.87 114.26L348.3 113.9L346.43 120.38L339.96 121.16L333.88 121.94L335.42 125.74L342.28 129.9L351.02 128.35L356.36 129.84L351.81 133.67L351.07 139L357.56 143.16L364.03 142.37L370.87 138.52L379.23 134.28L385.7 132.72L384.91 128.54L376.52 127.45L371.56 124.43L370.39 118.73L365.44 118L365.09 125.23L358.98 120.7ZM314.13 117.82L316.7 114.34L313.62 110.16V107.49L315.07 107.32L318.31 105.23L316.84 105.14L308.13 100.18L304.7 99.22L301.27 99.25L290.77 102.56L293.07 108.01L296.26 112.89L300.12 116.89L304.48 119.62L309.01 119.8L314.13 117.82ZM249.98 104.97L244.19 102.96L239.59 99.05L238.09 95.83L236.8 92.29L234.8 90L231.16 90.44L228.79 92.61L229.03 95.02L232.66 100.18L235.7 103.31L246.16 111.03L254.72 113.76L266.95 120.79L270.99 124.74L268.34 127.06L265.68 128.57L262.8 129.36L259.51 129.62L257.2 128.05L252.69 121.19L250.24 119.62L239.52 121.42L234.01 124.39L230.88 129.5L231.51 134.33L234.69 137.64L238.77 139.47L242.08 140.02L257.98 136.94L260.56 137.87L267.02 141.56L269.33 141.77L270.41 140.31L273.9 132.06L282.34 122.3L284.9 120.5L284.38 116.6L282.65 112.8L281.66 111.32L279.3 103.92L273.75 102.35L261.72 105.23L256.12 105.63L249.98 104.97ZM179.7 109.29L180.71 105.63L179.91 101.34L176.95 98L175.21 96.76L172.09 92.99L165.93 87.89L162.86 90.87L165.17 98.44L169.68 102.15L174.04 103.22L176.74 104.27L177.46 105.84L177.68 107.84L178.39 109.84L179.7 109.29ZM578.16 114.02L559.66 102.73L549.14 98.67L544.25 97.97L540.85 96L533.74 87.48L529.02 85.57L531.74 96.41L532.83 97.97L534.47 98.96L536.83 101.4L538.91 104.18L541.26 110.36L547.63 119.86L548.94 124.74L546.93 129.53L542.5 132.49L537.24 134.06L522.17 134.5L521.48 136.01L520.75 139.47L519.61 142.93L517.67 144.44L510.35 146.71L507.58 146.65L505.72 145.72L501.33 142.41L499.97 141.77L496.68 144.09L493.75 148.81L491.63 154.57L490.82 159.98L495.27 163.13L515.58 172.45L521.41 178.42L512.94 175.01L509.59 179.27L511.05 187.43L516.98 195.77L512.27 205.46L505.17 197.87L493.87 176L491.64 188.36L485.31 195.74L481.35 201.78L486.27 210.28L496.31 219.04L512.05 225.09L516.72 227.9L518.95 227.6L520.72 227.95L521.41 231.32L520.48 234.44L518.32 235.26L515.79 235.61L513.81 237.46L512.45 244.92L514.98 249.07L517.89 252.06L517.07 261.55L519.2 268.02L521.88 274.27L522.93 279.46L520.96 284.47L517.25 286.67L512.97 287.73L509.24 289.31L509.94 286.85L510.56 283.83L510.71 280.78L509.42 275.5L510.27 272.51L511.5 269.28L512.15 265.91L511.6 262.6L510.3 259.97L508.77 257.56L507.58 254.87L507.24 251.65L507.51 248.34L507.47 245.15L506.19 242.37L502.53 241.64L485.51 244.83L481.97 247.49L479.16 252.35L476.29 254.67L472.58 249.75L451.14 264.68L451.93 268.46L455.71 276.99L447.71 279.02L444.12 278.31L440.61 274.74L437.68 291.22L434.93 295.04L430.46 290.63L413.76 296.89L409.89 299.35L412.73 300.59L414.24 303.08L414.33 306.25L412.94 309.22L409.9 310.43L406.47 309.72L403.59 309.95L402.29 313.95L405.38 318.3L411.26 322.77L414.57 327.24L409.89 331.65L404.12 330.39L396.56 326.06L389.19 323.33L383.88 326.71L383.96 333.89L389.79 337.77L402.29 341.31V343.98L398.58 345.75L390.64 347.08L386.93 348.93L389.37 351.44L391.18 354.03L394.68 361.1L388.59 361.63L385.35 361.34L383.2 359.86L380.95 356.86L379.19 356.36L378.07 357.86L377.8 361.1L379.5 366.23L383.18 370.59L387.64 373.96L391.64 375.9L389.55 381.27L385.46 384.11L376.27 386.05L379.23 391.25L378.71 395.5L375.83 398.16L371.72 398.46L370.09 397.42L365.41 392.02L363.85 390.72L361.87 389.6L359.93 389.27L358.41 390.51L357.92 394.41L359.51 398.46L361.98 401.94L364.1 404.19L372.35 410.51L379.32 418.5L379.68 420.21L379.53 424.92L380.07 426.96L383.23 428.8L390.9 426.19L394.68 428.2L389.33 434.24L389.43 438.77L393.31 441.76L403.56 444.37L408.02 446.92L410.77 451.42L409.89 458.48L414.73 462.81L426.07 465.12L431.2 468.21L438.75 477.41L443.21 479.61L444.9 473.19L443.69 472.75L438.68 467.14L438.19 465.72L435.42 464.06L436.64 460.5L439.25 457.09L440.61 455.75L441.65 448.7L440.26 443.31L436.71 439.16L431.2 435.9L425.92 435.37L423.23 434.51L422.08 432.05L422.74 428.74L424.26 425.42L425.81 423.17L426.65 423.23L419.26 413.41L417.11 406.97L422.08 403.42L425.96 409.48L428.52 411.96L429.68 409.63L430.78 402.53L431.77 398.22L432.72 395.98L436.99 397.16L445.89 407.62L449.76 405.84L452.3 409.69L454.96 411.11L457.67 411.76L460.26 413.29L462.47 416.55L463.33 419.56L463.82 422.58L464.97 425.72L469.35 430.6L473.89 431.1L478.93 430.22L484.75 430.93L494.34 437.09L499.88 439.45L504.67 438.39L507.84 432.53L504.79 427.73L499.74 423.29L496.92 418.5L508.39 411.4L510.76 408.33L510.09 404.66L505.73 404.9L492.95 409.39L487.8 409.86L484.56 407.71L486.27 400.94L489.21 398.16L497.89 394.59L501.64 391.01L498.33 388.48L494.36 387.77L486.27 388.3L493.87 378.62L489.7 376.14L486.74 376.43L483.73 377.79L479.34 378.62L477.64 376.26L477.73 371.07L477.29 365.91L474.03 363.58L462.35 360.6L455.77 364.87L452.44 362.37L451.15 358.27L453.48 356.15L455.4 355.32L458.66 351.97L460.26 351.2L462.84 351.73L464.54 353.03L466.03 354.73L468.01 356.15L471.25 357.5L474.12 358.15L476.98 357.77L480.18 356.15L481.88 354.09L482.57 351.94L483.59 350.08L486.27 348.93L487.93 349.37L489.18 350.73L490.82 353.44L497.32 359.8L500.62 360.81L504.67 358.62L506.3 364.93L510.14 365.02L515.08 363.78L519.88 366.26L521.66 371.54L523.24 378.09L525.76 381.13L530.41 375.9L532.96 388.03L535.3 392.25L538.98 389.63L542.02 386.26L548.96 381.92L551.98 378.62L551.93 375.99L550.76 372.6L550.61 369.77L553.51 368.53L555.19 368.88L558.46 370.59L560.42 371.01L562.87 370.24L563.8 368.59L564.39 366.97L565.75 366.26L567.17 366.97L569.86 370.24L571.85 371.01L575.94 371.74L579.07 373.9L581.67 377.05L584.23 380.86L591.17 394.23L593.22 395.98L597.01 395.8L598.73 394.5L598.83 390.84L596.93 378.44L595.91 374.31L594.29 371.04L591.68 368.53L595.33 364.11L606.92 356.15L600.82 351.2L600.71 343.81L594.38 339.13L585.97 336.77L579.52 336.36L566.87 339.89L561.02 338.01L564.16 331.65L559.88 324.77L551.71 318.36L542.7 313.6L532.33 310.37L528.57 306.96L525.64 302.55L524.46 298.03L525.11 294.6L526.84 289.11L529.28 284.03L532.07 281.92L534.27 283.36L535.47 286.47L536.28 290.16L537.4 293.22L539.66 295.83L544.46 298.5L549.43 302.85L559.74 306.75L567.33 313.95L572.74 316.1L608.15 316.63L616.19 313.95L627.71 313.1L648.25 316.42L658.93 311.69L675.89 300.94L685.43 298.15L691.51 295.12L697.11 291.1L700.17 287.05L685.23 287.17L671.37 293.98L666.78 294.33L661.97 291.98L667.96 291.75L683.41 281.92L689.91 280.54L703.05 281.39L709.3 279.46V276.99L697.61 276.08L693.93 274.74L686.15 270.16L683.41 269.61V267.14L692.17 266.79L709.47 269.58L743.35 265.53L746.31 264.24L749.14 261.67L749.33 258.88L752.29 257.8L767.42 257.48L772.01 256.6L794.63 245.36L800.89 244.83V242.37L795.84 241.06L791.49 241.64L782.62 244.83L777.61 245.03L764.22 240.12V237.46L780.05 234.44L789.31 230.99L793.41 226.4L790.47 218.19L783.49 213.34L775.16 210.89L754.34 208.73L748.11 204.85L735.29 208.03L729.02 206.51L720.74 202.74L713.24 197.29L709.3 190.67L723.39 183.4L735.29 188.48L732.54 179.79L734.5 176.93L739.13 177.98L757.88 189.29L785.66 193.12L791.15 190.81L793.11 186.73L791.34 183.46L785.66 183.52L787.32 179.79L791.59 177.11L793.41 173.55L787.32 171.69L784.22 169.88L781.86 167.44L775 155.67L772.65 153.78L771.17 151.6L767.4 136.94L765.01 133.28L762.52 131.27L756.61 129.62L749.93 129.56L737.67 133.45L690.96 136.94L687.97 138.08L681.99 143.31L679.48 144.44L676.74 147.67L666.53 168.66L662.61 173.87L661.56 177.05L664.13 178.42L666.64 178.33L669.39 177.55L671.59 175.65L672.49 172.21L673.12 168.89L674.56 169.33L676.14 171.57L677.2 173.55L678.06 177.22L677.83 180.2L678.03 182.94L680.25 185.77L683.57 186.29L690.38 183.11L693.25 184.69L694.35 189.18L692.3 192.07L689.35 194.31L687.84 196.94L690.49 201.14L696.19 203.36L701.55 206.95L703.2 215.39L693.64 209.55L688.85 208.55L686.46 212.93L692.27 222.4L694.1 227.78L690.2 230.09L686.97 227.9L683.18 222.58L680.03 216.44L678.72 211.59L678.34 204.64L676.93 199.59L674.13 195.92L669.45 193.12L667.73 196.65L664.62 198.72L661.09 198.92L658.1 196.94L657.31 194.89L655.91 189.59L654.99 188.48L653.61 189.24L652.05 192.56L651.18 193.12L647.77 193.09L647 190.87L646.75 184.69L647.24 180.43L648.11 175.71L648.49 171.16L647.52 167.44L642.36 166.88L628.22 174.75L625.31 172.21L628.12 156.37L626.76 151.54L619.24 151.34L625.58 141.91L629.15 137.93L632.91 136.94L636.12 140.2L639.86 152.36L642.05 156.43L646.18 157.71L651.85 157.27L657.62 155.73L661.97 153.78L667.25 149.45L668.3 145.43L667.35 140.52L666.53 133.28L665.07 128.34L654.99 116.2L651.03 112.42L641.94 109.35L638.25 106.36L634.35 104.27L613.15 106.33L607.93 109.14L604.54 113L605.38 117.42V119.62L602.02 119.42L599.54 117.94L597.3 116.11L594.75 114.98H583.39L578.16 114.02ZM359.39 88.58L353.54 84.99L347.85 82.96L342.8 85.57L339.58 86L338.49 88.23L338.96 91.31L340.45 94.32L342.55 95.6L351.94 97.97L377.03 100.18L382.77 102.88L390.2 114.72L395.45 117.42L408.43 116.78L413.62 113.88L419.04 112.54L418.08 104.47L415.66 97.39L411.88 92.35L406.86 90.44L404.66 90.73L403.04 91.48L400.76 93.31L400.11 94.7L399.46 96.99L398.49 99.22L396.95 100.18L393.67 99.57L392.32 97.97L391.58 95.74L390.11 93.31L389.52 91.54L389.81 89.83L389.66 88.52L387.69 88L364.79 90.44L359.39 88.58ZM91.6598 73.39L99.3998 72.04L105.15 69.81L108.6 67.56L105.46 66.67L96.5698 69.15L88.5198 72.21L86.2098 73.9L91.6598 73.39ZM104.59 38.1L101.64 37.23L97.0098 34.22L90.3298 25.69L88.9998 31.17L92.3598 34.16L96.5398 38.86L100.32 41.86L104.13 42.33L104.59 38.1ZM62.0998 25.8L61.8898 24.04L60.5698 22.48L57.8898 20.9L57.3798 19.8L56.4898 17.43L55.4598 15.38L52.3598 10.91L49.4098 7.94L46.3898 7.16L46.2598 10.22L47.7798 13.65L47.9498 15.35L46.6498 16.91L44.7998 18.59L44.9198 20.43L46.9198 21.3L49.9798 21.99L57.3098 25.4L60.3498 26.29L62.0998 25.8ZM18.0298 2L16.8698 3.15L17.1098 5.84L17.6898 8L19.0898 8.69L20.4998 8.83L22.0098 10.48L26.4998 12.5L29.0698 15.7L32.5498 18.01L35.6598 18.38L36.3898 17.12L35.7198 15.18L33.6798 13.28L26.9198 9.38L25.6298 7.57L20.5698 3.15L18.0298 2Z" fill="#C7C7C7" stroke="white" stroke-width="2"/>
</svg>
