<svg width="532" height="797" viewBox="0 0 532 797" fill="none" xmlns="http://www.w3.org/2000/svg">
<path d="M368.639 206.31V206.46L370.519 207.22L380.819 211.4L382.909 213.82L383.449 216.49L383.689 217.67L385.769 220.13H385.849L388.699 220.02L391.549 223.72L395.969 229.44L396.139 229.66L394.229 230.97L387.399 235.65L386.659 236.16L381.919 237.07L380.099 237.02L377.769 236.96L377.379 236.95L374.299 234.02L376.409 248.76L376.419 248.84L375.779 250.32L375.399 251.21L372.679 257.48L374.009 261.99L374.949 265.16L374.199 268.55L373.909 269.83L371.829 272.13L369.789 271.99L367.299 271.82L354.909 247.43L354.789 247.19L354.629 246.88L353.899 245.45L354.449 240.47L354.459 240.38L354.419 240.3L352.049 235.94L354.439 230.18L354.639 229.67L358.999 229.83L358.389 221.05L355.139 210.08L355.409 207.32L340.169 179.59L339.159 178.79L334.329 174.99L330.969 172.35L326.729 167.57L323.989 164.48L320.569 160.59L315.299 158.6L316.449 162.16L317.819 166.4L329.969 179.99L333.699 184.12L334.109 184.61L337.049 188.11L337.099 188.2L337.489 188.92L341.639 196.68L343.619 200.37L346.759 206.21L347.759 224.38L343.009 236.41L343.519 241.65L343.679 243.33L339.079 240.32L332.689 229.7L324.109 220.74L318.579 218.2L311.149 206.69L306.889 197.49L303.019 193.59L297.259 191.92L294.289 189.51L293.549 188.9L292.139 189.29L282.739 191.86L281.079 188.42L280.499 187.12L280.249 186.63L280.169 186.47L272.529 177.34L271.419 176.02L270.009 172.52L269.209 170.53L264.059 166.96L262.099 166.69L258.789 166.23L258.379 161.86L254.179 150.11L254.749 147.01L254.849 146.45L253.949 145.76L250.019 142.72L249.899 142.5L246.849 136.89L244.299 134.12L241.739 128.39L238.139 126.48L238.159 122.04L238.179 118.83L234.189 110.07L233.089 107.67L232.749 106.91L231.989 100.79L229.489 92.51L226.479 89.32L226.679 83.13L224.559 79.54L219.899 79.74L213.609 80.02L214.319 76.8L215.729 70.36L218.699 62.22L218.899 62.06L219.999 61.17L222.519 63.3L224.459 64.94L227.419 69.61L227.839 70.28L231.109 69.32L240.879 66.29L248.939 58.62L248.839 57.59L248.769 56.91L248.719 56.39L250.579 53.21L257.759 51.42L258.909 49.98L261.649 50.25L262.989 47.85L266.789 48L271.199 48.17L271.669 51.44L276.719 53.59L279.079 58.31L279.119 58.39L285.869 62.37L291.859 65.9L294.309 69.09L285.249 73L278.999 78.28L271.169 84.89L274.899 96.11L274.959 96.31L273.179 109.78L278.419 126L279.319 127.33L281.779 126.47L281.909 126.42L281.809 126.32L278.919 123.45L275.389 114.04L276.069 109.68L279.339 103.95L280.739 96.97L281.269 94.31L282.349 95.11L285.299 94.26L287.009 92.29L290.249 92.96L294.029 89.55L295.159 88.53L305.589 87.38L311.859 84.45L311.899 84.43L314.109 85.84L319.779 89.46L321.269 93.52L314.759 94.98L314.099 95.13L313.979 95.55L311.349 104.54L310.929 107.15L310.899 107.33L311.029 108.55L311.089 109.09L323.559 103.96L326.799 102.63L329.549 104.18L340.769 110.52L343.379 113.2L344.109 113.95L345.809 118.02L345.299 122.39L344.249 124.49L343.149 126.7L338.559 130.12L335.869 132.12L332.559 132.36L327.319 125.51L327.139 125.28L325.689 125.44L325.829 125.76L330.299 135.86L330.549 136.43L331.519 137.47L331.839 137.71L334.499 139.77L339.669 143.56L342.109 142.82L346.099 141.6L350.589 138.42L354.039 138.34L356.569 139.38L365.009 148.01L392.889 158.07L393.079 160.12L394.199 172.46L391.359 175.11L377.789 168.46L372.249 165.78L354.339 161.9L352.969 159.65L351.629 161.62L351.699 164.91L349.699 164.83L349.999 171.43L355.559 179.59L359.199 180.71L359.509 180.81L362.259 180.17L362.399 180.28L365.919 183.19L372.179 188.35L373.099 188.71L381.829 192.09L391.949 200.78L393.489 202.1L394.209 202.48L396.239 203.53L406.859 208.93L407.539 213.32L397.919 210.12L387.949 204.51L368.939 202.79L368.639 206.31Z" fill="#C7C7C7" stroke="white" stroke-width="2"/>
<path d="M406.86 13.24L406.78 11.79L409.13 10.46L412.02 8.83L413.47 6.03L415.56 2L421.17 3.67L426 6.96L427.96 8.29L434.25 20.12L437.01 25.31L436.95 27.98L436.75 37.38L443.95 50.27L447.52 52.08L451.65 59.32L450.42 67.51L450.98 76.52L453.84 77.88L454.35 77.48L457.82 74.77L461.65 61.12L464.57 63.81L475.66 74.02L478.03 76.2L469.23 87.21L467.36 92.88L467.52 93.67L468.12 96.68L468.56 98.86L436.3 88.6L430.86 70.22L429.86 65.67L428.66 63.35L424.93 56.17L421.51 44.9L421.59 44.55L421.64 44.33L424.11 34.02L423.41 28.1L422.8 27.17L421.33 24.91L409.82 19.39L407.03 15.79L406.86 13.24ZM520.62 84.42L517.39 82.59L514.54 83.14L513.15 83.41L512.82 83.47L506.95 78.92L506.73 75.97L500.6 78.12L496.02 84.27L495.96 84.35L490.9 94.68L490.61 95.28L484.86 94.69L482.78 94.48L478.98 95.75L478.95 95.78L478.8 95.94L476.6 98.31L475.26 101.48L474.78 102.61L475.28 105.68L475.52 107.15L479.09 109.7L482.89 114.95L484.72 119.58L484.48 125.4L484.86 126.41L487.12 132.46L487.61 133.76L488.61 133.33L498.75 128.91L502.62 128.18L506.29 127.48L507.87 125.46L509.15 123.82L508.35 121.39L509.6 117.61L509.15 114.67L512.34 108.4L501.57 100.48L501.48 95.95L503.32 94.86L510.23 95.17L512.87 95.29L521.19 97.41L521.17 96.85L520.62 84.42ZM407.85 116.87L407.69 107.98L407.68 107.56L404.26 100.03L403.44 98.23L400.06 80.92L392.06 66.66L381.68 48.16L382.55 43.76L381.08 40.81L381.28 40.66L382.73 39.41L381 31.31L378.57 30.97L376.99 30.75L375.8 27.99L370.35 26.9L366.41 35.03L367.7 45.13L365.56 54.03L369.03 64.71L369.29 70.45L369.32 71.18L369.72 71.88L374.95 81L377.42 85.31L381.06 95.68L381.29 96.12L383 99.43L385.35 104.03L389.59 112.33L391.84 116.72L404.12 119.45L407.85 116.87ZM461.61 113.42L456.95 106.49L449.55 104.41L442.64 99.23L435.79 92.08L433.19 88.09L434.11 84.05L429.94 72.1L425.28 65.18L418.36 55.22L415.63 49.69L413.74 36.75L412.6 34.51L411.18 31.71L408.81 31.88L405.69 32.11L401.71 36.18L400.74 39.52L398.97 45.61L403.11 55.22L403.24 55.52L402.89 59.68L402.87 59.99L409.63 74.12L408.81 96.78L411.63 105.48L411.86 106.19L412.46 111.69L411.31 118.94L410.59 120.14L407.78 124.84L408.02 125.71L410.53 134.79L410.46 135.59L410.32 137.14L410.24 138.06L406.12 135.91L404.49 127.31H404.29L402.9 127.32L395.29 127.38H395.17L394.68 130.43L396.1 135.72L396.77 138.21L396.74 138.98L396.55 144.34L397.85 148.24L401.08 149.8L404.98 156.72L405.84 158.25L413.56 171.94L416.44 174.31L418.87 176.31L424.16 185.18L424.22 185.2L425.52 185.55L427.23 186.01L427.65 184.68L428.05 183.39L427.48 175.81L427.46 175.53L427.09 174.85L423 167.36L421.15 164L421.87 159.27L420.11 157.08L417.02 147.63L414.2 144.8L415.42 141.41L416.94 141.07L418.35 140.75L422.68 145.74L425.34 148.81L426.75 153.64L428.72 160.42L433.21 166.78L437.82 170.44L441.02 177.07L442.84 177.17L458.26 178.04L461.29 174.89L461.77 172.43L462.01 171.33L462.22 170.37L460.83 168.7L458.91 166.39L460.36 156.45L460.23 155.24L459.29 146.75L445.04 142.97L438.22 135.43L431.16 124.77L429 118.37L428.36 116.47L429.09 116.71L431.58 117.53L434.47 118.48L440.78 125.49L448.99 132.22L451.93 134.65L466.04 131.86L466.55 131.22L468.34 128.99L469.31 119.24L469.57 116.65L465.71 112.67L461.61 113.42ZM375.32 118.78L372.06 113.46L371.97 113.31L369.38 105.31L369.13 104.53L367.51 99.46L365.82 94.17L365.15 92.08L354.09 72.96L352.11 69.54L348.25 62.87L347.99 61.73L346.99 57.35L343.05 49.21L339.75 33.34L337.22 32.91L336.76 32.21L329 20.35L324.8 20.43L323.65 27.89L326.67 38.74L327.23 40.77L327.55 41.94L328.09 45.22L328.18 45.78L336.21 66.16L339.26 73.89L339.95 75.65L342.48 80.19L351.13 95.68L353.43 97.83L358.04 101.96L361.13 107.54L360.41 128.5L362.45 132.59L371.12 139.82L376.14 142.35L381.52 139.82L382.51 135.24L382.82 133.81L380.69 122.04L375.32 118.78ZM527.9 44.17L524.02 45.9L519.68 46.53L517.04 46.92L515.46 45.77L516.81 43.54L517.4 42.57L517.04 41.85L515.39 38.57L509.21 37.94L506.81 37.69L505.24 40.67L504.65 41.79L504.03 42.97L503.93 44.89L503.33 56.32L509 66.24L509.31 66.79L510.42 66.64L516.34 65.87L520.3 65.35L522.38 64.15L523.23 62.73L525.62 58.73L525.76 58.48L528.77 59.43L529.31 58.05L529.61 57.28L530.4 51.28L527.9 44.17Z" fill="#C7C7C7" stroke="white" stroke-width="2"/>
<path d="M352.38 563.97L352.81 564.88L351.51 565.74L347.5 564.59L343.4 563.41L343.34 563.39L342.96 557.15L342.78 554.16L342.93 553.26L343.31 551.01L343.69 548.66L347.03 550.2L350.13 554.08L349.8 558.52L352.38 563.97ZM333.27 511.35L332.19 506.47L331.99 505.92L326.76 491.41L323.46 488.04L317.59 486.24L314.36 486.87L313.29 486.04L311.21 484.44L311 485.15L309.2 491.26L309.74 502.01L315.03 507.79L318.45 511.52L320.61 513.88L322.43 515.87L333.76 513.52L333.32 511.51L333.27 511.35ZM391.35 450.41L389.92 451.06L383.83 451.22L380.01 442.73L377.41 440.26L374.65 437.65L372.87 432.19L368.2 426.46L361.4 425.31L354.3 421.9L353.15 419.62L352.63 418.59L352.1 418.57L345.99 418.35L345.46 418.05L334.95 411.99L334.89 411.78L334.64 410.91L332.43 403.33L330.71 403.59L329.35 403.8L327.84 401.09L326.46 398.61L325.67 398.3L323.45 397.43L319.25 398.61L314.3 396.99L313.01 396.57L312.48 396.79L308.07 398.62L307.33 397.42L302.38 389.33L301.43 389.07L298.54 388.28L291.07 389.61L290.87 389.65L288.41 388.88L277.49 385.46L276.27 385.77L274.93 386.11L276.79 390.68L278.91 391.31L281.28 396.78L284.59 400.29L284.81 404.7L287.97 407.43L285.93 411.7L285.66 412.26L288.41 416.11L288.74 422.97L290.93 426.97L291.67 432.79L294.66 434.68L296.13 439.55L292.28 438.4L291.38 438.13L291.78 439.07L296.51 450.23L299.35 451.37L301.14 457.92L301.87 458.06L304.51 458.55L305.28 456.99L304.46 454.95L307.47 450.31L309.99 450.61L319.26 447.3L319.53 447.36L321.43 447.57L322.71 452.08L324.2 453.48L327.08 456.21L326.92 453.44L326.62 448.32L326.56 447.23L326.5 446.24L326.8 446.22L329.77 446L340.06 451.19L341.63 451.98L341.64 452.33L341.71 455.04L346.77 469.76L347.28 476.24L351.89 483.11L351.95 483.26L352.15 483.78L354.54 490.13L358.74 493.66L361.45 498.29L364.65 498.92L367.09 505.66L371 507.03L372.14 510.29L374.22 512.02L377.3 511.94L379.6 507.32L382.32 507.08L381.65 505.2L384.44 502.61L382.6 499.08L378.05 490.37L375.41 488.34L379.27 485.87L383.51 483.16L383.43 479.81L383.22 471.16L383.21 470.91L383.16 470.86L379.87 467.77L378.72 466.64L378.53 466.45L380.98 463.84L382.54 462.99L389.39 459.25L389.78 455.36L389.85 455.2L390.3 454.13L391.92 450.25L391.35 450.41Z" fill="#C7C7C7" stroke="white" stroke-width="2"/>
<path d="M399.87 352.02L398.46 356.36L395.64 358.96L393.86 357.32L391.11 354.78L390.85 354.42L389.4 352.42L388.61 346.1L388.39 344.37L387.65 344.58L386.39 344.93L382.66 338.79L381.45 336.8L378.48 335.8L378.4 335.77L376.93 330.51L376.66 329.53L376.78 328.82L378.7 317.68L378.26 314.36L371.93 302.02L371.65 301.48L372.95 301L379.12 305.74L379.4 307.79L379.62 309.4L379.97 311.91L383.17 316.73L388.96 322.66L389.18 322.91L389.98 327.76L390.08 328.34L391.19 328.74L392.78 329.29L393.46 329.53L393.25 333.33L393.02 337.5L395.18 340.7L395.36 340.97L399.52 347.13L399.89 351.95L399.87 352.02ZM354.74 345.86L354.16 342.03L356.23 335.05L355.83 332.46L355.78 332.13L347.23 326.75L345.49 325.66L345.32 325.25L343.15 319.97L343.12 319.94L339.74 316.81L339.85 316.56L343.49 308.58L344.68 308.74L346.08 306.11L346.12 306.04L348.74 304.75L347.05 296.01L350.29 294.4L350.54 294.27L349.76 293.76L347.38 292.21L344.68 281.09L344.19 279.08L337.84 278.84L336.87 278.38L331.6 275.91L318.12 278.76L304.56 272.19L298.1 271L293.75 267.52H294L296.27 267.54L302.56 267.6L307.24 269.38L307.61 269.52L313.94 271.93L314 271.95L314.07 271.92L321.82 268.41L322.26 268.21L330.04 262.84L318.52 240.07L314.74 232.58L308.99 230.77L304.76 227.03L299.54 225.6L295.85 227.67L290.59 233.33L281.43 235.77L281.33 235.54L279.76 231.96L286.14 231.02L290.87 226.49L294.18 223.24L299.86 222.13L303.57 219.35L304.22 213.81L304.32 213L302.57 211.3L299.75 208.55L297.77 204.32L296.52 201.64L293.4 199.23L289.94 196.56L287.28 194.5L281.2 193.22L277.85 192.51L277.87 189.28L277.88 188.53L273.08 183.13L270.47 180.6L266.29 177.39L266.22 177.33L259.43 172.1L258.59 171.45L252.35 168.83L246.59 166.29L246.5 164.07L246.44 162.47L252.31 161.99L252.51 161.69L253.98 159.51L254.13 159.29L254.35 154.96L247.78 143.69L241.91 139.08L241.35 138.11L238.68 133.5L231.88 121.73L230.93 119.26L225.19 100.05L216.12 83.99L216.09 83.94L216.02 83.91L215.01 83.5L208.74 80.95L208.48 81.15L204.31 84.43L202.3 85.94L202.56 79.88L202.25 79.34L201.37 77.81L197.98 75.97L192.91 73.22L190.3 74.02L190.14 74.07L185.4 80.93L184.09 81.23L183.09 78.1L176.38 76.11L176.03 77.13L174.8 80.65L172.61 80.58L171.96 84.21L170.27 86.34L171.64 88.81L171.9 91.22L172.54 97.19L171.02 98.78L170.83 105.16L168.38 108.43L168.1 112.43L168.84 115.76L169.54 118.93L169.56 119.03L177.69 122.14L173.08 123.33L171.59 130.76L171.2 132.73L167.85 149.45L164.77 155.26L166.97 158.21L163.03 165.6L161.57 173L160.5 173.47L166.18 177.48L170.23 182.69L176.98 195.04L181.07 198.42L187.39 199.97L190.11 200.64L192.97 205.77L194.75 208.97L196.61 215.33L196.81 215.5L205.97 223.41L206.15 223.57H206.25L215.04 223.46L222.23 225.68L226.01 226.83L227.07 224.98L227.74 223.8L228.22 224.03L232.74 225.96L239.85 223.54L240.64 223.23L240.62 224.07L240.51 227.95L242.41 229.78L243.71 231.03L251.42 238.43L253.61 245.09L253.9 245.53L256.69 249.84L256.93 251.98L258.4 265.28L257.8 268.78L256.43 276.84L258.66 280.72L260.35 278.97L261.13 281.96L262.13 285.74L265.19 286.73L265.5 286.61L270.88 284.52L278.64 284.36L280.69 285.27L281.87 285.79L282.86 287.94L287.11 297.18L287.59 300.57L289.49 314.02L291.67 315.86L295.29 318.92L299.93 320.89L302.17 324.57L305.04 325.38L310.87 332.18L321.51 344.58L326.97 351.05L332.57 356.25L337 358.73L342.58 364.7L348.17 364.87L351.02 366.44L351.64 365.8L357.37 359.89L353.43 348.21L354.74 345.86ZM268.37 325.86L268.34 325.79L267.64 324.07L262.05 318.12L261.09 317.1L260.91 316.91L258.73 314.59L253.08 313.76L252.79 313.72L255.42 320.87L256.28 323.2L264.07 328.65L271.4 337.17L273.03 337.25L272.59 336.18L268.37 325.86ZM298 351.15L296.13 349.65L295.78 348.36L295.15 346.02L290.73 343L287.5 342.36L283.52 342.43L282.02 343.66L282.14 343.99L284.36 350.21L287.79 353.03L292.72 360.22L294.1 360.8L295.91 361.56L296.36 362.47L296.99 363.74L299.65 369.11L299.81 369.44L300.11 369.48L303.04 369.91L304.85 372.17L305.13 372.51L305.26 372.21L305.91 370.7L307.44 369.29L308.14 368.65L301.75 354.14L298 351.15Z" fill="#C7C7C7" stroke="white" stroke-width="2"/>
<path d="M377.661 777.88L375.501 794L373.811 791.64L371.861 791.58L369.821 793.99L366.961 789.28L362.311 785.75L358.011 783.78L348.861 779.46L344.271 773.47L343.931 772.21L341.271 762.53L340.821 762.31L338.861 761.37L328.661 751.68L325.511 748.69L325.411 748.6L321.631 745.01L320.011 744.55L318.101 744L317.361 742.88L316.071 740.94L317.401 738.49L316.851 738.19L314.961 737.17L311.051 737.1L309.821 734.97L306.661 729.49L303.501 728.94L302.611 728.79L303.011 728.07L304.861 724.77L303.111 724.19L302.651 721.33L303.641 718.49L298.521 711.62L295.901 711.49L295.321 711.46L295.241 711.09L294.651 708.29L293.771 704.13L293.321 701.28L296.371 695.45L297.181 690.14L297.341 689.1L297.751 686.43L292.731 681.44L286.461 676.62L286.131 673.43L285.281 669.31L281.971 666.51L281.751 662.77L280.041 659.08L279.911 658.79L276.431 655.5L275.061 654.18L269.801 651.55L266.731 646.97L263.561 645.45L265.961 642.66L266.971 638.76L269.731 636.34L262.001 632.92L261.341 630.39L257.541 626.92L260.141 625.4L261.091 624.85L262.251 624.18L263.921 621.91L259.031 618.9L258.431 614.78L255.141 611.33L259.341 608.68L260.751 605.71L261.011 605.16L261.271 604.61L265.391 603.52L263.131 596.1L263.401 595.76L264.621 594.23L271.231 592.82L286.201 589.78L287.531 590.8L294.751 596.34L294.481 599.88L286.281 605.16L285.241 610H288.551H290.221L295.461 608.13L299.211 608.83L300.541 609.9L300.961 610.23L296.581 612.42L285.221 621.78L283.331 625.99L275.531 628.49L277.721 632.8L283.031 629.58L284.761 630.9L297.881 628.23L302.831 629.27L310.221 627.87L312.531 630.01L316.461 633.64L315.411 638.05L317.951 639.94L318.881 640.64L318.911 640.66L319.201 643.51L319.301 644.45L319.431 645.73L322.811 646.65L327.751 648.07L331.061 645.5L339.941 646.36L346.651 648.85L347.711 649.24L348.081 651.15L348.161 651.57L348.611 653.91L346.491 658.66L350.261 661.67L351.441 662.61L352.731 663.64L353.151 666.11L353.371 667.38L353.481 668.01L350.861 669.7L350.591 669.88L349.081 673.79L349.031 673.93L346.111 673.44L343.661 673.03L341.731 672.7L341.231 672.61L341.041 672.78L340.491 673.27L338.571 674.98L337.731 675.73L335.841 673.13L332.131 668.03L322.161 662.41L320.181 661.29L318.121 660.13L318.011 660.46L317.021 662.97L331.771 673.79L332.391 676.27L333.581 677.91L340.381 681.07L340.951 681.34L346.631 682.04L351.121 685.93L351.351 686.33L354.201 691.32L354.981 692.69L354.471 695.64L354.311 696.58L354.541 697.04L355.101 698.15L357.201 702.29L358.061 703.98L345.911 704.45L346.761 707.1L346.951 707.68L346.991 707.79L347.231 708.1L348.091 709.21L349.041 710.44L351.081 713.08L352.981 714.87L355.881 717.15L362.411 714.84L364.531 715.44L365.321 717.35L365.651 718.13L363.831 720.23L360.041 721.39L359.311 722.53L358.741 723.41L356.441 723.25L355.201 723.16L353.901 724.54L351.231 724.82L348.981 728.45L346.851 729.75L345.531 730.55H345.191H340.191L337.071 729L331.201 728.46L328.491 729.7L333.581 733.74L337.811 739.05L338.621 740.07L339.821 741.58L339.061 743.48L339.611 747.13L340.061 750.1L340.091 750.26L342.931 750.18L344.221 743.82L345.691 742.07L357.211 737.99L360.211 738.44L361.291 739.57L361.711 740.03L358.211 752.06L358.151 752.28L360.081 753.06L369.281 750.21L369.591 750.11L370.851 764.54L370.091 767.37L369.851 768.26L374.231 770.94L375.051 771.44L377.661 777.88ZM368.071 605.41L368.301 602.85L363.741 601.14L362.471 600.66L360.131 602.22L359.581 604.76L359.131 606.83L368.011 606.21L368.071 605.41Z" fill="#C7C7C7" stroke="white" stroke-width="2"/>
<path d="M94.75 252.55L100.81 256.86L90.98 258.82L91.07 254.84L94.75 252.55ZM233.54 254.62L228.27 242.34L223.63 239.82L206.24 238.85L199.3 228.45L195.02 222.04L193.83 220.31L193.74 220.18L193.68 220.09L191.03 218.37L184.25 213.96L170.1 207.21L167.46 203.32L167.33 202.19L166.57 195.69L168.24 194.42L167.79 191.48L166.14 191.12L163.26 190.49L140.95 201.37L135.84 203.86L130.2 204.1L130.01 211.88L128.45 216.09L127.61 217.44L127.12 218.23L125.48 217.94L119.51 216.9L118.65 216.75L111.23 215.45L107.37 209.58L103.58 209.82L92.14 201.25L90.28 203.08L86.49 201.65L85.01 204.19L85.29 205.21L86.34 208.96L85.19 210.55L86.57 214.2L84.9 216.03L86.79 219.92L91.2 223.3L91.24 223.33L91.36 224.06L91.87 227.06L93.69 228.25L97.47 236.65L101.37 240.18L107.54 240.14L105.67 242.47L110.89 243.47L113.71 246.8L116.42 245.11L119.59 246.84L122.93 248.66L127.62 250.03L135.89 252.44L138.65 257.73L138.79 258.47L139.21 260.65L139.46 261.94L134.64 260.03L129.23 257.89L126.98 258.87L125.64 259.45L122.89 260.65L122.46 260.84L121.68 259.94L117.22 254.83L116.92 254.76L113.39 254.08L104.92 259.17L107.23 261.55L106.78 264.48L112.91 265.68L112.82 269.64L112.8 270.58L115.49 271.69L123.9 275.17L129.55 274.38L132.69 277.87L132.9 278.1L136.95 274.93L141.19 280.31L149.85 281.02L154.23 286.24L159.47 287.24L159.75 288.01L160.81 290.92L164.42 294.06L167.64 296.86L168.74 298.06L168.96 298.29L170.99 300.5L171.53 300.2L174.22 298.68L174.56 298.49L181.57 299.95L183.28 298.76L186.14 296.78L188.16 295.38L191.72 292.91L192.46 293.04L196.42 293.76L202.57 287.06L198 282.55L195.16 281.79L193.3 281.29L190.63 280.58L186.71 277.96L188.73 277.79H188.77L193.34 277.39L196.51 277.12L199.57 271.38L199.92 273.4L200.52 276.7L202.44 278.55L206.39 279.4L209.08 279.13L211.96 278.84L215.24 278.49L217.83 278.21L220.32 280.98L225.04 280.74L226.02 278.27L227.39 274.81L228.24 264.12L234.21 257.79L233.54 254.62ZM54.63 238.69L46.84 230.16L42.9 228.47L39.89 224.74L33.35 224.42L27.48 227.59L25.31 227.58L23.94 229.33L22.51 231.16L17.81 231.38L17.42 231.4L13 234.81L3.69 238.64L2 241.47L7.09 241.23L9.14 240.04L12.57 238.06L16.57 237.4L24.28 240.71L24.39 240.77L24.49 240.78L33.83 241.43L35.16 241.52L35.54 241.55L41.56 240.2L45.13 242.82L48.72 243.56L60.64 246.03L59.33 239.84L54.63 238.69Z" fill="#C7C7C7" stroke="white" stroke-width="2"/>
</svg>
