<svg width="37" height="31" viewBox="0 0 37 31" fill="none" xmlns="http://www.w3.org/2000/svg">
    <path d="M19.23 0.5L19.32 0.800003L19.44 0.910004V0.979996L19.36 1.08L19.42 1.23L19.4 1.28L19.48 1.39999L19.66 1.42L19.88 1.7L20.1 1.78L20.17 1.77L20.24 1.66L20.35 1.59L20.68 1.49001L20.78 1.53999L20.9 1.74001L20.98 1.75999L21.02 1.86L20.99 1.91L21.09 2.19V2.34L21.27 2.45H21.38L21.58 2.36H21.64L21.66 2.47H21.82L21.93 2.50999L22.03 2.61L22.07 3.00999L22.15 3.08L22.25 2.92999H22.51L22.65 3L22.87 2.95H22.97L23.15 3.09L23.21 3.22L23.37 3.19L23.4 3.27L23.3 3.37L23.22 3.59L23.26 3.64999H23.36L23.43 3.85001L23.23 4L23.26 4.14L23.4 4.2L23.6 4.17999L23.99 4.28H24.07L24.4 4.12L24.54 4.09L24.58 4L24.6 3.78L24.86 3.55L25.08 3.60001L25.05 3.78L24.96 3.84V3.94L24.86 4.14L24.89 4.24001L24.99 4.28L25.04 4.41L24.99 4.55L25.04 4.75L25.27 4.72L25.37 4.73L25.46 4.81L25.6 4.85001L25.74 5.00999L25.87 5.08L26.04 5.06L26.14 5.14999V5.31L26.24 5.27L26.4 5.35001L26.51 5.53V5.64999L26.58 5.69L26.76 5.59L26.89 5.63L27.01 5.53L27.16 5.57001L27.28 5.52L27.37 5.55L27.55 5.7L27.7 5.73L27.78 5.86L28.04 5.84L28.22 5.69H28.37L28.5 5.71001L28.75 5.82001L28.88 5.78999L29.11 5.89L29.2 6.00999L29.3 6.12L29.26 6.24001L29.48 6.41L29.62 6.73L29.69 6.78999L29.89 6.82001L29.97 6.75999L29.98 6.61L30.18 6.63L30.4 6.71001L30.42 6.91L30.48 6.94L30.58 6.83L30.76 6.92H30.98L31.04 6.94L31.18 6.86L31.24 6.77L31.35 6.74001L31.55 6.8L31.58 6.89999L31.66 7.02L31.89 7.09L31.99 7.17H32.19L32.29 7.13L32.51 7.17999H32.69L33.08 7.36L33.33 7.39L33.11 7.86L32.92 7.99001L32.88 8.05H32.78L32.73 8.21001L32.56 8.35001L32.5 8.38L32.38 8.50999L32.36 8.74001L32.39 8.83L32.3 8.89999L32.2 9.19L32.24 9.34L32.2 9.44L32.11 9.49001L32.06 9.71001L31.9 9.91L31.79 10.17L31.8 10.31L31.91 10.47V10.57L31.82 10.67L31.75 10.86L31.77 10.98L31.72 11.02L31.68 11.16L31.71 11.33L31.64 11.41L31.67 11.52L31.84 11.72V11.79L31.68 11.85L31.56 11.93V12.08H31.43V12.2L31.32 12.27H31.14L30.98 12.32L30.79 12.24L30.76 12.11L30.63 12.07L30.51 12.09L30.37 12.07L30.31 12.09L30.35 12.21L30.13 12.39L30.03 12.52L30.37 12.48L30.49 12.57L30.26 12.72V12.86L30.09 12.97L29.99 13.1L29.73 13.3L29.63 13.36L29.6 13.5L29.54 13.56L29.38 13.68L29.11 13.74L28.99 13.81L28.95 13.92L28.99 14.08L28.93 14.24L28.95 14.38L28.72 14.55L28.54 14.63L28.21 14.9L28.19 14.98L28.24 15.04L28.04 15.29V15.43L28.15 15.52L28.22 15.63L28.14 15.8L28.11 15.99L27.99 16L27.77 16.1L27.84 16.22V16.32L28.06 16.29L28.16 16.33L28.23 16.29L28.35 16.16L28.58 16.01V15.94L28.47 15.92L28.41 15.78L28.56 15.58L28.63 15.53L28.87 15.48L29.09 15.36L29.24 15.34H29.41L29.78 15.42L29.84 15.47V15.59L29.74 15.69L29.94 15.91L29.86 16.07L29.79 16.29L29.81 16.34L30.01 16.37V16.6H30.16L30.33 16.77L30.42 17L30.36 17.03L30.3 17.17L30.14 17.24L29.87 17.29L29.82 17.4L29.86 17.63L29.97 17.74L30.08 17.76L30.28 17.87L30.26 18.04L30.33 18.27L30.55 18.4L30.61 18.51L30.77 18.58L30.69 18.75L30.59 18.85L30.64 19.05L30.54 19.18L30.44 19.14L30.26 19.2L30.06 19.42L29.98 19.45L29.71 19.37L29.54 19.42L29.39 19.54L29.47 19.63L29.53 19.76L29.68 19.81L29.69 20.06L29.81 20.2L30.04 20.29L30.21 20.28L30.31 20.32L30.39 20.4L30.36 20.48L30.42 20.65L30.5 20.78L30.46 20.82L30.33 20.79L30.22 20.87L30.19 21.02L30.12 21.15L29.99 21.25L29.97 21.38L30.03 21.46L30.16 21.56L30.06 21.65L30.04 21.77L30.17 21.99L30.37 22.19L30.45 22.17L30.73 22.29L30.99 22.42L31.14 22.45L31.22 22.53H31.32L31.76 22.43L31.92 22.36L31.97 22.48L32.09 22.66L31.99 22.79L31.93 22.93L31.76 23.08L31.56 23.32L31.62 23.54L31.46 23.69L31.38 23.63L31.28 23.75L31.19 23.85H31.01L30.95 23.94L30.75 23.96L30.69 24.1L30.71 24.26L30.6 24.22L30.44 24.28H30.31L30.23 24.34L30.25 24.43L30.11 24.65L29.99 24.69L29.7 24.71L29.67 24.88L29.55 24.89L29.52 24.97L29.36 25.08L29.41 25.14L29.55 25.1L29.58 25.33L29.4 25.42L29.35 25.37L29.23 25.4L29.14 25.49H28.93L28.81 25.53L28.74 25.66L28.58 25.59H28.43L28.29 25.66L27.95 25.71L27.93 25.64H27.78L27.66 25.54L27.62 25.59L27.74 25.72L27.57 25.73L27.52 25.8L27.34 25.7L27.44 25.64L27.32 25.54L27.13 25.5L27.07 25.4L26.97 25.37L26.92 25.45L26.82 25.43L26.72 25.32H26.49L26.27 25.28L26.31 25.13L26.23 24.93L26.12 24.87L25.99 24.95H25.56L25.48 24.92L25.41 24.79L25.54 24.67H25.76L25.93 24.55L25.95 24.42L25.81 24.49L25.69 24.42L25.66 24.32L25.45 24.27L25.44 24.43L25.54 24.58L25.46 24.68H25.35L25.21 24.61L25.07 24.67L25.02 24.72L25.09 24.88L24.94 24.89H24.56L24.31 24.82L24.36 24.72V24.64L24.18 24.56L23.92 24.59L23.42 24.55L23.24 24.46V24.33L23.17 24.27H22.89L22.75 24.33L22.25 24.69L21.97 24.8L21.89 24.87L21.69 25.09L21.54 25.07L21.37 25.08L21.2 25.15L21.02 25.28L20.7 25.62L20.59 25.86L20.52 26.11L20.55 26.23L20.52 26.56V26.9L20.54 27.28L20.59 27.31L20.75 27.37L20.78 27.47L20.87 27.65L20.7 27.67L20.59 27.65L20.49 27.54H20.25L20.17 27.6H20.05L19.83 27.7L19.64 27.73L19.54 27.83L19.58 27.93L19.3 27.89L19.24 27.97L19.08 27.92L18.98 27.8L18.87 27.77L18.62 27.67L18.4 27.71L18.27 27.7L18.05 27.89H17.92L17.84 27.84L17.74 27.63L17.6 27.61L17.41 27.49H17.26L17.2 27.44L17.24 27.3L17.31 27.21L17.24 27.11L16.95 27.09L16.79 27L16.6 27.02L16.57 27.14L16.51 27.16L16.34 26.89L16.24 26.79H15.78L15.7 26.66L15.61 26.62L15.24 26.59L14.97 26.45L14.75 26.41L14.58 26.43L14.55 26.62L14.61 26.8L14.56 26.89H13.92L13.82 26.79L13.64 26.94L13.54 26.81L13.37 26.76L12.85 26.89L12.66 26.79L12.55 26.61L12.37 26.59L12.34 26.53L12.19 26.45H12.08L11.9 26.56L11.82 26.57L11.69 26.52L11.56 26.63L11.34 26.41L11.21 26.31H11.14L11.07 26.11L11 26.08L10.81 26.11L10.51 26.07L10.39 25.97L10.19 25.91L10.09 25.92L9.92001 25.82L9.78 25.8L9.60001 25.66L9.57999 25.8L9.51001 25.86L9.38 25.83L9.25 25.7L9.41 25.53L9.47 25.32V25.2L9.38 25.14L9.31 25.16L9.07999 25.08L9 25.19L8.88 25.17L8.85999 25.06L8.79001 25.02L8.60999 25.06L8.59 24.98L8.48001 24.91V24.78L8.82001 24.73L8.98001 24.61L9.07001 24.45L9.28 24.18L9.35001 23.92L9.45999 23.42L9.51999 23.25L9.60001 22.85L9.76999 21.99L9.82999 21.56L9.84 21.38L9.82001 21.22L9.89001 21.13L9.95001 20.93L10 20.88L10.23 20.91H10.3L10.35 20.81L10.3 20.71L10.06 20.54L9.88 20.76L9.81 21L9.97 19.48L10.08 19L10.11 18.35L10.25 18.1H10.33V18.22L10.53 18.4L10.68 18.46L10.98 18.76L11.05 18.86L11.11 19.12L11.16 19.4L11.26 19.63L11.44 19.79H11.55L11.37 19.63L11.29 19.45L11.19 18.86L11.08 18.55L10.97 18.38L10.85 18.27L10.51 18.04L10.48 17.96L10.38 17.93L10.26 17.82L10.09 17.76L9.98001 17.65H9.84L9.89001 17.4L10.15 17.36L10.09 17.16L10.23 17.06H10.28V16.88L10.23 16.81L10.33 16.64L10.25 16.58L10.23 16.45L10.07 16.27H9.95999L10.01 16.05L10.19 15.95V15.82L10.14 15.75H10.02L9.87 15.87L9.76999 15.77L9.54999 15.65L9.35001 15.69L9.31 15.54L9.20999 15.45L8.98001 15.44L8.89001 15.34L8.76001 15.33L8.56 15.2H8.45999L8.41 14.97L8.32999 14.77L8.22 14.69L8.19 14.59L8.06 14.54L7.98999 14.42L7.85001 14.29L7.67999 14.2L7.64001 14.04L7.72 13.86L7.85999 13.76L7.98999 13.48L7.89999 13.35L7.76001 13.27L7.45999 13.23V13.13L7.56 13.1L7.57999 13L7.54001 12.9L7.60001 12.76L7.89999 12.71L8.12 12.76L8.28 12.86L8.38 12.82L8.20999 12.72L7.95001 12.63L7.60999 12.66L7.45999 12.76L7.29001 12.86L7.19 12.85L7.09 12.75L6.97 12.73L6.85999 12.8L6.79001 12.72L6.89001 12.67L6.78 12.54L6.57999 12.44L6.79001 12.32L6.89001 12.24L6.76999 12.2V12.07L6.72 11.98L6.48001 12L6.32001 11.96L6.29001 12.05L6.16 12.03L5.94 12.06L5.81 11.93L5.98999 11.89H6.13L6.26001 11.74L6.17001 11.72L6.07999 11.62L5.85999 11.67L5.76999 11.75H5.64001L5.48001 11.81L5.42999 11.77L5.29999 11.83L5.20001 11.75H5.14001L5 11.63L5.03 11.49L5.20999 11.42L5.20001 11.33L5 11.43L4.95001 11.56L4.84 11.48L4.66 11.44L4.63 11.36L4.34 11.41L4.19 11.2L3.95999 11.17L3.87 11.13H3.73001L3.69 11.07L3.56 11.13L3.35999 11.11L3.26001 10.94L3.10001 10.79L3.03 10.9H2.92001L2.73999 10.86L2.54001 10.97V11.07L2.44 11.11L2.07999 11.1L2.13 10.92L2.07999 10.75L1.92001 10.55L1.67001 10.4L1.57001 10.46L1.5 10.4H1.37L1.20001 10.34L1.29999 10.26L2.10001 10.11L2.28 10.13L2.31 10.02L2.25 9.85001L2 9.75999L1.85999 9.69L1.79999 9.7L1.67999 9.89999L1.59 9.74001V9.64H1.44V9.58L1.94 9.53999L2.04999 9.58L2.17999 9.55L2.32001 9.57001L2.54001 9.53999L2.23999 9.42L2.19 9.33L2.04001 9.41L1.98999 9.38L2.01001 9.27L1.94 9.21001L1.70999 9.32001L1.45999 9.38L1.28 9.33L1.25 9.39999H1.12L1.06 9.28999V9.16L1.10001 8.83L1.20999 8.67999L1.41 8.64L1.48001 8.57001L1.62 8.55L1.59 8.48H1.79001L1.92999 8.45L2.16 8.33H2.20999L2.29001 8.45L2.57001 8.28999L2.73001 8.27L2.82999 8.31L2.85999 8.22L3.06 8.14999L3.07999 8.28999L3.12 8.36L3.22 8.32001L3.26999 8.39999L3.37 8.41L3.42001 8.2H3.67001L3.82001 8.27L3.89999 8.24001L3.95999 8.31L4.07999 8.3L4.03 8.17999L4.14001 8.11L4.04001 7.96001L4.14001 7.91L4.20999 7.8L4.32001 7.83L4.5 7.92L4.56 7.86L4.84 7.78L4.92001 7.71001L4.97 7.75999V7.89L5.13 7.74001L5.26999 7.71001L5.29999 7.85001H5.44L5.48001 8.02L5.66 8.03999L5.62 8.14999L5.92001 8.39L5.95001 8.59L6.20001 8.7V8.8L6.39001 8.77L6.54001 8.64L6.79001 8.49001L6.76001 8.41L6.87 8.39L6.95001 8.44L7.20001 8.3L7.23999 8.33L7.20001 8.50999L7.35001 8.41L7.42999 8.57001H7.51001L7.62 8.46001L7.85001 8.41L8.04999 8.83L8.13 8.78999L7.89999 8.45L8.04001 8.28999L8.37 8.22V8.28999L8.32001 8.37L8.37 8.5L8.67001 8.52L8.85999 8.5L9.03 8.44L9.22 8.46001L9.48999 8.41L9.20999 8.25999L9.17999 8.17999L9.07999 8.11L9.04999 7.86L8.95001 7.81L9.04001 7.69L9.09 7.25L8.98999 7.17999V7.03L8.95001 6.96001L8.98999 6.84L8.95001 6.61L8.87 6.55L8.82001 6.37L8.76001 6.33L8.69 6.21001L8.42001 6.02L8.42999 5.86L8.35999 5.71001L8.26001 5.60001L8.37 5.46001V5.3L8.29999 5.17L8.10001 5.11L8.14001 4.97L8.37 4.99001L8.44 5.07001L8.70001 5.10001L8.98001 5.2L9.04001 5.16H9.19L9.32999 5.03L9.48999 5L9.79001 5.05L9.89001 5.23L9.81 5.39L9.70999 5.42999V5.49001L9.82001 5.72L10 5.91L10.02 6.07001L10.16 6.17L10.2 6.07001L10.28 6.02L10.62 6.03L10.92 6.13L11.34 6.16L11.49 6.17999L11.59 6.14999L11.75 6.19H11.93L12.17 6.28L12.4 6.39L12.47 6.35001L12.87 6.27L13.13 6.14999L13.19 6.07001L13.36 5.95L13.98 5.85001L13.59 5.81L13.21 5.71001L13.14 5.55L13.28 5.35001L13.38 5.07001L13.54 4.96001L13.92 4.8L13.94 4.75999L14.26 4.61L14.63 4.47H14.85L15.86 4.19L15.98 4.14L16.1 4.03999L16.41 3.82001L16.59 3.64L16.65 3.46001L16.74 3.37H16.83L17.06 3.47L17.1 3.35001L17 3.34L16.92 3.23L16.78 3.16L16.81 2.94L16.86 2.84L16.81 2.74001L16.86 2.62L16.88 2.32001L16.96 2.28L16.89 2.19L16.84 1.86V1.73L16.95 1.49001L16.88 1.23L17.06 1.16L17.26 0.979996L17.74 0.809998L17.86 0.779999L18.26 0.740005L18.73 0.600006L18.88 0.619995L19.08 0.580002L19.23 0.5ZM34.27 28.3L34.31 28.2L34.55 28.11L34.44 28.02L34.38 27.88L34.25 27.9L34.22 27.83L34.48 27.66L34.52 27.41L34.64 27.34V27.24L34.77 27.26L34.89 27.14L35.11 27.04L35.39 26.99L35.62 26.77L35.69 26.73L35.93 26.77L36.08 26.91L36.18 26.69V26.51L36.11 26.41L36.18 26.33V26.22L36.24 26.15L36.2 25.95L36.26 25.89L36.4 25.88L36.5 25.96L36.48 26.04L36.55 26.44V26.53L36.47 26.81L36.48 27.11L36.56 27.21L36.66 27.25L36.67 27.56L36.7 27.63L36.67 27.81L36.74 28.04L36.73 28.59L36.35 29.08L36.32 29.39L36.35 29.59V29.81L36.3 29.85L36.28 29.99L36.17 30.05H36.1L36.08 30.15L36.21 30.11L36.2 30.22L36 30.33L36.04 30.45L35.99 30.53L35.87 30.59L35.9 30.81L35.58 30.71L35.6 30.59L35.45 30.54L35.35 30.47L35.19 30.46L34.98 30.29L34.83 30.25L34.8 30.15L34.9 30.03L35.03 29.98L35.1 29.84L34.82 29.79L34.75 29.69L34.59 29.74L34.63 29.52L34.74 29.5L34.85 29.21L34.81 29.15L34.71 29.13L34.57 29.19L34.39 29.22V29.1L34.31 29.02L34.49 29L34.52 28.89L34.7 28.79L34.6 28.61H34.5L34.34 28.49L34.27 28.42V28.3ZM9.91 16.92L10.02 17.07L10 17.19L9.89999 17.3L9.82001 17.11L9.62 16.94L9.51999 16.84L9.54001 16.76L9.45999 16.58L9.62 16.63L9.79001 16.75L9.89001 16.78L9.91 16.92ZM9.76999 16.26L9.63 16.23L9.38 16.09L9.22 16.1L9.07999 15.97L9.23001 15.93L9.45001 16.07L9.70001 16.1L9.81 16.2L9.76999 16.26ZM7.47 13.68L7.62 13.76L7.57999 13.89L7.48001 13.75H7.35999L7.29001 13.57L7.39001 13.51L7.48001 13.55L7.47 13.68ZM5.20999 12.58H5.31L5.25 12.7L4.94 12.65L4.82999 12.42L4.87 12.39L5.04999 12.45L5.20999 12.58Z" fill="#D1DBDD" stroke="black" stroke-width="0.2" stroke-linecap="round" stroke-linejoin="round"/>
</svg>
