<svg width="616" height="756" viewBox="0 0 616 756" fill="none" xmlns="http://www.w3.org/2000/svg">
<path d="M570.22 235.34L571.73 236.44L571.319 236.5L570.28 235.66L569.819 235.69V235.4L570.22 235.34ZM268.02 41.07L268.139 41.36L271.96 42.81L274.909 44.49L276.18 44.78L279.71 46.75L281.849 47.5L282.37 47.44L285.439 48.94L288.34 49.58L288.4 50.04L289.329 50.56L290.079 50.33L291.12 51.02L292.449 51.19L292.74 51.71L293.199 51.59L293.659 52.05H294.299L295.049 52.69H295.979L296.099 53.21L296.62 53.27L297.079 54.89L298.12 55.35L298.469 56.22L299.34 56.62L300.499 56.68L301.079 57.66L302.299 58.82L305.37 60.15L306.409 61.19L307.34 61.65L307.859 61.59L312.09 63.55L317.24 62.91L319.439 63.14L323.199 65.28L327.37 66.26L331.599 68.11L332.299 68.92L337.689 71.69L340.12 73.31L340.699 74L341.34 73.94L342.439 74.92L344.93 76.19L345.28 76.13L345.219 76.59L345.62 76.53L346.43 77.05L348.34 78.73L349.789 78.44L351.879 80.92L352.169 80.75L351.59 79.83L351.939 79.19L352.749 78.73L352.979 79.19L354.249 79.83L355.579 81.04L356.099 81.91L355.699 82.83L356.099 82.48L356.909 82.71L358.53 83.92L360.21 85.88L360.379 86.63L360.03 87.27L359.449 87.79L358.409 87.56L358.759 87.96L360.03 88.25L360.319 88.6L360.84 88.25L361.479 88.31L362.12 89.06L364.03 89.41L367.159 91.72L367.28 92.99L367.569 92.87L367.629 91.25L369.079 91.66L369.31 92.58L370.349 93.62L370.24 94.31L370.469 94.6L371.169 94.43L372.389 96.16L372.56 97.6L373.079 98.58L373.659 99.16L374.359 98.81L375.109 99.97L375.799 100.2L376.549 102.45L376.49 104.3L377.469 105.34L378.629 105.4L379.329 105.8L381.359 108.98L382.749 109.62L383.56 110.66L384.719 111.18L386.919 113.03L388.949 113.84L390.219 115.17L391.259 115.46L392.069 116.33L393.579 116.21L394.909 119.5L398.729 123.66L399.659 124.3L400.299 124.24L401.229 125.05L401.12 125.51L400.599 125.16L399.96 125.33L399.789 125.85L398.979 126.54L399.21 126.89L400.249 127.29L401.759 128.63L403.21 129.14L404.079 129.83L404.78 129.89L407.389 131.85L411.15 136.59L411.9 136.94L412.59 138.04L414.789 139.54L415.949 140.93L418.669 142.03L419.65 142.09L421.68 143.07L422.49 143.88L422.719 144.69L424.169 146.13L425.969 146.71L427.359 148.04L427.77 147.93L428.06 148.57L430.43 150.01L430.889 149.49L432.509 151.16L432.389 151.45L432.099 151.39L432.219 151.74L433.15 151.8L433.56 152.32L433.96 152.38V153.07L435.52 153.82L435.93 154.22L436.28 155.38L438.37 156.77L439.24 157.93L440.109 158.28L440.4 157.88L440.629 158.34L441.27 158.63L441.329 159.5L443.24 159.38L443.009 160.71L444.229 161.4L445.27 161.11L446.02 162.55L445.729 163.47L446.479 164.16L447.46 164.51L447.629 165.15L447.919 164.98L448.379 165.38L449.999 167.75L450.93 170.06L452.03 171.27L452.09 171.73H452.379L455.509 174.67L457.65 175.65L460.84 175.71L461.65 174.79L462.06 173.46L461.999 172.36L461.31 171.67L461.199 171.15L461.68 170.92L461.729 170.17H463.409L463.819 170L463.759 169.54L464.049 169.89L464.46 169.95L464.87 169.6L465.219 169.95L467.31 168.45L469.109 168.51L469.4 169.67L470.62 170.65L471.549 170.88L472.129 170.36L472.479 170.48L472.939 171.12L472.59 171.87L472.939 172.68L474.789 173.78L476.59 175.63L478.15 176.61V177.36L477.34 177.13L477.049 177.53L477.109 179.32L479.02 180.99L480.53 181.74L481.049 183.7L485.74 188.15L488.749 188.61L489.21 189.3L490.539 189.82L491.52 191.61L492.389 192.36L492.56 194.09L493.199 194.21L493.9 195.08L494.71 195.43V194.56H494.939L495.749 195.77L497.139 195.71L497.49 195.36L497.719 195.94L498.18 196.06L498.53 196.58L499.629 196.98L500.439 198.65V199.98L500.849 200.79L501.549 201.54L503.46 202.46L504.039 204.25L504.159 203.44L503.699 202.69L503.59 201.77L502.78 201.14L502.549 200.16L504.689 201.26L505.56 202.42L506.43 202.65L506.49 203.63L506.09 203.98L506.729 204.67L506.96 204.61V204.09L507.479 203.86L507.659 204.26L508.759 204.78L508.93 205.3L509.729 205.94H509.329L509.68 206.86L510.49 206.75L510.719 207.62L511.759 208.77L512.219 208.94L511.759 207.9L511.12 207.44L511.469 207.09L514.309 209.28L516.22 210.2L516.569 210.83L517.03 210.77L518.069 211.75L519.629 211.98L519.799 212.5L521.309 213.48H521.949L524.15 214.63L524.379 215.21H524.67L524.79 214.86L525.66 215.03L525.72 215.55L526.069 215.67L525.67 215.9L526.309 216.25L526.889 217.46L526.429 217.81L525.91 217.41L526.429 218.22L528.509 218.86L529.549 220.19L529.78 219.73L530.069 219.9L530.129 220.88L530.65 221.11L530.819 221.92L531.17 222.15L531.46 224.17L531.98 224.69V225.09L532.85 225.15L531.98 225.57L532.069 225.77L534.429 227.45L538.42 230.03L545.439 230.46L550.41 227.34L551.449 225.72L553.71 225.55L553.829 225.95L556.03 226.12L557.249 226.52L558.47 227.39H559.049L559.569 227.79L559.509 228.19L561.069 228.54L561.359 229.29L562.29 229.46L564.199 230.85L565.179 231.08L565.819 231.95L567.329 232.93L568.199 234.26L569.71 235.07L569.309 235.82L570.639 236.8H571.329L572.139 237.26L572.03 237.9L574.4 241.02L574.569 240.73L574.17 239.69L574.689 240.21L576.02 243.38L575.79 243.55L575.21 242.92L575.379 243.79L576.189 244.48L576.309 245.58L577.059 245.81L577.41 246.39L576.889 248.76L577.879 251.07L578.46 255.05L578.749 255.22V256.32L579.389 257.76L579.329 258.8L579.619 259.03L579.329 259.84L579.679 262.96L579.329 264.52L580.079 265.85L579.79 266.77L580.249 268.1L581.869 270.47L582.97 271.39L583.549 272.49L584.999 273.24L584.48 274.05L584.6 275.03L583.619 275.55L583.91 276.7L583.449 277.45L583.679 279.01L584.66 278.84L584.489 279.42L585.189 279.59L586.809 281.9L587.389 282.07L590.109 284.26L591.27 284.49L592.079 285.53L593.879 285.18L594.52 283.91L595.499 284.2L595.85 284.03L596.369 284.49L595.97 286.05L596.139 286.8L595.1 286.51L593.359 287.61L592.78 288.36L592.199 290.44L591.739 290.61L592.03 291.07L591.22 291.13L590.47 293.26L590.639 295.68L591.509 298.8L592.96 302.61L593.77 303.71L594.29 305.15L594.809 306.02L595.559 306.48L597.359 309.42L598.17 310.29L598.98 310.35L599.15 310.81L598.749 311.04V311.96L599.449 313.29L600.9 314.56L601.999 314.79L602.689 315.54L602.98 316.98L603.439 317.56L613.889 316.97L612.509 325.74L612.129 326.12L612.359 329.87L611.439 332.92L608.17 339.07L606.96 342.12L605.879 348.8L603.079 355.52L601.499 357.52L599.869 358.37L595.28 359.54L591.689 361.2L588.199 363.67L583.22 366.56L579.47 371.99L577.92 375L577.299 376.57L577.239 380.3L576.069 385.6L574.379 389.01L569.97 392.95L568.049 395.71L565.749 397.94L564.989 398.22L557.799 406.07L553.97 407.87L550.28 410.77L548.46 411.54L548.17 413.03L549.439 418.72L549.189 421.14L548.759 421.86L545.65 423.23L542.069 423.64L540.4 424.59L538.17 426.8L535.309 434.3L534.179 440.52L533.139 444.37L529.04 449.05L526.109 451.63L520.059 464.13L520.04 465.09L519.4 465.91L517.98 466.68L516.859 468.65L514.66 475.25L513.629 476.8L510.109 479.9L507.539 483.51L499.039 497.66L497.549 501.28L493.629 505.8L492.799 507.8L492.939 509.86L491.689 512.23L490.49 513.32L484.21 521.6L482.729 522.26H481.969L479.59 520.82L478.78 520.96L473.469 524.52L469.819 531.53L470.039 536.11L467.509 536.1L465.979 536.57L463.879 537.95L462.439 541.32L460.819 543.32L462.169 544.46L461.659 544.98L460.159 545.11L459.52 545.5L459.259 547.13L461.15 547.6L461.62 548.59L460.52 550.92L460.639 552.12L461.199 553.19L463.609 555.16L463.53 557.99L462.919 560.34L459.449 565.75L458.719 567.38L457.289 569.17L456.939 571.35L455.18 574.32L453.169 582.33L449.829 584.97L449.449 587.76L449.84 589.99L450.31 590.25L450.999 589.95L451.819 590.04L452.379 591.46L451.52 592.88L449.329 594.69L448.639 594.95L446.319 594.91L445.629 595.81L444.34 595.98L442.569 597.51L438.62 604.51L431.46 618.83L432.219 620.76L431.949 621.69L430.669 623.42L431.229 624.71L429.09 628.4L427.03 631.11L425.52 635.13L423.139 639.02L421.169 644.72L420.439 645.45L417.949 645.28L416.659 645.88L416.06 646.74L415.719 648.16L415.939 648.97L418.169 650.6L418.21 651.59L417.27 652.71L417.139 653.4L417.829 654.52L419.289 655.25L420.71 656.71L421.189 658.64L420.49 660.47L419.039 662.57L418.569 664.55L416.639 663.87L415.389 665.82L415.159 668.69L415.46 669.39L416.28 669.46L416.629 670.79L416.099 672.41L410.789 677.14L408.859 679.2L407.96 681.05L406.46 682.64L404.189 682.39L402.099 683.81L401.969 684.25L402.789 684.94L403.56 685.07L403.689 686.06L403.21 687.72L400.379 688.45L399.87 689.05L398.84 688.62L398.329 688.75L396.609 691.57L396.93 692.62L394.919 695.5L394.409 697.05L394.539 698.81L393.77 701L391.629 703.11L388.289 703.63L385.889 704.41L382.889 706.05L382.03 707.21L381.599 708.5L379.84 709.27L378.729 710.22L378.09 710.01L372.439 712.76L371.329 712.98L370.43 713.88L368.969 714.35L366.919 716.63L365.509 717.02L363.93 718.05L361.439 718.74L359.81 718.87L359.079 719.43L357.24 719.65L356.759 720.8L356.819 721.49L353.99 721.5L353.56 722.02L354.159 724.12L353.49 725.67L350.389 727.17L349.349 730.17L348.71 730.99L347.37 731.74L347.18 733.96L346.669 735.16L344.829 737.69L343.889 740.78L343.159 741.3L342.049 741.26L340.12 740.49L338.84 740.92L336.74 740.2L336.139 741.14L336.659 742.3L335.21 743.37L333.799 743.8L331.569 743.85L326.09 745.4L323.169 743.65L321.46 743.52L318.689 742.44L314.389 741.82L313.4 741.35L311.249 739.68L308.02 734.64L306.069 734.1L303.539 734L302.02 733.33L297.829 734.03L296.449 733.69L294.31 734.07L292.93 734.78L290.979 734.35L290.03 734.97L286.699 734.96L284.219 734.38L282.129 733.33L280.849 731.61L277.24 725.36L276.289 724.26L273.96 722.97L270.099 722.1L266.479 720.04L263.43 719.7L259.759 720.07L253.559 721.99L258.389 710.78L260.599 709.21L262.499 706.61L262.09 703.55L262.509 701.92L263.219 701.03L266.639 698.56L268.689 696.08L269.849 690.88L270.789 690.2L272.37 689.89L274.849 690.07L275.189 689.86L274.609 688.97L273.329 688.24L272.139 687.96H268.819L266.02 686.87L265.169 686.02L263.939 683.43L262.359 681.46L259.949 679.54L257.079 678.91L256.559 678.57L256.1 673.33L255.089 672.29L253.649 671.64L253.799 670.12L254.469 669.18L255.829 668.23L257.88 667.42L258.18 667.02L258.889 664.25V663.32L258.439 662.17L258.379 659.55L257.38 659.2L255.02 659.05L254.669 658.78L253.549 656.57L252.289 655.26L251.999 654.28L252.549 653.1L254.399 651.71L258.409 651.01L259.62 650.51L260.859 648.49L260.659 647.82L258.15 646.72L257.63 645.14L257.619 644.38L258.139 643.44L257.579 642.76L257.6 642.02L259.699 640.09L260.039 638.98L260.09 637.6L258.689 635L259.03 630.82L259.18 630.42L259.539 630.36L264.889 630.4L265.699 629.1L265.71 628.15L265.419 626.93L263.389 625.02L264.09 623.2L270.109 615.84L271.03 613.42L271.81 612.43L276.24 610.5L277.62 609.47L278.4 608.48L278.259 606.72L276.599 603L276.78 599.29L278.049 597.4L280.099 595.56L280.469 593.95L281.359 592.61L284.9 589.43L285.829 584.07L286.819 582.42L288.499 581.27L295.34 578.75L296.819 577.73L297.469 576.65L298.4 573.65L299.889 572.09L303.34 570.81L304.799 571.65L305.349 571.64L305.819 567.39L304.74 565.49L304.28 563.58L304.599 560.04L304.409 556.75L304.68 555.4L305.229 553.01L306.59 549.9L310.12 543.69L311.079 542.54L312.21 537.87L311.65 534.83L310.189 532.63L307.799 530.22L305.829 529.31L305.299 530.64L304.259 531.4L303.329 531.45L302.379 530.98L301.799 529.11L301.509 524.65L299.78 521.71L299.579 518.73L299.129 518.48L298.219 518.77L297.43 518.63L293.049 516.89L288.879 510.87L287.099 509.02L286.969 508.45L287.329 507.53L289.719 504.11L290.849 500.61L289.27 493.21L289.549 490.12L290.49 488.62L292.719 487.26L294.259 485.82L296.919 484.52L297.34 483.93V482.93L296.43 480.91L296.77 478.63L296.24 477.86L293.749 475.88L293.159 474.65L293.27 473.89L295.599 469.99L296.229 466.19L296.789 465.49L300.449 463.09L301.799 461.28L302.389 459.39L302.52 457.73L302.349 455.65L301.379 453.13L301.349 452.22L302.189 450.98L304.549 449.08L304.749 447.7L303.34 446.53L300.789 446.12L299.71 446.45L298.389 447.99L297.569 448.4L295.9 448.34L294.53 447.64L294.349 446.14L295.93 443.65L296.249 442.28L295.509 438.76L295.21 432.68L294.629 429.55L291.079 424.76L289.34 423.46L287.34 421.24L286.46 419.73L285.259 415.58L281.159 415.14L278.169 410.98L275.449 408.73L274.719 407.33L274.84 406.05L275.77 405.24L280.21 405.34L281.49 404.87L282.949 401.71L288.639 396.02L290.109 395.34L293.74 394.42L294.37 393.84L295.049 392.09L295.259 389.23L294.229 388.09L292.71 387.8L292.06 387.14L291.039 386.81L288.43 383.89L286.699 379.73L284.99 373.76L281.59 367.54L281.639 364.37L279.639 361.68L279.409 359.27L278.969 358.78L276.759 358.16L275.939 357.55L274.259 355.68L273.37 353.64L272.689 350.91L272.71 346.67L273.53 345.04L274.93 343.57L277.299 342.53L278.549 341.34L279.689 337.12L279.659 336.21L276.96 333.86L276.539 333.18L275.469 327.56L274.96 326.64L273.759 325.83L271.629 326L271.109 325.73L270.299 322.49L270.719 320.78L270.609 319.35L270.039 318.17L264.949 316.84L264.349 316.06L263.579 313.9L263.18 313.61L261.319 313.5L258.049 314.24L257.069 314.03L257.16 313.22L259.049 311.9L259.329 311.05L257.359 309.55L256.609 307.67L256.66 306.67L259.379 304.82L259.759 303.71L259.719 302.45L258.18 300.82L257.559 298.66L256.85 298.14L252.779 298.65L251.319 297.69L250.809 293.55L249.359 291.43L250.21 289.85L251.169 286.71L251.179 285.04L250.639 283.26L251.339 279.6L251.329 275.47L252.169 274.37L254.679 274.16L257.6 268.38L257.139 266.46L257.329 263.44L258.06 260.47L257.309 257.78L257.609 257.12L259.079 256.44L259.349 255.97L260.37 251.91L258.639 250.23L258.359 248.77L256.829 246.57L255.569 246.14L252.949 246.58L251.589 246.36L246.419 240.88L242.899 238.8L242.27 237.12L239.77 235.71L237.88 233.4L237.329 231.1L238.079 227.51L237.91 225.22L238.619 223.16L238.27 222.75L235.559 222.17L234.88 221.7L234.24 220.16L234.569 218.38L237.509 213.96L237.059 212.66L235.719 211.58L235.88 208.75L235.52 206.71L235.66 205.85L237.509 204.41L240.139 203.16L240.339 202.83L240.139 202.35L238.52 201L238.089 199.94L236.609 198.62L236.41 197.92L238.179 195.55L240.319 195L242.089 194.04L242.479 191.61L243.16 190.15L245.969 188.71L249.669 185.59V184.66L248.27 181.91L248.619 180.99L250.279 179.52V178.59L249.469 177.28L247.089 175.53L242.199 173.87L237.339 170.77L233.249 172.02L231.049 173.17L229.779 173.21L229.449 172.01L229.66 171.25L231.99 168.41L232.219 165.43L233.46 163.26L233.24 162.28L232.229 161.3L233.21 159.15L232.85 158.09L230.359 157.18L228.6 156.88L227.229 157.09L225.999 156.63L223.509 153.71L222.309 151.85L222.029 150.36L222.219 148.14L221.469 147.6L218.6 146.37L216.35 147.63L215.289 147.89L213.229 147.92L212.079 147.04L213.869 146.17L214.049 145.74L214.16 142.88L215.189 139.63L215.02 137.69L219.259 134.06L219.639 133.02L219.249 129.84L218.759 129.19L216.859 128.72L215.819 129.41L215.41 129.35L214.569 128.45L212.819 128.82L212.139 128.21L211.809 125.89L211.85 125.27L212.829 124.19L213.419 122.68L215.079 120.8L214.399 120.05L212.85 119.78L211.699 118.99L211.479 118.22L211.579 115.91L212.24 114.32L215.589 113.06L215.929 111.87L215.719 110.62L216.66 108.04L216.639 106.68L215.569 105.3L215.009 103.81L213.99 103.22L212.179 102.73L211.779 102.2L211.979 100.82L212.779 99.09L213.039 93.65L213.829 92.55L214.189 90.1L213.999 88.83L213.02 87.95L213.779 84.7L212.939 83.92L212.359 80.99L212.469 80.4L213.479 80.04L213.549 76.94L214.229 75.36L214.389 72.21L216.579 70.37L217.279 70.1L217.699 69.39L217.979 67.51L217.469 66.9L217.499 64.56L219.16 63.14L220.579 62.67L222.229 62.9L225.369 62.59L231.329 64.53L232.579 64.23L233.99 62.95L233.689 58.95L234.16 53.94L232.74 52.07L231.799 48.95L230.77 48.09L229.229 47.58L228.38 45.91L226.339 45.01L226.699 43.68L226.71 41.89L229.449 42.24L230.96 42.01L233.16 42.18L236.229 41.78L238.079 41.84L238.429 41.49L240.109 41.61L243.639 42.82L244.219 42.65L245.96 43.17L246.649 43.75L248.679 44.33L253.949 45.2L256.899 46.64L260.609 47.28L264.949 45.95L265.12 44.85L263.56 43.98L264.02 42.94L265.18 42.54L265.24 42.25L266.169 42.19L266.579 41.61L268.09 41.84L268.02 41.07Z" fill="#C7C7C7" stroke="white" stroke-width="2"/>
<path d="M127.66 2.98L131.89 3.91L136.75 5.93L145.67 6.22L148.39 5.58L150.88 6.33L153.08 6.45L156.38 7.38L161.71 10.16L162.93 11.2L165.36 12.24L167.1 13.57L171.33 15.82L173.53 17.5L177.58 19.35L181.11 21.66L185.92 23.57L187.54 23.8L188.7 24.67L190.67 24.96L198.83 28.95L199.99 29.01L203.99 30.51L205.32 31.26L206.48 32.36L207.64 32.59L208.97 33.8H209.38L210.36 34.67L211.17 34.79L211.46 35.43L211.98 35.31L212.62 36L214.7 37.21L217.48 38.54L218.99 38.77L226.5 41.6L226.49 43.4L226.13 44.73L228.17 45.63L229.02 47.3L230.56 47.81L231.59 48.67L232.53 51.8L233.95 53.67L233.48 58.68L233.78 62.68L232.37 63.96L231.12 64.26L225.16 62.33L222.02 62.64L220.38 62.41L218.96 62.88L217.3 64.3L217.27 66.64L217.78 67.25L217.5 69.13L217.08 69.84L216.38 70.11L214.19 71.95L214.03 75.1L213.35 76.69L213.28 79.79L212.27 80.15L212.16 80.74L212.74 83.67L213.58 84.45L212.82 87.71L213.81 88.59L214 89.86L213.64 92.31L212.85 93.42L212.59 98.86L211.79 100.59L211.59 101.97L211.99 102.5L213.8 102.99L214.82 103.59L215.38 105.08L216.45 106.46L216.47 107.82L215.53 110.4L215.74 111.65L215.4 112.84L212.05 114.1L211.39 115.69L211.29 118L211.51 118.77L212.67 119.56L214.22 119.83L214.9 120.59L213.24 122.47L212.65 123.98L211.67 125.06L211.63 125.68L211.96 128L212.64 128.61L214.39 128.24L215.23 129.14L215.64 129.2L216.68 128.51L218.58 128.98L219.07 129.64L219.46 132.82L219.08 133.86L214.84 137.49L215.01 139.43L213.98 142.68L213.87 145.54L213.69 145.97L211.9 146.84L213.05 147.72L215.11 147.69L216.17 147.43L218.42 146.17L221.29 147.4L222.04 147.94L221.85 150.16L222.13 151.65L223.33 153.51L225.83 156.43L227.06 156.89L228.43 156.68L230.19 156.98L232.68 157.89L233.04 158.95L232.06 161.1L233.07 162.08L233.29 163.06L232.05 165.23L231.82 168.21L229.49 171.05L229.28 171.81L229.61 173.01L230.88 172.97L233.08 171.82L237.17 170.57L242.03 173.68L246.92 175.34L249.3 177.09L250.11 178.4V179.33L248.45 180.8L248.1 181.72L249.5 184.47V185.4L245.8 188.52L243 189.96L242.32 191.42L241.93 193.85L240.16 194.81L238.02 195.36L236.25 197.73L236.45 198.43L237.93 199.75L238.36 200.81L239.98 202.16L240.19 202.64L239.99 202.97L237.36 204.22L235.51 205.66L235.37 206.52L235.73 208.56L235.57 211.4L236.91 212.48L237.36 213.78L234.42 218.2L234.1 219.98L234.74 221.52L235.42 221.99L238.13 222.57L238.48 222.98L237.77 225.04L237.94 227.33L237.19 230.92L237.74 233.22L239.63 235.53L242.13 236.94L242.76 238.62L246.28 240.7L251.45 246.18L252.81 246.4L255.43 245.96L256.69 246.39L258.22 248.59L258.5 250.05L260.23 251.73L259.21 255.79L258.94 256.26L257.47 256.94L257.17 257.6L257.93 260.29L257.2 263.26L257.02 266.28L257.48 268.2L254.56 273.98L252.05 274.19L251.21 275.29L251.22 279.42L250.52 283.08L251.06 284.86L251.05 286.53L250.09 289.67L249.24 291.25L250.69 293.37L251.2 297.51L252.66 298.47L256.74 297.96L257.45 298.48L258.07 300.64L259.61 302.27L259.65 303.53L259.27 304.64L256.55 306.49L256.51 307.49L257.26 309.37L259.24 310.87L258.96 311.72L257.07 313.04L256.98 313.85L257.96 314.06L261.23 313.32L263.09 313.43L263.49 313.72L264.26 315.88L264.86 316.66L269.95 317.99L270.52 319.17L270.63 320.6L270.21 322.31L271.02 325.55L271.54 325.82L273.67 325.65L274.87 326.46L275.38 327.38L276.45 333.01L276.87 333.69L279.57 336.04L279.6 336.95L278.46 341.17L277.21 342.36L274.84 343.41L273.45 344.88L272.63 346.51L272.61 350.75L273.29 353.48L274.18 355.53L275.86 357.4L276.68 358.01L278.89 358.63L279.33 359.12L279.57 361.53L281.57 364.22L281.53 367.39L284.93 373.61L286.64 379.58L288.37 383.74L290.99 386.66L292.01 386.99L292.67 387.65L294.19 387.95L295.22 389.09L295.01 391.95L294.33 393.7L293.7 394.28L290.07 395.2L288.6 395.88L282.91 401.57L281.46 404.73L280.18 405.2L275.74 405.1L274.81 405.91L274.69 407.19L275.43 408.59L278.15 410.84L281.14 415L285.24 415.45L286.44 419.6L287.32 421.11L289.32 423.33L291.06 424.63L294.61 429.42L295.19 432.55L295.49 438.63L296.23 442.15L295.91 443.53L294.33 446.02L294.51 447.53L295.88 448.23L297.55 448.29L298.37 447.88L299.7 446.34L300.78 446.01L303.33 446.42L304.74 447.59L304.54 448.97L302.18 450.87L301.34 452.11L301.37 453.02L302.34 455.54L302.51 457.62L302.38 459.29L301.79 461.18L300.44 462.99L296.78 465.39L296.22 466.09L295.59 469.89L293.26 473.79L293.15 474.55L293.75 475.78L296.24 477.76L296.77 478.53L296.43 480.81L297.34 482.83V483.83L296.92 484.42L294.26 485.72L292.72 487.16L290.49 488.52L289.55 490.02L289.27 493.11L290.85 500.51L289.73 504.01L287.34 507.44L286.99 508.36L287.12 508.93L288.9 510.78L293.07 516.8L297.46 518.54L298.25 518.68L299.17 518.39L299.62 518.64L299.82 521.62L301.55 524.56L301.84 529.02L302.42 530.89L303.37 531.36L304.3 531.31L305.34 530.55L305.87 529.22L307.84 530.13L310.23 532.54L311.69 534.74L312.25 537.78L311.12 542.45L310.16 543.6L306.63 549.81L305.27 552.92L304.72 555.31L304.45 556.66L304.64 559.95L304.33 563.49L304.79 565.4L305.87 567.3L305.4 571.55L304.85 571.56L303.39 570.72L299.94 572L298.45 573.56L297.53 576.56L296.89 577.64L295.41 578.66L288.57 581.18L286.9 582.33L285.91 583.98L284.98 589.34L281.44 592.53L280.55 593.87L280.18 595.48L278.13 597.32L276.86 599.21L276.68 602.92L278.35 606.64L278.49 608.41L277.71 609.4L276.33 610.43L271.9 612.36L271.12 613.35L270.2 615.77L264.18 623.13L263.48 624.95L265.51 626.86L265.8 628.08L265.79 629.03L264.98 630.33L259.63 630.29L259.27 630.36L259.12 630.76L258.78 634.94L260.18 637.54L260.13 638.92L259.8 640.03L257.7 641.96L257.68 642.7L258.24 643.38L257.72 644.32L257.73 645.08L258.25 646.66L260.76 647.76L260.96 648.43L259.72 650.45L258.51 650.95L254.5 651.65L252.65 653.04L252.1 654.22L252.39 655.2L253.65 656.51L254.77 658.72L255.12 658.99L257.48 659.14L258.48 659.5L258.54 662.12L258.99 663.27V664.2L258.28 666.97L257.99 667.37L255.94 668.18L254.58 669.13L253.91 670.07L253.76 671.59L255.2 672.24L256.21 673.29L256.67 678.54L257.19 678.89L260.06 679.52L262.47 681.44L264.05 683.41L265.28 686L266.13 686.85L268.93 687.94H272.25L273.44 688.22L274.72 688.95L275.3 689.84L274.96 690.05L272.48 689.87L270.9 690.18L269.96 690.86L268.8 696.06L266.75 698.54L263.33 701.01L262.62 701.9L262.2 703.53L262.61 706.59L260.71 709.19L258.5 710.76L253.67 721.97L248.19 723.88L245.24 724.35L240.76 724.15L238.81 723.43L235.53 721.61L230.68 714.69L227.49 712.2L225.25 711.77L222.44 712.1L219.44 713.24L214.86 716.04L210.28 717.46L205.32 718.12L202.52 719.27L197.93 720.49L190.07 720.47L182.02 721.64L178.88 721.16L177.07 720.54L173.36 718.48L167.79 714.23L166.6 712.32L164.85 707.84L164.18 707.03L161.8 705.36L158.99 705.26L157.32 706.16L154.74 709.06L154.07 712.35L153.89 713.82L152.79 714.96L150.41 715.57L144.31 715.46L140.69 716.5L133.73 721.82L132.83 721.44L131.17 718.91L129.5 719.05L128.12 719.52L126.78 720.95L126.45 722.14L126.59 726.81L126.06 728.62L123.29 731.67L120.05 733.24L117.48 733.81L113.77 735.42L111.18 738.04L108.39 739.39L107.51 739.56L106.32 739.18L104.08 737.84H102.27L100.51 738.41L98.7096 739.68L97.1796 741.17L95.6996 745.6L95.0296 748.74L93.7496 751.74L91.9296 754.07L91.0896 754.12L88.8096 752.31L86.6197 751.88L82.8096 751.73L80.3396 749.01L78.6796 744.91L77.1096 743.67L75.4896 743.38L72.7696 743.71L58.0896 748.26L54.7096 748.4L49.4697 747.77L45.6096 746.86L44.2796 745.71L42.8996 742.71L40.1396 741.23L39.8096 740.42L39.6696 738.08L37.2396 735.93L29.5696 736.35L26.2396 735.49L19.7096 734.62L16.9496 733.62L12.0896 727.56L10.2796 726.37L7.94965 725.94L7.32965 725.46L3.73965 724.88L2.11965 723.5L1.88965 722.4L2.79965 720.78L6.94965 720.55L7.18965 720.07L6.85965 719.07L5.25965 717.91L5.86965 717.17L12.6396 716.7L15.2596 715.18L16.2596 714.04L17.2596 713.57H19.6396L21.0196 713.14L24.5996 710.29L24.9796 709.19L24.4596 707.57L22.1796 704.52L21.9496 700.37L22.1996 693.17L22.7696 690.69L23.5296 689.93L26.1996 690.5L28.0096 689.6L31.8196 684L34.0596 682.74L34.2296 681.15L35.0396 680.29L36.6196 679.56L39.2296 677.32L40.3797 675.51L43.1796 668.03L42.7796 664.94L43.0396 664.3L45.1796 662.96L46.0296 661.71L47.4697 656.73L48.3196 654.71L49.4796 653.43L48.6496 650.94L48.8596 650.47L52.5796 645.74L55.5696 643.03L56.4697 641.87L57.9196 639.12L59.4396 633.49L60.2496 631.99L61.4496 631.09L62.2596 629.76L63.9296 629.07L65.8496 626.19L66.5797 625.76L67.1396 624.94L68.8496 624.12L68.6296 623.22L68.8896 622.36L69.6596 622.62L70.2197 622.4L71.7096 619.86L71.7896 617.84L72.2997 616.55L73.5396 614.96L73.4996 614.1L72.8496 612.6L73.2696 611.01L72.9596 609.42L73.2597 608.48L73.8997 607.96L75.2296 607.87L76.4697 607.31L76.9796 606.45L77.2696 604.65L77.9496 603.4V602.8L77.1696 601.77L75.7496 601.6L74.8896 601L74.5797 599.46L74.7896 597.96L76.4096 593.49L76.3596 591.82L75.8796 590.53L76.3096 589.93L77.3796 589.67L78.3196 588.59L78.9196 587L78.8697 585.54L79.4196 584.29L78.9397 583.05L79.8796 581.89L81.5996 581.88L81.8997 581.24L81.0797 580.08L79.8297 579.83L77.6396 578.03L76.6897 575.67L77.1596 574.25L78.9196 573.3L79.5196 572.1L78.3896 569.1L77.5196 565.32L75.4896 562.11L75.7896 560.69L78.8297 558.36L78.7796 557.29L78.0396 555.27L79.1897 553.38L78.2796 549.86L77.2396 547.8L75.7796 546.65L74.4496 546.83L73.3796 548.08L72.5196 548.34L71.3997 547.66L71.0097 546.85L71.6497 545.95L73.3596 544.87L72.4096 544.01L71.2896 543.84L70.9397 543.11L71.4496 542.29L72.6497 541.6L73.7896 536.92L75.2796 534L74.5896 532.54L74.9296 532.02L75.6197 531.67L78.7096 531.62L79.2696 531.19L80.4196 528.82L81.2796 528.1L81.6396 527.04L83.5097 524.04L84.5097 521.47L87.8096 518.57L90.2496 515.14L93.8297 513L96.9796 512.58L98.8896 511.63L100.9 509.53L101.86 507.29L103.97 498.99L104.26 495.13L104.93 493.79L108.2 490.69L110.06 488.4L111.92 485.42L112.39 483.36L112.19 479.68L114.08 472.8L114.86 459.7L115.81 454.88L116.74 453.28L118.59 451.45L119.53 448.93L119.31 447.32L117.72 444.78L116.6 441.09L114.54 439.01L112.64 438.56L109.39 442.1L107.29 441.91L105.62 440.67L104.53 437.23L101.38 435.03L98.6696 430.82L99.0596 425.33L96.2997 420.65L94.0196 415.49L89.2096 407.89L88.2597 407.03L86.2597 406.84L76.9996 406.82L74.6596 405.72L74.1396 404.19L74.4296 402.42L75.8697 399.65L75.7296 397.74L73.7696 396.35L67.4196 394.43L64.4596 392.13L62.7496 389.17L62.0796 387.21L60.6996 385.11L58.2197 383.24L55.9796 380.85L54.4096 378.41L52.8896 374.92H53.0796L52.0796 369.23L48.7896 363.64L46.6896 361.63L43.9196 360.72L41.8696 359.67L40.1496 357.9L39.2896 356.56L39.2496 354.22L42.1196 350.07L43.2197 347.87L44.2296 342.52L47.1896 338.85L47.9096 336.46L47.4296 335.27L45.3296 333.64L42.4697 332.68L39.2296 330.24L34.8896 328.37L33.7496 326.74L33.8496 323.54L35.3797 318.96L35.6196 316.14L35.2896 311.6L33.5796 306.63L33.5396 300.85L33.7796 299.18L33.4196 297.01L30.7896 291.39L28.6896 290.4L27.5796 288.71L27.4796 285.66L25.3296 280.78L24.7596 278.06L24.4796 273.52L25.0996 271.8V269.03L21.8096 257.8L23.1596 255.74L26.9696 252.68L27.9696 250.58L29.1196 246.24L29.1396 243.01L28.7396 239.36L27.6296 237.53L24.5096 233.9L25.3296 229.98L26.3796 227.88L25.8096 225.78L25.5796 220.62L26.3496 218.61L26.1596 217.85L23.2996 215.22L22.5396 214.89L20.5296 215.22L18.9496 214.79L17.6596 212.69L18.8596 206L19.0496 203.42L17.8596 198.11L17.4796 190.7L17.6296 186.35L15.8696 180.04L16.0096 178.51L17.4896 176.6L19.0196 173.49L21.4596 171.29L22.3696 169.23L22.7596 166.41L22.5196 162.68L22.9496 159.29L23.9596 155.61L26.3996 149.97L28.2696 144.71L30.8596 140.51L34.4496 138.22L36.8396 134.97L37.9896 131.24L39.1896 129.76L41.1496 128.61L42.2496 125.89L46.9896 117.29L52.1596 108.69L57.8096 103.2L66.0396 97.52L69.9196 95.57L72.4096 93.71L77.2496 88.22L78.2997 87.46L82.9896 86.03L85.5296 84.22L86.4896 82.5L87.2197 76.67L88.4697 74.23L94.6996 66.68L98.8697 60.8L107.2 52.59L109.84 49.25L111.85 45.43L112.74 39.59L112.45 29.29L114.08 28.54L113.99 27.89L114.97 23.45L115.87 20.6L117.24 18.14L119.26 15.64L120.08 15.29L120.42 15.53L120.86 14.43L120.5 13.48L120.62 10.81L121.09 9.69L123.36 7.23L124.56 4L125.07 3.48L127.66 2.98ZM138.49 2L143.12 3.33L147.35 5.01L147.81 5.47L143.18 4.03L137.04 4.32L135.01 3.63L134.89 2.94L135.47 2.25L138.49 2Z" fill="#C7C7C7" stroke="white" stroke-width="2"/>
</svg>
