<svg width="589" height="796" viewBox="0 0 589 796" fill="none" xmlns="http://www.w3.org/2000/svg">
<path d="M182.96 752.43L183.54 754.52L182.11 753.94L180.08 754.66L181.09 753.61L180.46 752.23L182.96 752.43ZM208.37 572.93L214.18 573.27L217.02 572.59L217.73 571.34L218.31 571.37L219.9 569.32L219.01 567.46L221.15 565.35L223.67 566.44L225.18 565.12L226.32 566.48L227.68 566.29L228.55 564.96L227.3 563.62L228.66 561.88L228.52 559.79L226.45 557.89L226.14 560.54L224.61 560.5L223.71 559.07L225.58 558.08L220.62 557.13L222.35 556.59L221.87 554.2L224.17 554.13L225.46 553.15L226.74 554.05L228.86 552.1L230.94 554.09L232.33 552.36L233.79 552.18L234.44 554.52L236.55 554.34L237.6 556.53L237.27 553.54L237.96 552.75L238.95 553.17L243.19 551.89L242.94 553.68L242.81 555.26L243.01 557.18L241.77 557.73L242.74 558.57L241.66 560.46L243.46 562.15L243.99 561.97L244.91 561.54L245.02 559.27L247.09 558.2L248.17 562.07H248.76L249.82 559.9L252.74 557.85L252.45 558.81L254.88 560.63L254.68 565.59L256.26 566.52L257.35 569.67L255.44 571.27L255.82 572.96L253.47 575.13L256.51 576.11L256.86 573.95L259.03 571.99L260.09 572.51L259 574.46L260.39 574.41L260.43 575.28H260.69L259.98 581.18L260.85 582.05L266.66 581.96L267.37 580.16L269.34 578.83L267.98 577.62L269.62 575.95L271.3 577.12L270.9 579.34L273.3 579.59L271.92 581.39L273.3 584.08L272.22 584.18L271.54 585.64L274.06 586.62L275.85 590.71L272.37 592.35L273.4 595.14L272.34 595L272.1 595.98L272.55 597.23L274.6 597.83L273.96 600.02L275.55 602L274.1 603.71L273.46 602.44L272.55 604.11L274.05 604.68L273.15 605.18L274.45 608.7L273.59 608.68L273.47 609.83L275.45 610.48L276.27 611.91L276.99 611.47L278.23 614.16L279.49 613.34L281.34 614.75L281.81 616.63L279.87 617.67L278.89 619.4L280.08 620.5L281.51 620.31L280.5 621.85L282.25 623.11L281.51 625.3L284.26 625.07L286.04 626.66L287.74 626.5L288.24 628.79L289.83 629.15V630.35L290.72 630.18L291.4 631.28L291.88 630.76L291.34 632.44L292.18 632.24L292.97 634.33L294.32 635.15L293.49 635.62L294.7 637.25L292.53 638.34L294.49 639.97L294.48 642.87L292.84 644.36L294.2 645.58L294.23 647.45L292.43 648.65L293.2 650.85L291.9 651.33L292.88 652.74L292.13 653.66L294.07 655.44L295.16 654.76L294.59 655.42L296.34 657.4L295.61 657.91L297.11 659.39L295.2 661.02L291.76 661.9L292.75 660.79L292.51 659.12L293.5 658.84L291.59 658.4L290.32 661.4L288.57 662.66L286.93 659.21L284.94 659.58L282.7 657.9L282.98 659.53L281.91 660.08L281.81 661.53L286.11 666.95L284.55 667.45L284.26 668.79L285.52 671.2L284.77 673.26L285.36 675.17L280.52 676.27L280.03 676.75L280.95 676.83L280.92 678.16L277.25 679.71L276.43 681.4L273.99 681.65L272.33 679.52L269.58 681.72L267.93 681.29L267.34 683.35L268.22 684.15L263.69 689.02L263.98 690.41L265.49 690.46L265.43 691.99L269.71 698.25L269.65 702.83L272.47 712.59L274.24 714.42L274.78 718.05V719.51L274.51 720.03L274.59 720.66L272.93 727.45L271.18 728.18V729.93L272.65 731.38L272.57 733.54L271.7 735.99L272.32 736.46L270.52 737.72L270.83 738.73L272.25 738L271.36 740.04L272.34 739.02L272.07 740L274.32 743.09L273.19 742.86L272.82 743.97L271.35 743.61L269.59 745.21L273.06 747.78L272.95 751.64L274.45 753.32L273.88 755.6L272.68 756.69L271.35 756.01L270.43 759.21L269.65 755.79L267.52 755.87L267.27 754.78L265.51 755.34L263.28 758.07L256.13 755.58L254.79 756.53L254.74 756.95L253.78 758.32L252.21 758.53L252.4 759.69L249.77 761.82L246.74 762.8L243.72 761.87L242.49 762.69L240.77 764.72L240.02 767.86L231.45 766.29L213.68 757.55L207.53 755.42L203.04 754.84L195.14 758.39L192.35 755.24L192.39 753.89L193.81 754.08L193.71 753.16L190.32 752.23L189.69 749.92L187.24 751.75L187.2 752.84L189.74 754.07L188.64 755.92L184.47 754.13L185.06 752L183.56 750.87L184.15 749.32L185.36 748.97L184.22 747.41L182.36 748.23L181.72 745.53L179.83 744.08L179.2 745.21L179.7 746.62L178.22 747.98L177.49 744.2L174.85 744.12L174.26 743.33L173.92 744.68L174.84 745.84L173.3 745.55L171.27 746.87L168.96 746.95L166.75 749.77L167.06 751.43L164.01 753.69L164.95 755.1L163.98 756.04L166.49 757.89L167.92 757.64L168.43 759.33L168.28 758.33L169.59 759.1L171.67 758.81L171.65 757.34L172.55 757.62L172.8 756.68L175.04 757.12L176.65 756.16L178.13 758.51L177.34 759.45L176.91 758.08L176.09 758.95L176.65 761.74L174.79 763.48L173.86 762.9L174.37 761.41L171.2 759.88L170.45 761.36L167.19 762.86L167.88 764.5L169.24 764.07L169.11 765.13L165.58 766.18L163.43 765.14L162.49 766.19L158.7 765.5L156.48 762.07L154.45 761.54L152.51 762.53L151.15 761.02L148.6 763.49L145.07 764.68L143.8 766.97L142.42 766.33L139.35 767.64L135.49 766.96L134.45 768.27L132.52 767.67L131.2 764.18L126.76 764.12L125.1 766.98L118.51 769.34L116.88 768.97L114.79 766.62L118.08 766.19L117.18 764.21L118.49 762.92L117.3 763.77L115.62 763.42L113.88 765.1L111.99 763.95L110.47 759.92L107.67 757.12L106.98 753.8L109.3 750.37L108.14 746.06L110.21 740.19L109.86 736.61L111.46 734.89L111.55 731.72L114.05 727.79L113.14 725.01L110.69 721.87L111.16 713.65L116.88 704.01L118.58 696.35L121.87 693.92L121.09 687.49L123.1 681.82L123.38 678.31L125.78 675.96L125.4 669.3L127.89 663.82L131.08 661.79L135.84 656.02L136.34 652.63L139.13 652.32L140.02 649.86L142.37 649.57L143.83 648.27L147.63 638.42L150.71 633.32L152.94 632.46L156.24 629.63L157.08 627.82L158.02 623.95L161 619.4L161.58 612.77L163.94 607.88L162.68 607.95L163.02 606.39L169.25 600.52L166.82 597.62L169.85 593.55L169.98 591.42L168.3 592.88L167.6 592.12L169.68 590.17L170.46 586.88L166.34 585.39L167.66 583.38L164.61 575.27L165.06 572.31L166.67 571.74L168.43 572.34L173.89 579.11L176.13 577.45L176.86 577.77L177.39 576.5L176.07 569.75L182.26 568.42L181.96 569.89L181.56 568.53L180.83 569.06L182.58 570.96L181.5 573.08L183.08 575.72L182.88 577L184.85 578.69L184.84 578.43L188.97 579.34L190.6 578.09L190.26 579.92L191.19 581.3L192.13 580.4L195.45 580.22L195.54 581.99L194.05 583.73L193.12 583.8L192.51 582.11L190.8 583.61L191.57 586.98L189.26 589.27L190.11 590.6L191.17 589.54L192.33 590.75L195.13 588.2L195.65 585.99L196.34 586.61L198.7 584.86L197.5 583.45L198.08 582.01L198.95 582.2L198.8 580.13L200.96 579.51L203.5 580.76L204.86 579.69L205.12 579.21L206.04 577.57L208.25 577.97L208.69 579.57L209.93 578.86L206.52 574.15L206.61 573.11L207.22 574.5L208.3 574.6L208.37 572.93Z" fill="#C7C7C7" stroke="white" stroke-width="2"/>
<path d="M268.201 480L270.161 478.96L270.051 478.04L272.451 475.26L274.641 477.36L275.161 476.41L276.721 477.36L276.971 476.46L278.531 476.22L278.831 477.6L280.311 478.54L280.341 480.53L281.861 480.33L284.811 482.27L286.601 482.24L287.041 485.09L289.011 487.78L289.881 487.66L289.201 488.41L291.211 489.05L290.051 490.73L290.731 492.22L294.371 491.44L295.711 494.25H296.181L296.891 494.07L296.871 496.07L298.171 495.62L298.351 496.58L299.471 495.03L300.241 495.2L301.331 497.8L303.761 498.22L303.271 500.8L304.041 502.29L303.221 504.41L304.271 504.39L303.681 505.22L304.471 506.62L303.611 506.97L304.261 508.5L305.661 509.21L307.541 508.52L309.831 510.31H310.161L311.231 511.04L312.061 510.37L312.171 506.4L314.581 507.38L316.611 506.36L317.971 507.75L319.501 507.09L319.431 504.02L317.261 503.63H316.911L316.741 502.41L314.681 502.25L312.841 500.02L311.181 499.5L311.991 497.15L311.021 497L311.201 495.16L313.651 495.79L315.661 493.14L316.881 493.67L318.591 492.37L320.511 492.82L321.401 491.97L322.361 493.57L323.441 492.92L323.921 492.73L325.191 492.38L328.311 496.82L329.131 496.66L328.871 495.07L331.631 495.6L332.091 497.2L334.711 496.42L334.941 495.07L336.621 494.94L336.791 496.69L338.061 496.29L339.331 498.54L337.771 501.59L338.581 503L340.881 503.49L340.471 504.57L341.391 504.25L341.701 502.26L345.291 504.7L345.621 502.68H345.881L345.301 502.2L346.431 500.95L345.921 497.88L346.871 497.96L345.931 496.43L347.401 495.56L345.711 491.58L346.281 488.54L345.091 486.69L345.061 483.72L347.561 483.09L347.811 484.04L348.521 482.66L349.811 482.52L349.761 480.75L351.391 480.53L351.321 479.53L356.741 480.48L357.371 481.67L357.021 482.46L356.051 482.22L356.071 487.17L358.001 488.43L357.511 489.62L358.901 488.41L360.061 488.59L359.821 491.54L362.471 492.02L362.561 494.12L364.981 493.07L365.701 491.61L367.121 491.32L369.101 492.86L374.411 491.37L374.791 492.01L376.381 490.71L377.941 491.03L377.241 490.16L378.521 490.59L378.961 489.67L381.861 491.36V492.67L388.141 489.29L390.051 490.84L389.791 492.08L390.751 491.64L391.941 492.78L391.571 496.54L392.841 496.18L395.961 499.03L396.031 498.41L398.861 498.25L399.441 499.79L401.001 500.94L400.601 501.86L401.941 504L399.251 505.32L398.851 506.61L401.111 508.25L402.591 507.97L403.201 510.44L404.131 510.17L404.671 511.59L405.571 511.64L405.061 512.08L406.761 514.65L405.391 517.26L405.731 520.53L407.761 522.01L408.821 521.71L410.541 523.79L409.651 525.58L413.251 526.12L413.921 528.13L414.561 527.44L416.471 529.64L418.571 529.79L418.661 530.86L420.501 531.11L420.571 532.87L422.371 531.83L424.251 533.21L424.841 534.12L423.031 536.42L423.481 537.67L427.911 539.18L428.101 541.15L424.741 545.51L424.771 547.31L423.291 547.55L422.641 550.01L423.141 552.4L418.631 554.93L418.741 556.73L421.181 560.56L424.081 562.17L426.261 562.24L426.661 568.94L428.731 568.79L430.601 576.79L432.621 577.9L433.571 577.33L434.061 578.2L433.391 582.75L434.871 585.08L434.901 586.92L438.161 587.88L441.281 590.8L442.741 595.47L447.071 595.7L449.241 597.18L449.211 595.15L453.171 595.76L457.171 599.51L458.581 599.66L458.891 603.52L460.191 603.6L460.661 604.88L461.941 605.26L462.371 607.1L464.031 608.05L463.861 609.59L467.711 612.48L468.141 615.93L471.771 618.19L475.191 617.73L481.831 624.03L482.461 630.52L488.321 634.92L489.141 634.8L489.121 632.25L490.651 631.75L493.761 632.12L495.561 635.28L496.861 634.16L496.451 635.18L499.551 640.83L502.391 641.08L503.781 640.26L505.441 645.17L507.281 645.71L508.671 648.78L508.061 650.44L510.271 651.33L507.381 656.76L508.491 658.09L510.111 658.38L508.521 659.07L509.201 666.48L507.731 668.23L507.761 670.29L505.741 672.22L505.031 671.26L504.251 672.3L504.421 674.34L503.371 676.04L499.181 674.16L498.441 672.81L495.401 671.05L493.311 671.67L489.181 668.82L489.021 670.2L487.091 672.05L485.471 671.28L484.721 671.85L485.911 676.3L483.911 681.58L484.721 684.09L482.921 689.46L478.051 694.11L473.021 697.28L468.351 697.06L458.101 700.62L454.061 705.2L448.491 705.94L447.051 709.23L443.981 711.25L443.101 713.47L441.341 713.16L440.791 714.8L441.611 718.26L447.291 723.71L448.761 728.7L451.271 729.33L451.801 730.93L452.821 730.57L456.991 739.46L452.171 746.76L453.121 747.52L450.901 751.36L452.191 752.56L454.961 752.85L457.851 751.36L461.901 754.81L461.671 756.42L463.051 759.72L460.751 762.83L461.311 764.18L459.501 765.24L460.481 766.58L458.811 769.11L459.811 770.35L459.731 773.19L456.951 775.84L456.381 774.41L455.091 773.81L454.721 774.83L450.961 772.69L449.271 770.36L447.421 769.56L447.051 768.03L443.831 767.17L442.801 764.75L443.901 762.49L445.601 761.83L441.431 758.18L442.941 756.08L441.391 756.96L439.651 755.41L436.401 755.2L434.401 756.38L431.591 756.15L429.741 759.93L427.271 759.62L424.741 760.66L420.941 755.92L421.001 754.07L416.391 755.1L414.381 753.9L409.231 755.58L408.341 754.16L409.811 750.49L409.021 749.56L406.621 752.47L403.361 753.59L405.711 759.44L405.891 762.43L404.101 762.94L404.291 761.69L401.801 762.5L396.941 761.23L394.321 762.07L393.561 760.63L391.481 761.73L387.511 761.69L383.831 762.81L383.111 764.7L379.161 763.82L371.551 764.5L369.861 763.51L369.711 764.83L367.781 765L366.761 770L365.771 770.98L361.541 771.91L356.861 771.14L353.721 774.99L355.221 775.42L356.111 777.6L350.741 777.17L347.771 779.25L347.681 781.09L346.331 782.07L343.491 782.26L345.341 779.17L342.311 778.63L337.341 780.66L336.571 782.14L327.711 781.97L327.261 780.41L328.151 778.97L324.671 775.14L325.071 774.23L320.851 774.09L321.081 772.25L323.931 771.19L322.031 768.94L315.071 771.09L313.871 769.2L309.811 768.23L309.531 766.86L303.681 765.96L302.011 769.25L298.911 769.13L294.581 767.2L296.201 764.41L293.481 764.49L292.981 765.17L294.401 767.33L293.041 772.11L293.811 773.85L295.431 774.6L295.871 778.69L293.371 780.76L293.341 783.53L290.821 784.03L286.601 790.67L280.411 793.92L278.361 793.34L276.761 794L276.971 791.55L279.211 790.02L278.251 788.58L280.651 783.46L280.021 782.92L279.111 783.7L277.201 782.46L276.021 784.76L273.051 784.17L271.801 786L270.011 780.7L272.211 779.13L271.471 776.78L269.001 775.6L268.271 773.57L265.541 774L264.671 772.61L265.201 772.12L263.271 770.37L263.611 768.05L263.131 769.13L260.431 769.61L257.901 767.87L257.421 769.74L253.671 767.87L254.431 764.96L252.771 763.43L250.261 764.52L248.631 769.24L239.961 767.89L240.711 764.75L242.431 762.72L243.661 761.9L246.681 762.84L249.721 761.86L252.351 759.73L252.161 758.57L253.731 758.36L254.681 756.99L254.731 756.57L256.071 755.61L263.221 758.1L265.451 755.38L267.211 754.82L267.461 755.92L269.581 755.84L270.371 759.25L271.291 756.06L272.631 756.74L273.821 755.65L274.401 753.37L272.891 751.68L273.001 747.83L269.531 745.26L271.291 743.66L272.751 744.02L273.121 742.91L274.261 743.14L272.011 740.04L272.281 739.07L271.301 740.09L272.191 738.05L270.771 738.78L270.461 737.77L272.261 736.51L271.631 736.04L272.501 733.59L272.581 731.43L271.111 729.98V728.23L272.861 727.5L274.521 720.71L274.441 720.08L274.721 719.56V718.09L274.181 714.47L272.411 712.64L269.601 702.88L269.661 698.3L265.381 692.04L265.441 690.51L263.921 690.46L263.641 689.07L268.171 684.2L267.291 683.39L267.881 681.33L269.521 681.77L272.271 679.56L273.931 681.69L276.371 681.44L277.201 679.75L280.871 678.2L280.891 676.87L279.971 676.79L280.461 676.31L285.301 675.21L284.721 673.3L285.461 671.23L284.201 668.82L284.491 667.49L286.051 666.99L281.751 661.56L281.841 660.11L282.911 659.56L282.631 657.93L284.881 659.61L286.871 659.24L288.511 662.69L290.261 661.43L291.531 658.42L293.441 658.87L292.461 659.15L292.691 660.81L291.701 661.92L295.141 661.04L297.051 659.42L295.551 657.93L296.281 657.42L294.531 655.45L295.101 654.79L294.011 655.48L292.071 653.69L292.821 652.77L291.841 651.36L293.141 650.88L292.371 648.68L294.171 647.48L294.151 645.61L292.781 644.39L294.431 642.9L294.441 640.01L292.481 638.37L294.661 637.28L293.441 635.64L294.281 635.17L292.931 634.35L292.141 632.26L291.301 632.46L291.841 630.78L291.371 631.3L290.681 630.19L289.801 630.36V629.16L288.211 628.8L287.711 626.51L286.011 626.67L284.231 625.08L281.481 625.31L282.221 623.12L280.471 621.86L281.491 620.31L280.061 620.51L278.871 619.41L279.851 617.68L281.791 616.64L281.331 614.77L279.471 613.36L278.221 614.18L276.981 611.48L276.261 611.92L275.441 610.49L273.451 609.84L273.571 608.69L274.441 608.71L273.141 605.19L274.041 604.69L272.541 604.12L273.451 602.45L274.091 603.72L275.531 602.01L273.941 600.03L274.581 597.84L272.541 597.24L272.081 595.99L272.331 595.01L273.381 595.15L272.351 592.36L275.831 590.72L274.041 586.62L271.521 585.64L272.201 584.19L273.291 584.09L271.911 581.4L273.291 579.6L270.891 579.34L271.291 577.12L269.601 575.96L267.971 577.62L269.331 578.83L267.361 580.17L266.651 581.97L260.851 582.05L259.971 581.18L260.681 575.29H260.421L260.371 574.42L258.981 574.47L260.071 572.52L259.021 572L256.851 573.96L256.501 576.11L253.461 575.13L255.801 572.97L255.431 571.28L257.341 569.68L256.251 566.53L254.671 565.6L254.871 560.64L252.441 558.82L252.731 557.86L249.811 559.91L248.751 562.08H248.171L247.081 558.21L245.011 559.28L244.901 561.55L243.991 561.98L243.461 562.16L241.661 560.47L242.741 558.58L241.771 557.75L243.011 557.2L242.811 555.28L242.951 553.69L243.201 551.9L238.961 553.18L237.971 552.76L237.271 553.55L237.601 556.54L236.561 554.34L234.451 554.52L233.801 552.18L232.341 552.36L230.951 554.09L228.871 552.1L226.751 554.05L225.471 553.15L224.171 554.14L221.871 554.21L222.361 556.6L220.631 557.14L225.591 558.09L223.721 559.08L224.621 560.51L226.151 560.55L226.461 557.9L228.521 559.79L228.661 561.89L227.301 563.63L228.551 564.96L227.691 566.3L226.321 566.48L225.181 565.12L223.671 566.43L221.151 565.34L219.001 567.45L219.901 569.32L218.311 571.37L217.731 571.34L217.021 572.59L214.181 573.27L208.371 572.93L207.131 570.66L206.081 570.48L206.071 568.8L208.311 566.66L207.541 561.55L209.981 560.81L209.611 559.52L211.221 556.87L208.641 555.11L210.371 552.81L209.931 551.45L207.551 551.91L206.731 549.34L207.271 546.47L205.931 547.93L205.181 547.19L205.711 546.51L204.101 546.72L203.901 544.5L205.001 544.44L203.251 540.17L202.951 533.51L203.431 532.11L204.941 531.97L203.981 530.89L203.631 527.34L200.301 526.58L201.701 524.5L201.651 522.26L203.011 520.32L209.401 518.82L211.631 519.76L211.461 522.27L213.971 518.79L213.641 517.68L215.891 516.58L218.011 517.63L221.551 518.15L222.731 517.42L223.531 518.31L225.371 518.33L227.411 522.39L229.431 522.98L234.421 521.97L234.131 516.94L234.951 516.52L235.441 514.9L235.351 514.77L233.521 513.85L233.651 512.23L234.621 511.62L233.321 508.91L233.651 507.4L236.311 509.08L238.491 508.3L238.911 509.38L244.111 508.21L244.181 507.46L242.401 506.51L243.461 504.46L246.481 503.48L249.351 500.61L249.371 497.46L248.501 496.03L250.331 489.1L251.551 489.74L252.901 489.1L253.311 490.29L256.491 491.92L257.281 490.6L257.991 491.62L259.251 491.23L262.901 489.2L265.441 485.43L266.701 484.94L268.201 480Z" fill="#C7C7C7" stroke="white" stroke-width="2"/>
<path d="M487.1 259.7L487.17 259.74L487.88 259.4L487.81 260.79L490.09 262.2L488.47 266.08L489.16 267.7L491.83 268.18L493.89 269.95L494 272.25L497.23 273.01L496.73 274.13L498.55 274.25L495.62 280.32L496.4 280.9L497.97 279.57L501.69 282.08L501.34 280.73L505.04 283.3L503.8 284.44L502.87 284.22L504 284.76L504.03 285L503.72 285.04L503.36 285.68L503.8 286.82L503.17 287.86L500.44 289.26L501.29 290.44L499.58 291.34L497.99 294.2L497.28 293.46L497.74 290.21L496.8 289.62L495.37 290.42L494.4 288.51L490.92 288.92L490.85 287.81L487.28 288.24L486.43 285.74L483.47 286.77L483.45 290.32L481.47 290.13L481.32 289.04L480.3 289.01L478.58 286.72L477.11 287.48L476.12 287.16L475.65 286.09L474.18 287.33L472.58 287.31L472.37 285.69L471.08 285.56L467.38 287.13L466.81 288.14L467.62 288.27L465.18 288.76L464.84 288.78L465.47 287.96L463.28 286.71L462.97 286.54L462.51 286.53L462.91 285.44L464.6 283.8L463.77 282.62L464.3 279.6L467.43 276.35L465.9 275.27L464.25 275.56L464.88 272.11L466.07 271.83L466.57 269.52L464.99 268.3L467.23 267.01L470.59 268.16L469.63 266.17L470.85 263.95L473.59 264.01L473.42 262.66L474.8 262.47L474.82 260.49L476.52 260.85L476.5 263.84L479.7 264.39L481.91 261.83L483.75 263.09L485.1 261.59L486.77 261.5L485.48 260.28L486.04 259.58L486.95 259.05L487.33 259.16L487.1 259.7Z" fill="#C7C7C7" stroke="white" stroke-width="2"/>
<path d="M346.27 211.85L354.29 213.04L354.57 210.04L356.09 209.88L357.33 210.52L358.76 209.96L359.3 211.39L361.33 212.05L363.17 211.55L364.71 210.2L364.33 208.82L365.39 207.28L364.38 202.58L366.67 202.11L369.19 199.34L371.78 198.83L375.65 200.14L375.84 201.67L378.7 200.65L381.38 200.92L382.17 199.7L380 197.9L384.06 198.38L386.11 195.38L389.72 196.07L391.3 193.13L392.62 193.78L394.43 192.83L394.07 189.25L396.8 187.47L395.96 185.18L398.13 185.64L398.28 187.86L400.16 188.14L402.69 186.35L403.84 188.66L404.89 188.29L405.01 187.21L407.72 186.61L409.5 190.34L412.81 189.89L418.05 192.86L418.09 194.56L420.29 195.59L421.38 198.3L426.49 196.76L431.6 198.91L435.18 197.86L436.12 198.37L435.46 200.02L436.61 200.76L441.19 201.06L440.05 203.57L442.04 204.89L446.97 203.4L448.93 205.68L450.56 204.17L452.19 204.01L451.64 204.81L452.87 204.96L452.71 204.13L454.51 203.49L455.52 204.41L453.15 206.24L454.18 205.86L455.22 207.6L457.11 207.11L459.27 204.07L461.71 203.55L462.27 202.14L463.5 201.96L463.43 199.81L465.03 199.83L466.33 198.28L468.47 198.35L469.74 201.24L471.49 201.91L472.42 197.66L475.91 195.09L478.36 195.89L479.78 195.41L481.41 199.15L482.65 198.5L482.54 198.32L484.73 194.59L484.61 193.16L485.74 193.12L486.24 194.14L487.64 193.78L488.78 190.24L490.03 190.88L489.63 187.34L490.15 185.9L491.33 186.05L492.24 184.69L491.85 182.46L494.14 180.87L496.66 181.22L497.11 177.86L502.25 173.61L503.88 173.15L506.18 174.43L508.54 173.18L509.18 171.9L506.11 170.06L507.28 165.27L509.18 169.64L512.65 171.07L512.52 174.34L515.04 176.52L514.13 178.93L515.14 179.92L520.51 178.56L523.4 179.08L523.76 180.84L525.98 181.12L528.24 177.89L531.98 179.89L533.78 179.73L534.7 178.57L535.78 179.25L536.09 183.53L534.9 186.64L528.79 193.17L526.74 197L530.65 196.5L534 197.83L537.17 197.28L537.27 195.48L539.73 194.48L540.74 191.81L542.68 191.94L546.75 189.74L547.33 195.32L548.51 195.59L548.99 196.97L546.24 202.56L544.49 203.71L543.92 207.77L545.16 209.91L543.68 216.53L542.44 219.3L537.03 224.41L529.7 228.92L530.74 237L528.33 241.88L529.55 243.33L534.41 244.16L538.26 248.55L542.9 251.08L550.08 260.43L558.55 265.95L561.16 269.78L558.98 273.81L560.86 278.29L557.44 283.38L555.48 284.27L554.53 288.26L556.26 295.15L557.66 297.24L557.13 299.14L558.24 300.85L564.33 302.67L565.97 304.75L565.49 307.6L564.16 308.88L565.38 311.53L563.8 314.39L563.93 317.21L568.84 322.46L567.97 323.63L568.14 325.94L566.01 328.97L566.47 329.99L565.43 331.71L566.41 335.18L564.77 339.42L559.38 344.18L558.14 347.09L559.17 349.39L561.67 350.35L563.12 357.51L567.51 361.37L568.76 364.25L569.24 369.66L567.03 372.23L564.91 370.62L565.34 372.6L563.8 375.18L559.71 375.48L558.5 373.27L556.68 372.39L555.2 373.17L554.79 374.55L549.46 374.73L549.02 376.2L545.26 376.31L542.32 378.69L541.75 380.24L541.2 379.41L541.16 378.93L537.72 377.28L536.18 377.75L534.13 376.55L529.28 376.15L528.76 377.29L529.46 378.19L527.24 378.44L526.55 380.79L525.26 381.33L526.13 382.92L522.66 383.03L524.48 386.16L522.89 387.16L523.42 388.86L521.55 390.25L522.26 391.12L520.78 391.27L520.42 393.47L518.64 393.13L518.69 391.4L517.89 391.08L514.52 392.78L509.97 392.3L509 393.84L506.69 393.74L506.06 394.54L505.63 393.74L503.99 394.61L499.26 393.11L498.7 393.84L494.74 393.9L494.22 392.39L493.01 392.25L491.4 393.84L491 392.6L490.11 392.55L489.89 390.53L486.26 389.5L486.92 388.82L485.19 387.41L483.57 388.48L484.01 387.26L482.22 385.31L480.72 387.06L480.88 388.17L477.39 387L477.73 388.1L475.03 389.6L474.99 390.9L473.4 390.72L473.8 392.3L470.46 391.15L469.1 387.06L468.8 388.33L467.95 387.9L469.72 385.59L468.4 383.12L468.55 381.41L469.62 381.33L470 378.1L468.59 374.71L465.94 373.51L467.06 370.97L464.57 368.23L462.33 369.4L460.17 365.58L466.26 361.64L467.06 360.82L466.55 358.94L468.65 358.36L466.55 355.43L467.3 354.8L466.23 353.05L467.19 349.18L464.58 344.03L466.52 343.57L465.66 341.62L464.46 341.4L462 342.82L459.46 342.5L458.62 341.56L459.32 341.57L459.72 339.53L455.1 339.58L455.22 337.38L454.01 337.17L454.14 335.88L451.68 335.46L449.74 336.69L449.56 335.99L447.39 335.89L446.92 332.51L442.78 333.04L441.23 330.57L435.86 327.96L434.89 327.89L434.16 329.78L432.24 330.05L432.11 331.05L427.49 330.69L427.24 328.94L424.35 327.79L423.64 325.76L422.49 325.65L421.78 327.44L420.8 327.52L417.87 324.76L415.95 324.29L413.03 319.69L410.63 318.44L409.76 315.54L407 311.74L407.55 310.14L408.8 310.16L408.85 307.33L412.04 305.62L409.65 304.92L410.43 304.39L408.73 303.13L410.71 296.45L412.67 293.33L411.09 291.32L412.49 290.04L411.73 289.19L412.21 287.04L410.51 286.21L411.96 285.27L411.46 284.56L414.17 279.62L412.75 278.51L414.13 277.62L410.33 278.68L409.62 277.74L410.28 277.21L408.53 275L406.98 277.14L404.89 277.66L403.72 275.78L405.18 273.82L403.99 273.11L402.24 274.06L404.53 269.41L403.88 264.09L405.96 264.76L407.69 263.67L407.81 262.67L408.2 258.21L407.1 257.37L407.43 255.82L406.29 255.03L406.5 254.12L405.74 254.32L407.22 251.58L406.39 250.06L407.12 247L408.99 246.82L409.5 245.22L407.96 239.28L405.86 238.6L405.45 237.54L401.05 240.21L400.93 235.94L400.17 237.77L394.48 236.34L391.73 237.87L386.02 235.87L384.6 234.32L382.36 234.29L381.59 233.05L383.27 230.99L383 229.77L379.3 228.9L376.5 225.89L373.47 227.12L372.37 223.87L369.14 223.5L370.02 220.68L367.5 220.92L364.2 219.06L361.74 219.57L358.2 216.38L350.91 218.82L346.72 214.29L346.27 211.85ZM486.04 259.58L485.48 260.28L486.77 261.5L485.1 261.59L483.75 263.09L481.91 261.83L479.7 264.39L476.5 263.85L476.52 260.85L474.82 260.49L474.8 262.47L473.42 262.66L473.59 264.01L470.85 263.95L469.63 266.17L470.59 268.16L467.23 267.01L464.99 268.31L466.57 269.52L466.07 271.83L464.87 272.11L464.24 275.56L465.9 275.27L467.42 276.35L464.29 279.61L463.76 282.63L464.59 283.81L462.91 285.45L462.51 286.54L462.97 286.55L463.28 286.72L465.47 287.97L464.84 288.79L465.18 288.77L467.62 288.28L466.81 288.14L467.38 287.13L471.08 285.57L472.37 285.7L472.58 287.33L474.17 287.35L475.64 286.11L476.11 287.17L477.1 287.49L478.57 286.73L480.29 289.02L481.3 289.05L481.45 290.13L483.43 290.33L483.45 286.78L486.41 285.75L487.26 288.25L490.83 287.82L490.89 288.92L494.37 288.51L495.35 290.42L496.78 289.62L497.71 290.21L497.25 293.46L497.96 294.2L499.55 291.35L501.25 290.44L500.4 289.26L503.13 287.86L503.76 286.82L503.33 285.67L503.69 285.03L504 284.99L503.97 284.75L502.84 284.21L503.77 284.43L505.01 283.29L501.31 280.72L501.66 282.07L497.94 279.57L496.37 280.9L495.59 280.33L498.52 274.25L496.7 274.13L497.2 273.01L493.97 272.25L493.86 269.95L491.8 268.18L489.12 267.7L488.43 266.08L490.05 262.2L487.77 260.8L487.83 259.41L487.12 259.75L487.29 259.17L486.91 259.07L486.39 259.78L486.04 259.58Z" fill="#C7C7C7" stroke="white" stroke-width="2"/>
<path d="M169.3 200.78L170.02 200.68L173.33 202.72L174.89 201.84L176.2 202.37L174.97 204.55L176.95 204.59L177.76 206.6L181.21 206.26L182.63 205.2L183 206.08L184.46 205.73L185.38 207.47L190.91 207.43L191.56 208.16L191.75 209.09L192.96 210.57L193.07 210.9L196.27 210.79L198.24 208.7L200.7 211.43L198.46 212.52L199.42 214.27L201.11 214.53L199.37 215.86L199.54 218.5L200.56 219.94L197.77 222.27L197.62 223.36L195.03 223.35L193.23 220.58L193.17 222.54L190.42 222.69L187.58 220.67L187.23 219.19L186.18 220.76L183.8 220.66L182.98 219.05L183.31 216.79L180.47 215.23L180.7 213.93L178.2 210.16L177.49 207.13L170.57 203.89L170.3 203.55L168.75 201.02L169.25 200.65L169.3 200.78ZM171.24 160.35L175.84 161.71L177.29 160.47L179.2 160.77L179.03 159.91H180.13L177.42 163.67L178.11 165.57L179.18 165.77L178.77 168.63L179.52 170.12L178.38 172.15L176.74 173.39L175.43 172.46L174.65 173.15L172.95 169.51L173.48 169.16L174.34 169.28L174.42 166.85L174.9 167.32L173.71 166.06L173.81 163.41L173.13 163.32L172.94 164.7L171.24 160.35Z" fill="#C7C7C7" stroke="white" stroke-width="2"/>
<path d="M248.301 165.56L250.911 157.53L251.001 159.11L252.551 159.61L252.741 161.57L255.061 162.38L258.521 158.48L259.541 155.33L264.151 155.98L265.431 152.25L269.671 152.59L270.481 149.76L269.831 149.08L270.671 148.04L273.251 148.79L276.281 146.08L277.901 146.91L277.811 147.66L277.161 149.22L275.561 149.77L275.721 151.23L274.681 152.58L277.311 154.11L278.211 155.78L277.711 156.79L279.641 157.3L277.681 159.6L278.181 162.45L275.121 163.8L275.831 169.23L277.461 170.35L278.971 169.42L280.871 173.53L284.161 176.77L286.311 177.11L285.181 178.76L282.331 180.19L280.751 182.74H276.651L268.841 175.56L268.561 177.32L266.801 177.36L267.461 178.62L264.561 180.61L261.811 179.36L260.131 180.86L259.571 180.64L260.471 178.55L259.371 176.35L256.671 178.21L256.701 179.15L253.221 175.6L253.021 172.49L251.671 172.67L251.831 171.71L250.401 170.7L251.371 169.5L250.551 167.29L251.131 165.92L248.301 165.56Z" fill="#C7C7C7" stroke="white" stroke-width="2"/>
<path d="M230.541 365.63L233.401 364.58L233.121 366.73L234.271 367.68L236.481 366.31L238.101 367.91L241.681 366.71L242.421 369.5L245.741 372.74L245.021 373.7L241.911 372.01L241.681 373.46L242.981 375.34L241.481 375.65L240.361 374.36L241.351 377.21L239.101 378.89L242.741 383.62L241.751 386.06L242.821 388.94L241.841 390.27L238.621 390.67L237.411 392.9L238.541 393.75L238.011 394.66L235.651 394.15L237.561 396.41L240.301 398.46L242.061 398.38L241.961 399.8L244.481 399.12L248.561 401.46L250.741 400.31L251.021 397.24L248.891 398.99L246.531 394.48L249.111 393.78L250.931 392.02L252.691 392.28L252.501 389.99L253.961 389.61L255.261 390.56L255.331 392.48L256.931 393.71L256.011 389.33L257.781 390.26L258.021 389.3L259.261 389.02L261.091 391.53L260.931 393.32L260.731 395.45L262.221 398.98L261.641 400.25L263.541 400.94L263.751 402.55L269.051 403.15L268.521 405.69L270.471 406.76L269.891 408.43L272.711 409.56L274.371 409.01L274.981 410.37L276.071 409.91L277.991 411.9L280.621 412.58L278.391 416.08L279.001 418.67L278.191 419.97L276.091 415.9L273.141 417.3L276.651 419.62L274.781 422.83L275.361 424.41L274.521 425.36L278.631 427.82L279.241 428.75L277.851 429.5L278.571 430.59L274.891 432.11L273.151 430.33L272.081 430.98L268.041 430.06L266.781 433.25L268.141 434.66L268.281 436.51L269.571 436.96L267.401 437.69L267.091 437.09L266.311 437.99L262.371 437.21L262.601 439.1L263.281 438.17L264.761 438.27L263.731 440.66L266.301 439.27L268.761 441.43L268.561 442.53L269.311 442.45L269.391 443.23L266.981 444.92L266.911 446.67L267.971 446.23L267.271 448.07L265.931 447.81L265.361 448.95L264.351 448.49L263.941 448.34L262.521 449.42L261.941 451.59L262.561 454.19L260.801 454.15L260.541 455.67L261.611 456.01L261.711 457.68L259.691 461.04L260.611 462.19L257.821 464.58L257.651 467.57L262.971 468.66L263.471 467.47L262.271 465.93L262.571 464.87L265.561 463.96L268.971 464.49L270.791 469.35L268.671 469.26L267.901 470.54L269.441 476.03L268.001 478.69L268.201 480L266.701 484.94L265.441 485.43L262.901 489.2L259.251 491.23L257.991 491.62L257.281 490.6L256.491 491.92L253.311 490.29L252.901 489.1L251.551 489.74L250.331 489.1L248.501 496.03L249.371 497.46L249.351 500.61L246.481 503.48L243.461 504.46L242.401 506.51L244.181 507.46L244.111 508.21L238.911 509.38L238.491 508.3L236.311 509.08L233.651 507.4L233.321 508.91L234.621 511.62L233.651 512.23L233.521 513.85L235.351 514.77L235.441 514.9L234.951 516.52L234.131 516.94L234.421 521.97L229.431 522.98L227.411 522.39L225.371 518.33L223.531 518.31L222.731 517.42L221.551 518.15L218.011 517.63L215.891 516.58L213.641 517.68L213.971 518.79L211.461 522.27L211.631 519.76L209.401 518.82L203.011 520.32L201.651 522.26L201.701 524.5L200.301 526.58L203.631 527.34L203.981 530.89L204.941 531.97L203.431 532.11L202.951 533.51L203.251 540.17L205.001 544.44L203.901 544.5L204.101 546.72L205.711 546.51L205.181 547.19L205.931 547.93L207.271 546.47L206.731 549.34L207.551 551.91L209.931 551.45L210.371 552.81L208.641 555.11L211.221 556.87L209.611 559.52L209.981 560.81L207.541 561.55L208.311 566.66L206.071 568.8L206.081 570.48L207.131 570.66L208.371 572.93L208.191 574.61L207.111 574.52L206.501 573.12L206.411 574.16L209.821 578.87L208.581 579.59L208.141 577.99L205.931 577.59L205.011 579.24L204.751 579.72L203.391 580.78L200.851 579.53L198.691 580.15L198.841 582.21L197.981 582.03L197.401 583.46L198.591 584.87L196.241 586.62L195.551 586.01L195.021 588.21L192.221 590.76L191.061 589.55L189.991 590.62L189.141 589.29L191.451 587L190.681 583.63L192.401 582.13L193.011 583.83L193.941 583.76L195.431 582.02L195.341 580.24L192.021 580.42L191.081 581.32L190.151 579.94L190.491 578.11L188.871 579.36L184.741 578.45V578.72L182.771 577.02L182.981 575.74L181.401 573.1L182.471 570.99L180.731 569.08L181.461 568.55L181.861 569.92L182.161 568.45L175.971 569.78L177.291 576.53L176.761 577.81L176.031 577.48L173.791 579.14L168.331 572.37L166.571 571.77L164.961 572.34L162.511 568.15L160.931 561.7L165.951 558.76L168.581 554.81L168.101 554.13L165.041 554.18L162.251 548.83L162.581 545.58L160.041 543.45L160.691 539.49L158.591 533.69L153.641 528.67L149.781 527.89L140.621 531L136.091 533.55L130.761 534.15L129.601 533.31L128.701 530.09L123.631 525.67L125.511 523.1L127.741 523.07L127.291 521.63L128.621 518.79L130.651 520.04L131.791 519.34L133.591 521.2L133.031 518.08L133.751 517.09L130.681 514.68L130.601 513.36L132.321 512.16L132.331 511.21L134.631 510.58L134.891 509.62L137.161 508.79L137.301 507.79L138.841 509.77L140.151 509.96L141.431 507.85L141.171 507.5L139.471 505.83L140.391 504.49L142.751 504.35L143.181 505.43L144.861 505.54L145.671 501.7L144.621 500.65L144.571 498.97L142.671 498.42L142.961 496.87L141.891 494.22L141.011 494.14L140.831 493.1L139.081 493.2L139.481 491.62L137.161 491.71L135.761 490.56L137.141 489.38L137.321 488.22L136.491 487.86L138.741 486.32L136.671 482.91L137.751 479.16L140.831 475.89L142.581 477.74L144.631 478.29L146.691 476.55L147.721 471.72L146.091 470.67L146.971 468.41L145.041 465.67L145.981 463.08L148.711 458.2L146.321 453.67L146.571 452.64L146.971 452.51L155.041 443.46L156.611 443.35L157.561 445.44H160.911L165.591 439.73L167.361 439.61L166.721 437.37L167.251 434.87L168.511 434.54L168.301 433.81L172.281 429.46L171.121 427L170.231 427.31L171.621 425L170.061 423.33L171.681 421.6L173.601 421L179.901 421.85L181.651 420.51L183.951 420.31L182.721 418.95H182.481L182.411 417.53L186.371 413.5L185.681 411.3L186.951 410.27L185.281 409.26L184.411 405.98L184.971 404.84L184.051 403.69L182.141 403.45L176.001 406.39L173.551 403.32L177.561 397.35L178.631 396.57L179.741 397.01L180.031 395.43L181.471 394.96L181.171 393.81L182.281 393.22L184.651 393.65L189.211 391.78L191.391 391.99L192.531 393.12L194.851 391.57L197.841 391.93L198.421 388.03L196.661 387.71L196.641 385.89L194.851 382.49L202.971 378.79L204.291 380.36L206.691 380.29L207.611 381.11L206.791 384.14L207.891 386.27L210.491 385.69L211.951 386.41L213.491 384.12L215.571 384.79L216.091 381.65L218.601 380.76L219.781 379.19L221.391 379.23L221.901 375.27L225.491 371.32L223.281 368.92L228.701 367.36L230.541 365.63Z" fill="#C7C7C7" stroke="white" stroke-width="2"/>
<path d="M508.31 99.76L510.25 104.37L512.47 107.05L521.62 112.24L534.98 125.64L532.31 127.25L534.17 128.61L534.08 132.22L522.91 131.47L519.94 134.23L516.69 134.74L515.6 133.92L516.87 134.19L517.55 133.13L515.95 131.45L514.86 134.81L512.77 135.13L509.42 134.02L510.08 131.71L513.97 130.97L516.52 127.7L515.53 123.29L513.89 121.61L514.67 119.05L518.19 119.06L517.82 124.95L518.36 122.5L519.42 122L521.94 121.94L521.17 123.16L523.07 124.11L523.52 119.54L523.05 116.59L521.63 115.59L520.89 116.7L520.18 113.19L518.6 110.92L514.74 111L514.57 113.23L516.22 114.79L515.78 116.1L515.1 115.55L515.5 114.07L514.07 116.46L511.55 117.8L511.11 116.33L512.8 113.67L511.32 112.64L507.67 115.81L505.73 115.73L505.52 114.52L506.62 113.64L508.23 109.09L508.43 106.11L507.03 105.65L504.87 102.95L504.39 100.63L506.81 99.03L508.31 99.76ZM465.07 84.46L464.43 85.09L463.92 83.98L464.72 83.59L465.07 84.46ZM490.31 83.54L490.13 84.21L489.77 83.51L491.32 81.69L491.57 82.68L490.31 83.54ZM437.87 71.27L439.48 72.71L436.06 72.6L436.99 71.08L437.87 71.27ZM453.36 69.74L454.39 70.31L451.89 70.69L452.19 69.71L453.36 69.74ZM460.1 69.17L455.01 70.56L456.75 69.31L458.83 69.22L459.82 67.83L460.1 69.17ZM426.86 65.46L425.93 66.37L428.91 68.54L435.59 69.77L451.42 69.44L452.04 71.41L448.83 72.84L445.53 72.09L444.17 73.46L443.11 72.64L439.95 72.69L438.96 70.93L436.95 70.98L435.39 73.46L433.54 72.65L433.64 71.6L432.19 73.62L429.73 74L431.09 75.33L430.67 76.31L430.31 75.49L428.24 75.47L426.49 76.49L426.15 77.21L427.16 78.24L428.36 76.77L429.16 77.47L432.51 77.35L435.51 75.55L435.54 73.5L438.04 73.16L438.49 74.06L436.77 74.49L437.15 76L436.1 77.59L436.77 77.67L437.63 74.55L438.53 74.54L438.86 77.46L439.87 77.63L440.46 76.27L441.9 77.53L443.13 74.85L444.74 80.52L449.16 77.91L450.16 74.31L451.88 72.97L455.97 71.57L457.37 70.23L458.67 70.5L458.42 74.74L459.83 76.51L461.79 76.42L462.68 77.9L461.59 80.32L462.37 83.16L464.09 85.26L463.44 87.29L465.3 88.78L467.33 87.79L468.2 88.62L465.97 90.41L468.7 88.99L470.53 91.81L475.2 92.41L477.53 97.95L480.37 98.18L478.42 98.64L476.95 100.54L480.73 98.74L482.73 99.78L481.82 98.22L483.32 98.99L483.17 100.5L482.77 100L480.97 101.42L481.08 102.2L482.88 100.95L482.68 101.97L484.1 103.02L486.57 108.46L488.65 108.54L487.13 105.25L488.02 104.37L496.58 102.57L501.01 99.19L502.07 99.5L502.41 100.23L501.1 100.74L501.26 101.65L503.45 103.07L504.5 102.66L504.8 104.81L507.87 107.16L507.01 110.92L506.1 111.43L506.48 112.75L504.15 114.76L504.97 114.8L505.21 116.19L507.32 118.29L509.85 119.49L511.28 123.23L512.88 123.33L515 126.26L514.24 127.6L511.86 128.67L510.72 131.03L509.29 131.16L509.33 132.45L508.1 133.01L508.83 134.8L511.06 134.89L514.06 139.09L515.18 138.81L518.53 142.37L527.03 145.86L531.06 145.63L532.11 146.35L535.24 143.56L537.51 144.94L537.45 146.88L534.2 149.88L537.85 150.56L538.35 151.58L537.67 153.75L538.55 154.33L538.61 157.21L540.7 159.04L540.09 166.92L541.31 171.03L543.05 172.49L545.51 187.16L546.76 189.72L542.69 191.92L540.75 191.79L539.74 194.46L537.28 195.46L537.18 197.26L534.01 197.81L530.66 196.48L526.75 196.98L528.8 193.15L534.91 186.62L536.1 183.51L535.79 179.23L534.71 178.55L533.79 179.71L531.99 179.87L528.25 177.87L525.99 181.1L523.77 180.82L523.41 179.06L520.52 178.54L515.15 179.9L514.14 178.91L515.05 176.5L512.53 174.32L512.66 171.05L509.19 169.62L507.29 165.25L506.12 170.04L509.19 171.88L508.55 173.16L506.19 174.41L503.89 173.13L502.26 173.59L497.12 177.84L496.67 181.2L494.15 180.85L491.86 182.44L492.25 184.67L491.34 186.03L490.16 185.88L489.64 187.32L490.04 190.86L488.79 190.22L487.65 193.76L486.25 194.12L485.75 193.1L484.62 193.14L484.74 194.57L482.55 198.3L482.66 198.48L481.42 199.13L479.79 195.39L478.37 195.87L475.92 195.07L472.43 197.64L471.5 201.89L469.75 201.22L468.48 198.33L466.34 198.26L465.04 199.81L463.44 199.79L463.51 201.94L462.28 202.12L461.72 203.53L459.28 204.05L457.12 207.09L455.23 207.58L454.19 205.84L453.16 206.22L455.53 204.39L454.52 203.47L452.72 204.11L452.88 204.94L451.65 204.79L452.2 203.99L450.57 204.15L448.94 205.66L446.98 203.38L442.05 204.87L440.06 203.55L441.2 201.04L436.62 200.74L435.47 200L436.13 198.35L435.19 197.84L431.61 198.89L426.5 196.74L421.39 198.28L420.3 195.57L418.1 194.54L418.06 192.84L412.82 189.87L409.51 190.32L407.73 186.59L405.02 187.19L404.9 188.27L403.85 188.64L402.7 186.33L400.17 188.12L398.29 187.84L398.14 185.62L395.97 185.16L396.81 187.45L394.08 189.23L394.44 192.81L392.63 193.76L391.31 193.11L389.73 196.05L386.12 195.36L384.07 198.36L380.01 197.88L382.18 199.68L381.39 200.9L378.71 200.63L375.85 201.65L375.66 200.12L371.79 198.81L369.2 199.32L366.68 202.09L364.39 202.56L365.4 207.26L364.34 208.8L364.72 210.18L363.18 211.53L361.34 212.03L359.31 211.37L358.77 209.94L357.34 210.5L356.1 209.86L354.58 210.02L354.3 213.02L346.28 211.83L343.62 209.53L340.97 210.3L340.36 208.08L341.79 205.66L334.96 202.11L331.03 195.14L329.9 195L328.47 189.38L326.09 189.28L324.06 187.79L318.79 192.46L313.98 189.93L314.18 188.77L312.7 188.34L310.14 185.43L303.49 186.11L304.82 184.18L305.91 176.55L307.22 175.81L309.71 176.38L310.32 173.98L313.79 173.47L315.75 170.54L318.16 170.21L317.49 169.45L318.72 167.13L317.99 163.66L319.03 163.48L319.77 164.74L323.61 164.02L324.8 157.8L326.26 155.73L325.61 151.82L324.21 151.26L324.4 150.25L319.77 149.96L317.32 147.97L316.9 146.1L313.92 144.59L314.19 142.76L314.87 140.19L313.31 133.86L314.77 131.57L316.64 131.18L317.63 129.27L319.41 128.9L321.7 125.94L323.73 126.97L323.12 127.86L323.66 128.82L327.11 127.79L322.52 126.17L323.18 122.53L331.8 117.18L340.79 116.21L342.59 119.13L345.87 119.6L344.79 122.63L345.73 124.83L347.71 125.25L350.71 122.26L352.79 124.96L355.17 124.82L355.04 126.36L356.79 127.3L357.11 128.74L358.61 129.01L357.67 127.44L359.95 125.64L360.13 121.39L359.4 121.84L358.88 121.1L357.71 122.28L357.65 117.99L356.55 119.43L356.82 121.94L354.66 120.66L353.93 121.4L355.42 121.53H354.08L353.27 119.9L353.94 117.6L357.85 115.35L360.6 115.4L359.15 120.7L360.58 121.36L361.21 119.46L360.62 118.57L361.86 116.37L363.38 115.67L362.46 114.39L364.4 115.03L365.91 114.14L366.39 110.96L368.96 109.52L369.19 108.01L367.84 106.64L363.17 112.58L362.9 109.83L364.88 107.47L368.09 106.2L372.62 101.29L377.56 101.06L383.27 102.09L393.72 98.52L400.97 97.89L404.84 92.04L414.41 85.69L419.01 76.78L422.71 72.39L424.85 66.37L426.86 65.46ZM466.1 52.28L466.74 55.47L466.08 52.86L466.1 55.37L465.4 53.79L465.81 52.57L463.81 54.38L464.15 59.36L461.44 63.52L460.92 68.06L460.65 66.04L463.05 57.13L463.13 53.59L464.65 52.11L466.1 52.28ZM484.28 43.36L484.05 45.9L481.77 46.88L480.7 48.81L481.69 52.63L483.47 54.9L486.14 55.78L497.11 54.17L499.92 56.47L499.94 60.06L493.37 66.03L493.31 69.21L495.78 73.97L499.54 74.35L503.14 79.37L505.52 80.83L503.89 81.41L502.58 83.97L502.87 87.97L501.98 88.72L500.34 87.06L501.91 87.48L501.44 85.71L498.79 86.63L497.86 85.57L501.3 83.49L501.57 82.39L499.5 82.01L495.58 83.49L499.84 81.11L500.36 79.68L497.79 80.09L495.95 82.03L493.97 79.51L491.96 80.91L488.77 80.72L483.57 85.02L481.32 89.04L481.63 87.59L479.21 88.61L479.55 91.14L480.01 89.25L480.96 90.38L482.52 89.18L483.4 90.33L483.84 92.03L481.76 93.89L475.3 90.71L477.28 91.28L478.06 87.67L476.47 89.03L477.14 89.91L473.89 90.37L470.77 87.67L469.54 88.58L469.15 85.7L465.73 87.3L466.7 84.89L468.58 85.29L464.09 81.8L464.92 77.59L469.29 77.05L470.83 77.93L473.39 76.13L471.87 75.71L471.46 74.24L472.94 73.73L471.61 73.96L470.26 71.15L466.35 71.94L468.15 68.31L464.71 69.84L464.51 69.21L467.58 64.34L471.25 65.17L470.96 67.36L468.66 67.34L468.41 68.31L469.45 69.25L469.89 67.86L472.83 67.46L471.5 66.98L474 65.7L471.3 65.09L471.48 62.34L469.44 63.18L467.6 62.64L465.97 58.46L472.34 57.5L475.16 58.93L475.09 61.13L476.14 61.96L476.62 60.8L475.69 57.72L479.35 54.73L480.27 55.16L478.33 58.21L479.41 58.58L480.67 56.99L483.12 61.4L483.02 64.22L484.92 64.95L485.47 66.68L486.86 65.48L488.8 65.6L489.49 60.43L488.07 57.12L489.23 57.21L489.33 56.4L487.94 56.76L488 57.96L485.13 57.92L483.82 56.04L481.78 55.49L480.31 51.01L477.66 53.3L478 54.47L472.27 57.07L474.83 50.74L474.89 47.6L471.24 49.87L471.92 53.14L467.02 57.13L467.26 55.87L470.62 52.92L470.7 48.46L472.43 46.25L475.21 44.4L484.28 43.36Z" fill="#C7C7C7" stroke="white" stroke-width="2"/>
<path d="M62.3701 161.06L58.7101 161.41L56.3301 162.65L58.9601 164.43L58.0701 165.69L57.1801 164.28L55.7301 165.34L52.3301 162.55L52.6201 160.79L58.3801 158.76L62.3701 161.06ZM68.4101 155.63L67.2801 156.21L68.7201 156.3L67.4001 156.95L67.9201 157.88L66.2801 157.83L65.7801 156.08L68.4101 155.63ZM63.0401 155.72L64.5701 156.49L63.1401 156.88L62.9101 154.37L63.0401 155.72ZM79.3201 151.63L80.4001 152.63L65.6601 153.74L79.3201 151.63ZM95.6401 147.47L96.4001 148.41L93.3201 149.35L92.8001 148.78L93.1101 149.43L91.4701 149.81L87.5301 149.6L86.6801 150.43L85.0001 149.5L84.0801 150.62L83.1001 149.51L86.2901 147.79L95.6401 147.47ZM148.91 146.84L150.34 147.56L148.25 147.79L147.83 149.01L145.65 148.93L146.87 147.12L148.91 146.84ZM99.8401 146.43L101.89 146.81L102.19 148.34L97.2001 147.45L99.8401 146.43ZM111.13 143.9L114.21 144.37L114.47 145.37L106.97 145.7L106.56 147.7L106.33 147L106.22 147.83L103.91 147.71L104.82 144.44L111.13 143.9ZM138.77 143.64L139.43 145.41L138.35 144.71L138.77 143.64ZM139.01 142.56L138.42 143.36L137.86 142.91L138.54 141.56L139.01 142.56ZM120.36 141.44L126.36 142.54L122.53 143.8L118.67 143.26L117.85 144.68L116.93 144.4L117.89 142L120.36 141.44ZM131.38 140.01L136.15 142.18L130.14 140.77L129.46 142.34L128.24 140.95L131.38 140.01ZM161.9 136.45L159.93 136.72L161.43 135.03L162.33 135.17L161.9 136.45ZM181.94 129.51L181.85 130.68L183.39 131.59L182.98 132.65L184.13 133.64L183.61 131.9L187.17 135.5L195.01 136.87L203.05 135.01L202.04 131.46L215.1 130.9L221.77 133.73L224.98 138.09L228.9 146.09L233.99 150.86L236.83 159.11L244.68 164.68L248.31 165.57L251.14 165.92L250.56 167.29L251.38 169.5L250.41 170.7L251.83 171.72L251.67 172.67L253.02 172.5L253.22 175.61L256.7 179.15L256.67 178.21L259.37 176.35L260.47 178.55L259.57 180.64L260.12 180.85L261.81 179.36L264.56 180.61L267.45 178.61L266.79 177.35L268.56 177.32L268.83 175.56L276.64 182.74H280.74L282.32 180.19L285.17 178.76L286.61 179.68L289.61 179.78L297.41 185.12L302.48 186.61L303.46 186.15L310.11 185.47L312.67 188.38L314.15 188.81L313.95 189.97L318.76 192.5L324.03 187.83L326.06 189.32L328.44 189.42L329.87 195.04L331 195.18L334.93 202.15L341.76 205.7L340.33 208.12L340.94 210.34L343.59 209.57L346.25 211.87L346.61 214.35L350.8 218.88L358.09 216.44L361.63 219.63L364.09 219.12L367.39 220.98L364.9 223.5L364.69 224.87L361.71 224.17L360.65 228.92L361.27 231.05L358.36 231.75L355.05 234.85L349.22 237.65L348.07 238.01L347.82 236.47L344.52 237.47L343.37 235.62L339.23 234.86L335.58 235.58L335.61 234.03L329.62 234.17L328.75 234.57L328.48 237.01L325.47 240.34L322.74 240.03L321.74 241.08L320.89 240.01L314.45 241.45L313.75 247.64L316.09 251.43L316.43 254.98L318.36 254.72L319.19 257.04V257.29L324.15 265.92L327.76 264.46L327.46 266.54L325.43 268.05L325.3 270.34L329.82 277.89L329.21 277.82L327.77 277.3L325.79 278.07L325.08 281.51L330.27 287.81L330.24 289.01L330.95 288.83L331.52 289.33L334.05 290.46L333.64 292.44L331.58 293.65L328.21 293.93L331.56 297.86L331.57 298.14L330.02 299.46L331.05 301.28L332.6 301.69L333 304.32H333.57L334.7 305.63L334.06 306.56L331.12 307.41L330.11 308.78L330.48 310.91L333.08 311.42L332.12 315.43H331.57L327.86 318.4L325.65 318.64L325.41 319.52L327.46 320.42L327.08 323.43L321.83 323.11L318.39 324.47L310.17 324.14L306.88 325.04L307.35 326.61L305.34 328.39L303.76 328.59L303.42 327.76L301.37 328.83L302.83 331.92L304.17 331.64L305.15 333.64L307.04 333.67L304.62 335.66L304.7 337.44L306.9 338.71L306.96 340.55L305.9 342.57L302.37 344.88L302.15 345.84L302.98 346.2L302.16 348.75L303.2 353.11L305.58 354.28L305.89 356.58L308.2 359.15L308.24 363.45L310.2 366.16L308.59 366.58L309.02 367.52L306.23 368.4L306.86 369.74L305.95 369.69L306.24 372.01L307.94 372.89L307.37 374.65L304.14 372.5L301.27 374.89L298.61 375.11L297.07 373.17L293.12 371.21H292.74L289.11 371.69L289.76 373.6V374.2L287.36 378.71L285.12 379.16L284.57 381.25L281.2 382.33L280.42 383.62L279.35 383.6L278.43 382.04L276.93 383.7L277.44 384.37L276.61 386.14L274.57 386.36L275.36 387.6L273.02 387.69H272.61L270.66 387.26L269.91 388.96L268.51 387.01L267.99 388.7L266.17 388.74L265.58 390.33L260.95 393.34L261.11 391.55L259.28 389.04L258.04 389.32L257.8 390.28L256.03 389.35L256.95 393.73L255.34 392.5L255.28 390.58L253.98 389.62L252.51 390.01L252.7 392.29L250.94 392.04L249.12 393.8L246.54 394.49L248.89 399.01L251.03 397.26L250.74 400.32L248.56 401.47L244.49 399.13L241.97 399.81L242.07 398.4L240.31 398.47L237.57 396.42L235.66 394.16L238.02 394.67L238.55 393.76L237.42 392.9L238.63 390.67L241.86 390.27L242.84 388.94L241.78 386.05L242.76 383.61L239.13 378.88L241.37 377.2L240.39 374.35L241.51 375.64L243.01 375.33L241.72 373.45L241.95 372L245.05 373.69L245.77 372.73L242.46 369.5L241.72 366.7L238.14 367.91L236.51 366.3L234.3 367.67L233.15 366.72L233.42 364.58L230.56 365.63L225.7 365.28L227.39 360.02L226.47 358.17L226.94 356.83L225.71 355.72L230.25 350.48L229.05 348.36L229.96 346.73L229.44 345.64L231.15 343.62L227.66 344.19L224.88 343.23L222.52 344.35L223.74 341.56L223.55 338.82L219.25 336.34L219.44 335.12L218.6 334.78L219.96 333.54L219.3 332.12L215.66 332.03L215.09 333.39L213.67 332.9L212.98 331.31L214.27 329.7L213.32 328.96L214.3 328.01L212.99 325.68L212.86 323.27L214.19 322.09L211.68 319.19L210.35 319.48L211.96 316.91L211.63 315.86L210.1 314.86L207.51 315.33L206.16 314.77L206.25 313.91L202.55 315.3L203.21 311.55L200.9 309.1L202.18 309.63L202.68 309.04L203.23 310.34L204.61 310.24L204.11 306.04L205.2 306.41L206.72 305.27L204.17 303.35L200.11 301.96L200.51 300.85L199.64 300.27L200.93 299.64L201.71 295.45L203.01 294.97L203.57 293.47L205.58 294.07L208.1 290.72L207.92 289.03L209.67 287.33L209.73 285.47L208.85 285.48L208.86 284.07L207.85 283.21L210.55 279.78L208.17 277.6L205.17 277.31L202.67 281.8L200.43 282.52L200.96 284.4L198.14 286.08L197.79 287.58L195 287.19L194.59 288.35L192.59 288.87L188.42 287.9L185.74 288.97L184.3 287.83L183.11 288.23L182.94 285.73L183.77 284.68L182.93 283.29L182.78 276.91L181.95 275.27L180.83 275.55L179.56 274.08L173.54 277.49L170.07 276.13L167.3 278.19L167.08 281.41L164.65 283.17L163.53 282.55L161.24 283.2L157.4 281.7L157.46 284.22L158.59 285.13L158.25 287.43L163.22 289.41L166.38 291.74L168.06 296.6L167.37 299.5L167.94 303.72L166.3 307.04L167.96 309.19L171.04 310.17L168.02 313.23L164.21 315.14L163.99 317.81L161.81 317.86L159.78 316.39L157.89 316.98L156.21 316.24L156.31 315.27L152.27 318.17L150.34 321.71L147.71 321.46L144.19 323.3L140.14 322.11L136.87 325.56L132.94 323.98L130.77 320.57L136.34 317.24L138.61 317.32L138.07 313.57L138.29 312.72L139.78 312.42L138.53 311.04L134.07 311.03L132.33 309.7L131.85 308.08L133.48 305.81L133.4 301.98L135.41 301.6L133.8 299.64L133.82 298L137.64 297.26L134.88 294.58L134.13 291.48L131.15 289.77L128.27 290.95L125.87 290.7L119.87 287.77L118.3 282.37L113.16 280.08L110.42 284.54L112.86 285.62L110.86 289.76L111.57 290.36L107.72 291.14L102.18 294.84L101.56 296.76L98.9301 297.24L97.4301 299.46L94.4701 300.28L93.2801 301.91L84.2801 301.66L82.1801 302.2L80.8001 304.08L78.4001 304.23L76.1101 300.92L76.0101 299.22L78.9801 292.75L79.0201 290.53L78.0601 287.81L76.6001 287.64L74.9901 284.72L73.7301 280.73L70.6101 284.12L64.9701 282.64L64.9801 281.66L58.8501 281.28L55.0401 278.75L55.4901 275.15L53.9001 271.84L56.1201 272.29L56.8001 270.79L59.4401 270.76L56.4201 268.09L56.8501 265.28L55.9601 264.08L58.4901 261.83L66.2501 261.26L70.2601 262.94L72.7001 262L76.9501 263.45L77.8401 262.4L78.9101 244.88L80.2401 241.86L79.9201 240.67L86.0101 230.9L88.2001 224.11L87.1801 212.76L86.0301 211.91L85.7801 210.14L87.3001 206.34L88.8201 205.87L87.6301 204.77L88.2301 203.72L87.6901 199.04L88.9101 197.07L89.9901 190.9L94.0101 190.71L75.2501 188.44L74.1301 185.45L74.9801 184.03L75.9301 173.36L77.4101 171.03L76.4501 167.98L77.8501 170.56L79.9801 170.57L80.6601 171.66L81.4601 170.6L78.1001 170.54L76.9601 167.71L78.6101 169.69L79.2201 168.16L81.0001 170.4L80.7401 169.06L82.1901 168.95L83.5101 167.16L81.8101 166.51L80.0601 163.19L83.8101 159.44L84.2401 157.85L84.1501 158.59L89.9401 153.44L97.3701 151.63L98.3601 152.29L105.01 152.05L107.82 153.36L119.19 149.89L119.21 148.15L119.23 150.26L125.78 149.1L127.58 146.56L126 149.48L132.5 148.25L139.81 149.36L139.43 152.1L140.9 156.44L142.73 155.86L144.34 157.45L145.08 156.46L145.55 157.05L144.4 157.55L145.41 159.15L146.28 158.77L145.5 159.3L145.98 160.99L148.94 167.03L148.2 168.37L149.05 167.87L147.93 170.18L144.12 171.62L141.95 171.13L142.13 174.23L144.38 177.54L146.69 176.67L147.77 177.19L150.91 181.9L153.71 182.59L155.11 181.76L158.04 176.25L157.85 169.44L152.57 169.55L153.53 162.97L155.98 159.81L157.59 159.11L159.56 159.69L162.48 163.74L167.63 166.04L170.14 166.29L171.1 165.41L171.07 166.46L173.14 167.62L173.5 169.17L172.97 169.52L174.67 173.16L175.45 172.47L176.76 173.4L178.4 172.16L179.54 170.13L178.79 168.64L179.2 165.78L178.13 165.58L177.44 163.68L180.15 159.92H179.05L179.22 160.78L177.31 160.48L175.86 161.72L171.26 160.36L168.86 155.04L168.78 150.83L172.78 140.8L172.97 137.84L177.05 130.74L181.94 129.51ZM177.47 207.13L178.18 210.16L180.68 213.93L180.45 215.23L183.29 216.79L182.96 219.05L183.78 220.66L186.16 220.76L187.21 219.19L187.56 220.67L190.4 222.69L193.15 222.54L193.21 220.58L195.01 223.35L197.6 223.36L197.75 222.27L200.54 219.94L199.52 218.5L199.35 215.86L201.09 214.53L199.4 214.27L198.44 212.52L200.68 211.43L198.22 208.7L196.25 210.79L193.05 210.9L192.94 210.57L191.73 209.09L191.54 208.16L190.89 207.43L185.36 207.47L184.44 205.73L182.98 206.08L182.61 205.2L181.19 206.26L177.74 206.6L176.93 204.59L174.95 204.55L176.18 202.37L174.87 201.84L173.31 202.72L170 200.68L169.22 200.65L168.72 201.02L170.27 203.55L170.54 203.89L177.47 207.13ZM170.09 125.68L170.99 126.94L169.07 127.29L169.35 125.57L170.09 125.68ZM166.89 122.08L167.62 122.38L165.29 124.24L164.52 123.87L165.77 121.84L166.89 122.08Z" fill="#C7C7C7" stroke="white" stroke-width="2"/>
<path d="M78.35 304.23L80.75 304.08L82.13 302.2L84.23 301.66L93.23 301.91L94.42 300.28L97.38 299.46L98.89 297.23L101.51 296.76L102.14 294.83L107.68 291.14L111.53 290.35L110.81 289.75L112.81 285.61L110.37 284.53L113.11 280.07L118.24 282.36L119.81 287.76L125.81 290.69L128.21 290.94L131.09 289.76L134.07 291.47L134.82 294.57L137.58 297.25L133.76 297.99L133.74 299.64L135.35 301.6L133.34 301.98L133.42 305.82L131.78 308.09L132.27 309.71L134.01 311.03L138.47 311.04L139.72 312.42L138.23 312.72L138.01 313.57L138.55 317.32L136.28 317.24L130.71 320.57L132.88 323.99L136.81 325.57L140.08 322.12L144.14 323.3L147.66 321.46L150.29 321.71L152.22 318.17L156.26 315.27L156.15 316.25L157.83 316.98L159.72 316.39L161.76 317.86L163.94 317.81L164.15 315.14L167.96 313.23L170.97 310.17L167.89 309.2L166.23 307.05L167.87 303.73L167.3 299.51L168 296.61L166.32 291.75L163.16 289.42L158.19 287.44L158.53 285.13L157.4 284.23L157.34 281.7L161.18 283.2L163.48 282.56L164.6 283.17L167.03 281.41L167.24 278.19L170.01 276.14L173.49 277.49L179.51 274.09L180.78 275.56L181.91 275.28L182.74 276.92L182.89 283.3L183.74 284.69L182.91 285.74L183.07 288.24L184.26 287.84L185.7 288.98L188.38 287.91L192.55 288.88L194.55 288.35L194.95 287.2L197.74 287.58L198.09 286.08L200.91 284.4L200.38 282.53L202.62 281.81L205.12 277.32L208.12 277.61L210.5 279.79L207.8 283.23L208.82 284.08L208.81 285.49L209.69 285.48L209.63 287.33L207.88 289.03L208.07 290.72L205.55 294.07L203.53 293.47L202.97 294.97L201.67 295.45L200.89 299.64L199.6 300.27L200.47 300.85L200.07 301.96L204.13 303.36L206.68 305.28L205.15 306.42L204.06 306.04L204.56 310.25L203.18 310.35L202.64 309.05L202.14 309.65L200.86 309.12L203.17 311.56L202.51 315.31L206.22 313.93L206.13 314.79L207.48 315.35L210.07 314.88L211.6 315.88L211.93 316.93L210.33 319.5L211.65 319.21L214.16 322.1L212.83 323.28L212.96 325.69L214.27 328.02L213.3 328.97L214.25 329.71L212.95 331.32L213.64 332.91L215.06 333.4L215.64 332.03L219.28 332.13L219.93 333.55L218.57 334.79L219.41 335.13L219.22 336.35L223.52 338.83L223.71 341.57L222.48 344.36L224.85 343.24L227.63 344.2L231.12 343.63L229.41 345.65L229.93 346.74L229.02 348.36L230.23 350.48L225.68 355.72L226.91 356.83L226.45 358.18L227.37 360.02L225.68 365.28L230.54 365.63L228.7 367.36L223.28 368.92L225.49 371.32L221.9 375.27L221.39 379.23L219.78 379.19L218.6 380.76L216.09 381.65L215.57 384.79L213.49 384.12L211.95 386.41L210.49 385.69L207.89 386.27L206.79 384.14L207.61 381.11L206.69 380.29L204.29 380.36L202.97 378.79L194.85 382.49L196.64 385.89L196.66 387.71L198.42 388.03L197.84 391.93L194.85 391.57L192.53 393.12L191.39 391.99L189.21 391.78L184.65 393.65L182.28 393.22L181.17 393.81L181.47 394.96L180.03 395.43L179.74 397.01L178.63 396.57L177.56 397.35L173.55 403.32L176 406.39L182.14 403.45L184.05 403.69L184.97 404.84L184.41 405.98L185.28 409.26L186.95 410.27L185.68 411.3L186.37 413.5L182.41 417.53L182.48 418.95H182.72L183.95 420.31L181.65 420.51L179.9 421.85L173.6 421L171.68 421.6L170.06 423.33L171.62 425L170.23 427.31L171.12 427L172.28 429.46L168.3 433.81L168.51 434.54L167.25 434.87L166.72 437.37L167.36 439.61L165.59 439.73L160.91 445.44H157.56L156.61 443.35L155.04 443.46L146.97 452.51L146.57 452.64L146.32 453.67L148.71 458.2L145.98 463.08L143.01 460.96L141.84 462.06L140.62 461.88L140.48 458.81L136 454.04L136.59 449.08L136.02 446.96L135.29 446.21L132.66 447.03L130.55 444.02L127.07 443.26L128.48 438.67L124.82 437.21L123.11 439.07L121.19 439.66L122.75 441.39L122.1 444.84L122.91 447.04L120.77 446.43L119.09 448.83L116.41 449.46L117.64 450.67L117.1 453.42L116.06 454.73L112.55 455.01L112.05 457.63L109.37 456.95L107.5 457.88L107.49 458.7L101.98 460.6L98.19 459.75L97.09 461.85L98.03 463.49L96.89 465.42L97.23 466.58L95.69 467.7L87.88 469.3L87.14 466.78L86.35 469.29L85.27 470.39L84.1 470.22L83.67 471.61L81.66 470.42L80.01 473.05L77.85 471.03L74.15 475.18L72.59 476L69.84 475.6L69.88 478.25L66.78 478.88L67.68 479.87L67.15 480.93L68.19 481.33L67.93 484.74L65.22 486.33L62.36 484.4L61.58 482.43L58.03 484.31L59.37 485.74L57.93 487.55L59.71 488.11L60.47 489.51L59.64 492.33L61.7 494.74L61.49 495.57L60.19 495.23L55.28 498L53.22 494.58L51.26 497.2L50.16 496.18L50.47 494.26L49.08 494.15L48.96 492.88L42.89 495.65L41.41 497.79L39.42 497.98L39.87 495.54L38.94 494.51L38.01 495.39L36.89 492.75L35.22 493.24L35.77 495.49L36.5 495.35L36.59 497.74L37.65 498.35L37.69 499.33L36.37 499.38L36.03 497.18L32.36 493.64L34.6 488.02L34.32 486.19L32.32 485.4L32.97 482.75L27.85 481.1L25.04 482.09L23.89 479.53L22.65 478.96L23.13 477.93L22 477.41L21.86 475.88L24.99 472.62L26.15 472.73L27.77 468.98L23.25 468.33L21.93 468.99L22.37 468.4L21.42 467.33L22.32 466.5L18.35 459.62L13.55 458.76L13.11 459.68L13.29 457.14L11.64 455.43L12.27 454.21L8.92 451.92L9.61 450.59L10.9 451.34L12.19 450.04L11.81 446.94L14.16 445.93L15.32 446.87L16.28 444.19L15.39 442.21L16.65 439.33L14.07 439.27L11.84 438.02L10.92 435.71L12.19 433.03L8.5 433.51L7.64 432.61L4.07 433.94L4.52 431.19L2.89 429.54L2 426.56L5.07 424.7L6.55 427.86L7.97 427.79L9.28 424.09L11.26 422.15L13.37 421.26L16.41 417.8L21.71 415.5L19.5 413.91L22.2 412.58L21.14 411.75L16.96 414.21L15.83 414L14.9 409.23L16.05 408.81L15.15 406.88L18.42 403.69L21.33 397.8L22.87 397.47L24.98 394.69L24.22 392.18L24.97 390.78L23.71 390.84L24.83 383.49L24.19 379.36L20.81 374.19L16.38 369.78L17.99 364.62L12.63 362.78L12.25 359.33L13.37 358.38L10.15 356.2L7.72 356.14L7.75 354.88L9.91 353.37L9.99 351.6L8.94 351.27L9.13 350.04L7.16 348.53L7.95 348.04L7.1 347.39L8.13 346.11L11.42 346.22L14.68 343.21L16.93 344.81L21.17 345.66L21.05 343.62L19.42 341.08L17.31 340.37L18.17 339.39L21.37 339.46L24.11 342.79L28.45 342.26L29.67 342.85L30.09 344.73L33.17 344.87L33.78 346.16L36.24 347.09L36.77 344.46L35.3 343.39L35.59 342.22L38.14 343.83L39.27 343.16L40.53 344.38L45.27 341.22L54.21 337.8L57.25 339.7L60.82 336.58L61.51 333.54L63.34 332.97L63.5 330.65L58.59 326.37L54.37 325.19L54.8 321.98L57.53 321.49L59.07 317L65.08 316.79L68.37 311.03L71.14 310.5L73.31 305.9L76.68 305.77L78.35 304.23Z" fill="#C7C7C7" stroke="white" stroke-width="2"/>
<path d="M36.3706 499.38L37.6906 499.33L37.6506 498.35L36.5906 497.74L36.5006 495.35L35.7706 495.49L35.2206 493.24L36.8906 492.75L38.0106 495.39L38.9406 494.51L39.8706 495.54L39.4206 497.98L41.4106 497.79L42.8906 495.65L48.9606 492.88L49.0806 494.15L50.4706 494.26L50.1606 496.18L51.2606 497.2L53.2206 494.58L55.2806 498L60.1906 495.23L61.4906 495.57L61.7006 494.74L59.6406 492.33L60.4706 489.51L59.7106 488.11L57.9306 487.55L59.3706 485.74L58.0306 484.31L61.5806 482.43L62.3606 484.4L65.2206 486.33L67.9306 484.74L68.1906 481.33L67.1506 480.93L67.6806 479.87L66.7806 478.88L69.8806 478.25L69.8406 475.6L72.5906 476L74.1506 475.18L77.8506 471.03L80.0106 473.05L81.6606 470.42L83.6706 471.61L84.1006 470.22L85.2706 470.39L86.3506 469.29L87.1406 466.78L87.8806 469.3L95.6906 467.7L97.2306 466.58L96.8906 465.42L98.0306 463.49L97.0906 461.85L98.1906 459.75L101.981 460.6L107.491 458.7L107.501 457.88L109.371 456.95L112.051 457.63L112.551 455.01L116.061 454.73L117.101 453.42L117.641 450.67L116.411 449.46L119.091 448.83L120.771 446.43L122.911 447.04L122.101 444.84L122.751 441.39L121.191 439.66L123.111 439.07L124.821 437.21L128.481 438.67L127.071 443.26L130.551 444.02L132.661 447.03L135.291 446.21L136.021 446.96L136.591 449.08L136.001 454.04L140.481 458.81L140.621 461.88L141.841 462.06L143.011 460.96L145.981 463.08L145.041 465.67L146.971 468.41L146.091 470.67L147.721 471.72L146.691 476.55L144.631 478.29L142.581 477.74L140.831 475.89L137.751 479.16L136.671 482.91L138.741 486.32L136.491 487.86L137.321 488.22L137.141 489.38L135.761 490.56L137.161 491.71L139.481 491.62L139.081 493.2L140.831 493.1L141.011 494.14L141.891 494.22L142.961 496.87L142.671 498.42L144.571 498.97L144.621 500.65L145.671 501.7L144.861 505.54L143.181 505.43L142.751 504.35L140.391 504.49L139.471 505.83L141.171 507.5L141.431 507.85L140.151 509.96L138.841 509.77L137.301 507.79L137.161 508.79L134.891 509.62L134.631 510.58L132.331 511.21L132.321 512.16L130.601 513.36L130.681 514.68L133.751 517.09L133.031 518.08L133.591 521.2L131.791 519.34L130.651 520.04L128.621 518.79L127.291 521.63L127.741 523.07L125.511 523.1L123.631 525.67L128.701 530.09L129.601 533.31L130.761 534.15L136.091 533.55L140.621 531L149.781 527.89L153.641 528.67L158.591 533.69L160.691 539.49L160.041 543.45L162.581 545.58L162.251 548.83L165.041 554.18L168.101 554.13L168.581 554.81L165.951 558.76L160.931 561.7L162.511 568.15L164.961 572.34L164.511 575.3L167.561 583.41L166.241 585.42L170.371 586.91L169.591 590.2L167.511 592.15L168.211 592.91L169.881 591.46L169.761 593.59L166.731 597.65L169.161 600.55L162.921 606.42L162.581 607.98L163.841 607.91L161.481 612.8L160.901 619.43L157.931 623.98L156.991 627.85L156.151 629.66L152.851 632.49L152.411 631.48L150.771 632.33L150.451 631.34L148.171 631.59L143.951 630.17L141.311 627.82L136.531 626.52L133.801 623.58L132.911 625.15L130.911 624.48L129.501 625.95L124.901 622.83L123.141 624.7L121.151 624.98L120.961 623.73L120.211 624.26L118.581 623.57L118.691 624.43L117.211 624.89L114.641 623.92L114.531 622.15L112.531 621.16L110.221 621.47L107.941 619.8L106.151 616.55L105.761 612.87L102.041 613.29L102.501 611.42L97.5306 612.63L97.4106 613.9L93.2006 609.29L93.6606 607.56L92.7706 606.11L93.9806 604.2L95.0006 605.16L95.0406 603.93L96.2406 603.06L95.7506 602.15L97.4606 602.21L98.8906 600.67L99.8706 593.28L97.6906 593.82L96.9206 592.32L92.8306 591.38L92.7406 588.7L90.3206 587.05L90.0506 585.83L92.5606 584.69L93.7506 582.99L92.1006 582.01L92.6306 578.79L93.9806 578.23L93.6306 577.19L91.8406 576.89L91.3706 572.28L87.9706 574.11L87.8806 573.1L86.1706 573.08L85.4106 572.18L85.2606 570.9L82.1006 571.2L80.7306 570.15L79.9706 570.76L78.1606 567.84L76.1006 566.82L73.3706 568.66L73.7406 567.29L71.2706 568.19L70.5306 567.32L69.8206 569.44L67.6406 569.11L66.5406 570.56L65.6406 569.94L63.8406 572.36L62.2706 571.59L58.2306 574.9L55.8406 575.27L54.5606 577.03L54.2006 575.85L52.7606 576.3L52.0406 575.59L51.8006 576.76L50.8006 576.5L49.2106 577.78L49.2906 578.71L47.6006 578.46L46.4506 576.54L43.5906 577.87L40.6906 576.22L39.4006 576.78L37.9506 575.77L37.1206 576.3L34.7506 575.51L33.3306 573.48L34.8606 572.95L34.5706 571.37L37.3906 568.83L38.6706 565.3L37.9806 563.98L42.8506 559.52L42.2106 558.28L43.4906 558.64L42.4606 556.07L43.5806 554.74L42.8206 551.98L44.2306 550.11L43.2106 550.91L40.6006 548.84L37.9906 550.01L35.9006 548.95L33.6206 546.07L31.1106 547.3L30.4406 544.31L29.4906 544.55L25.4606 541.27L25.3006 539.38L24.4606 538.91L24.7706 536.31L23.6806 535.81L23.2406 536.5L22.7306 534.5L21.8506 535.95L21.3306 532.77L19.4006 531.57L20.2806 530.59L19.3906 530.03L19.9806 529.07L19.0006 528.38L18.6006 525.44L17.6406 525.45L18.9306 524.15L17.9106 524.08L18.3306 522.31L19.1606 522.18L18.6706 519.57L20.4206 517.26L19.0906 516.1L19.6106 514.64L20.0906 513.71L20.7506 514.29L22.7706 513.23L21.2406 509.44L21.8506 508.01L23.1606 507.78L24.3206 505.84L28.4406 504.86L29.2106 503.82L28.7906 502.19L30.3906 499.6L31.8906 499.4L33.6206 501.21L33.7006 500.18L36.3706 499.38Z" fill="#C7C7C7" stroke="white" stroke-width="2"/>
<path d="M34.7498 575.51L37.1198 576.3L37.9498 575.77L39.3998 576.78L40.6898 576.22L43.5898 577.87L46.4498 576.54L47.5998 578.46L49.2898 578.71L49.2098 577.78L50.7998 576.5L51.7998 576.76L52.0398 575.59L52.7598 576.3L54.1998 575.85L54.5598 577.03L55.8398 575.27L58.2298 574.9L62.2698 571.59L63.8398 572.36L65.6398 569.94L66.5398 570.56L67.6398 569.11L69.8198 569.44L70.5298 567.32L71.2698 568.19L73.7398 567.29L73.3698 568.66L76.0998 566.82L78.1598 567.84L79.9698 570.76L80.7298 570.15L82.0998 571.2L85.2598 570.9L85.4098 572.18L86.1698 573.08L87.8798 573.1L87.9698 574.11L91.3698 572.28L91.8398 576.89L93.6298 577.19L93.9798 578.23L92.6298 578.79L92.0998 582.01L93.7498 582.99L92.5598 584.69L90.0498 585.83L90.3198 587.05L92.7398 588.7L92.8298 591.38L96.9198 592.32L97.6898 593.82L99.8698 593.28L98.8898 600.67L97.4598 602.21L95.7498 602.15L96.2398 603.06L95.0398 603.93L94.9998 605.16L93.9798 604.2L92.7698 606.11L93.6598 607.56L93.1998 609.29L97.4098 613.9L97.3798 615.36L95.0598 615.33L92.9998 618.11L89.9398 616.65L86.8598 618.08L85.9898 616.61L84.2798 617.57L82.2698 615.47L80.8998 615.74L81.4598 614.47L80.5098 614.15L79.4198 614.85L79.9598 616.51L77.8098 618.27L76.0098 612.77L76.4498 610.71L75.0598 611.02L72.5898 608.85L71.7498 609.53L69.5698 607.53L67.4898 608.9L65.4098 607.57L63.9898 608.55L65.5198 611.66L63.8298 614.35L60.2798 612.84L57.6598 613.27L55.9398 611.03L57.1898 609.21L56.7098 608.01L54.8998 608.24L54.4998 604.96L52.6698 604.07L53.2598 602.01L49.6898 599.91L48.0298 598L48.2398 596.62L46.6898 595.48L46.4998 594.6L48.0398 595.23L48.8398 593.65L47.7098 593.36L47.8798 591.72L44.9498 590.08L45.7398 587.86L37.8698 582.85L35.6098 584.03L33.9498 583.4L33.2598 577.55L34.7498 575.51Z" fill="#C7C7C7" stroke="white" stroke-width="2"/>
<path d="M411.03 422.36L410.53 421.36L407.7 420.92L406.86 419.09L408.11 418.97L408.26 418.07L405.48 417.05L406.55 412.9L404.11 413.03L404.09 412.2L404.95 412.22L406.01 409.67L405.74 407.34L405.1 405.28L403.54 404.46L403.96 402.47L402.38 398.85L405.52 397.99L405.42 393.7L404.01 392.42L404.87 392L404.15 389.77L405.15 388.59L404.6 387.41L403.03 387.43L402.47 384.43L404.08 383.91L404.31 382.48L406.16 381.5L405.17 378.14L408.05 375.22L407.82 374.11L411.54 374.34L414.82 372.41L414.47 371.81L420.06 372.21L421.17 369.43L422.28 370.22L423.63 369.77L423.94 370.9L425.25 369.5L427.31 370.25L429.92 367.8L430.84 368.52L432.85 367.69L431.79 369.29L435.25 367.35L437.04 363.75L442.14 365.52L446.81 361.68L448 362.72L448.19 364.56L449.82 363.57L450.27 365.53L452.2 365.28L453.07 366.45L453.47 365.29L454.82 365.18L454.47 363.77L455.09 363.9L455.47 364.01L455.45 363.28L457.53 363.77L458.27 366.5L460.14 365.61L462.3 369.43L464.54 368.26L467.03 371.01L465.92 373.54L468.57 374.74L469.98 378.13L469.59 381.36L468.52 381.44L468.38 383.16L469.7 385.63L467.92 387.93L468.77 388.36L469.07 387.09L470.43 391.17L473.77 392.33L473.38 390.75L474.97 390.93L475.01 389.63L477.71 388.13L477.37 387.03L480.86 388.2L480.7 387.09L482.2 385.33L483.99 387.28L483.55 388.5L485.17 387.43L486.89 388.84L486.24 389.52L489.86 390.55L490.08 392.57L490.97 392.62L491.37 393.86L492.98 392.28L494.19 392.42L494.71 393.93L498.68 393.86L499.24 393.13L503.97 394.63L505.61 393.76L506.04 394.57L506.67 393.76L508.99 393.86L509.96 392.33L514.51 392.81L517.88 391.1L518.68 391.42L518.62 393.15L520.4 393.49L520.77 391.29L522.25 391.13L521.54 390.27L523.41 388.88L522.88 387.18L524.47 386.18L522.65 383.05L526.13 382.93L525.26 381.34L526.55 380.8L527.24 378.45L529.46 378.21L528.77 377.31L529.29 376.16L534.14 376.56L536.19 377.76L537.73 377.29L541.18 378.93L541.22 379.41L541.76 380.24L542.33 378.69L545.27 376.3L549.03 376.19L549.47 374.72L554.8 374.54L555.21 373.16L556.69 372.38L558.52 373.26L559.73 375.47L563.81 375.17L565.35 372.59L564.93 370.61L567.05 372.21L565.85 374.24L567.43 377.9L571.15 378.71L574.81 381.58L579.07 382.27L581.14 383.68L582.52 386.49L581.61 389.74L582.2 392.83L583.11 393.4L582.84 396.65L586.95 403.69L583.78 415.06L584 419.07L583.01 419.57L582.83 423.64L579.76 431.48L578.88 431.96L579.02 434.03L578.13 434.36L577.51 437.59L572.57 443.25L573.04 444.64L571.25 449.49L569.36 449.64L567.9 448.66L566.5 449.35L565.58 447.42L564.42 447.72L559.99 445.73L561.09 441.76L562.09 440.96L561.93 438.33L557.67 440.15L556.55 439.64L558.65 432.81L556.46 430.43L554.57 431.06L554.35 429.73L552.26 429.18L552.45 426.72L551.87 429.06L549.46 427.77L546.61 429.52L545.03 428.69L544.82 427.51L543.58 426.86L542.08 427.51L539.79 425.85L538.85 427.46H537.95L538.74 428.66L538.42 429.96L537.12 430.57L537.07 432.7L538.61 433.76L541.24 432.96L541.45 434.11L539.84 434.88L540.72 435.47L540.32 436L545.82 437.87L545.17 441.71L542.81 441.34L542.76 442.26L539.86 443.14L537.5 442.02L535.38 442.79L534.78 445.53L526.15 448.96L525.41 450.37L522.4 451.17L519.84 449.59L517.59 450.8L516.5 452.54L514.14 452.25L513.29 454.7L514.01 457.14L511.7 457.33L511.35 458.85L506.32 458.03L503.98 458.9L503.1 458.23L501.85 459.88L499.13 458.44L495.18 460.6L492.36 460.14L490.32 461.06L491.37 463.9L489.49 466.27L490.21 467.7L488.39 468.59L486.51 471.3L483.23 469.99L481.65 466.98L480.47 466.63L480.77 468.89L477.49 470.91L477.33 473.66L475.29 474.15L474.5 472.4L472.51 472.42L469.2 481.28L465.56 480.95L465.15 479.77L462.21 481.65L458.79 480.64L458.08 486.77L455.5 489.71L453.04 490.39L453.38 491.31L445.22 485.66L444.64 488.5L443.68 486.71L439.87 488.39L438.03 491.9L435.89 489.95L425.67 491.94L424.05 494.54L424.22 496.67L422.89 496.13L421.17 497.46L420.51 499.34L418.46 499.42L418.45 502.31L416.65 503.11L415.49 505.35L415.95 507.38L414.09 507.41L414.36 509.68L413.61 510.85L414.59 512.32L413.61 513.4L414.47 514.26L411.48 513.86L410.52 511.89L411.72 509.48L408.27 506.99L408.64 505.73L409.96 506.53L409.25 504.51L405.8 504.33L405.73 500.99L404.76 499.38L399.44 499.79L398.86 498.25L396.03 498.41L395.96 499.03L392.84 496.18L391.57 496.54L391.94 492.78L390.75 491.64L389.79 492.08L390.05 490.84L388.14 489.29L388.43 488.4L386.61 488.05L386.34 486.79L388.68 485.44L389.79 486.27L389.12 484.55L390.83 482.96L388.7 480.76L388.67 479.31L385.9 479.91L384.75 477.87L385.69 476.41L388.49 475.99L388.29 473.16L392.18 470.71L391.89 469.52L393.11 468.23L394.28 469.18L393.2 470.17L395.38 472.3L394.21 474.89L394.85 476.61L396.61 476.55L397.89 476.06L398.12 474.01L399.53 473.78L400.95 474.9L403.41 473.96L403.27 473.22L401.68 473.29L402.55 468.68L405.15 470.31L405.75 467.78L409.81 468.63L409.91 467.19L413.21 465.28L413.41 463.19L409.69 462.17L409.18 459.95L410.41 458.8L409.94 457.85L407.4 457.76L408.21 454.95L410.01 455.44L411.43 453.27L411.3 452.48L409.18 452.64L408.97 449.48L410.78 450.53L411.47 449.06L412.15 449.92L411.94 448.54L412.52 449.61L415.12 449.22L415.19 447.78L416.84 446.14L418.68 446.66L419.51 445.71L419.75 447.59L421.09 447.23L421.31 445.06L423.8 442.04L425.52 442.23L425.3 441.28L426.17 440.77L427.26 441.49L432.58 440.54L433.72 441.22L434.69 439.54L432.76 437.52L431.73 431.79L429.68 432.84L426.58 431.51L427.49 430.82L427.36 428.99L425.81 428.74L425.32 429.71L425.07 425.08L423.98 424.76L422.91 424.79L422.1 423.02L419.12 423.9L418.08 422.92L416.05 423.36L415.74 421.81L414.47 421.03L411.03 422.36Z" fill="#C7C7C7" stroke="white" stroke-width="2"/>
<path d="M367.419 220.95L369.939 220.71L369.059 223.53L372.289 223.9L373.389 227.16L376.419 225.93L379.219 228.94L382.919 229.81L383.189 231.03L381.519 233.09L382.289 234.33L384.529 234.36L385.949 235.91L391.649 237.92L394.409 236.39L400.089 237.82L400.849 235.99L400.969 240.25L405.369 237.59L405.779 238.65L407.879 239.34L409.419 245.27L408.909 246.87L407.039 247.05L406.309 250.11L407.149 251.63L405.669 254.38L406.439 254.18L406.229 255.09L407.369 255.88L407.039 257.43L408.139 258.27L407.749 262.72L407.629 263.72L405.909 264.81L403.829 264.14L404.479 269.46L402.179 274.11L403.929 273.16L405.119 273.87L403.659 275.83L404.839 277.71L406.929 277.19L408.479 275.05L410.229 277.27L409.579 277.8L410.289 278.74L414.089 277.67L412.709 278.56L414.119 279.67L411.409 284.6L411.909 285.31L410.459 286.25L412.159 287.08L411.679 289.23L412.439 290.08L411.039 291.37L412.619 293.37L410.659 296.5L408.679 303.18L410.379 304.44L409.589 304.96L411.979 305.66L408.789 307.37L408.739 310.21L407.489 310.18L406.939 311.78L409.699 315.58L410.569 318.48L412.979 319.74L415.899 324.34L417.809 324.8L420.749 327.56L421.719 327.48L422.429 325.69L423.579 325.81L424.299 327.83L427.189 328.98L427.439 330.72L432.059 331.08L432.189 330.08L434.109 329.81L434.839 327.92L435.809 328L441.179 330.61L442.729 333.08L446.879 332.55L447.349 335.93L449.509 336.04L449.699 336.74L451.639 335.51L454.099 335.93L453.969 337.22L455.179 337.43L455.069 339.62L459.689 339.57L459.289 341.61L458.589 341.6L459.429 342.54L461.979 342.86L464.439 341.44L465.639 341.65L466.499 343.6L464.549 344.06L467.159 349.22L466.209 353.09L467.279 354.84L466.529 355.47L468.619 358.39L466.529 358.98L467.039 360.85L466.229 361.67L460.139 365.61L458.269 366.5L457.529 363.77L455.449 363.28L455.469 364.01L455.089 363.9L454.469 363.77L454.819 365.18L453.469 365.29L453.069 366.45L452.199 365.28L450.269 365.53L449.819 363.57L448.189 364.56L447.999 362.72L446.809 361.68L442.139 365.52L437.039 363.75L435.249 367.35L431.789 369.29L432.849 367.69L430.839 368.52L429.919 367.8L427.309 370.25L425.249 369.5L423.939 370.9L423.629 369.77L422.279 370.22L421.169 369.43L420.059 372.21L414.469 371.81L414.819 372.41L411.539 374.34L407.819 374.11L408.049 375.22L405.169 378.14L406.159 381.5L404.309 382.48L404.079 383.91L402.469 384.43L403.029 387.43L404.599 387.41L405.149 388.59L404.149 389.77L404.869 392L404.009 392.42L405.419 393.7L405.519 397.99L402.379 398.85L403.959 402.47L403.539 404.46L405.099 405.28L405.739 407.34L406.009 409.67L404.949 412.22L404.089 412.2L404.109 413.03L406.549 412.9L405.479 417.05L408.259 418.07L408.109 418.97L406.859 419.09L407.699 420.92L410.529 421.36L411.029 422.36L408.909 427.62L411.259 427.46L411.529 429.41L408.639 433.07L407.689 435.22L408.319 435.98L406.729 437.61L406.679 435.38L405.229 435.5L404.749 433.91L403.589 435.5L398.839 433.73L394.129 434.77L393.469 432.37L391.119 432.13L391.139 429.24L389.459 428.17L387.569 428.66L386.069 425.91L380.179 426.65L378.699 426.07L377.669 427.21L375.989 424.63L373.969 424.3L373.819 422.07L371.929 420.22L369.929 420.13L368.659 421.57L367.989 420.15L365.769 419.46L363.939 421.05L360.229 421.09L358.699 419.89L359.039 418.42L358.069 416.58L359.269 416.31L360.249 414.66L359.329 414.22L359.279 411.95L358.149 411.98L357.599 410.22L354.279 410.77L354.239 409.43L352.679 409.1L353.569 406.61L354.649 407.47L355.889 406.77L358.579 401.94L359.659 401.43L355.809 397.73L356.589 396.77L354.799 396.47L354.599 392.75L351.269 392.3L349.669 389.76L345.089 391.16L345.029 390.21L343.339 389.44L341.399 390.47L338.319 390.48L333.189 387.76L332.429 388.71L328.759 388.99L329.949 388.23L327.109 387.5L326.889 384.4L326.839 384.08L327.519 382.4L324.499 378.52L325.809 376.77L323.589 374.78L322.639 375.07L322.669 374.46L322.329 372.61H321.989L322.509 370.2L324.759 371.28L325.189 370.12L323.759 369.32L324.229 368.55L321.949 369.17L320.099 367.01L317.689 368.03L317.219 366.37L314.259 365.36L313.579 366.14L310.179 366.11L308.229 363.41L308.189 359.11L305.879 356.54L305.569 354.24L303.189 353.07L302.149 348.71L302.969 346.16L302.139 345.8L302.359 344.85L305.889 342.54L306.949 340.52L306.889 338.68L304.689 337.41L304.609 335.62L307.029 333.63L305.139 333.6L304.169 331.6L302.829 331.88L301.369 328.79L303.419 327.72L303.759 328.54L305.339 328.35L307.349 326.57L306.879 325L310.169 324.1L318.389 324.43L321.839 323.07L327.089 323.39L327.469 320.38L325.419 319.48L325.659 318.6L327.869 318.36L331.579 315.39H332.129L333.089 311.38L330.489 310.87L330.119 308.74L331.139 307.37L334.069 306.52L334.709 305.59L333.579 304.28H332.999L332.609 301.65L331.049 301.25L330.029 299.43L331.579 298.11L331.559 297.83L328.219 293.89L331.589 293.61L333.649 292.41L334.049 290.43L331.519 289.3L330.949 288.8L330.239 288.98L330.269 287.78L325.079 281.48L325.789 278.04L327.769 277.27L329.209 277.79L329.819 277.86L325.299 270.31L325.429 268.02L327.459 266.51L327.759 264.43L324.149 265.89L319.189 257.26V257.01L318.359 254.69L316.429 254.95L316.089 251.4L313.749 247.61L314.449 241.42L320.889 239.98L321.729 241.05L322.729 240L325.469 240.31L328.479 236.98L328.759 234.54L329.629 234.14L335.619 234.01L335.589 235.56L339.239 234.84L343.379 235.6L344.529 237.45L347.829 236.45L348.089 237.99L349.239 237.63L355.069 234.83L358.379 231.73L361.289 231.03L360.669 228.9L361.729 224.15L364.719 224.84L364.929 223.47L367.419 220.95Z" fill="#C7C7C7" stroke="white" stroke-width="2"/>
<path d="M182.8 110.38L181.44 111.36L182.68 111.52L182.06 113.11L180.91 111.45L181.8 110.1L182.8 110.38ZM168.79 68.59L170.09 68.8L169.8 69.65L171.14 71.04L169.2 72.71L167.56 71.21L166.53 68.42L167.79 66.89L168.79 68.59ZM334.46 60.08L340.08 61.13L343.87 63.01L349.24 74.15L345.02 73.07L341.8 73.61L341.68 72.84H343.89L341.42 71.97L339.92 72.93L341.19 73.47L340.6 74.18L336.93 74.11L335.3 73.32L335.75 70.83L334.8 69.16L333.36 68.68L330.69 69.66L332.27 71.26L329.76 69.76L329.86 65.27L331.08 62.46L333.08 59.84L334.46 60.08ZM169.34 59.79L168.43 64.07L167.26 58.82L169.34 59.79ZM190.05 57.71L191.31 58.36L190.4 58.81L188.32 57.85L190.05 57.71ZM182.96 57.13L182.57 60.61L181.39 61.19L182.37 61.47L181.95 62.37L182.79 63.38L181.88 62.54L180.73 64.15L177.4 64.51L175.62 62.24L175.56 60L182.96 57.13ZM173.41 54.84L174.68 57.07L173.03 57.2L170.49 55.03L173.41 54.84ZM184.98 48.12L184.43 49.42L183.31 49.09L183.64 48.15L184.98 48.12ZM180.31 46.11L179.29 48.14L175.29 48.74L172.97 50.56L171.81 49.67L172.56 48.52L178.64 47.07L180.34 45.46L180.31 46.11ZM183.96 43.14L183.18 44.64L181.46 44.44L183.3 42.21L183.96 43.14ZM162.43 48.18L162.32 49.08L163.65 49.46L162.41 49.99L163.37 50.89L160.95 51.34L156.5 45.14L160.97 39.99L159.6 42.72L161.07 47.04L162.43 48.18ZM171.51 35.33L175.42 36.49L175.18 38.31L176.21 39.48L174.17 43.79L168.88 43.74L163.46 41.37L163.22 39.41L165.27 36.34L171.51 35.33ZM165.94 2.73L167.71 3.33L163.28 3.47L163.57 4.47L165.28 4.69L166.09 6.75L162.39 8.67L160.53 11.96L161.64 19.54L165.22 21.86L176.29 20.81L178.48 19.55V18.16L181.32 18.08L184.32 20.02L187.39 20.19L189.71 18.71L192.76 19.73L195.23 18.88L198.35 19.13L204.81 22.49L210.96 22.38L216.73 24.87L217.62 29.33L219.11 29.12L220.47 30.3L221.2 29.63L223.62 30.45L226.1 26.32L227.81 25.84L229.56 29.32L229.54 31.73L231.5 27.94L233.53 27.96L234.62 26.3L238.16 24.23L239.26 22.08L240.8 22.02L239.36 25.09L240.34 27.09L252.37 30.86L256.21 35.67L257.67 35.73L258.84 33.64L259.55 34.54L259.54 30.82L262.81 32.78L264.82 39.5L267.94 43.06L267.74 44.6L267.31 42.49L265.46 42.97L266.17 45.73L267.8 44.85L266.52 45.85L267.77 46.21L267.31 57.87L263.31 63.11L257.28 66.3L254.97 66.29L257.04 69.16L260.09 68.68L261.28 67.68L260.71 67.58L273.61 65.14L278.36 68.35L276.45 70.59L277.75 75.57L275.88 76.12L275.47 77.92L274.7 77.81L275.62 81.26L274.08 84.1L276.15 81.91L277.35 82.34L276.36 81.77L276.91 78.67L278.02 78.08L277.87 76.73L280.04 72.91L283.44 72.46L284.48 71.01L286.25 70.54L290.93 71.82L296.21 75.55L303.8 78.39L310.4 84.83L315.89 83.98L324.88 76.4L330.47 76.62L327.97 77.08L330.9 77.91L334.35 76.88L334.9 75.38L336.46 74.64L336.24 75.68L336.83 75.09L337.68 75.79L337.3 77.46L334.15 80.43L334.31 79.52L332.93 79.56L333.22 80.5L333.88 80.25L335.22 96.49L326.23 102.73L321.03 108.73L317.84 108.26L317.14 106.41L315.97 109.86L313.45 112.69L315.57 118.1L321.01 118.81L321.93 120.19L321.77 122.35L323.13 122.61L322.47 126.25L327.06 127.87L323.61 128.9L323.07 127.94L323.68 127.05L321.65 126.02L319.36 128.98L317.58 129.35L316.59 131.26L314.72 131.65L313.26 133.94L314.82 140.27L314.14 142.84L313.87 144.67L316.85 146.18L317.27 148.05L319.72 150.04L324.35 150.33L324.16 151.34L325.56 151.9L326.21 155.81L324.75 157.88L323.56 164.1L319.72 164.82L318.98 163.56L317.94 163.74L318.67 167.21L317.44 169.53L318.11 170.29L315.7 170.62L313.74 173.55L310.27 174.06L309.66 176.46L307.17 175.89L305.86 176.63L304.77 184.26L303.44 186.19L302.46 186.65L297.39 185.16L289.59 179.82L286.59 179.72L285.15 178.8L286.28 177.15L284.13 176.81L280.85 173.57L278.95 169.45L277.43 170.38L275.8 169.27L275.09 163.83L278.16 162.48L277.66 159.63L279.62 157.34L277.68 156.83L278.18 155.82L277.28 154.16L274.65 152.62L275.69 151.27L275.53 149.81L277.13 149.26L277.77 147.7L277.86 146.95L276.24 146.12L273.21 148.83L270.63 148.08L269.79 149.12L270.45 149.8L269.63 152.63L265.39 152.29L264.12 156.02L259.5 155.37L258.48 158.52L255.02 162.42L252.71 161.61L252.51 159.65L250.97 159.16L250.88 157.57L248.27 165.61L244.64 164.72L236.79 159.15L233.95 150.9L228.86 146.13L224.94 138.13L221.73 133.77L215.06 130.94L202 131.5L201.01 129.64L198.92 128.9L195.73 125L194.26 120.13L192.93 118.68L194.23 117.62L192.87 118.43L191.13 115.42L189.33 115.32L194.08 112.99L196.72 113.52L196.22 114.62L197.06 114.61L197.09 113.79L197.49 114.57L199.08 114.17L200.78 111.79L200.72 111.13L199.11 111.02L200.37 110.43L198.45 108.1L199.22 107.85L198.35 107.84L197.15 103.79L195.12 103.51L192.84 105.06L193.08 103.93L192.69 105.08L189.57 99.41L191.62 92.85L191.51 87.28L190.69 86.34L187.97 87.46L185.5 86.27L183.26 86.6L181.23 89.04L179.13 88.06L176.41 84.06L176.96 86.17L175.64 84.98L176.8 86.95L174.97 84.47L176.68 79.41L177.59 79.14L177.16 80.3L178.84 81.03L179.69 79.51L181.93 79.06L180.99 79.43L181.98 77.45L180.97 78.02L179.64 77.44L179.33 78.18L176.59 77.68L177.39 75.57L190.34 72.78L193.54 73.55L196.7 71.39L199.2 68.09L201.83 67.51L202.2 66.02L204.09 66.82L204.94 66.11L203.61 66.52L201.91 65.72L202.12 63.72L200.72 61.32L199.15 62.27L197.32 66.85L196.43 66.57L196.96 66.93L195.18 67.95L191.83 67.88L189.38 66.78L190.13 65.06L189.35 63.69L193.72 59.91L193.46 56.51L194.24 53.4L194.91 53.34L193.47 52.82L194.08 51.49L193.15 52.77L189.86 52.82L189.57 52.07L192.53 50.53L191.57 50.77L190.09 46.68L185.67 43.71L185.19 40.38L182.12 38.82L181.87 38.09L183.03 37.31L182.22 33.93L176.58 26.12L176.15 21.37L170.6 21.52L164.4 25.39L162.05 24.08L161.22 22.22L159.69 21.81L159.34 23.51L157.15 25.01L157.04 37.13L155.91 36.02L156.95 18.31L163.2 2.64L164.33 2L165.94 2.73Z" fill="#C7C7C7" stroke="white" stroke-width="2"/>
<path d="M310.18 366.11L313.58 366.14L314.26 365.36L317.22 366.37L317.69 368.03L320.1 367.01L321.95 369.17L324.23 368.55L323.76 369.32L325.19 370.12L324.76 371.28L322.51 370.2L321.99 372.61H322.33L322.67 374.46L322.64 375.07L323.59 374.78L325.81 376.77L324.5 378.52L327.52 382.4L326.84 384.08L326.89 384.4L327.11 387.5L329.95 388.23L328.76 388.99L332.43 388.71L333.19 387.76L338.32 390.48L341.4 390.47L343.34 389.44L345.03 390.21L345.09 391.16L349.67 389.76L351.27 392.3L354.6 392.75L354.8 396.47L356.59 396.77L355.81 397.73L359.66 401.43L358.58 401.94L355.89 406.77L354.65 407.47L353.57 406.61L352.68 409.1L354.24 409.43L354.28 410.77L357.6 410.22L358.15 411.98L359.28 411.95L359.33 414.22L360.25 414.66L359.27 416.31L358.07 416.58L359.04 418.42L358.7 419.89L360.23 421.09L363.94 421.05L365.77 419.46L367.99 420.15L368.66 421.57L369.93 420.13L371.93 420.22L373.82 422.07L373.97 424.3L375.99 424.63L377.67 427.21L378.7 426.07L380.18 426.65L386.07 425.91L387.57 428.66L389.46 428.17L391.14 429.24L391.12 432.13L393.47 432.37L394.13 434.77L398.84 433.73L403.59 435.5L404.75 433.91L405.23 435.5L406.68 435.38L406.73 437.61L408.32 435.98L407.69 435.22L408.64 433.07L411.53 429.41L411.26 427.46L408.91 427.62L411.03 422.36L414.47 421.03L415.74 421.81L416.05 423.36L418.08 422.92L419.12 423.9L422.1 423.02L422.91 424.79L423.98 424.76L425.07 425.08L425.32 429.71L425.81 428.74L427.36 428.99L427.49 430.82L426.58 431.51L429.68 432.84L431.73 431.79L432.76 437.52L434.69 439.54L433.72 441.22L432.58 440.54L427.26 441.49L426.17 440.77L425.3 441.28L425.52 442.23L423.8 442.04L421.31 445.06L421.09 447.23L419.75 447.59L419.51 445.71L418.68 446.66L416.84 446.14L415.19 447.78L415.12 449.22L412.52 449.61L411.94 448.54L412.15 449.92L411.47 449.06L410.78 450.53L408.97 449.48L409.18 452.64L411.3 452.48L411.43 453.27L410.01 455.44L408.21 454.95L407.4 457.76L409.94 457.85L410.41 458.8L409.18 459.95L409.69 462.17L413.41 463.19L413.21 465.28L409.91 467.19L409.81 468.63L405.75 467.78L405.15 470.31L402.55 468.68L401.68 473.29L403.27 473.22L403.41 473.96L400.95 474.9L399.53 473.78L398.12 474.01L397.89 476.06L396.61 476.55L394.85 476.61L394.21 474.89L395.38 472.3L393.2 470.17L394.28 469.18L393.11 468.23L391.89 469.52L392.18 470.71L388.29 473.16L388.49 475.99L385.69 476.41L384.75 477.87L385.9 479.91L388.67 479.31L388.7 480.76L390.83 482.96L389.12 484.55L389.79 486.27L388.68 485.44L386.34 486.79L386.61 488.05L388.43 488.4L388.14 489.29L381.86 492.67V491.36L378.96 489.67L378.52 490.59L377.24 490.16L377.94 491.03L376.38 490.71L374.79 492.01L374.41 491.37L369.1 492.86L367.12 491.32L365.7 491.61L364.98 493.07L362.56 494.12L362.47 492.02L359.82 491.54L360.06 488.59L358.9 488.41L357.51 489.62L358 488.43L356.07 487.17L356.05 482.22L357.02 482.46L357.37 481.67L356.74 480.48L351.32 479.53L351.39 480.53L349.76 480.75L349.81 482.52L348.52 482.66L347.81 484.04L347.56 483.09L345.06 483.72L345.09 486.69L346.28 488.54L345.71 491.58L347.4 495.56L345.93 496.43L346.87 497.96L345.92 497.88L346.43 500.95L345.3 502.2L345.88 502.68H345.62L345.29 504.7L341.7 502.26L341.39 504.25L340.47 504.57L340.88 503.49L338.58 503L337.77 501.59L339.33 498.54L338.06 496.29L336.79 496.69L336.62 494.94L334.94 495.07L334.71 496.42L332.09 497.2L331.63 495.6L328.87 495.07L329.13 496.66L328.31 496.82L325.19 492.38L323.92 492.73L323.44 492.92L322.36 493.57L321.4 491.97L320.51 492.82L318.59 492.37L316.88 493.67L315.66 493.14L313.65 495.79L311.2 495.16L311.02 497L311.99 497.15L311.18 499.5L312.84 500.02L314.68 502.25L316.74 502.41L316.91 503.63H317.26L319.43 504.02L319.5 507.09L317.97 507.75L316.61 506.36L314.58 507.38L312.17 506.4L312.06 510.37L311.23 511.04L310.16 510.31H309.83L307.54 508.52L305.66 509.21L304.26 508.5L303.61 506.97L304.47 506.62L303.68 505.22L304.27 504.39L303.22 504.41L304.04 502.29L303.27 500.8L303.76 498.22L301.33 497.8L300.24 495.2L299.47 495.03L298.35 496.58L298.17 495.62L296.87 496.07L296.89 494.07L296.18 494.25H295.71L294.37 491.44L290.73 492.22L290.05 490.73L291.21 489.05L289.2 488.41L289.88 487.66L289.01 487.78L287.04 485.09L286.6 482.24L284.81 482.27L281.86 480.33L280.34 480.53L280.31 478.54L278.83 477.6L278.53 476.22L276.97 476.46L276.72 477.36L275.16 476.41L274.64 477.36L272.45 475.26L270.05 478.04L270.16 478.96L268.2 480L268 478.69L269.44 476.03L267.9 470.54L268.67 469.26L270.79 469.35L268.97 464.49L265.56 463.96L262.57 464.87L262.27 465.93L263.47 467.47L262.97 468.66L257.65 467.57L257.82 464.58L260.61 462.19L259.69 461.04L261.71 457.68L261.61 456.01L260.54 455.67L260.8 454.15L262.56 454.19L261.94 451.59L262.52 449.42L263.94 448.34L264.35 448.49L265.36 448.95L265.93 447.81L267.27 448.07L267.97 446.23L266.91 446.67L266.98 444.92L269.39 443.23L269.31 442.45L268.56 442.53L268.76 441.43L266.3 439.27L263.73 440.66L264.76 438.27L263.28 438.17L262.6 439.1L262.37 437.21L266.31 437.99L267.09 437.09L267.4 437.69L269.57 436.96L268.28 436.51L268.14 434.66L266.78 433.25L268.04 430.06L272.08 430.98L273.15 430.33L274.89 432.11L278.57 430.59L277.85 429.5L279.24 428.75L278.63 427.82L274.52 425.36L275.36 424.41L274.78 422.83L276.65 419.62L273.14 417.3L276.09 415.9L278.19 419.97L279 418.67L278.39 416.08L280.62 412.58L277.99 411.9L276.07 409.91L274.98 410.37L274.37 409.01L272.71 409.56L269.89 408.43L270.47 406.76L268.52 405.69L269.05 403.15L263.75 402.55L263.54 400.94L261.64 400.25L262.22 398.98L260.73 395.45L260.93 393.32L265.56 390.32L266.14 388.73L267.96 388.69L268.48 387L269.88 388.94L270.64 387.24L272.59 387.67H272.99L275.33 387.58L274.54 386.33L276.58 386.11L277.41 384.34L276.9 383.67L278.41 382.01L279.33 383.57L280.4 383.59L281.19 382.3L284.56 381.22L285.11 379.13L287.35 378.68L289.75 374.17V373.56L289.1 371.65L292.73 371.17H293.11L297.05 373.13L298.59 375.08L301.26 374.85L304.13 372.46L307.36 374.61L307.93 372.85L306.22 371.97L305.94 369.65L306.85 369.7L306.22 368.35L309 367.47L308.57 366.53L310.18 366.11Z" fill="#C7C7C7" stroke="white" stroke-width="2"/>
</svg>
