<svg width="802" height="1618" viewBox="0 0 802 1618" fill="none" xmlns="http://www.w3.org/2000/svg">
<path d="M583.47 1L537.6 2.26L531.76 2.42L507.21 3.09L506.24 3.15L503.05 3.21L499.02 3.37L496.2 3.47L454.11 5.14L438.73 5.71L417.48 6.61L401.08 8.96L401.33 9.81L398.32 9.8L392.17 11.21L392.24 11.65L399.05 10.64L401.11 20.76L402.22 22.05L403.87 23.24L403.92 24.94L404.47 26.88L407.79 32.32L413.58 41.83L415.38 44.77L415.88 47.21L405.14 80.88L404.6 83.66L404.2 86.82L391.04 87.56L390.4 74.04L324.52 76.89L325.26 91.89L382.57 89.13L383.31 99.16L415.92 96.07L420.09 95.8L422.15 100.98L422.65 105.8L422.83 108.7L422.38 108.95L422.33 111.2L419.33 113.88L362.44 116.52L359.84 114.54L356.09 108.69L352.72 108.12L350.08 109.19L348.48 110.92L347.6 113.33L346.87 117.09L325.83 118.29L317.81 115.52L308.73 115.69L300.63 119.56L267.54 120.06L267.44 115.9L265.26 116.01L265.47 120.16L259.9 120.55L251.19 120.03L247.14 119.61L244.83 118.35L243.21 115.19L243.3 108.65L246.13 107.01L248.05 105.47L249.57 102.99L250.31 99.95L250.17 97.07L248.97 93.27L245.47 90L241.1 88.47L240.31 64.12L239.23 63.21L238.06 63.3L237.07 64.43L237.23 76.33L237.61 88.64L232.86 91.6L231.53 93.11L229.97 95.89L229.67 99.87L230.41 103.61L231.48 106.23L233.58 108.78L231.36 112.04L227.58 115.54L224.69 117.73L220.71 120.19L216.43 120.76L195.48 121.37L187.48 123.01L182.93 122.97L173.78 122.6L172.33 123.6L171.13 125.86L170.38 130.27L170.62 143.83L170.92 168.52L172.82 171.17L175.3 173L179.03 173.27L181.67 171.74L267.64 168.26L267.85 172.66L269.71 172.6L269.49 168.21L307.27 167.14L311.15 169.32L315.27 170.53L318.67 169.32L323.28 165.92L359.81 164.19L362 166.15L364.76 190.41L364.05 190.35L369.35 244.24L367.07 257.12L359.39 251.8L352.55 258.88L349.78 262.84L343.78 271.97L338.12 280.54L332.43 288.55L330.41 291.13L289.05 247.54L261.95 219.14L222.87 209.39L223.05 208.5L215.85 206.75L216.38 204.73L214.61 204.34L212.74 205.35L212.37 206.83L210.83 206.34L210.97 205.45L210.77 204.61L210.31 203.93L208.81 203.11L171.89 204.41L157.28 205.23L152.22 202.88L149.32 201.87L146.84 201.41L140.51 201.35L69.01 203.74L63.56 201.92L49.99 201.7L42.49 201.54L36.02 201.04L28.85 200.53L23.83 201.59L20.2 203.57L17.99 206.06L16.06 209.83L15.23 214.47L15.46 228.37L2.69 228.33L1.83 228.57L1.21 229.14L1 229.94L1.01 382.54L1.34 383.82L2.52 385.07L3.68 385.41H10.32L11.45 384.91L12.19 384.2L12.87 383.13L12.78 242L13.77 241.07L30.63 241.32L31.75 242.07L31.69 271.78L32.37 272.86L38.85 272.87L39.59 271.55L39.45 242.21L40.37 241.3L57.58 241.16L58.44 242.13L58.6 272.05L59.45 272.82L85.41 272.91L85.19 349.88L89.36 349.74L89.32 273.09L92.12 272.91L93.09 271.84L93.11 241.58L94.11 240.97L111.11 240.82L112.11 242.05L111.74 270.92L112.96 272.92L118.53 273.1L119.98 271.31L119.81 242.33L120.82 240.93L137.74 240.9L138.94 241.7L138.92 278.23L139.41 279.69L142.32 280.9L145.23 280.42L146.44 279.45L149.04 271.04L155.14 272.83L158.53 275.74L163 279.63L164.56 282.62L163.79 287.77L162.03 290.8L158.03 295.41L152.81 298.8L148.11 299.81L139.57 299.39L136.13 298.23L133.46 297.67L129.9 297.81L126.62 298.31L123.49 300.83L121.86 303.52L121.32 307.58L120.66 369.64L120.75 399.28L118.98 408.02L119.13 414.66L120.72 417.47L123.29 419.6L129.34 422.16L140.11 425.98L146.53 429.07L154.1 433.96L169.09 445.39L174.99 451.06L179.97 456.58L184.06 462.23L191.81 475.09L201.32 491.89L206.08 493.67L216.2 490.9L217.51 494.69L218.21 496.71L219.4 500.16L217.51 502.28L209.52 504.61L207.96 506.52L216.63 528.81L218.07 531.18L222.93 536.79L225.28 537.87L227.88 538.43L228.57 539.33L234.63 555.99L225.73 559.56L214.74 563.65L204.07 533.61L200.73 534.58L217.83 585.64L213.4 587.31L235.03 648.3L240.04 646.62L240.17 646.95L240.6 647.5L241.2 647.67L241.99 647.61L242.91 647.27L252.81 643.74L253.96 646.63L254.35 646.95L256.83 646.06L259.21 641.06L258.73 639.42L241.34 591.31L237.86 592.55L236.42 588.69L237.39 588.29L236.53 585.82L235.21 582.32L260.61 572.97L261.55 572.64L283.06 632.68L283.73 632.45L284.36 634.26L291.85 631.7L296.43 645.22L295.52 645.44L294.79 645.73L294.26 646.28L293.97 646.71L293.86 647.36L294.04 648.04L261.07 659.29L264.4 669.69L300.53 657.51L306.61 676.04L306.96 677.08L318.15 709.6L318.42 710.41L323.6 726.3L324.05 727.59L287.33 740.5L264.85 748.72L260.89 737.51L273.16 732.82L250.74 674.74L255.26 669.03L253.27 667.38L253.07 666.35L251.73 665.54L247.89 665.83L246.39 665.48L244.53 659.28L243.48 658.45L242.49 658.4L241.56 659.17L241.39 660.77L240.95 664.68L239.34 666.78L233.79 671.34L231.78 675.88L232.29 682.71L238.02 695.71L243.51 704.58L245.89 714.92L252.81 736.2L254.11 738.3L256.08 738.77L257.1 738.66L257.97 738.45L261.78 748.67L262.46 748.42L262.76 749.26L272.25 776.18L272.69 777.35L273.47 778L274.38 778.1L276.89 777.09L280.21 775.88L282.59 775L283.24 774.75L283.68 774.14L283.74 773.49L278.27 757.98L278.07 757.04L278.29 756.38L278.97 755.96L307.33 745.94L309.54 752.42L309.75 753.03L310.95 756.23L312.87 755.6L313.75 758.27L309.95 759.55L309.54 760.58L309.69 761.8L314.18 773.74L315.23 774.19L315.86 774.15L322.35 792.39L323.53 792.97L324.64 792.74L318.51 773.69L322.25 772.37L333.14 768.43L341.56 793.32L324.29 798.93L286.25 812.65L285.81 814.41L322.31 918.45L336.35 958.5L329.15 964.43L328.77 965.61L329.05 966.51L321.81 971.56L320.42 971.41L309.33 979.77L309.21 981.04L310.73 983.07L303.38 988.65L301.59 986.28L300.74 986.16L288.72 995.61L288.33 996.33L290.61 999.38L280.95 1006.47L279.05 1003.98L278.24 1003.62L265.58 1013.16L265.46 1013L58.17 742L57.11 742.64L57.26 740.43L55.98 738.14L54.36 736.87L52.8 736.32L50.84 736.63L48.62 737.4L47.62 738.61L46.59 740.54L46.02 742.84L48.08 747.85L229.68 985.74L234.5 994.28L235.37 998.72L238.64 1002.52L241.32 1005.45L246.44 1008.38L250.57 1012.22L252.61 1012.88L254.65 1015.33L257.91 1019.44L285.13 1054.57L292.05 1060.56L295.88 1065.96L302.9 1074.74L303.04 1079.62L310.54 1086.93L315.33 1091.1L317.1 1096.65L318.63 1101.94L323.09 1106.37L323 1108.43L326.67 1114.02L326.1 1120.77L327.8 1124.16L325.61 1126.61L325.44 1128.59L327.29 1134.8L331.94 1138.16L331.7 1140.23L333.17 1142.02L332.93 1144.88L336.32 1148.35L340.3 1145.85L341.56 1144.81L343.53 1144.45L345.21 1146.04L345.25 1148.01L349.95 1145.3L356.5 1140.42L359.68 1136.99L365.45 1136.75L369.35 1137.05L377.76 1143.3L381.8 1143.46L388.26 1168.09L385.84 1168.82L384.38 1170.27L379.05 1184.87L362.95 1188.33L346.9 1175.77L345.64 1173.26L345 1172.78L343.93 1172.81L343.13 1173.16L342.57 1174.41L341.79 1175.88L342.15 1177.79L342.46 1178.47L361.12 1192.74L380.4 1207.22L376.9 1211.95L378.4 1218.47L377.4 1222.32L381.67 1227.3L388.03 1228.85L398.87 1235.6L403.35 1233.27L410.74 1239.67L416.14 1250.07L412.18 1252.15L413.43 1254.91L418.34 1252.17L420.76 1257.05L420.43 1262.48L419.8 1265.54L419.13 1268.17L416.69 1270.45L414.34 1267.77L411.83 1268.03L413.63 1273.86L419.61 1290.2L419.96 1291.15L423.57 1301.02L429.64 1304.17L435.46 1318.23L437.75 1336.76L437.63 1351.23L442.21 1365.26L443.37 1373.07L445.6 1377.91L448.16 1380.58L454.13 1384.43L456.42 1390.01L460.43 1391.7L463.25 1395.74L467.74 1405.59L468.82 1412.95L469.3 1416.28L465.84 1421.68L462.99 1427.67L453.33 1437.01L446.12 1450.63L444.96 1461.96L444.68 1469.23L443.37 1471.96L442.34 1480.36L439.5 1487.41L440.36 1493.83L439.43 1508.15L441.51 1524.77L443.72 1527.99L445.1 1536.26L443.46 1539.82L445.88 1544.53L451.36 1546.8L457.86 1552.81L456.51 1556.41L461.3 1562.88L468.04 1570.44L470.54 1572.05L471.78 1573.49L471.98 1576.27L473.87 1576.31L475.05 1575.43L475.89 1576.33L475.95 1577.75L477.59 1580.46L482.22 1582.8L483.95 1586.66L493.23 1590.3L498.28 1592.91L505.04 1597.84L507.11 1597.69L509.3 1596.62L513.58 1600.98L522.29 1606.69L526.63 1605.72L534.73 1609.28L537.19 1611.07L539.2 1610.72L542.4 1612.29L547.47 1611.64L551.54 1611.37L556.15 1616.19L560.52 1615.06L562.35 1616.52L566.27 1615.8L567.46 1615.01L571.08 1614.88L572.72 1613.79L572.17 1610.59L573.7 1610.04L574.93 1606.29L575.26 1603.48L579.87 1599.92L585.78 1596.84L591.21 1596.1L594.89 1596.16L598.16 1595.11L605.12 1595.68L605.97 1594.83L605.76 1593.36L604.2 1590.07L604.08 1587.76L605.15 1582.72L604.55 1581.01L602.74 1577.95L602.28 1576.1L600.34 1574.18L599.17 1572.14L599.02 1569.84L599.92 1568.27L599.61 1566.84L599.73 1565.01L597.34 1563.39L597.54 1562.86L597.35 1559.94L596.68 1558.26L596.92 1555.37L595.81 1552.11L595.83 1547.96L595.78 1546.15L597.7 1542.16L598.86 1541.56L599.06 1540.46L599.64 1539.82L599.06 1538.57L599.46 1535.06L599.99 1532.97L601.03 1530.74L604.08 1527.63L605.48 1527.05L606.72 1522.3L606.96 1517.45L609.14 1514.3L608.41 1508.72L611.94 1503.79L619.56 1493.3L621.26 1487.48L623.44 1485.06L623.92 1482.39L624.89 1479.48L626.83 1478.03L629.74 1476.57V1474.63L631.44 1473.66L633.62 1472.69L634.11 1474.39H636.29L637.99 1472.2L638.65 1468.57L639.37 1462.44L639.87 1459.61L639.13 1457.9L638.95 1456.24L638.94 1454.11L639.68 1451.6V1445.29L640.77 1443.14L641.92 1439.58L641.87 1435.35L642.65 1433.62L642.33 1429.66L640.38 1426.46L639.4 1423.84L638.91 1412.29L640.71 1409.67L642.84 1406.44L644.27 1403.02L642.64 1399.64L642.95 1395.17L643.17 1392.45L643.2 1390.05L645.01 1387.37L651.11 1368.95L654.3 1361.02L654.85 1357.4L659.82 1347.13L664.91 1347.61L668.74 1343.54L667.11 1339.19L672.44 1335.93L680.43 1333.23L679.52 1330.05L685.56 1328L688.51 1323.65L689.75 1319.26L690.17 1312.76L688.51 1306.71L685.38 1301.39L682.76 1303.33L680.4 1300.68L677.82 1297.35L679.32 1294.89L671.2 1287.04L671.09 1282.69L672.79 1278.75L675.11 1278.05L676.43 1274.16L671.94 1265.15L670.13 1259.25L667.44 1249.71L666.99 1245.94L667.07 1243.06L667.55 1241.54L668.81 1240.52L669.37 1239.89L669.67 1238.61L669.5 1236.61L669.85 1234.62L673.54 1227.5L677.55 1220.89L681.73 1218.61L681.76 1214.32L679.65 1214.03L680.38 1210.57L685.19 1201.38L682.41 1198.32L683.07 1191.39L686.41 1185.48L686.22 1179.21L689.23 1175.06L686.36 1171.9L687.12 1165.76L693.18 1157.57L693.41 1153.71L695.68 1148.56L699.85 1146.06L703.84 1141.25L706.61 1134.46L711.24 1126.24L717.92 1110.92L718.84 1106.5L724.09 1099.2L728.61 1090.16L730.15 1082.96L727.89 1075.56L721.74 1069.98L718.55 1060.16L719.85 1054.69L717.95 1050.53L717.54 1049.72L717.36 1048.75L716.45 1044.28L713.35 1039.42L727.02 1031.73L727.01 1028.87L729.96 1022L729.59 1019.66L732.54 1015.86L734.75 1015L735.8 1010.32L731.06 1003.96L733.15 999.91L730.69 993.53L731.06 990.7L728.5 986.38L717.84 982.01L713.43 979.34L712.65 969.82L696.55 950.46L695.7 914.53L695.72 906.47L699.22 903.47L696.11 900.36L693.61 900.21L694.06 897.56L693.08 895.36L691.56 894.76L694.97 885.74L696.56 876.11L696.26 871.95L698.31 856.64L700.5 849.75L702.77 840.88L702.93 829.89L705.66 807.77L709.82 795.42L714.22 789.28L716.21 768L722.61 753.5L715.09 746.4L713.3 741.9L713.67 736.75L716.8 728.18L723.52 725.62L723.83 720.66L721.65 718.72L722.62 715.09L724.32 714.85L725.04 706.11L721.41 702.72L716.31 698.6L717.28 695.2L715.03 687.79L720.02 672.98L722.77 672.38L725.39 667.69L722.23 665.04L716.02 663.9L712.85 655.29L718.43 646.53L721.45 637.96V628.8L721.34 613.1L717.85 610.97L718.5 608.55L714.55 605.39L714.45 597.8L716.1 594.37L715.71 593.5L715.01 593.05L713.87 593.11L711.51 595.04L710.31 592.06L710.77 589.02L713.21 584.74L715.09 579.73L715.23 572.51L718.68 555.3L720.98 546.79L723.79 539.01L728.34 534.87L730.69 534.32L732.85 535.7L733.98 537.3L735.49 537.72L736.86 536.94L737.17 535.24L740.77 529.26L742.72 526.21L767.88 530.33L770.53 530.48L773.26 529.88L775 528.97L776.97 526.39L778.18 522.45L800.5 352.86L799.53 347.47L796.71 343.85L792.61 341.75L779.14 339.01L772.83 335.93L764.43 330.07L755.16 324.28L746.31 327.75L743.13 318.51L742.67 309.94L742.75 293.12L744.04 285.12L745.92 277.86L745.02 263.42L745.44 257.61L746.53 252.14L750.69 246.32L760.04 247.48L763.56 249.32L764.92 249.24L765.54 248.51L765.9 247.5L765.23 246.19L760.88 243.45L749.87 241.89L748.35 236.28V227.11L752.14 213.93L759.45 193.57L754.88 175.78L754.21 169.58L754.05 163.98L757.08 156.59L760.61 152.29L765.59 151.98L776.2 153.5L777.46 150.68L770.95 148.51L763.14 147.77L759 137.17L758.86 128.15L760.93 118.34L761.38 113.29L763.04 105.91L767.37 97.03L766.13 92.18L766.71 86.76L768.55 79.76L770.13 78.47L770.9 77.84L766.41 77.08L749.37 70.2L721.1 58.65L699.59 49.97L673.98 40.17L642.85 26.45L622.27 17.81L587.97 3.02L586.71 2.47L583.47 1Z" fill="#C7C7C7" stroke="white" stroke-width="2"/>
</svg>
