<svg width="803" height="1207" viewBox="0 0 803 1207" fill="none" xmlns="http://www.w3.org/2000/svg">
<path d="M469.93 260.41L473.54 257.6L475.55 254.98L478.42 237.72L477.58 216.68L478.42 209.64L477.31 210.86L478.93 205.58L477.73 200.13L474.78 195.09L462.02 182.43L459.44 178.75L455.33 173.71L451.92 168.16L449.25 164.1L446.57 160.8L443.45 157.79L440.02 154.93L435.99 153.56L433.75 153.4L433.44 155.19L435.07 159.24L434.46 160.28L431.79 156.38L427.8 148.14L427.46 147.69L419.53 157.62L413.32 163.44L409.89 165.63L390.02 173.85L387.66 175.08L377.98 185.24L376.15 187.67L375.13 189.62L375.2 190.87L375.47 192.11L376.03 193.27L379.11 198.04L379.74 199.27L380.17 200.52L380.29 201.83L380.04 203.42L378.88 204.79L374.7 208.08L373.39 209.53L372.47 210.87L363.4 238.57L363.06 240.85L362.98 243.15L363.23 245.44L366.52 257.5L366.68 259.33L366.61 262.68L363.41 273.09L363.09 275.83L363.61 277.76L364.78 278.44L365.89 278.8L369.91 279.67L370.8 280.12L372.65 281.32L373.49 281.72L379.38 283.92L381.36 284.25L383.5 284.36L384.52 284.3L385.46 284.13L386.38 283.86L387.28 283.34L390.31 280.21L391.29 279.41L393.17 279.22L397.49 280.69L399.05 283.23L399.26 284.12L399.85 290.75L400.85 292.89L402.09 294.28L403.51 295.05L406.44 295.93L408.91 296.09L409.88 295.97L410.78 295.75L412.77 295.09L414.11 294.77L415.48 294.81L416.26 296.26L416.34 297.55L418.86 303.61L425.85 299.17L430.97 296.64L432.19 295.79L433.51 294.51L438.29 287.03L439.64 285.7L441.31 284.66L444.23 283.79L446.21 283.72L447.79 283.41L448.9 282.65L449.71 281.14L450.13 279.72L451.37 271.72L452.74 269.7L455.73 267.36L466.84 261.33L469.93 260.41Z" fill="#C7C7C7" stroke="white" stroke-width="2"/>
<path d="M632.42 374.97L631.04 376.98L630.29 375.68L629.78 372.48L628 370.2L623.06 358.58L619.71 350.54L616.53 347.08L614.07 344.61L611.87 342.27L608.43 339.3L603.28 335.1L593.95 327.55L590.39 323.84L587.45 322.57L585.96 320.11L580.76 314.85L572.01 306.47L568.43 303.79L568.36 304.06L568.57 313.08L569.09 315.29L570.06 317.62L571.43 320.17L571.92 321.59L572.18 323.02L571.65 327.33L571.84 328.44L572.35 329.53L573.56 331.58L573.48 332.48L572.06 333.26L570.83 333.32L569.6 333.16L568.49 332.9L567.37 332.77L566.22 332.83L565.24 333.28L564.46 334.19L564.35 335.68L564.62 336.96L565.95 340.62L566.09 341.79L566.04 342.97L565.84 344.13L565.41 345.39L564.74 346.56L563.38 347.59L562.18 347.93L557.38 348.53L555.21 349.06L554.45 349.44L553.74 349.94L552.63 351.29L549.24 356.36L547.78 357.86L546.4 358.88L545.28 359.48L544.15 360.3L542.8 361.96L541.56 364.1L533.01 386.53L532.5 388.42L532.25 390.93L532.55 399.52L534.06 407.38L535.87 412.68L535.96 415.56L533.93 422.2L535.73 425.09L538.04 426.14L549.08 429.8L554.24 430.75L555.53 430.84L562.42 431.97L563.12 433.09L564.27 435.8L566.06 437.55L569.15 441.78L570.22 442.38L571.62 442.51L573.18 442.42L575.46 442.6L576.96 443.54L579.84 446.43L581.1 446.68L582.29 446.28L583.25 445.34L584.12 444.31L585.48 443.47L587.37 442.89L594.69 443.36L595.96 443.08L599.7 441.62L600.84 441.36L604.17 441.45L605.99 440.87L606.51 435.35L605.8 427.54L604.94 423.63L602.17 419.13L604.14 417.2L606.16 416.3L607.6 415.89L608.74 415.97L609.52 416.34L610.16 416.81L611.44 418.02L612.39 418.61L613.26 418.66L614.13 418.39L614.85 417.81L615.67 416.93L619.05 410.89L619.83 408.27L619.91 407.34L619.72 406.53L619.3 405.84L618.13 404.75L617.45 404.31L616.83 403.77L616.45 403.08L615.18 397.81L614.99 395.39L615.36 393.3L616 392.21L616.9 391.21L617.73 390.73L618.58 390.38L620.4 390.03L621.38 389.95L626.93 388.99L629.3 388.3L630.98 387.32L631.77 386.41L632.09 385.36L632.04 384.39L631.12 380.97L631.78 377.99L632.64 376.12L632.42 374.97Z" fill="#C7C7C7" stroke="white" stroke-width="2"/>
<path d="M463.71 299.67L464.49 295.29L467.75 290.53L471.59 283.49L473.89 280.63L475.42 278.16L475.04 276.64L472.75 277.2L469.51 279.29L467.4 280.81L463.95 287.09L462.79 290.52L462.01 295.28L461.04 299.86L461.23 302.34L462.37 303.29L463.71 299.67ZM512.43 398.88L512.58 396.75L512.12 395.06L510.49 391.14L510.05 389.41L509.73 388.61L508.46 386.52L507.46 384.15L507.48 383.09L507.69 382.14L508.09 381.4L509.47 379.37L510.51 376.94L511.17 374.39L511.22 372.95L510.99 371.85L510.57 371.15L508.99 369.4L507.04 367.69L506.45 366.81L505.83 365.47L504.92 362.76L504.67 361.11L504.69 359.79L504.88 358.84L505.16 357.95L506.78 354.4L507.23 352.76L507.24 351.59L507.08 350.6L506.02 348.01L505.09 344.9L505.15 343.72L505.4 342.73L505.82 342.02L507.81 339.51L513.21 334.01L513.58 333.76L513.81 333.56L515.14 331.7L523.74 314.96L525.53 310.41L525.56 309.17L525.39 308.14L524.26 304.77L523.67 302.08L523.42 299.41L523.53 297.91L523.96 296.01L524.37 294.81L526.21 287.41L526.18 287L525.44 286.64L524.09 285.5L523.6 284.91L522.8 284.44L519.61 281.46L509.89 276.32L503.66 274.42L496.79 274.06L489.63 275.86L483.7 280.04L479.37 285.94L462.21 316.26L460.55 323.13L459.92 344.37L459.93 344.38L463.39 346.59L472.53 360.77L474.58 363.13L476.26 364.72L482.88 368.86L489.16 375.97L491.14 379.81L492.11 382.53L492.46 384.19L492.64 385.61V386.69L492.78 387.73L495.46 396.91L495.48 397.78L495.26 399.22L495.81 399.6L496.68 399.74L503.85 400.17L505.66 400.73L506.92 401.28L509.76 403.13L512.43 398.88ZM482.7 272.35L490.83 269.88L499.99 263.14L500.17 262.44L492.86 261.32L487.8 261.07L486.29 261.32L485.71 261.94L484.21 264.18L481.73 266.08L480.02 269.36L479.05 273.08L479.53 275.86L482.7 272.35ZM454.99 337.05V307.89L455.35 306.07L456.87 304.04L457.22 302.35L456.87 291.6L457.22 288.16L461.07 278.31L462.02 272.02L463.09 268.67L464.87 265.42L467.31 262.44L469.92 260.41H469.93L466.84 261.33L455.73 267.36L452.74 269.7L451.37 271.72L450.13 279.72L449.71 281.14L448.9 282.65L447.79 283.41L446.21 283.72L444.23 283.79L441.31 284.66L439.64 285.7L438.29 287.03L433.51 294.51L432.19 295.79L430.97 296.64L425.85 299.17L418.86 303.61L421.56 308.33L422.04 310.92L421.11 320.17L420.4 323.74L419.91 329.47L420.55 331.27L421.29 332.34L422.23 332.63L424.24 332.97L432.37 333.37L434.23 333.82L435.88 334.47L445.56 339.6L447.06 340.11L448.36 340.19L449.13 339.71L450.36 339.35H451.2L453.74 340.35L454.08 340.58L454.99 337.05ZM476.97 269.59L477.55 267.11L480.04 262.74L482.72 259.69L485.97 257.99L487.69 256.09L485.98 254.36L483.89 252.83L481.6 253.02L480.06 257.21L477.95 261.2L475.84 265.58L473.35 270.15L472.77 272.82L474.67 273.01L476.97 269.59Z" fill="#C7C7C7" stroke="white" stroke-width="2"/>
<path d="M568.43 303.79L567.67 303.22L561.58 297.23L556.74 293.57L553.51 290.86L543.39 285.96L529.43 284.24L528.05 284.68L527.48 286.59L526.83 287.32L526.18 287L526.21 287.41L524.37 294.81L523.96 296.01L523.53 297.91L523.42 299.41L523.67 302.08L524.26 304.77L525.39 308.14L525.56 309.17L525.53 310.41L523.74 314.96L515.14 331.7L513.81 333.56L513.58 333.76L513.21 334.01L507.81 339.51L505.82 342.02L505.4 342.73L505.15 343.72L505.09 344.9L506.02 348.01L507.08 350.6L507.24 351.59L507.23 352.76L506.78 354.4L505.16 357.95L504.88 358.84L504.69 359.79L504.67 361.11L504.92 362.76L505.83 365.47L506.45 366.81L507.04 367.69L508.99 369.4L510.57 371.15L510.99 371.85L511.22 372.95L511.17 374.39L510.51 376.94L509.47 379.37L508.09 381.4L507.69 382.14L507.48 383.09L507.46 384.15L508.46 386.52L509.73 388.61L510.05 389.41L510.49 391.14L512.12 395.06L512.58 396.75L512.43 398.88L509.76 403.13L514.04 405.01L514.91 404.96L516.21 404.77L519.09 403.36L525.16 401.62L530.63 406.5L531.68 407.05L534.06 407.38L532.55 399.52L532.25 390.93L532.5 388.42L533.01 386.53L541.56 364.1L542.8 361.96L544.15 360.3L545.28 359.48L546.4 358.88L547.78 357.86L549.24 356.36L552.63 351.29L553.74 349.94L554.45 349.44L555.21 349.06L557.38 348.53L562.18 347.93L563.38 347.59L564.74 346.56L565.41 345.39L565.84 344.13L566.04 342.97L566.09 341.79L565.95 340.62L564.62 336.96L564.35 335.68L564.46 334.19L565.24 333.28L566.22 332.83L567.37 332.77L568.49 332.9L569.6 333.16L570.83 333.32L572.06 333.26L573.48 332.48L573.56 331.58L572.35 329.53L571.84 328.44L571.65 327.33L572.18 323.02L571.92 321.59L571.43 320.17L570.06 317.62L569.09 315.29L568.57 313.08L568.36 304.06L568.43 303.79Z" fill="#C7C7C7" stroke="white" stroke-width="2"/>
<path d="M314.91 258.77L313.58 258.16L312.65 257.52L299.23 243.55L298.1 242.71L297.06 242.2L280.12 238.1L256.53 225.22L254.9 225.09L252.59 225.35L247.73 226.58L245.76 227.58L244.57 228.59L244.36 229.52L243.67 231.57L242.89 232.76L240.7 234.85L239.76 235.94L238.23 238.23L237.2 239.27L236.04 240.06L234.68 240.32L233.08 240.17L226.61 237.82L224.1 238.19L222.71 239.04L221.8 239.95L221.21 240.9L220.37 242.01L219.32 243.13L218.18 244.15L217.03 244.93L216.07 245.35L214.9 245.59L209.16 244.1L204.06 241.72L201.17 241.11L199.35 240.99L197.12 241.79L195.9 241.55L194.59 240.75L190.85 237.11L185.75 234.11L179.93 231.91L177.2 231.18L174.41 231.29L172.52 231.73L172.63 231.85L178.28 235.02L180.38 236.92L181.61 239.5L181.73 242.28L181.05 245.16L179.78 247.88L178.18 250.15L175.89 252.07L173.12 253.86L170.66 255.95L169.29 258.7L167.79 266.82L165.05 265.19L160.69 266.22L139.91 279.18L128.21 282L125.14 283.33L122.5 285.49L117.89 292.13L115.26 294.91L111.81 296.12L109.38 295.28L103.43 291.41L100.1 290.53L98.19 290.75L94.45 291.62L92.93 291.75L90.98 291.16L89.53 290.09L88.36 288.97L87.27 288.19L83.67 287.19L81.55 287.02L80.61 287.68L80.97 289.51L82.58 291.8L82.94 293.32L82.87 294.66L82.58 295.34L78.17 300.02L77.28 300.69L73.91 301.18L66.48 300.26L63.48 302.54L60.01 301.47L56.56 300.96L55.07 303.95L52.04 303.03L48.47 302.7L45.41 303.3L43.86 305.16L38.77 311.05L35.59 316.88L33.22 322.95L32.05 328.58L32.42 331.93L33.98 333.54L36.25 334.82L38.73 337.12L40.01 339.57L41.56 344.47L43.33 346.91L43.79 348.25L43.99 349.59L43.92 350.94L43.57 352.31L42.14 354.28L41.34 356.55L40.35 364.44L40.58 366.25L41.81 370.82L42.66 372.31L45.53 374.1L46.33 375.25L46.78 376.36L47.34 376.73L47.85 377.25L48.17 378.87L47.32 385.07L47.27 387.31L46.75 389.91L44.94 390.42L42.56 390.17L40.32 390.53L38.22 392.37L36.48 396.56L34.89 398.71L32.93 399.87L30.27 400.73L24.87 401.73L22.71 402.9L21.22 405.22L19.16 410.44L11.54 422.6L9.15 424.5L3.7 427.54L2 429.34L4.78 435.92L10.03 441.75L22.35 455.41L34.67 469.05L47 482.7L59.32 496.35L71.65 510L83.98 523.64L96.3 537.28L108.83 550.82L116.1 549.22L119.71 549.05L129.37 549.71L131.29 550.1L133.25 550.98L134.93 552.01L136.73 552.85L139.08 553.12L148.26 551.84L151.5 552.49L152.71 553.32L153.84 554.44L154.94 555.3L156.14 555.38L157.74 554.21L159.64 551.05L160.88 549.99L164.27 549.81L171.42 552.29L174.99 552.19L178.08 550.04L184.64 543.44L187.65 541.95L194.45 540.19L196.58 540.81L198.1 544.65L200.44 546.74L207.73 544.08L209.15 545.97L214.32 557.99L214.73 558.46L216.09 557.38L219.28 553.89L226.94 547.94L229.2 545.82L230.56 544.17L231.28 541.94L234.22 535.7L235.73 530.78L237.64 527.04L239.11 525.01L240.7 523.61L242.46 522.72L253.09 519.36L254.21 519.17L255.34 519.09L262.47 519.54L267.61 518.65L270.14 518.6L284.94 521.58L287.5 521.67L296.84 520.77L298.57 517.66L297.37 504.12L296.12 498.06L296.14 496.24L296.64 494.73L297.52 493.61L302.16 489.34L309.08 484.63L310.02 484.18L310.72 484.03L311.7 484.01L323.85 487.73L326.33 488.15L328.72 488.27L329.84 488.21L331.35 487.91L333.09 487.26L335.88 485.73L337.3 484.46L338.18 483.16L340.36 479.24L343.42 475.34L345.24 473.41L346.87 471.97L352.78 468.69L354.07 468.24L355.67 468L356.93 468.15L358.16 468.7L359.34 469.69L360.44 470.8L363.91 475.42L367.01 478.48L367.77 479.52L370.12 484.17L370.97 485.35L372.01 486.48L374.18 488.44L374.97 489.47L375.27 490.63L374.93 496.85L375.05 497.99L375.74 499.09L376.99 499.98L379.21 500.48L380.75 500.38L382.14 499.95L388.08 497.32L389.72 497.24L391.01 497.62L391.76 498.34L396.04 503.96L397.22 504.9L398.41 505.57L399.65 505.9L406.94 506.37L408.63 506.67L409.93 507.04L411.09 507.57L412.08 508.33L412.94 509.38L417.04 516.05L423.73 515.77L437.81 513.54L441.73 512.36L444.55 509.45L448.26 502.29L451.21 495.55L453.15 488.91L454.06 482L453.9 470.74L455.02 460.29L454.36 449.96L455.02 446.29L459.06 437.6L461.2 434.55L461.67 430.66L461.69 417.26L461.22 415.55L459.47 411.58L459.37 408.19L461.69 386.35L461.22 384.77L460.28 383.32L459.64 381.98L460.02 380.76L460.83 379.62L461.34 378.23L461.6 376.72L461.69 375.23L461.14 372.39L457.24 364.57L456.89 361.38L456.87 354.1L456.52 352.29L455.74 352.33L454.34 352.16L452.15 351.18L451.49 351.72L451.06 352.65L450.56 353.31L448.9 354.31L443.9 358.9L443.47 358.3L442.79 357.87L453.6 342.42L454.08 340.58L453.74 340.35L451.2 339.35H450.36L449.13 339.71L448.36 340.19L447.06 340.11L445.56 339.6L435.88 334.47L434.23 333.82L432.37 333.37L424.24 332.97L422.23 332.63L421.29 332.34L420.55 331.27L419.91 329.47L420.4 323.74L421.11 320.17L422.04 310.92L421.56 308.33L418.86 303.61L416.34 297.55L416.26 296.26L415.48 294.81L414.11 294.77L412.77 295.09L410.78 295.75L409.88 295.97L408.91 296.09L406.44 295.93L403.51 295.05L402.09 294.28L400.85 292.89L399.85 290.75L399.26 284.12L399.05 283.23L397.49 280.69L393.17 279.22L391.29 279.41L390.31 280.21L387.28 283.34L386.38 283.86L385.46 284.13L384.52 284.3L383.5 284.36L381.36 284.25L379.38 283.92L373.49 281.72L372.65 281.32L370.8 280.12L369.91 279.67L365.89 278.8L364.78 278.44L363.61 277.76L363.09 275.83L363.41 273.09L366.61 262.68L366.68 259.33L357.93 255.41L350.6 253.71L349.34 253.61L348.11 253.73L346.28 254.48L345.41 255.24L344.82 255.96L344.51 256.82L343.91 259.83L343.4 260.6L341.4 261.94L338 264.78L336.21 264.84L333.84 264.44L324.08 261.17L321.76 259.25L320.68 258.72L319.52 258.44L314.91 258.77Z" fill="#C7C7C7" stroke="white" stroke-width="2"/>
<path d="M225.74 1L225.75 1.01L235.71 15.77L252.64 34.85L259.15 45.43L258.98 48.81L256.92 52.44L253.8 55.29L250.43 56.38L247.09 56.59L238.96 58.47L236.14 59.83L234.41 61.76L230.25 65.03L229.05 67.59L229.07 69.95L229.48 71.84L229.27 73.75L227.37 76.21L225.99 82.8L224.35 85.68L221.6 87.3L218.1 87.49L211.61 86.87L208.14 87.98L204.8 90.5L202.2 93.2L199.38 95.56L191.57 98.6L189.63 100.83L187.96 103.46L185.57 105.64L184.94 106.21L177.06 111.64L173.47 114.91L172.17 118.69L168.21 121.67L161.09 122.37L147.31 122.12L143.65 123.35L141.36 125.53L138.15 131.61L134.49 136L133.69 137.51L133.57 138.95L134.11 142.06L134.09 143.84L131.6 148.27L131.99 150.7L131.37 152.82L129.84 153.97L127.48 153.54L126.42 154.33L124.83 156.58L122.53 160.79L120 163.94L112.63 166.31L110.34 170.6L110.48 173.08L111.44 175.46L115.21 182.4L117.24 183.2L119.51 183.72L121.71 185.25L122.42 186.45L122.5 187.43L122.32 188.46L122.26 189.85L122.92 191.43L124.23 192.26L125.71 192.85L126.86 193.74L128 195.85L129.86 200.42L131.29 202.63L131.6 203.99L131.58 205.29L131.21 206.51L130.48 207.67L126.52 211.23L124.49 215.66L124.57 220.54L126.95 225.42L128.71 227.19L140.03 236.18L142.16 236.14L145.75 229.68L148.39 227.15L151.85 225.86L156.05 225.88L158.06 226.63L159.75 227.76L161.53 228.67L163.86 228.74L166.51 228.35L168.65 228.52L170.59 229.58L172.52 231.73L174.41 231.29L177.2 231.18L179.93 231.91L185.75 234.11L190.85 237.11L194.59 240.75L195.9 241.55L197.12 241.79L199.35 240.99L201.17 241.11L204.06 241.72L209.16 244.1L214.9 245.59L216.07 245.35L217.03 244.93L218.18 244.15L219.32 243.13L220.37 242.01L221.21 240.9L221.8 239.95L222.71 239.04L224.1 238.19L226.61 237.82L233.08 240.17L234.68 240.32L236.04 240.06L237.2 239.27L238.23 238.23L239.76 235.94L240.7 234.85L242.89 232.76L243.67 231.57L244.36 229.52L244.57 228.59L245.76 227.58L247.73 226.58L252.59 225.35L254.9 225.09L256.53 225.22L280.12 238.1L297.06 242.2L298.1 242.71L299.23 243.55L312.65 257.52L313.58 258.16L314.91 258.77L319.52 258.44L320.68 258.72L321.76 259.25L324.08 261.17L333.84 264.44L336.21 264.84L338 264.78L341.4 261.94L343.4 260.6L343.91 259.83L344.51 256.82L344.82 255.96L345.41 255.24L346.28 254.48L348.11 253.73L349.34 253.61L350.6 253.71L357.93 255.41L366.68 259.33L366.52 257.5L363.23 245.44L362.98 243.15L363.06 240.85L363.4 238.57L372.47 210.87L373.39 209.53L374.7 208.08L378.88 204.79L380.04 203.42L380.29 201.83L380.17 200.52L379.74 199.27L379.11 198.04L376.03 193.27L375.47 192.11L375.2 190.87L375.13 189.62L376.15 187.67L377.98 185.24L387.66 175.08L390.02 173.85L409.89 165.63L413.32 163.44L419.53 157.62L427.46 147.69L423.64 142.58L418.88 135.67L410.54 129.05L388.31 104.04L379.52 95.86L377.13 92.7L374.75 90.47L364.93 83.06L335.21 65.31L317.94 52.85L303.09 46.09L292.38 39.68L287.16 35.2L283.93 32.99L277.3 31L271.54 26.38L268.86 25.19L265.01 25.81L264.64 27.94L266.64 32.49L267.98 34.3L277.84 39.68L292.81 50.09L305.02 55.1L311.83 59.64L317.5 65.24L321.25 71.3L306.73 58.79L304.6 56.16L303.41 55.01L294.26 53.12L293.24 53.23L292.61 52.94L292.38 51.61L292.08 51.29L290.6 48.76L285.78 47.75L281.11 45.19L272.19 38.67L268.1 36.6L260.16 34.43L255.54 32.03L249.44 26.12L240.14 11.89L234.33 6.01L228.98 2.5L225.74 1Z" fill="#C7C7C7" stroke="white" stroke-width="2"/>
<path d="M418.79 1205.17L421.72 1204.94L424.98 1204.2L428.88 1202.66L431.99 1200.43L434.58 1197.6L439.09 1191.11L440.95 1189.68L443.41 1189.45L460.01 1191.03L461.05 1190.6L463.12 1189.01L463.85 1188.73L464.6 1189.1L465.51 1189.78L466.16 1190.44L466.11 1190.76L467.41 1191.22L468.7 1191.99L470.03 1191.92L475.12 1183.92L476.18 1181.09L476.08 1177.15L475.05 1173.76L471.97 1167.37L470.89 1164L472.82 1161.58L472.78 1161.48L472.76 1161.41L474.17 1151.82L475.5 1148.11L481.22 1139.9L488.25 1132.79L490.08 1130.17L498.29 1110.88L505.06 1100.73L510.99 1089.45L536.86 1017.1L548.03 995.47L550.07 989.89L550.78 986.81L551.13 983.45L551.18 978.64L549.41 957.7L549.47 955.29L549.79 953.01L550.13 951.77L552.69 946.9L565.42 929.73L565.99 928.52L565.46 925.37L555.23 901.17L538.09 876.61L536.34 871.64L535.41 866.93L535 862.5L535.81 855.05L535.79 852.02L530.19 830.25L530.23 826.5L529.77 822.86L528.9 820.46L523.68 809.81L508.54 787.3L507.25 784.68L505.99 781.19L500.88 760.22L500.56 757.38L500.55 755.24L501.71 750.59L501.85 748.34L501.75 746.99L495.16 724.34L485.28 710.66L482.88 706L470.39 700.71L467.85 700.07L466.53 699.93H465.22L462.66 700.26L461.28 700.64L457.19 702.46L453.84 704.59L451.5 706.5L449 709.36L445.75 714.9L444.85 716.05L423.09 735.43L420.05 739.29L415.58 743.93L413.04 745.93L411.94 746.55L411.21 746.87L409.44 747.04L404 746.99L401.73 746.32L400.58 745.5L399.14 744.26L388.03 729.93L387.1 728.16L386.52 726.48L385.66 722.35L384.11 718.57L383.59 717.9L382.8 717.15L381.53 716.75L380.65 716.58L379.58 716.65L378.51 716.87L377.35 717.24L370.05 720.87L368.91 721.29L367.72 721.57L366.62 721.58L363.14 721.05L360.88 720.94L351.27 722.5L329.22 721.77L326.89 721.2L324.49 720.32L319.12 717.75L317.84 716.89L316.63 715.83L315.43 714.33L314.9 712.82L314.86 711.27L315.69 709.17L316.58 707.73L318.56 705.35L319.23 703.98L319.28 702.48L318.06 695.55L317.84 688.58L318.46 685.42L319.32 683.14L320.28 682.01L320.99 680.89V678.88L320.32 676.18L318.05 670.69L317.26 668.04L315.95 665.27L312.43 663.96L309 664.92L307.68 665.51L306.46 666.19L305.15 667.14L303.82 668.33L302.1 670.37L301.11 671.79L295.85 682.49L295.1 683.55L294.08 684.67L292.84 685.54L291.24 686.28L287.96 686.67L281.98 686.07L280.04 686.39L280 687.54L278.99 691.41L273.43 697.19L271.69 700.24L271.98 700.97L273.63 702.83L273.96 703.91L273.62 704.95L272.17 706.88L271.78 707.84L271.36 710.72L271.37 712.13L271.69 713.91L273.6 718.2L276.27 720.16L283.26 722.42L286.7 725.12L286.24 727.44L284.44 730.15L283.92 733.97L285.48 736.5L290.99 741.63L293.28 745.8L294.26 746.6L294.96 747.56L294.82 751.76L295.84 752.4L297.4 752.33L302.56 753.18L304.49 753.87L305.66 755.21L305.98 756.83L305.72 758.07L304.83 758.85L303.22 759.08L300.2 760.31L297.17 763.4L294.81 767.2L293.8 770.5L294.26 774.17L294.96 776.88L294.44 779.18L291.24 781.66L284.6 784.64L282.53 786.71L281.18 790.8L281.07 792.75L281.27 794.18L281.18 795.6L280.19 797.47L278.75 798.63L275.08 800.24L268.91 805.95L255.56 810.65L251.46 815.15L251.43 819.93L253.94 823.5L256.88 826.87L258.21 831.01L255.42 837.75L254.96 840.62L257.77 839.59L257.05 847.46L257.28 848.55L258.27 850.7L258.14 851.83L257.32 852.58L256.21 852.85L255.18 852.92L254.66 853.06L252.95 858.54L248.73 865.52L248.02 867.15L245.81 874.51L244.73 876L243.55 877.03L242.71 878.29L242.68 880.41L243.15 881.47L244.54 883L244.9 884.07L244.49 884.7L242.43 885.02L241.91 885.47L242.14 886.46L243.36 888.18L243.53 889.32L243 890.37L242.04 890.89L240.97 891.29L240.11 891.99L235.76 899.08L234.16 902.96L233.39 907.04L233.97 916.35L233.55 919.8L230.18 933.15L229.14 959.73L229.73 962.87L234.84 972.86L234.8 973.73L233.99 975.73L233.88 976.26L234.68 976.89L236.78 977.66L237.45 978.32L238.8 981.07L239.04 982.3L238.99 984.32L239.59 987.44L244.32 998.04L244.6 999.81L244.76 1003.33L245.13 1005.06L245.18 1006.87L243.5 1009.58L243.23 1011.07L244.91 1014.18L248.01 1016.39L254.49 1019.74L259.47 1024.01L261.49 1025.06L263.01 1025.36L266.19 1025.45L267.66 1025.84L271.17 1029.77L271.41 1035.36L270.51 1041.65L270.63 1047.72L272.12 1052.57L272.19 1054.23L271.67 1055.84L269.84 1058.71L269.33 1060.42L269.58 1062.57L271.38 1065.97L271.91 1067.75L271.8 1069.09L270.87 1071.78L270.57 1073.16L270.99 1077.43L270.82 1078.91L270.08 1080.64L268.05 1083.78L267.45 1085.64L267.35 1088.22L267.61 1091.81L268.39 1095.14L269.87 1096.9L271.85 1096.98L275.15 1095.8L277.04 1095.91L283.16 1098.3L285.19 1098.79L286.22 1098.52L286.66 1098.75L286.82 1100.74L283.4 1107.35L280.8 1110.85L281.06 1112.18L284.62 1115.97L286.11 1117.13L287.76 1117.98L289.63 1118.46L292.92 1118.27L295.74 1117.47L298.65 1117.1L302.1 1118.18L305.48 1121.02L310.02 1128.41L312.75 1131.92L317.83 1135.95L319.34 1137.62L322.53 1143.33L324 1145.07L324.77 1145.39L326.78 1145.6L327.61 1146.02L328.21 1146.96L329.36 1149.52L329.96 1150.26L331.94 1150.74L335.25 1149.82L336.73 1150.05L338.62 1152.51L338.98 1155.56L339.7 1158.37L342.65 1160.09L344.01 1161.85L347.49 1169.65L349.52 1172.37L352.41 1173.94L362.85 1177.3L389.99 1182.11L396.34 1184.59L397.24 1184.94L400.58 1186.76L403.59 1189.16L406.15 1193.07L407.01 1196.6L408.4 1199.97L412.59 1203.31L415.86 1204.7L418.79 1205.17Z" fill="#C7C7C7" stroke="white" stroke-width="2"/>
<path d="M509.76 403.13L506.92 401.28L505.66 400.73L503.85 400.17L496.68 399.74L495.81 399.6L495.26 399.22L495.48 397.78L495.46 396.91L492.78 387.73L492.64 386.69V385.61L492.46 384.19L492.11 382.53L491.14 379.81L489.16 375.97L482.88 368.86L476.26 364.72L474.58 363.13L472.53 360.77L463.39 346.59L459.93 344.38L459.92 344.37L459.91 344.62L457.22 351.17L458.43 352.18L456.52 352.29L456.87 354.1L456.89 361.38L457.24 364.57L461.14 372.39L461.69 375.23L461.6 376.72L461.34 378.23L460.83 379.62L460.02 380.76L459.64 381.98L460.28 383.32L461.22 384.77L461.69 386.35L459.37 408.19L459.47 411.58L461.22 415.55L461.69 417.26L461.67 430.66L461.2 434.55L459.06 437.6L455.02 446.29L454.36 449.96L455.02 460.29L453.9 470.74L454.06 482L453.15 488.91L451.21 495.55L448.26 502.29L444.55 509.45L441.73 512.36L437.81 513.54L423.73 515.77L417.04 516.05L414.73 517.09L413.54 520.43L412.08 523.11L411.52 524.7L411.33 526.49L411.36 528.01L411.23 529.31L410.51 530.47L418.1 542.01L419.95 543.86L420.98 546.41L420.78 558.17L416.85 581.74L417.17 588.45L421.13 598.84L425.25 622.05L427.46 624.82L434.87 622.64L437.24 625.18L439.58 632.11L443.49 637.54L446.56 639.18L453.57 641.43L455.29 642.3L456.42 643.13L458.74 644.5L462.09 645.65L469.7 646.86L494.19 646.66L506.15 643.89L508.54 643.52L535.78 642.93L540.77 641.91L543.69 640.3L550.12 621.83L552.55 611.65L555.16 604.94L559.27 599.27L575.18 581.42L583.19 560.38L586.53 554.38L591.82 547.38L595.72 537.11L598.29 532.58L603.48 527.12L604.46 524.67L605.18 521.12L606.48 505.48L615.2 469.04L618.21 461.56L618.5 460.29L618.45 458.84L618.25 457.43L615.74 455.04L613.56 454.55L610.97 451.71L605.99 440.87L604.17 441.45L600.84 441.36L599.7 441.62L595.96 443.08L594.69 443.36L587.37 442.89L585.48 443.47L584.12 444.31L583.25 445.34L582.29 446.28L581.1 446.68L579.84 446.43L576.96 443.54L575.46 442.6L573.18 442.42L571.62 442.51L570.22 442.38L569.15 441.78L566.06 437.55L564.27 435.8L563.12 433.09L562.42 431.97L555.53 430.84L554.24 430.75L549.08 429.8L538.04 426.14L535.73 425.09L533.93 422.2L535.96 415.56L535.87 412.68L534.06 407.38L531.68 407.05L530.63 406.5L525.16 401.62L519.09 403.36L516.21 404.77L514.91 404.96L514.04 405.01L509.76 403.13Z" fill="#C7C7C7" stroke="white" stroke-width="2"/>
<path d="M379.21 500.48L376.99 499.98L375.74 499.09L375.05 497.99L374.93 496.85L375.27 490.63L374.97 489.47L374.18 488.44L372.01 486.48L370.97 485.35L370.12 484.17L367.77 479.52L367.01 478.48L363.91 475.42L360.44 470.8L359.34 469.69L358.16 468.7L356.93 468.15L355.67 468L354.07 468.24L352.78 468.69L346.87 471.97L345.24 473.41L343.42 475.34L340.36 479.24L338.18 483.16L337.3 484.46L335.88 485.73L333.09 487.26L331.35 487.91L329.84 488.21L328.72 488.27L326.33 488.15L323.85 487.73L311.7 484.01L310.72 484.03L310.02 484.18L309.08 484.63L302.16 489.34L297.52 493.61L296.64 494.73L296.14 496.24L296.12 498.06L297.37 504.12L298.57 517.66L296.84 520.77L287.5 521.67L284.94 521.58L270.14 518.6L267.61 518.65L262.47 519.54L255.34 519.09L254.21 519.17L253.09 519.36L242.46 522.72L240.7 523.61L239.11 525.01L237.64 527.04L235.73 530.78L234.22 535.7L231.28 541.94L230.56 544.17L229.2 545.82L226.94 547.94L219.28 553.89L216.09 557.38L214.73 558.46L216.84 560.84L220.19 563.41L227.37 567.5L231.9 569.8L232.17 574.45L229.27 584.34L229.12 590.63L228.57 593.65L227.37 596.61L226.24 601.42L225.83 611.21L223.54 618.47L224.27 625.56L223.88 628.65L222.9 631.49L221.5 634.14L216.86 640.91L216.04 642.86L215.63 644.69L215.45 646.35L214.89 647.88L213.37 649.35L211.89 649.87L208.63 649.93L207.23 650.17L202.88 654.79L202.35 657.89L203.14 660.89L204.96 663.31L207.55 664.63L209.49 665.04L210.94 665.08L211.89 664.35L212.27 662.49L213.12 661.18L214.88 661.26L216.66 662.17L217.52 663.38L218.38 666.35L220.11 666.8L222.62 666.09L225.79 665.61L229.65 666.93L231.67 667.25L232.59 666.18L233.3 664.82L234.9 664.37L236.78 664.47L238.38 664.79L239.84 665.71L242.18 668.82L243.05 669.61L244.56 669.46L247.73 667.92L249.82 667.93L250.49 668.54L250.02 670.61L250.68 671.63L251.4 671.85L253.17 671.83L253.94 671.91L257.42 672.83L258.81 672.47L260.12 671.01L262.29 673.88L271.78 679.2L273.08 680.51L274.31 682.11L275.75 683.47L277.63 684.08L279.5 684.27L280.1 684.81L280.04 686.39L281.98 686.07L287.96 686.67L291.24 686.28L292.84 685.54L294.08 684.67L295.1 683.55L295.85 682.49L301.11 671.79L302.1 670.37L303.82 668.33L305.15 667.14L306.46 666.19L307.68 665.51L309 664.92L312.43 663.96L315.95 665.27L317.26 668.04L318.05 670.69L320.32 676.18L320.99 678.88V680.89L320.28 682.01L319.32 683.14L318.46 685.42L317.84 688.58L318.06 695.55L319.28 702.48L319.23 703.98L318.56 705.35L316.58 707.73L315.69 709.17L314.86 711.27L314.9 712.82L315.43 714.33L316.63 715.83L317.84 716.89L319.12 717.75L324.49 720.32L326.89 721.2L329.22 721.77L351.27 722.5L360.88 720.94L363.14 721.05L366.62 721.58L367.72 721.57L368.91 721.29L370.05 720.87L377.35 717.24L378.51 716.87L379.58 716.65L380.65 716.58L381.53 716.75L382.8 717.15L383.59 717.9L384.11 718.57L385.66 722.35L386.52 726.48L387.1 728.16L388.03 729.93L399.14 744.26L400.58 745.5L401.73 746.32L404 746.99L409.44 747.04L411.21 746.87L411.94 746.55L413.04 745.93L415.58 743.93L420.05 739.29L423.09 735.43L444.85 716.05L445.75 714.9L449 709.36L451.5 706.5L453.84 704.59L457.19 702.46L461.28 700.64L462.66 700.26L465.22 699.93H466.53L467.85 700.07L470.39 700.71L482.88 706L483.49 702.53L490.01 684.77L492.89 674L506.77 649.66L508.54 643.52L506.15 643.89L494.19 646.66L469.7 646.86L462.09 645.65L458.74 644.5L456.42 643.13L455.29 642.3L453.57 641.43L446.56 639.18L443.49 637.54L439.58 632.11L437.24 625.18L434.87 622.64L427.46 624.82L425.25 622.05L421.13 598.84L417.17 588.45L416.85 581.74L420.78 558.17L420.98 546.41L419.95 543.86L418.1 542.01L410.51 530.47L411.23 529.31L411.36 528.01L411.33 526.49L411.52 524.7L412.08 523.11L413.54 520.43L414.73 517.09L417.04 516.05L412.94 509.38L412.08 508.33L411.09 507.57L409.93 507.04L408.63 506.67L406.94 506.37L399.65 505.9L398.41 505.57L397.22 504.9L396.04 503.96L391.76 498.34L391.01 497.62L389.72 497.24L388.08 497.32L382.14 499.95L380.75 500.38L379.21 500.48Z" fill="#C7C7C7" stroke="white" stroke-width="2"/>
<path d="M676.78 504.63V503.5L685.04 491.59L686.87 487.9L688.87 484.61L690.79 479.47L691.11 470.64L687.29 464.35L687.68 460.51L689.32 456.57L689.41 453.2L690.16 451.28L691.34 448.46L692.07 445.44L694.74 439.72L694.29 433.86L694.02 431.2L693.98 427.68L693.01 425.36L690.1 419.51L691.32 420.61L693.71 424.04L693.57 422.23L693.2 420.83L692.36 419.16L691.8 417.22L691.3 413.18L689.85 406.52L686.71 400.62L683.32 395.68L669.93 382.04L663.32 377.19L657.69 373.41L655.68 372.29L650.58 369.28L647.3 367.64L644.59 366.4L641.22 365.16L638.01 364.9L637.27 365L636.68 365.67L635.06 366.61L632.97 368.9V371.66L632.71 373.47L632.42 374.97L632.64 376.12L631.78 377.99L631.12 380.97L632.04 384.39L632.09 385.36L631.77 386.41L630.98 387.32L629.3 388.3L626.93 388.99L621.38 389.95L620.4 390.03L618.58 390.38L617.73 390.73L616.9 391.21L616 392.21L615.36 393.3L614.99 395.39L615.18 397.81L616.45 403.08L616.83 403.77L617.45 404.31L618.13 404.75L619.3 405.84L619.72 406.53L619.91 407.34L619.83 408.27L619.05 410.89L615.67 416.93L614.85 417.81L614.13 418.39L613.26 418.66L612.39 418.61L611.44 418.02L610.16 416.81L609.52 416.34L608.74 415.97L607.6 415.89L606.16 416.3L604.14 417.2L602.17 419.13L604.94 423.63L605.8 427.54L606.51 435.35L605.99 440.87L610.97 451.71L613.56 454.55L615.74 455.04L618.25 457.43L618.45 458.84L618.5 460.29L618.21 461.56L615.2 469.04L606.48 505.48L605.18 521.12L604.46 524.67L603.48 527.12L598.29 532.58L595.72 537.11L591.82 547.38L586.53 554.38L583.19 560.38L575.18 581.42L559.27 599.27L555.16 604.94L552.55 611.65L550.12 621.83L543.69 640.3L540.77 641.91L535.78 642.93L508.54 643.52L506.77 649.66L492.89 674L490.01 684.77L483.49 702.53L482.88 706L485.28 710.66L495.16 724.34L501.75 746.99L501.85 748.34L501.71 750.59L500.55 755.24L500.56 757.38L500.88 760.22L505.99 781.19L507.25 784.68L508.54 787.3L523.68 809.81L528.9 820.46L529.77 822.86L530.23 826.5L530.19 830.25L535.79 852.02L535.81 855.05L535 862.5L535.41 866.93L536.34 871.64L538.09 876.61L555.23 901.17L565.46 925.37L565.99 928.52L565.42 929.73L552.69 946.9L550.13 951.77L549.79 953.01L549.47 955.29L549.41 957.7L551.18 978.64L551.13 983.45L550.78 986.81L550.07 989.89L548.03 995.47L536.86 1017.1L510.99 1089.45L505.06 1100.73L498.29 1110.88L490.08 1130.17L488.25 1132.79L481.22 1139.9L475.5 1148.11L474.17 1151.82L472.76 1161.41L472.78 1161.48L472.82 1161.58L473.29 1160.99L485.08 1158.97L487.18 1158.61L491.59 1155.65L491.66 1154.1L490.72 1150.67L490.96 1149.06L492.12 1148L495.83 1146.35L497.28 1145.39L498.44 1143.41L499.34 1141.01L500.45 1138.87L502.3 1137.59L503.01 1137.97L504.61 1140.59L505.77 1141.83L508.57 1143.23L512.05 1144.25L515.63 1144.83L518.7 1144.94L520.77 1144.3L522.27 1143.34L523.97 1143.06L526.68 1144.49L527.94 1146.06L529.13 1149.61L530.26 1150.96L535.49 1152.34L543.18 1152.59L550 1151.32L552.61 1148.17L555.47 1142.92L556.55 1139.93L557.04 1137.12L556.09 1132.16L555.89 1129.59L556.87 1128.4L559.45 1128.76L564.35 1130.74L567.08 1130.88L569.82 1129.89L575.33 1126.52L588.46 1120.72L593.65 1119.33L599.46 1119.62L613.21 1122.14L618.2 1121.99L625.8 1120.06L630.66 1116.39L641.47 1102.69L643.18 1099.75L647.21 1088.93L648.84 1087.48L651.1 1086.65L654.53 1084.87L657.09 1082.52L659.14 1079.98L661.53 1077.77L665.12 1076.42L669.12 1076.8L675 1080.48L678.28 1081.08L692.19 1072.34L700.07 1069.21L705.02 1073.16L706.04 1077.8L707.96 1081.15L710.97 1083.71L715.25 1085.96L718.16 1086.56L720.83 1086.6L726.25 1086.01L729.76 1086.03L731.14 1086.89L732.22 1088.45L734.84 1090.57L736.96 1091.31L748.54 1093.28H750.77L752.74 1092.38L759.73 1086.86L761.93 1086.35L765.19 1086.89L768.46 1087.01L770.79 1085.75L772.94 1084.08L775.68 1082.98L778.83 1083.35L781.4 1084.98L783.73 1086.86L786.21 1088.09L788.8 1087.89L793.74 1085.07L801.34 1082.2L800.8 1080.32L799.81 1078.74L798.38 1077.59L794.97 1076.49L793.6 1075.67L792.45 1074.55L791.54 1073.16L785.41 1069.97L769.46 1069.71L765.01 1067.88L749.35 1045.69L748.17 1040.84L746.93 1037.29L745.33 1030.12L743.27 1026.95L741.82 1026.18L738.07 1025.48L736.56 1024.73L735.86 1023.27L735.95 1017.41L734.13 1013.77L728.31 1008.69L727.07 1005.74L728.12 1003.4L728.41 1001.71L727.62 1000.13L724.93 997.63L724.16 996.2L723.64 993.96L723.97 992.38L724.77 990.58L724.99 988.81L723.64 987.3L720.32 989.74L718.02 990.53L716.97 989.02L717.83 983.53L717.53 982.35L713.42 977.56L712.63 976.09L712.52 973.32L713.3 971.19L713.73 969.27L712.63 967.19L709.26 969.1L707.96 968.14L706.99 961.73L705.37 958.75L701.17 954.3L700.32 952.18L700.96 950.56L702.08 948.5L702.45 946.73L700.88 945.97L695.31 946.81L694.77 947.18L693.7 944.11L696.51 938.24L695.37 937.17L693.45 937.53L690.19 939.05L688.66 939.39L686.71 938.7L685.99 937.17L685.47 935.64L684.17 934.95L683.5 933.27L681.34 924.84L682.86 923.23L685.39 921.21L687.17 918.92L686.39 916.5L680.98 915.93L678.91 914.74L680.23 912.62L681.09 911.12L680.99 909.84L680.52 908.42L680.23 906.45L680.76 905.88L683.03 905.99L683.56 905.33L683.39 904.1L682.62 902.04L682.44 900.78L680.92 897.16L678.12 894.58L676.64 891.61L679.12 886.84L678.56 886.54L678.45 886.46L678.42 886.32L678.12 885.83L677.02 886.85L675.6 887.79L673.98 888.31L672.35 888.04L670.54 886.72L670.85 885.65L671.9 884.35L672.35 882.38L670.6 878.62L670.23 876.83L670.37 874.83L671.24 871.48L671.45 869.55L670.87 867.6L669.86 866.26L669.49 864.91L670.84 862.87L671.07 861.85L671.45 856.2L670.95 853.91L666.91 845.58L661.76 849.62L657.42 850.36L653.07 849.02L647.94 846.79L648.11 849.74L646.98 851.17L642.38 852.36L641.98 852.9L640.83 854.01L639.61 854.7L639.04 853.98L638.67 853.14L637.7 852.65L636.42 852.42L635.11 852.36L634.18 851.65L632.1 850.42L630.01 850L628.42 853.2L626.93 853.43L625.15 852.93L620.1 850.11L620.07 850.09L617.33 848.56L612.74 847.62L611.36 847.05L610.56 846.36L610.02 845.53L609.31 843.6L608.97 841.9L609.07 840.55L609.9 837.6L609.99 836.51L609.64 834.49L609.61 833.43L612.08 828.63L612.32 825.75L609.65 822.73L606.27 820.75L605.64 820.45L605.29 819.96L603.54 819.73L602.75 819.39L602.02 818.58L601.81 818.01L601.67 817.43L600.38 815.03L599.56 812.17L598.97 810.99L592.77 807.02L584.82 803.72L582.11 801.99L580.29 798.97L579.32 795.53L578.89 788.13L578.2 785L574.73 777.58L566.49 765.49L563.84 762.38L553.14 753.93L549.2 748.97L547.6 743.21L545.47 729.35L543.42 722.33L543.7 718.95L545.97 715.48L560.13 700.98L561.93 698.21L562.98 694.99L563.33 690.89L562.88 688.19L561.99 685.7L561.48 683.14L562.13 680.15L563.73 677.64L565.6 675.57L567.14 673.43L568.34 668.03L571.33 660.78L574.09 656.16L576.66 647.85L579.57 643.64L580.87 640.81L581.1 637.72L579.74 634.83L575.38 629.25L573.2 622.54L570.51 620.73L567.79 619.35L566.56 617.11L567.68 611.62L570.3 607.87L573.26 604.68L575.46 601.96L578.77 596.43L580 595.28L582.04 594.76L583.61 595.21L585.17 595.98L587.21 596.39L591.19 595.84L593.08 594.35L595.53 589.7L599.89 585.49L605.34 582.81L611.45 582.45L617.84 585.24L624.98 582.67L628.71 582.02L632.88 581.8L633.76 582.33L636.25 584.7L637.33 585.24L639.43 585.06L642.17 584.22L655.04 582.89L659.13 581.8L660.87 581.12L662.08 580.44L663.48 579.9L665.8 579.57L667.22 579.84L668.49 580.38L669.82 580.52L671.45 579.57L665.52 574.2L664.79 572.37L664.99 570.21L665.49 568.36L667.91 562.85L669 558.16L670.07 555.9L671.9 554.94L674.79 555.04L676.85 555.68L678.23 557.38L679.12 560.63L681.65 559.57L684.21 558.09L686.19 556.2L686.99 553.92L685.77 550.65L680.35 544.05L679.25 541.28L679.12 540.95L678.42 539.95L676.79 539.45L674.94 539.54L673.57 540.35L673.28 541.91L674.12 543.49L675.79 545.47L675.36 546.55L674.28 547.25L672.88 547.44L671.45 547.03L670.64 546.14L670.34 544.85L670.09 533.45L669.57 532.99L668.54 533.04L666.91 532.64L664.56 533.6H663.11L662.47 532.08L663.02 530.29L664.35 528.54L672.26 520.56L673.93 517.96L674.58 514.14L674.76 510.63L675.28 508.04L676.78 504.63Z" fill="#C7C7C7" stroke="white" stroke-width="2"/>
</svg>
