<svg width="616" height="381" viewBox="0 0 616 381" fill="none" xmlns="http://www.w3.org/2000/svg">
<path d="M259.381 210.67L260.101 208.82L258.411 205.95L264.411 207.3L264.621 208.05L268.461 209.93L270.731 208.69L271.491 205.97L274.641 204.92L277.031 201.64L280.341 201.77L281.151 203.02L283.181 198.36L285.571 197.71L286.601 196.39L288.241 196.7L293.611 202.08L290.881 205.33L288.961 209.66L292.671 214.94L295.441 211.46L295.261 210.11L296.591 210.1L300.901 206.02L305.291 207.3L307.961 198.54L313.041 200.43L315.251 198.38L318.221 203.55L320.301 210.28L324.341 214.85L321.121 216.19L313.551 213.89L309.931 218.76L308.931 217.71L306.391 220.16L311.451 226.34L311.991 230.2L314.031 230.22L316.201 232.76L317.481 232.83L320.661 236.62L320.281 238.35L322.191 237.6L324.171 238.11L326.001 236.35L325.881 235.04L327.051 234.38L327.951 235.18L330.911 233.87L330.501 232.88L331.931 231.66L335.321 234.62L336.671 232.1L339.461 229.8L339.691 228.63L337.331 221.87L338.161 221.81L341.391 214.95L346.221 217.95L351.101 219.38L350.981 216.97L352.391 214.56L358.791 212L361.081 213.5L364.371 215.35L365.261 216.64L364.331 217.58L364.741 219.5L362.281 220.66L362.291 222.07L365.571 222.51L367.111 225.34L363.941 226.93L363.711 228.25L360.561 230.64L358.731 229.85L357.951 230.35L356.821 232.88L355.881 232L353.231 234.16L352.351 233.91L353.851 235.93L355.431 236.22L356.001 235.51L356.341 236.64L353.211 237.21L353.091 239.39L355.761 241.15L356.271 239.78L355.541 238.11L356.601 237.6L358.141 239.18L358.171 240.19L354.841 243.2L349.711 250.21L353.621 254.43L350.851 262.13L352.061 263.79L351.571 266.58L352.061 268.11L347.351 273.61L342.651 269.71L332.641 276.01L335.281 279.29L338.901 278.61L343.011 282.61L343.541 285.13L342.021 287.35L343.601 290.5L341.771 295.02L339.661 296.81L336.221 294.49L329.421 299.74L327.421 298.19L321.471 300.09L322.151 302.3L324.661 305.54L319.731 310.84L323.611 316.39L325.211 320.79L323.961 321.65L322.201 320.44L319.561 323.03L313.411 322.04L312.491 323.99L307.991 326.42L309.801 329.65L304.421 332.76L304.461 334.62L299.931 339.13L296.831 340.46L295.351 338.47L288.001 343.14L289.771 346.06L289.251 346.54L288.231 345.47L275.811 345.5L274.731 340.46L272.071 340L268.401 345.07L269.661 349.68L263.651 349.8L262.001 351.85L263.181 354.89L262.011 355.01L261.221 353.87L258.991 354.63L254.011 353.48L251.551 355.93L250.091 355.38L250.461 356.69L246.911 357.49L246.151 356.22L245.541 356.91L244.141 355.66L244.831 354L247.671 352.44L249.161 352.5L246.851 350.41L250.371 342.82L248.321 341.21L248.401 339.91L250.581 339.04L248.071 337.78L247.191 333.35L248.441 331.96L245.741 330.84L245.651 329.43L246.891 329.99L247.681 327.83L244.061 326.75L244.141 324.46L245.151 323.26L246.491 323.01L246.151 325.03L246.771 326.34L248.771 320.72L250.521 320.12L249.991 318.62L250.731 316.61L247.411 318.92L246.241 318.12L249.161 314.69L249.921 315.34L250.961 314.17L250.121 310.2L251.071 310.07L252.831 311.41L254.301 311.24L255.291 305.33L253.171 301.75L251.961 293.51L252.381 291.44L255.211 286.61L255.251 282.82L252.871 277.16L252.621 271.57L249.951 267.5L249.691 265.49L251.771 262.26L255.901 261.64L259.361 259.66L262.611 254.7L262.771 252.34L261.041 249.17L259.811 244.16L258.121 240.89L255.601 238.55L255.441 233.13L258.411 225.08L259.281 222.9L257.891 217.06L258.741 214L259.381 210.67Z" fill="#C7C7C7" stroke="white" stroke-width="2"/>
<path d="M176.871 306.49L178.971 307.25L179.551 306.2L181.241 306.04L183.181 308.58L183.861 307.64L182.401 306.98L182.311 304.01L184.061 303.15L185.621 304.15L190.151 301.18L190.131 299.12L188.751 297.52L188.731 293.71L192.491 292.11L196.171 292.95L200.421 290.94L203.251 293.43L203.011 296.22L203.721 298.29L207.001 299.98L207.131 301.44L205.791 302.85L205.961 307L208.161 307.87L209.481 307.4L210.041 308.9L208.291 313.73L206.411 315.07L204.681 315.23L205.471 316.75L206.721 316.8L212.321 313.34L212.251 312.21L214.131 311.91L213.741 311.18L215.411 310.05L215.281 306.08L215.991 307.06L217.881 307.41L219.341 309.97L220.141 310.2L220.311 308.98L220.841 309.79L220.221 310.8L220.981 312.44L219.991 315.3L221.981 316.69L223.831 316.46L223.141 317.77L225.311 321.49L227.251 320.48L228.021 322.47L230.421 323.98L234.061 328.68L234.761 328.04L239.831 331.08L241.361 330.26L242.541 331.03L245.761 330.86L248.461 331.98L247.211 333.37L248.091 337.8L250.601 339.06L248.421 339.93L248.341 341.24L250.401 342.85L246.871 350.44L249.191 352.54L247.691 352.48L244.861 354.05L244.171 355.71L245.571 356.96L245.181 360.8L243.881 360.98L240.931 359.51L239.811 358.11L237.371 357.52L235.851 355.9L232.781 356.7L231.861 356.02L232.001 358.58L230.101 359.68L231.211 361.32L229.851 362.35L229.161 361.23L228.481 364.06L227.711 364.15L228.411 365.94L226.471 366.65L225.751 368.39L223.981 369.11L223.991 370.94L222.571 370.59L222.081 371.83L220.371 371.84L219.171 372.5L219.241 373.17L216.491 371.74L215.651 375.39L213.391 374.97L212.451 375.94L212.581 379.09L208.921 378.67L208.061 378.08L207.821 376.31L205.081 374.45L205.271 375.31L204.461 375.18L202.681 377.86L202.331 377.01L199.001 376.06L197.221 376.76L194.221 375.9L192.941 373.71L189.041 372.6L187.421 373.99L185.751 372.51L183.221 372.33L181.531 374.96L179.591 375.45L174.461 373.79L171.991 371.67L165.731 373.01L163.661 372.19L161.041 373.69L159.641 375.56L158.581 373.47L157.261 372.77L156.261 369.86L155.211 370.61L152.141 368.96L150.261 369.58L148.541 367.26L146.011 367.09L144.501 366.16L142.261 366.6L140.691 364.95L142.281 364.43L142.051 363.28L143.751 361.65L144.561 363.5L145.281 362.43L147.451 362.82L148.091 361.09L147.331 359.11L147.961 358.36L146.791 357.47L147.071 356.24L144.821 354.88L144.861 353.04L142.021 352.94L141.301 351.34L140.611 351.64L141.431 353.55L139.991 353.4L138.211 347.03L140.931 346.25L141.011 344.32L139.031 341.6L138.641 339.4L141.131 338.38L141.261 337.29L142.681 337.06L143.211 333.39L141.851 331.9L143.711 330.91L143.871 324.72L145.421 321.89L145.441 320.12L147.331 318.24L146.421 316.36L148.171 315.03L149.421 318.58L151.231 319.18L152.821 317.39L152.621 316.23L153.491 315.84L154.091 316.91L155.411 316.57L155.521 317.75L158.031 318.1L159.241 316.74L160.501 317.05L161.011 316.02L163.061 316.36L163.601 315.65L164.681 316.3L165.791 315.34L165.441 311.74L167.621 305.49L172.301 305.26L172.751 306.6L174.121 306.05L176.251 307.05L176.871 306.49ZM194.041 327.9L190.271 326.9L187.151 329.08L187.811 331.31L184.021 331.43L184.301 333.58L185.711 335.78L185.191 338.41L188.851 340.52L191.831 344.21L196.991 342.19L197.781 337.82L199.231 337.04L199.531 334.24L200.881 333.24L203.591 334.17L205.481 332.59L204.071 328.65L200.951 324.54L195.111 327.19L194.041 327.9Z" fill="#C7C7C7" stroke="white" stroke-width="2"/>
<path d="M440.62 183.99L441.87 185L442.6 183.83L444.54 184.68L447.41 189.14L448.57 188.73L448.6 187.05L454.26 191.52L460.76 192.38L463.47 194.72L470.02 194.38L469.23 196.87L469.9 198.63L468.53 199.67L469.15 202.88L463.92 206.78L464.8 209.86L463.61 210.45L463.6 211.72L465.14 213.36L474.87 217.32L479.93 217.37L481.24 218.68L482.4 218.35L482.55 219.96L481.56 220.22L480.87 222.32L482.86 220.48L485.31 221.28L486.19 222.4L487.77 220.65L493.92 219.71L493.16 217.23L494.02 214.33L497.19 214.88L499.08 213.25L499.54 211.67L500.48 211.12L500.73 212.43L502.22 211.36L503.98 212.13L504.89 214.39L503.84 214.97L502.98 218.23L504.21 218.64L504.22 219.33L503.52 220.67L502.21 220.31L500.32 223.3L496.91 224.09L496.83 226.45L498.25 229.54L497.29 229.78L497.05 232.41L489.84 236L489.72 240.75L488.75 243.12L486.51 245.38L486.58 246.3L490.31 248.94L490.48 251.42L489.06 252.55L487.28 255.93L485.4 254.68L483.32 255.55L481.79 254.88L482.12 257.06L483.93 258.97L482.43 260.61L480.73 261.15L479.84 264.19L475.94 262.27L474.46 263.28L472.33 263.37L471.15 264.84L470.13 268.36L471.69 269.5L469.1 274.24L467.67 274.76L466.34 280.08L467.54 283.25L469.53 283.41L471.34 286.48L470.99 287.86L468.91 291.29L469.41 292.4L462.93 291.51L462.26 292.89L461.4 292.99L460.71 300.25L458.51 302.53L459.09 305.67L458.13 306.57L456.14 306.47L455.9 305.62L453.08 306.23L452.02 311.16L449.22 312.31L448.49 313.58L446.04 312.84L444.88 310.66L442.1 311.58L438.41 310.97L437.8 309.18L436.03 309.45L435.3 311.22L432.88 310.01L431.36 307.97L424.01 309.84L422.66 309.57L420.22 307.7L421.2 303.9L421.07 299.73L419.32 295.3L415.12 295.95L414.21 299.65L409.07 299.13L408.93 299.7L404.73 297.62L402.07 294.18L404.15 292.3L405.16 292.35L405.09 288.06V286.32L407.31 285.62L406.81 282.96L408.14 276.6L407.87 275.4L405.42 274.47L404.25 272.89L404.98 271.56L404.75 261.93L404.14 261.5L404.77 256.82L406 256.79L405.04 250.84L406.51 246.47L403.52 244.13L398.39 244.18L393.45 239.37L390.72 240.45L389.35 233.22L393.88 228.17L398.91 228.38L401.51 227.25L402.26 225.47L404.83 226.09L406.49 225.37L410.46 227.69L413.32 225.82L414.98 226.28L416.03 225.54L417.99 222.51L418.16 220.41L416.08 220.09L416.8 219.35L418.05 219.82L417.78 217.86L416.53 217.41L417.19 214.63L416.22 213.68L416.55 210.21L418.03 210.34L418.33 208.93L420.83 207.58L421.06 209.76L425.5 209.73L425.37 208.7L426.26 208.48L425.71 208.12L428.13 207.08L428.87 205.58L430.39 206.16L429.25 204.73L429.67 202.66L428.55 200.28L428.79 198.97L430.8 198.51L429.03 194.93L433.35 191.58L434.79 191.61L436.69 189.76L437.91 189.79L440.62 183.99ZM446.31 249.25L440.8 251.65L438.59 250.14L434.89 253.46L437 256.03L438.43 256L441.17 260.19L439.02 265.48L454.13 261.34L455.34 260.82L457.35 257.96L459.51 258.81L461.8 257.42L461.11 256.08L461.52 254.8L459.1 251.91L456.92 251.81L455.45 250.17L452.68 250.34L451.07 252.14H449.72L448.27 248.98L447.28 249.9L446.31 249.25Z" fill="#C7C7C7" stroke="white" stroke-width="2"/>
<path d="M448.761 249.82L449.711 252.15H451.071L452.671 250.35L455.441 250.18L456.921 251.82L459.101 251.93L461.521 254.81L461.111 256.1L461.801 257.44L459.501 258.82L457.351 257.97L455.341 260.83L454.131 261.36L439.021 265.49L441.171 260.2L438.431 256.01L437.001 256.03L434.891 253.46L438.591 250.14L440.801 251.65L446.311 249.25L447.271 249.91L448.261 248.99L448.761 249.82Z" fill="#C7C7C7" stroke="white" stroke-width="2"/>
<path d="M482.64 2L483.51 3.43L486.86 5.66L487.98 5.44L489.44 6.88L489.41 8.31L491.87 12.59L493.53 12.1L495.15 13.13L496.38 11.73L497.46 12.58L498.21 12.28L499.11 14.67L499.07 17.93L502.64 24.96L502.75 27.72L503.57 28.77L504.6 28.55L506.44 29.64L506.31 31.28L507.47 31.83L507.29 33.38L508.54 34.15L512.19 35.38L515.17 35.18L517.24 36.48L518.18 35.98L518.58 32.04L520.27 32.05L520.93 33.5L522.28 32.35L523.02 32.88L522.59 31.95L523.13 31.29L523.41 32.27L523.9 31.32L524.13 32.01L524.98 31.51L526.61 32.46L526.67 31.16L528.53 30.17L531.9 30.48L535.73 28.28L538.26 30.32L540.1 29.1L541.03 31.03L541.87 29.79L542.14 30.51L543.9 30.19L543.48 31.79L544.38 32.69L542.61 32.75L544.28 33.85L542.84 34.18L540.5 37.45L541.36 39.75L539.14 39.48L539.19 40.87L537.63 39.94L538.72 41.12L538.03 42.09L537.56 40.83L536.22 40.06L536.31 41.25L534.29 41.28L535.33 39.36L534.2 39.51L531.53 41.94L530.9 43.24L531.38 44.25L530.42 43.85L528.17 46.48L527.51 45.81L527.6 46.97L526.39 47.55L525.77 49.04L523.67 48.17L521.67 49.35L519.63 48.97L518.72 51.1L517.7 48.62L517.3 49.99L516.21 48.9L516.36 50.72L514.98 50.98L515.17 52.34L514.14 52.6L513.63 53.88L512.46 53.25L512.11 54.94L510.61 55.57L510.69 53.82L508.99 54.73L508.23 54.03L507.9 55.61L507.07 54.91L502.87 55.52L498.05 54.96L494.9 53.11L494.36 54.13L492.85 54.22L489.39 56.27L489.75 57.59L488.18 58L488.07 57.39L486.04 56.97L485.21 58.82L483.93 57.16L482.7 57.23L480.97 60.02L481.44 62.87L480.13 64.79L480.89 66.8L483.38 69.01L483.14 69.71L481.81 69.35L482.19 70.79L483.62 70.6L484.46 71.52L482.23 72.35L482.14 74.85L481.49 75.19L480.02 74.17L479.49 76.75L474.66 76.76L473.09 78.32L471.45 77.03L469.57 77.26L469.46 76L466.75 76.08L465.69 73.86L462.96 76L463.44 77.57L462.52 78.19L460.07 77.33L458.09 77.73L458.35 75.93L457.72 75.3L456.45 75.78L454.7 74.92L454.38 76.08L449.86 80.56L452.44 84.44L451.95 85.18L453.75 86.44L452.77 90.5L451.04 91.96L452.38 92.65L453.96 92.21L454.06 92.94L450.29 95.9L450.3 99.45L447.8 100.99L449.9 105.44L448.9 106.91L448.68 109.27L447.23 111.19L446.67 114.45L446.03 115.11L444.48 113.58L442.67 114.28L442.11 116.71L442.7 118.56L438.21 119.49L436.73 121.09L436.92 122.34L435.89 122.13L433.93 123.46L432.44 121.73L432.59 124.29L433.95 124.67L432.87 125.36L431.39 125.09H429.37L429.91 127.22L431.66 128.29L431.08 129.11L429.97 128.59L429.53 127.08L428.32 127L428.21 125.59L427.28 125.72L424.24 123.96L421.48 126L422.09 127.61L416.21 122.97L414.96 123.45L413.66 122.42L413.27 123.32L410.27 123.25L405.01 120.08L404.19 119L406.26 116.22L400.38 111.24L399.25 108.7L398.11 107.92L397.74 105.49L398.85 103.04L398.08 99.75L394.58 98.2L393 95.44L394.54 93.4L395.21 93.31L395.85 93.98L397.76 93.91L396.99 92.65L399.39 90.86L398.93 89.44L395.22 87.55L393.2 85.42L396.78 78.19L396.82 75.59L395.79 73.44L397.38 73.15L398.14 72.08L409.29 71.21L412.97 74.18L416.27 74.99L417.75 78.11L421.27 76.25L422.61 76.03L423.96 76.89L425.74 76.16L427.24 74.29L428.93 74.03L430.06 70.37L428.86 69.85L429.2 65.68L427.57 64.15L427.65 63.1L423.47 61.87L421.2 62.49L418.85 60.08L417.84 61.24L411.78 60.9L406.76 63.96L399.67 63.7L395.84 65.62L393.21 60.98L389.85 61.17L388.95 60.58L387.58 61.14L387.91 62.85L385.55 65.68L384.9 68.86L381.99 66.67L381.27 64.74L379.72 65.41L378.51 64.79L377.78 68.14L374.65 69.21L371.84 68.61L370.71 66.99L368.01 65.98L367.29 63.06L363.93 61.96L361.54 62.67L360.89 61.99L360.41 60.76L358.29 60.43L357.15 58.58L359.72 56.58L358.81 55.72L359.59 54.76L360.6 54.79L364.52 51.18L365.3 48.44L364.88 47.06L368.65 47.73L371.37 47.35L370.97 46.05L373.27 45.87L373.9 44.62L373.17 43.85L374.4 43.41L378.49 45.94L380.86 45.54L380.42 44.41L382.09 44.48L383.15 40.86L385.71 38.38L386.44 37.17L385.95 36.44L389.76 31.81L389.15 29.71L390.46 27.93L390.4 24.48L393.27 20.81L395.2 19.67L394.65 18.5L396.46 17.34L397.43 15.36L398.57 15.12L398.82 11.86L398.07 9.59L399.53 8.64L401.13 9.93L402.16 7.67L405.6 9L412.06 5.43L414.22 5.44L417.23 4.14L418.77 4.76L428.98 2.28L428.38 3.34L429.16 3.12V4.97L430.87 6.63L435.53 5.78L436.99 8.45L437.59 7.93L437.71 8.86L438.99 9.11L439.1 10.57L440.63 10.5L441.29 11.27L444.21 9.25L447.67 9.97L447.68 10.66L448.82 10.05L451.37 11.3L451.94 13.87L453.82 14.75L454.81 14.49L456.42 11.42L458.44 10.54L459.08 11.14L459.75 10.28L461.75 9.92L461.73 9.07L462.45 9.28L462.83 8.53L463.87 8.98L464.51 8.28L467.02 10.14L470.5 10.53L471.45 9.21L470.95 8.22L471.56 8.31L471.95 7.28L471.32 6.64L472.39 6.25L471.48 5.97L471.88 5.31L477.01 5.66L478.97 4.95L480.39 5.61L481.09 2.85L482.64 2Z" fill="#C7C7C7" stroke="white" stroke-width="2"/>
<path d="M272.251 133.43L271.971 133.97L273.051 134.75L275.171 135.19L276.371 136.87L276.351 137.76L275.591 137.85L278.191 139.59L277.021 140.27L279.151 142.51L281.361 142.79L282.361 143.84L284.581 143.23L286.271 147.03L291.231 146.12L290.841 149.11L292.631 153.01L289.631 153.92L287.791 156.71L286.401 156.43L284.991 159.01L284.391 158.78L281.031 162.07L278.631 166.65L275.911 167.22L275.021 168.19L271.191 164.31L271.821 163.28L269.881 160.89L265.241 163.81L264.231 162.64L258.551 164.75L257.971 162.53L258.951 161.47L258.521 158.85L260.241 157.26L260.401 155.1L259.701 154.65L260.781 153.31L259.051 150.47L257.601 150.48L256.591 149.27L257.471 148.27L256.391 147.24L257.191 145.65L255.751 145.18L256.531 145.06L256.581 142.37L255.711 142.39L257.001 141.35L256.001 138.57L257.911 137.57L260.321 138.4L261.431 136.81L265.461 136.56L264.671 134.21L266.211 133.43L269.391 133.84L269.071 136.49L271.051 133.45L272.251 133.43Z" fill="#C7C7C7" stroke="white" stroke-width="2"/>
<path d="M360.93 322.69L362.99 318.7L364.94 319.29L368.49 317.8L370.08 319.85L373.84 329.02L371.4 327.65L371.31 326.72L368.97 324.53L365.24 326.37L362.41 324.25L361.95 322.29L360.93 322.69ZM402.03 294.11L404.69 297.55L408.9 299.64L409.04 299.07L414.18 299.59L415.09 295.89L419.3 295.24L421.05 299.67L421.18 303.84L420.2 307.64L422.64 309.51L420.37 313.05L421.2 318.58L418.45 318.26L417.05 323.76L413.74 326.6L411.84 325.65L410.33 328.82L401.81 321.95L397.7 320.27L397.29 323.14L394.48 326.31L391.98 326.53L388.7 324.67L388.18 325.58L386.98 324.5L385.75 325.68L384.58 323.17L380.83 325.81L380.46 324.9L378.64 326.26L375.64 330.06L375.11 329.4L376.52 328.69L376.88 326.57L376.22 325.75L377.82 319.88L373.95 320.69L372.48 320.01L371.66 319.17L371.48 314.82H373.56L374.31 315.55L379.59 315.29L380.19 310.86L379.47 306.8L385.19 306.62L387.66 305.76L390.94 303.44L393.46 300.05L402.05 295.1L402.03 294.11ZM390.64 240.36L393.37 239.28L398.32 244.09L403.45 244.04L406.44 246.38L404.97 250.75L405.93 256.7L404.7 256.73L404.07 261.41L404.68 261.84L404.91 271.48L404.18 272.81L405.35 274.39L407.8 275.32L408.07 276.52L406.74 282.88L407.25 285.54L405.03 286.25V287.99L398.67 287.86L393.87 281.16L392.31 281.37L390.85 278.95L386.89 281.13L385.6 278.86L379.54 279.1L380.11 281.98L376.12 282.93L377.64 285.63L373.63 289.6L371.6 288.79L372.29 285.8L371.57 284.66L369.9 285.48L368.2 290.73L368.34 293.13L367.31 292.95L366.16 293.97L366.27 297.83L368.67 299.62L367.7 302.23L367.22 301.59L364.39 301.63L362.96 300.47L359.7 300.14L358.73 302.69L359.21 305.92L355.94 304.18L354.68 304.26L350.15 308.47L353.39 311.11L357.74 311.96L359.37 313.09L357.22 316.65L357.6 318.77L358.75 319.08V321.12L357.47 322.54L354.82 323.03L346.49 322.38L344.7 323.91L339.39 325.73L336.17 328.52L330.99 326.17L328.45 323.07L327.16 323.1L325.23 320.81L323.62 316.4L319.74 310.85L324.68 305.55L322.17 302.31L321.48 300.11L327.44 298.21L329.43 299.76L336.23 294.51L339.67 296.83L341.78 295.04L343.61 290.51L342.03 287.37L343.55 285.15L343.02 282.63L338.91 278.63L335.29 279.31L332.65 276.03L342.66 269.73L347.37 273.63L352.07 268.14L351.58 266.61L352.08 263.82L350.86 262.16L353.63 254.47L349.72 250.25L354.85 243.24L358.17 240.23L358.56 242.08L360.11 242.74L360.78 245.73L362.31 245.18L361.8 243.32L362.66 242.78L368.33 246.96L370.71 243.2L372.43 243.57L372.14 241.98L373.65 241.01L375.77 241.57L378.97 245.06L382.24 245.91L383.53 245.08L384.15 242.8L388.83 242.68L390.64 240.36Z" fill="#C7C7C7" stroke="white" stroke-width="2"/>
<path d="M482.27 144.56L482.09 141.83L484.97 134.83L493.71 133.34L500.13 130.14L500.76 130.53L498.92 134.4L499.67 134.59L502 131.32L504.49 132.58L507.7 132.02L508.61 133.04L506.57 139.61L510.93 140.15L513.36 137.48L516.67 136.15L521.22 139.95L520.36 141.01L520.11 146.98L516.76 153.08L514.6 152.8L511.13 156.06L507.56 156.52L504.12 158.36L503.1 157.38L502.92 154.97L501.36 154.28L497.75 154.58L495.85 156.6L492.89 157.95L491.94 151.36L490.6 149.46L490.35 145.85L487.21 145.34L482.27 144.56Z" fill="#C7C7C7" stroke="white" stroke-width="2"/>
<path d="M258.409 225.08L255.049 226.31L251.659 226L248.739 222.77L249.409 222.2L248.049 220.06L246.399 219.44L245.189 216.23L249.669 214.36L258.739 214L257.889 217.06L259.279 222.9L258.409 225.08Z" fill="#C7C7C7" stroke="white" stroke-width="2"/>
<path d="M392.999 95.44L390.649 95.99L390.159 99.96L386.009 101.13L384.269 100.63L384.559 98.86L382.449 97.3L381.179 95.16L381.369 94.37L382.049 94.21L381.689 91.55L379.859 85.13L382.369 80.17L386.019 81.38L387.239 82.6L386.659 85.25L388.669 89.12L391.269 90.81L392.999 89.41L394.349 90.18L394.059 91.01L395.209 93.31L394.539 93.4L392.999 95.44Z" fill="#C7C7C7" stroke="white" stroke-width="2"/>
<path d="M234.29 137.75L235.22 139.71L234.5 141.08L234.83 143.91L237.77 149.24L239.98 149.28L242.96 153.78L243.29 157.77L240.47 161.07L245.83 168.43L249.91 172.04L250.28 173.43L249.67 174.19L251.4 174.6L250.92 175.9L251.56 177.55L255.12 178.27L254.09 184.09L251.74 188.35L250.96 194.44L253.32 204.62L257.61 208.23L259.37 210.7L258.73 214.04L249.66 214.4L245.18 216.27L246.39 219.47L248.03 220.09L249.39 222.24L248.72 222.81L251.64 226.04L255.02 226.36L258.39 225.12L255.42 233.18L253.41 232.9L253.31 233.52L249.71 234.48L251.13 235.8L249.88 237.99L243.89 242.25L243.79 244.63L239.53 245.1L236.81 247.19L238.07 250.22L233.27 254.59L230.92 255.35L228.78 255.09L229.07 253.06L227.57 249.85L227.5 247.83L226.49 247.92L223.82 246.19L222.19 243L217.71 245.48L218.26 247.79L216.25 248.13L215.57 247.54L214.13 248.51L210.54 247.6L210.49 244.69L209.62 243.23L210.17 242.11L208.81 240.14L208.63 244.72L207.92 244.76L207.67 242.67L207.1 243.97L206.46 242L205.05 243.72L202.59 242.18L200.51 242L199.71 241.17L200.26 239.41L199.7 238.39L194.66 242.21L194.58 242.95L191.05 243.67L189.76 238.23L190.82 236.11L189.94 232.38L190.9 231.89L189.07 231.25L191.37 229.29L189.46 223.6L186.67 219.95L190.69 216.47L191.29 214.64L193.18 213.51L193.33 212.57L195.7 211.86L195.41 211.13L193.33 211.57L191.21 207.61L190.47 204.12L193.22 201.94L192.19 200.46L192.38 198.15L191.22 193.79L192.29 190.8L192.31 185.98L191.69 184.8L189.9 184.75L187.91 182.84L186.34 179.41L185.16 179.42L181.77 181.58L178.91 177.39L177.31 177.8L176.42 174.18L178.08 172.2L176.15 171.91L175.43 170.24L175.15 169.51L176.98 168.05L179.95 167.11L179.28 165.25L181.78 161.6L181.53 158.89L182.93 157.72L182.56 155.54L184.67 154.54L185.94 156.19L187.6 155.13L188.6 155.78L189.67 154.57L189.08 151.35L194 153.75L194.5 156.8L196.93 158.01L198.6 160.58L200.31 161.46L201.92 159.52L203.1 160.07L206.07 159.17L203.76 156.64L204.18 155.52L205.86 153.58L207.52 154.88L210.09 151.93L210.56 150.27L212.81 149.23L215.46 147.54L215.26 146.52L216.1 146.64L214.94 144.79L216.54 144.48L215.9 141.55L219.58 140.87L220.43 141.31L221.59 138.98L222.86 139.27L223.97 138.34L227.63 139.66L228.42 138.77L231.88 138.88L234.29 137.75ZM208.72 180.38L207.2 181.03L206.88 182.45L204.48 184L201.22 188.28L205.24 195.45L206.92 196.34L207.24 202.17L210.33 201.66L212.6 200.11L213.67 201.5L217.08 197.39L219.44 195.88L220.42 196.75L221.75 196.02L219.9 191.63L218.01 191.75L217.97 190.51L219.12 188.92L217.38 187.13L217.23 185.41L218.78 183.25L216.04 180.15L213.05 180.35L210.97 176.85L209.17 177.77L208.72 180.38Z" fill="#C7C7C7" stroke="white" stroke-width="2"/>
<path d="M137.48 119.75L138.51 119.88L138.4 119.19L142.19 116.5L144.64 118.37L151.02 117.66L154.77 120.04L156.69 125.33L144.31 131.88L141.42 130.98L138.83 134.48L138.4 136.29L136.23 136.63L128.93 133.99L128.08 132.42L128.27 131.5L129.86 131.64L132.63 130.48L133.55 124.24L135.06 121.57H136.12L137.48 119.75Z" fill="#C7C7C7" stroke="white" stroke-width="2"/>
<path d="M104.161 78.94L104.821 81.2L106.011 81.74L112.121 82.06L120.561 91.17L123.181 96.82L129.881 99.66L132.951 105.66L136.931 105.1L146.221 113.84L151.041 114.92L152.631 116.12L159.571 115.24L162.701 116.14L163.541 121.28L162.611 123.12L162.531 124.39L163.361 125.26L162.101 129.85L163.811 132L165.961 132.56L165.201 136.02L164.221 136.97L164.981 137.41L163.581 140.18L165.501 141.46L165.571 140.66L166.471 141.75L163.931 142.67L161.591 141.67L161.701 144.14L164.111 147.52L164.071 148.56L163.511 148.21L162.031 149.42L162.171 151.18L160.761 151.15L161.931 153.08L160.541 153.91L159.341 151.13L156.931 149.24L155.061 151.73L154.051 151.54L153.731 149.37L149.981 154.01L148.251 151.5L147.491 151.73L147.841 152.32L147.071 153.2L147.771 154.45L145.421 154.88L146.021 153.26L145.231 152.01L143.441 152.73L142.701 151.91L141.771 152.44L141.541 153.94L139.691 154.59L139.251 153.22L138.421 153.59L137.831 152.83L136.391 153.96L133.121 149.86L130.261 152.58L124.441 150.01L121.571 149.7L119.751 151.16L116.661 150.38L116.301 153.63L114.801 155.81L107.821 157.23H106.751L102.551 156.38L101.861 156.45L101.731 157.35L99.4908 155.66L97.6008 157.24L94.9708 156.5L93.2208 159.23L87.9908 160.79L86.3908 162.31L85.8908 161.95L88.1708 156.15L86.6608 153.48L81.3308 158.37L78.7008 159.35L76.7608 162.13L75.3808 159.96L73.9708 159.91L73.7708 158.99L71.3308 159.68L69.7408 158.27L68.1908 155.03L64.7308 156.91L64.1708 155.74L62.7708 156.68L62.2308 155.79L59.6408 156.87L56.0408 159.98L53.7608 158.48L52.7608 158.87L49.9008 155.39L51.3208 154.1L52.0408 151.71L50.4608 148.26L51.3208 147.1L52.2308 147.69L53.8008 146.88L56.1708 142.95L54.6008 141.94L53.8908 140.37L52.3108 140.28L51.5308 139.21L52.6008 137.77L51.8708 135.68L52.2208 134.28L51.1608 134L50.5708 131.93L48.3108 131.14L44.9408 132.57L43.0508 131.72L47.2408 129.49L53.7308 128.3L55.7608 129.36L59.0508 123.66L66.3808 123.86L67.4408 120.97L69.8708 118.76L70.4108 122.9L71.4508 123.1L90.1608 120.44L88.3408 117.9L88.0108 112.34L86.6808 109.13L88.6708 107.04L86.3008 104.43L86.7208 103.09L82.9908 100.25L83.6408 99.03L85.7308 99.15L88.9808 97.8L89.6708 98.23L91.1108 95.57L90.7308 93.89L92.3308 91.29L90.3608 90.05L92.5408 86.67L90.6108 85.25L97.5308 79.71L100.151 78.66L102.371 79.12L103.901 78.33L104.161 78.94ZM136.121 121.57H135.061L133.551 124.24L132.631 130.48L129.861 131.64L128.271 131.51L128.081 132.43L128.931 133.99L136.231 136.63L138.401 136.3L138.831 134.49L141.421 130.99L144.311 131.89L156.701 125.35L154.781 120.06L151.031 117.68L144.651 118.39L142.211 116.52L138.421 119.21L138.531 119.91L137.491 119.78L136.121 121.57Z" fill="#C7C7C7" stroke="white" stroke-width="2"/>
<path d="M453.749 86.4401L455.939 87.4201L456.769 86.0601L460.319 86.9601L463.599 89.1501L464.089 90.3301L466.219 91.2401L467.279 94.2101L471.699 92.0801L474.589 91.7501L476.579 92.4901L481.169 91.7801L481.549 90.9901L487.569 91.4301L487.699 90.1401L488.829 90.1301L489.479 89.0801L491.749 89.9701L493.729 90.8001L492.919 92.5201L492.879 96.0901L493.759 96.3601L491.759 105.7L491.739 109.29L495.659 111.73L496.979 111.8L500.379 117.78L504.299 118.32L504.399 117.52L506.479 117.37L507.689 120.65L512.449 120.96L512.019 123.13L514.609 123.67L515.229 125.13L517.869 126L520.029 124.91L520.429 123.64L522.659 121.76L522.959 118.26L526.239 117.32L529.979 120.73L531.759 121.19L531.299 124.85L533.909 126.41L533.219 129.03L534.819 132.09L536.759 130.49L538.809 125.63L539.719 125.44L542.299 127.06L543.589 134.24L544.689 135.29L544.639 136.44L541.719 140.21L540.099 140.06L538.049 141.7L539.399 143.33L538.569 144.41L537.139 143.04L534.909 146.09L533.679 151.43L534.799 154.25L535.909 154.77L535.309 155.93L536.099 159.95L533.879 164.65L532.229 164.13L527.569 165.1L522.089 176.45L522.879 178.35L519.599 183.16L519.279 184.96L520.229 185.72V189.69L516.519 191.85L514.169 198.25L514.209 200.38L511.939 200.22L508.309 201.57L507.289 204.74L504.319 208.5L501.399 209.09L502.259 211.39L500.769 212.46L500.519 211.15L499.579 211.7L499.119 213.28L497.229 214.92L494.059 214.37L493.199 217.27L493.959 219.75L487.809 220.69L486.229 222.44L485.359 221.32L482.909 220.52L480.919 222.37L481.609 220.27L482.599 220.01L482.449 218.4L481.299 218.73L479.989 217.43L474.929 217.38L465.199 213.42L463.659 211.78L463.669 210.51L464.859 209.92L463.979 206.84L469.209 202.94L468.589 199.73L469.959 198.69L469.289 196.93L470.079 194.44L463.529 194.78L460.819 192.44L454.319 191.58L448.659 187.11L448.629 188.79L447.469 189.2L444.599 184.74L442.659 183.89L441.929 185.06L440.679 184.05L444.659 181.2L445.709 169.17L442.259 152.05L443.319 149.59L441.799 147.29L441.899 139.42L440.369 136.95L437.759 135.5L432.979 137.42L428.579 135.42L426.869 129.79L427.359 125.8L428.289 125.67L428.399 127.09L429.609 127.17L430.049 128.68L431.159 129.2L431.739 128.37L429.989 127.3L429.449 125.18H431.469L432.949 125.45L434.029 124.76L432.669 124.39L432.529 121.82L434.019 123.56L435.979 122.22L437.009 122.43L436.819 121.17L438.299 119.58L442.789 118.64L442.189 116.79L442.749 114.36L444.559 113.66L446.109 115.19L446.749 114.53L447.309 111.27L448.749 109.36L448.979 107L449.979 105.53L447.879 101.08L450.379 99.5401L450.369 95.9901L454.129 93.0401L454.039 92.3001L452.449 92.7401L451.119 92.0601L452.849 90.6001L453.749 86.4401ZM487.209 145.34L490.359 145.85L490.599 149.46L491.949 151.36L492.899 157.95L495.859 156.61L497.759 154.59L501.379 154.28L502.939 154.97L503.119 157.38L504.139 158.36L507.579 156.53L511.139 156.06L514.619 152.8L516.779 153.08L520.139 146.98L520.379 141.01L521.249 139.94L516.689 136.14L513.389 137.47L510.949 140.14L506.589 139.61L508.629 133.03L507.719 132.02L504.509 132.58L502.029 131.31L499.689 134.58L498.939 134.39L500.779 130.52L500.149 130.13L493.729 133.33L484.989 134.81L482.109 141.81L482.289 144.54L487.209 145.34Z" fill="#C7C7C7" stroke="white" stroke-width="2"/>
<path d="M360.89 61.99L361.54 62.67L363.93 61.96L367.29 63.06L368.01 65.98L370.71 66.99L371.84 68.61L374.65 69.21L377.78 68.14L378.51 64.79L379.72 65.41L381.27 64.74L381.99 66.67L384.9 68.86L385.55 65.68L387.91 62.85L387.58 61.14L388.95 60.58L389.85 61.17L393.21 60.98L395.84 65.62L396.01 68.89L398.14 72.08L397.38 73.15L395.79 73.44L396.82 75.59L396.78 78.19L393.2 85.42L395.22 87.55L398.93 89.44L399.39 90.86L396.99 92.65L397.76 93.91L395.85 93.98L395.21 93.31L394.06 91.01L394.35 90.18L393 89.41L391.27 90.81L388.67 89.12L386.66 85.25L387.24 82.6L386.02 81.38L382.37 80.17L379.86 85.13L381.69 91.55L382.05 94.21L381.37 94.37L381.18 95.16L382.45 97.3L384.56 98.86L384.27 100.63L386.01 101.13L390.16 99.96L390.65 95.99L393 95.44L394.58 98.2L398.08 99.75L398.85 103.04L397.74 105.49L398.11 107.92L399.25 108.7L400.38 111.24L406.26 116.22L404.19 119L405.01 120.08L410.27 123.25L413.27 123.32L413.66 122.42L414.96 123.45L416.21 122.97L422.09 127.61L421.01 129.3L418.8 129.23L417.08 130.49L417.19 133.77L415.47 134.96L416.52 136.63L416 138.24L413.49 139.32L412.62 141.28L407.5 143.83L404.59 146.38L399.57 148.13L397.81 152.56L396.23 153.2L394.07 152.19L393.72 150.7L394.87 149.31L392 150.39L391.55 151.2L392.62 155.98L391.33 157.47L388.74 158.53L386.67 157.87L386.88 155.31L384.18 156.28L382.76 155.97L381.56 154.36L378.61 150.08L379.86 147.12L378.58 142.96L375.46 141.88L375.78 140.85L373.23 139.92L371.17 133.76L367.67 134.16L361.65 136.23L364.55 139.48L362.51 141.05L354.48 137.44L353.18 135.68L354.27 132.73L353.14 131.13L352.98 126.84L352.21 125.08L350.03 124.6L349.3 125.62L344.87 127.49L341.35 125.87L340.82 130.8L338.55 131.81L337.99 133.67L336.14 135.51L330.27 132.05L326.03 133.78L325.67 137.05L324.19 136.07L322.47 136.4L321.26 135.12L321.62 132.95L319.98 128.66L318.26 128.17L315.67 123.08L317.05 119.74L313.9 116.62L317.79 113.13L318.91 113.9L320.44 112.73L319.85 112.24L320.69 110.73L319.37 107.26L321.24 106.33L322.17 108.27L322.35 106.89L323.82 106.59L324.37 105.51L327.26 105.66L326.79 104.77L328.13 102.18L331.04 99.34L331.6 94.31L332.44 94.1L337.08 98.27L338.56 97.57L339.3 95.51L337.98 94.23L335.27 93.41L334.89 91.66L341.07 90.61L343.31 92.38L345.96 92.3L347.3 89.05L349.64 87.77L349.39 85.06L351.29 84.07L350.38 82.7L350.93 81.55L355.32 79.97L353.81 78.43L353.26 74.28L354.07 74.01L351.36 71.99L351.52 71.4L349.98 70.98L349.76 69.21L355.95 67.05L356.63 64.84L358.97 65.09L359.59 62.99L360.89 61.99Z" fill="#C7C7C7" stroke="white" stroke-width="2"/>
<path d="M368.339 293.13L368.199 290.73L369.899 285.49L371.559 284.66L372.289 285.8L371.599 288.79L373.629 289.6L377.649 285.63L376.119 282.93L380.109 281.97L379.539 279.1L385.599 278.86L386.899 281.14L390.859 278.95L392.319 281.37L393.879 281.16L398.679 287.86L405.039 287.99L405.109 292.28L404.099 292.23L402.029 294.11L402.039 295.09L393.449 300.04L390.929 303.43L387.639 305.75L385.169 306.61L379.449 306.79L379.939 304.64L374.809 303.31L368.339 293.13Z" fill="#C7C7C7" stroke="white" stroke-width="2"/>
<path d="M427.281 125.72L426.801 129.72L428.511 135.35L432.911 137.35L437.701 135.43L440.301 136.88L441.841 139.35L441.741 147.22L443.251 149.53L442.201 151.99L445.651 169.11L444.601 181.14L440.621 183.99L437.821 189.69L436.601 189.67L434.701 191.52L433.261 191.49L428.931 194.84L430.701 198.42L428.691 198.89L428.461 200.19L429.571 202.57L429.161 204.65L430.301 206.07L428.771 205.49L428.031 207L425.611 208.04L426.161 208.4L425.281 208.62L425.411 209.65L420.971 209.68L420.731 207.5L418.231 208.85L417.941 210.26L416.461 210.13L416.121 213.6L417.101 214.55L416.441 217.33L417.691 217.78L417.961 219.74L416.711 219.27L415.991 220L418.071 220.32L417.901 222.41L415.941 225.44L414.891 226.18L413.231 225.72L410.371 227.59L406.401 225.27L404.741 226L402.171 225.38L401.421 227.16L398.821 228.29L393.801 228.08L389.271 233.13L390.641 240.36L388.831 242.65L384.141 242.77L383.521 245.05L382.231 245.88L378.961 245.02L375.761 241.53L373.641 240.97L372.131 241.94L372.421 243.53L370.701 243.16L368.321 246.92L362.651 242.74L361.791 243.28L362.311 245.14L360.771 245.69L360.101 242.7L358.551 242.04L358.171 240.19L358.141 239.18L356.601 237.6L355.541 238.11L356.271 239.78L355.761 241.15L353.091 239.39L353.211 237.21L356.341 236.64L356.001 235.51L355.431 236.22L353.851 235.93L352.351 233.91L353.231 234.16L355.881 232L356.821 232.88L357.951 230.35L358.731 229.85L360.561 230.64L363.711 228.25L363.941 226.93L367.111 225.34L365.571 222.51L362.291 222.07L362.281 220.66L364.741 219.5L364.331 217.58L365.261 216.64L364.371 215.35L361.081 213.5L362.661 210.01L360.641 208.9L359.761 204.4L357.501 200.42L356.931 197.85L358.331 194.51L363.311 197.71L362.671 198.53L364.091 200.08L368.551 200.38L369.651 202.36L371.761 203.48L374.631 203.51L375.851 201.38L376.981 202.04L378.301 199.96L376.861 195.81L373.961 194.35L375.351 188.91L376.481 187.95L373.711 188.29L373.741 187.51L375.151 187.1L373.411 184.69L371.431 184.77L367.991 181.72L365.721 181.12L363.781 184.14L360.211 186.91L359.791 185.3L356.631 182.91L351.501 181.1L354.221 174.35L351.791 170.75L351.601 168.47L348.881 165.47L344.751 163.56L337.241 157.76L334.481 153.43L329.891 149.53L333.661 143.89L332.671 143.24L331.391 144.11L328.851 143.5L325.771 145.97L321.171 141.89L321.651 140.61L321.061 139.92L322.471 136.4L324.191 136.07L325.671 137.05L326.031 133.78L330.271 132.05L336.141 135.51L337.991 133.67L338.551 131.81L340.821 130.8L341.351 125.87L344.871 127.49L349.301 125.62L350.031 124.6L352.211 125.08L352.981 126.84L353.141 131.13L354.271 132.73L353.181 135.68L354.481 137.44L362.511 141.05L364.551 139.48L361.651 136.23L367.671 134.16L371.171 133.76L373.231 139.92L375.781 140.85L375.461 141.88L378.581 142.96L379.861 147.12L378.611 150.08L381.561 154.36L382.761 155.97L384.181 156.28L386.881 155.31L386.671 157.87L388.741 158.53L391.331 157.47L392.621 155.98L391.551 151.2L392.001 150.39L394.871 149.31L393.721 150.7L394.071 152.19L396.231 153.2L397.811 152.56L399.571 148.13L404.591 146.38L407.501 143.83L412.621 141.28L413.491 139.32L416.001 138.24L416.521 136.63L415.471 134.96L417.191 133.77L417.081 130.49L418.801 129.23L421.011 129.3L422.091 127.61L421.481 126L424.241 123.96L427.281 125.72Z" fill="#C7C7C7" stroke="white" stroke-width="2"/>
<path d="M152.669 290.29L152.799 290.97L155.309 288.19L158.789 292.69L159.939 299.43L159.119 300.16L157.359 299.99L156.829 301.24L157.599 302.43L156.399 308.74L154.809 308.31L154.109 305.6L153.739 306.23L151.889 306.1L151.419 308.38L149.499 307.65L149.279 304.51L146.819 298.13L146.779 295.9L147.829 294.74L147.099 289.55L148.229 287.61L152.669 290.29Z" fill="#C7C7C7" stroke="white" stroke-width="2"/>
<path d="M337.331 221.87L339.691 228.63L339.461 229.8L336.671 232.1L335.321 234.62L331.931 231.66L330.501 232.88L330.911 233.87L327.951 235.18L327.051 234.38L325.881 235.04L326.001 236.35L324.171 238.11L322.191 237.6L320.281 238.35L320.661 236.62L317.481 232.83L316.201 232.76L314.031 230.22L311.991 230.2L311.451 226.34L306.391 220.16L308.931 217.71L309.931 218.76L313.551 213.89L321.121 216.19L324.341 214.85L332.751 221.1L334.711 220.32L337.331 221.87Z" fill="#C7C7C7" stroke="white" stroke-width="2"/>
<path d="M244.959 105.12L248.269 105.75L253.439 108L254.239 111.78L255.159 112.82L255.049 116.24L257.039 118.1L255.249 120.08L253.229 118.6L248.919 119.7L248.579 122.44L249.909 125.4L249.929 127.86L245.809 127.3L242.229 125.28L242.319 126.67L239.579 126.66L242.589 129.58L238.999 131.72L238.659 132.85L237.139 133.6L237.129 135.47L234.289 137.75L231.859 138.77L228.399 138.67L227.619 139.56L223.949 138.24L222.839 139.17L221.569 138.88L220.409 141.21L219.559 140.77L219.309 138.53L215.439 135.11L214.139 135.48L210.919 133.57L207.109 133.6L206.139 134.43L203.729 138.76L205.329 141.93L206.679 141.44L207.109 143.78L211.599 146.58L212.789 149.14L210.549 150.18L210.079 151.84L207.499 154.8L205.839 153.49L204.169 155.43L203.739 156.55L206.049 159.08L203.079 159.98L201.899 159.44L200.289 161.38L198.579 160.5L196.909 157.93L194.479 156.72L193.989 153.68L189.069 151.28L189.659 154.5L188.579 155.71L187.579 155.06L185.919 156.13L184.649 154.48L182.539 155.47L182.909 157.66L181.509 158.82L181.759 161.54L179.259 165.19L179.929 167.05L176.959 167.99L175.129 169.45L175.409 170.18L173.709 169.52L168.669 170.26L168.449 168.18L165.909 166.48L167.509 165.89L167.549 164.39L166.189 163.25L164.329 163.05L163.689 163.81L161.089 162.44L163.189 158.11L160.529 153.92L161.919 153.09L160.749 151.16L162.149 151.19L162.019 149.43L163.499 148.22L164.059 148.57L164.089 147.53L161.679 144.15L161.579 141.68L163.909 142.68L166.449 141.76L165.549 140.67L165.469 141.47L163.549 140.19L164.949 137.41L164.189 136.97L165.179 136.03L165.929 132.57L163.789 132.01L162.079 129.86L163.339 125.27L162.509 124.4L162.599 123.13L163.529 121.29L162.689 116.15L167.439 115.47L169.759 113.72L172.569 115.23L174.989 113.86L178.989 113.88L187.839 115.94L192.689 115.83L198.539 117.26L209.809 114.37L213.039 112.81L217.019 114.47L221.079 112.81L230.519 113.57L233.809 112.43L237.329 110.05L238.879 106.37L244.959 105.12Z" fill="#C7C7C7" stroke="white" stroke-width="2"/>
<path d="M395.84 65.62L399.67 63.7L406.76 63.96L411.78 60.9L417.84 61.24L418.85 60.08L421.2 62.49L423.47 61.87L427.65 63.1L427.57 64.15L429.2 65.68L428.86 69.85L430.06 70.37L428.93 74.03L427.24 74.29L425.74 76.16L423.96 76.89L422.61 76.03L421.27 76.25L417.75 78.11L416.27 74.99L412.97 74.18L409.29 71.21L398.14 72.08L396.01 68.89L395.84 65.62Z" fill="#C7C7C7" stroke="white" stroke-width="2"/>
<path d="M84.7295 293.98L81.1395 296.59L80.8094 300.12L77.4995 299.39L76.3995 300.35L73.9395 296.78L76.6694 282.13L79.3595 282.34L79.8195 279.92L78.9795 279.19L79.1595 277.26L80.3195 276.8L81.0594 277.92L83.0095 276.86L84.0294 275.11L86.0194 275.67L86.6595 278.25L85.8895 282.66L89.0395 285.25L88.6395 287.68L90.0695 288.31L90.3195 290.48L89.3895 290.59L88.8995 292.42L88.0594 292.82L86.6795 290.86L85.3895 290.93L84.7295 293.98Z" fill="#C7C7C7" stroke="white" stroke-width="2"/>
<path d="M321.199 49.06L323.069 48.9L323.969 52.41L325.329 53.68L328.009 53.87L329.039 52.2L329.989 52.07L331.289 52.41L333.789 55.19L334.759 54.98L335.369 56.43L333.339 59L334.519 60.49L336.649 58.31L338.749 59.29L339.819 57.16L340.249 58.28L343.669 58.8L345.029 61.36L343.869 64.35L347.269 63.24L348.459 60.75L349.629 60.55L350.629 58.9L351.789 59.28L353.109 58.05L355.519 57.38L357.149 58.58L358.289 60.43L360.409 60.76L360.889 61.99L359.589 62.99L358.969 65.09L356.629 64.84L355.949 67.05L349.759 69.21L349.979 70.98L351.519 71.4001L351.359 71.99L354.069 74.01L353.259 74.28L353.809 78.43L355.319 79.9701L350.929 81.55L350.379 82.7L351.289 84.07L349.389 85.06L349.639 87.77L347.299 89.05L345.959 92.3L343.309 92.38L341.069 90.6101L334.889 91.66L335.269 93.41L337.979 94.23L339.299 95.51L338.559 97.57L337.079 98.27L332.439 94.1L331.599 94.31L331.039 99.34L328.129 102.18L326.789 104.77L327.259 105.66L324.369 105.51L323.819 106.59L322.349 106.89L322.169 108.27L321.239 106.33L319.369 107.26L320.689 110.73L319.849 112.24L320.439 112.73L318.909 113.9L317.789 113.13L313.899 116.62L311.149 115.23L308.929 118.34L306.609 119.59L306.439 120.58L307.899 120.79L308.559 121.75L305.629 123.05L302.979 117.94L302.589 112.34L299.709 111.98L300.899 108.59L302.559 107.79L300.629 105.82L297.689 105.19L294.699 105.59L291.579 103.78L283.129 104.73L282.129 103.42L278.179 101.31L277.239 102.41L272.169 101.5L271.139 102.6L269.609 102.4L268.119 100.15L267.269 100.64L266.189 97.39L263.179 95.63L257.179 89.55L257.739 87.06L261.649 84.24L261.319 83.37L262.769 82.1L263.059 80.02L262.519 79.87L263.099 79.08L261.419 77.32L260.109 78.08L258.619 77.25L256.119 73.48L260.909 73.7L263.979 70.83L265.609 72.53L266.719 72.19L267.829 73.33L269.859 71.6101L272.069 72.59L274.569 71.4001L279.429 73.31L282.239 72.71L284.269 73.99L285.429 71.84L287.479 71.27L289.439 69.51L296.079 69.55L297.239 68.88L298.539 70.07L300.629 69.48L302.499 67.62L303.519 67.75L303.559 69.09L304.829 70.01L304.959 68.49L306.719 67.7901L307.179 62.44L308.759 60.86L308.319 58L310.209 55.65L310.019 53.91L314.929 51.93L319.509 47.55L321.199 49.06Z" fill="#C7C7C7" stroke="white" stroke-width="2"/>
<path d="M491.74 89.96L496.3 80.56L499.28 81.7L499.85 80.97L503.17 81.16L503.26 79.15L504.62 78.92L504.65 77.44L502.85 75.49L503.23 73.99L506.58 73.62L507.7 75.1L509.23 75.51L511.18 74.75L512.97 75.02L514.28 78.47L513.21 81.22L514.84 81.39L515.03 82.74L519.37 82.56L520.32 89.83L521.45 91.37L520.59 91.76L520.8 93.24L518.59 93.43L518 95.39L514.9 93.79L514.77 99.58L516.93 100L515.82 102.59L514.06 103.14L512.3 101.37L511.95 99.83L504.62 100.43L502.55 97.61L501.13 96.83L499.09 96.96L498.33 94.94L492.91 92.51L493.72 90.8L491.74 89.96Z" fill="#C7C7C7" stroke="white" stroke-width="2"/>
<path d="M203.06 327.61L205.47 332.61L203.58 334.19L200.87 333.26L199.52 334.25L199.22 337.05L197.77 337.83L196.69 342.55L191.82 344.22L188.84 340.53L185.18 338.41L185.7 335.78L184.3 333.58L184.02 331.43L187.81 331.31L187.15 329.08L188.38 327.78L190.27 326.9L194.04 327.9L197.87 325.5L200.94 324.55L203.06 327.61Z" fill="#C7C7C7" stroke="white" stroke-width="2"/>
<path d="M254.121 74.18L256.121 73.48L258.621 77.25L260.111 78.08L261.421 77.31L263.101 79.07L262.521 79.86L263.061 80.01L262.771 82.09L261.321 83.35L261.651 84.22L257.731 87.04L257.171 89.52L263.171 95.6L266.181 97.36L267.251 100.62L268.111 100.12L269.601 102.37L271.131 102.57L272.171 101.47L277.241 102.38L278.181 101.28L282.121 103.38L283.121 104.69L291.581 103.74L294.701 105.55L297.691 105.15L300.631 105.78L302.551 107.75L300.901 108.55L299.711 111.94L302.591 112.3L302.981 117.91L305.631 123.02L308.561 121.72L307.901 120.76L306.441 120.55L306.601 119.56L308.931 118.32L311.151 115.2L313.891 116.59L317.041 119.71L315.661 123.05L318.251 128.14L319.971 128.63L321.611 132.92L321.251 135.09L322.461 136.37L321.051 139.89L321.641 140.58L321.161 141.86L325.761 145.94L328.841 143.48L331.391 144.08L332.671 143.21L333.651 143.86L329.881 149.49L334.471 153.39L337.231 157.73L344.741 163.53L348.871 165.44L351.601 168.44L351.791 170.72L354.221 174.32L351.491 181.07L356.631 182.89L359.791 185.27L360.211 186.89L361.661 190.46L358.321 194.48L356.921 197.83L357.491 200.39L359.761 204.37L360.641 208.87L362.661 209.98L361.081 213.48L358.791 211.98L352.391 214.54L350.981 216.95L351.101 219.36L346.221 217.92L341.391 214.93L338.161 221.78L337.331 221.85L334.711 220.3L332.741 221.08L324.331 214.83L320.301 210.27L318.221 203.54L315.251 198.37L313.041 200.42L307.961 198.53L305.291 207.29L300.911 206.01L296.601 210.09L295.271 210.1L295.441 211.45L292.681 214.93L288.971 209.65L290.881 205.32L293.611 202.07L288.241 196.69L286.601 196.37L285.571 197.69L283.181 198.34L281.151 203.01L280.341 201.76L277.031 201.63L274.641 204.92L271.491 205.96L270.731 208.68L268.471 209.92L264.631 208.05L264.421 207.3L258.421 205.95L260.111 208.82L259.391 210.67L257.631 208.2L253.341 204.6L250.981 194.42L251.761 188.33L254.111 184.07L255.141 178.25L251.581 177.53L250.941 175.89L251.421 174.59L249.691 174.18L250.301 173.42L249.931 172.03L245.851 168.42L240.491 161.06L243.311 157.76L242.981 153.77L240.001 149.27L237.791 149.23L234.851 143.9L234.521 141.08L235.241 139.71L234.311 137.75L237.151 135.47L237.161 133.6L238.691 132.85L239.031 131.72L242.611 129.58L239.611 126.66L242.341 126.67L242.251 125.28L245.831 127.3L249.951 127.86L249.931 125.4L248.601 122.43L248.941 119.69L253.241 118.59L255.261 120.07L257.061 118.09L255.071 116.23L255.181 112.81L254.261 111.77L253.471 107.99L248.301 105.74L249.091 104.56L247.261 103.35L246.491 101.31L243.791 99.41L241.101 98.65L241.481 93.53L240.781 92.12L242.261 90.39L241.661 87.74L242.471 87.62L240.701 84.79L242.071 82.95L244.661 83.3L245.981 82.13L246.021 78.29L247.061 77.12L246.521 76.19L247.311 74.95L248.441 74.32L249.421 74.97L251.971 74.58L252.391 73.27L254.121 74.18ZM269.071 136.49L269.401 133.84L266.221 133.43L264.681 134.22L265.471 136.57L261.441 136.82L260.331 138.41L257.921 137.58L256.021 138.58L257.011 141.35L255.721 142.39L256.601 142.38L256.551 145.07L255.771 145.19L257.211 145.66L256.421 147.25L257.491 148.29L256.621 149.29L257.631 150.5L259.081 150.49L260.801 153.32L259.731 154.66L260.431 155.11L260.271 157.26L258.561 158.86L258.991 161.48L258.011 162.54L258.591 164.76L264.281 162.65L265.291 163.82L269.931 160.9L271.871 163.29L271.241 164.33L275.071 168.21L275.951 167.24L278.671 166.67L281.081 162.09L284.441 158.81L285.041 159.04L286.461 156.46L287.851 156.74L289.691 153.95L292.691 153.05L290.901 149.15L291.291 146.15L286.331 147.07L284.641 143.26L282.421 143.87L281.421 142.82L279.811 142.93L277.091 140.31L278.261 139.63L275.661 137.9L276.421 137.81L276.441 136.92L275.241 135.24L273.121 134.8L271.711 133.48L269.071 136.49Z" fill="#C7C7C7" stroke="white" stroke-width="2"/>
<path d="M119.69 247.3L125.99 246.99L142.48 238.96L146.05 236.29L154.53 233.03L158.59 230.5L161.79 230.71L163.98 228.7L163.93 225.33L177.57 219.03L185.65 220.56L186.23 219.51L186.66 219.91L189.45 223.56L191.36 229.25L189.06 231.21L190.89 231.86L189.93 232.35L190.81 236.09L189.75 238.21L191.04 243.65L187.17 245.08L187.57 248.34L185.38 248.17L182.24 249.92L183.68 253.34L184.66 252.84L185 253.71L183.87 254.9L183.57 256.97L180.95 259.49L181.62 260.66L178.57 264.22L179.87 267.78L178.62 271.67L176.68 272.94L175.49 272.29L175.51 279.22L174.8 280L175.68 280.71L178.32 288.6L178.13 290.01L176.83 290.19L176.19 291.16L175.66 290.61L174.03 292.65L172.49 293.09L173.32 295.29L176.73 294.09L177.89 297.66L179.39 297.33L179.9 302.29L178.84 305.14L176.86 306.52L176.26 307.05L174.13 306.05L172.76 306.6L172.31 305.26L167.63 305.49L165.45 311.74L165.8 315.34L164.69 316.3L163.61 315.65L163.07 316.37L161.02 316.03L160.52 317.06L159.26 316.75L158.05 318.12L155.54 317.77L155.43 316.59L154.11 316.93L153.51 315.86L152.64 316.25L152.84 317.41L151.25 319.2L149.45 318.6L148.2 315.05L146.45 316.38L147.36 318.27L145.47 320.15L145.45 321.92L143.9 324.75L143.74 330.94L141.88 331.93L143.24 333.42L142.71 337.09L141.29 337.32L141.16 338.41L138.67 339.43L139.06 341.63L141.05 344.35L140.97 346.28L138.25 347.06L140.03 353.43L141.47 353.59L140.65 351.68L141.34 351.38L142.06 352.98L144.9 353.08L144.86 354.92L147.11 356.28L146.83 357.51L148 358.4L147.37 359.15L148.13 361.13L147.49 362.86L145.32 362.47L144.6 363.54L143.79 361.69L142.09 363.32L142.32 364.47L140.73 364.99L138.01 357.73L132.98 353.41L129.5 353.75L121.12 351.68L120.45 352.66L121.26 354.03L120.37 354.68L119.05 354.25L118.81 353.06L117.5 354.2L116.73 353.93L116.41 352.02L112.96 352.68L112.92 350.26L113.59 351.29L114.54 350.51L116.83 350.43L116.78 349.93L114.23 350.2L114.25 349.08L115.49 349.05L114.87 348.39L115.34 346.63L114.64 346.5L114.54 347.99L113.71 348.59L112.36 345.96L111.58 345.84L111.31 346.47L112.26 347.29L111.95 348.87L109.94 349.43L111 346.62L110.04 346.56L109.62 347.66L108.75 347.36L108.49 346.34L109.56 344.93L107.37 345.06L105.25 343.43L108.2 342.19L108.51 341.26L104.92 341.39L105.18 339.24L106.36 337.88L102.83 337.43L102.97 336.67L104.68 336.98L103.66 336.68L103.18 334.99L100.27 335.17L100.39 334.54L101.67 334.59L102.88 332.36L100.87 332.39L101.67 331.24L101.13 330.45L100.83 331.05L97.9801 331.28L97.6601 328.45L98.5401 327.88L98.4101 325.74L96.3301 324.64L96.4301 323.24L94.4401 322.76L93.3501 323.36L92.9701 322.13L92.0901 322.43L91.1601 321.59L91.2601 320.89L90.1801 320.47L89.5301 321.13L87.8201 319.13L82.9401 316.61L79.7501 316.12L79.4301 313.74L77.6501 314.07L75.3301 311.56L71.5601 309.44L70.5801 302.88L73.0701 304.81L76.0801 304.2L76.5501 307.52L78.0001 307.03L80.6201 304.32L83.2001 305.65L84.1601 305.13L85.6401 304.19L85.2501 302.43L86.2101 300.96H87.1701L87.2801 299.84L85.9001 294.81L84.8401 294.11L85.5001 291.06L86.7901 291L88.1701 292.96L89.0101 292.56L89.5001 290.73L90.4301 290.63L92.0701 291.43L92.1801 292.37L93.4101 292.51L94.6001 292.11L94.7401 289.55L98.8201 289.26L99.0901 282.12L100.12 282.2L102.29 278.71L101.59 264.36L102.05 258.49L105.2 255.53L106.27 249.59L114.82 249.98L117.38 248.12L119.69 247.3ZM147.83 294.74L146.77 295.9L146.82 298.13L149.27 304.51L149.1 307.02L151.42 308.37L151.89 306.09L153.74 306.22L154.11 305.6L154.81 308.31L156.4 308.74L157.6 302.43L156.83 301.24L157.36 299.99L159.12 300.16L159.94 299.43L158.79 292.69L155.31 288.19L152.8 290.97L152.31 289.69L148.48 287.46L147.11 289.55L147.83 294.74Z" fill="#C7C7C7" stroke="white" stroke-width="2"/>
<path d="M47.6009 113.97L48.9009 113.65L49.3209 114.96L51.0009 116L56.6509 117.13L59.0709 123.61L55.7809 129.31L53.7509 128.26L47.2609 129.45L43.0709 131.68L38.1709 128.74L37.4109 129.61L35.6709 129.51L35.1509 128.18L31.3009 127.38L29.8809 126.14L31.6809 125.07L32.0609 121.95L33.2509 123.76L34.5109 124.07L34.7309 122.86L36.5809 121.22L38.6609 120L40.5109 120.02L41.4809 118.57L40.1709 116.74L41.1009 115.98L41.1509 114.68L46.4909 113.35L47.6009 113.97Z" fill="#C7C7C7" stroke="white" stroke-width="2"/>
<path d="M554.479 25.79L556.999 25.93L556.109 28.27L554.819 29.07L557.229 32.66L561.959 33.89L561.309 37.33L563.419 39.71L563.689 43.44L565.559 45.33L567.459 49.36L569.259 47.41L571.829 47.69L572.139 47.14L574.489 48.51L577.379 46.92L578.369 47.63L577.979 48.78L579.619 49.12L579.569 50.66L581.069 52.97L581.679 52.68L584.579 54.64L583.959 57.24L584.939 59.83L585.699 59.69L587.019 61.84L586.149 62.17L587.129 65.32L586.429 66.61L589.009 66.87L590.489 68.16L593.659 68.86L599.619 65.05L601.499 65.09L602.539 66.53L603.309 66.01L602.969 64.81L604.629 65.4L605.539 64.75L605.979 66.86L606.849 65.32L607.719 65.51L608.209 66.49L607.549 67.99L608.459 68.62L608.789 70.33L609.399 70.06L610.939 71.56L611.549 74.46L612.059 73.75L612.729 74.1L611.309 79.75L608.679 82.7L609.039 83.74L611.649 84.16L613.439 85.45L613.999 87.71L612.949 87.92L609.149 93.66L607.539 93.71L604.469 95.99L601.319 95.82L602.169 97.51L601.719 99.2L603.239 101.17L602.969 102.47L600.619 103.58L597.249 103.46L594.389 109.77L588.599 111.15L588.069 111.9L582.589 111.83L576.499 106.71L573.479 107.64L571.469 114.75L571.819 116L565.079 114.88L561.619 112.53L561.579 115.74L558.749 117.54L556.859 117.41L556.309 121.65L553.559 122.76L552.979 126.6L551.359 127.53L550.109 133.2L548.749 135.77L544.659 135.24L543.559 134.19L542.269 127L539.679 125.39L538.769 125.58L536.729 130.44L534.789 132.04L533.189 128.98L533.869 126.36L531.269 124.8L531.729 121.14L529.949 120.68L526.199 117.27L522.919 118.21L522.619 121.71L520.389 123.6L519.999 124.87L517.839 125.96L515.209 125.09L514.579 123.64L511.989 123.1L512.429 120.94L507.669 120.63L506.459 117.35L504.379 117.5L504.279 118.3L500.359 117.77L496.959 111.79L495.639 111.72L491.729 109.29L491.739 105.7L493.749 96.35L492.869 96.08L492.909 92.51L498.329 94.94L499.089 96.96L501.129 96.83L502.549 97.61L504.619 100.43L511.949 99.83L512.299 101.37L514.059 103.14L515.819 102.59L516.929 100L514.769 99.58L514.899 93.79L517.999 95.39L518.589 93.43L520.799 93.24L520.589 91.76L521.449 91.37L520.319 89.83L519.369 82.56L515.029 82.74L514.839 81.39L513.209 81.22L514.279 78.47L512.969 75.02L511.179 74.75L509.229 75.51L507.699 75.1L506.579 73.62L503.229 73.99L502.849 75.49L504.649 77.44L504.619 78.92L503.259 79.15L503.169 81.16L499.849 80.97L499.279 81.7L496.299 80.56L491.739 89.96L489.469 89.08L488.819 90.12L487.689 90.14L487.569 91.43L481.549 90.98L481.169 91.78L476.579 92.49L474.589 91.75L471.699 92.08L467.279 94.22L466.219 91.25L464.089 90.34L463.599 89.16L460.319 86.97L456.769 86.07L455.939 87.43L453.749 86.44L451.949 85.18L452.439 84.44L449.859 80.56L454.379 76.08L454.699 74.92L456.449 75.78L457.719 75.3L458.349 75.93L458.089 77.73L460.069 77.33L462.519 78.19L463.439 77.57L462.959 76L465.689 73.86L466.749 76.08L469.459 76L469.569 77.26L471.449 77.03L473.089 78.32L474.659 76.76L479.489 76.75L480.019 74.17L481.489 75.19L482.139 74.85L482.229 72.35L484.459 71.52L483.619 70.6L482.189 70.79L481.809 69.35L483.139 69.71L483.379 69.01L480.889 66.8L480.129 64.79L481.439 62.87L480.969 60.02L482.699 57.23L483.929 57.16L485.209 58.82L486.039 56.97L488.069 57.39L488.179 58L489.749 57.59L489.389 56.27L492.849 54.22L494.359 54.13L494.899 53.11L498.049 54.96L502.869 55.52L507.069 54.91L507.899 55.61L508.229 54.03L508.989 54.73L510.689 53.82L510.609 55.57L512.109 54.94L512.459 53.25L513.629 53.88L514.139 52.6L515.169 52.34L514.979 50.98L516.359 50.72L516.209 48.9L517.299 49.99L517.699 48.62L518.719 51.1L519.629 48.97L521.669 49.35L523.669 48.17L525.769 49.04L526.389 47.55L527.599 46.97L527.509 45.81L528.169 46.48L530.419 43.85L531.379 44.25L530.899 43.24L531.529 41.94L534.199 39.51L535.329 39.36L534.289 41.28L536.309 41.25L536.219 40.06L537.559 40.83L538.029 42.09L538.719 41.12L537.629 39.94L539.189 40.87L539.139 39.48L541.359 39.75L540.499 37.45L542.839 34.18L544.279 33.85L542.609 32.75L544.379 32.69L543.479 31.79L543.899 30.19L545.519 29.84L545.039 28.47L546.909 27.67L547.279 25.8L551.539 23.73L554.479 25.79Z" fill="#C7C7C7" stroke="white" stroke-width="2"/>
<path d="M368.341 293.13L374.811 303.31L379.941 304.64L379.451 306.79L380.171 310.85L379.571 315.28L374.291 315.54L373.541 314.82H371.461L371.641 319.17L372.461 320.01L373.931 320.69L377.801 319.88L376.201 325.76L376.861 326.57L376.501 328.69L375.091 329.4L374.961 328.3L373.831 329.01L370.071 319.85L368.481 317.79L364.931 319.29L362.981 318.7L360.931 322.69L358.441 326.27L355.991 326.11L354.801 323.01L357.451 322.52L358.731 321.11V319.07L357.591 318.75L357.211 316.64L359.361 313.07L357.721 311.94L353.371 311.1L350.131 308.45L354.661 304.25L355.931 304.17L359.201 305.92L358.721 302.69L359.691 300.13L362.951 300.46L364.381 301.62L367.221 301.58L367.691 302.22L368.671 299.61L366.271 297.83L366.161 293.97L367.311 292.95L368.341 293.13Z" fill="#C7C7C7" stroke="white" stroke-width="2"/>
<path d="M212.271 178.96L213.031 180.34L216.011 180.14L218.761 183.24L217.201 185.4L217.361 187.12L219.101 188.91L217.951 190.5L218.001 191.74L219.891 191.63L221.741 196.02L220.421 196.74L219.441 195.87L217.081 197.38L213.671 201.49L212.591 200.1L210.331 201.65L207.241 202.16L206.931 196.33L205.251 195.45L201.221 188.28L204.481 184L206.881 182.45L207.211 181.03L208.721 180.38L209.811 177.13L210.951 176.84L212.271 178.96Z" fill="#C7C7C7" stroke="white" stroke-width="2"/>
<path d="M360.21 186.91L363.78 184.14L365.72 181.12L367.99 181.72L371.43 184.77L373.41 184.69L375.15 187.1L373.74 187.51L373.71 188.29L376.48 187.95L375.35 188.91L373.96 194.35L376.86 195.81L378.3 199.96L376.98 202.04L375.85 201.38L374.63 203.51L371.76 203.48L369.65 202.36L368.55 200.38L364.09 200.08L362.67 198.53L363.31 197.71L358.33 194.51L361.67 190.49L360.21 186.91Z" fill="#C7C7C7" stroke="white" stroke-width="2"/>
<path d="M48.0194 179.3L51.1994 181.34L52.6394 179.75L53.5094 179.84L54.6094 183.05L52.2894 185.18L53.4494 187.24L53.3894 193.93L52.6394 194.31L50.6994 192.05L49.9794 192.09L47.9394 195.34L46.6694 195.74L43.2694 193.19L43.2994 191.15L41.6694 188.3L41.1994 183.63L38.2494 181.91L38.1094 180.71L39.9994 180L41.6094 181.26L42.7794 181.1L45.3094 180.57L45.1094 179.4L46.7694 179.92L48.0194 179.3Z" fill="#C7C7C7" stroke="white" stroke-width="2"/>
<path d="M212.79 149.14L211.6 146.58L207.11 143.78L206.68 141.44L205.33 141.93L203.73 138.76L206.14 134.43L207.11 133.6L210.92 133.57L214.14 135.48L215.44 135.11L219.31 138.53L219.56 140.77L215.88 141.45L216.52 144.39L214.92 144.69L216.09 146.54L215.25 146.42L215.44 147.45L212.79 149.14Z" fill="#C7C7C7" stroke="white" stroke-width="2"/>
<path d="M191.06 243.62L194.58 242.9L194.66 242.16L199.71 238.34L200.27 239.36L199.72 241.12L200.52 241.95L202.6 242.14L205.06 243.67L206.47 241.95L207.11 243.92L207.68 242.62L207.93 244.71L208.64 244.67L208.82 240.09L210.18 242.06L209.63 243.17L210.51 244.63L210.56 247.55L214.15 248.45L215.6 247.48L216.27 248.07L218.29 247.73L217.74 245.42L222.22 242.94L223.85 246.13L226.53 247.86L227.54 247.77L227.61 249.79L229.11 253L228.82 255.04L230.96 255.3L233.3 254.54L238.1 250.17L236.84 247.14L239.55 245.05L243.81 244.58L243.91 242.2L249.9 237.94L251.15 235.75L249.73 234.43L253.33 233.47L253.43 232.85L255.44 233.13L255.6 238.55L258.12 240.89L259.81 244.16L261.04 249.17L262.77 252.34L262.61 254.7L259.36 259.66L255.9 261.64L251.77 262.26L249.69 265.49L249.95 267.5L252.62 271.57L252.87 277.16L255.25 282.82L255.21 286.61L252.38 291.44L251.96 293.51L253.17 301.75L255.29 305.33L254.3 311.24L252.83 311.41L251.07 310.07L250.12 310.2L250.96 314.17L249.92 315.34L249.16 314.69L246.24 318.12L247.41 318.92L250.73 316.61L249.99 318.62L250.52 320.12L248.77 320.72L246.77 326.34L246.15 325.03L246.49 323.01L245.15 323.26L244.14 324.46L244.06 326.75L247.68 327.83L246.89 329.99L245.65 329.43L245.74 330.84L242.52 331.01L241.34 330.25L239.82 331.06L234.75 328.03L234.04 328.66L230.41 323.96L228 322.46L227.24 320.47L225.3 321.48L223.12 317.77L223.81 316.45L221.96 316.69L219.97 315.3L220.97 312.44L220.21 310.8L220.83 309.78L220.3 308.97L220.13 310.2L219.32 309.96L217.86 307.4L215.98 307.05L215.26 306.07L215.39 310.04L213.72 311.17L214.11 311.9L212.23 312.2L212.3 313.33L206.7 316.79L205.45 316.74L204.66 315.22L206.39 315.06L208.27 313.72L210.02 308.9L209.46 307.4L208.15 307.87L205.94 307L205.77 302.84L207.12 301.44L206.99 299.98L203.71 298.28L203 296.21L203.25 293.42L200.42 290.93L196.17 292.94L192.49 292.1L188.73 293.71L188.75 297.51L190.13 299.12L190.14 301.18L185.61 304.14L184.05 303.14L182.3 304L182.39 306.97L183.85 307.63L183.18 308.57L181.24 306.03L179.55 306.19L178.97 307.24L176.87 306.49L178.85 305.11L179.9 302.26L179.39 297.29L177.89 297.62L176.73 294.05L173.32 295.25L172.49 293.04L174.03 292.6L175.66 290.56L176.19 291.11L176.83 290.14L178.13 289.96L178.32 288.55L175.69 280.67L174.81 279.96L175.53 279.18L175.51 272.25L176.7 272.9L178.64 271.63L179.89 267.75L178.59 264.18L181.64 260.62L180.98 259.45L183.59 256.94L183.89 254.87L185.02 253.67L184.68 252.81L183.69 253.31L182.25 249.88L185.39 248.14L187.58 248.31L187.18 245.05L191.06 243.62Z" fill="#C7C7C7" stroke="white" stroke-width="2"/>
<path d="M49.92 155.37L52.78 158.85L53.78 158.47L56.06 159.97L59.66 156.86L62.25 155.78L62.79 156.67L64.19 155.73L64.75 156.9L68.21 155.03L69.76 158.28L71.35 159.69L73.79 159L73.99 159.92L75.4 159.97L76.78 162.14L78.72 159.36L81.35 158.38L86.68 153.49L88.19 156.16L85.91 161.96L86.41 162.32L88.01 160.81L93.24 159.26L94.99 156.53L97.62 157.28L98.53 160.67L100.65 162.58L98.88 163.96L101.15 166.68L101.66 166.37L102.3 167.54L105.29 169.25L106.21 168.91L108.46 171.17L102.23 173.61L101.37 174.82L101.57 177.05L100.03 178.31L100.55 186.51L101.15 187.09L100.74 191.13L99.62 192.59L99.61 195.5L101.2 199.69L101.37 203.77L98.91 205.82L96.94 204.37L96.2 205.06L94.93 204.03L91.59 205.68L88.72 205.77L88.52 208.21L88.57 211.22L86.96 210.34L85.63 211.32L85.32 208.99L83.83 209.49L83.47 208.83L82.2 209.73L83.45 214.24L80.87 216.92L81.16 218.08L80.17 219.48L75.11 219.23L74.75 218.23L72.79 217.58L71.17 218.38L68.44 218.24L68.02 217.24L64.57 220.93L62.73 221.29L61.91 224.27L58.04 223.3L54.89 223.72L53.58 222.72L52.08 222.93L50.44 224.93L48.62 224.26L44.99 228.79L44.47 231.5L42.9 233.37L37 236.41L36.96 240.29L35.68 241.47L31.78 243.3L31.55 244.08L28.09 242.43L24.63 243.55L24.62 244.98L28.14 243.92L28.37 244.93L26.96 245.94L27.21 248.47L25 250.93L23.85 251.94L23.19 249.5L20.38 246.55L21.35 243.69L19.74 243.27L20.13 241.01L22.36 240.06L23 235.71L18.98 232.84L18.21 231.28L13.09 230.78L5.8 233.58L3.31 233.16L2 231.74L3.64 230.85L6.43 227.14L7.84 226.68L9.46 222.43L11.25 222.26L11.7 222.88L13.78 221.55L14.53 219.45L16.43 219.44L16.65 216.22L18.04 212.7L18.92 214.72L20.9 214.25L22.48 215.11L23.22 213.24L24.67 213.66L25.3 214.76L28.87 213.86L30.55 215.5L32.02 215.26L32.21 213.85L35.4 215.3L35.85 214.39L37.9 214.38L33.8 210.5L32.12 211.53L31.31 210.62L31.6 209.55L38.66 206.96L37.47 205.65L34.38 204.83L34.53 203.32L33.42 202.13L34.48 200.64L34.94 201.21L35.36 200.25L36.83 200.05L36.96 198.23L39.48 197.82L38.3 194.98L32.7 195.73L32.28 194.54L33.5 192.31L32.63 189.69L30.33 190.1L29.21 187.39L29.52 186.69L29.82 187.25L31.02 186.8L31.29 185.79L31.5 182.23L30.63 181.22L33.88 181.1L35.04 179.88L34.92 177.93L35.87 177.44L33.57 170.17L32.24 169.75L30.88 167.87L32.57 167.31L33.07 165.88L32.39 164.78L32.69 163.93L33.43 163.97L32.06 160.56L32.92 160L35.59 160.7L35.36 161.91L36.44 162.14L36.63 162.98L37.79 162L37.86 160.38L43.49 160.85L44.8 158.55L47.76 157.5L48.38 156.02L49.92 155.37ZM45.11 179.4L45.31 180.57L41.61 181.26L40 180L38.11 180.72L38.25 181.91L41.2 183.63L41.68 188.31L43.3 191.16L43.27 193.2L46.67 195.75L47.93 195.35L49.97 192.1L50.69 192.06L52.63 194.32L53.38 193.94L53.44 187.26L52.28 185.19L54.61 183.06L53.51 179.85L52.64 179.76L51.2 181.35L48.02 179.31L46.77 179.93L45.11 179.4Z" fill="#C7C7C7" stroke="white" stroke-width="2"/>
<path d="M97.6008 157.24L99.4908 155.66L101.731 157.35L101.861 156.45L102.561 156.38L106.761 157.23H107.831L114.811 155.81L116.311 153.63L116.671 150.38L119.771 151.17L121.591 149.71L124.461 150.02L130.281 152.59L133.141 149.88L136.411 153.98L137.851 152.85L138.441 153.61L139.271 153.24L139.711 154.61L141.561 153.96L141.801 152.46L142.731 151.93L143.471 152.76L145.261 152.04L146.051 153.29L145.451 154.91L147.801 154.48L147.101 153.23L147.871 152.35L147.521 151.77L148.281 151.54L150.011 154.06L153.761 149.42L154.081 151.59L155.091 151.78L156.961 149.29L159.371 151.18L160.571 153.96L163.231 158.15L161.131 162.48L163.731 163.85L164.371 163.09L166.231 163.29L167.591 164.43L167.551 165.93L165.941 166.51L168.481 168.21L168.701 170.29L173.741 169.55L175.441 170.21L176.161 171.88L178.091 172.17L176.431 174.15L177.321 177.77L178.921 177.36L181.781 181.55L185.171 179.39L186.351 179.38L187.921 182.81L189.911 184.72L191.701 184.77L192.321 185.95L192.301 190.77L191.241 193.76L192.401 198.12L192.211 200.43L193.241 201.91L190.491 204.09L191.231 207.58L193.351 211.54L195.431 211.1L195.721 211.83L193.351 212.54L193.201 213.48L191.311 214.61L190.711 216.44L186.691 219.92L186.261 219.53L185.681 220.58L177.601 219.05L163.961 225.35L164.011 228.72L161.821 230.73L158.621 230.52L154.561 233.05L146.081 236.31L142.511 238.98L126.031 247.01L119.731 247.33L114.351 241.75L113.381 238.83L111.191 236.36L111.181 234.44L112.521 233.44L110.611 231.26L111.321 229.91L110.881 228.59L109.801 228.22L107.451 225.11L105.011 225.78L102.441 224.6L103.501 220.71L104.601 219.96L104.391 218.52L102.631 217.15L102.171 215.65L100.461 214.15L98.4708 215.21L95.6508 214.5L88.5508 208.22L88.7508 205.78L91.6208 205.69L94.9608 204.04L96.2308 205.07L96.9708 204.38L98.9408 205.83L101.401 203.78L101.231 199.7L99.6408 195.51L99.6508 192.6L100.771 191.14L101.191 187.1L100.601 186.52L100.081 178.32L101.621 177.06L101.421 174.83L102.281 173.62L108.521 171.18L106.271 168.92L105.351 169.27L102.361 167.56L101.721 166.39L101.221 166.7L98.9608 163.98L100.731 162.6L98.6108 160.69L97.6008 157.24ZM155.161 192.64L155.611 193.95L158.791 195.31L159.291 198.81L155.591 202.72L160.731 208.17L160.931 211.09L163.051 211.38L164.211 210.81L165.821 207.1L169.601 206.98L170.851 202.03L170.331 200.97L171.181 199.94L166.941 192.68L163.421 189.36L161.341 188.73L158.171 192.37L155.161 192.64Z" fill="#C7C7C7" stroke="white" stroke-width="2"/>
<path d="M165.8 191.37L170.68 198.7L170.84 202.04L169.39 207.22L165.82 207.12L164.21 210.83L161.53 211.52L160.46 210.06L160.73 208.19L155.58 202.73L159.28 198.82L158.79 195.32L155.61 193.95L155.16 192.64L158.17 192.38L161.33 188.74L163.41 189.38L165.8 191.37Z" fill="#C7C7C7" stroke="white" stroke-width="2"/>
<path d="M88.4794 208.17L95.5794 214.45L98.4094 215.16L100.399 214.11L102.109 215.61L102.569 217.11L104.329 218.48L104.539 219.92L103.439 220.67L102.379 224.56L104.949 225.75L107.389 225.08L109.749 228.19L110.829 228.56L111.269 229.88L110.559 231.24L112.469 233.42L111.139 234.42L111.149 236.34L113.339 238.81L114.319 241.73L119.699 247.31L117.259 247.98L114.699 249.84L106.159 249.45L105.099 255.39L101.949 258.35L101.489 264.22L102.189 278.57L100.019 282.06L98.9894 281.98L98.7194 289.12L94.6394 289.41L94.4994 291.97L93.3094 292.37L92.0794 292.23L91.9694 291.29L90.3294 290.49L90.0794 288.31L88.6594 287.68L89.0594 285.25L85.9094 282.66L86.6794 278.24L86.0494 275.67L84.0594 275.11L83.0394 276.86L81.0894 277.92L80.3494 276.8L79.1894 277.26L79.0094 279.2L79.8494 279.93L79.3894 282.35L76.6994 282.14L73.9794 296.79L76.4294 300.36L77.5294 299.4L80.8394 300.13L81.1694 296.6L84.7594 293.99L85.8194 294.7L87.1994 299.73L87.0894 300.85H86.1294L85.1694 302.32L85.5594 304.08L84.0794 305.02L83.1194 305.54L80.5394 304.21L77.9194 306.92L76.4694 307.42L75.9994 304.1L72.9994 304.71L70.5094 302.78L70.9294 301.67L69.4494 300.17L69.7994 299.19L68.5194 299.09L68.1494 298L67.1394 297.65V296.46L66.2194 297.41L63.3894 294.92L61.9394 295.85L61.0794 295.02L60.3094 295.79L59.6794 294.66L58.4794 294.76L57.8494 293.05L56.5894 294.11L52.3794 286.83L51.0694 287.22L51.6694 285.52L50.4094 284.85L48.4594 285.12L48.0494 284.19L45.5394 284.71L43.8194 282.25L38.8394 279.59L39.7294 278.41L39.0394 277.65L39.6694 276L38.4494 275.46L37.8594 272.18L35.2994 271.36L35.0394 269.44L31.8494 265.66L29.6994 265.16L29.0094 263.42L27.1194 262.56L26.4594 261.07L27.0594 258.57L29.4794 259.28L30.3894 254.52L25.4294 253.76L24.9994 253.35L25.8994 252.26L24.9994 250.93L27.1994 248.44L26.9494 245.91L28.3594 244.9L28.1294 243.89L24.6094 244.95L24.6194 243.52L28.0894 242.4L31.5494 244.06L31.7794 243.29L35.6794 241.46L36.9594 240.28L36.9994 236.4L42.8994 233.36L44.4694 231.49L44.9894 228.78L48.6194 224.25L50.4394 224.92L52.0794 222.92L53.5794 222.71L54.8894 223.71L58.0394 223.29L61.9094 224.27L62.7294 221.29L64.5694 220.93L68.0194 217.24L68.4394 218.24L71.1694 218.38L72.7894 217.58L74.7494 218.23L75.1094 219.23L80.1694 219.48L81.1594 218.08L80.8694 216.92L83.4494 214.24L82.1994 209.73L83.4694 208.83L83.8294 209.49L85.3194 208.99L85.5794 211.27L86.9194 210.29L88.5394 211.17L88.4794 208.17ZM62.8494 229.04L62.0694 231.69L61.8594 233.61L63.0994 234.77L62.4694 238.57L64.0994 241.03L62.4394 243.68L64.1394 245.91L65.4794 245.62L66.3994 244.29L70.0994 244.63L73.4894 243.74L72.8594 240.3L73.7494 239.58L73.7894 237.15L72.0794 234.39L72.5394 232.89L71.4694 231.59L69.5194 231.31L68.6494 229.18L66.2794 228.92L65.9494 229.59L62.8494 229.04Z" fill="#C7C7C7" stroke="white" stroke-width="2"/>
<path d="M67.2591 229.34L68.6491 229.17L69.5191 231.3L71.4691 231.58L72.5391 232.88L72.0791 234.38L73.7991 237.14L73.7591 239.57L72.8691 240.3L73.4991 243.74L70.1091 244.63L66.4091 244.29L65.4891 245.62L64.1391 245.9L62.4491 243.67L64.1091 241.02L62.4691 238.56L63.1091 234.76L61.8691 233.6L62.0791 231.68L62.8491 229.04L67.2591 229.34Z" fill="#C7C7C7" stroke="white" stroke-width="2"/>
</svg>
