<svg width="803" height="1002" viewBox="0 0 803 1002" fill="none" xmlns="http://www.w3.org/2000/svg">
<path d="M30.34 999.95L36.67 984.79L47.58 954.03L33.16 949.22L6.33 962.36L2 975.82L12.41 994.08L23.63 991.41L30.34 999.95ZM715.12 2L687.47 10.73L658.63 26.78L600.76 40.78L518.56 89.68L463.64 141.99L427.27 213.21L359.81 378.49L338.12 407.9L290.97 450.19L258.74 492.04L221.5 517.78L187.4 526.04L184.32 536.65L186.14 554.34L180.94 579.53L166.58 618.75L160.62 652.61L159.87 731.63L145.95 778.07L94.04 851.87L95.86 902.75L84.45 905.95L77.93 909.8L72.53 914.29L64.32 919.09V938.65L101.19 950.61L132.97 929.24L163.19 898.68L196.3 883.29L219.12 892.06L247.9 930.1L270.41 938.65L290.72 931.27L309.15 920.7L325.33 923.26L338.62 956.59L358.93 885.86L371.29 867.05L388.78 858.17L413.04 851.87L434.67 841.82L443.95 821.28L466.27 793.37L550.54 736.23L549.16 703.79L593.23 661.71L646.09 632.9L679.69 594.32L666.78 522.28L708.91 498.04L718.44 488.07L727.47 469.08L735.81 444.61L745.21 423.58L756.68 414.35L778.38 368.61L787.28 360.23L801.2 350.56L799.19 328.33L789.66 304.58L781.51 289.75L769.98 281.26L741.76 277.72L729.85 270.19L721.32 252.56L711.35 208.69L703.08 189.01L700.07 153.18L731.61 53.93L740.51 15.79L715.12 2Z" fill="#C7C7C7" stroke="white" stroke-width="2"/>
</svg>
