<svg width="614" height="796" viewBox="0 0 614 796" fill="none" xmlns="http://www.w3.org/2000/svg">
<path d="M300.99 373.87L300.88 373.76L300.78 373.79L300.61 373.83L300.45 374.09L300.42 374.15L300.48 374.23L300.54 374.21L300.8 374.27L301 374.19L301.02 374.13L300.98 374.05L300.99 373.87Z" fill="#C7C7C7" stroke="white" stroke-width="2"/>
<path d="M298.55 234.56L302.38 234.99L302.77 233.65L303.91 232.09L303.59 228.34L299.89 230.82L298.23 230.85L298.51 234.46L298.55 234.56Z" fill="#C7C7C7" stroke="white" stroke-width="2"/>
<path d="M145.419 297.38L147.499 299.13L146.879 300.79L147.799 302.62L149.019 311.75L147.619 315.1L146.639 321.08L150.419 327.6L151.159 330.36L151.619 338.03L151.029 341.92L152.449 348.01L152.179 358.96L151.909 360.34L144.869 370.65L144.959 373.26L144.109 375.83L144.579 379.77L143.959 381.22L144.679 383.43L144.589 387.06L144.309 388.41L142.859 389.42L143.699 390.92L142.759 392.3L141.959 393.67L139.569 392.87V393.68L138.189 394.44L138.529 396.54L140.099 394.48L142.649 395.4L141.399 397.61L137.829 399.56L138.389 400.46L137.579 401.67L138.569 402.03L138.389 403.14L137.459 403.65L138.069 404.07L135.229 405.55L135.439 407.27L134.889 407.82L135.199 408.18L137.409 406.53L137.109 407.52L135.129 410.74L133.019 410.9L131.849 408.99L128.589 408.87L129.889 405.57L127.379 405.46L125.819 404.62L125.079 404.31L122.939 403.45L121.779 402.18L119.699 402.41L118.189 400.56L117.439 400.01L115.729 400.45L116.289 398.46L114.649 398.66L112.879 397.85L112.629 397.13L112.219 395.38L113.019 395.06L113.059 392.87L113.789 391.99L114.539 392.82L116.189 391.54L117.259 391.64L117.739 389.99L119.449 389.31L119.339 388.61L115.699 388.21L114.149 387.04L112.589 388.03L112.239 385.2L108.759 386.54L108.639 385.34L106.289 385.26L106.379 384.6L107.609 384.83L109.969 382.8L110.239 381.4L110.919 380.38L112.079 380.39L112.689 378.96L112.929 377.73L112.419 375.51L113.679 374.65L112.619 372.77L111.679 372.94L110.639 373.08L109.369 373.78L105.409 373.63L103.659 374.76L104.449 371.93L102.889 369.86L105.749 369.62L106.809 368.64L106.069 367.51L106.359 366.61L110.829 364.05L110.339 362.96L109.389 363.1L108.409 359.73L106.319 360.54L105.659 359.1L103.899 358.18L102.289 358.64L102.949 357.58L102.509 357.02L101.099 357.43L101.259 355.65L102.489 355.13L102.289 353.29L101.529 353.34L100.779 351.82L100.199 351.1L108.139 349.08L106.369 346.62L105.329 346.84L104.589 345.93L103.499 346.4L103.159 345.47L104.709 344.57L104.109 343.4L102.849 343.13L101.149 344.58L101.109 342.64L100.359 342.1L100.579 341.31L101.699 342.02L102.079 341.05L103.749 340.82L103.579 338.75L106.129 338.82L106.799 336.78L107.399 335.11L105.799 334.44L106.719 331.87L108.969 330.47L109.599 329.03L109.369 328.09L108.759 328.14L109.759 327.09L109.849 328.71L111.269 328.01L111.489 328.87L112.999 329.25L114.119 326.76L113.679 325.87L117.009 325.46L117.619 324.02L119.279 324.04L119.869 323.29L124.609 323.19L126.929 321.8L127.439 319.67L128.239 318.08L130.229 316.91L132.409 316.56L133.989 317.39L135.209 316.65L135.739 317.69L137.049 317.87L137.629 319.01L138.429 320.81L139.139 320.72L141.499 316.6L141.379 312.5L139.679 309.84L141.259 307.56L140.319 305.18L142.339 303.51L141.709 303.13L142.219 302.05L141.269 298.63L142.149 297.71L145.419 297.38Z" fill="#C7C7C7" stroke="white" stroke-width="2"/>
<path d="M399.03 762.26L399.33 762.8L398 763.84L400.38 764.06L399.76 765.47L402.06 764.51L401.85 765.29L402.49 764.85L405.49 766.57L405.2 767.05L406.47 767.81L405.66 767.79L405.57 768.7L406.76 768.08L405.74 769.57L407.11 768.43L409.31 769.97L408.88 773.31L408.16 772.07L407.15 772.99L408.26 773.4L407.27 774.14L401.7 772.94L397.28 769.6L396.86 768.01L397.51 767.94L397.11 767.01L397.71 766.24L396.88 765.67L397.55 764.91L397.29 763.95L396.39 763.82L396.94 762.86L399.03 762.26ZM397.42 760.67L398.08 761.38L396.72 761.7L396.64 760.8L397.42 760.67ZM392.08 756.81L395.98 758.22L397.31 759.91L393.48 761.22L389.75 759.79L389.57 757.25L392.08 756.81Z" fill="#C7C7C7" stroke="white" stroke-width="2"/>
<path d="M375.961 305.76L377.321 312.1L379.561 317.61L385.831 328.79L392.841 336.5L401.081 342.65L401.951 344.98L405.621 348.51L405.951 349.86L411.511 353.56L416.671 355.39L416.881 360.24L420.311 362.67L419.141 364.52L420.051 365.36L417.211 367.32L414.911 370.16L414.091 373.26L411.731 374.92L410.011 378.65L405.251 383.78L403.211 383.41L404.001 382.77L402.931 378.48L401.831 377.41L399.391 375.79L398.341 377.11L397.771 376.89L396.791 374.7L395.551 374.83L394.611 373.57L391.701 375.95L390.271 378.17L388.051 378.32L387.631 379.22L388.881 382.77L390.401 383.66L389.981 384.69L389.131 384.56L388.881 383.55L388.211 384.79L386.221 384.84L385.591 387.48L384.801 385.41L383.641 385.5L382.771 387.9L381.441 387.95L381.161 389.41L379.291 388.43L377.191 388.95L374.701 385.68L372.741 385.87L370.341 384.46L369.311 385.11L367.981 384.71L366.231 381.4L364.911 382.13L363.841 380.95L362.061 380.46L361.001 382.55L356.951 383.9L355.471 382.97L354.741 381.16L352.901 380.73L351.421 379.3L349.691 378.6L348.291 379.96L347.291 376.33L348.571 374.04L347.571 372.63L346.561 372.81L344.581 370.53L343.681 370.9L336.031 366.41L334.001 365.69L333.981 366.93L331.601 366.29L330.191 364.04L330.341 359.12L331.121 359.48L333.201 357.7L333.251 355.31L334.981 355.18L341.541 358.71L342.781 357.94L344.471 358.56L345.541 356.33L347.041 356.04L346.511 355.33L348.341 355L346.411 353.78L346.111 352.15L343.681 351.31L341.101 348.77L340.451 345.49L336.711 343.01L338.791 340.68L334.801 336.94L337.981 334.52L337.881 332.14L336.881 330.28L337.911 329.7L338.671 326.94L341.421 327.98L342.031 327.25H343.381L343.961 328.23L345.461 327.46L347.721 327.77L349.071 326.6L349.831 323.17L347.841 322.54L346.691 321.17L347.231 319.49L348.891 319.97L350.771 318.64L351.341 319.1L351.941 316.73L354.311 316.34L354.611 313.85L355.951 312.36L356.191 310.92L358.271 312.05L360.641 310.94L361.311 311.88L362.661 311.71L364.671 310.77L365.131 308.56L365.811 308.18L368.591 308L370.701 306.59L375.691 305.52L375.961 305.76Z" fill="#C7C7C7" stroke="white" stroke-width="2"/>
<path d="M459.121 431.87L458.791 430.64L460.131 429.41L462.081 429.03L466.731 429.81L469.241 428.91L470.691 429.96L472.381 429.05L472.221 428.1L473.891 427.67L473.711 426.91L474.531 427.2L475.951 426.35L478.251 428L479.991 428.3L480.231 429.33L481.491 429.63L482.101 431.98L482.721 431.56L484.561 433.06L483.921 434.1L484.221 435.65L482.431 437.7L480.921 437.43L481.531 438.56L487.121 440.94L488.711 442.45L490.851 440.49L492.851 441.14L495.791 447.6L502.351 453.65L503.131 455.39L504.661 455.81L508.141 451.77L510.181 454.24L510.121 452.35L511.091 452.09L511.941 453.42L512.051 451.68L513.741 452.41L514.751 451.77L514.921 452.76L516.091 453.46L516.631 452.72L519.551 454.94L518.521 455.45L519.741 456.86L518.841 460.48L519.761 462.53L519.131 462.99L518.701 465.88L519.661 466.89L519.221 467.7L520.381 468.58L519.421 470.66L520.281 471.6L521.981 471.17L523.751 472.24L524.121 473.86L525.861 475.33L526.641 477.19L522.701 482.83L517.891 493.19L515.601 494.86L512.881 493.91L509.761 494.88L506.681 493.86L504.771 494.23L504.111 493.12L503.481 494.59L503.701 497.43L502.671 499.65L502.931 501.65L499.881 507.09L500.991 508.23L500.551 509.55L498.411 507.16L496.411 506.98L493.481 507.64L493.461 509.39L490.681 508.12L489.641 509.2L484.841 509.46L483.291 507.72L483.661 507.1L482.811 505.5L484.051 503.27L482.891 502.95L481.401 503.8L480.711 502.84L478.861 502.54L477.431 503.77L476.811 502.9L475.881 503.39L474.981 502.45L473.301 502.63L470.951 505.16L470.001 507.76L468.211 504.21L466.111 502.29L465.971 500.81L464.291 499.83L465.981 498.82L464.711 497.44L465.921 497.1L467.481 494.98L467.161 492.07L468.781 490.42L468.641 489.42L472.111 487.94L471.591 486.71L472.521 485.88L472.481 484.46L471.871 483.31L468.941 482.46L468.801 481.14L467.161 479.63L467.111 477.07L465.011 476.31L463.411 474.17L461.351 473.14L460.871 471.41L458.701 469.7L459.421 468.62L458.071 465.41L458.771 464.59L454.421 461.96L455.151 459.94L456.801 458.93L456.861 458.12L450.931 454.27L451.101 449.42L450.281 449.35L450.501 448.17L448.441 446.9L450.541 446.75L450.661 444.61L449.641 444.09L450.071 443.43L454.861 444.51L455.501 444.16L455.271 443L458.231 441.71L460.491 435.84L459.121 431.87Z" fill="#C7C7C7" stroke="white" stroke-width="2"/>
<path d="M469.999 507.76L470.949 505.16L473.299 502.64L474.979 502.46L475.879 503.39L476.809 502.9L477.429 503.77L478.859 502.54L480.719 502.84L481.409 503.8L482.899 502.95L484.059 503.26L482.819 505.49L483.669 507.09L483.299 507.71L484.849 509.45L489.649 509.19L490.689 508.11L493.469 509.37L493.489 507.62L496.419 506.97L498.419 507.15L500.559 509.53L500.999 508.21L499.899 507.07L502.949 501.63L502.679 499.62L503.709 497.41L503.499 494.57L504.129 493.11L504.789 494.21L506.699 493.84L509.789 494.86L512.909 493.89L515.629 494.84L513.719 497.28L513.379 499.91L514.739 505.7L510.139 511.53L507.639 516.16L507.679 519.08L509.689 521.4L509.139 524.86L514.219 527.87L522.259 527.99L526.979 533.32L531.669 536.19L535.139 537.08L535.919 539.14L538.059 541.2L541.979 542.55L539.619 548.43L539.369 552.12L541.539 555.3L539.579 561.85L541.019 563.73L540.709 564.68L541.429 565.82L544.489 567.27L542.329 569.23L542.579 572.03L538.759 576.03L538.489 574.93L537.079 574.42L534.969 575.18L532.829 573.01L528.139 573.75L522.419 575.88L513.669 581.3L510.019 587.85L511.169 589.89L512.479 603.55L512.019 606.37L506.369 612.25L499.129 615.31L491.129 625.43L490.119 632.21L487.579 637.04L485.889 639.14L482.549 639.68L478.519 638.74L470.329 639.51L466.089 637.1L463.919 633.03L464.989 631.51L463.719 628.12L464.979 625.22L463.859 621.86L463.909 619.14L468.009 617.46L469.899 617.4L472.479 615.94L473.729 613.77L474.189 610.59L475.339 609.55L476.139 606.81L477.609 605.47L478.339 603.53L479.089 598.66L473.769 593.9L474.249 592.08L476.059 590.36L480.279 588.96L482.019 587.13L484.479 586.83L487.899 587.85L489.629 587.35L492.049 585.45L494.029 578.97L493.739 573.85L490.649 572.35L487.629 566.77L486.009 559.5L485.229 549.04L482.479 539.97L478.829 534.27L476.189 532.38L474.069 525.03L473.159 524.28L471.759 515.49L470.799 513.8L471.949 511.86L469.999 507.76Z" fill="#C7C7C7" stroke="white" stroke-width="2"/>
<path d="M391.631 465.3L393.641 465.54L392.951 466.46L390.021 466.87L390.151 465.24L391.631 465.3ZM373.321 451.83L377.731 453.03L378.261 453.8L377.571 455.87L374.751 455.9L374.441 456.5L372.461 455.46L372.421 453.59L373.321 451.83ZM378.921 404.16L380.441 404.93L380.161 406.45L382.221 408.9L384.371 408.42L385.671 409.28L385.401 406.86L384.031 405.19L386.231 401.16L388.521 403.07L388.911 401.69L392.361 401.75L392.571 402.6L394.341 402.61L394.611 403.63L396.641 404.72L404.651 407.06L405.031 408.65L406.221 409.56L409.561 409.04L410.781 410.8L412.971 408.85L414.021 408.79L413.981 407.85L415.951 407.61L416.891 408.35L418.771 407.77L420.491 404.88L424.501 406.58L426.071 404.99L428.721 404.77L431.701 402.67L433.511 405.51L436.371 406.31L436.561 407.11L435.741 407.89L436.281 409.09L435.221 409.27L434.381 410.44L435.001 413.06L437.971 414.12L438.181 416.29L441.601 416.15L442.641 417.63L444.261 417.31L445.521 418.74L443.911 419.76L444.761 422.14L442.741 423.34L441.931 425.33L443.501 426.1L444.231 427.99L446.241 429.43L447.341 428.53L450.171 429.72L451.871 428.43L453.971 430.23L455.541 430.09L459.141 431.89L460.511 435.86L458.251 441.73L455.291 443.02L455.521 444.18L454.881 444.53L450.091 443.44L449.651 444.11L450.671 444.62L450.551 446.77L448.451 446.92L450.511 448.19L450.291 449.36L451.121 449.43L450.951 454.28L456.881 458.13L456.821 458.94L455.161 459.94L454.431 461.96L458.781 464.59L458.091 465.41L459.441 468.62L458.721 469.7L460.881 471.41L461.371 473.14L463.431 474.17L465.031 476.31L467.131 477.07L467.181 479.63L468.831 481.14L468.971 482.46L471.901 483.31L472.511 484.46L472.551 485.89L471.621 486.72L472.141 487.95L468.671 489.42L468.811 490.42L467.201 492.07L467.521 494.98L465.961 497.1L464.761 497.44L466.031 498.81L464.331 499.82L463.471 497.86L460.691 497.48L457.111 498.42L452.871 503.29L449.481 502.72L447.451 500.74L445.241 501.29L445.051 500.66L445.911 500.01L445.221 497.78L441.911 494.6L440.431 494.38L437.921 491.35L433.241 491.41L430.591 488.11L426.911 486.97L426.291 485.91L428.271 484.41L428.371 480.4L430.981 478.9L430.991 475.96L424.941 463.4L419.611 457.8L416.881 458.22L415.521 460.35L412.181 459.38L409.471 461.78L407.121 462.19L404.691 460.86L396.631 464.73L397.411 460.63L400.571 460L401.001 458.53L404.581 456.07L403.501 452.9L400.401 451.92L396.861 448.03L394.101 446.19L391.451 447.3L389.611 449.68L388.141 449.46L388.921 449.08L388.211 448.06L384.861 447.1L383.761 447.88L384.611 450.57L382.361 449.81L382.351 445.29L381.231 441.36L378.581 437.13L378.521 436.98L376.111 434.38L374.711 429.55L371.151 423.73L367.961 420.52L368.511 419.2L371.511 418.62L372.011 417.85L371.361 417.61L371.461 416.58L374.571 415.47L373.541 411L374.361 409.5L373.041 407.28L375.191 406.91L378.241 404.14L378.921 404.16Z" fill="#C7C7C7" stroke="white" stroke-width="2"/>
<path d="M316 229.91L314.83 233L315.06 237.13L312.54 238.12L312 240.22L309.08 239.86L309.27 238.82L308.47 238.51L307.78 236L305.06 237.13V234.99L302.79 233.67L303.92 232.11L303.6 228.36L299.9 230.84L298.24 230.88L298.52 234.48L299.73 236.7L298.11 236.69L297.77 235.87L295.78 236.66L294.77 240.13L292.17 242.22L291.97 244.39L291.93 244.36L290.29 245.25L288.26 244.88L287.43 246.85L285.88 244.54L284.44 245.34L283.03 245.18L281.31 246.08L280.2 244.81L279.28 245.06L277.82 244.16L276.76 244.58L275.13 243.53L274.92 242.56L273.57 242.38L273.05 241.09L268.39 240.88L266.39 238.47L262.81 236.47L263.08 233.41L261.26 232.19L261.59 230.56L259.42 228.48L259.67 227.33L260.34 227.42L260.14 226.33L261.82 225.69L262.25 223.7L264.28 221.51L264.62 218.82L259.15 219.92L256.5 219.56L257.95 217.46L257.76 216.42L255.16 215.89L254.13 216.89L252.93 216.63L251.2 214.66L249.81 214.28L249.47 212.14L248.14 210.94L245.68 213.33L243.19 213.59L242.99 214.66L240.71 216.73L236.72 216.87L236.61 217.81L239.54 219.51L239.79 220.59L237.25 220.75L234.16 219.86L230.82 221.31L228.06 220.99L226.51 219.84L227.13 218.8L226.73 217.89L221.87 223.35L221.21 223.05L221.53 222.1L220.85 221.19L218.57 220.69L213.6 216.66L208.03 216.53L207.03 217.76L207.1 219.11L205.43 219.53L202.01 216.48L201.77 214.93L200.03 213.33L200.08 211.95L198.86 211.28L197.19 211.57L194.24 208.53L192.64 208.5L190.45 207.27L188.07 208.46L182.44 202.51L180 203.02L175.72 200.08L174.59 198.82L175.13 196.2L174.08 195.99L173.58 194.75L171.15 193.88L165.8 194.47L162.39 199.84L158.79 201.93L157.37 198.61L154.67 196.62L153.62 197.27L152.21 196.4L151.86 197.36L149.08 197.63L148.14 198.76L147.88 197.59L146.23 197.98L147.77 193.47L149.09 193.26L149.57 189.84L148.71 187.75L145.48 186.64L144.69 184.91L142.25 186.7L139.1 184.15L138.66 185.2L136.56 184.85L136.9 184.01L136.31 183.38L134.05 183.82L134.02 178.74L134.51 178.93L136.26 178.82L135.94 176.8L137.25 179.31L140.48 178.46L139.77 177.07L140.66 176.03L140.51 174.81L138.77 173.88L138.47 172.78L142.32 168.9L141.25 165.65L140.28 164.83L139.55 165.23L137.8 163.62L139.05 161.98L138.45 160.96L140.11 160.54L141.48 156.49L143.12 154.74L143 152.56L145.05 150.72L144.94 150.05L146.17 150.23L146.49 149.42L149.33 148.7L150.9 150.56L152.03 149.53L151.4 146.8L152.13 146.68L153.73 148.82L155.01 148.28L155.66 146.37L156.58 147.62L156.43 150.12L160.61 151.91L162.23 150.49L162.73 149.48L161.98 148.39L162.85 148.12L163.68 149.66L165.53 150.61L165.9 152.47L166.83 149.26L167.83 149.29L168.84 150.77L169.72 150.38L169.92 149.22L168.79 147.63L170.59 146.17L171.32 146.78L170.94 148.97L173.82 146.76L174.71 146.85L176.59 149.3L176.15 150.79L177.67 152.02L177.74 153.24L179.23 152.89L180.03 154.63L183.36 153.07L183.89 154L186.11 153.94L189.11 156.31L190.71 156.35L193.54 158.62L195.99 157.28L197.46 160.2L202.03 162.43L205.97 162.26L207.42 161.42L210.28 157.3L210.73 158.92L212.53 156.85L213.5 159.97L217.91 160.69L218.66 161.48L219.54 161.32L219.62 162.07L220.96 161.9L220.76 162.48L222.22 161.58L223.57 161.8L223.8 160.65L226.12 159.46L229.24 159.72L230.17 158.93L232.82 159.57L234.04 161.12L234.59 160.47L238.48 160.16L238.84 159.5L240.32 160.55L241.99 158.96L248.22 159.88L248.38 161.37L254.08 161L256.18 162.41L256.61 164.03L257.32 164.28L258.56 164.16L260.58 162.26L263.77 161.37L264.51 159.15L267.43 157.79L273.7 157.87L275.91 157.09L282.61 158.16L284.9 161.24L286.38 160.27L287.19 161.32L289.34 161.49L290.8 160.2L291.88 160.19L292.71 161.27L292.08 162.51L292.41 165.4L293.05 166.35L295.04 166.86L295.64 169.04L294.99 169.21L293.8 167.37L292.61 167.01L290.88 169.29L292.14 168.79L290.48 173.16L289.89 178.14L290.37 181.45L292.33 185.28L292.22 194.12L293.99 198.88L294.2 202.27L296.25 209.42L298.01 212.95L304.72 220.77L307.24 222.46L313.21 228.89L316 229.91ZM286.58 241.22L286.31 242.35L287.68 243.94L289.86 242.82L289.56 241.72L289.35 241.25L286.58 241.22Z" fill="#C7C7C7" stroke="white" stroke-width="2"/>
<path d="M318.331 36.01L320.261 36.65V38.08L320.961 38.45L325.071 38.15L331.221 39.34L333.161 38.8L337.331 39.82L340.991 42.58L342.691 41.87L345.241 42.58L346.421 41.3L347.751 41.45L347.861 40.54L349.701 41.06L349.601 41.86L350.561 42.17L354.461 41.47L355.231 42.91L357.441 42.58L358.041 43.6L360.441 43.31L365.421 44.88L363.921 50.98L362.021 50.33L359.101 51.07L357.731 53.92L352.851 56.68L351.281 56.75L351.301 59.42L347.941 61.5L350.411 66.07L349.831 67.78L351.661 67.6L351.591 66.68L353.401 66.74L354.391 67.45L355.821 67.21L357.411 68.26L358.051 69.74L361.251 69.24L362.671 70.05L361.641 73.27L358.071 76.72L354.301 79.11L354.601 81.38L353.031 82.99L356.081 85.84L357.721 85.61L359.051 84.12L361.631 84.46L361.351 87.94L358.211 94L359.251 97.26L360.581 98.15L362.961 97.77L366.941 101.14L369.461 101.81L373.061 108.1L375.851 110.13L371.731 113.81L369.571 113.95L367.101 112.65L365.601 113.02L365.511 112.09L366.291 111.67L369.001 112.52L370.211 111.56L368.781 111.61L368.321 110.05L367.311 110.27L366.721 109.61L367.951 108.67L367.231 106.61L361.081 100.02L358.581 99.29L357.451 99.66L356.891 98.86L355.521 100.34L355.331 102L357.091 103.42L353.731 105.04L352.931 104.77L350.811 106.83L348.391 107.06L343.261 104.3L341.421 104H341.111L341.021 103.93L336.791 105.05L333.911 109.47L332.841 108.87L332.961 108.26L331.981 108.38L332.151 107.06L331.141 106.26L331.511 105.46L330.721 105.26L330.151 102.59L329.181 103.3L329.531 102.13L328.881 100.83L329.371 100.57L327.341 98.64L328.431 98L327.611 97.66L327.791 96.84L327.401 96.47L327.441 96.16L326.861 94.58L326.271 94.82L326.721 96.24L325.171 96.74L324.681 95.65L323.161 96.59L321.911 95.45L322.311 94.35L321.671 94.28L319.501 95.37L318.951 96.41L318.321 95.68L318.751 94.68L317.621 93.84L315.641 95.94L314.971 95.27L311.091 98.86L311.041 97.24L309.921 96.72L309.801 95.83L308.561 95.17L307.881 96.78L305.881 95.73L306.101 94.53L304.711 93.27L303.451 88.74L301.971 88.73L300.931 87.22L299.501 87.18L299.481 83.71L298.771 81.11L297.851 80.31L299.621 77.5L302.521 75.54L302.971 71.96L300.551 70.01L300.251 67.88L298.421 67.98L298.161 66.4L296.081 66.42L293.961 63.57L295.761 61.69L295.721 59.7L296.761 58.86L298.671 59.13L299.001 57.11L300.831 56.18L300.651 55.58L301.251 55.85L300.931 54.47L302.931 52.71L303.211 50.96L304.691 48.92L305.101 49.35L306.671 48.1L308.521 48.89L309.561 48.1L311.381 48.88L310.991 47.14L309.761 46.34L309.881 45.4L313.341 43.22L315.891 43.16L315.011 42L315.711 39.73L314.741 38.07L314.931 36.27L316.581 35.36L318.331 36.01Z" fill="#C7C7C7" stroke="white" stroke-width="2"/>
<path d="M327.06 441.36L326.81 442.68L327.38 442.87L326.38 444.02L326.2 441.2L328.44 440.19L327.06 441.36ZM378.67 402.02L379.68 402.87L378.92 404.17L378.17 404.14L375.13 406.91L372.98 407.28L374.3 409.5L373.49 411L374.52 415.47L371.41 416.59L371.31 417.62L371.96 417.86L371.46 418.63L368.46 419.21L367.91 420.53L365.1 418.51L363.88 419.11L361.07 417.96L358.12 419.62L358.23 421.08L359.13 421.68L357.09 421.75L348.15 416.54L343.81 415.5L342.17 416.5L339.85 416.38L336.93 417.31L333.62 420.46L331.21 420.27L328.28 413.54L324.62 409.65L321.02 407.66L317.65 407.32L316.84 407.95L312.02 404.72L310.32 405L310.18 405.71L309.31 405.34L305.99 399.48L298.91 391.03L295.23 387.91L289.02 385.08L288.09 379.18L284.96 373.43L280.13 370.6L278.83 368.66L276.27 367.68L275.7 366.47L273.36 364.99L269.09 365.62L267.42 361.73L264.38 357.72L264.2 355.84L262.08 351.57L259.83 348.41L254.39 343.98L249.26 341.53L251.12 337.38L257.92 337.3L257.83 333.87L255.04 331.96L256.41 330.02L255.96 328.26L256.58 327.93L257.72 328.98L258.39 328.09L259.2 328.32L260.94 327.44L261.15 326.36L262.65 325.25L263.94 325.5L264.85 323.36L266.22 323.55L267.62 322.63L267.54 321.55L266.49 321.07L266.08 318.45L267.31 318.46L268.35 316.1L264.57 313.14L265.73 310.7L266.94 311.17L267.64 312.49L268.15 310.48L269.78 309.41L272.26 309.55L273.88 313.44L276.66 315.24L275.65 317.22L273.8 318.26L275.09 320.37L279.23 322.93L282.91 321.62L283.92 322.69L284.04 321.94L284.71 322.16L286.09 320.97L287.72 321.65L289.39 323.71L289.94 328.18L291.61 328.96L291.4 330.92L292.44 331.77L291.69 332.44L293.21 333.24L292.52 333.7L294.39 333.49L295.62 334.75L297.62 333.13L299.09 333.29L298.84 335.15L299.58 335.83L298.9 336.06L298.89 338.12L301.18 338.92L300.21 340.34L303.85 339.82L303.8 341.5L304.67 342.5L309 339.14L309.22 335.26L310.41 335.18L311.3 337.04L312.51 336.99L315.5 335.02L314.13 332.98L317.19 332.1L317.36 330.77L319.41 330.87L321.26 329.24L323.35 328.57L322.73 326.02L323.31 324.85L325.33 325.84L326.13 324.87L329.38 324.91L330.09 323.38L332.15 324.46L334.95 322.74L335 321.96L336.62 322.6L337.95 321.32L338.7 316.87L341.98 317.66L342.52 316.49L343.61 316.39L347.29 319.55L346.75 321.24L347.9 322.6L349.89 323.23L349.13 326.67L347.78 327.84L345.52 327.52L344.02 328.29L343.44 327.32L342.09 327.31L341.48 328.04L338.73 327.01L337.97 329.77L336.94 330.34L337.94 332.2L338.04 334.58L334.86 337L338.85 340.74L336.76 343.08L340.5 345.55L341.15 348.84L343.73 351.38L346.15 352.21L346.45 353.84L348.39 355.06L346.56 355.39L347.08 356.09L345.59 356.38L344.52 358.61L342.83 357.99L341.59 358.76L335.03 355.23L333.3 355.36L333.25 357.76L331.17 359.54L330.4 359.18L330.25 364.1L331.65 366.35L334.04 366.99L334.06 365.75L336.09 366.47L343.74 370.96L344.63 370.59L346.61 372.87L347.63 372.68L348.63 374.09L347.35 376.38L348.35 380.01L349.75 378.65L351.48 379.35L352.96 380.78L354.8 381.21L355.54 383.02L357.02 383.95L361.07 382.59L362.14 380.5L363.91 380.99L364.98 382.17L366.31 381.44L368.06 384.75L369.39 385.15L370.41 384.49L372.81 385.91L374.77 385.72L377.27 388.99L379.26 390.71L380.66 394.3L380.76 395.67L380.08 396.31L381.45 397.82L381.23 398.77L380.38 398.95L381.6 400.01L378.67 402.02ZM301.02 374.13L300.98 374.05L300.99 373.87L300.88 373.76L300.79 373.79L300.62 373.83L300.46 374.09L300.43 374.15L300.5 374.23L300.56 374.21L300.82 374.27L301.02 374.19V374.13Z" fill="#C7C7C7" stroke="white" stroke-width="2"/>
<path d="M167.499 224.33L167.099 225.32L166.479 224.33H167.499ZM57.6689 223.16L58.4589 223.43L60.0089 221.76L58.6989 221.78L57.7889 220.34L58.2589 218.8L60.1989 217.73L69.1989 220.61L70.8389 219.74L72.7989 220.43L73.2389 219.7L72.6789 218.83L71.3689 218.22L73.2089 216.7L74.7389 217.72L76.1589 217.23L77.3389 215.69L77.2889 213.75L75.8289 212.47L76.5589 210.77L75.6989 209.67L76.9489 208.44L75.6789 207.13V206.13L76.1089 205.59L77.5689 206.24L77.8689 204.07L79.1589 204.23L80.1389 202.62L79.8989 200.63L83.0889 198.87L83.8389 196.94L82.4689 193.66L83.8489 193.21L83.8089 191.31L85.3589 190.07L86.3389 191.6L88.1889 191.79L91.2689 194.4L92.5789 193.69L93.1389 191.49L93.9489 191.11L95.4189 192.16L96.5589 190.45L96.9089 191.31L100.109 191.19L101.109 191.94L103.849 188.91L103.059 188L104.289 186.07L107.849 186.27L109.469 186.51L111.259 189.45L110.959 190.35L111.819 190.31L112.199 192.51L113.469 192.05L113.109 190.57L114.849 189.11L114.829 187.64L117.109 187.35L117.989 188.53L119.429 187.76L119.129 184.04L117.689 182.48L119.249 181.22L119.889 179.56L121.499 179.32L122.219 180.34L124.499 180.09L126.099 183.52L127.539 183.23L128.999 184.08L128.949 185.56L130.579 186.77L134.099 185.31L134.039 183.85L136.299 183.41L136.899 184.04L136.559 184.88L138.659 185.23L139.099 184.18L142.249 186.73L144.689 184.94L145.479 186.67L148.709 187.78L149.569 189.87L149.089 193.29L147.769 193.5L146.229 198.01L147.879 197.62L148.139 198.79L149.079 197.66L151.859 197.39L152.209 196.43L153.629 197.3L154.679 196.65L157.379 198.64L158.799 201.96L160.119 201.77L161.129 204.35L165.159 207.48L167.749 208.54L167.839 211.11L168.649 211.81L168.219 214.54L170.299 212.79L171.769 213.81L171.019 213.87L169.779 215.85L173.709 215.72L173.909 218.08L174.849 219.47L174.359 220.7L176.139 219.2L178.509 220.67L178.239 222.05L176.019 224.6L174.439 224.33L173.249 225.2L170.299 223L170.349 222.08L168.999 222.07L167.009 220.07L165.719 220.86L167.019 222.48L166.779 223.07L167.529 222.94L166.479 224.34L161.719 221.23L159.819 218.77L157.379 217.49L156.259 218.31L154.909 215.75L152.869 214.85L151.959 213.16L149.839 212.36L148.909 210.94L146.549 210.86L145.149 209.41L144.489 209.88L142.869 207.09L135.839 203.13L134.749 204.17L134.869 206.58L131.229 204.89L131.749 203.11L131.059 202.15L120.389 199.45L119.739 198.39L119.149 198.83L119.559 199.5L115.019 198.27L116.189 198.06L115.269 197.69L112.889 197.58L113.159 198.1L111.099 197.62L109.029 198.42L107.499 199.89L105.669 200.24L104.199 201.78L98.2589 204.8L97.4889 205.81L98.1889 205.67L95.1889 208.42L95.9489 209.43L94.0289 211.98L94.4089 214.02L86.4089 218.02L84.4189 221.48L84.1489 224.82L81.0089 228.35L80.7889 229.76L81.5289 231.12L77.2389 234.01L76.3289 235.68L74.0189 236.18L69.8189 238.93L65.3789 239.83L63.9389 241.04L62.3989 240.58L59.0689 242.54L57.2589 242.24L55.7289 243.83L51.0389 242.76L49.7989 243.77L48.7789 243.55L46.6289 238.38L46.7189 236.84L47.4689 235.9L49.9189 235.15L50.2989 231.98L54.6689 229.69L55.4589 227.94L55.2089 225.82L57.3789 224.89L57.6689 223.16Z" fill="#C7C7C7" stroke="white" stroke-width="2"/>
<path d="M187.79 37.38L188.31 37.96L187.4 39.4L187.66 40.52L189.73 40.9L190.21 42.45L192.45 43.04L193.11 42.03L195.34 42.91L196.44 42.43L198.35 43.91L199.5 46.61L203.27 46.91L205.91 48.68L206.94 50.04L206.71 52.23L207.55 53.62L206.06 55.18L204.09 55.29L201.51 57.84L204.15 59.11L204.75 61.13L203.86 62.4L204.67 62.87L205.19 65.01L202.91 69.17L203.98 70.76L203.04 75.19L199.71 79.26L200.07 81.16L198.88 82.1L198.31 83.93L198.36 84.93L200.1 85.25L199.94 87.28L201.24 89.27L200.33 91.37L200.85 95.68L203.1 96.63L202.39 98L202.81 98.87L204.13 99L206.27 97.67L208.25 97.6L208.72 95.45L212.73 94.64L214 95.62L214.39 94.76L218.36 95.53L207.27 112.03L208.4 123.78L208 125.76L208.84 125.94L209.54 125.13L212 126.26L211.04 128.83L212 129.58L210.7 130.56L211.7 132.05L211.02 133.96L212.51 134.35L213.02 135.34L215.43 133.34L217.39 135.27L218.51 137.62L221.15 138.21L221.26 138.89L223.09 139.37L222.99 140.67L225.86 141.97L226.66 143.19L226.28 144.9L227.89 144.58L228.76 145.13L227.8 147.01L230.12 148.96L231.32 149.18L231.56 147.91L232.92 148.64L233.85 146.96L236.85 148.08L235.58 149.1L235.99 150.11L235.4 151.73L238.53 152.89L239.96 152.04L239.97 154.5L247.95 158.78L248.18 159.81L241.95 158.89L240.28 160.48L238.8 159.43L238.44 160.09L234.55 160.4L234 161.05L232.78 159.51L230.13 158.87L229.2 159.66L226.08 159.4L223.76 160.59L223.53 161.75L222.18 161.53L220.72 162.43L220.92 161.85L219.58 162.02L219.5 161.27L218.62 161.43L217.87 160.64L213.46 159.93L212.49 156.81L210.69 158.88L210.24 157.26L207.39 161.38L205.94 162.22L202 162.39L197.43 160.16L195.96 157.24L193.51 158.58L190.68 156.31L189.08 156.27L186.08 153.9L183.86 153.97L183.33 153.05L180 154.61L179.21 152.88L177.72 153.23L177.65 152.01L176.13 150.78L176.57 149.29L174.69 146.84L173.8 146.75L170.92 148.97L171.3 146.78L170.57 146.17L168.77 147.63L169.9 149.22L169.71 150.38L168.83 150.77L167.82 149.29L166.82 149.26L165.89 152.47L165.52 150.61L163.67 149.66L162.85 148.12L161.98 148.39L162.73 149.48L162.23 150.49L160.61 151.91L156.43 150.12L156.58 147.62L155.66 146.37L155.01 148.28L153.73 148.82L152.13 146.68L151.4 146.8L152.03 149.53L150.9 150.56L149.33 148.7L146.5 149.42L146.18 150.23L144.95 150.05L145.06 150.72L143.02 152.56L143.14 154.74L141.51 156.49L140.14 160.54L138.48 160.96L139.08 161.98L137.83 163.62L139.58 165.23L140.31 164.83L141.28 165.65L142.35 168.9L138.5 172.78L138.8 173.88L140.54 174.81L140.69 176.03L139.8 177.07L140.51 178.47L137.28 179.33L135.97 176.82L136.29 178.84L134.54 178.95L134.17 176.1L134.8 174.1L132.53 172.42L132.06 169.49L129.34 170.24L128.89 169.46L127.43 169.34L127.55 168.4L126.39 167.23L127.33 166.22L126.6 164.24L125.58 164.36L123.9 162.87L122.35 160.32L122.59 158.59L121.86 157.3L121.39 156.86L120.07 157.48L118.78 155.73L118.49 152.53L115.58 152.76L113.96 154.37L112.32 154.55L112.07 155.58L110.79 155.41L110.62 154.41L109.5 154.57L109.11 153.41L108.65 155.17L105.33 153.25L105.04 149.73L103.62 148.43L103.97 147.13L102.85 146.82L102.26 145.33L100.83 144.9L100.28 143.92L102.07 141.35L99.9002 142.31L99.4002 141.92L100.59 141.49L99.3402 140.32L100.28 139.47L99.7102 139.06L100.97 138.9L99.3602 138.37L99.3402 137.88L100.31 138.01L100 136.24L97.9902 135.2L98.7202 133.71L100.07 133.25L99.4702 131.46L100.97 130.08L102.15 131.08L104.93 130.97V131.88L106.06 132.62L106.55 135.17L108.02 135.06L109.12 134.47L109.68 132.37L111.56 131.17L109.39 128.85L110.9 129.13L112.07 128.33L113.64 128.77L115.77 127.69L114.84 124.9L113.95 124.96L112.8 121.06L109.29 119.25L108 114.33L108.44 112.62L106.51 110.98L106.19 109.72L107.71 110.03L106.9 108.19L107.27 107.19L105.24 106.79L105.79 104.13L102.74 103.22L100.72 99.4L100.78 97.91L102.86 95.56L101.58 90.61L109.63 81.85L108.62 77.3L109.25 75.69L110.46 74.36L111.31 75.76L112.57 76.41L113.79 75.89L116.15 77.82L116.18 78.93L115.13 79.56L112.65 84L115 84.03L116.94 86.07L118.36 86.4L118.4 88.08L120.87 92.96L119.12 95.59L121.44 94.72L123.54 95.5L123.2 96.5L125.53 96.58L126.27 92.92L128.31 90.75L127.57 90.65L126.75 89.05L124.69 88.51L124.43 86.25L123.21 85.55L125.1 83.82L123.97 80.55L124.51 79.51L127.54 78.42L128.14 76.79L127.35 74.37L129.77 73.18L131.91 70.74L132.97 70.67L135 65.98L136.46 65.83L136.63 63.44L138.97 59.07L138.86 57.02L137.78 55.81L138.05 52.58L136.39 50.5L137.73 49.36L137.91 46.47L142.31 45.48L142.93 47.27L144.81 48.58L146.07 46.18L147.52 45.47L147.28 46.93L146.59 47.19L147.57 47.78L147.45 55.43L149.34 56.06L150.34 59.07L151.86 60.89L152.32 60.51L156.19 62.07L158.33 60.86L160.13 61.62L161.54 57.34L163.65 58.44L170.27 55.06L171.23 56.16L172.62 55.16L174.88 57.21L174.11 59.36L175.15 60.03L175.03 62.22L177.95 63.71L177.42 66.27L178.64 67.12L179.74 66.35L181.37 66.64L184.13 64.28L183.04 61.66L180.48 58.67L180.61 57.17L181.69 56.48L182.21 54.71L183.4 54.47L183.61 52.95L182.71 52.75L182.35 51.51L179.23 52.06L177.13 50.33L177.83 48.82L177.26 47.77L177.87 44.76L177.36 43.27L180.24 40.16L180.34 37.99L181.75 38.37L184.78 36.82L186.09 37.46L187.32 36.22L187.79 37.38Z" fill="#C7C7C7" stroke="white" stroke-width="2"/>
<path d="M360.911 259.63L358.141 258.02L356.961 255.7L354.881 253.97L354.041 255.49L351.981 255.24L344.421 251.03L323.931 233.06L318.441 230.16L316.011 229.92L314.841 233.01L315.071 237.14L312.551 238.13L312.011 240.23L309.091 239.87L309.281 238.83L308.481 238.52L307.791 236.01L305.071 237.14V235L302.801 233.68L302.401 235.03L298.581 234.6L298.541 234.5L299.751 236.72L298.131 236.71L297.791 235.89L295.801 236.68L294.791 240.15L292.191 242.24L291.991 244.41L292.121 244.51L294.271 245.37L296.561 248.45L294.461 248.47L294.761 250.65L293.841 250.59L293.231 246.87L292.791 249.99L291.561 250.65L290.101 250.37L290.301 251.18L289.361 252.23L287.051 253.06L288.501 255.29L289.211 256.46L292.301 256.42L292.651 256.98L294.731 255.3L296.611 255.18L296.101 255.96L296.581 257.4L293.661 260.1L295.021 261.52L296.451 260.79L297.721 262.52L299.141 260.43L300.131 260.56L300.961 261.98L301.881 262.03L302.171 261.17L303.081 261.59L309.441 268.88L311.571 267.59L313.801 268.41L315.121 265.72L317.201 266.28L316.831 268.29L317.731 269.13L315.931 270.82L315.981 271.66L318.251 274.62L318.631 277.53L318.011 278.23L319.891 279.57L320.561 282.99L321.951 283.68L321.811 286.58L320.191 288.13L320.861 289.67L322.931 290.09L323.501 291.8L323.261 294.57L324.011 296.68L323.141 297.34L324.081 299.29L323.521 300.78L326.211 302.39L326.411 303.26L327.521 303.39L327.641 307.43L328.851 306.07L328.871 304.36L330.171 305.13L331.571 303.74L334.581 306.04L337.081 309.98L339.751 309.37L341.001 307.55L342.411 311.17L342.161 312.99L341.241 314.89L340.861 314.12L338.941 314.9L338.691 316.9L341.971 317.69L342.511 316.52L343.601 316.42L347.281 319.58L348.951 320.07L350.831 318.74L351.391 319.2L351.991 316.82L354.361 316.43L354.661 313.94L355.991 312.46L356.241 311.01L358.321 312.15L360.681 311.04L361.351 311.99L362.701 311.82L364.711 310.88L365.171 308.67L365.851 308.29L368.631 308.1L370.751 306.69L375.741 305.62L373.541 298.92L372.001 290.79L360.741 262.88L360.911 259.63ZM299.731 256.39L298.991 256.13L298.801 256.07L299.121 255.37L299.691 255.7L299.791 256.23L299.731 256.39Z" fill="#C7C7C7" stroke="white" stroke-width="2"/>
<path d="M420.761 363.06L426.201 365.95L431.191 366.88L435.161 371.22L438.321 372.45L438.531 375.72L436.401 378.79L437.221 381.72L436.261 383.31L437.261 384.53L436.511 385.05L437.511 386.54L439.371 387.39L437.321 388.41L436.641 389.91L435.871 389.14L435.841 389.96L433.751 390.87L432.431 393.29L429.191 391.79L427.941 393.31L428.851 394.11L428.141 399.69L429.701 400.36L431.691 402.66L428.711 404.76L426.061 404.97L424.481 406.57L420.471 404.86L418.751 407.76L416.871 408.34L415.931 407.6L413.961 407.83L414.001 408.77L412.951 408.84L410.761 410.79L409.541 409.03L406.201 409.55L405.011 408.64L404.631 407.05L396.621 404.71L394.591 403.62L394.331 402.61L392.551 402.6L392.351 401.76L388.901 401.69L388.511 403.07L386.221 401.16L384.021 405.19L385.401 406.86L385.671 409.28L384.371 408.42L382.221 408.9L380.161 406.45L380.441 404.93L378.921 404.16L379.681 402.87L378.671 402.02L381.531 399.96L380.311 398.9L381.161 398.72L381.371 397.77L380.001 396.26L380.681 395.63L380.581 394.26L379.181 390.67L377.191 388.95L379.291 388.43L381.161 389.41L381.441 387.95L382.771 387.9L383.641 385.5L384.801 385.41L385.591 387.48L386.221 384.84L388.211 384.79L388.881 383.55L389.131 384.56L389.981 384.69L390.401 383.66L388.881 382.77L387.631 379.22L388.051 378.32L390.271 378.17L391.701 375.95L394.611 373.57L395.551 374.83L396.791 374.7L397.771 376.89L398.341 377.11L399.391 375.79L401.831 377.41L402.931 378.48L404.001 382.77L403.211 383.41L405.251 383.78L410.011 378.65L411.731 374.92L414.091 373.26L414.911 370.16L417.211 367.32L420.051 365.36L419.141 364.52L420.311 362.67L420.761 363.06Z" fill="#C7C7C7" stroke="white" stroke-width="2"/>
<path d="M94.94 48.87L96.49 50.44L95.87 51.96L96.61 53.93L96.25 58.67L94.3 61.22L95.8 63.71L95.14 64.89L96.56 66.16L99.61 67.16L101.81 71.15L103.29 71.78L102.98 72.84L103.74 74.22L105.55 74.16L107.57 75.71L109.21 75.58L108.58 77.19L109.59 81.74L101.54 90.5L102.82 95.46L100.74 97.81L100.68 99.31L102.7 103.13L105.75 104.04L105.2 106.69L107.23 107.09L106.86 108.09L107.67 109.94L106.14 109.62L106.46 110.89L108.39 112.52L107.95 114.23L109.24 119.15L112.75 120.96L113.9 124.86L114.79 124.8L115.72 127.59L113.59 128.67L112.01 128.24L110.84 129.04L109.33 128.75L111.5 131.07L109.62 132.27L109.06 134.37L107.96 134.96L106.49 135.07L106 132.52L104.87 131.78L104.88 130.87L102.1 130.98L100.91 129.98L99.42 131.36L100.02 133.15L98.66 133.61L97.94 135.1L99.95 136.14L100.26 137.91L99.28 137.78L99.3 138.26L100.92 138.79L99.66 138.95L100.23 139.37L99.28 140.22L100.53 141.39L99.34 141.82L99.84 142.21L102.01 141.25L100.22 143.82L100.77 144.8L102.2 145.24L102.79 146.73L103.91 147.04L103.55 148.34L104.98 149.63L105.27 153.16L108.58 155.07L109.04 153.32L109.44 154.47L110.56 154.31L110.74 155.32L112.02 155.48L112.27 154.46L113.91 154.28L115.53 152.67L118.44 152.43L118.73 155.64L120.02 157.39L121.34 156.77L121.8 157.21L122.53 158.5L122.29 160.23L123.84 162.78L125.52 164.27L126.54 164.15L127.26 166.14L126.32 167.15L127.48 168.32L127.36 169.26L128.81 169.39L129.26 170.17L131.98 169.42L132.45 172.35L134.72 174.03L134.1 176.03L134.47 178.88L133.97 178.69L134 183.77L134.06 185.22L130.54 186.69L128.92 185.48L128.97 184L127.51 183.15L126.07 183.44L124.47 180.01L122.19 180.26L121.47 179.24L119.86 179.48L119.23 181.14L117.66 182.4L119.1 183.96L119.4 187.68L117.96 188.46L117.09 187.27L114.81 187.57L114.84 189.04L113.1 190.5L113.46 191.98L112.19 192.45L111.8 190.25L110.94 190.28L111.24 189.38L109.45 186.44L107.83 186.21L104.28 186L103.05 187.93L103.84 188.84L101.1 191.88L100.1 191.13L96.89 191.25L96.55 190.39L95.41 192.1L93.94 191.06L93.14 191.44L92.58 193.64L91.27 194.35L88.19 191.74L86.34 191.55L85.36 190.03L83.81 191.27L83.85 193.16L82.47 193.62L83.84 196.89L83.09 198.82L79.91 200.58L80.14 202.58L79.16 204.19L77.87 204.03L77.57 206.21L76.11 205.56L75.69 206.1V207.1L76.96 208.41L75.71 209.64L76.57 210.74L75.83 212.45L77.29 213.72L77.34 215.66L76.16 217.21L74.74 217.7L73.21 216.68L71.37 218.19L72.68 218.81L73.24 219.68L72.81 220.41L70.84 219.72L69.21 220.6L60.21 217.72L58.27 218.8L57.8 220.34L58.71 221.78L60.02 221.76L58.47 223.43L57.67 223.16L57.73 221.67L55.29 218.38L56.19 215.27L53.71 215.17L52.83 217.08L49.93 216.6L44.75 218.79L43.2 218.44L42.88 219.74L41.24 218.81L39.41 219.5L38.69 217.32L35.43 217.7L33.61 215.49L32.28 215.71L30.73 213.39L29.41 212.95L28.46 213.47L25.42 211.41L22.74 211.8L21.48 210.94L20.86 207.77L18.91 206.64L19.09 205.62L17.41 204.07L17.18 202.73L15.36 201.9L15.64 197.67L18.5 197.11L14.89 193.48L13.77 189.85L14.9 188.15L16.5 187.98L17.68 186.82L18.56 183.64L19.49 183.56L18.51 181.16L19.22 179.43L20.51 178.45L25.09 178.74L24.61 176.86L22.76 175.77L22.21 172.55L21.15 171.39L22.31 168.92L21.45 167.78L17.87 166.13L16.57 167.43L14.17 166.97L11.09 164.88L10.93 163.99L8.4 163L8.6 160.92L8.02 160.57L9.1 159.03L7.7 156.85L8.39 156.3L8.05 155.14L4.42 154.73L3.8 150.98L2.88 150.72L2 148.53L4.38 147.05L4.78 145.97L7.95 146.15L9.26 144.59L13.34 146.3L13.43 146.94L15.69 146.25L15.7 143.95L18.39 143.85L18.81 142.34L21.22 140.22L22.51 140.43L23.74 139.69L24.71 140.82L26.85 138.2L27.58 138.3L28.11 135.67L26.84 132.39L27.82 132.21L28.23 130.67L29.55 129.98L29.56 128.51L30.8 126.71L27.06 124.7L26.44 122.25L28.21 118.69L28.57 121.54L29.47 120.86L32.54 121.93L34.93 118.92L37.73 118.85L39.61 117.96L40.57 118.63L44.11 115.79L45.04 114.22L46.27 113.83L48.12 114.3L50.2 113.17L52.21 114.42L52.34 115.29L53.75 114.63L55.72 115.93L58.04 115.55L58.72 116.16L63.61 112.69L66.25 112.49L67.26 113.14L67.99 110.1L69.19 109.86L67.37 106.13L69.03 103.3L68.67 102.1L67.05 101.5L65.34 98.4L66.04 93.35L65.34 89.29L66.06 88.61L66.16 84.98L67.63 83.4L71.78 83.52L72.89 82.35L73.01 80.83L74.17 80L73.5 77.89L74.04 75.9L77.76 75.03L78.32 73.6L80.23 72.6L80.11 71.11L80.9 69.97L79.53 66.69L78.06 64.88L76.35 64.08L79.54 60.91L80.99 61.35L83.18 60.48L83.92 58.55L85.84 57.7L85.87 56.35L88.25 55.36L88.72 53.86L87.27 53.16L88.05 51.92L89.05 51.84L91.04 49.92L94.94 48.87Z" fill="#C7C7C7" stroke="white" stroke-width="2"/>
<path d="M483.429 370.91L487.279 371.66L492.189 375.4L491.519 376.94L492.779 379.33L492.699 380.93L492.309 382.9L490.949 384.26L486.219 387.42L485.929 388.5L477.539 393.75L477.689 399.44L480.189 404.17L483.649 406.68L493.019 411.02L495.999 413.36L504.099 416.41L512.529 421.5L522.459 424.66L524.119 426.09L525.919 426.14L526.369 426.89L527.309 426.48L527.559 427.21L531.749 429.03L538.599 431.27L548.239 437.58L551.869 442.01L553.869 442.92L558.429 447.21L570.239 451.95L576.439 456.25L582.049 456.92L583.169 458.77L582.679 459.62L586.269 459.74L585.939 460.83L587.499 462.76L586.959 464.8L589.209 467.58L591.589 469.75L597.469 473.03L606.849 483.09L608.849 487.55L608.619 489.31L610.169 492.93L611.589 493.8L611.079 494.28L611.669 495.93L609.949 497.51L609.459 499.89L607.469 501.27L606.029 504.44L605.149 509L605.179 515L604.069 516.56L602.859 516.88L599.029 513.92L593.929 512.85L587.499 507.62L584.779 502.88L585.989 502.38L585.809 500.43L583.729 499.31L585.239 498.2L585.649 495.7L581.039 489.97L581.369 488.06L580.349 485.87L577.829 483.78L568.759 482.45L559.979 483.13L556.829 480.85L554.129 480.56L545.449 475.54L544.329 475.57L544.629 474.66L546.549 473.82L546.769 472.34L545.419 470.7L543.129 470.81L542.549 469.19L539.699 468.12L535.879 468.69L532.379 470.59L528.809 473.75L526.679 477.26L525.899 475.4L524.149 473.93L523.789 472.31L522.019 471.24L520.319 471.68L519.459 470.73L520.419 468.65L519.259 467.77L519.699 466.96L518.739 465.95L519.169 463.06L519.799 462.6L518.879 460.54L519.779 456.93L518.559 455.52L519.579 455.01L516.659 452.79L516.129 453.54L514.959 452.84L514.789 451.85L513.789 452.49L512.099 451.76L511.989 453.5L511.139 452.17L510.169 452.43L510.239 454.32L508.199 451.85L504.709 455.89L503.179 455.47L502.409 453.73L495.839 447.69L492.899 441.23L490.899 440.58L488.769 442.54L487.179 441.03L481.589 438.65L480.989 437.52L482.499 437.79L484.299 435.74L483.989 434.19L484.629 433.15L482.789 431.65L482.179 432.07L481.569 429.72L480.309 429.42L480.069 428.4L478.329 428.1L476.029 426.45L474.609 427.3L473.799 427.01L473.979 427.77L472.309 428.2L472.459 429.15L470.779 430.07L469.319 429.01L466.809 429.91L462.159 429.13L460.219 429.51L458.869 430.74L459.199 431.97L455.599 430.17L454.029 430.31L451.929 428.51L450.229 429.8L447.399 428.61L446.299 429.51L444.289 428.07L443.559 426.18L441.989 425.41L442.809 423.42L444.829 422.22L443.979 419.84L445.589 418.82L444.329 417.39L442.709 417.71L441.669 416.23L438.249 416.37L438.039 414.2L435.069 413.14L434.449 410.52L435.289 409.35L436.349 409.17L435.809 407.97L436.629 407.19L436.449 406.39L433.599 405.59L431.789 402.75L429.799 400.45L428.239 399.78L428.959 394.2L428.039 393.39L429.289 391.87L432.529 393.37L433.849 390.96L435.939 390.05L435.969 389.22L436.739 389.99L437.419 388.49L439.479 387.47L437.619 386.63L436.619 385.13L437.359 384.61L436.369 383.39L437.329 381.8L436.509 378.87L438.639 375.81L438.429 372.54L448.859 373.18L450.109 374.2L453.299 374.32L463.229 372.47L466.599 373.42L470.729 373.21L483.429 370.91Z" fill="#C7C7C7" stroke="white" stroke-width="2"/>
<path d="M91.4602 561.47L92.0102 562.43L94.2701 561.78L96.3902 565.35L95.2502 570.97L93.6902 571.86L90.8902 566.51L90.3302 563.66L91.4602 561.47ZM88.2701 556.94L88.1402 562.4L86.5201 562.78L85.1702 561.83L85.2202 560.14L83.6802 559.23L86.1202 556.99L88.2701 556.94ZM161.27 441.11L161.82 441.62L159.33 443.21L158.8 442.8L161.56 440.53L161.27 441.11ZM84.1502 437.22L83.5901 437.79L83.5302 436.79L84.1502 437.22ZM88.9602 427.57L89.2302 428.7L90.4702 429.53L89.7402 430.27L89.5702 432.23L86.8401 430.96L84.6602 433.99L85.3202 433.8L86.1402 435.42L85.6702 436.79L83.3702 436.5L84.3602 434.03L83.7302 433.94L83.8902 432.82L85.3702 432.2L86.2402 430.6L87.2001 430.49L86.6602 428.54L88.9602 427.57ZM148 419.24L148.86 420.77L147.62 422.85L148.48 423.08L146.18 423.43L147.27 419.11L148 419.24ZM141.27 418.59L142.24 419.2L141.18 420.14L141.27 418.59ZM135.6 418.13L138.12 420.2L137.37 422.08L138.43 423.19L140.88 423.02L141.15 421.74L142.4 421.6L142.94 423.42L143.51 423.57L145.49 423.59L144.51 424.86L145.77 425.08L146.67 426.46L146.5 429.38L147.99 427.12L147.71 425.97L150.2 426.11L150.51 424.96L151.43 426.2L150.87 426.53L151.85 426.59L151.58 427.82L152.91 427.76L153.17 428.88L152.17 430.4L151.62 429.73L151.23 430.1L151.52 431.54L150.69 432.06L149.92 435.04L150.69 435L150.86 433.65L152.62 433.12L152.09 435.37L153.41 435.43L153.37 434.61L153.83 434.91L154.32 434.12L157.87 435.95L157.17 436.69L155 435.58L153.62 436.77L154.2 437.81L152.91 439.54L153.24 440.47L150.52 440.07L149.61 440.48L150.51 440.95L152.63 441L153.49 441.35L153.11 441.76L154.08 442.9L155.56 440.85L156.82 441.09L155.34 442.97L157.58 444.08L157.05 445.44L158.72 445.07L160.82 446.52L160.09 447.08L159.09 446.72L158.68 447.69L159.25 448.46L158.37 448.92L158.23 450.18L160.59 452.52L160.43 455.24L162.43 457.75L161.82 460.31L162.46 462.86L164.3 464.58L164.58 466.39L166.24 467.43L163.1 476.6L159.16 479.96L155.92 485.5V488.93L157.29 492.98L159.31 495.69L161.37 496.89L161.35 498.55L158.98 504.37L159.14 506.49L160.37 506.8L160.58 507.55L158.75 509.4L159.49 512.57L158.12 517.24L158.57 521.9L156.93 525.93L157.46 531.44L156.21 535.88L156.93 538.56L154.46 546.06L154.77 548.17L156.25 549.38L154.69 549.9L153.62 551.54L152.62 556.17L153.47 557.45L152.39 560.43H151.37L150.45 561.56L150.58 562.86L149.58 562.02V560.57L148.63 560.21L146.21 561.03L138.97 555.06L134.53 554.13L132.4 555.42L131.92 557.13L129.36 555.07L127.23 556.01L124.69 559.17L124.64 563.32L126.11 565.37L124.86 570.1L124.31 569.55L123.58 569.92L116.49 577.06L115.23 577.01L114.23 575.7L113.58 576.55L112.3 574.51L109.52 572.92L109.35 573.96L106.59 574.64L106.88 575.68L105.79 576.23L106.29 577.56L105.43 577.85L105.72 575.84L103.67 575.95L104.4 572.65L101.86 570.34L101.43 566.08L99.7701 565.12L96.8502 565.06L97.3102 563.21L96.6002 561.66L95.9602 561.06L94.8602 561.65L94.8202 558.74L91.3401 555.01L91.2402 554.03L94.2302 551.23L94.7602 549.85L93.9902 547.14L92.6102 546.65L92.4102 544.94L91.5901 544.26L93.5702 541.13L93.5201 539.95L92.0302 538.97L92.2402 537.97L95.6502 532.93L96.5602 529.25L95.4602 527.1L95.9002 525.08L95.2802 523.95L95.7902 522.35L95.2902 519.02L95.9702 518.18L97.7502 521.25L98.5302 521.19L98.8702 519.12L100.49 516.36L100.89 512.08L99.3702 509.31L96.9602 509.16L95.0502 511.12L92.8602 509.05L92.6102 504.56L93.6402 501.61L91.8202 500.55L93.1202 499.47L93.6202 500.17L95.7602 499.51L97.6002 497.55L97.6802 496.04L95.9102 491.12L97.2402 483.78L96.0602 481.52L94.0802 480.37L92.1301 480.26L91.9501 478.82L93.0901 475.46L91.6602 470.08L89.8502 469.44L87.9102 463.4L85.2001 463.94L85.0602 464.86L83.0201 464.91L83.0002 463.15L83.7502 462.63L82.6602 461.49L80.8502 464.34L80.2902 464.16L80.0002 461.17L82.0502 460.23L83.1301 457.05L81.5702 456.38L79.4102 453.92L81.1602 451.57L80.8801 449.63L82.2402 448.45L84.0802 443.39L81.6802 440.05L83.0802 437.65L84.8002 438.89L84.5502 441.75L88.6802 446.18L91.7302 446.79L94.0102 446.41L95.9501 447.83L101.39 447.03L108.22 441.51L113.23 440.77L117.37 436.06L117.26 434.75L120.34 432.9L124.45 427.32L126.1 426.43L126.75 427.16L129.34 426.66L129.95 425.27L131.63 425.2L132.45 424.28L131.69 422.37L132.36 420.19L131.07 419.97L131.22 419.03L132.27 419.74L133.71 418.97L133.77 419.89L135.6 418.13ZM145.28 417.47L146.74 419.83L146.31 420.98L143.35 421.44L142.9 420.18L144.38 419.06L144.25 417.96L144.94 418.7L145.28 417.47Z" fill="#C7C7C7" stroke="white" stroke-width="2"/>
<path d="M304.679 791.79L309.589 792.3L309.909 793.97L303.929 792.36L304.679 791.79ZM275.259 708.81L277.599 710.01L278.199 709.64L280.209 711.34L280.329 713.7L278.919 715.36L277.039 715.23L273.719 711.16L273.809 709.6L275.259 708.81ZM300.459 644.33L299.519 641.05L300.839 640.34L300.459 644.33ZM293.359 637.17L294.149 638.66L295.279 638.25L296.369 639.03L296.359 640.18L295.629 640.36L294.689 639.34L292.229 639.62L291.399 638.22L293.359 637.17ZM280.849 634.73L282.179 637.59L279.689 636.84L278.989 634.68L280.849 634.73ZM459.949 614.73L462.369 616.35L465.109 617.01L462.349 617.77L460.839 619.02L460.069 621.91L460.909 621.74L456.789 629.33L447.029 642.06L446.999 643.71L445.339 644.84L445.539 645.76L442.239 650.02L441.859 651.14L442.589 652.86L441.569 656.44L440.349 658L440.419 661.52L437.299 664.47L435.759 667.34L436.349 677.94L439.689 680.01L441.199 680.39L441.879 679.72L444.519 682.95L443.969 683.71L443.019 683.05L442.829 684.72L442.369 682.85L441.219 683.25L440.889 686.46L441.889 688.8L443.259 688.35L443.829 689.18L443.039 688.85L442.659 689.41L443.329 691.04L444.759 691.85L446.499 691.77L446.599 694.83L445.519 694.42L445.429 696.01L446.129 696.45L447.099 695.88L448.539 698.37L446.749 697.57L445.459 698.09L444.729 700.25L442.049 700.89L439.159 704.08L436.199 711.38L438.509 718.67L438.049 719.82L437.239 719.32L435.459 721.01L432.259 717.62L429.169 718.18L426.919 716.26L425.059 715.78L420.109 717.49L418.179 716.43L415.449 716.42L412.759 713.87L410.239 712.87L405.369 712.24L403.599 710.33L402.779 706.85L399.569 701.09L393.549 694.99L388.559 692.64L383.649 691.55L378.389 691.67L375.189 692.52L373.679 692.09L370.979 689.34L367.289 689.01L362.669 686.15L361.719 684.03L357.249 680.36L355.729 680.75L354.969 679.91L351.869 679.82L349.459 677.3L345.379 675.28L344.059 673.71L342.779 673.62L341.719 671.23L337.289 666.93L332.729 666.16L329.819 666.85L326.859 662.4L324.559 661.61L317.499 661.36L312.129 662.69L308.709 657.49L306.539 656.11L304.219 656.26L301.999 653.69L301.809 650.8L299.369 647.13L301.319 646.01L302.459 642.4L301.039 640.25L303.109 637.35L302.909 635.34L304.149 634.79L302.669 633.19L304.179 632.81L306.839 629.79L308.529 630.1L310.319 629.39L311.529 628.18L311.409 627.06L313.989 627.16L315.339 625.21L314.229 623.02L315.039 621.96L315.379 622.81L316.959 622.63L317.009 624.44L318.089 625.5L318.049 627.1L319.179 629.11L323.739 632.64L328.239 631.4L332.819 628.55L331.539 625.25L332.519 625.02L333.179 623.77L332.779 623.09L334.399 621.72L338.659 623.23L340.769 622.37L341.209 621.01L342.959 621.27L345.139 619.67L345.799 621.35L347.669 622.47L348.179 624.62L347.439 625.76L348.489 627.23L351.779 628.15L354.029 627.6L354.919 626.48L356.409 626.9L356.439 629.9L357.989 631.68L365.429 635.7L368.209 636.13L373.139 634.79L377.459 632.24L381.319 631.48L383.559 632.96L385.729 633.19L387.619 632.23L394.829 633.67L399.209 633.1L401.969 631.55L404.689 631.96L412.909 629.33L418.509 623.35L420.669 624.26L425.789 622.9L427.019 621.64L429.919 624.19L433.699 624.2L434.539 625.78L436.499 626.18L440.389 624.04L442.639 621.49L443.779 618.31L442.909 616.48L443.749 616.42L444.449 617.95L443.909 620.06L446.159 620.69L451.899 619.12L458.199 614.87L459.949 614.73ZM429.269 606.98L431.159 608.43L431.459 610.14L430.419 610.32L428.719 609.23L428.149 607.4L429.199 606.05L429.709 606.55L429.269 606.98ZM429.379 600.26L429.399 602.2L430.309 602.85L429.029 603.27L428.929 605.61L426.039 602.57L426.869 600.39L429.379 600.26ZM398.599 598.12L398.539 599.54L397.669 599.59L397.549 598.44L398.599 598.12ZM422.149 596.25L424.719 596.37L424.689 599.24L423.899 599.42L420.829 597.66L421.379 596.24L422.149 596.25ZM408.159 596.11L409.579 596.39L410.459 598.05L408.429 597.85L407.699 596.67L408.159 596.11ZM435.219 592.22L435.129 593.25L434.199 593.56L434.339 592.36L435.219 592.22ZM338.739 587.75L339.169 588.04L338.429 588.9L336.719 589.05L337.069 587.83L338.099 587.29L338.739 587.75ZM442.889 581.4L443.779 582.06L442.249 583.97L440.939 582.67L442.889 581.4Z" fill="#C7C7C7" stroke="white" stroke-width="2"/>
<path d="M191.13 343.23L191.99 345.03L191.23 345.76L190.22 345.59L190.06 343.44L191.13 343.23ZM220.46 340.48L222.43 342.51L222.21 345.53L220.24 343.09L219.42 342.96L220.46 340.48ZM179.15 324.6L180.23 326.71L179.58 328.19L177.36 327.21L178.79 326.54L179.15 324.6ZM196.48 307.33L197.81 308.73L197.04 310.86L197.36 313.53L194.84 314.89L197.29 316.59L196.74 318.47L194.27 317.67L193.35 314.94L192.58 314.57L191.36 314.81L191.43 316.48L190.53 314.88L189.7 316.54L187.47 315.55L187.25 317.2L184.53 316.46L182.88 316.72L183.07 317.25L181.26 316.14L180.23 314.39L180.33 312.81L182.17 311.4L185.02 311.33L187.56 312.88L187.73 312.09L188.8 311.81L188.44 311.24L189.09 310.77L188.48 309.93L192.11 310.8L191.35 311.77L193.25 312.11L195.92 307.1L196.48 307.33ZM166.4 293.58L167.09 295.56L165.26 297.98L164.34 296.65L164.85 294.35L166.08 293.05L166.4 293.58ZM289.49 241.55L289.57 241.71L289.87 242.81L287.69 243.94L286.32 242.35L286.59 241.23L289.36 241.25L289.49 241.55ZM158.74 201.9L162.34 199.81L165.75 194.45L171.1 193.86L173.54 194.73L174.04 195.97L175.09 196.19L174.55 198.82L175.68 200.08L179.96 203.02L182.4 202.51L188.03 208.47L190.41 207.28L192.6 208.51L194.2 208.54L197.15 211.58L198.82 211.29L200.04 211.96L199.99 213.34L201.73 214.94L201.97 216.49L205.39 219.54L207.06 219.12L206.99 217.78L207.99 216.55L213.56 216.68L218.53 220.71L220.81 221.22L221.49 222.13L221.17 223.08L221.83 223.38L226.69 217.92L227.09 218.83L226.48 219.87L228.03 221.02L230.79 221.34L234.13 219.89L237.22 220.78L239.76 220.62L239.51 219.54L236.58 217.84L236.69 216.9L240.68 216.76L242.96 214.69L243.16 213.62L245.65 213.36L248.11 210.97L249.44 212.18L249.78 214.33L251.18 214.71L252.91 216.68L254.12 216.94L255.15 215.94L257.75 216.47L257.95 217.51L256.5 219.61L259.16 219.97L264.63 218.87L264.29 221.56L262.26 223.75L261.83 225.74L260.15 226.38L260.35 227.47L259.68 227.38L259.43 228.53L261.6 230.61L261.27 232.24L263.09 233.46L262.82 236.52L266.4 238.52L268.4 240.93L273.07 241.14L273.59 242.44L274.94 242.62L275.15 243.59L276.79 244.64L277.85 244.22L279.31 245.12L280.23 244.87L281.34 246.14L283.06 245.24L284.48 245.4L285.92 244.6L287.47 246.91L288.3 244.94L290.34 245.32L291.98 244.43L292.15 244.56L294.3 245.42L296.59 248.5L294.49 248.52L294.79 250.7L293.87 250.64L293.26 246.92L292.82 250.04L291.59 250.7L290.13 250.42L290.33 251.23L289.39 252.28L287.08 253.11L288.53 255.34L286.05 258.47L285.28 261.06L283.09 260.88L282.54 261.44L282.37 263.2L284.98 264.68L284.88 265.24L282.75 266.14L281.74 267.84L280.65 267.5L278.94 269.24L279.27 270.24L281.41 270.02L281.52 272.68L282.95 272.14L283.6 272.74L284.61 275.03L284.02 276.74L284.42 277.64L286.65 278.48L287.55 276.25L289.09 277.51L282.42 281.69L280.22 280.46L279.4 280.83L279.9 282.16L278.91 284.89L273.73 287.94L273.24 289.26L274.12 291.7L273.79 292.92L274.58 294.49L275.42 293.44L276.69 294.8L274.27 304.65L275.36 305.4L275.51 307.21L274.23 307.29L272.28 309.63L269.8 309.49L268.18 310.56L267.67 312.57L266.97 311.25L265.77 310.78L264.61 313.22L268.39 316.18L267.35 318.54L266.12 318.53L266.53 321.15L267.58 321.63L267.66 322.71L266.26 323.63L264.89 323.44L263.98 325.58L262.69 325.33L261.19 326.44L260.99 327.52L259.25 328.4L258.44 328.17L257.77 329.06L256.63 328.01L256.01 328.34L256.46 330.1L255.09 332.04L257.88 333.95L257.97 337.38L251.17 337.46L249.32 341.61L240.95 339.66L239.78 338.71L237.05 339.43L237.18 340.91L236.19 341.39L235.96 342.61L234.14 342.76L232.78 341.06L231.16 340.55L230.72 337.97L231.7 336.74L232.55 337.61L234.79 337.42L235.8 335.36L236.11 332.24L234.38 328.67L232.62 329.03L231.64 326.15L230.54 325.08L230.75 324.1L226.61 322.33L225.68 318.61L223.47 316.32L219.04 314.54L215.65 314.14L212.57 312.12L214.41 310.99L214.55 307.34L215.44 306.05L214.78 304.58L212.99 303.24L209.79 301.75L206.93 301.44L203.2 302.02L202.81 303.79L200.5 303.01L199.91 299.07L201.6 298.27L202.72 292.06L202.06 280.94L200.89 278.04L198.73 275.78L196.9 270.33L195.82 270.23L194.67 267.07L192.05 265.09L190.43 260.76L190.75 258.4L188.89 250.68L189.49 249.8L189.24 245.79L187.4 237.06L182.36 229.37L178.24 225.72L176.08 224.68L178.31 222.14L178.58 220.76L176.21 219.29L174.43 220.79L174.92 219.56L173.98 218.17L173.79 215.81L169.86 215.95L171.1 213.97L171.85 213.91L170.38 212.89L168.3 214.64L168.73 211.91L167.92 211.21L167.83 208.64L165.24 207.58L161.21 204.45L160.2 201.87L158.74 201.9Z" fill="#C7C7C7" stroke="white" stroke-width="2"/>
<path d="M287.92 2.44L289.65 3.8L288.49 4.62L287.95 6.79L284.98 7.1L283.66 8.37L284.51 12.17L286.11 13.69L284.81 15.61L287.08 16.04L288.52 18.36L289.89 17.29L291.65 17.7L293.23 20.92L292.1 22.77L292.04 25.09L295.66 25.74L297.03 30L302.07 32.91L299.61 33.83L297.94 35.7L297.06 35.5L297.44 36.83L296.93 37.29L295.67 37.35L294.93 36.46L291.94 37.4L290.73 36.64L287.39 39.29L287.28 37.03L285.73 36.05L284.9 36.34L280.97 33.27L281.27 35.6L279.76 38.28L279.93 39.77L277.47 43.69L276.89 42.92L275.73 42.98L274.55 44.16L272.98 43.84L268.11 46.3L267.99 47.94L271.06 48.36L271.66 49.75L269.36 52.47L269.09 56.13L268.28 55.39L265.92 56.82L268.83 59.26L269.41 60.66L268.74 62.56L269.53 63.26L271.69 62.76L272.13 64.7L272.77 64.29L273.98 64.88L273.19 66.85L275.62 69.07L275.01 70.67L273.91 70.23L272.2 74.18L268.01 75.64L265.78 75.4L265.03 76.18L264.37 75.41L261.63 76.28L261.62 78.3L262.55 79.83L260.49 80.44L261.23 81.12L260.5 81.93L261.64 83.95L260.73 85.82L256.52 85.52L255.98 82.71L254.09 82.11L251.94 82.4L249.2 84.67L245.58 84.44L245.96 87.29L244.67 87.45L243.99 88.99L244.34 89.98L241.86 88.64L241.79 87.86L241.81 89.22L239.39 89.04L238.53 93.95L236.18 96.78L236.78 99.14L235.23 98.99L235.36 102.59L232.86 105.96L231.26 105.75L229.33 103.91L227.69 104.79L227.25 103.62L225.41 106.27L224.92 105.23L223.42 106.92L221.93 105.99L222.58 104.85L220.53 103.84L218.34 103.83L220.53 99.8L219.75 98.29L221.03 97.19L218.35 95.53L214.39 94.76L214 95.63L212.73 94.64L208.72 95.45L208.24 97.6L206.27 97.66L204.12 99L202.8 98.87L202.39 98L203.08 96.61L200.83 95.65L200.31 91.34L201.22 89.24L199.92 87.25L200.08 85.22L198.34 84.9L198.29 83.9L198.86 82.07L200.06 81.12L199.7 79.22L203.03 75.15L203.96 70.73L202.9 69.14L205.17 64.98L204.66 62.85L203.85 62.38L204.73 61.11L204.13 59.09L201.49 57.82L204.08 55.28L206.05 55.16L207.54 53.6L206.7 52.22L206.93 50.02L205.9 48.66L203.26 46.89L199.49 46.59L198.35 43.9L199.35 43.01L200.24 37.94L197.96 35.86L195.67 36.17L194.83 32.52L196.37 30.61L195.62 28.86L197.81 27.12L196.59 24.55L198.03 23.75L199.49 19.61L200.61 20.51L203.41 20.31L203.04 21.19L209.13 18.35L210.49 19.12L210.48 20.13L213.65 21.42L214.1 22.23L212.35 24.87L213.69 25.1L215.32 24.28L216.72 25.8L217.9 25.31L220.38 26.76L222.04 25.89L227.29 26.45L228.23 23.59L230.52 22.39L229.9 19.95L231.33 17.33L231.19 15.53L232.09 14.23L233.4 14.41L234.58 13.53L234.72 11.58L235.97 11.21L236.89 11.82L242.66 9.59L243.51 10.17L244.58 9.7L246.97 11.65L248.84 10.86L250.84 8.14L253.77 10.26L257.97 8.02L260.25 9.54L262.65 9.6L263.52 11.02L264.55 11.31L266.33 9.66L269.12 9.53L273.14 6.43L274.75 6.35L276.18 5.2L278.41 5.39L279.41 4.29L281.24 4.48L282.38 3.04L283.45 3.43L286.83 2L287.92 2.44Z" fill="#C7C7C7" stroke="white" stroke-width="2"/>
<path d="M299.511 256.71L298.991 256.13L298.801 256.07L299.041 255.39L299.701 255.7L299.801 256.23L299.511 256.71ZM288.481 255.23L289.191 256.4L292.281 256.36L292.631 256.92L294.711 255.24L296.591 255.12L296.081 255.9L296.561 257.34L293.641 260.04L295.001 261.46L296.431 260.73L297.701 262.46L299.121 260.37L300.111 260.5L300.941 261.92L301.861 261.97L302.151 261.11L303.061 261.53L309.421 268.82L311.551 267.53L313.781 268.35L315.101 265.66L317.181 266.22L316.811 268.23L317.711 269.07L315.911 270.76L315.961 271.6L318.231 274.56L318.611 277.47L317.991 278.17L319.871 279.51L320.541 282.93L321.931 283.62L321.791 286.52L320.171 288.07L320.841 289.61L322.911 290.03L323.481 291.74L323.241 294.51L323.991 296.62L323.121 297.28L324.061 299.23L323.501 300.72L326.191 302.33L326.391 303.2L327.501 303.33L327.621 307.37L328.831 306.01L328.851 304.3L330.151 305.07L331.551 303.68L334.561 305.98L337.061 309.92L339.731 309.31L340.981 307.49L342.391 311.11L342.141 312.93L341.221 314.83L340.841 314.06L338.921 314.84L338.671 316.84L337.921 321.3L336.591 322.58L334.971 321.94L334.921 322.72L332.121 324.44L330.061 323.36L329.351 324.89L326.101 324.85L325.311 325.82L323.301 324.83L322.721 326L323.341 328.55L321.251 329.22L319.401 330.85L317.351 330.75L317.181 332.08L314.121 332.96L315.491 335L312.501 336.97L311.301 337.02L310.411 335.17L309.221 335.25L309.001 339.13L304.671 342.49L303.801 341.49L303.851 339.81L300.211 340.34L301.181 338.92L298.891 338.13L298.911 336.07L299.591 335.84L298.851 335.16L299.101 333.3L297.631 333.14L295.631 334.76L294.401 333.5L292.531 333.72L293.221 333.26L291.701 332.46L292.451 331.79L291.411 330.94L291.621 328.99L289.951 328.21L289.401 323.74L287.731 321.68L286.111 321L284.731 322.19L284.061 321.98L283.941 322.73L282.931 321.66L279.251 322.97L275.111 320.41L273.821 318.3L275.671 317.26L276.681 315.28L273.901 313.49L272.281 309.61L274.231 307.27L275.511 307.19L275.361 305.38L274.271 304.63L276.691 294.78L275.421 293.42L274.581 294.47L273.801 292.9L274.131 291.68L273.251 289.25L273.741 287.93L278.921 284.88L279.921 282.15L279.421 280.83L280.251 280.47L282.451 281.7L289.121 277.52L287.581 276.26L286.681 278.49L284.451 277.65L284.061 276.75L284.651 275.04L283.641 272.75L282.991 272.15L281.571 272.69L281.461 270.03L279.321 270.25L278.991 269.25L280.701 267.51L281.791 267.85L282.801 266.15L284.931 265.25L285.031 264.69L282.421 263.21L282.591 261.45L283.141 260.89L285.331 261.07L286.101 258.48L288.481 255.23Z" fill="#C7C7C7" stroke="white" stroke-width="2"/>
<path d="M50.7587 84.1801L51.3387 85.3501L55.1587 84.8101L56.0687 86.2901L57.3887 86.8301L58.0287 88.7601L59.6287 87.6101L62.0987 89.2201L63.2687 88.5601L65.3387 89.2901L66.0387 93.3501L65.3387 98.4001L67.0488 101.5L68.6687 102.1L69.0287 103.3L67.3688 106.13L69.1888 109.86L67.9887 110.1L67.2588 113.14L66.2487 112.49L63.6087 112.69L58.7188 116.16L58.0387 115.55L55.7188 115.93L53.7487 114.63L52.3387 115.29L52.2087 114.42L50.1987 113.17L48.1187 114.3L46.2687 113.83L45.0387 114.22L44.1087 115.79L40.5687 118.63L39.6087 117.96L37.7287 118.85L34.9287 118.92L32.5387 121.93L29.4688 120.86L28.5687 121.54L28.2087 118.69L26.4388 122.25L23.7187 121.86L23.9887 120.23L21.1988 119.47L20.9687 114.41L20.0188 113.41L21.1888 109.62L19.4488 108.57L16.8488 108.75L16.3287 107.3L13.8787 106.38L11.3587 103.47L11.7287 102.27L10.9688 99.3201L11.9787 95.1801L13.1687 94.84L14.1587 95.4801L14.8888 94.2901L16.6788 94.9101L18.1687 94.4401L18.6988 93.4101L21.0087 92.6001L21.3287 90.5401L23.3887 88.8001L26.5487 93.6001L29.1188 92.0501L30.9787 93.5501L32.2188 91.4401L34.3487 91.3801L36.1787 88.9601L40.8988 90.8001L45.3487 88.0001L45.3088 87.0101L46.6587 85.9601L48.8787 86.3801L49.1787 84.2501L50.7587 84.1801Z" fill="#C7C7C7" stroke="white" stroke-width="2"/>
<path d="M305.59 159.18L304.24 159.95L305.18 158.9L304.28 158.53L305.88 158.35L305.59 159.18ZM303.95 157.08L305.14 157.98L302.77 158.51L303.39 156.76L303.95 157.08ZM303.58 33L306.42 34.95L311.96 34.39L314.03 35.13L314.92 36.22L314.73 38.02L315.7 39.68L315 41.95L315.88 43.11L313.33 43.17L309.87 45.35L309.75 46.29L310.98 47.09L311.38 48.83L309.56 48.05L308.52 48.84L306.67 48.05L305.1 49.3L304.69 48.87L303.21 50.91L302.93 52.66L300.93 54.42L301.25 55.81L300.65 55.54L300.83 56.14L299 57.07L298.67 59.09L296.76 58.82L295.72 59.66L295.76 61.65L293.96 63.54L296.08 66.39L298.16 66.38L298.42 67.96L300.26 67.86L300.56 69.99L302.98 71.94L302.53 75.52L299.63 77.48L297.86 80.29L298.78 81.09L299.49 83.69L299.51 87.16L300.94 87.2L301.99 88.71L303.47 88.72L304.73 93.25L306.12 94.51L305.91 95.71L307.91 96.76L308.59 95.16L309.83 95.82L309.95 96.72L311.07 97.24L311.12 98.86L315 95.27L315.67 95.95L317.65 93.85L318.78 94.69L318.35 95.69L318.98 96.42L319.53 95.38L321.7 94.3L322.34 94.37L321.94 95.47L323.19 96.61L324.71 95.67L325.2 96.76L326.75 96.26L326.3 94.85L326.89 94.61L327.47 96.19L327.43 96.5L327.83 96.87L327.66 97.69L328.48 98.04L327.39 98.68L329.42 100.61L328.93 100.87L329.58 102.17L329.23 103.34L330.2 102.63L330.77 105.3L331.56 105.5L331.19 106.3L332.2 107.11L332.03 108.43L333.01 108.31L332.89 108.92L333.96 109.52L333.4 110.29L328.48 110.63L328.57 109.88L327.66 109.53L327.18 110.89L324.18 111.28L323.23 112.57L316.97 116.48L301.05 123.89L299.52 125.86L297.85 125.02L295.93 127.6L294.49 130.41L294.39 131.49L295.22 131.88L294.14 132.28L292.58 138.77L293.94 139.19L292.86 140.26L293.43 142.78L294.71 144.23L294.42 149.53L295.86 150.75L297.44 153.85L296.93 153.51L296.13 154.46L297.04 155.02L297.9 154.39L297.66 155.5L298.17 155.64L298.72 155.33L298.28 153.57L298.77 153.6L303.07 158.97L302.41 163.44L301.34 164.42L301.38 167.27L299.78 166.72L300.12 163.86L299.1 163.42L298.18 163.8L297.43 165.52L298.3 166.61L297.92 168.68L298.7 169.34L299.35 168.89L299.41 169.61L298.09 169.48L297.98 170.92L295.57 169L294.97 166.82L292.98 166.31L292.34 165.36L292.01 162.47L292.64 161.23L291.81 160.15L290.73 160.16L289.27 161.45L287.12 161.28L286.31 160.23L284.83 161.2L282.54 158.12L275.84 157.05L273.64 157.83L267.37 157.75L264.45 159.11L263.71 161.33L260.52 162.23L258.51 164.13L257.27 164.25L256.56 164.01L256.13 162.39L254.03 160.98L248.33 161.36L248.17 159.87L247.94 158.84L239.96 154.56V152.1L238.54 152.95L235.41 151.79L236 150.17L235.59 149.16L236.86 148.14L233.86 147.02L232.93 148.7L231.57 147.97L231.33 149.24L230.13 149.02L227.81 147.07L228.77 145.19L227.9 144.64L226.29 144.96L226.67 143.25L225.88 142.03L223.01 140.73L223.11 139.43L221.29 138.95L221.18 138.27L218.54 137.68L217.42 135.33L215.46 133.41L213.05 135.42L212.54 134.43L211.05 134.05L211.73 132.14L210.74 130.65L212.04 129.68L211.08 128.93L212.04 126.36L209.58 125.23L208.88 126.04L208.05 125.86L208.46 123.88L207.33 112.13L218.42 95.63L221.1 97.29L219.82 98.39L220.59 99.91L218.41 103.94L220.59 103.95L222.64 104.97L221.99 106.1L223.48 107.03L224.97 105.34L225.46 106.39L227.31 103.73L227.75 104.9L229.39 104.02L231.32 105.86L232.92 106.07L235.42 102.7L235.29 99.1L236.84 99.25L236.24 96.88L238.59 94.05L239.46 89.15L241.88 89.33L241.86 87.97L241.93 88.75L244.41 90.09L244.06 89.11L244.74 87.57L246.03 87.41L245.66 84.57L249.28 84.8L252.02 82.54L254.17 82.25L256.06 82.85L256.6 85.66L260.81 85.96L261.72 84.09L260.58 82.07L261.31 81.27L260.58 80.59L262.64 79.99L261.71 78.45L261.72 76.43L264.46 75.56L265.13 76.33L265.87 75.56L268.11 75.8L272.29 74.34L274 70.39L275.1 70.83L275.7 69.23L273.28 67.01L274.07 65.04L272.86 64.46L272.22 64.87L271.78 62.93L269.62 63.43L268.83 62.73L269.51 60.84L268.93 59.43L266.01 57L268.37 55.56L269.18 56.3L269.45 52.64L271.75 49.93L271.16 48.54L268.08 48.12L268.2 46.47L273.07 44.01L274.64 44.34L275.81 43.16L276.97 43.09L277.55 43.86L280.02 39.94L279.85 38.46L281.37 35.77L281.06 33.44L285 36.52L285.83 36.23L287.38 37.21L287.49 39.47L290.83 36.82L292.04 37.58L295.02 36.64L295.77 37.53L297.03 37.47L297.54 37.01L297.16 35.69L298.03 35.89L299.7 34.01L302.17 33.09L303.58 33Z" fill="#C7C7C7" stroke="white" stroke-width="2"/>
</svg>
