<svg width="803" height="793" viewBox="0 0 803 793" fill="none" xmlns="http://www.w3.org/2000/svg">
<path d="M359.06 427.27L351.04 429.75L348.37 433.45L354.79 437.14L359.59 445.75L361.2 453.14L362.81 459.92V463.62L371.89 464.22L378.84 462.39L382.57 463.62L379.37 471.01L380.98 477.17L383.64 483.94V486.42H376.7L370.82 489.49L371.89 495.05V503.68L385.25 504.29L392.74 504.91L401.83 506.14L410.38 511.08L415.2 517.24L420 521.57L424.82 525.27L428.02 520.94L431.23 517.24L428.55 509.84L422.14 499.98L418.93 493.82L416.27 488.89L411.45 487.03L407.17 484.56L406.58 481.82L401.69 458.69L396.76 449.7L405.04 439.6L397.01 430.98L390.02 430.03L376.7 427.9H369.22L359.06 427.27ZM100.68 358.7L99.88 358.51L98.36 360.13L87.67 366.44L80.68 369.41L71.45 371.32L65.58 374.56L62.26 375.8L52.62 376.82L43.36 380.56L41.59 381.77L30.97 393.05L29.48 394.1L26.8 392.93L25.95 390.59L24.93 388.64L21.71 388.72L19.95 390.32L17.43 396.41L15.2 399.26L12.11 394.77H8.65L6.17 398.32L6.03 404.41L2 413.78L4.64 415.07L9.34 418.9L13.65 421.32L18.03 425.22L27.6 439.72L30.4 445.34V445.38H30.43L57.54 510.24L62.92 508.16L85.55 497.24L94.86 490.02L97.2 489.2L98.78 489.55L100.72 490.74L103.33 491.61L110 491.1L112.9 490.08L115.14 488.26L116.92 486.3L120.04 483.88L124.98 482.94L127.93 483.76L129.46 485.83L129.35 488.26L123.7 503.93L122.79 507.32L121.87 514.29V520.81L122.58 526.15L123.5 530.38L124.67 534.1L127.22 539.94L127.67 540.82L128.79 542.02L137.19 548.13L144.23 554.87L146.62 555.46L148.46 555.24L151.46 553.58L153.7 552.75L155.23 551.54L156.19 550.25L157.53 547.21L158.25 545.97L159.06 544.9L172.75 531.13L173.67 529.72L174.55 527.74L175.06 525.74L175.62 524.55L176.94 523.43L178.62 522.28L180.4 520.75L181.78 519.22L182.69 517.58L183.35 515.83L184.93 509.77L185.59 509.59L186.61 510.47L188.09 512.53L191.19 514.25L195.43 514.64L202.46 513.88L206.58 514.4L209.48 516.11L214.18 523.57L216.16 526.19L218.35 528.48L221.66 530.62H224.77L228.43 529.09L231.65 526.74L237.18 526.5L241.98 525.27L244.67 519.1L251.08 515.4L256.42 520.34L263.9 524.64L270.86 522.8L276.2 516.64L277.27 511.68L275.66 503.68L281.55 504.29L287.43 511.68L291.17 517.24L293.3 511.68L294.37 502.45L298.12 497.51L303.99 501.21L309.34 507.38H317.9H325.91L334.46 512.92L343.03 515.4L347.83 516.64L348.37 507.98L355.23 503.93L351.97 501.15L350.9 498.63L348.41 495.6L344.33 493.44L329.51 491.39L324.32 489.84L317.12 484.35L309.79 480.85L267.47 472.63L260.43 470.23L247.53 470.13L220.08 474.12L216.37 472.22L215.86 469.58L218.4 466.43L221.61 463.23L223.29 458.81L223.03 453.43L207.09 427.18L203.68 424.54L200.27 423.8L189.87 424.15L182.13 422.16L178.42 418.76L177.04 414.78L177.25 406.17L176.38 403.08L174.79 402.63L172.85 403.9L167.2 411.09L165.78 412.32L163.89 413.39L155.23 415.93L152.07 415.95L149.53 415.58L144.59 414.13L142.25 412.49L140.77 410.11L140.67 407.42L140.01 404.02L138.38 399.74L130.02 390.22L127.67 386.24L126.4 382.57L122.33 375.34L121.31 372.18L120.29 365.62L118.87 362.48L117.17 360.91L115.19 359.93L112.95 359.5L111.27 359.58L107.66 360.34L100.68 358.7Z" fill="#C7C7C7" stroke="white" stroke-width="2"/>
<path d="M518.142 292.9L514.532 292.61L509.802 290.86L493.542 281.83L482.792 277.78L473.572 275.7L470.322 275.47L466.642 274.03L463.432 270.99L455.292 254.38L446.362 228.79L442.492 221.11L441.382 217.36L441.222 213.65L441.432 210.29L441.172 207.67L439.852 205.63L437.712 204.35L435.322 203.59L430.112 202.66L426.902 202.53L423.602 203.05L419.882 204.12L416.422 207.56L411.212 220.35L412.282 225.93L414.892 229.66L416.062 231.76L417.082 234.09L418.812 239.73L423.342 250.83L423.392 256.72L421.872 260.55L419.272 263.66L404.952 274.49L403.372 276.21L400.632 280.6L399.612 282.53L396.352 287.69L378.572 304.31L375.352 306.08L371.172 307.75L368.632 308.1L366.802 310.07L365.272 313.25L364.052 316.85L363.282 320.06L362.932 323.61L363.282 327.31L362.422 332.88L363.032 336.11L364.102 338.51L365.982 340.69L366.952 342.29L367.812 343.26L369.902 344.16L370.562 345.72L371.122 347.67L371.892 349.11L374.532 350.28L375.702 351.92L376.572 354.78L385.032 403.65L384.632 407.57L385.092 410.87L390.022 430.03L397.012 430.98L405.042 439.6L396.762 449.7L401.692 458.69L406.582 481.82L407.172 484.56L411.452 487.03L416.272 488.89L418.932 493.82L422.142 499.98L428.552 496.28L434.962 495.66L439.782 494.42V488.89L441.392 482.7L449.402 479.63L455.812 482.7L461.702 480.87L469.722 475.94L478.272 470.38L485.762 467.92L494.312 466.69L497.512 462.39L506.842 455.25L512.392 453.16L515.602 452.97L519.922 453.14L526.612 454.69L535.772 458.3L542.082 461.94L548.152 466.51L550.492 468.82L552.222 471.28L553.192 474.12L553.452 477.44L552.842 484.66L552.992 487.75L553.752 490.14L555.282 492.15L557.112 493.62L558.542 494.29L562.692 492.39L565.122 489.86L567.212 487.16L569.552 484.82L572.682 483.35L575.812 483.53L578.892 484.52L582.032 484.88L585.342 483.13L587.902 478.42L587.022 473.65L584.932 469L585.442 468.88L588.502 468.17L595.272 468.12L600.072 469.07L604.492 470.99L622.172 485.52L627.012 487.65L632.302 488.26L639.042 487.36L644.282 485.7L649.162 483.13L654.272 477.42L656.612 473.22L657.932 469.01L660.532 445.81L662.362 442.86L665.522 441.1L672.302 442.75L683.352 447L690.082 447.71L695.002 446.46L695.172 446.41L695.222 445.38L701.352 434.09L705.502 423.39L710.832 413.94L720.372 406.36L745.642 398.51L749.342 393.79L749.272 387.55L749.782 381.66L755.142 377.95L750.462 372.1L748.212 363.09L748.222 361.6L748.072 361.57L742.642 360.61L741.222 360.89L739.792 361.59L732.002 367.55L729.972 368.78L720.792 371.57L717.582 373.17L711.482 379L709.852 379.61L706.782 378.91L704.332 377.25L699.852 372.76L697.262 368.8L693.592 361L690.022 357.75L684.772 354.65L675.002 350.63L664.652 347.59L661.652 347.55L659.052 348.18L654.152 350.73L651.202 351.51L647.942 351.66L644.182 351.37L628.022 352.21L623.602 351.9L608.672 347.14L603.432 346.42L588.802 347.47L586.512 346.89L585.242 344.39L585.042 343.11L585.192 341.74L584.462 340.59L588.752 336.44L591.452 332.14L593.182 326.53L593.792 318.81L593.032 303.2L593.532 295.45L593.552 295.41L591.752 294.89L590.382 293.52L587.942 292.3L582.592 291.13L578.662 290.68L575.252 290.74L573.262 291.5L572.142 292.82L571.072 294.54L569.342 295.53L567.152 294.52L562.322 287.92L559.662 285.9L554.972 284.2L552.072 282.45L550.902 279.67L551.672 277.28L554.972 271.26L564.412 249.49L565.582 244.39L565.472 240.52L564.002 236.79L562.372 234.23L560.572 232.73L558.232 233.49L554.672 235.94L535.772 252.25L527.222 257.07L514.122 260.08L514.382 264.13L514.942 265.51L516.362 268.02L525.642 280.37L527.882 282.45L531.602 285.27L532.922 287.1L533.272 288.44L532.262 289.81L530.372 291.19L527.932 292.06L518.142 292.9Z" fill="#C7C7C7" stroke="white" stroke-width="2"/>
<path d="M690.082 447.71L683.352 447L672.302 442.75L665.522 441.1L662.362 442.86L660.532 445.81L657.932 469.01L656.612 473.22L654.272 477.42L649.162 483.13L644.282 485.7L639.042 487.36L632.302 488.26L627.012 487.65L622.172 485.52L604.492 470.99L600.072 469.07L595.272 468.12L588.502 468.17L585.442 468.88L584.932 469L587.022 473.65L587.902 478.42L585.342 483.13L582.032 484.88L578.892 484.52L575.812 483.53L572.682 483.35L569.552 484.82L567.212 487.16L565.122 489.86L562.692 492.39L558.542 494.29L557.112 493.62L555.282 492.15L553.752 490.14L552.992 487.75L552.842 484.66L553.452 477.44L553.192 474.12L552.222 471.28L550.492 468.82L548.152 466.51L542.082 461.94L535.772 458.3L526.612 454.69L519.922 453.14L515.602 452.97L512.392 453.16L506.842 455.25L511.682 464.21L511.582 472.28L509.592 481.61L508.932 488.69L510.862 500.18L510.912 504.87L509.492 509.26L507.102 511.66L503.262 513.66L492.022 518.22L488.552 520.67L485.282 523.72L481.162 529.83L478.512 532.4L476.482 534.04L474.642 534.75L473.122 535.57L471.392 536.71L464.142 542.74L452.692 550.44L451.252 550.83L450.382 551.4L449.162 549.95L443.802 540.39L440.152 536.77L428.282 534.22L418.152 539.27L416.492 540.47L419.022 549.09L421.202 555.58L420.242 558.52L418.712 559.95L412.432 560.4L402.412 565.67L399.812 568.38L398.282 571.26L396.762 577.73L396.352 580.85V583.69L396.812 586.18L398.032 588.65L400.472 591.1L404.092 592.71L432.552 596.22L435.012 596.11L437.002 595.73L438.982 596.7L440.562 597.68L446.232 605.58L446.322 605.72L449.112 600.42L455.612 594.69L463.512 593.44L479.362 595.75L487.472 592.85L501.722 584.26L507.052 582.96L512.542 583.59L528.492 589.79L539.592 589.87L569.072 578.61L590.792 573.9L611.922 565.16L650.102 539.96L663.062 531.87L688.782 515.83L692.782 514.03L701.472 511.45L705.232 509.57L707.342 506.32L706.562 502.6L702.962 495.32L702.252 490L702.452 486.64L701.532 483.94L697.392 480.69L692.612 473.92L692.782 464.85L694.752 454.84L695.172 446.41L695.002 446.46L690.082 447.71Z" fill="#C7C7C7" stroke="white" stroke-width="2"/>
<path d="M611.591 77.67L611.521 77.6L606.561 74.58L601.391 72.63L601.081 73.5L598.131 95.61L598.441 103.7L599.101 105.79L599.861 107.03L600.631 108.04L601.441 108.86L602.151 109.84L602.361 111.14L602.051 112.86L599.961 115.65L598.341 117.19L589.361 121.23L587.781 128.75L585.041 134.35L583.921 139.49L581.371 176.22L579.061 184.01L576.621 189.54L571.731 195.11L544.541 220.22L541.061 222.8L537.911 224.12L531.541 225.64L527.881 227.8L524.161 231.16L519.161 237.03L516.621 241.83L515.391 246.51L515.141 253.47L514.121 260.08L527.221 257.07L535.771 252.25L554.671 235.94L558.231 233.49L560.571 232.73L562.371 234.23L564.001 236.79L565.471 240.52L565.581 244.39L564.411 249.49L554.971 271.26L551.671 277.28L550.901 279.67L552.071 282.45L554.971 284.2L559.661 285.9L562.321 287.92L567.151 294.52L569.341 295.53L571.071 294.54L572.141 292.82L573.261 291.5L575.251 290.74L578.661 290.68L582.591 291.13L587.941 292.3L590.381 293.52L591.751 294.89L593.551 295.41L593.531 295.45L593.031 303.2L593.791 318.81L593.181 326.53L591.451 332.14L588.751 336.44L584.461 340.59L585.191 341.74L585.041 343.11L585.241 344.39L586.511 346.89L588.801 347.47L603.431 346.42L608.671 347.14L623.601 351.9L628.021 352.21L644.181 351.37L647.941 351.66L651.201 351.51L654.151 350.73L659.051 348.18L661.651 347.55L664.651 347.59L675.001 350.63L684.771 354.65L690.021 357.75L693.591 361L697.261 368.8L699.851 372.76L704.331 377.25L706.781 378.91L709.851 379.61L711.481 379L717.581 373.17L720.791 371.57L729.971 368.78L732.001 367.55L739.791 361.59L741.221 360.89L742.641 360.61L748.071 361.57L748.221 361.6L748.321 353.42L750.701 345.51L757.621 338.41L766.881 334.32L776.661 331.28L785.311 327.46L789.041 324.66L791.791 321.31L793.321 317.1L793.091 311.65L793.711 305.73L799.781 297.01L800.981 291.52L799.971 289.34L795.591 284.98L794.131 282.68L793.791 279.96L794.101 274.2L793.791 271.91L790.471 263.78L781.301 251.29L777.711 238.04L775.231 231.66L770.721 226.57L765.581 222.65L761.901 218.14L760.231 196.51L750.261 192.31L737.131 191.96L726.301 188.66L699.231 159.95L687.931 154.75L680.531 152.77L676.191 149.79L674.291 145.02L674.191 137.65L671.181 133.89L664.111 130.52L656.371 128.38L651.591 128.66L633.541 110.09L620.341 86.74L616.131 81.63L611.591 77.67Z" fill="#C7C7C7" stroke="white" stroke-width="2"/>
<path d="M425.329 90.07L416.979 88.33L414.989 86.64L413.499 83.35L412.079 75.13L411.969 62.05L410.449 56.82L403.679 52.49L401.189 50.59L383.439 52.37L380.449 51.21L377.199 55.86L372.819 61.31L363.759 74.7L362.709 76.87L348.149 92.47L335.729 109.09L334.339 112.07L334.439 114.98L334.039 117.18L331.119 118.04H322.199L318.499 116.14L315.439 112.19L311.539 108.58L305.369 107.81L300.579 110.56L297.939 115.52L295.869 121.45L292.809 127.11L284.059 131.06L246.669 128.5L249.079 134.82L245.559 137.73L240.389 139.51L237.709 142.5L237.679 147.69L237.339 150.72L236.569 152.73L235.839 153.94L235.489 155.1L235.469 157.85L234.929 159.41L233.599 159.29L232.039 158.78L230.789 159.25L224.439 168.44L220.419 172.79L216.329 174.61L211.119 176.05L212.629 179.5L216.739 183.73L219.589 187.46L217.499 187.85L214.469 189.4L212.839 190.02L210.579 187.46L208.359 190.02L209.579 196.97H212.399L221.099 192.99L226.549 192.94L230.639 193.69L234.759 195.46L238.519 194.45L250.909 186.04L254.729 185.09L257.579 183.93L259.969 182.67L272.149 174.58L274.849 174.46L277.649 175.93L282.729 179.72L285.599 181.21L289.009 182.01L294.559 182.36L298.479 179.72L301.529 176.98L310.859 162.57L313.919 159.33L318.139 156.57L320.789 152.11L322.889 145.68L326.559 140.85L329.659 139.28L332.969 139.69L336.729 141.26L340.809 143.99L344.949 147.54L349.069 152.23L356.499 158.51L359.259 161.73L361.549 165.71L363.589 170.19L366.239 174.23L369.239 176.4L372.649 177.49L379.689 178.73L382.899 179.7L386.149 181.35L389.919 184.22L393.279 187.48L398.949 194.51L400.779 197.5L402.299 200.51L405.459 204.53L416.419 207.56L419.879 204.12L423.599 203.05L426.899 202.53L430.109 202.66L435.319 203.59L437.709 204.35L439.849 205.63L441.169 207.67L441.429 210.29L441.219 213.65L441.379 217.36L442.489 221.11L446.359 228.79L455.289 254.38L463.429 270.99L466.639 274.03L470.319 275.47L473.569 275.7L482.789 277.78L493.539 281.83L509.799 290.86L514.529 292.61L518.139 292.9L527.929 292.06L530.369 291.19L532.259 289.81L533.269 288.44L532.919 287.1L531.599 285.27L527.879 282.45L525.639 280.37L516.359 268.02L514.939 265.51L514.379 264.13L514.119 260.08L515.139 253.47L515.389 246.51L516.619 241.83L519.159 237.03L524.159 231.16L527.879 227.8L531.539 225.64L537.909 224.12L541.059 222.8L544.539 220.22L571.729 195.11L576.619 189.54L579.059 184.01L581.369 176.22L583.919 139.49L585.039 134.35L587.779 128.75L589.359 121.23L580.609 123.54L578.449 124.66L576.769 126.18L572.909 131.08L564.049 144.86L562.269 148.68L561.049 152.7L559.199 164.72L558.279 167.75L556.599 170.71L554.519 173.29L551.719 175.76L548.759 177.72L545.099 179.47L541.159 180.8L537.089 181.68L533.529 182.07L529.809 181.85L526.399 181.27L511.779 175.62L509.079 175.33L506.719 175.68L505.099 176.85L503.769 178.9L499.649 187.33L498.629 188.96L497.109 190.06L494.509 189.64L491.909 187.36L488.959 181.11L488.029 176.4L488.099 172.07L495.069 147.63L495.369 144.05L494.819 139.98L493.239 134.8L492.469 130.61L492.219 126.23L491.609 122.28L490.079 118.21L485.689 115.89L483.039 115.31L477.649 115.19L474.189 114.67L471.339 113.52L468.719 111.47L465.619 107.52L462.619 104.59L457.879 102.19L454.369 101.05L450.599 99.06L439.029 90.84L434.659 89.32L430.769 89.1L427.969 89.86L425.329 90.07Z" fill="#C7C7C7" stroke="white" stroke-width="2"/>
<path d="M537.821 2L532.941 2.62L514.241 15.37L507.731 16.95L462.021 20.01L455.301 22.83L448.921 29.25L440.031 44.6L433.721 50.36L427.111 52.92L419.511 53.92L411.941 53.11L405.321 50.17L401.191 50.59L403.681 52.49L410.451 56.82L411.971 62.05L412.081 75.13L413.501 83.35L414.991 86.64L416.981 88.33L425.331 90.07L427.971 89.86L430.771 89.1L434.661 89.32L439.031 90.84L450.601 99.06L454.371 101.05L457.881 102.19L462.621 104.59L465.621 107.52L468.721 111.47L471.341 113.52L474.191 114.67L477.651 115.19L483.041 115.31L485.691 115.89L490.081 118.21L491.611 122.28L492.221 126.23L492.471 130.61L493.241 134.8L494.821 139.98L495.371 144.05L495.071 147.63L488.101 172.07L488.031 176.4L488.961 181.11L491.911 187.36L494.511 189.64L497.111 190.06L498.631 188.96L499.651 187.33L503.771 178.9L505.101 176.85L506.721 175.68L509.081 175.33L511.781 175.62L526.401 181.27L529.811 181.85L533.531 182.07L537.091 181.68L541.161 180.8L545.101 179.47L548.761 177.72L551.721 175.76L554.521 173.29L556.601 170.71L558.281 167.75L559.201 164.72L561.051 152.7L562.271 148.68L564.051 144.86L572.911 131.08L576.771 126.18L578.451 124.66L580.611 123.54L589.361 121.23L598.341 117.19L599.961 115.65L602.051 112.86L602.361 111.14L602.151 109.84L601.441 108.86L600.631 108.04L599.861 107.03L599.101 105.79L598.441 103.7L598.131 95.61L601.081 73.5L601.391 72.63L601.131 72.53L590.891 70.68L588.171 68.59L578.641 50.52L573.791 46.42L559.231 46.03L555.771 40.77L553.401 25.42L551.391 18.08L548.411 11.89L544.031 6.6L537.821 2Z" fill="#C7C7C7" stroke="white" stroke-width="2"/>
<path d="M355.451 790.57L355.511 783.11L354.701 777L354.481 770.81L356.361 763.12L358.481 759.58L361.211 757.61L364.011 756.07L366.631 753.82L369.261 750.35L370.381 748.03L375.941 730.31L376.351 727.19L375.301 723.41L371.461 716.72L370.751 713.73L373.331 709.2L401.221 687.13L405.561 681.98L407.871 673.76L406.991 665.07L403.151 661.69L398.331 659.45L394.741 654.3L395.451 647.23L400.511 641.49L407.391 637.29L413.401 634.85L423.051 633.44L426.231 632.03L428.501 629.75L432.571 623.78L435.621 621.46L440.761 616.28L446.321 605.72L446.231 605.58L440.561 597.68L438.981 596.7L437.001 595.73L435.011 596.11L432.551 596.22L404.091 592.71L400.471 591.1L398.031 588.65L396.811 586.18L396.351 583.69V580.85L396.761 577.73L398.281 571.26L399.811 568.38L402.411 565.67L412.431 560.4L418.711 559.95L420.241 558.52L421.201 555.58L419.021 549.09L416.491 540.47L408.311 546.37L397.321 550.01L383.101 548.74L375.601 549.95L372.341 554.87L370.341 560.1L365.491 563.22L354.241 566.69L348.371 567.49L331.341 563.14L328.491 563.34L320.161 565.2L311.271 565.16L307.831 566.55L305.081 568.81L302.751 571.85L295.811 584.89L294.561 589.77L294.511 595.34L297.161 604.76L297.611 609.31L295.761 613.92L294.151 615.46L290.251 618.15L288.551 620.01L287.431 622.09L285.671 626.78L284.521 628.96L275.561 633.91L270.321 640.29L268.841 641.71L263.211 643.83L257.371 644.13L246.241 641.71L244.971 640.59L242.731 636.74L241.121 635.68L238.011 636.03L236.791 638.29L236.841 641.55L237.461 645.07L242.321 659.96L242.701 667.14L238.881 674.51L227.771 679.62L205.441 670.6L193.751 673.78L191.551 677.2L189.361 685.5L187.071 688.35L184.351 688.7L180.861 687.82L176.391 689.43L177.451 693.15L186.031 701.65L193.941 712.86L195.031 716.25L195.191 719.67L195.741 723.1L197.811 726.33L217.811 741.65L235.541 761.94L245.411 768.25L256.851 771.83L270.621 773.69L273.911 773.14L280.191 770.02L283.041 769.55L286.841 770.85L289.621 773.06L292.201 775.66L295.321 778.14L301.871 781.45L308.761 783.7L347.541 787.09L355.451 790.57Z" fill="#C7C7C7" stroke="white" stroke-width="2"/>
<path d="M450.379 551.4L451.249 550.83L452.689 550.44L464.139 542.74L471.389 536.71L473.119 535.57L474.639 534.75L476.479 534.04L478.509 532.4L481.159 529.83L485.279 523.72L488.549 520.67L492.019 518.22L503.259 513.66L507.099 511.66L509.489 509.26L510.909 504.87L510.859 500.18L508.929 488.69L509.589 481.61L511.579 472.28L511.679 464.21L506.839 455.25L497.509 462.39L494.309 466.69L485.759 467.92L478.269 470.38L469.719 475.94L461.699 480.87L455.809 482.7L449.399 479.63L441.389 482.7L439.779 488.89V494.42L434.959 495.66L428.549 496.28L422.139 499.98L428.549 509.84L431.229 517.24L428.019 520.94L424.819 525.27L419.999 521.57L415.199 517.24L410.379 511.08L401.829 506.14L392.739 504.91L385.249 504.29L371.889 503.68L366.539 509.84L357.989 512.31L355.229 503.93L348.369 507.98L347.829 516.64L343.029 515.4L334.459 512.92L325.909 507.38H317.899H309.339L303.989 501.21L298.119 497.51L294.369 502.45L293.299 511.68L291.169 517.24L287.429 511.68L281.549 504.29L275.659 503.68L277.269 511.68L276.199 516.64L270.859 522.8L263.899 524.64L256.419 520.34L251.079 515.4L244.669 519.1L241.979 525.27L237.179 526.5L231.649 526.74L228.429 529.09L224.769 530.62H221.659L218.349 528.48L216.159 526.19L214.179 523.57L209.479 516.11L206.579 514.4L202.459 513.88L195.429 514.64L191.189 514.25L188.089 512.53L186.609 510.47L185.589 509.59L184.929 509.77L183.349 515.83L182.689 517.58L181.779 519.22L180.399 520.75L178.619 522.28L176.939 523.43L175.619 524.55L175.059 525.74L174.549 527.74L173.669 529.72L172.749 531.13L159.059 544.9L158.249 545.97L157.529 547.21L156.189 550.25L155.229 551.54L153.699 552.75L151.459 553.58L148.459 555.24L146.619 555.46L144.229 554.87L137.189 548.13L128.789 542.02L127.669 540.82L127.219 539.94L124.669 534.1L123.499 530.38L122.579 526.15L121.869 520.81V514.29L122.789 507.32L123.699 503.93L129.349 488.26L129.459 485.83L127.929 483.76L124.979 482.94L120.039 483.88L116.919 486.3L115.139 488.26L112.899 490.08L109.999 491.1L103.329 491.61L100.719 490.74L98.7791 489.55L97.1991 489.2L94.8591 490.02L85.5491 497.24L62.9191 508.16L57.5391 510.24L66.5691 531.85L72.8391 539.25L88.5891 552.62L93.2691 560.26L97.7091 578.26L99.9191 583.59L103.969 589.91L107.009 591.12L111.079 590.14H118.379L123.399 591.56L126.489 594.11L126.209 597.87L121.289 602.9L114.119 620.8L114.729 631.67L122.039 652.14L121.499 658.07L125.059 658.51L125.289 658.57L131.829 660.43L135.169 660.94L137.479 660.55L144.439 657.64L149.709 657.72L152.099 660.2L154.509 669.51L158.039 675.29L163.199 679.62L175.179 685.16L176.389 689.43L180.859 687.82L184.349 688.7L187.069 688.35L189.359 685.5L191.549 677.2L193.749 673.78L205.439 670.6L227.769 679.62L238.879 674.51L242.699 667.14L242.319 659.96L237.459 645.07L236.839 641.55L236.789 638.29L238.009 636.03L241.119 635.68L242.729 636.74L244.969 640.59L246.239 641.71L257.369 644.13L263.209 643.83L268.839 641.71L270.319 640.29L275.559 633.91L284.519 628.96L285.669 626.78L287.429 622.09L288.549 620.01L290.249 618.15L294.149 615.46L295.759 613.92L297.609 609.31L297.159 604.76L294.509 595.34L294.559 589.77L295.809 584.89L302.749 571.85L305.079 568.81L307.829 566.55L311.269 565.16L320.159 565.2L328.489 563.34L331.339 563.14L348.369 567.49L354.239 566.69L365.489 563.22L370.339 560.1L372.339 554.87L375.599 549.95L383.099 548.74L397.319 550.01L408.309 546.37L416.489 540.47L418.149 539.27L428.279 534.22L440.149 536.77L443.799 540.39L449.159 549.95L450.379 551.4Z" fill="#C7C7C7" stroke="white" stroke-width="2"/>
<path d="M343.319 303.2L340.809 302.58L338.769 300.36L337.749 297.55L337.499 294.11L338.209 285.8V281.95L337.909 278.42L335.509 267.71L334.439 264.59L332.969 262.32L331.239 262.24L329.199 264.28L323.089 273.48L320.229 276.81L313.409 282.24L307.199 285.66L303.619 287L293.899 288.97L289.979 288.41L286.979 287.3L267.109 275.43L261.799 273.6L258.139 273.15L254.779 273.25L248.749 274.67L246.309 275.84L244.529 277.31L243.409 279.42L242.849 281.71L242.039 284.2L240.359 285.95L235.469 286.87L230.129 284.86L220.389 282.88L215.349 280.47L207.139 274.49L204.539 273.85L202.249 274.96L198.439 280.25L195.179 283.11L191.189 284.86L183.809 286.03L180.099 285.68L177.039 284.2L175.569 281.98L174.679 279.77L174.649 278.03L174.849 276.85L176.429 272.67L176.329 271.63L175.769 270.8L174.479 270.06L172.849 269.57L171.579 268.83L170.659 268.02L169.189 265.16L168.939 264.55L155.549 268.95L150.099 272.41L149.119 275.45L148.469 284.2L147.659 287.59L144.469 291.95L141.419 293.62L138.399 294.63L135.439 297.05L134.659 299.66L135.989 301.84L137.919 304.17L138.869 307.13L138.399 311.92L137.109 314.18L134.929 315.82L121.289 330.81L117.659 336.7L116.269 343.48L114.509 345.08L106.809 344.73L105.039 346.09L104.399 350.42L102.769 354.39L100.599 357.75L99.8789 358.51L100.679 358.7L107.659 360.34L111.269 359.58L112.949 359.5L115.189 359.93L117.169 360.91L118.869 362.48L120.289 365.62L121.309 372.18L122.329 375.34L126.399 382.57L127.669 386.24L130.019 390.22L138.379 399.74L140.009 404.02L140.669 407.42L140.769 410.11L142.249 412.49L144.589 414.13L149.529 415.58L152.069 415.95L155.229 415.93L163.889 413.39L165.779 412.32L167.199 411.09L172.849 403.9L174.789 402.63L176.379 403.08L177.249 406.17L177.039 414.78L178.419 418.76L182.129 422.16L189.869 424.15L200.269 423.8L203.679 424.54L207.089 427.18L223.029 453.43L223.289 458.81L221.609 463.23L218.399 466.43L215.859 469.58L216.369 472.22L220.079 474.12L247.529 470.13L260.429 470.23L267.469 472.63L309.789 480.85L317.119 484.35L324.319 489.84L329.509 491.39L344.329 493.44L348.409 495.6L350.899 498.63L351.969 501.15L355.229 503.93L357.989 512.31L366.539 509.84L371.889 503.68V495.05L370.819 489.49L376.699 486.42H383.639V483.94L380.979 477.17L379.369 471.01L382.569 463.62L378.839 462.39L371.889 464.22L362.809 463.62V459.92L361.199 453.14L359.589 445.75L354.789 437.14L348.369 433.45L351.039 429.75L359.059 427.27L369.219 427.9H376.699L390.019 430.03L385.089 410.87L384.629 407.57L385.029 403.65L376.569 354.78L375.699 351.92L374.529 350.28L371.889 349.11L371.119 347.67L370.559 345.72L369.899 344.16L367.809 343.26L366.949 342.29L365.979 340.69L364.099 338.51L363.029 336.11L362.419 332.88L363.279 327.31L362.929 323.61L363.279 320.06L364.049 316.85L365.269 313.25L366.799 310.07L368.629 308.1L371.169 307.75L375.349 306.08L378.569 304.31L396.349 287.69L386.759 272.43L385.339 271.91L383.559 271.46L382.789 272.78L381.679 273.95L380.399 274.82L373.309 277.31L370.769 278.6L368.579 280.37L364.809 285.1L354.209 293.47L346.629 301.15L343.319 303.2Z" fill="#C7C7C7" stroke="white" stroke-width="2"/>
<path d="M416.421 207.56L405.461 204.53L402.301 200.51L400.781 197.5L398.951 194.51L393.281 187.48L389.921 184.22L386.151 181.35L382.901 179.7L379.691 178.73L372.651 177.49L369.241 176.4L366.241 174.23L363.591 170.19L361.551 165.71L359.261 161.73L356.501 158.51L349.071 152.23L344.951 147.54L340.811 143.99L336.731 141.26L332.971 139.69L329.661 139.28L326.561 140.85L322.891 145.68L320.791 152.11L318.141 156.57L313.921 159.33L310.861 162.57L301.531 176.98L298.481 179.72L294.561 182.36L289.011 182.01L285.601 181.21L282.731 179.72L277.651 175.93L274.851 174.46L272.151 174.58L259.971 182.67L257.581 183.93L254.731 185.09L250.911 186.04L238.521 194.45L234.761 195.46L230.641 193.69L226.551 192.94L221.101 192.99L212.401 196.97H209.581L209.951 199.07L202.521 213.05L183.731 236.21L181.351 237.53L177.991 238.81L174.681 240.8L172.501 244.14L172.331 247.75L174.381 256.5L174.921 260.86L171.651 263.66L168.941 264.55L169.191 265.16L170.661 268.02L171.581 268.83L172.851 269.57L174.481 270.06L175.771 270.8L176.331 271.63L176.431 272.67L174.851 276.85L174.651 278.03L174.681 279.77L175.571 281.98L177.041 284.2L180.101 285.68L183.811 286.03L191.191 284.86L195.181 283.11L198.441 280.25L202.251 274.96L204.541 273.85L207.141 274.49L215.351 280.47L220.391 282.88L230.131 284.86L235.471 286.87L240.361 285.95L242.041 284.2L242.851 281.71L243.411 279.42L244.531 277.31L246.311 275.84L248.751 274.67L254.781 273.25L258.141 273.15L261.801 273.6L267.111 275.43L286.981 287.3L289.981 288.41L293.901 288.97L303.621 287L307.201 285.66L313.411 282.24L320.231 276.81L323.091 273.48L329.201 264.28L331.241 262.24L332.971 262.32L334.441 264.59L335.511 267.71L337.911 278.42L338.211 281.95V285.8L337.501 294.11L337.751 297.55L338.771 300.36L340.811 302.58L343.321 303.2L346.631 301.15L354.211 293.47L364.811 285.1L368.581 280.37L370.771 278.6L373.311 277.31L380.401 274.82L381.681 273.95L382.791 272.78L383.561 271.46L385.341 271.91L386.761 272.43L396.351 287.69L399.611 282.53L400.631 280.6L403.371 276.21L404.951 274.49L419.271 263.66L421.871 260.55L423.391 256.72L423.341 250.83L418.811 239.73L417.081 234.09L416.061 231.76L414.891 229.66L412.281 225.93L411.211 220.35L416.421 207.56Z" fill="#C7C7C7" stroke="white" stroke-width="2"/>
</svg>
