<svg width="400" height="796" viewBox="0 0 400 796" fill="none" xmlns="http://www.w3.org/2000/svg">
<path d="M116.14 649.44L117.27 650.57L120.21 655.71L124.69 660.7L126.06 665.04L127.64 668.64L128.75 670.91L129.82 672.03L133.05 674.2L138 675.89L140.54 676.54L143.13 676.63L144.31 677.1L147.03 677.18L147.99 677.93L148.25 679.72L147.88 686.28L147.29 689.2L145.79 693.36L145.74 699.2L147.75 703.38L149.57 709.58L150.35 711.01L155.75 716.32L171.93 737.33L170.35 736.62L168.55 736.39L165.01 737.12L161.96 739.1L156.99 741.22L154.64 743.03L148.16 746.51L131.29 749.02L127.59 749.85L116.35 754.43L111.97 758.4L108.34 762.57L105.08 764.55L94.96 767.09L80.81 767.95L76.91 768.51L73.79 769.92L71.23 773.4L69.68 774.38L67.72 774.64L64.73 773.89L62.97 773.04L59.91 770.81L56.9 769.66L54.57 769.36L52.26 769.86L51.16 770.49L49.53 772.2L46.62 777.47L44.14 783.13L41.73 787.18L40.25 788.75L38.17 789.62L35.95 789.67L33.86 788.96L30.5 785.55L29.46 783.75L27.67 777.41L26.68 775.45L25.2 773.81L23.04 772.92H20.69L17.28 773.75L13.84 775.23L10.77 773.69L8.31 770.92L4.05 760.4L1.28 745.12L1 739.98L1.59 734.97L4.07 726.97L9.31 723.03L14.36 720.37L16.76 718.65L21.98 717.04L25.97 714.8L30.4 713.54L34.39 711.23L38.8 709.9L42.78 707.56L47.19 706.22L51.16 703.87L56.25 702.03L62.86 696.42L72.9 690.56L79.51 684.93L85.26 682.56L92.51 676.46L101.91 670.96L106.3 667.1L110.13 662.89L112.13 658.09L114.65 654.27L116.14 649.44ZM236.25 641.71L245.61 644.78L247.84 644.16L251.44 642.12L253.64 642.2L256.17 643.24L255.46 645.46L253.58 648.68L253.46 651.24L258.21 657.17L258.77 660.52L258.82 664.97L259.3 666.64L259.33 671.29L260.44 674.83L264.24 679.44L266.66 681.34L270.87 685.63L271.59 688.84L268.76 691.34L264.77 692.7L261.23 695.07L254.46 698.8L249.38 700.01L244.98 700L237.03 698.27L236.22 697.68L230.88 692.24L227.66 688.39L224 682.19L223.27 679.86L224.34 674.99L224.33 669.63L223.41 658.42L226.18 652.38L228.88 649.17L236.25 641.71ZM370.73 442.89L369.58 471.55L380.62 494.73L392.6 510.09L371.68 541.19L368.92 546.06L369.25 542.84L368.1 542.62L363.95 539.58L348.26 532.41L342.88 531.08L341.73 530.45L340.55 525.96L340.43 522.89L339.49 519.98L339.39 514.76L337.98 511.61L337.76 509.21L336.23 507.08L336.18 505.33L334.56 499.45L332.6 496.05L332.01 492.39L332.02 482.43L330.88 479.35L326.05 473.24L322.55 470.8L317.77 465.67L312.25 460.82L309.12 458.26L306.08 454.67L299.44 454.51L296.7 453.84L290.36 451.07L286.3 448.11L279.75 444.22L275.6 443.02L270.18 442.91L268.89 442.24L267.73 441.1L267.44 439.5L267.71 437.86L269.31 434.71L268.81 432.26L269.27 431.05L269.37 427.36L269.9 425.64L268.88 422.97L269.32 421.35L269.41 418.56L271.39 415.73L272.51 413.15L272.72 409.04L274.81 403.99L276.27 402.21L277.15 400.37L279.01 399.01L282.9 395.05L283.93 391.94L284.11 389.13L284.7 387.95L286.59 386.04L287.69 384.32L288.34 381.88L293.07 385.6L309.5 400.62L319.98 423.43L341.3 436.33L370.73 442.89Z" fill="#C7C7C7" stroke="white" stroke-width="2"/>
<path d="M197.002 277.38L194.602 274.04L195.082 271.99L195.132 267.52L196.272 265.43L198.442 264.27L198.912 264.51L203.322 271.09L206.542 273.27L210.202 274.95L217.292 277.21L219.492 277.57L218.672 287.08L216.812 290.97L210.702 289.21L207.132 290.49L203.532 283.29L197.002 277.38ZM63.7316 219.49L66.2816 221.9L73.4916 226.39L74.4516 226.22L77.5916 223.09L78.5516 222.7L80.1116 224.01L81.2016 226.22L72.7316 235.82L66.8116 244.47L62.2616 252.18L58.7016 256.33L58.5516 259.77L59.0216 261.02L59.1816 262.99L64.8816 267.05L65.5916 266.96L68.3916 265.02L73.3416 264.99L74.0616 264.73L74.6616 263.42L75.2616 255.32L75.7716 253.89L75.8216 250.44L76.3316 249L76.3616 245.79L76.8216 245.08L77.6216 244.96L91.2716 253.44L91.8816 255.29L91.9516 258.12L92.9316 263.4L92.9916 266.08L93.4716 267.4L93.4216 269.44L88.0116 269.41L85.8616 268.87L82.9716 268.91L81.7716 269.48L59.3616 290.23L57.7516 291.34L56.8716 290.84L50.8216 277.97L46.4316 274.62L42.1016 272.13L42.5716 264.34L45.3616 261.05L47.4116 255.71L49.5516 252.68L51.4216 247.77L53.5616 244.81L55.4616 239.9L57.5116 236.85L58.1816 235.07L59.5016 228.07L61.9516 224.2L63.7316 219.49ZM184.532 152.36L177.072 157.38L172.082 161.24L169.912 163.42L168.132 166.12L165.182 165.68L164.232 165.24L162.032 165.23L160.122 165.88L158.432 167.58L152.432 176.94L153.262 178.48L157.472 182.77L157.722 183.85L148.842 189.62L146.632 192.72L144.882 198L144.752 200.39L144.242 201.94L144.352 203.34L145.932 206.09L160.492 218.75L179.672 233.01L180.532 232.73L185.732 226.8L188.092 226.68L189.582 227.11L190.252 226.63L191.642 220.97L192.242 219.8L192.992 219.32L210.712 214.94L215.532 215.01L218.302 218.35L221.492 224.67L224.812 235.68L223.842 236.53L217.012 238.9L210.542 242.08L210.212 243.02L211.072 244.38L215.522 248.84L217.952 250.57L221.202 251.76L225.392 252.57L234.152 258.34L240.562 260.11L241.802 260.06L244.592 259.04L248.392 259.74L253.122 263.34L258.992 269.23L259.972 269.89L261.082 269.24L258.452 272.66L245.622 292.68L235.642 286.72L227.722 289.25L226.422 289.17L225.832 288.51L223.722 283.59L222.322 277.55L221.422 266.74L219.772 262.83L216.022 256.6L215.332 256.17L203.032 253.23L202.602 250.76L198.852 246.96L191.092 242.11L189.562 243L186.952 245.31L185.802 246.86L188.412 252.52L193.402 253.87L193.962 254.3L194.022 258.98L192.332 259.71L188.262 260.42L184.142 262L174.162 268.78L172.422 268.89L170.882 268.34L169.102 268.42L168.342 269.77L168.242 273.26L167.532 276.13L163.772 277.41L161.402 277.5L154.502 275.87L151.542 275.64L150.682 274.89L149.372 269.85L148.692 268.83L105.082 251.46L91.1816 210.61L90.5116 206.12L90.8316 205.53L91.8116 205.4L96.7116 206.56L101.662 206.41L102.342 204.48L102.492 201.46L103.182 201.15L105.632 201.19L106.162 200.67L106.202 192L105.692 190.25L105.672 186.87L106.202 184.83L106.392 181.82L109.932 179.7L113.532 178.89L115.792 177.26L119.052 174.01L121.702 170.06L124.192 167.84L132.282 167.68L136.492 164.09L140.112 164L141.722 164.84L142.462 167.01L144.072 169.88L146.152 170.99L147.562 171.04L149.232 169.88L150.042 168.02L151.182 166.58L152.422 165.77L154.592 165.57L157.582 162.09L163.632 161.88L166.412 158.31L166.742 157.29L169.432 154.04L173.502 150.55L176.522 146.95L179.992 144.9H180.522L181.132 145.51L183.152 149.04L183.952 151.58L184.532 152.36Z" fill="#C7C7C7" stroke="white" stroke-width="2"/>
<path d="M167.461 276.11L168.171 273.24L168.271 269.75L169.031 268.4L170.811 268.32L172.351 268.87L174.091 268.76L184.071 261.98L188.191 260.4L192.261 259.69L193.951 258.96L193.891 254.28L193.331 253.85L188.341 252.5L185.731 246.84L186.881 245.29L189.491 242.98L191.021 242.09L198.781 246.94L202.531 250.74L202.961 253.21L215.261 256.15L215.951 256.58L219.701 262.81L221.351 266.72L222.251 277.53L219.481 277.57L217.281 277.21L210.191 274.95L206.531 273.27L203.311 271.09L198.911 264.51L198.441 264.27L196.271 265.43L195.131 267.52L195.081 271.99L194.601 274.04L197.001 277.38L193.251 279.95L192.321 278.4L190.101 276.7L183.701 272.74L176.991 272.77L170.621 275.25L167.461 276.11ZM102.131 129.45L102.621 129.76L102.521 130.3L106.351 132.71L108.861 133.79L112.621 131.63L116.151 128.65L119.371 126.51L120.191 126.52L123.931 130.35L125.601 132.6L125.901 133.52L125.641 135.64L125.861 136.68L127.521 137.73L131.321 139.02L133.021 140.73L134.191 144.88L134.251 149.29L134.881 150.23L137.281 152.47L144.201 152.54L143.401 153.98V157.11L144.031 157.87L146.211 159.03L148.221 159.08L153.991 157.5L155.341 157.59L158.281 158.63H161.521L163.121 158.12L166.301 158.24L163.521 161.81L157.471 162.03L154.481 165.51L152.311 165.71L151.071 166.52L149.931 167.96L149.121 169.82L147.451 170.98L146.041 170.93L143.961 169.83L142.361 166.96L141.621 164.79L140.021 163.95L136.401 164.04L132.201 167.63L124.111 167.79L121.621 170.02L118.971 173.97L115.711 177.22L113.451 178.85L109.851 179.66L106.311 181.78L106.121 184.79L105.591 186.83L105.621 190.21L106.131 191.96L106.091 200.63L105.561 201.16L103.111 201.12L102.421 201.43L102.271 204.45L101.591 206.38L96.6408 206.53L91.7408 205.37L90.7608 205.51L90.4408 206.1L91.1108 210.59L105.011 251.44L148.621 268.81L149.301 269.83L150.611 274.87L146.811 274.63L145.631 274.16L143.051 274.07L141.871 273.6L139.151 273.48L137.961 273.01L135.001 272.94L133.261 272.41L131.241 272.37L130.031 271.9L127.501 271.81L126.271 271.34L123.401 271.22L121.321 270.72L112.781 270.75L109.481 270.1L100.411 270.03L97.6608 269.48L93.4208 269.44L93.4708 267.41L92.9908 266.09L92.9308 263.41L91.9508 258.13L91.8808 255.3L91.2708 253.45L77.5908 244.95L76.7908 245.07L76.3408 245.78L76.3108 248.99L75.8108 250.43L75.7608 253.88L75.2608 255.31L74.6608 263.41L74.0608 264.72L73.3408 264.98L68.3908 265.01L65.5908 266.95L64.8808 267.04L59.1808 262.98L59.0208 261.01L58.5508 259.76L58.7008 256.32L62.2608 252.17L66.8108 244.46L72.7408 235.81L81.2108 226.21L80.1208 224L78.5608 222.69L77.6008 223.08L74.4708 226.21L73.5108 226.39L66.3008 221.9L63.7508 219.49L65.4908 217.04L66.4008 214.26L67.3408 207.71L69.9108 200.74L71.1908 191.68L73.7308 184.71L74.8008 176.77L75.7508 173.59L79.6208 165.61L82.9708 160.04L85.7208 156.44L87.7708 151.65L93.8608 144.64L95.4108 140.53L97.9008 136.75L99.8908 131.89L102.131 129.45Z" fill="#C7C7C7" stroke="white" stroke-width="2"/>
<path d="M184.53 152.36L186.75 152.25L187.86 151.65L191.37 145.98L195.78 142.14L206.37 136.81L209.84 136.7L210.45 135.91L210.07 134.78L210.45 134.21L212.72 133.95L214.62 135.48L218.36 137.1L212.99 143.27L201.53 162.69L212.41 173.6L231.02 182.81L248.76 195.26L260.75 212.67L277 239.02L272.06 254.9L261.03 269.21L259.93 269.86L258.95 269.2L253.08 263.31L248.35 259.71L244.55 259.01L241.76 260.03L240.52 260.08L234.11 258.32L225.35 252.55L221.16 251.74L217.91 250.56L215.48 248.83L211.03 244.37L210.17 243.01L210.5 242.07L216.97 238.89L223.8 236.51L224.78 235.66L221.46 224.65L218.27 218.33L215.49 214.99L210.67 214.92L192.96 219.3L192.21 219.79L191.61 220.96L190.23 226.62L189.56 227.1L188.07 226.67L185.71 226.79L180.52 232.73L179.65 233.01L160.48 218.75L145.92 206.09L144.34 203.34L144.23 201.94L144.75 200.39L144.88 198L146.62 192.69L148.83 189.59L157.71 183.82L157.47 182.74L153.26 178.45L152.43 176.92L158.43 167.56L160.12 165.86L162.03 165.21L164.23 165.23L165.18 165.67L168.13 166.11L169.91 163.42L172.08 161.23L177.06 157.38L184.53 152.36Z" fill="#C7C7C7" stroke="white" stroke-width="2"/>
<path d="M153.13 307.06L152.53 307.01L149.96 304.89L148.41 302.51L148.28 300.87L149.54 298.53L150.69 298.64L156.23 301.69L156.71 305.6L156.21 306.1L153.13 307.06ZM222.27 277.54L223.67 283.58L225.78 288.5L226.37 289.16L227.67 289.24L235.59 286.71L245.57 292.67L246.57 313.86L251.89 341.19L257.87 356.47L273.54 370.26L288.28 381.86L287.64 384.3L286.54 386.02L284.66 387.93L284.08 389.12L283.9 391.94L282.87 395.05L278.98 399.01L277.12 400.37L276.24 402.22L274.78 404L273.35 403.91L265.99 401.72L258.83 397.79L250.77 391.25L236.01 378.42L229.56 373.53L216.7 367.05L222.57 358.94L226.8 355.55L228.33 352.16L231.17 347.81L211.72 335.7L205.49 331.01L195.29 330.38L194.42 331.09L192.59 334.71L191.29 335.21L177.01 331.77L175.94 331.26L175.55 330.6L175.57 324.5L175.07 322.51L174.97 316.89L172.78 312.44L169.41 308.25L164.48 304.86L167.98 297.68L170.43 291.37L172.62 287.52L173.53 287.45L177.79 289.08L181.49 286.73L184.93 283.75L193.3 282.51L195.6 281.27L197.4 283.01L202.49 286.03L204 287.98L205.25 291.31L207.14 290.5L210.71 289.22L216.82 290.99L218.68 287.1L219.5 277.59L222.27 277.54ZM187.98 321.56L188.73 321.92L189.03 324.95L189.79 325.41L191.7 325.34L193.02 324.86L196.81 324.78L198.07 324.11L198.7 322.67L198.49 321.69L195.03 317.46L189.4 317.18L186.84 314.1L182.99 313.99L182.55 314.76L182.64 319.19L183.56 320.32L185.58 321.52L187.98 321.56ZM133.25 272.4L134.99 272.93L137.96 273L139.15 273.47L141.87 273.59L143.06 274.06L145.64 274.15L146.82 274.62L150.62 274.86L151.48 275.61L161.7 286.44L161.63 288.06L159.41 291.94L158.32 293.18L156.99 292.49L144.71 280.85L135.33 276.58L133.48 273.64L133.25 272.4Z" fill="#C7C7C7" stroke="white" stroke-width="2"/>
<path d="M141.003 12.14L143.023 8.75L148.473 2L155.803 10.81L167.123 22.55L181.333 41.2L201.403 58.94L206.373 65.36L204.743 64.43L198.903 71.38L193.523 76.8L182.713 87.03L173.793 94.29L167.633 100.77L166.013 103.07L166.233 103.77L173.763 111.4L178.763 114.83L180.043 115.25L189.083 109.33L201.773 97.2L207.253 92.79L208.623 92.3L208.603 93.68L206.903 97.39L201.423 107.75L194.433 114.79L188.233 119.35L183.573 125.09L176.943 128.53L169.083 133.6L162.993 137.04L158.743 141.18L155.843 141.25L153.333 140.68L150.743 140.97L144.193 152.55L137.283 152.48L134.873 150.24L134.253 149.3L134.193 144.89L133.023 140.74L131.323 139.02L127.523 137.73L125.873 136.68L125.653 135.64L125.903 133.52L125.613 132.6L123.943 130.35L120.203 126.52L119.373 126.51L116.163 128.65L112.623 131.63L108.863 133.79L106.353 132.71L102.523 130.3L102.623 129.76L102.133 129.45L105.973 124.85L107.523 120.75L110.023 116.99L111.563 112.83L114.303 109.19L117.493 103.54L119.653 96.98L122.003 92.95L123.633 85.13L125.993 81.09L127.693 75.44L129.833 70.79L131.543 65.15L133.993 61.2L135.703 55.58L138.153 49.89L139.723 43.72L142.043 37.85L142.423 35.61L142.563 23.83L142.203 19.08L141.003 12.14Z" fill="#C7C7C7" stroke="white" stroke-width="2"/>
<path d="M282.41 635.8L288.42 635.98L289.92 636.56L296.02 640.66L307.45 644.55L313.86 645.84L317.2 646.87L318.89 646.8L320.87 646.03L322.21 649.25L322.8 651.87L322.88 654.64L324.51 658.58L327.89 662.8L330.71 665.49L332.87 668.87L333.63 671.28L335.3 674.67L336.63 676.46L337.9 679.77L339.02 680.56L336.02 700.62L326.6 741.14L328.6 743.45L326.95 743.44L324.69 744.42L319.53 740.95L316.43 736.21L313.01 733.83L309.24 730.54L306 726.1L301.85 717.36L295.45 712.3L295.78 711.56L301.73 705.73L302.13 704.8L294.85 690.84L289.31 672.7L283.64 657.64L282.62 653.28L285.63 644.81L282.67 637.74L282.41 635.8ZM267.71 441.09L268.87 442.24L270.17 442.91L275.59 443.02L279.74 444.22L286.29 448.11L290.35 451.07L296.69 453.84L299.43 454.51L306.07 454.67L309.11 458.27L312.24 460.83L311.06 463.05L303.43 473.91L298.92 478.65L297.91 479.34L290.99 481.48L283.88 482.15L282.65 482.84L282.63 483.98L287.27 491.01L288.59 494.93L294.05 499.91L302.18 500.06L304.49 500.59L308.32 500.66L312.02 499.6L314.8 499.65L317.82 500.36L321.6 506.08L323.92 506.22L330.07 507.82H334.16L336.24 507.11L337.77 509.24L337.99 511.64L339.4 514.79L339.5 520.01L340.44 522.92L340.56 525.99L341.74 530.49L342.89 531.12L348.28 532.45L363.97 539.62L368.12 542.66L369.27 542.88L368.94 546.1L361.04 559.99L364.91 563.8L362.48 566.77L360.71 570.03L356.22 569.1L339.46 563.77L337.26 564.21L330.26 564.18L328.2 564.68L326.13 564.16L321.13 564.08L316.58 563.03L312.53 562.99L310.59 563.77L307.75 566.49L304.49 568.66L302.39 569.36L299.73 569.5L297.32 571.03L296.4 570.84L293.3 568.92L289.1 567.64L286.2 566.12L280.22 566L276.93 564.96L274.21 564.89L274.74 562.08L274.82 557.65L275.3 555.74L275.35 549.63L275.87 548L275.95 544.3L279.58 535.1L282.35 526.12L282.46 522.81L282.98 521.07L282.79 515.98L282.08 515.17L273.5 513.89L267.04 511.29L261.34 510.56L257.9 509.38L251.89 504.68L249.3 501.75L246.8 498.17L236.98 491.95L236.39 491.29L235.77 489.55L235.94 486.78L238.39 483.16L239.78 479.46L242.86 475.02L243.99 474.94L246.44 477L247.53 476.84L249.22 474.46L249.19 470.22L249.53 469.21L253.48 465.49L257.05 460.86L259.43 459.06L264.26 454.19L267.04 448.01L267.64 445.59L267.71 441.09ZM189.8 317.25H194.18L195.38 317.72L198.61 321.88L198.65 323.08L198.08 324.1L196.42 324.85L192.75 324.88L190.85 325.41L189.3 325.26L189 324.68L188.97 322.31L188.55 321.73L185.3 321.42L182.76 319.44L182.64 314.33L183.27 313.91L186.87 314.07L187.83 314.93L189.2 317.03L189.8 317.25ZM82.9395 268.9L84.2095 270.72L88.7195 286.6L89.2495 287.69L95.8995 296.18L99.3495 306.64L99.9595 307.8L100.75 308.02H107.22L109.73 307.51L116.36 307.54L119.69 307.04L120.2 306.64L112.78 270.76L121.32 270.73L123.41 271.23L126.29 271.35L127.52 271.82L130.05 271.92L131.26 272.39L133.28 272.43L133.49 273.68L135.34 276.62L144.72 280.89L157 292.53L158.33 293.22L159.43 291.98L161.65 288.1L161.72 286.48L151.5 275.65L154.46 275.88L161.36 277.51L163.74 277.42L167.5 276.14L170.67 275.28L177.04 272.8L183.75 272.77L190.15 276.73L192.38 278.43L193.31 279.98L195.63 281.26L193.33 282.5L184.96 283.74L181.52 286.72L177.83 289.07L173.57 287.44L172.66 287.51L170.47 291.36L168.02 297.67L164.52 304.85L169.45 308.25L172.82 312.44L175.01 316.89L175.11 322.51L175.61 324.5L175.59 330.6L175.98 331.26L177.05 331.77L191.33 335.21L192.63 334.71L194.47 331.09L195.34 330.38L205.54 331.01L211.77 335.7L231.22 347.81L228.38 352.16L226.85 355.55L222.62 358.95L216.75 367.06L215.33 368.64L211.89 374.22L206.23 380.97L205.73 382.45L195.87 377.55L192.81 377.46L191.41 376.98L187.95 376.9L184.87 376.35L176.03 376.85L168.76 376.81L161.84 377.82L156.78 377.78L141.72 372.92L133.51 371.64L132.31 371.17L129.74 371.16L129.24 371.52L125.25 379.6L123.16 380.27L119.84 380.28L119 381.01L119.48 384.32L119.49 390.62L119.99 392.98L119.79 396.89L112.28 398.74L105.2 401.77L104.29 401.84L94.3295 396.21L92.7095 395.16L91.5995 393.92L87.2995 373.48L87.2895 369.91L88.3195 367.43L88.3095 366.15L86.9095 365.5L85.0095 365.34L73.3295 362.69L71.1795 362.57L70.1095 362.13L61.2595 362.12L60.9595 362.58V364.06L63.0295 373.42L63.1395 375.75L63.7795 377.6L89.7395 400.28V401.12L87.8295 403.53L87.6295 404.42L88.2995 405.38L91.3595 408.02L93.6395 420.41L96.8695 429.76L98.4995 432.6L108.04 444.54L107.92 445.2L106.15 446.22L100.96 448.36L99.1795 448.43L97.1095 441.55L93.9995 437.79L87.9195 428.92L82.1695 421.69L80.8495 421.12L74.7095 421.11L71.4795 421.62L74.9395 427.76L88.8895 448.19L94.4995 470.47L91.4895 464.43L87.3895 458.12L79.5195 450.61L77.2795 448.07L75.2295 442.85L72.1695 438.33L70.1295 432.54L67.8295 427.72L65.8595 421.94L63.6595 418.6L61.5095 413.56L58.8495 409.58L57.1095 405.35L54.4395 401.36L52.7095 397.12L49.7395 392.12L45.5695 378.38L43.7595 368.02L40.9695 360.81L39.4495 351.61L36.0195 336.47L34.5195 319.74L35.2195 309.41L35.7595 306.06L38.3595 296.29L39.1795 284.33L42.0995 272.14L46.4295 274.63L50.8195 277.99L56.8695 290.86L57.7495 291.36L59.3595 290.26L81.7295 269.49L82.9395 268.9ZM127.72 328.79L129.13 329.46L132.69 336.84L133.79 337.9L138.38 340.07L139.42 339.44L143.73 332.87L143.66 332.24L143.13 331.67L136.15 326.23L126.72 321.69L125.64 321.97L123.97 326.93L123.82 328.28L124.53 328.77L127.72 328.79ZM149.25 298.83L148.19 301.51L148.4 302.51L149.96 304.89L152.71 307.09L156.4 305.96L156.77 304.83L156.09 301.46L150.13 298.48L149.25 298.83Z" fill="#C7C7C7" stroke="white" stroke-width="2"/>
<path d="M218.361 137.1L214.621 135.48L212.721 133.95L210.451 134.21L210.071 134.78L210.451 135.91L209.841 136.7L206.371 136.81L195.781 142.14L191.371 145.98L187.861 151.65L186.751 152.25L184.531 152.36L183.801 151.51L183.001 148.98L180.981 145.44L180.371 144.84H179.851L176.381 146.89L173.361 150.49L169.291 153.98L166.611 157.23L166.281 158.25L163.101 158.13L161.501 158.64H158.261L155.321 157.61L153.971 157.51L148.211 159.09L146.201 159.04L144.021 157.88L143.391 157.12V153.99L144.191 152.55L150.741 140.97L153.331 140.68L155.841 141.25L158.741 141.18L162.991 137.04L169.081 133.6L176.941 128.53L183.571 125.09L188.231 119.35L194.431 114.79L201.421 107.75L206.901 97.3901L208.601 93.6801L208.621 92.3001L207.251 92.7901L201.771 97.2001L189.081 109.33L180.041 115.25L178.761 114.83L173.761 111.4L166.231 103.77L166.011 103.07L167.631 100.77L173.791 94.2901L182.711 87.0301L193.521 76.8001L198.901 71.3801L204.741 64.4301L206.371 65.3601L217.781 80.0701L237.631 109.56L226.161 128.15L218.361 137.1Z" fill="#C7C7C7" stroke="white" stroke-width="2"/>
<path d="M147.092 513.04L151.622 519.68L151.882 526.23L156.962 533.25V534.07L155.482 537.37L155.562 538.48L158.712 542.75L159.652 543.37L163.212 544.57L164.922 544.1L167.502 544.22L169.832 551.55L169.872 560.55L169.362 562.46L169.262 564.92L167.042 575.88L164.412 582.05L164.552 582.94L167.732 588.39L168.872 589.54L171.252 589.64L173.092 589.11L175.722 589.06L176.852 588.6L179.372 588.58L184.582 587.6L185.672 587.86L196.322 596.04L197.082 598.09L197.752 602.43L198.542 604.71L211.732 618.99L217.432 623.35H218.662L228.112 617.79L229.232 617.74L235.732 625.6V639.33L236.252 641.71L228.872 649.16L226.172 652.37L223.402 658.41L224.322 669.63L224.332 674.99L223.272 679.86L224.002 682.19L227.622 688.35L230.842 692.19L236.182 697.64L236.992 698.23L244.942 699.96L249.352 699.98L254.432 698.77L261.202 695.04L264.752 692.68L268.742 691.32L271.572 688.82L270.852 685.6L266.642 681.31L264.222 679.42L260.422 674.81L259.312 671.27L259.292 666.62L258.812 664.95L258.772 660.5L258.202 657.15L253.452 651.22L253.572 648.66L255.452 645.45L256.172 643.23L257.672 642.03L258.702 640.62L260.392 637.58L261.592 633.67L260.442 628.46L257.892 620.55L257.912 606.44L257.392 604.69L257.422 602.5L258.052 602.08L263.052 602.12L264.492 601.63L268.432 601.61L269.852 601.13L272.612 601.03L272.452 608.57L272.912 609.75L273.002 612.49L274.612 619.68L277.292 627.09L279.722 631.08L281.572 635.01L282.412 635.8L282.642 637.74L285.612 644.82L282.602 653.29L283.622 657.65L289.282 672.71L294.832 690.85L302.112 704.8L301.712 705.73L295.762 711.56L295.432 712.3L301.832 717.36L305.982 726.1L309.222 730.53L313.002 733.83L316.412 736.21L319.512 740.95L324.682 744.42L320.432 746.88L316.582 749.9L312.302 751.79L307.562 754.93L303.562 756.58L296.552 758.84L294.522 760.39L287.222 767.71L281.472 769.53L275.342 772.28L268.912 774.29L256.112 775.66L243.152 777.83L240.662 778.52L231.352 783.14L220.552 789.96L215.592 794L209.702 790.73L208.142 789.27L204.492 784.32L204.032 782.28L203.622 771.69L202.292 762.52L201.612 759.65L199.582 755.29L195.682 751.29L191.272 747.91L185.632 745.72L178.342 740.12L174.202 738.65L171.922 737.32L155.732 716.31L150.332 711L149.552 709.58L147.732 703.38L145.722 699.2L145.772 693.36L147.282 689.21L147.862 686.29L148.232 679.73L147.972 677.94L147.012 677.19L144.292 677.1L143.122 676.63L140.532 676.54L137.992 675.89L133.042 674.2L129.812 672.03L128.752 670.92L127.642 668.65L126.062 665.04L124.682 660.7L120.202 655.71L117.262 650.57L116.142 649.44L118.932 643.03L120.592 636.96L122.732 632.24L123.452 629.04L123.782 623.46L123.682 598.34L123.292 595.1L120.702 585.71L118.802 574.87L114.602 564.67L111.772 558.88L112.842 554.73L113.352 549.53L113.242 542.99L112.682 537.89L111.522 532.75L110.112 523.67L107.352 514.09L115.722 512.42L121.822 511.81L123.532 511.34L129.202 511.41L135.962 512.98L139.962 513.09L143.232 513.63L147.092 513.04Z" fill="#C7C7C7" stroke="white" stroke-width="2"/>
<path d="M297.29 570.98L299.7 569.45L302.36 569.32L304.46 568.62L307.72 566.45L310.56 563.73L312.5 562.95L316.55 562.99L321.1 564.04L326.1 564.12L328.17 564.64L330.23 564.14L337.23 564.17L339.43 563.73L356.19 569.06L360.68 569.99L362.45 566.73L364.88 563.76L379.4 578.05L390.16 596L398.34 619.76L391.87 641.8L388.41 665.13L362.64 665.64L339.7 675.91L339 680.56L337.88 679.77L336.61 676.46L335.28 674.67L333.61 671.28L332.85 668.87L330.69 665.5L327.88 662.81L324.5 658.59L322.87 654.65L322.79 651.88L322.2 649.26L320.86 646.05L323.13 644.67L323.83 643.42L324.45 640.31L324.54 637.71L325 636.53L325.09 633.92L325.56 632.74L325.67 630.01L327.69 624.39L328.97 619.61L330.95 615.39L330.98 612.71L327.95 609.46L326.34 606.84L325.22 601.67L325.09 598.41L324.01 594.13L323.31 592.62L320.44 590.13L317.63 586.46L315.19 584.46L314.34 582.6L312.75 580.41L310.06 577.68L304.68 573.89L300.26 572.5L297.29 570.98ZM274.77 403.98L272.68 409.03L272.47 413.14L271.35 415.73L269.38 418.56L269.29 421.35L268.85 422.97L269.87 425.64L269.34 427.36L269.24 431.05L268.78 432.26L269.28 434.71L267.68 437.86L267.41 439.5L267.7 441.1L267.6 445.56L267 447.98L264.22 454.16L259.39 459.03L257.01 460.83L253.44 465.46L249.49 469.18L249.15 470.19L249.18 474.43L247.49 476.81L246.4 476.97L243.95 474.91L242.82 474.99L239.74 479.43L238.35 483.13L235.9 486.75L235.73 489.52L236.36 491.26L236.95 491.92L246.77 498.14L249.27 501.72L251.87 504.65L257.88 509.35L261.32 510.54L267.03 511.27L273.49 513.87L282.07 515.15L282.78 515.96L282.98 521.05L282.46 522.79L282.35 526.1L279.58 535.08L275.95 544.28L275.87 547.98L275.36 549.61L275.31 555.72L274.83 557.63L274.75 562.06L274.22 564.87L271.6 571.53L269.96 578.03L269.81 580.57L269.31 582.17L269.34 589.77L269.77 590.79L270.46 595.43L272.64 601.05L269.88 601.15L268.47 601.63L264.52 601.64L263.09 602.14L258.08 602.1L257.45 602.52L257.43 604.71L257.95 606.46L257.93 620.57L260.48 628.48L261.63 633.69L260.43 637.6L258.75 640.64L257.71 642.05L256.21 643.25L253.68 642.21L251.48 642.13L247.88 644.17L245.66 644.79L236.3 641.72L235.78 639.34V625.61L229.28 617.76L228.16 617.81L218.72 623.37H217.49L211.78 619.01L198.59 604.73L197.81 602.46L197.14 598.12L196.37 596.08L185.72 587.9L184.63 587.63L179.43 588.61L176.91 588.64L175.78 589.1L173.15 589.15L171.31 589.68L168.93 589.59L167.79 588.43L164.61 582.98L164.47 582.09L167.1 575.91L169.32 564.96L169.42 562.5L169.93 560.59L169.89 551.59L167.56 544.26L164.98 544.14L163.27 544.61L159.71 543.41L158.77 542.79L155.62 538.52L155.54 537.4L157.03 534.1V533.28L151.95 526.26L151.68 519.72L147.15 513.07L152.79 510.74L153.94 506.38L154.04 503.9L154.57 502.03L154.24 500.43L151.58 498.26L149.34 495.68L148.69 493.2L148.6 489.51L145.03 484.72L144.91 481.81L144.41 480.22L144.46 472.08L146.73 463.56L149.03 459.86L153.49 457.79L155.01 456.81L155.27 456.22L155.18 453.88L152.72 448.48L151.09 443.67L151.13 440.3L153.13 438.99L155.71 439.7L160.22 447.43L163.08 448.71L163.96 448.78L165.31 447.66L165.54 446.8L165.47 441.94L163.41 436.47L163.52 434.41L164.66 432.69L167.6 432.03L173.95 432.17L177.27 434.42L180.78 439.79L181.75 440.22L188.02 437.42L192.2 433.37L195.98 431.78L198.35 431.51L198.37 429.32L195.3 417.22L195.26 415.35L199.47 404.35L201.33 398.38L203.83 393.01L206 387.06L206.12 383.72L205.78 382.44L206.28 380.96L211.95 374.21L215.39 368.63L216.81 367.05L229.67 373.53L236.12 378.42L250.88 391.26L258.94 397.81L266.1 401.74L273.46 403.93L274.77 403.98Z" fill="#C7C7C7" stroke="white" stroke-width="2"/>
<path d="M274.19 564.84L276.91 564.91L280.2 565.95L286.18 566.07L289.08 567.59L293.28 568.87L296.38 570.8L297.3 570.99L300.24 572.5L304.66 573.89L310.04 577.69L312.73 580.42L314.32 582.61L315.17 584.47L317.61 586.48L320.42 590.15L323.29 592.64L324 594.15L325.08 598.43L325.21 601.69L326.33 606.86L327.94 609.48L330.97 612.74L330.94 615.42L328.96 619.64L327.68 624.42L325.66 630.04L325.55 632.77L325.08 633.95L325 636.52L324.54 637.7L324.46 640.3L323.84 643.41L323.15 644.66L320.88 646.05L318.9 646.82L317.21 646.89L313.87 645.86L307.46 644.57L296.03 640.68L289.93 636.58L288.43 636L282.42 635.83L281.58 635.04L279.73 631.11L277.3 627.12L274.62 619.71L273 612.53L272.91 609.79L272.45 608.61L272.61 601.08L270.43 595.46L269.74 590.82L269.31 589.8L269.29 582.2L269.79 580.6L269.94 578.06L271.58 571.56L274.19 564.84ZM312.23 460.82L317.75 465.67L322.53 470.8L326.03 473.24L330.86 479.35L332 482.43V492.39L332.59 496.05L334.55 499.46L336.17 505.34L336.22 507.09L334.14 507.8H330.05L323.9 506.2L321.58 506.07L317.8 500.35L314.78 499.64L312 499.58L308.3 500.64L304.47 500.57L302.16 500.05L294.04 499.9L288.58 494.92L287.27 491L282.63 483.97L282.65 482.83L283.88 482.14L290.99 481.47L297.91 479.33L298.92 478.64L303.43 473.9L311.06 463.04L312.23 460.82ZM94.5098 470.46L88.8998 448.18L74.9498 427.76L71.4898 421.62L74.7198 421.11L80.8598 421.12L82.1798 421.69L87.9298 428.92L93.9998 437.79L96.9898 441.44L99.0598 448.32L100.84 448.25L106.03 446.11L107.8 445.09L107.92 444.43L98.3798 432.49L96.7498 429.65L93.5198 420.3L91.2398 407.91L88.1798 405.27L87.5098 404.31L87.7098 403.42L89.6198 401.01V400.18L63.6598 377.5L63.0198 375.66L62.9098 373.33L60.8398 363.97V362.49L61.1398 362.03L69.9998 362.04L71.0698 362.48L73.2198 362.6L84.8998 365.25L86.7998 365.41L88.1998 366.06L88.2098 367.34L87.1798 369.82L87.1898 373.39L91.4898 393.83L92.5998 395.07L94.2198 396.12L104.18 401.75L105.09 401.68L112.17 398.65L119.68 396.81L119.88 392.9L119.38 390.54L119.37 384.24L118.89 380.93L119.73 380.2L123.05 380.19L125.14 379.52L129.13 371.44L129.63 371.08L132.2 371.09L133.4 371.56L141.61 372.84L156.67 377.7L161.73 377.74L168.65 376.73L175.92 376.77L184.76 376.27L187.84 376.82L191.3 376.9L192.7 377.39L195.77 377.48L205.63 382.38L205.97 383.66L205.85 387L203.68 392.95L201.18 398.32L199.32 404.29L195.11 415.29L195.15 417.16L198.22 429.27L198.2 431.46L195.83 431.73L192.05 433.32L187.87 437.37L181.6 440.17L180.63 439.74L177.12 434.37L173.8 432.12L167.45 431.99L164.52 432.65L163.38 434.37L163.27 436.43L165.33 441.9L165.4 446.76L165.17 447.62L163.82 448.74L162.94 448.67L160.08 447.39L155.57 439.66L152.99 438.95L150.99 440.26L150.95 443.63L152.58 448.44L155.04 453.84L155.13 456.18L154.87 456.77L153.35 457.75L148.9 459.82L146.6 463.52L144.33 472.04L144.28 480.18L144.78 481.77L144.9 484.68L148.47 489.47L148.56 493.16L149.21 495.64L151.45 498.22L154.11 500.39L154.44 501.99L153.91 503.86L153.81 506.34L152.66 510.7L147.02 513.03L143.17 513.62L139.9 513.08L135.9 512.97L129.14 511.4L123.47 511.33L121.76 511.8L115.66 512.41L107.3 514.08L105.21 503.38L102.45 495.96L100.35 485.85L98.2498 480.9L96.0098 473.58L94.5098 470.46ZM139.11 328.7L143.12 331.68L143.75 332.66L139.41 339.45L138.59 340.1L133.12 337.35L129.12 329.47L127.72 328.8L124.27 328.73L123.81 328.08L125.63 321.98L126.71 321.7L135.29 325.71L139.11 328.7ZM207.13 290.5L205.24 291.31L204 287.98L202.46 285.99L197.37 282.97L195.57 281.23L193.25 279.95L197 277.38L203.54 283.31L207.13 290.5ZM112.75 270.73L120.17 306.61L119.66 307.01L116.34 307.51L109.71 307.48L107.2 307.99H100.73L99.9398 307.78L99.3298 306.62L95.8798 296.16L89.2298 287.67L88.6998 286.58L84.1998 270.71L82.9298 268.89L85.8198 268.85L87.9698 269.39L93.3798 269.42L97.6198 269.46L100.37 270.01L109.44 270.08L112.75 270.73Z" fill="#C7C7C7" stroke="white" stroke-width="2"/>
</svg>
