<svg width="790" height="599" viewBox="0 0 790 599" fill="none" xmlns="http://www.w3.org/2000/svg">
<path d="M376.129 467.98L377.319 467.76L378.799 469.61L381.259 469.27L382.569 466.33L383.689 467.43L391.889 467.71L391.869 469.41L390.319 469.38L390.259 470.44L396.309 468.24L395.629 463.81L396.319 462.52L405.109 463.35L405.599 461.88L407.229 462.27L410.019 460.62L410.539 457.68L408.109 456.42L410.619 450.26L416.029 447.82L420.759 448.72L423.389 453.25L426.049 450.93L435.189 450.97L436.249 446.88L440.819 446.93L443.259 444.72L443.689 445.66L445.199 445.25L443.969 446.12L443.869 449.66L445.329 451.18L446.429 454.79L451.659 456L454.879 454.95L457.589 455.96L461.289 454.56L463.039 455.15L463.149 453.29L464.359 452.88L463.679 454.46L464.779 456.19L463.909 456.32L464.059 459.77L465.329 459.91L465.929 463.83L462.339 465.53L463.479 467.73L466.269 467.11L467.999 469.52L467.249 470.78L467.979 472.02L465.429 474.75L465.389 476.58L466.329 477.27L467.579 475.87L469.729 478.76L475.629 478.99L476.949 477.91L481.519 477.57L481.479 479.72L483.819 481.17L483.779 479.91L485.049 479.72L485.699 480.98L486.519 480.64L486.809 475.53L487.789 476.26L489.339 474.98L490.409 475.32L491.619 472.76L494.629 473.81L495.579 472.46L497.509 472.25L501.309 476.01L504.119 476.79L504.049 480.04L502.869 481.46L504.409 486.11L505.159 484.51L506.599 484.46L506.869 482.29L507.869 483.62L515.859 482.52L515.899 483.59L521.539 483.68L521.169 481.69L522.179 481.46L522.099 480.39L524.129 480.84L529.519 479.4L530.089 481.3L531.669 477.75L535.919 476.08L538.909 476.56L540.709 475.05L544.829 474.27L545.649 477.57L543.599 478.32L544.629 483.48L541.609 484.21L541.959 486.98L532.499 488.81L532.829 491.4L530.469 492.09L531.239 495.88L530.629 496.57L532.629 497.46L531.499 500.14L533.289 506.31L526.659 506.76L525.199 508.84L527.169 511.06L524.039 511.38L522.119 515.6L518.519 515.42L518.169 517.11L516.379 516.49L516.689 520.07L513.919 519.8L512.669 521.33L511.299 520.71L509.489 521.9L510.289 524.81L509.189 526.73L517.579 530.42L517.679 533.13L518.719 533.16L517.499 534.48L519.339 536.71L520.359 540.33L518.329 541.06L520.079 544.08L515.089 547.97L512.559 547.38L512.229 548.63L513.279 551.32L516.159 553.34L518.639 557.93L518.949 563.81L521.689 566.4L524.569 565.36L525.669 566.85L524.799 567.92L520.969 567.69L521.429 572.48L519.589 572.12L519.459 574.37L517.969 575.27L515.189 574.46L511.869 575.66L507.269 579.97L507.629 581.71L500.999 582.44L503.219 572.19L502.289 569.96L499.589 569.67L496.859 572.57L492.089 571.8L489.339 575.84L485.229 577.34L478.429 583.23L476.349 586.76L472.379 590.02L469.959 594.78L467.009 596.25L466.929 594.84L465.769 594.8L465.869 596.79L464.719 596.05L465.179 594.98L460.209 596.59L456.769 596.27L455.339 593.74L454.659 595.52L453.269 596.2L450.999 595.61L443.749 587.56L443.809 585.86L442.839 584.91L440.119 586.69L437.249 585.56L437.719 583.73L436.019 580.99L434.869 581.94L429.959 582.55L428.059 584.61L424.299 583.91L422.539 587.96L407.799 590.86L405.149 590.54L405.329 587.78L404.289 585.06L397.859 581.3L396.989 582.14L396.919 584.97L394.439 587.17L392.509 587.08L389.559 584.54L386.899 585.13L382.219 589.32L382.429 590.86L384.679 592.88L384.639 594.87L382.279 596.86L379.349 597L379.989 594.35L378.189 593.06L377.949 591.52L373.389 590.02L371.979 588.55L370.149 587.94L369.379 589.12L365.539 589.01L364.519 589.8L361.949 588.96L356.679 590.91L355.289 588.6L353.699 588.37L352.959 587.17L351.399 586.67L350.239 587.67L348.339 586.56L346.979 586.94L345.919 584.29H344.209L341.719 581.48L339.769 574.64L341.739 572.6L342.539 572.87L344.369 568.13L345.499 567.42L345.959 559.61L344.529 554.02L342.449 548.93L341.239 548L341.559 544.56L340.389 539.83L338.819 538.8L338.939 537.44L337.059 536.41L336.769 534.68L332.209 534.18L326.329 522.53L323.749 522.08L321.689 518.41L318.589 516.95L320.179 511.76L317.309 506.67L321.729 504.34L320.879 500.43L322.399 496.02L324.859 495.26L324.629 493.11L329.469 490.92L334.079 491.54L334.489 490.74L336.939 490.55L336.059 488.77L334.429 488.45L334.789 484.26L333.679 483.36L336.669 483.8L340.879 480.02L344.199 480.41L344.169 468.28L351.969 466.1L357.619 462.57L359.069 458.28L361.649 456.83L365.009 459.91L365.269 462.66L366.879 465.44L370.879 463.37L372.629 465.71L376.129 467.98Z" fill="#C7C7C7" stroke="white" stroke-width="2"/>
<path d="M232.611 233.6L235.671 230.99L237.311 232.19L243.071 225.13L245.151 227.56L248.741 227.67L250.981 226.4L253.201 227.39L254.831 226.76L254.401 228.8L255.551 230.29L254.331 232.05L255.231 232.57L251.821 233.91L254.351 237.44L255.121 237.67L255.901 235.39H257.981L258.541 236.19L257.881 237.23L259.801 236.26L260.451 237.11L265.831 231.96L270.961 231.44L273.241 230.19L274.811 230.15L274.791 231.37L276.031 230.57L275.771 229.49L276.681 229.06L277.061 229.77L280.791 225.91L282.771 228.1L283.131 225.3L283.971 226.71L286.541 227.6L287.291 226.43L285.071 220.04L285.251 219.24L288.191 218.96L287.901 215.61L288.901 215.33L288.131 212.9L291.761 212.15L292.301 215.5L294.571 215.85L304.201 212.83L304.911 210.73L305.891 210.57L305.311 213.21L306.381 214.25L307.521 220.26L309.491 220.47L309.731 221.93L312.311 219.86L312.021 218.32L313.061 217.9L313.601 219.9L319.581 216.37L320.771 216.6L321.161 217.62L323.521 217.97L326.181 220.14L329.021 223.95L329.031 226.45L331.151 226.31L336.351 228.71L335.401 230.31L337.751 231.02L339.081 230.26L339.411 228.62L340.091 228.8L338.971 224.26L342.871 224L343.011 223.08L347.001 222.26L347.751 223.72L351.441 225.86L350.301 229.16L351.211 233.79L357.951 233.35L360.361 234.43L363.571 234.24L364.271 232.03L363.171 231.23L366.901 228.95L368.571 225.65L374.181 224.02L374.021 222.38L385.231 217.73L385.061 216.89L389.031 215.33L390.401 215.94L394.931 212.45L398.131 216.79L395.851 217.69L396.711 220.37L400.221 224.45L403.381 226.54L403.511 225.06L406.681 224.66L414.471 232.71L417.301 232.19L415.361 238.73L416.381 239.74L422.391 241.08L423.941 238.61L426.441 238.8L428.181 241.95L430.021 241.11L431.911 238.59L437.041 238.85L437.771 233.44L443.141 235.67L443.381 239.06L449.821 241.43L451.631 237.7L452.471 239.67L456.111 242.07L457.591 241.34L458.481 242.42L459.451 241.62L462.761 243.69L462.471 247.78L466.491 251.21L469.011 251.37L468.751 256.79L465.861 257.97L465.551 261.2L463.591 262.4L463.871 266.5L462.761 266.9L461.641 276.09L465.981 276.49L466.061 279.11L467.061 279.01L464.981 289.92L467.041 290.13L467.001 291.39L468.771 291.58L469.131 290.48L477.201 293.07L474.041 297.23L475.481 299.52L475.231 302.21L476.511 304.01L476.561 306.25L477.061 307.25L482.231 308.32L481.531 310.05L479.611 311.15L482.151 314.06L481.321 314.72L482.461 315.04L482.151 316.3L484.471 319.07L485.771 318L487.331 318.47L487.351 322.2L488.591 323.36L487.971 325.27L489.061 325.51L488.591 327.02L490.111 326.37L490.211 327.11L491.641 327.18L493.671 329.49L493.771 332.44L495.591 332.91L494.471 334.35L493.091 334.33L492.481 335.49L493.671 336.19L493.291 337.17L487.801 338.1L488.471 341.73L484.901 343.03L484.741 345.26L483.161 346.84L486.831 350.79L492.131 350.72L494.621 354.83L499.931 357.15L501.471 361.54L506.821 360.54H509.391L511.631 363.67L515.811 365.39L517.631 367.25L517.481 370.54L516.201 371.51L514.811 372.11L513.541 370.49L512.871 371.49L510.201 371.6L510.601 372.46L509.591 372.79L511.331 385.45L510.161 385.8L510.371 384.69L509.151 384.9L508.111 386.66L506.601 385.29L506.391 386.87L500.831 387.58L495.191 391.28L494.871 396.23L493.521 398.24L494.281 400.14L495.031 400.05L495.381 402.38L493.521 402.72L493.771 406.24L492.621 406.91L493.151 408.54L491.861 409.72L493.131 411.52L492.661 413.09L490.861 413.9L488.331 413.55L486.891 410.9L484.101 410.62L483.901 409.72L482.711 409.86L483.351 413.21L482.271 416L476.901 413.44L472.981 414.25L472.971 415.49L472.381 415.24L470.191 418.54L470.381 422.8L472.411 428.72L469.481 430.59L472.051 430.57L473.581 435.77L472.451 436.39L471.541 435.33L470.121 438.12L468.811 437.77L467.491 439.38L465.781 438.07L466.191 445.73L464.361 452.88L463.151 453.29L463.041 455.15L461.291 454.56L457.591 455.96L454.881 454.95L451.661 456L446.431 454.79L445.331 451.18L443.871 449.66L443.971 446.12L445.201 445.25L443.691 445.66L443.261 444.72L440.821 446.93L436.251 446.88L435.191 450.97L426.051 450.93L423.391 453.25L420.761 448.72L416.031 447.82L410.621 450.26L408.111 456.42L410.541 457.68L410.021 460.62L407.231 462.27L405.601 461.88L405.111 463.35L396.321 462.52L395.631 463.81L396.311 468.24L390.261 470.44L390.321 469.38L391.871 469.41L391.891 467.71L383.691 467.43L382.571 466.33L381.261 469.27L378.801 469.61L377.321 467.76L376.131 467.98L380.221 462.55L380.791 459.54L376.471 455.01L375.041 448.79L369.211 450.76L364.201 440.97L368.691 438.72L365.291 433.05L361.431 433.4L361.951 431.6L359.721 431.85L359.351 430.38L365.291 428.15L363.041 426.79L362.971 425.04L365.631 423.19L365.011 419.39L360.741 412.72L364.531 409.56L360.901 403.16L362.271 399.7L360.031 398.52L353.441 400.32L353.701 399.38L357.601 397.64L362.151 391.19L356.521 385.38L358.011 383.56L356.371 381.73L359.281 377.37L347.591 368.57L343.781 370.24L343.381 371.95L342.121 372L342.281 370.61L339.801 370.26L339.221 369.36L339.731 367.39L339.061 367.29L338.661 361.31L327.791 355.83L328.871 354.34L330.391 354.62L334.861 349.75L343.791 348.12L345.801 346.98L346.011 345.91L352.251 343.7L353.681 342.49L353.631 336.91L349.411 334.52L340.011 333.49L332.701 328.04L330.461 327.6L334.281 324.99L335.591 321.01L339.511 315.55L339.561 306.97L343.291 296.83L336.571 294.83L336.261 293.38L331.821 295.36L330.651 293.8L328.401 294.73L325.781 293.21L326.021 288.58L324.791 287.46L318.271 288.42L317.601 287.67L316.471 289.57L313.661 289.73L311.811 288.4L304.941 289.03L304.751 288.09L303.281 289.14L300.881 289.07L300.431 287.2L301.801 286.43L301.761 284.23L300.701 280.75L299.661 282.08L296.991 281.21L295.401 283.2L292.361 283.83L286.321 282.43L284.761 285.52L276.441 285.03L275.901 283.76L278.991 279.58L276.381 277.4L272.481 276.2L273.801 269.97L268.591 271.5L267.431 269.18L266.281 269.72L267.071 271.85L262.261 272.5L262.111 275.03L259.841 274.82L259.011 277.07L257.961 277.54V273.02L255.281 271.33L255.221 268.66L250.651 269.76L247.961 268.52L248.151 264.82L250.621 263.06L250.421 258.67L248.751 255.39L246.921 254.75L243.271 255.93L242.351 253.39L239.921 253.51L239.261 250.93L240.961 249.14L240.741 245.15L238.971 245.01L238.191 246.44L235.031 247.07L233.031 239.48L231.551 238.36L234.411 236.5L234.651 234.95L232.611 233.6Z" fill="#C7C7C7" stroke="white" stroke-width="2"/>
<path d="M45.15 282.97L44.44 283.27L44.08 282.17L45.15 282.97ZM45.68 281.85L44.17 281.87L43.85 280L46.23 281.03L45.68 281.85ZM45.35 280.23L44.08 279.34L44.88 278.94L45.35 280.23ZM46.46 279.86L47.03 280.16L46.08 280.67L45.12 278.87L46.46 279.86ZM46.99 279.67L45.95 278.62L46.62 277.59L46.99 279.67ZM21.76 176.26L26.21 185.87L25.41 190.79L26.44 202.25L25.6 214.73L23.56 226.79L24.16 230.2L22.81 232.29L20.35 241.48L22.7 244.02L23.13 246.3L19.95 248.7L20.8 250.23L18.3 253.07L18.59 255.35L15.89 258.87L16.58 262.67L15.32 265.84L16.19 267.93L10.62 271.47L9.64 273.18L10.07 274.37L7.62 275.47L8.64 277.46L6.32 278.65L5.87 279.96L2.62 279.49L2 279.32L6.69 270.4L14.35 250.46L17.6 239.79L20.35 225.91L21.77 215.87L22.61 196.69L20.59 175.03L21.76 176.26ZM136.61 18.66L138.13 19.09L137.52 21.4L138.13 24.14L136.75 25.13L132.94 24.94L132.37 32.97L138.49 33.57L137.45 45.01L138.47 45.23L139.24 49L140.51 49.67L141.31 53.75L140.12 55.17L143.54 58.67L143.37 62.22L136.98 61.07L136.14 66.68L134.39 66.78L133.21 77.39L131.27 79.54L131.78 80.62L130.82 82.1L128.68 81.29V80.12L121.46 79.02L121.57 77.58L119.44 77.29L118.57 79.11L120.17 80.86L120.99 85.91L112.16 82.51L111.89 83.23L108.68 82.87L105.86 90.26L102.79 89.59L100 97.76L99.08 97.9L99.53 99L98.45 99.19L94.94 107.57L92.88 107.09L91.64 108.09L88.91 105.92L84.83 106.02L83.24 109.84L87.96 111.89L84.59 119.44L85.62 121.61L85.77 127.25L83.39 127.32L84.06 129.7L85.17 129.32L87.32 130.46L90.51 133.84L89.03 135.29L86.88 134.86L85.12 137.14L85.93 138.64L85.44 140.35L83.58 140.04L81.28 141.25L81.2 143.58L78.93 143.32L78.34 144.08L79.15 147.9L77.48 146.86L75.07 153.13L81.36 157.09L82.87 155.29L84.02 155.34L83.73 152.18L85.32 152.09L86.36 155.65L88.9 156.76L89.17 158.28L90.73 159.11L90.1 161.6L90.9 162.48L92.16 162.12L91.95 163.12L90.89 163L90.64 167.2L93.39 167.93L95.58 165.09L102.09 168.38L103.2 166.82L103.96 168.53L105.6 167.89L106.64 165.38L109.13 166.92L109.25 173.27L107.94 174.26L107.23 177.39L109.03 179.31H111.2L112.46 181.25L115.32 180.63L115.67 181.32L113.22 183.57L113.01 186.5L111.42 188.42L112.01 192.37L110.34 191.97L110.42 193.84L112.17 196.04L113.71 196.28L114.06 201.97L119.19 200.29L125.62 205.62L123.9 208.05L125.02 209.37L122.07 211.28L121.15 210.86L120.2 212.56L119.16 212.39L116.22 216.52L116.82 217.09L119.19 215.89L119.83 216.67L117.57 218.98L117.76 224.07L119.62 229.11L121.37 228.33L123.45 236.09L124.09 245.94L125.41 246.03L130.74 243.02L136.79 246.61L141.24 245.79L142.43 248.89L143.46 248.73L144.31 251.97L143.83 255L140.36 260.3L139.77 262.79L135.69 266.49L135.54 268.15L133.72 269.16L127.53 277.94L126.47 281.15L133.31 283.56L137.41 283.68L140.1 286.49L146.1 289.39L144.88 292.55L147.58 298.56L149.49 306.41L155.6 305.38L161.32 306.08L162.7 304.82L166.47 309.09L170.49 308.3L176.02 310.17L179.71 309.94L182.61 312.55L181.38 313.39L179.36 312.2L177.37 312.62L178.16 313.93L176.82 316.17L177.38 317.85L176.61 320.04L178.84 329.73L171.76 330.31L167.46 331.87L162.92 331.61L160.17 333.59L157.86 338.45L152.33 338.78L149.43 337.48L147.05 335.06L146.28 331.17L147.48 326.89L146.54 325.1L140.98 324.7L137.29 327.36L131.3 326.08L125.94 323.03L121.86 322.07L117.53 317.01L112.88 317.03L105.18 313.74L103.92 310.05L95.44 302.65L88.18 300.99L84.35 298.54L81.14 298.84L77.41 301.53L75.34 300.95L73.68 297.7L68.8 293.07L66.27 286.27L59.67 276L58.31 277.66L53.65 280.02L48.41 285.66L45 287.18L44.81 286.31L45.89 286.19L44.93 283.69L47.46 280.13L47.11 276.59L47.86 276.89L48.39 274.01L47.64 274.24L45.85 269.11L42.12 266.88L40.88 264.72L41.9 264.39L42.53 262.44L42.21 260.21L44.25 260.14L41.71 258.9L39.71 262.3L37.45 262.02L36.93 263.31L33.16 264.98L38.67 254.52L41.48 246.82L41.64 237.58L42.43 236.26L41.62 235.95L41.58 230.75L39.74 223.97L38.26 221.71L38.89 220.58L41.09 219.87L39.14 220.11L37.24 221.74L35.32 211.09L36.31 210.62L34.47 209.91L31.81 204.98L29.97 196.81L28.18 194.71L28.75 193.15L27.88 192.68L27.76 189.44L28.63 192.02L29.78 193.6L30.18 193.03L29.24 190.6L28.34 190.39L26.68 183.11L24.06 177.31L19.08 173.36L14.86 128.31L16.96 121.1L18.22 109.09L17.98 99.74L16.62 92.7L26.37 90.36L29.26 88.76L32.17 91.34L34.99 90.91L37.88 84.5L37.6 83.33L39.47 81.7L39.84 78.06L38.73 76.31L38.25 72.05L38.96 70.52L44.79 68.22L46.05 65.08L52.06 57.17L59 54.76L63.78 51.69L65.82 51.91L68.67 50.01L70.34 44.92L74.07 39.49L75.7 39.23L77.26 40.19L79.56 39.4L82.38 37.07L83.42 33.9L85.52 34.28L85.67 33.03L87.71 32.16L93 32.11L98.17 35.02L104.7 34.52L107.43 30.43L112.79 26.92L115.9 22.9L117.98 22.51L119.7 20.58L122.63 21.23L124.38 23.28L130.98 21.35L131.21 20.43L134.5 19.66L135.88 18.14L136.61 18.66Z" fill="#C7C7C7" stroke="white" stroke-width="2"/>
<path d="M220.789 328.49L227.319 332.75L230.509 333.33L241.389 330.86L246.099 327.02L250.529 326.93L255.509 324.27L266.569 325.46L277.139 321.24L282.799 320.24L292.979 323.46L299.589 323.94L318.849 329L322.559 328.98L327.149 327.3L330.459 327.6L332.699 328.04L340.009 333.49L349.409 334.52L353.629 336.91L353.679 342.49L352.249 343.7L346.009 345.91L345.799 346.98L343.789 348.12L334.859 349.75L330.389 354.62L328.869 354.34L327.789 355.83L338.659 361.31L339.059 367.29L339.729 367.39L339.219 369.36L339.799 370.26L342.279 370.61L342.119 372L343.379 371.95L343.779 370.24L347.589 368.57L359.279 377.37L356.369 381.73L358.009 383.56L356.519 385.38L362.149 391.19L357.599 397.64L353.699 399.38L353.439 400.32L360.029 398.52L362.269 399.7L360.899 403.16L364.529 409.56L360.739 412.72L365.009 419.39L365.629 423.19L362.969 425.04L363.039 426.79L365.289 428.15L359.349 430.38L359.719 431.85L361.949 431.6L361.429 433.4L365.289 433.05L368.689 438.72L364.199 440.97L369.209 450.76L375.039 448.79L376.469 455.01L380.789 459.54L380.219 462.55L376.129 467.98L372.629 465.71L370.879 463.37L366.879 465.44L365.269 462.66L365.009 459.91L361.649 456.83L359.069 458.28L357.619 462.57L351.969 466.1L344.169 468.28L344.199 480.41L340.879 480.02L336.669 483.8L333.679 483.36L334.789 484.26L334.429 488.45L336.059 488.77L336.939 490.55L334.489 490.74L334.079 491.54L329.469 490.92L324.629 493.11L324.859 495.26L322.399 496.02L320.879 500.43L321.729 504.34L317.309 506.67L320.179 511.76L318.589 516.95L312.989 515.21L308.559 516.03L306.669 515.07L302.449 508.68L295.969 506.74L296.679 503.82L294.649 502.54L288.069 506.35L282.109 503.06L280.959 502.26L281.469 499.95L283.809 496.55L281.949 494.83L274.619 491.93L276.729 487.07L273.389 486.64L273.159 485.43L260.479 483.18L260.269 480.98L256.099 480.8L253.409 481.78L250.129 489.84L247.999 491.08L238.689 476.84L235.889 470.44L235.529 458.62L233.299 454.99L232.969 452.51L236.629 445.66L235.409 442.9L233.439 441.54L233.459 440.14L238.169 435.54L239.129 431.81L241.429 430.96L242.329 428.65L241.249 426.95L243.039 425.59L239.979 421.95L239.659 421L240.929 420.59L240.939 419.69L238.819 416.94L239.519 414.61L242.109 412.26L240.779 408.06L241.389 406.6L242.399 406.84L244.529 405.08L245.449 402.05L246.439 402.52L247.589 401.41L249.619 401.25L250.729 398.64L252.499 398.94L253.439 397.8L254.809 398.4L255.499 396.58L256.809 396L255.509 394.24L255.909 393.53L259.399 392.95L258.499 391.86L258.799 389.59L260.429 387.63L258.419 386.08L259.599 385.11L259.089 382.86L256.859 381.96L258.319 378.79L254.399 376.19L254.729 373.34L256.219 371L255.269 368.54L253.799 368.1L251.609 364.95L248.169 367.08L247.429 363.42L246.129 361.84L244.659 362.3L243.829 363.86L242.879 363.49L242.279 361.89L244.339 359.47L241.239 358.64L239.089 353.16L236.589 350.72L234.239 351.05L232.769 347.47L230.089 348.98L231.109 351.88L230.509 352.97L227.999 351.12L228.079 348.4L227.019 347.98L225.599 343.49L222.019 339.4L220.789 328.49Z" fill="#C7C7C7" stroke="white" stroke-width="2"/>
<path d="M528.54 2.58L530.29 2.46L531.98 4.08L530.36 8.15L530.99 10.51L535.25 19.64L536.28 19.48L538.95 22.39L538.48 31.1L539.66 34.92L544.7 39.73L545.62 43.45L547.3 44.51L548.42 44.1L548.63 45.57L550.22 46L550.42 49.12L551.19 49.67L550.43 51.13L551.9 52.24L551.16 55.17L552.67 57.2L553.04 62.98L554.77 62.5L555.55 64.51L559.54 65.4L563.22 67.77H569.62L574.04 63.63L579.11 68.88L580.32 71.7L585.13 75L587.95 72.8L596.97 71.84L596.93 74.12L599.09 74.79L601.01 72.61L603.65 72.83L603.79 74.14L606.72 75.22L610.33 75.1L611.46 71.27L614.38 69.88L617.13 71.05L618.68 76.01L622.77 77.37L629.95 77.3L633.17 73.76L634.6 74.96L633.89 78.35L636.6 80.89L635.73 84.57L636.68 85.46L634.87 87.25L635.2 88.9L641.49 91.36L644.91 94.39L652.69 96.33L654.38 101.58L657.35 103.61L657.74 105.92L656.91 107.55L657.85 109.29L662.79 109.02L663.74 110.22L668.87 112.12L669.18 113.53L670.53 113.05L673.28 114.15L676.34 117.91L678.23 117.39L682.4 119.94L675.67 121.15L671.49 125.65L671.21 128.58L673.9 132.32L672.03 135.48L672.24 138.28L662.83 140.16L663.88 147.31L663.38 149.14L662.22 150.02L658.04 150.18L655.1 148.71L655.2 153.93L653.29 153.41L654.78 157.56L653.53 159.58L652.92 163.99L648.52 163.28L645.66 161.38L641.35 162.85L640.6 162.33L640.57 165.65L639.29 166.74L640.32 166.81L640.34 170.67L638.17 171.17L634.91 174.96L633.92 175.12L633.16 170.25L631.98 169.87L629.11 172.52L626.07 171.45L624.63 172.21L622.64 169.82L620.45 175.03L615.2 173.21L614.09 176.02L612.28 176.09L608.73 174.32L609.57 171.95L605.99 170.7L604.63 173.4L594.18 165.41L591.05 166.17L589.33 169.75L586.71 172.24L585.55 171.5L581.84 172.76L582.18 176.95L584 177.68L582.87 180.61L580.79 179.46L578.5 176.28L575.35 176.66L575.34 177.33L556.11 184.73L554.22 179.88L556.2 176.97L551.43 177.47L549.44 175.38L542.56 174.15L542.13 172.99L539.93 172.19L533.61 176.57L530.25 175.22L525.59 175.98L525.15 179.62L522.41 179.15L522.17 177.25L520.04 175.2L514.51 178.25L511.76 176.97L509.37 178.08L506.43 175.27L505.04 176.07L505.41 180.31L504.14 184.42L505.65 184.49L505.91 185.49L508.1 185.37L509.73 187.66L508.47 187.97L507.71 190.29L505.97 191.3L502.37 189.41L503.31 187.73L496.35 189.32L496.41 193.71L497.7 194.45L500.09 193.88L501.67 192.2L504.3 194.12L505.8 197.35L506.05 201.96L504.82 201.7L499.47 204.17L498 208.33L499.57 212.41L497.47 213.96L498.56 216.13L495.99 220.63L496.21 223.13L494.67 223.72V224.87L492.45 225.39L494.16 228.45L494.21 231.58L495.92 234.15L494.6 237.51L488.47 240.21L484.25 239.53L482.74 238.07L481.83 238.61L480.79 237.77L479.81 238.33L480.38 242.54L477.77 243.81L478.81 246.98L474.42 249.47L474.87 251.84L469.01 251.37L466.49 251.21L462.47 247.78L462.76 243.69L459.45 241.62L458.48 242.42L457.59 241.34L456.11 242.07L452.47 239.67L451.63 237.7L449.82 241.43L443.38 239.06L443.14 235.67L437.77 233.44L437.04 238.85L431.91 238.59L430.02 241.11L428.18 241.95L426.44 238.8L423.94 238.61L422.39 241.08L416.38 239.74L415.36 238.73L417.3 232.19L414.47 232.71L406.68 224.66L403.51 225.06L403.38 226.54L400.22 224.45L396.71 220.37L395.85 217.69L398.13 216.79L394.93 212.45L396.72 207.15L397.67 206.84L398.74 201.72L399.46 201.7L399.1 196.29L405.96 198.67L407.36 196.1L412.97 196.71L413.52 195.53L415.06 195.39L413.88 191.78L412.82 191.54L412.93 187.73L411.96 185.91L412.53 183.38L414.12 184.45L415.06 183.97L415.48 182.22L418.44 181.58L419.01 180.09L414.21 176.47L414.63 173.61L415.79 173.94L415.22 172.42L416.07 169.06L414.84 169.35L414.11 167L411.88 166.5L413.68 163.82L411.64 159.41L407.4 160.27L406.66 156.64L405.38 155.52L404.41 148.07L403.27 146.81L411.27 147.88L409.44 143.75L413.23 144.68L413.73 141.75L416.9 140.83L417.01 139.57L420.6 138.97L419.49 134.29L422.04 129.44L421.8 122.92L418.02 123.27L416.31 120.37L413.53 121.44L413.17 119.75L411.46 120.11L410.78 118.22L412.76 112.91L412.01 109.36L414.74 106.11L414 104.37L414.52 100.84L416.33 101.6L417.33 103.54L418.34 102.13L419.4 94.73L418.89 92.67L423.07 91.53L422.91 89.33L424.68 87.06L424.61 83.5L425.8 83.11L426.57 80.05L428.19 80.91L432.69 79.69L433.31 78.31L432.28 77.71L433.13 75.53L432.55 74.72L433.3 68.61L429.93 69.28L430.42 65.35L431.83 63.63L427.31 61.57L426.44 58.64L427.15 58.21L426.91 56.2L426 56.08L425.12 54.11L425.88 51.49L429.34 50.51L429.57 48.59L432.55 48.9L436.29 45.09L447.59 40.71L447.25 37.61L454.07 38.17L456.64 43.93L461.38 42.68L465.38 46.67L469.61 47.49L471.1 45.11L478.78 41.55L486.4 40.35L487.04 36.12L486.14 32.33L487.57 29.94L490.38 28.79L492.99 25.93L493.37 19.36L501.54 19.57L503.93 16.59L503.51 13.43L510.97 12.88L513.03 13.86L516.4 10.68L516.64 8.56L519.08 9.45L519.56 11.21L523.99 10.22L524.81 9.19L523.88 5.19L526.31 2L528.54 2.58Z" fill="#C7C7C7" stroke="white" stroke-width="2"/>
<path d="M268.58 9.91003L270.96 10.1L272.43 12.13L275.46 12.22L277.6 20.05L275.79 20.94L278.71 30.38L281.23 32.64L284.93 31.87L287.74 36.29L290.36 35.52L290.96 33.77L299.67 28.36L298.34 24.46L299.28 23.28L298.2 21.33L312.85 20.46L317.02 17.6L326.96 18.68L331.14 20.78L333.96 25.18L340.08 26.22L343.61 28.93L348.2 29.82L359.94 22.87L377.55 19.89L379.34 21.26L379.42 22.87L377.03 29.25L377.49 32.06L379.55 32.69L381.8 28.09L384.4 27.54L385.91 28.26L397.27 28.07L399.33 30.35L410.9 30.31L411.88 35.02L415.34 38.02L415.35 42.25L421.91 42.9L421.98 44.56L424.5 46.67L424.25 49.55L429.57 48.59L429.34 50.51L425.88 51.49L425.12 54.11L426 56.08L426.91 56.2L427.15 58.21L426.44 58.64L427.31 61.57L431.83 63.63L430.42 65.35L429.93 69.28L433.3 68.61L432.55 74.72L433.13 75.53L432.28 77.71L433.31 78.31L432.69 79.69L428.19 80.91L426.57 80.05L425.8 83.11L424.61 83.5L424.68 87.06L422.91 89.33L423.07 91.53L418.89 92.67L419.4 94.73L418.34 102.13L417.33 103.54L416.33 101.6L414.52 100.84L414 104.37L414.74 106.11L412.01 109.36L412.76 112.91L410.78 118.22L411.46 120.11L413.17 119.75L413.53 121.44L416.31 120.37L418.02 123.27L421.8 122.92L422.04 129.44L419.49 134.29L420.6 138.97L417.01 139.57L416.9 140.83L413.73 141.75L413.23 144.68L409.44 143.75L411.27 147.88L403.27 146.81L404.41 148.07L405.38 155.52L406.66 156.64L407.4 160.27L411.64 159.41L413.68 163.82L411.88 166.5L414.11 167L414.84 169.35L416.07 169.06L415.22 172.42L415.79 173.94L414.63 173.61L414.21 176.47L419.01 180.09L418.44 181.58L415.48 182.22L415.06 183.97L414.12 184.45L412.53 183.38L411.96 185.91L412.93 187.73L412.82 191.54L413.88 191.78L415.06 195.39L413.52 195.53L412.97 196.71L407.36 196.1L405.96 198.67L399.1 196.29L399.46 201.7L398.74 201.72L397.67 206.84L396.72 207.15L394.93 212.45L390.4 215.94L389.03 215.33L385.06 216.89L385.23 217.73L374.02 222.38L374.18 224.02L368.57 225.65L366.9 228.95L363.17 231.23L364.27 232.03L363.57 234.24L360.36 234.43L357.95 233.35L351.21 233.79L350.3 229.16L351.44 225.86L347.75 223.72L347 222.26L343.01 223.08L342.87 224L338.97 224.26L340.09 228.8L339.41 228.62L339.08 230.26L337.75 231.02L335.4 230.31L336.35 228.71L331.15 226.31L329.03 226.45L329.02 223.95L326.18 220.14L323.52 217.97L321.16 217.62L320.77 216.6L319.58 216.37L313.6 219.9L313.06 217.9L312.02 218.32L312.31 219.86L309.73 221.93L309.49 220.47L307.52 220.26L306.38 214.25L305.31 213.21L305.89 210.57L304.91 210.73L304.2 212.83L294.57 215.85L292.3 215.5L291.76 212.15L288.13 212.9L288.9 215.33L287.9 215.61L288.19 218.96L285.25 219.24L285.07 220.04L287.29 226.43L286.54 227.6L283.97 226.71L283.13 225.3L282.77 228.1L280.79 225.91L277.06 229.77L276.68 229.06L275.77 229.49L276.03 230.57L274.79 231.37L274.81 230.15L273.24 230.19L270.96 231.44L265.83 231.96L260.45 237.11L259.8 236.26L257.88 237.23L258.54 236.19L257.98 235.39H255.9L255.12 237.67L254.35 237.44L251.82 233.91L255.23 232.57L254.33 232.05L255.55 230.29L254.4 228.8L254.83 226.76L253.2 227.39L250.98 226.4L248.74 227.67L245.15 227.56L243.07 225.13L237.31 232.19L235.67 230.99L232.61 233.6L225.31 232.36L225.44 231.3L228.69 229.42L227.64 227.93L227.98 226.97L225.47 223.72L222.91 222.33L219.54 217.12L220.19 213.52L216.24 213.85L213.41 207.5L209.44 206.49L209.64 203.82L209.82 202.99L209.69 201.37L211.15 198.86L208.76 196.55L207.54 196.76L206.07 195.58L206.87 190.07L205.23 186.48L206.79 183.57L210.96 183.22L212.74 181.73L213.11 178.6L212.6 172.07L211.07 171.38L211.83 169.39L206.14 158.23L219 155.1L219.34 145.7L217.47 143.32L218.62 141.87L226.38 142.54L228.25 141.06L228.21 139.76L230.2 139L233.26 141.06L233.73 139.47L232.42 137.05L236.08 137L236.38 131.74L235.32 131.98L234.49 128.77L237.54 127.96L236.94 125.63L233.92 125.53L234.12 123.63L233.07 123.51L231.14 116.01L228.24 115.01L229.64 121.06L228.34 121.56L227.1 120.2L224.63 120.91L222.42 120.18L222.83 116.94L221.65 116.48L220.14 113.43L222 111.22L223.64 111L224.44 106.28L225.78 104.42L225.11 103.44L226.75 102.13L225.35 100.51L224.96 97.64L227.46 99.86L227.77 98.29L231.18 95.88L234.91 97.05L241.45 94.3L242.63 94.73L241.65 90.98L237.46 87.94L237.47 83.07L238.62 81.99L238.14 80.51L237.64 80.99L236.17 79.57L229.28 82.56L226.83 82.21L226.61 85.65L225 85.22L224.19 87.23L220.34 86.53L216.73 83.38L214.11 82.54L210.67 82.47L210.83 83.88L208.67 84.84L205.16 84.31L204.96 83.26L199.11 82.99L200.58 80.72L201.61 80.63L201.81 78.11L200.87 77.97L199.59 79.69L198.2 79.26L200.3 73.86L198.55 72.01L197.86 73.14L195.09 71.84L195.19 70.29L196.74 61.11L197.76 61.09L197.42 59.65L198.35 59.24L199.48 49.98L204.68 49.96L207.21 48.35L208.74 40.5L206.08 40.86L205.86 38.58L204.1 37.01L207.13 36.51L213.02 37.66L213.7 34.95L222.08 36.56L225.24 29.22L223.41 28.62L223.55 27.47L221.65 25.59L220.65 22.87L227.57 23.11L227.8 22.17L229.8 22.49L232.67 25.21L234.95 24.72L238.99 20.42L256.24 21.55L258.17 19.74L261.92 19.57L265.46 17.67L265.1 16.85L266.56 16.15L266.49 15.04L265.13 14.85L264.66 13.77L266.77 12.71L266.81 10.85L268.58 9.91003Z" fill="#C7C7C7" stroke="white" stroke-width="2"/>
<path d="M125.611 205.59L138.951 202.36L140.461 201.15L141.501 203.14H145.351L145.181 201.65L148.321 199.85L148.141 197.09L150.541 195.65L150.641 193L152.711 192.01L153.011 190.83L157.351 192.79L157.361 190.95L161.571 187.88L166.681 187L175.201 182.7L182.501 188.18L183.571 185.98L184.701 186.74L186.641 186.1L192.321 190.07L197.611 186.98L201.791 188.8L205.231 186.48L206.871 190.07L206.071 195.58L207.541 196.76L208.761 196.55L211.151 198.86L209.691 201.37L209.821 202.99L209.641 203.82L209.441 206.49L213.411 207.5L216.241 213.85L220.191 213.52L219.541 217.12L222.911 222.33L225.471 223.72L227.981 226.97L227.641 227.93L228.691 229.42L225.441 231.3L225.311 232.36L232.611 233.6L234.651 234.95L234.411 236.5L231.551 238.36L233.031 239.48L235.031 247.07L238.191 246.44L238.971 245.01L240.741 245.15L240.961 249.14L239.261 250.93L239.921 253.51L242.351 253.39L243.271 255.93L246.921 254.75L248.751 255.39L250.421 258.67L250.621 263.06L248.151 264.82L247.961 268.52L250.651 269.76L255.221 268.66L255.281 271.33L257.961 273.02V277.54L259.011 277.07L259.841 274.82L262.111 275.03L262.261 272.5L267.071 271.85L266.281 269.72L267.431 269.18L268.591 271.5L273.801 269.97L272.481 276.2L276.381 277.4L278.991 279.58L275.901 283.76L276.441 285.03L284.761 285.52L286.321 282.43L292.361 283.83L295.401 283.2L296.991 281.21L299.661 282.08L300.701 280.75L301.761 284.23L301.801 286.43L300.431 287.2L300.881 289.07L303.281 289.14L304.751 288.09L304.941 289.03L311.811 288.4L313.661 289.73L316.471 289.57L317.601 287.67L318.271 288.42L324.791 287.46L326.021 288.58L325.781 293.21L328.401 294.73L330.651 293.8L331.821 295.36L336.261 293.38L336.571 294.83L343.291 296.83L339.561 306.97L339.511 315.55L335.591 321.01L334.281 324.99L330.461 327.6L327.151 327.3L322.561 328.98L318.851 329L299.591 323.94L292.981 323.46L282.801 320.24L277.141 321.24L266.571 325.46L255.511 324.27L250.531 326.93L246.101 327.02L241.391 330.86L230.511 333.33L227.321 332.75L220.791 328.49L215.491 329.21L207.851 333.38L204.411 334.26L199.431 332.3L194.071 332.07L188.461 330.21L178.851 329.67L176.621 319.98L177.391 317.79L176.831 316.11L178.171 313.88L177.381 312.57L179.371 312.15L181.391 313.34L182.621 312.5L179.721 309.89L176.031 310.12L170.501 308.25L166.481 309.05L162.711 304.78L161.331 306.04L155.611 305.34L149.511 306.36L147.601 298.52L144.901 292.51L146.111 289.36L140.111 286.45L137.431 283.65L133.321 283.53L126.481 281.12L127.541 277.91L133.731 269.13L135.541 268.12L135.691 266.46L139.771 262.75L140.351 260.27L143.831 254.96L144.311 251.94L143.451 248.7L142.421 248.86L141.241 245.76L136.791 246.58L130.731 242.99L125.401 245.99L124.081 245.9L123.441 236.05L121.351 228.29L119.601 229.06L117.741 224.02L117.561 218.94L119.821 216.63L119.171 215.85L116.811 217.05L116.211 216.49L119.151 212.36L120.191 212.53L121.141 210.83L122.061 211.25L125.011 209.34L123.891 208.02L125.611 205.59Z" fill="#C7C7C7" stroke="white" stroke-width="2"/>
<path d="M158.928 6.05L163.798 8.71L169.358 7.67L170.458 10.61L172.858 11.26L174.208 12.95L183.578 11.45L184.558 13.19L186.328 13.16L188.508 14.85L190.658 13L193.948 13.26L196.888 11.21L205.598 12.35L210.008 15.26L212.358 15.07L216.058 16.54L219.398 15.86L220.378 17.36L223.888 17.69L227.798 22.17L227.568 23.11L220.648 22.87L221.648 25.59L223.548 27.47L223.408 28.62L225.238 29.22L222.078 36.56L213.698 34.95L213.018 37.66L207.128 36.51L204.098 37.01L205.858 38.58L206.078 40.86L208.738 40.5L207.208 48.35L204.678 49.96L199.478 49.98L198.348 59.24L197.418 59.65L197.758 61.09L196.738 61.11L195.188 70.29L195.088 71.84L197.858 73.14L198.548 72.01L200.298 73.86L198.198 79.26L199.588 79.69L200.868 77.97L201.808 78.11L201.608 80.63L200.578 80.72L199.108 82.99L204.958 83.26L205.158 84.31L208.668 84.84L210.828 83.88L210.668 82.47L214.108 82.54L216.728 83.38L220.338 86.53L224.188 87.23L224.998 85.22L226.608 85.65L226.828 82.21L229.278 82.56L236.168 79.57L237.638 80.99L238.138 80.51L238.618 81.99L237.468 83.07L237.458 87.94L241.648 90.98L242.628 94.73L241.448 94.3L234.908 97.05L231.178 95.88L227.768 98.29L227.458 99.86L224.958 97.64L225.348 100.51L226.748 102.13L225.108 103.44L225.778 104.42L224.438 106.28L223.638 111L221.998 111.22L220.138 113.43L221.648 116.48L222.828 116.94L222.418 120.18L224.628 120.91L227.098 120.2L228.338 121.56L229.638 121.06L228.238 115.01L231.138 116.01L233.068 123.51L234.118 123.63L233.918 125.53L236.938 125.63L237.538 127.96L234.488 128.77L235.318 131.98L236.378 131.74L236.078 137L232.418 137.05L233.728 139.47L233.258 141.06L230.198 139L228.208 139.76L228.248 141.06L226.378 142.54L218.618 141.87L217.468 143.32L219.338 145.7L218.998 155.1L206.138 158.23L211.828 169.39L211.068 171.38L212.598 172.07L213.108 178.6L212.738 181.73L210.958 183.22L206.788 183.57L205.228 186.48L201.788 188.8L197.608 186.98L192.318 190.07L186.638 186.1L184.698 186.74L183.568 185.98L182.498 188.18L175.198 182.7L166.678 187L161.568 187.88L157.358 190.95L157.348 192.79L153.008 190.83L152.708 192.01L150.638 193L150.538 195.65L148.138 197.09L148.318 199.85L145.178 201.65L145.348 203.14H141.498L140.458 201.15L138.948 202.36L125.608 205.59L119.188 200.26L114.058 201.93L113.708 196.24L112.168 196.01L110.418 193.81L110.338 191.94L112.008 192.34L111.418 188.4L113.008 186.48L113.228 183.55L115.668 181.3L115.328 180.61L112.468 181.23L111.208 179.29H109.048L107.238 177.37L107.948 174.25L109.258 173.25L109.138 166.91L106.648 165.36L105.608 167.88L103.968 168.52L103.208 166.81L102.098 168.37L95.5881 165.08L93.3981 167.92L90.6481 167.19L90.8981 162.99L91.9581 163.11L92.1681 162.12L90.9081 162.47L90.1081 161.6L90.7381 159.11L89.1781 158.28L88.9081 156.76L86.3681 155.64L85.3281 152.08L83.7381 152.18L84.0281 155.33L82.8781 155.29L81.3681 157.09L75.0781 153.13L77.4781 146.86L79.1481 147.91L78.3381 144.08L78.9281 143.32L81.1981 143.58L81.2781 141.25L83.5781 140.04L85.4281 140.35L85.9281 138.64L85.1081 137.14L86.8781 134.86L89.0281 135.29L90.5081 133.84L87.3181 130.46L85.1681 129.32L84.0581 129.7L83.3881 127.32L85.7681 127.25L85.6181 121.61L84.5881 119.44L87.9581 111.88L83.2381 109.83L84.8281 106.02L88.9081 105.92L91.6281 108.09L92.8781 107.09L94.9381 107.57L98.4481 99.19L99.5281 99L99.0781 97.9L99.9981 97.76L102.808 89.57L105.878 90.24L108.698 82.85L111.908 83.21L112.168 82.49L120.998 85.89L120.188 80.84L118.588 79.1L119.448 77.28L121.578 77.56L121.468 79L128.688 80.1V81.27L130.828 82.09L131.788 80.6L131.278 79.53L133.218 77.37L134.388 66.77L136.138 66.67L136.988 61.06L143.368 62.21L143.548 58.67L140.128 55.17L141.318 53.75L140.508 49.67L139.238 49L138.468 45.23L137.448 45.01L138.498 33.58L132.378 32.97L132.948 24.94L136.758 25.13L138.138 24.15L137.518 21.4L138.138 19.09L141.008 10.18L143.508 9.89L143.808 7.77L146.418 7.69L148.008 9.38L148.668 8.44L150.658 8.56L151.258 7.45L152.408 8.03L153.658 6.73L155.198 7.21L158.928 6.05Z" fill="#C7C7C7" stroke="white" stroke-width="2"/>
<path d="M696.812 138.88L699.692 141.44L701.882 141.23L707.172 147.86L708.052 152.08L707.532 154.05L712.612 164.82L718.332 170.27L723.302 170.77L725.382 173.35L727.792 179.55L732.972 178.34L738.572 179.43L741.752 181.82L742.382 183.76L745.272 183.88L746.122 185.44L747.832 186.1L753.062 185.63L753.712 186.62L756.742 186.84L760.812 185.44L760.832 191.26L762.722 191.52L763.632 197.89L761.302 201.84L762.492 203.66L762.612 210.43L759.562 212.95L758.312 212.43L754.332 218.98L749.212 221.34L746.922 225.72L749.022 231.51L750.802 231.89L752.202 234.38L749.092 238.94L751.002 241.65L748.792 241.39L751.142 248.3L749.732 249.49L750.482 253.79L747.422 253.86L743.532 258.18L741.582 257.62L740.052 258.25L739.322 261.44L735.682 263.27L737.052 264.77L740.162 264.63L745.512 267.44L749.222 267.58L751.712 270.02L754.492 268.43L754.772 269.9L755.862 269.25L757.572 270.07L759.042 268.47L758.552 267.11L760.472 266.41L760.122 268.64L761.012 269.46L762.802 266.43L764.672 267.56L765.512 265.31L767.502 267.11L771.072 267.77L772.632 269.36L778.542 269.18L785.192 270.89L785.232 272.43L787.252 272.85L788.162 275.08L787.542 279.53L783.352 280.63L780.412 283.98L775.752 285.73L775.342 284.98L777.962 283.3L765.722 283.76L765.802 286.81L763.932 287.13L764.812 286.34L764.132 284.47L760.462 284.26L760.812 285.73L758.612 285.94L760.332 286.92L760.352 287.86L758.952 287.69L759.202 289.52L756.522 291.37L756.682 292.28H752.372L752.522 293.05L750.362 294.08L747.582 292.7L745.512 295.22L742.292 294.61L741.112 295.36L737.522 293.68L736.152 296.2L734.962 294.85L729.392 294.31L726.492 292.25L725.042 293.24L717.262 291.32L715.042 292.23L713.222 291.06L712.382 292.07L713.012 292.77L711.142 293.35L707.182 287.44L705.872 289.52L703.122 289.21L702.832 288.4L701.582 292.53L700.212 292.7L696.762 291.97L696.612 290.83L699.782 286.03L700.922 285.78L696.512 283.51L696.572 281.12L695.132 280.3L696.442 279.2L696.202 278.08L691.842 276.11L689.912 278.01L689.162 277L684.652 275.64L684.392 272.62L684.072 276.39L684.842 276.6L683.342 276.18L682.972 273.28L682.342 276.06L679.512 278.05L682.532 277.75L680.772 280.21L679.882 279.43L676.342 280.07L675.622 281.68L672.002 279.72L669.892 281.07L668.492 279.67L668.072 277.35L666.822 277.42L667.022 279.83L665.082 278.85L664.262 280.77L662.142 279.18L662.502 276.84L658.882 274.33L654.132 275.38L656.042 277.33L652.372 280.54L650.752 278.08L651.282 276.84L646.182 270.61L641.472 274.87L641.562 273.02L639.972 275.34L641.272 275.78L638.862 277.59L637.592 282.29L638.022 283.58L634.242 281.26L634.542 283.83L635.732 284.16L636.222 285.68L635.432 286.2L635.982 287.16L637.302 287.02L637.662 288.75L636.482 289L635.482 287.95L632.632 288.51L631.142 294.38L632.972 294.45L631.422 296.65L630.312 296.46L629.882 299.01L630.902 301.9L633.652 302.58L634.692 304.36L637.932 304.96L638.012 310.59L639.452 310.87L642.272 314.51L644.232 313.92L644.592 315.32L648.962 316.84L649.992 318.61L647.392 318.77L646.732 321.01L645.852 321.13L645.182 319.38L642.982 321.92L645.292 323.04L644.792 325.34H643.282L643.782 324.11L640.642 325.69L641.532 328.23L642.682 326.14L643.992 326.51L643.162 329.26L641.772 330.42L642.922 331.4L641.232 332.72L642.722 335.26L644.542 334.56L644.792 335.66L638.262 336.56L637.032 333.79L635.642 334.84L632.072 335L631.302 332.75L631.992 331.75L626.882 329.23L623.632 330.98L621.162 330.75L620.092 329.35L619.732 333.05L617.752 332.63L617.212 331.14L614.372 331.96L613.182 335.98L609.042 335.26L600.972 337.19L595.702 336.47L593.912 338.03L588.062 337.26L585.102 334.38L578.682 334.17L572.242 335.21L571.622 333.93L574.472 331.26L572.362 327.28L572.482 324.39L571.302 324.55L569.552 323.11L565.892 323.39L565.162 322.34L563.872 323.71L562.602 322.1L563.472 320.1L562.672 318.87L564.352 316.7L564.092 314.51L565.982 312.99L565.012 309.56L567.682 309.3L573.412 306.67L574.292 305.1L573.002 302.91L574.172 300.78L578.582 300.6L576.932 299.01L576.062 299.76L575.512 298.77L573.242 299.31L572.882 296.09L571.132 294.61L566.302 296.37L563.642 293.45L567.042 288.79L568.212 282.5L563.712 283.46L562.132 286.01L561.652 284.91L556.392 282.59L556.912 279.39L555.712 276.93L553.562 276.44L553.972 273.96L552.792 272.29L550.342 273.28L549.962 271.78L547.692 272.48L545.992 271.94L542.642 273.09L540.532 271.99L540.032 264.68L538.682 261.09L529.962 264.91L528.302 264.37L529.362 261.11L521.932 261.98L514.952 257.38L514.382 257.8L514.872 250.43L513.322 249.4L515.052 245.57L517.812 247.47L519.322 241.88L513.592 239.34L511.402 231.65L510.482 231.86L510.722 232.71L508.302 232.87L505.402 226.61L502.172 226.07L500.332 228L499.172 227.39L497.422 228.62L496.102 227.65L496.212 223.13L495.992 220.63L498.562 216.13L497.472 213.96L499.572 212.41L498.002 208.33L499.472 204.17L504.822 201.7L506.052 201.96L505.802 197.35L504.302 194.12L501.672 192.2L500.092 193.88L497.702 194.45L496.412 193.71L496.352 189.32L503.312 187.73L502.372 189.41L505.972 191.3L507.712 190.29L508.472 187.97L509.732 187.66L508.102 185.37L505.912 185.49L505.652 184.49L504.142 184.42L505.412 180.31L505.042 176.07L506.432 175.27L509.372 178.08L511.762 176.97L514.512 178.25L520.042 175.2L522.172 177.25L522.412 179.15L525.152 179.62L525.592 175.98L530.252 175.22L533.612 176.57L539.932 172.19L542.132 172.99L542.562 174.15L549.442 175.38L551.432 177.47L556.202 176.97L554.222 179.88L556.112 184.73L575.342 177.33L575.352 176.66L578.502 176.28L580.792 179.46L582.872 180.61L584.002 177.68L582.182 176.95L581.842 172.76L585.552 171.5L586.712 172.24L589.332 169.75L591.052 166.17L594.182 165.41L604.632 173.4L605.992 170.7L609.572 171.95L608.732 174.32L612.282 176.09L614.092 176.02L615.202 173.21L620.452 175.03L622.642 169.82L624.632 172.21L626.072 171.45L629.112 172.52L631.982 169.87L633.162 170.25L633.922 175.12L634.912 174.96L638.172 171.17L640.342 170.67L640.322 166.81L639.292 166.74L640.572 165.65L640.602 162.33L641.352 162.85L645.662 161.38L648.522 163.28L652.922 163.99L653.532 159.58L654.782 157.56L653.292 153.41L655.202 153.93L655.102 148.71L658.042 150.18L662.222 150.02L663.382 149.14L663.882 147.31L662.832 140.16L672.242 138.28L672.032 135.48L673.902 132.32L671.212 128.58L671.492 125.65L675.672 121.15L682.402 119.94L683.382 123.72L689.012 133.41L692.762 138.07L696.812 138.88Z" fill="#C7C7C7" stroke="white" stroke-width="2"/>
<path d="M607.579 511.22L605.679 510.74L605.949 509.51L609.609 508.98L607.579 511.22ZM496.209 223.13L496.099 227.65L497.419 228.61L499.169 227.39L500.329 228L502.159 226.07L505.389 226.61L508.289 232.87L510.709 232.71L510.469 231.86L511.389 231.65L513.579 239.34L519.309 241.88L517.799 247.47L515.029 245.57L513.309 249.4L514.859 250.43L514.369 257.8L514.949 257.38L521.919 261.98L529.349 261.11L528.289 264.37L529.949 264.91L538.669 261.09L540.019 264.68L540.519 271.99L542.629 273.09L545.979 271.94L547.679 272.48L549.949 271.78L550.319 273.28L552.779 272.3L553.959 273.96L553.549 276.44L555.699 276.93L556.899 279.39L556.379 282.6L561.649 284.92L562.129 286.02L563.709 283.47L568.209 282.51L567.029 288.8L563.639 293.45L566.299 296.37L571.119 294.62L572.869 296.09L573.229 299.31L575.499 298.77L576.049 299.75L576.919 299L578.579 300.59L574.169 300.78L572.989 302.91L574.289 305.1L573.409 306.66L567.679 309.3L565.009 309.56L565.989 312.99L564.089 314.51L564.359 316.7L562.679 318.87L563.479 320.1L562.609 322.1L563.879 323.71L565.159 322.33L565.889 323.38L569.549 323.1L571.299 324.54L572.479 324.38L572.359 327.27L574.469 331.25L571.619 333.93L572.239 335.21L578.679 334.16L585.109 334.37L588.059 337.25L593.909 338.02L595.699 336.46L600.959 337.18L609.029 335.25L613.169 335.97L614.359 331.94L617.209 331.13L617.739 332.62L619.719 333.04L620.079 329.34L621.149 330.74L623.619 330.97L626.869 329.22L631.989 331.73L631.299 332.73L632.069 334.99L635.639 334.83L637.029 333.78L638.259 336.55L644.789 335.64L644.539 334.55L642.719 335.25L641.219 332.71L642.919 331.38L641.769 330.4L643.159 329.24L643.989 326.49L642.679 326.12L641.529 328.22L640.629 325.68L643.769 324.1L643.279 325.34H644.789L645.289 323.03L642.979 321.91L645.189 319.37L645.859 321.12L646.739 321L647.399 318.76L650.009 318.6L648.979 316.83L644.609 315.31L644.249 313.91L642.289 314.49L639.469 310.85L638.029 310.57L637.949 304.95L634.719 304.34L633.679 302.56L630.929 301.88L629.909 298.98L630.339 296.43L631.449 296.62L632.999 294.42L631.169 294.35L632.669 288.48L635.519 287.92L636.519 288.97L637.699 288.71L637.339 286.98L636.019 287.12L635.469 286.16L636.259 285.65L635.779 284.13L634.589 283.8L634.279 281.23L638.059 283.55L637.629 282.26L638.899 277.56L641.309 275.76L640.009 275.32L641.599 273L641.509 274.85L646.229 270.59L651.319 276.82L650.799 278.06L652.419 280.52L656.089 277.31L654.179 275.37L658.919 274.32L662.539 276.83L662.179 279.17L664.309 280.76L665.119 278.84L667.059 279.82L666.859 277.41L668.119 277.34L668.529 279.66L669.929 281.06L672.039 279.7L675.659 281.67L676.379 280.06L679.919 279.43L680.799 280.2L682.559 277.74L679.539 278.04L682.369 276.05L682.999 273.26L683.369 276.16L684.869 276.58L684.099 276.37L684.419 272.6L684.689 275.62L689.189 276.98L689.939 277.99L691.879 276.09L696.239 278.06L696.479 279.18L695.169 280.28L696.609 281.1L696.539 283.49L700.949 285.76L699.809 286.02L696.639 290.81L696.789 291.96L700.239 292.68L701.619 292.52L702.859 288.38L703.149 289.2L705.899 289.5L707.209 287.42L711.169 293.34L713.039 292.76L712.409 292.06L713.249 291.05L715.069 292.22L717.289 291.31L725.069 293.23L726.529 292.25L729.429 294.31L734.999 294.85L736.189 296.21L737.549 293.69L741.139 295.37L742.319 294.62L745.539 295.23L747.609 292.71L750.389 294.09L752.559 293.06L752.409 292.29H756.709L756.549 291.38L759.239 289.53L758.989 287.71L760.389 287.87L760.359 286.93L758.649 285.95L760.839 285.74L760.489 284.27L764.159 284.48L764.839 286.35L763.959 287.14L765.829 286.81L765.749 283.77L777.989 283.3L775.369 284.98L775.769 285.73L773.699 288.75L774.019 294.2L770.679 297.78L769.279 296.59L766.929 298.23L768.399 303.11L770.579 304.28L769.379 305.94L767.239 305.12L766.489 307.9L763.839 306.92L759.519 310.16L754.539 308.67L748.869 311.05L745.369 307.2L740.589 309.98L740.309 312.55L738.199 314.35L733.719 312.06L732.169 312.74L731.809 311.71L729.749 313.41L728.909 311.29L724.189 309.56L722.449 310.75L719.829 310.7L720.189 312.87L716.799 313.34L718.039 314.39L716.759 315.42L711.699 316.33L707.219 319.31L706.939 320.36L712.469 326.7L711.249 327.24L711.599 328.52L709.559 328.12L708.839 329L708.179 335.12L706.399 339.77L704.479 341.37L704.049 345.02L701.019 347.09L697.889 346.39L694.679 348.41L692.609 347.6L691.089 351.41L686.969 351.94L686.369 353.36L687.339 355.31L683.749 356.59L684.989 358.08L676.249 356.55L674.149 354.37L673.519 355.39L669.349 356.57L667.019 359.29L666.079 358.97L663.969 360.43L661.309 359.36L660.189 361.01L657.659 361.15L656.589 368.55L651.889 372.54L652.119 373.86L650.209 376.2L647.079 378.15L647.659 381.51L646.309 385.38L643.319 385.36L642.309 387.16L641.129 390.88L642.869 398.79L642.659 408.72L641.179 413.47L641.939 417.55L640.959 417.41L640.729 418.33L642.429 427.78L641.649 429.44L643.589 432.5L644.589 442.37L643.229 445.29L633.959 451.89L630.729 458.28L628.099 466.89L625.919 467.28L623.699 469.32L623.939 470.03L626.689 469.96L625.589 471.82L626.989 477.8L623.679 483.5L622.219 483.38L621.939 482.33L620.989 484.6L621.779 488.45L618.069 490.99L617.009 495.89L614.459 496.19L614.249 498.27L616.239 498.61L616.589 502.52L621.439 500.74L621.629 502.2L622.869 502.75L625.519 503.55L627.279 501.86L628.669 503.3L631.359 500.88L634.219 500.83L637.629 506.27L636.729 507.46L637.369 509.22L636.609 510.77L637.969 512.19L639.229 511.28L643.059 512.49L645.099 518.99L647.719 520.7L648.949 519.83L642.479 524.32L643.459 524.07L646.239 528.04L647.069 530.21L645.829 532.31L646.829 535.93L648.029 536.8L649.059 536.37L649.109 538.12L647.759 538.64L647.309 537.32L645.159 537.34L643.799 535.15L643.709 537.61L642.159 537.63L641.369 538.77L641.179 537.47L637.059 535.81L636.829 538.45L635.189 539.13L634.509 538.47L634.309 542.2H631.519L629.579 544.82L628.479 544.89L626.179 542.61L626.589 541.43L623.399 542L622.799 540.88L618.479 539.67L616.759 540.54L614.189 538.63L613.769 536.76L610.989 534.28L611.579 531.91L617.829 529.31L617.879 525.39L615.629 524.07L615.389 521.77L615.879 521.34L616.819 522.57L618.139 521.43L619.809 522.71L621.549 522.32L618.809 517.87L619.249 515.86L617.079 513.44L617.989 511.82L612.069 509.47L611.719 504.24L609.529 503.3L609.109 505.26L606.989 505.33L607.199 506.84L605.249 507.94L603.259 507.92L603.549 506.37L600.139 506.85L599.219 506.21L597.459 509.82L595.279 511.53L593.919 511.07L591.269 512.19L589.989 513.99L587.599 513.33L585.799 514.54L583.929 513.17L583.299 514.54L578.609 511.89L576.399 516.75L573.939 514.15L572.399 515.09L569.739 520.13L569.909 523.96L558.489 535.63L552.659 543.51L549.479 542.4L544.989 543.17L541.959 541.62L539.539 537.95L540.059 536.61L537.209 535.02L525.399 540.69L520.339 540.37L519.309 536.75L517.479 534.52L518.699 533.2L517.659 533.18L517.569 530.47L509.179 526.78L510.279 524.86L509.479 521.94L511.299 520.75L512.659 521.37L513.919 519.84L516.689 520.11L516.379 516.53L518.169 517.15L518.519 515.46L522.109 515.64L524.029 511.42L527.159 511.1L525.199 508.89L526.659 506.81L533.289 506.35L531.499 500.18L532.639 497.5L530.639 496.61L531.249 495.92L530.479 492.12L532.839 491.43L532.509 488.84L541.969 487.01L541.619 484.24L544.639 483.51L543.609 478.36L545.649 477.6L544.839 474.3L540.719 475.08L538.919 476.59L535.929 476.11L531.679 477.78L530.099 481.33L529.529 479.43L524.149 480.87L522.119 480.41L522.199 481.49L521.179 481.72L521.549 483.71L515.909 483.62L515.869 482.54L507.879 483.64L506.879 482.31L506.609 484.49L505.169 484.54L504.419 486.14L502.879 481.49L504.059 480.07L504.129 476.82L501.319 476.04L497.529 472.28L495.589 472.49L494.639 473.84L491.629 472.79L490.409 475.36L489.339 475.02L487.789 476.3L486.809 475.57L486.519 480.68L485.699 481.02L485.049 479.76L483.779 479.94L483.819 481.2L481.479 479.76L481.519 477.61L476.949 477.95L475.629 479.03L469.739 478.8L467.589 475.91L466.329 477.31L465.389 476.62L465.429 474.79L467.979 472.06L467.239 470.82L467.989 469.56L466.269 467.15L463.479 467.77L462.339 465.57L465.919 463.87L465.319 459.95L464.049 459.81L463.899 456.37L464.769 456.23L463.669 454.51L464.349 452.92L466.179 445.77L465.769 438.11L467.479 439.42L468.799 437.81L470.109 438.16L471.529 435.37L472.439 436.43L473.579 435.81L472.039 430.61L469.469 430.63L472.399 428.76L470.369 422.84L470.179 418.58L472.369 415.28L472.959 415.53L472.969 414.28L476.889 413.47L482.259 416.03L483.339 413.24L482.699 409.89L483.889 409.75L484.089 410.65L486.879 410.93L488.319 413.58L490.849 413.93L492.649 413.12L493.119 411.55L491.849 409.75L493.129 408.57L492.609 406.93L493.759 406.26L493.509 402.75L495.369 402.4L495.019 400.07L494.269 400.16L493.509 398.26L494.859 396.25L495.179 391.3L500.819 387.6L506.379 386.88L506.589 385.31L508.099 386.68L509.139 384.92L510.359 384.71L510.149 385.82L511.329 385.47L509.589 372.8L510.589 372.48L510.189 371.62L512.859 371.5L513.529 370.5L514.799 372.12L516.189 371.52L517.469 370.55L517.619 367.26L515.799 365.4L511.619 363.68L509.389 360.55H506.809L501.459 361.55L499.919 357.16L494.599 354.84L492.109 350.73L486.809 350.8L483.149 346.85L484.729 345.27L484.889 343.04L488.459 341.74L487.789 338.11L493.279 337.18L493.649 336.2L492.459 335.5L493.069 334.34L494.449 334.36L495.569 332.92L493.749 332.45L493.639 329.49L491.609 327.19L490.179 327.12L490.089 326.37L488.569 327.02L489.039 325.51L487.959 325.28L488.569 323.37L487.329 322.2L487.319 318.47L485.759 318L484.459 319.07L482.129 316.3L482.439 315.04L481.299 314.71L482.129 314.06L479.589 311.14L481.509 310.04L482.209 308.31L477.039 307.24L476.549 306.24L476.499 304L475.219 302.2L475.469 299.51L474.029 297.22L477.199 293.06L469.129 290.46L468.769 291.56L466.989 291.37L467.029 290.11L464.969 289.9L467.049 279L466.049 279.09L465.969 276.47L461.629 276.07L462.749 266.89L463.859 266.49L463.579 262.39L465.539 261.19L465.849 257.95L468.739 256.78L469.009 251.36L474.859 251.83L474.419 249.46L478.799 246.97L477.759 243.8L480.379 242.53L479.799 238.32L480.779 237.76L481.819 238.61L482.729 238.07L484.239 239.53L488.459 240.21L494.589 237.51L495.909 234.15L494.199 231.59L494.149 228.46L492.439 225.4L494.659 224.88V223.73L496.209 223.13Z" fill="#C7C7C7" stroke="white" stroke-width="2"/>
</svg>
