<svg width="556" height="796" viewBox="0 0 556 796" fill="none" xmlns="http://www.w3.org/2000/svg">
<path d="M202.92 2L201.32 2.85863L203.96 2.87L202.92 2Z" fill="#C7C7C7"/>
<path d="M206.12 10.35L207.44 14.79V21.19L208.14 23.36L216.29 28.67L223.67 32.02L225.27 33.65L230.63 35.38L232.72 34.73L236.68 31.16L242.04 31.7L241.97 28.99L243.23 26.06L242.32 16.09L243.65 15.23L246.08 15.01L248.1 16.31L252.9 17.94L255.34 17.29L257.78 15.77L258.54 15.98L265.44 20.75L269.68 24.66L269.27 26.5L265.71 32.57L267.52 33.43L269.27 36.03L272.4 37.77L273.65 39.61L270.45 41.13L266.62 45.03L265.44 48.17L264.6 52.61L265.02 53.8H270.24L273.51 55.64L276.51 59.32L278.45 60.73L282 60.3L280.26 66.36L275.88 68.64L274.42 71.99L274.21 74.48V76.11L274.9 77.41L277.27 76.76L281.03 77.62L281.24 79.46L279.57 82.6L278.45 83.69V84.66L281.38 87.48L281.52 88.88L280.96 90.18L280.06 90.83L275.46 90.94L275.11 91.48L275.04 93.64L275.67 95.81L277.48 97.32L279.29 97.54L279.85 98.19L279.71 100.57L278.66 101.87L277.41 102.3L273.72 101L271.84 100.79L271.08 101.33L270.38 103.17L270.24 107.28L271.7 109.77L271.91 113.99L271.7 114.64L269.96 114.31L269.06 115.07L266.06 119.94L266.41 122.43L267.46 123.4L268.22 123.83L270.45 123.72L271.49 123.18L272.19 121.34L270.38 120.26L270.66 118.75L271.98 117.02H273.23L276.64 119.61L277.27 120.91L277.2 122.1L271.56 127.19L271.08 131.19L269.96 131.29L266.48 128.81L264.74 129.56L263.21 136.27L264.81 140.05L266.34 140.49L267.66 140.16L268.57 139.3L269.06 135.84L269.61 135.08L272.05 134.86L273.65 136.16L273.51 139.08L271.42 142.76V144.06L280.54 156.49L280.61 159.41L278.04 168.27L283.4 172.05L286.11 173.13L287.92 174.43L288.69 175.83L288.97 177.56L288.48 178.75L284.16 184.8L282.28 185.56V186.31L282.98 187.29L285.56 188.69H289.04L290.71 189.66L291.68 190.53L291.82 193.88L287.16 202.63L286.32 202.84L284.65 201.33L283.26 200.9L282.49 201.76L282.7 204.14L285 206.41L287.85 206.19L290.08 206.84L291.47 209L292.66 212.24L294.95 214.72L297.04 215.26L300.31 214.83L303.45 216.23L303.66 217.74L300.52 226.49L300.45 233.18L302.12 236.09L301.78 237.82L303.52 240.52L305.61 241.81L307.76 242.14L308.6 249.58L309.09 250.99L310.13 252.07L311.87 252.39L315.91 250.88L317.37 248.94V248.07L314.8 246.35L314.38 245.59L312.77 239.76L315.98 235.34L318.76 235.12L319.74 236.2L319.67 239.66L321.13 243.33L320.85 248.29L323.15 253.15L324.33 256.92L324.82 256.81L325.31 255.63L326.49 251.42L329.14 249.37L330.74 249.69L331.36 250.45L333.45 254.87H341.04V256.27L337.21 260.48L337.28 261.34L340.48 263.83L344.03 268.79V269.44L341.95 271.48L343.2 277.85L339.44 281.08L337.63 281.73V283.24L337.77 284.1L338.88 285.07L345.91 286.8L346.82 288.42L348.56 294.35L348.49 295.53L346.89 297.26L344.66 297.04L344.31 297.47L346.26 300.38L348.56 309.01L353.5 312.35L357.82 312.99L359.56 315.69L359.84 317.95L360.47 319.03L363.11 321.29L365.27 324.09L367.29 329.26L369.58 329.91L376.76 333.9H377.87L380.38 331.74L381.98 331.85L384.62 335.3H386.99L388.45 336.05L389.22 341.11L392.56 344.88L394.09 344.99L398.48 341.65L399.52 341.33L400.91 341.22L403 342.19L404.05 343.91L404.39 345.75L403.98 349.95L404.53 351.88L399.03 354.68L400.84 357.81L401.68 365.34L396.74 366.2L393.6 363.94L392.21 363.62L389.98 364.7H386.5L384.48 365.56L373.2 363.19L368.26 367.82L370.35 371.05L373.9 371.91L362.55 383.97L363.11 389.02L363.74 390.85L366.03 391.93L373.41 393.87L373 397.2L372.79 398.49L372.09 398.6L370.91 400H369.52L370.07 401.61L369.03 402.9L369.45 404.95L365.13 405.49L361.79 404.84L362.48 405.49L365.96 413.12L363.32 415.6L362.62 416.89L356.36 420.33L355.94 423.56L359.63 427.53L360.81 430.98L358.45 431.94L356.57 428.61L354.48 431.3L352.81 430.33L350.44 430.01L349.53 424.31L348.35 422.48L347.79 423.02L346.68 419.9L341.25 421.84L340.07 422.7L339.58 425.49L338.33 425.38L337.21 427.43L333.38 425.17L331.16 423.23L329.42 419.25L328.16 418.29L326.7 418.18L325.45 417.21L323.71 416.78L324.26 416.03L323.77 415.81L323.85 414.74L322.17 414.31L320.15 412.26L319.81 412.91L318.42 412.8L319.18 411.51L317.65 411.19L317.09 409.47L318.62 406.02L318.9 402.37L318.21 398.92L316.68 396.66L316.4 392.14L314.31 391.5L306.16 394.08L301.99 392.47L298.44 392.14L297.18 393.33L290.5 397.2L290.15 394.51L290.64 393.97L290.08 393.01L289.94 390.96L288.2 387.84L287.37 388.06L287.02 387.41L277.62 394.19L276.64 396.34L276.09 395.8L270.87 400.11L262.23 405.59L259.87 401.72L255.76 400.43L252.56 400L251.58 398.39L252.63 396.77L252.56 395.7L250.75 392.57L248.52 392.25L248.24 391.71L244.62 392.25L236.96 389.02L236.61 388.38L237.31 385.04L237.03 384.5L235.99 383.97L230.56 383.54L230.28 381.27L231.18 380.09L230.28 379.23L229.37 380.74L229.65 382.35L228.54 383.97L226.94 384.4L221.09 387.95L221.58 389.13L220.18 390.1L216.98 387.84L215.24 387.73L213.85 388.49L214.13 391.61L212.25 391.93L208.35 395.05L208.14 396.66L205.56 402.37L205.84 403.55L205.42 405.27L207.23 406.45L206.89 407.96L212.6 412.26L209.6 412.48L205.84 415.06L199.44 417.86L200.27 419.79L196.24 421.19L196.51 423.77L196.03 425.81L194.43 426.89L194.98 427.86L195.05 430.33L189.41 430.12L187.67 430.98L184.96 433.77L185.03 434.95L184.26 436.03L185.65 438.07L186.63 441.08L185.31 442.91L186.35 443.77L188.16 443.98L187.74 445.7L186.35 445.6L185.51 446.46L183.77 446.67L183.08 447.42L183.63 448.93L185.03 449.36L183.98 450.22L183.77 451.4L184.19 454.3L184.68 454.41L185.65 457.21L182.52 458.71L182.94 459.14L181.41 461.07L181.2 462.47L178 464.94L178.34 466.12L177.44 467.2L178.2 468.27L178.41 470.1L176.74 470.85L175.84 472.25L177.51 473.11L179.46 476.12L177.37 477.73L178.34 478.48L178.27 479.34L181.62 478.16L182.52 479.77L184.19 478.69L183.91 478.05L184.33 477.84L187.05 482.67H188.09L190.46 484.39L189.97 485.46L186.56 487.18L189.06 490.19L188.09 492.98L189.83 494.91L188.65 495.45L189 496.74L186.91 497.71L188.16 500.18L179.32 503.08L178.27 502.32V498.56H176.88L173.4 499.75L171.87 501.25L169.5 502.22L165.95 502.32L164.49 500.61L163.93 502.75L159.76 505.12L155.51 508.87L153.49 509.84L152.58 511.77L151.26 512.85L151.05 514.78L147.92 514.99L143.95 518.75L137.41 521.97L131.98 522.51L125.43 520.9L122.3 516.6L123.07 511.88L122.16 510.81L119.38 511.88H116.1L116.45 510.48L114.23 509.95L109.77 512.63L107.82 512.74L105.66 513.81L102.53 509.09L100.23 507.59L98.7 505.55L98.77 504.9L99.74 504.15L99.33 502.65L99.54 501.14L99.12 500.82L95.71 501.14L94.11 497.81L93.2 496.95L90.14 495.77L87.84 495.34L86.45 495.67L84.43 497.17L81.85 497.81L77.54 500.71L73.5 500.39L70.92 498.56L68.49 498.67L65 499.75L64.17 497.71L64.8 494.81L64.03 490.73L65.56 488.26L65 485.14L65.42 482.45L67.93 479.98L67.37 477.19L67.79 473.22L66.26 470.96L62.29 470.64L59.09 465.91L57.35 458.82L53.45 453.55L52.82 448.61L51.64 445.17L50.11 442.37L46.9 440.11L45.37 434.85L41.89 431.62L41.75 427.21L40.01 423.13L38.76 421.51L36.88 420.65L35.7 421.19L33.4 424.2L32.42 424.31L30.27 422.48L28.8 422.37L26.99 423.66L20.1 424.63L15.16 426.14L14.04 423.02L14.18 420.65L13.21 417.43L12.37 410.86L11.47 408.71L12.03 402.15L10.63 400.32L9.45 399.68L7.92 395.7L8.13 394.94L10.98 392.04L11.12 390.53L8.41 383.1L6.04 380.41L5.48 379.01L5.55 377.51L6.87 375.46L8.06 375.25L10.7 375.79L12.16 374.92L12.44 373.2L11.05 369.54L11.68 366.42L15.02 368.03L17.11 366.96L17.87 365.56L17.8 362.87L15.78 360.39L10.42 359.85L10.01 358.88L10.29 358.34L12.23 358.02L15.37 356.51L18.22 356.62L19.47 355.11L19.41 354.04L15.92 350.16L16.97 345.1L14.53 341.87L15.78 338.42L17.18 338.21L20.03 341.54L22.12 342.3L23.37 341.54L25.32 339.07L26.23 338.74L27.06 339.5L28.04 343.59L29.29 343.91L30.2 342.94L31.38 338.96L33.89 339.07L35.77 338.1L35.49 336.81L32.56 335.19L32.28 334.44L32.98 334.11L34.93 335.3L35.9 331.42L34.79 329.69L32.63 328.19L32.15 326.25L31.24 325.39L28.04 324.63L26.44 322.58L22.68 320.75L16.97 319.67L10.63 316.55L7.64 313.64L5.34 313.42L2.7 312.02L2 309.44L5.34 305.56L5.13 304.48L7.78 303.29L10.49 298.55L19.27 292.94L21.08 290.9L20.66 289.71L21.01 286.15L20.66 283.99L21.84 283.13L21.28 281.73L22.33 274.94L25.81 274.07L25.6 272.24L26.58 269.11L29.29 266.85L28.94 264.8L27.06 261.02L27.9 259.73L26.3 256.17L27.27 253.15L28.8 251.53L29.15 249.8L28.32 247.21L29.99 245.92L30.13 242.89L33.12 241.17L34.09 241.28L35.9 242.89L39.8 241.92L40.64 240.84L40.43 239.66L44.33 237.17L46.9 239.76L49.55 239.66L51.64 240.2L52.96 239.44L53.94 238.04L53.45 235.56L54.42 233.83L54.28 232.32L54.98 231.13H59.44L60.76 230.48L63.75 227.14L65.56 227.24L68.9 225.62L72.66 221.2L73.85 218.5L74.19 212.13L73.43 210.51L72.52 209.97L68.69 210.4L66.95 207.05L62.92 203.49L61.8 200.9L61.94 198.63L61.18 196.58L61.66 193.66L60.41 189.77L60.83 188.58L60.55 186.85L62.64 185.23L66.54 185.02L67.72 183.18L69.39 182.64L70.36 181.02L73.15 180.48L74.54 180.91L75.86 180.7L79.63 177.89L83.25 176.05L82.9 172.81L84.22 171.94L84.43 170.75L88.88 169.24L88.61 167.19L87.49 165.46L87 161.24L88.4 159.41L90.9 158L90.83 155.73L93.9 153.57L94.24 151.62L95.57 150.87L95.71 149.89L94.52 146.22L92.92 144.06L91.04 142.11L87.49 141.46L85.12 136.59L86.59 133.03L87.42 129.24L88.95 126.43L90.97 125.67L93.34 123.94L94.31 121.78L95.36 120.91L102.74 118.1L104.13 119.07L108.17 116.26L108.79 114.31L108.73 110.31L107.75 103.82L109.35 99.27L113.53 91.37L114.23 87.15L114.29 80.76L114.85 79.36L116.1 78.49L118.4 75.24L124.04 71.99L125.92 70.04L129.19 69.4L137.34 64.52L146.04 61.49L150.98 60.84L154.4 59.22L159.2 58.13L158.01 49.79L159.82 46L158.5 37.12L159.69 35.82L161.08 35.38L163.51 33.33L161.29 26.82L160.24 26.17L161.64 22.49L162.12 14.68L166.3 11L186.07 10.35L190.6 8.61L202.92 2L203.96 2.87L2 2" stroke="white" stroke-width="2"/>
<path d="M404.53 351.88L401.739 353.301L410.17 360.71L409.82 359.42L407.46 357.05L404.53 351.88Z" fill="#C7C7C7"/>
<path d="M409.82 365.56L408.57 369.33L408.64 372.34L410.24 374.92L413.03 376.86L414.35 377.08L417.34 376.22L420.75 373.42L422.01 365.67L423.75 363.51L428.13 362.01L432.52 361.58L437.67 361.47L440.25 362.44L443.66 367.07L445.26 370.08L451.8 377.19L453.82 380.41L460.16 388.16L462.6 392.9L464.27 394.08L472.9 397.42L481.88 398.92L483.06 402.8L485.36 404.52L486.89 404.63L493.09 400.97L494.34 403.23L495.73 403.76H501.93L504.44 401.4L507.78 396.88L513.9 391.71L519.26 395.26L521.28 397.31L522.95 400.97L526.23 403.23L527.76 403.76L531.59 403.44L537.99 406.67L540.98 413.45L542.45 414.31L544.26 413.23L545.79 410.54L546.83 406.99L547.25 402.9L550.1 402.69L552.75 404.52L553.52 405.59L554.84 409.79L554.56 410.86L552.61 412.8L549.69 417.75L547.04 420.44L540.22 424.09L538.13 426.03L538.41 428.4L539.38 429.9L540.64 431.19L544.81 433.23L545.65 434.2L545.79 435.49L542.93 439.47L542.1 441.4L541.68 444.41L542.17 445.81L545.79 450L546.48 456.13L545.37 459.03L541.19 462.36L536.39 464.94L535.28 466.12L534.72 466.98L534.23 470.64V471.82L535.62 475.26L535.28 485.57L535.69 489.11L538.34 491.91L545.37 496.85L545.51 498.78L543.63 500.5L541.26 500.61L538.13 496.85L535.48 494.7L533.19 494.27L531.52 494.81L530.96 495.67L530.75 498.56L533.88 502L538.48 505.65L538.9 506.83L538.48 508.34L531.66 513.27L522.12 525.4L519.33 527.87L515.99 528.95L513.62 530.34L506.04 532.6L504.3 534.53L503.46 537.64L498.38 546.01L495.18 549.55L485.29 557.06L482.58 562.42L482.85 564.57L483.69 566.07H489.95L492.6 568.43L492.81 571.54L491.49 576.47L484.52 592.34L480.35 606.91L478.89 610.02L477.08 612.38L474.64 613.88L471.09 617.63L467.61 622.66L466.42 625.45L464.61 627.59L462.32 629.09L458.56 630.37L455.35 630.59L453.4 631.87L448.04 637.77L446.72 640.44L446.93 645.58L448.18 648.15L450.83 650.29L451.73 653.93L451.18 655.01L450.2 655.75H448.67L447.28 655.22L444.63 653.08L441.71 653.51L437.74 655.75L434.75 659.82L434.68 662.07L437.18 665.28L444.01 669.88L450.2 674.91L451.73 677.27L451.53 679.09L449.16 684.76L445.96 688.4L441.08 695.24L437.6 697.92L434.47 702.95L433.77 705.3L433.84 707.01L441.08 731.18L441.22 745.07L442.54 749.78L441.57 758L441.29 769.12L441.85 779.9L439.48 780.87L438.51 780.54L435.37 778.3L430.99 773.18L429.8 772.96L426.81 774.14L423.68 771.47L422.49 772.32L421.1 771.79L418.46 772.85L417.41 772.11L416.86 770.82L415.39 770.18L413.72 767.62L409.06 762.6L404.46 761.74L403.98 760.25L402.51 760.14L398.2 762.39L392.77 759.29L391.44 758.11L391.51 756.94L394.37 751.49L393.19 750.63L391.93 751.49L389.22 751.59L388.31 754.48L386.85 754.37L385.11 750.52L384.14 749.46L383.79 747.64L384 746.68L386.57 747.32L387.2 744.54L385.81 744.01L383.16 745.18L381.49 744.86L380.65 743.79L380.03 740.8L380.44 736.31L379.89 734.92H378.43L375.5 733.74L368.68 734.06L367.98 733V731.5L365.27 729.9L364.78 726.69L362.9 726.58L358.65 728.83L357.05 727.86L355.87 725.4L354.27 724.87L352.88 723.05L352.53 720.81L351.27 719.63L350.02 719.42L349.95 717.49L349.33 717.06L352.04 711.61L349.19 707.97L352.32 705.41L349.74 701.98L349.19 702.41L347.59 701.02L346.54 699.2L346.26 697.6H344.73L345.22 694.92L344.17 694.28L344.87 692.36L344.03 691.5L345.36 690.11L344.73 689.25L343.62 690L342.23 687.65L342.85 687.33L341.88 686.9L338.53 681.76L338.05 679.3L343.13 676.52L345.71 681.02L347.79 680.05L348.63 680.91L349.26 680.37L349.47 679.94L347.45 678.13L345.98 675.45L347.24 672.77L346.4 671.06L347.86 668.17L346.75 666.03L347.31 665.5L346.19 664.43L346.05 662.18L347.31 662.93L351.14 662.71L352.95 665.5L353.64 665.82L357.33 665.92L361.37 665.18L365.06 663.03L363.11 660.89L363.32 657.79L365.06 654.15L365.96 653.61L369.86 653.93V652.76L371.33 652.65L371.05 651.26L371.95 649.12L371.81 648.37L373.27 647.19L378.01 646.65L383.37 645.05H389.77L392.7 646.55L395.27 649.22L395.62 648.9L396.25 647.51L396.18 645.05L395.27 640.87L394.3 640.12V638.62L391.86 635.73L390.75 631.87L387.48 631.55L386.85 631.12L386.22 629.09L384.48 628.77L383.93 628.02L380.86 628.23L379.61 628.98L378.64 628.77L378.5 629.41L376.96 629.84L376.27 629.09L378.5 625.23L389.5 612.8L396.74 603.8L399.17 601.66L399.87 600.7L399.73 596.94L398.96 595.34L396.81 594.16L395.9 591.05L395.34 591.26L395.13 590.84L392.77 591.91L391.03 591.69L390.96 589.76L389.15 589.87L387.27 587.19L387.48 583.44L386.78 580.97L387.13 580.44L386.36 579.15L386.92 578.83L386.36 577.54L382.53 575.5L381.7 574.54L381.35 568.43L380.52 568.53L380.44 568.1L383.93 567.35L384.48 561.13L381.35 561.03L379.96 561.46L379.19 556.84L379.61 555.98L379.68 549.12L378.91 547.51L375.02 550.51L374.18 547.83L373.14 547.73L372.65 549.01L371.95 549.23L371.33 544.29L370.14 542.36L369.86 540.86L366.52 539.89L364.5 538.39L364.36 539.03L362.07 539.68L361.02 539.36L360.67 540.21L358.52 539.03L351.07 541.4L349.53 541.29L348.28 539.46L346.75 539.89L344.94 539.68L344.1 538.93L342.99 539.25L341.6 540.86L340.9 539.25L335.61 539.57L333.59 535.17L327.19 536.14L323.01 536.24L322.17 537.1L322.24 537.96L323.5 539.68L320.02 542.36L318.48 540.75L312.15 539.68H311.18L310.69 541.18L310.13 540.97L310.69 537.96L307.21 538.07L306.3 538.93H304.42L302.4 537.75L306.16 535.06L308.25 534.31L309.02 535.17L310.13 533.78L310.55 534.1L311.31 533.78L312.01 531.63L312.92 530.99L310.48 528.3L310.55 527.55L313.61 525.51L314.52 519.5L316.12 517.14L315 515.21L315.77 513.6L315.91 509.95L314.38 507.59L322.24 502.22L324.47 502L326.84 500.61L326.49 498.89L330.32 497.92L330.39 497.06L328.72 495.02L330.95 493.52L334.78 492.55L334.5 491.58L338.4 487.93L338.47 487.07L340.83 483.53L341.04 480.52L344.03 471.07L344.38 470.74L345.91 472.14L349.33 472.57L353.22 473.97L357.75 474.29L359.91 474.94L367.22 474.61L369.1 475.47L369.52 475.26L370 472.79L374.88 466.88L375.29 461.93L377.8 460.32L379.54 456.56L377.31 456.02L376.76 454.52L380.24 451.08L380.17 449.9L378.08 450L377.1 448.28L375.64 448.39L372.93 449.9H372.37L371.88 449.14L371.05 449.57L371.12 448.82L370.07 449.47L368.96 449.36L368.33 443.77L367.36 441.3L368.75 440.98L368.19 438.72L364.99 440.22L362.41 439.25L360.26 441.19L357.47 436.89L356.91 437.21L356.57 436.67L355.31 437.64L354.27 435.49L350.72 436.35L350.44 435.17L352.88 434.42L353.92 433.23L355.94 433.02L358.45 431.94L360.81 430.98L359.63 427.53L355.94 423.56L356.36 420.33L362.62 416.89L363.32 415.6L365.96 413.12L362.48 405.49L361.79 404.84L365.13 405.49L369.45 404.95L369.03 402.9L370.07 401.61L369.52 400H370.91L372.09 398.6L372.79 398.49L373 397.2L373.41 393.87L366.03 391.93L363.74 390.85L363.11 389.02L362.55 383.97L373.9 371.91L370.35 371.05L368.26 367.82L373.2 363.19L384.48 365.56L386.5 364.7H389.98L392.21 363.62L393.6 363.94L396.74 366.2L401.68 365.34L400.84 357.81L399.03 354.68L404.53 351.88L407.46 357.05L409.82 359.42L410.17 360.71L2 2" stroke="white" stroke-width="2"/>
<path d="M107.82 512.74L105.804 513.739L106.08 515.1L102.74 518.75L100.37 522.29L95.85 525.83L92.36 530.99L92.3 533.78L91.53 534.96L90.14 540.54L89.72 544.93L92.78 550.84L96.54 551.37L98.35 552.98H101.62L103.92 555.13L104.13 556.84L106.5 558.67L107.68 558.56L109.28 556.95L110.88 559.1L113.25 558.24L115.2 560.06L117.5 558.67L118.19 559.2L117.43 561.13L117.57 562.42L119.17 562.74L121.12 561.35L122.23 561.56L123.28 562.74L122.86 563.92L119.59 565.75L117.71 569.18L119.52 572.07L117.92 573.57L117.22 575.72L117.71 577.33V583.22L118.89 583.97L118.96 587.08L120.63 589.76L120.14 591.26L116.87 594.59L113.81 592.44L109.98 592.55L106.85 593.52L104.27 597.48L104.34 598.87L106.01 601.02V601.87L102.81 604.66L98.84 609.91L97.93 614.84L98.98 617.63L98.28 622.34L96.61 623.63L92.71 625.13L87.28 629.95L82.13 632.62L80.04 635.73L81.02 641.94L82.76 645.05L85.19 646.12H90.76L91.95 645.37L93.2 643.33L95.36 644.4L96.26 648.69L94.87 649.54L93.41 652.76L95.57 653.4L95.15 655.33L95.43 659.07L94.94 659.61L93.69 659.4L90.21 662.71L88.61 663.35L88.12 666.25L87.21 667.21L84.99 667.42L83.25 668.17L80.95 670.63L77.88 671.81L77.05 674.27L78.02 677.7L76.21 680.48L74.96 681.34L69.74 682.73L66.68 684.76L65.35 683.9L63.61 684.33L61.11 686.26L58.53 689.36L57.9 689.57L57.7 689.04L57.14 689.68L53.73 690.54L53.8 692.04L58.67 698.13L61.52 697.17L67.09 694.07L72.45 692.25L73.08 693.21L72.73 695.03L74.19 698.67L77.54 704.66L76.35 706.16L70.99 708.83L70.5 710.33L71.06 715.03L72.38 717.06L76.49 720.38L80.53 722.2L81.16 724.34L81.36 728.4L85.06 730.11L88.54 732.46L90.28 735.67L92.78 738.13L94.31 739.19L96.33 738.34L97.45 738.45L98.84 739.73L103.43 738.55L111.79 741.65L117.78 739.94L122.72 736.52L126.27 735.88L134.97 739.84H136.09L141.58 737.16L144.16 737.59L147.08 739.52L148.62 741.55L149.94 742.08L152.93 744.75L155.37 745.07L159.82 744.54L162.19 744.97L163.45 746.78L163.38 750.95L164.56 755.01L167.55 757.04L168.25 760.68L167.76 763.45L166.02 766.02L167.62 774.35L170.96 779.9L172.5 779.26L173.61 777.13L174.58 776.81L176.88 777.77V779.9L175.84 784.82H174.51L172.77 784.07L171.31 785.14L170.75 787.7L171.73 789.73L172.98 790.37L185.17 783.86L187.74 784.5L190.6 788.02L191.71 788.34L192.75 787.49L193.87 787.27L195.05 787.81L196.44 786.85L202.57 785.35L203.96 786.1L205.22 788.66L204.17 791.44L204.8 792.29L205.91 791.76L209.32 791.65L214.68 794L217.89 787.27L218.93 783L221.02 778.62L224.08 773.92L225.48 773.6L228.61 774.99L230.7 775.1L233.27 774.88L236.47 773.18L236.75 773.71L236.06 774.88L238.91 774.46L240.65 774.78L241.56 775.85L241.28 781.51L241.77 782.36L247.82 786.31L250.82 787.27L255.34 787.7L255.41 785.03L253.6 777.23L255.97 770.93L258.2 768.58L260.28 767.41L262.16 767.19L264.6 769.44L270.59 766.66L270.94 762.71L273.37 757.36L273.44 748.07L274.14 745.39L275.39 745.93L277.06 748.81L278.32 749.24L282.98 747.32L284.37 747.21L284.44 749.14L283.54 751.81L284.72 751.91L289.38 748.17L290.78 747.64L292.03 745.39L293.07 744.75L294.54 747.1L297.11 746.14L296.9 744.43L294.81 742.19L292.8 737.48V736.1L294.12 733.64L298.99 732.89L304.49 729.9L306.93 727.54L308.39 727.44V729.25L309.23 730.54L313.75 729.9L316.4 731.18L320.3 730.75L322.52 732.46L326.98 731.07L329.62 731.82L336.17 731.61L336.66 730.11L336.59 727.44L339.3 728.83L343.69 727.33L344.87 728.29L345.98 727.12L350.02 728.61L351 728.08L351.9 723.05H352.88L352.53 720.81L351.27 719.63L350.02 719.42L349.95 717.49L349.33 717.06L352.04 711.61L349.19 707.97L352.32 705.41L349.74 701.98L349.19 702.41L347.59 701.02L346.54 699.2L346.26 697.6H344.73L345.22 694.92L344.17 694.28L344.87 692.36L344.03 691.5L345.36 690.11L344.73 689.25L343.62 690L342.23 687.65L342.85 687.33L341.88 686.9L338.53 681.76L338.05 679.3L343.13 676.52L345.71 681.02L347.79 680.05L348.63 680.91L349.26 680.37L349.47 679.94L347.45 678.13L345.98 675.45L347.24 672.77L346.4 671.06L347.86 668.17L346.75 666.03L347.31 665.5L346.19 664.43L346.05 662.18L347.31 662.93L351.14 662.71L352.95 665.5L353.64 665.82L357.33 665.92L361.37 665.18L365.06 663.03L363.46 661.64L363.11 660.57L363.32 657.79L365.06 654.15L365.96 653.61L369.86 653.93V652.76L371.33 652.65L371.05 651.26L371.95 649.12L371.81 648.37L373.27 647.19L378.01 646.65L383.37 645.05H389.77L392.7 646.55L395.27 649.22L395.62 648.9L396.25 647.51L396.18 645.05L395.27 640.87L394.3 640.12V638.62L391.86 635.73L390.75 631.87L387.48 631.55L386.85 631.12L386.22 629.09L384.48 628.77L383.93 628.02L380.86 628.23L379.61 628.98L378.64 628.77L378.5 629.41L376.96 629.84L376.27 629.09L378.5 625.23L389.5 612.8L396.74 603.8L399.17 601.66L399.87 600.7L399.73 596.94L398.96 595.34L396.81 594.16L395.9 591.05L395.34 591.26L395.13 590.84L392.77 591.91L391.03 591.69L390.96 589.76L389.15 589.87L387.27 587.19L387.48 583.44L386.78 580.97L387.13 580.44L386.36 579.15L386.92 578.83L386.36 577.54L382.53 575.5L381.7 574.54L381.35 568.43L380.52 568.53L380.44 568.1L383.93 567.35L384.48 561.13L381.35 561.03L379.96 561.46L379.19 556.84L379.61 555.98L379.68 549.12L378.91 547.51L375.02 550.51L374.18 547.83L373.14 547.73L372.65 549.01L371.95 549.23L371.33 544.29L370.14 542.36L369.86 540.86L366.52 539.89L364.5 538.39L364.36 539.03L362.07 539.68L361.02 539.36L360.67 540.21L358.52 539.03L351.07 541.4L349.53 541.29L348.28 539.46L346.75 539.89L344.94 539.68L344.1 538.93L342.99 539.25L341.6 540.86L340.9 539.25L335.61 539.57L333.59 535.17L327.19 536.14L323.01 536.24L322.17 537.1L322.24 537.96L323.5 539.68L320.02 542.36L318.48 540.75L312.15 539.68H311.18L310.69 541.18L310.13 540.97L310.69 537.96L307.21 538.07L306.3 538.93H304.42L302.4 537.75L306.16 535.06L308.25 534.31L309.02 535.17L310.13 533.78L310.55 534.1L311.31 533.78L312.01 531.63L312.92 530.99L310.48 528.3L310.55 527.55L313.61 525.51L314.52 519.5L316.12 517.14L315 515.21L315.77 513.6L315.91 509.95L314.38 507.59L322.24 502.22L324.47 502L326.84 500.61L326.49 498.89L330.32 497.92L330.39 497.06L328.72 495.02L330.95 493.52L334.78 492.55L334.5 491.58L338.4 487.93L338.47 487.07L340.83 483.53L341.04 480.52L344.03 471.07L344.38 470.74L345.91 472.14L349.33 472.57L353.22 473.97L357.75 474.29L359.91 474.94L367.22 474.61L369.1 475.47L369.52 475.26L370 472.79L374.88 466.88L375.29 461.93L377.8 460.32L379.54 456.56L377.31 456.02L376.76 454.52L380.24 451.08L380.17 449.9L378.08 450L377.1 448.28L375.64 448.39L372.93 449.9H372.37L371.88 449.14L371.05 449.57L371.12 448.82L370.07 449.47L368.96 449.36L368.33 443.77L367.36 441.3L368.75 440.98L368.19 438.72L364.99 440.22L362.41 439.25L360.26 441.19L357.47 436.89L356.91 437.21L356.57 436.67L355.31 437.64L354.27 435.49L350.72 436.35L350.44 435.17L352.88 434.42L353.92 433.23L355.94 433.02L358.45 431.94L356.57 428.61L354.48 431.3L352.81 430.33L350.44 430.01L349.53 424.31L348.35 422.48L347.79 423.02L346.68 419.9L341.25 421.84L340.07 422.7L339.58 425.49L338.33 425.38L337.21 427.43L333.38 425.17L331.16 423.23L329.42 419.25L328.16 418.29L326.7 418.18L325.45 417.21L323.71 416.78L324.26 416.03L323.77 415.81L323.85 414.74L322.17 414.31L320.15 412.26L319.81 412.91L318.42 412.8L319.18 411.51L317.65 411.19L317.09 409.47L318.62 406.02L318.9 402.37L318.21 398.92L316.68 396.66L316.4 392.14L314.31 391.5L306.16 394.08L301.99 392.47L298.44 392.14L297.18 393.33L290.5 397.2L290.15 394.51L290.64 393.97L290.08 393.01L289.94 390.96L288.2 387.84L287.37 388.06L287.02 387.41L277.62 394.19L276.64 396.34L276.09 395.8L270.87 400.11L262.23 405.59L259.87 401.72L255.76 400.43L252.56 400L251.58 397.95L252.49 397.09L252.56 395.7L250.75 392.57L248.52 392.25L248.24 391.71L244.62 392.25L236.96 389.02L236.61 388.38L237.31 385.04L237.03 384.5L235.99 383.97L230.56 383.54L230.28 381.27L231.18 380.09L230.28 379.23L229.37 380.74L229.65 382.35L228.54 383.97L226.94 384.4L221.09 387.95L221.58 389.13L220.18 390.1L216.98 387.84L215.24 387.73L213.85 388.49L214.13 391.61L212.25 391.93L208.35 395.05L208.14 396.66L205.56 402.37L205.84 403.55L205.42 405.27L207.23 406.45L206.89 407.96L212.6 412.26L209.6 412.48L205.84 415.06L199.44 417.86L200.27 419.79L196.24 421.19L196.51 423.77L196.03 425.81L194.43 426.89L194.98 427.86L195.05 430.33L189.41 430.12L187.67 430.98L184.96 433.77L185.03 434.95L184.26 436.03L185.65 438.07L186.63 441.08L185.31 442.91L186.35 443.77L188.16 443.98L187.74 445.7L186.35 445.6L185.51 446.46L183.77 446.67L183.08 447.42L183.63 448.93L185.03 449.36L183.98 450.22L183.77 451.4L184.19 454.3L184.68 454.41L185.65 457.21L182.52 458.71L182.94 459.14L181.41 461.07L181.2 462.47L178 464.94L178.34 466.12L177.44 467.2L178.2 468.27L178.41 470.1L176.74 470.85L175.84 472.25L177.51 473.11L179.46 476.12L177.37 477.73L178.34 478.48L178.27 479.34L181.62 478.16L182.52 479.77L184.19 478.69L183.91 478.05L184.33 477.84L187.05 482.67H188.09L190.46 484.39L189.97 485.46L186.56 487.18L189.06 490.19L188.09 492.98L189.83 494.91L188.65 495.45L189 496.74L186.91 497.71L188.16 500.18L179.32 503.08L178.27 502.32V498.56H176.88L173.4 499.75L171.87 501.25L169.5 502.22L165.95 502.32L164.49 500.61L163.93 502.75L159.76 505.12L155.51 508.87L153.49 509.84L152.58 511.77L151.26 512.85L151.05 514.78L147.92 514.99L143.95 518.75L137.41 521.97L131.98 522.51L125.43 520.9L122.3 516.6L123.07 511.88L122.16 510.81L119.38 511.88H116.1L116.45 510.48L114.23 509.95L109.77 512.63L107.82 512.74Z" fill="#C7C7C7"/>
<path d="M105.66 513.81L107.82 512.74L109.77 512.63L114.23 509.95L116.45 510.48L116.1 511.88H119.38L122.16 510.81L123.07 511.88L122.3 516.6L125.43 520.9L131.98 522.51L137.41 521.97L143.95 518.75L147.92 514.99L151.05 514.78L151.26 512.85L152.58 511.77L153.49 509.84L155.51 508.87L159.76 505.12L163.93 502.75L164.49 500.61L165.95 502.32L169.5 502.22L171.87 501.25L173.4 499.75L176.88 498.56H178.27V502.32L179.32 503.08L188.16 500.18L186.91 497.71L189 496.74L188.65 495.45L189.83 494.91L188.09 492.98L189.06 490.19L186.56 487.18L189.97 485.46L190.46 484.39L188.09 482.67H187.05L184.33 477.84L183.91 478.05L184.19 478.69L182.52 479.77L181.62 478.16L178.27 479.34L178.34 478.48L177.37 477.73L179.46 476.12L177.51 473.11L175.84 472.25L176.74 470.85L178.41 470.1L178.2 468.27L177.44 467.2L178.34 466.12L178 464.94L181.2 462.47L181.41 461.07L182.94 459.14L182.52 458.71L185.65 457.21L184.68 454.41L184.19 454.3L183.77 451.4L183.98 450.22L185.03 449.36L183.63 448.93L183.08 447.42L183.77 446.67L185.51 446.46L186.35 445.6L187.74 445.7L188.16 443.98L186.35 443.77L185.31 442.91L186.63 441.08L185.65 438.07L184.26 436.03L185.03 434.95L184.96 433.77L187.67 430.98L189.41 430.12L195.05 430.33L194.98 427.86L194.43 426.89L196.03 425.81L196.51 423.77L196.24 421.19L200.27 419.79L199.44 417.86L205.84 415.06L209.6 412.48L212.6 412.26L206.89 407.96L207.23 406.45L205.42 405.27L205.84 403.55L205.56 402.37L208.14 396.66L208.35 395.05L212.25 391.93L214.13 391.61L213.85 388.49L215.24 387.73L216.98 387.84L220.18 390.1L221.58 389.13L221.09 387.95L226.94 384.4L228.54 383.97L229.65 382.35L229.37 380.74L230.28 379.23L231.18 380.09L230.28 381.27L230.56 383.54L235.99 383.97L237.03 384.5L237.31 385.04L236.61 388.38L236.96 389.02L244.62 392.25L248.24 391.71L248.52 392.25L250.75 392.57L252.56 395.7L252.49 397.09L251.58 397.95L252.56 400L255.76 400.43L259.87 401.72L262.23 405.59L270.87 400.11L276.09 395.8L276.64 396.34L277.62 394.19L287.02 387.41L287.37 388.06L288.2 387.84L289.94 390.96L290.08 393.01L290.64 393.97L290.15 394.51L290.5 397.2L297.18 393.33L298.44 392.14L301.99 392.47L306.16 394.08L314.31 391.5L316.4 392.14L316.68 396.66L318.21 398.92L318.9 402.37L318.62 406.02L317.09 409.47L317.65 411.19L319.18 411.51L318.42 412.8L319.81 412.91L320.15 412.26L322.17 414.31L323.85 414.74L323.77 415.81L324.26 416.03L323.71 416.78L325.45 417.21L326.7 418.18L328.16 418.29L329.42 419.25L331.16 423.23L333.38 425.17L337.21 427.43L338.33 425.38L339.58 425.49L340.07 422.7L341.25 421.84L346.68 419.9L347.79 423.02L348.35 422.48L349.53 424.31L350.44 430.01L352.81 430.33L354.48 431.3L356.57 428.61L358.45 431.94L355.94 433.02L353.92 433.23L352.88 434.42L350.44 435.17L350.72 436.35L354.27 435.49L355.31 437.64L356.57 436.67L356.91 437.21L357.47 436.89L360.26 441.19L362.41 439.25L364.99 440.22L368.19 438.72L368.75 440.98L367.36 441.3L368.33 443.77L368.96 449.36L370.07 449.47L371.12 448.82L371.05 449.57L371.88 449.14L372.37 449.9H372.93L375.64 448.39L377.1 448.28L378.08 450L380.17 449.9L380.24 451.08L376.76 454.52L377.31 456.02L379.54 456.56L377.8 460.32L375.29 461.93L374.88 466.88L370 472.79L369.52 475.26L369.1 475.47L367.22 474.61L359.91 474.94L357.75 474.29L353.22 473.97L349.33 472.57L345.91 472.14L344.38 470.74L344.03 471.07L341.04 480.52L340.83 483.53L338.47 487.07L338.4 487.93L334.5 491.58L334.78 492.55L330.95 493.52L328.72 495.02L330.39 497.06L330.32 497.92L326.49 498.89L326.84 500.61L324.47 502L322.24 502.22L314.38 507.59L315.91 509.95L315.77 513.6L315 515.21L316.12 517.14L314.52 519.5L313.61 525.51L310.55 527.55L310.48 528.3L312.92 530.99L312.01 531.63L311.31 533.78L310.55 534.1L310.13 533.78L309.02 535.17L308.25 534.31L306.16 535.06L302.4 537.75L304.42 538.93H306.3L307.21 538.07L310.69 537.96L310.13 540.97L310.69 541.18L311.18 539.68H312.15L318.48 540.75L320.02 542.36L323.5 539.68L322.24 537.96L322.17 537.1L323.01 536.24L327.19 536.14L333.59 535.17L335.61 539.57L340.9 539.25L341.6 540.86L342.99 539.25L344.1 538.93L344.94 539.68L346.75 539.89L348.28 539.46L349.53 541.29L351.07 541.4L358.52 539.03L360.67 540.21L361.02 539.36L362.07 539.68L364.36 539.03L364.5 538.39L366.52 539.89L369.86 540.86L370.14 542.36L371.33 544.29L371.95 549.23L372.65 549.01L373.14 547.73L374.18 547.83L375.02 550.51L378.91 547.51L379.68 549.12L379.61 555.98L379.19 556.84L379.96 561.46L381.35 561.03L384.48 561.13L383.93 567.35L380.44 568.1L380.52 568.53L381.35 568.43L381.7 574.54L382.53 575.5L386.36 577.54L386.92 578.83L386.36 579.15L387.13 580.44L386.78 580.97L387.48 583.44L387.27 587.19L389.15 589.87L390.96 589.76L391.03 591.69L392.77 591.91L395.13 590.84L395.34 591.26L395.9 591.05L396.81 594.16L398.96 595.34L399.73 596.94L399.87 600.7L399.17 601.66L396.74 603.8L389.5 612.8L378.5 625.23L376.27 629.09L376.96 629.84L378.5 629.41L378.64 628.77L379.61 628.98L380.86 628.23L383.93 628.02L384.48 628.77L386.22 629.09L386.85 631.12L387.48 631.55L390.75 631.87L391.86 635.73L394.3 638.62V640.12L395.27 640.87L396.18 645.05L396.25 647.51L395.62 648.9L395.27 649.22L392.7 646.55L389.77 645.05H383.37L378.01 646.65L373.27 647.19L371.81 648.37L371.95 649.12L371.05 651.26L371.33 652.65L369.86 652.76V653.93L365.96 653.61L365.06 654.15L363.32 657.79L363.11 660.57L363.46 661.64L365.06 663.03L361.37 665.18L357.33 665.92L353.64 665.82L352.95 665.5L351.14 662.71L347.31 662.93L346.05 662.18L346.19 664.43L347.31 665.5L346.75 666.03L347.86 668.17L346.4 671.06L347.24 672.77L345.98 675.45L347.45 678.13L349.47 679.94L349.26 680.37L348.63 680.91L347.79 680.05L345.71 681.02L343.13 676.52L338.05 679.3L338.53 681.76L341.88 686.9L342.85 687.33L342.23 687.65L343.62 690L344.73 689.25L345.36 690.11L344.03 691.5L344.87 692.36L344.17 694.28L345.22 694.92L344.73 697.6H346.26L346.54 699.2L347.59 701.02L349.19 702.41L349.74 701.98L352.32 705.41L349.19 707.97L352.04 711.61L349.33 717.06L349.95 717.49L350.02 719.42L351.27 719.63L352.53 720.81L352.88 723.05H351.9L351 728.08L350.02 728.61L345.98 727.12L344.87 728.29L343.69 727.33L339.3 728.83L336.59 727.44L336.66 730.11L336.17 731.61L329.62 731.82L326.98 731.07L322.52 732.46L320.3 730.75L316.4 731.18L313.75 729.9L309.23 730.54L308.39 729.25V727.44L306.93 727.54L304.49 729.9L298.99 732.89L294.12 733.64L292.8 736.1V737.48L294.81 742.19L296.9 744.43L297.11 746.14L294.54 747.1L293.07 744.75L292.03 745.39L290.78 747.64L289.38 748.17L284.72 751.91L283.54 751.81L284.44 749.14L284.37 747.21L282.98 747.32L278.32 749.24L277.06 748.81L275.39 745.93L274.14 745.39L273.44 748.07L273.37 757.36L270.94 762.71L270.59 766.66L264.6 769.44L262.16 767.19L260.28 767.41L258.2 768.58L255.97 770.93L253.6 777.23L255.41 785.03L255.34 787.7L250.82 787.27L247.82 786.31L241.77 782.36L241.28 781.51L241.56 775.85L240.65 774.78L238.91 774.46L236.06 774.88L236.75 773.71L236.47 773.18L233.27 774.88L230.7 775.1L228.61 774.99L225.48 773.6L224.08 773.92L221.02 778.62L218.93 783L217.89 787.27L214.68 794L209.32 791.65L205.91 791.76L204.8 792.29L204.17 791.44L205.22 788.66L203.96 786.1L202.57 785.35L196.44 786.85L195.05 787.81L193.87 787.27L192.75 787.49L191.71 788.34L190.6 788.02L187.74 784.5L185.17 783.86L172.98 790.37L171.73 789.73L170.75 787.7L171.31 785.14L172.77 784.07L174.51 784.82H175.84L176.88 779.9V777.77L174.58 776.81L173.61 777.13L172.5 779.26L170.96 779.9L167.62 774.35L166.02 766.02L167.76 763.45L168.25 760.68L167.55 757.04L164.56 755.01L163.38 750.95L163.45 746.78L162.19 744.97L159.82 744.54L155.37 745.07L152.93 744.75L149.94 742.08L148.62 741.55L147.08 739.52L144.16 737.59L141.58 737.16L136.09 739.84H134.97L126.27 735.88L122.72 736.52L117.78 739.94L111.79 741.65L103.43 738.55L98.84 739.73L97.45 738.45L96.33 738.34L94.31 739.19L92.78 738.13L90.28 735.67L88.54 732.46L85.06 730.11L81.36 728.4L81.16 724.34L80.53 722.2L76.49 720.38L72.38 717.06L71.06 715.03L70.5 710.33L70.99 708.83L76.35 706.16L77.54 704.66L74.19 698.67L72.73 695.03L73.08 693.21L72.45 692.25L67.09 694.07L61.52 697.17L58.67 698.13L53.8 692.04L53.73 690.54L57.14 689.68L57.7 689.04L57.9 689.57L58.53 689.36L61.11 686.26L63.61 684.33L65.35 683.9L66.68 684.76L69.74 682.73L74.96 681.34L76.21 680.48L78.02 677.7L77.05 674.27L77.88 671.81L80.95 670.63L83.25 668.17L84.99 667.42L87.21 667.21L88.12 666.25L88.61 663.35L90.21 662.71L93.69 659.4L94.94 659.61L95.43 659.07L95.15 655.33L95.57 653.4L93.41 652.76L94.87 649.54L96.26 648.69L95.36 644.4L93.2 643.33L91.95 645.37L90.76 646.12H85.19L82.76 645.05L81.02 641.94L80.04 635.73L82.13 632.62L87.28 629.95L92.71 625.13L96.61 623.63L98.28 622.34L98.98 617.63L97.93 614.84L98.84 609.91L102.81 604.66L106.01 601.87V601.02L104.34 598.87L104.27 597.48L106.85 593.52L109.98 592.55L113.81 592.44L116.87 594.59L120.14 591.26L120.63 589.76L118.96 587.08L118.89 583.97L117.71 583.22V577.33L117.22 575.72L117.92 573.57L119.52 572.07L117.71 569.18L119.59 565.75L122.86 563.92L123.28 562.74L122.23 561.56L121.12 561.35L119.17 562.74L117.57 562.42L117.43 561.13L118.19 559.2L117.5 558.67L115.2 560.06L113.25 558.24L110.88 559.1L109.28 556.95L107.68 558.56L106.5 558.67L104.13 556.84L103.92 555.13L101.62 552.98H98.35L96.54 551.37L92.78 550.84L89.72 544.93L90.14 540.54L91.53 534.96L92.3 533.78L92.36 530.99L95.85 525.83L100.37 522.29L102.74 518.75L106.08 515.1L2 2" stroke="white" stroke-width="2"/>
</svg>
