<svg width="920" height="796" viewBox="0 0 920 796" fill="none" xmlns="http://www.w3.org/2000/svg">
<path d="M526.288 330.74V334.72L514.648 336.32L510.118 341.89L504.948 342.69L503.658 341.1L504.308 337.12L506.898 334.73H512.068L518.538 330.75H526.288V330.74ZM431.888 240.85L435.118 246.42L438.348 248L439.638 252.78L442.878 255.17V263.13L447.398 263.93L451.928 268.69L452.578 275.06L442.878 281.43H430.588L427.348 285.41H424.768L423.478 287.79L424.768 290.97L415.718 297.34L411.838 302.91L393.088 313.24L391.148 316.43L391.798 322.79L395.678 331.54L398.918 333.93L430.598 329.94L441.588 326.76L443.528 324.38L453.878 321.19L458.408 318.01L460.988 320.4L460.338 323.58L463.578 328.35H468.098L468.748 325.96L474.568 322.78L479.088 328.35L485.558 327.55L490.088 330.73H492.678L494.618 327.55L495.908 329.15H501.728V332.33L497.198 336.31L502.368 341.88L497.198 349.83L499.778 351.43L500.428 356.19L498.488 358.58H492.668L488.788 355.4L484.908 356.19V359.38L488.788 360.96L487.498 366.53L483.618 371.3L481.028 379.25L475.858 380.85L474.568 384.83L470.038 387.21L469.398 393.58L474.568 394.38L480.388 391.19H484.268L485.558 388.01L489.438 387.21L491.378 384.83L501.728 382.44L503.668 378.46L508.198 380.06L507.548 382.44H515.308L515.958 380.06L519.838 382.44L521.128 379.26L526.308 380.86L527.598 380.06V373.69L531.478 372.11H539.888L541.178 369.72L545.698 368.93L546.998 361.77L554.118 356.2L559.938 354.62L565.108 350.64H577.388L578.038 354.62L568.988 353.82V360.97L564.468 368.93L565.758 377.68L559.938 386.43L557.348 396.76H559.288L560.578 391.19L564.458 385.63L566.398 384.04H571.568L576.738 377.68L579.328 376.88L583.208 367.34L586.448 366.54L588.388 368.93L593.568 368.13L602.628 375.28H611.028L613.618 380.05L617.488 382.43L615.548 387.2L620.728 390.39L623.318 398.34L629.138 396.75L627.198 395.17L627.848 388.01L633.018 387.21L636.898 395.17V407.89L639.488 408.68L640.778 404.71L643.368 403.92L644.668 411.07L648.548 415.84L671.828 420.61L672.468 418.22L682.818 413.45L688.628 417.43L698.328 419.82L699.628 421.4L698.978 426.97L705.448 429.36L706.738 432.54H711.908L715.138 434.92L713.358 442.23L706.278 446.58L703.088 452.67L708.398 454.41L710.168 472.26L707.338 476.18H692.468L684.678 486.19L672.998 486.63L666.628 481.84L660.258 479.66L654.948 480.1L653.178 486.19H651.408L641.498 475.31L628.758 474L621.328 478.79L622.388 494.46L620.968 505.34L618.848 509.69L607.878 511L597.608 507.08L595.488 507.95L587.348 518.39L586.998 528.83L584.518 529.27L570.358 517.09L544.158 519.26L540.618 521.44L527.518 544.5L527.168 550.59L529.648 553.2L531.068 559.73L538.508 568.87L536.388 588.88L540.288 597.15L540.638 610.63L545.238 616.72V619.77L531.078 632.38L525.418 635.42L520.818 636.29L515.158 632.38L504.888 632.82L502.058 642.82L497.458 649.34L494.978 659.78L484.358 671.52L484.008 678.48L481.758 681.29L474.008 680.49L470.778 677.32L463.018 678.12L453.318 670.17L450.078 663.82L440.378 661.43L433.258 652.69L419.038 643.17L414.508 632.84L410.628 629.67L409.338 624.9L406.758 622.51L400.288 621.73L395.758 618.54L397.048 616.96H395.108V615.37L399.638 610.6L384.118 609.8L371.188 601.06L369.248 594.71L363.428 589.94L356.958 581.2L359.538 565.31L353.068 545.44L345.958 540.67L340.138 531.93V526.37L344.018 522.4L344.668 517.63L339.498 509.69V504.13L353.078 507.31L368.598 506.51L367.948 503.33L364.068 502.53L362.128 497.76L363.418 496.17L362.768 492.99L356.948 489.81L356.298 485.84L351.128 485.04L349.188 474.7L351.128 460.4L353.718 457.21H360.178L364.698 458.01L370.518 465.96H373.108L373.758 463.58L375.698 464.38L374.408 458.81L375.698 450.07L365.998 450.87L364.058 443.71L364.708 441.33L378.288 442.13L379.578 439.74H375.058L373.768 436.56V431.79L378.298 429.41L377.008 426.22L366.658 427.81L362.128 423.04L363.418 421.45L362.128 419.87L356.308 417.48L344.018 415.9L340.138 407.15L341.428 399.2L347.888 395.23H357.588V386.48L362.108 383.29V376.93L369.868 372.16V369.77H365.348L362.768 367.39L364.058 361.02L360.828 355.46H364.708L365.358 353.07L356.958 349.09L355.668 345.11L356.958 342.73H360.838L362.128 338.74L359.538 334.76L358.248 326.81L341.438 326.01L335.618 329.99H328.498L320.748 326.01L317.508 319.65L321.388 315.67L322.678 308.5L325.918 302.14L330.438 298.16H337.558L344.018 286.22H347.258L347.898 287.82L350.488 287.02L351.778 281.46L337.558 276.69L339.498 266.34L343.378 265.54L342.728 269.52L340.788 271.12L343.368 274.3L355.008 272.72L362.768 276.7H366.648L368.588 274.31L373.118 273.51L382.168 277.49L380.228 273.51L381.518 271.13H389.278L393.798 275.11L395.738 261.58H402.858L404.798 262.38L406.088 267.16H411.898L414.488 259.99L424.838 260.79L425.488 259.21L419.028 256.02L418.378 248.07L421.618 244.89L430.018 248.07L429.368 242.5L431.888 240.85Z" fill="#C7C7C7" stroke="white" stroke-width="2"/>
<path d="M715.099 434.92L719.629 435.72L723.509 441.28L718.339 446.06L718.989 448.44L722.219 447.64L724.799 449.23L728.029 446.85L730.619 449.23L726.739 452.41V457.98H729.329L728.679 469.9L722.859 470.7V473.09L725.449 473.87V477.06L729.329 480.24H732.559L735.149 478.64V471.49L737.089 470.7L747.439 474.67L753.899 480.24L758.429 481.83L757.779 489.78L763.599 492.16L766.189 499.32L775.239 502.49L775.889 505.67L771.359 508.85H766.829L757.139 504.09L756.489 501.7L751.959 499.32H745.499L735.149 504.87L733.859 509.64L747.439 508.06L755.839 511.24L755.189 518.39L750.019 521.57L744.199 520.78L742.909 518.39L737.729 516.01H731.269L735.799 522.36H739.029L740.969 524.75V531.9L735.149 535.07V540.64L733.149 550.58L723.229 556.23L717.219 553.19L715.449 548.84L705.889 547.1L700.579 557.54L697.749 557.98L690.309 567.98L688.189 568.42L680.399 562.33L663.759 557.98H655.259L641.809 551.01L638.979 553.19L636.499 564.07L633.319 565.8L622.689 564.07L613.489 565.8L607.829 564.5L594.019 565.37L574.549 577.12L569.589 576.68L556.489 571.46L549.769 572.77L538.439 568.85L530.999 559.72L529.589 553.19L527.109 550.58L527.459 544.49L540.559 521.43L544.099 519.25L570.299 517.08L584.459 529.26L586.939 528.83L587.289 518.38L595.439 507.94L597.559 507.07L607.829 510.99L618.799 509.68L620.919 505.33L622.339 494.45L621.279 478.78L628.709 474L641.459 475.3L651.369 486.18H653.139L654.909 480.09L660.219 479.65L666.589 481.83L672.959 486.62L684.649 486.18L692.439 476.17H707.299L710.139 472.26L708.369 454.41L703.059 452.67L706.239 446.58L713.319 442.22L715.099 434.92Z" fill="#C7C7C7" stroke="white" stroke-width="2"/>
<path d="M838.611 726.52L839.001 718.01L834.041 712.36L831.561 704.1L819.531 691.49L806.071 686.71L804.301 680.19L802.181 679.32L801.121 672.8L788.731 655.4L778.461 634.96L764.651 629.75L756.161 623.22L749.431 624.09L738.811 629.31L736.331 632.79L731.381 633.23L728.541 622.35L720.401 620.61L716.151 614.96L707.661 611.91L702.351 607.13V604.52L707.301 602.35L697.391 593.21L698.811 588.43L708.011 574.94L716.151 569.72L724.301 568.85L729.611 562.76H733.501L735.271 561.02L737.751 554.06L733.151 550.58L735.151 540.64L739.671 539.84L743.551 534.29H746.781L748.731 531.1H751.321L753.901 526.33H756.491L758.431 523.15L764.241 522.36L768.771 517.59L775.891 519.18L782.351 514.41H786.231L783.651 531.1L781.061 533.49H775.241L773.301 535.07L768.771 540.64V543.81L764.241 546.2L759.721 557.32L755.841 560.51L750.021 562.09L746.141 568.46L740.321 570.04L742.261 574.81H746.141L750.021 570.83H751.961L753.901 566.06L763.601 564.48L768.771 561.3L772.661 563.69L774.591 569.25H776.531L778.481 576.4L779.121 571.63L771.361 551.77L779.771 554.15L785.581 562.89H788.171L785.581 552.56L782.351 549.38L783.651 547L789.461 554.15L801.751 557.32V555.74H798.521L793.341 547.8L796.581 543.03L801.101 542.23L794.631 535.87L795.291 532.69L793.341 527.13L795.291 525.54L801.101 528.72L803.041 533.49L804.991 531.1H810.161L814.691 534.29H817.921L821.801 538.26L828.261 537.46L831.491 539.84H835.371L848.951 554.95L858.651 557.32L864.481 566.86H867.711L870.941 570.04L871.591 576.4L879.351 577.2L887.101 581.96L901.331 600.23L905.211 601.82L909.091 611.36L916.201 616.92L915.561 619.3H908.441L905.861 621.69L898.091 620.1L894.221 624.86H886.461L883.871 627.24V629.63H886.461L887.101 628.04L896.161 627.24L896.801 624.86L901.971 624.07L909.741 628.83L912.971 633.6L918.141 634.4V635.98L910.381 641.54L906.501 647.9L901.331 648.69L895.511 652.66L896.161 654.25H891.631L888.401 657.42L887.751 662.19L890.991 665.38L893.571 666.96L905.211 667.75L903.921 673.32H901.971L901.331 675.69H898.741L897.451 682.05H899.391L901.331 686.02L906.501 688.4L909.741 693.17V696.34L901.971 700.32L896.161 691.58L887.751 689.99L883.871 693.96L886.461 700.32H880.641L878.701 703.49L879.991 709.06L888.401 711.43L889.041 713.02L884.521 720.17L885.161 724.93L889.041 729.7L888.401 736.04L886.461 736.84L885.811 743.2L880.641 742.4L885.811 746.37V749.54H881.281L882.581 757.48H877.411L875.461 754.31L874.821 747.16L870.291 741.6L871.591 731.28L868.351 728.9L859.301 704.29L855.421 700.32L843.141 697.14L842.491 699.52L845.071 707.46H847.661L846.371 711.43L848.951 717.79L845.071 724.93L838.611 726.52Z" fill="#C7C7C7" stroke="white" stroke-width="2"/>
<path d="M733.152 550.58L737.752 554.06L735.272 561.02L733.502 562.76H729.612L724.302 568.85L716.152 569.72L708.012 574.94L698.812 588.43L697.392 593.21L707.302 602.35L702.352 604.52V607.13L707.662 611.91L716.152 614.96L720.402 620.61L728.542 622.35L731.382 633.23L736.332 632.79L738.812 629.31L749.432 624.09L756.162 623.22L764.652 629.75L778.462 634.96L788.732 655.4L801.122 672.8L802.182 679.32L804.302 680.19L806.072 686.71L819.532 691.49L831.562 704.1L834.042 712.36L839.002 718.01L838.612 726.52L836.022 725.73L828.912 716.2L819.212 718.57H811.452L813.392 720.96L810.802 724.93H815.972L817.922 734.46L815.972 736.84L805.632 737.64L808.862 747.16L810.802 747.96V752.73H813.392L814.692 749.54L820.502 747.16L832.782 760.66L838.612 761.45L836.672 756.69L832.782 753.51L830.852 747.96H840.552L848.312 755.1L848.952 761.45L854.772 758.27H856.072V760.66L853.482 761.46L846.372 770.19L841.842 764.63L839.902 777.33L831.492 782.89V785.27L826.322 786.86L823.092 790.03H817.922L813.392 794L792.052 792.41L789.462 790.83L777.182 793.2L766.192 790.83L762.952 787.66L757.142 786.86L746.142 779.71H743.552L742.912 777.33H738.382L736.442 774.94L729.982 774.16L726.102 771.77L713.172 770.98L711.872 772.57H706.052L700.882 770.19L698.942 767.01L695.062 767.8L694.412 770.19L688.592 768.6L687.952 770.98H680.832V768.6H678.252L677.602 767.01L673.072 767.8V766.21H668.552L660.142 757.48L647.852 756.69L640.742 754.31L640.102 752.73L639.452 754.31L636.862 753.51V755.9L634.922 757.48H627.812L601.952 744.78H598.712L596.132 747.16L585.782 736.84L568.322 735.26L561.212 732.87H552.152L544.392 728.9L540.522 720.17V714.61L526.942 712.23L515.952 707.46L513.362 710.64L510.132 705.87L506.902 704.29L507.542 702.7L499.782 703.49L495.902 701.1L492.672 689.99L486.842 689.2L481.672 681.26L483.922 678.45L484.282 671.49L494.902 659.75L497.372 649.31L501.982 642.79L504.812 632.79L515.072 632.35L520.742 636.27L525.342 635.4L531.002 632.35L545.172 619.74V616.7L540.562 610.61L540.212 597.13L536.322 588.86L538.442 568.85L549.772 572.77L556.492 571.46L569.592 576.68L574.552 577.12L594.022 565.37L607.832 564.5L613.492 565.8L622.692 564.07L633.322 565.8L636.502 564.07L638.982 553.19L641.812 551.01L655.262 557.98H663.762L680.402 562.33L688.192 568.42L690.312 567.98L697.752 557.98L700.582 557.54L705.892 547.1L715.452 548.84L717.222 553.19L723.232 556.23L733.152 550.58Z" fill="#C7C7C7" stroke="white" stroke-width="2"/>
<path d="M323.25 194.68L327.13 198.67V201.85L329.07 202.65V207.43L324.55 202.65L318.08 204.23L313.55 199.45V196.27L323.25 194.68ZM366.58 179.57L369.81 183.55L368.52 187.53L373.05 193.1H380.16L392.44 206.63L394.38 211.41L390.5 216.97L389.86 220.95L382.1 220.16L371.11 222.54L370.46 224.14L365.93 223.34L364.64 224.94L355.59 223.34L353 224.94L354.94 225.73L354.29 227.33L339.42 226.53L334.24 228.92H329.07L335.54 220.17L341.36 216.19L342.01 213L341.36 209.82L337.48 211.42L335.54 209.82L334.89 205.84L331.01 204.24L327.78 196.28L329.72 193.1L325.2 189.12L327.14 183.55L335.55 185.15L338.13 181.17H342.66L344.6 186.73L346.54 181.17H350.42L354.95 184.35L359.47 185.15L361.41 189.13V180.37L366.58 179.57ZM128.62 2L132.5 5.18H138.97L144.79 7.56L156.43 6.76L157.72 8.36H164.19V11.55L161.6 12.35V14.75L164.84 17.13L177.77 18.73L179.06 24.3L177.13 28.29L177.77 31.47H181.66L183.6 25.09L184.89 25.89L185.54 24.29H192.66L195.89 27.48H199.77L210.12 38.63L210.77 45.01L214.01 48.99L222.41 51.37L223.7 56.15L231.45 58.55L233.39 62.53L239.85 61.73L246.97 48.99L253.44 48.19L255.38 52.17H257.96L260.55 60.13L263.14 62.53L268.95 63.32L276.07 72.88L281.24 72.08L289 67.31L301.29 68.9L303.23 72.88L304.53 88.02L309.06 89.61L309.71 95.99H313.59L316.82 92.81L325.88 95.99L331.05 105.55L355.62 130.23L359.5 137.4L360.79 146.16L355.62 150.93L345.28 152.53L340.76 158.11L329.76 158.91L323.94 166.07H312.95L309.72 162.89L304.55 162.09H298.73V163.69L293.56 164.48H289.03L285.15 161.3H282.57L279.98 164.48L274.81 162.9L273.51 167.68L278.68 168.47L258.64 183.6H252.82L250.88 182L247.65 183.6L247 187.58L242.47 189.18L228.9 188.38L226.96 193.16L210.79 189.98L204.97 195.54L191.4 200.32L186.23 205.1V207.49H184.29L177.82 199.52H169.42L163.6 188.38H149.38L146.14 185.99H130.63L128.05 183.61H119.64L117.06 180.43L113.18 181.23L109.3 179.63V178.03L100.9 179.63V181.23H97.02L95.73 183.61L89.26 180.43L89.91 178.04L84.74 179.64L80.86 173.27H78.27L76.98 169.29L68.58 160.53V153.37L60.82 146.21L53.06 147L55 145.42L49.18 142.23H38.19L35.6 145.42L32.37 144.62L26.55 146.22V144.62L24.61 145.42L16.21 139.84L12.98 140.64L8.45 135.06V130.28L15.57 122.32L14.28 118.34L15.57 111.18L12.33 101.62L12.98 99.23L16.86 98.43L17.51 95.25L15.57 92.87H12.99L11.7 84.11L20.1 75.35L20.75 71.37L18.16 59.42L9.75999 55.44H4.59L3.93999 53.85L2 31.55L4.59 22.79L11.71 24.38H24.64L26.58 22.79L37.57 23.59L42.74 19.61L46.62 12.43H54.38L62.78 8.45H71.83L82.83 6.07L86.06 9.25H90.58L93.82 2.87H97.7L104.17 6.85H109.99L111.93 2.08H118.4L120.34 3.67L128.62 2Z" fill="#C7C7C7" stroke="white" stroke-width="2"/>
</svg>
