<svg width="616" height="772" viewBox="0 0 616 772" fill="none" xmlns="http://www.w3.org/2000/svg">
<path d="M424.71 448.6L425.02 447.63L425.87 434.5L424.51 425.64L420.93 420.52L416.49 421.54L413.85 423.85L415.9 414.21L414.36 411.15L409.76 406.03L404.48 405.35L402.77 402.79L403.62 395.29L407.2 390.69L406.35 387.29L411.29 383.27L422.55 381.74L424.08 383.1L425.27 385.15L426.47 390.77L429.54 393.84L431.92 392.99L434.65 389.75L441.13 381.22L450.16 380.37L451.7 379.18L452.38 373.38L451.36 366.56L452.89 363.66L457.32 361.11L459.2 354.8H461.25L464.14 355.74L473.35 365.45L475.74 371.59L475.4 375.68L472.33 382.67L474.37 386.59L473.18 388.64L465.51 386.25L462.95 386.59L462.27 392.73L463.29 395.29L468.07 399.21L474.71 401.94L478.47 400.06L482.05 397.85L485.63 395.97L491.59 398.36L493.81 400.92L493.3 404.5L491.08 407.91L492.1 411.66L494.49 417.28L492.79 420.69L491.76 417.79L491.42 416.09H489.89L489.38 414.9L490.57 414.38L489.21 413.19L480 412.34L479.15 414.04L478.12 416.43V420.35L476.59 423.08L478.98 427.68L480.34 429.39L482.56 435.18L465 434.67L457.5 441.15L450.85 442.85L445.9 447.8L445.73 451.21L447.78 455.47L447.1 459.9L441.47 459.73L439.08 457.52L437.55 454.79L433.12 449.5L428.34 447.63L424.71 448.6Z" fill="#C7C7C7" stroke="white" stroke-width="2"/>
<path d="M198.57 187.23L198.61 187.17L199.86 185.73L199.8 185.22L212.71 188.23L213 186.31L209.93 183.81L210.6 182.57L214.15 178.54L219.9 178.25L220.44 177.39L222.21 181.22L224.41 181.51L229.97 185.64L232.95 184.58L237.64 178.64L239.08 178.92L240.71 183.62L242.34 184.87L242.54 189.47L238.7 193.02L242.34 196.28L241.58 200.12L236.88 199.92L234.1 197.72L231.03 199.83L222.49 200.79L220.77 201.55L212.33 202.42L210.41 201.46L209.74 199.64L212.81 196.76V195.32L209.07 192.64L199.29 190.62L198.57 187.23Z" fill="#C7C7C7" stroke="white" stroke-width="2"/>
<path d="M495.39 433.38L493.82 435.94L482.22 434.09L480.34 429.39L478.98 427.68L476.59 423.08L478.12 420.35V416.43L479.15 414.04L480 412.34L489.21 413.19L490.57 414.38L489.38 414.9L489.89 416.09H491.42L491.76 417.79L492.79 420.69L492.97 429.6L494.68 433.2L495.39 433.38Z" fill="#C7C7C7" stroke="white" stroke-width="2"/>
<path d="M91.29 32.08L92.68 31.48L101.44 35.83L98.29 44.45L108.35 51.44L109.44 54.72L107.04 62.59L109.88 65.65L109.22 67.62L105.72 70.9L101.57 70.24L99.6 74.18L94.8 73.74L89.11 69.59L88.68 66.96L90.86 62.59L89.77 61.5L86.93 60.63L83.43 62.37L82.56 64.78L78.62 67.4L77.75 84.23L68.09 95.6L64.3 98.14L61.22 96.68L57.58 92.71L61.08 91.07L63.04 91.8L64.06 89.98L57.13 87.82L57.47 85.09L55.88 81.11L52.92 79.07L51.66 79.54L51.9 83.04L50.99 84.41L48.55 84.44L46.67 81.45V77.36L40.31 72.36L36.9 71.56L36.78 69.52L33.37 66.79L28.14 63.83H25.87L22.97 67.15L21.17 67.38L20.3 62.81L18.14 63.15L16.75 66.63L15.19 66.68L14.05 62.58L12.02 64.14L12.12 67.02L10.87 68.04L8.48 64.29L3.85 63.28L2 57.58L6.32 51.22L10.87 50.54V42.81L13.59 41.33L14.96 41.78L21.89 52.81L29.17 52.7L30.42 50.88L29.28 49.63L29.74 43.72L28.14 37.35L25.3 32.24L35.19 31.33L37.58 24.51L39.62 24.96L44.86 30.44L55.88 38.26L58.27 38.37L64.18 33.6L68.84 37.24L70.77 36.33L68.72 25.19L71.34 23.48L78.38 26.21L83.17 30.23L91.29 32.08Z" fill="#C7C7C7" stroke="white" stroke-width="2"/>
<path d="M373.188 529.29L371.308 526.39L371.998 523.84L377.448 521.96L382.738 518.38L394.328 506.62L397.228 505.93L404.218 508.32L408.828 514.43L409.418 517.36L413.338 518.55L411.368 522.23L405.838 522.76L398.588 527.07L400.978 539.86L404.558 543.9L407.458 553.5L405.758 561.29L401.148 564.24L399.958 566.46L399.448 568.33L401.358 570.47L390.238 567.65L384.098 562.36L378.818 564.41L377.448 567.65L369.608 566.46L362.788 568.84L359.718 568.33L359.888 564.92L356.648 557.42L359.888 556.57L365.858 557.42L382.058 552.99L383.758 552.31L386.148 546.17L385.118 542.59L377.108 537.3L374.898 531.85L373.048 531.18L373.188 529.29Z" fill="#C7C7C7" stroke="white" stroke-width="2"/>
<path d="M329.318 735.94V738.5L318.378 741.21L315.138 743.43L313.608 742.58L312.248 737.13L311.738 725.03L312.758 722.98L320.608 721.28L324.778 723.87L329.318 735.94ZM320.078 616.49L319.738 620.24H319.808L319.228 621.26L311.898 622.45L310.018 624.16L309.508 632.85L307.118 638.31L308.138 640.19L308.988 656.39L313.928 661.16L315.118 663.89L313.068 666.62L311.878 667.64L310.348 667.47L301.308 667.3L299.948 668.49L301.998 679.4L303.878 681.79L312.748 683.5L318.038 690.66L320.768 687.42L323.498 689.47V694.75L324.858 697.65L328.438 700.55L327.928 704.13L326.228 704.64L325.548 707.09L321.798 707.45L316.348 708.99L310.718 708.65L305.438 706.43L298.788 705.92L292.138 700.81L289.748 700.98L288.388 702.34L288.558 717.68L290.948 722.8V732.52L286.348 737.98V741.56L288.908 744.63L290.438 746.85L290.268 749.58L288.218 750.26L286.168 751.79V753.77L282.338 754.09L275.858 763.47L275.178 770.29L271.358 769.19L269.508 767.4L267.798 762.56L267.938 753.31L264.378 750.89L264.518 745.49L258.398 744.64L254.418 739.24L250.718 737.82L253.278 732.7L255.408 732.56L257.398 729.43L263.368 729L265.788 726.44L264.508 720.32L266.928 715.34L265.508 705.81L262.518 699.69L263.228 693.43L259.818 691.58L255.698 680.56L256.548 661.92L253.848 651.96L254.698 647.98L252.988 640.87L249.008 634.75L250.578 631.48L251.008 622.95L249.868 619.96L253.138 615.69L252.958 613.72L262.468 611.24L270.308 611.75L275.598 614.14L277.478 612.78L283.278 612.27L285.838 615.17L289.928 619.26L291.808 619.6L301.528 617.55L307.158 618.91L308.868 610.56L313.638 609.54L315.858 607.84L317.708 606.64L319.948 607.84L320.078 616.49Z" fill="#C7C7C7" stroke="white" stroke-width="2"/>
<path d="M322.899 279.08L323.319 294.62L331.849 297.69L333.719 299.73L332.359 301.27L329.799 302.63L327.929 308.26L321.279 309.62L317.359 315.08L308.829 318.66L308.149 320.53L313.779 322.41L315.989 329.91L314.289 336.73L308.999 337.24L305.759 342.01L293.659 347.81L284.109 348.83L281.719 347.31L282.239 346.62L270.979 341.5L265.019 341.33L260.419 336.22H256.149L251.039 333.66L249.329 332.64L249.159 328.2L242.859 324.17L250.189 316.44L256.489 304.51L269.279 293.94L270.299 280.81L271.129 278.58L274.479 279.27L289.139 280.98L294.599 284.22L299.199 284.73L306.699 282L320.169 279.96L322.899 279.08Z" fill="#C7C7C7" stroke="white" stroke-width="2"/>
<path d="M354.522 449.78L360.572 449.84L365.862 451.89L368.762 453.94L370.292 459.39L373.022 462.12L377.112 461.95L379.162 460.76V455.13L380.692 451.38L383.252 448.65L385.642 447.97L391.772 451.04L393.992 453.42L396.042 458.71L394.672 465.53L395.262 465.51L395.522 468.77L400.642 477.63V480.53L402.342 485.65H407.122L413.432 480.19H416.492L418.882 481.04L419.732 483.43L419.902 490.42L418.372 495.53L417.522 508.32L418.882 511.04L416.342 511.34L416.262 514.05L413.342 518.55L409.422 517.36L408.832 514.43L404.222 508.32L397.232 505.93L394.332 506.62L382.742 518.38L377.452 521.96L372.002 523.84L371.312 526.39L373.192 529.29L373.022 531.51L369.782 532.53L365.522 531.51L359.382 527.76L343.702 523.84L337.392 519.06L331.422 521.62L324.172 517.7L325.452 516.85L331.422 509.34L330.912 501.84L334.152 497.41L335.002 494L332.782 470.98H333.812H336.712L339.602 467.23L340.122 461.44L339.092 459.56L341.992 452.4L345.402 452.06L346.772 455.47L349.152 455.3L349.832 453.25L352.732 451.21L354.522 449.78Z" fill="#C7C7C7" stroke="white" stroke-width="2"/>
<path d="M452.89 363.66L451.36 366.56L452.38 373.38L451.7 379.18L450.17 380.37L441.14 381.22L434.66 389.74L431.93 392.98L429.54 393.83L426.47 390.76L425.28 385.13L424.09 383.08L422.56 381.72L414.89 382.4L411.31 383.25L406.37 387.27L403.81 387.43L402.11 386.92L401.77 384.02L403.13 377.37L409.44 377.03L412.85 374.47L424.78 375.49L428.02 370.72L428.19 368.16L426.92 366.89L429.16 362.75L439.68 354.48L444.04 347.87L451.72 344.39L456.83 345.75L462.12 353.08L461.27 354.79H459.2L457.33 361.1L452.89 363.66ZM408.57 310.2V312.1L412.66 316.02L412.83 317.56L415.56 319.78H418.97L419.31 322.34L417.44 324.9L429.03 326.95L434.54 325.97L440.11 322.56V322.61L443.18 326.02L449.49 328.41L443.87 330.33L440.07 333.48L436.87 341.96L432.44 347.42L425.62 348.95L419.48 357.99L418.97 360.55L417.27 361.06L415.57 362.08L411.48 364.64L408.75 363.79L402.1 365.33L395.45 364.99L392.72 363.29L391.19 359.71L390.85 352.89L389.49 351.19L384.72 351.02L381.14 352.73L379.27 355.97L380.46 356.99L379.95 358.87L377.9 359.38L376.03 355.8L365.73 352.56L369.38 348.47H371.09L371.77 344.21L369.79 340.41L370.92 339.6V324.09L372.45 321.02L373.81 319.66L380.46 321.54L386.6 319.32L391.72 315.74L396.15 314.38L400.75 312.33L408.57 310.2Z" fill="#C7C7C7" stroke="white" stroke-width="2"/>
<path d="M482.218 434.09L493.818 435.94L495.388 433.38L496.048 433.54H497.928L498.098 436.11L501.868 439.36L504.428 439.87L504.768 438.16L509.398 440.05L511.618 439.36L512.818 429.6L514.188 428.75H516.758L518.468 430.63L517.608 433.03L518.808 433.88L526.168 433.54L526.678 441.93L532.498 454.59L528.218 463.15L525.998 464.52L525.708 467.67L525.138 467.77L523.428 473.08L518.128 474.28L514.868 478.39L505.968 478.56L497.928 485.57L492.108 483.35L482.518 490.88L487.318 496.01L478.758 501.15L479.268 505.77L487.328 514.97L485.278 515.14L480.238 521.63L478.528 531.05L475.398 531.85L472.328 526.9L471.818 522.13L469.768 518.38L467.768 516.92L465.168 517.18L461.928 520.6L461.248 523.15L460.898 526.05L463.458 533.38L462.758 535.56L455.338 536.39L452.718 539.35L449.818 546H445.048L442.658 543.27L443.518 537.64L448.118 531L447.098 526.73L449.818 512.07L448.798 509.69L450.478 509.18L449.308 502.35L446.408 498.6L440.788 499.29L438.018 501.63L436.078 508.98L420.848 509.66L418.878 511.04L417.518 508.32L418.368 495.53L419.898 490.42L419.728 483.43L418.878 481.04L416.488 480.19H413.428L407.118 485.65H402.338L400.638 480.53V477.63L395.518 468.77L395.258 465.51L404.898 466.21L407.798 463.31L413.598 459.9L419.388 456.15L424.168 450.36L424.708 448.6L428.338 447.63L433.118 449.5L437.548 454.79L439.078 457.52L441.468 459.73L447.098 459.9L447.778 455.47L445.728 451.21L445.898 447.8L450.848 442.85L457.498 441.15L464.998 434.67L482.558 435.18L482.218 434.09Z" fill="#C7C7C7" stroke="white" stroke-width="2"/>
<path d="M252.949 613.69L256.339 605.56L256.759 595.43L257.939 594.04L257.719 590.09L253.879 585.4L253.129 580.7L256.549 577.82L255.479 574.73L256.119 573.02L260.069 569.29L264.869 567.48L265.939 563.31L268.709 561.07L264.869 552.75L269.349 546.88L270.199 543.36L272.449 540.7L272.559 537.77L288.629 537.3L293.919 542.42L302.439 544.29L305.169 542.59L305.849 540.71V538.5L303.799 536.96L304.829 535.77L308.579 533.04L312.499 532.7L314.369 537.3L310.959 540.88L311.649 542.93L318.639 549.41L320.849 549.75H321.339L318.209 556.14V560.57L328.779 566.88V576.94L327.589 586.66L326.049 588.87L318.209 587.34L313.779 591.43L317.869 602.85L317.359 606.43L317.669 606.6L315.819 607.8L313.609 609.5L308.829 610.53L307.129 618.88L301.499 617.52L291.779 619.56L289.909 619.22L285.819 615.13L283.259 612.23L277.459 612.74L275.589 614.11L270.299 611.72L262.459 611.21L252.949 613.69Z" fill="#C7C7C7" stroke="white" stroke-width="2"/>
<path d="M419.65 361.36L418.7 360.59L417.26 361.02L415.56 362.04L411.46 364.6L408.74 363.75L402.09 365.28L395.44 364.94L392.71 363.24L391.18 359.66L390.84 352.84L389.47 351.13L384.7 350.96L381.12 352.67L379.24 355.91L380.44 356.93L379.93 358.81L377.88 359.32L376 355.74L373.45 355.57L367.99 352.5H365.7L365.09 356.93L363.05 361.19L353.5 362.9L348.04 366.48L346.34 368.69L346 372.44L348.21 377.39L348.1 377.58L363.05 390.26L364.07 395.37L366.63 397.08L374.64 398.61L379.75 402.36L381.63 414.3L385.89 420.1L394.25 420.61L403.45 427.08L409.08 428.45L413.17 427.43L413.85 423.85L415.9 414.21L414.36 411.15L409.76 406.03L404.48 405.35L402.77 402.79L403.62 395.29L407.2 390.69L406.35 387.28L402.09 386.94L403.11 377.39L409.42 377.05L412.83 374.49L424.76 375.51L428 370.74L428.17 368.18L426.13 366.14L419.65 361.36Z" fill="#C7C7C7" stroke="white" stroke-width="2"/>
<path d="M143.711 79.26L144.851 78.55L147.041 69.81L145.291 63.69L145.941 60.84L146.601 58.44L152.721 52.32L151.191 46.85L152.501 45.11L157.751 43.36L162.121 45.76L170.641 44.01L173.481 43.14L181.351 37.24L187.031 38.11L191.191 43.14L196.001 43.79L205.181 32.87L217.631 32.01L220.301 41.1L211.621 47.95L210.531 51.88L218.621 55.38L223.651 60.19L217.961 66.53H214.901L211.401 68.27L207.031 70.24L192.171 78.55L190.641 84.67L185.391 91.66L184.961 95.16L172.061 104.34L172.281 106.31L182.551 115.92L181.901 118.55L179.931 120.08H176.211H174.471L172.721 118.55V116.58L165.291 117.45L156.541 111.33L153.351 110.9L153.371 110.46L150.531 107.84L151.411 103.9L150.531 101.94L150.751 87.95L148.561 84.67L144.191 82.48L143.711 79.26Z" fill="#C7C7C7" stroke="white" stroke-width="2"/>
<path d="M239.05 132.97L243.54 144.89L243.1 149.48L240.69 151.88L239.6 155.16V157.34L232.39 170.9L228.45 168.71L228.23 166.31L223.43 169.15L221.24 172.43L218.84 175.05L216.21 171.77L211.84 171.33L205.72 173.08L202.88 172.43L186.49 153.19L181.9 151.22L174.9 150.57L170.97 147.07V139.42L167.91 131.77L172.5 130.02L174.25 127.4L174.03 123.46L175.56 120.08H176.21H179.93L181.9 118.55L182.55 115.92L172.28 106.31L172.06 104.34L184.96 95.16L185.39 91.66L190.64 84.67L192.17 78.55L207.03 70.24L209.84 68.98L212.28 70.24L216.21 79.42L228.23 80.52L243.1 95.16L249.87 105.87L249.22 112.86L246.81 114.18L245.72 118.55H240.69L239.6 122.04L235.01 125.54L238.29 132.97H239.05Z" fill="#C7C7C7" stroke="white" stroke-width="2"/>
<path d="M451.698 344.4L444.018 347.88L439.658 354.49L429.138 362.76L426.898 366.9L419.648 361.36L418.708 360.59L418.968 360.51L419.478 357.95L425.618 348.91L432.438 347.38L436.868 341.92L440.068 333.44L443.868 330.29L449.488 328.37L456.648 327.52L457.668 325.47L462.438 323.6L468.238 318.83L470.288 318.15L471.478 319.34L468.408 325.31L463.128 327.53L459.718 332.82V335.04L455.798 336.75L451.538 340.67L450.518 343.4L451.698 344.4ZM440.278 298.88L445.388 299.05L447.948 296.83L461.248 293.93L464.148 292.74L467.558 288.84L468.878 292.1L468.748 293.26L451.018 301.27L449.998 304L443.858 305.88L440.108 312.02L440.278 318.67L440.108 322.54L434.538 325.95L429.028 326.93L417.438 324.89L419.318 322.33L418.978 319.77H415.568L412.838 317.55L412.668 316.02L408.578 312.1V310.2L414.038 307.49L415.058 303.57L409.778 294.71L410.288 291.3H417.108L417.278 287.72L420.858 284.14L422.388 283.8L425.568 282.78L430.398 286.28L435.858 291.74L438.248 298.05L440.278 298.88Z" fill="#C7C7C7" stroke="white" stroke-width="2"/>
<path d="M108.48 51.85L112.28 42.92L119.28 40.52L121.68 37.89L125.61 38.11L126.27 45.76L124.74 47.95L123.87 54.07L126.27 63.47L136.98 75.05L143.54 78.11L144.19 82.48L148.56 84.67L150.75 87.95L150.53 101.94L151.41 103.9L150.53 107.84L153.37 110.46L153.15 114.18L147.25 121.17L138.29 126.85H135.67L132.39 124.89L128.67 125.32L126.27 130.57L123.21 131.44L117.31 126.85L111.84 127.07L107.25 130.13L104.19 141.93L100.7 146.09L95.0098 147.62L94.6398 145.45L90.2999 141.62L93.1599 136.92L92.5898 135.22L86.6298 132.82L86.3398 131.24L88.4998 129.19L84.7898 127.67L83.6098 129.53L80.4498 128.79L80.3198 127.15L83.3898 123.85L82.8198 122.37L77.3798 121.41L76.6398 117.27L70.4799 112.62L69.6298 107.14L71.5598 102.71L71.1098 99.3L68.0898 95.6L77.7498 84.23L78.6199 67.4L82.5598 64.78L83.4298 62.37L86.9298 60.63L89.7698 61.5L90.8598 62.59L88.6798 66.96L89.1098 69.59L94.7999 73.74L99.5998 74.18L101.57 70.24L105.72 70.9L109.22 67.62L109.88 65.65L107.04 62.59L109.44 54.72L108.48 51.85Z" fill="#C7C7C7" stroke="white" stroke-width="2"/>
<path d="M166.789 295.88L161.669 293.77L161.999 290.65L165.119 285.38L164.629 283.74L161.009 281.93L163.639 272.22L159.859 270.08L157.719 266.47L154.759 268.11L145.219 262.52L144.069 260.38V254.79L141.099 252.65L137.719 241.54L147.979 232.24L156.129 227.26L159.199 226.87L164.669 229.94L167.739 229.46L176.559 210.47L180.389 205.29L182.019 205.2L187.389 209.51L191.419 207.6L195.929 199.83L197.369 188.9L198.569 187.23L199.289 190.62L209.069 192.64L212.809 195.32V196.76L209.739 199.64L210.409 201.46L212.329 202.42L220.769 201.55L221.669 201.15L224.699 203.24V205.8L220.439 211.25L221.459 214.15L228.279 223.7L234.079 227.45L234.249 230L231.519 232.73L226.399 234.27L225.209 243.98L216.689 250.12V253.19L217.879 253.87H230.669L231.349 256.94L228.449 265.12L225.719 267L223.159 266.66L218.559 264.78L215.659 265.29L214.299 266.83V274.16L211.399 277.91L200.659 277.23L193.329 278.25L188.559 282.17L179.859 284.73L173.379 294.79L166.789 295.88Z" fill="#C7C7C7" stroke="white" stroke-width="2"/>
<path d="M241.791 132.97L261.681 133.19L274.141 136.91L281.351 131.44L285.281 131.01L292.931 134.5L309.761 135.38L315.661 128.16L328.121 119.64L329.431 116.14L326.811 112.65L321.811 109.78L323.681 108.45L325.171 97.91L328.951 97.03L334.061 98.73L336.961 104.19L346.681 105.21L348.731 106.91L349.071 109.64L343.611 113.22L340.031 110.84L339.011 115.78L336.111 119.19L329.461 123.62L330.141 125.84L334.751 130.27H337.131L338.841 129.42L343.101 121.75L348.211 122.43L353.671 124.99L361.341 134.19L363.051 134.53L363.391 137.09L362.711 138.79L360.491 139.65L359.981 145.27L353.501 150.39V158.23L344.811 160.96L343.441 162.49L343.611 167.27L339.351 168.8L337.131 167.44L338.671 164.71L338.331 161.3L335.261 157.89L331.341 156.35L324.691 157.72L314.801 163.69L312.581 172.38L308.831 174.6V180.73L310.881 181.42L316.161 179.37L320.261 181.42L326.561 198.64L326.051 201.19L323.661 203.41L318.891 205.97L317.021 211.08L313.611 210.91L308.321 208.01L306.791 208.18L303.661 211.96L301.931 210.23L283.351 197.44L270.051 186.53L239.601 157.17V155.16L240.691 151.88L243.101 149.48L243.541 144.89L239.051 132.97H241.791Z" fill="#C7C7C7" stroke="white" stroke-width="2"/>
<path d="M298.772 705.91L305.422 706.42L310.712 708.64L316.342 708.98L321.802 707.45L324.072 707.55L322.222 717L319.822 718.05L320.612 721.27L312.762 722.98L311.742 725.03L312.252 737.13L313.612 742.59L315.152 743.44L318.392 741.22L329.342 738.51L328.912 740.08L322.652 743.21L322.912 747.53L324.792 747.96L325.642 750.18L325.812 754.44L316.602 758.87L311.832 757.68L307.402 758.53L293.932 753.59L286.172 753.78V751.8L288.222 750.27L290.272 749.59L290.442 746.86L288.912 744.64L286.352 741.57V737.99L290.952 732.54V722.82L288.562 717.71L288.392 702.37L292.142 700.84L298.772 705.91ZM364.382 667.3L366.372 671.31L366.202 675.57L362.792 678.3L353.932 681.71L352.612 683.69L350.612 682.3L341.232 686.39L339.532 687.07L335.612 687.75L327.092 680.93L326.242 678.2L326.752 674.28L329.142 672.92L334.602 673.43L349.772 669L364.382 667.3ZM320.432 667.3L319.412 671.39L317.192 673.1L314.122 674.46L312.252 673.95L310.202 669.35L310.452 667.48L311.912 667.64L313.102 666.62L314.512 664.75H316.512L320.432 667.3ZM324.172 517.7L331.432 521.62L337.402 519.06L343.712 523.83L359.402 527.75L365.542 531.5L369.802 532.52L373.042 531.5L373.072 531.18L374.922 531.85L377.142 537.31L385.152 542.6L386.172 546.18L383.782 552.32L382.082 553L365.882 557.43L359.912 556.58L356.672 557.43L359.912 564.93L359.742 568.34L362.812 568.85L369.632 566.46L377.472 567.65L378.832 564.41L384.122 562.36L390.262 567.65L401.382 570.47L401.942 573.55L408.852 578.26L407.562 579.5L396.652 590.24L392.732 596.89L393.072 601.83L395.462 612.4L391.202 613.93L382.852 620.07L381.832 627.57L382.852 628.76L386.602 628.25L387.792 634.39L388.632 640.6L372.612 644.04L369.892 637.13L365.462 630.82L363.412 628.09L358.982 626.22L354.042 628.27L353.022 631.68L357.622 645.15V647.2L356.092 647.88L345.692 648.39L335.122 655.89L331.372 656.06L326.942 651.97L322.002 650.09L321.322 645.15L323.882 644.3H325.412L330.012 644.47L331.032 642.08V639.52L329.162 637.99L320.302 635.26V633.39L324.732 631.17L326.782 626.74L327.122 624.01L325.072 618.73L323.372 618.22L321.152 620.27H319.792L320.132 616.52L319.962 607.83L317.402 606.47L317.912 602.89L313.822 591.47L318.252 587.38L326.092 588.91L327.632 586.69L328.822 576.97V566.91L318.252 560.6V556.17L321.382 549.78H323.792L327.202 549.44L331.972 546.88L332.992 543.3L331.462 536.31L322.772 526.25L321.752 520.28L323.452 518.24L324.172 517.7Z" fill="#C7C7C7" stroke="white" stroke-width="2"/>
<path d="M137.721 241.54L132.061 238.83L127.621 229.46L116.271 219.43L116.431 215.81L113.151 212.35L113.311 210.38L109.691 207.25L110.841 205.45L114.631 204.62L115.611 202.81L114.261 195.47L115.571 193.98L124.291 181.8L125.921 175.18L127.751 174.51L132.251 177.48L134.551 177.2L144.431 169.24L146.931 168.47L172.151 176.53L177.231 176.33L182.501 172.4L189.601 170.68L199.671 184.1L199.861 185.73L198.611 187.17L197.371 188.9L195.931 199.83L191.421 207.6L187.391 209.51L182.021 205.2L180.391 205.29L176.561 210.47L167.741 229.46L164.671 229.94L159.201 226.87L156.131 227.26L147.981 232.24L137.721 241.54Z" fill="#C7C7C7" stroke="white" stroke-width="2"/>
<path d="M288.2 369.03L292.64 369.21L299.97 374.66L305.08 371.59L309.17 373.47L314.29 370.23L316.85 372.1L320.91 372.95L331.76 402.62L335.17 402.96L346.6 416.77L348.98 417.28L351.54 415.07L354.1 415.24L360.75 426.32L361.43 430.75L356.99 436.21V440.47L359.72 440.98L359.55 444.9L355.29 449.16L352.73 451.21L349.83 453.25L349.15 455.3L346.77 455.47L345.4 452.06L341.99 452.4L339.09 459.56L340.12 461.44L339.6 467.23L336.71 470.98H333.81H327.33L317.1 471.67L308.41 462.97L306.7 462.63L302.44 466.21L296.64 467.92L296.47 470.3L299.37 474.05L299.03 483.77L296.98 486.84L289.31 487.01L286.41 485.31L282.32 478.32L278.53 478.49L274.7 480.37L268.77 462.69L264.99 455.45L263.35 442.95L257.59 436.04L257.75 433.25L254.79 429.96L254.46 423.87L252.82 420.91L253.31 413.68L251.5 411.7L254.63 409.23L254.73 406.2L255.81 405.6L262.97 410.55L265.53 408.16L272.86 409.52L276.78 408.84L275.76 389.75L280.7 386.51L287.52 385.49L288.2 376.96L286.67 372.53L288.03 369.29L288.2 369.03Z" fill="#C7C7C7" stroke="white" stroke-width="2"/>
<path d="M413.85 423.85L416.49 421.54L420.93 420.52L424.51 425.64L425.87 434.5L425.02 447.63L424.17 450.36L419.39 456.15L413.6 459.9L407.8 463.31L404.9 466.21L394.67 465.53L396.04 458.71L393.99 453.42L391.77 451.04L385.64 447.97L383.25 448.65L380.69 451.38L379.16 455.13V460.76L377.11 461.95L373.02 462.12L370.29 459.39L368.76 453.94L365.86 451.89L360.57 449.84L354.52 449.78L355.29 449.16L359.55 444.9L359.72 440.98L356.99 440.47V436.21L361.43 430.75L360.75 426.32L354.1 415.24L351.54 415.07L348.98 417.28L346.6 416.77L335.17 402.96L331.76 402.62L320.91 372.95L320.94 372.96L322.64 370.74L324.35 370.91L326.05 376.2L328.1 377.39L333.89 385.4L338.5 387.96H341.4L342.08 386.94L340.54 385.06L342.08 379.6L347.19 379.09L348.1 377.58L363.05 390.26L364.07 395.37L366.63 397.08L374.64 398.61L379.75 402.36L381.63 414.3L385.89 420.1L394.25 420.61L403.45 427.08L409.08 428.45L413.17 427.43L413.85 423.85Z" fill="#C7C7C7" stroke="white" stroke-width="2"/>
<path d="M272.56 537.77L272.23 535.31L276.34 530.21L276.18 527.41L274.53 526.26L275.35 520.34L268.77 511.13V509.15L272.39 501.92L271.74 493.53L275.52 486.13L274.7 480.37L278.53 478.49L282.32 478.32L286.41 485.31L289.31 487.01L296.98 486.84L299.03 483.77L299.37 474.05L296.47 470.3L296.64 467.92L302.44 466.21L306.7 462.63L308.41 462.97L317.1 471.67L327.33 470.98H332.78L335 494L334.15 497.41L330.91 501.84L331.42 509.34L325.45 516.85L323.41 518.21L321.7 520.25L322.73 526.22L331.42 536.28L332.96 543.27L331.93 546.85L327.16 549.41L323.75 549.75H320.85L318.64 549.41L311.65 542.93L310.96 540.88L314.37 537.3L312.5 532.7L308.58 533.04L304.83 535.77L303.8 536.96L305.85 538.5V540.71L305.17 542.59L302.44 544.29L293.92 542.42L288.63 537.3L272.56 537.77Z" fill="#C7C7C7" stroke="white" stroke-width="2"/>
<path d="M242.861 324.17L249.161 328.2L249.331 332.64L251.041 333.66L256.151 336.22H260.421L265.021 341.33L270.981 341.5L282.241 346.62L281.211 347.98L279.851 353.78L275.591 353.61L275.931 355.99L281.041 360.77L287.181 363.15L289.401 367.24L288.031 369.29L286.671 372.53L288.201 376.96L287.521 385.49L280.701 386.51L275.761 389.75L276.781 408.84L272.861 409.52L265.531 408.16L262.971 410.55L255.811 405.6L254.631 406.26V409.23L251.501 411.7L252.331 409.56L250.681 404.79L250.351 397.72L248.381 393.94L248.871 391.14L243.901 385.94L244.221 377.81L240.471 371.51L228.191 362.13L226.321 356.5L225.641 349.17L229.221 345.42L231.431 340.82L228.881 332.98L230.071 330.59L242.861 324.17Z" fill="#C7C7C7" stroke="white" stroke-width="2"/>
<path d="M161.819 10.41L162.269 12.57L167.729 13.14L175.229 18.48L178.179 18.82L186.879 13.13L194.439 13.14L198.909 14.62L213.279 24.92L216.379 28.03L217.629 32.01L205.179 32.87L195.999 43.79L191.189 43.14L187.029 38.11L181.349 37.24L173.479 43.14L170.639 44.01L162.119 45.76L157.749 43.36L152.499 45.11L151.189 46.85L152.719 52.32L146.599 58.44L145.939 60.84L145.289 63.69L147.039 69.81L144.849 78.55L143.709 79.26L143.539 78.11L136.979 75.05L126.269 63.47L123.869 54.07L124.739 47.95L126.269 45.76L125.609 38.11L121.679 37.89L119.279 40.52L112.279 42.92L108.479 51.85L108.349 51.44L98.2891 44.45L101.439 35.83L104.979 36.1L107.259 33.83L113.279 20.19L117.029 15.64L121.119 13.03L123.849 12.23L130.329 14.28L133.169 19.62L134.649 19.51L136.919 16.55L139.079 16.21L145.109 10.87L150.109 11.09L153.629 8.93L157.269 2.34L159.659 2L164.199 5.18L161.819 10.41Z" fill="#C7C7C7" stroke="white" stroke-width="2"/>
<path d="M425.558 282.77L422.378 283.79L420.838 284.13L417.258 287.71L417.088 291.29H410.268L409.588 293L415.038 303.57L414.018 307.49L409.758 310.05L400.718 312.26L396.118 314.31L391.688 315.67L386.568 319.25L380.438 321.47L373.788 319.59L372.418 320.96L370.888 324.03V339.54L369.698 340.39L360.488 337.5L359.808 331.87L357.588 328.29H354.518L348.898 320.45L348.728 318.23L343.778 314.48L341.908 307.66L343.098 306.64L341.908 305.1L334.228 305.61L330.308 302.36L332.358 301.27L333.718 299.73L331.848 297.69L323.318 294.62L322.898 279.08L324.428 278.59L330.228 274.67V272.11L328.518 270.07L328.858 267.17L332.788 261.37L345.908 252.51L355.798 250.46L356.988 249.27L356.138 242.79L354.778 238.87L358.018 232.22L358.608 231.71L360.658 231.88L369.348 243.98L374.978 247.05L382.818 246.03L393.558 237.85L400.038 241.26L404.298 246.54L403.788 253.53L411.638 254.55L413.648 254.71L417.428 261.37L423.568 260.52L427.658 266.49L429.878 267.17L431.238 269.21L429.368 274.84L424.928 279.96L425.558 282.77Z" fill="#C7C7C7" stroke="white" stroke-width="2"/>
<path d="M343.23 209.43L344.81 208.01L349.75 200.51L351.79 199.32H356.06L363.22 202.04L369.52 201.19L370.21 198.98L367.65 190.45L369.35 187.72L372.25 186.53H381.29L391.69 176.81L392.2 173.06L395.61 169.31L398.34 163.69L401.75 162.15L404.48 162.83L406.86 164.54L409.59 169.31L410.1 174.94L407.37 182.1L407.03 189.77L408.4 199.32L407.54 213.98L408.74 218.92L407.71 221.48V235.46L413.85 240.92V254.72L411.64 254.55L403.79 253.53L404.3 246.54L400.04 241.26L393.56 237.85L382.82 246.03L374.98 247.05L369.35 243.98L360.66 231.88L358.61 231.71L357.76 229.83L342.93 217.39L339.52 215.85L338.84 214.32L341.23 212.96L343.23 209.43Z" fill="#C7C7C7" stroke="white" stroke-width="2"/>
<path d="M114.461 196.25L106.071 187.27L102.621 179.7L106.731 178.22L105.741 174.28H102.951L100.641 172.47L102.451 169.51L99.9912 164.74L101.301 158.49L99.3313 156.51L94.3913 156.02L90.2812 153.88L92.0912 150.1L95.0113 147.62L100.701 146.09L104.191 141.93L107.251 130.13L111.841 127.07L117.311 126.85L123.211 131.44L126.271 130.57L128.671 125.32L132.391 124.89L135.671 126.85H138.291L147.251 121.17L153.151 114.18L153.351 110.9L156.541 111.33L165.291 117.45L172.721 116.58V118.55L174.471 120.08H175.561L174.031 123.46L174.251 127.4L172.501 130.02L167.911 131.77L170.971 139.42V147.07L174.901 150.57L181.901 151.22L186.491 153.19L202.881 172.43L205.721 173.08L211.841 171.33L216.211 171.77L218.841 175.05L219.021 174.85L220.671 177L219.901 178.25L214.151 178.54L210.601 182.57L209.931 183.81L213.001 186.31L212.711 188.23L199.801 185.22L199.671 184.1L189.601 170.68L182.501 172.4L177.231 176.33L172.151 176.53L146.931 168.47L144.431 169.24L134.551 177.2L132.251 177.48L127.751 174.51L125.921 175.18L124.291 181.8L115.571 193.98L114.461 196.25Z" fill="#C7C7C7" stroke="white" stroke-width="2"/>
<path d="M325.518 201.68L326.048 201.19L326.558 198.64L320.258 181.42L316.158 179.37L310.878 181.42L308.828 180.73V174.6L312.578 172.38L314.798 163.69L324.688 157.72L331.338 156.35L335.258 157.89L338.328 161.3L338.668 164.71L337.128 167.44L339.348 168.8L343.608 167.27L343.438 162.49L344.808 160.96L353.498 158.23V150.39L359.978 145.27L360.488 139.65L362.708 138.79L363.388 137.09L368.328 136.24L373.278 137.43L380.438 149.54L378.898 151.75L378.728 154.82L379.928 156.53L392.708 158.74L399.188 162.66L398.338 163.69L395.608 169.31L392.198 173.06L391.688 176.81L381.288 186.53H372.248L369.348 187.72L367.648 190.45L370.208 198.98L369.518 201.19L363.218 202.04L356.058 199.32H351.788L349.748 200.51L344.808 208.01L343.098 209.55L335.088 202.56L325.518 201.68Z" fill="#C7C7C7" stroke="white" stroke-width="2"/>
<path d="M222.601 266.41L223.161 266.66L225.721 267L228.451 265.12L231.351 256.94L230.671 253.87H217.881L216.691 253.19V250.12L225.211 243.98L226.401 234.27L231.521 232.73L234.251 230L234.081 227.45L228.281 223.7L221.461 214.15L220.441 211.25L224.701 205.8V203.24L221.671 201.15L222.491 200.79L231.031 199.83L234.101 197.72L236.881 199.92L241.581 200.12L242.341 196.28L238.701 193.02L242.541 189.47L242.341 184.87L240.711 183.62L239.081 178.92L237.641 178.64L232.951 184.58L229.971 185.64L224.411 181.51L222.211 181.22L220.441 177.39L220.671 177L219.021 174.85L221.241 172.43L223.431 169.15L228.231 166.31L228.451 168.71L232.391 170.9L239.601 157.34V157.17L270.051 186.53L283.351 197.44L301.931 210.23L304.491 212.79L305.681 218.07V230L300.561 234.61L302.781 242.62L302.271 246.54L297.671 248.42L289.481 244.67L273.631 244.84L271.071 241.77L269.541 241.6L264.591 243.98L260.841 249.61L262.381 262.91L264.761 268.36L264.591 271.26L262.921 273.64L248.571 271.09L244.301 275.18L234.931 268.7L224.361 271.09L222.601 266.41Z" fill="#C7C7C7" stroke="white" stroke-width="2"/>
<path d="M475.882 288.67L477.182 289.72L478.272 294.91L475.882 297.54L476.682 300.91L478.272 302.2L478.172 307.85L484.872 309.7L493.502 307.97L493.292 294.13L504.202 290.83L506.702 291.29L508.522 295.72L511.592 318.57L510.792 320.16L504.432 322.09L509.282 346.34L508.332 350.63L494.862 351.65L496.672 354.37L495.992 354.97L498.532 356.08L500.692 359.04L503.762 365.75L504.482 362.54L507.392 360.75L515.862 361.55L517.792 371.94L513.302 376.03L513.422 392.6L506.792 394.79L507.612 396.71L509.662 399.22L519.212 396.49L521.842 405.06L529.902 403.99L532.172 402.63L534.592 404.23L535.202 407.09L536.152 406.86L539.452 418.09L543.542 420.02L547.182 418.43L555.712 417.75L556.962 414.23L561.702 415.34L563.892 421.94L562.082 422.07L561.852 424.12L566.172 431.31L569.362 429.8L572.322 425.94H574.142L577.552 429.28L578.182 431.11L575.012 431.28L571.802 435.59L576.822 443.74L578.332 449.09L577.742 472.54L573.892 476.04L575.692 484.04L579.452 487.72L580.302 494.03L578.252 496.93L568.532 497.27L565.292 498.85L553.942 489.71L542.642 489.37L538.702 488.17L537.162 483.72L542.812 478.76L544.522 473.45L543.152 470.54L534.932 471.4L527.062 467.46L525.742 467.7L526.032 464.55L528.262 463.18L532.542 454.62L526.722 441.96L526.212 433.57L518.852 433.91L517.652 433.06L518.512 430.66L516.802 428.78H514.232L512.862 429.64L511.662 439.4L509.432 440.09L504.812 438.21L504.472 439.92L501.902 439.41L498.132 436.16L497.962 433.59H496.082L494.712 433.25L493.002 429.66L492.822 420.75L494.532 417.34L492.142 411.71L491.122 407.96L493.342 404.55L493.852 400.97L491.632 398.41L485.662 396.02L482.082 397.9L478.502 400.12L474.752 402L468.102 399.27L463.332 395.35L462.312 392.79L462.992 386.65L465.552 386.31L473.222 388.7L474.412 386.65L472.362 382.73L475.432 375.74L475.772 371.65L473.382 365.51L461.572 354.27L462.132 353.15L456.852 345.82L451.742 344.46L450.552 343.44L451.572 340.71L455.832 336.79L459.752 335.09V332.87L463.162 327.59L468.452 325.37L471.522 319.4L470.332 318.21L468.292 318.89L462.492 323.66L457.722 325.54L456.702 327.59L449.542 328.44L443.232 326.05L440.162 322.64L440.332 318.72L440.162 312.07L443.912 305.93L450.052 304.06L451.072 301.33L468.802 293.32L468.932 292.16L468.562 290.31L475.882 288.67ZM336.182 84.69L337.482 86.17L340.612 85.49L345.162 89.58L349.032 89.92L353.172 92.7L356.082 92.2L356.992 96.63L361.172 95.66L361.882 96.86L364.492 97.09L365.292 95.73L369.082 95.16L372.822 98.2L377.682 95.73L383.482 98.46L386.322 103.12L385.412 108.8L383.592 110.96L384.732 116.3L383.712 120.73L388.712 125.39L389.512 130.28L396.902 139.15L398.052 139.89L402.472 135.4L405.082 135.74L407.132 136.76L410.082 141.16L412.472 141.76L414.522 144.94L417.502 143.93L422.722 144.7L424.462 143.95L423.232 138.4L426.682 140.8L425.612 135.25L432.302 135.17L431.622 132.2L438.162 133.51L439.072 133.97L438.962 138.74L441.012 141.92L442.722 158.52L444.012 160.61L446.592 158.63L446.702 159.99L451.512 159.17L455.682 160.45L453.522 165.22L449.832 166.89L447.282 170.37L444.402 176.44L447.922 182.92L449.692 182.77L451.202 180.79L455.002 182.5L452.652 194.11L446.882 197.71L445.222 203.05L449.552 211.83L447.712 212.32L447.812 218.07L446.412 218.51L445.352 222.82L449.862 222.62L447.502 226.11L445.992 226.21L447.152 230.23L442.602 240.21L430.932 244.06L436.962 256.29L441.482 254.07L442.362 255.32L441.482 256.39L441.552 260.2L442.952 262.07L441.582 263.91L442.142 265.16L438.162 269.42L442.952 267.28L443.572 268.56L440.832 271.73L441.472 275.82L444.262 276.46L451.522 269.05L452.542 280.54L456.802 275.69L464.582 272.27L467.452 288.87L464.042 292.77L447.842 296.86L445.282 299.08L440.172 298.91L438.122 298.06L433.692 289.2L425.452 282.81L424.832 280L429.262 274.89L431.142 269.26L429.782 267.22L427.562 266.54L423.472 260.57L417.332 261.42L414.772 257.84L413.072 252.21L413.752 240.96L407.612 235.5V221.52L408.632 218.96L407.442 214.02L408.292 199.36L406.932 189.81L407.272 182.14L410.002 174.98L409.492 169.35L406.762 164.58L404.372 162.88L398.972 162.84L392.612 158.78L379.822 156.56L378.632 154.86L378.802 151.79L380.332 149.57L373.172 137.47L368.232 136.28L363.292 137.13L362.952 134.57L361.252 134.23L352.222 124L343.012 121.78L338.752 129.45L337.052 130.3H334.662L331.082 127.74L329.382 123.65L336.032 119.22L338.932 115.81L339.952 110.87L343.532 113.26L348.992 109.68L348.652 106.95L346.602 105.25L336.882 104.23L333.982 98.77L332.282 97.75L325.212 97.95L324.742 95.95L327.012 94.74L327.122 92.24L325.642 90.31L333.482 84.29L336.182 84.69Z" fill="#C7C7C7" stroke="white" stroke-width="2"/>
<path d="M222.85 44.63L226.38 46.33L244.55 46.59L249.95 49.05L252.59 55.08L251.57 60.84L246.61 67.13L246.5 70.09L249.11 71.79L255.38 70.57L259.34 64.97L263.55 61.79L267.18 62.13L268.66 63.61L270.37 72.47L274.8 75.43L279.15 74.75L289.86 65.94L294.33 68.16L297.7 65.82L299.07 66.28L301.8 70.14V80.26L298.84 86.06L292.82 88.67L293.84 95.15L301.57 94.24L304.87 88.1L308.84 86.28L312.48 86.74L313.5 87.88V92.88L311.46 96.85L312.33 105.64L318.28 110.04L321.81 109.78L326.81 112.65L329.43 116.14L328.12 119.64L315.66 128.16L309.76 135.38L292.93 134.5L285.28 131.01L281.35 131.44L274.14 136.91L261.68 133.19L241.79 132.97H238.29L235.01 125.54L239.6 122.04L240.69 118.55H245.72L246.81 114.18L249.22 112.86L249.87 105.87L243.1 95.16L228.23 80.52L216.21 79.42L212.28 70.24L209.84 68.98L211.4 68.27L214.9 66.53H217.96L223.65 60.19L218.62 55.38L210.53 51.88L211.62 47.95L220.3 41.1L222.85 44.63Z" fill="#C7C7C7" stroke="white" stroke-width="2"/>
<path d="M369.76 340.35L371.74 344.14L371.06 348.41H369.35L365.77 351.99L365.09 356.93L363.05 361.19L353.5 362.9L348.04 366.48L346.34 368.69L346 372.44L348.21 377.39L347.19 379.09L342.08 379.6L340.54 385.06L342.08 386.94L341.4 387.96H338.5L333.89 385.4L328.1 377.39L326.05 376.2L324.35 370.91L322.64 370.74L320.94 372.96L316.85 372.1L314.29 370.23L309.17 373.47L305.08 371.59L299.97 374.66L292.64 369.21L288.2 369.03L289.4 367.24L287.18 363.15L281.04 360.77L275.93 355.99L275.59 353.61L279.85 353.78L281.21 347.98L281.72 347.31L284.11 348.83L293.66 347.81L305.76 342.01L309 337.24L314.29 336.73L315.99 329.91L313.78 322.41L308.15 320.53L308.83 318.66L317.36 315.08L321.28 309.62L327.93 308.26L329.8 302.63L330.31 302.36L334.23 305.61L341.91 305.1L343.1 306.64L341.91 307.66L343.78 314.48L348.73 318.23L348.9 320.45L354.52 328.29H357.59L359.81 331.87L360.49 337.5L369.7 340.39L369.76 340.35Z" fill="#C7C7C7" stroke="white" stroke-width="2"/>
<path d="M565.238 498.82L568.138 503.21L574.958 507.47L583.308 508.15L585.188 511.05L585.698 516.33L590.298 523.84L592.688 524.18L594.908 528.27L597.368 528.7L600.018 525.37L603.088 526.39L607.348 530.48L612.978 529.46L613.998 532.02L612.468 534.4L597.118 543.78L595.078 542.76L579.218 542.93L573.418 540.37L567.798 544.12L565.578 550.6L562.168 551.62L556.208 547.36L553.818 541.05L550.158 536.91L546.998 524.52L543.588 520.77L539.498 518.72L538.578 519.92L540.688 524.52L538.818 529.12L534.428 529.69L530.798 526.9L526.778 527.69L526.538 533.38L528.248 542.25L522.618 546.34H515.288L508.798 542.26L507.448 539.18L508.098 536.16L507.108 531.68L500.968 529.29L496.948 529.36L495.168 527.76L493.128 517.7L489.718 514.8L487.328 514.97L479.268 505.77L478.758 501.15L487.318 496.01L482.518 490.88L492.108 483.35L497.928 485.57L505.968 478.56L514.868 478.39L518.128 474.28L523.428 473.08L525.138 467.77L527.028 467.43L534.898 471.37L543.108 470.51L544.478 473.42L542.768 478.73L537.118 483.69L538.658 488.14L542.598 489.34L553.898 489.68L565.238 498.82Z" fill="#C7C7C7" stroke="white" stroke-width="2"/>
<path d="M331 642.07L329.98 644.46L325.38 644.29H323.85L321.29 645.14L321.97 650.08L326.92 651.96L331.35 656.05L335.1 655.88L345.67 648.38L356.07 647.87L357.6 647.19V645.14L353 631.67L354.02 628.26L358.96 626.21L363.39 628.09L365.44 630.82L369.87 637.13L372.59 644.05L366.21 646.34L362.63 649.24L363.65 658.96L364.84 659.98L364.39 667.31L349.76 669.01L334.59 673.44L329.13 672.93L326.74 674.29L326.23 678.21L327.08 680.94L335.6 687.76L339.52 687.08L341.23 686.4L350.61 682.31L352.61 683.7L352.91 688.02L351.2 691.43L347.11 693.99L335.18 695.18L334.16 697.06L334.84 705.07L334.67 703.54L333.99 706.78L325.55 707.1L326.23 704.65L327.94 704.14L328.45 700.56L324.87 697.66L323.51 694.76V689.48L320.78 687.43L318.05 690.67L312.77 683.51L303.9 681.81L302.03 679.42L299.98 668.51L301.34 667.32L310.38 667.49L312.26 673.97L314.14 674.48L317.21 673.12L319.43 671.42L320.45 667.33L316.53 664.77H314.53L315.17 663.92L313.98 661.19L309.04 656.42L308.19 640.23L307.17 638.35L309.56 632.9L310.07 624.21L311.95 622.51L319.28 621.32L319.87 620.3H321.16L323.38 618.26L325.09 618.77L327.14 624.06L326.8 626.79L324.75 631.22L320.32 633.44V635.32L329.19 638.05L331.07 639.58V642.07H331ZM407.12 626.72L405.76 632.6L400.48 636.69L388.62 640.59L387.78 634.38L386.59 628.24L382.84 628.75L381.82 627.56L382.84 620.06L391.19 613.92L395.45 612.39L393.06 601.82L392.72 596.88L396.64 590.23L407.55 579.49L408.84 578.25L416.84 582.81L418.89 585.2L419.14 587.48L418.55 591.68L411.56 597.9L409.33 603.79L400.98 609.58L399.79 613.59L405.76 622.63L407.12 626.72Z" fill="#C7C7C7" stroke="white" stroke-width="2"/>
<path d="M358.55 231.56L358.02 232.22L354.78 238.87L356.14 242.79L356.99 249.27L355.8 250.46L345.91 252.51L332.79 261.37L328.86 267.17L328.52 270.07L330.23 272.11V274.67L324.43 278.59L320.17 279.96L306.7 282L299.2 284.73L294.6 284.22L289.14 280.98L274.48 279.27L267.15 277.23L262.92 273.64L264.59 271.26L264.76 268.36L262.38 262.91L260.84 249.61L264.59 243.98L269.54 241.6L271.07 241.77L273.63 244.84L289.48 244.67L297.67 248.42L302.27 246.54L302.78 242.62L300.56 234.61L305.68 230V218.07L304.49 212.79L303.66 211.96L306.79 208.18L308.32 208.01L313.61 210.91L317.02 211.08L318.89 205.97L323.66 203.41L325.52 201.68L335.09 202.56L343.1 209.55L343.23 209.43L341.23 212.96L338.84 214.32L339.52 215.85L342.93 217.39L357.76 229.83L358.55 231.56Z" fill="#C7C7C7" stroke="white" stroke-width="2"/>
<path d="M243.812 386.75L240.942 385.22L239.962 381.93L235.192 381.77L229.432 377.33L224.992 376.5L223.672 371.73L220.882 371.4L215.452 364L208.052 359.23L208.212 354.79L201.472 352L200.482 342.13L195.382 330.94L193.252 329.63L192.262 321.57L189.462 318.77L187.322 313.51L182.232 315.15L179.102 311.53L174.332 310.22L171.532 306.93L171.042 303.47L167.092 300.51L166.742 295.92L173.382 294.84L179.862 284.78L188.562 282.22L193.332 278.3L200.662 277.28L211.402 277.96L212.942 276.94L214.302 274.21V266.88L215.662 265.34L218.562 264.83L222.602 266.46L224.362 271.14L234.932 268.75L244.302 275.23L248.572 271.14H251.642L257.092 273.19L262.922 273.69L267.152 277.28L271.132 278.62L269.282 293.98L256.492 304.55L250.192 316.49L245.072 322.63L230.072 330.64L228.882 333.03L231.432 340.87L229.222 345.47L225.642 349.22L226.322 356.55L228.192 362.18L240.472 371.55L242.852 375.48L244.222 377.86L243.812 386.75Z" fill="#C7C7C7" stroke="white" stroke-width="2"/>
</svg>
