<svg width="803" height="979" viewBox="0 0 803 979" fill="none" xmlns="http://www.w3.org/2000/svg">
<path d="M724.46 2L723.82 2.5L721.29 13.24L721.36 14.18L724.26 16.77L724.33 17.56L724.46 18.05L727.27 20.06L729.78 22.2H731.57L735.08 25.43L738.7 26.66L742.22 28.01L700.33 71.54L689.4 72.63L681.21 73.85L671.84 75.7L669.43 76.07L665.3 77.92L656.43 82.22L647.19 86.63L646.11 87.13L641.01 89.5L636.23 90.71L634.78 91.06L631.44 91.91L626.06 93.38L609.7 97.72L607.88 97.99L605.77 99.85L603.82 102.25L599.96 107.98L599.39 108.21L597.99 109.69L596.89 110.98L594.88 111.9L592.32 112.28L590.14 112.49L589.31 112.39L587.7 111.97L582.92 109.12L582.27 108.81L580.54 108.75L579.29 109.35L575.83 109.84L573.92 110.01L570.13 109.79L566.59 109.43L565.43 108.82L565.14 108.43L564.32 107.44L563.77 106.36L562.03 106.28L561.69 107.82L561.61 109.55L561.52 115.08L559.47 118.05L558.52 119.67L558.01 121.44L556.84 130.65L556.88 134.11L556.79 134.92L555.48 135.3L540.47 140.8L540.16 141.45L526.97 183.84L526.25 185.27L517.04 191.73L514.04 194.29L513.98 194.53L513.36 197.44L512.83 199.95L510.24 208.86L509.23 213.63L509.37 218.46L508.5 223.82L508.73 228.14L509.5 230.51L511.12 233.35L511.16 234.75L509.54 240.23L509.78 244.04L508.19 246.58L507.27 250.24L503.65 253.55L501.01 259.27L497.21 265.91L496.41 268.51L496.4 283.23L495.11 288.45L491.78 293.62L490.35 294.59L484.73 301.35L478.55 306.95L470.91 311.73L468.19 314.21L466.4 316.77L462.29 324.47L461.77 326.28L461.04 328.06L460.39 332.77L459.31 334.98L449.53 346.28L445.56 349.99L443.89 352.16L441.52 358.74L438.61 362.68L435.08 366.95L430.08 369.1L427.65 371.29L425.35 376.93L424.6 377.78L423.31 378.55L420.72 376.36L416.08 372.72L402.95 399.06L397.68 395.19L381.53 382.72L374.74 377.59L371.87 375.58L364.57 370.02L363.29 368.71L347.31 381.05L343.88 379.22L340.01 383.71L336.55 389.64L334.49 389.81L331.4 397.25L329.72 401.18L327.74 404.73L330.79 407.55L328.7 410.11L305.98 437.43L302.68 440.84L301.13 439.28L292.63 445.95L285.73 451L285.03 451.63L280.4 455.78L272.72 462.15L264.23 469.85L256.6 476.77L224.79 505.61L224.43 505.94L205.14 523.21L181.96 541.8L175.63 547.22L166.13 554.78L164.77 556L163.45 557.11L156.49 562.81L154.11 564.75L143.32 576.38L133.14 587.35L126.09 593.98L102.49 615.26L97.17 620.19L96.11 621.01L96.2 622.88L96.01 624.22L95.6 625.1L93.98 627.21L91.48 629.04L88.14 631.37L86.51 632.82L90.21 637L93.67 640.66L94.93 641.65L96.34 642.81L98.47 644.34L100.13 646.37L100.18 646.7L97.98 651.09L97.71 653.33L97.52 655.17L97.26 657.61L96.46 664.63L97.76 668.52L101.2 673.6L105.03 678.23L106.33 680.67L106.94 682.4L107.65 687.3L107.29 688.85L106.1 694.73L105.62 696.39L105.46 697.41L105.36 699.31L105 702.06L104.65 707.13L104.55 709.42L103.67 722.38L103.21 724.15L102.48 727.94L101.43 728.89L100.01 728.55L99.5 728.82L97.62 729.4L96.39 729.94L96.54 730.77L96.09 731.04L92.6 732.23L90.85 732.63L88.92 732.15L87.29 731.77L85.44 731.35L83.57 730.92L81.67 730.51L79.94 730.35L78.11 730.24L76.34 730.31L73.71 730.55L71.88 731.2L68.63 732.27L65.16 733.59L62.48 734.96L59.43 738.42L56.29 739.93L51.61 742.76L50.55 743.71L49.07 744.84L47.51 745.87L46.02 746.88L43.88 748.08L41.31 748.91L40.1 750.81L40.07 750.88L38.98 752.19L38.32 753.1L37.54 753.93L35.76 754.76L32.59 756.57L30.1 759.44L27.67 762.35L20.14 774.99L19.27 778.35L17.08 781.64L14.94 784.39L12.34 786.92L11.06 787.33L9.63 789.14L8.02 792.76L6.81 794.33L6.5 795.69L5.19 799.72L2.58 802.54L2 803.69L12.12 810.26L12.96 810.81L18.78 814.61L27.03 819.96L31.95 823.31L33.39 824.31L35.98 826.07L37.68 827.1L38.73 827.84L39.97 828.66L44.12 831.37L57.88 841.09L60.63 843.05L65.48 846.4L69.26 849.08L77.48 854.9L80.09 856.86L87.71 862.36L90.94 864.9L112.69 881.02L126.52 890.79L172.58 922.53L206.78 946.81L227.25 961.55L235.54 967.38L241.32 971.38L248.04 976.46L248.06 976.5L248.14 976.41L266.01 958.26L267.94 960.21L270.14 960.64L270.85 960.4L272.9 958.38L273.16 957.61L272.92 955.51L270.91 953.39L298.48 925.73L300.07 927.32L302.24 927.73L302.94 927.53L304.98 925.45L305.23 924.59L304.79 922.38L303.2 920.86L312.18 911.93L352.72 885.35L352.9 885.51L383.43 865.5L389.43 861.57L385.59 855.69L381.48 858.38L379.21 859.19L376.7 860.53L371.72 863.56L371.33 863.17L369.5 864.6L367.87 865.64L366.82 866.35L366 866.9L364.28 867.92L360.67 870.28L361.65 871.63L360.85 872.09L360.52 871.59L358.87 872.68L357.02 870.52L354.44 872.47L355.66 874.73L350.94 877.79L348.26 876.8L344.96 874.56L340.17 870.46L336.4 867.33L331.1 860.74L328.93 856.67L326.95 852.22L323.33 841.99L324.3 837.93L326.9 837.97L326.22 829.9L325.34 829.77L323.94 829.89L323.97 831.66L323.51 831.65L323.58 832.88L306.59 834.06L268.46 836.67L267.23 820.83L251.39 821.75L249.01 788.13L263.45 786.1L263.08 783.39L227.14 788.33L225.82 785.35L224.4 786.19L224.49 784.21L225.11 783.92L223.98 781.53L222.18 777.63L239.98 761.56L243.17 758.68L246.27 756.31L247.11 755.48L254.24 762.87L254.85 762.26L248.8 755.86L249.64 755.15L250.71 756.14L252.21 754.73L255.84 756.43L257.98 755.92L260.26 756.72L260.76 758.17L264.38 759.48L265.64 758.71L267.72 759.45L268.57 760.53L270.46 761.7L272.36 760.98L274.45 763.3L278.03 768.49L281.05 769.52L283.35 773.24L285.61 779.39L287.12 779.18L288.39 780.94L288.8 785.1L292.22 788.44L295.25 792.7L299.28 793.44L303.93 791.87L306.35 792.33L308.29 788.48L310.2 788.91L311.39 785.97L313.56 785.34L315.05 785.57L316.74 783.92L316.44 782.79L318.53 780.71L325.86 781.35L329.37 782.6L331.49 786.2L332.15 788.72L333.44 794.04L337.82 804.41L343.8 808.67L346.62 805.6L349.62 805.19L353.21 807.45L353.01 814.32L351.92 843.21L359.6 843.61L359.74 838.75L357.93 838.5L358.98 809.67L360.74 810L360.93 810.43L364.28 810.16L364.51 810.46L366.11 810.56L366.64 810.4L366.95 810.14L368.25 810.19L368.73 809.96L369.55 809.85L369.07 810.43L369.27 810.63L369.95 810.1L370.44 809.94L371.45 810.13L371.87 809.92L372.34 809.87L373.26 810.28L373.66 810.09L374.04 810.14L374.13 810.94L374.46 811.38L375.15 811.44L375.97 811.17L376.66 810.59L377.17 810.62L377.82 810.51L378.85 809.96L379.71 809.72L380.26 809.88L380.58 809.79L381.16 809.86L381.52 809.67L381.94 809.73L385.8 809.66L386.53 809.85L387.46 809.82L388.64 810.91L389.84 811.2L390.19 811.24L390.43 810.95L390.85 810.15L391.67 809.82L393.51 809.44L394.79 809.6L396.12 809.37L397.71 807.89L398.44 806.71L398.87 805.38L400.83 803.17L402.45 800.6L404.49 798.33L405.94 796.5L408.59 796.79L410.6 795.54L412.79 795.51L414.79 795.44L415.86 794.08L415.88 791.58L416.33 787.1L420.43 784.43L422.62 781.27L426.64 777.86L429.64 776.58L432.63 773.84L438.87 771.93L439.83 770.39L442.95 767.2L445.59 764.4L446.6 765.48L449.7 767.05L454.19 768.29L458.21 769.48L461.51 769.69L463.65 768.42L474.41 756.99L480.51 748.91L484.96 744.14L484.44 740.81L486.5 730.95L487.01 728.65L487.63 728.78L489.49 727.32L489.39 726.38L489.04 725.64L489.13 723.86L493.4 719.2L495.05 716.36L495.27 715.58L496.08 714.78L498.35 713.86L499.75 713.81L500.76 714.07L501.62 713.7L501.49 713.19L500.27 712.9L499.54 712.31L499.14 711.18L499.74 710.12L499.34 709.25L498.04 708.84L497.8 707.51L498.18 706.84L499.75 705.07L499.54 704.68L498.04 703.51L498.21 701.01L499.29 699.43L500.34 687.67L503.59 683.72L510.75 674.67L521.88 661.36L531.28 650.09L528.03 647.55L528.28 646.96L544.73 626.38L562.53 604.89L599.45 558.6L592.52 553.4L520.32 641.02L516.63 637.96L503.48 640.16L493.12 631.63L489.26 628.57L487.5 620.12L486.03 612.19L482.77 609.18L475.36 610.54L473.85 614.16L473.27 614.59L473.73 617.25L474.78 622.72L475.15 622.76L476.42 622.41L478.36 622.03L478.62 622.5L482.36 642.18L483.03 645.31L483.56 647.33L480.01 647.88L480.3 649.47L483.8 648.8L484.07 651.27L485.59 658.61L475.96 661.19L464.88 664.43L454.1 667.69L439.65 671.66L438.53 671.33L434.94 672.57L435 673.01L428.9 674.7L423.62 676.58L405.46 681.88L398.31 658.64L403.45 656.88L404.63 655.85L404.16 654.33L402.3 653.32L390.6 656.68L389.43 658.38L389.75 659.92L391.51 660.61L396.03 659.15L403.17 682.5L397.85 684.03L392.87 685.45L383.62 688.08L378.47 669.58L376.76 669.96L381.14 685.75L376.48 687.11L376.1 687.12L375.79 686.42L373.43 678.04L370.67 676.8L368.56 675.38L366.84 674.24L364.77 672.48L362.95 670.64L359.92 666.45L358.05 662.86L356.46 658.7L354.65 649.2L353.35 642.56L354.05 638.02L353.23 633.9L351.57 625.37L352.3 625.34L356.12 624.55L359.75 642.97L361.51 642.67L357.87 624.4L357.95 624.19L370.43 621.77L374.59 641.44L376.14 640.96L377.81 640.87L368.83 593.91L367.11 594.13L365.37 594.53L368.86 612.99L368.17 613.14L368.41 614.4L356.37 616.84L352.92 598.31L351.19 598.67L354.79 617.08L349.44 618.15L344.57 593.5L342.32 590.6L339.1 589.26L335.32 589.6L334.98 582.71L335.25 576.36L335.64 572.97L336.25 569.65L337.9 563.4L339.16 559.49L341.06 555.5L342.39 552.8L345.38 547.63L414.15 537.53L418.62 540.7L432.4 538.88L432.48 539.7L431.85 539.79L431.76 539.87L434.51 560.53L436.65 560.25L433.79 539.51L433.3 539.58L433.29 538.73L433.73 538.65L433.19 534.87L460.87 531.2L468.8 571.11L464.9 571.82L466.43 579.39L469.89 582.88L477.54 581.43L479.16 577.35L478.09 571.22L474.03 550.7L470.56 533.13L494.66 526.49L506.39 523.11L515.97 520.29L522.2 518.51L526.59 529.18L531.14 540.51L535.55 551.29L539.65 561.59L540.02 561.78L546.1 559.34L547.34 557.86L529.89 515.2L532 514.39L534.07 511.75L532.82 510.79L534.89 508.43L535.97 508.56L536.02 507.73L537.23 507.92L548.77 491.77L543.59 480L554.78 465.56L552.11 459.99L559.81 450.5L556.87 445.03L562.59 437.66L559.85 432.16L563.23 427.38L558.05 417.32L556.13 417.13L555.85 416.76L558.59 396.38L558.7 395.59L560.29 394.76L561.86 394.51L562.98 393.5V392.26L562.3 390.72L562.5 387.88L563.87 385.66L566.31 379.38L580.35 352.27L587.91 338.24L597.02 325.32L604.87 315.79L608.79 310.68L610.21 308.82L611.73 305.29L613.8 299.73L614.23 293.46L614.69 286.26L613.76 280.07L613.06 278.56L612.79 277.19L613.14 276.01L614.6 274.27L615.52 272.64L616.78 271.01L618.44 269.75L620.24 268.67L623.23 267.44L626.81 266.53L628.83 265.39L629.92 264.55L630.83 263.44L633.18 259.49L635.98 255.47L635.31 253.91L634.52 253.18L632.68 251.96L631.81 251.77L631.22 252.27L630.7 252.98L630.75 253.47L630.4 253.79L630.8 254.46L631.04 254.4L631.94 255.12L626.69 261.32L621.55 261.77L618.5 256.76L616.27 250.37L616.55 243.14L617.94 235.35L621.05 227.82L623.61 224.13L626.77 221.27L629.84 218.95L632.81 217.33L639.35 215.14L647.64 212.22L656.68 223.72L657.93 222.55L647.78 209.88L649.22 209.17L650.1 207.96L651.33 203.78L654.22 198.26L655.99 195.47L658.36 192.74L660.53 190.68L663.07 188.85L665.33 187L668.34 185.54L672 184.32L678.63 183.04L683.98 182.92L688.8 183.56L694.08 185.09L698.86 188.25L701.61 189.83L698.25 196.58L691.8 200.93L690.54 199.24L689.66 198.94L688.82 199.37L688.1 200.4L688 201.44L689.32 203.7L690.55 204.46L693 204.14L695.67 203.01L699.29 200.82L701.1 198.97L702.93 195.72L704.14 192.63L704.78 190.84L706.03 188.44L709.69 185.02L712.48 182.5L712.66 181.74L712.28 180.37L711.77 179.42L710.42 179.22L709.17 179.21L708.08 180.17L709.27 181.68L704.39 185.54L697.45 176.89L699.71 169.04L701.43 164.99L703.56 161.13L706.45 158.33L710.62 156.24L715.16 155.27L716.93 155.18L718.79 155.66L730.79 178.41L735.42 185.72L740.62 194.44L744.75 199.87L749.93 203.98L755.47 205.96L760.35 207.09L766.76 207.62L771.09 207.22L776.55 206.13L784.55 203.64L789.76 201.66L794.73 198.34L799.78 193.96L801.18 189.27L799.69 182.8L797.65 172.68L795.98 168.83L794.64 164.68L788.49 134.63L792.65 133.74L790.84 125.34L788.94 125.67L786.36 113.74L788.35 113.33L786.73 104.95L781.93 105.81L780.19 100.42L762.57 92.32L761.68 88.49L761.43 87.6L762.13 85.26L763.87 82.37L765.86 79.19L767.15 77.75L768.26 75.58L768.43 74.14L768.16 72.86L766.99 67.35L767.35 64.01L767.02 63.2L765.66 61.65L764.2 58.48L763.62 55.09L763.75 53.33L764.39 50.94L768.82 42.29L769.71 38.42L770.17 28.12L769.87 26.45L769.18 24.92L767.45 23.09L749.39 9.09L744.39 6.43L742.86 6.11L737.26 6.52L735.32 6.13L730.29 3.57L726.38 2.21L724.46 2Z" fill="#C7C7C7" stroke="white" stroke-width="2"/>
</svg>
