<svg width="614" height="738" viewBox="0 0 614 738" fill="none" xmlns="http://www.w3.org/2000/svg">
<path d="M464.631 379.32L464.161 379.55L452.891 383.89L445.521 391.26L439.011 398.63L436.411 405.57L435.111 413.81L425.141 416.41L421.641 418.82L419.901 417.03L418.351 413.18L416.551 412.24L416.071 411.6L416.141 409.68L415.251 407.45L415.131 406.08L415.381 405.4L417.271 403.35L417.431 402.58L417.151 401.72L415.411 400.52L412.921 400.18L412.541 399.88L411.181 397.79L409.541 393.38L407.991 392.1L406.631 392.01L405.811 392.27L402.751 394.24L400.851 394.49L400.541 395.18L399.151 396.63L399.211 399.07L395.671 402.41L393.721 405.44L393.121 405.78L392.141 405.91L389.611 404.89L388.511 404.97L388.031 405.23L385.921 407.98L382.041 401.28L377.701 388.7L375.601 385.79L380.741 383.67L383.771 379.34V372.83L388.111 370.66L389.411 363.73L385.941 361.13L385.071 351.59L387.671 346.38L388.111 341.18L381.601 336.41L376.831 330.77L375.531 324.27L381.171 318.2L387.761 316.26L393.481 319.28L400.861 324.05L421.671 336.19L429.481 340.09L437.281 342.7L446.391 343.56L450.291 340.09L454.621 340.53L454.191 346.6L451.591 350.5L446.391 354.84V360.04L450.291 365.24L453.321 371.31L458.961 375.65L464.631 379.32Z" fill="#C7C7C7" stroke="white" stroke-width="2"/>
<path d="M207.053 542.22L206.863 542.42L211.193 547.19L214.233 551.09L215.533 555.86L215.963 564.53L217.703 570.6L220.733 574.07L225.943 575.38L232.443 576.24H238.943L241.983 577.54L245.013 584.48L247.183 592.72L249.783 601.39L255.423 605.73L258.463 612.23L271.463 616.57L279.703 627.41L284.043 630.88L288.043 633.49L287.943 633.48L284.473 638.68L280.143 641.72L273.203 640.42L270.163 641.72H265.833L260.193 637.82L258.023 633.48L254.553 631.31L250.653 633.91L248.923 635.65V639.98L251.083 640.42L254.553 641.72L255.423 643.45L254.123 646.92L251.953 651.26L251.523 655.16L254.123 657.33L255.853 660.8L258.893 661.66L259.763 667.74L260.623 670.34L258.893 674.24L254.553 675.97L249.783 675.11L239.813 670.34L235.473 667.74H229.843L225.593 668.3L225.783 668.12L225.683 666.85L224.863 666.55L224.073 665.75L223.283 665.54L223.383 664.56L224.773 664.14L225.083 661.35L222.463 659.69V659.4L223.253 658.63L223.223 658.25L222.723 657.66V657.41L223.163 657.19L223.003 656.52L223.413 656.05L222.873 654.61L221.523 653.3L220.853 653.13L220.063 652.53L213.153 646.6L211.323 645.84L208.953 643.59L206.713 642.45L204.943 640.79L204.973 640.58H205.543L205.513 640.33L203.833 639.31L202.003 637.79L200.613 636.13L200.453 635.16L202.223 635.03L202.793 635.62L205.253 636.26L205.603 636.01L205.573 635.62L204.783 634.86V634.56L205.063 634.48L205.763 635.07H206.173L206.073 634.31L205.573 634.14L205.443 633.8L205.543 633.29L205.823 633.21L206.363 633.59L206.993 632.7L207.083 631L206.043 627.86L205.033 625.87L204.153 624.81L200.233 622.01L199.663 621.38L197.583 620.91L198.213 619.85L198.273 619.17L197.143 616.16L194.423 614.54H193.633L192.943 615.01L189.123 614.59L187.413 614.76L186.463 615.18L185.993 613.57L185.613 613.15H184.983L183.913 613.48L182.673 615.56L182.173 616.2L181.853 616.24L178.853 609.79L179.043 607.8L179.553 606.82L179.483 606.23L178.573 605.25L177.693 603.71L180.843 597.06L183.013 593.15L186.913 589.25L184.313 582.31L180.413 577.11L174.773 571.91L169.133 567.14L166.963 558.9L165.663 557.16L164.793 553.26L162.633 548.49L167.403 547.62L173.473 549.36L178.243 551.53L180.843 555.43L189.083 556.3L194.713 553.69L195.583 550.23L192.983 545.89L191.683 542.42L193.413 538.95L199.483 538.08L204.693 540.25L207.053 542.22Z" fill="#C7C7C7" stroke="white" stroke-width="2"/>
<path d="M464.631 379.32L458.961 375.65L453.321 371.31L450.291 365.24L446.391 360.04V354.84L451.591 350.5L454.191 346.6L454.621 340.53L450.291 340.09L446.391 343.56L437.281 342.7L429.481 340.09L421.671 336.19L400.861 324.05L393.481 319.28L387.761 316.26L388.541 316.03L384.641 303.45L385.941 293.05L385.041 293.15L393.741 284.81L395.331 282.7L403.021 283.51L411.701 280.9L419.501 277.44L424.271 272.67L428.611 267.46L435.551 264.86L439.451 266.6L442.051 269.63L446.821 270.93L453.321 272.23L460.691 270.93L465.901 266.6L471.971 264L479.771 262.26L486.281 259.66L490.611 254.89L494.951 253.15L503.621 252.29L509.691 249.25L514.461 246.65L519.421 239.83L520.601 240.93L524.201 241.96L526.281 243.08L530.931 247.77L534.461 251.77L537.591 253.92L539.521 253.96L541.731 253.28L546.241 250.26L547.851 250.09L546.981 262.26L541.351 270.5L539.611 279.6L529.641 289.14L528.771 299.12L525.741 309.09L517.931 315.6L510.991 324.27L513.601 338.14L515.391 341.53L514.951 341.86L514.001 344L513.941 345.72L513.621 347.39L513.151 348.55L511.821 350.56L509.711 352.96L509.071 353.99L508.981 355.02L509.301 356.3L510.561 358.62L511.321 360.8L512.521 365.56L513.121 366.41L514.101 368.9L514.761 369.58L517.761 370.52L519.121 371.72L519.931 373L505.361 375.65L492.351 376.95L482.381 376.08H471.101L464.631 379.32Z" fill="#C7C7C7" stroke="white" stroke-width="2"/>
<path d="M519.42 239.83L514.46 246.65L509.69 249.25L503.62 252.29L494.95 253.15L490.61 254.89L486.28 259.66L479.77 262.26L471.97 264L465.9 266.6L460.69 270.93L453.32 272.23L446.82 270.93L442.05 269.63L439.45 266.6L435.55 264.86L428.61 267.46L424.27 272.67L419.5 277.44L411.7 280.9L403.02 283.51L395.33 282.7L396.35 281.34L384.21 272.23L381.6 268.33L386.37 259.23V252.29L381.17 245.35L373.8 240.58L367.73 239.71L356.02 238.85L348.65 236.68L339.54 231.04L335.21 228L326.1 227.14L318.3 223.67L317.77 223.83L320.03 216.73L319.6 206.76L323.06 201.55L327.83 197.65H335.21L337.81 192.45L338.24 185.94L342.58 183.34L345.18 180.31V174.67L342.58 170.33V166.43L347.78 163.4L350.82 157.76L354.72 155.59L356.89 140.85L353.42 135.21L354.25 131.05L361.73 135.37L368.64 140.17L370.92 141.21L373.54 142.76L374.74 144.14L380.39 156.1L382.16 159.38L383.23 160.38L387.4 162.75L390.56 165.04L394.16 167.24L399.15 168.75L402.56 169.18L404.9 170.22L409.28 171.38L412.13 172.89L414.12 174.79H414.72L415.54 174.45L416.77 167.84L417.65 166.72L419.3 165.6L421.25 166.33L423.08 168.15L424.73 171.25L424.82 175.61L425.07 176.6L428.86 183.42L429.56 186.26L430.25 191.74L430.76 192.3L432.43 192.6L440.93 193.03L441.65 193.29L444.72 197.52L445.28 198.21L445.69 198.33L446.17 198.29L446.58 197.95L448.22 195.75L448.85 195.27L449.61 195.23L450.75 195.66L454.06 198.64L455.07 199.2L462.12 200.19H466.35L471.81 199.67L474.4 198.9L476.55 196.7L478.19 194.41L479.67 193.08L481.41 192.56L482.64 192.6L483.46 193.38L486.02 200.58L487.73 203.08L488.67 206.05L490 207.3L491.23 207.86L493.95 212.64L504.12 224.1L506.9 227.63L508.95 229.57L514.25 233.83L519.42 239.83Z" fill="#C7C7C7" stroke="white" stroke-width="2"/>
<path d="M163.752 548.29L162.632 548.49L164.792 553.26L165.662 557.16L166.962 558.9L169.132 567.14L174.772 571.91L180.412 577.11L184.312 582.31L186.912 589.25L183.012 593.15L180.842 597.06L177.692 603.71L177.272 603.68L176.832 604.53L175.762 604.74L175.322 603L174.782 602.83L174.082 603.34L173.902 601.9L171.432 600.67L168.592 598.5L168.212 597.82L168.052 596.89L169.412 594.51L169.512 593.32L168.502 591.45L166.662 589.59L165.752 589.2L164.612 589.8L163.542 589.37L163.102 588.91L163.132 587.38L161.712 587.42L160.792 586.65L160.472 585.72L159.812 585.17L158.712 585.38L156.462 584.57L155.832 584.87L155.522 584.79L155.292 583.09L154.882 582.36L154.542 582.15L153.342 582.19L149.522 579.18L148.792 577.73L149.012 576.42L148.572 575.18L148.602 574.21L147.502 572.47L147.122 572.93L146.902 572.85V571.78H146.102L145.632 571.15L145.852 570.51L146.552 569.74L146.522 568.81L145.762 567.41L146.262 565.92L145.632 564.22L144.752 563.33L145.032 562.52L144.272 559.67L144.372 558.65L143.672 558.1L143.362 556.69L142.662 555.97L141.052 555.76L141.242 554.02L141.052 553.67L139.252 553.46L136.762 553.55L135.152 554.14L134.742 555.42L133.822 554.31L133.472 553.25L132.052 551.68L129.912 551.72L127.632 552.99V553.8L128.202 554.48L127.882 554.95L127.542 555.12L126.682 555.04L125.522 555.72L124.922 556.48L123.462 555.21L121.222 554.78L121.132 553.29L120.572 552.85V548.49L119.272 547.19L119.702 544.59L123.172 537.22L119.702 534.18L118.402 531.58L117.102 527.68L118.832 524.64L123.172 522.47L127.072 523.34L130.972 526.81L136.612 528.54L141.812 529.85L147.882 532.45H151.792L156.992 533.75L160.032 539.82L162.632 546.32L163.752 548.29Z" fill="#C7C7C7" stroke="white" stroke-width="2"/>
<path d="M228.54 529.59V528.54L225.5 527.68L219.86 524.64L216.4 526.81L211.19 525.08L207.72 521.61H204.25L202.09 526.38L204.69 529.85L207.72 534.61L208.59 536.78V540.69L207.05 542.22L204.69 540.25L199.48 538.08L193.41 538.95L191.68 542.42L192.98 545.89L195.58 550.23L194.71 553.69L189.08 556.3L180.84 555.43L178.24 551.53L173.47 549.36L167.4 547.62L163.75 548.29L162.63 546.32L160.03 539.82L156.99 533.75L151.79 532.45H147.88L141.81 529.85L136.61 528.54L130.97 526.81L127.07 523.34L123.17 522.47L120.04 524.04L119.27 520.96L118.83 509.25L114.5 504.91L111.03 501.01L108.42 496.24L109.29 491.47L112.76 487.13L113.19 480.2L111.46 467.62L109.29 460.25L103.22 453.75L97.1505 451.58L91.9505 444.64L89.3505 439L86.7405 431.2L81.1105 424.26L76.7705 419.49L72.7305 407.38L78.9405 406.05L84.1405 403.01V385.23L90.6505 380.03L92.8105 377.86L93.2505 373.53V368.76H98.8905L111.89 377.43L127.94 377L134.01 380.9L142.25 390.87L150.49 395.21L155.69 398.68L159.59 403.01L161.76 411.69L160.89 419.06L167.83 420.79L172.6 424.26L176.07 432.5L180.84 434.67L185.61 439.44L184.31 442.9L176.94 446.81V455.91L168.7 458.95L169.13 462.85L175.64 464.59L178.67 465.89L181.71 466.75L187.34 472.82L189.94 478.03L197.32 483.23L201.22 484.53L203.82 489.74L206.86 497.11L211.19 502.31L217.7 507.08L224.63 510.98L228.97 514.89L231.57 524.42L228.54 529.59Z" fill="#C7C7C7" stroke="white" stroke-width="2"/>
<path d="M176.501 456.07L176.941 455.91V446.81L184.311 442.9L185.611 439.44L180.841 434.67L176.071 432.5L172.601 424.26L167.831 420.79L160.891 419.06L161.761 411.69L161.241 409.62L175.201 409.95L180.841 406.48L180.411 397.38L181.271 386.54L186.041 380.46L192.551 375.69L198.621 372.23L206.421 372.66L215.531 376.13L224.631 376.56L235.041 376.13L244.581 377.43L249.351 373.96L246.311 370.49L242.851 367.46L239.381 361.39L238.941 357.05L242.851 354.88L245.881 351.85H249.351L255.421 355.31L257.591 363.12L259.321 373.96L261.931 377.43L269.301 385.67L271.031 390L265.391 393.91L260.191 396.94L259.761 406.48L261.931 412.12L260.191 420.36L255.421 422.96L249.781 425.56L247.181 434.23L248.051 444.21L249.351 454.18L248.051 459.38L241.981 466.75L236.341 470.66L230.271 467.19L223.771 464.15L219.431 467.62L209.021 467.19L200.351 468.92L196.881 463.29L189.511 461.55L182.571 458.95L176.501 456.07Z" fill="#C7C7C7" stroke="white" stroke-width="2"/>
<path d="M65.65 496.86L65.5 499.28L66.37 503.18L70.27 505.78L71.95 508.77L70.98 508.99L70.6 509.55L69.78 510.02V512.49L71.33 513.9L71.36 514.16L71.27 514.42L70.51 514.55L69.37 515.79L69.69 517.54L69.38 518.18L68.34 518.1L66.92 517.59L66.38 516.95L66.51 515.63L65.31 514.91L64.71 515L64.3 515.51L63.13 514.87L62.59 515.13L63.13 516.54L63.1 517.27L62.8 518.1L62.3 518.44L61.29 518.36L60.12 517.68L58.83 517.42L58.64 517.29L58.67 516.18L58.23 516.01L57.82 516.27L57.6 517.08L55.58 517.68L55.14 517L55.65 515.94L54.73 515.6L54.51 515L53.47 515.6L52.71 515.52L52.52 514.24L51.92 513.81L50.72 513.47L49.24 512.23L49.11 511.68L49.96 510.79L49.83 510.36L47.94 510.7L47.37 510.32L47.09 508.96L45.95 508.36L45.45 508.74L44.79 508.57L42.8 505.97L42.99 505.67L44.16 505.5L45.36 504.73L44.89 504.3L44.76 503.75L44.98 503.49L45.99 503.45L45.9 502.81L45.3 502.43L40.34 501.15L39.08 500.34L38.32 498.81L38.67 497.4L36.4 497.23L35.61 496.76L35.45 496.2L35.64 495.05L35.29 493.26L35.8 492.24L38.26 490.24L39.05 489.94L39.68 489.26L40.28 488.96L42.21 488.62L45.02 489L56.86 492.71L63.9 496.29L65.65 496.86ZM24.94 422.88L31.13 423.18L32.18 422.55L39.05 432.07L42.52 441.61L45.12 444.65L50.32 448.55L60.73 449.85L65.93 451.15L72.87 454.62L74.49 458.68L73.66 459.02L71.39 460.64L70.38 461.75L68.8 462.86L68.42 464.05L69.75 464.95L70.63 464.82L74.29 465.25L80.1 468.15L80.26 468.53L79.91 469.21L78.55 470.83L77.82 472.37L76.18 474.16L75.86 475.61L76.68 476.68L76.46 477.36L75.92 477.79L73.27 478.86L71.28 480.01L70.11 481.46L68.82 481.2L68 481.5L65.16 483.93L62.03 485.47L57.04 486.62L55.71 487.64L53.63 487.68L52.4 488.32L50.32 486.96L47.73 486.28L47.26 486.02L46.5 484.91L45.33 484.53L43.34 481.5L41.98 480.14L39.77 479.71L38.89 480.56L37.41 481.29L35.26 481.5L33.62 480.99L32.45 481.46H31.82L29.89 480.4L28.15 478.69L26.73 477.71L26.13 477.41L25.5 477.45L22.34 480.05L21.8 481.63L22.24 482.01L22.56 483.25L24.14 485.89L25.59 487L26.35 488.62L27.55 489.13L29.86 491.35L29.99 491.78L29.83 492.34L29.01 492.55L27.75 494.21L24.34 493.36L23.46 491.7L18.28 486.46L11.96 478.78L7.29 472.68L3.63 469.01L3.19 467.43L2.88 464.96L3.04 462.61L3.2 462.14L5.89 458.9L6.4 457.92L6.37 456.77L3.05 446.95L1.69 441.91L1 437.71L1.35 434.38L3.94 433.87L6.15 434.17L7.63 434.13L9.81 433.57L12.21 433.27L14.52 432.59L16.83 429.09L21.47 422.94L22.89 422.47L24.94 422.88Z" fill="#C7C7C7" stroke="white" stroke-width="2"/>
<path d="M375.599 385.79L372.059 380.9L362.959 380.46L357.749 374.39L352.979 360.08L343.439 359.22L337.809 360.08L334.339 373.09L333.909 377.43L329.139 378.73L320.459 380.03L319.599 385.67L313.089 387.84L305.719 391.3L300.519 395.21L293.579 394.34L285.769 390.44L280.999 391.74L275.369 388.27L270.669 389.1L269.299 385.67L261.929 377.43L259.319 373.96L257.589 363.12L255.419 355.31L249.349 351.85H247.339L241.979 347.25L239.809 342.48L240.679 332.07L244.579 328.6L247.179 323.4L245.879 318.63L242.409 312.99L236.779 307.79L235.659 307.87L234.609 300.85L241.549 293.05L242.409 289.14L251.949 287.84L256.719 289.14L274.929 287.84L283.169 286.98L289.239 282.21L291.209 275.9L297.919 276.14L300.519 280.04L302.689 282.64L310.059 286.98L318.729 288.71L325.669 291.75L340.839 293.05L345.179 290.45L352.119 288.71L359.059 291.75L366.429 290.88L372.059 294.35L378.569 293.91L385.939 293.05L384.639 303.45L388.539 316.03L381.169 318.2L375.529 324.27L376.829 330.77L381.599 336.41L388.109 341.18L387.669 346.38L385.069 351.59L385.939 361.13L389.409 363.73L388.109 370.66L383.769 372.83V379.34L380.739 383.67L375.599 385.79Z" fill="#C7C7C7" stroke="white" stroke-width="2"/>
<path d="M74.4916 458.67L72.8716 454.61L65.9316 451.14L60.7316 449.84L50.3216 448.54L45.1216 444.64L42.5216 441.6L39.0516 432.06L32.1816 422.55L33.1816 421.94L33.7516 421.17L34.0316 420.4L33.8416 419.64L32.8316 418.31L29.6016 415.82L40.3516 414.29L47.2916 411.69L56.3916 408.65L66.3616 404.75L72.4316 406.48L76.7716 419.49L81.1116 424.26L86.7416 431.2L89.3516 439L91.9516 444.64L97.1516 451.58L103.222 453.75L109.292 460.25L111.462 467.62L113.192 480.2L112.762 487.13L109.292 491.47L108.422 496.24L111.032 501.01L114.502 504.91L118.832 509.25L119.272 520.96L120.042 524.04L118.832 524.64L117.102 527.68L118.402 531.58L119.702 534.18L123.172 537.22L119.702 544.59L119.272 547.19L120.572 548.49V552.85L119.802 552.1L118.512 551.8L116.012 553.59L116.112 554.44L117.242 556.23L116.962 556.69L113.802 554.02L110.832 552.65L110.642 552.99L111.182 554.18L110.862 555.72L111.022 556.48L111.532 557.25L111.462 557.93L111.082 558.23L110.302 558.35L109.352 559.16L107.772 558.65L106.322 556.31L104.772 554.99L104.202 554.1L103.412 553.93L103.222 552.95L101.612 551.8L100.032 550.02L99.7216 549.46L99.9416 548.53L99.1216 548.36L98.8016 548.06L97.4116 545.81L96.5916 545.25L95.4816 543.89L94.3216 543.93L94.7616 542.79L94.6616 542.45L92.5216 541.68L92.3916 540.57L90.1816 538.83L87.5916 536.02L86.4816 535.64L86.6116 535.04L87.8716 533.72L88.7616 533.6L88.9516 533.17V532.91L86.9316 530.83L86.9016 529.13L87.1216 528.23L84.8716 526.36L84.2416 525.29L83.1416 525.08L82.9816 524.15L80.9916 522.83L80.4816 521.38V520.65L80.8016 520.23H82.1316L83.2316 520.57L85.7616 522.02L86.1716 521.97L86.2016 521.29L84.5116 519.38L86.9216 518.84L95.4416 511.7L98.4616 507.71L99.4316 500.16L104.652 493.15L104.622 492.92L105.052 492.32L105.182 489.3L104.172 487L103.472 486.23L103.252 485.29L104.302 482.82L104.072 481.41L104.332 479.66L103.702 475.27L103.512 469.94L104.172 466.52L104.112 465.88L103.632 465.07L103.132 464.82H101.712L100.352 465.2L96.0816 467.29L93.7216 467.68L86.9316 467.59L85.0316 467.21L83.7716 466.61L81.4016 465.12L80.8316 464.26L80.5816 462.3L81.0516 460.51L80.9316 459.48L81.6216 458.93L81.3716 457.73L82.3816 456.5L81.6816 454.28L80.5816 453.25L79.6316 453.29L78.8416 453.94L78.4016 455.04L77.4516 456.15L76.7916 458.12L76.0616 458.5L74.4916 458.67Z" fill="#C7C7C7" stroke="white" stroke-width="2"/>
<path d="M385.039 293.15L378.569 293.91L372.059 294.35L366.429 290.88L359.059 291.75L352.119 288.71L345.179 290.45L340.839 293.05L325.669 291.75L318.729 288.71L310.059 286.98L302.689 282.64L300.519 280.04L297.919 276.14L291.209 275.9L291.409 275.27L287.939 268.33L280.999 267.46L278.399 261.39L276.669 253.15L276.469 253.05L278.399 250.99V241.88L284.039 240.58L291.409 239.71L297.479 239.28L298.779 231.91L299.649 229.31L303.989 225.84L303.799 225.71L311.359 225.84L318.299 223.67L326.099 227.14L335.209 228L339.539 231.04L348.649 236.68L356.019 238.85L367.729 239.71L373.799 240.58L381.169 245.35L386.369 252.29V259.23L381.599 268.33L384.209 272.23L396.349 281.34L393.739 284.81L385.039 293.15Z" fill="#C7C7C7" stroke="white" stroke-width="2"/>
<path d="M247.339 351.85H245.879L242.849 354.88L238.939 357.05L239.379 361.39L242.849 367.46L246.309 370.49L249.349 373.96L244.579 377.43L235.039 376.13L224.629 376.56L215.529 376.13L206.419 372.66L198.619 372.23L192.549 375.69L186.039 380.46L181.269 386.54L180.409 397.38L180.839 406.48L175.199 409.95L161.239 409.62L159.589 403.01L155.689 398.68L150.489 395.21L142.249 390.87L134.009 380.9L127.939 377L111.889 377.43L98.8891 368.76H93.2491V373.53L92.8091 377.86L90.6491 380.03L84.1391 385.23V403.01L78.9391 406.05L72.7291 407.38L72.4291 406.48L66.3591 404.75L56.3891 408.65L47.2891 411.69L40.3491 414.29L29.5991 415.82L29.1691 415.49L26.9191 409.36L28.7091 403.08L30.6491 399.21L35.7691 398.94L37.5091 397.96L39.3391 397.61L42.2391 397.44L43.1291 397.06L43.3191 396.72L42.8391 390.9L41.0391 385.25L39.9691 377.46L40.6591 375.4L42.7491 372.02L43.0991 371.12L43.3491 369.11L43.1891 367.78L42.4291 366.11L40.7891 364.53L40.1291 364.06L39.2391 363.84H38.5491L36.7191 364.87L33.5291 365.81L29.1091 365.85L27.3991 365.51L26.1691 364.96L25.1591 363.97L23.8991 362.17L23.5191 361.44L23.8291 360.07L19.0991 352.62L17.0391 351.89L15.7491 352.02L14.1691 351.55L13.4691 351.12L12.7191 350.05L12.5591 348.72L12.7191 347.82L14.0691 343.49L13.3191 341.95L12.6191 341.52L12.1191 340.83L11.8291 336.72L11.5491 336.12L10.7591 335.82L10.5391 335.39L10.7891 334.66L11.2291 334.27L14.1991 334.4L17.1091 333.29L18.2391 331.61L18.3391 329.51L17.1391 325.95L16.2791 324.15L14.6091 318.7L14.3891 315.27L14.6391 315.01L14.9891 312.27L18.2691 306.08L20.3291 304.54L21.1491 303.42L21.3691 302.69L20.3891 299.39L20.3291 297.46L21.2391 296.64L24.0191 295.14L24.3991 294.06L24.2091 292.26L23.1391 291.61L21.5591 291.06L18.5891 285.99L18.7191 279.33L16.1591 275.2L16.2191 273.48L16.7291 272.88L19.4691 271.51L20.6991 270.09L26.8291 257.4L28.0291 252.72L29.1691 250.05L31.2191 244.07L32.1091 242.82L34.3791 240.93L36.1191 238.39L37.0991 237.66L38.8991 237.1L40.7591 237.18L57.4591 240.02L59.7091 240.5L64.5991 242.31L68.1991 242.65L71.0091 242.18L75.1491 240.8L78.9091 238.95L80.1691 238.52L83.3591 238.04L83.7991 237.7L84.0791 237.01L83.5791 234.52L81.2091 230.04L72.0691 206.24L84.5791 204.16L93.6791 207.19L101.049 213.26L104.959 223.23L107.119 232.77L111.459 244.48L116.229 253.15L121.429 264L127.499 269.63L132.269 272.23H155.689L169.999 272.67L173.469 279.6L177.799 281.34L185.179 285.68L196.449 293.05L207.289 297.82L218.999 309.09L236.779 307.79L242.409 312.99L245.879 318.63L247.179 323.4L244.579 328.6L240.679 332.07L239.809 342.48L241.979 347.25L247.339 351.85Z" fill="#C7C7C7" stroke="white" stroke-width="2"/>
<path d="M421.64 418.82L425.14 416.41L435.11 413.81L436.41 405.57L439.01 398.63L445.52 391.26L452.89 383.89L464.16 379.55L471.1 376.08H482.38L492.35 376.95L505.36 375.65L519.93 373L520.35 373.65L521.36 374.42L523 374.89L524.93 374.98L527.45 376.39L529.38 379.17L531.62 383.37L532.69 384.78L534.75 386.7L537.97 388.8L538.22 389.96L534.43 394.66L531.59 398.77L527.52 403.39L523.82 405.36L522.31 406.77L520.57 409.38L519.94 412.37L520.25 416.56L521.83 420.83L522.18 423.14L521.83 425.79L517.38 437.03L515.93 436.81L511.66 435.53L509.99 438.44L509.11 439.2L507.53 439.67L502.47 441.85L499.82 442.11L499.1 442.45L498.59 443.13L498.37 443.94L498.72 446.76L498.59 447.96L496.79 452.19L496.41 454.49L495.21 456.2L494.52 456.45L491.83 455.51L489.43 455.39L488.48 455.04L487.57 455L486.05 455.17L484.28 455.94L482.67 456.03L479.04 455.39L476.14 453L474.59 453.08L472.69 453.64L470.71 454.75L468.87 456.28L466.88 457.48L464.52 457.78L464.07 458.8L463.76 460.47L463.92 463.75L463.57 464.56L462.97 464.86L461.71 466.65L460.88 466.44L459.59 465.5L458.11 463.41L455.55 462.09L454.98 462.6L454.66 464.05L454.06 465.16L453.75 466.35L452.45 468.06L451.03 468.19L449.36 467.59L448.16 467.46L447.4 468.66L446.45 469.38L442.98 469.47L442.69 470.24L442.88 471.64L442.76 472.5L440.99 474.89L437.14 473.56L435.12 471.94L428.64 468.06L427.85 467.12L426.05 463.45L424.66 461.92L420.24 459.78L419.93 459.44L418.82 455L418.38 451.2L417.37 450.09L416.45 448.21L416.11 446.38L414.81 444.93L413.23 441.38L413.39 440.14L414.62 439.76L415.16 439.29L415.06 436.73L416.71 433.31V432.2L415.66 431.26L415.28 430.62L414.91 428.99L415.32 428.05L416.01 427.54L416.14 425.83L416.33 425.66L417.56 425.88H422.39L423.12 425.58L423.46 425.15L423.56 424.59L422.99 422.54L423.05 420.53L422.58 419.64L421.64 418.82Z" fill="#C7C7C7" stroke="white" stroke-width="2"/>
<path d="M354.253 131.05L353.423 135.21L356.893 140.85L354.723 155.59L350.823 157.76L347.783 163.4L342.583 166.43V170.33L345.183 174.67V180.31L342.583 183.34L338.243 185.94L337.813 192.45L335.213 197.65H327.833L323.063 201.55L319.603 206.76L320.033 216.73L317.773 223.83L311.363 225.84L303.803 225.71L296.613 220.63L293.153 212.83L289.683 205.89L281.003 204.59L276.233 197.22L268.433 192.01L265.393 186.38L257.153 182.91L253.693 179.87L248.483 178.14L241.113 175.1L228.543 161.66H216.403L211.633 167.3L204.693 166.86L197.753 167.3L194.713 162.53L189.513 162.96L188.643 152.12L186.913 143.88L187.783 138.25L186.613 136.61L189.843 130.88L191.613 128.55L193.353 127.03L195.183 126L197.673 125.13L207.623 124.09L208.103 122.23L208.663 118.13L209.113 112.33L208.823 110.34L207.463 106.75L204.463 102.3L201.053 94.81L198.403 90.83L195.123 86.81L191.303 82.91L185.963 70.4L184.983 66.54L185.333 63.21L184.983 60L184.733 59.05L182.933 56.49L182.833 53.06L182.263 52.67L181.633 52.81L181.033 52.28L180.563 52.33L179.803 53.06L179.203 54.76L178.733 54.8L177.123 52.07L175.883 51.24L175.413 49.47L173.203 48.12L171.913 47.65L171.373 44.57L170.233 41.01L170.393 37.63L169.793 35.72L168.913 33.9L169.103 29.09L170.803 25.22L170.643 23.58L170.233 22.53L169.103 20.8L168.623 20.54L167.993 20.49L167.203 20.88L165.783 22.19L164.673 25.92L163.823 27.52L163.163 27.91L161.933 27.52L160.923 25.61L160.133 19.45L160.253 18.85L160.923 17.85L163.163 15.81L164.903 14.9L170.263 14.94L170.993 14.81L172.063 14.07L173.043 12.81L174.153 8.56L176.583 3.56L178.223 2.3L179.933 2L181.663 2.61L181.983 4.74L182.423 5.65L182.993 5.73L183.503 5.56L184.103 3.43L184.443 3L186.153 2.35L188.553 2.78L189.843 3.56L190.703 3.52L192.623 2.87L195.753 3.04L196.633 3.74L199.763 7.73L200.423 8.25L205.443 10.47L214.473 17.37L215.453 17.85L219.183 20.88L220.543 20.84L221.903 20.15L224.523 17.02L229.823 11.94L230.803 11.51L232.953 11.38L236.993 13.59L237.843 13.29L239.523 11.86L241.003 11.6L243.463 14.07L244.063 13.94L245.613 12.46L246.183 12.2L246.813 12.29L248.673 13.29L250.703 15.42L251.903 30.82L254.113 34.2L257.553 37.72L261.683 41.32L263.393 44L266.453 47.69L273.843 55.36L285.023 62.82L288.903 64.63L295.223 66.41L296.963 67.1L299.393 68.53L301.923 72.04L307.103 77.11L313.323 80.83L322.413 83.56L322.883 84.82L325.353 95.81L329.803 101.95L332.233 104.07L334.033 104.94L343.543 107.06L344.903 107.84L347.553 112.46L351.123 128.11L351.873 129.24L353.203 130.45L354.253 131.05Z" fill="#C7C7C7" stroke="white" stroke-width="2"/>
<path d="M177.241 135.25L175.641 142.58L174.331 152.56L175.201 165.13L173.901 175.1V182.91L178.671 189.85L184.311 196.35V204.59L181.711 203.72L173.901 206.32L167.401 208.06L160.891 215.43L158.721 221.93L157.421 228.87L152.651 233.64L153.521 247.08L156.991 253.59L173.901 260.96L177.371 266.6L175.201 270.93L170.291 273.25L170.001 272.67L155.691 272.23H132.271L127.501 269.63L121.431 264L116.231 253.15L111.461 244.48L107.121 232.77L104.961 223.23L101.051 213.26L93.6813 207.19L84.5813 204.16L72.0713 206.24L68.1413 196.01L67.2812 191.74L67.3213 188.33L67.8812 184.67L68.9313 180.35L70.6312 175.78L72.6513 172.42L77.2012 165.64L80.8013 160.81L87.3412 153.64L88.6012 151.74L89.8313 149.11V147.42L89.0413 146.04L82.5413 141.98L81.4013 140.21L81.0513 137.97L81.3412 136.11L82.9813 134.03L91.6613 127.72L102.721 120.07L113.521 113.5L122.331 109.87L126.241 108.57L130.381 107.84L133.221 107.92L132.721 106.84L132.621 105.33L131.771 103.6L131.671 102.43L130.101 99.7499L128.301 98.0199V95.5899L130.661 95.3799L136.031 93.2999L138.241 93.0799L139.921 92.2599L142.061 92.2199L144.561 92.9499L145.661 93.0399L147.181 92.6099L149.991 90.4899L150.401 90.4399L151.661 91.2199L155.861 95.1999L156.501 96.7999L159.051 99.6999L161.201 103.16L162.151 103.51L165.241 103.38L165.721 103.68L166.411 106.37L165.871 109.13L163.851 111.25L162.841 115.23V116.05L164.261 120.2L165.081 121.46L166.631 121.54L170.901 123.23L173.741 125.17L175.131 128.5L174.941 129.89L173.861 131.57L173.801 132.26L174.461 133.08L176.391 134.16L177.241 135.25Z" fill="#C7C7C7" stroke="white" stroke-width="2"/>
<path d="M385.919 407.98L383.419 411.69L376.659 420.4L371.639 427.58L371.449 428.1L371.109 433.99L372.269 435.83V437.24L373.279 441.3L373.129 442.54L372.399 443.13L371.259 443.52L369.719 444.41L369.239 444.88L369.049 445.52L369.149 446.81L368.829 447.23L356.329 454.4L355.949 455.22L355.759 459.82L354.969 462.26L353.549 464.56L351.869 465.84L351.239 467.63L348.839 471.39L348.209 474.5L345.499 478.98L342.939 481.03L342.079 484.91L341.519 485.33L337.849 486.74L336.559 488.62L335.739 489.43L335.359 490.45L334.979 493.13L334.849 493.35L333.649 493.13L333.119 493.69L332.139 498.04L329.929 502.21L327.429 506.09L324.239 508.52L322.569 509.33L321.079 509.67L318.719 509.54L316.759 510.56L316.129 511.07L314.609 513.42L312.939 514.99L311.669 517.55L311.829 521.97L311.419 522.61L309.179 523.8L308.989 524.1L309.839 530.53L311.549 534.02L306.589 539.3L304.029 543.51L299.709 547.72L299.549 549.29L299.709 551.93L298.849 554.06L292.029 562.26L290.899 563.96L289.849 566.22L289.359 568.06L284.909 567.57L280.999 565.4L275.799 561.5L273.199 558.9L266.689 557.6L261.489 555.86L254.549 557.16L249.779 559.33L238.509 562.37L236.779 558.03L234.169 556.3L231.139 555L229.839 551.96L224.629 548.49L223.329 545.89L222.899 539.39L224.629 534.61L228.539 532.45V529.59L231.569 524.42L228.969 514.89L224.629 510.98L217.699 507.08L211.189 502.31L206.859 497.11L203.819 489.74L201.219 484.53L197.319 483.23L189.939 478.03L187.339 472.82L181.709 466.75L178.669 465.89L175.639 464.59L169.129 462.85L168.699 458.95L176.499 456.07L182.569 458.95L189.509 461.55L196.879 463.29L200.349 468.92L209.019 467.19L219.429 467.62L223.769 464.15L230.269 467.19L236.339 470.66L241.979 466.75L248.049 459.38L249.349 454.18L248.049 444.21L247.179 434.23L249.779 425.56L255.419 422.96L260.189 420.36L261.929 412.12L259.759 406.48L260.189 396.94L265.389 393.91L271.029 390L270.669 389.1L275.369 388.27L280.999 391.74L285.769 390.44L293.579 394.34L300.519 395.21L305.719 391.3L313.089 387.84L319.599 385.67L320.459 380.03L329.139 378.73L333.909 377.43L334.339 373.09L337.809 360.08L343.439 359.22L352.979 360.08L357.749 374.39L362.959 380.46L372.059 380.9L377.699 388.7L382.039 401.28L385.919 407.98Z" fill="#C7C7C7" stroke="white" stroke-width="2"/>
<path d="M515.392 341.53L513.602 338.14L510.992 324.27L517.932 315.6L525.742 309.09L528.772 299.12L529.642 289.14L539.612 279.6L541.352 270.5L546.982 262.26L547.852 250.09L550.382 251L551.862 252.59L552.722 253.1L554.202 253.36L558.122 254.78L559.602 254.95L560.112 255.17L561.272 256.46L565.192 257.88L572.142 260.93L573.782 261.92L577.442 265.79L579.812 266.99L583.512 267.98L588.622 268.54L594.212 269.7L594.592 270.17L595.002 272.71L595.732 274.13L595.692 274.86L595.282 275.33L595.382 275.63L597.372 276.66L598.132 277.35L598.792 278.38L602.742 278.6L604.322 279.63L605.582 280.79L608.902 282.64L611.392 284.7L612.682 286.5L613.002 289.55L612.912 298.92L611.992 303.46L612.532 311.11L611.932 313.51L609.752 316.9L608.042 317.89L607.282 318.06L605.202 317.84L600.152 316.43L598.762 316.77L597.432 317.84L595.792 319.9L594.532 321.06L592.572 321.83L588.432 324.06L586.322 326.08L584.612 328.27L584.422 329.47L585.212 332.73L586.762 335.52L587.112 336.59L586.982 337.4L584.932 339.89L583.822 340.87L576.152 351.68L572.832 353.22L569.142 353.17L564.782 351.59L559.792 351.08L552.562 351.12L548.522 350.78L546.152 351.2L543.242 350.56L539.962 349.45L537.082 347.86L533.522 347.3L529.882 345.5L526.692 344.22L524.672 343.88L523.602 343.15L521.392 342.72L517.442 341.13L516.372 341L515.392 341.53Z" fill="#C7C7C7" stroke="white" stroke-width="2"/>
<path d="M184.308 204.16L187.338 208.93L188.638 212.83L191.678 218.03L202.088 219.33L204.688 215L212.488 215.43L218.558 223.67L224.628 229.31L229.398 229.74L234.608 228L239.378 227.14L245.878 232.77L250.648 241.88L256.718 244.92L261.928 245.78L269.298 249.25L276.668 253.15L278.398 261.39L280.998 267.46L287.938 268.33L291.408 275.27L289.238 282.21L283.168 286.98L274.928 287.84L256.718 289.14L251.948 287.84L242.408 289.14L241.548 293.05L234.608 300.85L235.658 307.87L218.998 309.09L207.288 297.82L196.448 293.05L185.178 285.68L177.798 281.34L173.468 279.6L170.288 273.25L175.198 270.93L177.368 266.6L173.898 260.96L156.988 253.59L153.518 247.08L152.648 233.64L157.418 228.87L158.718 221.93L160.888 215.43L167.398 208.06L173.898 206.32L181.708 203.72L184.308 204.59V204.16Z" fill="#C7C7C7" stroke="white" stroke-width="2"/>
<path d="M104.62 492.92L104.65 493.15L99.43 500.16L98.46 507.71L95.44 511.7L86.92 518.84L84.51 519.38L84.43 517.76L83.42 516.31L83.07 515.97L81.56 515.5L80.45 514.1L80.3 513.63L80.45 513.03L81.43 512.39L79.28 510.05L79.38 508.6L78.87 508.35L78.62 508.47L78.59 509.33L78.31 509.67L76.76 509.54L73.73 508.22L71.95 508.77L70.27 505.78L66.36 503.18L65.5 499.28L65.65 496.86L68.83 498.38L72.62 499.02L72.97 499.87L73.57 499.61L74.64 500.34L80.77 500.72L82.79 502L85.1 504.81L87.46 505.71L88.1 505.19L88.47 503.36L86.58 501.7L86.45 501.32L87.24 501.06L87.5 500.76L86.83 500.25H84.78L84.53 499.57L85.13 499.19L86.42 499.7L88.19 499.36L88.54 498.42L88.03 496.71L88.25 495.82L87.27 494.88L86.33 493.43L85.54 493.22L85.44 492.88L84.81 492.49L84.18 490.88H83.67L82.51 489.85L81.87 488.79L81.72 486.61L80.61 485.67H79.35L79.85 484.91L79.79 483.88L77.74 480L77.52 479.02L77.93 476.55L78.81 474.25L79.13 471.86L79.73 470.71L81.08 469.08L82.03 469.25L83.52 469.94L84.59 470.06L86.26 471.26L87.97 471.09L89.3 471.94L90.53 472.2L93.56 473.73L95.26 474.25L96.34 476.21L99.37 478.68L99.91 480.43L101.17 481.75L101.3 482.31L100.92 483.37L101.52 484.61L101.3 485.59L102.46 487.85L102.87 491.17L103.92 492.62L104.62 492.92Z" fill="#C7C7C7" stroke="white" stroke-width="2"/>
<path d="M302.12 635.01L300.02 638.93L298.32 641.43L297.46 646.94L297.5 651.05L296.36 652.62L295.06 656.43L295.25 658.51L295.03 660.33L296.01 663.17L295.6 668.76L295.85 670.32L296.07 670.92L297.5 672.52L298.06 673.75L298.6 675.61L298.92 678.07L298.79 679.47L297.46 682.05L297.27 683.61L298 684.59L300.05 686.03L300.84 687.04L300.87 687.68L300.08 688.95L299.26 689.37L295.44 689.92L291.56 690.09L290.17 690.72L289.16 691.7L289.35 694.02L288.9 697.15L289.13 698.25L289.88 699.4L290.74 700.16L294.31 702.48L294.87 703.07L295.54 704.22L295.7 705.7L295.06 707.05L293.45 708.36L292.13 708.78L290.33 708.99L287.67 709.84L286.85 710.52L286.44 711.78L286.73 713.43L287.55 714.24L289.82 715.25L292.98 715.84L293.58 716.22L293.93 716.81L294.43 719.35L295 720.28L295.85 720.7L297.94 720.91L298.63 721.63L298.35 723.03L296.93 725.27L296.67 731.18L295.85 733.21L295.73 735.53L295.35 736.25L293.42 736.88L292.6 736.76L290.93 734.18L289.85 733L285.78 730.67L284.93 729.62L282.94 726.03L280.06 723.15L278.77 722.27L273.65 719.31L267.05 716.35L262.79 714.07L257.42 712.25L255.75 712L254.33 711.49L253.85 711.53L253.41 711.87L253.19 713.05L252.65 712.93L251.33 711.32L248.36 708.78L246.15 707.94L244.54 706.88L243.12 707.01L243.24 706.03L243.08 705.7L241.98 705.99L241.73 705.32L241.19 705.15L240.68 704.55L240.02 704.77L239.3 704.51L238.63 703.96L238.03 704.17L237.12 703.67L236.67 703.2L236.55 702.69L235.88 702.52L235.16 701.76L234.53 701.81L233.64 700.62L232.54 700.49L231.81 699.9L231.56 699.4L228.31 696.6L227.86 695.8L227.14 695.72L225.97 694.78L225.37 692.88L227.99 693.3L229.85 694.11L230.33 694.02L230.74 693.18L229.22 690.81L227.23 689.71L226.25 687.8L224.52 687L223.82 686.32L223.13 684.29L222.34 683.53V683.11L223.22 681.46L224.01 681.16L225.72 681.54L226.51 680.57L226.47 679.81L225.97 678.79L224.61 677.69L223.32 677.31L223.6 676.63L225.08 676L224.39 674.68L224.48 673.92L224.86 673.2L223.57 671.72L223.44 671.04L224.48 669.22L224.96 669.05L224.88 668.4L225.59 668.3L229.84 667.74H235.47L239.81 670.34L249.78 675.11L254.55 675.97L258.89 674.24L260.62 670.34L259.76 667.74L258.89 661.66L255.85 660.8L254.12 657.33L251.52 655.16L251.95 651.26L254.12 646.92L255.42 643.45L254.55 641.72L251.08 640.42L248.92 639.98V635.65L250.65 633.91L254.55 631.31L258.02 633.48L260.19 637.82L265.83 641.72H270.16L273.2 640.42L280.14 641.72L284.47 638.68L287.94 633.48L297.48 634.35L302.12 635.01Z" fill="#C7C7C7" stroke="white" stroke-width="2"/>
<path d="M186.608 136.61L187.778 138.25L186.908 143.88L188.638 152.12L189.508 162.96L194.708 162.53L197.748 167.3L204.688 166.86L211.628 167.3L216.398 161.66H228.538L241.108 175.1L248.478 178.14L253.688 179.87L257.148 182.91L265.388 186.38L268.428 192.01L276.228 197.22L280.998 204.59L289.678 205.89L293.148 212.83L296.608 220.63L303.988 225.84L299.648 229.31L298.778 231.91L297.478 239.28L291.408 239.71L284.038 240.58L278.398 241.88V250.99L276.468 253.05L269.298 249.25L261.928 245.78L256.718 244.92L250.648 241.88L245.878 232.77L239.378 227.14L234.608 228L229.398 229.74L224.628 229.31L218.558 223.67L212.488 215.43L204.688 215L202.088 219.33L191.678 218.03L188.638 212.83L187.338 208.93L184.308 204.16V196.35L178.668 189.85L173.898 182.91V175.1L175.198 165.13L174.328 152.56L175.638 142.58L177.238 135.25L178.248 136.71L179.358 137.36L180.458 137.49L181.538 138.31L182.068 139.3L182.388 140.69L185.038 138.79L186.608 136.61Z" fill="#C7C7C7" stroke="white" stroke-width="2"/>
<path d="M289.36 568.06L289.13 569.23L288.4 570.77L267.02 596.21L266.96 596.72L305.07 628.76L305.04 629.39L302.12 635.01L297.48 634.35L288.04 633.49L284.04 630.88L279.7 627.41L271.46 616.57L258.46 612.23L255.42 605.73L249.78 601.39L247.18 592.72L245.01 584.48L241.98 577.54L238.94 576.24H232.44L225.94 575.38L220.73 574.07L217.7 570.6L215.96 564.53L215.53 555.86L214.23 551.09L211.19 547.19L206.86 542.42L208.59 540.69V536.78L207.72 534.61L204.69 529.85L202.09 526.38L204.25 521.61H207.72L211.19 525.08L216.4 526.81L219.86 524.64L225.5 527.68L228.54 528.54V532.45L224.63 534.61L222.9 539.39L223.33 545.89L224.63 548.49L229.84 551.96L231.14 555L234.17 556.3L236.78 558.03L238.51 562.37L249.78 559.33L254.55 557.16L261.49 555.86L266.69 557.6L273.2 558.9L275.8 561.5L281 565.4L284.91 567.57L289.36 568.06Z" fill="#C7C7C7" stroke="white" stroke-width="2"/>
</svg>
