<svg width="616" height="727" viewBox="0 0 616 727" fill="none" xmlns="http://www.w3.org/2000/svg">
<path d="M469.851 125.55L474.181 127.15L476.191 121.86L477.361 121.5L477.731 118.13L480.151 111.71L480.421 109.92L481.401 108.95L482.471 107.18L483.091 106.97L483.801 106.23L484.021 104.21L484.291 103.68L485.841 103.02L488.031 101.55L488.201 101.23L489.321 100.94L490.721 99.6L490.811 98.67L493.491 98.15L496.161 97.28L497.581 97.3L498.911 96.96L503.201 98.83L504.311 98.89L505.371 100.94L505.311 101.47L505.911 101.49L508.251 105.58L509.391 108.76L511.401 107.89L511.781 107.95L512.471 109.13V110.13L512.961 112.05H514.281L516.321 113.84L517.111 114.89L517.821 115.16L518.881 118.08L519.581 118.63L519.941 119.87L520.621 120.21L520.661 122.02L527.191 119.05L529.911 118.31L536.481 118.66L537.731 119.5L538.521 120.63L545.331 127.62L548.461 131.22L550.961 133.56L559.981 143.85L567.511 151.43L572.021 157.65L580.221 170.04L580.411 169.99L581.751 171.37L585.091 172.26L580.601 183.17L584.361 183.57L584.851 185.42L585.441 185.37L587.781 188.8L588.191 188.95L588.811 189.84L589.241 189.97L589.881 189.61L590.061 189.71L589.661 190.94L589.521 192.43L592.701 192.27L589.391 199.77L589.411 202.72L586.611 242.67L586.741 243.27L584.541 245.87L583.571 245.27L582.401 245.32L579.841 244.7L579.041 244.15L578.621 243.53L576.701 243.66L575.231 242.67L574.001 242.28L572.911 243.43L571.661 243.3L570.611 244.36L569.411 244.21L567.941 244.62L566.701 244.08L566.391 243.71L564.991 243.74L564.541 242.15L562.831 241.66L562.411 241.73L561.611 241.14L559.111 241.4L557.981 240.46L556.291 241.5L555.021 241.45L554.491 241.68L552.141 240.8L551.501 240.95L549.871 241.94L547.491 241.55L546.991 240.98L545.361 241.16L544.831 240.69L543.981 240.64L542.791 240.88L541.891 241.37L541.371 242.2L539.931 241.68L539.061 242.33L538.731 241.86L537.331 242.46L535.181 244.75L534.551 245.71L533.061 246.44L532.461 247.51L530.641 247.4L531.211 245.79L530.891 245.25L531.911 244.13L531.681 243.61L531.351 243.5L532.161 241.66L526.761 239.78L517.131 235.2L507.031 237.47L505.731 238.2L501.001 242.1L500.891 242.59L501.241 245.61L501.731 247.07L502.171 251.43L501.941 251.88H501.571L501.491 251.33L501.131 251.3L500.861 250.65L500.151 250.6L499.721 249.8H498.721L497.771 249.38L496.761 249.33L496.431 249.61L495.231 249.48L495.051 249.07L494.391 248.81L494.421 248.16L493.721 247.79L493.111 249.72L492.601 250.26L490.861 250.78L489.931 250.63L488.981 250.03L488.451 249.35L488.501 248.34L488.071 247.92L487.901 247.33L487.461 248.13L486.511 248.83L486.401 249.43L485.941 249.8L484.511 249.07L484.011 249.98L482.501 249.93L482.111 250.6L480.681 251.36L480.461 251.3L480.321 250.58H479.921L479.341 249.8L479.261 248.96L478.791 248.16L478.941 247.09L478.261 246.13L478.001 244.86L477.001 243.61L477.161 243.27L476.461 242.75L475.971 242.8L475.651 242.46L475.561 241.92L474.121 241.06L473.721 240.54L472.491 240.1L471.321 239.05L471.271 237.88L471.701 237.36L471.161 236.43L470.211 236.48L468.251 237.41L467.041 237.49L466.471 238.33L465.941 238.4L465.481 238.14L464.511 236.82L463.931 236.74L463.231 237.62L462.801 237.7L462.001 237.18L461.461 236.45L460.331 236.37L459.401 235.67L458.561 234.26L457.691 234.34L456.491 233.74L456.321 233.38L455.871 233.54L454.451 232.73L454.281 232.05L453.021 232.52L452.171 232.55L451.321 233.72L449.291 233.48L448.911 233.04L447.691 233.54L446.931 231.97L446.411 231.48L446.211 231.61L445.671 231.27L444.691 229.97L443.881 227.16L442.091 223.25L438.891 215.01L439.611 213.76L439.951 213.52L443.591 212.64L446.661 211.1L446.851 209.84L452.011 204.13L450.981 203.09L447.981 198.96L446.851 198.33L441.241 191.8L440.451 190.76L440.101 189.74L438.891 188.17L445.561 183.02L452.201 178.75L456.411 172.89L458.421 171.3L459.151 169.88L460.301 169.15L461.301 169.07L467.801 169.7L472.771 174.8L482.141 168.1L487.661 157.65L477.311 141.57L478.001 132.64L468.561 129.07L469.851 125.55Z" fill="#C7C7C7" stroke="white" stroke-width="2"/>
<path d="M329.091 273.25L328.461 273.02L328.411 272.5L328.731 272.16L329.131 270.08L331.191 265.17L332.421 263.95L335.031 262.68L335.361 262.08L335.331 261.56L333.511 255.95L324.731 241.81L325.091 241.55L333.941 255.69L335.811 261.74L335.411 263.01L332.431 264.41L331.501 265.45L329.401 270.56L329.091 273.25ZM374.131 192.74L375.711 193.05L376.961 194.28L378.041 193.84L377.061 190.89L380.231 191.86L385.961 197.66L386.941 201.45L387.531 201.11L388.941 203.62L391.081 205.5L391.111 206H394.011L394.341 206.23L396.211 206.57L397.601 207.25L400.701 209.39L401.631 210.69L403.241 212.07L404.191 212.67L404.761 212.7L407.811 215.6L408.381 216.49L409.501 219.38L411.101 224.91L412.211 225.48L412.751 226.42V227.33L413.071 227.3L413.591 227.72L414.271 229.23L414.301 230.14L413.891 230.82L413.381 230.9L412.481 231.97L411.011 232.99L409.221 235.02L409.281 235.91L409.661 236.35L410.341 236.43L410.361 236.07L412.471 236.9L413.561 236.98L415.091 237.5L417.611 239.71L420.191 240.41L422.071 242.28L422.471 242.93L422.501 243.32L421.681 244.28L418.121 246.65L412.881 247.79L412.641 248.36L409.001 250.41L406.661 250.7L405.871 249.84L404.601 249.35L395.281 251.4L394.461 251.74L394.031 252.44L384.651 252.41L384.591 259.27L388.321 259.22L389.781 259.48L396.521 266.67L397.011 268.15L398.261 275.29L397.171 280.14L396.191 281.57L395.781 284.06L394.781 286.81L394.801 287.3L394.501 287.61L393.391 287.25L392.951 287.46L390.741 291.68L390.691 291.97L391.591 293.29L389.851 295.83L389.521 296.84L386.441 299.87L385.191 300.62L381.821 303.73L381.251 303.89L381.061 304.25L378.591 306.24L378.181 306.21L377.581 305.67L377.251 305.75L377.161 306.11L377.431 306.6L376.621 307.25L376.241 307.9L375.101 308.73L373.361 309.43L372.031 310.72L370.541 311.16L369.071 311.13L364.751 314.83L363.991 314.03L363.421 313.85L359.501 315.71L358.421 316.59L357.691 315.69L357.151 315.61L354.861 316.1L354.461 316.49L352.611 319.36L347.371 335.55L346.311 338.44L345.731 339.27L328.151 344.3L325.811 345.2L322.741 342.57L314.701 334.62L310.891 330.85L306.241 327.78L296.511 325.33L285.511 327.21L284.431 326.59L283.271 325.14L283.491 324.93L283.221 324.44L284.301 323.46L282.891 322.12L282.481 322.09L282.311 322.3L282.181 322.07L282.671 321.53L282.841 320.83L282.571 315.82L280.941 312.72L280.971 311.19L286.381 307.93L287.191 306.07L294.371 301.83L296.241 301.78L296.971 301.39L297.461 301.05L298.431 299.34L301.631 297.37L322.071 282.97L323.671 282.74L324.651 282.17L330.771 276.67L331.071 275.68L330.561 274.8L330.471 273.58L330.061 273.81L329.491 273.78L329.631 272.4L330.231 272.24L330.371 272.63L330.561 272.21L331.291 272L332.031 271.33L333.441 268.06L334.471 266.71L339.281 266.42L339.951 266.13L345.311 261.01L345.481 260.75L344.831 260.05L345.381 259.5L345.951 260.02L345.711 260.2L345.901 260.36L350.381 255.76L360.971 252.69L362.461 251.36H362.921L364.491 249.8L359.491 241.74L356.661 239.66L356.601 239.43L357.181 239.22L356.441 238.26L355.441 238.44L355.711 211.73L366.281 194.53L367.261 193.93L373.511 193.15L373.971 193.07L374.131 192.74Z" fill="#C7C7C7" stroke="white" stroke-width="2"/>
<path d="M351.559 194.49L351.659 194.83L351.329 194.86L349.919 194.31L350.139 194.07H351.059L351.559 194.49ZM345.089 193.32L344.389 193.01L344.559 192.88L345.079 193.06V193.32H345.089ZM325.849 162.29L325.629 162.03L325.789 161.51L326.059 161.82L325.849 162.29ZM324.469 151.8L324.169 150.93L324.299 150.75L324.599 151.64L324.469 151.8ZM319.979 130.09L320.389 130.85L320.979 131.09L321.689 130.91L322.529 131.78L322.879 133.33L323.909 135.33L320.859 135.12L320.529 134.17L319.489 132.67L319.139 130.33L319.229 130.12L319.979 130.09ZM314.419 130.25L314.629 131.01L314.489 131.35L313.939 131.17L313.289 131.56L312.849 131.43L308.749 132.61L295.759 144.06L295.679 144.74L294.939 145.34L294.579 145.08L294.029 145.53L294.759 145.82L295.329 145.37L295.439 145.5L294.839 146L293.859 145.71L288.239 150.59L287.589 149.72L293.099 144.89L293.009 144.31L293.739 143.92L293.149 144.42L293.249 144.76L308.039 131.71L308.709 131.34L312.729 130.24L312.829 130.06L313.339 130.37L313.939 130.21L314.079 129.97L314.419 130.25ZM272.929 68.75L277.119 69.54L277.339 69.67L277.529 70.86L276.799 71.31L276.309 72L275.599 71.68L275.899 72.23L275.239 71.97L273.989 71.92L271.629 72.58L270.409 73.82L268.459 75.17L265.829 76.38L259.989 78.44L257.159 79.84L256.879 80.47L257.909 82.95L257.609 83.32L256.709 83.48L256.439 83.82L256.359 85.22L256.789 85.4L256.489 86.38L252.629 87.96L250.479 90.28L249.509 90.75L247.369 90.57L246.029 90.81L243.129 92.39L242.339 92.44L241.819 92.02L241.039 90.54L241.059 89.78L250.019 84.11L251.379 82.9L254.729 78.97L257.139 77.02L266.439 70.68L268.589 70.07L271.739 68.75H272.929V68.75ZM284.059 73.35L283.549 74.09L282.889 74.2L282.049 75.28L281.689 75.41L280.979 75.07L280.089 75.23L280.109 74.7L280.679 74.65L281.009 74.25L280.599 73.51L279.919 73.3L281.419 71.82L281.579 71.42L283.039 70.36L283.959 69.17L284.499 68.83L285.449 68.78L285.919 69.73L285.809 70.52L284.939 72.24L284.059 73.35ZM291.649 46.12L291.549 45.91L291.909 45.49L291.649 46.12ZM450.109 41.62L446.419 47L446.549 50.36L447.359 52.74L447.899 53.59L449.039 54.54L454.259 55.97L454.939 56.34L455.529 57.24L455.969 58.91L456.669 59.76L457.779 59.63L459.629 58.33L462.259 58.96L465.159 60.23L464.319 67.55L464.379 67.79L465.869 68.13L466.279 68.76L465.349 69.84L463.969 70.34L463.479 71.13L463.399 72.05L462.929 72.6L462.739 73.71L462.499 73.9L461.269 73.53L460.099 74.22L459.819 77.26L460.359 78.82L460.279 79.74H459.839L459.459 80.14L459.049 79.61L458.749 79.64L458.339 80.48L457.659 81.09L457.739 81.83L457.469 82.38L456.509 82.75L456.969 83.41L456.869 83.81L456.159 84.39L456.379 85.13L456.319 86.42L453.579 86.87L454.019 88.53L455.319 89.56L455.569 90.83L456.249 91.75L455.999 92.93L455.489 93.51L455.249 94.49L454.509 95.73L453.479 96.57L452.909 97.47L451.959 97.58L451.489 97.9L451.269 99.3L450.229 100.3L449.979 101.14L447.949 104.88L447.509 107.65L447.259 114.31L450.089 117.84L452.079 119.6L457.289 120.39L461.659 120.21L463.969 121.45L465.129 122.58L466.059 124.05L469.859 125.57L468.579 129.09L478.009 132.66L477.329 141.59L487.679 157.67L482.159 168.12L472.789 174.82L467.819 169.72L461.319 169.09L460.319 169.17L459.159 169.9L458.429 171.31L456.419 172.91L452.209 178.77L445.559 183.03L438.899 188.18L436.949 189.83L435.029 191.06L434.179 191.14L433.389 191.58L432.789 192.21L432.079 192.34L430.019 192.1L428.229 192.83L428.749 195.44L428.429 196.01L426.039 197.47L424.699 198.02L423.989 196.58L422.189 196.82L420.879 197.26L420.389 197.68L419.869 197.71L419.189 197.58L418.379 196.85L417.779 196.72L417.039 194.71L416.119 193.35L415.629 191.34L413.489 191.81L412.789 192.28L412.599 192.67L412.769 193.66L411.299 193.06L410.539 193.37L408.889 193.58L408.829 194.13L408.179 194.44L408.419 194.88L408.229 195.17L408.199 196.48L406.779 197.42L405.969 198.65L404.589 199.51L403.989 200.45L400.679 202.02L399.919 201.94L398.459 201.16L397.719 201.19L397.149 200.85L395.659 200.9L394.809 200.46L394.189 201.03H393.809L393.459 199.96L391.529 198.86L391.289 198.47L387.509 201.11L386.919 201.45L385.939 197.66L380.209 191.86L377.039 190.89L378.019 193.84L376.939 194.28L375.689 193.05L374.109 192.74L374.219 191.62L373.819 192.06H373.519L373.249 191.72L372.759 192.19L372.379 191.8L372.439 191.02L372.059 190.71L369.989 190.4L368.069 190.5L368.389 189.59L368.179 189.51L367.829 190.56L367.289 190.66L367.259 191.21L366.749 190.79L365.579 190.92L365.489 190.58L364.859 190.08L365.239 189.77L365.159 187.99L363.389 186.68L362.359 186.94L359.159 189.14L356.949 188.83L354.119 189.48L353.739 190.19L353.409 191.89L353.059 192.26L351.179 193.36L348.919 193.83L348.139 193.73L344.629 192.37L338.079 189.34L334.059 188.14L333.019 188.06L332.529 188.3L332.419 188.9L330.899 189.03L328.639 189.79L327.229 189.29L324.289 187.59L321.869 184.98L319.829 183.49L319.019 182.55L319.269 182.05L319.159 181.79L318.419 181.66L317.329 179.86L318.069 179.21L318.539 178.27L320.109 176.46L322.359 175.44L323.009 174.79L324.639 174.34L325.509 173.11L325.669 170.44L325.349 169.89L324.829 166.3L323.959 165.25L324.799 164.52L325.339 164.68L325.749 164.39L325.669 164.15L325.089 164.2L325.149 163.96L325.769 163.91L326.009 164.22L326.229 163.98L326.209 162.15L326.349 161.97L326.669 162.31L326.649 162.02L326.159 161.29L326.099 160.64L325.589 160.82L325.339 160.66L326.509 160.37L326.669 159.16L325.819 155.99L325.489 155.62L325.189 154.49L325.269 153.94L324.949 153.76L324.729 152.37L324.789 149.8L324.379 149.33L325.759 147L325.429 146.48L325.809 144.3L325.409 144.43L324.409 143.91L324.599 142.73L324.159 142.47L324.319 142.18H324.889L324.999 141.08L325.209 141.45L325.429 141.4L324.939 139.96L325.219 137.47L324.749 139.23L324.669 141.28L324.069 141.7L323.659 141.25L323.599 140.36L322.999 139.1L322.559 138.39L321.449 137.39L321.199 135.84L321.419 135.63H322.419L322.609 136.31L323.239 136.34V135.66L323.909 135.61L324.399 136.4L325.129 136.3L324.389 134.54L323.819 133.88L323.359 132.86L323.059 131.68L323.279 130.79L323.059 129.74L321.619 126.61L321.349 126.48L320.759 126.61L316.789 130.34L315.679 130.87L315.409 131.37L314.939 131.32L314.499 129.85L314.709 129.61L315.039 129.82L315.959 129.53L316.579 129.11L320.999 124.83L321.299 124.41L321.739 122.28L321.409 121.7L321.499 121.38L324.059 119.83L325.409 118.07L326.309 114.83L326.749 108.93L327.239 106.72L327.189 105.61L326.339 105.14L326.129 104.56L326.699 103.98L326.889 103.43L328.029 102.8L328.219 102.14L327.979 101.98L329.249 98.11L329.989 96.74L330.619 94.84L332.229 92.26L334.599 90.15L337.719 86.62L339.019 86.09L340.889 84.64L342.789 83.56L343.149 83.11L344.859 82.16L346.409 80.26L349.269 77.62L350.229 74.93L354.629 70.49L359.089 68.19L361.049 67.77L366.999 65.52L368.469 65.23L369.889 64.52L370.949 64.47L372.659 63.23L382.549 57.44L386.209 56.01L387.699 55.14L388.369 55.01L388.799 54.56L391.109 53.95L392.929 52.68L396.349 50.78L398.759 49.99L399.659 49.01L401.349 48.53L402.059 48.08L400.349 45.62L400.459 45.38L400.899 45.99L401.249 45.62L401.549 46.28L401.329 46.62L402.229 47.89L403.509 48.1L404.489 47.54L406.779 47.86L411.339 46.51L413.219 45.66L415.149 45.4L415.389 44.9L415.819 45.35L418.179 44.93L422.389 43.58L426.649 43.24L430.749 42.5L433.299 43.19L433.579 42.5L433.899 43.19L434.569 42.16L434.889 42.64L436.349 42.69L441.519 43.62L447.799 40.65L448.859 40.57L450.109 41.62ZM344.849 32.18L343.009 32.34L342.839 32.66L343.109 32.98L347.329 32.4L347.959 32.48L348.319 33.2L347.849 35.03L345.409 36.43L344.669 36.64L343.559 36.88L343.259 36.75L343.399 36.54L343.229 36.41L342.959 36.62L342.599 36.51L340.749 37.94L337.979 39.37L336.509 39.16L335.669 38.39L335.559 39.05L335.969 39.77L335.949 40.64L334.409 40.27L333.139 39.34L332.269 39.18L332.159 39.52L332.349 39.73L334.299 41.11L336.749 42.04L336.449 42.41L335.979 42.07L335.549 42.2L335.199 42.6L335.499 42.86L335.059 43.15L333.569 43.49L327.029 43.28L324.939 43.41L322.469 44.05L321.169 44.63L318.189 47.67L316.339 48.91L315.259 49.33L314.469 49.38L313.049 50.41L311.179 49.72L310.799 50.46L309.789 50.96H308.999L308.539 51.6L308.399 52.23L306.979 52.07L305.509 51.51L303.929 52.07L302.549 51.65L300.079 53.82L299.969 53.56L299.339 53.27L296.729 53.59L296.069 54.49L296.149 55.76L295.929 55.95L296.169 56.4L295.619 56.48L295.019 56H294.369L294.119 56.4L293.339 56.82L292.439 58.04L291.619 58.44L290.919 59.31L289.049 58.86L286.609 57.3L286.389 56.93L285.949 54.73V53.65L286.839 52.54L289.359 50.32L290.929 47.99L291.549 46.43H291.739L291.569 47.22L291.839 47.19L292.009 46.18L292.689 45.39L292.609 45.2L291.999 45.27L292.459 44.95L309.299 41.8L312.339 41.06L312.769 41.43L313.589 41.32L328.989 36.31L329.729 35.57L332.819 34.7L342.379 30.86L345.499 30.28L347.159 30.31L347.939 30.47L348.209 30.81L348.179 31.39L347.879 31.76L344.849 32.18ZM429.559 28.82L429.829 30.94L429.429 30.25L428.959 30.86L427.769 31.44L427.259 32.1L426.389 31.68L426.059 30.2L426.979 28.85L428.209 28.96L429.439 28.67L429.559 28.82ZM376.009 28.76L384.479 28.42L395.159 27.2L397.419 27.6L408.659 27.02L414.529 27.26L415.609 27.45L416.279 28.11L415.959 28.75L415.369 29.07L413.769 29.41L410.049 29.28L408.669 29.49L405.319 29.2L403.099 30.23L402.359 30.84L399.839 31.48L399.349 31.43L398.039 32.07L393.659 33.02L393.409 33.29L389.029 34.51L386.099 34.35L384.549 34.62L384.389 34.49L384.299 35.42L383.979 35.76L383.629 35.57L383.909 35.36L383.959 34.06L380.829 33.87L377.889 33.13L376.289 33.24L375.709 33.64L375.199 34.86L372.989 36.56L370.599 37.28L369.269 38L367.279 38.11L367.249 38.98L366.789 39.35L365.869 39.08L363.579 37.54L361.349 36.51L360.179 35.18L358.759 32.9L358.709 31.31L359.389 27.97L360.069 26.83L360.829 26.22L361.779 25.88L363.299 25.85L366.669 27.2L372.219 28.5L376.009 28.76ZM443.639 15.71L445.059 15.98L446.609 17.44L448.759 17.81L451.119 17.92L462.699 16.33L469.139 15.72L474.919 15.48L475.209 15.93L474.959 16.59L472.439 17.89L470.939 18.53L469.279 18.82L465.699 20.54L463.769 20.89L462.709 22.22L458.749 24.08L457.709 24.32L454.579 24.4L450.939 25.22L451.749 26.2L451.689 26.47L450.909 25.99L450.559 25.35H446.329L446.349 26.38L446.019 26.41L445.859 25.4L444.779 25.61L444.479 26.3L444.069 26.49L444.479 27.05L443.129 26.86L442.699 27.2L443.129 27.81L442.829 28.05L442.769 28.5L443.279 29.22L442.329 29.41L440.909 28.88L440.069 28.96L438.949 30.47L438.429 30.55L437.799 30.28L437.749 30.07L438.149 28.93L438.419 26.73L438.939 24.93L440.079 22.7L441.499 20.63L444.589 17.87L445.379 17.55L445.139 17.18L439.189 15.8L438.019 18.77L437.319 18.82L436.989 18.61L437.099 17.65L438.189 15.13H440.139L443.639 15.71Z" fill="#C7C7C7" stroke="white" stroke-width="2"/>
<path d="M398.239 275.27L400.389 274.47L402.849 276.65L404.949 279.27L406.059 281.16L407.709 284.66L408.209 286.27L409.409 285.72L410.029 286.29L412.039 284.79L412.969 284.56L414.339 286.53L421.229 279.4L422.939 278.8L423.609 278.26L424.049 277.48L425.029 278.02L425.649 278.1L428.689 280.49L429.699 282.95L430.509 284.17L431.769 285.2L434.159 286.27L435.509 287.9L435.939 289.17L436.129 291.99L435.969 294.43L436.579 295.23L437.829 296.16L440.179 299.63L441.079 302.22L441.169 303.18L440.289 306.59L439.589 307.99L439.539 310.42L439.199 311.14L438.779 311.61L435.889 312.72L432.749 313.32L432.119 314.19L432.089 315.12L432.379 315.72L432.739 316.03L433.999 316.31L434.499 316.73L434.719 317.27L433.849 317.99L432.249 318.48L431.849 319.16L432.059 321.77L431.839 324.3L431.579 326.13L430.949 326.91L430.929 327.42L432.499 327.63L433.039 328.82L433.129 331.63L434.189 331.97L435.839 331.99L436.169 332.59L436.619 334.03L437.439 335.19L437.569 337.69L439.079 339.55L439.529 341.51L440.409 342.29L439.499 343.6V344.61L441.299 345.02L442.189 345.66L444.149 345.48L444.229 346L443.959 346.9L442.849 347.62L442.519 348.47L442.949 350.12L444.019 350.9L445.369 351.23L445.789 351.98L445.749 352.8L446.089 353.11L446.379 352.8L446.409 352.34L445.839 351.67L445.539 350.82L446.159 351.08L446.279 350.84L445.949 350.59L446.319 349.92L447.039 350.69L447.189 349.17L447.409 348.27L447.629 348.16L448.339 348.24L448.989 347.96L450.019 348.27L451.759 348.19L454.069 349.92L456.509 350.25L457.599 350.66L458.689 350.64L459.119 350.97L461.209 350.79L462.739 351.23L462.819 350.48L463.859 350.84L464.229 350.33L466.059 349.84L466.189 350.25L466.669 350.35L466.779 350.79L467.269 351.23L470.539 351.26L471.809 350.9L473.199 350.84L473.289 348.65L474.339 347.96L474.969 347.85L475.289 347.16L478.279 346.98L480.039 346.23L480.939 346.67L482.979 346.54L485.559 346.85L485.509 348.14L486.619 349.71L487.269 351.57L490.459 354.91L491.759 357.54L492.699 357.9L493.739 357.95L494.059 358.26L494.129 359.68L494.999 361.64L495.529 362.33L497.059 363.08L497.579 363.59L498.119 363.77L501.139 362.69L507.429 363.72L513.119 362.56L513.229 362.3L513.709 362.59L513.759 363L514.739 363.41L515.049 364.03L515.749 364.52L515.239 365.57L515.349 365.99L516.679 367.22L518.009 366.22L518.679 365.99L518.949 365.16L519.329 364.85L520.169 365.11L520.939 366.19L521.719 364.83L522.379 364.88L525.639 366.6L526.079 367.01L526.369 367.86L526.339 368.48L525.829 369.23L526.269 369.46L526.239 370.87L526.449 371.59L526.239 373.24L524.559 375.94L526.889 377.02L530.339 377.66L533.049 378.92L540.179 378.87L539.499 384.19L538.949 385.06L538.809 384.7L538.409 384.55L537.489 385.42L537.629 386.09L538.379 386.81L538.409 387.53L536.449 389.97L529.719 391.1L530.069 391.77L529.979 392.54L528.979 394.62L528.439 394.85L528.379 395.85L528.619 396.13L528.599 399.13H532.919L539.069 402.08L540.609 403.44L541.129 404.5L542.209 404.93L547.589 409.34L547.599 410.29L547.889 410.62L550.749 411.06L551.259 412.7L551.099 414.49L551.619 416.54L551.319 417.65L550.859 418.46L548.759 418.54L547.979 419.28L546.319 419.87L545.879 423.15L545.909 425.33L544.249 427.02L544.609 427.43L542.099 430.5L539.199 431.7L539.169 432.6L538.849 432.93L536.509 433.75L535.749 435.15L534.259 435.87L531.639 433.8L531.129 433.24L531.019 432.24L530.629 432.44L530.309 432.31L529.749 430.93L528.959 430.91L528.199 430.45L527.429 430.68L521.129 433.67L520.119 434.72L519.559 434.77L518.769 434.49L511.449 436.94L509.549 438.25L508.379 439.37L507.919 439.4L507.219 438.45L506.019 438.94L504.849 440.19L503.279 441.21L501.479 441.96L499.989 443L499.529 443.44L499.499 444.18L498.829 445.13L495.619 445.99L494.259 446.79L493.409 446.48L491.809 444.33L491.109 443.74L490.259 444.44L488.309 445.41L487.809 445L487.519 443.57L485.809 443L485.399 442.39L482.789 442.16L481.979 441.42L481.629 441.57L481.759 442.24L481.139 443.98L481.249 444.33L483.679 446.28L484.849 446.58L484.929 446.99L483.719 448.68L483.709 449.65L484.419 451.13L484.339 451.31L483.739 451.15L484.259 452.92L484.119 453.33L483.609 453.5L480.949 451.74L478.489 451.67L477.489 451.21L477.709 450.52L477.109 449.01L475.969 447.99L471.249 447.37L468.329 447.65L467.519 444L467.109 443.74L467.299 442.98L465.599 442.16L464.809 442.06L464.259 441.52L463.059 441.34L462.359 441.62L461.669 442.54L460.399 442.93L457.829 442.88L457.139 442.65L454.239 443L453.479 442.82L451.519 441.67L449.309 439.4L449.199 438.38L450.409 438.15L450.019 437.69L450.069 437.15L446.679 434.57L446.469 435.05L444.589 433.87L440.979 434.49L439.909 435.31L438.739 434.39L438.169 435.51L437.659 435.21L437.339 435.51L437.409 436.18L436.619 436.82L439.069 436.87L440.749 438.07L441.849 438.58L442.719 441.01L442.819 442.42L445.899 444.9L445.839 446.43L446.189 449.95L442.799 448.73L440.429 448.22L437.709 448.32L435.669 447.86L434.369 447.22L431.879 445L430.079 443.87L429.209 445.48L428.179 445.92L428.549 446.76L428.399 447.32L426.519 448.37L425.189 449.6L424.669 449.06L422.799 449.75L421.989 451.36L420.129 452.3L417.829 452.56L416.349 452L415.139 451.9L413.829 451.08L411.269 454.25L413.369 455.88L412.859 456.54L412.629 456.36L412.409 456.59L412.039 456.31L411.849 456.47L411.599 456.24L411.309 456.57L411.409 457.08L414.099 458.53L414.679 459.56L416.309 460.83L416.379 461.19L415.809 461.55L416.169 461.93L415.569 463.1L416.079 464.15L417.069 464.12L417.789 464.61L418.259 464.45L418.429 464.71L417.389 465.76L417.219 467.11L418.309 468.36L418.229 469.1L413.399 472.69L412.859 472.85L412.529 473.28L412.519 474.55H411.919L411.759 475.04L411.409 475.22L409.589 475.34L408.939 474.66L408.909 474.2L408.239 473.61L407.119 473.05H406.439L405.919 470.19L402.929 466.37L401.929 466.19L398.649 466.62L398.589 467.21L399.449 470.35L398.559 471.29L396.189 470.86L389.049 471.65L385.219 472.64L382.909 472.62L381.819 472.39L380.519 471.75L379.589 470.96L378.759 469.63L378.939 469.48L378.509 468.74L377.309 467.52L376.599 467.11L373.559 466.6L372.799 465.86L371.669 463.92L370.469 462.77L367.509 462.26L365.819 461.19L364.729 459.58L363.789 456.8L362.749 455.65L361.939 455.42L359.959 455.47L359.059 455.11L356.409 453.38L354.399 452.89L352.479 453.28L349.679 453.48L348.969 454.09L347.799 456.03L346.779 456.34L343.489 455.52L341.059 453.1L340.079 452.59H339.489L337.949 453.25L337.379 454.35L337.149 455.8L336.469 456.77L335.599 457.39L333.619 457.87L332.589 458.02L330.389 457.82L328.809 457.16L327.349 455.09L326.849 454.76L325.549 454.78L325.059 455.19L324.269 456.62L322.399 459.02L319.649 463.69L318.669 466.95L318.519 470.3L317.909 471.37L317.109 471.95L312.109 474.25L308.929 476.44L308.189 476.49L306.069 475.73L304.309 475.57L303.189 475.96L301.969 476.98L300.959 477.31L299.799 476.87L298.159 475.4L297.019 474.91L296.119 474.81L292.399 475.62L289.259 474.86L287.209 474.94L281.619 476.36L281.559 474.5L283.389 472.97L284.089 471.93L283.349 471.29L283.059 470.63L283.129 469.61L283.599 468.26L283.489 467.52L279.879 465.76L278.279 464.1L277.489 463.69L276.529 463.54L275.609 463.94L274.069 465.58L272.949 465.73L272.379 465.5L270.989 463.97L270.289 462.49L269.499 461.95L269.519 461.24L269.149 460.86L264.909 458.92L263.689 457.85L262.839 455.78L261.909 455.11L264.279 455.16L265.309 450.18L261.909 449.72L260.959 448.14L261.299 446.73L260.719 444.87L261.129 444.44L262.929 446.02L266.939 445.92L268.469 446.53L268.989 445.94L270.779 445.23L271.369 444.67L270.279 444L269.879 443.13L270.129 442.26L271.429 441.62L273.349 441.6L274.449 440.98L275.499 439.42L275.669 438.17L276.119 437.81L277.059 438.1L278.089 437.84L279.789 438.25L280.149 437.56L280.439 435.38L282.629 431.32L283.379 431.67L283.279 430.06L285.309 427.12L285.179 426.48L285.639 426.38L290.209 417.67L292.379 419.08L294.409 419.52L295.259 419.31L296.389 418.31L297.779 415.62L298.459 414.78L299.659 414.47L300.909 415.21L302.759 417.13L304.519 418.08L306.529 418.62L309.089 418.95L311.539 420.59L312.889 420.67L314.819 419.69L316.389 417.67L317.639 416.8L318.979 416.59L321.279 417.08L322.789 416.98L327.759 415.08L329.839 413.32L330.879 412.75L335.199 413.6L337.989 413.29L338.899 413.52L341.059 414.83L342.099 415.78L347.209 417.67L348.349 419.49L349.489 420.39L350.719 420.92L354.819 421.97L357.499 423.77L359.089 422.36L359.999 422.87L359.929 421.56L360.869 421.33L360.879 419.8L360.189 418.13L360.159 417.44L360.569 416.8L360.739 415.72L359.139 413.83L358.789 411.73L358.109 410.67L357.119 410.47L355.849 409.29L355.199 408.6L355.059 406.96L354.789 406.52L354.299 405.98L353.919 406.39L352.369 404.7L353.239 404.68L353.449 400.19L350.439 399.06L350.649 397.29L349.439 396.77L349.999 395.26L350.389 391.48L350.219 391.13L350.679 389.23L350.419 387.22L349.979 387.2L349.459 386.58L349.329 384.73L348.729 384.32L349.029 383.6L348.759 382.13L347.689 382.29L347.769 382.78L347.429 382.85L347.019 382.37L345.609 382.73L345.719 383.39L346.199 383.55L346.209 383.91L346.609 384.24L346.169 385.27L347.019 385.5L346.939 386.17L346.829 386.68L345.549 386.3L345.039 387.2L346.089 387.63L344.569 389.25L343.249 388.97L341.849 389.07L341.439 390.46L339.579 390.48L338.239 390.95L335.519 389.33L335.419 388.84L334.789 388.69L334.489 388.35L336.199 386.17L338.479 384.73L338.269 382.06L339.649 380.72L339.729 380.23L338.619 379.51L341.889 379.85V379.49L341.229 379.13L341.259 378.25L340.489 378L339.759 377.1L340.119 377.17L340.339 375.73L342.069 375.48L342.839 373.99L340.709 372.93L340.599 372.55L340.899 371.05L339.269 371L337.989 370.44L338.209 368.71L337.759 368.56L337.859 368.02L336.829 367.58L336.749 367.19L330.709 366.37L328.189 365.47L328.319 364.54L328.059 363L327.539 362.48L328.219 361.94L329.409 362.3L330.059 361.76L330.469 359.78L330.419 358.26L323.949 352.98L325.769 345.15L328.109 344.25L345.689 339.22L346.279 338.39L347.339 335.5L352.579 319.31L354.429 316.44L354.819 316.06L357.119 315.56L357.659 315.64L358.379 316.55L359.459 315.67L363.379 313.81L363.949 313.99L364.709 314.79L369.029 311.09L370.499 311.12L371.989 310.68L373.319 309.38L375.059 308.69L376.199 307.86L376.579 307.21L377.389 306.57L377.119 306.07L377.209 305.71L377.549 305.63L378.149 306.18L378.559 306.2L381.029 304.21L381.219 303.85L381.789 303.69L385.159 300.59L386.409 299.84L389.489 296.81L389.819 295.8L391.569 293.26L390.659 291.94L390.709 291.65L392.929 287.43L393.369 287.22L394.479 287.59L394.779 287.28L394.759 286.78L395.759 284.04L396.169 281.55L397.149 280.12L398.239 275.27Z" fill="#C7C7C7" stroke="white" stroke-width="2"/>
<path d="M544.88 29.37L545.53 29.79L546.27 29.71L548.3 27.83L548.82 27.64L551.57 28.75L551.9 29.68L551.84 30.42L551.51 30.98L548.76 30.42L548.65 30.92L551.12 31.53L550.95 32.25L549.67 32.01L549.51 32.43L551.6 32.93L552.68 32.8L553.87 33.12L553.98 32.59L552.7 32.35L552.45 32.06L553.12 29.52L556.22 30.5L559.72 33.84L559.64 35.09L558.39 38.61L558.22 42.32L559.11 43.22L560.52 45.63L560.09 46.32L560.66 46.56L560.87 47.04L560.66 49.82L561.56 52.52L561.51 53.79L562.4 57.73L562.73 58.29H563.73L566.61 60.85L567.28 61.72L568.07 61.83V62.28L567.48 62.41L567.13 63.68L568.78 64.21L569.21 64.82L569.75 64.74L571.68 65.45L572.2 65.85L573.07 65.82L573.91 66.08L576.43 67.3L577.27 67.49L578.36 68.49L579.48 69.15L582.07 70.15L584.14 70.07L585.15 70.41L585.53 70.83L590.21 70.72L590.87 69.77L592.67 69.43L593.26 68.77H593.69L593.72 69.46L593.29 69.59L592.33 70.88L591.4 71.59L591.07 73.94L591.35 75.81L590.08 79.32L590.16 80.32L590.73 80.61L590.81 81.35L591.27 81.88L592.41 82.43L592.81 82.9L593.44 82.98L593.73 83.53L595.77 83.61L596.51 83.35L596.53 83.77L596.72 83.82L599.2 83.93L600.81 85.12L602.68 85.62L603.77 85.2L605.24 86.31L607.11 86.65L607.54 87.02L610.4 87.73L610.65 87.97L610.95 87.71L610.73 87.1L611.2 85.94L611.74 89.66L611.68 90.85L612.34 92.85L612.55 97.57L612.31 98.36L611.31 99.52L611.06 100.18L613.97 102.31L614.02 102.92L611.55 104.03L610.24 104.08L608.55 107.29L608.5 107.95L608.09 108.77L608.03 111.3L607.03 113.14L606.48 113.51L607.11 117.9L609.96 120L609.63 128.75L611.69 146.11L612.5 148.18L611.22 149.78L607.3 163.49L607.06 165.04L594.92 185.17L592.29 188.54L591.94 189.3L592.73 192.25L589.55 192.41L589.69 190.92L590.09 189.69L589.92 189.59L589.27 189.96L588.84 189.83L588.22 188.94L587.81 188.78L585.47 185.36L584.88 185.41L584.39 183.55L580.62 183.16L585.11 172.25L581.77 171.36L580.43 169.97L580.24 170.02L572.04 157.63L567.53 151.42L560 143.84L550.98 133.55L548.48 131.21L545.35 127.61L538.55 120.62L537.76 119.49L536.51 118.65L529.94 118.31L527.22 119.05L520.68 122.02L520.65 120.21L519.97 119.87L519.61 118.63L518.91 118.08L517.85 115.16L517.14 114.9L516.35 113.85L514.31 112.06H513L512.51 110.14V109.14L511.81 107.96L511.43 107.91L509.42 108.78L508.28 105.59L505.94 101.51L505.34 101.48L505.4 100.95L504.34 98.89L503.23 98.84L498.94 96.97L497.61 97.31L496.19 97.28L493.52 98.15L490.85 98.68L490.76 99.6L489.37 100.94L488.25 101.23L488.08 101.55L485.9 103.03L484.35 103.69L484.08 104.22L483.86 106.25L483.15 106.99L482.53 107.2L481.45 108.96L480.47 109.93L480.2 111.72L477.78 118.14L477.42 121.51L476.25 121.88L474.24 127.16L469.9 125.56L466.1 124.04L465.17 122.57L464.01 121.44L461.7 120.2L457.33 120.38L452.12 119.59L450.13 117.83L447.3 114.3L447.55 107.64L447.99 104.87L450.02 101.13L450.27 100.29L451.31 99.29L451.53 97.89L452 97.57L452.95 97.46L453.52 96.56L454.55 95.72L455.29 94.48L455.53 93.5L456.04 92.92L456.26 91.73L455.58 90.81L455.33 89.54L454.03 88.51L453.59 86.85L456.33 86.4L456.39 85.11L456.17 84.37L456.88 83.79L456.98 83.39L456.52 82.73L457.48 82.36L457.75 81.81L457.67 81.07L458.35 80.46L458.76 79.62L459.06 79.59L459.47 80.12L459.85 79.72H460.29L460.37 78.8L459.83 77.24L460.11 74.2L461.28 73.51L462.51 73.88L462.75 73.69L462.94 72.58L463.41 72.03L463.49 71.11L463.98 70.32L465.36 69.82L466.29 68.74L465.88 68.11L464.39 67.77L464.33 67.53L465.17 60.21L462.27 58.94L459.64 58.31L457.79 59.61L456.68 59.74L455.98 58.89L455.54 57.22L454.95 56.32L454.27 55.95L449.05 54.52L447.91 53.57L447.37 52.72L446.56 50.34L446.43 46.98L450.12 41.6L450.69 41.28L451.51 41.2L451.78 41.46L451.48 41.8L451.56 42.2L452.19 42.23L458.2 40.46L459.74 40.35L461.07 40.75L466.26 43.66L467.05 44.19L468.38 46.18H468.62L470.91 44.75L472.71 43.13L477.52 40.93L482 39.21L488.65 38.1L508.32 35.85L513.07 34.47L515.87 33.36L518.28 32.03L522.74 30.25L530.22 27.81L537.34 26.93H539.06L543.06 28.23L544.88 29.37ZM484.21 12.61L484.95 12.74L484.87 13.4L482.72 13.11L481.03 13.22L480.81 12.8L481.09 12.35L481.98 12.27L484.21 12.61ZM512.46 11.07H513.39L513.56 11.26L513.48 11.55L512.94 11.79L513.07 12.32L512.9 12.51L510.72 11.71L510.36 11.15L510.5 10.73L511.56 10.6L512.46 11.07ZM517.16 6.55L517.24 6.87L517.05 7.08L515.61 6.6L514.82 6.79L514.73 7.35L515.66 8.15L515.61 8.73L512.37 7.19L511.72 7.06L509.81 7.43L509.43 6.93L509.49 6.51L510.42 5.39L511.43 5.1L514.85 5.47L517.16 6.55ZM497.68 5.91L499.12 6.02L500.24 6.5L502.95 8.76L502.92 9.13L502.38 9.21L500.34 8.55L499.71 8.66L498.89 7.65L498.7 7.68L498.37 8.13L498.67 9.19L498.37 9.75L496.79 9.78L496 9.47L495.15 10.05L495.75 10.74L495.64 11.32L494.86 11.85L493.47 11.45L492.76 10.87L492.41 8.77L490.54 7.44L489.89 6.46L489.79 4.52L490.66 2L491.26 2.08L491.94 4.39L497.68 5.91Z" fill="#C7C7C7" stroke="white" stroke-width="2"/>
<path d="M398.56 471.29L399.45 470.35L398.59 467.21L398.65 466.62L401.93 466.19L402.93 466.37L405.92 470.19L406.44 473.05H407.12L408.24 473.61L408.91 474.2L408.94 474.66L409.59 475.34L411.41 475.22L411.76 475.04L411.92 474.55H412.52L412.8 475.98L418.83 476.13L420.6 477.43L423.99 478.89L424.91 479.83L425.41 481.03L425.73 481.26L426.08 480.95L426.84 481.54L426.92 481.94L426.63 482.68L425.38 482.53L425.02 482.68L424.23 483.17L424.04 483.9L424.32 485.59L424.94 486.32L425.05 487.11L425.1 488L424.34 488.92L424.72 490.47L424.61 491.52L424.99 492.46L426.25 493.27L428.42 493.88L432.14 495.36L432.36 495.82L433.31 495.49L433.67 495.77V496.2H435.05L438.31 497.01L438.28 498.57L437.79 499.36L437.44 499.53L436.52 503.22L436.24 503.27L435.32 506.09L434.72 505.81L434.73 507.67L434.29 509.83L436.74 511.56L439.04 513.54L440.03 515.44L441.74 517.32L444.31 519.58L445.29 520.78L446.79 524.53L448.04 527L449.64 528.06L451.43 529.66L453.69 533.62L453.66 538.91L454.45 540.69L455.27 543.86L454.53 549.23L454.58 550.21L453.94 550.27L453.75 550.57L453.69 555.15L452.5 562.11L455.64 561.96L455.62 562.41L453.77 565.45L455.64 571.9L450.02 577.08L449.96 577.43L450.41 578.57L446.58 579.4L446.54 580.28L445.67 581.27L445.16 582.36L445.1 583.52L444.37 584.68L444.29 585.64L442.55 588.29L440.35 591.09L439.46 593.18L439.35 594.02L433.34 600.65L431.24 601.94L433.48 606.72L433.28 607.1L431.5 607L430.68 607.4L430.63 607.76L431.08 610.5L431.63 616.98L433.04 619.72L434.05 620.05L435.73 620.12L436.19 619.67L436.79 619.57L437.83 618.89L439.34 617.3L446.11 614.03L447.12 614.61L448.74 616.07L442.23 619.09L442.04 619.39L447.49 622.79L447.61 623.19L445.67 624.53L445.59 625.58L444.97 625.56L444.54 625.81L443.25 625.68L440.68 626.64L440.18 626.39L439.46 626.79L439 627.47L436.79 628.6L434.38 629.03L433.77 630.74L433.4 630.94L433.5 631.72L433.13 631.79L432.68 631.24L432.5 632.2L431.96 632.42L431.46 633.05L429.64 633.63L428.99 634.08L428.78 635.36L426.82 637.63L424.99 639.03L423.23 639.56L422.53 639.13L422.29 639.74L421.58 639.84L420.95 640.79L419.08 642.23L418.13 644.13L416.66 644.66L416.92 645.47L416.08 646.8L415.21 647.55L415.29 648.2L414.92 648.88L415.14 649.43L414.86 649.94L414.89 651.62L413.88 652.27L413.12 652.44L413.42 653.85L412.82 654.05L412.37 653.6L411.09 653.57L409.89 654L409.64 652.67L408.1 650.51L407.07 647.15L406.23 646.17L402.71 649.43L398.53 650.01L398.81 651.57L400.7 653.88L400.44 655.13L399.9 655.18L399.81 655.63L400.82 658.19L401.76 659.37L403.43 660.15L403.39 661.63L404.86 662.28L404.48 664.04L404.64 665.84L403.01 667.65L403.75 669.1L404.89 669.17L407.44 668.15L409.49 666.52L412.61 665.82L412.85 665.87L413.15 666.54L414.35 667.37L414.73 668.05L415.7 667.82L416.06 667.44L417.03 667.07L423.89 666.84L424.1 667.32L422.31 671.96L421.96 672.53L420.74 673.51L422.56 674.64L422.5 675.76L423.02 679.25L426.6 680.27L427.2 680.75L428.05 680.45L428.74 681.1L428.56 682.33L430.62 682.55L431.33 682.05L431.79 682.1L433.18 682.55L434.04 683.5L434.45 682.73L434.97 682.48L434.75 683.48L433.78 684.13L433.58 684.9L432.93 685.53L431.85 689.63L432.12 691.03L433.29 692.71L434.05 694.56L433.64 695.14L433.39 696.39L432.98 696.59L432.83 697.06L432.15 697.84L431.68 701.21L430.93 701.11L429.1 699.91L428.78 698.86L424.37 701.09L423.31 701.46L422.96 701.39L422.85 704.86L423.39 705.68L423.83 705.88L423.81 706.36L424.46 707.86L423.91 708.33L423.62 708.31L423.89 709.08L422.42 710.51L421.57 711.88L421.2 712.1L420.44 712.3L419.84 711.75L418.77 711.25L418.12 710.53L417.48 710.43L416.72 711.01L415.92 712.25L415.79 713.75L417.82 714.35L419.05 715.28L419.7 716.72L424.1 719.42L424.13 719.82L423.07 721.89L422.53 722.34L423.21 723.96L422.47 723.93L420.1 724.48L416.93 724.38L416.36 724.16L416.23 723.21L415.57 722.46L413.88 722.06L409.3 723.53L408.01 724.63L406.83 725.01L406.74 724.01L406.39 723.91L405.03 724.06L404.33 724.91L402.4 723.51L402.42 722.09L401.82 720.42L398.05 722.36L396.39 724.08L396.11 724.01L395.43 721.59L393.34 722.94H391.79L390.77 723.48L389.67 723.71L387.09 720.07L385.93 720.72L385.71 720.64L384.37 717.1L382.78 717.37L379.55 721.09L378.7 722.66H376.9L375.57 721.74L374.73 722.79L372.97 723.09L372.07 723.93L371.03 723.76L370.49 723.31L369.71 723.29L369.84 722.34L371.85 719.59L372.61 717.22L372.54 716.57L371.17 713.75L371.2 713.23L372.24 711.75L372.21 711.28L371.31 709.86L369.19 709.68L368.94 708.68H368.04L367.64 708.26L366.74 708.36L365.46 707.76L365.25 707.43L365.46 707.08L365.33 706.61L364.7 705.88L364.32 706.03L364.62 704.71L363.51 703.31L363.78 702.91L363.27 702.66L363.24 701.86L362.88 701.34L363.02 700.54L363.3 700.24L363.02 699.34L363.4 698.69L363.24 697.51L363.38 697.24L363.08 696.81L364.22 695.84L363.62 695.09L364.03 694.54L364.81 694.41L367.61 692.64H368.94L369.51 690.96L370.93 689.68L371.45 688.91L371.8 686.03L372.29 685.3L373.49 685.05L375.14 686L375.96 685.58L376.45 684.65V682.8L376.91 681.42L378.81 679.02L379.7 676.22L381.42 675.36L381.38 674.31L380.95 673.41L380.43 672.93L379.32 672.73L378.05 673.84L376.85 674.14L375.77 673.56L375.63 672.28L377.72 669.8L378.27 668.4L379.98 667.44L381.5 664.89L382.43 664.06L382.8 663.38L382.96 662.76L382.81 660.35L384.27 657.64L384.37 657.01L383.73 655.91L381.69 655.06L381.5 654.33L382.56 652.6L383.62 650.04L383.75 647.57L383.99 647.17H384.87L386.77 648.18L387.72 647.98L388.12 647.47L388.16 646.8L387.59 644.64L387.97 643.98L388.8 643.33L388.91 642.88L388.51 641.92L387.5 640.67L387.44 639.91L388.34 639.03L389.57 638.71L391.9 639.64L392.96 638.71L393.15 638.28L393.37 636.85L392.72 635.89L392.09 635.62L390.36 635.59L389.59 635.14L389.37 634.16L389.62 633.25L391.87 630.49L392.44 630.21L394.51 629.96L395.24 627.67L396.79 626.59L393.84 624.3L394.05 623.42L393.38 622.86L393.29 622.06L392.56 621.51L391.99 620.6L390.7 621.81L390.39 622.79H390.01L389.16 621.96L388.86 621.93L388.24 622.82L387.5 623.24L386.79 623.29L385.44 624.43L384.59 624.65L384.21 623.72L384.37 623.17L384.84 622.66V621.91L384.37 621.81L384.32 621.23L383.59 621.38L383.42 620.63L383.43 620.2L384.46 619.9L384.59 619.64L383.81 619.47L384.21 618.11L382.74 616.6L380.76 616.22L379.38 615.39L378.75 615.89L378.61 616.27L378.02 615.97L377.36 616.37L376.69 616.12L376.47 616.42L375.14 616.45L373.91 617.4L372.66 616.95L372.4 616.65L371.8 616.57L371.66 616.87L371.26 616.85L370.73 616.3L368.78 616.87L368.53 616.4L367.96 616.12L366.71 616.02L365.84 616.24L364.84 614.63L364.79 614.21L365.17 613.93L364.81 613.05L362.96 612.09L350.91 607.18L355.53 605.77L355.5 606.32L359.52 604.3L360.25 599.97L360.49 593.79L367.53 583.77L399.67 573.74L408.96 565.78L399.37 549.43L397.51 538.86L396.3 535.77L393.97 519.71L402.37 521.36L405.03 523.47L410.24 522.93L415.1 521.36L420.65 519.08L422.58 520.62L424.54 523.06L425.46 522.17L425.76 522.12L426.22 522.5L426.68 522.07L427.09 522.02L427.15 521.74L426.42 520.9L425.95 519.84L425.93 515.57L424.27 513.13L423.8 511.96L423.58 510.24L423.67 507.87L423.17 506.14L419.19 502.25L415.71 500.12L415.25 499.61L415 498.34L416.2 495.92L416.23 494.75L415.22 494.29H413.5L412.93 493.71L412.86 492.84L414.11 490.91L413.01 486.53L412.67 483.45L412.06 482.89L409.78 481.92L405.4 481.33L404.45 481.1L402.75 480.26L401.65 478.86L401.31 476.21L400.58 473.2L398.56 471.29Z" fill="#C7C7C7" stroke="white" stroke-width="2"/>
<path d="M261.908 455.11L262.838 455.77L263.688 457.84L264.908 458.91L269.148 460.85L269.508 461.23L269.488 461.94L270.278 462.48L270.978 463.96L272.368 465.49L272.938 465.72L274.058 465.57L275.598 463.94L276.518 463.53L277.488 463.68L278.278 464.09L279.878 465.75L283.488 467.51L283.598 468.25L283.128 469.6L283.068 470.62L283.358 471.28L284.098 471.92L283.398 472.96L281.558 474.49L281.618 476.35L287.208 474.92L289.268 474.84L292.398 475.6L296.118 474.78L297.018 474.88L298.158 475.36L299.808 476.84L300.968 477.27L301.978 476.94L303.198 475.92L304.318 475.54L306.078 475.69L308.198 476.45L308.938 476.4L312.118 474.21L317.118 471.92L317.908 471.33L318.528 470.26L318.668 466.92L319.648 463.66L322.398 458.99L324.268 456.59L325.058 455.16L325.548 454.75L326.848 454.72L327.358 455.05L328.818 457.12L330.398 457.78L332.598 457.98L333.628 457.83L335.608 457.34L336.478 456.73L337.158 455.76L337.398 454.3L337.968 453.2L339.508 452.54H340.098L341.078 453.05L343.518 455.48L346.808 456.3L347.818 455.99L348.988 454.05L349.698 453.44L352.498 453.24L354.418 452.86L356.428 453.34L359.088 455.08L359.988 455.44L361.968 455.39L362.778 455.62L363.818 456.77L364.748 459.55L365.838 461.16L367.528 462.23L370.488 462.74L371.688 463.89L372.808 465.83L373.568 466.57L376.608 467.08L377.318 467.49L378.518 468.71L378.948 469.45L378.778 469.6L379.598 470.93L380.528 471.72L381.828 472.36L382.918 472.59L385.228 472.62L389.058 471.62L396.198 470.83L398.568 471.26L400.598 473.17L401.328 476.18L401.658 478.83L402.768 480.23L404.458 481.07L405.408 481.3L409.788 481.89L412.068 482.86L412.688 483.42L413.018 486.5L414.128 490.88L412.878 492.81L412.938 493.68L413.508 494.26H415.228L416.238 494.72L416.208 495.89L415.008 498.31L415.258 499.58L415.718 500.09L419.198 502.23L423.168 506.12L423.678 507.85L423.588 510.21L423.808 511.94L424.288 513.11L425.948 515.55L425.968 519.82L426.438 520.89L427.168 521.73L427.108 522.01L426.698 522.06L426.238 522.49L425.778 522.11L425.478 522.16L424.558 523.05L422.598 520.61L420.668 519.06L415.118 521.35L410.258 522.92L405.048 523.45L402.388 521.34L393.988 519.69L396.318 535.75L397.538 538.84L399.388 549.41L408.978 565.76L399.688 573.72L367.548 583.75L360.508 593.77L360.268 599.95L359.538 604.29L355.518 606.31L355.548 605.76L350.928 607.17L350.328 606.64L349.618 601.72L349.838 599.75L349.628 598.79L349.848 598.51L349.768 597.83L349.988 597.17L349.748 595.93L347.898 594.62L345.128 591.62L343.958 590.01L343.378 588.55L339.328 587.41L338.378 587.33L338.298 587.66L337.588 588.32L337.158 589.61L335.508 591.12L331.658 591.85L331.168 593.34L330.278 593.44L327.678 596.9L322.208 595.59L316.368 593.88L316.148 594.08L316.178 594.81L315.608 596.27L314.798 596.95L311.288 596.9L308.078 597.3L303.298 596.09L299.518 597.38L298.888 597.1L297.448 595.71L299.808 586.83L299.588 586.2L293.398 582.19L289.268 583.55L287.498 584.94L283.038 583.58L282.628 575.32L281.468 574.33L280.788 573.42L280.268 571.98L279.638 571.1L273.098 563.79L276.448 557.01L278.248 553.95L274.098 544.12L269.648 543.99L268.868 543.79L267.748 541.86L267.828 540.19L267.118 539.89L266.658 540.02L264.868 541.49L264.108 542.88L263.128 543.74L262.558 545.31L262.968 548.22L262.128 549.46L262.228 550.63L256.008 555.9L255.028 556.89L250.458 562.89L250.398 562.03L249.928 562.06L249.818 562.59L250.228 563.05L249.218 563.51L248.078 563.18L249.678 562.75L249.318 562.29L248.718 562.47L248.528 561.99L247.548 561.28L247.308 560.19L246.298 559.23L245.978 558.45L245.468 558.42L245.038 559L244.688 558.32L243.758 558.14L243.948 557.53L243.458 557.66L243.348 558.01L241.968 557.66L241.858 558.01L240.718 558.97V559.58L240.558 559.61L239.448 559.23L239.468 558.52L238.518 558.44L238.038 558.11L237.228 558.79L236.058 558.26L228.588 559.75L226.928 559.04L225.818 558.23L225.388 557.14L225.418 556.05L225.138 554.88L225.548 554.1L226.068 553.95L227.788 553.8L228.198 554.61L229.008 554.94L230.618 555.12L232.518 555.83L233.368 556.41L234.488 556.64L235.708 557.27L235.728 557.75L237.008 557.72L236.978 557.42L236.508 557.17L237.508 556.31L237.368 556.18L236.308 556.61L234.928 556.51L234.798 556.31L234.098 553.37L234.178 552.28L233.768 550.33L233.788 549.95L234.488 549.42L235.308 548.18L235.448 547.42L235.728 547.9L236.278 548.08L237.148 547.29L235.578 546.1L236.178 543.9L236.428 541.59L235.838 541.26L233.278 540.83L232.988 540.17L232.818 538.52L232.418 537.96L229.558 536.79L228.338 536.92L227.418 536.72L226.818 535.81L225.508 535.66L223.598 536.09L223.218 536.72L222.348 536.85L221.758 537.64L221.778 538.3L221.228 539.39L218.678 540.73L217.428 543.24L216.558 543.85L216.498 544.58L214.568 545.04L213.888 547.14L212.938 548.89L211.558 549.19L208.838 550.76L209.218 555.19L207.588 555.72L206.418 555.29L204.518 556.28L202.778 555.39L194.358 553.82L188.048 556.17L187.198 549.59L189.918 543.64L188.238 541.18L180.328 542.42L179.028 542.22L178.138 542.37L176.558 544.02L173.138 544.63L164.438 549.44L163.868 549.54L163.138 550.45L163.988 550.75L165.398 550.72L166.098 551.83L165.928 552.97L166.398 553.4L166.118 553.96H165.488L165.838 555.17H165.268L165.078 555.75L164.078 556.86L165.428 560.17L171.628 568.34L170.758 569.38L171.578 571.1L170.138 570.82L165.768 573.02L163.948 573.35L163.058 573.27L160.448 572.61L157.508 572.51L156.638 568.31L156.288 567.75L147.098 568.03L146.558 566.44L145.558 566.31L145.038 565.17L145.358 564.87L145.298 563.38L145.708 562.9L145.658 561.58L144.898 557.94L145.518 556.7L146.798 555.54L146.018 554.27L140.018 540.06L137.948 535.7L137.918 533.75L138.948 530.66L138.838 530.41L140.598 525.69L140.788 524.6L140.688 523.15L140.518 522.47L139.288 520.36L134.068 513.96L133.438 512.36L133.328 511.37L133.538 509.08L134.678 506.61L136.478 504.83L140.828 502.92L142.508 499.77L146.798 500.28L150.598 499.39L152.768 498.42L155.888 497.76L159.178 496.23L160.568 495.42L161.958 493.97L163.038 492.19L163.418 490.54L165.398 488.58L165.858 487.56L166.748 487.53L167.188 486.38L168.228 485.72L170.398 483.68L182.278 487.65L185.758 488.01L197.628 484.75L200.128 482.74L210.098 479.89L214.888 476.5L218.388 473.39L220.398 471.17L221.108 470.05L222.638 465.43L225.088 462.52L227.458 461.24L229.658 460.53L231.798 460.4L235.838 461.01L237.578 460.63L238.508 460.25L240.958 458.49L243.818 455.53L247.548 453.67L249.318 453.26H251.928L256.528 454.28L261.908 455.11ZM250.078 549.18L250.098 549.66L250.888 549.61L250.608 549.81L250.768 550.09L251.368 550.04L250.708 551.05L250.268 551.18L250.358 551.86L250.028 552.01L249.758 551.12L249.968 550.84L249.888 550.36L249.378 550.79L249.238 550.51L249.488 550.23L249.378 549.85L248.508 550.38L249.098 551.09L248.748 551.65L248.938 551.9L248.828 552.63L248.508 552.58L247.918 553.09L249.758 553.47L250.168 554.43L251.098 554.2L251.508 554.66L252.058 553.88V553.22L251.678 553.24L252.028 552.71L252.318 552.86L252.668 552.56L252.338 552.46L252.478 552.11L251.848 551.98L251.868 552.31L251.568 552.36L251.438 552.01L251.248 552.19L251.058 551.38L252.028 551.48L251.968 550.8L251.688 550.65L251.358 550.83L251.418 550.37L251.698 550.19L251.968 550.42L252.568 549.71L252.918 549.61L253.138 550.14L253.268 549.79L253.948 549.59L253.858 549.21L254.128 548.98L253.778 548.4L253.608 548.86L253.038 549.14L251.028 549.39L250.078 549.18ZM252.738 550.7L252.798 550.98L253.858 550.85L253.148 550.27L253.068 550.57L252.738 550.7ZM244.818 556.11L244.958 555.91L244.788 555.68L244.388 556.21L244.818 556.11ZM240.638 558.69L240.658 558.39L240.358 558.44L240.388 558.72L240.638 558.69ZM251.668 560.67L251.508 559.38L250.748 559.76L249.908 559.84L250.498 560.42L249.838 560.98L251.668 560.67Z" fill="#C7C7C7" stroke="white" stroke-width="2"/>
<path d="M278.621 320.71L277.651 320.01L277.521 319.67L278.531 320.19L278.781 320.55L278.621 320.71ZM266.291 319.13L266.121 319L266.341 318.64L266.911 318.67L266.291 319.13ZM272.541 315.38L272.321 315.33L272.301 315.02L272.581 315.05L272.541 315.38ZM263.841 313.55L263.601 313.6L263.581 313.29L264.011 313.16L263.841 313.55ZM271.531 245.35L271.361 245.3L271.461 244.78L271.531 245.35ZM309.381 230.23L318.001 234.06L325.091 241.56L324.731 241.82L317.721 234.4L309.491 230.81L307.421 231.02L306.711 230.81L306.981 230.45L309.381 230.23ZM214.991 157.62L214.391 157.93L211.591 157.69L210.091 157.82L206.751 158.63L205.061 159.55L205.081 159.92L205.871 160.37L205.321 160.92L203.931 160.82L203.221 160.27L203.061 159.48L203.231 158.56L203.961 157.8L205.531 156.93L207.001 155.62L208.091 155.36H209.231L211.461 155.83L214.881 157.06L214.991 157.62ZM270.401 166.14L270.241 166.69L269.831 166.61L268.261 167.87L267.971 168.52L267.881 170.35L269.351 170.09L273.431 177.86L273.831 178.07L274.421 179.95L279.711 190.33L278.191 208.61L279.411 208.69L280.081 209.86L280.951 213.49L283.291 215.63L283.831 216.46L285.381 218L286.551 218.39L288.321 218.42L289.731 217.48L290.301 216.98L292.251 213.77L294.311 213.72L296.721 214.03L297.401 214.42L298.401 214.6L298.951 215.25L300.101 215.8L300.991 215.83L301.391 215.49L301.751 215.67L303.651 215.1L304.081 215.6L302.581 215.94L302.531 216.15L304.681 216.02L305.741 216.93L306.531 217.24L307.151 219.46L306.691 220.06L307.041 220.79L306.711 221.49L306.931 223.03L307.331 223.29L307.221 224.38L309.261 225.94L310.221 226.02L310.321 226.28L310.131 226.54L309.121 226.18L308.771 226.52L308.901 227.56L308.091 228.03L307.731 228.6L306.611 228.65L306.471 228.81L306.771 229.07L305.961 229.23L305.911 229.49L306.701 230.14L306.461 230.53L306.211 230.3L305.771 230.33L304.601 231.35L302.501 231.69L302.211 231.92L301.781 231.76L300.671 232.02L300.271 233.11L300.161 235.19L299.021 239.33L298.231 240.5L294.541 242.56L293.531 243.55L293.041 244.72L291.711 244.75L290.251 245.09L289.111 245.74L286.781 248.21L284.451 248.44L281.731 249.09L281.211 248.28L281.511 247.19L280.561 245.76L278.411 245.92L276.621 244.31L275.781 243.14L273.581 243.79L272.411 244.99L272.001 244.65L272.211 244.31L271.751 244.6L270.851 244.52L270.721 245.14L270.961 245.48L270.471 245.32L270.611 244.41L269.881 243.53L268.951 243.56L267.791 244.81L266.671 244.99L266.101 245.54L265.041 246.06L264.601 247.07L264.521 248.68L265.091 251.88L264.961 252.63L265.261 253.05L265.121 253.6L265.411 254.28L264.981 255.29L265.421 256.56L266.181 257.83L266.101 258.35L266.911 260.66L266.661 262.32L268.571 264.11L268.741 265.25L270.481 268.37L270.371 269.9L271.101 270.68L272.051 272.7L272.191 273.87L272.871 275.06L273.571 275.09L273.401 276.1L274.481 276.98L275.141 279.18L273.561 281.9L273.071 282.19L272.801 282.71L272.261 282.87L271.691 282.64L271.221 283.26L271.111 284.69L271.301 285.99L272.461 287.34L272.571 287.73L272.361 288.46L270.731 288.64L269.641 288.33L267.731 289.29L267.031 288.88L267.581 290.2L268.171 290.43L268.091 290.77L268.341 290.95L269.131 289.89L269.791 289.86L270.201 290.15L269.391 291.81L269.301 293.39L269.681 294.43L269.411 295.49L269.681 295.83H270.641L271.321 296.14L272.351 295.93L274.191 296.4L275.581 296.32L275.831 295.98L276.131 292.72L276.481 291.89L277.101 291.22L277.461 291.14L277.591 290.8L277.351 289.45L277.591 288.88L276.131 283.33L276.321 283.07L276.621 283.1L278.141 288.34L279.371 289.48L279.501 290L281.371 290.05L282.451 289.84L283.131 289.97L283.261 290.28L281.681 290.88L280.861 291.71L279.511 291.89L278.421 293.03H277.251L276.781 296.24L275.701 297.9L275.451 298.24H275.011L274.921 297.9L275.141 297.46L274.931 297.33L274.471 298L273.771 298.36L273.371 299.4L273.161 300.9L272.591 301.62L272.261 302.71L270.721 302.4L270.181 302.61L269.821 302.84L268.971 304.39L267.611 304.93L266.771 305.86L265.551 309.27L264.821 309.53L264.411 310.15H263.601L263.411 310.41L263.841 311.08L263.571 311.78L263.651 312.19L263.211 312.94L262.851 313.07L261.901 312.48L261.391 311.68L260.271 311.89L258.561 312.87L257.171 311.32L256.821 311.4L255.921 310.5L255.211 311.33L255.681 312.57L256.821 312.73L258.231 313.89L258.061 314.15L257.401 314.23L257.541 314.75L257.021 315.29L257.001 314.4L256.541 314.22H256.071L255.691 314.94L256.391 315.64L257.451 315.95L258.041 316.8L258.991 317.06L259.261 317.81L260.111 318.35L260.581 319.18L261.401 319.98L262.291 320.34L263.751 320.44L264.641 319.56L265.941 319.4L267.061 320.49L266.921 321.42L266.081 321.86V322.38L266.521 322.82L267.261 322.74L266.971 322.15L267.101 322.05L268.521 322.59L270.911 322.1L272.541 322.38L273.821 321.45L276.101 321.79L277.701 322.8L279.091 324.04L280.781 324.3L281.971 324.89L282.731 324.68L283.241 325.09L284.401 326.54L285.481 327.16L296.481 325.28L306.211 327.73L310.861 330.8L314.671 334.57L309.941 337.95L305.321 337.12L303.821 338.49L302.891 338.08L300.361 343.29L296.891 346.38L296.791 352.26L296.391 354.32L295.141 357.26L292.021 363.05H289.231L281.191 362.46L280.911 361.33L282.701 360.4L283.841 359.37L284.681 357.88L282.691 353.91L280.791 352.85L280.301 353.8L273.511 353.98L271.481 353.41L268.271 351.84L268.291 350.37L267.641 349.65L270.951 348.16L268.771 346.02L268.821 345.12L268.201 343.16L267.361 343.91L266.841 343.73L266.591 343.19L266.641 342.08L266.091 341.51L266.071 340.56L265.341 339.04H266.461L266.971 338.34L268.171 337.85L269.391 337.82L269.561 336.68L270.841 336.01L271.301 335.91L271.521 336.12V336.69L272.041 336.95L271.831 335.74L271.281 334.97L270.711 334.92L269.951 335.46L269.601 335.1L268.371 336.57L266.871 335.31L266.161 335.52L265.721 336.71L265.211 336.27L264.811 337.38L264.221 337.53L264.011 338.2H263.311L261.951 335L260.971 334.59L259.321 334.54L258.511 334.77L257.241 335.67L256.351 337.14L255.881 337.4L253.301 336.99L252.701 337.17L251.431 336.47L250.231 336.99L250.441 339.23L249.651 339.51L249.131 339.97L248.941 340.72L248.121 340.93L247.611 341.86L247.631 342.61L246.951 343.18L242.721 342.97L242.181 343.2L240.171 343.3L239.521 343.56L238.301 344.57L237.901 344.96L237.141 346.56L234.621 348.57L231.641 349.94L230.851 349.79L229.171 349.94L227.521 349.58L225.971 350.25L225.051 351.59L223.671 352.67L222.211 353L220.281 354.24L219.051 355.79L218.131 355.09L218.321 354.63L218.241 353.7L217.671 352.44L217.891 349.5L214.801 349.01L213.301 349.63L212.141 350.84L211.931 350.69L211.531 350.95L208.521 351.13L203.391 354.12L200.151 354.35L197.901 354.07L195.541 353.14L193.861 353.71L191.531 353.17L190.451 352.29L190.291 350.98L190.381 350.49L191.681 348.87L192.931 342.32L192.641 340.28L195.771 337.11L197.241 333.91L197.261 333.26L198.301 330.52L199.581 328.66L195.701 327.01L195.271 327.04L193.131 327.63L192.131 329.49L181.391 324.64L190.171 302.38L191.961 297.18L192.591 294.46L192.811 291.14L193.621 290.03L193.021 288.32L194.271 285.63L196.091 280.55L198.021 271.11L200.141 257.97L201.141 248.02L202.371 239.9L202.431 238.03L203.301 232.15L204.791 218.89L206.211 212.19L207.131 209.79L208.491 207.15L211.161 198.09L214.831 183.43L215.651 179.64L216.351 165.5L216.891 163.22L218.031 161.02L218.901 159.95L219.451 159.71L221.741 159.29L222.631 159.55L223.861 158.95L226.421 159.08L226.291 159.66L226.861 159.35L227.291 159.61L227.181 159.9L226.821 159.69L226.501 160.27L226.671 161L227.071 161.45L227.401 161.48L227.511 162.11H227.681L228.841 161.8L228.711 161.04L229.391 160.52L229.181 160.07L228.701 160.41L228.421 159.65L229.961 159.34L230.421 160.39L230.361 161.39L228.821 164.69L228.381 166.86L228.631 167.1L228.691 167.7H229.101L229.211 168.46L230.971 172.41L231.411 173.01L241.761 178.95L246.901 177.59L248.691 176.41L251.871 175.08L251.711 174.61L252.281 174.56L254.291 172.02L254.721 171.08L254.971 169.69L256.471 168.35L258.501 167.85L259.541 167.88L261.901 166.78L263.741 167.3L265.071 167.04L266.211 166.49L266.621 166.88L266.901 166.78L267.531 167.43L269.321 166.09L269.111 165.78L269.351 165.47L287.441 149.8L288.091 150.67L270.401 166.14ZM242.791 108.95L243.521 108.71L244.071 109.21L245.291 110.89L247.111 114.42L246.971 115.34L246.531 115.39L246.311 116.1L245.991 115.23L245.581 123.44L245.901 125.86L245.871 127.7L245.251 129.59L244.551 129.85L242.651 131.45L242.441 132.34L241.401 132.97L241.261 135.68L240.011 137.39L239.571 138.73L239.021 139.25L238.781 138.86L237.891 139.59L237.991 140.06L237.291 141.08L236.611 141.47L235.381 141.97L233.151 142.07L232.741 142.41L228.481 147.95L228.501 148.42L229.201 148.84L228.741 149.5H227.471L226.951 148.9L226.521 149.21L225.461 148.55H224.621L222.281 147.45L221.871 147.79L222.301 148L222.471 148.79L224.311 149.52L224.551 150.07L225.591 150.73L225.751 151.07L225.291 151.1L224.231 150.6L224.371 150.81L222.521 151.6L222.541 151.89L223.001 151.97L222.951 152.18L221.371 152.7L220.061 152.49L219.091 153.04L219.471 153.17L219.031 153.67L218.441 153.59L217.141 152.38L215.751 149.57L215.201 146.71L215.451 141.83L216.461 136.66L217.271 133.93L218.771 130.25L221.791 124.57L226.471 117.08L228.161 114.82L233.301 106.42L235.451 103.79L237.361 102.1L238.821 101.55H239.221L239.821 101.97L240.821 103.68L241.501 104.13L242.311 105.89L242.231 107.36L242.401 108.31L242.791 108.95Z" fill="#C7C7C7" stroke="white" stroke-width="2"/>
<path d="M438.89 188.17L440.1 189.74L440.45 190.76L441.24 191.8L446.85 198.33L447.98 198.96L450.98 203.09L452.01 204.13L446.85 209.84L446.66 211.1L443.59 212.64L439.95 213.52L439.61 213.76L438.89 215.01L442.09 223.25L443.88 227.16L444.69 229.97L445.67 231.27L446.21 231.61L446.41 231.48L446.93 231.97L447.69 233.54L448.91 233.04L449.29 233.48L451.32 233.72L452.17 232.55L453.02 232.52L454.28 232.05L454.45 232.73L455.87 233.54L456.32 233.38L456.49 233.74L457.69 234.34L458.56 234.26L459.4 235.67L460.33 236.37L461.46 236.45L462 237.18L462.8 237.7L463.23 237.62L463.93 236.74L464.51 236.82L465.48 238.14L465.94 238.4L466.47 238.33L467.04 237.49L468.25 237.41L470.21 236.48L471.16 236.43L471.7 237.36L471.27 237.88L471.32 239.05L472.49 240.1L473.72 240.54L474.12 241.06L475.56 241.92L475.65 242.46L475.97 242.8L476.46 242.75L477.16 243.27L477 243.61L478 244.86L478.26 246.13L478.94 247.09L478.79 248.16L479.26 248.96L479.34 249.8L479.92 250.58H480.32L480.46 251.3L480.68 251.36L482.11 250.6L482.5 249.93L484.01 249.98L484.51 249.07L485.94 249.8L486.4 249.43L486.51 248.83L487.46 248.13L487.9 247.33L488.07 247.92L488.5 248.34L488.45 249.35L488.98 250.03L489.93 250.63L490.86 250.78L492.6 250.26L493.11 249.72L493.72 247.79L494.42 248.16L494.39 248.81L495.05 249.07L495.23 249.48L496.43 249.61L496.76 249.33L497.77 249.38L498.72 249.8H499.72L500.15 250.6L500.86 250.65L501.13 251.3L501.49 251.33L501.57 251.88H501.94L502.17 251.43L501.73 247.07L501.24 245.61L500.89 242.59L501 242.1L505.73 238.2L507.03 237.47L517.13 235.2L526.76 239.78L532.16 241.66L531.35 243.5L531.68 243.61L531.91 244.13L530.89 245.25L531.21 245.79L530.64 247.4L532.46 247.51L532.75 247.56L533.41 248.63L533.84 248.86L534.66 250.45L534.23 253.49L533.68 255.36L533.58 257.41L541.08 264.03L538.92 264.84L538.01 264.89L536.94 264.45L536.07 264.5L534.53 264.11L533.73 266.79L532.92 267.44L532.86 267.83L527.35 266.71L531.29 274.94L530.17 283.88L532.71 285.83L533.68 286.4L534.63 286.58L538.81 289.79L540.12 290.33L542.73 291.11L552.07 290.77L553.87 291.19L554.83 291.09L554.82 293.52L556.45 293.18L563.44 295.2L568.81 297.2L569.88 296.81L572.11 294.63L572.7 293.73L574.44 289.71L576.2 288.47L576.99 289.48L577.08 290.15L578.38 293.26L579.68 298.67L581.45 300.28L583.73 305.45L583.68 305.92L584.58 305.87L586.2 306.51L586.85 306.13L587.31 306.33L587.32 307.13L588.13 308.38L589.68 313.08L589.57 318.59L586.91 322.31L586.63 324.07L585.5 325.74L585.61 327.01L585.23 328.27L584.08 330.57L583.57 331.04L582.3 333.88L582.19 334.65L582.24 335.81L582.59 336.92L582.56 337.57L582.35 337.72L582.43 338.88L583.33 339.84L584.96 343.57L588.13 347.11L587.43 348.73L584 350.95L581.36 351.13L580.88 351.51L580.47 351.1L578.49 350.56L577.1 350.87L576.7 350.71L575.61 351.26L575.49 351.82L574.73 352.47L574.84 354.14L574.11 356.05L573.25 357.18L571.85 360.19L570.23 362.67L569.92 362.9L567.19 363.44L563.36 364L563.05 364.49L562.91 365.7L559.36 369L557.86 375.71L555.2 378.28L549.52 378.87H540.18L533.05 378.92L530.34 377.66L526.89 377.02L524.56 375.94L526.24 373.24L526.45 371.59L526.24 370.87L526.27 369.46L525.83 369.23L526.34 368.48L526.37 367.86L526.08 367.01L525.64 366.6L522.38 364.88L521.72 364.83L520.94 366.19L520.17 365.11L519.33 364.85L518.95 365.16L518.68 365.99L518.01 366.22L516.68 367.22L515.35 365.99L515.24 365.57L515.75 364.52L515.05 364.03L514.74 363.41L513.76 363L513.71 362.59L513.23 362.3L513.12 362.56L507.43 363.72L501.14 362.69L498.12 363.77L497.58 363.59L497.06 363.08L495.53 362.33L495 361.64L494.13 359.68L494.06 358.26L493.74 357.95L492.7 357.9L491.76 357.54L490.46 354.91L487.27 351.57L486.62 349.71L485.51 348.14L485.56 346.85L482.98 346.54L480.94 346.67L480.04 346.23L478.28 346.98L475.29 347.16L474.97 347.85L474.34 347.96L473.29 348.65L473.2 350.84L471.81 350.9L470.54 351.26L467.27 351.23L466.78 350.79L466.67 350.35L466.19 350.25L466.06 349.84L464.23 350.33L463.86 350.84L462.82 350.48L462.74 351.23L461.21 350.79L459.12 350.97L458.69 350.64L457.6 350.66L456.51 350.25L454.07 349.92L451.76 348.19L450.02 348.27L448.99 347.96L448.34 348.24L447.63 348.16L447.41 348.27L447.19 349.17L447.04 350.69L446.32 349.92L445.95 350.59L446.28 350.84L446.16 351.08L445.54 350.82L445.84 351.67L446.41 352.34L446.38 352.8L446.09 353.11L445.75 352.8L445.79 351.98L445.37 351.23L444.02 350.9L442.95 350.12L442.52 348.47L442.85 347.62L443.96 346.9L444.23 346L444.15 345.48L442.19 345.66L441.3 345.02L439.5 344.61V343.6L440.41 342.29L439.53 341.51L439.08 339.55L437.57 337.69L437.44 335.19L436.62 334.03L436.17 332.59L435.84 331.99L434.19 331.97L433.13 331.63L433.04 328.82L432.5 327.63L430.93 327.42L430.95 326.91L431.58 326.13L431.84 324.3L432.06 321.77L431.85 319.16L432.25 318.48L433.85 317.99L434.72 317.27L434.5 316.73L434 316.31L432.74 316.03L432.38 315.72L432.09 315.12L432.12 314.19L432.75 313.32L435.89 312.72L438.78 311.61L439.2 311.14L439.54 310.42L439.59 307.99L440.29 306.59L441.17 303.18L441.08 302.22L440.18 299.63L437.83 296.16L436.58 295.23L435.97 294.43L436.13 291.99L435.94 289.17L435.51 287.9L434.16 286.27L431.77 285.2L430.51 284.17L429.7 282.95L428.69 280.49L425.65 278.1L425.03 278.02L424.05 277.48L423.61 278.26L422.94 278.8L421.23 279.4L414.34 286.53L412.97 284.56L412.04 284.79L410.03 286.29L409.41 285.72L408.21 286.27L407.71 284.66L406.06 281.16L404.95 279.27L402.85 276.65L400.39 274.47L398.24 275.27L396.99 268.14L396.5 266.66L389.76 259.46L388.31 259.2L384.57 259.26L384.63 252.4L394.02 252.42L394.45 251.72L395.27 251.38L404.59 249.33L405.85 249.82L406.65 250.68L408.99 250.39L412.63 248.34L412.86 247.77L418.1 246.62L421.66 244.26L422.49 243.3L422.45 242.9L422.06 242.25L420.17 240.38L417.6 239.68L415.08 237.47L413.54 236.95L412.45 236.87L410.35 236.04L410.33 236.4L409.65 236.32L409.27 235.88L409.21 234.99L411 232.96L412.47 231.95L413.37 230.88L413.88 230.8L414.29 230.12L414.26 229.21L413.58 227.7L413.05 227.29L412.74 227.31V226.4L412.2 225.46L411.09 224.89L409.49 219.36L408.37 216.47L407.8 215.58L404.75 212.69L404.18 212.66L403.23 212.06L401.61 210.68L400.68 209.37L397.58 207.23L396.19 206.56L394.32 206.22L393.99 205.98H391.09L391.06 205.49L388.92 203.61L387.51 201.1L391.3 198.46L391.53 198.86L393.46 199.95L393.81 201.02H394.19L394.81 200.45L395.66 200.89L397.15 200.84L397.72 201.18L398.46 201.15L399.92 201.94L400.68 202.01L403.99 200.45L404.59 199.51L405.96 198.65L406.77 197.42L408.2 196.48L408.23 195.17L408.42 194.88L408.18 194.44L408.83 194.13L408.89 193.58L410.54 193.37L411.3 193.06L412.77 193.66L412.59 192.66L412.79 192.27L413.48 191.8L415.62 191.33L416.11 193.34L417.03 194.7L417.77 196.71L418.37 196.84L419.18 197.58L419.86 197.71L420.38 197.68L420.87 197.26L422.18 196.82L423.99 196.58L424.7 198.02L426.04 197.47L428.43 196.01L428.75 195.43L428.23 192.82L430.02 192.09L432.07 192.32L432.79 192.19L433.39 191.57L434.18 191.12L435.03 191.04L436.95 189.82L438.89 188.17Z" fill="#C7C7C7" stroke="white" stroke-width="2"/>
<path d="M229.198 349.92L230.878 349.76L231.668 349.92L234.638 348.55L237.158 346.54L237.918 344.94L238.308 344.55L239.528 343.55L240.178 343.29L242.188 343.19L242.728 342.96L246.948 343.16L247.628 342.59L247.618 341.85L248.118 340.92L248.948 340.71L249.138 339.96L249.658 339.5L250.448 339.22L250.238 336.97L251.448 336.46L252.708 337.15L253.308 336.97L255.888 337.38L256.368 337.13L257.248 335.66L258.518 334.75L259.328 334.52L260.968 334.57L261.948 334.99L263.308 338.18H264.008L264.218 337.51L264.798 337.36L265.198 336.25L265.698 336.69L266.148 335.5L266.858 335.3L268.358 336.56L269.598 335.09L269.938 335.45L270.698 334.91L271.268 334.96L271.828 335.73L272.028 336.95L271.508 336.69V336.12L271.288 335.91L270.828 336.02L269.548 336.69L269.368 337.82L268.158 337.85L266.948 338.34L266.448 339.04H265.318L266.048 340.56L266.068 341.51L266.618 342.08L266.568 343.19L266.828 343.73L267.348 343.91L268.188 343.16L268.798 345.12L268.758 346.02L270.938 348.16L267.628 349.66L268.278 350.38L268.268 351.85L271.478 353.42L273.498 353.99L280.288 353.81L280.778 352.85L282.678 353.91L284.678 357.88L283.838 359.37L282.698 360.4L280.908 361.33L281.188 362.46L289.228 363.05H292.018L295.138 357.26L296.388 354.32L296.778 352.26L296.878 346.38L300.338 343.29L302.868 338.08L303.808 338.49L305.308 337.13L309.928 337.95L314.658 334.57L322.698 342.52L325.768 345.15L323.948 352.98L330.418 358.26L330.468 359.78L330.058 361.76L329.408 362.3L328.218 361.94L327.538 362.48L328.058 363L328.318 364.54L328.188 365.47L330.708 366.37L336.748 367.19L336.828 367.58L337.858 368.02L337.758 368.56L338.208 368.71L337.988 370.44L339.268 371L340.898 371.05L340.598 372.55L340.708 372.93L342.838 373.99L342.068 375.48L340.338 375.73L340.118 377.17L339.758 377.1L340.488 378L341.258 378.25L341.228 379.13L341.888 379.49V379.85L338.618 379.51L339.728 380.23L339.648 380.72L338.268 382.06L338.478 384.73L336.198 386.17L334.488 388.35L334.788 388.69L335.418 388.84L335.518 389.33L338.238 390.95L339.578 390.48L341.438 390.46L341.848 389.07L343.248 388.97L344.568 389.25L346.088 387.63L345.038 387.2L345.548 386.3L346.828 386.68L346.938 386.17L347.018 385.5L346.168 385.27L346.608 384.24L346.208 383.91L346.198 383.55L345.718 383.39L345.608 382.73L347.018 382.37L347.428 382.85L347.768 382.78L347.688 382.29L348.758 382.13L349.028 383.6L348.728 384.32L349.328 384.73L349.458 386.58L349.978 387.2L350.418 387.22L350.678 389.23L350.218 391.13L350.388 391.48L349.998 395.26L349.438 396.77L350.648 397.29L350.438 399.06L353.448 400.19L353.238 404.68L352.368 404.7L353.918 406.39L354.298 405.98L354.788 406.52L355.058 406.96L355.198 408.6L355.848 409.29L357.118 410.47L358.108 410.67L358.788 411.73L359.138 413.83L360.738 415.72L360.568 416.8L360.158 417.44L360.188 418.13L360.878 419.8L360.868 421.33L359.928 421.56L359.998 422.87L359.088 422.36L357.498 423.77L354.818 421.97L350.718 420.92L349.488 420.39L348.348 419.49L347.208 417.67L342.098 415.78L341.058 414.83L338.898 413.52L337.988 413.29L335.198 413.6L330.878 412.75L329.838 413.32L327.758 415.08L322.788 416.98L321.278 417.08L318.978 416.59L317.638 416.8L316.388 417.67L314.818 419.69L312.888 420.67L311.538 420.59L309.088 418.95L306.528 418.62L304.518 418.08L302.758 417.13L300.908 415.21L299.658 414.47L298.458 414.78L297.778 415.62L296.388 418.31L295.258 419.31L294.408 419.52L292.378 419.08L290.208 417.67L289.188 417L286.368 416.52L285.228 415.85L284.438 414.19L284.088 411.55L283.678 410.78L281.618 409.57L280.038 408.98L278.838 408.6L277.028 408.5L275.358 408.98L272.328 410.47L271.778 411.29L268.978 413.49L267.948 414.62L267.538 415.85L266.718 416.98L265.118 417.16L262.678 415.24L261.478 415.01L260.848 415.13L259.408 415.98L257.348 418.9L256.448 419.52L255.238 419.44L252.848 418.49H251.968L250.888 419.62L249.828 422.15L248.628 423.66L245.538 424.46L244.068 424.59L242.428 425.15L241.138 420.1L240.038 419.21L239.638 417.82L238.448 417.08L236.588 414.95L234.938 412.62L235.558 412.34L234.548 410.96L233.338 410.55L231.938 408.68L238.278 407.11L238.418 406.78L237.128 404.29L236.108 404.83L233.488 404.73L232.518 405.42L230.748 405.6L230.308 404.16V403.24L231.698 402.24L231.428 400.31L232.568 399.47L234.608 396.29L237.218 394.31L240.528 393.1L241.328 391.46L236.408 391.51L234.848 391.9L234.908 390.53L234.018 389.46L233.738 388.2L233.468 384.29L233.558 381.96L228.148 378.07L228.408 377.02L230.348 376.15L230.668 374.09L231.568 372.78L232.838 372.24L234.318 371.95L235.238 371.47L235.608 372.98L236.488 373.68L239.578 374.09L240.718 373.91L240.798 373.63L241.508 373.29L240.918 369.25L244.168 367.99L244.208 367.63L238.908 363.95L236.518 363.1L231.998 358.11L231.678 357.31L230.608 357.36L230.348 356L230.378 353.47L229.258 351.62L229.198 349.92Z" fill="#C7C7C7" stroke="white" stroke-width="2"/>
<path d="M124.86 571.49L125.29 571.52L125.32 571.14L125.48 571.24L126.21 572.81L125.93 573.01L124.38 573.16L122.43 572.3L121.94 571.74L123.13 570.96L124.55 571.16L124.86 571.49ZM31.64 561.53L34.58 562.47L34.37 563.08L34.56 563.21L34.96 563.03L35.12 563.23L36.04 563.26L37.61 565.11L38.56 565.44L40.21 565.49L41.11 565.74L41.36 566.22L42.31 566.47L42.52 566.95L46.46 568.09L53.63 569.23L54.41 570.14L54.52 570.6L54.88 570.75L54.99 571.21L57.54 572.88L58.76 574.6L60.28 574.75L61.51 574.35L65.39 575.13L65.55 575.63L64.92 576.14L64.83 577.07L66.49 577.95L67.09 577.98L67.15 577.7L66.85 574.97L66.98 574.62L70.03 574.7L70.6 575.41L71.76 576.04L73.28 576.27L72.82 576.77L72.79 577.23L73.95 579.48L74.28 579.3L73.84 577.86L74.38 577.63L74 576.39L74.47 576.44L74.33 576.79L74.6 577.62L75.07 577.37L75.42 576.44L75.77 576.47L75.53 576.82L75.83 577.17L77.05 577.35L78.27 578.11L82.31 578.01L83.37 576.67L83.72 575.71L86.08 575L86.76 574.12L89.59 572.17L91.3 571.44L93.9 570.88L93.99 570.65L95.18 570.27L95.7 570.35L96.03 570.05L96.81 570.66L97.02 569.62L96.85 569.22L97.39 568.16L97.5 566.62L98.37 565.68L98 564.82L97.84 562.59L99.49 560.26L102.07 560.49L102.45 561.02L106.39 561.63L106.07 562.16L106.45 562.54L106.86 562.36L107.48 563.4L108.03 563.6L108.68 565.93L108.41 566.11L108.6 566.74H109.25L110.45 569.32L111.38 570.46L115.87 570.74L117.94 571.09L121.64 574.32L124.41 577.61L126.04 578.54L124.3 576.27L123.46 574.43L125.17 573.77L126.17 573.72L126.66 574.07L127.15 575.08H128.05L128.75 575.58L129.6 576.79L129.52 577.27L129.82 577.32L130.23 576.69L129.53 576.08L129.2 575.32L131.68 575.45L131.3 575.05L129.12 574.65L128.74 574.27L132.32 574.09L133.54 574.37L132.88 573.71L129.83 573.69L128.45 573.26L127.14 571.01L127.22 569.85L128.26 569.52L128.91 569.75L129.89 568.92L130.48 568.79L130.91 571.87L133.19 573.21L134.31 573.41L132.51 572.47L131.54 571.61L131.24 570.9L131.27 569.61L131.57 569.33L132 569.66L132.17 570.72L132.34 568.55L132.97 567.84H134.3L135.38 568.3L135.84 568.27L136.96 569.13L137.61 571.28L138.58 572.9L140.27 574.77L138.01 578.21L129.92 588.66L119.18 596.78L116.27 598.67L115.64 599.3L113.6 600.36L113.06 601.32L110.15 602L109.71 601.8L109.2 600.94L108.55 601.47L107.36 601.95L106.79 600.99L105.75 601.02L103.76 602.13L103.02 602.96L102.26 603.26L101.48 603.99L101.18 603.61L99.77 605.95L97.51 606.35L97.45 607.08L96.8 608.29L95.07 608.42L94.28 608.67L94.26 609L93.2 609.33L92.73 608.22L91.97 607.36L91.49 608.17L90.57 608.22L90.08 609.05L90.29 610.16L89.82 610.24L89.23 611.05L87.51 611.83L86.62 611.5L86.3 611.9L85.46 612.33L85.14 611.55L84.22 610.49L86.06 609.08L86.52 608.17L85.59 606.61L84.21 607.32L81 609.61L79.89 608.93L79.49 609.23L79.14 609.08L78.4 609.48L77.48 609.1L76.37 609.96L75.29 610.21L73.26 609.3L72.45 609.17L72.28 609.37L72.5 610.2L72.36 610.33L71.57 609.67L71.25 608.99L70.35 608.76L70.11 608.28L69.94 605.43L70.1 601.17L71.07 598.5L70.85 598.15L69.66 597.85L68.2 596.54L67.49 596.24L67.22 596.82L66.54 597.17L65.75 596.64L64.88 594.95L64.26 594.57L63.64 594.9L59.72 593.97L58.71 594.37L55.21 593.36L54.83 593.13L54.28 592.05L52.6 592.02L52.19 591.34L49.26 589.62H47.25L46.52 590.12L44.26 588.78L43.53 588.86L43.07 588.08L38.69 585.76L37.12 587.63L37.88 588.99L37.28 589.42L37.55 590.1L37.27 590.58L36.78 590.1L36.26 590.23L35.55 589.62L35.5 589.27L34.14 588.59L33.62 588.79L33.41 589.45L32.92 589.8L31.13 589.57L30.32 591.29L29.45 591.42L28.26 590.23L26.71 590.53L28.63 600.9L21.45 601.76L16.7 602.09L15.75 601.99L13.49 601.13L12.86 601.18L12.42 598.84L12.15 598.49L11.01 597.41L9.87 598.14L9.22 596.8L7.54 595.74L6.62 593.92L5.23 593.57L4.66 592.86L5.61 592.08L5.58 590.64L5.3 590.19L3.91 589.23L3.29 587.66L4.71 586.9L2.04 583.74L2 583.29L5.99 578.77L5.7 576.5L4.34 574.73L4.21 573.95L4.43 572.08L3.12 569.55L3.91 568.41L5.27 567.45L5.29 567.85L5.57 567.82L5.66 567.31L8.52 566.27L12.19 564.42L13.5 564.22L13.69 565L14.4 565.23L14.54 564.72L16.5 564.11L17.26 563.5L19.59 563.17L21.9 562.41L22.82 561.98L22.95 561.55L23.82 561.5L25.4 560.11L27.17 559.93L27.88 560.23L30.52 560.48L31.52 560.83L31.64 561.53ZM56.73 533.13L56.9 533.33L56.31 533.18L56.01 532.82H56.47L56.73 533.13ZM54.87 530.65L54.57 530.55L54.92 530.45L54.87 530.65ZM54.53 529.56L54.4 529.71L54.27 529.46L54.44 528.98L54.53 529.56ZM58.92 529.53L58.84 529.76L58.67 529.66L58.54 529.28L59.05 528.32L58.92 529.53ZM59.55 528.39V528.75L59.33 527.96L59.69 527.55L59.85 527.83L59.55 528.39ZM54.44 527.71H54.22L54.63 527.46L54.98 526.7L55.12 527.36L54.44 527.71ZM65.8 525.12L66.56 525.2L66.84 525L67.62 525.53L66.4 525.81L63.85 525.76L63.87 525.13L64.12 524.8L64.67 524.75L65.8 525.12ZM83.63 524.51L83.27 524.48V524.3L83.76 523.79L84.01 524.15L83.63 524.51ZM68.14 524.53L67.13 523.97L67.21 523.84L67.64 523.74L68.37 524.04L68.14 524.53ZM66.77 523.82L66.94 524.66L65.21 524.48L64.78 524.05L66.22 523.62H66.63L66.77 523.82ZM53.4 523.59L54.08 523.89L54.7 524.5L55.02 525.21L55.08 526.17L54.64 526.04L54.23 527.31L53.93 527.08L53.64 525.66L52.98 524.19L53.01 523.43L53.4 523.59ZM51.88 522.83L51.75 522.98L51.37 522.07L51.92 522.15L51.88 522.83ZM51.07 521.11L51.39 521.16L51.49 521.64L51.08 521.39L50.49 521.47L50.55 521.17L51.07 521.11ZM129.65 509.52L129.1 509.37L129.45 509.24L129.65 509.52ZM77.57 471.16L78.88 472.44L83.41 473.87L85.02 473.56L88.23 469.48L90.67 468.03L93.71 467.24L96.64 467.65L98.89 469.69L104.93 471.04L105.37 471.7L106 474.43L108.61 478.13L108.85 483.07L109.36 485.08L110.75 487.52L111.89 487.98L118.85 488.54L121.84 489.61L124.82 489.53L127.15 489.78L134.4 495.28L139.56 498.84L142.52 499.81L140.84 502.96L136.49 504.87L134.69 506.65L133.55 509.12L133.34 511.41L133.45 512.4L134.08 514L139.3 520.4L140.53 522.51L140.7 523.19L140.8 524.64L140.61 525.73L138.85 530.45L138.96 530.7L137.93 533.79L137.96 535.74L140.03 540.1L146.03 554.31L146.81 555.58L145.53 556.74L144.91 557.98L145.67 561.62L145.72 562.94L145.31 563.42L145.37 564.91L145.05 565.21L145.57 566.35L146.57 566.48L147.11 568.07L141.41 568.32L141.73 567.76L141.81 566.39L139.86 563.15L136.98 561.83L135.94 562.03L135.59 561.04L134.91 560.41L133.49 560.56L132.21 561.39L131.32 561.72H130.59L128.15 563.21H127.11L125.31 562.86L124.03 562.1L120.22 561.42L116.42 560L116.02 559.9L115.81 560.08L114.86 558.99L113.13 558.48L111.48 556.81L111.51 556.43L110.7 555.29L111.25 554.43L108.7 553.64L108.54 552.55L108.29 552.45L108 552.9L105.67 551.79L104.89 550.93L104.02 550.9L103.75 550.42L103.18 550.14L102.94 549.58L101.28 548.44L100.38 546.92L99.48 546.36L97.42 547.8L95.58 547.95L92.98 549.75L91.73 549.14L91.51 549.27L91.68 550.56L90.97 550.71L91.63 552.28L91.66 553.17L90.76 554.84L90.38 556.51L90 556.95L89.94 557.68L89.53 558.09L87.73 563.15L86.62 563.68L83.09 562.62L81.74 563.33L80.95 564.16L79.76 564.08L79 564.74L77.72 564.92L76.94 565.33L74.25 565.51L74.12 565.81L73.44 565.58L71.76 563.53L70.19 562.44L70 562.04L67.71 560.55L67.98 559.46L66.03 559.33L64.32 558.22L62.83 559.05H61.3L60.83 558.82L59.91 558.06L59.07 555.12L58.28 555.2L57.55 553.63L55.89 551.98L53.47 550.03L52.35 549.42L47.49 549.22L46.6 550.06L46.52 550.82L45.57 551.38L45.14 551.56L44.13 551.41L43.4 551.69L42.59 551.49L41.39 551.79L40.22 550.85L40.14 548.9L39.59 548.98L39.49 551.08L38.7 550.85V550.02L38.37 550.7L38.18 550.62L38.27 549.89L38.03 549.81L37.82 550.44L37.77 550.64L39.45 551.45V551.65L38.06 551.32L37.13 551.52L37.08 551.95L36.73 551.72L35.97 552.13L35.15 551.72L34.75 550.78L33.36 549.44L32.43 549.52L32.16 549.06L29.9 547.49L28.43 546.1L27.69 545.14L25.43 540.83L23.91 538.65L22.3 537.1L21.32 536.85L17.06 533.73L15.4 531.5L14.62 531.07L14.34 530.26L13.72 529.9L13.94 527.85L14.65 525.9L18.05 523.92L21.45 521.2L23.98 519.57L27.89 517.23L29.16 516.8L31.25 515.2L35.55 512.99L37.02 512.71L38.89 513.14L40.3 513.04L42.02 513.4L43.82 514.62L44.5 514.59L49.37 512.74L51.52 512.26L52.26 511.8L52.86 508.7L52.95 506.79L53.22 506.64L53.06 506.06L52.68 505.98L52.36 505.6L53.5 505.4L54.1 504.46L57.28 501.18L57.04 500.7L57.82 500.5L58.78 498.39L58.27 497.75L58.43 497.55L59.05 497.52L59.08 494.64L56.74 493.9L54.92 492.4L53.21 489.75L52.7 488.2L52.46 486.65L52.52 484.92L53.74 482.07L55.05 479.73L55.95 478.74L56.88 478.33L60.04 477.29L61.75 477.19L66.72 475.15L70.8 475.12L74.98 475.96L75.66 472.8L76.34 471.83L77.57 471.16ZM72.04 487.52L72.58 487.65V487.9L71.77 487.67L71.6 486.91L70.87 487.04L70.16 487.55L69.59 488.87L69.83 489.3L65.15 492.48L64.22 493.04L59.65 494.64L59.6 497.46L60.39 497.56L60.09 498.63L59.22 498.66L57.91 501.84L58.23 501.92L58.75 501.31L58.81 501.67L57.37 503.25L58.83 504.01L58.61 504.16L57.25 503.55L56.74 504.01L56.99 505.1L56.63 505.76L56.49 505.51L56.66 505L55.74 504.24L54.28 505.51L54.25 505.71L54.52 505.84L54.16 506.04L54.05 506.78L53.8 506.91L53.83 507.27L53.5 507.8L53.07 511.56L53.4 511.46L53.3 512.04L54.14 511.43L54.17 511.94L55.74 511.61L57.53 512.83H58L58.38 513.52L60.22 513.55L61.68 512.64L62.82 512.82L63.52 512.21L65.4 512.16L65.83 511.63L67.73 512.04L68.74 511.08L71.7 510.8L72.33 510.22L73.58 510.19L75.26 510.77L77.1 510.16H77.84L78.46 510.95L81.51 511.51L83.2 513.31L85.81 517.86L86.33 517.4L86.42 517.88L85.83 518.11L85.94 518.47H86.24L86.46 519.38L87.11 520.57L87.47 520.67L87.28 521.46L86.24 522.12L83.53 522.88L81.76 525.27L80.49 525.68L79.9 525.43L78.74 524.21L78.5 523.5L77.01 522.49L74.26 523.12L72.39 524.64L69.78 524.03L69.64 524.18L67.52 522.94L65.91 522.74L65.66 522.99L65.44 522.81L61.21 525.27L60.24 526.44L57.93 528.01L56.85 529.86L56.36 530.16L55.57 528.38L56.01 526.86L56.47 527.09L57.01 528.76L57.17 528.71L57.06 528.08L56.68 527.55L56.65 526.97L56.19 526.64L55.62 524.69L54.1 522.56L56 520.07L55.84 519.97L55.46 520.43L54.24 522.21L53.59 522.36L52.45 521.65L51.39 520.43L49.84 519.67L49.62 519.16L49.08 519.39L48.38 518.96L47.13 515.79L47.02 515.05L47.29 514.92L47.42 514.46L46.2 514.76L44.38 515.72L44.66 518.08L44.98 518.66L46.36 519.98L46.28 520.49L47.18 521.38L47.29 521.84L48.64 522.42L50.46 523.89L51.03 524.04L52.44 526.98L53.39 529.8L55.51 532.92L56.13 533.45V534.03L56.38 533.57L56.92 534.56L56.57 533.65L57.08 533.95L56.97 533.67L59.11 533.24L58.65 533.04L57.24 533.19L56.78 532.58L58.25 531.95L59.12 531.04L60.35 530.79L60.43 530.61L59.92 530.23L59.81 529.75L60.82 527.87L61.01 526.7L62.78 525.56L63.54 525.61L63.11 526.63L63.6 526.6L63.79 525.89L67.59 525.81L70.82 526.24L72.1 525.81L72.46 525.2L72.87 525.02L74.36 524.79L74.61 524.46L76.51 524.38L77.35 524.53L78.51 525.19L78.84 525.7L78.79 526.08L79.34 526.56L81.22 526.94L81.71 526.71L81.57 526L82.16 525.64L82.46 525.67L82.75 526.48L85.25 525.79L86.66 526.27L87.02 525.91L87.46 526.21L87.71 525.6L88.58 525.57L89.37 525.06L90.34 525.49L91.62 525.44L92.08 526.07L92.25 527.34L92.6 528.08L93.99 530.08L96.44 529.01L98.28 529.34L101.81 530.61L103.38 531.4L103.7 531.3L103.6 532.44L103.85 533.35H104.34L104.17 531.32L105.31 532.03L106.13 532.13L106.79 533.47L107.31 533.55L107.42 533.85L109.35 535.19L110.22 536.1L111.39 535.74L111.93 536.58L111.61 537.64L111.97 538.81L112.3 539.01L112.68 539.77V540.18L112.21 540.99L112.35 541.14L112.08 541.47L112.43 541.82L112.76 542.88L113.17 543.08L114.28 544.68L114.52 544.6L114.71 544.9L114.52 545.03L115.82 547.06L116.64 547.09L118.06 550.18L119.56 550.53L123.28 552.88L123.36 552.7L123.69 552.78L124.28 553.69L125.18 553.82L127.6 553.41L128.41 552.65L130.97 551.31L131.73 551.26L132.08 550.8L135.13 551.33L135.6 551.58L135.9 552.06L136.68 552.29L138.42 552.16L137.94 547.27L138.3 546.05L137.38 539.13L130.58 536.06L130.01 535.1L129.95 534.49L130.84 532.66L129.62 531.65L129.32 530.91L127.5 530.78L126.93 530.5L126.49 531.06L125.76 531.24L125.51 531.21L124.53 530.12L123.2 530.63L119.37 530.48L119.2 530.25L117.81 530.33L117.68 529.87L114.96 529.67L114.5 529.14L114.78 528.71L114.34 528.58L114.45 528.38L114.21 528.13L113.61 528.18L112.8 526.02L113.04 525.61L112.04 524.72L111.66 524.87L111.39 524.57L111.3 523.38L108.66 522.9L107.62 522.32L108.05 521.13L107.04 519.63L105.36 518.92L104.73 518.11L103.75 517.55L101.58 517.22L100.71 516.05L100.77 514.73L101.78 513.18L103.69 512.98L103.67 512.78L104.73 512.37L105.24 512.6L106.25 511.94L106.91 512.19L109.38 510.36L110.61 510.28L111.75 509.06L112.62 508.83L113.02 508.98L113.18 508.62L115.24 507.98L116.49 508.39L117.33 508.26L119.29 508.67L119.78 509.2L120.27 510.55L120.68 510.35L121 510.5L122 511.52L121.79 510.81L123.5 510.84L126.25 510.28L126.79 510.71L128.1 510.61L128.29 510.79L128.56 510.05L130.4 509.77L130.48 509.21H129.75L129.73 509.01L130.77 508.43L130.71 507.51L129.97 507.46L129.23 507.94L128.74 507.66L127.93 508.19L123.25 508.06L121.72 504.98L120.39 503.91L119.84 503.88L119.24 503.4L119.11 500.76L119.33 500.38L120.03 500.66V499.85L122.4 497.76L124.01 497.81L126.89 498.65L128.01 499.21L128.82 499.92L131.03 500.89L133.74 502.54L133.63 501.22L132.95 500.02L131.26 499.03L131.13 499.34L130.66 499.47L128.13 497.89L127.91 497.56L128.38 496.67L128.29 496.49L127.94 496.46L127.21 497.48L125.09 496.74L125.23 496.43L124.91 496.18L124.97 496L125.4 496.28L128.26 496.08L128.32 495.57L127.78 495.49L127.81 495.24L127.48 495.04L125.79 495.22L124.97 495.7L124.87 495.55L125.6 495.12L127.15 494.97L127.34 494.56H127.55L127.58 494.87L128.05 494.92L128.16 494.51L128.52 494.28L127.81 492.4L127.34 492.04L127.01 491.4L126.04 492.01L120.49 492.85L118.32 494.35L118.51 494.86L120.03 496.41L119.76 497.17H119.02L118.66 497.96L119.09 498.16L119.07 498.46L118.82 498.77L118.49 498.74L118.43 499.48L116.26 500.83L115.93 501.67L114.39 503.3L112.51 504.22L111.02 503.56L109.42 504.4L109.14 504.88L107 505.67L104.71 506.92L102.11 506.97L101.22 507.73L98.56 507.9L97.39 507.26L95.4 505.18H94.96L93.98 503.17L93.6 502.81L93.35 502.84L92.54 504.11L91.57 504.42L91.59 504.11L90.75 504.03L90.18 504.26L87.14 503.32L86.95 502.96L90.54 499.78L91.71 499.32L90.4 499.65L86.84 502.85L86.03 503.1L86.11 500.68L85.33 499.26L85.5 498.9L85.09 497.32L84.49 496.94L83.7 495.62L83.78 494.5L81.01 491.88L80.58 491.68L79.3 492.09L75.39 490.08L75.6 489.39L75.51 488.55L74.69 487.33L73.98 486.95L72.98 486.8L71.97 486.93L72.04 487.52Z" fill="#C7C7C7" stroke="white" stroke-width="2"/>
<path d="M157.799 480.29L158.859 481.21L159.159 481.06L159.619 481.19L159.789 481.67L160.899 482.26L160.949 482.64L158.049 482.77L156.969 482.49L155.879 481.29L157.409 480.32L157.799 480.29ZM145.959 472.34L147.229 472.37L151.269 473.37L156.519 475.74L159.039 476.56L159.909 477.02L159.989 477.84L156.329 479.27L153.729 479.17L151.799 478.69L149.319 477.24L144.339 473.82L143.989 473.39L144.129 472.65L144.779 472.27L145.959 472.34ZM181.489 324.61L192.229 329.46L193.229 327.6L195.369 327.01L195.799 326.98L199.679 328.63L198.399 330.49L197.359 333.23L197.339 333.88L195.869 337.08L192.739 340.25L193.029 342.29L191.779 348.84L190.479 350.46L190.389 350.95L190.549 352.26L191.629 353.14L193.959 353.68L195.639 353.11L197.999 354.04L200.249 354.32L203.489 354.09L208.619 351.1L211.629 350.92L212.029 350.66L212.239 350.81L213.399 349.6L214.899 348.98L217.989 349.47L217.769 352.41L218.339 353.67L218.419 354.6L218.229 355.06L219.149 355.76L220.379 354.21L222.309 352.97L223.769 352.64L225.149 351.56L226.069 350.22L227.619 349.55L229.269 349.91L229.329 351.61L230.449 353.46L230.419 355.98L230.669 357.35L231.749 357.3L232.069 358.1L236.599 363.09L238.989 363.94L244.289 367.62L244.239 367.98L240.999 369.24L241.589 373.28L240.879 373.61L240.799 373.89L239.659 374.07L236.569 373.66L235.679 372.97L235.319 371.45L234.399 371.94L232.909 372.22L231.639 372.76L230.739 374.07L230.419 376.13L228.469 377L228.219 378.05L233.629 381.93L233.539 384.27L233.809 388.17L234.089 389.43L234.979 390.51L234.919 391.87L236.489 391.49L241.409 391.44L240.599 393.08L237.289 394.29L234.679 396.27L232.639 399.45L231.499 400.3L231.769 402.22L230.379 403.22V404.14L230.819 405.58L232.589 405.4L233.559 404.71L236.189 404.81L237.199 404.27L238.499 406.76L238.359 407.09L232.009 408.65L233.419 410.52L234.619 410.93L235.629 412.31L235.009 412.59L236.659 414.92L238.529 417.05L239.719 417.79L240.119 419.17L241.229 420.07L242.509 425.11L244.159 424.55L245.629 424.42L248.719 423.63L249.919 422.12L250.979 419.58L252.059 418.45H252.949L255.339 419.4L256.539 419.48L257.439 418.86L259.499 415.94L260.939 415.09L261.569 414.96L262.769 415.19L265.209 417.11L266.809 416.93L267.629 415.8L268.039 414.57L269.069 413.44L271.869 411.24L272.419 410.42L275.439 408.93L277.119 408.44L278.919 408.54L280.119 408.92L281.699 409.51L283.759 410.71L284.169 411.48L284.519 414.12L285.309 415.79L286.449 416.46L289.269 416.95L290.299 417.62L285.729 426.33L285.269 426.43L285.399 427.07L283.369 430.01L283.469 431.62L282.729 431.26L280.529 435.33L280.249 437.5L279.889 438.19L278.199 437.78L277.169 438.04L276.219 437.76L275.779 438.12L275.609 439.37L274.569 440.93L273.459 441.54L271.549 441.57L270.249 442.21L269.999 443.08L270.399 443.95L271.489 444.62L270.899 445.18L269.109 445.9L268.589 446.49L267.059 445.88L263.059 445.98L261.259 444.4L260.849 444.83L261.439 446.7L261.089 448.11L262.039 449.69L265.439 450.15L264.409 455.13L262.039 455.08L256.689 454.29L252.089 453.27H249.479L247.709 453.68L243.979 455.54L241.119 458.5L238.669 460.26L237.739 460.64L235.999 461.02L231.959 460.41L229.819 460.54L227.619 461.25L225.249 462.53L222.799 465.44L221.269 470.06L220.559 471.18L218.549 473.4L215.049 476.51L210.259 479.9L200.289 482.75L197.789 484.76L185.919 488.02L182.439 487.66L170.559 483.69L168.389 485.73L167.349 486.39L166.909 487.54L166.019 487.57L165.559 488.59L163.579 490.55L163.199 492.2L162.119 493.98L160.729 495.43L159.339 496.24L156.049 497.77L152.929 498.43L150.759 499.4L146.959 500.29L142.669 499.78L139.709 498.81L134.549 495.25L127.299 489.75L124.969 489.5L121.989 489.58L118.999 488.51L112.039 487.95L110.899 487.49L109.509 485.05L108.999 483.04L108.759 478.1L106.149 474.4L105.519 471.67L105.079 471.01L99.0387 469.66L96.7887 467.62L93.8587 467.21L90.8187 468L88.3787 469.45L85.1687 473.53L83.5587 473.84L79.0287 472.41L77.7188 471.13L79.7887 470.06L80.6087 469.27L82.0488 465.52L82.4788 464.27L82.3688 463.66L80.7588 459.73L80.7087 458.15L81.9287 456.26L83.3387 455.16L84.8288 454.85L87.0887 453.98L88.9088 453.93L90.2687 453.57L94.8887 451.4L99.6387 449.59L101.429 449.13L104.689 449.18L106.269 449.92L106.949 450.56L105.529 450.28L105.309 451.4L107.369 452.65L108.379 453.85L109.159 454.18L109.379 453.95L108.839 453.31L108.859 452.85L109.559 453.03L110.069 452.65L110.349 452.86L111.929 451.02L111.679 450.74L111.839 450.46L113.059 449.49L114.259 448.95L114.339 448.06L113.629 446.37L108.929 439.39L108.529 438.44L108.779 436.5L109.539 435.4L111.359 431.51L111.879 431.13L111.769 430.34L110.569 429.29L109.679 428.91L109.089 429.88L109.119 430.98L108.709 430.57H108.539L108.479 431.03L108.269 430.95L107.869 430.26L106.839 429.93L106.139 430.49L105.819 430.36L104.979 430.87L103.919 430.97L103.369 430.71L103.069 430.17L103.239 428.79L105.499 420.8L105.549 418.7L105.329 418.52L104.759 418.8V417.42L105.729 415.17L106.409 414.66L107.529 414.84L108.649 413.17L109.079 413.02L110.549 413.69L110.829 413.48L111.999 413.45L113.079 414.14L115.059 414.93L116.009 415.72L119.349 412.77L121.629 411.23L122.969 410.08L123.699 409.08L124.679 408.39L126.439 405.42L128.449 402.65L140.649 388.51L144.069 384.14L144.099 383.75L144.479 383.65L145.159 384.22L145.899 383.12L145.689 382.99L145.069 383.76L144.739 383.48L144.689 383.02L147.949 379.68L149.039 378.88L151.619 376.08L158.659 367.05L163.409 360.07L169.519 349.43L173.949 341.18L181.489 324.61ZM112.119 451.28L110.569 453.17L110.839 453.43L110.539 454.32L110.639 454.86L110.119 454.76L110.289 455.19L110.039 455.47L110.259 455.67L110.159 455.92L110.409 456L111.149 455.23L112.259 455.82L113.749 457.17L119.509 459.75L121.469 461.21L126.089 463.51L129.099 465.53L133.479 466.98L133.369 467.18L133.639 467.38L134.039 467.28L137.489 471.05L139.609 472.89L141.479 474.16L141.859 474.98L144.579 478.34L145.339 479.03L148.819 481.22L150.309 481.53L152.889 483.36L155.659 484.43L157.749 484.81L163.539 485.12L164.649 484.99L165.119 484.56L165.449 484L165.469 483.11L165.909 483.08L166.909 479.74L165.689 479.05L165.639 478.72L165.309 478.9L159.089 475.26L153.579 472.71V472.48L153.169 472.38L153.149 472.61L146.539 470.62L142.729 469.19L141.559 468.3L139.819 465.85L139.629 465.37L139.869 465.12L139.889 463.51L137.479 460.83L135.219 459.58L133.799 459.48L133.009 459.81L132.409 459.55L129.199 455.64L128.569 455.31L128.139 454.75L126.869 454.93L125.889 454.75L125.559 454.85L125.319 455.31L124.919 455.36L123.339 455.26L122.659 454.75L122.769 453.91L122.249 453.78L121.929 454.83L121.329 454.06L117.559 452.73L116.369 451.61L115.179 449.74L112.919 450.81L112.429 451.45L112.119 451.28Z" fill="#C7C7C7" stroke="white" stroke-width="2"/>
</svg>
