<svg width="547" height="796" viewBox="0 0 547 796" fill="none" xmlns="http://www.w3.org/2000/svg">
<path d="M156.144 295.955L154.854 296.237L151.994 297.282L149.389 297.877V296.09L148.718 291.621L147.601 290.057L146.274 288.73L146.267 288.351L141.024 277.709L139.277 275.054L135.184 272.594L133.687 272.167L132.272 271.382L131.526 270.283L131.1 269.317L130.537 267.85L129.593 265.548L127.275 261.668L123.173 258.612L122.48 258.19L122.636 255.226L120.011 252.975L117.76 251.1V247.349L119.26 243.974L120.386 240.973L120.761 237.973L122.261 234.222L124.136 231.596V227.846L122.261 226.72L120.622 226.252L120.533 225.702L118.51 225.595L115.51 222.595V218.844V215.093L117.01 212.092L118.51 209.467L119.754 204.907L119.361 204.308L118.993 203.498L118.827 202.251L117.393 197.382L116.403 195.045L117.487 194.605L118.205 193.772L118.91 190.316L118.801 187.936L118.063 185.703L117.962 184.646L117.98 183.235L118.518 182.962L119.284 182.018L122.61 174.241L122.847 173.285L122.954 172.175L122.959 170.61L123.037 169.27L123.582 167.287L123.973 166.472L126.748 163.06L128.698 161.078L128.989 160.682L129.617 159.389L130.079 157.914L130.768 154.621L130.999 152.027L130.845 150.62L130.963 149.711L131.633 147.092L131.894 146.171L132.605 145.416L133.803 145.015L134.74 145.109L135.51 145.735L135.872 146.885L135.747 149.652L136.127 149.776L138.925 147.752L139.388 146.891L138.934 145.242L137.983 144.363L137.46 143.009L138.113 141.895L139.162 141.039L140.633 140.189L141.7 139.417L143.799 136.839L145.198 134.33L149.854 129.395L152.662 127.096L154.769 126.346L156.332 133.17L156.51 137.452L156.616 138.792L157.038 140.095L158.703 142.797L160.138 145.682L160.482 146.773L162.302 154.945L162.059 156.745L161.94 158.433L162.035 159.495L162.296 160.404L162.877 161.561L164.501 163.65L164.976 164.358L165.332 165.149L165.545 166.106L165.924 172.358L165.509 173.214L164.881 180.654L164.816 182.886L165.094 183.831L165.332 185.249L164.976 187.67L164.679 188.911L161.946 194.665L160.903 196.313L160.102 196.957L159.213 197.902L158.443 198.907L157.671 200.089L156.924 201.92L156.332 203.989L156.095 206.459L156.177 207.759L156.52 209.746L153.767 212.843V215.843L157.893 219.219L158.183 219.364L158.621 221.748L159.036 222.99L161.608 228.538L162.035 229.094L161.501 229.354L160.435 230.241L159.474 231.513L158.976 232.371L158.739 233.614L158.354 242.573L158.94 244.111L159.569 245.473L164.003 253.939L165.77 255.916L166.898 256.404L168.088 256.704L170.023 257.098L171.895 257.534L173.556 257.944L177.382 259.291L179.475 261.482L180.535 263.203L181.059 264.435L181.873 266.414L182.561 269.192L181.642 270.935L180.094 272.203L178.517 273.181L177.509 273.939L176.679 274.947L175.997 276.304L175.642 277.514L175.221 279.191L174.77 280.163L174.396 280.377V282.231L172.146 284.856L169.895 285.981L166.895 283.731L162.394 283.356L160.143 283.731L157.874 285.651L157.316 289.906L156.628 291.383L155.905 293.448L155.834 295.038L156.144 295.955Z" fill="#C7C7C7" stroke="white" stroke-width="2"/>
<path d="M173.644 358.712L175.457 362.01L178.348 361.368L177.987 363.677V367.224L180.937 369.039L180.787 374.602L181.161 375.272L183.45 379.165L184.64 380.669L189.427 382.892L193.672 385.796L199.258 388.924L202.609 391.159L202.386 394.733L201.045 396.297L198.811 396.744L195.655 396.962L195.425 397.281L193.753 401.03L191.268 406.658L189.204 407.021L188.757 409.256L188.086 412.831L189.445 412.616L191.661 413.725L194.342 415.289L196.354 418.641L197.023 421.769L197.247 426.907L195.683 428.918L193.896 430.705L194.789 433.61L194.119 436.291L193.449 437.855L192.278 438.756V438.998L190.517 439.543L184.001 442.183L183.183 442.872L182.566 444.223L182.5 445.711L182.234 446.962L181.73 447.987L180.924 448.981L179.021 450.977L171.29 457.659L167.934 458.894L164.235 458.918L163.488 454.386L163.995 452.498L163.731 451.521L160.837 449.568L160.216 446.85L160.605 445.451L161.722 443.888L163.733 442.547L163.956 439.643L161.945 438.749L159.264 439.195L157.924 440.76L156.136 442.323L156.151 442.423L155.899 442.51L155.655 444.968L155.206 448.813L154.464 450.668L151.168 453.045L151.145 452.624L150.273 450.515L149.093 449.017L146.312 444.92L143.704 440.513L139.126 430.446L136.471 423.651L135.747 421.152L136.21 419.084L136.157 417.858L132.199 412.925L130.542 410.251L129.534 406.147L129.368 402.021L127.898 399.228L125.953 397.818L124.744 393.82L124.447 391.051L122.136 388.653L119.358 386.625L118.333 382.211H118.649L120.051 381.909L121.119 379.347L120.843 377.842L121.015 376.232L122.135 374.354L123.179 373.306L124.027 372.978L129.997 371.029L135.813 368.991L137.058 366.654L137.028 365.656L140.146 357.128L141.691 353.765L144.451 351.307L145.104 350.748L146.538 349.831L147.392 349.51L148.915 348.498L152.348 343.524L160.613 341.93L161.561 342.049L161.774 343.31L162.688 346.035L163.066 346.82L163.968 347.737L166.103 349.748L167.62 350.509L168.486 350.867L173.644 358.712Z" fill="#C7C7C7" stroke="white" stroke-width="2"/>
<path d="M367.827 630.27L365.378 629.78L362.039 629.49L358.954 627.705L358.291 628.486L357.335 627.77L354.43 628.216L349.738 630.004L345.939 630.227L341.024 632.238L339.236 634.249L336.92 635.468L336.707 635.256L336.304 634.457L335.663 631.549L334.769 630.004L335.215 625.981L334.545 622.184L332.757 618.832L334.545 615.928L335.662 614.14L337.003 611.683V609.65L336.363 608.693L334.431 606.111L333.683 604.435L333.185 602.776L330.624 595.606L328.193 590.819L328.556 589.775L330.067 589.551L330.639 588.869L328.38 585.282L327.055 584.772L326.178 584.434L325.425 582.797L325.039 581.646L323.996 574.557L323.854 573.503L323.723 572.153L324.571 568.199L325.691 565.694L326.527 565.38L327.672 566.033L328.564 567.673L339.345 575.563L339.744 575.636L342.477 575.264L346.274 574.146L346.971 571.662L347.64 572.51L349.957 574.226L354.877 574.37L359.767 574.502L361.156 573.939L364.174 573.794L368.333 575.322L369.824 576.107L376.417 580.385L385.689 585.067L390.931 586.896L393.432 588.496L395.875 590.886L396.349 591.626L397.5 593.794L399.041 596.76L399.325 597.67L399.468 598.726L399.366 604.313L399.041 605.965L397.908 609.66L397.191 611.009L396.243 611.568L395.531 612.072L392.442 615.331L391.98 616.104L391.701 617.356L391.072 618.232L388.784 619.279L386.259 620.483L382.829 622.285L381.629 623.66L381.22 624.731L381.498 625.639L382.191 626.893L382.251 628.604L382.037 629.639L379.583 630.162L376.606 630.698L372.878 630.297L371.348 629.365L369.996 628.896L369.065 628.987L367.827 630.27Z" fill="#C7C7C7" stroke="white" stroke-width="2"/>
<path d="M429.658 739.505L427.548 740.473L424.834 742.373L420.547 743.634L417.157 742.206L416.209 741.923L413.589 741.454L411.104 740.997L409.818 740.43L407.529 738.733L406.623 737.057L405.946 736.249L403.807 734.758L402.135 733.969L400.824 733.438L397.392 731.282L392.85 727.857L390.067 725.087L388.12 722.415L387.218 721.492L383.229 719.19L381.734 718.496L378.041 717.407L376.54 717.05L375.029 717.001L374.151 716.952L372.775 716.841L371.6 716.699L368.946 715.869L367.909 715.003L366.509 713.576L365.104 712.524L364.138 711.935L362.839 711.529L359.093 710.054L350.069 706.146L346.693 703.216L342.729 701.222L340.726 700.461L334.311 698.288L332.816 697.932L324.406 694.917L318.908 690.474L317.438 689.198L315.434 686.452L310.08 683.554L306.446 682.457L302.717 681.511L300.576 680.473L299.521 679.873L298.537 678.948L298.134 677.619L296.821 675.752L295.324 674.95L290.26 672.895L287.581 671.683L282.969 669.175L280.621 667.842L275.7 665.579L272.534 664.424L271.407 663.317L270.411 662.27L271.403 659.72L272.744 655.698L276.095 651.453L280.117 649.219L282.053 648.25L285.974 647.646L286.067 647.939L286.397 647.807L286.662 649.062L287.48 649.916L289.158 650.38L290.26 650.539L293.734 651.357L297.381 652.315L298.667 656.229L299.761 659.733L304.637 664.559L305.889 665.322L307.252 665.641L308.539 665.658L309.487 665.396L310.726 664.589L311.734 663.782L312.719 663.596L313.371 666.264L313.607 669.48L314.031 670.664L315.48 670.631L317.026 669.745L317.34 666.087L319.127 662.289L320.244 659.831L324.266 657.82L326.724 656.703L326.5 659.161L327.617 662.289L329.423 663.305L335.165 662.605L337.548 661.483L338.532 660.922L340.357 660.036L341.348 660.127L343.021 661.066L345.045 660.166L346.162 657.932L347.949 655.698L351.748 654.804L353.759 651.899L356.439 648.324L357.78 645.196L357.334 642.292L357.11 638.94L358.004 636.036L359.345 633.802L360.908 633.132L363.366 632.461L364.064 629.666L365.377 629.78L367.826 630.27L369.064 628.987L369.995 628.896L371.347 629.365L372.877 630.297L376.605 630.698L379.582 630.162L382.036 629.639L381.714 631.545L382.273 632.77L383.91 634.805L384.864 635.95L385.582 636.438L388.09 637.029L389.198 637.011L393.758 636.108L398.139 637.84L398.889 638.748L400.013 638.699L401.079 637.047L401.832 634.598L401.755 632.854L401.18 631.874L400.735 630.875L401.376 629.56L402.567 629.486L403.504 630.06L406.96 634.415L409.45 637.864L409.237 644.406L408.68 645.364L408.84 646.417L410.174 647.231L411.063 647.549L417.027 649.147L421.13 647.231L423.655 645.719L423.742 644.73L428.197 645.969L429.757 647.286L431.078 648.672L432.027 649.233L432.94 649.044L433.924 647.902L434.588 647.341L435.625 647.079L436.316 647.33L436.65 650.447L436.204 658.268L438.885 661.396L441.566 662.065L444.416 661.709L444.358 664.173L444.878 668.637L446.114 670.313L446.979 671.255L448.035 672.025L448.871 672.698L449.439 673.365L449.748 674.266L449.558 675.238L448.446 677.022L448.13 678.755L450.379 682.503L452.036 683.744L452.528 684.742L452.291 686.011L451.874 687.442L451.586 689.333L451.574 691.491L451.663 693.687L451.604 695.49L451.521 696.668L451.183 698.92L450.536 699.982L449.434 701.308L448.485 702.192L447.549 703.076L447.039 704.114V705.231L447.408 706.336L445.812 706.975L442.906 706.081L439.555 703.623L437.768 702.729H435.757L434.863 704.294L435.757 705.634L437.321 707.198L438.438 707.868L438.924 708.901L436.385 710.109L432.259 715.743L432.673 718.385L432.259 720.707L431.232 721.196L429.774 721.72L427.012 724.016L426.501 724.742L426.234 725.671L426.265 726.786L426.62 728.227L428.055 731.338L428.85 732.096L430.877 734.868L429.658 739.505Z" fill="#C7C7C7" stroke="white" stroke-width="2"/>
<path d="M329.423 663.305L327.617 662.289L326.5 659.161L326.724 656.703L324.266 657.82L320.244 659.831L319.127 662.289L317.34 666.087L317.026 669.745L315.48 670.631L314.031 670.664L313.607 669.48L313.371 666.264L312.719 663.596L311.734 663.782L310.726 664.589L309.487 665.396L308.539 665.658L307.252 665.641L305.889 665.322L304.637 664.559L299.761 659.733L298.667 656.229L297.381 652.315L293.734 651.357L290.26 650.539L289.158 650.38L287.48 649.916L286.662 649.062L286.397 647.807L287.415 645.841L287.794 644.364L287.937 643.278V641.181L287.777 639.864L287.668 639.604L284.831 637.153L282.373 632.238L279.916 627.546L278.575 625.759L276.955 625.18L276.438 625.895L275.439 626.716L272.528 627.023L272.471 626.784L270.755 626.652L268.968 621.736L268.297 617.045L269.415 614.363L269.861 609.225L270.238 601.503L270.538 601.596L270.532 601.404H272.319L276.117 602.521L280.809 601.182L281.703 599.394L283.267 594.925L283.49 590.233L283.625 587.126L283.484 586.837L283.158 585.209L283.253 583.773L283.688 582.118L282.601 580.663L280.49 577.925L279.755 577.416L278.724 576.919L277.739 576.113L279.126 571.372L283.555 570.059L284.676 570.561L284.787 570.817L286.171 570.125L288.853 567.22L290.863 564.539L293.545 563.198L296.673 561.188L298.684 557.166L302.035 556.049L304.174 554.521L303.244 552.958L303.58 551.708L302.705 547.335L301.588 542.866L300.248 537.951L299.08 533.572L298.51 532.742L297.587 532.613L297.12 531.024L295.332 528.79L294.464 527.984L295.727 524.443L295.896 524.083L298.684 524.322L300.918 522.758L302.077 521.502L302.089 521.523L304.046 521.306L307.397 523.764L310.972 524.434L313.653 523.986L315.44 522.869H318.346L319.686 523.093L319.562 525.087L319.203 525.064L320.069 526.964L325.758 538.206L327.988 540.764L328.715 540.238L331.026 542.423L331.583 543.099L332.987 546.048L333.316 547.262L336.443 549.346L339.124 554.262L341.135 558.953L342.252 563.422L345.156 567.22L347.168 570.571L346.941 571.627L346.97 571.662L346.273 574.146L342.476 575.264L339.743 575.636L339.344 575.563L328.563 567.673L327.671 566.033L326.526 565.38L325.69 565.694L324.57 568.199L323.722 572.153L323.853 573.503L323.995 574.557L325.038 581.646L325.424 582.797L326.177 584.434L327.054 584.772L328.379 585.282L330.638 588.869L330.066 589.551L328.555 589.775L328.192 590.819L330.623 595.606L333.184 602.776L333.682 604.435L334.43 606.111L336.362 608.693L337.002 609.65V611.683L335.661 614.14L334.544 615.928L332.756 618.832L334.544 622.184L335.214 625.981L334.768 630.004L335.662 631.549L336.303 634.457L336.706 635.256L336.919 635.468L339.235 634.249L341.023 632.238L345.938 630.227L349.737 630.004L354.429 628.216L357.334 627.77L358.29 628.486L358.953 627.705L362.038 629.49L364.064 629.666L363.366 632.461L360.908 633.132L359.345 633.802L358.004 636.036L357.11 638.94L357.334 642.292L357.78 645.196L356.439 648.324L353.759 651.899L351.748 654.804L347.949 655.698L346.162 657.932L345.045 660.166L343.021 661.066L341.348 660.127L340.357 660.036L338.532 660.922L337.548 661.483L335.165 662.605L329.423 663.305Z" fill="#C7C7C7" stroke="white" stroke-width="2"/>
<path d="M117.01 212.092L115.51 215.093V218.844V222.595L118.51 225.595L120.533 225.702L120.622 226.252L122.261 226.72L124.136 227.846V231.596L122.261 234.222L120.761 237.973L120.386 240.973L119.26 243.974L117.76 247.349V251.1L120.011 252.975L122.636 255.226L122.48 258.19L123.173 258.612L127.275 261.668L129.593 265.548L130.537 267.85L131.1 269.317L131.526 270.283L132.272 271.382L133.687 272.167L135.184 272.594L139.277 275.054L141.024 277.709L146.267 288.351L146.274 288.73L147.601 290.057L148.718 291.621L149.389 296.09V297.877L149.268 297.905L149.389 298.547L150.729 301.452L152.74 305.25L154.751 309.272L156.539 313.964L157.208 317.986L155.645 320.22L153.857 322.231L151.399 324.688L149.906 325.187L149.294 326.606L147.12 327.143L145.516 325.739L142.89 324.989L139.889 327.615L136.889 328.74L134.079 330.145L133.803 328.826L133.577 327.91L131.85 326.834L131.638 323.864V320.863L129.387 319.363H127.512L122.636 320.488L120.011 319.738L119.26 316.362L116.26 314.487L114.009 315.612L111.384 317.112L109.133 319.363L108.383 320.863L106.508 322.363L103.882 323.489L101.5 323.34L101.586 323.002L101.433 322.04L99.7185 318.522L95.8475 315.279L94.9935 314.97L92.2305 314.365L91.7125 314.202L90.3795 310.736V308.111L89.5705 306.955L89.5855 306.854L89.2075 299.583L89.1375 298.438L90.0785 298.087L90.4405 296.681L90.2735 295.37L90.5175 293.038L93.2705 291.715L96.8575 288.091L97.0685 286.449L96.5565 285.479L93.8905 284.824L90.4815 284.281L84.7365 277.454L84.0615 271.734L84.2385 270.787L84.9495 269.601L85.9575 268.748L87.0485 268.066L89.0085 267.213L90.4765 267.391H91.7025L92.7345 265.863L93.3865 264.11L94.8145 257.106L94.4595 256.308L90.6005 254.425L90.3365 254.478L89.7055 253.806L88.9145 251.721L89.0885 251.583L88.6495 250.251L88.2345 249.499L87.4935 248.759L86.8955 247.628L86.0465 244.026L86.8955 237.211L89.4745 234.069L90.4045 234.199L90.1615 227.147L88.6375 225.048L87.1705 219.865L90.6885 214.782L93.1795 212.016L94.0815 211.175L95.2905 211.117L96.1435 211.176L99.7015 211.651L101.284 212.727L102.417 212.524L103.496 211.531L107.029 207.109L107.462 203.463L107.465 201.693L107.99 200.656L109.271 198.978L109.988 198.31L111.505 197.223L112.91 196.295L113.918 195.858L115.786 195.22L116.403 195.045L117.393 197.382L118.827 202.251L118.993 203.498L119.361 204.308L119.754 204.907L118.51 209.467L117.01 212.092Z" fill="#C7C7C7" stroke="white" stroke-width="2"/>
<path d="M188.757 518.513L188.164 519.567L187.25 518.562L186.509 517.652L185.524 517.115L184.102 516.417L181.855 516.131L183.332 513.056L183.188 510.864L182.827 508.438L181.422 504.483L181.891 501.619L181.433 500.312L185.852 500.639L186.076 508.458L187.64 511.14L189.65 514.268L190.321 516.502L188.757 518.513Z" fill="#C7C7C7" stroke="white" stroke-width="2"/>
<path d="M362.674 483.224L363.823 484.173L367.191 485.987L373.131 486.66L376.132 487.97L378.254 488.529L379.932 488.042L382.92 486.095L385.291 483.944L390.123 482.274L390.624 482.35V486.115L389.73 491.255L387.72 494.605L384.815 497.734L383.475 499.298L386.379 502.649L387.168 503.983L386.785 505.729L388.167 507.342L389.061 512.033L392.635 513.82L396.657 516.726L399.114 520.077L400.455 523.205L403.807 524.769L402.676 527.03L402.952 527.103L403.192 527.287L401.796 528.567L398.668 531.024L399.785 532.813L401.572 535.27L403.137 536.834L403.583 540.855L403.807 543.537L406.265 545.324L407.955 545.155L408.052 545.324L410.732 544.431L414.308 544.207L419.224 542.866L421.234 542.643L423.915 545.771L426.149 549.569L429.725 552.027L433.746 553.367L436.204 553.814L436.736 555.591L437.204 555.836L437.321 558.06L438.661 562.081L439.332 565.209L441.343 565.656L444.023 563.869L445.812 562.305L447.496 560.313L447.915 560.384L448.492 558.507L450.279 557.836L453.631 559.177L458.77 559.624L463.016 560.964L465.938 560.837L466.024 560.717L469.494 561.411L469.048 567.667L468.824 572.359L464.579 577.051L461.004 581.072L457.876 584.871L456.536 587.329L453.408 590.903L449.833 592.468L449.386 595.596L449.162 598.276L450.057 602.299L449.386 606.544L448.716 610.565L447.375 613.917L444.917 617.938L444.247 621.96L443.13 624.864L440.226 626.876L439.108 628.663L440.09 629.645L440.084 629.827L441.383 631.856L442.414 632.989L443.541 633.275L445.521 636.242L446.259 640.806L445.687 641.912L444.833 643.181L444.584 644.084L444.893 648.836L445.307 649.617L446.066 650.698L446.333 651.626L446.476 652.981L446.493 653.872L446.226 657.527L444.217 658.624L444.441 660.604L444.416 661.709L441.566 662.065L438.885 661.396L436.204 658.268L436.65 650.447L436.316 647.33L435.625 647.079L434.588 647.341L433.924 647.902L432.94 649.044L432.027 649.233L431.078 648.672L429.757 647.286L428.197 645.969L423.742 644.73L423.655 645.719L421.13 647.231L417.027 649.147L411.063 647.549L410.174 647.231L408.84 646.417L408.68 645.364L409.237 644.406L409.45 637.864L406.96 634.415L403.504 630.06L402.567 629.486L401.376 629.56L400.735 630.875L401.18 631.874L401.755 632.854L401.832 634.598L401.079 637.047L400.013 638.699L398.889 638.748L398.139 637.84L393.758 636.108L389.198 637.011L388.09 637.029L385.582 636.438L384.864 635.95L383.91 634.805L382.273 632.77L381.714 631.545L382.036 629.639L382.25 628.604L382.19 626.893L381.497 625.639L381.219 624.731L381.628 623.66L382.828 622.285L386.258 620.483L388.783 619.279L391.071 618.232L391.7 617.356L391.979 616.104L392.441 615.331L395.53 612.072L396.242 611.568L397.19 611.009L397.907 609.66L399.04 605.965L399.365 604.313L399.467 598.726L399.324 597.67L399.04 596.76L397.499 593.794L396.348 591.626L395.874 590.886L393.431 588.496L390.93 586.896L385.688 585.067L376.416 580.385L369.823 576.107L368.332 575.322L364.173 573.794L361.155 573.939L359.766 574.502L354.876 574.37L349.956 574.226L347.639 572.51L346.941 571.627L347.168 570.571L345.156 567.22L342.252 563.422L341.135 558.953L339.124 554.262L336.443 549.346L333.316 547.262L332.987 546.048L331.583 543.099L331.026 542.423L328.715 540.238L327.988 540.764L325.758 538.206L320.069 526.964L319.203 525.064L319.562 525.087L319.666 523.403L324.154 522.199L327.059 521.976L329.069 522.423L330.198 523.363L330.259 523.344L331.304 525.551L332.645 526.668L335.772 524.434L338.9 521.976L342.252 519.295L344.263 516.613L342.476 512.368L340.688 509.688L340.241 508.123L339.082 506.438L336.89 505.889L335.549 504.995L334.879 501.421L335.431 499.104L335.096 498.986L335.996 495.835L336.824 492.799L337.098 492.514L337.903 491.517L338.401 490.807L339.089 489.677L340.666 486.432L341.164 485.11L341.523 483.79L342.439 484.163L349.156 483.367L350.2 483.224L353.282 482.743L354.812 482.479L356.199 482.07L357.278 481.68L358.194 480.929L361.446 480.322L362.674 483.224Z" fill="#C7C7C7" stroke="white" stroke-width="2"/>
<path d="M180.786 374.602L180.936 369.039L177.986 367.224V363.677L178.347 361.368L180.021 360.996L183.396 358.746L185.645 362.22L186.164 361.993L187.415 361.934L188.227 362.463L188.615 363.454H190.32H193.001H194.702L194.498 362.68L196.149 362.496L199.9 361.746L202.9 362.496L207.026 360.996L210.027 362.121L211.902 363.247L213.402 360.246L214.903 358.371L216.673 359.256L216.749 358.75L218.695 360.325L220.055 360.811L221.692 363.621L224.449 370.568L225.559 372.058L227.717 372.317L228.471 371.756L229.205 370.571L228.405 367.372L227.28 357.995L231.031 354.245L235.053 352.796L236.521 355.104L236.38 355.294L235.941 356.295L235.55 358.95L235.36 360.784L235.005 362.022L234.868 362.494L235.229 364.57L236.212 367.162L236.261 367.141L236.123 370.603L235.448 374.652L236.759 379.553L239.131 384.848L239.836 385.611L240.482 387.042L240.694 388.232L241.485 388.924L242.155 390.265L244.39 394.287L246.177 397.415L247.964 399.872L250.201 400.571L251.012 400.146L253.004 398.559L257.166 396.388L259.582 396.968L262.934 396.074L265.168 394.063L266.956 392.276L266.732 387.807L268.967 385.126L269.508 381.202L269.848 380.724L272.541 380.21L275.669 379.764L276.787 381.998H278.797L279.915 379.987L280.138 377.083L281.702 372.837L282.622 369.342L283.054 369.045L286.513 367.634L287.473 367.396L288.92 367.288L291.291 367.455L292.927 367.657L293.716 368.068L294.771 369.096L295.406 370.553L295.69 371.995L295.561 373.101L293.521 374.425L291.007 379.314L290.327 382.544L291.086 385.796V390.265L292.874 392.499L293.767 395.851L291.979 398.085L291.086 400.543L291.142 401.157L290.192 402.106L287.734 405.011L285.5 407.469L284.606 410.597L283.042 412.384L281.702 413.725L279.021 413.948L276.787 415.513L275.446 416.183L274.8 417.475L274.041 417.396L273.212 418.641L270.978 420.204L268.967 418.641L268 417.19L267.596 417.295L266.509 416.406L263.828 416.183L261.593 417.97L258.912 419.98L256.37 422.015L255.505 422.162L254.967 422.201L251.539 425.343L248.635 427.801L246.4 429.365L244.166 432.493L242.155 435.844L240.679 436.656L239.697 436.738L238.58 438.525L236.346 439.419L235.676 442.771L234.983 444.75L234.76 444.849L234.559 445.451L231.431 445.229L227.409 444.111L225.175 443.44L220.93 442.994L218.918 442.101L216.684 439.866L213.556 439.643L210.205 440.76L206.853 442.994L203.949 445.005L200.141 445.9L200.025 445.771L199.415 445.854L198.306 445.447L197.482 444.764L197.037 444.016L196.649 441.91L195.697 441.255L193.83 441.68L192.739 441.019L192.241 439.746L192.277 438.998V438.756L193.448 437.855L194.118 436.291L194.788 433.61L193.895 430.705L195.682 428.918L197.246 426.907L197.022 421.769L196.353 418.641L194.341 415.289L191.66 413.725L189.444 412.616L188.085 412.831L188.756 409.256L189.203 407.021L191.267 406.658L193.752 401.03L195.424 397.281L195.654 396.962L198.81 396.744L201.044 396.297L202.385 394.733L202.608 391.159L199.257 388.924L193.671 385.796L189.426 382.892L184.639 380.669L183.449 379.165L181.16 375.272L180.786 374.602Z" fill="#C7C7C7" stroke="white" stroke-width="2"/>
<path d="M304.174 554.521L302.035 556.049L298.684 557.166L296.673 561.188L293.545 563.198L290.863 564.539L288.853 567.22L286.171 570.125L284.787 570.817L284.676 570.561L283.555 570.059L279.126 571.372L277.739 576.113L278.724 576.919L279.755 577.416L280.49 577.925L282.601 580.663L283.688 582.118L283.253 583.773L283.158 585.209L283.484 586.837L283.625 587.126L283.49 590.233L283.267 594.925L281.703 599.394L280.809 601.182L276.117 602.521L272.319 601.404H270.532L270.538 601.596L269.191 601.182H266.063L264.327 601.991L264.012 601.628H261.371L257.796 599.617L256.829 598.034L256.586 597.998L252.228 595.958L250.93 593.628L250.722 589.388L252.092 586.773L251.058 581.544L252.139 580.228L253.029 579.573L253.515 578.846L254.155 577.355L254.156 576.311L253.804 576.165L254.445 574.37L254.221 572.359L252.881 571.019L250.2 571.242L247.965 573.029L246.328 574.229L245.974 574.206L244.017 574.291L242.647 574.424L241.592 574.436L240.822 574.03L240.642 573.403L239.251 573.477L237.911 571.688L239.698 569.231L241.486 566.103L242.156 562.305V559.624L242.509 557.577L242.517 557.576L242.379 556.272L245.061 555.155L246.178 552.697L247.295 551.133L248.636 548.676L250.2 547.111L249.529 545.101L249.976 542.196L250.886 540.246L250.209 539.79L250.153 539.627H253.551L258.02 534.935L263.158 530.466L267.851 526.221L271.648 520.412L271.979 519.586L272.096 519.519L272.542 514.379L275 512.815L280.716 511.926L286.842 512.146L288.853 511.922L289.645 512.525L289.977 512.592H293.321L299.354 513.933L301.812 516.167L302.482 519.071L300.905 519.501L302.077 521.502L300.918 522.758L298.684 524.322L295.896 524.083L295.727 524.443L294.464 527.984L295.332 528.79L297.12 531.024L297.587 532.613L298.51 532.742L299.08 533.572L300.248 537.951L301.588 542.866L302.705 547.335L303.58 551.708L303.244 552.958L304.174 554.521Z" fill="#C7C7C7" stroke="white" stroke-width="2"/>
<path d="M235.297 555.602L237.754 556.495H242L242.318 557.608L242.509 557.577L242.156 559.624V562.305L241.486 566.103L239.698 569.231L237.911 571.688L239.251 573.477L240.642 573.403L240.822 574.03L241.592 574.436L242.647 574.424L244.017 574.291L245.974 574.206L246.328 574.229L247.965 573.029L250.2 571.242L252.881 571.019L254.221 572.359L254.445 574.37L253.804 576.165L254.156 576.311L254.155 577.355L253.515 578.846L253.029 579.573L252.139 580.228L251.058 581.544L252.092 586.773L250.722 589.388L250.93 593.628L252.228 595.958L256.586 597.998L256.829 598.034L257.796 599.617L261.371 601.628H264.012L264.327 601.991L266.063 601.182H269.191L270.238 601.503L269.861 609.225L269.415 614.363L268.297 617.045L268.968 621.736L270.755 626.652L272.471 626.784L272.528 627.023L275.439 626.716L276.438 625.895L276.955 625.18L278.575 625.759L279.916 627.546L282.373 632.238L284.831 637.153L287.668 639.604L287.777 639.864L287.937 641.181V643.278L287.794 644.364L287.415 645.841L286.397 647.807L286.067 647.939L285.974 647.646L282.053 648.25L280.117 649.219L276.095 651.453L272.744 655.698L271.403 659.72L270.411 662.27L270.257 662.107L268.034 658.337L264.886 653.726L264.329 653.042L263.617 652.236L262.111 650.848L257.842 647.817L253.254 640.876L252.465 639.961L251.339 639.083L250.337 638.511L248.689 637.718L244.218 635.109L238.882 631.953L234.863 628.661L234.732 627.021L234.513 625.31L232.664 620.781L229.041 617.138L228.353 616.603L226.987 613.823L226.041 610.194L223.337 607.728L222.217 607.022L218.987 605.649L219.252 595.868L217.423 594.702L215.494 594.059L216.167 591.85L217.981 591.177L219.128 591.758L220.372 593.574L221.867 589.758L222.247 588.436L223.42 584.313L223.741 581.852L224.292 576.453L223.634 574.727L221.553 570.966L221.205 570.607L220.89 570.16L220.997 568.13L222.562 566.773L224.349 562.752L227.253 560.964L230.381 558.729L232.616 556.719L235.297 555.602Z" fill="#C7C7C7" stroke="white" stroke-width="2"/>
<path d="M274.336 456.04L274.923 456.315L277.011 456.176L282.15 458.857L285.278 460.421L288.629 461.985L290.453 463.288L292.407 463.092L293.853 463.056L295.699 463.217L296.225 465.982L296.592 467.878L296.808 468.513L299.801 469.582H304.269L310.302 469.135L311.209 469.395L312.742 468.958L316.3 468.417L316.781 471.146L317.898 474.497L322.144 475.391L324.154 474.273L325.048 471.369L325.271 467.348V465.113L325.182 463.224L325.548 462.708L326.438 460.933L327.404 459.109L332.87 460.771L334.37 461.965L335.941 464.009L336.118 464.289L336.22 467.236L336.666 471.034L339.064 471.695L339.044 471.802L340.911 473.269L341.806 479.748L341.442 483.736L341.523 483.79L341.164 485.11L340.666 486.432L339.089 489.677L338.401 490.807L337.903 491.517L337.098 492.514L336.824 492.799L335.996 495.835L335.096 498.986L335.431 499.104L334.879 501.421L335.549 504.995L336.89 505.889L339.082 506.438L340.241 508.123L340.688 509.688L342.476 512.368L344.263 516.613L342.252 519.295L338.9 521.976L335.772 524.434L332.645 526.668L331.304 525.551L330.259 523.344L330.198 523.363L329.069 522.423L327.059 521.976L324.154 522.199L319.666 523.403L319.686 523.093L318.346 522.869H315.44L313.653 523.986L310.972 524.434L307.397 523.764L304.046 521.306L302.089 521.523L300.905 519.501L302.482 519.071L301.812 516.167L299.354 513.933L293.321 512.592H289.977L289.645 512.525L288.853 511.922L286.842 512.146L280.716 511.926L275 512.815L272.542 514.379L272.096 519.519L271.979 519.586L271.648 520.412L267.851 526.221L263.158 530.466L258.02 534.935L253.551 539.627H250.153L249.827 538.674L249.907 538.222L249.06 536.387L248.836 530.802L249.682 526.406L249.448 525.976L246.97 521.346L247.076 520.346L247.77 519.297L247.444 517.995L246.533 517.28L246.401 512.927H239.922L238.692 513.354L237.247 512.694L235.975 512.349L235.17 512.512L233.666 511.587L229.601 510.271L229.308 509.509L225.923 505.17L223.337 502.636L223 501.824L222.804 498.912L222.679 496.278L222.321 494.853L221.334 494.18L220.397 494.33L218.855 494.281L216.982 493.488L215.542 491.053L211.427 482.688L210.899 477.374L210.923 476.161L211.196 473.996L211.296 473.153L210.909 472.214L213.557 471.816L216.015 472.486L216.838 473.928L217.279 473.867L217.952 473.774L219.59 474.944L222.495 474.497L224.729 472.263L227.857 472.71L230.985 471.369L231.878 469.135L231.432 467.124L227.857 467.348L227.6 464.946H227.604L228.08 463.326L229.421 462.879L230.985 461.538L233.219 461.762L235.23 463.326L238.358 462.655L241.709 461.985L244.391 460.645L249.083 458.857L251.987 457.293H253.104L254.892 459.305L256.234 460.814L257.143 460.729L259.111 460.909L260.255 460.879L261.424 460.561L262.387 460.208L263.158 458.857L264.946 457.74L268.521 455.953L271.425 455.506L272.697 455.995L274.336 456.04Z" fill="#C7C7C7" stroke="white" stroke-width="2"/>
<path d="M167.263 324.13L167.486 327.928L167.933 332.397L169.787 332.689L169.87 332.985L171.508 333.067L173.072 334.408L173.742 338.653L174.25 341.867H174.771L179.272 339.992L182.647 339.617L185.273 341.492L189.774 342.242L192.024 345.618L193.524 347.868L194.65 351.994L193.726 352.456L194.026 353.878L194.006 354.687L192.774 354.995L188.648 355.745L185.273 356.87L183.397 358.746L180.022 360.996L175.457 362.01L173.644 358.712L168.486 350.867L167.62 350.509L166.103 349.748L163.968 347.737L163.066 346.82L162.688 346.035L161.774 343.31L161.561 342.049L160.613 341.93L152.348 343.524L148.915 348.498L147.392 349.51L146.538 349.831L145.104 350.748L144.451 351.307L141.691 353.765L140.146 357.128L137.028 365.656L137.058 366.654L135.813 368.991L129.997 371.029L124.027 372.978L123.179 373.306L122.135 374.354L121.015 376.232L120.843 377.842L121.119 379.347L120.051 381.909L118.649 382.211H118.333L118.424 381.925L118.368 380.405L115.673 376.262L114.44 371.709L114.6 370.654L114.532 368.586L114.096 366.907L113.716 365.894L110.646 362.428L107.157 358.629L107.527 357.563L107.462 356.688L104.213 350.173L97.1997 342.608L96.4397 341.882L95.4677 341.359L94.6137 341.014L91.3417 338.302L90.3937 337.488L89.5157 336.56L88.0807 334.461L85.6967 330.335L84.9977 327.613L84.5117 326.08L82.6027 322.693L81.2157 321.101L80.4867 320.328L78.9097 317.762L78.6897 316.295L79.0457 315.048L78.1557 312.334L77.8237 311.479L76.7567 308.997L76.2827 308.285L73.7227 305.75L74.8477 304.449L80.8247 298.271L82.5487 296.734L83.5157 296.218L87.7307 297.269L89.1377 298.438L89.2077 299.583L89.5857 306.854L89.5707 306.955L90.3797 308.111V310.736L91.7127 314.202L92.2307 314.365L94.9937 314.97L95.8477 315.279L99.7187 318.522L101.433 322.04L101.586 323.002L101.5 323.34L103.882 323.489L106.508 322.363L108.383 320.863L109.133 319.363L111.384 317.112L114.009 315.612L116.26 314.487L119.26 316.362L120.011 319.738L122.636 320.488L127.512 319.363H129.387L131.638 320.863V323.864L131.85 326.834L133.577 327.91L133.803 328.826L134.079 330.145L136.889 328.74L139.889 327.615L142.89 324.989L145.516 325.739L147.12 327.143L149.294 326.606L149.906 325.187L151.399 324.688L153.857 322.231L155.645 320.22L157.208 317.986L156.539 313.964L154.751 309.272L152.74 305.25L150.729 301.452L149.389 298.547L149.268 297.905L151.994 297.282L154.854 296.237L156.144 295.955L156.355 296.58L157.02 297.34L157.665 297.737L159.426 300.829L163.221 305.423L163.874 306.634L163.63 307.845L162.509 310.06L162.688 312.298L163.825 315.315L164.496 316.699L165.9 317.608L166.326 317.811L166.593 321.672L167.263 324.13Z" fill="#C7C7C7" stroke="white" stroke-width="2"/>
<path d="M78.3941 251.261L79.5781 252.666L79.7541 252.628L81.0311 252.329L84.0941 253.489L84.7251 254.851L85.6381 254.307L88.9151 251.721L89.7061 253.806L90.3371 254.478L90.6011 254.425L94.4601 256.308L94.8151 257.106L93.3871 264.11L92.7351 265.863L91.7031 267.391H90.4771L89.0091 267.213L87.0491 268.066L85.9581 268.748L84.9501 269.601L84.2391 270.787L84.0621 271.734L84.7371 277.454L90.4821 284.281L93.8911 284.824L96.5571 285.479L97.0691 286.449L96.8581 288.091L93.2711 291.715L90.5181 293.038L90.2741 295.37L90.4411 296.681L90.0791 298.087L89.1381 298.438L87.7311 297.269L83.5161 296.218L82.5491 296.734L80.8251 298.271L74.8481 304.449L73.7231 305.75L73.6511 304.509L73.4611 302.978L72.7851 301.885L69.0741 297.399L68.1041 296.72L66.5361 295.75L64.1821 293.317L63.5781 292.469L62.8841 289.96L62.1491 288.109L56.3271 282.849L55.2001 282.179L53.0781 281.266L47.7661 278.752L41.9791 275.563L38.7571 273.53L37.4621 272.114L36.4541 271.344L35.3281 270.644L35.7661 270.348L36.8691 268.843L39.0981 265.561L40.5891 263.185L41.0271 261.526L42.0551 259.518L44.4331 256.504L46.2711 254.437L47.2321 253.525L48.0091 252.98L49.5211 252.341L53.3851 251.148L54.1701 250.413L56.5261 248.527L58.5061 247.02L61.1451 243.72L61.9931 242.212L62.2761 238.819L63.0221 237.728L62.9611 236.797L63.4651 235.939L64.2831 236.442L65.2921 237.193L70.0751 241.016L72.1391 244.84L72.9691 247.278L74.7181 248.056L76.2261 248.527L77.3571 249.376L78.3941 251.261Z" fill="#C7C7C7" stroke="white" stroke-width="2"/>
<path d="M249.682 526.406L248.836 530.802L249.06 536.387L249.907 538.222L249.827 538.674L250.209 539.79L250.886 540.246L249.976 542.196L249.529 545.101L250.2 547.111L248.636 548.676L247.295 551.133L246.178 552.697L245.061 555.155L242.379 556.272L242.517 557.576L242.318 557.608L242 556.495H237.754L235.297 555.602L232.616 556.719L230.381 558.729L227.253 560.964L224.349 562.752L222.562 566.773L220.997 568.13L220.998 568.114L219.275 567.971L215.82 563.613L214.735 562.282L213.597 561.212L212.228 560.02L211.635 559.391L211.029 558.508L210.484 556.5L210.152 555.05L209.844 552.306L206.322 547.284L204.84 545.599L200.002 536.29L198.446 532.304L200.151 531.024L199.705 527.003L201.939 524.099L203.727 520.747L203.95 515.161L201.939 511.587L199.035 508.235L195.906 506.895L197.023 503.543L198.811 503.096L197.694 500.862L194.342 497.511L190.991 494.159L188.086 491.255L185.182 490.584L182.948 492.818L180.713 493.936L179.16 496.044L176.347 491.871L173.371 489.274L168.664 486.408L165.937 484.882L165.118 484.497L163.708 484.064L161.707 482.649L160.947 480.688L161.648 479.264L163.055 479.115L163.277 477.566L160.352 466.931L158.632 463.367L155.917 458.978L154.031 456.735L151.168 453.045L154.464 450.668L155.206 448.813L155.655 444.968L155.899 442.51L156.151 442.423L156.136 442.323L157.924 440.76L159.264 439.195L161.945 438.749L163.956 439.643L163.733 442.547L161.722 443.888L160.605 445.451L160.216 446.85L160.837 449.568L163.731 451.521L163.995 452.498L163.488 454.386L164.235 458.918L167.934 458.894L171.29 457.659L179.021 450.977L180.924 448.981L181.73 447.987L182.234 446.962L182.5 445.711L182.566 444.223L183.183 442.872L184.001 442.183L190.517 439.543L192.278 438.998L192.242 439.746L192.74 441.019L193.831 441.68L195.698 441.255L196.65 441.91L197.038 444.016L197.483 444.764L198.307 445.447L199.416 445.854L200.026 445.771L200.771 446.609L201.44 448.302L201.882 449.771L202.024 451.378L202.546 452.486L203.666 453.912L204.093 454.949L204.425 456.388L204.556 457.719L204.964 459.062L205.576 459.938L207.401 461.877L207.721 463.151L207.769 464.579L207.864 465.641L207.816 467.314L207.556 468.551L208.083 469.793L208.777 470.32L210.615 471.5L211.296 473.153L211.196 473.996L210.923 476.161L210.899 477.374L211.427 482.688L215.542 491.053L216.982 493.488L218.855 494.281L220.397 494.33L221.334 494.18L222.321 494.853L222.679 496.278L222.804 498.912L223 501.824L223.337 502.636L225.923 505.17L229.308 509.509L229.601 510.271L233.666 511.587L235.17 512.512L235.975 512.349L237.247 512.694L238.692 513.354L239.922 512.927H246.401L246.533 517.28L247.444 517.995L247.77 519.297L247.076 520.346L246.97 521.346L249.448 525.976L249.682 526.406Z" fill="#C7C7C7" stroke="white" stroke-width="2"/>
<path d="M198.446 532.304L198.349 532.055L197.904 529.991L196.967 528.688L195.402 526.916L192.936 524.817L188.164 519.567L188.757 518.513L190.321 516.502L189.65 514.268L187.64 511.14L186.076 508.458L185.852 500.639L181.433 500.312L180.781 498.449L179.16 496.044L180.713 493.936L182.948 492.818L185.182 490.584L188.086 491.255L190.991 494.159L194.342 497.511L197.694 500.862L198.811 503.096L197.023 503.543L195.906 506.895L199.035 508.235L201.939 511.587L203.95 515.161L203.727 520.747L201.939 524.099L199.705 527.003L200.151 531.024L198.446 532.304Z" fill="#C7C7C7" stroke="white" stroke-width="2"/>
<path d="M268.879 2.359L273.814 5.654L276.412 7.668L277.372 8.87L280.692 10.295L281.509 9.989L282.725 9.158L283.609 8.929L284.444 9.252L285.435 10.424L286.099 11.502L286.632 12.721L286.811 13.651L286.858 14.582L287.16 15.771L290.397 17.674L291.482 16.702L293.64 18.151L300.601 23.475L301.359 24.523L301.608 24.926L302.13 27.279L302.948 30.389L303.92 33.581L305.023 34.771L306.837 36.631L306.138 38.552L305.343 39.883L306.517 42.274L307.14 43.387L308.218 44.318L314.094 45.926L323.047 51.687L324.202 54.083L327.99 55.126L329.663 54.679L332.2 54.902L336.38 58.755L336.729 61.358L336.932 62.69L337.903 63.774L339.741 66.272L341.014 68.726L339.741 69.842L339.314 70.596L338.437 74.579L339.16 75.368L342.326 77.478L347.425 79.891L349.903 78.703L351.69 77.044L354.433 78.856L356.24 82.015L357.616 91.431L356.78 93.753L355.778 95.097L354.477 95.704L355.18 99.205L355.63 99.977L356.946 101.014L359.97 102.676L361.168 102.299L362.894 102.229L364.263 104.503L365.14 106.744L368.009 106.048L373.618 103.926L377.596 102.535L383.543 103.985L388.795 105.753L390.005 106.107L393.075 106.425L399.799 102.559L403.546 100.932L405.716 101.337L407.491 101.286L408.276 98.845L410.962 95.05L414.656 92.008L415.884 91.531L416.31 92.321L416.269 93.576L416.689 94.802L420.857 95.297L423.271 95.208L427.877 97.189L430.035 99.977L437.446 100.554L441.157 98.492L446.481 97.065L451.494 94.817L457.96 99.058H461.922L465.756 102.413L470.069 104.33L472.629 106.605L472.972 106.395L473.832 106.15L475.551 106.527L478.819 109.458L479.244 111.117L486.843 109.602V111.998L485.278 117.32L470.563 140.213L469.069 142.538L464.006 150.36L461.374 154.42L459.465 157.335L457.248 160.817L462.219 162.932L465.622 164.196L466.781 164.199L467.694 163.804L470.065 162.364L470.807 161.785L472.698 161.16L473.575 161.254L474.369 161.644L478.152 164.707L480.396 167.52L481.217 169.111L481.65 170.427L482 171.531L482.35 172.34L482.906 173.255L486.416 176.154L487.259 176.721L488.646 177.66L490.009 179.083L489.999 180.249L490.282 181.339L489.844 182.218L489.031 183.465L487.436 184.547L479.716 184.322L477.239 182.567L475.295 180.807L474.98 179.969L475.425 178.64L475.366 177.583L474.494 176.118L469.831 175.791L468.299 176.756L466.816 177.819L463.225 178.492L461.451 177.004L455.614 176.458L453.571 177.43L452.635 178.129L451.069 180.854L450.914 182.088L447.341 186.43L445.768 186.424L443.231 188.679H438.438L434.125 191.075L427.895 192.033L421.665 194.43L415.435 193.95H409.204L405.37 197.305L401.057 201.139L396.265 204.494L390.034 206.89L383.324 211.204L376.615 218.392L370.385 220.789L365.592 228.457L364.154 235.646L362.717 244.751L356.966 249.544L351.693 258.17L356.007 268.714L357.924 275.423L351.693 281.654L344.984 285.008L334.44 289.801L330.127 292.197L328.21 302.262L326.118 302.859L326.159 303.232L326.994 303.855L329.366 307.524L329.971 311.208L328.59 312.265L320.354 313.343L320.38 316.928L319.018 320.536L317.963 320.599L317.557 320.126L316.768 319.526L316.643 319.458L316.558 318.098L313.653 315.863L310.749 313.405L306.503 312.958L303.375 312.735L301.812 310.948L299.577 310.724L298.013 311.171L297.12 312.735L297.059 313.018L296.942 312.922L296.824 312.844L295.109 315.417L293.545 316.98L292.72 318.423L293.083 320.352L293.379 322.128L294.031 330.597L293.877 334.366L293.664 335.466L292.905 336.59L291.565 337.529L290.813 337.951L289.747 340.44L287.289 341.781L281.703 342.228L277.234 341.781L276.804 341.278L276.282 341.433L275 340.664L270.084 340.217L267.851 342.898L265.839 344.686L264.749 345.897L263.321 345.737L260.558 345.261L257.888 347.272L256.902 349.154V352.952L256.679 355.633V358.228L255.201 359.377L252.907 359.951L252.78 359.843L251.772 358.891L250.788 358.009L249.424 357.182H247.562L241.93 362.082L239.321 364.858L238.539 365.858L237.78 366.478L236.213 367.162L235.23 364.57L234.869 362.494L235.006 362.022L235.361 360.784L235.551 358.95L235.942 356.295L236.381 355.294L236.522 355.104L234.783 352.369L235.533 346.743L237.408 343.368L239.806 341.141L239.321 340.241L238.32 338.117H235.372L234.642 335.561L231.996 332.1L230.774 328.029L229.756 321.108L226.296 317.647L225.075 313.983V310.727L225.232 308.043L228.033 307.11L228.151 306.396L228.392 305.442L232.532 302.485V298.734L231.407 289.732L233.475 287.665L234.27 287.416L236.025 287.314L237.271 287.599L238.526 287.955L239.701 288.429L240.839 289.26L241.966 290.114L242.418 290.68L247.16 290.482L250.911 289.732L252.516 289.09L252.566 289.011L252.958 287.813L253.668 284.479L253.55 282.796L253.598 281.349L253.787 278.812L254.048 275.777L254.368 273.679L254.771 271.64L254.854 270.514L254.706 269.222L254.292 268.284L256.162 266.103L256.537 262.352L254.286 259.352L250.536 257.476L245.285 258.601L242.488 260.732L238.633 259.921L237.389 259.755L234.234 259.777L232.322 259.929L229.907 261.602L225.781 264.228L222.78 262.727L219.78 258.977L215.654 255.226L211.797 254.84L210.963 255.511L209.449 256.558L207.946 257.239L205.573 257.597L203.464 256.728L201.336 255.241L200.495 253.969L199.534 252.051L199.196 250.481L198.307 247.947L197.655 246.764L196.967 245.532L192.627 242.549L190.481 241.869L189.295 241.987L187.635 242.052L185.56 241.993L181.825 241.721L180.627 241.424L179.383 241.069L178.256 240.489L176.49 238.537L175.671 237.59L174.77 236.176L173.478 235.14L171.391 234.164L168.723 233.318L166.221 232.513L164.881 231.697L162.45 229.893L162.035 229.094L161.608 228.538L159.036 222.99L158.621 221.748L158.183 219.364L157.893 219.219L153.767 215.843V212.843L156.52 209.746L156.178 207.759L156.095 206.459L156.332 203.989L156.924 201.92L157.671 200.088L158.443 198.907L159.213 197.902L160.102 196.957L160.903 196.313L161.946 194.665L164.679 188.91L164.976 187.67L165.332 185.249L165.094 183.831L164.816 182.886L164.881 180.654L165.509 173.214L165.924 172.358L165.545 166.106L165.332 165.149L164.976 164.358L164.502 163.65L162.877 161.561L162.296 160.404L162.035 159.495L161.94 158.433L162.059 156.745L162.302 154.945L160.482 146.773L160.138 145.682L158.703 142.797L157.038 140.095L156.616 138.792L156.51 137.452L156.332 133.17L154.769 126.346L155.443 126.141L170.584 120.963L179.786 117.815L187.505 115.162L193.434 113.122L203.841 109.534L214.8 101.392L228.875 90.818L233.001 85.951L241.373 76.005L244.005 72.87L247.951 68.133L249.621 66.408L250.655 65.74L251.096 64.634L254.084 53.1L255.021 49.354L255.768 46.468L256.29 44.453L257.558 39.565L258.637 40.754L259.378 41.473L260.623 41.979L265.472 41.54L263.487 34.982L262.23 31.414L262.629 28.261L262.894 28.01L263.332 27.83L264.098 27.132L264.296 24.223L263.522 22.615L260.223 20.139L259.195 20.224L258.104 19.388L257.083 18.227L256.183 16.726L255.578 15.121L255.128 12.945L254.89 12.038L254.19 10.289L250.346 8.074L248.07 7.73L248.441 4.953L252.572 5.392L254.244 6.532L256.585 7.403L259.799 6.85L261.696 6.148L262.526 5.513L263.666 5.63L265.084 4.506L265.479 3.334L265.977 2L268.879 2.359Z" fill="#C7C7C7" stroke="white" stroke-width="2"/>
<path d="M461.185 468.707L461.208 470.171L463.33 468.526L465.689 466.996L466.847 467.765L468.05 468.958L468.654 469.847L468.87 470.118L473.416 469.74L478.845 468.926L484.272 468.111L487.604 467.834L488.16 467.482L489.464 466.69L490.294 466.318L491.319 466.061L497.542 466.522L499.348 468.115L501.452 467.986L502.412 467.759L505.827 467.627L506.621 467.639L506.582 467.661L509.479 472.476L512.384 477.277L520.222 490.206L521.68 492.61L523.14 495.015L527.882 502.835L529.162 504.941L530.811 507.649L531.392 508.552L532.672 510.659L534.036 512.983L535.957 516.826L537.866 520.731L541.541 528.255L542.099 529.46L543.711 532.767L544.612 534.576L544.767 534.807L541.791 538.438L540.735 541.021L538.72 544.887L535.992 545.949L536.384 549.399L535.569 552.928L531.984 555.524L528.703 557.612L524.458 559.177L520.883 560.964L517.531 561.857L513.063 563.646L510.605 564.763L508.147 567.443L503.232 568.561L498.447 568.968L497.533 568.522L488.933 566.997L484.018 564.315L478.432 561.857L472.176 561.188L469.475 561.688L469.494 561.411L466.024 560.717L465.938 560.837L463.016 560.964L458.77 559.624L453.631 559.177L450.279 557.836L448.492 558.507L447.915 560.384L447.496 560.313L445.812 562.305L444.023 563.869L441.343 565.656L439.332 565.209L438.661 562.081L437.321 558.06L437.204 555.836L436.736 555.591L436.204 553.814L433.746 553.367L429.725 552.027L426.149 549.569L423.915 545.771L421.234 542.643L419.224 542.866L414.308 544.207L410.732 544.431L408.052 545.324L407.955 545.155L406.265 545.324L403.807 543.537L403.583 540.855L403.137 536.834L401.572 535.27L399.785 532.813L398.668 531.024L401.796 528.567L403.192 527.287L402.952 527.103L402.676 527.03L403.807 524.769L400.455 523.205L399.114 520.077L396.657 516.726L392.635 513.82L389.061 512.033L388.167 507.342L386.785 505.729L387.168 503.983L386.379 502.649L383.475 499.298L384.815 497.734L387.72 494.605L389.73 491.255L390.624 486.115V482.35L391.083 482.42L392.38 481.309L394.212 478.662L395.229 474.998L395.84 472.556L394.212 471.131L394.618 469.095L396.777 468.825L396.764 468.807L399.911 469.299L402.711 468.938L402.918 469.114L404.554 469.379H405.68H406.878L409.842 469.145L411.122 468.935L411.334 468.846L415.992 469.095L427.595 468.688L429.427 466.856L432.073 464.413L432.888 461.971L433.183 458.132L433.427 458.081L433.498 456.067L434.923 451.793L436.348 449.961L439.198 447.11L443.88 445.279L448.969 439.986L452.232 436.865V436.742L454.668 435.712L461.321 425.151L461.291 429.608L461.303 434.671L461.291 441.231L461.256 452.876L461.231 460.345L461.185 466.019V468.707Z" fill="#C7C7C7" stroke="white" stroke-width="2"/>
<path d="M454.105 687.96L454.302 688.193L456.759 687.76L460.11 687.536L462.792 687.76L463.51 688.479L463.781 688.401L470.226 690.118L471.056 691.209L472.971 696.644L473.397 700.534L473.172 701.517L473.112 702.72L474.619 707.302L475.016 708.42L479.552 713.263L482.51 716.109L483.813 716.657L486.305 717.084L487.48 718.366L483.951 721.765L483.794 725.072L483.57 728.647L482.314 730.155L482.436 730.361L481.113 730.435L478.879 731.104L478.284 729.618L477.538 729.474V727.977L477.091 724.849L475.08 723.731L473.418 724.185L473.137 724.034L470.967 724.096L469.604 724.865L468.18 726.675L467.137 729.914L466.959 731.146L467.67 732.828L467.979 733.686L467.943 734.992L465.536 737.963L462.844 741.096L461.907 741.688L460.42 742.262L458.984 742.645L458.285 743.163L457.426 744.465L455.932 747.267L453.868 751.342L452.434 754.208L451.62 755.375V757.47L449.386 762.608L446.929 764.843L443.13 766.406L440.226 768.194H438.346L438.287 768.152L437.86 767.639L437.49 766.862L436.485 766.092L432.596 763.84L430.248 759.845L429.798 756.482L429.46 754.159L428.428 749.946L427.616 749.526L424.735 746.896L424.427 746.477L424.376 745.625L422.257 744.354L420.547 743.634L424.834 742.373L427.548 740.473L429.658 739.505L430.877 734.868L428.85 732.096L428.055 731.338L426.62 728.227L426.265 726.786L426.234 725.671L426.501 724.742L427.012 724.016L429.774 721.72L431.232 721.196L432.259 720.707L432.673 718.385L432.259 715.743L436.385 710.109L438.924 708.901L438.438 707.868L437.321 707.198L435.757 705.634L434.863 704.294L435.757 702.729H437.768L439.555 703.623L442.906 706.081L445.812 706.975L447.408 706.336L447.039 705.231V704.114L447.549 703.076L448.485 702.192L449.434 701.308L450.536 699.982L451.183 698.92L451.521 696.668L451.604 695.49L451.663 693.687L451.574 691.491L451.586 689.333L451.874 687.442L453.038 687.279L454.105 687.96Z" fill="#C7C7C7" stroke="white" stroke-width="2"/>
<path d="M216.838 473.928L216.015 472.486L213.557 471.816L210.909 472.214L210.615 471.5L208.777 470.32L208.083 469.793L207.556 468.551L207.816 467.314L207.864 465.641L207.769 464.579L207.721 463.151L207.401 461.877L205.576 459.938L204.964 459.062L204.556 457.719L204.425 456.388L204.093 454.949L203.666 453.912L202.546 452.486L202.024 451.378L201.882 449.771L201.44 448.302L200.771 446.609L200.142 445.9L203.95 445.005L206.854 442.994L210.206 440.76L213.557 439.643L216.685 439.866L218.919 442.101L220.931 442.994L225.176 443.44L227.41 444.111L231.432 445.229L234.56 445.451L234.761 444.849L234.984 444.75L235.677 442.771L236.347 439.419L238.581 438.525L239.698 436.738L240.68 436.656L242.156 435.844L244.167 432.493L246.401 429.365L248.636 427.801L251.54 425.343L254.968 422.201L255.506 422.162L256.371 422.015L258.913 419.98L261.594 417.97L263.829 416.183L266.51 416.406L267.597 417.295L268.001 417.19L268.968 418.641L270.979 420.204L273.213 418.641L274.042 417.396L274.801 417.475L275.447 416.183L276.788 415.513L279.022 413.948L281.703 413.725L283.043 412.384L284.607 410.597L285.501 407.469L287.735 405.011L290.193 402.106L291.143 401.157L291.311 403L293.098 405.458L295.332 407.021L296.226 409.927L297.566 412.607L297.311 416.318L297.541 416.932L298.364 419.22L300.024 419.98L300.918 423.332L301.141 427.131L303.822 430.705L305.833 432.27L308.738 432.716L308.514 436.067L307.397 438.525L306.95 441.43L308.067 444.335L310.078 446.346L311.195 447.016L311.866 448.803L311.643 450.813L310.329 451.471L310.466 451.642L310.264 452.552L308.876 453.056L307.572 453.476L305.142 454.734L302.166 457.683L300.837 459.229L300.304 459.938L297.398 462.444L295.699 463.217L293.853 463.056L292.407 463.092L290.453 463.288L288.629 461.985L285.278 460.421L282.15 458.857L277.011 456.176L274.923 456.315L274.336 456.04L272.697 455.995L271.425 455.506L268.521 455.953L264.946 457.74L263.158 458.857L262.387 460.208L261.424 460.561L260.255 460.879L259.111 460.909L257.143 460.729L256.234 460.814L254.892 459.305L253.104 457.293H251.987L249.083 458.857L244.391 460.645L241.709 461.985L238.358 462.655L235.23 463.326L233.219 461.762L230.985 461.538L229.421 462.879L228.08 463.326L227.604 464.946H227.6L227.857 467.348L231.432 467.124L231.878 469.135L230.985 471.369L227.857 472.71L224.729 472.263L222.495 474.497L219.59 474.944L217.952 473.774L217.279 473.867L216.838 473.928Z" fill="#C7C7C7" stroke="white" stroke-width="2"/>
<path d="M13.212 260.505L12.497 259.175L11.33 256.51L11.997 253.844L13.663 251.845L16.495 252.011L18.494 251.345L19.288 249.758L19.314 249.765L19.833 249.715L20.161 248.679L21.327 247.679L22.66 244.014L22.326 239.682L20.66 235.85L17.495 230.852L14.496 229.019L10.997 227.353L7.332 224.354L7.665 222.021L9.164 219.522L10.403 218.862L10.981 215.873L12.069 215.362L13.659 215.545L14.441 215.302L12.996 213.857L11.33 210.858L6.999 207.526L2 202.028L2.167 198.196L3.5 191.199L4.666 185.701L6.28 183.515L6.811 182.118L7.611 180.866L13.603 175.375L14.858 174.549L15.806 177.394L18.571 179.656H24.227L30.385 179.278L33.778 178.022L34.148 177.035L34.664 176.945L37.154 174.755L37.8 175.885L38.68 177.017L41.193 180.033L42.199 182.42L42.451 184.25L40.806 186.695L40.752 187.885L41.499 188.964L43.806 190.233L44.624 190.529L45.987 189.974L47.031 189.418L50.103 187.079L51.632 185.674L52.435 184.807L53.636 184.683L56.023 185.186L58.286 186.693L62.182 188.202L65.701 189.458L67.837 191.344L69.063 190.479L69.166 190.538L70.526 190.671L71.959 190.218L73.367 190.715L77.766 190.841L80.099 191.554L80.967 192.325L81.797 194.892L81.986 196.561L84.702 202.771L84.985 204.091L88.377 207.866L91.786 211.206L94.082 211.175L93.18 212.016L90.689 214.782L87.171 219.865L88.638 225.048L90.162 227.147L90.405 234.199L89.475 234.069L86.896 237.211L86.047 244.026L86.896 247.628L87.494 248.759L88.235 249.499L88.65 250.251L89.089 251.583L85.638 254.307L84.725 254.851L84.094 253.489L81.031 252.329L79.754 252.628L79.578 252.666L78.395 251.261L77.357 249.376L76.227 248.527L74.718 248.056L72.969 247.278L72.139 244.84L70.075 241.016L65.292 237.193L64.283 236.441L63.465 235.939L62.961 236.797L63.022 237.728L62.276 238.819L61.993 242.212L61.145 243.72L58.506 247.02L56.526 248.527L54.17 250.413L53.385 251.148L49.521 252.341L48.009 252.98L47.232 253.525L46.271 254.437L44.433 256.504L42.055 259.518L41.027 261.526L40.589 263.185L39.098 265.561L36.869 268.843L35.766 270.348L35.328 270.644L35.067 270.479L33.156 270.838L29.824 272.337L26.325 270.005L22.493 266.839L20.327 265.173L19.599 263.595L15.632 261.935L13.212 260.505Z" fill="#C7C7C7" stroke="white" stroke-width="2"/>
<path d="M502.119 687.159L503.886 688.095L508.451 689.008L509.061 690.834L506.93 693.269L505.712 696.617L508.147 699.052L512.104 697.226H514.234L516.365 700.574L519.714 701.183L523.671 699.661L525.497 696.313L527.668 694.977L528.033 695.245L529.554 697.146L530.017 697.153L530.49 698.373L531.607 700.83V704.853L531.323 706.466L531.237 706.503L529.388 708.862L529.079 712.162L529.479 714.861L530.235 715.779L530.317 717.003L528.682 718.188L526.252 719.422L522.652 722.366L517.157 728.936L514.329 734.554L513.499 735.411L510.98 736.513L508.157 737.97L505.542 740.405L504.428 741.737L502.836 744.959L501.949 745.229L500.432 745.551L499.555 745.514L495.107 743.243L491.48 741.361L487.425 738.407L486.701 737.6L482.314 730.155L483.57 728.647L483.794 725.072L483.951 721.765L487.48 718.366L486.305 717.084L483.813 716.657L482.51 716.109L479.552 713.263L475.016 708.42L474.619 707.302L473.112 702.72L473.172 701.517L473.397 700.534L472.971 696.644L471.056 691.209L470.226 690.118L463.781 688.401L463.51 688.479L462.792 687.76L460.11 687.536L456.759 687.76L454.302 688.193L454.105 687.96L453.038 687.279L451.874 687.442L452.291 686.011L452.528 684.742L452.036 683.744L450.379 682.503L448.13 678.755L448.446 677.022L449.558 675.238L449.748 674.266L449.439 673.365L448.871 672.698L448.035 672.025L446.979 671.255L446.114 670.313L444.878 668.637L444.358 664.173L444.441 660.604L444.217 658.624L446.226 657.527L446.493 653.872L446.476 652.981L446.333 651.626L446.066 650.698L445.307 649.617L444.893 648.836L444.584 644.084L444.833 643.181L445.687 641.912L446.259 640.806L445.521 636.242L443.541 633.275L442.414 632.989L441.383 631.856L440.084 629.827L440.09 629.645L439.108 628.663L440.226 626.876L443.13 624.864L444.247 621.96L444.917 617.938L447.375 613.917L448.716 610.565L449.386 606.544L450.057 602.299L449.162 598.276L449.386 595.596L449.833 592.468L453.408 590.903L456.536 587.329L457.876 584.871L461.004 581.072L464.579 577.051L468.824 572.359L469.048 567.667L469.475 561.688L472.176 561.188L478.432 561.857L484.018 564.315L488.933 566.997L497.533 568.522L498.447 568.968L503.232 568.561L508.147 567.443L510.605 564.763L513.063 563.646L517.531 561.857L520.883 560.964L524.458 559.177L528.703 557.612L531.984 555.524L535.569 552.928L535.026 557.27L535.298 561.884L536.112 563.784L534.755 569.755L532.561 573.37L532.577 576.229L532.5 578.585L531.735 581.173L529.86 584.486L528.166 587.356L530.241 590.995L530.774 593.106L531.907 598.647L532.513 599.558L533.52 600.359L534.305 600.906L533.941 604.36L534.755 607.346L531.77 608.431L529.599 610.06L528.784 615.217L526.07 618.474L523.355 621.459L520.099 625.53L517.385 629.33L515.485 633.401L515.616 634.844L515.274 635.186L514.566 642.391L518.254 647.427L522.404 650.905L523.554 652.188L524.994 653.939L524.736 655.118L523.596 655.509L522.48 655.436L519.393 658.307L516.652 663.231L516.388 663.797L514.844 663.135L513.018 661.613L508.756 661.309L507.234 658.265L504.799 657.656H501.755L500.842 654.004L497.494 651.265L494.45 650.352L490.798 649.438L487.754 648.524H484.405L481.058 648.829L480.448 650.655L481.058 652.481H483.797L486.536 652.786L490.188 652.481L492.015 653.395L492.624 657.656L490.188 659.178L488.667 660.7L489.275 663.744L491.406 664.961V668.918L489.58 669.223L488.667 671.962L486.536 672.875L483.492 674.093L484.405 677.441L485.015 680.789L485.928 683.528L488.362 683.225H490.188L492.319 685.051L493.842 685.659L495.059 683.225L496.276 682.615L497.189 685.051L498.407 687.485H502.06L502.119 687.159Z" fill="#C7C7C7" stroke="white" stroke-width="2"/>
<path d="M185.56 241.993L187.635 242.052L189.295 241.987L190.481 241.869L192.627 242.549L196.967 245.532L197.655 246.764L198.307 247.947L199.196 250.481L199.534 252.05L200.495 253.969L201.336 255.241L203.464 256.728L205.573 257.597L207.946 257.239L209.449 256.558L210.963 255.511L211.797 254.84L215.654 255.226L219.78 258.977L222.78 262.727L225.781 264.228L229.907 261.602L232.322 259.929L234.234 259.777L237.388 259.755L238.633 259.921L242.488 260.732L245.285 258.602L250.536 257.476L254.286 259.352L256.537 262.352L256.162 266.103L254.292 268.284L254.706 269.222L254.854 270.514L254.771 271.64L254.368 273.678L254.048 275.777L253.787 278.812L253.598 281.349L253.55 282.796L253.668 284.479L252.958 287.813L252.566 289.011L252.516 289.09L250.911 289.732L247.16 290.482L242.417 290.68L241.966 290.114L240.839 289.26L239.701 288.429L238.526 287.955L237.271 287.599L236.025 287.314L234.27 287.416L233.475 287.665L231.407 289.732L232.532 298.734V302.485L228.392 305.442L228.151 306.396L228.033 307.11L225.232 308.043L225.075 310.727V313.983L226.296 317.647L229.756 321.108L230.774 328.029L231.996 332.1L234.642 335.561L235.372 338.117H238.32L239.321 340.241L239.806 341.141L237.408 343.368L235.533 346.743L234.783 352.369L235.054 352.796L231.032 354.245L227.281 357.995L228.406 367.372L229.206 370.571L228.472 371.756L227.718 372.317L225.56 372.058L224.45 370.568L221.693 363.621L220.056 360.811L218.696 360.325L216.75 358.75L216.674 359.256L214.904 358.371L213.403 360.246L211.903 363.247L210.028 362.121L207.027 360.996L202.901 362.496L199.901 361.746L196.15 362.496L194.499 362.68L194.703 363.454H193.002H190.321H188.616L188.228 362.463L187.416 361.934L186.165 361.993L185.646 362.22L183.397 358.746L185.273 356.87L188.648 355.745L192.774 354.995L194.006 354.687L194.026 353.878L193.726 352.456L194.65 351.994L193.524 347.868L192.024 345.618L189.774 342.242L185.273 341.492L182.647 339.617L179.272 339.992L174.771 341.867H174.25L173.742 338.653L173.072 334.408L171.508 333.067L169.87 332.985L169.787 332.689L167.933 332.397L167.486 327.928L167.263 324.13L166.593 321.672L166.326 317.811L165.9 317.608L164.496 316.699L163.825 315.315L162.688 312.298L162.509 310.06L163.63 307.845L163.874 306.634L163.221 305.423L159.426 300.829L157.665 297.737L157.02 297.34L156.355 296.58L155.834 295.038L155.905 293.448L156.628 291.383L157.316 289.906L157.874 285.651L160.143 283.731L162.394 283.356L166.895 283.731L169.895 285.981L172.146 284.856L174.396 282.231V280.377L174.77 280.163L175.221 279.191L175.642 277.514L175.997 276.304L176.679 274.947L177.509 273.939L178.517 273.181L180.094 272.203L181.642 270.935L182.561 269.192L181.873 266.414L181.059 264.435L180.535 263.203L179.475 261.482L177.382 259.291L173.556 257.944L171.895 257.534L170.023 257.098L168.088 256.704L166.898 256.404L165.77 255.916L164.003 253.939L159.569 245.473L158.94 244.111L158.354 242.573L158.739 233.614L158.976 232.371L159.474 231.513L160.435 230.241L161.501 229.354L162.035 229.094L162.45 229.893L164.881 231.697L166.221 232.513L168.723 233.318L171.391 234.164L173.478 235.14L174.77 236.176L175.671 237.59L176.49 238.537L178.256 240.489L179.383 241.07L180.627 241.424L181.825 241.721L185.56 241.993Z" fill="#C7C7C7" stroke="white" stroke-width="2"/>
<path d="M475.08 723.731L477.091 724.849L477.538 727.977V729.474L478.284 729.618L478.879 731.104L481.113 730.435L482.436 730.361L486.701 737.6L487.425 738.407L491.48 741.361L495.107 743.243L499.555 745.514L500.432 745.551L501.949 745.229L502.836 744.959L505.626 745.316L508.068 747.649L509.456 749.032L509.479 751.169L509.515 754.653L503.954 759.646L501.653 761.699L501.322 761.675L500.774 762.497L497.87 762.943L496.753 764.508L497.199 767.636L498.094 769.87L499.211 774.785L499.434 779.254L497.646 783.275L495.412 787.297L491.167 791.319L484.464 792.659L477.314 793.106L472.846 794L471.729 792.883L471.219 791.927L470.851 792.257L470.427 791.807L465.833 787.804L463.994 786.563L462.909 786.109L461.214 785.78L460.432 785.334L457.141 782.395L449.908 775.824L448.805 774.165L447.294 772.92L444.786 771.428L441.418 770.399L438.346 768.194H440.226L443.13 766.406L446.929 764.843L449.386 762.608L451.62 757.47V755.375L452.434 754.208L453.868 751.342L455.932 747.267L457.426 744.465L458.285 743.163L458.984 742.645L460.42 742.262L461.907 741.688L462.844 741.096L465.536 737.963L467.943 734.992L467.979 733.686L467.67 732.828L466.959 731.146L467.137 729.914L468.18 726.675L469.604 724.865L470.967 724.096L473.137 724.034L473.418 724.185L475.08 723.731Z" fill="#C7C7C7" stroke="white" stroke-width="2"/>
<path d="M46.0874 169.906L44.6834 169.288L43.3554 169.246L41.4284 169.554L39.8804 172.316L39.9004 172.532L39.4664 172.807L38.5644 173.515L34.6644 176.945L34.1484 177.035L33.7784 178.022L30.3854 179.278L24.2274 179.656H18.5714L15.8064 177.394L14.8584 174.549L16.0254 173.782L17.7554 170.374L19.1014 168.491L21.1464 167.039L23.6194 165.56L24.4194 164.595L24.7504 162.801L25.1664 161.443L25.7594 160.227L26.4114 159.419L30.4784 156.78L33.5374 155.187L35.5884 154.037L37.4984 151.494L37.9124 150.703L38.5744 149.366L39.8164 148.855L42.3124 148.814L43.3674 148.756L44.3044 148.52L45.1404 147.9L45.2284 147.775L47.3524 148.424L48.8604 148.927L49.4884 151.692L50.2424 154.457L51.1224 157.096L51.3744 161.369L50.6194 164.511L49.7404 166.899L47.9804 168.784L46.0874 169.906Z" fill="#C7C7C7" stroke="white" stroke-width="2"/>
<path d="M306.503 312.958L310.749 313.405L313.653 315.863L316.558 318.098L316.643 319.458L316.768 319.526L317.557 320.126L317.963 320.599L317.322 320.668L317.219 321.692L318.518 322.55L320.295 324.036L323.152 326.865L323.733 327.904L324.149 328.665L325.032 329.277L328.002 330.359L329.188 330.68L329.936 331.191L330.486 332.345L330.297 334.179L329.137 335.608L326.933 335.322L327.148 338.54L327.815 339.355L329.799 340.075L332.283 341.478L334.673 345.963L336.338 351.438L336.99 353.735L337.34 355.86L339.67 357.843L342.824 360.069L345.344 366.579L348.433 369.662L349.814 369.892L350.899 370.171L352.251 370.773L352.986 371.375L353.591 372.269L354.041 373.437L354.433 374.653L354.896 375.38L357.59 379.454L359.854 380.652L361.707 383.148L362.187 385.611L362.317 386.5L362.271 387.514L362.009 388.76L361.535 389.786L359.093 393.14L355.002 397.103L353.354 398.439L352.292 399.322L351.533 400.86L360.919 401.293L365.993 401.353L366.895 401.328L371.626 401.389L376.879 402.81L385.617 404.422L386.922 404.81L389.916 406.554L392.009 411.876L391.789 413.409L391.291 415.043L391.674 416.274L393.117 417.075L395.092 418.178L395.755 419.525L396.352 421.777L395.602 424.68L394.854 426.749L396.645 426.845H400.558L402.349 426.833H403.676H405.764H418.071L425.873 426.821L429.763 426.81L432.821 426.444L437.772 423.724L438.69 421.905L439.56 420.778L444.878 418.929L446.099 417.891L446.783 416.478L450.513 412.438L452.149 411.386L454.9 409.666L460.698 404.732L463.034 402.583L463.911 402.266L463.422 404.567L463.521 406.786L462.939 410.786L462.749 417.23L462.009 417.978L461.457 419.149L461.314 422.156L461.326 424.424L461.321 425.151L454.668 435.712L452.232 436.742V436.865L448.969 439.986L443.88 445.279L439.198 447.11L436.349 449.961L434.923 451.793L433.498 456.067L433.427 458.081L433.183 458.132L432.888 461.971L432.073 464.413L429.427 466.856L427.595 468.688L415.992 469.095L411.334 468.846L411.122 468.935L409.842 469.145L406.878 469.379H405.68H404.554L402.918 469.114L402.711 468.938L399.911 469.299L396.764 468.807L396.777 468.825L394.618 469.095L394.212 471.131L395.84 472.556L395.229 474.998L394.212 478.662L392.38 481.309L391.083 482.42L390.123 482.274L385.292 483.944L382.92 486.095L379.932 488.042L378.254 488.529L376.132 487.97L373.132 486.66L367.191 485.987L363.824 484.172L362.674 483.223L361.446 480.322L358.194 480.929L357.278 481.68L356.199 482.07L354.812 482.479L353.282 482.743L350.2 483.223L349.156 483.367L342.439 484.163L341.523 483.79L341.442 483.736L341.806 479.748L340.911 473.269L339.044 471.802L339.064 471.695L336.666 471.034L336.22 467.236L336.118 464.289L335.941 464.009L334.37 461.964L332.87 460.771L327.404 459.109L326.438 460.933L325.548 462.708L325.182 463.224L325.271 465.113V467.348L325.048 471.369L324.154 474.273L322.144 475.391L317.898 474.497L316.781 471.146L316.3 468.417L312.742 468.958L311.209 469.395L310.302 469.135L304.269 469.582H299.801L296.808 468.513L296.592 467.878L296.225 465.982L295.699 463.217L297.398 462.444L300.304 459.938L300.837 459.229L302.166 457.683L305.142 454.734L307.572 453.476L308.876 453.056L310.264 452.552L310.466 451.642L310.329 451.471L311.643 450.813L311.866 448.803L311.195 447.016L310.078 446.346L308.067 444.335L306.95 441.43L307.397 438.525L308.515 436.067L308.738 432.716L305.833 432.27L303.822 430.705L301.141 427.131L300.918 423.332L300.024 419.98L298.364 419.22L297.541 416.932L297.311 416.318L297.566 412.607L296.226 409.927L295.332 407.021L293.098 405.458L291.311 403L291.087 400.543L291.981 398.085L293.768 395.851L292.875 392.499L291.087 390.265V385.796L290.328 382.544L291.008 379.314L293.522 374.425L295.562 373.101L295.691 371.995L295.407 370.553L294.772 369.096L293.717 368.068L292.928 367.657L291.292 367.455L288.921 367.288L287.474 367.396L286.514 367.634L283.055 369.045L282.623 369.342L281.703 372.837L280.139 377.083L279.916 379.987L278.798 381.998H276.788L275.67 379.764L272.542 380.21L269.849 380.724L269.509 381.202L268.968 385.126L266.733 387.807L266.957 392.276L265.169 394.063L262.935 396.074L259.583 396.968L257.167 396.388L253.005 398.559L251.013 400.146L250.202 400.571L247.965 399.872L246.178 397.415L244.391 394.287L242.156 390.265L241.486 388.924L240.695 388.232L240.483 387.042L239.837 385.611L239.132 384.848L236.76 379.553L235.449 374.652L236.124 370.603L236.262 367.14L237.78 366.478L238.539 365.858L239.321 364.858L241.93 362.082L247.562 357.182H249.424L250.788 358.009L251.772 358.891L252.78 359.843L252.907 359.951L255.201 359.377L256.679 358.228V355.633L256.902 352.952V349.154L257.888 347.272L260.558 345.261L263.321 345.737L264.749 345.897L265.839 344.686L267.851 342.898L270.084 340.217L275 340.664L276.282 341.433L276.804 341.278L277.234 341.781L281.703 342.228L287.289 341.781L289.747 340.44L290.813 337.951L291.565 337.529L292.905 336.59L293.664 335.466L293.877 334.366L294.031 330.597L293.379 322.128L293.083 320.352L292.72 318.423L293.545 316.98L295.109 315.417L296.824 312.844L296.942 312.922L297.059 313.018L297.12 312.735L298.013 311.171L299.577 310.724L301.812 310.948L303.375 312.735L306.503 312.958Z" fill="#C7C7C7" stroke="white" stroke-width="2"/>
<path d="M497.494 651.265L500.842 654.004L501.755 657.656H504.799L507.234 658.265L508.756 661.309L513.018 661.613L514.844 663.135L516.388 663.797L512.876 671.273L516.354 680.567L519.793 689.753L521.33 690.553L524.682 692.787L527.668 694.977L525.497 696.313L523.671 699.661L519.714 701.183L516.365 700.574L514.234 697.226H512.104L508.147 699.052L505.712 696.617L506.93 693.269L509.061 690.834L508.451 689.008L503.886 688.095L502.119 687.159L502.06 687.485H498.407L497.189 685.051L496.276 682.615L495.059 683.225L493.842 685.659L492.319 685.051L490.188 683.225H488.362L485.928 683.528L485.015 680.789L484.405 677.441L483.492 674.093L486.536 672.875L488.667 671.962L489.58 669.223L491.406 668.918V664.961L489.275 663.744L488.667 660.7L490.188 659.178L492.624 657.656L492.015 653.395L490.188 652.481L486.536 652.786L483.797 652.481H481.058L480.448 650.655L481.058 648.829L484.405 648.524H487.754L490.798 649.438L494.45 650.352L497.494 651.265Z" fill="#C7C7C7" stroke="white" stroke-width="2"/>
</svg>
