<svg width="796" height="391" viewBox="0 0 796 391" fill="none" xmlns="http://www.w3.org/2000/svg">
<path d="M716.449 49.89L717.679 49.48L717.819 50.2L719.219 49.91L720.129 48.87L720.549 49.9L721.199 50.12L721.289 49.62L722.079 49.29L721.259 48.9L721.459 48.35L722.389 48.78L722.639 48.32L723.229 49.61L724.519 50.49L724.709 49.59L724.159 49.21L724.219 48.37L725.839 48.86L727.519 47.21L728.469 47.81L729.319 48.15L729.519 49.41L729.199 49.5L729.399 50.06L730.359 50.13L730.079 50.8L730.669 50.63L732.589 51.45L733.679 50L733.929 50.19L733.989 51.08L732.619 52.73L732.769 54.8L733.559 56.1L732.719 56.85L731.529 56.13L730.799 56.96L729.519 56.19L728.759 56.56L729.329 57.83L728.199 60.68L726.319 61.39L726.509 62.58L727.429 63.33L727.509 65.74L729.059 66.52L727.069 67.35L727.809 69.73L728.909 70.89L726.209 71.93L726.779 73.78L725.599 75.12L725.559 76.84L725.509 77.66L724.959 77.91L724.019 77.47L723.879 78.63L722.639 78.89L722.459 80.47L721.389 79.93L720.269 80L720.069 78.96L721.489 78.97L721.609 76.07L720.869 75.48V74.56L718.729 75.47L718.659 72.8L718.369 72.21L717.389 71.94L716.859 72.76L716.749 74.39L715.869 74.3L714.639 73.03L712.039 70.5L713.049 66.28L713.119 65.54L712.679 65.4L715.259 56.81L716.449 49.89Z" fill="#C7C7C7" stroke="white" stroke-width="2"/>
<path d="M731.62 160.08L732.01 159.7L732.67 160.36L735.07 159.74L736.51 160.9L737.4 160.15L741.9 162.81L744.42 163.02L747.25 164.87L748.34 164.5L749.78 164.73L750.48 165.33L752.67 165.34L752.73 164.61L753.74 164.2L754.56 163.16L754.74 162.46L755.47 162.19L755.86 161.27L755.55 160.94L757.16 160.9L757.75 160.04L759.32 159.63L760.68 162.35L762.39 163.02L762.11 163.92L763.35 166.49L763.65 166.61L763.59 165.94L764.28 166.02L764.99 165.36L765.73 166.11L766.3 165.42L766.52 165.77L767.49 165.58L768.04 164.7L769.01 164.43L769.28 164.8L770.42 164.08L770.48 164.81L769.37 166.23L769.9 166.78L769.32 168.46L768.78 168.8L768.33 171.98L766.92 172.31L765.28 171.13L764.34 171.7L764.58 172.69L762.92 173.16L762.01 172.74L760.1 173.68L760.55 174.68L760.34 175.96L759.48 176.96L759.44 178.1L758.15 180.22L755.87 182.28L755.09 182.48L754.25 184.93L754.39 186.23L754 186.33L754.04 186.95L753.64 186.83L752.96 188.64L752.48 188.6L752.39 190.51L751.89 190.55L752.21 191.72L750.26 191.61L748.87 193.08L747.06 192.53L744.59 193.56L744.23 193.25L744.29 193.59L742.74 194.51L742.41 194.26L742.09 194.81L741.46 194.78L741.36 195.24L740.24 195.35L740.26 196.12L739.9 196.03L739.73 196.55L739.2 196.18L738.72 196.58L737.38 196.45L736.6 197.62L737.11 198.19L735.95 198.51L734.74 199.93L730.86 199.03L728.96 197.32L728.13 197.24L728.45 196.42L728.05 195.73L726.71 195.19L726.42 195.8L726.18 195.42L723.61 195.96L723.49 196.96L722.57 197.65L720.55 197.57L718.81 196.28L717.36 196.65L716.62 197.69L715.84 196.69L713.65 196.91L713.14 195.46L711.67 195.02L712 191.46L710.93 188.82L711.99 184.27L711.15 182.88L711.77 180.07L712.3 180.65L713.59 180.26L715.23 182.7L715.94 182.1L717.32 182.86L717.65 182.43L718.27 182.56L718.38 180.87L718.93 180.1L719.47 180.21L719.4 178.96L719.84 178.72L722.9 178.45L723.09 178.02L726.37 178.97L726.23 178.2L727.36 176.9L727.05 176.4L727.54 173.14L726.74 171.83L725.32 172L723.88 169.97L724.54 168.28L725.34 168.73L725.58 167.34L726.13 167.24L726.28 166.67L727 167.36L727.62 167.32L727.83 165.42L729.24 165.71L729.85 164.78L732.71 163.92L732.72 162.23L731.62 160.08Z" fill="#C7C7C7" stroke="white" stroke-width="2"/>
<path d="M735.198 16.18L734.858 18.66L734.028 20.68L733.038 21.67L735.638 21.18L737.158 21.85L736.898 25.28L740.558 25.93L741.518 24.79L742.788 26.55L742.478 27.27L741.888 27.39L741.958 28.1L741.108 28.6L741.188 29.13L740.178 29.06L739.888 30.08L738.768 30.56L738.668 32.54L737.408 34.04L737.838 34.16L737.628 34.87L737.168 36.04L735.838 37.23L734.748 36.21L734.078 36.79L733.028 36.21L732.188 35.49L732.398 34.76L731.798 34.62L731.578 33.81L730.068 33.33L729.788 34.1L729.038 34.07L728.038 35.11L727.738 36.3L726.818 35.87L726.518 34.8L724.368 35.43L724.678 34.63L724.198 34.49L723.188 35.38L722.418 34.85L720.978 35.15L720.438 36.1L717.528 36.3L717.128 34.55L717.538 34.19L718.158 33.82L717.698 33.3L716.278 33L715.658 31.93L714.678 32.06L713.258 30.95L712.328 30.84L711.238 24.91L712.908 24.82L714.808 23.71L715.838 23.64L716.248 24.11L716.498 23.13L717.728 23.98L718.578 23.62L719.038 24.43L719.738 24.11L719.528 22.76L720.338 22.08L720.438 20.12L720.968 19.59L721.428 19.54L721.468 20.07L722.238 19.85L723.408 18.8L724.968 18.25L725.738 18.69L727.128 18.63L727.518 17.8L728.228 18.21L730.618 16.47L731.528 16.68L731.598 16.23L733.848 16.66L735.198 16.18Z" fill="#C7C7C7" stroke="white" stroke-width="2"/>
<path d="M774.71 9L775.7 9.22L776.27 10.93L777.03 11.21L780.35 11.09L781.4 9.92L782.62 10.89L781.94 13.47L783.69 13.97L782.81 17.91L782.01 19.38L782.42 19.64L782.87 22.04L784.2 23.02L785.53 22.62L785.94 21.85L790.43 22.82L791.94 24.04L792.53 25.13L793.61 25.65L794 26.49L792.49 28.73L791.83 29.04L792.05 29.62L791.58 29.7L791.71 30.19L791 30.51L790.33 31.74L790.5 32.62L789.45 33.39L789.94 34.43L788.84 34.74L788.4 34.1L787.67 34.47L787.55 35.09L788.07 35.53L786.86 36.01L786.15 37.8L784.6 38.38L784.87 39.03L784.3 39.44L783.47 39.04L781.93 40.57L781.29 39.89L781.03 40.38L779.5 40.21L778.14 41.8L777.58 43.35L775.72 44.93L776.16 46.21L774.43 49.03L772.55 49.43L771.04 48.95L770.56 49.33L769.37 49.04L768.65 49.51L768.46 49.02L767.02 48.71L766.55 47.93L765.18 47.2L765.16 46.19L765.75 45.3L764.28 44.81L764.77 44.26L764.69 43.07L763.22 45.29L760.51 44.5L758.78 44.73L757.1 44.38L756.06 42.4L754.75 41.75L755.31 40.18L756.16 40.34L756.03 38.61L756.96 37.85L756.54 37.41L757.15 36.71L758.46 36.41L756.98 35.3L757.26 34.81L756.81 33.19L756.86 32.13L758.97 31.12L758.87 30.15L759.43 28.97L761.16 28.67L760.23 26.97L760.22 25.79L761.8 20.7L762.96 19.33L762.99 18.27L762.27 17.75L761.75 16.41L762.06 13.64L762.92 11.97L762.41 11.02L762.54 9.72L763.93 8.94L765.63 9.67L766.12 10.67L768.2 10.64L769.05 9.64999L769.73 9.86L770.15 10.89L771.8 11.09L774.03 10.83L774.35 8.86L774.71 9Z" fill="#C7C7C7" stroke="white" stroke-width="2"/>
<path d="M743.689 82.47L745.219 82.18L745.979 81.19L747.679 80.66L748.849 79.59L749.169 78.6L750.039 79.11L751.429 78.84L752.129 76.74L753.009 75.66L753.809 75.37L754.269 75.99L754.949 75.78L755.939 76.24L757.039 75.76L757.499 76.2L758.049 75L758.709 75.31L759.139 74.78L759.849 75.12L759.749 77.62L758.709 79.41L757.889 79.83L758.319 80.37L760.809 81.29L761.679 80.15L763.299 80.87L764.099 80.28L764.269 79.07L764.859 78.56L765.749 80.46L767.419 80.47L767.949 79.98L769.929 81.33L769.549 82.12L767.989 82.65L767.449 84.26L767.869 84.67L767.719 86.01L768.609 87.3H770.259L771.009 89.21L771.789 89.45L772.689 91.43L771.969 92.77L772.029 94.36L771.339 95.05L771.439 97.23L770.019 99L768.799 99.71L769.129 101.25L767.899 105.42L763.609 106.13L760.449 105.57L757.859 106.63L754.009 105.75L751.289 105.7L749.999 105.95L748.259 107.37L747.179 106.3L746.179 106.81L745.579 108.58L744.549 108.78L744.079 109.76L742.339 110.86L742.799 109.51L742.419 108.75L741.089 106.74L740.219 106.53L739.509 105.5L738.149 105.79L738.279 103.53L737.759 102.36L737.119 103.05L736.609 102.43L735.639 102.26L735.089 102.75L734.979 105.36L734.379 105.9L735.069 107.59L732.559 107.84L729.349 106.46L729.579 102.04L729.139 100.99L728.429 101.4L727.809 100.33V100.3L727.559 99.77L728.219 99.33L728.119 98.39L729.629 97.83L730.179 98.04L730.929 96.79L731.489 97.04L732.099 96.63L733.059 94.63L733.179 94.03L734.199 94.1L734.089 93.35L734.729 93.79L735.029 93.17L735.769 93.54L735.819 92.55L736.269 93.11L736.649 93.05L736.379 92.36L736.889 92.82L737.529 92.37L737.969 92.86L738.299 91.82L739.909 91.81L739.469 90.58L741.099 89.54L742.339 89.84L742.869 90.46L742.929 89.04L743.239 88.75L742.579 88.78L743.539 88.4L743.969 89.29L744.929 88.14L744.659 87.82L745.279 87.57L745.139 86.81L743.239 85.29L742.839 84.45L743.689 82.47Z" fill="#C7C7C7" stroke="white" stroke-width="2"/>
<path d="M712.05 70.47L714.65 73L715.88 74.27L716.76 74.36L716.87 72.73L717.4 71.91L718.37 72.18L718.66 72.77L718.74 75.44L720.87 74.53V75.45L721.61 76.04L721.5 78.94L720.08 78.93L720.28 79.97L721.4 79.9L722.46 80.44L722.64 78.86L723.88 78.59L724.02 77.43L724.96 77.87L725.51 77.62L725.56 76.8L725.98 76.69L726.42 77.32L727.35 77.18L728.89 78.62L730.72 77.79L730.97 78.19L731.42 77.72L732.58 78.21L735.47 76.05L737.64 75.24L740.47 72.43L742.23 71.38L742.27 72.07L743.23 73.08L742.79 73.82L741.61 74.26L741.7 74.87L742.28 75.32L743.22 75.24L742.97 77.54L744.45 78.27L744.22 78.9L742.99 79.26L742.31 80.99L743.69 82.47L742.84 84.45L743.24 85.29L745.14 86.81L745.28 87.57L744.66 87.82L744.93 88.14L743.97 89.29L743.54 88.4L742.58 88.78L743.24 88.75L742.93 89.04L742.87 90.46L742.34 89.84L741.1 89.54L739.47 90.58L739.91 91.81L738.3 91.82L737.97 92.86L737.53 92.37L736.89 92.82L736.38 92.36L736.65 93.05L736.27 93.11L735.82 92.55L735.77 93.54L735.03 93.17L734.73 93.79L734.09 93.35L734.2 94.1L733.18 94.03L733.06 94.63L732.63 94.39L733.34 93.09L731.89 91.02L732.27 88.93L731.16 88.24L730.19 89.78L729.16 89.16L728.1 90.06L727.4 91.54L728.27 92.37L727.99 93.59L726.9 92.39L725.01 95.05L723.9 94.72L724.82 93.75L723.36 90.83L723.02 91.27L723.33 92.02L722.37 91.19L721.32 92.49L720.32 92.56L719.8 94.02L719.07 90.77L718.13 90.79L717.39 92.24L716.51 92.32L716.57 91.47L715.48 90.69L712.61 90.24L711.53 91.41L710.3 90.75L709.38 90.96L708.58 90.1L709.6 86.27L708.09 84.21L710.14 78.31L712.05 70.47Z" fill="#C7C7C7" stroke="white" stroke-width="2"/>
<path d="M729.62 133.2L729.91 133.57L731.29 131.85L731.65 132.08L732.01 131.6L732.62 132.2L732.68 131.76L733.53 131.77L733.7 132.17L733.01 132.53L733.56 133.94L734.06 133.65L734.09 132.44L734.59 132.05L736.38 133.44L736.11 135.08L737.23 134.94L739.19 133.71L740.13 135.46L740.7 135.67L740.73 136.39L743.45 136.9L743.59 136.44L744.64 136.4L745.25 135.15L746.35 136.23L746.81 135.54L748.26 136.27L749.31 134.56L750.56 134.61L751.27 133.98L750.93 132.99L751.55 132.35L752.2 133.26L753.07 133.18L752.98 133.68L754.09 134.13L753.67 135.68L755.04 136.59L754.89 137.66L755.62 138.8L755 138.83L755.6 139.28L756.03 140.71L756.76 140.31L757.18 140.86L758.03 140.61L758.11 139.75L758.71 139.54L759.09 139.13L759.56 139.65L760.66 138.84L761.24 139.61L761.84 139.51L761.05 141.47L761.96 142.73L760.19 143.85L759.79 147.28L760.7 147.86L758.46 152.29L758.24 153.72L758.91 153.54L758.96 154.07L757.79 155.43L758.38 155.25L759.56 156.08L759.82 157.08L763.03 161.71L763.64 161.85L764.99 165.36L764.28 166.02L763.59 165.94L763.65 166.61L763.35 166.49L762.11 163.92L762.39 163.02L760.68 162.35L759.32 159.63L757.75 160.04L757.16 160.9L755.55 160.94L755.86 161.27L755.47 162.19L754.74 162.46L754.56 163.16L753.74 164.2L752.73 164.61L752.67 165.34L750.48 165.33L749.78 164.73L748.34 164.5L747.25 164.87L744.42 163.02L741.9 162.81L737.4 160.15L736.51 160.9L735.07 159.74L732.67 160.36L732.01 159.7L731.62 160.08L730.57 159.17L728.31 158.73L728.06 158.01L726.63 157.98L727.85 156.38L727.28 155.89L727.85 155.83L727.61 155.3L726.61 155.39L727.01 154.52L725.16 151.01L723.45 152.01L722.74 151.75L721.78 152.18L720.88 150.94L720.39 151.13L720.83 152.08L720.12 152.4L720 151.72L718.73 151.58L718.65 150.92L716.63 150.86L716.18 148.34L720.99 144.18L720.68 143.36L721.31 142.33L719.55 142.24L721.01 140.47L721.96 140.97L723.23 139.39L723.58 139.25L723.9 139.84L724.89 138.49L726.03 139.2L726.67 138.38L727.02 138.96L727.31 138.03L728.59 139.02L728.38 139.35L728.89 140.02L729.79 139.58L730.58 140.45L730.34 140.8L731.33 140.73L731.2 141.24L732.34 141.86L732.85 140.63L732.06 139.97L731.76 140.5L731.56 139.63L730.89 139.26L731.8 138.09L731.07 137.56L730.25 137.76L730.17 137.35L728.22 136.43L729.15 135.19V133.76L729.62 133.2Z" fill="#C7C7C7" stroke="white" stroke-width="2"/>
<path d="M742.33 212.34L742.88 212.44L740.93 213.98L741.38 212.96L742.33 212.34ZM738.63 212.27L740.9 213.95L739.17 213.72L737.49 212.48L738.63 212.27ZM742.55 211.64L742.92 212L741.31 212.47L742.55 211.64ZM729.5 209.24L727.4 209.67L725.27 208.51L723.02 209.15L719.9 207.87L717.35 207.67L715.82 208.31L715.73 209.41L713.86 209.11L711.93 210.04L710.29 210.13L709.54 210.86L708.58 210.84L706.89 212.77L706.39 211.52L705.34 211.63L708.29 205.99L707.82 204.76L708.53 204.36L709.65 201.89L709.09 199.83L710.14 198.6L711.67 195L713.14 195.44L713.65 196.89L715.84 196.67L716.62 197.67L717.36 196.63L718.81 196.26L720.54 197.55L722.56 197.64L723.48 196.95L723.6 195.95L726.17 195.41L726.41 195.79L726.7 195.18L728.03 195.72L728.44 196.41L728.12 197.23L728.95 197.31L730.86 199.02L734.73 199.91L735.94 198.5L737.1 198.17L736.59 197.6L737.37 196.43L738.72 196.56L739.19 196.16L739.72 196.54L739.89 196.02L740.26 196.11L740.24 195.34L741.37 195.23L741.46 194.77L742.1 194.8L742.42 194.25L742.75 194.51L744.3 193.59L744.24 193.25L744.6 193.56L747.08 192.53L748.88 193.09L750.28 191.61L752.23 191.72L752.87 191.88L753.12 192.83L753.76 193.27L753.6 194.01L754.34 195.96L753.8 196.37L754.5 197.08L754.45 200.23L755.1 201.71L754.72 202.65L755.36 203.63L755.55 205.75L753.91 205.53L750.71 206.54L743.34 211.93L742.32 211.45L740.93 212.27L740.94 213.11L740.48 213.26L738.7 212.13L737.37 212.38L733.33 209.76L731.06 208.96L729.5 209.24Z" fill="#C7C7C7" stroke="white" stroke-width="2"/>
<path d="M755.198 53.81L756.428 54.66L755.808 55.54L754.798 54.95L755.198 53.81ZM758.778 44.73L760.518 44.5L763.218 45.29L764.688 43.07L764.778 44.26L764.288 44.81L765.748 45.3L765.158 46.19L765.178 47.21L766.548 47.93L767.018 48.71L768.458 49.03L768.648 49.52L769.378 49.05L770.568 49.34L770.878 50.46L772.848 52.66L773.168 54.62L774.438 55.47L774.668 56.37V57L773.878 57.22L774.198 59.02L773.748 60.86L774.918 64.66L773.298 68.61L774.708 69.26L774.888 70.87L773.168 73.35L773.648 75.16L775.338 76.94L774.928 78.43L772.808 79.62L772.508 81.15L769.968 81.35L767.988 80.01L767.468 80.5L765.788 80.49L764.898 78.59L764.298 79.1L764.128 80.31L763.328 80.9L761.718 80.18L760.848 81.32L758.358 80.4L757.928 79.85L758.748 79.43L759.788 77.64L759.888 75.14L759.178 74.81L758.738 75.33L758.078 75.03L757.528 76.22L757.068 75.79L755.968 76.27L754.988 75.8L754.308 76.01L753.858 75.39L753.058 75.68L752.178 76.75L751.478 78.85L750.088 79.12L749.218 78.61L748.908 79.59L747.728 80.67L746.028 81.2L745.268 82.19L743.728 82.48L742.358 81L743.038 79.28L744.268 78.92L744.498 78.29L743.018 77.57L743.268 75.27L742.328 75.35L741.748 74.9L741.648 74.29L742.828 73.86L743.268 73.11L742.308 72.1L742.278 71.41L747.418 68.88L750.088 68.31L749.828 67.81L750.558 65.33L751.308 64.75L751.018 64.02L751.528 63.47L749.768 62.49L749.588 61.87L750.408 61.02L748.598 59.68L749.928 56.72L750.718 55.9L752.208 56.02L754.118 58.39L755.708 55.64L756.448 56.05L756.628 54.23L757.828 53.33L758.178 51.75L756.488 50.95L756.478 50.03L757.788 49.99L757.528 48.65L758.778 44.73Z" fill="#C7C7C7" stroke="white" stroke-width="2"/>
<path d="M715.142 109.16L715.622 109.79L714.852 111.06L714.252 111.53L713.642 110.9L713.242 111.2L713.792 113.19L711.482 113.07L708.292 113.76L706.962 116.81L706.242 116.68L705.542 117.4L705.432 120.65L704.422 120.79L704.012 120.1L703.162 120.12L702.982 120.54L701.832 121.49L700.752 123.39L699.642 124.11L698.872 122.64L699.362 121.78L698.942 120.42L697.522 120.32L697.202 119.8L695.902 121.19L694.502 120.85L693.742 118.53L692.352 118.09L692.742 117.65L694.332 117.94L697.662 115.41L698.592 116.17L698.232 116.43L699.482 116.39L698.932 116.32L698.102 114.99L699.872 112.35L700.952 112.2L700.692 111.5L702.882 108.8L702.932 108.21L702.542 108.13L703.682 103.4L708.632 90.11L709.432 90.97L710.352 90.76L711.592 91.42L712.662 90.26L715.532 90.7L716.622 91.48L716.572 92.33L717.452 92.25L718.192 90.8L719.132 90.79L719.852 94.04L720.372 92.58L721.372 92.52L722.422 91.22L723.382 92.05L723.072 91.3L723.412 90.86L724.872 93.78L723.962 94.75L725.072 95.08L726.962 92.42L728.052 93.62L728.332 92.41L727.472 91.58L728.172 90.1L729.232 89.2L730.262 89.83L731.232 88.28L732.352 88.98L731.962 91.07L733.412 93.14L732.702 94.44L733.142 94.68L732.182 96.68L731.572 97.1L731.012 96.85L730.262 98.1L729.712 97.89L728.202 98.45L728.302 99.39L727.642 99.83L727.892 100.36L726.402 100.08L726.512 101.75L726.012 101.24L724.912 102.16L724.152 101.82L722.612 103.02L721.842 98.63L720.932 99.57L720.502 99.04L719.812 100.12L718.192 101.14L716.862 100.61L715.552 101.27L715.422 102.38L715.942 103.27L715.472 103.93L716.902 104.53L716.412 105.9L714.742 106.82L715.142 109.16Z" fill="#C7C7C7" stroke="white" stroke-width="2"/>
<path d="M700.661 144.6L698.421 145.15L696.371 144.86L695.021 145.89L692.861 144.73L691.771 145.24L689.891 144.48L690.341 142.8L689.441 141.56L692.041 135.02L692.291 135.2L691.741 132.61L691.921 129.68L694.331 124.47L694.471 120.87L695.871 121.21L697.181 119.82L697.501 120.34L698.921 120.45L699.351 121.81L698.871 122.67L699.641 124.14L700.751 123.42L701.831 121.52L702.981 120.57L703.171 120.15L704.021 120.13L704.431 120.82L705.441 120.68L706.051 121.07L705.861 122.59L706.451 122.36L708.061 123.19L709.211 122.55L709.631 123.38L710.561 123.67L710.761 125.18L709.061 125.16L708.031 125.75L709.471 127.52L711.661 128.82L712.171 130.36L710.851 131.59L709.691 131.56L710.291 132.04L709.161 133.94L710.001 134.23L708.721 134.97L708.091 137.24L706.271 139.74L705.611 138.71L705.971 138.09L705.451 137.43L705.431 135.1L704.661 137.25L702.611 140.01L702.041 143.54L700.661 144.6Z" fill="#C7C7C7" stroke="white" stroke-width="2"/>
<path d="M751.429 105.79L752.619 108.72L753.829 109.41L754.809 110.97L756.059 111.17L756.329 112.74L756.949 113.14L757.409 112.87L759.099 114.14L758.199 117.21L758.679 119.05L761.079 121.4L760.559 122.41L760.769 124.25L761.829 125.1L764.139 125.75L763.849 128.29L765.069 128.67L767.359 127.94L768.999 129.13L769.669 130.48L769.409 131.09L769.939 131.73L766.749 136.45L767.349 137.59L767.149 138.16L766.229 138.58L765.349 140.13L763.959 140.53L761.959 142.73L761.049 141.47L761.839 139.51L761.239 139.61L760.659 138.84L759.559 139.65L759.089 139.13L758.709 139.54L758.109 139.75L758.029 140.61L757.179 140.86L756.759 140.31L756.029 140.71L755.599 139.28L754.999 138.83L755.619 138.8L754.889 137.66L755.039 136.59L753.669 135.68L754.089 134.13L752.979 133.68L753.069 133.18L752.199 133.26L751.549 132.35L750.929 132.99L751.269 133.98L750.559 134.61L749.309 134.56L748.259 136.27L746.809 135.54L746.349 136.23L745.249 135.15L744.639 136.4L743.589 136.44L743.449 136.9L740.729 136.39L740.699 135.67L740.129 135.46L739.189 133.71L737.229 134.94L736.109 135.08L736.379 133.44L734.589 132.05L734.089 132.44L734.059 133.65L733.559 133.94L733.009 132.53L733.699 132.17L733.529 131.77L732.679 131.76L732.619 132.2L732.009 131.6L731.649 132.08L731.289 131.85L729.909 133.57L729.619 133.2L729.649 132.5L728.939 132.55L728.359 130.63L727.629 130.31V129.43L726.249 128.84L725.969 128.24L727.389 126.08L729.289 125.34L730.939 123.84L732.039 122.55L731.899 121.85L732.539 121.07L734.329 121.42L735.979 118.83L735.869 117.92L737.809 117.16L738.729 116.05L737.019 114.51L736.529 113.47L738.219 109.75L741.509 111.94L742.339 110.86L744.079 109.76L744.549 108.78L745.579 108.58L746.179 106.81L747.179 106.3L748.259 107.37L749.999 105.95L751.289 105.7L751.429 105.79Z" fill="#C7C7C7" stroke="white" stroke-width="2"/>
<path d="M715.009 43.49L714.169 42.03L713.469 36.66L711.969 33.19L712.339 30.84L713.269 30.95L714.689 32.06L715.659 31.93L716.289 33.01L717.709 33.3L718.169 33.83L717.549 34.2L717.139 34.56L717.539 36.31L720.449 36.12L720.989 35.17L722.439 34.87L723.199 35.4L724.209 34.51L724.689 34.65L724.379 35.45L726.529 34.82L726.829 35.89L727.749 36.32L728.049 35.13L729.049 34.09L729.799 34.12L730.079 33.35L731.579 33.83L731.799 34.63L732.409 34.78L732.189 35.51L733.039 36.23L734.089 36.81L734.759 36.23L735.849 37.25L737.189 36.06L737.649 34.89L737.699 35.51L738.499 35.83L737.979 36.8L739.759 37.93L739.329 38.43L739.489 39.18L740.769 40.46L739.619 45.57L738.359 45.45L735.169 46.83L733.809 46.37L732.559 47.08L730.379 46.65L728.499 47.83L727.549 47.24L725.869 48.89L724.249 48.4L724.189 49.24L724.739 49.63L724.549 50.53L723.259 49.65L722.669 48.36L722.419 48.82L721.489 48.39L721.289 48.94L722.109 49.33L721.319 49.66L721.229 50.16L720.579 49.94L720.169 48.91L719.259 49.95L717.859 50.24L717.719 49.52L716.489 49.93L715.759 44.77L715.009 43.49Z" fill="#C7C7C7" stroke="white" stroke-width="2"/>
<path d="M705.41 120.65L705.52 117.4L706.22 116.68L706.94 116.81L708.28 113.76L711.47 113.07L713.78 113.19L713.24 111.19L713.64 110.9L714.25 111.53L715.61 109.82L714.64 106.74L716.31 105.82L716.8 104.45L715.37 103.85L715.84 103.19L715.32 102.3L715.45 101.19L716.76 100.54L718.1 101.07L719.72 100.05L720.41 98.97L720.84 99.5L721.75 98.56L722.52 102.95L724.06 101.75L724.82 102.09L725.92 101.17L726.42 101.68L726.32 100.01L727.82 100.29L727.83 100.33L728.44 101.4L729.16 100.98L729.6 102.04L729.37 106.46L732.58 107.84L735.09 107.6L734.4 105.9L735 105.37L735.1 102.76L735.65 102.27L736.63 102.44L737.13 103.06L737.77 102.37L738.3 103.54L738.17 105.81L739.53 105.52L740.24 106.54L741.11 106.75L742.44 108.76L742.82 109.51L742.36 110.86L741.53 111.94L738.24 109.75L736.55 113.47L737.04 114.51L738.75 116.04L737.83 117.15L735.89 117.91L736 118.83L734.35 121.41L732.56 121.07L731.93 121.85L732.07 122.55L730.97 123.83L729.32 125.34L727.43 126.07L726 128.23L726.29 128.84L727.66 129.43L727.67 130.31L728.4 130.63L728.98 132.55L729.69 132.5L729.66 133.2L729.2 133.76L729.19 135.18L728.26 136.43L730.22 137.35L730.3 137.77L731.13 137.57L731.86 138.1L730.95 139.27L731.62 139.64L731.82 140.52L732.12 139.98L732.91 140.64L732.4 141.87L731.25 141.25L731.39 140.74L730.4 140.81L730.64 140.46L729.84 139.59L728.94 140.04L728.43 139.37L728.64 139.04L727.36 138.05L727.07 138.98L726.72 138.4L726.08 139.22L724.94 138.51L723.94 139.86L723.62 139.27L723.27 139.41L722 141L721.05 140.5L719.58 142.28L717.49 141.49L718.02 139.16L716.98 139.57L716.67 140.43L714.5 138.98L713.06 143.12L711.86 143.47L710.36 142.36L708.67 143.19L708.3 142.97L708.19 143.4L707.61 142.45L707.01 141.71L707.46 141.44L707.32 140.67L706.26 139.76L708.08 137.26L708.71 134.99L709.99 134.26L709.15 133.97L710.29 132.07L709.69 131.59L710.85 131.62L712.17 130.39L711.66 128.85L709.47 127.55L708.03 125.78L709.06 125.19L710.77 125.21L710.57 123.7L709.64 123.41L709.22 122.58L708.07 123.22L706.47 122.39L705.88 122.62L706.08 121.1L705.41 120.65Z" fill="#C7C7C7" stroke="white" stroke-width="2"/>
<path d="M712.192 156L715.592 156.11L714.702 155.16L714.032 155.21V152.24L713.462 151.93L713.372 150.45L712.712 151.77L711.902 151.13L712.122 152.26L711.202 152.48L712.902 152.64L712.962 153.39L712.192 153.97L711.602 154.11L711.722 153.42L708.432 152.04L707.472 152.51L707.312 153.32L705.832 153.69L704.322 155.02L703.202 155.47L701.812 155.14L700.992 155.69L699.892 155.67L699.032 156.48L698.182 156.3L699.482 152.61L700.672 151.87L699.472 152.18L698.542 148.6L696.922 146.28L700.612 145.25L700.602 146.16L702.062 146.84L701.212 146.71L701.882 147.98L701.842 147.1L702.612 147.02L703.632 148.65L703.162 146.85L702.342 146.41L703.912 145.63L704.022 146.34L704.572 145.98L705.392 146.75L704.932 145.48L706.212 144.79L704.232 144.77L703.692 145.21L703.832 144.17L706.432 142.5L707.592 142.39L708.172 143.34L708.282 142.91L708.652 143.14L710.342 142.32L711.842 143.43L713.042 143.08L714.482 138.94L716.652 140.4L716.962 139.54L718.002 139.13L717.472 141.46L719.562 142.25L721.322 142.34L720.692 143.37L721.002 144.19L716.192 148.35L716.642 150.88L718.662 150.94L718.742 151.6L720.012 151.74L720.132 152.42L720.842 152.1L720.402 151.15L720.892 150.97L721.792 152.21L722.752 151.78L723.462 152.04L725.172 151.04L727.032 154.55L726.632 155.42L727.632 155.33L727.872 155.86L727.302 155.92L727.872 156.41L726.642 158.01L728.072 158.04L728.332 158.76L730.592 159.2L731.642 160.11L732.742 162.26V163.96L729.882 164.82L729.272 165.74L727.872 165.45L727.652 167.35L727.002 167.36L726.282 166.68L726.142 167.24L725.592 167.35L725.342 168.73L724.542 168.28L723.882 169.97L725.332 172L726.752 171.83L727.552 173.14L727.062 176.4L727.372 176.9L726.242 178.2L726.382 178.98L723.102 178.03L722.912 178.46L719.852 178.72L719.412 178.96L719.482 180.21L718.942 180.1L718.382 180.87L718.282 182.56L717.662 182.43L717.332 182.86L715.952 182.11L715.242 182.71L713.602 180.26L712.312 180.65L711.782 180.07L711.302 175.76L709.892 175.44L709.442 174.71L708.782 174.79L710.362 172.03L711.922 167.04L712.362 163.32L712.042 159.38L710.732 156.01L708.182 153.15L710.772 155.07L711.592 157.3L711.332 155.17L712.192 156Z" fill="#C7C7C7" stroke="white" stroke-width="2"/>
<path d="M730.772 2.5L731.062 5.78999L733.072 5.06L733.762 5.48L734.202 7.34999L733.872 8.05L732.782 8.31L731.672 9.28L729.972 12.21L730.502 13.88L731.472 13.77L731.602 16.23L731.532 16.68L730.622 16.47L728.232 18.21L727.522 17.8L727.132 18.63L725.742 18.69L724.972 18.25L723.412 18.8L722.242 19.85L721.472 20.07L721.432 19.54L720.972 19.59L720.442 20.12L720.342 22.08L719.532 22.76L719.742 24.11L719.042 24.43L718.582 23.62L717.732 23.98L716.502 23.13L716.252 24.11L715.842 23.64L714.812 23.71L712.912 24.82L711.242 24.91L710.732 22.44L710.292 21.9L710.142 22.33L709.012 19.11L709.192 17.1L709.652 16.56L709.202 16.11L709.242 14.03L710.972 12.3L712.932 11.37L713.312 9.98999L715.902 8.44L716.052 7.26999L716.732 6.51999L719.572 6.25L720.402 5.17L722.822 5.05L723.272 5.48L724.762 5.31L725.352 4.70999L726.332 4.98999L726.802 4.12L728.652 3.39L728.802 2.75L729.742 2.89L730.542 2L730.772 2.5Z" fill="#C7C7C7" stroke="white" stroke-width="2"/>
<path d="M739.789 11.63L740.459 11.75L740.219 14.49L740.829 15.1L741.819 14.19L741.699 13.57L743.379 13.49L744.279 12.82L745.229 13.1L746.259 12.45L747.739 13.57L749.889 13.54L749.079 15.77L751.929 15.23L752.529 14.07L754.099 14.25L754.379 15.34L754.949 15.72L754.869 16.69L756.839 14.77L757.139 15.29L758.439 15.2L762.059 13.64L761.749 16.41L762.269 17.75L762.989 18.27L762.959 19.33L761.799 20.7L760.219 25.79L760.229 26.97L761.159 28.67L759.429 28.97L758.869 30.15L758.969 31.12L756.859 32.13L756.809 33.19L757.259 34.81L756.979 35.3L758.459 36.41L757.149 36.71L756.539 37.41L756.959 37.85L756.029 38.61L756.159 40.34L755.309 40.18L754.749 41.75L752.509 42.23L751.859 43.05L751.089 42.69L749.759 44.03L747.399 43.76L746.349 44.65L743.219 43.8L742.689 44.47L740.789 44L739.599 45.55L740.739 40.44L739.459 39.16L739.299 38.41L739.729 37.91L737.949 36.78L738.479 35.81L737.679 35.49L737.629 34.87L737.839 34.16L737.409 34.04L738.669 32.54L738.769 30.56L739.889 30.08L740.179 29.06L741.189 29.13L741.109 28.6L741.959 28.1L741.889 27.39L742.479 27.27L742.789 26.55L741.519 24.79L740.559 25.93L736.899 25.28L737.159 21.85L735.639 21.18L733.039 21.67L734.029 20.68L734.859 18.66L735.199 16.18L736.399 15.75L737.619 13.82L739.299 13.71L739.789 11.63Z" fill="#C7C7C7" stroke="white" stroke-width="2"/>
<path d="M754.75 41.75L756.06 42.4L757.1 44.38L758.77 44.73L757.47 48.62L757.73 49.96L756.42 50L756.43 50.92L758.12 51.72L757.78 53.3L756.58 54.2L756.4 56.02L755.67 55.61L754.08 58.36L752.17 55.99L750.68 55.87L749.89 56.69L748.56 59.65L750.37 60.99L749.55 61.84L749.73 62.46L751.5 63.44L750.99 63.99L751.28 64.72L750.53 65.3L749.8 67.78L750.06 68.28L747.39 68.85L742.25 71.38L740.48 72.43L737.65 75.24L735.48 76.05L732.59 78.21L731.43 77.72L730.98 78.19L730.73 77.79L728.9 78.62L727.36 77.18L726.43 77.32L725.99 76.7L725.57 76.81L725.61 75.09L726.79 73.75L726.22 71.9L728.92 70.86L727.82 69.7L727.08 67.33L729.07 66.5L727.52 65.72L727.44 63.31L726.52 62.56L726.33 61.37L728.21 60.66L729.34 57.81L728.77 56.54L729.53 56.17L730.81 56.94L731.54 56.11L732.73 56.83L733.57 56.08L732.78 54.78L732.63 52.71L734 51.06L733.94 50.17L733.69 49.98L732.61 51.43L730.69 50.61L730.1 50.78L730.38 50.11L729.42 50.04L729.22 49.48L729.54 49.39L729.34 48.13L728.49 47.79L730.37 46.61L732.55 47.04L733.8 46.33L735.16 46.8L738.35 45.42L739.61 45.54L740.81 43.99L742.71 44.46L743.24 43.79L746.37 44.64L747.42 43.75L749.77 44.02L751.1 42.68L751.87 43.04L752.52 42.21L754.75 41.75ZM754.8 54.95L755.81 55.54L756.43 54.66L755.2 53.81L754.8 54.95Z" fill="#C7C7C7" stroke="white" stroke-width="2"/>
<path d="M197.14 211.9L197.26 211.93L197.36 212.12L197.6 212.18L197.89 212.14V211.94L197.96 211.91L198.31 212.12L198.25 212.45L198.35 212.63L198.19 212.86L198.24 213.06L198.33 213.14L198.5 213.2L198.72 213.3L198.7 213.44L199.09 213.66L198.97 213.73L199.02 213.92L199.27 213.88L199.35 214.1L199.48 214.16L199.4 214.43L199.36 214.6L199.54 214.91L199.41 215.19L199.5 215.36L199.41 215.42L199.37 215.34L199.16 215.36L198.97 215.35L198.51 215.37L198.17 215.28L197.77 215.36L197.39 214.97L197.35 214.76L197.08 214.56L196.73 214.47L196.42 214.46L196.12 214.73L195.97 214.67L195.53 214.96L195.33 214.69L195.19 214.84L195.02 214.94L194.69 214.74L194.55 214.49L194.49 213.81L194.14 213.17L194.27 212.68L194.51 212.66L194.62 212.42L194.81 212.33L195.03 212.39L195.4 212.09L195.38 212.29L195.71 212.5L195.92 212.25L196.28 212.43L196.51 212.32L196.55 212.05L196.74 212.16L196.9 212.01L196.99 212.08L197.14 211.9ZM186.1 179.84L186.21 179.78L186.23 179.6H186.37L186.44 179.69L186.39 179.91L186.47 180L186.69 179.91L187.2 179.82L187.53 179.5L187.79 179.6L188.25 179.34L188.56 179.29L188.81 179.06L189.1 179.04L189.55 178.78L189.7 178.42L189.94 178.25L190 178.47L190.56 178.72H190.78L191.17 178.51L191.45 178.56L191.65 178.42L191.82 178.61L192.36 178.79L192.69 178.8L193.83 178.56L194.24 178.66L194.46 178.61L195.25 178.92L195.55 179.86L195.61 180.16L195.72 180.63L195.48 180.92L195.42 181.18L195.57 181.67L195.47 182.11L195.23 182.6L194.86 183.04L194.57 183.24L193.96 183.25L193.66 183.49L193.46 183.53L193.09 183.47L192.3 183.11H191.51L190.87 183.4L190.75 183.5L190.37 183.62L190.08 183.73L189.9 183.96L189.67 183.88L188.87 183.97L188.35 184.4L187.64 184.28L187.29 184.35L187.01 184.28L186.79 184.39L186.51 184.27L186.37 184.4L185.98 184.47L185.57 184.28L185.37 184.31L185.09 184.3L184.75 184.2L184.62 184.32L184.33 184.37L184.18 184.6L183.89 184.68L183.64 184.4L183.25 184.31L182.99 183.97L182.23 183.43L182.09 183.2L181.53 183.34L181.16 183.12L180.8 183.2L180.49 182.94L180.06 182.95L179.85 183.23L179.5 183.3L178.79 183.47L178.34 183.65L178.03 183.56L177.52 183.22L177.29 182.91L176.96 182.79L176.72 182.44L176.01 181.99L175.5 181.65L175.34 181.28L175.15 181.19L174.8 180.94L174.23 180.57L174.08 180.29L173.46 179.86L173.41 179.55L173.06 178.88L173.01 178.61L173.26 178.4L173.36 178.14L173.48 177.88L173.74 177.87L173.97 177.57L173.92 177.33L174 177.21L174.07 176.98L174.64 177.14L175.06 176.83L175.15 176.63L175.33 176.58L175.9 176.78L176.3 177.04L176.73 177.25L176.84 177.39L177.32 177.51L177.64 177.91L177.78 178.39L177.96 178.45L178.14 179.22L178.28 179.34L178.48 179.29L178.57 179.53L179.07 179.72H179.48L179.82 179.87L180.22 179.78L180.47 179.88L180.5 179.83L180.71 180.06L180.94 180.16L181.52 180.45L181.86 180.38L182.1 180.29L182.29 180.41L182.56 180.39L183.42 180.07L183.62 179.82L184.18 179.47L184.46 179.3L184.54 179.13L184.62 179.12L184.79 179.46L184.9 179.67L184.98 179.8L185.14 180.03L185.36 179.97L185.66 180.12L185.71 179.93L185.82 179.91L185.91 180.07L186.11 180.13L186.1 179.84ZM92.09 150.38L92.87 150.5L93.15 150.72L93.54 150.79L94.33 151.27L94.56 151.31L94.79 151.4L95.02 151.59L95 151.72L95.16 151.87H95.37L95.53 152.05L95.62 152.36L95.87 152.62L96.26 152.57L96.65 152.89L97.04 152.98L97.49 152.88L97.84 153.37L98.18 153.5L98.26 153.63L98.62 153.65L98.83 153.83L99.12 154.36L99.42 154.33L99.75 154.6L100.58 154.61L100.7 154.75L100.98 154.83L102.62 155.04L102.84 154.99L103.35 155.14L103.39 155.34L104.06 155.74L104.22 156L104.24 156.4L103.78 156.55H103.46L103.33 156.69L103.18 156.66L103.04 156.79L102.71 156.7L102.57 156.88H102.18L101.42 156.62L100.41 156.53L100.21 156.6L99.54 156.48L99.24 156.59L99.22 156.74L99.08 156.81L98.93 157.06L98.59 157.1L97.94 157.48L97.58 157.58L97.23 157.37L97.07 157.27V156.96L97.05 156.7L96.54 156.37L95.55 156.45L94.69 156.29L94.35 156.35L94.03 156.23L93.53 156.37L92.42 155.82L92.04 155.74L91.85 155.79L91.69 156L91.1 156.05L90.48 155.55L89.99 155.44L88.83 154.77L88.69 154.25L88.44 154.04L88.09 153.39L88.04 153.17L88.12 152.92L88.04 152.46L88.1 152.09L88.26 151.48L88.46 151.47L88.44 151.35L88.7 151.27L88.74 151.05L89.16 150.75L89.23 150.79L90.1 150.43L91.01 150.65L91.2 150.49L91.53 150.56L92.09 150.38ZM82.63 147.07H82.95L83.93 147.43L84.26 147.61L84.31 147.76L84.77 148.17L85.58 148.37L86.29 149.06L86.12 149.25L85.97 149.65L86.12 150.05L85.87 150.37L86.16 150.96L86.07 151.08L85.61 151.12L85.43 151.34V151.72L85.52 151.74L85.57 151.86L85.48 151.93L85.62 152.08L85.51 152.23L85.39 152.06L85.33 152.11L85.22 152.14L85.26 152.01L85.43 151.91L85.35 151.79L85.26 151.87L85 151.83L84.65 151.96L83.97 151.91L83.72 152.03L83.02 152.04L82.67 152.16L82.28 152.14L81.73 151.89L81.42 151.98L81.4 151.87H81.57L81.6 151.75L81.52 151.68L81.44 150.95L81.19 150.35L80.97 150.19L80.78 150.31L80.68 150.24L80.54 150.28L80.07 149.99L79.46 149.61L79.15 149.21L79.04 149.24V148.97L78.85 148.9L78.9 148.72L79.33 148.73L79.53 148.53L79.85 148.44L80.66 148.46L80.95 148.35L81.38 148.44L81.76 148.16L82.23 147.4L82.63 147.07ZM95.17 142.54L96.08 142.7L96.89 142.99L97.84 143.56L97.98 143.53L99.61 144.25L100.62 144.55L100.92 144.84L101.17 144.93L101.36 144.87L101.47 145.09L102.22 145.24L102.7 145.57L103.3 145.76L103.59 145.56L103.55 145.75L103.73 145.92L104.08 146L104.41 145.94L105.01 146.41L105.43 146.53L105.89 147.07L106.3 147.11L106.41 147.35L106.98 147.57L107.22 147.78L107.43 147.72L107.78 148.2L108.23 148.26L108.79 148.49L110.4 149.39L110.69 149.53L110.88 149.66L111.47 149.89L111.57 149.85L111.66 150.06L112.19 150.25L113 150.95L112.83 151.03L112.71 151.18L112.35 151.45L112.08 151.37L110.58 151.52L109.59 151.02L109.34 150.72L109.05 150.63L108.69 150.36L108 150.09L106.99 149.28L106.59 149.26L106.1 148.99L105.75 149.11L104.89 148.79L104.7 148.87L104.41 148.81L104.11 148.62L103.71 148.18L103.11 147.79L101.88 147.58L101.6 147.35L101.34 147.33L101.32 147.21L101.13 147.06L100.98 147.09L100.47 146.86L99.86 146.44L99.15 146.16L98.84 145.63L98.55 145.77L98.44 145.61L98.16 145.65L98.1 145.55L98.22 145.45L98.27 145.23L97.95 145.19L98.05 145.03L97.92 144.8L96.68 144.19L95.9 143.46L95.58 143L95.2 142.72L95.17 142.54ZM128.61 140.64L128.82 140.73L128.95 140.69L129.12 140.88L129.38 140.82L129.64 141.04L129.94 141.03L129.91 140.87L130 140.74L130.17 140.84L130.44 140.73L130.62 140.86L130.79 141L130.99 140.9L131.16 141.04L131.57 141.11L132.02 141.34L132.46 141.27L132.76 141.44L132.83 141.51L133.5 141.35L134.8 142.35L134.89 143L135.06 143.2L135.38 143.35L135.14 143.56L134.86 143.61L134.81 144.19L135.16 144.44L135.41 144.67L135.36 144.83L135.45 144.97L135.23 145.3L134.95 145.43L135.01 145.71L134.64 145.77L134.37 145.97L134.42 146.31L134.4 146.51L134.28 146.84L134.33 147.07L133.95 147.12L133.69 146.88L133.47 147.06L133.07 146.89L132.6 147.07L132.28 147.04L131.43 146.63L131.08 146.72L130.88 146.63L130.62 146.76L130.26 146.62L130.07 146.78L129.81 146.67L129.76 146.79L129.92 147.11L129.63 147.26L129.4 147.07L129.6 146.81L129.54 146.58L129.17 146.56L128.93 146.54L128.72 146.64H128.34L128.05 146.73L127.74 146.62L127.08 146.11L126.5 145.8L126.28 145.66L125.7 145.34L125.12 144.5L124.98 143.78L124.84 143.57L124.81 142.91L125.06 142.39L124.87 142.09L125.1 142.15L125.24 141.87L125.2 141.74L125.35 141.52H125.5L126.29 141L127.71 140.71L128.25 140.66L128.61 140.64ZM104.25 128.78L104.77 128.95L105.01 129.19L105.18 129.09L105.37 129.19L105.24 129.28L105.54 129.45L105.88 130.05L105.94 130.31L106.11 130.34L106.13 130.49V130.67L106.57 131.07L106.7 131.54L106.65 131.64L106.83 131.8V131.97L106.7 132.05L106.79 132.18H106.51L106.14 132.35L105.48 132.14L105.36 132.21L105.24 132.12L105.22 131.98L104.97 131.89L104.96 131.73L104.09 131.79L103.73 131.35L103.4 130.5L103.09 130.22L103.08 130.03L102.91 130.01L102.96 129.84L103.51 129.33L103.47 129.13L103.56 128.93L103.63 128.87L103.8 128.83L104 128.85L104.09 128.77L104.25 128.78ZM3.87 111.42L3.99 111.46L3.92 111.66L4.09 112.07L4.68 112.48L4.83 112.32L4.97 112.37L4.94 112.46L5.04 112.51L5.31 112.44L5.45 112.25L5.51 112.31L5.65 112.53L5.6 112.75L5.8 112.97L5.74 113.03L5.81 113.46L6.09 113.65L6.2 113.92L6.48 113.88L6.57 114.27L6.48 114.51L6.13 114.71L5.94 115L5.93 115.14L6.17 115.47L6 115.43L5.8 115.53L5.74 115.75L5.82 116.15L5.68 116.52L5.47 116.74L5.44 117.07L5.1 117.28L5.16 117.39L4.42 117.58L3.53 117.46L3.4 117.61L3.16 117.65L2.95 117.5L2.66 117.49L2.58 117.26L2.4 117.15L2.48 117.07L2.36 116.97L2.32 116.76L2.41 116.68L2.3 116.52L2.53 116.36L2.54 116.25L2.38 116.14L2.39 115.97L2.18 115.72L2.13 115.34L2.28 114.96L2.16 114.56L2 114.38L2.13 114.22L2.09 114.08H2.27L2.36 113.89L2.35 112.86L2.63 112.62L2.66 112.47L2.86 112.39L3.13 111.93L3.02 111.56L3.76 111.58L3.87 111.42ZM7.09 103.18L7.72 103.46L7.91 103.96L7.9 104.29L7.75 104.81L7.24 105.27L7.03 105.36L6.95 105.49L6.76 105.5L6.64 105.45L6.59 105.29L6.8 105.08L6.75 104.87L6.5 104.54L6.43 104.17L6.73 103.5L6.67 103.22L6.86 103.27L7.09 103.18Z" fill="#C7C7C7" stroke="white" stroke-width="2"/>
<path d="M468.72 386.59L469.05 387.54L469.54 388.37L469.03 388.12L468.86 387.81L468.58 386.97L468.72 386.59ZM468.1 383.64L468.59 384.69L468.65 385.68L467.88 383.79L467.21 383.25L467.12 382.07L467.71 382.77L468.1 383.64ZM447.36 371.02L447.86 371.81L448.63 372.55L449.24 372.58L449.63 373.01L450.95 373.27L452.07 373.01L452.9 372.45L453.72 372.59L455.61 372.18L456.24 372.58L456.88 373.31L457.75 374.06L458.18 374.77L458.95 374.98L459.58 375.16L460.63 375.24L461.18 375.39L461.78 375.37L462.08 375.51L461.94 375.86L461.1 375.9L460.6 376.02L460.28 376.58L460.02 376.69L460.11 377.04L459.73 377.66L459.11 377.87L458.79 378.7L457.91 379.54L457.32 379.69L456.42 379.35L455.55 379.3L455.2 379.49L454.28 379.81L454.01 379.49L453.03 379.13L452.07 379.09L449.88 378.08L449.29 378.13L448.21 377.19L445.87 375.93L444.84 374.58L444.9 374.26L444.64 373.51L444.18 373.02L446.27 371.01L447.36 371.02ZM474.63 362.44L474.91 362.4L474.74 362.81L475.05 363.22L474.78 363.46L474.94 363.82L474.32 363.68L473.85 363.79L472.21 365.17L472.06 364.91L471.78 364.86L471.63 364.54L471.93 364.52L472.24 364.02L472.39 363.44L472.28 363.28L472.51 362.98L472.83 362.96L473.03 362.59L473.63 362.41L474.03 362.05L474.63 362.44Z" fill="#C7C7C7" stroke="white" stroke-width="2"/>
</svg>
