<svg width="996" height="1228" viewBox="0 0 996 1228" fill="none" xmlns="http://www.w3.org/2000/svg">
<path d="M292.04 492.18L306.25 495.88L308.02 497.41L315.28 509.52L316.24 515.43L320.86 529.53L322.56 544.18L316.8 553.05L316.04 561.74L318.81 570.01L323.33 576.39L320.69 578.38L314.54 579.03L307.52 582.31L301.36 583.79L279.44 593.77L273.27 594.41L256.43 590.99L243.18 591.55L234.34 589.89L218.43 589.79L222.92 594.46L227.38 596.59L237.22 605.88L238.1 605.78L242.61 611.28L243.57 617.2L242.71 618.17L241.95 628.52L241.09 629.44L242.07 635.36L244.82 642.8L244.86 645.34L249.45 656.01L252.32 672L256.01 681.89L229 707.81L222.9 711.88L215.94 718.62L204.55 724.91L194.97 734.47L187.07 737.84L177.46 744.87L173.07 746.16L156.53 763.3L145.97 766.07L134.62 774.99L117.89 778.41L104 794.44L97.84 795.92L93.34 789.54L88.77 778.87L88.59 766.86L83.24 763.16L77.92 761.96L78.64 751.61L77.74 749.16L73.25 744.45L67.86 739.05L53.62 731.05L41.11 722.09L26.9 716.68L23.34 714.46L14.4 706.84L8.97 698.85L7.14 693.86L7.02 685.31L5.18 681.24L5.12 676.11L4.23 675.33L5.08 673.53L5.64 652.04L6.5 651.11L6.12 625.42L4.29 620.48L4.18 613.64L2.33 607.49L1 606.34L1.02 578.79L4.43 570.75L4.31 563.04L6 557.72L7.74 554.99L16.48 548.94L35.11 555.59L54.6 558.74L67.94 565.9L74.1 565.25L77.33 563.22L82.94 564.38L88.23 563.82L90.84 560.96L91.59 554.02L92.48 553.1L96.02 553.56L103.93 550.19L105.71 550.88L113.63 550.05L114.5 549.12L123.9 531.98L134.35 517.93L148.15 495.93L149.89 494.03L154.29 493.57L155.17 492.6L167.54 493.06L179.99 498.61L221.44 495.19L222.34 495.97L230.28 495.14L231.17 495.93L253.26 495.33L254.14 496.11L261.18 495.37L262.08 496.16L291.18 493.16L292.04 492.18Z" fill="#C7C7C7" stroke="white" stroke-width="2"/>
<path d="M251.94 1002.73L252.04 1010.44L251.18 1011.41L252.14 1016.44L255.73 1020.32L262.82 1022.17L268.16 1025.08L274.46 1032.98L279.05 1044.48L283.53 1048.31L286.17 1048.91L295.13 1056.53L298.74 1061.29L304.2 1072.74L305.25 1083.78L306.14 1084.52L306.28 1093.94L305.4 1094.86L305.45 1097.45L291.62 1117.72L285.52 1123.49L286.55 1133.65L281.29 1135.91L276.1 1143.3L274.33 1143.49L269.97 1147.37L263.81 1148.84L262.08 1150.74L255.91 1151.38L255.01 1150.6L249.73 1151.15L248.83 1150.37H240.87L230.06 1135.17L223.06 1138.5L220.41 1138.78L215.08 1136.74L206.32 1142.79L192.28 1148.52L184.54 1163.02L176.68 1168.1L171.47 1174.61L154.77 1180.66L138.91 1183.11L138.05 1184.08L124.83 1185.46L123.95 1186.38L105.42 1187.45L103.63 1185.92L89.4205 1180.52L81.4705 1179.64L63.6305 1168.61L46.7905 1164.36L60.5705 1140.67L61.3205 1130.33L68.1505 1115.92L74.4105 1105.3L84.6705 1097.95L85.4805 1091.86L87.1705 1088.26L68.8205 1040.5L67.8405 1034.59L66.0005 1030.48L65.9705 1027.06L62.2605 1016.3L62.1905 1012.89L58.5305 1002.12L58.4705 998.71L53.8405 984.62L53.8005 981.2L50.1105 970.49L50.0505 967.02L46.3505 956.31L46.3205 952.89L44.4805 948.78L45.3605 947.81L45.9905 932.33L49.4105 923.42L51.9005 912.89L63.0905 894.59L73.4905 879.81L99.5405 850.57L102.97 842.49L102.74 828.81L101.85 828.07L99.9205 817.12L106.08 814.77L118.41 812.64L119.29 811.67L127.23 810.89L128.09 809.92L136.02 809.09L136.9 808.16L151.02 808.39L156.37 811.3L165.31 818.93L172.38 819.06L184.78 821.19L186.57 822.76L193.68 825.44L196.51 838.84L209.93 850.29L211.71 850.16L225.67 839.25L225.71 841.84L224.84 842.76L225.09 859.02L225.97 859.81L226.97 867.39L243.63 859.67L248.94 859.99L247.63 890.99L239.72 893.49L231.77 894.32L222.92 892.65L217.63 893.21L216.77 894.18L213.25 894.5L203.64 903.23L209.04 908.68L215.44 923.42L215.54 931.13L206.18 954.37L206.28 962.08L212.61 969.98L217.04 971.23L227.78 982.13L235.79 985.59L248.25 992.84L250.96 996.86L251.94 1002.73Z" fill="#C7C7C7" stroke="white" stroke-width="2"/>
<path d="M920.232 331.32L920.372 340.75L932.083 356.66L933.023 359.99L920.263 392.21L914.343 409.96L912.593 412.68L958.682 482.52L948.213 490.47L932.602 510.07L916.872 521.12L903.823 535.31L902.143 540.62L896.143 552.41L891.062 568.35L885.013 575.84L881.422 572.79L878.763 572.18L857.602 574.36L854.922 572.92L854.912 570.38L858.352 565.72L856.583 564.19L845.982 566.13L843.343 565.58L841.562 564.88L837.093 560.22L834.362 555.36L831.682 553.05L822.833 551.39L816.583 548.62L812.182 549.08L805.203 554.07L800.783 554.53L795.412 548.25L795.362 546.54L792.693 544.23L790.062 545.33L784.023 555.41L779.622 555.87L772.482 551.43L768.073 551.9L759.352 559.66L752.312 560.4L747.062 564.38L734.722 565.62L725.122 573.48L718.972 576.67L708.403 577.78L704.872 577.27L704.932 581.57L703.253 587.76L697.253 599.5L696.412 603.01L695.643 609.94L697.453 614.89L690.523 623.34L676.593 635.91L668.713 640.99L662.562 642.52L662.023 665.72L661.143 666.64L662.133 672.56L648.143 682.54L642.912 687.39L633.203 688.4L632.323 687.62L616.422 688.4L602.263 685.59L599.612 685.86L588.052 681.06L581.773 675.7L572.042 672.42L568.463 670.2L557.872 669.6L558.622 661.79L561.193 655.55L560.292 654.77L556.412 631.2L543.292 639.38L541.513 639.56L546.463 615.07L542.893 612.85L523.372 606.29L512.772 606.57L511.893 607.49L505.733 608.14L504.853 609.06L500.473 609.53L496.953 611.6L493.423 611.98L485.362 604.26L485.062 583.69L495.372 565.48L503.203 556.1L503.173 554.39L506.592 547.18L508.272 541.04L508.212 536.74L509.062 535.81L507.883 514.51L508.742 513.54L508.703 510.12L514.633 494.91L518.122 490.29L520.533 475.45L523.963 468.24L526.583 465.42L532.672 460.48L538.823 457.29L545.852 455.72L546.722 454.75L567.893 452.57L568.773 451.65L574.052 451.09L576.672 449.11L589.612 428.03L595.693 422.25L604.463 417.07L613.263 414.44L639.583 403.16L641.232 396.13L643.852 393.31L647.362 392.95L652.713 394.93L667.143 414.9L672.453 416.94L678.653 417.12L681.312 418.55L684.023 423.45L685.903 430.11L695.682 434.22L697.443 434.04L703.763 442.82L706.513 450.26L708.292 450.96L713.552 448.69L725.732 435.43L734.492 431.08L743.133 418.18L748.343 412.5L757.102 408.15L763.982 395.44L768.333 389.89L774.472 388.37L783.213 382.31L790.153 373.9L790.992 371.22L798.992 373.85L816.633 371.17L820.162 372.51L829.872 371.5L839.513 367.1L854.393 357.81L857.042 357.58L860.533 355.5L872.033 355.18L891.213 339.46L906.172 336.18L920.232 331.32Z" fill="#C7C7C7" stroke="white" stroke-width="2"/>
<path d="M983.141 648.3L973.521 648.99L962.991 652.64L956.881 659.25L952.581 665.72L949.181 675.05L943.161 685.54L937.091 693.02L929.891 697.6L925.421 702.91L924.021 705.5L924.161 715.76L915.521 728.65L913.851 734.84L906.061 745.05L902.641 753.14L900.151 762.79L900.211 767.09L893.361 782.34L893.631 800.31L889.401 812.74L885.111 820.91L873.801 833.2L864.121 835.93L857.121 840.08L854.481 840.36L853.591 839.58L841.241 841.7L829.861 847.15L822.901 854.73L814.271 867.62L812.561 872.1L812.591 875.52L806.511 881.29L800.491 892.19L799.661 895.7L793.631 904.9L794.711 918.48L795.601 919.26L795.721 927.81L796.651 930.26L800.191 930.76L800.241 934.18L801.141 934.97L800.271 935.89L780.871 937.88L779.981 937.14L774.671 937.69L773.801 936.91L768.491 937.46L767.611 936.68L762.301 937.23L761.431 936.49L756.131 937L755.221 936.26L749.931 936.81L749.041 936.03L743.761 936.58L742.851 935.8H734.921L733.381 951.36L718.361 951.18L716.581 950.53L716.401 938.57L715.511 937.78L715.471 934.37L688.861 927.67L686.161 923.7L686.141 921.99L683.431 917.97L679.761 908.91L665.611 907.81L664.701 906.19L664.621 901.06L663.741 900.28L663.521 885.77L661.661 879.95L646.791 889.19L637.801 880.69L621.851 874.64L618.261 870.71L618.211 869L639.271 859.12L641.871 856.3L641.811 852L646.161 847.29L651.431 845.03L653.151 842.26L653.101 838.84L649.561 837.5L649.501 834.08L652.111 831.26L656.521 830.8L657.401 829.83L657.311 824.7L655.501 820.59L656.291 816.25L660.651 811.49L665.061 811.07L665.931 810.1L665.831 803.27L663.061 795.83L660.371 791.85L659.391 786.77L661.101 783.17L677.601 764.36L678.421 759.14L686.961 740.25L697.311 723.75L696.911 696.4L691.631 696.91L681.951 701.34L669.741 710.31L644.721 690.62L642.911 687.39L648.141 682.54L662.131 672.56L661.141 666.64L662.021 665.72L662.561 642.52L668.711 640.99L676.591 635.91L690.521 623.34L697.451 614.89L695.641 609.94L696.411 603.01L697.251 599.5L703.251 587.76L704.931 581.57L704.871 577.27L708.401 577.78L718.971 576.67L725.121 573.48L734.721 565.62L747.061 564.38L752.311 560.4L759.351 559.66L768.071 551.9L772.481 551.43L779.621 555.87L784.021 555.41L790.061 545.33L792.691 544.23L795.361 546.54L795.411 548.25L800.781 554.53L805.201 554.07L812.181 549.08L816.581 548.62L822.831 551.39L831.681 553.05L834.361 555.36L837.091 560.22L841.561 564.88L843.341 565.58L845.981 566.13L856.581 564.19L858.351 565.72L854.911 570.38L854.921 572.92L857.601 574.36L878.761 572.18L881.421 572.79L885.011 575.84L891.061 568.35L896.141 552.41L902.141 540.62L903.821 535.31L916.871 521.12L932.601 510.07L948.211 490.47L958.681 482.52L973.121 503.32L974.951 507.39L976.861 516.63L980.561 527.4L980.601 530.82L986.161 548.25L987.121 554.16L988.031 554.9L988.061 558.32L991.771 569.09L991.821 572.51L992.711 573.29L994.061 605.69L990.711 618.07L989.121 629.35L983.141 648.3Z" fill="#C7C7C7" stroke="white" stroke-width="2"/>
<path d="M618.21 869L618.26 870.71L621.85 874.64L637.8 880.69L646.79 889.19L643.56 910.21L647.52 930.39L648.51 956.54L640.88 961.57L631.6 973.53L623.98 977.65L619.35 979.03L612.05 984.53L612.37 1003.79L628.63 1006.51L636.59 990.95L657.14 1001.94V1018.01L647.2 1024.89L642.55 1029.47L640.88 1042.77L635.59 1049.65L627.63 1052.37L624.64 1056.53L649.52 1101.46L642.21 1117.49H629.62L622.66 1127.14L595.49 1156.92L595.13 1177.19L583.09 1179.27L575.2 1184.35L573.46 1184.54L568.09 1180.8L553.26 1193.49L544.51 1198.67L534.85 1202.22L533.14 1204.99L529.83 1219.86L512.05 1213.16L507.64 1213.58L503.27 1215.75L493.56 1216.77L490.94 1217.87L485.72 1222.72L478.7 1226L471.6 1224.15L454.8 1222.49L453.88 1220.88L448.53 1217.14L441.44 1215.29L436.06 1210.72L420.96 1204.58L414.71 1200.05L412.01 1196.08L411.05 1191.88L414.44 1181.26L414.38 1177.84L410.85 1177.33L404.64 1174.56L400.16 1170.73L400.09 1166.48L399.18 1165.7L403.52 1159.28L401.72 1156.88L399.93 1156.19L405.9 1141.87L403.17 1137.02L390.66 1126.31L387.99 1125.75L368.41 1114.9L365.75 1114.35L363.07 1112.04L362.12 1107.88L355.78 1096.52L354 1095.88L353.14 1096.8L328.48 1102.76L308.46 1121.97L314.74 1129.86L309.55 1136.42L306.16 1133.51L301.67 1133.7L295.47 1139.56L294.54 1135.41L292.74 1133L290.09 1132.4L286.55 1133.65L285.52 1123.49L291.62 1117.72L305.45 1097.45L305.4 1094.86L306.28 1093.94L306.14 1084.52L305.25 1083.78L304.2 1072.74L298.74 1061.29L295.13 1056.53L286.17 1048.91L283.53 1048.31L279.05 1044.48L274.46 1032.98L268.16 1025.08L262.82 1022.17L255.73 1020.32L252.14 1016.44L251.18 1011.41L252.04 1010.44L251.94 1002.73L258.08 1000.42L262.48 999.95L263.36 998.98L268.66 998.48L280.05 992.98L295.94 991.36L296.82 992.1L305.64 992.06L306.54 992.84L329.49 991.32L346.36 997.27L389.28 973.16L399.9 975.47L418.43 973.58L419.31 974.32L424.6 973.81L431.72 977.32L433.47 976.31L436.91 969.98L441.15 958.38L445.44 950.21L445.42 948.5L449.71 940.37L467.35 938.57L468.22 937.6L473.51 937.05L490.23 931.92L496.35 928.68L508.68 926.56L517.48 923.1L525.39 922.26L526.28 921.34L534.2 919.68L548.22 912.19L559.58 903.32L568.34 899.86L575.38 898.29L578.88 894.5L587.68 892.7L597.21 881.48L608.61 875.15L614.71 870.2L618.21 869Z" fill="#C7C7C7" stroke="white" stroke-width="2"/>
<path d="M538.82 457.29L532.67 460.48L526.58 465.42L523.96 468.24L520.53 475.45L518.12 490.29L514.63 494.91L508.7 510.12L508.74 513.54L507.88 514.51L509.06 535.81L508.21 536.74L508.27 541.04L506.59 547.18L503.17 554.39L503.2 556.1L495.37 565.48L485.06 583.69L485.36 604.26L493.42 611.98L496.95 611.6L500.47 609.53L504.85 609.06L505.73 608.14L511.89 607.49L512.77 606.57L523.37 606.29L542.89 612.85L546.46 615.07L541.51 639.56L543.29 639.38L556.41 631.2L560.29 654.77L561.19 655.55L558.62 661.79L557.87 669.6L568.46 670.2L572.04 672.42L581.77 675.7L588.05 681.06L599.61 685.86L602.26 685.59L616.42 688.4L632.32 687.62L633.2 688.4L642.91 687.39L644.72 690.62L669.74 710.31L681.95 701.34L691.63 696.91L696.91 696.4L697.31 723.75L686.96 740.25L678.42 759.14L677.6 764.36L661.1 783.17L659.39 786.77L660.37 791.85L663.06 795.83L665.83 803.27L665.93 810.1L665.06 811.07L660.65 811.49L656.29 816.25L655.5 820.59L657.31 824.7L657.4 829.83L656.52 830.8L652.11 831.26L649.5 834.08L649.56 837.5L653.1 838.84L653.15 842.26L651.43 845.03L646.16 847.29L641.81 852L641.87 856.3L639.27 859.12L618.21 869L614.71 870.2L608.61 875.15L597.21 881.48L587.68 892.7L578.88 894.5L575.38 898.29L568.34 899.86L559.58 903.32L548.22 912.19L534.2 919.68L526.28 921.34L525.39 922.26L517.48 923.1L508.68 926.56L496.35 928.68L490.23 931.92L473.51 937.05L468.22 937.6L467.35 938.57L449.71 940.37L449.69 938.66L454 930.49L453.88 923.65L454.76 922.73L455.55 916.63L467.64 898.24L476.35 890.48L476.3 886.23L475.41 885.45L475.33 881.2L473.49 875.38L473.39 869.37L472.49 868.63L471.3 847.34L470.4 846.55L467.53 830.57L465.68 825.62L465.11 787.14L464.19 785.52L453.56 782.34L451.53 764.55L446.95 752.17L414.62 717.79L406.59 711.78L399.46 708.23L387.97 706.01L373.74 700.6L360.47 697.69L357.79 696.26L341 695.43L340.1 694.64L323.33 695.52L317.12 693.58L300.85 669.55L285.63 654.86L282.93 650.84L281.98 647.51L277.56 646.26L267.76 641.27L261.58 640.21L250.03 636.24L242.07 635.36L241.09 629.44L241.95 628.52L242.71 618.17L243.57 617.2L242.61 611.28L238.1 605.78L237.22 605.88L227.38 596.59L222.92 594.46L218.43 589.79L234.34 589.89L243.18 591.55L256.43 590.99L273.27 594.41L279.44 593.77L301.36 583.79L307.52 582.31L314.54 579.03L320.69 578.38L323.33 576.39L318.81 570.01L316.04 561.74L316.8 553.05L322.56 544.18L320.86 529.53L316.24 515.43L315.28 509.52L308.02 497.41L306.25 495.88L292.04 492.18L305.03 473.7L312.91 469.49L315.52 466.63L377.78 377.04L385.64 371.96L397.97 368.95L404.11 365.76L421.81 369.09L435.08 369.42L435.97 370.2L448.32 369.79L449.19 368.81L459.77 366.87L466.77 363.59L469.42 363.31L477.3 358.18L481.69 356.89L491.33 351.62L493.93 349.63L504.35 336.55L507 336.27L516.62 330.12L518.37 329.94L528.21 337.52L533.56 340.38L533.57 342.1L532.71 343.07L531.22 362.07L508.68 390.13L523.06 408.34L510.12 427.66L511.01 429.28L530.64 442.68L537.88 453.96L538.82 457.29Z" fill="#C7C7C7" stroke="white" stroke-width="2"/>
<path d="M242.07 635.36L250.03 636.24L261.58 640.21L267.76 641.27L277.56 646.26L281.98 647.51L282.93 650.84L285.63 654.86L300.85 669.55L317.12 693.58L323.33 695.52L340.1 694.64L341 695.43L357.79 696.26L360.47 697.69L373.74 700.6L387.97 706.01L399.46 708.23L406.59 711.78L414.62 717.79L446.95 752.17L451.53 764.55L453.56 782.34L464.19 785.52L465.11 787.14L465.68 825.62L467.53 830.57L470.4 846.55L471.3 847.34L472.49 868.63L473.39 869.37L473.49 875.38L474.37 876.16L475.41 885.45L476.3 886.23L476.35 890.48L467.64 898.24L455.55 916.63L454.76 922.73L453.88 923.65L454 930.49L449.69 938.66L449.71 940.37L445.42 948.5L445.44 950.21L441.15 958.38L436.91 969.98L433.47 976.31L431.72 977.32L424.6 973.81L419.31 974.32L418.43 973.58L399.9 975.47L389.28 973.16L346.36 997.27L329.49 991.32L306.54 992.84L305.64 992.06L296.82 992.1L295.94 991.36L280.05 992.98L268.66 998.48L263.36 998.98L262.48 999.95L258.08 1000.42L251.94 1002.73L250.96 996.86L248.25 992.84L235.79 985.59L227.78 982.13L217.04 971.23L212.61 969.98L206.28 962.08L206.18 954.37L215.54 931.13L215.44 923.42L209.04 908.68L203.64 903.23L213.25 894.5L216.77 894.18L217.63 893.21L222.92 892.65L231.77 894.32L239.72 893.49L247.63 890.99L248.94 859.99L243.63 859.67L226.97 867.39L225.97 859.81L225.09 859.02L224.84 842.76L225.71 841.84L225.67 839.25L211.71 850.16L209.93 850.29L196.51 838.84L193.68 825.44L186.57 822.76L184.78 821.19L172.38 819.06L165.31 818.93L156.37 811.3L151.02 808.39L136.9 808.16L136.02 809.09L128.09 809.92L127.23 810.89L119.29 811.67L118.41 812.64L106.08 814.77L104.91 796.06L104 794.44L117.89 778.41L134.62 774.99L145.97 766.07L156.53 763.3L173.07 746.16L177.46 744.87L187.07 737.84L194.97 734.47L204.55 724.91L215.94 718.62L222.9 711.88L229 707.81L256.01 681.89L252.32 672L249.45 656.01L244.86 645.34L244.82 642.8L242.07 635.36Z" fill="#C7C7C7" stroke="white" stroke-width="2"/>
<path d="M646.793 889.19L661.663 879.95L663.523 885.77L663.743 900.28L664.623 901.06L664.703 906.19L665.613 907.81L679.763 908.91L683.433 917.97L686.143 921.99L686.163 923.7L688.863 927.67L715.473 934.37L715.513 937.78L716.403 938.57L716.583 950.53L718.363 951.18L733.383 951.36L734.923 935.8H742.853L743.763 936.58L749.043 936.03L749.933 936.81L755.223 936.26L756.133 937L761.433 936.49L762.303 937.23L767.613 936.68L768.493 937.46L773.803 936.91L774.673 937.69L779.983 937.14L780.873 937.88L800.273 935.89L797.713 943L797.793 948.13L799.633 952.24L799.663 955.66L800.573 955.57L799.713 958.2L799.953 974.46L798.303 981.48L801.883 985.4L802.763 985.31L802.893 993.86L809.963 994L813.513 995.34L816.183 997.64L817.133 1000.09L816.353 1007.9L795.483 1030.62L793.803 1036.76L793.883 1040.18L792.993 1041.15L793.043 1044.57L785.373 1062.49L785.383 1064.2L776.913 1079.53L770.583 1088.76L768.053 1094.95L765.723 1096.38L763.843 1099.8L758.003 1123.54L756.293 1127.14L750.633 1162.83L749.773 1163.8L748.883 1163.02L732.123 1164.77L731.233 1163.99L680.933 1167.45L680.063 1166.71L664.173 1168.33L663.283 1167.59L645.643 1169.39L644.743 1168.65L635.063 1169.62L634.183 1170.59L628.893 1171.1L622.753 1173.45L612.183 1175.39L611.323 1176.36L598.973 1177.66L598.063 1176.87L595.133 1177.19L595.493 1156.92L622.663 1127.14L629.623 1117.49H642.213L649.523 1101.46L624.643 1056.53L627.633 1052.37L635.593 1049.65L640.883 1042.77L642.553 1029.47L647.203 1024.89L657.143 1018.01V1001.94L636.593 990.95L628.633 1006.51L612.373 1003.79L612.053 984.53L619.353 979.03L623.983 977.65L631.603 973.53L640.883 961.57L648.513 956.54L647.523 930.39L643.563 910.21L646.793 889.19Z" fill="#C7C7C7" stroke="white" stroke-width="2"/>
<path d="M979.568 44.41L980.478 46.4L980.648 56.67L981.518 57.45L981.668 67.72L984.448 76L985.508 87.88L983.748 88.95L974.938 89.87L962.678 97.13L956.618 104.62L954.948 111.65L948.038 121.78L941.058 127.65L937.648 135.75L942.228 147.26L942.298 151.56L943.198 152.3L943.288 159.14L945.148 164.97L946.158 174.31L947.068 175.05L948.288 197.25L957.438 219.44L957.578 228.87L949.748 237.38L943.588 239.74L931.418 252.13L916.438 254.53L915.558 255.5L906.748 256.38L914.248 285.65L914.338 290.78L915.228 291.52L917.238 307.61L918.138 308.39L918.218 314.36L919.118 315.14L919.198 321.15L920.098 321.89L920.228 331.32L906.168 336.18L891.208 339.46L872.028 355.18L860.528 355.5L857.038 357.58L854.388 357.81L839.508 367.1L829.868 371.5L820.158 372.51L816.628 371.17L798.988 373.85L790.988 371.22L790.148 373.9L783.208 382.31L774.468 388.37L768.328 389.89L763.978 395.44L757.098 408.15L748.338 412.5L743.128 418.18L734.488 431.08L725.728 435.43L713.548 448.69L708.288 450.96L706.508 450.26L703.758 442.82L697.438 434.04L695.678 434.22L685.898 430.11L684.018 423.45L681.308 418.55L678.648 417.12L672.448 416.94L667.138 414.9L652.708 394.93L647.358 392.95L643.848 393.31L641.228 396.13L639.578 403.16L613.258 414.44L604.458 417.07L595.688 422.25L589.608 428.03L576.668 449.11L574.048 451.09L568.768 451.65L567.888 452.57L546.718 454.75L545.848 455.72L538.818 457.29L537.878 453.96L530.638 442.68L511.008 429.28L510.118 427.66L523.058 408.34L508.678 390.13L531.218 362.07L532.708 343.07L533.568 342.1L533.558 340.38L528.208 337.52L518.368 329.94L516.618 330.12L506.998 336.27L504.348 336.55L493.928 349.63L491.328 351.62L481.688 356.89L477.298 358.18L469.418 363.31L466.768 363.59L459.768 366.87L449.188 368.81L448.318 369.79L435.968 370.2L435.078 369.42L421.808 369.09L404.108 365.76L404.078 364.05L431.838 331.19L533.098 250.42L563.638 224.94L568.008 222.77L583.708 208.3L591.588 204.92L599.468 198.96L604.708 196.69L610.028 196.14L613.508 194.1L622.188 184.62L631.858 180.18L637.968 176.11L658.228 172.32L664.338 167.37L671.378 165.8L680.118 158.91L684.488 156.74L694.198 155.72L699.508 156.88L713.628 155.44L714.478 154.47L718.898 154.06L725.038 151.7L733.768 144.76L751.188 128.39L757.318 124.32L767.898 123.26L772.318 124.51L774.968 124.23L777.638 125.66L782.928 124.28L788.998 116.79L799.488 109.71L807.208 94.31L815.018 85.8L816.778 84.74L833.538 83.86L843.138 75.17L855.478 73.87L863.368 69.66L872.888 55.79L872.838 53.24L869.258 50.15L870.058 45.8L874.448 42.75L878.858 42.33L879.708 41.36L882.288 35.12L883.068 29.89L888.318 25.91L898.048 25.73L900.648 22.91L900.618 21.19L904.928 14.77L907.578 14.49L912.038 16.57L914.658 16.29L921.588 5.28L924.218 5.05L926.958 10.74L926.998 13.33L931.508 18.88L935.028 19.34L939.358 13.75L945.558 13.1L949.098 14.49L953.568 19.16L959.778 20.22L962.398 19.11L964.118 16.34L964.088 12.92L964.978 12.82L964.848 4.27L970.098 2L975.438 4.04L975.638 17.73L976.528 18.51L977.588 29.52L978.478 30.31L979.568 44.41Z" fill="#C7C7C7" stroke="white" stroke-width="2"/>
</svg>
