<svg width="547" height="796" viewBox="0 0 547 796" fill="none" xmlns="http://www.w3.org/2000/svg">
<path d="M208.309 346.22L206.289 346.6L202.409 349.99L201.689 353.38L195.869 354.35L192.479 356.29L184.979 348.54L180.619 342.24L180.369 340.55L184.489 340.06L185.219 337.64L182.309 334.98L184.729 331.83L184.489 328.68L187.399 326.99L188.119 323.11L185.939 321.42L187.399 319.24L187.879 314.64L183.039 310.76L182.799 304.22L181.099 301.56L175.529 311.73L172.629 309.79L171.409 306.89L168.509 304.71L166.089 304.95L165.119 308.82L161.969 310.04L159.789 307.37L156.159 306.16L153.249 303.74L154.699 300.59L154.949 295.99L152.279 294.05L151.289 289.09L154.009 287.11L155.679 284.1L158.509 281.57L170.799 275.71L164.979 271.21L165.109 269.75L169.619 266.51L171.089 263.31L169.429 259.72L169.749 257.3L176.329 255.57L178.569 254L178.789 251.78L175.569 247.89L175.509 244.72L177.509 240.67L182.489 236.55L194.179 230.92L193.089 227.18L193.769 224.24L195.269 222.63L199.939 221.24L201.739 218.98L202.569 216.27L202.129 212.63L200.889 210.12L198.149 209.39L199.839 207.21L205.169 206L208.989 205.8L209.279 212.51L214.649 217.59L217.049 223.34L223.619 226.34L223.359 228.42L226.729 235.89L233.399 235.69L235.399 236.75L239.509 253.09L236.769 261.01L238.399 266.89L243.759 270.57L250.589 280.42L255.599 283.62L259.539 284.2L260.049 284.22L259.269 288.1L259.759 293.42L262.419 294.15L265.329 298.02L256.119 299.48L252.009 302.63L255.399 305.77L257.089 308.92H260.729L260.479 311.83L265.329 317.15L266.779 321.76L264.119 323.94L261.449 323.69L258.789 322L256.369 322.73L254.909 328.29L252.489 331.2L259.269 337.74L256.119 339.43L256.349 344.22L254.239 342.49L250.849 341.76L249.879 338.85L246.239 338.61L244.309 340.31L240.189 339.82L238.009 336.92L237.769 333.28L235.099 332.07L232.679 332.8L231.469 334.49L226.629 335.71L224.689 327.23L216.699 325.78L215.249 324.08L211.859 323.11L211.129 326.5L209.429 328.44L210.649 331.1L212.819 332.31L214.279 335.46L208.709 342.49L208.309 346.22Z" fill="#C7C7C7" stroke="white" stroke-width="2"/>
<path d="M138.439 81.03L130.149 86.66L126.029 87.87L124.089 90.53L126.269 92.23V96.1L120.949 102.4V107.24L118.769 110.15L115.129 109.91L104.479 104.1L100.119 103.85L105.929 99.74L104.239 96.35L97.6986 91.99L99.8786 90.05L100.119 87.63L92.1286 83.51L89.2186 87.87L82.4386 81.33L80.0186 75.76L72.2686 67.77L70.3286 62.44L71.0586 58.57L68.6386 53.72L71.0586 50.82L73.2386 50.09L74.2086 47.43L69.6086 48.88L69.8486 44.52L64.8486 39.36L65.3486 38.81L62.8086 34.62L73.3586 27.9L75.4986 30.77L79.9486 28.85L86.4586 22.37L86.4086 19.7L94.1386 15.23L91.9686 12.64L91.5286 10.59L93.0186 9.3L94.5086 9.75L97.9986 7.1L99.4386 4.24L108.149 5.72L111.949 2L114.479 3.74L116.289 2.5L119.059 5.79L120.919 5.75L124.569 10.21L132.009 13.59L136.649 9.58L140.519 8.71L142.009 13.77L140.799 16.43L138.619 18.37L137.169 28.54L131.119 41.37L129.909 51.06L132.089 54.94V57.6L129.179 58.33L128.699 61.47L131.119 66.07L130.879 71.16L132.329 73.1L133.049 76.49L135.719 78.18L136.439 80.36L138.439 81.03Z" fill="#C7C7C7" stroke="white" stroke-width="2"/>
<path d="M199.382 207.8L195.872 205.95L192.972 200.38L189.332 197.23L192.002 195.54L190.552 191.66L195.152 188.03L197.572 184.4L194.662 179.07L183.282 167.2L188.612 163.57L190.062 160.91L187.642 158.73L183.042 157.03L180.862 154.13V149.53L182.802 147.59L183.522 145.17L182.072 141.29L178.442 144.44L175.052 143.23L176.022 137.18L174.802 134.03L171.412 133.06L170.452 129.91L167.782 128.22L164.882 134.03L162.212 136.69L160.522 134.03L161.002 129.43L162.702 126.52L160.762 123.13L168.272 118.77L171.412 115.38L167.782 114.17L162.702 115.86L162.452 112.23L166.092 110.54L166.332 106.18L158.582 107.87L157.852 104.73L159.312 103.03L167.782 102.3L165.602 95.52L168.022 92.62H173.592L176.262 90.68V86.8L173.112 83.9L175.052 82.69L176.742 79.06L192.482 76.88L197.082 78.33L199.992 77.12L204.352 84.87L205.562 89.47L209.682 91.89L208.712 95.76L202.172 98.91V103.03L197.812 108.12L201.202 111.02L207.742 111.26L215.252 107.39L217.912 109.08H223.242L221.542 99.88L223.482 95.28L228.812 90.68L231.232 93.1H235.592L236.072 84.14L238.492 80.51L238.982 76.88L241.582 75.93L244.362 75.55L245.482 82.55L246.442 84.24L248.262 84.63L250.662 83.29L256.052 83.53L257.262 77.64L262.392 79.68L261.452 84.57L260.422 84.7L259.742 86.76L259.712 93.77L258.882 96.12L259.792 97.05L260.012 101.6L257.992 103.61L256.702 107.92L254.902 109.77L255.742 115.25L258.702 114.27L263.572 123.89L260.412 127.47L255.292 130.46L256.402 132.21L255.572 134.11L263.672 134.15L268.102 136.95L269.882 140.37L269.062 140.3L268.522 142.84L267.592 142.88L272.432 145.7L274.962 145.59L276.942 150.02L276.222 150.11L276.372 151.07L278.592 151.25L280.132 154.71L283.012 156.46L284.842 158.94L286.662 159.26L287.162 161.67L285.332 163.62L274.672 165.32L269.102 169.92L261.112 173.06L266.442 176.46L265.472 178.63L262.082 179.6L255.542 183.72L249.972 191.95L240.532 182.27L232.052 180.81L230.362 178.88L228.422 179.85L226.732 184.93L220.432 183.96L218.252 185.17L215.342 188.32L212.922 192.92L213.412 200.67L210.742 202.61L209.772 205.76L205.172 206L199.842 207.21L199.382 207.8Z" fill="#C7C7C7" stroke="white" stroke-width="2"/>
<path d="M171.559 92.6201V90.7801L169.379 87.6301L159.209 84.7201H153.149L148.549 82.0601L139.349 81.3301L136.439 80.3601L135.719 78.1801L133.049 76.4901L132.329 73.1001L130.879 71.1601L131.119 66.0701L128.699 61.4701L129.179 58.3301L132.089 57.6001V54.9401L129.909 51.0601L131.119 41.3701L137.169 28.5401L138.619 18.3701L140.799 16.4301L142.009 13.7701L140.519 8.71005L146.839 4.76005L154.969 4.71005L158.769 5.47005L160.519 10.1401L163.409 9.67005L164.049 10.3801L168.529 4.43005L170.059 7.88005L173.789 10.4901L176.639 9.78005L179.149 7.84005L185.589 14.6101L187.779 13.2901L188.319 15.9601L190.409 13.9201L189.839 15.8601L192.299 15.9001L190.029 17.1001L190.989 19.4101L194.699 21.5901L195.709 24.3101L200.019 28.5901L199.589 30.5701L201.819 36.4501L200.559 37.7901L208.249 44.2201L213.649 43.2901L218.319 46.4701L222.529 57.9401L226.939 56.4701L226.499 55.3401L229.479 54.5601L231.059 62.2101L232.759 61.7801L233.319 63.6601L234.979 63.2101L241.319 69.7001L240.059 72.9301L241.579 75.9301L238.979 76.8801L238.489 80.5101L236.069 84.1401L235.589 93.1001H231.229L228.809 90.6801L223.479 95.2801L221.539 99.8801L223.239 109.08H217.909L215.249 107.39L207.739 111.26L201.199 111.02L197.809 108.12L202.169 103.03V98.9101L208.709 95.7601L209.679 91.8901L205.559 89.4701L204.349 84.8701L199.989 77.1201L197.079 78.3301L192.479 76.8801L176.739 79.0601L175.049 82.6901L173.109 83.9001L176.259 86.8001V90.6801L173.589 92.6201H171.559Z" fill="#C7C7C7" stroke="white" stroke-width="2"/>
<path d="M259.542 284.2L255.602 283.62L250.592 280.42L243.762 270.57L238.402 266.89L236.772 261.01L239.512 253.09L235.402 236.75L233.402 235.69L226.732 235.89L223.362 228.42L223.622 226.34L217.052 223.34L214.652 217.59L209.282 212.51L208.992 205.8L209.772 205.76L210.742 202.61L213.412 200.67L212.922 192.92L215.342 188.32L218.252 185.17L220.432 183.96L226.732 184.93L228.422 179.85L230.362 178.88L232.052 180.81L240.532 182.27L249.972 191.95L255.542 183.72L262.082 179.6L265.472 178.63L266.442 176.46L261.112 173.06L269.102 169.92L274.672 165.32L285.332 163.62L287.162 161.67L287.452 162.38L293.302 161.06L293.112 163.83L295.662 163.67L297.692 167.56L303.892 165.87L305.932 162.33L306.592 163.3L307.702 162.4L308.832 163.12L308.462 165.42L309.772 169.22L311.982 171.42L311.312 173.22L313.292 176.07L314.422 175.76L320.612 179.9L322.802 177.59L327.182 178.11L331.532 181.26L332.812 180.66L336.032 182.05L337.712 180.18L341.422 184.67L347.402 186.97L349.082 190.71L351.962 191.18L353.362 194.58L353.212 196.76L346.882 199.82L345.932 202.67L347.502 205.31L344.132 208.99L343.262 211.82L343.922 214.68L339.572 216.05L337.442 215.34L336.052 216.96L333.902 216.78L331.532 218.15L334.962 221.08L334.432 221.59L338.572 224.35L337.612 225.77L341.652 229.1L345.782 229.46L355.562 234.45L356.542 235.85L357.492 242.15L351.022 243.72L348.932 245.36L345.832 245.21L345.392 246.03L343.402 244.45L341.812 245.52L340.142 244.94L337.522 245.93L332.802 245.74L331.322 248.73L331.932 250.48H330.622L331.672 251.3L330.942 251.96L332.112 252.45L331.192 252.87L331.402 253.89L313.502 261.47L307.862 265.53L304.752 269.48L299.482 270.71L294.672 273.06L290.572 273.21L288.562 272.92L284.352 273.53L275.212 281.73L268.202 283.64L261.452 284.28L259.542 284.2Z" fill="#C7C7C7" stroke="white" stroke-width="2"/>
<path d="M101.13 103.91L100.12 104.19L97.21 111.22L100.36 115.57L99.64 117.51L94.79 117.03L93.34 124.29L90.43 125.5L84.14 122.11L78.57 126.47L78.08 130.59L74.93 132.04L72.03 135.19L73.24 137.85L76.15 139.79L74.69 142.94L72.27 141.73L68.15 141.49L65.01 143.67L62.58 141.97L61.37 139.31L59.68 140.03L58.71 143.18H50.48L49.51 140.76L46.36 139.79L42.97 141.49L39.34 141L41.03 139.06L35.7 136.4L34.01 134.22L30.62 135.43L28.92 134.46L29.6 132.18L31.67 132.89L37.07 132.34L38.82 130.11L39.15 127.38L34.73 124.19L30.43 123.54L28.88 119.46L25.94 119.61L24.79 122.29L19.62 123.56L17.21 122.53L12.22 117.26L12.69 114.85L15.11 111.32L13.63 108.58L14.81 107.36L18.25 107.18L18.9 103.35L21.58 100.04L21.83 97.32L16.99 94.84L14.36 91.94L11.35 79.18L10.05 76.99L7.59 75.86L6.9 74.17L7.67 63.99L4.18 61.24L3.69 56.58L2 54.19L2.87 53.52L3.75 55.24L8.85 54.09L8.33 52.22L10.42 53L13.96 49.48L21.11 51.14L24.32 50.04L25.46 51.68L27.13 51.51L25.45 47.14L27.82 44.19L36.44 44.02L34.64 37.4L39.91 30.1L43.73 30.77L45.29 38.01L52.45 38.63L52.1 37.62L56.37 37.51L56.92 38.22L63.13 37.97L64.85 39.36L69.85 44.52L69.61 48.88L74.21 47.43L73.24 50.09L71.06 50.82L68.64 53.72L71.06 58.57L70.33 62.44L72.27 67.77L80.02 75.76L82.44 81.33L89.22 87.87L92.13 83.51L100.12 87.63L99.88 90.05L97.7 91.99L104.24 96.35L105.93 99.74L100.12 103.85L101.13 103.91Z" fill="#C7C7C7" stroke="white" stroke-width="2"/>
<path d="M29.6019 132.18L28.9219 134.46L30.6219 135.43L34.0119 134.22L35.7019 136.4L41.0319 139.06L39.3419 141L42.9719 141.49L46.3619 139.79L49.5119 140.76L50.4819 143.18H58.7119L59.6819 140.03L61.3719 139.31L62.5819 141.97L65.0119 143.67L68.1519 141.49L72.2719 141.73L74.6919 142.94L76.1519 139.79L73.2419 137.85L72.0319 135.19L74.9319 132.04L78.0819 130.59L78.5719 126.47L84.1419 122.11L90.4319 125.5L93.3419 124.29L94.7919 117.03L99.6419 117.51L100.362 115.57L97.2119 111.22L100.122 104.19L101.132 103.91L104.482 104.1L115.132 109.91L118.772 110.15L120.952 107.24V102.4L126.272 96.1V92.23L124.092 90.53L126.032 87.87L130.152 86.66L138.442 81.03L139.352 81.33L148.552 82.06L153.152 84.72H159.212L169.382 87.63L171.562 90.78V92.62H168.022L165.602 95.52L167.782 102.3L159.312 103.03L157.852 104.73L158.582 107.87L166.332 106.18L166.092 110.54L162.452 112.23L162.702 115.86L167.782 114.17L171.412 115.38L168.272 118.77L160.762 123.13L162.702 126.52L161.002 129.43L160.522 134.03L162.212 136.69L164.882 134.03L167.782 128.22L170.452 129.91L171.412 133.06L174.802 134.03L176.022 137.18L175.052 143.23L178.442 144.44L182.072 141.29L183.522 145.17L182.802 147.59L180.862 149.53V154.13L183.042 157.03L187.642 158.73L190.062 160.91L188.612 163.57L183.282 167.2L194.662 179.07L197.572 184.4L195.152 188.03L190.552 191.66L192.002 195.54L189.742 196.97L183.522 189.48L179.652 190.21L173.842 189.73L172.872 187.3L170.452 186.58L164.882 192.39L161.242 191.91L159.792 189.97L161.732 188.03L161.972 184.16L158.822 183.67L154.702 189L153.742 192.15L151.802 193.6L145.502 194.81L138.482 193.84L134.122 194.57L132.672 196.26L129.522 194.57L124.922 194.33H120.072L116.932 196.26L109.662 195.54L103.852 196.02L100.702 194.81H97.5519L91.7419 191.42L88.8319 191.91L84.2319 196.26L77.4919 190.37L77.2519 187.68L78.4819 185.56L77.8219 179.19L70.1919 179.08L58.6419 177.15L40.3119 167.51L37.5319 160.16L29.2119 158.61L23.4819 153.7L22.9219 151.51L25.8919 148.03L27.8119 147.96L29.0619 144.46L24.6319 139.25L25.2819 132.74L26.6319 130.86L29.6019 132.18Z" fill="#C7C7C7" stroke="white" stroke-width="2"/>
<path d="M189.739 196.97L189.329 197.23L192.969 200.38L195.869 205.95L199.379 207.8L198.149 209.39L200.889 210.12L202.129 212.63L202.569 216.27L201.739 218.98L199.939 221.24L195.269 222.63L193.769 224.24L193.089 227.18L194.179 230.92L182.489 236.55L177.509 240.67L175.509 244.72L175.569 247.89L178.789 251.78L178.569 254L176.329 255.57L169.749 257.3L169.429 259.72L171.089 263.31L169.619 266.51L165.109 269.75L164.979 271.21L170.799 275.71L158.509 281.57L155.679 284.1L154.009 287.11L151.289 289.09L146.449 287.89L145.829 285.15L147.859 283.79L152.439 282.91L155.769 280.32L155.629 277.93L148.129 279.08L144.869 278.32L138.859 275.3L129.539 267.71L120.379 267.09L117.709 264.35L116.429 260.38L116.659 255.17L124.709 238.92L123.429 237.48L120.149 238.17L117.519 235.12L112.779 234.92L105.699 239.34L96.0694 239.91L92.6494 239.29L90.2894 235.89L86.4494 240.05L80.7394 236.88L79.2994 238.7L78.1594 236.27L75.7894 237.84L68.6694 236.13L67.9794 237.88L72.2294 240.34L72.3594 241.31L71.2894 241.99L65.8294 238.45L62.3994 239.29L59.5294 237.55L53.7494 240.54L52.1494 236.8L49.3994 235.95L45.9994 238.81L42.6794 240.2L41.2694 242.33L37.3594 243.68L35.3894 246.53L29.2794 247.95L27.6094 239.34L36.3994 238.17L39.5794 234.3L44.5194 232.24L46.0894 230.18L45.2394 229.3L45.5294 226.19L44.5394 225.34L40.7694 227.2L33.0294 225.98L38.3894 222.63L39.6294 220.31L38.7094 215.06L40.9894 212.68L41.0694 209.72L38.7094 207.07L39.8694 204.85L37.8394 201.79L37.9494 198.37L43.1194 199.03L44.9194 198.15L50.1894 190.43L50.6394 188.1L48.7894 185.98L48.9994 185.06L50.2694 184.97L60.3394 190.47H63.2994L64.2594 185.52L67.3194 185.23L72.2194 190.98L77.4894 190.37L84.2294 196.26L88.8294 191.91L91.7394 191.42L97.5494 194.81H100.699L103.849 196.02L109.659 195.54L116.929 196.26L120.069 194.33H124.919L129.519 194.57L132.669 196.26L134.119 194.57L138.479 193.84L145.499 194.81L151.799 193.6L153.739 192.15L154.699 189L158.819 183.67L161.969 184.16L161.729 188.03L159.789 189.97L161.239 191.91L164.879 192.39L170.449 186.58L172.869 187.3L173.839 189.73L179.649 190.21L183.519 189.48L189.739 196.97Z" fill="#C7C7C7" stroke="white" stroke-width="2"/>
<path d="M154.959 299.47L150.499 298.9L149.529 300.59L146.379 301.8L142.989 299.62L136.689 305.68L140.079 312.7L140.329 316.57L140.079 319.72L138.149 323.11V326.75L136.209 331.1L132.819 331.35L129.429 329.89L127.489 326.99L123.369 325.29L119.259 324.81L117.079 321.66L110.779 322.63L108.119 325.29L105.209 324.81L104.239 322.14L99.8786 320.21L97.2186 321.42H92.1286L90.6786 323.11L93.8286 325.53L94.0686 328.44L92.6186 332.07V334.74L89.2286 334.98L88.0186 336.19L93.5886 341.52L93.3486 344.42L88.9886 345.15L88.0186 348.06L84.8686 349.99L82.4486 353.14L87.5286 356.77L92.1286 357.74L95.5186 359.68L100.369 360.41L102.789 364.04V369.12L105.939 370.58L108.619 373.97L108.839 377.84L107.879 380.99L106.179 379.05L103.759 378.33L91.6886 386.76L90.1686 382.17L87.2086 381.12L87.1686 379.57L88.7386 377.59L87.9686 376.08L85.7886 376.71L83.9486 379.02L80.6486 377.02L79.2086 372.55L72.8986 369.9L72.9186 365.81L70.8786 363.39L71.4986 361.03L68.8586 357.58L68.4786 354.28L64.8486 354.46L62.5686 353.25L59.8586 355.22L57.1086 355.85L54.8886 354.43L53.4686 350.62L49.6286 352.19L47.8586 351.74L46.1486 348.65L43.1786 345.92L43.6386 342.02L41.4286 341.46L40.3386 339.15L41.3786 336.92H40.0586L39.5586 335.93L40.3786 331.5L44.5786 328.91L45.3286 327.45L45.3086 320.71L43.2886 313.72L41.6086 312.26L42.9086 308.47L48.6486 308.09L49.3786 305.71L51.7286 303.21L51.5286 301.58L49.8086 300.49L51.1786 297.44L55.3486 295.41L54.9986 292.49L56.9886 291.45L57.8086 288.87L59.0586 288.71L58.6086 287.18L59.8186 284.02L61.5986 282.5L62.2786 278.84L66.8286 276.46L65.3386 273.79L66.0686 271.42L65.3986 269.77L67.6786 270.53L68.7286 268.84L66.4486 266.64L66.7786 264.93L65.5286 263.96L66.0786 263L69.0486 262.47L68.2886 260.79L66.7686 261.43L64.7686 260.54L67.4686 258.9L66.7086 256.93L67.0786 255.84L68.4686 255.64L67.7186 254.15L69.7286 254.8L70.9986 254.24L73.2786 251.19L71.9386 248.62L74.2086 249.21L76.3786 246.45L74.6786 245.71L74.5386 242.82L72.0486 239.98L68.1286 237.88L68.8186 236.13L75.9386 237.84L78.3086 236.27L79.4486 238.7L80.8886 236.88L86.5986 240.05L90.4386 235.89L92.7986 239.29L96.2186 239.91L105.859 239.34L112.939 234.92L117.669 235.12L120.299 238.17L124.139 237.7L124.489 240.69L122.659 242.73L116.809 255.17L116.579 260.38L117.509 263.78L120.539 267.09L129.689 267.71L139.009 275.3L145.019 278.32L148.289 279.08L155.779 277.93L155.919 280.32L152.049 283.22L146.989 284.31L145.819 286.18L146.599 287.89L151.239 289.14L152.429 294.05L155.099 295.99L154.959 299.47Z" fill="#C7C7C7" stroke="white" stroke-width="2"/>
<path d="M154.811 299.47L154.701 300.59L153.251 303.74L156.161 306.16L159.791 307.37L161.971 310.04L165.121 308.82L166.091 304.95L168.511 304.71L171.411 306.89L172.631 309.79L175.531 311.73L181.101 301.56L182.801 304.22L183.041 310.76L187.881 314.64L187.401 319.24L185.941 321.42L188.121 323.11L187.401 326.99L184.491 328.68L184.731 331.83L182.311 334.98L185.221 337.64L184.491 340.06L180.371 340.55L180.621 342.24L184.981 348.54L192.481 356.29L195.871 354.35L201.691 353.38L202.411 349.99L206.291 346.6L208.311 346.22L208.221 347.09L211.131 347.33L211.371 355.56L212.511 356.89L210.401 360.41L205.081 366.95L201.931 367.91L199.261 372.76L195.391 373.73L193.941 377.36H189.581L185.941 379.05L180.131 378.57L175.051 383.17L168.991 383.9L167.171 384.44L166.331 382.93L158.821 382.2L154.951 382.69L151.311 385.11L147.921 382.69L145.261 377.6L141.391 376.63L137.511 378.57L135.331 381.23L132.671 378.81H129.281L130.491 381.48L133.391 383.9L134.601 387.53L133.391 389.71H129.281L128.311 386.08L125.401 381.96L111.111 373.48L108.461 373.97L105.791 370.58L102.641 369.12V364.04L100.221 360.41L95.3708 359.68L91.9808 357.74L87.3808 356.77L82.3008 353.14L84.7208 349.99L87.8708 348.06L88.8308 345.15L93.1908 344.42L93.4408 341.52L87.8708 336.19L89.0808 334.98L92.4708 334.74V332.07L93.9208 328.44L93.6808 325.53L90.5308 323.11L91.9808 321.42H97.0708L99.7308 320.21L104.091 322.14L105.061 324.81L107.971 325.29L110.631 322.63L116.931 321.66L119.111 324.81L123.221 325.29L127.341 326.99L129.281 329.89L132.671 331.35L136.061 331.1L137.991 326.75V323.11L139.931 319.72L140.171 316.57L139.931 312.7L136.541 305.68L142.841 299.62L146.231 301.8L149.381 300.59L150.351 298.9L154.811 299.47Z" fill="#C7C7C7" stroke="white" stroke-width="2"/>
<path d="M302.198 367.11L299.708 366.8L300.198 362.93L296.568 362.2L294.628 363.89L290.998 359.78L285.428 356.63L283.728 352.03L279.368 353.72H274.038L267.748 351.06L262.658 350.57L263.868 345.49L262.658 344.76L256.368 344.52L256.118 339.43L259.268 337.74L252.488 331.2L254.908 328.29L256.368 322.73L258.788 322L261.448 323.69L264.118 323.94L266.778 321.76L265.328 317.15L260.478 311.83L260.728 308.92H257.088L255.398 305.77L252.008 302.63L256.118 299.48L265.328 298.02L262.418 294.15L259.758 293.42L259.268 288.1L260.048 284.22L261.448 284.28L268.198 283.64L275.208 281.73L284.348 273.53L288.558 272.92L290.568 273.21L290.028 281.31L290.748 284.95L293.898 287.85L293.418 291.49L294.628 294.39L303.588 297.78L302.378 307.95L307.458 318.85L306.978 323.94L301.648 329.99L302.138 334.11L307.458 336.04L308.428 340.4L301.648 342.58L301.228 346.87L300.158 349.02L306.588 357.95L304.088 361.16L302.658 365.81L302.198 367.11Z" fill="#C7C7C7" stroke="white" stroke-width="2"/>
<path d="M301.231 346.87L301.651 342.58L308.431 340.4L307.461 336.04L302.141 334.11L301.651 329.99L306.981 323.94L307.461 318.85L302.381 307.95L303.591 297.78L294.631 294.39L293.421 291.49L293.901 287.85L290.751 284.95L290.031 281.31L290.571 273.21L294.671 273.06L299.481 270.71L304.751 269.48L307.861 265.53L313.501 261.47L331.401 253.89L334.741 256.61L337.131 262.38L346.301 262.49L351.081 263.64L354.531 263.16L361.041 265.55L363.181 268.48L364.791 273.7L365.051 280.3L367.161 283.24L375.111 282.71L378.991 284.73L388.051 283.06L389.871 284.71L397.781 285.27L400.901 286.35L404.831 285.97L409.251 288.2L414.041 288.62L416.081 293.86L414.071 294.99L413.241 299.68L411.031 301.61L410.761 303.55L407.441 303.82L407.721 311L406.341 314.04L406.611 319.29L404.401 321.77L400.261 322.05L398.881 325.91H394.191L393.641 328.95L388.941 334.2L390.871 336.41L392.251 340.27L390.321 342.2L398.051 343.58L402.191 346.62L403.021 358.5L406.061 360.43L407.721 357.11L409.931 356.01L411.031 359.88L410.761 363.19L413.521 366.5L410.481 372.3L411.861 376.72L410.761 380.31L408.551 382.24L402.471 381.97L400.261 385L394.741 384.18L392.341 387.6L390.191 383.67H385.551L380.911 380.81H373.401L369.121 376.88L357.331 376.17L356.611 371.17L350.541 365.81L345.541 366.16L343.041 363.66H338.391L335.181 366.16L331.241 363.66L332.321 361.52L334.461 360.09L330.891 357.95L327.311 350.09L324.101 348.3L320.531 354.73L315.881 354.02L314.451 349.37L309.811 346.16L301.231 346.87Z" fill="#C7C7C7" stroke="white" stroke-width="2"/>
<path d="M256.349 344.22L262.659 344.76L263.869 345.49L262.659 350.57L267.749 351.06L274.039 353.72H279.369L283.729 352.03L285.429 356.63L290.999 359.78L294.629 363.89L296.569 362.2L300.199 362.93L299.709 366.8L302.199 367.11L300.879 370.81L303.379 376.17L307.669 378.67L305.879 382.96L299.449 387.24L297.659 391.17L300.159 395.1L300.519 400.1L295.519 401.18L290.869 404.04L294.449 406.54L295.519 410.47L293.729 412.61L293.369 415.11L290.159 416.18L287.299 419.04L288.369 423.69L292.299 424.76L277.299 434.05L275.559 434.34L275.149 431.9L271.579 429.76L265.509 429.04L261.929 430.12L258.359 431.55L257.649 434.76L260.149 436.55L256.219 439.41L250.139 439.76L242.279 427.62L240.049 426.62L240.429 424.34L236.559 421.68L233.169 416.59L230.019 413.68L227.109 407.15L236.559 399.15L240.189 398.67L240.919 396.49L237.529 391.65L228.079 384.14L227.839 379.78L225.419 374.69L222.999 372.03L219.609 371.79L215.249 365.98L214.999 359.68L212.579 356.77L212.509 356.89L211.369 355.56L211.129 347.33L208.219 347.09L208.709 342.49L214.279 335.46L212.819 332.31L210.649 331.1L209.429 328.44L211.129 326.5L211.859 323.11L215.249 324.08L216.699 325.78L224.689 327.23L226.629 335.71L231.469 334.49L232.679 332.8L235.099 332.07L237.769 333.28L238.009 336.92L240.189 339.82L244.309 340.31L246.239 338.61L249.879 338.85L250.849 341.76L254.239 342.49L256.349 344.22Z" fill="#C7C7C7" stroke="white" stroke-width="2"/>
<path d="M349.499 443.42L349.109 442.34L344.819 446.98L341.959 448.41H338.749L338.389 445.91L335.179 445.55L333.029 443.76L337.319 441.62L334.459 440.55L333.749 438.05L330.169 437.69L328.739 440.55L321.959 440.91L320.879 433.4L323.389 431.97L322.309 427.33L319.099 430.19L318.379 440.55L315.519 441.62L311.949 445.19H308.379L305.519 444.12L305.159 446.98L306.949 450.55L303.019 451.98L299.089 450.55H295.159L287.659 447.69L284.799 449.48L281.199 446.18L276.229 438.33L275.559 434.34L277.299 434.05L292.299 424.76L288.369 423.69L287.299 419.04L290.159 416.18L293.369 415.11L293.729 412.61L295.519 410.47L294.449 406.54L290.869 404.04L295.519 401.18L300.519 400.1L300.159 395.1L297.659 391.17L299.449 387.24L305.879 382.96L307.669 378.67L303.379 376.17L300.879 370.81L302.659 365.81L304.089 361.16L306.589 357.95L300.159 349.02L301.229 346.87L309.809 346.16L314.449 349.37L315.879 354.02L320.529 354.73L324.099 348.3L327.309 350.09L330.889 357.95L334.459 360.09L332.319 361.52L331.239 363.66L335.179 366.16L338.389 363.66H343.039L345.539 366.16L350.539 365.81L356.609 371.17L357.329 376.17L369.119 376.88L373.399 380.81H380.909L385.549 383.67H390.189L392.339 387.6L389.839 389.74L387.689 397.96L385.549 404.39L381.619 411.18L379.479 417.97L374.479 418.33L374.119 420.11L376.259 428.33L371.619 433.33L369.469 435.12L357.329 435.83L349.499 443.42Z" fill="#C7C7C7" stroke="white" stroke-width="2"/>
<path d="M392.341 387.6L394.741 384.18L400.261 385L402.471 381.97L408.551 382.24L410.761 380.31L411.861 376.72L410.481 372.3L413.521 366.5L410.761 363.19L411.031 359.88L409.931 356.01L407.721 357.11L406.061 360.43L403.021 358.5L402.191 346.62L398.051 343.58L390.321 342.2L392.251 340.27L390.871 336.41L388.941 334.2L393.641 328.95L394.191 325.91H398.881L400.261 322.05L404.401 321.77L406.611 319.29L406.341 314.04L407.721 311L407.441 303.82L410.761 303.55L411.031 301.61L413.241 299.68L414.071 294.99L416.081 293.86L418.311 296.23L419.691 305.2L423.881 308.03L425.301 313.6L432.731 318.14L438.171 317.49L445.861 300.83L448.881 296.52L450.751 290.36L453.861 287.86L455.011 283.93L459.101 280.88L465.681 280.22L469.061 275.9L475.831 273.73L489.901 288.91L495.941 292.3L502.511 291.81L503.971 293.65L506.971 294.56L512.671 301.29L513.791 306.02L505.451 310.35L496.461 304.37L490.951 304.28L488.311 307.09L487.411 314.65L486.171 316.68L482.341 318.47L475.951 317.18L474.371 318.63L475.291 323.25L479.861 327.75L480.231 333.74L482.851 341.3L487.491 348.05L490.891 349.53L500.651 351.34L503.881 354.91L503.921 358.18L502.231 362.11L501.961 365.77L501.301 364.37L499.771 366.13L498.581 365.43L498.761 367.16L497.491 368.76L497.981 369.56L496.371 369.86L497.381 371.41L496.201 372.13L495.431 371.61L494.571 373.2L496.491 374.58L496.481 376.66L495.371 376.28L494.171 383.71L495.431 385.55L494.801 388.93L495.891 389.9L495.541 391.56L490.761 391.76L490.191 393.27L487.841 392.71L484.381 393.64L484.251 394.53H482.271L481.721 392.87L477.301 395.63L474.541 394.25L474.271 387.35L477.301 386.52L479.231 384.04L475.371 379.9H472.331L468.471 373.82L460.181 374.93L453.831 373.54L449.691 371.89L446.931 368.02L445.271 374.1L441.961 376.31L444.991 380.17V383.49L446.931 386.25L446.651 391.77L448.311 395.36L441.411 402.81L438.921 408.06L438.091 414.96L434.781 416.07L433.401 418.55L429.261 420.76V418L425.941 417.17L421.251 406.4L418.211 406.96L416.281 409.72L411.861 408.61L406.891 405.58L403.301 398.95H398.051L396.121 400.6L392.531 399.23L390.051 401.16L387.031 399.95L387.691 397.96L389.841 389.74L392.341 387.6Z" fill="#C7C7C7" stroke="white" stroke-width="2"/>
<path d="M484.252 394.53L485.482 396.92L483.592 399.38L472.562 399.99L471.992 401.19L468.082 402.31L468.782 404.43L467.842 406.17L467.802 413.92L465.292 416.27L466.032 419.43L464.992 426.44L461.312 437.12L464.502 444.16L466.942 446.3L466.112 451.51L467.192 453.12L467.832 457.32L469.982 460.59L473.452 463.39L477.002 464.59L478.652 467.63L477.142 470.73L478.972 474.5L478.352 481.19L484.422 497.74L486.602 499.1L489.812 499.15L492.722 503.9L500.572 505.48L502.012 510.23L499.942 510.64L497.182 512.85L489.732 521.41L483.932 520.58L480.892 517.27L480.622 513.68L477.852 514.78L477.032 516.44L472.612 518.1L469.022 515.06L466.262 514.78L461.562 512.3H458.532V513.04L458.802 506.78L459.912 504.29L457.152 498.22L454.382 496.28L453.002 498.77L449.412 499.87L442.792 493.52L440.302 495.46L433.122 496.01L431.742 492.42L428.702 492.14L426.492 489.93L420.972 489.38L421.522 487.45L419.592 484.13L419.872 482.2L414.902 476.96L411.312 475.3L408.552 476.13L409.372 479.16L413.792 483.58V486.62L410.762 486.9L409.372 484.69H407.172L406.342 486.62H403.852L403.022 483.31L401.092 481.93L396.672 473.92L393.912 475.85L386.732 473.64L383.972 471.71L383.142 468.12L380.382 465.63L375.962 458.45L375.692 454.31L377.342 450.72L376.792 448.24L374.582 445.75L376.792 441.89L372.652 436.36L371.602 433.35L371.622 433.33L376.262 428.33L374.122 420.11L374.482 418.33L379.482 417.97L381.622 411.18L385.552 404.39L387.032 399.95L390.052 401.16L392.532 399.23L396.122 400.6L398.052 398.95H403.302L406.892 405.58L411.862 408.61L416.282 409.72L418.212 406.96L421.252 406.4L425.942 417.17L429.262 418V420.76L433.402 418.55L434.782 416.07L438.092 414.96L438.922 408.06L441.412 402.81L448.312 395.36L446.652 391.77L446.932 386.25L444.992 383.49V380.17L441.962 376.31L445.272 374.1L446.932 368.02L449.692 371.89L453.832 373.54L460.182 374.93L468.472 373.82L472.332 379.9H475.372L479.232 384.04L477.302 386.52L474.272 387.35L474.542 394.25L477.302 395.63L481.722 392.87L482.272 394.53H484.252Z" fill="#C7C7C7" stroke="white" stroke-width="2"/>
<path d="M167.169 384.44L166.569 384.62L166.809 388.26L165.599 391.65L168.269 396.73L164.879 403.51L171.409 411.5L169.719 415.14V420.46L171.409 426.03V430.88L175.049 433.06L173.349 440.32L176.499 447.59L181.099 454.13V458.48L183.039 462.6L180.129 465.02L176.019 463.09L172.139 465.27L171.659 468.66L168.509 470.35L164.629 470.59L161.239 473.5L156.639 480.52L152.519 480.76L152.039 478.58L150.349 479.31L147.679 483.91L148.409 487.79L152.769 488.76L160.029 496.51L164.389 504.01L165.119 508.37L168.989 511.76L169.959 515.39L172.379 518.54L171.409 523.63L175.769 526.29L179.889 527.02L183.039 524.84L190.789 522.9L193.939 523.14L196.599 524.84L196.019 527.29H192.619L190.839 531.58L192.619 536.94L188.689 537.66L186.549 540.51L190.479 543.73L191.909 546.59L194.769 546.94L195.839 551.59L180.829 555.16L179.049 561.59L174.039 561.95L171.539 565.52L169.759 570.17L166.179 575.17L165.779 578.29L153.429 564.68L150.949 559.16L146.499 562.06L139.629 561.86L137.379 560.23L135.609 561.46L134.119 559.44L129.439 558.8L127.169 550.39L125.739 548.37L124.259 548.53L122.809 551.84L120.819 550.44L114.609 548.74L110.129 545.92L106.149 538.69L97.2492 533.13L94.3792 524.35L88.1792 521.93L86.3592 519.41L85.1492 514.38L81.4192 513.26L75.6992 508.21L69.7992 505.86L65.2092 502.8L56.1892 492.72L55.6992 486.4L58.2392 486.93L59.0592 485.84L59.5092 475.11L61.8492 474.16L69.6392 475.82L74.4392 473.59L75.7092 474.25L76.2692 476.1L77.5492 476.12L79.3892 480.19L81.0992 480.44L84.8992 477.75L91.0092 477.92L91.9292 476.82L90.7792 475.09L89.9492 475.16L91.0092 471.84L89.5292 468.84L90.9592 467.73L92.5692 469.64L94.3292 468.2L91.8192 452.6L86.0792 447.75L85.0092 444.01L82.6892 442.08L78.1492 440.42L76.6592 431.41L74.5792 429.63L72.1292 424.87L68.6692 422.86L68.1592 418.48L64.7592 416.97L64.3092 414.19L59.4392 410.28L56.8292 405.5L56.3692 400.46L57.9992 400.02L60.9092 403.22L66.1692 403.71L69.9292 406.37L71.7792 406.2L73.2992 408.36L76.4692 410.14L78.4092 408.97L81.6992 410.51L94.3592 410.82L96.2192 407.62L99.5992 405.67L99.3392 403.1L106.639 400.06L105.849 396.66L107.049 394.02L106.399 393.23L104.539 393.66L104.079 390.51L102.369 390.14L101.569 393.88L100.649 394.38L97.8992 390.08L93.0492 388.52L91.5392 386.76L103.609 378.33L106.029 379.05L107.719 380.99L108.689 377.84L108.449 373.97L111.109 373.48L125.399 381.96L128.309 386.08L129.279 389.71H133.389L134.599 387.53L133.389 383.9L130.489 381.48L129.279 378.81H132.669L135.329 381.23L137.509 378.57L141.389 376.63L145.259 377.6L147.919 382.69L151.309 385.11L154.949 382.69L158.819 382.2L166.329 382.93L167.169 384.44Z" fill="#C7C7C7" stroke="white" stroke-width="2"/>
<path d="M240.05 426.62L239.07 426.19L233.35 427.97L229.78 432.26L230.14 438.33L223.35 441.55L220.49 446.19L217.99 448.34L212.27 448.69L212.99 451.91L215.85 456.2L216.56 461.2L214.06 463.7L209.77 461.91L206.56 463.7L205.13 467.27L208.7 470.85L205.84 478.35L198.7 484.78L201.91 488.71L207.27 489.78L209.41 494.43L213.7 497.64L210.84 508.36L213.7 510.86L213.34 520.15L208.7 521.94L204.41 527.65L203.7 531.94L200.13 530.51L196.2 527.29H196.02L196.6 524.84L193.94 523.14L190.79 522.9L183.04 524.84L179.89 527.02L175.77 526.29L171.41 523.63L172.38 518.54L169.96 515.39L168.99 511.76L165.12 508.37L164.39 504.01L160.03 496.51L152.77 488.76L148.41 487.79L147.68 483.91L150.35 479.31L152.04 478.58L152.52 480.76L156.64 480.52L161.24 473.5L164.63 470.59L168.51 470.35L171.66 468.66L172.14 465.27L176.02 463.09L180.13 465.02L183.04 462.6L181.1 458.48V454.13L176.5 447.59L173.35 440.32L175.05 433.06L171.41 430.88V426.03L169.72 420.46V415.14L171.41 411.5L164.88 403.51L168.27 396.73L165.6 391.65L166.81 388.26L166.57 384.62L168.99 383.9L175.05 383.17L180.13 378.57L185.94 379.05L189.58 377.36H193.94L195.39 373.73L199.26 372.76L201.93 367.91L205.08 366.95L210.4 360.41L212.58 356.77L215 359.68L215.25 365.98L219.61 371.79L223 372.03L225.42 374.69L227.84 379.78L228.08 384.14L237.53 391.65L240.92 396.49L240.19 398.67L236.56 399.15L227.11 407.15L230.02 413.68L233.17 416.59L236.56 421.68L240.43 424.34L240.05 426.62Z" fill="#C7C7C7" stroke="white" stroke-width="2"/>
<path d="M281.201 446.18L280.511 445.55L276.231 452.34L275.871 457.7L273.371 461.27L273.011 464.13L279.801 469.13L279.081 472.35H275.151V475.2L276.941 478.42L277.301 483.06L279.081 487.35L275.151 489.85L270.871 488.78L268.011 486.64L265.151 486.28L262.291 488.42L258.361 486.64L256.571 489.49L261.221 493.43L258.361 503.43L258.721 508.79L264.441 509.5L268.721 513.79L268.011 520.22L262.651 525.22L265.511 527.72L262.841 533.26H262.641L259.981 533.9L256.051 537.38L252.881 538.3L245.241 543.07L236.941 545.62L237.551 548.35L243.101 554.02L242.241 558.75L242.841 561.3L243.821 562.48L246.171 562.06L246.111 566.45L248.161 573.08L248.301 576.9L247.811 578.28L240.301 579.37L240.351 581.72L236.611 579.85L231.611 581.65L221.831 588.5L220.351 591.61L220.591 593.67L225.581 601.15L225.491 602.23L224.741 603.92L223.221 606.46L221.141 607.68L202.131 610.67L204.291 607.82L204.481 598.97L203.261 596.46L197.241 593.25L196.761 590.82L190.851 589.7L187.701 587.21L177.831 582.76L173.511 584.34L168.871 579.88L165.781 578.29L166.181 575.17L169.761 570.17L171.541 565.52L174.041 561.95L179.051 561.59L180.831 555.16L195.841 551.59L194.771 546.94L191.911 546.59L190.481 543.73L186.551 540.51L188.691 537.66L192.621 536.94L190.841 531.58L192.621 527.29H196.201L200.131 530.51L203.701 531.94L204.411 527.65L208.701 521.94L213.341 520.15L213.701 510.86L210.841 508.36L213.701 497.64L209.411 494.43L207.271 489.78L201.911 488.71L198.701 484.78L205.841 478.35L208.701 470.85L205.131 467.27L206.561 463.7L209.771 461.91L214.061 463.7L216.561 461.2L215.851 456.2L212.991 451.91L212.271 448.69L217.991 448.34L220.491 446.19L223.351 441.55L230.141 438.33L229.781 432.26L233.351 427.97L239.071 426.19L242.281 427.62L250.141 439.76L256.221 439.41L260.151 436.55L257.651 434.76L258.361 431.55L261.931 430.12L265.511 429.04L271.581 429.76L275.151 431.9L276.231 438.33L281.201 446.18Z" fill="#C7C7C7" stroke="white" stroke-width="2"/>
<path d="M349.11 512.43L348.75 511.65L340.53 508.79L336.96 510.57L333.03 507.36L329.82 507.72L329.1 509.86H326.24L321.96 512.36L315.52 512.72L313.74 515.22L314.1 520.93L312.31 523.79L308.38 524.15L307.67 530.22L305.52 534.51L300.52 537.73L297.66 536.3L294.09 532.73L289.44 535.23L286.94 532.37L284.8 533.8L283.73 538.44L281.94 539.16V548.09L279.8 550.95L278.73 554.52L279 559.72L278.8 559.63L275.31 557.53L271.85 556.75L268.61 553.51L267.71 549.34L269.05 548.14L271.28 547.87L275.87 549.45L276.15 547.29L269.27 535.51L265.84 533.35L263.29 533.26H262.84L265.51 527.72L262.65 525.22L268.01 520.22L268.72 513.79L264.44 509.5L258.72 508.79L258.36 503.43L261.22 493.43L256.57 489.49L258.36 486.64L262.29 488.42L265.15 486.28L268.01 486.64L270.87 488.78L275.15 489.85L279.08 487.35L277.3 483.06L276.94 478.42L275.15 475.2V472.35H279.08L279.8 469.13L273.01 464.13L273.37 461.27L275.87 457.7L276.23 452.34L280.51 445.55L284.8 449.48L287.66 447.69L295.16 450.55H299.09L303.02 451.98L306.95 450.55L305.16 446.98L305.52 444.12L308.38 445.19H311.95L315.52 441.62L318.38 440.55L319.1 430.19L322.31 427.33L323.39 431.97L320.88 433.4L321.96 440.91L328.74 440.55L330.17 437.69L333.75 438.05L334.46 440.55L337.32 441.62L333.03 443.76L335.18 445.55L338.39 445.91L338.75 448.41H341.96L344.82 446.98L349.11 442.34L350.54 446.27V449.84L353.4 451.62L352.32 454.48L348.75 456.98L347.32 461.27L351.25 468.77L355.18 470.2L356.61 481.28L360.18 483.42L359.83 488.78L356.61 493.43L358.04 498.78L360.9 502L358.04 505.57L354.47 505.93L352.32 509.5L349.11 512.43Z" fill="#C7C7C7" stroke="white" stroke-width="2"/>
<path d="M458.53 513.04V516.17L456.87 520.86L449.41 522.79H447.76L445.27 520.58L441.41 518.93H438.64L434.78 516.72L433.95 517.82L433.12 520.86L434.5 524.73L434.23 526.38L437.54 529.14V532.46L432.85 535.49L430.36 542.12L431.19 544.61L437.82 547.64L444.17 552.89L451.35 553.72L452.73 556.48L451.62 561.73L448.86 562L445.55 563.77V563.47L443.61 564.57L441.68 568.44L439.47 568.71L438.37 566.5L433.4 567.06L433.12 563.19L430.08 562.09L420.97 552.7L416.55 551.32L412.14 551.04L404.68 556.01L404.4 552.15L402.19 550.21L397.23 552.42L391.07 553.41L390.55 552.02L387.69 543.44L386.62 536.3L383.05 533.8L378.05 533.44L376.26 540.94L374.48 538.8L369.12 537.01L367.33 533.8L369.12 531.65V528.44L364.83 527.72L361.61 525.22L360.54 522.01L363.04 518.79L363.76 514.86L356.97 515.93L350.54 515.58L349.11 512.43L352.32 509.5L354.47 505.93L358.04 505.57L360.9 502L358.04 498.78L356.61 493.43L359.83 488.78L360.18 483.42L356.61 481.28L355.18 470.2L351.25 468.77L347.32 461.27L348.75 456.98L352.32 454.48L353.4 451.62L350.54 449.84V446.27L349.5 443.42L357.33 435.83L369.47 435.12L371.6 433.35L372.65 436.36L376.79 441.89L374.58 445.75L376.79 448.24L377.34 450.72L375.69 454.31L375.96 458.45L380.38 465.63L383.14 468.12L383.97 471.71L386.73 473.64L393.91 475.85L396.67 473.92L401.09 481.93L403.02 483.31L403.85 486.62H406.34L407.17 484.69H409.37L410.76 486.9L413.79 486.62V483.58L409.37 479.16L408.55 476.13L411.31 475.3L414.9 476.96L419.87 482.2L419.59 484.13L421.52 487.45L420.97 489.38L426.49 489.93L428.7 492.14L431.74 492.42L433.12 496.01L440.3 495.46L442.79 493.52L449.41 499.87L453 498.77L454.38 496.28L457.15 498.22L459.91 504.29L458.8 506.78L458.53 513.04Z" fill="#C7C7C7" stroke="white" stroke-width="2"/>
<path d="M338.06 606.17L337.75 605.74L333.83 606.71L331.55 602.2L328.15 598.83L322.02 597.29L316.21 597.84L315.69 596.41L318.53 587.8L316.64 582.16L314.85 580.82L312.18 581.49L308.82 586.21L308.56 569.9L307 564.02L305.07 564.15L302.76 566.23L300.86 560.68L297.8 557.56L291.2 560.57L286.58 558.48L284.49 559.86L283.74 560.13L281.65 560.84L279.63 559.99L279 559.72L278.73 554.52L279.8 550.95L281.94 548.09V539.16L283.73 538.44L284.8 533.8L286.94 532.37L289.44 535.23L294.09 532.73L297.66 536.3L300.52 537.73L305.52 534.51L307.67 530.22L308.38 524.15L312.31 523.79L314.1 520.93L313.74 515.22L315.52 512.72L321.96 512.36L326.24 509.86H329.1L329.82 507.72L333.03 507.36L336.96 510.57L340.53 508.79L348.75 511.65L350.54 515.58L356.97 515.93L363.76 514.86L363.04 518.79L360.54 522.01L361.61 525.22L364.83 527.72L369.12 528.44V531.65L367.33 533.8L369.12 537.01L374.48 538.8L376.26 540.94L378.05 533.44L383.05 533.8L386.62 536.3L387.69 543.44L390.55 552.02L391.62 554.88L387.34 560.59L380.91 563.45L378.05 563.81L372.33 569.17L367.69 569.52L365.54 572.38L359.11 575.6H353.04L351.25 578.46L344.11 583.1L346.61 587.75V591.67L344.82 592.39L344.46 595.96L345.89 598.82L343.39 603.11L338.06 606.17Z" fill="#C7C7C7" stroke="white" stroke-width="2"/>
<path d="M445.549 563.77L448.859 562L451.619 561.73L452.729 556.48L451.349 553.72L444.169 552.89L437.819 547.64L431.189 544.61L430.359 542.12L432.849 535.49L437.539 532.46V529.14L434.229 526.38L434.499 524.73L433.119 520.86L433.949 517.82L434.779 516.72L438.639 518.93H441.409L445.269 520.58L447.759 522.79H449.409L456.869 520.86L458.529 516.17V512.3H461.559L466.259 514.78L469.019 515.06L472.609 518.1L477.029 516.44L477.849 514.78L480.619 513.68L480.889 517.27L483.929 520.58L489.729 521.41L497.179 512.85L499.939 510.64L502.009 510.23L503.309 511.35L508.859 511.11L514.509 514.38L514.989 516.76L518.239 520.42L522.269 522.75L524.619 528.59L524.379 531.08L527.639 533.97L527.809 535.67L531.349 541.19L536.939 545.3L539.649 544.59L545.459 547.36L542.849 551.84L544.249 553.31L543.979 557.24L542.119 562.02L534.159 567.15L531.259 575.08L527.019 577.3L524.939 580.63L516.669 584.42L516.549 588.52L514.849 590.48L516.059 593.46L511.619 601.3L507.559 601.23L506.509 602.51L505.389 601.72L503.079 604.68L502.449 603.08L500.249 601.95L498.019 602.76L495.179 599.62L490.719 600.31L489.399 602.88L489.439 605.17L484.579 602.27L482.349 603.58L471.499 601.3L464.049 592.74L467.359 588.87L456.319 582.52L451.349 580.59H448.029L447.199 578.65L443.609 577.55L441.679 574.51L443.889 572.03L447.759 571.75L448.029 569.82L449.969 568.71L448.579 566.23L445.549 565.95V563.77Z" fill="#C7C7C7" stroke="white" stroke-width="2"/>
<path d="M482.349 603.58L481.949 606.25L480.729 607.64L476.669 610.9L473.019 612.03L469.569 611.93L466.979 614.08H464.819L463.099 617.97L460.079 620.12L455.759 620.99L454.899 623.58L452.999 624.77H449.139L443.889 623.11V617.31H442.229L441.409 618.69L438.639 614.27L431.189 617.86L430.079 615.38L430.359 611.51L424.559 610.96L420.699 614L417.379 611.24H414.899L412.409 616.76L406.339 617.59L403.299 615.38L400.259 615.65L398.049 617.31H393.909L391.979 620.35V622.56L389.489 625.6L388.389 632.77L384.799 633.88L384.699 635.7L384.579 635.63L381.959 635.77L377.019 641.55L374.359 642.64L371.179 639.92L366.199 631.16L361.959 628.42L356.899 627.21L350.429 627.33L350.299 627.28L344.619 624.3L335.179 623.6L334.699 618.9L337.809 613.35L338.699 607.08L338.059 606.17L343.389 603.11L345.889 598.82L344.459 595.96L344.819 592.39L346.609 591.67V587.75L344.109 583.1L351.249 578.46L353.039 575.6H359.109L365.539 572.38L367.689 569.52L372.329 569.17L378.049 563.81L380.909 563.45L387.339 560.59L391.619 554.88L391.069 553.41L397.229 552.42L402.189 550.21L404.399 552.15L404.679 556.01L412.139 551.04L416.549 551.32L420.969 552.7L430.079 562.09L433.119 563.19L433.399 567.06L438.369 566.5L439.469 568.71L441.679 568.44L443.609 564.57L445.549 563.47V565.95L448.579 566.23L449.969 568.71L448.029 569.82L447.759 571.75L443.889 572.03L441.679 574.51L443.609 577.55L447.199 578.65L448.029 580.59H451.349L456.319 582.52L467.359 588.87L464.049 592.74L471.499 601.3L482.349 603.58Z" fill="#C7C7C7" stroke="white" stroke-width="2"/>
<path d="M473.019 612.03L472.199 612.58L472.469 615.55L474.329 617.95L474.859 620.47L479.969 626.96L479.579 630.13L478.409 630.32L476.089 635.31L474.639 636.14L476.829 638.6L473.999 643.41L475.399 644.78L472.009 653.76L471.769 657.39L475.879 658.44L479.459 662.86L482.549 664.47L485.739 667.73L487.359 671.76L485.409 675.65L484.259 682.64L482.689 684.23L482.339 686.89L477.009 687.78L477.239 690.2L474.549 693.48L474.919 696.26L473.699 698.29L471.189 700.04L470.129 698.68L467.579 698.66L466.769 699.66L462.509 700.3L461.889 701.82L459.889 702.66L449.429 694.15L446.359 697.19L441.449 699.11L441.579 701.46L442.959 703.59L442.499 704.84L441.099 703.53L437.989 703.64L435.529 701.89L430.019 705.16L420.629 702.61L418.709 703.39L414.989 700.55L406.729 696.77L405.649 698.08L404.609 703.27L401.759 704.02L396.619 701.96L391.329 702.78L383.579 710.82L370.949 713.73L363.239 711.39L363.369 703.74L360.849 702.52L359.449 699.48L359.679 696.16L361.699 692.42L365.569 689.62L366.949 683.02L365.899 680.66L366.839 677.91L370.549 674.5L377.219 671.12L379.739 668.14L382.329 656.63L385.739 650.72L390.889 647.77L389.049 644.73L388.489 638.79L385.589 636.23L384.699 635.7L384.799 633.88L388.389 632.77L389.489 625.6L391.979 622.56V620.35L393.909 617.31H398.049L400.259 615.65L403.299 615.38L406.339 617.59L412.409 616.76L414.899 611.24H417.379L420.699 614L424.559 610.96L430.359 611.51L430.079 615.38L431.189 617.86L438.639 614.27L441.409 618.69L442.229 617.31H443.889V623.11L449.139 624.77H452.999L454.899 623.58L455.759 620.99L460.079 620.12L463.099 617.97L464.819 614.08H466.979L469.569 611.93L473.019 612.03Z" fill="#C7C7C7" stroke="white" stroke-width="2"/>
<path d="M255.52 650.31L256.57 647.95L257.29 640.8L263.36 638.66L264.08 634.73L269.08 632.94L271.94 636.16L274.8 632.23L278.37 631.15L281.23 633.65L281.94 636.87L286.58 635.8L293.73 630.44L296.59 623.65L294.8 619.01L297.3 616.15L302.31 614.72L300.88 609.72L295.88 607.22L294.8 592.93L296.23 588.28L296.59 581.85L289.8 575.78L287.3 570.77V564.34L284.18 559.97L284.49 559.86L286.58 558.48L291.2 560.57L297.8 557.56L300.86 560.68L302.76 566.23L305.07 564.15L307 564.02L308.56 569.9L308.82 586.21L312.18 581.49L314.85 580.82L316.64 582.16L318.53 587.8L315.69 596.41L316.21 597.84L322.02 597.29L328.15 598.83L331.55 602.2L333.83 606.71L337.75 605.74L338.7 607.08L337.81 613.35L334.7 618.9L335.18 623.6L344.62 624.3L350.3 627.28L350.38 627.31L347.68 634.37L342.32 632.58L338.75 633.65L345.18 639.73L345.54 645.8H340.89L334.82 647.59L334.1 650.8L330.89 655.09L327.31 656.52L321.96 662.95L327.31 667.6L325.53 671.88L322.67 672.96L322.31 677.96L325.53 681.17L326.6 684.03L324.1 685.46L325.89 692.25L320.17 694.75L318.74 696.54L321.6 697.25V700.82L320.17 705.47L323.03 707.61V710.11L324.46 711.54L334.46 713.33L335.67 715.15L330.29 720.31L327.39 725.52L324.23 735.42L321.88 738.19L319.3 738.75L313.89 737.91L311.35 731.71L307.89 728.21L306.51 722.49L304.15 720.45L300.09 720.17L295.14 723.66L293.17 726.59L284.63 731.98L283.73 726.55L278.01 722.97L273.01 723.33L269.79 721.19L270.15 718.33L277.3 711.9L281.23 710.47L284.08 706.9L284.44 701.54L281.94 692.6L277.3 690.46L281.23 686.89L282.3 682.96L278.73 678.31L275.87 676.89L274.8 672.24L264.08 666.52H260.86L260.15 661.88L261.58 659.74L259.43 655.81L260.86 652.95L257.65 651.16L255.52 650.31Z" fill="#C7C7C7" stroke="white" stroke-width="2"/>
<path d="M260.858 666.52H258.718L255.148 668.67L249.788 669.02L245.858 662.59L243.708 661.88L239.428 665.45L229.778 664.74L223.348 670.45L224.778 682.6L224.058 692.25L228.348 696.18L235.848 699.39L231.918 700.47L227.638 705.47L222.988 709.04L220.598 716.47L220.108 714.52L215.128 709.21L208.098 706.77L206.808 704.53L201.518 702.63L201.648 701.4L199.458 699.38L197.928 699.43L195.468 701.54L193.348 700.02L189.088 700.95L187.338 699.9L187.558 698.05L186.258 695.81L187.248 695.01L187.408 692.12L186.708 690.28L182.668 686.65L185.018 683.72L184.108 680.63L180.578 677.54L181.218 675.67L179.298 673.64L177.158 668.05L168.728 663.47L167.028 660.3L165.208 659.53L167.178 653.83L166.518 648.17L173.768 640.2L169.348 634.63L163.748 631.34L161.758 625.85L164.208 620.45L177.028 624.28L187.978 625.11L189.348 624.48L193.788 618.62L192.738 615.36L193.518 613.97L198.628 610.15L202.128 610.67L221.138 607.68L223.218 606.46L224.738 603.92L225.248 602.76L227.638 603.29L231.208 600.07L236.568 602.22L241.568 611.15L241.208 619.01L238.348 621.51L240.498 622.94V629.37L237.278 630.08L237.998 633.3L240.138 634.73L241.208 639.37L244.068 639.73L246.208 637.23L247.638 637.59L250.138 646.16L251.928 646.87L254.068 649.73L257.648 651.16L260.858 652.95L259.428 655.81L261.578 659.74L260.148 661.88L260.858 666.52Z" fill="#C7C7C7" stroke="white" stroke-width="2"/>
<path d="M284.632 731.98L278.112 734.05L272.782 739.79L268.192 739.83L265.362 741.5L259.452 743.03L254.112 751.84L254.522 759.97L256.232 763.97L255.792 767.56L257.732 771.19L251.752 777.72L243.192 782.96L237.422 792.87L235.882 793.93L233.892 793.17L230.612 793.81L228.382 786.84L228.352 779.45L230.002 778.14L232.702 777.81L230.422 771.12L235.992 766.87L236.602 760.74L234.952 758.48L232.712 749.12L229.612 746.11L227.582 742.18L228.982 739.5L228.372 737.69L229.172 735.16L227.912 730.96L226.022 728.59L223.542 719.49L220.602 716.47L222.992 709.04L227.642 705.47L231.922 700.47L235.852 699.39L228.352 696.18L224.062 692.25L224.782 682.6L223.352 670.45L229.782 664.74L239.432 665.45L243.712 661.88L245.862 662.59L249.792 669.02L255.152 668.67L258.722 666.52H264.082L274.802 672.24L275.872 676.89L278.732 678.31L282.302 682.96L281.232 686.89L277.302 690.46L281.942 692.6L284.442 701.54L284.082 706.9L281.232 710.47L277.302 711.9L272.652 715.83L270.152 718.33L269.792 721.19L273.012 723.33L278.012 722.97L283.732 726.55L284.632 731.98Z" fill="#C7C7C7" stroke="white" stroke-width="2"/>
<path d="M284.182 559.97L287.302 564.34V570.77L289.802 575.78L296.592 581.85L296.232 588.28L294.802 592.93L295.882 607.22L300.882 609.72L302.312 614.72L297.302 616.15L294.802 619.01L296.592 623.65L293.732 630.44L286.582 635.8L281.942 636.87L281.232 633.65L278.372 631.15L274.802 632.23L271.942 636.16L269.082 632.94L264.082 634.73L263.362 638.66L257.292 640.8L256.572 647.95L255.522 650.31L254.072 649.73L251.932 646.87L250.142 646.16L247.642 637.59L246.212 637.23L244.072 639.73L241.212 639.37L240.142 634.73L238.002 633.3L237.282 630.08L240.502 629.37V622.94L238.352 621.51L241.212 619.01L241.572 611.15L236.572 602.22L231.212 600.07L227.642 603.29L225.252 602.76L225.492 602.23L225.582 601.15L220.592 593.67L220.352 591.61L221.832 588.5L231.612 581.65L236.612 579.85L240.352 581.72L240.302 579.37L247.812 578.28L248.302 576.9L248.162 573.08L246.112 566.45L246.172 562.06L243.822 562.48L242.842 561.3L242.242 558.75L243.102 554.02L237.552 548.35L236.942 545.62L245.242 543.07L252.882 538.3L256.052 537.38L259.982 533.9L262.642 533.26H263.292L265.842 533.35L269.272 535.51L276.152 547.29L275.872 549.45L271.282 547.87L269.052 548.14L267.712 549.34L268.612 553.51L271.852 556.75L275.312 557.53L278.802 559.63L279.632 559.99L281.652 560.84L283.742 560.13L284.182 559.97Z" fill="#C7C7C7" stroke="white" stroke-width="2"/>
<path d="M335.672 715.15L334.462 713.33L324.462 711.54L323.032 710.11V707.61L320.172 705.47L321.602 700.82V697.25L318.742 696.54L320.172 694.75L325.892 692.25L324.102 685.46L326.602 684.03L325.532 681.17L322.312 677.96L322.672 672.96L325.532 671.88L327.312 667.6L321.962 662.95L327.312 656.52L330.892 655.09L334.102 650.8L334.822 647.59L340.892 645.8H345.542L345.182 639.73L338.752 633.65L342.322 632.58L347.682 634.37L350.382 627.31L350.432 627.33L356.902 627.21L361.962 628.42L366.202 631.16L371.182 639.92L374.362 642.64L377.022 641.55L381.962 635.77L384.582 635.63L385.592 636.23L388.492 638.79L389.052 644.73L390.892 647.77L385.742 650.72L382.332 656.63L379.742 668.14L377.222 671.12L370.552 674.5L366.842 677.91L365.902 680.66L366.952 683.02L365.572 689.62L361.702 692.42L359.682 696.16L359.452 699.48L360.852 702.52L363.372 703.74L363.242 711.39L350.902 712.91L346.282 710.54H343.092L340.402 714.8L335.672 715.15Z" fill="#C7C7C7" stroke="white" stroke-width="2"/>
</svg>
