<svg width="616" height="307" viewBox="0 0 616 307" fill="none" xmlns="http://www.w3.org/2000/svg">
<path d="M214.459 143.95L214.899 143.05L216.539 142.3L217.869 140.48L219.829 139.45L220.629 139.64L220.739 141.14L221.449 141.2L221.379 142.45L223.219 142.72L224.339 143.79L225.339 143.85L226.789 142.75L229.199 143.4L232.039 143.03L232.909 141.4L234.539 140.09L235.009 136.46L232.559 134.34L232.049 133.39L231.919 131.95L232.819 130.33L231.979 126.63L232.439 126.14L233.119 126.55L234.249 126.43L235.599 124.72L236.389 121.85L238.239 121.03L238.839 121.06L239.709 121.95L241.029 122.03L241.719 121.71L243.829 122.11L248.749 121.34L249.849 121.77L251.179 121.04L252.589 121.56L254.559 119.65L258.229 118.62L260.269 119.56L260.899 121.13L260.969 123.36L259.359 124.72L259.569 125.33L266.489 124.23L268.569 119.72L273.639 113.87H280.379L282.029 113.45L285.669 111.5L288.759 111.91L290.269 110.87L291.679 111.7L293.239 111.75L295.479 112.59L296.269 113.63L299.019 115.62L300.499 116.17L303.619 118.7H306.659L311.439 116.95L312.959 118.75L314.779 117.64L315.999 117.6L318.299 116.15L320.659 116.24L321.269 117.09L322.399 117.53L327.169 116.87L335.279 117.24L337.819 115.81L339.729 117.79L345.009 118.28L346.229 119.81L355.159 121.11L357.099 119.78L358.629 117.19L360.829 119.25L362.369 119.04L363.679 119.44L366.469 122.52L367.949 122.99L366.549 123.63L365.459 127.57L361.029 131.64L361.239 135.31L360.349 136.18L361.189 136.84L361.799 139.46L359.329 141.06L359.199 142.03L359.479 144.14L360.329 144.4L360.019 146.4L360.499 147.56L362.569 147.27L366.959 151.02L368.029 153.32L369.319 154.51L370.799 157.88L372.119 158.96L371.099 160.9L371.479 164.28L372.009 165.23L371.439 165.82L371.479 166.61L373.479 167.59L375.769 167.1L376.429 168.58L377.779 168.8L377.179 172.02L374.879 176.55L374.889 178.39L374.029 180.01L372.659 181.2L372.119 184.11L373.059 185.55L372.849 187.48L373.359 188.26L373.689 187.78L374.459 188.23L375.029 188.02L375.039 189.16L375.589 189.68L375.309 190.26L378.929 190.16L381.089 189.47L382.059 188.76L383.519 186.4L384.739 186.03L385.389 188.09L386.949 188.07L388.689 187.16L389.629 187.91L389.649 188.62L390.289 190.01L389.379 190.96L388.019 191.36L387.189 193.22L384.609 195.69L384.289 197.09L384.829 198.18L384.689 199.78L383.139 201.88L383.989 203.76L383.859 204.37L381.529 206.59L381.079 207.79L379.349 209.84L379.939 210.71L379.069 212.15L376.039 215.08L375.629 215.91L375.819 217L375.499 216.66L375.079 216.93L374.789 219.36L372.809 219.28L373.329 220.61L370.519 221.09L367.789 218.96L365.689 218.1L364.229 218.61L365.099 219.52L364.349 221.01L363.109 221.44L361.629 221.22L362.099 222.75L358.889 223.2L358.159 222.67L356.539 222.82L355.519 222.16L354.419 222.42L354.209 223.11L354.929 224.05L354.189 226.96L350.919 229.51L349.359 231.56L348.349 231.41L347.479 232.31L347.269 232.8L348.369 233.34L348.319 233.68L346.439 234.62L345.669 235.93L345.139 236.09L344.429 235.07L343.349 234.62L340.499 235.42L339.319 236.03L338.939 236.87L337.569 236.43L336.379 238.37L334.989 238.61L333.439 241.64L330.389 242.23L329.449 242.84L329.769 241.02L330.939 239.33L329.399 236.39L328.169 236.6L327.269 235.8L325.289 235.69L324.779 234.37L323.509 236.89H322.569L321.189 235.68L319.689 236.97L319.589 237.97L318.289 238.21L317.109 236.54L317.719 236.01L317.899 235.05L319.509 233.5L318.789 231.78L317.649 232.04L316.859 230.68L315.169 229.8L314.689 228.75L313.139 228.35L312.019 228.49L310.799 230.47L308.849 230.73L307.629 230.25L306.019 228.75L304.959 224.59L303.889 224.24L302.609 224.77L300.819 222.96L298.369 224.86L297.699 226.09L296.819 226.46L295.319 228.17L293.899 228.57L291.889 229.98L291.049 229.51L289.529 230.52L289.739 232.58L287.509 235.36L288.029 238.74L286.159 240.61L286.489 243.22L285.219 245.68L285.619 246.94L284.579 247.83L283.529 247.76L283.379 249.56L282.729 249.68L281.869 248.48L281.829 246.89L280.619 246.74L278.409 248.94L275.939 249.64L274.399 248.23L273.139 248.5L273.029 249.02L271.499 248.51L269.739 248.96L268.649 248.43L265.519 248.86L263.669 249.93L262.849 251.06L260.419 251.73L259.869 253.64L259.059 254.28L257.619 253.75L256.659 252.77L255.559 252.66L253.329 253.47L247.579 251.2L246.789 251.27L246.059 252.51L244.609 252.62L242.679 251.35L242.009 251.46L241.679 252.15L239.609 253.5L238.289 252.15L236.979 252.54L234.839 250.62L234.819 248.07L235.909 247.56L236.289 245.93L238.499 244.35L240.329 241.53L239.919 239.14L238.549 237.05L239.349 236.51L239.649 234.53L240.719 233.57L239.959 232.77L240.899 231.73L238.529 230.1L236.929 232.04L235.609 232.47L234.459 232.04L234.149 232.51L230.179 233.86L229.209 232.96L227.909 235.1L226.949 233.52L226.029 233.25L225.389 235.04L226.179 237.38L221.729 237.13L218.319 236.19L217.359 235.21L215.019 234.46L214.409 234.81L214.529 236.11L214.179 236.36L212.439 236.03L211.879 232.93L212.899 231.59L213.669 231.76L215.339 229.8L213.219 226.56L213.289 225.76L214.149 225.71L214.199 225.29L212.779 223.55L213.469 221.63L214.649 220.64L216.369 220.07L216.309 216.89L217.429 213.89L216.779 211.68L215.469 211.52L214.739 210.29L214.549 207.71L213.079 203.68L210.739 202.43L210.209 202.64L209.269 200.42L207.219 198.52L207.409 197.43L206.209 196.37L204.659 196.42L203.109 198.71L201.249 199.99L201.509 200.57L200.709 201.55L200.019 201.64L200.159 202.97L199.109 203.36L199.189 205.49L198.459 206.24L196.379 207.62L196.049 206.78L194.209 206.37L193.489 207.28L190.749 208.66L187.869 207.65L186.199 210.26L184.719 211.6L184.209 212.87L183.689 212.47L183.809 211.6L182.899 210.6L182.749 209.49L181.679 207.78L181.539 201.34L181.849 200.09L182.879 199.19L182.949 197.99L184.689 193.74L183.869 192.69L183.679 190.61L182.219 190.53L184.689 186.8L183.449 186.95L184.179 183.21L183.439 181.86L183.109 182.13L181.989 181.58L180.459 181.57L179.539 181.94L179.309 183.01L178.129 182.82L178.569 180.72L180.059 179.29L179.949 178.29L179.159 177.23L178.959 175.22L179.459 171.57L181.149 171.5L184.199 172.32L187.999 172.28L189.079 171.33L190.289 171.2L190.759 170.04L190.629 168.33L191.419 166.98L192.809 166.05L194.779 162.15L196.439 160.45L198.459 161.49L199.959 161.85L201.039 161.59L203.159 162.57L203.339 161.25L202.849 159.11L205.709 156.79L206.799 152.02L208.009 151.03L209.729 151.6L211.159 150.63L212.629 148.32L213.829 145.26L214.469 144.77L214.459 143.95Z" fill="#C7C7C7" stroke="white" stroke-width="2"/>
<path d="M14.06 177.5L17.04 177.52L17.25 175.8L20.54 175.43L23.93 174.03L24.23 174.58L25.71 174.7V174.08L24.58 172.76L24.69 172.12L28.64 174.5L30.7 173.34L31.41 174.75L32.37 175.01L39.74 173.35L42.36 171.94L44.83 171.5L45.35 169.69L47.81 168.14L54.64 158.04L56.15 159.38L57.64 160.01L59 162.7L59.22 164.45L58.83 165.31L57.12 166.34L55.82 168.4L53.77 168.56L53.03 171.21L49.09 173.92L48.76 174.93L52.12 177.32L52.57 179.3L54.74 179.64L54.81 181.05L56.75 181.97L56.53 182.69L55.72 183.21L55.81 184.23L55.24 185.49L53.33 186.15L53.3 186.84L52.22 188.26L52.39 188.97L53.89 190.72L56.7 190.85L58.44 192.74L61.76 192.77L61.23 195.84L62.93 196.08L62.88 197.41L64.32 198.05L65.73 203L66.31 203.74L68.03 203.07L69.91 204.85L70.53 207.28L68.97 211.28L67.73 211.83L68.84 212.96L68.25 214.57L69.36 214.68L69.93 215.96L71.7 217.38L72.16 217.57L73.29 216.68L74.63 218.21L71.15 222.59L70.17 226.33L70.78 226.97L72.16 227.1L75.15 228.51V229.58L73.88 231.4L74.05 232.12L75.25 232.67L75.35 235.24L74.98 235.82L73.46 235.98L73.12 236.82L71.35 236.89L70.21 238.05L69.43 239.81L66.49 240.86L64.58 239.57L62.92 239.49L63.01 237.19L61.06 236.55L59.77 237.7L60.23 239.42L61.32 240.03L60.21 241.95L59.08 241.66L56.2 243.92L55.55 243.7L53.92 244.67L52.68 243.91L52.06 244.02L51.87 244.77L52.37 245.37L52.03 246.98L52.83 248.5L53.95 249.34H54.91L56 248.03L57.12 248.62L57.19 249.42L55.71 249.72L55.22 252.77L53.15 253.07L52.13 252.03L51.6 252.24L51.72 253.78L52.4 255.06L49.7 256.43L48.16 258.51L47.18 258.55L47.29 259.6L46.13 260.82L45.65 259.34L43.85 260.28L41.22 259.74L36.96 261.78L34.82 259.5L33.28 259.45L31.79 257.96L29.55 259.56L27.23 257.86L29.08 255.68L28.72 254.84L27.14 254.15L28.99 252.46L27.61 251.62L28.26 250.42L27.68 249.61L29.67 248.26L29.19 247.48L29.64 247L27.93 245.88L27.49 245.29L27.82 244.58L27.05 244.43L26.31 243.48L26.95 243.06L25.67 240.05L23.94 240.56L22.68 240.38L19.17 236.9L17.05 235.47L17.1 232.85L15.65 227.28L14.14 225.07L15.19 220.66L14.13 219.68L11.67 219.33L10.07 216.85L10.51 216.16L9.98 216.42L8.63 213.4L9.67 213.22L9.11 212.47L10 210.72L6.14 208.8L6.2 207.11L4 207.22L2.99 206.43L2.83 203.57L2 201.88L2.25 201.51L3.82 201.53L3.84 200.26L4.66 198.64L4.02 198.28L3.88 197.01L5.1 195.73L4.08 193.77L3.79 191.04L5.17 190.26L4.79 189.5L5.21 188.39L6.1 188.02L6.64 186.96L8.67 185.26L8.14 184.25L8.49 183.51L9.51 183.08L10.33 183.62L10.94 183.45L10.42 180.84L11.37 180.64L11.24 179.61L12.3 178.96L12.54 179.41L13.65 179.37L13.41 178.27L14.06 177.5Z" fill="#C7C7C7" stroke="white" stroke-width="2"/>
<path d="M367.949 122.99L369.729 124.43L371.219 124.02L371.459 122.5L370.919 121.89L370.889 120.82L371.649 119.68L371.689 115.57L373.099 114.7L373.259 114.15L373.159 113.21L372.049 112.38L371.809 111.49L375.399 107.76L376.649 107.32L377.319 106.33L378.819 105.39L380.759 104.89L382.359 102.86L385.939 104.34L389.089 106.58L390.269 107.94L392.149 108.67L393.009 109.61L394.679 109.66L391.229 105.26L391.709 103.9L394.159 101.55L394.819 101.97L395.979 104.31L397.969 105.99L398.229 107.08L400.699 108.41L401.959 107.66L404.369 107.48L407.999 113.25L408.949 113.45L411.079 115.07L410.729 114.16L411.039 111.78L412.249 110.74L412.229 109.22L412.699 108.8L415.969 107.7L416.759 108L417.709 109.88L419.889 108.23L420.439 108.52L420.929 109.87L421.679 109.93L422.799 109.14L422.989 108.85L421.829 107.13L421.949 105.81L420.919 104.5L421.459 104.06L422.659 104.81L423.889 104.91L426.139 106.59L429.059 105.47L428.859 106.32L427.009 107.55L427.769 108.38L429.339 108.36L429.629 109.07L435.419 107.24L437.779 107.87L439.529 109.15L440.769 111.76L441.289 111.99L444.349 109.69L446.759 113.71L448.329 114.63L448.769 117.45L453.259 117.71L456.279 118.94L459.299 119.15L460.689 117.79L461.609 118.6L463.269 119.1L464.219 121.56L465.819 123.05L467.809 120.95L470.479 122.52L470.769 121.58L472.109 121.63L472.049 123.44L474.229 122.5L474.769 124.26L473.139 129.83L474.419 131.41L476.869 132.87L478.859 131.98L478.759 130.15L480.219 128.84L481.069 128.49L482.069 129.12L483.009 128.28L486.089 128.29L486.429 127.1L487.399 126.13L487.289 123.73L487.609 123.34L486.889 121.61L487.349 121.09L489.039 120.66L491.119 122.57L491.439 119.04L492.049 119.94L492.619 122.65L494.839 123.05L495.439 122.76V122L496.679 121.81L498.539 120.38L498.609 123.29L499.889 123.62L500.499 124.31L499.469 125.48L499.629 126.9L500.859 128.47L502.429 129.25L503.319 131.03L503.099 132.82L504.399 135.05L508.189 136.04L508.939 136.76L508.839 137.73L510.789 137.67L513.049 139.02L517.269 137.72L518.389 139.41L520.109 140.78L522.539 140.4L526.749 138.09L527.729 138.19L527.739 138.94L528.309 136.46L530.259 135.84L532.329 134.1L532.529 132.37L531.409 130.69L530.719 120.72L531.089 118.49L532.189 117.71L533.919 117.92L535.009 119.93L535.639 119.67L536.249 120.11L537.029 119.56L538.889 119.33L544.289 121.43L547.129 123.37L548.989 126.5L552.659 126.89L553.409 128.29L556.949 128.31L561.379 127.29L567.549 127.4L567.999 126.58L567.699 121.14L568.509 120.25L570.489 119.46L571.439 117.29L574.529 114.15L577.929 114.58L579.079 115.39L580.129 119.72L581.159 121.21L581.419 123.6L586.549 123.42L588.749 122.53L590.409 123.42L593.909 123.59L594.639 124.1L593.709 128.88L594.639 130.9L594.919 134.52L594.079 135.42L593.479 137.13L590.739 139.88L590.259 142.48L592.149 143.98L592.189 146.05L591.089 147.29L589.869 153.23L585.989 154.48L583.399 157.06L580.449 159.19L579.719 161.73L578.219 163.23L576.549 163.28L575.059 165.21H573.849L573.769 166.19L573.099 166.31L571.019 170.97L570.259 179.74L568.299 193.46L568.529 197.3L569.009 198.48L570.009 198.44L569.599 199.69L567.569 200.42L568.099 202.09H566.859L566.459 202.54L565.559 202.24L564.339 202.84L563.819 201.98L562.829 203.45L562.539 201.99L561.729 201.16L561.379 201.96L559.959 201.82L559.549 202.6L556.569 200.2L555.269 201.5L552.399 202.33L552.029 202.8L551.839 202.22L548.049 202.43L546.479 203.66L545.849 203.6L546.319 204.33L545.769 205.14L544.809 204.93L543.839 204.01L542.839 204.61L542.569 203.79L542.519 204.98L541.979 204.91L542.199 204.06L541.649 203.76L541.009 204.54L541.519 205.63L541.019 205.86L541.039 205.09L540.649 205.01L540.229 205.98L539.409 205.65L539.059 206.37L538.539 206.1L538.269 204.65L536.269 204.64L535.879 205.14L535.799 209.3L534.689 209.89L533.999 209.92L534.139 209.22L532.689 209.03L532.239 208.35L528.709 208.59L527.829 207.7L524.389 207.14L522.919 206.22L523.129 204.4L522.349 204.43L521.749 203.74L522.359 202.67L521.899 201.8L519.729 200.52L518.519 200.78L517.549 199.53L517.409 196.27L517.109 196.4L515.409 191.51L514.599 191.12L513.929 189.87L514.179 189.28L513.189 187.94L513.489 187.14L513.069 186.92L513.229 184.09L512.889 183.21L512.369 183.3L512.169 181.26L511.279 181.62L510.009 180.62L509.219 181.01L508.549 182.28L507.199 182.08L506.639 181.05L505.869 181.62L504.669 181.63L504.419 180.62L502.919 179.29L501.759 176.57L501.789 174.88L500.899 174.56L500.839 174.01H500.219L500.069 173.18L498.749 173.43L498.119 172.41L497.429 172.52L496.069 171.1L494.779 170.8L493.649 169.09L492.589 169.25L491.909 170.1L491.669 172.81L491.089 173.37L489.409 172.6L487.089 173.43L484.009 173.14L481.159 173.56L481.019 173.02L480.539 173.8L481.619 174.13L480.349 174.59L481.099 175.35L480.639 176.57L479.909 176.46L480.509 177.63L479.229 178.47L479.379 179.19L478.409 179.33L475.749 178.37L475.269 178.74L472.299 176.54L471.609 176.6L471.549 177.36L470.309 176.83L469.859 177.71L469.019 177.47L469.039 178.47L467.609 179.03L467.259 178.72L467.149 179.22L466.669 178.9L465.879 179.91L465.119 179.21L462.729 180.25L460.829 183.88L459.649 184.19L458.479 184.04L457.429 183.14L457.339 181.15L456.749 180.11L454.849 179.49L453.739 178.63L452.379 179.35L452.369 178.53L451.549 178.79L450.389 178.5L449.639 177.78L449.249 178.16L448.279 177.68L446.019 178.63L444.819 180.07L444.049 179.16L443.139 179.62L442.239 179.24L442.109 177.52L440.599 177.21L440.449 176.12L439.739 176.73L439.059 174.51L438.009 173.58L433.939 174.67L432.499 174.58L430.969 172.52L430.479 172.61V170.43L429.559 170.68L430.259 169.43L425.999 170.88L418.649 171.7L418.179 172.37L417.589 171.73L415.899 171.7L412.799 173.18L409.989 173.26L408.909 174.54L408.519 174.13L407.809 174.83L406.409 175.11L405.699 176.07L404.169 176.06L402.939 176.68L402.599 177.39L398.529 175.81L397.459 178.45L396.309 178.02L395.589 177L394.419 177.42L393.659 178.34L393.759 179.83L394.579 180.76L394.159 181.81L394.289 184.62L392.929 184.91L391.789 187.25L389.649 188.62L389.629 187.91L388.689 187.16L386.949 188.07L385.389 188.09L384.739 186.03L383.519 186.4L382.059 188.76L381.089 189.47L378.929 190.16L375.309 190.26L375.589 189.68L375.039 189.16L375.029 188.02L374.459 188.23L373.689 187.78L373.359 188.26L372.849 187.48L373.059 185.55L372.119 184.11L372.659 181.2L374.029 180.01L374.889 178.39L374.879 176.55L377.179 172.02L377.779 168.8L376.429 168.58L375.769 167.1L373.479 167.59L371.479 166.61L371.349 166.05L372.009 165.23L371.479 164.28L371.099 160.9L372.119 158.96L370.799 157.88L369.319 154.51L368.029 153.32L366.959 151.02L362.569 147.27L360.499 147.56L360.019 146.4L360.329 144.4L359.479 144.14L359.199 142.03L359.329 141.06L361.799 139.46L361.189 136.84L360.349 136.18L361.239 135.31L361.029 131.64L365.459 127.57L366.549 123.63L367.949 122.99Z" fill="#C7C7C7" stroke="white" stroke-width="2"/>
<path d="M123.879 164.08L125.359 163.55L125.889 162.6L126.699 162.76L127.849 161.73L128.179 160.57L128.129 158.03L127.399 157.45L126.549 154.45L125.779 153.74L125.269 150.26L126.699 148.79L128.029 148.66L129.229 150.11L134.199 150L136.129 151.11L137.589 150.6L141.139 153.84L142.509 158.16L144.169 159.77L145.589 158.99L147.189 159.85L148.279 159.57L149.549 160.25L150.989 164.29L152.139 166L151.829 167.88L149.409 170.22L151.049 171.57L150.209 172.53L150.179 173.58L150.539 174.09L153.679 174.05L154.849 174.98L156.849 178.37L158.399 180.04L158.929 182.66L159.589 183.58L162.759 184.54L163.639 184.01L163.909 182.77L164.229 184.07L165.599 185.34L166.049 183.78L168.009 182.66L171.249 179.37L174.109 178.03L177.009 175.32L178.959 175.22L179.159 177.23L179.949 178.29L180.059 179.29L178.569 180.72L178.129 182.82L179.309 183.01L179.539 181.94L180.459 181.57L181.989 181.58L183.109 182.13L183.439 181.86L184.179 183.21L183.449 186.95L184.689 186.8L182.219 190.53L183.679 190.61L183.869 192.69L184.689 193.74L182.949 197.99L182.879 199.19L181.849 200.09L181.539 201.34L181.679 207.78L182.749 209.49L182.899 210.6L183.809 211.6L183.689 212.47L184.209 212.87L184.719 211.6L186.199 210.26L187.869 207.65L190.749 208.66L193.489 207.28L194.209 206.37L196.049 206.78L196.379 207.62L198.459 206.24L199.189 205.49L199.109 203.36L200.159 202.97L200.019 201.64L200.709 201.55L201.509 200.57L201.249 199.99L203.109 198.71L204.659 196.42L206.209 196.37L207.409 197.43L207.219 198.52L209.269 200.42L210.209 202.64L210.739 202.43L213.079 203.68L214.549 207.71L214.739 210.29L215.469 211.52L216.779 211.68L217.429 213.89L216.309 216.89L216.369 220.07L214.649 220.64L213.469 221.63L212.779 223.55L214.199 225.29L214.149 225.71L213.289 225.76L213.219 226.56L215.339 229.8L213.669 231.76L212.899 231.59L211.879 232.93L212.439 236.03L214.179 236.36L214.529 236.11L214.409 234.81L215.019 234.46L217.359 235.21L218.319 236.19L221.729 237.13L226.179 237.38L225.389 235.04L226.029 233.25L226.949 233.52L227.909 235.1L229.209 232.96L230.179 233.86L234.149 232.51L234.459 232.04L235.609 232.47L236.929 232.04L238.529 230.1L240.899 231.73L239.959 232.77L240.719 233.57L239.649 234.53L239.349 236.51L238.549 237.05L239.919 239.14L240.329 241.53L238.499 244.35L236.289 245.93L235.909 247.56L234.819 248.07L234.839 250.62L234.319 250.82L234.139 251.7L233.119 251.81L231.419 253.93L226.499 253.39L223.379 254.5L221.659 254.01L221.289 253.42L220.649 254.47L220.799 254.96L218.819 254.93L217.779 255.43L216.619 254.66L215.289 255.41L214.359 256.87L214.869 257.14L214.999 257.97L213.769 259.36L214.209 261.65L213.699 263.95L213.429 263.43L212.939 264.15L213.419 264.3L212.169 265.29L210.229 264.91L209.379 265.35L209.109 264.88L208.529 265.37L208.969 265.7L208.019 266.12L207.479 267.06L207.919 267.99L209.029 268.66L209.579 270.41L208.619 270.55L209.319 273.68L207.569 275.73L208.399 277.4L207.929 277.73L208.299 278.18L207.789 279.21L208.189 281.26L207.819 281.46L208.039 283.64L211.099 284.35L211.879 285.46L214.329 286.62L215.229 289.03L217.319 290.25L217.109 291.83L211.219 290.96L205.349 292.58L204.029 296.46L199.349 299.76L197.459 300.56L192.409 301.34L187.129 300.07L184.289 300.2L181.829 301.7L179.489 302.16L178.759 302.07L177.109 300.77L174.789 300.2L170.949 302.05L168.099 302.42L162.719 304.52L157.629 305.47L150.699 303.78L144.969 303.9L141.359 302.72L134.499 301.47L129.769 301.45L126.889 303.07L123.569 301.28L120.829 303.35L117.239 303.52L115.639 304.16L111.499 303.1L110.059 303.76L106.259 303.63L103.709 304.19L101.409 302.72L95.7092 301.43L93.9492 299.39L95.8492 297.59L96.8992 292.88L98.8292 292.83L99.2292 293.5L100.459 293.51L101.129 294.07L101.999 292.17L104.889 290.27L105.329 288.98L104.859 285.94L106.019 283.6L108.369 282.81L110.219 280.03L113.259 278.27L114.649 276.57L112.169 274.11L113.349 272.06L112.699 268.1L113.459 264.13L112.189 261.76L112.449 259.63L112.019 258.62L113.589 257.41L113.089 256.4L113.169 254.95L112.319 253.99L110.919 253.88L109.139 252.72L110.289 251.19L109.569 249.96L106.829 252.05L105.689 251.84L105.229 249.66L106.499 246.52L106.349 244.38L103.399 240.97L99.4292 238.5L101.969 236.65L103.389 236.6L104.249 237.86L105.109 237.89L106.549 236.11L104.659 232.37L106.689 232.63L107.959 232.29L109.139 233.36L109.609 232.29L111.969 231.22L113.059 230.04L113.339 228.24L112.969 226.92L110.079 226L108.869 224.02L109.219 222.93L110.209 223.52L111.449 222.72L111.349 221.63L110.749 221.04L112.409 218.37L111.799 216.97L109.489 216.73L108.749 215.24L110.219 214.05L110.509 209.89L111.679 208.98L111.219 206.88L112.849 205.62L112.399 204.94L113.429 204.4L113.829 203.05L116.439 199.08L118.159 195.1L118.099 194.28L119.229 192.47L120.819 192.44L120.509 191.47L121.779 189.57L121.399 188.51L118.839 186.71L115.749 182.89L114.769 182.13L111.299 181.36L110.889 180.65L110.119 180.68L110.019 179.64L111.869 178.18L112.859 172.98L114.799 170.65L115.429 168.16L117.569 168.91L118.319 169.73L121.299 169.49L121.019 168.4L122.349 168.29L123.689 167.06L123.879 164.08Z" fill="#C7C7C7" stroke="white" stroke-width="2"/>
<path d="M479.49 29.16L482.5 28.67L483.8 28.8799L484.33 29.72L485.91 30.49L486.52 31.86L487.8 31.47L489.83 31.68L490.27 32.7599L493.14 35.08L494.58 35.05L495.77 34.45L497.59 34.74L498.94 32.42L499.48 32.22L502.3 34.12L502.68 33.71L502.23 32.83L503.51 31.3L505.7 31.62L507.2 30.29L508.16 31.16L509.82 31.55L510.36 31.09L511.14 31.27L512.39 29.83L514.3 29.21L515.52 31.98L517.11 33.2L517.14 34.25L519.59 35.23L521.52 33.9399L523.85 35.02L524.35 37.28L525.3 37.24L526.1 38.42L528.29 39.75L528.77 42.67L529.73 44.1299L531.06 44.52L530.92 42.25L531.85 40.6L533.5 39.98L534.9 38.65L536.56 38.54L537.31 39.42L537.32 40.61L538.5 42.15L539.12 42.2L539.91 41.5099L541.11 41.87L542.19 44.1299L543.22 45.22L543.61 44.73L544.76 44.68L546.21 45.89L548.78 45.3199L549.53 45.58L551.94 51.6899L553.65 53.81L557.05 56.64L556.95 59.36L558.17 60.58L557.16 65.46L558.81 66.81L564.82 68.96L568.93 69.68L569.12 70.95L572.77 72.6299L573.86 73.7L574.79 73.39L576.06 72.06L577.53 72.3L578.3 73.04L578.65 74.39L577.74 76.1899L577.76 77.25L580.16 77.4L587.63 80.08L589.27 78.39L592.86 78.64L594.1 80.77L595.15 81.29L595.35 82.7L598.71 85.99L599.32 86.12L601.05 85.2599L602.41 85.3L606.3 88.0699L606.91 88.18L608.32 87.1299L611.49 86.6899L614 88.1299L612.65 89.53L612.42 97.55L611.01 98.74L611.88 101.08L609.24 102.68L607.17 102.2L604.7 103.4L604.21 105.98L603.36 106.61L598.92 113.61L599.61 114.99L598.92 116.19L598.49 120.7L595.94 122.16L594.64 124.1L593.91 123.59L590.41 123.42L588.75 122.53L586.55 123.42L581.42 123.6L581.16 121.21L580.13 119.72L579.08 115.39L577.93 114.58L574.53 114.15L571.44 117.29L570.49 119.46L568.51 120.25L567.7 121.14L568 126.58L567.55 127.4L561.38 127.29L556.95 128.31L553.41 128.29L552.66 126.89L548.99 126.5L547.13 123.37L544.29 121.43L538.89 119.33L537.03 119.56L536.25 120.11L535.64 119.67L535.01 119.93L533.92 117.92L532.19 117.71L531.09 118.49L530.72 120.72L531.41 130.69L532.53 132.37L532.33 134.1L530.26 135.84L528.31 136.46L527.74 138.94L527.73 138.19L526.75 138.09L522.54 140.4L520.11 140.78L518.39 139.41L517.27 137.72L513.05 139.02L510.79 137.67L508.84 137.73L508.94 136.76L508.19 136.04L504.4 135.05L503.1 132.82L503.32 131.03L502.43 129.25L500.86 128.47L499.63 126.9L499.47 125.48L500.5 124.31L499.89 123.62L498.61 123.29L498.54 120.38L496.68 121.81L495.44 122V122.76L494.84 123.05L492.62 122.65L492.05 119.94L491.44 119.04L491.12 122.57L489.04 120.66L487.35 121.09L486.89 121.61L487.61 123.34L487.29 123.73L487.4 126.13L486.43 127.1L486.09 128.29L483.01 128.28L482.07 129.12L481.07 128.49L480.22 128.84L478.76 130.15L478.86 131.98L476.87 132.87L474.42 131.41L473.14 129.83L474.77 124.26L474.23 122.5L472.05 123.44L472.11 121.63L470.77 121.58L470.48 122.52L467.81 120.95L465.82 123.05L464.22 121.56L463.27 119.1L461.61 118.6L460.69 117.79L459.3 119.15L456.28 118.94L453.26 117.71L448.77 117.45L448.33 114.63L446.76 113.71L444.35 109.69L441.29 111.99L440.77 111.76L439.53 109.15L437.78 107.87L435.42 107.24L429.63 109.07L429.34 108.36L427.77 108.38L427.01 107.55L428.86 106.32L429.06 105.47L426.14 106.59L423.89 104.91L422.66 104.81L421.46 104.06L420.92 104.5L421.95 105.81L421.83 107.13L422.99 108.85L422.8 109.14L421.68 109.93L420.93 109.87L420.44 108.52L419.89 108.23L417.71 109.88L416.76 108L415.97 107.7L412.7 108.8L412.23 109.22L412.25 110.74L411.04 111.78L410.73 114.16L411.08 115.07L408.95 113.45L408 113.25L404.37 107.48L401.96 107.66L400.7 108.41L398.23 107.08L397.97 105.99L395.98 104.31L394.82 101.97L394.16 101.55L391.71 103.9L391.23 105.26L394.68 109.66L393.01 109.61L392.15 108.67L390.27 107.94L389.09 106.58L385.94 104.34L382.36 102.86L380.76 104.89L378.82 105.39L377.32 106.33L376.65 107.32L375.4 107.76L371.81 111.49L372.05 112.38L373.16 113.21L373.26 114.15L373.1 114.7L371.69 115.57L371.65 119.68L370.89 120.82L370.92 121.89L371.46 122.5L371.22 124.02L369.73 124.43L367.95 122.99L366.47 122.52L363.68 119.44L362.37 119.04L360.83 119.25L358.63 117.19L357.1 119.78L355.16 121.11L346.23 119.81L345.01 118.28L339.73 117.79L340.16 116.7L343.44 116.06L345.73 114.07L345.31 113.66L343.5 113.51L341.89 108.93L342.41 107.58L340.96 106.62L339.81 103.87L336.16 101.26L336.49 100.38L338.34 101.01L341.61 99.58L341.6 96.5L342.68 93.75L342.5 91.03L343.95 87.1299L344.09 84.9L342.68 84.04L341.34 84.87L338.7 84.41L337.52 84.65L336.53 82.72L336.38 83.87L335.79 84.18L334.13 81.56L332.43 81.68L332.13 80.5099L329.86 81.45L329.22 81.22L330.16 78.91L329.88 78.37L330.26 77.17L327.03 72.2L326.41 70.15L326.79 69.27L329.47 67.27L329.7 64.6899L331.83 63.75L334.19 63.96L338.46 64.5099L340.88 66.6299L340.77 67.59L342.18 69.27L344.1 70.04L347.52 72.8199L349.22 72.86L349.34 68.62L350.11 66.7L350.92 66.0099L350.29 63.6299L351.15 62.54L351.39 60.58L353.48 57.6L353.85 54.0699L355.86 50.81L356.38 50.83L357.26 52.64L358.84 51.1L358.13 49.6L358.4 48.96L359.72 48.87L360.73 46.66L362.64 46.0699L363.75 44.86L364.79 45.93L365.98 45.09L368.75 45.7L369.29 45.0099L370.1 44.91L371.61 45.09L372.89 46.14H373.71L374.43 45.29L374.61 40.61L375.44 38.65L373.75 38.7599L374.5 36.75L375.85 36.41L378.69 37.24L379.9 35.72L380.62 36.56L380.67 38.29L381.86 38.5L383.82 37.75L384.06 36.3799L384.59 35.87L385.71 36.52L386.17 37.59L386.57 35.9399L385.79 35.71L386.01 34.22L387.67 35.12L388.06 34.97L387.64 34.56L390.3 34.48L392.74 36.1299L393.89 36.41L394.41 38.23L395.67 38.29L398.58 39.49L399.62 40.48L401.45 40.89L402.04 39.84L403.1 40.02L404.17 38.95L404.43 37.5699L405.5 36.16L405.9 34.0699L409.25 36.87L410.85 36.31L414.4 33.6299L416.19 33.91L417.63 34.72L419.11 34.4L419.67 35.2L419.41 36.49L420.93 37.21L419.93 38.52L421.22 39.7L421.16 41.84L423.83 41.27L424.09 41.81L423.68 43.28L425.44 43.1299L426.54 43.95L426.15 44.68L425.42 43.7L425.72 44.47L425.22 46.27L426.91 45.71L428.36 47.79L429.41 47.84L431.32 45.7599L432.34 45.66L434.4 48.75L433.37 50.11L434.65 50.14L435.17 49.31L436.56 48.98L437.15 50.02L436.87 50.86L437.42 52.0699L439.33 53.78L442.81 51.9399L445.84 52.02L446.44 51.2L445.59 48.77L447.61 47.74L448.06 45.79L448.73 45.6299L451.3 42.85L451.88 42.72L452.8 43.31L453.92 42.79L454.74 43.72L455.38 43.02L456.74 42.8199L457.94 41.09L454.24 37.8799L454.25 36.85L452.59 36.2599L451.98 34.3799L452.43 33.66L453.72 33.58L457.13 32.25L458.87 33.25L459.57 31.45L460.17 31.3199L463.02 32.71L463.47 33.81L464.31 34.05L465.95 35.62L466.08 36.74L467.36 36.8199L468.27 36.34L469.03 36.7L471 34.35L470.65 32.89L471.69 31.03L472.51 31.4399L475.11 29.29L475.75 27.29L476.55 27.1899L479.49 29.16Z" fill="#C7C7C7" stroke="white" stroke-width="2"/>
<path d="M40.7495 123.02L45.8995 124.18L47.3395 125.28L49.2695 125.33L50.0395 126.56L52.2995 128.28L53.9495 127.82L54.5195 129.23L57.4995 131.48L58.3795 132.77L59.8995 131.91L62.0495 132.69L61.2595 136.08L57.4295 138.07L57.2995 139.06L58.9695 140.4L60.0495 139.88L60.6195 140.25L64.2095 137.44L64.7395 138.77L64.5395 139.43L66.5995 140.59L67.2195 140.15L67.8695 141.09L69.0795 141.17L70.3295 143.59L71.7295 144.06L72.1295 145.5L71.7895 147.21L70.2795 147.74L69.2895 150.66L69.9295 151.81L69.8895 153.48L70.8795 153.64L71.7795 157.11L75.2695 163.44L76.0095 162.62L77.1195 163.1L77.3995 161.96L78.3595 161.57L79.7395 159.91L81.6595 160.77L86.1895 159.87L86.4395 159.69L85.4795 158.03L85.8395 156.59L86.6195 156.56L86.6395 157.22L87.2095 157.66L89.0495 157.8L88.9295 156.92L90.9895 155.63L91.4495 155.79L92.9195 154.4L93.6895 154.56L94.4895 153.47L96.8395 155.31L98.9595 158.54L103.38 160.67L105.18 160.37L105.58 160.93L106.18 160.46L107.43 160.56L107.65 158.27L109.29 158.43L109.74 158.56L109.54 160.09L110.27 161.54L110.73 161.57L110.99 160.64L110.89 161.61L111.21 161.64L111.75 160.59L112.89 162.14L113.44 161.83L116.74 163.05L120.3 163.31L121.91 164.73L123.88 164.08L123.69 167.06L122.35 168.29L121.02 168.4L121.3 169.49L118.32 169.73L117.57 168.91L115.43 168.16L114.8 170.65L112.86 172.98L111.87 178.18L110.02 179.64L110.12 180.68L110.89 180.65L111.3 181.36L114.77 182.13L115.75 182.89L118.84 186.71L121.4 188.51L121.78 189.57L120.51 191.47L120.82 192.44L119.23 192.47L118.1 194.28L118.16 195.1L116.44 199.08L113.83 203.05L113.43 204.4L112.4 204.94L112.85 205.62L111.22 206.88L111.68 208.98L110.51 209.89L110.22 214.05L108.75 215.24L109.49 216.73L111.8 216.97L112.41 218.37L110.75 221.04L111.35 221.63L111.45 222.72L110.21 223.52L109.22 222.93L108.87 224.02L110.08 226L112.97 226.92L113.34 228.24L113.06 230.04L111.97 231.22L109.61 232.29L109.14 233.36L107.96 232.29L106.69 232.63L104.66 232.37L106.55 236.11L105.11 237.89L104.25 237.86L103.39 236.6L101.97 236.65L99.4295 238.5L103.4 240.97L106.35 244.38L106.5 246.52L105.23 249.66L105.69 251.84L106.83 252.05L109.57 249.96L110.29 251.19L109.14 252.72L110.92 253.88L112.32 253.99L113.17 254.95L113.09 256.4L113.59 257.41L112.02 258.62L112.45 259.63L112.19 261.76L113.46 264.13L112.7 268.1L113.35 272.06L112.17 274.11L114.65 276.57L113.26 278.27L110.22 280.03L108.37 282.81L106.02 283.6L104.86 285.94L105.33 288.98L104.89 290.27L102 292.17L101.13 294.07L100.46 293.51L99.2295 293.5L98.8295 292.83L96.8995 292.88L95.8495 297.59L93.9495 299.39L92.6695 297.92L87.5095 294.45L84.7295 291.09L81.0795 292.17L80.0195 291.76L78.1795 288.57L77.6295 286.38L75.6895 284.05L72.9995 283.81L70.0095 281.81L68.4595 281.29L65.3595 274.6L61.8795 270.62L60.1395 269.49L55.3795 263.83L54.2895 263.45L48.5795 263.59L46.7395 262.81L46.1295 260.82L47.2895 259.6L47.1795 258.55L48.1595 258.51L49.6995 256.43L52.3995 255.06L51.7195 253.78L51.5995 252.24L52.1295 252.03L53.1495 253.07L55.2195 252.77L55.7095 249.72L57.1895 249.42L57.1195 248.62L55.9995 248.03L54.9095 249.34H53.9495L52.8295 248.5L52.0295 246.98L52.3695 245.37L51.8695 244.77L52.0595 244.02L52.6795 243.91L53.9195 244.67L55.5495 243.7L56.1995 243.92L59.0795 241.66L60.2095 241.95L61.3195 240.03L60.2295 239.42L59.7695 237.7L61.0595 236.55L63.0095 237.19L62.9195 239.49L64.5795 239.57L66.4895 240.86L69.4295 239.81L70.2095 238.05L71.3495 236.89L73.1195 236.82L73.4595 235.98L74.9795 235.82L75.3495 235.24L75.2495 232.67L74.0495 232.12L73.8795 231.4L75.1495 229.58V228.51L72.1595 227.1L70.7795 226.97L70.1695 226.33L71.1495 222.59L74.6295 218.21L73.2895 216.68L72.1595 217.57L71.6995 217.38L69.9295 215.96L69.3595 214.68L68.2495 214.57L68.8395 212.96L67.7295 211.83L68.9695 211.28L70.5295 207.28L69.9095 204.85L68.0295 203.07L66.3095 203.74L65.7295 203L64.3195 198.05L62.8795 197.41L62.9295 196.08L61.2295 195.84L61.7595 192.77L58.4395 192.74L56.6995 190.85L53.8895 190.72L52.3895 188.97L52.2195 188.26L53.2995 186.84L53.3295 186.15L55.2395 185.49L55.8095 184.23L55.7195 183.21L56.5295 182.69L56.7495 181.97L54.8095 181.05L54.7395 179.64L52.5695 179.3L52.1195 177.32L48.7595 174.93L49.0895 173.92L53.0295 171.21L53.7695 168.56L55.8195 168.4L57.1195 166.34L58.8295 165.31L59.2195 164.45L58.9995 162.7L57.6395 160.01L56.1495 159.38L54.6395 158.04L47.8095 168.14L45.3495 169.69L44.8295 171.5L42.3595 171.94L39.7395 173.35L32.3695 175.01L31.4095 174.75L30.6995 173.34L28.6395 174.5L24.6895 172.12L24.5795 172.76L25.7095 174.08V174.7L24.2295 174.58L23.9295 174.03L20.5395 175.43L17.2495 175.8L17.0395 177.52L14.0595 177.5L14.3195 177.04L13.7795 176.67L13.7095 175.96L14.6395 175.43L13.7695 174.41L13.8295 173.08L12.8795 171.63L12.8695 171.28L13.5895 171.21L13.0195 170.72L13.2495 169.43L12.7695 166.6L13.4795 165.92L13.5295 163.86L15.0095 162.96L15.9895 160.32L16.6995 159.95L15.9095 159.41L17.0395 159.2L16.4295 158.53L16.4895 155.82L20.7595 151.55L19.5395 150.11L19.7195 149.13L21.1595 147.69L21.2995 146.1L24.0595 142.29L24.4695 140.32L29.2995 137.01L29.5195 135.32L31.0495 133.69L31.0895 130.96L31.5095 130.02L36.1695 127.61L39.9895 123.15L40.5195 122.73L40.7495 123.02Z" fill="#C7C7C7" stroke="white" stroke-width="2"/>
<path d="M161.281 50.8701L162.061 51.27L164.501 50.65L166.631 50.76L166.561 52.9301L167.391 54.17L168.321 54.6801L170.401 58.59L172.031 60.2401L171.931 61.97L173.491 63.6201L173.751 64.8101L173.411 65.7501L174.101 66.73L174.211 67.92L176.031 69.2401L176.341 71.52L177.681 72.09L181.081 75.32L183.111 76.45L184.361 76.65L184.461 78.29L187.711 79.4L187.981 82.1801L189.421 83.55L188.571 85.39L186.821 86.52L185.881 87.95L189.231 89.09L190.801 91.58L190.441 92.47L190.771 93.38L190.021 94.58L190.521 95.83L190.361 98.45L189.151 99.14L188.821 100.46L186.891 102.78L186.211 103.27L182.981 103.75L180.741 105.2L180.691 106.28L179.561 108.08L178.341 108.21L176.441 109.32L175.811 109.2V110.34L177.221 111.88L182.441 112.36L183.921 111L186.101 110.48L186.411 109.12L187.581 107.32L188.961 106.87L188.761 107.94L189.591 109.02L191.351 108.96L193.491 108.12L198.051 109.54L200.481 108.98L202.541 111.02L202.851 111.99L202.021 113.79L201.421 113.6L201.411 114.65L200.331 116.45L202.031 118.86L200.631 121.69L201.151 122.34L200.841 126.98L203.181 128.2L204.351 129.6L205.371 129.47L206.471 130.25L206.641 131.51L207.271 131.4L208.131 132.42L209.461 132.63L209.361 135.97L212.681 139.46L213.261 141.25L214.251 141.54L214.461 143.95L214.471 144.77L213.831 145.26L212.631 148.32L211.161 150.63L209.731 151.6L208.011 151.03L206.801 152.02L205.711 156.79L202.851 159.11L203.341 161.25L203.161 162.57L201.041 161.59L199.961 161.85L198.461 161.49L196.441 160.45L194.781 162.15L192.811 166.05L191.421 166.98L190.631 168.33L190.761 170.04L190.291 171.2L189.081 171.33L188.001 172.28L184.201 172.32L181.151 171.5L179.461 171.57L178.961 175.22L177.011 175.32L174.111 178.03L171.251 179.37L168.011 182.66L166.051 183.78L165.601 185.34L164.231 184.07L163.911 182.77L163.641 184.01L162.761 184.54L159.591 183.58L158.931 182.66L158.401 180.04L156.851 178.37L154.851 174.98L153.681 174.05L150.541 174.09L150.181 173.58L150.211 172.53L151.051 171.57L149.411 170.22L151.831 167.88L152.141 166L150.991 164.29L149.551 160.25L148.281 159.57L147.191 159.85L145.591 158.99L144.171 159.77L142.511 158.16L141.141 153.84L137.591 150.6L136.131 151.11L134.201 150L129.231 150.11L128.031 148.66L126.701 148.79L125.271 150.26L125.781 153.74L126.551 154.45L127.401 157.45L128.131 158.03L128.181 160.57L127.851 161.73L126.701 162.76L125.891 162.6L125.361 163.55L123.881 164.08L121.911 164.73L120.301 163.31L116.741 163.05L113.441 161.83L112.891 162.14L111.751 160.59L111.211 161.64L110.891 161.61L110.991 160.64L110.731 161.57L110.271 161.54L109.541 160.09L109.741 158.56L109.291 158.43L107.651 158.27L107.431 160.56L106.181 160.46L105.581 160.93L105.181 160.37L103.381 160.67L98.9608 158.54L96.8408 155.31L94.4908 153.47L93.6908 154.56L92.9208 154.4L91.4508 155.79L90.9908 155.63L88.9308 156.92L89.0508 157.8L87.2108 157.66L86.6408 157.22L86.6208 156.56L85.8408 156.59L85.4808 158.03L86.4408 159.69L86.1908 159.87L81.6608 160.77L79.7408 159.91L78.3608 161.57L77.4008 161.96L77.1208 163.1L76.0108 162.62L75.2708 163.44L71.7808 157.11L70.8808 153.64L69.8908 153.48L69.9308 151.81L69.2908 150.66L70.2808 147.74L71.7908 147.21L72.1308 145.5L71.7308 144.06L70.3308 143.59L69.0808 141.17L67.8708 141.09L67.2208 140.15L66.6008 140.59L64.5408 139.43L64.7408 138.77L64.2108 137.44L60.6208 140.25L60.0508 139.88L58.9708 140.4L57.3008 139.06L57.4308 138.07L61.2608 136.08L62.0508 132.69L64.1908 130.57L65.3508 130.74L66.0308 128.75L66.9808 129.02L68.0208 127.63L70.7508 128.54L74.6708 132.48L75.6608 132.85L77.1208 132.04L78.1808 132.34L79.7208 131.11L82.7508 130.91L83.6008 128.68L85.6808 128.36L86.1608 127.08L87.1808 126.19L90.7608 126.17L92.8208 125.06L94.7708 125.27L96.3508 123.18L98.3108 121.71L100.481 118.11L102.871 116.46L103.211 114.89L110.191 114.42L112.261 115.17L113.921 114.32L115.551 109.37L115.851 105.73L116.901 103.61L117.021 100.98L118.331 99.58L119.391 98.84L123.711 99.01L125.111 98.2501L129.021 98.89L133.901 96.5001L136.971 92.91L136.881 91.5001L138.851 87.27L138.351 83.79L138.761 83.17L139.431 83.11L138.251 80.6201L138.981 79.27V77.84L140.921 76.19L140.391 74.84V71.9301L142.001 69.92L142.371 67.73L142.971 67.15L143.041 65.22L142.001 64.71L142.111 62.2501L146.241 58.2501L146.211 55.72L150.291 54.5001L154.791 54.11L158.431 52.72L158.671 52.15L161.281 50.8701Z" fill="#C7C7C7" stroke="white" stroke-width="2"/>
<path d="M282.981 2L284.011 3.45999L283.431 4.87L284.271 6.06L286.511 7.29001L287.891 7.38L288.621 8.5L289.851 8.88L289.791 14.49L292.161 19.26L292.391 22.3L293.671 23.85L293.991 25.29L295.431 26.96L295.681 28.05L297.181 27.7L298.801 29.26L301.831 27.65L301.501 30.13L302.701 31.27L300.691 35.69L303.841 35.74L305.951 36.69L306.681 36.59L310.041 39.26L311.341 38.39L312.611 36.18L313.461 35.54L315.331 34.86L317.821 35.48L318.011 40.38L319.171 42.43L319.021 44.4L318.341 46.07L318.771 47.87L319.741 49.13L318.321 53.29L318.561 53.88L319.951 54.24L321.231 57.09L317.931 58.86L317.621 61.38L315.241 63.88L315.501 65.44L314.661 67.32L315.461 68.52L316.491 68.77L317.341 69.73L318.441 69.7L319.471 68.67L320.771 69.84L321.771 69.32L322.891 70.14L326.411 70.15L327.031 72.2L330.261 77.17L329.881 78.37L330.161 78.91L329.221 81.22L329.861 81.45L332.131 80.51L332.431 81.68L334.131 81.56L335.791 84.18L336.381 83.87L336.531 82.72L337.521 84.65L338.701 84.41L341.341 84.87L342.681 84.04L344.091 84.9L343.951 87.13L342.501 91.03L342.681 93.75L341.601 96.5L341.611 99.58L338.341 101.01L336.491 100.38L336.161 101.26L339.811 103.87L340.961 106.62L342.411 107.58L341.891 108.93L343.501 113.51L345.311 113.66L345.731 114.07L343.441 116.06L340.161 116.7L339.731 117.79L337.821 115.81L335.281 117.24L327.171 116.87L322.401 117.53L321.271 117.09L320.661 116.24L318.301 116.15L316.001 117.6L314.781 117.64L312.961 118.75L311.441 116.95L306.661 118.7H303.621L300.501 116.17L299.021 115.62L296.271 113.63L295.481 112.59L293.241 111.75L291.681 111.7L290.271 110.87L288.761 111.91L285.671 111.5L282.031 113.45L280.381 113.87H273.641L268.571 119.72L266.491 124.23L259.571 125.33L259.361 124.72L260.971 123.36L260.901 121.13L260.271 119.56L258.231 118.62L254.561 119.65L252.591 121.56L251.181 121.04L249.851 121.77L248.751 121.34L243.831 122.11L241.721 121.71L241.031 122.03L239.711 121.95L238.841 121.06L238.241 121.03L236.391 121.85L235.601 124.72L234.251 126.43L233.121 126.55L232.441 126.14L231.981 126.63L232.821 130.33L231.921 131.95L232.051 133.39L232.561 134.34L235.011 136.46L234.541 140.09L232.911 141.4L232.041 143.03L229.201 143.4L226.791 142.75L225.341 143.85L224.341 143.79L223.221 142.72L221.381 142.45L221.451 141.2L220.741 141.14L220.631 139.64L219.831 139.45L217.871 140.48L216.541 142.3L214.901 143.05L214.461 143.95L214.251 141.54L213.261 141.25L212.681 139.46L209.361 135.97L209.461 132.63L208.131 132.42L207.271 131.4L206.641 131.51L206.471 130.25L205.371 129.47L204.351 129.6L203.181 128.2L200.841 126.98L201.151 122.34L200.631 121.69L202.031 118.86L200.331 116.45L201.411 114.65L201.421 113.6L202.021 113.79L202.851 111.99L202.541 111.02L200.481 108.98L198.051 109.54L193.491 108.12L191.351 108.96L189.591 109.02L188.761 107.94L188.961 106.87L187.581 107.32L186.411 109.12L186.101 110.48L183.921 111L182.441 112.36L177.221 111.88L175.811 110.34V109.2L176.441 109.32L178.341 108.21L179.561 108.08L180.691 106.28L180.741 105.2L182.981 103.75L186.211 103.27L186.891 102.78L188.821 100.46L189.151 99.14L190.361 98.45L190.521 95.83L190.021 94.58L190.771 93.38L190.441 92.47L190.801 91.58L189.231 89.09L185.881 87.95L186.821 86.52L188.571 85.39L189.421 83.55L187.981 82.18L187.711 79.4L184.461 78.29L184.361 76.65L183.111 76.45L181.081 75.32L177.681 72.09L176.341 71.52L176.031 69.24L174.211 67.92L174.101 66.73L173.411 65.75L173.751 64.81L173.491 63.62L171.931 61.97L172.031 60.24L170.401 58.59L168.321 54.68L167.391 54.17L166.561 52.93L166.631 50.76L164.501 50.65L162.061 51.27L161.281 50.87L165.511 49.58L166.861 48.36L168.101 45.99L169.561 45.19L169.051 44.31L170.601 42.71L170.831 41.89L169.681 37.54L170.381 36.97L172.001 38.16L173.211 38.4L174.251 38.11L174.971 36.83L177.241 35.62L177.351 34.04L178.011 32.7L178.921 32.14L178.931 31.21L180.101 31.04L180.431 29.95L182.041 29.08L182.311 27.85L183.131 27.64L184.751 26.08L183.531 23.07L183.591 22.1L184.651 21.48L184.801 20.54L187.061 19.38L190.121 19.05L190.701 19.39L190.731 21.03L192.471 21.33L193.771 20.89L194.451 21.2L195.371 20.28L199.021 19.41L200.121 20.61L202.371 20.38L205.681 22.38H207.161L210.141 19.51L211.881 19.13L212.761 18.15L215.521 17.36L217.741 17.82L219.071 17.43L219.731 18.05L222.331 18.33L226.921 17.56L227.671 18.51L229.331 19.35L229.381 20.2L230.151 20.02L230.321 20.38L229.231 23.38L229.921 24.39L229.451 24.95L229.031 28.08L230.431 28.54L231.141 30.85L232.001 31.89L231.601 33.48L229.941 35L230.341 36.92L231.081 37.82L233.071 37.26L234.341 37.85L237.001 37.75L238.241 36.65L238.061 36.16L238.851 34.71L240.791 34.97L241.171 34.22L242.951 34.43L244.981 36.39L246.251 36.56L247.251 36.21L248.031 35.22L249.361 36.26L252.001 34.79L253.611 35.31L254.401 34.5L253.841 33.77L253.931 32.4L253.341 31.84V31.07L255.311 28.62L256.711 28.98L257.411 27.95L257.711 26.52L256.791 24.88L258.121 22.8L257.651 21.98L258.441 21.3L258.401 18.72L261.101 16.26L261.381 15.41L262.581 15.44L263.601 14.88L265.081 15.23L266.381 14.66L267.181 14.97L267.351 15.77L271.841 14.74L272.431 13.67L272.241 11.95L273.161 11.06L272.981 9.54999L276.101 8.39001L276.871 7.29999L276.991 5.76001L277.611 5.23001L280.601 4.45001L280.481 3.04999L280.951 2.16L281.871 2.42001L282.981 2Z" fill="#C7C7C7" stroke="white" stroke-width="2"/>
</svg>
