<svg width="617" height="401" viewBox="0 0 617 401" fill="none" xmlns="http://www.w3.org/2000/svg">
<path d="M43.8802 292.68L46.0702 292.11L54.1402 292.19L56.7702 293.25H61.5002L63.0602 288.11L65.2402 288.09L67.7302 285.94L68.4502 282.49L67.9802 280.53L73.6402 282.16L77.1402 284.77L78.1102 286.48L79.6502 286.95L81.4302 288.41L85.5602 288.17L85.6502 286.27L86.4902 286.4L87.2802 285.4L88.6502 285.78L89.1502 286.67L91.0102 287.16L91.1402 288.55L92.3402 289.85L93.1902 289.8L94.2002 290.62L97.0702 290.78L101.1 289.56L100.85 290.83L101.9 290.94V292.84L102.81 292.79L102.79 293.66L103.63 293.71L103.85 294.8L109.29 299.26L112.03 300.64L113.24 300.37L113.56 301.21L114.63 301.13L115.43 302.24L118.35 303.22L121.22 305.34L120.62 307.35L121.79 306.29L122.63 306.4L123.6 304.74L126.28 305.2L127.42 306.62L129.49 307.76L130.88 310.12L135.1 310.61L137.74 312.45L137.98 313L137.11 313.57L137.39 314.52L137.93 314.22L137.85 315.09L139.5 314.76L139.41 315.82L138.12 316.22L139.75 316.88L140.15 320.1L139.48 321.16L136.65 320.78L136.24 321.84L135.23 321.87L135.42 323.66L134.16 325.45L134.49 326.1L133.96 327.43L134.58 328.32L136.22 328.43L136.35 329L136.16 332.01L136.92 333.07L135.65 336.8L137.53 338.13L137.87 340.92L136.81 342.77L139.92 344.74L139.18 346.88L142.34 348.32L141 358.25L140.78 358.87L139.64 359.22L139.83 360.5L139.1 361.63L138.82 364.99L139.66 365.64L140.83 365.04L142.41 365.72L142.03 367.45L140.15 369.93L139.39 374.02L136.92 376.31L142.37 377.56L142.75 378.75L144.16 379.34L144.63 377.91L145.87 377.53L145.39 379.5L146.29 381.29L145.81 381.37L146.38 383.29L145.41 383.58L145.45 384.42L142.56 383.07L137.55 383.23L134.3 382.48L129.49 378.56L127.99 378.45L122.48 373.18L120.08 373.07L119.48 374.34L119.7 376.18L114.88 374.37L112.63 377.04L113.81 379.18L116.11 380.18L118.54 382.91L117.65 383.18L118.43 384.47L117.27 386.82L117.76 390.23L114.84 392.63L111.85 391.33L110.87 390.23L103.02 391.58L102.45 392.87L100.62 394.36L100.57 395.38L98.8602 396.65L98.4402 398.68L96.9202 398.92L94.4102 398.41L92.3202 398.92L91.7302 397.22L89.9602 396.57L84.8102 396.65L84.4902 394.84L82.6302 394.17L83.4802 391.28L82.4802 389.9L79.7402 388.42L77.5402 388.74L75.6502 388.2L73.9402 386.42L70.8302 386.82L68.6002 389.82L65.1102 390.42L63.5902 391.2L61.4602 393.41L59.6502 394.03L54.3902 389.9L46.5402 387.9L44.2602 386.15L42.5502 384.45L43.5802 383.69L43.9602 382.1L42.5302 379.12L42.8902 378.67L43.3502 378.96L43.0802 378.29L43.4802 377.83L45.2302 377.88L44.3202 377.75L44.8902 377.1L44.3402 376.8L44.0302 375.1L42.6702 375.26L41.2402 374.5L40.2902 374.86L39.7602 374.45L39.1902 373.21L39.3402 371.45L38.4102 370.18L41.5302 371.39L45.5902 371.69L46.9802 370.72L46.4102 369.77L46.0702 370.69L45.7802 370.48L45.9002 368.47L48.2502 367.85L51.5602 369.53L54.0902 369.91L56.3902 369.2L56.0102 368.1L56.3302 367.12L58.9902 367.91L59.8402 366.28L61.8002 365.42L65.1102 365.39L68.2202 366.69L68.9502 365.23L71.6602 364.28L70.5002 363.99L70.6902 363.15L73.2402 362.93L70.8102 362.61L71.4002 361.39L73.1102 361.12L73.1802 360.23L69.7302 357.14L65.3202 354.54L65.6002 353.51L68.2602 353.35L68.9102 352.68L73.0902 351.94L82.2302 356.76L90.2302 356.25L92.8002 354.71L95.5302 351.78L96.3502 348.89L102.39 345.5L105.55 342.47L103.59 340.6L99.2002 338.62L95.1502 335.07L89.3602 327.24L89.0102 321.43L84.3402 317.31L82.5302 312.43L81.8102 311.77L77.9502 310.85L75.6702 308.92L72.4602 309.28L70.4302 307.95L70.9802 307.16L65.5802 304.09L59.6902 298.47L58.7002 298.98L57.7002 296.78L52.3602 297.6L52.6002 296.38L48.8802 298.2L48.4602 296.97L43.9402 294.91L43.8802 292.68Z" fill="#C7C7C7" stroke="white" stroke-width="2"/>
<path d="M146.482 277.81L147.202 277.02L149.122 277.1L150.342 275.9L151.612 277.24L156.992 276.09L160.962 278.49L162.212 278.35L163.942 280.09L163.832 280.75L167.342 280.53L167.722 280.77L167.082 281.67L169.032 282.4L169.402 283.09L171.142 281.32L170.862 282.4L173.292 282.32L174.602 283.79L179.032 274.41L178.862 273.1L180.592 271.5L182.242 271.14L187.872 273.13L189.252 275.33L189.692 277.59L190.912 277.46L191.652 278.57L193.362 276.88L195.882 279.11L196.002 280.58L196.822 281.48H197.602L198.562 279.14L200.072 278.35L201.532 278.68L205.062 283.63L206.722 282.62L207.132 280.69L208.542 278.57L210.882 279.25L212.442 278.68L215.512 276.07L216.812 278.52L216.582 280.45L215.512 281.1L215.692 282.51L217.742 285.1L217.302 285.99L220.822 289.56L222.242 292.98L225.512 293.47L226.102 296.73L228.152 298.12L228.762 299.56L225.532 299.75L225.092 300.18L226.652 302.43L228.662 302.33L229.542 302.81L228.342 308.73L229.732 309.58L230.872 313.7L227.112 314.46L225.212 310.04L223.442 310.74L223.992 313.73L227.852 322.17L228.722 331.38L230.092 331.55L228.722 337.56L224.032 345.69L221.412 348.37L218.632 349.45L216.292 349.59L216.882 354.43L215.442 358.11L214.792 365.47L213.412 367.93L212.632 368.02L207.002 372.72L204.572 374.04L202.712 376.26L199.842 375.53V376.37L197.042 377.02L195.692 379.67L190.322 381.93L187.962 381.5L186.442 381.96L182.892 385.28L181.652 383.91L180.952 381.83H178.382L176.862 381.04L175.132 379.12L172.892 379.37L172.552 380.12L170.782 380.96L167.322 375.67L164.262 376.26L162.952 377.13L159.722 381.99L159.592 385.31L156.112 384.26L155.102 383.45L151.742 382.99L149.022 383.37L147.352 384.47L145.452 384.42L145.412 383.58L146.382 383.29L145.812 381.37L146.292 381.29L145.392 379.5L145.872 377.53L144.632 377.91L144.162 379.34L142.752 378.75L142.372 377.56L136.922 376.31L139.392 374.02L140.152 369.93L142.032 367.45L142.412 365.72L140.832 365.04L139.662 365.64L138.822 364.99L139.102 361.63L139.832 360.5L139.642 359.22L140.782 358.87L141.002 358.25L142.342 348.32L139.182 346.88L139.922 344.74L136.812 342.77L137.872 340.92L137.532 338.13L135.652 336.8L136.922 333.07L136.162 332.01L136.352 329L136.222 328.43L134.582 328.32L133.962 327.43L134.492 326.1L134.162 325.45L135.422 323.66L135.232 321.87L136.242 321.84L136.652 320.78L139.482 321.16L140.152 320.1L139.752 316.88L138.122 316.22L139.412 315.82L139.502 314.76L137.852 315.09L137.932 314.22L137.392 314.52L137.112 313.57L137.982 313L137.742 312.45L135.102 310.61L130.882 310.12L129.492 307.76L130.422 304.74L131.812 304.82L132.342 297.14L133.752 296.35L134.352 297.44L134.792 294.12L134.732 293.17L131.182 286.89L141.192 283.74L140.932 282.87L142.702 280.39L143.952 279.36L145.132 279.28L146.482 277.81Z" fill="#C7C7C7" stroke="white" stroke-width="2"/>
<path d="M55.13 122.16L55.51 122.99L57.28 122.71L60.7 123.51L60.22 125.54L60.98 126.4L65.05 125.41L71.63 122.55L74.42 126.01L79.47 127.49L81.55 128.9V129.53L84.13 130.98L85.5 130.93L85.4 133.54L86.2 135.38L85.9 136.89L87.78 138.98L89.75 138.81L90.08 139.83L89.39 141.75L87.55 144.16L86.14 144.77L84.7 144.66L83.73 145.62L81.3 145.37L79.21 147.4L72.88 149.46L72.18 150.8L72.94 155.96L68.93 159.39L70.41 160.7L70.09 162.05L71.44 164.79H72.18L73.39 165.89L75.08 168.93L77.35 169.48L82.32 174.82L90.08 179.45L94.3 182.92L98.86 182.87L104.35 182.02L112.29 179.31L121.3 177.45L121.19 178.32L123.1 179.58L123.35 182.51L122.71 184.62L121.17 185.25L119.72 188.34L119.23 192.09L120.08 194.75L122.34 195.57L124.99 194.34L127.15 195.21L129.22 194.2L130.99 195.18L136.03 196.28L135.97 198.63L135.25 200.3L132.68 203.41L132.99 205.27L131.48 206.45L130.44 208.36L130.08 210.68L127.8 212.27L126.15 215.08L125.54 218.39L126.58 220.71L127.87 222.13L132.38 224.86L134.83 227.34L136.63 228.16L137.55 231L136.96 231.52L138.4 231.85L138.08 232.99L136.67 234.55L137.83 234.44L138.25 233.35L139.03 233.48L140.04 232.56L141.16 232.39L141.5 232.86L141.06 233.67L141.94 234.49L141.75 236.35L142.75 237.3L142.16 238.86L143.78 239.21L144.18 240.17L145.17 240.11L145.38 240.85L147.24 241.31L148.49 241.01L149.54 241.61L148.74 242.81L149.2 244.34L148.04 244.37L146.84 247.61L146.04 248.07L143.4 247.69L143.46 249.22L142.45 249.68L142.83 251.59L144.67 250.91L144.2 252.49L144.81 253.63V255.57L143.48 256.41L143.15 259.63L140.63 261.23L141.31 263.3V267.03L143.89 269.02L144.77 270.43L145.51 275.47L146.48 277.81L145.13 279.28L143.95 279.36L142.7 280.39L140.93 282.87L141.19 283.74L131.18 286.89L134.73 293.17L134.79 294.12L134.35 297.44L133.75 296.35L132.34 297.14L131.81 304.82L130.42 304.74L129.49 307.76L127.42 306.62L126.28 305.2L123.6 304.74L122.63 306.4L121.79 306.29L120.62 307.35L121.22 305.34L118.35 303.22L115.43 302.24L114.63 301.13L113.56 301.21L113.24 300.37L112.03 300.64L109.29 299.26L103.85 294.8L103.63 293.71L102.79 293.66L102.81 292.79L101.9 292.84V290.94L100.85 290.83L101.1 289.56L97.07 290.78L94.2 290.62L93.19 289.8L92.34 289.85L91.14 288.55L91.01 287.16L89.15 286.67L88.65 285.78L87.28 285.4L86.49 286.4L85.65 286.27L85.56 288.17L81.43 288.41L79.65 286.95L78.11 286.48L77.14 284.77L73.64 282.16L67.98 280.53L68.45 282.49L67.73 285.94L65.24 288.09L63.06 288.11L61.5 293.25H56.77L54.14 292.19L46.07 292.11L43.88 292.68L42.04 286.62L40.04 285.59L40.08 282.84L41.07 281.67L41.68 279.09L43.27 277.07L42.44 274.79L43.71 272.5L46.37 270.41L48.61 265.83L49.01 263.82L51.71 260.36L50.93 256.09L52.85 247.64L51.37 246.41L47.78 248.32L47.26 247.53L43.18 246.22L40.46 248.32L40.14 249.57L38.26 251.75L35.69 251.48L34.44 252.68L32.18 252.6L27.9 248.75L26.17 248.67L23.47 245.21L23.23 243.88L22.01 242.46L20.97 242.21L20.89 241.61L22.81 239.4L24.97 239.16L26.7 236.05L27.37 232.23L26.88 231.03L25.45 230.37L25.6 227.62L26.7 226.5L31.55 224.86L34.13 221.01L39.59 218.74L41.01 216.83L44.05 214.7L45.4 212.32L46.83 211.78L49.28 209.65L51.03 207L53.21 205.36L55.13 201.45L54.98 199.18L56.37 197.73L57.13 195.07L55.68 192.67L51.71 191.02L50.53 191.13L47.44 193.13L46.87 192.69L47.32 191.68L43.37 191.76L42.95 191.08L39.53 192.86L38.56 191.93L38.67 190.09L37.16 187.39L33.07 185.09L31.7 184.95L31.21 183.47L29.44 183.8L28.87 184.4L25.98 184.37L24.84 182.76L22.9 181.91L21.02 181.66L19.35 182.29L15.87 181.47L15.42 181.77L16.23 183.36L15.83 184.95L11.35 186.67L9.05 185.61L8.44 184.37L9.53 183.17L9.64 182.13L8.92 181.03L10.42 180.41L11.2 179.25L9.51 177.8L6.22 173.42L4.19 163.94L2.63 163.83L2 161.83L7.26 161.09L9.72 158.87L9.81 156.98L11.22 155.41L14.49 154.62L16.14 151.52L13.93 146.03L14.41 144.74L17.07 143.97L20.22 144.49L23.11 142.02L25.24 141.83L27.75 140.13L28.76 140.43L28.95 138.81L30.85 137.33L32.44 137.47L34.02 136.04L35.56 135.9L37.14 134.39L38.31 134.25L40.35 130.96L40.78 126.94L41.47 125.52L42.44 125.3L44.17 123.26L49.15 122L50.97 122.16L54.22 120.95L55.13 122.16Z" fill="#C7C7C7" stroke="white" stroke-width="2"/>
<path d="M71.5488 101.28L74.5887 101.01L76.2387 101.78L77.5887 101.5L81.9587 104.37L85.2687 104.17L88.4587 101.86L89.1287 100.54L90.2887 101.5L93.0987 101.95L98.0788 100.43L98.6287 99.69L101.669 100.68L104.229 100.1L106.019 100.62L107.099 102.03L110.159 102.74L111.929 103.82L115.329 106.98L116.469 106.54L118.769 107.89L119.169 109.43L120.689 109.62L122.569 111.14L124.989 111.16L127.719 108.41L130.779 108.05L134.489 109.57L138.929 110.28L140.209 111.82L143.299 112.35L144.629 113.69L146.949 117.9V119.83L149.959 121.67L150.349 123.54L150.999 124.06L153.199 124.25L157.459 121.78L161.359 122.6L162.569 121.64L164.379 123.84L166.259 124.55L168.249 124.06L170.059 122.77L171.559 122.96L175.249 121.56L176.749 122.19L176.599 122.68L180.339 125.19L183.989 124.75L185.789 123.92L186.479 122.99L190.729 122.9L191.459 122.36L193.589 122.88L196.739 121.06L199.129 120.6L202.729 120.76L203.979 122.49L203.029 122.77L202.879 124.03L204.679 125.38L205.079 127.11L205.749 127.47H209.549L211.679 128.13L212.019 129.53L213.059 129.23L214.699 129.91L217.739 126.42L220.189 126.78L223.719 130.57V132L225.979 135.02L227.159 140.21L227.979 140.95L230.549 140.1L230.529 140.38L229.669 141.5L227.279 141.75L225.809 142.57V143.15L227.709 144.52L228.079 145.84L227.309 147.9L225.699 149.65L225.779 150.31L226.399 151.24L228.319 152.04L228.779 152.97L228.569 153.74L226.629 155.14L225.279 157.03L228.109 161.91L227.239 163.72L230.089 164.87L229.559 166.3L231.379 168.27L228.089 168.41L226.989 170L227.069 170.79L229.799 171.67L229.269 172.9L230.769 175.26L226.119 178.95L226.269 180.71L225.259 181.55L224.829 182.79L222.219 185.22L221.119 184.79L220.569 185.42L219.679 185.36L218.359 186.59L218.059 188.18L216.879 189.16L215.989 188.62L212.469 188.59L211.029 187.69L209.399 187.91L208.939 188.48L210.669 189.66L208.639 190.94L203.959 191.65L203.619 191.16L202.269 190.7L200.309 191.27L198.769 190.94L198.939 192.94L199.929 194.91L201.909 196.82L197.199 199.5H194.459L194.709 201.61L193.949 202.73L193.149 202.4L193.069 201.04L190.909 200.84L190.889 202.13L190.199 202.54L189.289 201.83L187.789 204.54L186.159 204.84L184.559 205.96L184.049 209.35L185.829 211.09L185.569 212.21L186.019 213.23L185.029 215.38L182.579 215.58L181.119 214.24L179.119 214.78L171.429 213.58L170.289 214.32L169.219 216.53L165.269 216.5L164.449 218.03L163.029 218.8L161.769 221.5L162.169 226.33L161.869 227.21L160.409 228.35L159.949 230.95L157.479 232.45L157.499 233.65L155.389 234.93L155.239 236.81L153.949 237.19L152.199 236.7L152.079 237.9L150.769 237.88L150.389 238.42L150.529 240.11H149.459L148.489 241.01L147.239 241.31L145.379 240.85L145.169 240.11L144.179 240.17L143.779 239.21L142.159 238.86L142.749 237.3L141.749 236.35L141.939 234.49L141.059 233.67L141.499 232.86L141.159 232.39L140.039 232.56L139.029 233.48L138.249 233.35L137.829 234.44L136.669 234.55L138.079 232.99L138.399 231.85L136.959 231.52L137.549 231L136.629 228.16L134.829 227.34L132.379 224.86L127.869 222.13L126.579 220.71L125.539 218.39L126.149 215.08L127.799 212.27L130.079 210.68L130.439 208.36L131.479 206.45L132.989 205.27L132.679 203.41L135.249 200.3L135.969 198.63L136.029 196.28L130.989 195.18L129.219 194.2L127.149 195.21L124.989 194.34L122.339 195.57L120.079 194.75L119.229 192.09L119.719 188.34L121.169 185.25L122.709 184.62L123.349 182.51L123.099 179.58L121.189 178.32L121.299 177.45L112.289 179.31L104.349 182.02L98.8587 182.87L94.2988 182.92L90.0788 179.45L82.3187 174.82L77.3487 169.48L75.0788 168.93L73.3887 165.89L72.1787 164.79H71.4388L70.0887 162.05L70.4088 160.7L68.9287 159.39L72.9388 155.96L72.1787 150.8L72.8787 149.46L79.2087 147.4L81.2988 145.37L83.7288 145.62L84.6987 144.66L86.1387 144.77L87.5488 144.16L89.3887 141.75L90.0788 139.83L89.7487 138.81L87.7787 138.98L85.8988 136.89L86.1987 135.38L85.3988 133.54L85.4987 130.93L84.1287 130.98L81.5488 129.53V128.9L79.4688 127.49L74.4187 126.01L71.6287 122.55L65.0487 125.41L60.9787 126.4L60.2188 125.54L60.6987 123.51L62.6387 121.89L62.8288 119.85L63.7987 117.65L62.8088 115.32L65.6787 111.85L65.5087 111.05L64.5987 110.45L65.1787 108.41L64.5187 106.29L66.7387 103.73L66.6888 100.51L68.0488 99.66L71.5488 101.28Z" fill="#C7C7C7" stroke="white" stroke-width="2"/>
<path d="M230.533 140.38L235.133 143.48L236.153 142.35L240.163 142.63L244.403 141.06L244.593 148.39L244.173 149.71L247.553 153.52L249.893 153.63L250.653 154.59L251.073 158.07L250.563 161.34L252.193 161.94L256.013 160.92L256.143 162.6L254.493 165.75L256.103 168.08L256.123 170L254.603 172.71L255.993 174.98H260.553L265.743 176.71L266.993 175.94L269.543 176.74L273.993 175.31L283.663 176.05L286.073 178.16L289.073 179.31L289.493 180.38L291.163 180.62L292.063 181.75L293.373 181.23L294.553 184.54L296.903 184.92L295.933 186.15L294.793 185.8L294.053 187.47L292.383 187.69L292.633 192.78L291.643 193.87L290.393 194.17L290.273 195.92L286.793 195.05L284.593 196.61L282.993 196.96L276.133 197.23L276.823 198.33L278.703 198.71L278.573 200.11L279.553 200.6L280.293 202.51L281.703 203.22L280.463 205.93L280.623 208.06H281.933L283.333 207.32L283.923 207.65L288.773 206.94L290.083 207.51L291.013 208.77L290.373 211.59L291.133 212.62L291.203 214.15L293.843 216.94L295.903 217.19L299.813 217.35L302.223 216.75L304.083 213.66L305.973 212.11L310.053 210.3L312.263 213.88L311.593 215.11L308.913 215.41L310.223 217.54L310.263 219.75L311.573 220.52L311.313 221.09L308.973 221.47L309.653 222.92L311.333 224.37L315.073 225.79L324.783 224.01L325.753 226.22L328.103 226.88L328.393 229.15L331.243 233.07L331.543 234.66L332.213 235.31L329.093 235.28L329.573 234.47L327.933 233.92L326.173 235.34L325.413 237.52L322.333 236.32L321.533 235.23L316.213 235.01L315.603 236.35L316.573 236.81L317.713 240.17L317.123 241.64L315.873 241.72L315.493 242.51L314.183 243.14L314.633 244.86L313.783 245.54L311.953 245.24L311.743 246L310.813 245.97L308.483 244.26L305.493 244.53L304.123 242.95L301.653 242.57L299.893 243.71L299.683 246.85L296.773 247.77L294.363 247.91L292.763 246.46L292.173 244.83L290.883 243.71L290.923 241.18H289.263L288.223 238.2L286.813 237.52L286.093 238.56L285.063 238.61L285.183 240.74L283.873 242.16L280.333 241.69L279.273 242.43L278.053 241.91L277.293 242.32L276.513 241.09L275.373 242.1L274.593 241.07L273.663 241.28L273.533 240.44L272.713 239.81L271.083 241.61L269.273 241.75L269.123 243.49L266.633 245.16L264.333 244.15L262.913 246.25L263.523 247.26L262.343 247.42L260.593 249.79L260.513 252.13L259.983 252.43L259.713 251.75L258.463 252.92L259.133 254.29L258.193 254.56L256.853 257.72L258.183 259.35L258.273 258.59L259.053 258.43L259.923 259.52L260.363 258.86L261.103 259.54L262.113 259.57L261.103 260.66L262.343 265.73L263.333 267.93L265.193 269.94L264.813 270.57L263.743 270.6L263.533 273.75L264.583 275.93L266.753 277.32L268.343 281.13L266.863 281.62L266.213 283.3L264.793 284.31L265.023 290.32L266.803 289.28L267.663 290.45L267.713 291.87L268.893 292.08L270.413 293.28L270.573 294.01L269.813 294.91L269.943 296.65L272.903 297.49L274.143 298.79L273.783 299.53L274.143 300.37L273.133 301.92V304.5L275.243 309.22L278.533 309.98L279.443 307.84L280.203 307.92L280.923 309.87L281.783 309.2L284.483 308.95L286.893 310.61L286.573 312.34L287.173 313.84L286.173 314.95L286.383 320.27L284.673 321.38L284.043 322.74L282.573 321.7L282.213 320.76L280.693 321.05L279.193 320.02L274.843 315.65L267.873 310.06L266.803 308.41L265.893 308.98L265.343 308.46L263.723 306.1L262.763 302.62L256.333 297.95L255.933 296.3L253.333 293.69L250.693 293.25L248.603 296.02L246.393 296.73L245.143 298.31L242.923 297.65L241.893 298.09L239.343 297.3L236.493 297.76L235.373 297.3L234.903 297.36L234.653 298.82L229.393 298.33L228.763 299.56L228.153 298.12L226.103 296.73L225.513 293.47L222.243 292.98L220.823 289.56L217.303 285.99L217.743 285.1L215.693 282.51L215.513 281.1L216.583 280.45L216.813 278.52L215.513 276.07L212.443 278.68L210.883 279.25L208.543 278.57L207.133 280.69L206.723 282.62L205.063 283.63L201.533 278.68L200.073 278.35L198.563 279.14L197.603 281.48H196.823L196.003 280.58L195.883 279.11L193.363 276.88L191.653 278.57L190.913 277.46L189.693 277.59L189.253 275.33L187.873 273.13L182.243 271.14L180.593 271.5L178.863 273.1L179.033 274.41L174.603 283.79L173.293 282.32L170.863 282.4L171.143 281.32L169.403 283.09L169.033 282.4L167.083 281.67L167.723 280.77L167.343 280.53L163.833 280.75L163.943 280.09L162.213 278.35L160.963 278.49L156.993 276.09L151.613 277.24L150.343 275.9L149.123 277.1L147.203 277.02L146.483 277.81L145.513 275.47L144.773 270.43L143.893 269.02L141.313 267.03V263.3L140.633 261.23L143.153 259.63L143.483 256.41L144.813 255.57V253.63L144.203 252.49L144.673 250.91L142.833 251.59L142.453 249.68L143.463 249.22L143.403 247.69L146.043 248.07L146.843 247.61L148.043 244.37L149.203 244.34L148.743 242.81L149.543 241.61L148.493 241.01L149.463 240.11H150.533L150.393 238.42L150.773 237.88L152.083 237.9L152.203 236.7L153.953 237.19L155.243 236.81L155.393 234.93L157.503 233.65L157.483 232.45L159.953 230.95L160.413 228.35L161.873 227.21L162.173 226.33L161.773 221.5L163.033 218.8L164.453 218.03L165.273 216.5L169.223 216.53L170.293 214.32L171.433 213.58L179.123 214.78L181.123 214.24L182.583 215.58L185.033 215.38L186.023 213.23L185.573 212.21L185.833 211.09L184.053 209.35L184.563 205.96L186.163 204.84L187.793 204.54L189.293 201.83L190.203 202.54L190.893 202.13L190.913 200.84L193.073 201.04L193.153 202.4L193.953 202.73L194.713 201.61L194.463 199.5H197.203L201.913 196.82L199.933 194.91L198.943 192.94L198.773 190.94L200.313 191.27L202.273 190.7L203.623 191.16L203.643 191.65L208.643 190.94L210.673 189.66L208.943 188.48L209.403 187.91L211.033 187.69L212.473 188.59L215.993 188.62L216.883 189.16L218.063 188.18L218.363 186.59L219.683 185.36L220.573 185.42L221.123 184.79L222.223 185.22L224.833 182.79L225.263 181.55L226.273 180.71L226.123 178.95L230.773 175.26L229.273 172.9L229.803 171.67L227.073 170.79L226.993 170L228.093 168.41L231.383 168.27L229.563 166.3L230.093 164.87L227.243 163.72L228.113 161.91L225.283 157.03L226.633 155.14L228.573 153.74L228.783 152.97L228.323 152.04L226.403 151.24L225.783 150.31L225.703 149.65L227.313 147.9L228.083 145.84L227.713 144.52L225.813 143.15V142.57L227.283 141.75L229.673 141.5L230.533 140.38Z" fill="#C7C7C7" stroke="white" stroke-width="2"/>
<path d="M228.757 299.56L229.387 298.33L234.647 298.82L234.897 297.36L235.367 297.3L236.488 297.76L239.337 297.3L241.887 298.09L242.917 297.65L245.137 298.31L246.387 296.73L248.598 296.02L250.688 293.25L253.327 293.69L255.927 296.3L256.327 297.95L262.758 302.62L263.717 306.1L265.337 308.46L265.888 308.98L266.797 308.41L267.867 310.06L274.837 315.65L279.188 320.02L280.688 321.05L282.207 320.76L282.568 321.7L284.038 322.74L284.668 321.38L286.378 320.27L286.168 314.95L287.168 313.84L286.568 312.34L286.888 310.61L284.478 308.95L281.777 309.2L280.918 309.87L280.198 307.92L279.438 307.84L278.527 309.98L275.237 309.22L273.128 304.5V301.92L274.138 300.37L273.777 299.53L274.138 298.79L272.897 297.49L269.938 296.65L269.807 294.91L270.568 294.01L270.408 293.28L268.888 292.08L267.707 291.87L267.658 290.45L266.797 289.28L265.017 290.32L264.788 284.31L266.207 283.3L266.857 281.62L268.337 281.13L266.747 277.32L264.577 275.93L263.527 273.75L263.737 270.6L264.807 270.57L265.188 269.94L263.327 267.93L262.337 265.73L261.098 260.66L262.107 259.57L261.098 259.54L260.357 258.86L259.918 259.52L259.047 258.43L258.267 258.59L258.177 259.35L256.848 257.72L258.188 254.56L259.128 254.29L258.457 252.92L259.707 251.75L259.978 252.43L260.508 252.13L260.587 249.79L262.337 247.42L263.517 247.26L262.908 246.25L264.327 244.15L266.628 245.16L269.117 243.49L269.267 241.75L271.077 241.61L272.707 239.81L273.527 240.44L273.658 241.28L274.587 241.07L275.367 242.1L276.508 241.09L277.288 242.32L278.047 241.91L279.267 242.43L280.327 241.69L283.867 242.16L285.177 240.74L285.057 238.61L286.087 238.56L286.807 237.52L288.217 238.2L289.258 241.18H290.918L290.878 243.71L292.168 244.83L292.758 246.46L294.357 247.91L296.767 247.77L299.677 246.85L299.888 243.71L301.647 242.57L304.117 242.95L305.487 244.53L308.478 244.26L310.807 245.97L311.737 246L311.948 245.24L313.777 245.54L314.628 244.86L314.177 243.14L315.487 242.51L315.867 241.72L317.117 241.64L317.707 240.17L316.568 236.81L315.598 236.35L316.207 235.01L321.527 235.23L322.327 236.32L325.408 237.52L326.168 235.34L327.927 233.92L329.568 234.47L329.087 235.28L332.207 235.31L336.258 236.62L336.938 238.75L337.797 238.07L338.008 236.73L338.598 236.51L341.837 236.62L343.438 237.44L343.688 239.21L343.117 240.58L340.818 241.67L340.318 244.45L342.128 245.37L342.378 248.05L344.408 249.22L348.888 253.52L353.107 255.27L354.348 255.32L354.228 253.91L355.008 253.36L356.607 254.12L356.818 252.57L358.427 252.49L358.967 251.75L358.698 249.65L360.087 249.57L361.207 250.28L363.068 253.63L364.857 253.5L364.967 251.81L363.408 250.04L364.207 248.89V247.8L364.837 247.53L367.418 248.35L369.628 250.28L369.508 247.28L372.497 248.37L374.848 248.18L374.927 251.64L377.487 252.43L378.288 253.8L378.228 254.53L376.827 256.09L377.607 267.09L376.047 271.17L377.168 272.15L381.647 273.59L383.797 274.92L383.177 276.69L383.747 277.05L383.938 279.63L386.327 279.6L385.207 281.59L380.897 282.46L380.547 283.52L381.788 284.5L382.277 286.95L383.967 289.2L386.978 299.23L384.747 300.94L384.008 302.33L382.487 302.22L381.668 302.95L380.077 303.09L373.288 307.11L368.617 308.76L367.077 310.69L364.698 311.94L361.357 316.2L357.177 317.26L356.948 317.77L359.077 319.34L360.827 318.61L361.987 318.96L362.647 321.3L363.198 321.68L365.348 320.95L366.188 322.17L366.318 325.34L368.198 327.05L367.987 326.13L368.728 324.23L370.598 324.15L369.967 326.75L372.737 330.79L373.598 329.92L372.147 325.94L372.337 324.66L374.698 323.06L376.047 319.94L379.487 319.86L379.867 321.05L379.318 323.68L380.478 323.96L380.568 325.07L380.057 327.32L378.247 327.81L377.948 331.33L378.408 331.66L378.857 331.14L379.047 330.08L380.228 330.11L380.647 327.24L381.788 326.5L381.897 327.97L383.228 330.14L384.688 331.11L385.818 332.79V334.07L386.647 334.88L387.027 336.97L388.967 338.08L386.818 340.35L385.128 340.98L382.777 340.11L382.107 338.76L380.688 339.16L377.438 338.59L376.658 339.54L378.388 340.38L378.198 341.3L376.307 342.2L373.408 341.93L368.938 342.93L368.918 345.12L369.867 347.72L366.827 348.1L364.117 350.29L368.217 355.9L368.728 368.56L369.508 369.5L371.198 369.66L371.047 371.67L373.077 372.61L374.408 375.21L379.217 378.1L380.497 379.85L381.918 379.1L382.467 380.1L384.888 381.83L379.677 385.04L377.247 390.17L375.497 390.31L374.237 391.2L368.158 389.66L363.147 387.71L357.647 391.12L354.707 395.3L354.388 397.81L353.758 398.27L350.297 398.35L348.247 395.73L347.367 396.54L347.388 397.81L345.927 399.27L342.967 399.38L341.577 398.84L339.557 397.46L337.658 393.82L334.807 392.79L331.237 388.77L327.897 387.53L327.478 386.69L327.707 383.07L326.357 383.04L324.607 381.69L322.878 381.53L321.807 380.04L320.867 380.12L319.057 381.91L316.478 382.31L315.918 381.18L313.677 379.34L308.017 378.69L305.397 375.61L298.307 370.42L296.538 370.69L296.098 372.04L294.848 373.21L295.337 377.15L294.577 378.37L295.098 379.88L293.807 384.47L290.438 384.77L287.647 385.8L286.277 387.31L276.547 389.04L276.168 386.09L274.557 384.18L274.418 382.1L273.258 380.75L273.908 379.64L272.747 377.58L271.017 378.07L270.767 376.64L267.318 376.23L267.327 374.91L265.337 375.13L263.628 372.99L261.747 371.94L260.908 370.48L257.887 369.02L254.997 368.8L254.357 370.96L252.757 371.12L251.467 368.93L252.268 363.71L253.557 363.07L254.378 361.33L253.197 358.98L253.057 357.55L250.568 354.27L245.408 353.54L243.107 350.21L241.087 349.81L240.387 347.61L237.327 346.5L234.727 344.01L235.708 340.44L235.387 339.65L236.908 335.21L238.197 334.18L236.458 333.63L235.298 332.23L233.997 333.04L231.837 333.28L231.417 332.09L231.057 332.55L230.717 331.6L230.087 331.55L228.717 331.38L227.848 322.17L223.988 313.73L223.438 310.74L225.208 310.04L227.107 314.46L230.867 313.7L229.727 309.58L228.337 308.73L229.537 302.81L228.658 302.33L226.647 302.43L225.087 300.18L225.527 299.75L228.757 299.56Z" fill="#C7C7C7" stroke="white" stroke-width="2"/>
<path d="M294.053 187.47V189.79L296.203 191.02L298.083 193.6L301.733 193.76L305.633 192.75L307.263 191.76L309.603 192.48L312.863 192.42L313.063 193.02L313.443 192.89L313.173 194.39L314.103 194.66L315.453 193.3L316.933 193.21L318.573 191.87L320.373 192.58L325.053 192.31L329.893 189.11L331.283 189.74L331.813 191.05L334.403 193.21L334.683 195.02L335.803 195.13L335.483 197.45L337.063 197.73L338.603 196.91L339.563 197.07L340.613 201.53L344.093 203.99L344.333 205.44L345.133 205.77L345.783 207.76L347.243 209.04L344.813 209.65L344.033 210.3L343.693 211.64L339.243 209.95L338.203 208.83L337.593 208.96L337.913 210.14L337.113 210.58L336.163 213.72L340.573 216.37L338.403 217.51L336.643 217.76L334.113 216.91L333.483 217.16L331.053 215.85L330.353 216.64L330.593 217.87L328.543 218.63L327.713 218.39L327.743 221.75L327.423 222.02L326.203 220.68L324.383 222.07L324.253 223.33L324.783 224.01L315.073 225.79L311.333 224.37L309.653 222.92L308.973 221.47L311.313 221.09L311.573 220.52L310.263 219.75L310.223 217.54L308.913 215.41L311.593 215.11L312.263 213.88L310.053 210.3L305.973 212.11L304.083 213.66L302.223 216.75L299.813 217.35L295.903 217.19L293.843 216.94L291.203 214.15L291.133 212.62L290.373 211.59L291.013 208.77L290.083 207.51L288.773 206.94L283.923 207.65L283.333 207.32L281.933 208.06H280.623L280.463 205.93L281.703 203.22L280.293 202.51L279.553 200.6L278.573 200.11L278.703 198.71L276.823 198.33L276.133 197.23L282.993 196.96L284.593 196.61L286.793 195.05L290.273 195.92L290.393 194.17L291.643 193.87L292.633 192.78L292.383 187.69L294.053 187.47Z" fill="#C7C7C7" stroke="white" stroke-width="2"/>
<path d="M368.521 106.46L369.971 107.67L372.061 107.26L372.361 109.98L374.071 111.99L374.231 114.71L375.901 115.01L377.931 114.16L379.681 115.48L379.961 116.83L382.321 118.01L384.301 116.64L386.651 119.28L388.041 119.83L387.091 121.53L387.341 123.01L386.801 125.65H385.361L385.091 126.4L385.741 127.36L387.561 127.96L388.721 129.28L387.771 130.16L388.591 131.31L388.361 131.75L385.801 132.25L386.861 133.37L389.691 134L389.581 135.32L390.511 135.95L394.411 136.81L394.311 138.15L395.721 138.92L398.871 138.84L400.411 138.01L402.031 139.17L403.531 137.79L404.571 138.32L404.741 140.35L405.601 141.72L410.441 140.32L411.701 141.42L411.561 143.67L412.521 145.32L413.431 149.13L413.391 152.04L414.701 153.6L413.661 156.73L414.911 157.66L415.061 158.73L413.621 159.66V160.24L415.561 160.32L417.461 161.28L417.171 162.84L417.821 165.01L419.981 165.26L420.901 166.05L424.201 165.15L425.841 166.35L429.561 165.53L433.021 166.85L433.281 168.3L436.401 169.17L439.001 169.23L439.121 169.7L440.581 170.16L442.861 169.89L442.311 171.5L442.841 172.24L444.291 171.67L446.701 172.02L448.451 171.42L450.011 171.78L451.281 171.56L453.311 172.76L454.301 172.24L456.261 176.08L458.561 176.22L463.121 175.12L463.581 177.42L462.471 178.16L462.261 180.21L460.951 183.33L459.511 184.46L455.671 186.02L453.941 185.11L454.831 183.23L454.001 182.18L451.681 182.08L451.051 183.28L449.931 183.61L449.591 181.83L443.931 181.69L440.661 180.46L437.601 182.49L436.901 182.32L434.751 183.36L433.301 185.94L434.601 186.98L434.181 187.77L434.621 190.04L434.081 191.52L432.661 191.85L432.451 193.32L431.571 194.53L427.051 196.96L426.351 198.79L427.741 199.86L428.191 201.17L424.961 202.76L426.251 204.67L427.051 204.73L426.651 205.38L427.701 205.55L427.871 206.91L427.001 208.31L427.761 208.55L427.391 209.18L426.861 209.1L427.241 210.06L426.351 211.31L427.411 213.69L428.151 213.64L428.021 215.52L429.541 215.55L430.001 216.26L429.181 217.79L429.541 218.61L431.561 219.94L433.281 219.75L433.871 218.85L434.371 218.96L434.921 219.64L434.731 220.27L435.641 220.14L436.481 220.76L436.711 223.58L438.741 222.51L439.541 223.63L440.661 223.19L443.381 225.71L446.321 226.83L447.251 226.61L448.371 228.35L445.751 227.84L443.741 229.17L441.171 228.41L438.721 228.68L436.901 232.2L435.721 232.31L433.341 233.67L430.871 237.82L428.931 239.54L424.241 241.42L417.651 242.13L418.961 239.51L422.811 237.06L423.711 235.61L424.051 233.05L420.171 232.45L418.461 233.37L417.591 233.13L416.161 233.84L415.481 233.46L415.731 232.5L414.831 230.43L414.431 226.74L412.531 226.28L410.921 223.06L408.751 222.1L406.531 223.74V223.06L405.271 221.83L402.061 220.14L397.791 221.01L394.691 220.27L393.021 221.15L391.671 220.79L389.331 221.15L385.741 220.46L384.181 219.02L380.291 221.23L375.461 220.98L373.431 221.39L370.201 220.38L368.281 221.15L365.861 220.76L365.671 224.37L364.171 223.22L364.361 218.52L362.841 217.79L362.861 215.63L361.761 214.21L361.061 214.15L360.851 215.47L359.971 216.31L357.861 216.75L355.601 216.42L353.301 214.54L350.971 215.38L349.481 214.67L347.491 215.88L346.671 215.79L346.311 217.16L349.121 218.91L349.081 219.94L347.721 222.51L348.421 223.82L347.351 224.97L350.071 226.01L349.771 230.15L347.221 228.27L344.601 227.23L337.361 225.49L335.881 225.46L335.171 226.12L330.611 227.4L328.101 226.88L325.751 226.22L324.781 224.01L324.251 223.33L324.381 222.07L326.201 220.68L327.421 222.02L327.741 221.75L327.711 218.39L328.541 218.63L330.591 217.87L330.351 216.64L331.051 215.85L333.481 217.16L334.111 216.91L336.641 217.76L338.401 217.51L340.571 216.37L336.161 213.72L337.111 210.58L337.911 210.14L337.591 208.96L338.201 208.83L339.241 209.95L343.691 211.64L344.031 210.3L344.811 209.65L347.241 209.04L345.781 207.76L345.131 205.77L344.331 205.44L344.091 203.99L340.611 201.53L339.561 197.07L338.601 196.91L337.061 197.73L335.481 197.45L335.801 195.13L334.681 195.02L334.401 193.21L331.811 191.05L331.281 189.74L329.891 189.11L325.051 192.31L320.371 192.58L318.571 191.87L316.931 193.21L315.451 193.3L314.101 194.66L313.171 194.39L313.441 192.89L313.061 193.02L312.861 192.42L309.601 192.48L307.261 191.76L305.631 192.75L301.731 193.76L298.081 193.6L296.201 191.02L294.051 189.79V187.47L294.791 185.8L295.931 186.15L296.901 184.92L294.551 184.54L293.371 181.23L292.061 181.75L291.161 180.62L289.491 180.38L289.071 179.31L286.071 178.16L283.661 176.05L273.991 175.31L269.541 176.74L266.991 175.94L265.741 176.71L260.551 174.98H255.991L254.601 172.71L256.121 170L256.101 168.08L254.491 165.75L256.141 162.6L256.011 160.92L252.191 161.94L250.561 161.34L251.071 158.07L250.651 154.59L249.891 153.63L247.551 153.52L244.171 149.71L244.591 148.39L244.401 141.06L240.161 142.63L236.151 142.35L235.131 143.48L230.531 140.38L230.551 140.1L231.511 138.62L230.931 138.01L231.951 137L232.541 135.13L232.961 129.94L231.821 128.68L232.371 125.46L233.831 124.8L234.441 123.54L236.511 122.85L240.921 122.79L244.681 121.28L246.751 121.26L247.531 120.02L249.341 119.61L249.811 118.18L253.821 119.14L259.891 118.53L260.381 119.58L261.651 119.66L262.911 120.51L265.241 126.04L265.931 126.15L267.181 125.24L267.731 123.15L269.011 122.79L270.051 123.76L271.521 123.37L272.921 124.61L275.241 125.1L280.501 124.42L282.941 126.09L286.201 125.21L290.971 125.54L294.281 122.19L299.891 122.36L300.461 120.51L303.291 119.66L301.961 116.55L302.981 116.58L304.481 117.71L306.211 117.9L312.101 121.94L316.171 122.27L318.511 123.59L323.871 125.08L328.241 128.24L327.921 126.07L328.661 125.21L331.601 126.84L334.021 127.41L334.111 129.01L334.951 129.42L335.521 131.29L338.941 133.1L339.871 132.77L340.481 134.22L341.961 134.14L342.131 132.71L343.781 131.78L344.711 132.03L346.081 131.51L346.391 133.57L345.991 134.5L344.411 135.43L344.371 136.81L344.661 137.33L347.451 137.88L348.171 138.59L350.471 138.01L356.271 134.83L355.871 133.15L356.591 132.93L358.601 128.59L359.401 128.02L359.501 123.76L361.321 118.64L363.791 117.74L365.671 116.17L370.441 115.1L371.411 113.25L368.561 110.15L367.971 106.87L368.521 106.46Z" fill="#C7C7C7" stroke="white" stroke-width="2"/>
<path d="M340.231 62.37L340.651 62.78L342.111 62.45L342.771 63.25L345.821 62.95L347.721 65.15L352.411 66.67L353.471 66.37L355.621 67.5L360.351 66.06L363.811 66.2L366.741 63.97L369.491 63.83L371.791 65.21L373.181 63.69L375.941 64.19L375.081 68L375.381 72L369.991 72.22L369.271 72.99L369.281 76.52L366.681 78.5L365.881 79.96L365.011 79.83L364.251 80.49L364.131 83.33L362.181 91.92L360.301 93.99L358.681 94.35L358.151 95.5L356.971 95.86L356.931 98.12L356.191 99.83L355.221 99.77L355.151 100.84L354.401 100.82L354.581 102.3L353.611 106.6L354.581 106.93L355.371 106.51L358.241 103.62L361.091 104.04L361.821 104.62L364.701 103.02L365.751 103.93L367.761 103.46L368.641 105L368.521 106.46L367.971 106.87L368.561 110.15L371.411 113.25L370.441 115.1L365.671 116.17L363.791 117.74L361.321 118.64L359.501 123.76L359.401 128.02L358.601 128.59L356.591 132.93L355.871 133.15L356.271 134.83L350.471 138.01L348.171 138.59L347.451 137.88L344.661 137.33L344.371 136.81L344.411 135.43L345.991 134.5L346.391 133.57L346.081 131.51L344.711 132.03L343.781 131.78L342.131 132.71L341.961 134.14L340.481 134.22L339.871 132.77L338.941 133.1L335.521 131.29L334.951 129.42L334.111 129.01L334.021 127.41L331.601 126.84L328.661 125.21L327.921 126.07L328.241 128.24L323.871 125.08L318.511 123.59L316.171 122.27L312.101 121.94L306.211 117.9L304.481 117.71L302.981 116.58L301.961 116.55L303.291 119.66L300.461 120.51L299.891 122.36L294.281 122.19L290.971 125.54L286.201 125.21L282.941 126.09L280.501 124.42L275.241 125.1L272.921 124.61L271.521 123.37L270.051 123.76L269.011 122.79L267.731 123.15L267.181 125.24L265.931 126.15L265.241 126.04L262.911 120.51L261.651 119.66L260.381 119.58L259.891 118.53L253.821 119.14L249.811 118.18L249.551 116.47L250.901 114.9L252.721 116.09L254.221 115.59L254.341 114L253.541 113.09L254.411 111.52L256.081 111.25L256.031 108.16L256.641 107.17L256.661 105.52L258.501 106.95L259.351 109.04L261.811 104.62L263.331 106.73L265.131 104.84L268.341 104.78L270.301 106.05L274.251 103.93L276.271 103.54V99.91L277.711 98.09L277.411 96.41L279.001 95.28L277.311 94.21L277.731 93.13L278.961 92.69L280.241 89.72L279.481 88.15L280.921 87.65L280.561 85.78L282.801 83.6L283.511 81.18L284.021 80.74L284.891 81.15L285.731 80.13L285.651 77.62L288.561 75.66L289.971 75.36L292.291 76.27L294.431 77.9L294.771 77.1L295.631 78.45L296.581 77.84L296.261 72.6L298.041 74.06L300.151 71.72L302.321 70.51L305.001 72.91L305.591 75.91L306.751 77.62L310.001 74.75L309.821 72.3L312.411 69.98L313.931 67.14L316.361 66.04L319.141 63.91L323.561 64.08L326.451 65.62L327.421 64.41L329.471 63.64L331.181 61.95L334.811 63.42L335.141 64.41L335.801 64.35L336.201 62.73L337.801 62.56L338.081 61.84L340.231 62.37Z" fill="#C7C7C7" stroke="white" stroke-width="2"/>
<path d="M328.102 226.88L330.612 227.4L335.172 226.12L335.882 225.46L337.362 225.49L344.602 227.23L347.222 228.27L349.772 230.15L350.072 226.01L347.352 224.97L348.422 223.82L347.722 222.51L349.082 219.94L349.122 218.91L346.312 217.16L346.672 215.79L347.492 215.88L349.482 214.67L350.972 215.38L353.302 214.54L355.602 216.42L357.862 216.75L359.972 216.31L360.852 215.47L361.062 214.15L361.762 214.21L362.862 215.63L362.842 217.79L364.362 218.52L364.172 223.22L365.672 224.37L365.862 220.76L368.282 221.15L370.202 220.38L373.432 221.39L375.462 220.98L380.292 221.23L384.182 219.02L385.742 220.46L389.332 221.15L390.682 220.79L393.022 221.15L394.692 220.27L397.792 221.01L402.062 220.14L405.272 221.83L406.532 223.06V223.74L408.752 222.1L410.922 223.06L412.532 226.28L414.432 226.74L414.832 230.43L415.732 232.5L415.482 233.46L416.162 233.84L417.592 233.13L418.462 233.37L420.172 232.45L424.052 233.05L423.712 235.61L422.812 237.06L418.962 239.51L417.652 242.13L424.242 241.42L428.932 239.54L430.872 237.82L433.342 233.67L435.722 232.31L436.902 232.2L438.722 228.68L441.172 228.41L443.742 229.17L445.752 227.84L448.372 228.35L450.462 231.08L448.902 231.49L448.622 232.5L447.482 233.24L447.922 233.97L447.082 236.81L447.752 237.36L447.292 237.74L446.802 237.41L445.682 238.69L446.282 239.19L446.872 238.94L446.722 241.59H445.942L445.502 242.68L444.732 242.57L444.442 243.77L445.682 245.37L444.532 246L445.392 246.79L446.302 252.35L446.042 257.12L446.452 259.22L445.682 262.19L445.882 263.9L444.762 264.53L440.702 269.24L442.202 274.57L441.612 276.04L442.842 278.54L441.592 280.31L443.152 280.88L445.582 283.46L445.862 284.66L442.692 285.83L437.902 286.13L433.492 291.78L430.892 288.33L428.592 287.38L427.582 286.16L421.812 284.42L420.232 282.84L418.182 285.18L417.872 286.59L416.662 285.94L416.092 284.28L413.852 283.9L412.912 289.04L411.262 290.67L406.802 291.08L406.422 289.39L404.692 288.44L401.972 289.8L401.592 291.49L399.902 291.81L401.302 297.65L399.292 298.55L396.232 298.06L394.292 298.52L391.102 298.17L386.982 299.23L383.972 289.2L382.282 286.95L381.792 284.5L380.552 283.52L380.902 282.46L385.212 281.59L386.332 279.6L383.942 279.63L383.752 277.05L383.182 276.69L383.802 274.92L381.652 273.59L377.172 272.15L376.052 271.17L377.612 267.09L376.832 256.09L378.232 254.53L378.292 253.8L377.492 252.43L374.932 251.64L374.852 248.18L372.502 248.37L369.512 247.28L369.632 250.28L367.422 248.35L364.842 247.53L364.212 247.8V248.89L363.412 250.04L364.972 251.81L364.862 253.5L363.072 253.63L361.212 250.28L360.092 249.57L358.702 249.65L358.972 251.75L358.432 252.49L356.822 252.57L356.612 254.12L355.012 253.36L354.232 253.91L354.352 255.32L353.112 255.27L348.892 253.52L344.412 249.22L342.382 248.05L342.132 245.37L340.322 244.45L340.822 241.67L343.122 240.58L343.692 239.21L343.442 237.44L341.842 236.62L338.602 236.51L338.012 236.73L337.802 238.07L336.942 238.75L336.262 236.62L332.212 235.31L331.542 234.66L331.242 233.07L328.392 229.15L328.102 226.88Z" fill="#C7C7C7" stroke="white" stroke-width="2"/>
<path d="M460.799 48.23L465.949 55.8L466.539 54.77L468.499 54.06L470.379 57.09L469.069 58.39L469.239 58.83L470.379 59.91L472.109 59.97L473.209 62.06L474.919 62.31L475.299 62.89L476.309 62.73L476.879 63.33L477.869 62.84L478.439 64.57L479.819 63.5L481.779 64.33L483.049 64.24L483.359 65.82L486.209 66.2L488.149 68.16L488.539 69.32L491.149 70.7L491.029 71.77L489.569 73.13L488.659 73.24L488.469 74.17L487.439 74.84L486.019 74.7L485.389 75.41L486.489 76.99L486.529 79.25L487.779 81.29L491.409 81.67L493.899 82.69L495.439 82.31L498.409 82.86L498.269 88.31L496.939 90.41L497.489 93L500.439 96.49L501.109 98.53L502.449 99.47L503.019 100.82L503.179 102.14L502.069 103.29L503.329 104.37L503.649 106.4L502.549 107.83L507.759 112.7L508.289 114.11L507.149 120.29L504.529 123.26L504.679 126.42L505.589 127.03L507.549 126.64L508.419 124.64L509.409 124.5L509.679 128.84L508.799 129.64L511.179 132.85L512.069 133.26L511.539 134.11L512.549 136.81L511.799 136.78L511.819 137.96L515.189 143.89L515.849 147.7L515.279 149.93L508.609 150.59L505.099 156.45L501.659 157.55L500.269 156.57L499.969 157.42L499.129 157.66L497.719 157.03L495.329 160.76L492.119 161.88L490.939 162.9L489.249 162.84L485.789 163.86L484.879 162.76L483.829 163.31L482.369 162.82L481.339 164.13L476.859 165.06L475.679 166.46L475.399 168.02L473.079 169.91L470.569 169.42L468.779 170.3L468.149 171.89L461.999 172.68L463.119 175.12L458.559 176.22L456.259 176.08L454.299 172.24L453.309 172.76L451.279 171.56L450.009 171.78L448.719 171.42L446.699 172.02L444.289 171.67L442.839 172.24L442.309 171.5L442.859 169.89L440.579 170.16L439.119 169.7L438.999 169.23L436.399 169.17L433.279 168.3L433.019 166.85L429.559 165.53L425.839 166.35L424.199 165.15L420.899 166.05L419.979 165.26L417.819 165.01L417.169 162.84L417.459 161.28L415.559 160.32L413.619 160.24V159.66L415.059 158.73L414.909 157.66L413.659 156.73L414.699 153.6L413.389 152.04L413.429 149.13L412.519 145.32L411.559 143.67L411.699 141.42L410.439 140.32L405.599 141.72L404.739 140.35L404.569 138.32L403.529 137.79L402.029 139.17L400.409 138.01L398.869 138.84L395.719 138.92L394.309 138.15L394.409 136.81L390.509 135.95L389.579 135.32L389.689 134L386.859 133.37L385.799 132.25L388.359 131.75L388.589 131.31L387.769 130.16L388.719 129.28L387.559 127.96L385.739 127.36L385.089 126.4L385.359 125.65H386.799L387.339 123.01L387.089 121.53L388.039 119.83L386.649 119.28L384.299 116.64L382.319 118.01L379.959 116.83L379.679 115.48L377.929 114.16L375.899 115.01L374.229 114.71L374.069 111.99L372.359 109.98L372.059 107.26L369.969 107.67L368.519 106.46L368.639 105L367.759 103.46L365.749 103.93L364.699 103.02L361.819 104.62L361.089 104.04L358.239 103.62L355.369 106.51L354.579 106.93L353.609 106.6L354.579 102.3L354.399 100.82L355.149 100.84L355.219 99.77L356.189 99.83L356.929 98.12L356.969 95.86L358.149 95.5L358.679 94.35L360.299 93.99L362.179 91.92L364.129 83.33L364.249 80.49L365.009 79.83L365.879 79.96L366.679 78.5L369.279 76.52L369.269 72.99L369.989 72.22L375.379 72L375.079 68L375.939 64.19L378.229 63.19L378.989 64.24L381.619 64.49L390.809 63.3L391.359 64.19L391.159 65.32L392.919 65.57L393.509 66.7L394.809 67.3L396.209 66.64L397.749 67.53L397.649 70.12L399.079 71.53L399.349 74.15L401.609 74.89L403.049 73.13L404.339 72.63L405.959 73.15L406.659 74.39L406.909 73.87L408.279 73.79L408.449 72.19L409.649 72.46L413.139 69.07L413.729 68.8L414.319 69.9L415.609 67.58L415.689 67.11L414.509 66.12L414.929 65.32L416.239 65.04L414.909 59.16L415.649 58.47L417.129 58.78L419.189 56.4L420.899 56.02V55.47L423.119 55.24L424.469 53.56L426.539 54.17L425.869 54.8L424.429 54.22L423.729 56.43L424.919 57.73L426.139 58.06L427.069 57.7L426.099 55.91L426.939 55.24L429.999 56.24L431.269 55.52L431.459 54.17L432.299 53.06L435.129 52.87L435.379 49.17L435.949 48.89L439.749 48.81L443.909 51.21L447.879 51.71L451.239 50.63L456.489 50.8L460.799 48.23Z" fill="#C7C7C7" stroke="white" stroke-width="2"/>
<path d="M550.991 2.8L557.011 3.05L558.631 6.35L561.531 8.06L563.621 10.28L565.471 10.61L567.391 13.21L567.271 14.79L566.361 15.57L565.851 17.2L565.901 20.8L565.371 22.29L562.181 22.96L560.491 24.54L560.511 29.1L563.431 29.04L563.741 29.99L561.741 35.49L567.521 41.43L567.371 44.06L567.901 44.2L568.911 46.57L571.341 44.44L573.051 46.38L572.951 47.84L571.341 49.53L572.171 50.36L582.631 51.96L580.711 61.98L578.071 61.95L576.581 60.63L575.521 60.6L575.331 62.95L574.231 63.86L574.421 65.93L575.731 67.03L575.501 68.66L576.681 69.24L577.631 68.85L578.601 69.57L580.291 71.72L581.371 74.56L585.691 75.44L587.621 78.78L588.951 79.61L590.251 82.28L591.031 81.92L592.391 83.41L592.951 87.46L594.541 87.96L595.001 88.64L597.771 88.37L599.621 91.32L599.751 93.41L599.061 94.51L599.601 96.11L601.141 96.27L602.161 97.24L600.831 100.71L601.151 101.67L602.281 102.3L601.821 103.68L600.931 103.46L600.401 104.78L605.201 107.89L610.881 110.39L614.001 114.3L612.421 114.27L611.471 115.18L609.551 113.34L608.761 114.55L605.721 112.87L605.201 111.93L603.871 111.82L603.131 110.39L601.551 111.6L600.201 111.25L599.411 110.45L600.431 109.07L600.341 108.3L597.341 107.45L594.731 105.94L595.421 104.75L594.771 103.73L591.231 102.52L589.661 102.8L589.391 101.37L588.421 100.35L587.171 100.49L586.181 101.31L584.561 101.26L583.691 100.18L583.581 98.31L582.871 97.65L581.031 98.09L579.621 97.04L579.421 98.15L578.791 98.34L576.621 96.49L577.151 95.12L576.621 94.32L575.691 94.29L574.971 96.6L572.351 97.84L571.791 97.62L570.451 94.7L569.591 95.06L569.021 96.14L566.661 95.06L565.641 98.53L564.821 98.7L564.421 97.73L563.421 97.54L560.721 98.67L559.801 100.43L557.521 101.84L556.751 101.42L552.171 101.81L550.341 106.9L548.761 108.22V109.95L551.711 116.55L552.661 125.16L554.451 128.04L558.091 131.01L559.611 133.73L559.411 136.56L557.541 139.74L555.951 141.09L553.021 141.31L552.281 138.98L550.471 136.92L549.351 138.21L547.491 139.14L545.231 138.84L544.451 138.15L541.451 139.88L539.931 139.2L538.071 139.83L535.351 135.49L529.361 131.56L527.731 131.81L524.921 134.06L522.641 137.93L521.481 138.01L519.841 137.16L516.881 138.48L514.411 138.12L512.551 136.81L511.541 134.11L512.071 133.26L511.181 132.85L508.801 129.64L509.681 128.84L509.411 124.5L508.421 124.64L507.551 126.64L505.591 127.03L504.681 126.42L504.531 123.26L507.151 120.29L508.291 114.11L507.761 112.7L502.551 107.83L503.651 106.4L503.331 104.37L502.071 103.29L503.181 102.14L503.021 100.82L502.451 99.47L501.111 98.53L500.441 96.49L497.491 93L496.941 90.41L498.271 88.31L498.411 82.86L495.441 82.31L493.901 82.69L491.411 81.67L487.781 81.29L486.531 79.25L486.491 76.99L485.391 75.41L486.021 74.7L487.441 74.84L488.471 74.17L488.661 73.24L489.571 73.13L491.031 71.77L491.151 70.7L488.541 69.32L488.151 68.16L486.211 66.2L483.361 65.82L483.051 64.24L481.781 64.33L479.821 63.5L478.441 64.57L477.871 62.84L476.881 63.33L476.311 62.73L475.301 62.89L474.921 62.31L473.211 62.06L472.111 59.97L470.381 59.91L469.241 58.83L469.071 58.39L470.381 57.09L468.501 54.06L466.541 54.77L465.951 55.8L460.801 48.23L463.041 46.77L469.351 44.78L476.731 44.72L485.451 48.67L490.461 53.09L499.781 55.66L501.691 57.34L503.081 60.38L507.701 63.11L508.731 61.79L508.951 55.44L506.641 50.85L506.391 49.28L507.071 47.59L504.911 47.21L503.961 45.74L501.751 45.77L502.111 44.44L499.571 42.15L498.621 39.75L499.031 38.39L498.691 36.48L499.341 34.49L498.981 30.18L500.351 26.36L499.721 22.18L500.651 21.74L501.051 20.58L499.641 18.92L498.521 15.76L500.801 13.55L501.751 14.74L502.451 14.85L503.291 13.8L506.521 12.58L507.021 12.49L507.471 14.16L509.301 12.16L510.841 12.83L512.431 12.69L513.211 11.58L513.081 10.39L515.111 8.56L516.421 8.73L518.461 5.63L519.331 5.43L520.241 6.48L521.971 4.35L522.901 4.02L523.171 5.21L524.481 5.24L525.641 7.01L528.411 7.9H530.881L531.851 6.54L534.441 6.87L536.831 4.6L543.631 3.55L546.241 2L550.991 2.8Z" fill="#C7C7C7" stroke="white" stroke-width="2"/>
</svg>
