<svg width="561" height="794" viewBox="0 0 561 794" fill="none" xmlns="http://www.w3.org/2000/svg">
<path d="M327.274 227.43L328.604 229.14L329.624 229.78L329.644 230.88L328.474 232.41L327.474 232.3L326.054 233.15L326.414 234.07L325.424 234.69L325.074 235.65L323.874 235.33L323.174 237.16L320.934 236.25L320.014 238.49L320.844 240.08L320.204 241.31L320.704 242.43L321.894 242.62L322.964 244.24L325.284 244.71L325.784 244.64L326.084 242.7L326.634 242.49L328.624 243.47L328.554 245.05L333.154 246.24L334.934 247.12L335.434 247.03L335.794 246.54H337.364L338.714 245.94L340.664 247.31L341.594 247.56L342.224 248.21L343.754 247.9L344.144 248.33L345.844 248.75L346.104 249.13L346.484 248.55L347.374 248.62L347.744 249.62L348.984 250.19L349.364 250.66L350.044 251.02L350.934 250.68L350.924 251.43L351.524 251.67L351.764 252.5L352.484 252.31L352.834 252.81L353.904 252.91L354.244 254.19L354.924 254.25L355.564 254.9L355.754 255.49L355.504 256.27L356.024 256.77L355.904 257.7L356.684 258.19L356.974 259.38L357.554 259.85L353.434 265.48L348.904 270.04L348.204 270.54L346.144 271.04L345.224 271.96L344.204 273.63L342.974 274.47L342.784 275.02L340.824 276.33L340.624 276.91L339.294 277.77L337.494 278.4L336.724 279.76L335.754 280.49L335.604 281.77L334.894 281.96L333.254 284.29L332.854 284.39L332.124 286L331.304 286.38L330.054 287.62L329.864 288.36L328.754 289.76L328.814 290.2L326.874 291.67L326.454 292.64L325.104 293.98L324.964 294.49L321.704 297.54L321.714 297.79L320.704 298.38L319.854 299.85L317.584 301.75L317.294 302.5L316.174 303.05L316.184 303.46L314.914 304.59L314.904 305.23L314.194 305.53L313.774 306.23L311.794 307.03L311.654 307.49L310.254 308.84L310.244 309.31L309.504 309.35L307.474 311L304.444 312.23L303.574 313.19L303.364 314.51L302.574 315.48L302.684 315.69L299.644 317.6L299.124 318.45L298.654 318.58L298.094 319.67L294.904 321.59L293.544 322.04L292.774 323.1L291.814 323.65L290.444 325.03L288.324 326.23L285.274 328.87L280.854 331.7L280.144 332.62L278.924 332.96L277.534 334.56L275.924 335.03L274.764 336.04L272.964 336.34L271.084 337.82L267.864 338.57L262.824 341.62L260.754 342.3L258.524 341.87L256.374 342.02L253.494 340.84L250.514 340.23L247.194 340.32L244.444 340.81L242.964 341.46L240.824 342.94L239.924 343.83L239.094 345.29L238.584 347.75L240.124 348.87L240.834 350.26L239.854 350.18L239.094 350.82L237.684 350.91L234.814 350.27L233.224 350.42L230.594 349.15L228.334 348.45L226.024 348.22L223.494 348.45L221.874 349L220.894 349.75L220.624 351.89L219.164 353.22L218.344 354.62L219.304 355.46L218.574 355.47L218.344 356.15L215.794 355.18L214.794 355.35L213.404 354.72L212.694 354.85L212.524 355.35L209.794 354.72L209.034 354.44L206.624 352.6L204.804 352.55L200.604 351.03L191.474 349.73L187.374 348.81L187.064 347.43L188.604 345.39L184.924 344.01L184.834 342.57L183.604 342.39L182.864 343.05L180.304 342.56L181.464 341.54L181.504 340.46L184.254 339.42L184.834 338.43L185.564 338.9L187.664 338.68L187.804 337.49L185.934 335.84L185.724 333.5L183.514 332.39L183.264 331.82L179.204 331.74L178.394 330.45L173.844 330.3L172.254 330.64L171.824 330.24L168.134 331.2L164.304 330.8L163.804 329.91L163.734 328.34L164.674 328.18L166.264 325.24L166.764 325.01L167.724 322.63L169.174 321.22L169.374 319.67L168.644 318.84L169.554 318.01L169.214 316.63L170.624 315.31L170.894 314.58L172.844 314.64L173.194 314.08L172.424 311.34L174.034 313.51L175.454 311.91L177.614 312.22L180.264 313.05L180.444 311.27L179.504 310.77L179.184 309.08L177.284 307.78L178.004 307.57L178.454 307.06L177.784 304.09L176.664 303.34L176.844 301.85L176.234 300.74L178.934 299.35L179.274 298.59L180.964 299.34L182.064 297.79L187.604 297.95L187.914 297.35L187.224 296.58L187.804 294.95L189.924 293.73L190.344 293.16L191.864 294L192.314 295.06L193.494 295.28L197.514 293.1L197.394 292.35L198.644 292.52L199.814 291.57L199.824 290.6L199.034 290.53L198.944 289.41L199.954 289.33L199.934 288.59L199.394 288.29L199.844 287.6L200.944 287.86L202.094 286.14L201.514 285.67L201.764 285.34L200.724 284.55L199.314 284.8L200.044 283.03L200.684 283.11L200.544 282.25L201.094 282.23L200.594 281.36L200.324 280.23L200.724 279.73L203.494 280.71L204.764 279.47V278.97L209.754 278.78L210.144 275.06L209.894 274.18L210.384 272.45L210.164 272.15L211.234 271.62L211.294 269.6L213.284 269.32L214.694 269.78L217.084 269.41L218.004 268.27L218.914 268.77L219.014 267.41L221.034 266.89L222.034 265.82L224.134 265.83L228.314 263.54L231.814 264.33L232.574 263.82L232.564 262.16L233.044 261.69L233.744 261.67L234.704 260.12L234.114 259.39L234.854 259.3L235.454 258.17L234.994 257.33L236.354 255.72L236.164 254.38L235.044 253.4L235.394 252.78L236.224 252.45L236.884 251.2L235.014 250.96L234.624 245.8L238.264 245.39L238.664 245.61L239.054 247.09L240.924 247.79L242.124 247.86L245.264 245.82L245.324 244.13L245.904 243.67L247.254 244.45L248.354 243.48L250.164 242.8L250.704 242.79L251.624 243.5L252.144 243.51L252.464 243.05L252.204 242.32L252.754 242.08L253.494 242.38L254.024 243.3L255.254 243.72L255.974 244.86L257.654 245.02L258.574 244.49L260.064 244.34L261.034 245.19L261.144 246.42L262.984 247.25L265.204 247.39L265.064 247.99L266.004 247.47L266.794 247.83L267.514 247.3L268.054 247.38L269.534 246.77L270.774 247.82L271.204 247.62L271.294 247.19L272.874 247.2L273.114 245.9L273.824 245.37L275.434 245.3L275.394 244.66L274.614 244L274.704 243.56L276.684 243.23L277.544 243.81L278.034 243.44V242.42L279.314 242.64L280.234 241.9L280.444 242.1L280.954 241.86L281.344 242.31L282.434 242.14L282.774 241.45L282.104 241.1L282.114 240.63L283.214 240.83L283.874 240.65L283.864 240.33L283.024 239.93L283.114 239.3L284.494 239.33L284.974 238.78L284.774 238.23L284.114 238.29L283.714 237.27L284.894 237.03L284.844 237.43L285.104 237.47L286.944 236.84L287.114 237.76L287.774 238.67L289.114 239.06L289.824 240.79L290.494 240.98L290.704 241.98L292.424 243.09L294.084 245.33L297.094 245.83L297.894 245.42L298.644 246.72L301.804 247.3L302.904 246.99L303.614 247.57L303.554 245.48L304.764 244.28L304.964 243.01L305.374 242.33L304.564 241.3L305.714 240.32L306.794 239.86L307.814 238.37L307.374 237.27L306.324 236.16L306.874 235.44L308.764 235.12L309.944 233.63L310.214 232.55L310.904 231.95L311.374 231.78L313.044 232.21L314.064 231.89L314.964 231.1L316.784 231.65L318.294 231.69L319.954 230.88L320.954 230.91L322.554 230.39L327.274 227.43Z" fill="#C7C7C7" stroke="white" stroke-width="2"/>
<path d="M288.562 132.82L289.443 132.5L289.423 131.83L290.783 131.57L291.043 131.71L291.143 132.46L293.263 132.33L294.332 133.01L294.893 131.98L297.383 131.57L298.582 130.17L299.473 129.85L300.312 130.41L300.103 131.53L300.962 133.3L302.163 134.5L303.383 135.07L304.022 136.44L304.793 135.26L305.552 136.52L306.223 136.59L307.133 136.13L308.033 136.83L309.013 137.43L310.823 137.37L311.643 138.98L312.543 138.27L313.133 138.24L314.092 139.5L314.992 139.95L314.443 141.03L316.272 139.65L317.372 139.59L317.432 139.03L316.462 138.9L317.283 138.11L318.832 138.68L321.753 140.52L322.682 140.37L323.462 140.78L323.962 139.92L325.682 139.24L326.332 139.34L327.103 140.17L327.842 140.08L328.022 141.45L329.443 143.88L330.503 143.36L331.923 143.43L332.923 144.45L333.772 144.57L334.203 145.16L334.962 145.17L335.283 145.46L335.173 146.28L336.753 145.92L337.973 146.68L338.413 147.26L338.582 148.33L339.092 148.64L338.953 149.2L340.652 150.68L340.353 151.29L341.443 152.21L342.443 154.06L343.092 154.19L343.643 153.73L344.453 153.69L344.473 152.95L344.983 152.44L346.492 152.48L344.953 153.17L345.272 153.46L345.003 154.45L346.383 155.06L346.753 156.51L344.203 158.4V158.94L344.842 160.15L344.703 161.94L345.253 162.99L343.753 165.87L343.783 167.6L342.983 168.42L342.673 169.49L342.823 170.32L343.913 171.47L343.812 173.18L342.633 174.03L342.022 175.59L339.402 176L337.293 178.74L335.462 179.58L334.372 180.92L332.462 181.41L331.492 182.67L331.763 183.77L331.552 184.16L330.552 184.14L330.043 184.64L328.423 184.44L325.783 185.3L324.723 186.46L324.742 187.62L323.842 188.37L323.082 190.72L322.043 190.69L321.473 189.04L319.212 188.32L318.693 186.04L317.503 185.22L315.783 186.12L312.652 186.14L311.272 186.6L310.193 187.97L310.223 188.73L309.953 188.92L308.772 188.89L308.163 189.21L306.953 188.81L305.932 189.15L305.453 188.71L303.682 190.26L302.682 192.16L302.082 192.33L302.022 193.23L301.413 193.63L301.483 194.2L300.052 194.24L299.712 193.61L299.022 193.45L298.362 194.28L297.932 194.38L298.073 195.03L297.682 195.3L296.272 194.87L296.022 195.29L295.552 195.36L294.233 194.81L294.652 195.53L294.372 196.09L293.853 196.08L293.513 196.5L293.573 197.1L293.242 197.51L293.522 197.83L292.543 197.88L292.693 198.36L292.293 198.64L292.242 199.11L291.432 199.12L292.293 200.01L291.393 200.12L291.783 200.37L291.703 201.02L290.592 201.67L290.663 202.51L289.923 202.69L288.312 204.23L288.383 204.66L288.812 204.93L288.753 205.33L287.592 206.33L286.603 206.41L286.992 207.02L286.253 207.58L286.133 208.64L285.332 208.69L285.753 209.84L285.152 210.03L284.193 211.3L284.173 211.91L282.783 212.39L282.753 213.38L281.733 213.4L281.122 214.06L280.643 213.81L279.973 214.46L278.802 214.28L277.992 214.7L277.673 215.47L276.983 215.82L276.612 215.48L276.323 216.52L275.432 215.94L275.332 216.96L277.783 220.21L280.772 227.65L282.682 229.53L283.283 231.97L285.022 231.72L285.372 231.99L284.302 234.07V235.56L284.862 235.9L284.693 236.29L285.122 236.57L284.872 236.96L283.682 237.21L284.092 238.23L284.742 238.17L284.943 238.72L284.462 239.27L283.082 239.24L282.992 239.87L283.832 240.27V240.6L283.182 240.78L282.082 240.58L282.073 241.06L282.742 241.41L282.402 242.1L281.312 242.27L280.923 241.82L280.413 242.06L280.203 241.86L279.293 242.6L278.003 242.39V243.41L277.513 243.78L276.652 243.19L274.673 243.53L274.582 243.97L275.362 244.63L275.393 245.27L273.783 245.34L273.062 245.88L272.832 247.18L271.253 247.17L271.152 247.6L270.723 247.8L269.483 246.75L268.003 247.36L267.462 247.29L266.742 247.82L265.953 247.46L265.013 247.98L265.143 247.38L262.923 247.24L261.082 246.4L260.983 245.17L260.013 244.32L258.522 244.47L257.603 245L255.923 244.84L255.193 243.7L253.963 243.29L253.443 242.37L252.702 242.07L252.152 242.31L252.413 243.04L252.092 243.5L251.573 243.49L250.652 242.79H250.103L248.303 243.48L247.193 244.44L245.842 243.66L245.262 244.12L245.202 245.81L242.062 247.85L240.863 247.79L238.982 247.09L238.592 245.61L238.202 245.39L234.562 245.79L232.573 244.07L230.253 243.89L229.292 242.37L227.122 241.03L226.143 239.33L224.823 238.58L223.792 237.56L223.402 236.08L222.262 235.58L221.053 233.49L219.812 232.68L218.073 229.46L217.323 227.33L214.323 226.49L213.592 224.35L211.943 223.94L210.723 222.27L209.363 221.99L208.932 221.19L208.323 221.32L207.743 221.07L205.743 218.16L205.562 217.06L219.633 187.07L218.262 186.57L218.893 183.15L218.633 182.66L219.842 181.3L220.673 177.65L220.213 177.6L219.663 176.39L220.633 176.32L220.833 175.64L221.603 175.49L222.963 171.86L222.262 170.65L224.443 170.06L224.682 169.29L225.363 168.56L225.152 167.76L226.012 166.4L227.163 166.21L228.853 164.67L229.113 164.11L228.803 163.61L229.542 162.58L231.493 162.1L231.932 161.33L233.423 160.19L235.592 159.32L236.702 159.41L237.643 158.54L239.652 158.93L240.173 158.04L243.402 156.2L244.042 156.11L245.042 157.32L246.592 157.24L248.473 157.75L249.042 160.04L249.413 160.27L250.342 160.03L250.443 159.55L249.952 158.63L250.753 156.98L253.773 154.06L254.542 153.85L254.512 152.79L255.452 151.49L256.353 151.21L257.103 151.58L257.812 150.63L259.513 150.9L260.233 150.61L261.522 150.91L261.992 150.76L260.253 149.69L260.543 148.82L261.362 148.51L261.353 147.01L259.612 145.14L259.283 144.12L259.603 143.83L260.513 143.92L261.122 143.32L261.473 143.38L262.242 142.16L263.693 142.34L263.742 140.78L264.812 139.63L265.932 139.38L266.323 139.99L266.633 139.92L266.893 139L267.832 138.14L269.302 137.37L269.872 137.72L270.823 136.84L272.272 138.19L272.513 137.8L272.393 135.97L272.783 135.56L273.143 135.59L273.793 136.75L275.533 137.4L277.092 137.16L278.362 137.39L278.862 137.08L279.233 137.51L279.033 138.26L279.312 138.37L280.013 138.09L281.992 135.49L282.842 134.95L285.043 136.95L285.383 136.92L286.033 136.17L286.862 135.98L287.943 134.28L287.953 132.92L288.562 132.82Z" fill="#C7C7C7" stroke="white" stroke-width="2"/>
<path d="M316.253 86.41L319.973 86L320.713 87.97L319.013 89.38L317.363 89.56L317.153 93.94L316.613 94.82L317.073 95.59L316.453 96.57L317.853 101.57L321.883 101.93L324.723 98.49L327.303 97.79L327.923 99.97L325.463 100.96L325.173 101.98L325.863 102.81L324.633 105.1L324.993 105.38L324.833 106.61L323.183 106.33L322.263 111.2L320.743 111.13L320.303 111.36L319.863 110.51L319.683 110.77L318.623 110.74L316.503 110.19L315.533 111.07L315.153 112.7L314.123 112.37L313.973 112.76L313.563 112.63L312.413 113.06L312.823 114.46L313.763 115.18L313.943 117.36L316.383 118.15L316.463 119.97L317.163 120.07L317.303 120.52L318.293 121.12L320.123 120.33L321.773 120.16L322.903 122.5L320.003 123.92L319.943 125.64L316.723 125.88L316.493 126.75L314.813 126.51L313.713 127.36L313.703 128.27L312.703 128.34L312.583 129.46L311.423 129.56L311.293 130.01L310.213 130.21L309.683 132.06L310.183 132.29L310.383 133.06L308.983 133.53L308.993 133.96L308.143 134.22L308.133 135.23L308.673 135.55L308.033 136.83L307.133 136.13L306.223 136.59L305.553 136.52L304.793 135.26L304.023 136.44L303.383 135.07L302.163 134.5L300.963 133.3L300.103 131.53L300.313 130.41L299.473 129.85L298.583 130.17L297.383 131.57L294.893 131.98L294.333 133.01L293.263 132.33L291.143 132.46L291.043 131.71L290.783 131.57L289.423 131.83L289.443 132.5L288.563 132.82L289.313 128.67L288.413 127.54L289.013 127.4L289.523 124.98L289.783 124.91L290.153 123.72L287.673 123.81L287.363 122.95L286.893 122.57L283.253 123.38L283.493 124.12L280.063 125.44L280.053 124.09L278.953 122.06L280.503 120.59L282.563 119.22L281.653 115.26L283.373 115.46L283.453 114.37L284.953 114.15L286.193 108.99L286.133 107.01L290.653 104.56L290.953 105.73L291.833 106.95L293.163 106.24L293.263 107.38L295.463 106.65L297.523 106.38V105.82L298.713 105.95L298.723 105.34L299.403 104.91L298.993 103.4L299.743 103.13L298.583 100.2L300.663 99.88L301.423 99.38L301.763 98.34L302.923 97.51L302.043 93.66L303.193 93.2L304.013 93.34L304.023 93.74L303.333 93.97L303.573 94.83L304.143 94.82L304.683 94.27L306.063 94.36L308.153 93.71V90.95L310.083 90.47L310.253 91.32L313.353 90.71L313.543 89.36L315.993 89.37L316.433 90.05L317.523 89.39L318.083 88.29L317.163 88.34L316.253 86.41Z" fill="#C7C7C7" stroke="white" stroke-width="2"/>
<path d="M343.939 1.34L346.299 1.4L349.219 2.8L350.459 2.82L351.339 3.5L352.719 3.89L352.969 4.5L353.919 4.64L355.659 6.07L358.219 5.66L359.909 7.26L362.999 6.94L364.979 6.23L366.289 6.51L367.969 6.36L368.719 6.71L369.679 6.05L370.889 6.25L373.899 5.57L376.599 5.84L380.359 7.05L382.469 6.57L383.589 7.51H385.119L386.419 9.58L392.879 30.41L392.549 36.73L392.839 38.6L396.279 42.81L396.429 45.66L398.159 50.17L401.099 52.25L400.049 52.75L398.549 52.56L397.369 53.73L397.149 54.82L396.579 55.04L395.789 55.1L395.179 53.89L394.639 54L393.699 55.01L393.129 54.41L392.479 54.94L391.969 54.92L390.019 54.03L388.869 55.24L388.069 54.97L387.019 55.87L385.599 55.57L385.049 56.2L390.849 56.04V57.59L389.449 58.9L389.839 59.92L389.709 61.9L388.579 63.1L388.509 64.05L387.439 64.83L388.869 65.72L388.319 66.74L390.649 66.78L389.489 67.88L390.099 68.8L392.339 70.11L393.859 70.38V71.9L392.819 71.98L392.859 72.4L391.749 72.15V72.9L390.389 73.89H386.889L387.349 74.95V77.11H388.419V77.75L390.619 77.46L390.849 79.45L389.969 79.56L390.389 81.64L386.749 81.24L385.199 81.63L384.689 82.5L381.249 82.81L380.749 82.51L380.219 81.22L379.359 81.05V78.82L378.619 77.07L378.079 76.66L376.529 76.31L376.109 75.84V73.85L375.679 73.5L376.269 72.57V71.75L375.999 71.05L374.559 70.75L373.969 70.11L374.989 68.71L372.849 66.84L371.569 67.32L371.309 68.1L369.419 68.89L369.039 68.08L368.309 68.36L368.289 70.11L366.779 71.62L365.749 70.26L362.989 69.63L361.999 69.01L361.579 70.21L359.869 70.23L358.549 69.41L358.449 71.2L357.049 70.12L354.719 70.2L355.289 72.45L354.979 73.2L356.399 74.4L356.019 76.29L354.489 76.49L348.009 81.82L347.999 82.78L346.199 82.95L346.259 83.87L347.229 84.14L347.919 85.68L346.749 86.08L346.739 86.76L345.949 87.91L341.349 87.11L341.459 86.36L339.749 84.64L339.099 84.75L338.379 83.85L338.569 83L337.429 82.32L337.419 81.45L335.819 82.2L335.679 81.98L336.529 80.56L335.639 78.17L335.679 77.34L332.999 76.67L331.509 77.07L331.489 79.08L330.939 79.34L331.159 80.17L328.409 81.34L327.379 79.07L327.069 79.17L326.809 78.65L324.409 78.22L324.829 80.35L323.629 79.97L322.379 80.34L321.129 79.94L319.429 80.23L318.449 81.03L316.029 81.99L316.069 84.15L312.249 85.05L312.219 85.98L309.739 86.75L309.869 88.41L310.279 88.54L312.979 87.93L313.439 87.28L316.249 86.41L317.159 88.34L318.079 88.29L317.519 89.39L316.429 90.05L315.989 89.37L313.539 89.36L313.349 90.71L310.249 91.32L310.079 90.47L308.149 90.95L306.259 87.84L303.899 88.1L303.759 86.65L302.339 86.41L302.599 85.07L303.589 84.84L304.859 85.79L306.139 85.72L306.589 83.86L302.839 81.96L300.509 81.79L299.659 81.26L298.849 81.43L298.499 82.05L297.409 81.93L297.369 81.35L298.109 81.34L297.879 80.49L295.999 80.05L295.849 81.66L294.089 81.44L292.959 82.12L291.899 81.07H290.679L289.819 81.61L289.899 83.23L288.589 84.99L287.789 84.71L287.239 83.5L283.939 83.88L282.359 81.91L278.859 81.75L278.879 81.04L278.089 79.53L276.219 78.82L275.629 74.01L274.559 74.04L274.429 75.48L273.559 75.46L273.139 76.05L269.079 77.53L268.619 78.28L267.119 78.18L265.339 76.84L263.869 77.1L259.929 76.55L258.969 74.62L259.089 71.58L259.569 71.54L259.799 70.96L260.959 70.19L262.129 67.29L263.129 66.21L264.299 65.07L265.979 64.59L266.379 63.17L267.819 62.12L269.029 62.18L270.189 61.23L271.089 60.9L271.069 59.71L271.479 59.18L271.149 58.54L271.569 58.03L271.109 57.31L271.219 56.4L271.829 55.84L272.439 54.05L272.369 53.1L272.739 52.68L272.859 51.42L273.399 50.1L273.369 49.59L272.979 49.52L273.459 49.03L273.299 48.29L273.739 46.03L273.989 45.27L274.619 44.81L274.839 43.47L275.519 43.97L275.449 44.63L276.189 44.35L276.719 43.67L276.229 42.72L277.219 42.22L277.539 41.51L278.629 41.35L278.189 40.73L278.259 40.17L278.759 40.56L279.149 40.28L279.489 40.58L279.959 40.47L280.139 40.23L279.639 39.59L280.059 39.21L280.769 39.47L281.049 39L281.759 38.87L282.599 38.25L283.229 36.8L283.729 36.88V37.48L284.349 37.52L284.429 36.73L285.119 36.52L284.959 37.26L285.469 37.43L286.249 36.35L288.439 36.17L289.199 35.34L289.529 33.01L290.139 32.58L290.109 31.82L290.349 31.65L291.509 31.95L292.519 31.21L293.259 32.16L293.899 32.04L294.189 31.15L294.989 30.42L294.479 29.45L295.099 29.62L295.759 29.28L295.959 28.58L297.809 27.94L298.839 27.04L298.919 25.76L299.229 25.26L298.989 24.38L299.889 24.24L301.699 22.86L301.939 22.36L301.719 20.88L302.759 20.47L304.559 18.94L304.719 17.34L305.779 16.19L307.289 15.51L307.779 14.71L308.899 14.23L309.519 13.56L312.189 13.39L313.839 13.85L314.899 13.21L316.849 13.07L319.169 11.78L322.059 10.98L322.079 10.38L323.009 9.92L324.309 10.29L325.759 7.87L325.579 6.06L325.839 5.5L326.329 5.3L326.829 3.91L327.349 3.52L330.389 3.44L331.669 2.53L333.519 2.86L334.639 2.74L335.139 3.17L338.409 2.13L339.869 2.4L340.329 1.73L341.299 1.44L342.249 1.79L343.299 1L343.939 1.34Z" fill="#C7C7C7" stroke="white" stroke-width="2"/>
<path d="M401.181 52.72L401.521 53.55L402.091 58.94L404.021 62.15L404.611 66.39L404.361 72.8L405.291 83.11L405.211 89.66L404.991 92.55L404.061 94.6L403.861 95.77L403.841 96.73L404.351 96.9L404.661 100.11L402.731 105.65L403.871 109.12L400.951 110.46L389.401 102.46L386.701 103.16L385.171 105.25L381.861 108.19L381.461 110.08L377.991 117.17L375.711 119.77L374.061 122.53L373.081 126.77L373.131 131.23L373.511 134.29L373.811 134.72L374.281 134.64L375.851 133.26L376.231 135.23L377.901 136.91L378.031 137.89L377.561 139.13L377.771 139.78L380.161 142.16L382.281 144.97L385.911 146.43L383.081 150.08L382.351 150.02L381.161 149.06L380.451 149.25L379.871 149.04L377.321 149.65L376.501 149.07L376.271 148.14L375.031 148.36L374.071 149.18L372.891 148.35L372.271 148.44L371.571 147.73L370.241 147.26L369.011 147.38L367.481 148.47L365.511 148.1L363.941 148.31L363.511 148.14L363.341 147.19L362.361 146.99L361.711 147.75L360.861 147.67L359.651 148.02L358.211 149.21L357.081 149.52L356.251 150.51L354.081 149.8L352.791 150.54L351.451 150.36L350.621 149.83L348.491 150.53L347.281 152.85L346.491 152.48L344.981 152.44L344.471 152.95L344.451 153.69L343.641 153.73L343.091 154.19L342.441 154.06L341.441 152.21L340.351 151.29L340.651 150.68L338.951 149.2L339.091 148.64L338.581 148.33L338.411 147.26L337.971 146.68L336.751 145.92L335.171 146.28L335.281 145.46L334.961 145.17L334.201 145.16L333.771 144.57L332.921 144.45L331.921 143.43L330.501 143.36L329.441 143.88L328.021 141.45L327.841 140.08L327.101 140.17L326.331 139.34L325.681 139.24L323.961 139.92L323.461 140.78L322.681 140.37L321.751 140.52L318.831 138.68L317.281 138.11L316.461 138.9L317.431 139.03L317.371 139.59L316.271 139.65L314.441 141.03L314.991 139.95L314.091 139.5L313.131 138.24L312.541 138.27L311.641 138.98L310.821 137.37L309.011 137.43L308.031 136.83L308.671 135.55L308.131 135.23L308.141 134.22L308.991 133.96L308.981 133.53L310.381 133.06L310.181 132.29L309.681 132.06L310.211 130.21L311.291 130.01L311.421 129.56L312.581 129.46L312.701 128.34L313.701 128.27L313.711 127.36L314.811 126.51L316.491 126.75L316.721 125.88L319.941 125.64L320.001 123.92L322.901 122.5L321.771 120.16L320.121 120.33L318.291 121.12L317.301 120.52L317.161 120.07L316.461 119.97L316.381 118.15L313.941 117.36L313.761 115.18L312.821 114.46L312.411 113.06L313.561 112.63L313.971 112.76L314.121 112.37L315.151 112.7L315.531 111.07L316.501 110.19L318.621 110.74L319.681 110.77L319.861 110.51L320.301 111.36L320.741 111.13L322.261 111.2L323.181 106.33L324.831 106.61L324.991 105.38L324.631 105.1L325.861 102.81L325.171 101.98L325.461 100.96L327.921 99.97L327.301 97.79L324.721 98.49L321.881 101.93L317.851 101.57L316.451 96.57L317.071 95.59L316.611 94.82L317.151 93.94L317.361 89.56L319.011 89.38L320.711 87.97L319.971 86L316.251 86.41L313.441 87.28L312.981 87.93L310.281 88.54L309.871 88.41L309.741 86.75L312.221 85.98L312.251 85.05L316.071 84.15L316.031 81.99L318.451 81.03L319.431 80.23L321.131 79.94L322.381 80.34L323.631 79.97L324.831 80.35L324.411 78.22L326.811 78.65L327.071 79.17L327.381 79.07L328.411 81.34L331.161 80.17L330.941 79.34L331.491 79.08L331.511 77.07L333.001 76.67L335.681 77.34L335.641 78.17L336.531 80.56L335.681 81.98L335.821 82.2L337.421 81.45L337.431 82.32L338.571 83L338.381 83.85L339.101 84.75L339.751 84.64L341.461 86.36L341.351 87.11L345.951 87.91L346.741 86.76L346.751 86.08L347.921 85.68L347.231 84.14L346.261 83.87L346.201 82.95L348.001 82.78L348.011 81.82L354.491 76.49L356.021 76.29L356.401 74.4L354.981 73.2L355.291 72.45L354.721 70.2L357.051 70.12L358.451 71.2L358.551 69.41L359.871 70.23L361.581 70.21L362.001 69.01L362.991 69.63L365.751 70.26L366.781 71.62L368.291 70.11L368.311 68.36L369.041 68.08L369.421 68.89L371.311 68.1L371.571 67.32L372.851 66.84L374.991 68.71L373.971 70.11L374.561 70.75L376.001 71.05L376.271 71.75V72.57L375.681 73.5L376.111 73.85V75.84L376.531 76.31L378.081 76.66L378.621 77.07L379.361 78.82V81.05L380.221 81.22L380.751 82.51L381.251 82.81L384.691 82.5L385.201 81.63L386.751 81.24L390.391 81.64L389.971 79.56L390.851 79.45L390.621 77.46L388.421 77.75V77.11H387.351V74.95L386.891 73.89H390.391L391.751 72.9V72.15L392.861 72.4L392.821 71.98L393.861 71.9V70.38L392.341 70.11L390.101 68.8L389.491 67.88L390.651 66.78L388.321 66.74L388.871 65.72L387.441 64.83L388.511 64.05L388.581 63.1L389.711 61.9L389.841 59.92L389.451 58.9L390.851 57.59V56.04L385.051 56.2L385.601 55.57L387.021 55.87L388.071 54.97L388.871 55.24L390.021 54.03L391.971 54.92L392.481 54.94L393.131 54.41L393.701 55.01L394.641 54L395.181 53.89L395.791 55.1L396.581 55.04L397.151 54.82L397.371 53.73L398.551 52.56L400.051 52.75L401.101 52.25L401.181 52.72Z" fill="#C7C7C7" stroke="white" stroke-width="2"/>
<path d="M95.51 77.96L96.23 78.58L97.01 78.65L97.68 79.38L98.3 79.02L98.71 79.52L99.73 79.73L100.46 81.16L102.75 82.72L103.76 84.49L104.27 86.25L105 86.27L105.07 86.77L104.61 87.32L104.79 87.93L105.64 88.31L105.63 89.17L106.93 90.12L106.4 90.79L107.05 91.09L106.97 91.52L107.53 92.79L108.63 93.23L108.74 94.11L109.3 94.17L109.15 94.89L109.53 95.02L110.15 94.6L110.44 94.81L110.32 95.28L109.6 95.48L109.31 96.63L109.38 96.98L110.28 97.54L110.91 98.68L109.9 99.95L110.7 100.01L110.53 101.5L111.64 102.67L111.95 103.87L112.54 104.26L112.24 105.47L113.29 104.87L113.32 106.34L113.91 106.93L113.7 107.99L114.64 109.25L114.09 110.62L114.56 111.4L114.36 112.3L114.68 112.78L114.3 113.58L114.61 113.98L115.12 114L115.16 114.71L114.17 115.69L113.88 117.33L113.29 118.46L112.65 118.76L111.14 120.98L110.82 121.96L110.27 122.21L109.73 123.04L109.12 123.13L108.85 124.04L108.61 125.8L109.35 128.36L109.34 129.79L108.86 130.74L109.35 131.75L109.3 133.52L109.84 134.01L109.78 134.59L110.76 135.17L110.89 136.68L111.46 135.76L112.86 135.37L113.64 134.64L114.11 134.69L114.37 134.2L116.28 133.46L117.35 133.87L118.18 133.81L119.4 135L120.85 135.08L122.56 135.71L124.46 134.98L125.88 134.78L126.71 135.06L127.81 134.37L129.12 134.31L129.88 134.32L132.45 135.35L133.22 134.95L134.1 134.94L135.14 135.48L137.03 135.33L139.2 133.42L139.25 131.42L138.89 130.81L139.1 130.27L139.95 129.69L143.56 129.86L146.04 128.79L146.89 127.28L148.99 125.14L148.97 124.51L149.44 124.13L149.96 121.98L150.85 121.45L151.46 120.64L154.32 119.79L154.29 118.9L155.23 118.44L155.14 117.87L155.93 117.08L156.75 117.02L157.18 116.48L159.02 117.13L159.44 116.86L159.8 116.18L159.93 114.69L160.56 114.83L161.25 113.74L162.84 113.83L163.05 122.42L162.73 122.53L162.43 123.27L162.84 126.72L163.06 127.02L163.99 127.1L166.53 126.93L166.96 127.84L168.43 127.75L168.85 128L169.21 128.99L169.58 128.37L169.88 128.41L171.21 129.63L171.95 129.89L170.91 132.25L171.8 133.58L170.88 134.13L170.76 135.29L171.5 136.79L171.6 138.19L172.7 139.54L171.91 140.01L170.79 140.11L170.44 142.76L170.58 143.93L171.49 145.62L173.19 145.15L173.48 146.05L174.45 146.64L176.38 149.34L178.6 149.46L179.59 149.8L181.44 151.49L182.42 151.11L183.31 152.08L182.93 153.04L186.17 153.06L187.35 154.2L189.99 155.32L190.28 155.3L191.39 153.38L193.4 153.8L194.3 153.14L194.18 152.66L193.24 152.48L194.1 151.01L195.45 151.54L196.4 151.52L195.92 149.51L196.5 148.41L198.43 149.71L197.67 151.87L197.48 156.65L199.07 157.21L198.41 160.22L199.28 161.06L207.32 159.23L207.91 160.24L207.86 163.11L205.77 165.53L206.21 166.29L206.67 166.64L207.21 166.39L208.61 167.87L207.77 169.66L208.44 169.73L209.95 171.29L210.79 170.89L211.39 169.46L212.54 168.57L212.91 167.31L212.64 166L213.37 165.11L213.5 164.47L214.34 164.19L214.74 163.38L214.61 162.08L215.09 161.36L214.87 160.42L214.36 160.15L214.08 159.19L214.56 158L216.04 157.93L216.19 157.27L216.54 157.1L216.7 158.1L217.15 158.46L216.88 159.12L217.04 159.61L223.08 159.55L223.49 159.8L218.61 165.7L218.18 165.78L221.04 171.42L221.59 171.31L222.3 170.65L222.99 171.86L221.64 175.49L220.87 175.64L220.67 176.32L219.7 176.39L220.26 177.6L220.71 177.66L219.88 181.3L218.67 182.66L218.94 183.15L218.31 186.57L219.68 187.07L205.62 217.06L205.79 218.16L207.79 221.08L208.37 221.33L208.98 221.2L209.41 222L210.77 222.28L211.99 223.95L213.64 224.36L214.37 226.5L217.37 227.34L218.12 229.47L219.86 232.69L221.1 233.5L222.31 235.58L223.45 236.09L223.84 237.57L224.88 238.58L226.19 239.33L227.17 241.04L229.34 242.38L230.31 243.9L232.63 244.08L234.61 245.8L235 250.96L236.87 251.2L236.21 252.45L235.38 252.78L235.03 253.4L236.15 254.38L236.34 255.72L234.98 257.33L235.44 258.17L234.84 259.3L234.1 259.39L234.69 260.12L233.73 261.67L233.03 261.69L232.55 262.16L232.56 263.82L231.8 264.33L228.3 263.54L224.12 265.83L222.02 265.82L221.02 266.89L219 267.41L218.9 268.77L217.99 268.27L217.07 269.41L214.68 269.78L213.27 269.32L211.28 269.6L211.22 271.62L210.15 272.15L210.37 272.45L209.88 274.18L210.13 275.06L209.74 278.78L204.75 278.97V279.47L203.48 280.71L200.71 279.73L200.31 280.23L200.58 281.36L198.4 281.48L197.3 279.48L197.75 278.86L195.6 278.89L195.19 280.82L194.25 281.25L193.81 282.33L193.04 282.36L192.54 281.08L191.41 280.71L192.3 280.02L192.26 279.4L189.93 278.39L189.66 277.38L187.05 277.41L186.39 277.08L185.99 277.24L185.45 278.27L184.81 278.22L184.05 278.61L181.22 278.06L181 278.91L179.2 279.01L177.72 279.91L177.27 281.81L176.35 282.89L176.36 283.73L172.62 287.03L171.61 285.51L172.01 284.25L169.71 283.21L167.61 283.85L166.83 283.5L166.54 282.5L164.56 283.15L163.62 281.72L161.13 282.19L159.51 281.67L160.22 279.38L159.04 278.75L158.98 277.74L157 277.33L152.41 274.69L151.75 275.12L151.41 276.91L149.29 280.93L149.14 284.05L146.84 283.05L147.26 284.62L146.5 285.32L147.21 286.76L146.83 287.97L148.06 289.27L147.04 291.49L146.54 289.98L144.92 290.73L144.83 293.48L143.09 294.16L142.76 295.41L140.99 295.74L138.7 294.82L138.63 294.22L137.7 293.8L136.35 295.16L134.84 293.88L132.86 294.58L133.11 297.07L131.56 297.7L130.84 297.53L129.71 298.81L129.12 298.48L127.3 299.17L126.53 298.97L126.05 300.54L125.08 301.42L123.9 301.79L122.63 305.2L123.09 306.5L119.1 307.8L118.08 307.23L114.69 308.16L113.6 309.06L113.55 309.84L114.05 310.41L114.26 312.56L113.65 314.6L112 315.28L111.6 316.18L109.85 315.98L108.44 316.43L107.4 314.82L105.73 316.26L103.89 316.43L102.85 315.25L101.95 315.4L101.85 314.02L101.06 313.71L100.01 311.96L97.53 310.92L97.58 308.17L96.19 306.84L94.64 301.15L94.63 299.65L95.78 300.22L96.85 299.12L96.66 298.25L98.33 296.57L98.99 296.93L98.63 294.78L97.98 294.56L98 293.6L97.24 293.11L95.63 294.26L95.08 295.39L93.97 295.36L93.5 296.81L90.95 299.15L89.05 299.46L88.85 299L87.7 298.79L87.64 299.56L86.41 300.4L85.62 299.9L84.86 300.61L85.29 301.45L84.04 301.96L83.3 300.66L82.71 301.13L82.72 302.75L81.75 304.5L82.59 306.25L82.47 306.82L80.51 308.09L79.29 305.59L79.78 302.14L78.39 299.51L77.75 298.91L77.38 296.68L79.9 295.25L79.32 292.61L79.54 290.24L78.42 290L77.45 288.89L76.62 289.23L76.28 288.79L75.32 288.71L74.58 287.06L73.3 286.63L73.92 283.85L71.94 285.78L71.8 285.35L71.21 285.1L70.52 285.45L69.26 284.62L67.72 284.5L67.77 282.67L69.02 281.45L68.86 280.5L69.22 280.22L68 277.11L68.59 277.1L68.51 275.21L68.95 274.84L68.54 274.08L68.06 274.03L68.62 272.82L66.85 272.27L67.61 270.81L67.31 268.61L66.19 267.47L67.17 266.09L65.69 265.54L65.05 263.98L65.3 260.69L64 258.36L64.31 256.75L66.1 255.32L63.46 253.8L65.78 253.06L65.37 249.16L63.02 248.88L60.94 247.05L61.32 245.92L60.29 244.31L57.72 243.74L55.3 240.3L53.37 240.82L53.39 242.68L54.05 244.79L50.84 240.98L51.32 242.81L50.5 244.44L50 247.13L47.39 251.63L46.2 251.69L45 252.68L42.91 250.83L42.22 250.6L40.45 250.96L40.34 254.75L37.32 255.11L38.52 257.39L35.85 259.83L36.35 262.58L34.59 261.86L32.69 257.41L30.88 254.97L29.96 253.2L28.61 249.49L26.31 246.05L26.44 245.12L25.7 244.3L23.02 239.19L23.03 238.76L22.09 237.48L21.8 235.2L20.86 233.22L20.79 232.32L20.02 231.19L18.85 226.55L17.95 224.94L17.04 222.02L15.9 216.02L15 214.81L14.83 213.18L13.64 209.93L13.52 208.83L11.77 206.41L11.6 205.14L10.84 204.08L10.97 203.29L10.19 200.51L8.49 199.08L7.74 197.92L7.81 197.24L6.97 195.68L4.73 193.93L3.72 190.94L3.89 189.79L2.96 189.14L1.71 187.5L1 187.12L1.39 185.55L1.75 185.01L3.79 184.73L4.84 184.06L5.02 183.34L5.59 182.79L6.53 182.32L6.96 182.37L7.28 183.12L7.98 183.06L8.57 181.98L9.15 181.58L9.02 180.12L10.1 179.18L8.57 177.13L8.69 176.31L9.15 176.04L9.82 176.54L10.33 176.44L10.41 175.56L9.88 174.87L11.11 174.71L10.63 173.42L11.69 173.75L12.07 173.53L12.04 171.07L12.46 170.55L13.88 170.82L14.3 170.3L15.1 170.72L15.66 170.06L17.22 169.57L18.1 170.28L18.5 171.07L19.93 171.77L19.73 174.46L20.33 175.46L20.91 175.89L21.57 175.48L22.39 175.58L23.15 175.06L24.02 175.6L24.88 177.12L24.89 178.21L25.66 179.34L25.53 180.52L25.05 181.21L24.16 181.27L23.61 182.29L23.78 183.01L24.61 183.77L24.84 185.24L26.13 185.28L25.68 189.68L27.68 188.96L29.26 189.13L29.8 188.75L30.57 189.02L30.88 190.75L31.84 191.17L32.32 191.18L33.25 190.48L33.83 190.91L34.39 190.42L35.22 190.89L38.7 190.98L40.71 192.34L42.39 194.33L43.18 194.21L44.22 194.85L45.22 194.86L45.66 195.36L46.24 195.25L46.59 194.81L47.46 194.92L47.9 194.42L49.32 194.62L50.1 194.39L50.65 194.84L52.04 194.98L53.09 194.56L54.13 194.71L55.54 193.75L57.29 193.33L58.55 193.57L60.03 193.17L65.65 193.86L66.62 194.49L67.24 195.99L67.83 195.85L68.67 196.57L69.87 197.01L71.47 196.61L72.41 196.1L73.29 195.06L74.58 195.01V194.38L73.73 193.87L73.24 192.42L73.86 190.51L74.66 190.08L75.86 190.34L77.49 190.19L78.89 189.46L79.77 188.35L80.11 186.22L81.11 185.42L81.58 184.07L83.17 183.61L84.96 183.71L86.05 182.77L87.94 183.36L88.41 183.11L88.81 182.17L89.63 181.45L90.51 181.63L92.08 181.05L92.85 181.17L92.94 74.91L94.7 77.04L95.09 77.06L95.51 77.96Z" fill="#C7C7C7" stroke="white" stroke-width="2"/>
<path d="M407.246 133.96L407.416 134.42L409.156 135.3L410.296 134.49L411.716 135L414.336 135.36L425.626 135.54L427.466 135.24L427.196 136.22L426.586 136.49L426.306 137.45L426.496 137.91L427.186 136.39L426.346 141.7L421.876 154.06L421.966 155.18L419.956 163.05L419.636 165.33L419.766 166.53L418.726 172.81L415.326 179.62L415.426 180.84L414.746 183.75L413.706 185.35L404.606 194.28L398.206 196.79L394.886 200.4L393.066 202.95L390.166 205.7L389.356 206.95L387.096 209.25L383.196 214.73L379.826 220.88L379.326 222.47L379.546 223.44L379.976 223.59L379.956 223.9L375.396 229.22L368.666 242.83L362.736 252.57L360.446 255.52L358.366 259.2L357.556 259.83L356.976 259.36L356.686 258.17L355.906 257.68L356.026 256.75L355.506 256.25L355.756 255.47L355.566 254.88L354.926 254.23L354.246 254.17L353.906 252.89L352.836 252.79L352.486 252.29L351.766 252.48L351.526 251.65L350.926 251.41L350.936 250.66L350.046 251L349.366 250.64L348.986 250.17L347.746 249.6L347.376 248.6L346.486 248.53L346.106 249.11L345.846 248.73L344.146 248.31L343.756 247.88L342.226 248.19L341.596 247.54L340.666 247.29L338.716 245.92L337.366 246.52H335.796L335.436 247.01L334.936 247.1L333.156 246.22L328.556 245.03L328.626 243.45L326.636 242.47L326.086 242.68L325.786 244.62L325.286 244.69L322.966 244.22L321.896 242.6L320.706 242.41L320.206 241.29L320.846 240.06L320.016 238.47L320.936 236.23L323.176 237.14L323.876 235.31L325.076 235.63L325.426 234.67L326.416 234.05L326.056 233.13L327.476 232.28L328.476 232.39L329.646 230.86L329.626 229.76L328.606 229.12L327.276 227.41L328.866 226.21L329.486 226.38L329.816 225.55L330.876 225.27L331.006 224.92L330.546 223.43L329.866 222.75L330.546 220.08L330.376 219.11L331.096 218.46L331.246 217.51L331.946 217.37L332.726 216.74L334.146 216.49L334.136 215.33L335.106 214.98L334.406 214.5L334.426 212.3L335.156 211.98L335.506 211.33L337.596 210.56L338.566 208.06L337.956 207.35L338.046 206.3L337.126 205.1L336.666 203.62L335.376 202.06L335.496 200.98L335.176 200.45L334.066 200.09L333.276 200.43L332.426 199.49L332.216 198.69L330.806 198.12L330.116 197.47L328.606 196.97L328.396 195.88L327.236 195.1L326.506 195.24L325.546 194.14L324.316 191.75L323.096 190.69L323.856 188.34L324.746 187.59L324.736 186.44L325.786 185.27L328.436 184.41L330.046 184.61L330.556 184.1L331.556 184.12L331.766 183.73L331.496 182.63L332.466 181.37L334.376 180.87L335.466 179.53L337.306 178.69L339.406 175.95L342.026 175.54L342.636 173.98L343.816 173.13L343.906 171.42L342.816 170.27L342.666 169.43L342.986 168.37L343.786 167.55L343.746 165.82L345.246 162.93L344.696 161.88L344.836 160.09L344.196 158.88V158.34L346.736 156.45L346.376 155L344.996 154.39L345.266 153.4L344.946 153.11L346.486 152.42L347.276 152.79L348.486 150.46L350.616 149.77L351.446 150.29L352.786 150.48L353.886 149.74L356.256 150.45L357.076 149.46L358.216 149.15L359.646 147.96L360.856 147.61L361.706 147.69L362.356 146.93L363.336 147.13L363.506 148.08L363.936 148.24L365.506 148.03L367.476 148.41L369.016 147.31L370.246 147.19L371.576 147.67L372.276 148.38L372.896 148.28L374.066 149.11L375.036 148.29L376.276 148.06L376.506 149L377.316 149.58L379.866 148.97L380.446 149.18L381.156 148.99L382.346 149.94L383.086 150L385.916 146.35L391.416 148.41L403.696 148.45L403.896 141.03L404.696 133.78L406.936 133.65L407.246 133.96Z" fill="#C7C7C7" stroke="white" stroke-width="2"/>
<path d="M259.084 71.58L258.964 74.62L259.924 76.55L263.864 77.1L265.334 76.84L267.114 78.18L268.614 78.28L269.074 77.53L273.134 76.05L273.554 75.46L274.424 75.48L274.554 74.04L275.624 74.01L276.214 78.82L278.084 79.53L278.874 81.04L278.854 81.75L282.354 81.91L283.934 83.88L287.234 83.5L287.784 84.71L288.584 84.99L289.894 83.23L289.814 81.61L290.674 81.07H291.894L292.954 82.12L294.084 81.44L295.844 81.66L295.994 80.05L297.874 80.49L298.104 81.34L297.364 81.35L297.404 81.93L298.494 82.05L298.844 81.43L299.654 81.26L300.504 81.79L302.834 81.96L306.584 83.86L306.134 85.72L304.854 85.79L303.584 84.84L302.594 85.07L302.334 86.41L303.754 86.65L303.894 88.1L306.254 87.84L308.144 90.95V93.71L306.054 94.36L304.674 94.27L304.134 94.82L303.564 94.83L303.324 93.97L304.014 93.74L304.004 93.34L303.184 93.2L302.034 93.66L302.914 97.51L301.754 98.34L301.414 99.38L300.654 99.88L298.574 100.2L299.734 103.13L298.984 103.4L299.394 104.91L298.714 105.34L298.704 105.95L297.514 105.82V106.38L295.454 106.65L293.254 107.38L293.154 106.24L291.824 106.95L290.944 105.73L290.644 104.56L286.124 107.01L286.184 108.99L284.944 114.15L283.444 114.37L283.364 115.46L281.644 115.26L282.554 119.22L280.494 120.59L278.944 122.06L280.044 124.09L280.054 125.44L283.484 124.12L283.244 123.38L286.884 122.57L287.354 122.95L287.664 123.81L290.144 123.72L289.774 124.91L289.514 124.98L289.004 127.4L288.404 127.54L289.304 128.67L288.554 132.82L287.944 132.92L287.934 134.28L286.854 135.98L286.024 136.17L285.374 136.92L285.034 136.95L282.834 134.95L281.984 135.49L280.004 138.09L279.304 138.37L279.024 138.26L279.224 137.51L278.854 137.08L278.354 137.39L277.084 137.16L275.524 137.4L273.784 136.75L273.134 135.59L272.774 135.56L272.384 135.97L272.504 137.8L272.264 138.19L270.814 136.84L269.864 137.72L269.294 137.37L267.824 138.14L266.884 139L266.624 139.92L266.314 139.99L265.924 139.38L264.804 139.63L263.734 140.78L263.684 142.34L262.234 142.16L261.464 143.38L261.114 143.32L260.504 143.92L259.594 143.83L259.274 144.12L259.604 145.14L261.344 147.01L261.354 148.51L260.534 148.82L260.244 149.69L261.984 150.76L261.514 150.91L260.224 150.61L259.504 150.9L257.804 150.63L257.094 151.58L256.344 151.21L255.444 151.49L254.504 152.79L254.534 153.85L253.764 154.06L250.744 156.98L249.944 158.63L250.434 159.55L250.334 160.03L249.404 160.27L249.034 160.04L248.464 157.75L246.584 157.24L245.034 157.32L244.034 156.11L243.394 156.2L240.164 158.04L239.644 158.93L237.634 158.54L236.694 159.41L235.584 159.32L233.414 160.19L231.924 161.33L231.484 162.1L229.534 162.58L228.794 163.61L229.104 164.11L228.844 164.67L227.154 166.21L226.004 166.4L225.144 167.76L225.354 168.56L224.674 169.29L224.434 170.06L222.254 170.65L221.544 171.31L220.994 171.42L218.134 165.78L218.564 165.7L223.454 159.8L223.044 159.55L217.004 159.61L216.844 159.12L217.124 158.47L216.674 158.1L216.514 157.11L216.164 157.28L216.014 157.93L214.524 158L214.044 159.19L214.334 160.15L214.844 160.42L215.064 161.36L214.584 162.08L214.714 163.38L214.304 164.19L213.464 164.47L213.334 165.11L212.604 166L212.884 167.32L212.514 168.58L211.364 169.46L210.764 170.89L209.924 171.29L208.414 169.73L207.744 169.66L208.584 167.87L207.184 166.39L206.644 166.65L206.184 166.3L205.744 165.53L207.834 163.12L207.884 160.25L207.294 159.23L199.254 161.07L198.384 160.22L199.044 157.21L197.454 156.65L197.644 151.87L198.404 149.71L196.474 148.41L195.894 149.51L196.374 151.52L195.424 151.54L194.074 151.01L193.214 152.48L194.154 152.66L194.264 153.13L193.364 153.8L191.354 153.38L190.244 155.29L189.954 155.31L187.314 154.19L186.134 153.05L182.904 153.03L183.274 152.07L182.384 151.1L181.404 151.48L179.564 149.79L178.574 149.45L176.354 149.33L174.424 146.63L173.454 146.04L173.164 145.14L171.464 145.61L170.554 143.92L170.414 142.75L170.764 140.1L171.884 140L172.674 139.53L171.564 138.18L171.464 136.78L170.724 135.27L170.844 134.12L171.754 133.57L170.864 132.24L171.914 129.88L171.174 129.62L169.844 128.39L169.554 128.35L169.184 128.97L168.824 127.98L168.404 127.74L166.934 127.82L166.504 126.91L163.974 127.08L163.044 127L162.824 126.7L162.414 123.25L162.714 122.5L163.044 122.39L162.834 113.81L161.234 113.72L161.394 113.21L162.214 112.66L162.264 111.12L163.624 111.04L163.754 108.86L164.264 108.25L163.454 107.62L163.534 107.27L164.044 107.1L164.074 106.42L165.044 105.83L165.214 105.4L164.124 104.69L164.614 104.3L164.994 102.85L165.664 102.59L166.224 101.77L166.394 100.88L165.864 100.56L165.894 100.03L166.984 99.43L166.064 98.58L167.214 96.33L166.864 95.87L167.464 95.54L168.244 95.76L167.914 95.28L168.504 93.83L170.014 92.76L170.214 91.56L170.994 91.3L171.074 90.27L171.624 90.7L172.404 90.17L172.184 90.95L172.754 91.27L173.214 90.66L173.734 90.48L174.274 90.77L175.924 89.67L176.984 89.82L178.014 89.58L178.444 90.12L178.914 89.85L179.164 90.12L180.054 89.95L180.374 90.41L181.584 90.73L182.274 89.72L182.834 89.73L182.644 90.23L183.734 91.09L183.704 91.87L184.534 91.59L186.104 93.12L186.664 92.78L186.884 93.14L186.674 93.39L187.144 93.67L187.344 94.23L187.864 94.08L187.964 93.73L188.294 94.6L189.154 94.93L189.554 94.61L190.334 95.29L190.654 96.28L192.084 96.71L191.734 97.11L191.854 97.46L192.434 97.49L192.684 98.23L193.564 98.43L194.344 99.78L195.094 100.07L195.964 99.49L196.964 99.69L197.014 100.49L198.284 100.57L198.424 99.87L200.234 99.93L200.804 99.36L200.834 99.89L201.724 99.65L203.534 101.92L204.144 101.88L203.964 102.51L205.104 102.3L205.134 102.89L206.464 103.74L207.784 103.35L208.304 102.91L213.694 105.32L214.604 105.44L215.784 104.99L217.444 105.5L218.994 105.06L220.194 105.15L220.574 104.49L221.484 103.79L222.434 103.5L223.044 102.66L223.954 102.52L225.914 103.56L231.614 103.84L238.024 99.69L239.574 96.32L239.534 95.34L240.724 92.29L241.054 89.93L241.874 88.96L245.074 80.03L245.624 79.48L245.794 77.79L245.134 76.37L245.214 74.94L245.974 74.91L246.904 73.98L249.294 73.9L259.084 71.58Z" fill="#C7C7C7" stroke="white" stroke-width="2"/>
<path d="M557.624 789.86L556.314 792.47L555.564 793.01L553.994 792.21L552.634 792.7L552.194 792.36L551.134 792.71L550.374 792.58L549.634 792.15L549.134 791.27L549.534 790.56L549.574 789.7L550.744 788.55L550.944 788.67L551.054 787.91L551.974 787.01L554.964 787.51L556.034 788.08L557.004 789.64L557.624 789.86ZM559.804 780.83L558.304 781.26L558.344 780.78L556.714 779.34L557.714 778.67L559.154 779.3L559.554 779.2L560.144 780.06L559.804 780.83ZM185.484 348.68L184.234 349.45L182.424 349.51L181.514 349.92L180.424 350.78L180.514 352.43L180.244 352.64L177.814 352.49L176.614 352.07L172.214 352.02L170.824 351.59L169.714 352.13L168.564 351.38L165.564 350.42L164.814 350.22L164.544 350.41L159.954 349.25H159.454L157.404 351.01L156.904 350.92L156.264 351.26L153.134 350.97L150.974 351.17L148.944 352L148.014 353.01L147.694 354.47L149.004 355.24L147.754 355.77L145.114 355.91L143.014 357.03L142.504 358.11L142.604 358.48L143.424 358.79L142.414 359.34L142.324 359.77L142.634 360L141.914 360.16L141.424 360.76L139.964 361.31L136.904 361.75L132.784 360.53L130.394 360.89L129.874 361.19L130.034 361.69L129.654 361.65L129.104 362.29L126.764 363.17L122.204 361.33L118.884 360.79L116.394 361.02L115.054 361.82L114.994 362.21L115.524 363.08L115.374 363.78L114.894 364.24L110.104 363.43L106.764 364.08L105.344 364.68L104.014 365.83L103.314 367.29L101.854 367.9L101.424 368.5L99.1637 369.73L98.9137 370.89L97.1937 371.15L95.0638 372.34L94.2038 373.46L94.2138 374.33L94.6338 374.57L94.4538 374.83L93.6937 374.89L93.2637 375.46L92.6538 375.54L91.7637 374.93L91.2138 374.95L90.9938 374.42L89.6637 373.4L84.8737 373.27L84.4238 373.7L84.5438 373.9L83.5338 374.18L83.2637 373.91L83.6138 373.67L83.3838 373.03L82.7738 373.14L82.4738 372.28L81.2038 371.71L80.6038 370.47L78.5938 369.89L78.2138 368.9L77.6338 368.39L74.4938 369.2L74.8438 368.6L75.4938 368.43L76.1438 366.83L76.7838 366.36L76.1538 364.31L74.9638 362.61L75.3438 362.32L76.0638 362.77L76.3337 362.41L77.0038 362.31L76.8638 362.17L75.1438 362.14L74.6438 362.39L74.0137 362.16L72.6838 363.1L71.7838 362.61L70.1538 362.44L69.9538 362.08L70.2538 361.78L69.5537 360.87L70.3638 360.4L70.1838 360.25L70.5738 359.37L70.0438 359.54L69.3538 360.3L69.4938 360.82L67.9638 360.02L66.8638 360.18L66.1438 360.74L64.6838 360.53L64.3138 361.09L63.4238 360.96L63.4137 361.52L62.8038 361.15L62.5037 361.5L62.0338 360.24L62.5838 359.95L62.1038 358.65L63.1038 357.66L63.2238 357.19L62.2438 355.26L63.5438 354.27L62.1238 352.49L60.9638 351.86L59.5138 351.6L56.8938 351.69L53.8538 352.44L52.3938 353.5L52.0538 355.17L52.8638 355.57L53.4338 356.86L52.9838 359.26L53.3038 359.99L53.9638 360.54L53.3438 360.57L52.8038 359.89L51.8538 359.43L50.8838 357.55L50.6338 355.45L50.1338 354.87L49.7338 354.9L49.2838 353.98L50.1738 353.21L50.0938 352.21L50.5738 351.33L50.4338 350.98L50.0838 350.81L49.8138 351.29L48.9738 350.56L49.5938 350.1L50.0138 348.94L50.6338 348.52L50.5938 347.46L51.3438 346.21L52.1538 346.19L52.4238 346.86L53.2638 346.47L53.6738 345.53L53.6138 344.42L52.6038 342.36L52.3738 339.81L51.3238 337.73L50.7638 337.55L50.2938 336.34L48.9938 335.88L49.1938 334.12L48.4338 332.49L47.1938 331.12L44.7938 329.34L45.1838 328.94L45.1438 328.46L43.5338 325.46L41.2338 323L40.2138 322.61L40.3038 322.11L39.7238 321.64L39.8938 321.28L40.2138 321.39L40.4638 320.41L40.8738 320.52L41.3638 321.31L41.3338 322.09L41.7938 322.3L41.6138 322.8L42.3438 323.13L43.3538 324.57L43.8138 324.6L44.2238 324.19L44.1938 323.95L43.8738 324.22L43.1538 323.69L43.3538 322.82L41.7838 321.54L42.1038 319.9L41.7738 319.13L40.7738 318.27L40.3038 318.24L39.6138 318.59L39.4137 319.57L38.7738 319.9L38.2238 319.68L38.4638 318.83L37.6538 318.09L37.9538 317.61L37.9738 317.11L37.7038 317.04L38.0238 316.83L38.0138 316.38L37.8238 315.88L37.3438 315.67L37.9538 314.17L36.9538 312.99L38.5138 312.17L38.3238 310.45L38.9438 309.93L38.9538 309.55L39.7438 309.81L40.1338 309.11L40.5938 309.21L40.5037 309.96L41.5338 310.4L41.4038 310.68L42.4738 311.72L44.3838 311.51L47.4638 308.44L48.9538 305.62L49.4838 303.9L49.7238 301.74L49.1637 297.41L49.7738 297.34L49.9938 296.3L48.8538 291.31L48.7638 290.61L49.1738 290.31L49.1838 289.92L47.9038 285.9L48.2838 284.61L47.1538 282.36L46.8638 280.15L44.4038 276.26L44.0238 275.06L38.3838 268.04L37.8238 267.13L37.8638 265.9L37.4938 265.29L35.6438 263.46L34.5938 261.85L36.3538 262.57L35.8538 259.82L38.5238 257.38L37.3238 255.1L40.3438 254.74L40.4538 250.95L42.2238 250.59L42.9137 250.82L45.0037 252.67L46.1938 251.69L47.3838 251.63L49.9938 247.13L50.4938 244.44L51.3138 242.81L50.8338 240.98L54.0438 244.79L53.3838 242.68L53.3638 240.82L55.2938 240.3L57.7138 243.74L60.2838 244.31L61.3138 245.92L60.9338 247.05L63.0138 248.88L65.3638 249.16L65.7738 253.06L63.4538 253.8L66.0938 255.32L64.3038 256.75L63.9938 258.36L65.3037 260.69L65.0537 263.98L65.6937 265.54L67.1738 266.09L66.1937 267.47L67.3138 268.61L67.6138 270.81L66.8538 272.27L68.6237 272.82L68.0638 274.03L68.5438 274.08L68.9538 274.84L68.5137 275.21L68.5938 277.1L68.0038 277.11L69.2238 280.22L68.8638 280.5L69.0238 281.45L67.7738 282.67L67.7238 284.5L69.2637 284.62L70.5238 285.45L71.2138 285.1L71.8037 285.35L71.9437 285.78L73.9238 283.85L73.3037 286.63L74.5837 287.06L75.3238 288.71L76.2838 288.79L76.6237 289.23L77.4538 288.89L78.4238 290L79.4938 290.23L79.2738 292.6L79.8538 295.24L77.3337 296.67L77.7038 298.9L78.3438 299.5L79.7337 302.13L79.2438 305.58L80.4638 308.08L82.4238 306.81L82.5438 306.24L81.7038 304.49L82.6738 302.74L82.6637 301.12L83.2538 300.65L83.9938 301.95L85.2438 301.44L84.8138 300.6L85.5738 299.89L86.3638 300.39L87.5938 299.55L87.6538 298.78L88.8037 298.99L89.0038 299.45L90.9038 299.14L93.4538 296.8L93.9238 295.35L95.0338 295.38L95.5837 294.25L97.1937 293.1L97.9538 293.59L97.9338 294.55L98.5837 294.77L98.9437 296.92L98.2838 296.56L96.6138 298.24L96.8037 299.11L95.7337 300.21L94.5837 299.64L94.5938 301.14L96.1438 306.83L97.5338 308.16L97.4837 310.91L99.9638 311.95L101.014 313.7L101.804 314.01L101.904 315.39L102.804 315.24L103.844 316.42L105.684 316.25L107.354 314.81L108.394 316.42L109.804 315.97L111.554 316.17L111.954 315.27L113.604 314.59L114.214 312.55L113.994 310.4L113.494 309.83L113.544 309.05L114.634 308.15L118.024 307.22L119.044 307.79L123.034 306.49L122.574 305.19L123.844 301.78L125.024 301.41L125.994 300.53L126.474 298.96L127.244 299.16L129.064 298.47L129.654 298.8L130.784 297.52L131.504 297.69L133.054 297.06L132.804 294.57L134.784 293.87L136.294 295.15L137.644 293.79L138.574 294.21L138.644 294.81L140.934 295.73L142.704 295.4L143.034 294.15L144.774 293.47L144.864 290.72L146.484 289.97L146.984 291.48L148.004 289.26L146.774 287.96L147.154 286.75L146.444 285.31L147.204 284.61L146.784 283.04L149.084 284.04L149.234 280.92L151.354 276.9L151.694 275.11L152.354 274.68L156.944 277.32L158.924 277.73L158.984 278.74L160.164 279.37L159.454 281.66L161.074 282.18L163.564 281.71L164.504 283.14L166.484 282.49L166.774 283.49L167.554 283.84L169.654 283.2L171.954 284.24L171.554 285.5L172.564 287.02L176.304 283.72L176.294 282.88L177.214 281.8L177.664 279.9L179.144 279L180.944 278.9L181.164 278.05L183.994 278.6L184.754 278.21L185.394 278.26L185.934 277.23L186.334 277.07L186.994 277.4L189.604 277.37L189.874 278.38L192.204 279.39L192.244 280.01L191.354 280.7L192.484 281.07L192.984 282.35L193.754 282.32L194.194 281.24L195.134 280.81L195.544 278.88L197.694 278.85L197.244 279.47L198.344 281.47L200.524 281.35L201.024 282.22L200.474 282.24L200.614 283.1L199.974 283.02L199.244 284.79L200.654 284.54L201.694 285.33L201.444 285.66L202.024 286.13L200.874 287.85L199.774 287.59L199.324 288.28L199.864 288.58L199.884 289.32L198.874 289.4L198.964 290.52L199.754 290.59L199.744 291.56L198.574 292.51L197.324 292.34L197.444 293.09L193.424 295.27L192.244 295.05L191.794 293.99L190.274 293.15L189.854 293.72L187.734 294.94L187.154 296.57L187.844 297.34L187.534 297.94L181.994 297.78L180.894 299.33L179.204 298.58L178.864 299.34L176.164 300.73L176.774 301.84L176.594 303.33L177.714 304.08L178.384 307.05L177.934 307.56L177.214 307.77L179.114 309.07L179.434 310.76L180.374 311.26L180.194 313.04L177.544 312.21L175.384 311.9L173.964 313.5L172.354 311.33L173.124 314.07L172.774 314.63L170.824 314.57L170.554 315.3L169.144 316.62L169.484 318L168.574 318.83L169.304 319.66L169.104 321.21L167.654 322.62L166.694 325L166.194 325.23L164.604 328.17L163.664 328.33L163.734 329.9L164.234 330.79L168.064 331.19L171.754 330.23L172.184 330.63L173.774 330.29L178.324 330.44L179.134 331.73L183.194 331.81L183.444 332.38L185.654 333.49L185.864 335.83L187.734 337.48L187.594 338.67L185.494 338.89L184.764 338.42L184.184 339.41L181.434 340.45L181.394 341.53L180.234 342.55L182.794 343.04L183.534 342.38L184.764 342.56L184.854 344L188.534 345.38L186.994 347.42L187.304 348.8L185.484 348.68Z" fill="#C7C7C7" stroke="white" stroke-width="2"/>
</svg>
