<svg width="55" height="72" viewBox="0 0 55 72" fill="none" xmlns="http://www.w3.org/2000/svg">
    <path d="M9.67999 7.84L9.79001 8.01001L10.01 8.20999H10.11L10.31 8.32999L10.62 8.57999L10.82 8.94L10.8 9.04001L10.91 9.10999V9.17999L11.01 9.28L10.98 9.32001L11.06 9.51999L11.17 9.57001L11.23 9.73001L11.27 9.78L11.25 9.89999L11.36 10L11.32 10.12L11.38 10.23V10.35L11.48 10.39L11.55 10.62L11.62 10.72L11.69 10.87L11.71 11.34L11.81 11.5L11.59 11.88L11.44 12.06L11.37 12.2L11.27 12.29L11.23 12.47V12.61L11.28 12.71V12.81L11.23 12.98L11.25 13.16L11.31 13.33L11.4 13.43L11.44 13.53L11.84 13.31L11.98 13.29L12.18 13.39L12.52 13.47L12.8 13.4H12.94L13.14 13.35H13.33L13.43 13.41H13.66L13.81 13.45L13.92 13.43L14.06 13.34L14.12 13.25V13.03L14.15 12.96L14.29 12.93H14.53L14.68 12.88L14.83 12.8L14.96 12.68L15.06 12.53L15.18 12.23L15.34 12.06L15.54 12L15.67 11.88L15.77 11.76L15.9 11.7H16.05L16.13 11.55L16.24 11.43L16.36 11.29L16.33 11.21L16.48 11.11L16.5 10.94L16.46 10.86L16.59 10.69L16.54 10.59V10.5L16.69 10.32L16.7 10.16L16.76 10.11L16.72 10.02L16.79 9.76999L16.91 9.69L16.99 9.54001L17.08 9.48001L17.18 9.32001L17.31 9.29999L17.36 9.35999L17.6 9.25L17.84 9.20001L18.09 9.26999L18.32 9.25L18.43 9.38L18.58 9.45001L18.84 9.64999L18.89 9.70999L19.03 9.73999L19.12 9.85001L19.19 9.89001L19.29 9.98999L19.48 10.17L19.61 10.13L19.74 10.23L19.99 10.16H20.13L20.24 10.22L20.41 10.42L20.52 10.49L20.63 10.51L20.8 10.47L21.1 10.58L21.24 10.66L21.32 10.68L21.51 10.66L21.65 10.69L21.92 10.63L22.08 10.51L22.28 10.46L22.6 10.53L23.11 10.47L23.29 10.39L23.62 10.14L23.67 9.98999L23.81 9.66L23.89 9.32001L24.11 8.84L24.16 8.67001L24.24 8.54001V8.44L24.34 8.20001L24.31 7.82999L24.43 7.79001H24.56L24.67 7.72L25.35 7.51999L25.46 7.5L25.66 7.53L25.81 7.35999L25.9 7.14999L25.96 7.07001L26.19 6.91L26.41 6.69L26.64 6.62L26.75 6.51001L26.81 6.17001L26.99 5.47V5.34L27.05 5.22V5.12L27.15 4.92001L27.22 4.98001L27.32 4.95001L27.29 4.81L27.41 4.70001L27.45 4.60999H27.65L27.64 4.51999L27.83 4.44L28 4.25L28.03 4.35001L28.15 4.25L28.39 4.23001L28.5 4.17001L28.54 4.01999L28.64 3.79001L28.74 3.82001L28.87 3.73999L29.01 3.81L29.05 3.67999V3.57999L29.16 3.5L29.36 3.42999L29.49 3.31L29.47 3.14001L29.68 3.03L29.75 2.95001V2.79999L29.88 2.75L30.03 2.60001V2.47L30.11 2.37L30.24 2.32001L30.34 2.22L30.47 2.14001L30.77 2.10001L30.93 2.14001L31.02 2.07999H31.17L31.44 1.95001L31.66 1.89001L31.72 1.79001H31.89L32.03 1.60001L32.02 1.42001L32.22 1.20001L32.53 1.17999L32.65 1.07999L32.94 1.12L32.98 1.10001L33.05 1.12L33.25 1.03L33.43 1.06L33.47 1H33.61L33.75 0.940002L33.99 0.950012L34.19 1.06L34.46 1.13L34.63 1.20999L34.93 1.38H35.19L35.35 1.48999L35.43 1.51001L35.62 1.48999L35.85 1.42001L36.09 1.42999L36.17 1.48001L36.33 1.39999L36.59 1.38L36.69 1.35999L36.91 1.39001L37.35 1.48001L37.49 1.45999L37.62 1.56H37.75L37.81 1.64999L37.78 1.69L38.42 3.64999V3.72L38.38 4.32001L38.45 4.51999L38.68 4.76999L38.73 4.87L38.83 5.20999L38.93 5.42999L39.01 5.51999L39.17 5.63L39.21 5.70999L39.23 6.17001L39.24 6.28L39.47 6.76999L39.54 6.97V9.48999L39.5 9.60999V9.76999L39.54 9.97V10.22L39.46 10.32L39.34 10.58V10.74L39.46 11.04L39.3 11.11H39.17L38.16 10.47L38.01 10.45L37.85 10.5L37.38 10.92L37.18 11.42L37.01 11.72L36.59 12.21L36.54 12.41L36.55 13.06L36.59 13.31H36.67L36.79 13.21L36.84 13.37L36.99 13.59L36.95 13.76L37.02 13.92L37.28 14.14L37.39 14.31L37.47 14.38L38.22 14.62L38.39 14.66H39.49L39.45 14.51L39.42 14.1L39.55 13.39V13.31H39.75L39.86 13.4H40.13L40.44 13.44L41.79 13.41L41.76 13.52L41.72 13.86L41.66 14.16L41.56 14.26L41.51 14.51L41.25 15.21L41.04 16.18L41.06 16.3L40.95 16.97L40.93 17.01L40.71 17.33L40.69 17.44L40.62 17.53L40.64 17.66L40.52 18L40.3 18.2L40.13 18.32L40.05 18.42L39.78 18.65L39.72 18.61L39.56 18.67L39.61 18.75V18.85L39.29 19L39.19 19.02L38.99 18.99L38.95 19.11L38.47 19.64L38.3 19.77L38.14 20L37.99 20.11L37.96 20.19L37.55 20.72L37.22 21.35L37.2 21.45L37.22 21.57H37.12L37.14 21.74L36.89 21.96L36.69 22.26L36.55 22.57L36.19 23.17L36.11 23.37L36 23.47L35.57 24.23L35.39 24.41L35.31 24.57L34.9 25.1L34.83 25.14L34.75 25.31L34.62 25.45L34.26 25.79L34.06 25.85L33.93 25.95L33.69 26.23L33.58 26.28L33.46 26.4L33.25 26.5L33.11 26.53L33.08 26.67L32.99 26.72L32.96 26.83L32.76 27.03L32.64 27.25L32.48 27.32L32.35 27.54L32.04 27.86L31.79 28.19L31.63 28.31L31.15 28.72L31.02 28.87L30.98 28.96L30.71 29.16L30.52 29.27V29.32L30.14 29.54L30.01 29.58L29.89 29.72L29.85 29.85L29.55 30.11L29.47 30.15L29.35 30.28L29.2 30.39L28.95 30.47L28.65 30.77L28.47 30.82L28.37 30.93L28.07 31.16L27.97 31.22L27.7 31.39L27.48 31.5L27.38 31.63L27.31 31.65L27.09 31.76L26.93 31.78L26.8 31.9L26.62 31.93L26.25 32.09L26.17 32.16L25.92 32.26L25.72 32.3L25.5 32.28L25.36 32.3L25.2 32.23L24.86 32.17L24.53 32.14L24.3 32.18L24.11 32.25L23.84 32.38L23.74 32.55L23.7 32.81L23.84 32.91L23.91 33.02L23.64 33.1L23.36 33.03L23.18 33.05L23.02 33L22.84 32.9L22.64 32.85H22.41L22.04 32.92L21.94 32.99L21.97 33.09L21.9 33.21L21.76 33.32L21.8 33.48L21.72 33.54L21.64 33.47H21.47L21.27 33.42L21.12 33.46L20.86 33.4L20.61 33.26L20.31 33.22L20.08 33.11L19.63 33.08L19.47 33.02L19.2 33L18.76 32.9H18.65L18.25 32.99L18.15 33.04L18.07 33.14L18.19 33.26L17.14 33.16L17.03 33.19L16.82 33.13L16.68 33.05V32.93L16.5 32.9L16.6 33.05L16.26 32.95H16.1L15.92 33.06L15.71 33.14L15.37 33.12L15.16 33.17L15 33.29L14.98 33.5L14.65 33.55L14.49 33.65V33.78L14.43 33.9L14.17 34.03L13.94 34.05L13.69 34L13.59 33.95H13.49L13.29 34L13.24 34.06L13.07 34.13H12.85L12.45 34L12.11 33.95L11.99 33.96L11.77 34.06L11.87 34.19L11.81 34.27L11.36 34.19L11.02 34.23L10.83 34.34L10.69 34.51L10.41 34.69L10.24 34.84L10.08 34.89L9.89001 35.03L9.82001 35.12L9.85999 35.19L9.75 35.25L9.60001 35.23L9.35999 35.06H8.95999L8.82999 35.12L8.66 35.01L8.45999 34.81L8.34 34.75L8.22 34.64L7.97 34.66L8.12 34.46V34.36L7.98001 34.13L7.92001 34.1L7.75 34.13H7.59L7.51999 34.07L7.44 33.92L7.25 33.91L6.92001 33.97L6.82001 34.03L6.75 33.97L6.76001 33.77L6.82999 33.63L6.78 33.48L6.88 33.38L6.76001 33.23L6.57999 33.18L6.35999 33.15H6.12L5.92001 33.27L5.84 33.36L5.92999 33.65L5.91 33.83L5.85001 33.9L5.75 33.8L5.67999 33.66L5.69 33.57L5.60999 33.46L5.53 33.4L5.59 33.29V33.18L5.53 33.04L5.60999 32.91L5.66 32.75L5.75 32.68H5.92001L5.95001 32.58L5.89999 32.46L5.82001 32.12L5.70001 31.92L5.54001 31.75L5.5 31.5L5.37 31.34L5.10001 31.16L5.10999 31.06L4.92999 30.73L4.82001 30.63L4.72 30.58L4.62 30.45L4.75 30.43L4.82001 30.56L4.98999 30.73L5.04001 30.69L4.98001 30.57L4.82999 30.43L4.84 30.31L4.73001 30.18L4.53 30.3L4.42999 30.12L4.45999 30.08L4.39001 29.88L4.45001 29.8L4.37 29.7L4.48999 29.55L4.5 29.41L4.66 29.35L4.82999 29.53L4.94 29.56L5.12 29.48L5.42001 29.19L5.51999 28.99L5.57001 28.77V28.47L5.51999 28.35L5.59 28.24L5.60001 28.13L5.51001 27.76L5.48001 27.46L5.42001 27.28V27.1L5.32001 26.93L5.26999 26.66L5.17001 26.48L5.04999 26.33L4.92001 26.12L4.81 26L4.76001 25.9L4.64999 25.8L4.54001 25.66L4.47 25.6L4.42001 25.4L4.29001 25.29L4.04001 24.87L3.95999 24.7L3.79001 24.48L3.64999 24.21L3.57999 23.98L3.37 23.67L3.38 23.56L3.31 23.49L2.95001 22.87L2.89999 22.59L2.76001 22.37L2.66 21.95L2.51001 21.62L2.39001 21.19V21.04L2.29001 20.77L2.26999 20.67L2.09 20.17L1.97 20.01L1.81 19.58L1.78 19.42L1.62 19.28L1.54001 19.11L1.42999 18.96L1.26001 18.82L1.14999 18.42L1.09 18.41L1.04001 18.29L0.940002 18.19L0.980011 18.05L1.25 17.93L1.44 17.74L1.51999 17.84L1.60999 17.8L1.67001 17.7L1.70001 17.54L1.76001 17.5L1.66 17.27L1.78 17.1L1.88 17.06L1.84 16.96L1.97 16.95L1.98999 16.72L2.35999 16.61L2.48999 16.59L2.59 16.73L2.72 16.83V17.07L2.85999 17.15L3.01999 17.12H3.12L3.17999 17.34L3.25 17.5L3.22 17.63L3.07001 17.74V17.82L3.17001 18.02L3.29001 18.1L3.25 18.33V18.41H3.35001L3.70001 18.34L3.73999 18.37L3.76001 18.54L3.89999 18.59L4.10999 18.53L4.53 18.62L4.69 18.7L4.85001 18.82L5.14999 18.93L5.5 18.88L5.73001 18.93L5.92999 18.87L5.97 18.9L6.12 18.84L6.59 18.78L7.10999 18.84L7.23999 19.01L7.38 19.03L7.42999 19.1L7.63 19.06L7.76999 18.99L7.95001 18.85L7.85001 18.71V18.6L7.95001 18.45L8.04001 18.5L8.31 18.43L8.42001 18.33L8.5 18.11L8.64999 17.93L8.69 17.91H8.94L9.07999 17.82L9.28 17.79L9.45001 17.67L9.67999 17.64V14.59V7.84ZM32.06 18.95L31.93 18.82L31.81 18.65L31.72 18.57L31.58 18.53L31.46 18.36H31.36L31.27 18.11L31.17 18.05L30.97 18.15L30.62 18.18L30.52 18.24L30.41 18.39L30.3 18.42L30.19 18.39H30L29.86 18.59L29.66 18.81L29.55 18.89L29.48 18.82H29.39L29.33 18.94L29.27 18.98L28.99 18.95L28.86 19.18L28.78 19.28V19.39L28.65 19.57L28.42 19.82L28.44 19.91L28.24 20V20.11L28.14 20.19L28.15 20.28L28.03 20.41L27.98 20.53H27.91L27.85 20.63L27.72 20.69L27.42 20.79L27.16 20.89L27.12 21.01L27.25 21.1L27.35 21.24L27.62 21.86L27.78 22.01L27.9 22.28L28.07 22.31L27.97 22.51L28.03 22.77L28.26 22.78L28.35 22.92L28.58 23.16L28.62 23.26L28.76 23.36L28.9 23.51L28.97 23.56L29.17 23.6L29.27 23.58L29.46 23.67L29.75 23.69L29.83 23.5L29.92 23.41L29.96 23.29L29.94 23.13L30.15 22.97L30.2 22.82L30.1 22.74L30.15 22.64L30.32 22.59L30.46 22.47L30.51 22.36L30.62 22.3L30.74 22.32L30.92 22.24L31.2 22.28L31.42 22.2L31.59 22.17L31.75 22.1L32.33 21.75L32.45 21.7L32.43 21.51L32.36 21.45L32.38 21.25L32.5 21.02L32.57 20.96L32.79 20.87V20.53L32.86 20.47L33.06 20.39L33.17 20.13L33.13 20.07L33.1 19.93L33.04 19.84L32.98 19.71L32.88 19.59V19.45L32.61 19.39L32.41 19.19L32.24 19.11L32.2 19L32.06 18.95ZM53.66 70.82H53.82L54.05 70.87L54.17 70.99L54.22 71.1L54.1 71.23H53.54L53.48 71.17L53.44 71.06L53.66 70.82ZM54.15 70.22L54.16 70.15L54.36 70.1L54.44 70.16V70.25L54.35 70.27L54.15 70.22Z" fill="#D1DBDD" stroke="black" stroke-width="0.2" stroke-linecap="round" stroke-linejoin="round"/>
</svg>
