<svg width="57" height="47" viewBox="0 0 57 47" fill="none" xmlns="http://www.w3.org/2000/svg">
    <path d="M32.66 23.82L32.57 23.73L32.52 23.61H32.6L32.79 23.7L32.66 23.82ZM38.61 25.28L38.71 25.44L38.64 25.46L38.57 25.34L38.61 25.28ZM41.49 1.77V1.89999L41.59 1.97L41.61 2.05L41.79 2.00999L41.86 2.05L41.88 2.16H42L42.07 2.07001L42.31 2.14999L42.4 2.13L42.46 2.19V2.31L42.41 2.53L42.25 2.69L42.38 2.82001L42.52 2.84L42.58 2.78999L42.6 2.64999L42.79 2.78999L42.92 2.81L43.09 2.91H43.19L43.39 2.97L43.51 3.06L43.81 3.10001L44.01 3.07001L44.07 3.09L44.14 3.31H44.21L44.34 3.38L44.56 3.61L44.69 3.50999L44.82 3.56H44.9L45.08 3.46001L45.19 3.44L45.34 3.52L45.37 3.57001L45.55 3.60001L45.66 3.78999L45.86 3.88L46.38 3.75L46.55 3.8L46.64 3.92L46.84 3.78L46.92 3.88H47.56L47.62 3.78L47.55 3.61L47.59 3.41L47.76 3.39999L47.99 3.44L48.24 3.57001L48.61 3.61L48.71 3.64999L48.78 3.78999H49.23L49.34 3.88L49.51 4.14999L49.47 4.32001L49.57 4.42L49.46 4.47L49.56 4.63L49.71 4.64999L49.81 4.58L50.03 4.53999L50.07 4.45L50.21 4.42999L50.26 4.47L50.42 4.48L50.62 4.60001L50.75 4.62L50.84 4.83L50.92 4.89L51.06 4.88L51.27 4.67999L51.39 4.7L51.61 4.64999L51.87 4.75999L51.98 4.78999L52.09 4.91L52.24 4.96001L52.3 4.88L52.58 4.92L52.52 4.81L52.64 4.72L52.84 4.71001L53.04 4.60001L53.17 4.58L53.25 4.53H53.5L53.59 4.64L53.69 4.66L53.87 4.64L53.86 4.84L53.92 4.91H54.04L54.2 4.97L54.14 5.14999L54.07 5.21001H53.95L53.8 5.16L53.71 5.27L53.72 5.50999L53.85 5.60001L53.95 5.73L53.9 5.83L53.94 5.95L54 6.03L53.9 6.25999L53.79 6.39H53.71L53.61 6.45L53.59 6.53L53.29 6.72L53.25 6.78999L53.05 6.83L52.9 6.92L52.87 6.99001L52.55 7.09L52.05 7.32001L51.85 7.45L51.67 7.53L51.53 7.66L51.41 7.86L51.25 8.00999L51.08 8.09L50.81 8.13L50.57 8.2H50.47L50 8.33L49.78 8.35001L49.16 8.55L48.98 8.59L48.9 8.72L48.8 8.69L48.58 8.72L48.42 8.78L48.14 9.03999L48 9.2L47.73 9.45L47.68 9.53999L47.82 9.59L47.86 9.53999L48.12 9.75999L48.06 9.87L47.91 9.91L47.84 9.96001L47.72 10.13L47.64 10.19L47.49 10.22L47.42 10.14L47.68 10.12L47.78 9.98H47.66L47.45 10.04L47.32 10.16L47.22 10.42L47.08 10.58L46.83 11.02L46.61 11.24L46.47 11.35L46.31 11.62L46.12 11.76L45.94 12.05L45.72 12.3L45.47 12.69L45.44 12.84L45.28 13.03L45.15 13.26L45.14 13.37L45.16 13.64L45.2 13.84L45.43 14.24L45.35 14.28L45.43 14.54L45.65 14.91L45.93 15.15L46.23 15.2L46.35 15.26L46.41 15.37L46.53 15.48L46.16 15.75L46.1 15.83L45.92 15.87L45.81 15.94V16.07L45.73 16.12L45.45 16.17L45.37 16.21L45.13 16.31L44.97 16.47L44.92 16.62H44.84L44.78 16.7H44.68L44.66 16.8L44.7 17.07L44.44 17.16L44.34 17.34L44.33 17.7L44.17 17.83L43.93 18.33L43.84 18.37V18.47L43.94 18.63L44.08 18.71H44.19V18.76L43.88 18.89H43.78L43.65 18.95L43.55 18.89L43.29 18.87L43.05 18.99L43.02 18.93L42.87 18.89L42.81 18.94H42.67L42.44 19.09L42.3 19.17L42.25 19.3L41.92 19.41L41.8 19.51L41.66 19.73L41.44 19.95L41.33 20.32L41.22 20.58V20.69L40.97 20.86L40.95 20.98L40.84 21.08L40.8 21.18L40.67 21.3L40.56 21.32L40.48 21.3L40.28 21.09L40.08 21.01L39.9 21.07L39.78 21.03L39.55 21.09L39.43 21.31L39.34 21.42L39.1 21.46L38.94 21.36L38.84 21.39L38.77 21.29L38.66 21.25L38.52 21.3L38.3 21.25L38.1 21.28L37.92 21.24L37.67 21.28L37.46 21.41H37.3L37.21 21.34L37.12 21.37L37 21.27L36.83 21.29L36.67 21.33L36.4 21.25L36.1 21.32L35.86 21.26L35.73 21.33L35.45 21.37L35 21.33L34.92 21.37L34.7 21.74L34.54 21.76L34.47 21.88L34.36 21.95L34.2 21.99L33.75 21.95L33.53 22.1H33.36L33.25 22.17L33.05 22.23L32.95 22.38L32.88 22.54L32.68 22.86V22.99H32.62L32.6 22.93L32.45 22.88L32.42 23.08L32.45 23.16L32.41 23.23L31.99 23.37L31.95 23.29L31.8 23.21L31.74 23.23L31.54 23.15L31.44 23.04L31.23 22.87L31.07 22.89L30.94 22.86L30.77 22.6L30.63 22.53L30.57 22.34L30.49 22.25L30.39 22.03H30.48L30.44 21.76L30.3 21.65L30.13 21.62L30.05 21.58L29.95 21.35V21.25L30.13 21.15L29.99 21.01L29.91 20.81L29.78 20.66L29.18 20.26L29.01 20.19L28.81 20.07L28.71 19.87L28.64 19.9L28.68 20.05L28.46 19.95L27.73 19.96L27.63 20.02L27.5 20L27.46 19.8L27.43 19.43L27.36 19.13L27.26 19.02L27.22 18.91L27.37 18.71L27.4 18.54L27.48 18.39L27.7 18.21L27.77 18.1L27.87 17.82V17.74L27.97 17.68H28.17L28.23 17.56L28.48 17.61L28.67 17.1H28.47L28.37 17.16H28.27L28.22 17.12L28.12 16.89L27.75 16.44L27.64 16.38L27.7 16.31L27.68 16.24L27.75 16.06L27.86 15.92L27.82 15.82V15.6L27.86 15.54L28.09 15.38L28.16 15.29L28.28 15.27L28.4 15.19L28.38 15.05L28.48 14.93L28.6 14.73L28.53 14.53L28.44 14.45H28.31L28.22 14.48L28.12 14.44V14.27L27.92 14.2L27.87 14.1L27.92 13.98L27.72 13.78V13.65L27.76 13.43L27.54 13.33L27.5 13.23L27.41 13.21L27.25 13.04L27.15 12.79L27.69 12.81L27.95 12.77L28.09 12.8L28.46 12.77L28.51 12.69L28.56 12.51L28.53 12.43L28.65 12.34L28.73 12.23V12.08L28.83 11.82L28.65 11.54L28.5 11.5L28.43 11.32L28.48 11.21L28.65 11.11H28.79L28.89 10.97L29.01 10.87L29.05 10.8L28.9 10.65V10.55L29 10.38V10.28L28.92 10.18V10.1L29.01 9.95L28.95 9.64999V9.38L28.92 9.27L28.82 9.05L28.68 8.86L28.77 8.74001H28.99L29.13 8.58V8.46001L29.26 8.32001L29.42 8.11H29.62L29.79 8.03L29.96 7.89999L30.09 7.73L30.23 7.66L30.32 7.53V7.46001L30.52 7.21001L30.35 7.03999L30.12 6.92999L29.88 6.89999L29.75 6.98L29.65 6.89999L29.59 6.7L29.63 6.63L29.73 6.33L29.59 6.28L29.61 6.16L29.57 6.06L29.4 6.13L29.14 6.11L29.05 6L28.97 5.98L28.9 6.10001H28.68L28.57 6.03L28.41 6.10001L28.19 5.97L28.04 6.03999V6.22L27.92 6.34L27.74 6.39L27.54 6.42999L27.44 6.5L27.37 6.37L27.27 6.34L27.22 6.39999L27.08 6.46001L27 6.42999L27.03 6.31H26.9L26.74 6.23L26.67 6.27L26.42 6.3L26.32 6.36L26.23 6.2L26.19 6.32001L26.08 6.34L25.93 6.48L25.82 6.5H25.6V6.36L25.48 6.25999L25.5 6.16L25.6 6.03999L25.78 5.89999L25.82 5.8L25.71 5.7L25.57 5.74001L25.54 5.67V5.55L25.5 5.47L25.31 5.53999L25.19 5.63L24.81 5.67999L24.63 5.75999L24.49 5.77L24.39 5.92999L24.18 6.03L24.12 6.13L23.98 6.19L23.87 6.21001L23.82 5.63L23.85 5.55H24L24.04 5.34L24.14 5.27L24.49 5.02L24.44 4.92L24.37 5.03L24.07 5.16H23.9L23.99 4.91H24.12L24.24 4.75999L24.4 4.66L24.34 4.61L24.17 4.71001L24.03 4.73L23.9 4.69L23.87 4.59L23.73 4.49001L23.87 4.44L23.93 4.55H24L24.03 4.42999L24 4.23L24.12 4.11L24.15 4.00999H23.95L23.87 4.11L23.81 4.06L23.64 4.19L23.53 4.34L23.48 4.2L23.38 4.14999L23.48 3.95L23.49 3.81L23.55 3.73L23.66 3.67999L23.76 3.56L23.49 3.53999L23.36 3.66L23.28 3.63L23.23 3.5L23.29 3.39999L23.21 3.36V3.17L23.01 3.11L22.89 3.25L22.83 3.14999L22.94 2.88L22.89 2.83L22.96 2.66L23.02 2.59L23.09 2.62L23.16 2.50999L23.02 2.46001L23.22 2.32001L23.32 2.36L23.42 2.34L23.55 2.2L23.6 2.24001L23.73 2.22L23.64 2.06L23.97 1.89999L24.1 1.98L24.33 2.05L24.58 1.95L24.66 1.98L24.8 1.92L24.95 1.78999L25.09 1.77L25.17 1.87L25.2 1.74001L25.28 1.71001L25.39 1.77L25.43 1.86L25.55 1.94L25.53 1.64H25.39L25.34 1.53999L25.22 1.50999L25.29 1.28L25.47 1.17999L25.84 0.949997L25.91 0.779999H26.02L26.17 0.720001L26.27 0.619995H26.35L26.4 0.720001L26.29 0.899994H26.4L26.38 0.809998L26.62 0.679993L26.77 0.619995L26.95 0.690002L27.03 0.839996L27.09 0.759995L27.19 0.710007L27.31 0.729996L27.63 0.869995L27.78 1.12L27.98 1.21001L28.15 1.24001L28.35 1.21001L28.45 1.25999L28.68 1.22H29.11L29.28 1.24001L29.41 1.17999H29.54L29.77 1.28L30.12 1.21001H30.25L30.48 1.13L30.58 1.19L30.86 1.21001L30.97 1.14999H31.27V1H31.37L31.4 0.929993L31.56 1L31.76 1.2L31.96 1.25L32.46 1.23L32.54 1.25L32.59 1.36L32.67 1.3L32.81 1.32001L33.07 1.45H33.29L33.57 1.55L33.63 1.50999L33.93 1.57001L34.18 1.67L34.74 1.71001L34.81 1.77L34.92 1.71001L35.04 1.77L35.11 1.72L35.22 1.73L35.54 1.7L35.76 1.61H35.93L36.2 1.48H36.29L36.44 1.42999L36.58 1.48L36.39 1.58L36.5 1.63L36.57 1.56L36.65 1.59L36.71 1.48L37.04 1.36H37.11L37.33 1.56L37.35 1.69L37.51 1.64L37.83 1.71001L38 1.77L38.05 1.82001L38.21 1.86L38.27 1.82001L38.47 1.94L38.42 1.8L38.6 1.69L38.67 1.61H38.87L39.1 1.56L39.3 1.7L39.33 1.69L39.78 1.8L39.83 1.88L40.06 1.98L40.27 2.00999L40.5 1.98L40.54 2.03999L40.74 2.00999L40.99 1.94L41.09 1.89L41.26 1.86L41.46 1.74001L41.49 1.77ZM1.34 45.87L1.47 45.98L1.35999 46.18L1.35001 46.24L1.17999 46.44L1.03 46.31L0.850006 46.28L0.779999 46.23L0.75 46.13L0.820007 46.1L1.01999 46.14L1.16 46.03L1.19 45.96L1.34 45.87ZM7.66 45.4L7.72 45.44L7.70001 45.6L7.72 45.64L7.66 45.76L7.69 45.86L7.62 45.91L7.51999 46.05L7.29001 46.12L7.19 46.19L7.12 46.15L6.92001 46.12L6.67999 45.89L6.60001 45.74V45.49L6.82999 45.33L6.89001 45.13V45.03H7.01999L7.14999 45.08H7.35001L7.48999 45.12L7.60001 45.1L7.62 45.28L7.66 45.4ZM2.89001 44.93L3.01001 44.89L3.12 44.93L3.37 45.08L3.41 45.21L3.19 45.4L3.07999 45.43L2.88 45.34L2.81 45.23V45.03L2.89001 44.93ZM5.09 45.08L4.85001 45.33L4.78 45.42L4.70001 45.4L4.45999 45.49L4.39001 45.44L4.32999 45.27L4.20001 45.14L4.17001 45.03L4.04999 44.91V44.81L3.97 44.66L3.87 44.52L4.07001 44.43L4.23001 44.5L4.48999 44.4H4.69L4.89001 44.34L5.10999 44.16L5.13 44.08L5.39999 43.96H5.64001L5.79001 43.9L5.82999 44.02L5.57001 44.16L5.41 44.36L5.26999 44.46L5.25 44.63L5.10001 44.91L5.09 45.08ZM11.19 43.5L11.37 43.44L11.53 43.56L11.56 43.76V43.99L11.47 44.19L11.51 44.42L11.45 44.47L11.34 44.73L11.2 44.87L10.95 44.91L10.6 45.05L10.37 45.3L10.2 45.34L10.06 45.3H9.89001V45.2H10.04L10.27 45.12L10.45 45L10.59 44.85L10.62 44.67L10.7 44.53L10.75 44.34L10.87 44.17L10.93 44.04L11.03 43.9L11.13 43.54L11.19 43.5ZM1.76999 43.28V43.33L1.87 43.51L1.75 43.66L1.79999 43.8L1.57999 44.25L1.51001 44.2L1.47 44.02L1.26001 43.68L1.22 43.52L1.17001 43.45L1.25 43.29L1.39001 43.17L1.56 43.23L1.67001 43.19L1.76999 43.28ZM12.4 42.13L12.57 42.22L12.46 42.42L12.48 42.55L12.42 42.78L12.26 42.89L12.15 42.92L12.07 42.97L11.84 43.02L11.78 43.06L11.68 43.22L11.58 43.16H11.48L11.43 43.08L11.52 42.95L11.54 42.78L11.62 42.65L11.74 42.57L11.89 42.53L12.02 42.43H12.25L12.3 42.38L12.4 42.13ZM12.4 42.02L12.43 42.06L12.31 42.18L12.26 42.16L12.35 42L12.4 42.02ZM49.75 15.71L49.86 15.67L49.89 15.79H49.75L49.58 15.69L49.47 15.81L49.4 15.7L49.44 15.56L49.54 15.51L49.64 15.66L49.75 15.71ZM49.95 14.51L49.99 14.69L49.92 14.72L49.87 14.81L49.79 14.87L49.71 14.97L49.48 15.09L49.44 15.26H49.37L49.3 15.16L49.19 15.15L49.09 15.19L48.97 15.06L49.03 14.88L49.19 14.87L49.18 14.67L49.33 14.55H49.44L49.56 14.47L49.78 14.43L49.95 14.51ZM54.31 12.49L54.59 12.62V12.77L54.52 12.88L54.45 12.92L54.43 13.04L54.23 13.25L54.15 13.38L54.13 13.55L53.97 13.72L53.74 13.86L53.58 13.99L53.42 13.84L53.4 13.77L53.32 13.71H52.98L52.82 13.6L52.8 13.45V13.31L52.71 13.19L52.57 13.13L52.34 13.23L52.28 13.34L52.16 13.41L52.06 13.21L51.88 13.23L51.81 13.15V12.99L52.09 12.85L52.22 12.73L52.35 12.69L52.55 12.53L52.69 12.4L52.96 12.23H53.03L53.25 12.11L53.61 12.04L53.87 11.94L53.92 12L53.77 12.06L53.65 12.19L53.75 12.22L53.93 12.16L53.9 12.27L53.75 12.32L53.73 12.41L53.83 12.52L53.98 12.59H54.15L54.31 12.49ZM56.66 12.07V12.37L56.53 12.39L56.35 12.31L55.95 12.07L55.76 12.04L55.58 12.07L55.48 12.04L55.51 11.93L55.41 11.81L55.46 11.71L55.64 11.68L55.7 11.7L56.03 11.68L56.18 11.66L56.31 11.71L56.54 11.86L56.58 12.02L56.66 12.07ZM53.38 14.29L53.33 14.44H53.25L53.21 14.33L53.37 14.23L53.38 14.29Z" fill="#D1DBDD" stroke="black" stroke-width="0.2" stroke-linecap="round" stroke-linejoin="round"/>
</svg>
