<svg width="803" height="824" viewBox="0 0 803 824" fill="none" xmlns="http://www.w3.org/2000/svg">
<path d="M557.6 23.49H557.59L556.98 23.32L555.02 22.12L553.01 20.46H553L552.88 20.82L540.27 47.49L534.76 53.43L533.11 54.6L532.61 56.88L532.42 61.57L533.63 68.69L552.59 70.89L559.18 70.71L580.1 66.65L585.06 66.89L594.9 69.84L595.96 69.32L597.22 67.87L595.53 65.22L591.67 63.51L583.86 61.03L580.3 58.43L577.37 55.21L575.01 51.55L574.42 50.3L566.04 47.56L562.65 45.37L561.25 43.81L560.09 41.93L559.23 39.91L557.77 34.44L557.29 27.23L557.45 24.32L557.6 23.49Z" fill="#CCCCCC" stroke="white" stroke-width="2"/>
<path d="M553 20.46L550.93 18.76L549.56 18.06L545.4 16.73L542.3 15.43L536.8 11.62L525.25 9.42L477.8 7.05L469.73 7.18L459.84 7.98L442.02 8.75L437.27 9.01L432.64 10.22L429.11 11.57L426.25 13.74L424.34 15.77L421.76 18.48L420.42 20.5L417.24 24.65L416.36 27.6L417.01 31.54L419.73 33.84L422.02 33.73L424.42 33.62L426.39 35.38L423.37 39.36L425.49 44.2L428.87 51.62L429.51 55.07L429.65 61.73L429.32 64.8L428.29 67.9H426.92L426.5 68.82L423.8 71.67L420.84 72.39L415.49 73L413.86 73.59L412.72 74.39L412.2 75.4L411.82 76.82L411.93 78.07L412.34 79.39L413.04 80.85L414.55 83.23L419.76 88.88L420.51 89.48L421.96 91.1L423.08 94.82L425.63 97.82L426.41 100.26L428.42 102.35L428.27 104.33L427.11 106.35L425.19 108.29L423.74 111.55L423.7 114.25L424.52 116.69L424.95 119.86L426.38 120.92L428.07 121.29L436.89 118.99L439.31 119.13L447.02 121.18L506.51 116.51L508.89 115.88L510.09 115.07L511.66 114.46L512.86 115.09L513.97 116.12L515.33 117.14L516.38 116.75L517.01 115.69L517.41 114.53L518.48 113.42L520.16 113.43L523.08 112.12L524.55 111.21L525.12 110.15L525.4 107.69L525.88 106.49L526.81 105.27L527.7 103.87L528.07 102.46L527.93 101.19L527.03 99.96L524.11 97.65L523.25 96.3L523.18 95.01L524.5 92.4L525.03 89.61L525.6 88.2L527.24 86.74L528.38 85.43L528.98 83.99L528.76 82.58L528.04 81.3L526.99 80.25L526.3 79.09L526.77 77.78L529.02 76.2L532.32 75.4L534.24 74.49L535.14 73.37L535.19 72.03L534.72 70.71L533.63 68.69L532.42 61.57L532.61 56.88L533.11 54.6L534.76 53.43L540.27 47.49L552.88 20.82L553 20.46Z" fill="#CCCCCC" stroke="white" stroke-width="2"/>
<path d="M577.4 39.44L577.15 39.56L580.04 36.34L582.39 30.57L580.88 27.67L576.98 24.78L573.63 22.35L570.46 22.65L567.94 23.71L565.7 24.47L562.94 24.21L560.9 23.92H559.23L557.6 23.49L557.45 24.32L557.29 27.23L557.77 34.44L559.23 39.91L560.09 41.93L561.25 43.81L562.65 45.37L566.04 47.56L574.42 50.3L573.16 47.61L571.82 43.36L574.23 42.23L577.4 39.44Z" fill="#CCCCCC" stroke="white" stroke-width="2"/>
<path d="M426.919 67.9H426.829V50.92L425.679 48.3L422.879 46.65L419.329 42.72L406.959 41.53L399.359 38.89L395.329 38.18L390.539 36.88L382.469 34.19L369.279 31.32L363.179 29.72L356.529 27.82L347.319 25.44L337.299 25.01L324.899 21.73L303.649 16.77L294.439 15.94L290.689 14.96L288.609 14.06L288.639 15.96L289.009 48.81L289.569 53.77L292.579 60.48L294.739 63.83L295.529 65.6L295.909 70.08L296.379 72.17L301.309 82.17L308.479 90.86L308.939 92.2L309.319 94.2L308.869 96.65L308.289 97.57L307.279 97.73L304.959 96.32L303.669 95.9L302.439 96.16L301.299 97.12L300.289 98.18L299.149 99.04L297.919 99.19L296.609 98.95L295.529 99.11L295.229 100.31L295.959 102.3L302.439 108.97L303.409 110.55L303.949 112.45L303.759 115.21L302.869 117.09L301.789 118.48L300.829 119.48L299.989 120.7L299.829 122.87L299.079 124.09L298.649 125.29L298.869 126.14L300.249 126.69L303.369 127.4L305.109 128.1L306.309 127.67L306.799 126.69L307.399 123.76L308.109 122.47L308.989 121.8L310.109 121.68L311.379 122.38L312.959 124.45L314.089 126.59L315.439 129.92L316.439 131.84L316.489 133.67L315.589 135.47L314.169 136.39L312.069 138.69L330.459 137.99L333.669 136.45L336.209 134.72L340.279 131.3L343.719 127.67L346.689 125.91L350.669 124.72L361.979 123.83L381.269 124.86L393.259 124.01L395.049 123.32L398.489 116.61L402.069 115.55L402.949 114.94L404.589 111.95L405.859 110.57L410.589 107.81L413.189 107.01L413.849 106.25L414.069 104.21L412.219 100.84L412.159 99.86L412.529 99.01L415.059 97.36L423.079 94.82L421.959 91.1L420.509 89.48L419.759 88.88L414.549 83.23L413.039 80.85L412.339 79.39L411.929 78.07L411.819 76.82L412.199 75.4L412.719 74.39L413.859 73.59L415.489 73L420.839 72.39L423.799 71.67L426.499 68.82L426.919 67.9Z" fill="#CCCCCC" stroke="white" stroke-width="2"/>
<path d="M660.35 9.24L658.85 8.97L650.47 8.03L646.9 7.18L599.85 5.58L593.81 5.64L585.88 6.12L579.7 7.18L574.29 9.35L572.56 10.46L571.26 12.52L572.4 13.85L573.14 15.92L574.59 18.03L577.98 20.29L581.96 22.21L593.32 25.48L596.36 27.02L599.33 29.48L602.28 29.62L605.39 27.82L608.14 28.44L611.15 30.34L615.63 29.93L617.88 28.56L619.69 27.11L621.47 26.83L624.06 27.35L625.64 28.22L627.18 29.56L628.51 31.11L629.39 32.71L625.93 30.19L623.96 29.21L622.1 28.8L619.81 29.3L618.49 30.44L617.43 31.75L615.9 32.71L613.97 33.39L612.31 33.75L610.64 33.45L606.26 30.76L604.75 31.11L603.15 32.14L600.59 32.71L596.63 31.88L590.16 27.33L585.83 27.35L584.81 28.86L584.62 33.25L582.8 37.64L577.4 39.44L574.23 42.23L571.82 43.36L573.16 47.61L574.42 50.3L575.01 51.55L577.37 55.21L580.3 58.43L583.86 61.03L591.67 63.51L595.53 65.22L597.22 67.87L595.96 69.32L594.9 69.84L587.87 73.25L585.61 77.52L585.19 77.95L585.1 79.84L585.17 80.02L585.91 79.67L587.87 79.96L588.43 79.71L589.45 79.08L590.68 78.56L591.88 78.62L592.12 79.23L591.87 80.13L591.79 80.93L592.55 81.3L593.17 82.15L593.33 84.16L592.95 95.18L596.61 96.35L600.53 96.48L675.4 91L670.55 83.9L666.51 75.73L660.46 66.74L658.93 63.41L657.25 57.53L655.72 54.42L654.09 50.17L653.79 48.68L653.2 43.6L653.43 41.16L654.23 38.96L658.05 34.38L659.4 31.58L657.98 15.88L659.36 11.64L660.35 9.24Z" fill="#CCCCCC" stroke="white" stroke-width="2"/>
<path d="M402.95 822.07L415.84 818.2L422.06 811.74L423.1 804.69L422 796.87L421.76 788.16L422.39 785.66L423.1 783.87L423.42 782.08L422.8 779.58L421.33 777.37L414.64 771.63L407.63 762.54L405.94 761.05L400.67 757.43L398.02 753.27L396.23 745.56L392.52 742.14L388.9 741.28L380.32 740.76L378.07 739.26L378.63 735.63L380.96 729.83L383.93 724.2L386.48 721.07L388.9 720.51L390.69 721.33L392.43 722.37L394.63 722.54L396.96 721.46L398.47 719.88L404.19 711.32L405.2 707.89L405.33 699.2L407.41 690.85L408.91 687.41L410.13 686.3L412.47 685.55L417.14 685.97L421.48 688.42L432.12 697.19L435.43 698.81L449.26 702.23L451.13 703.24L452.59 704.96L454.84 709.24L456.9 710.88L460.78 711.69L476.23 707.82L483.48 704.43L487.59 704.45L491.34 704.96L502.47 703.96L509.72 704.07L517.31 705.04L524.35 705.17L529.93 702.75L531.56 699.73L532.08 696.15L533.17 692.49L536.45 689.28L539.83 687.9L543.3 687.63L546.39 688.77L548.69 691.62L553.26 691.9L568.91 679.86L575.6 679.31L576.52 681.13L575.83 684.87L577.35 686.46L578.91 686.63L580.56 686.04L587.64 682.63L595.19 676.22L599.1 673.74L607.1 670.54L610.58 670.13L611.65 672.08L610.36 674.7L606.58 678.54L605.94 681.23L606.77 683.05L626.01 701.81L633.52 704.52L643.2 701.65L646.53 699.85L649.6 698.19L652.88 698.05L657.16 699.72L659.81 701.22L660.68 702.1L660.81 706.04L661.09 707.19L661.93 709.3L662.17 710.4L661.85 711.61L660.91 711.92L659.88 711.89L659.36 712.11L658.24 715.8L659.99 720.26L660.24 722.34L660.03 724.24L660.5 725.82L662.78 726.96L666.62 727.55L670.44 727.45L674.21 726.74L677.89 725.53L681.04 721.71L683.87 721.21L690.45 723.21L694.28 722.81L696.49 721.1L701.76 707.74L703.73 706.61L705.83 705.46L710.15 705.41L713.1 704.99L715.45 704.05L724.82 694.67L727.98 689.92L735.62 670.59L742.49 656.61L756.74 637.32L758.27 634.31L761.37 625.19L762.68 623.57L765.03 622.29L762.45 620.18L761.23 618.85L760.89 617.53L761.02 615.48L761.73 613.23L764.43 609.27L765.03 608.11L766.45 602.12L766.36 599.42L765.31 599.1L763.16 596.68L762.11 593.92L764.36 592.6L765.23 591.39L764.9 588.62L763.69 583.9L763.27 583.37L761.44 582.06L761.02 581.89L761.45 580.82L762.33 580.16L763.22 579.71L763.69 579.22L764.15 575.08L763.68 570.64L761.55 567.81L757.01 568.51L761.06 558.57L763.79 554.16L770.94 545.45L775.98 537.53L782.53 532.84L782.64 532.76L784.75 529.36L786.07 525.51L786.54 522.07L787.45 519.43L794.56 512.04L797.76 504.19L797.12 489.36L798.69 481.12L800.26 476.67L800.54 473.67L799.37 471.2L796.63 468.39L794.86 467.7L792.79 468.02L790.64 468.68L788.54 469.05L788.43 467.87L783.86 460.9L779.86 446.98L777.84 444.82L773.78 438.8L771.71 437.43L765.03 435.45L762.79 434.43L761.67 433.71L759.69 431.31L757.82 427.47L756.35 425.17L755.67 425.28L754.84 423.6L751.16 421.61L746.31 412.55L745 411.18L742.27 408.98L740.96 407.19L738.86 400.4L737.62 398.48L730.94 392.45L729.07 389.16L728.82 384.29L729.63 381.24L732.26 374.45L732.83 371.49L732.07 367.45L730.05 365.84L723.47 364.06L721.04 362.43L718.76 359.75L717.98 356.41L720.12 352.74L721.38 349.38L721.19 344.38L719.46 335.92L713.49 323.46L710.1 302.29L710.65 297.31L714.53 290.12L715.45 286.74V278.69L715.09 276.4L712.65 269.98L712.49 265.15L713.16 261.4L713.1 258.06L710.77 254.43L708.88 253.36L706.87 252.8L705.28 251.71L704.64 249.06V224.8L703.41 222.04L703.06 220.03L703.96 218.1L709.17 214.44L710.1 213.4L710.48 210.5L708.77 202.66L709.32 199.29L710.52 196.19L714.12 190.47L724.82 178.38L725.46 177.17L725.94 174.94L726.81 173.69L729.82 171.56L731.09 170.23L733.35 162.4L735.58 159.2L735.49 159.11L730.89 154.37L729.12 153.31L726.35 152.01L719.33 149.59L708.43 142.13L705.75 140.71L670.13 127.32L667.32 126.4L665.43 129.27L653.88 151.46L651.48 157.8L650.29 159.55L643.34 165.68L641.93 167.55L641.11 169L636.94 184.05L634.98 195.39L631.69 204.71L644.86 209.83L650.16 214.62L652.47 218.78L653.08 220.37L653.46 222.51L653.26 224.51L652.49 226.56L649.91 230.66L648.92 232.73L648.45 234.98L648.17 239.84L647.65 242.2L646.74 244.51L644.47 248.82L643.62 250.94L643.17 253.04L642.61 257.51L641.97 259.66L638.93 265.65L638.3 267.72L638.11 269.91L638.46 287.24L637.69 291.77L636.8 293.96L635.49 296.11L631.82 300.32L625.23 306.32L623.66 308.46L622.65 310.89L622.35 313.1L622.36 315.55L622.62 317.85L623.54 322.17L627.01 332.56L627.32 334.59L627.37 338.85L627.04 340.56L622.68 352.33L617.53 361.01L616.54 363.26L615.19 367.58L614.3 369.6L612.87 371.24L610.98 372.05L609.11 370.91L605.78 365.72L603.46 363.81L602.1 363.31L600.37 363.56L598.88 364.86L597.63 366.56L595.24 370.63L593.66 372.55L591.82 373.95L589.89 374.58L583.49 375.35L581.25 375.92L579.06 376.82L576.87 378.16L568.48 386.15L566.5 387.71L553.78 394.29L551.75 394.84L549.7 395.02L547.64 394.56L545.76 393.65L544.1 392.09L543.07 390.16L541.68 383.63L537.78 314.48L537.15 311.74L535.96 308.63L533.41 304.16L531.1 301.31L530.91 301.23L530.8 301.07L530.69 299.73L532.14 261.91L528.87 229.72L526.53 222.34L523.95 216.38L504.1 185.15L502.61 186.08L500.44 186.48L499.37 187.16L497.83 189.49L496.89 190.64L496 191.51L495.57 192.59L494.98 195.04L494.15 196.12L493.02 196.85L490.85 197.52L490.11 198.05L488 198.96L484.52 200.95L478.57 203.47L470.12 205.27L467.9 204.55L465.89 202.82L464.43 198.45L463.9 195.54L463.71 193.01L463.18 190.9L462.01 188.79L459.54 186.43L457.36 184.9L455.11 183.81L442.65 179.74L438.71 179.22L434.53 179.48L430.03 180.35L420.49 183.17L418.31 183.31L416.29 183.14L407.04 180.74L406.69 177.27L406.85 170.64L412.76 126.1L423.08 94.82L415.06 97.36L412.53 99.01L412.16 99.86L412.22 100.84L414.07 104.21L413.85 106.25L413.19 107.01L410.59 107.81L405.86 110.57L404.59 111.95L402.95 114.94L402.07 115.55L398.49 116.61L395.05 123.32L393.26 124.01L381.27 124.86L361.98 123.83L350.67 124.72L346.69 125.91L343.72 127.67L340.28 131.3L336.21 134.72L333.67 136.45L330.46 137.99L312.07 138.69L265.08 135.45L186.54 147.66L175.11 148.29L165.5 149.74L166.83 153.08L173.36 161.03L174.83 164.96L173.86 167.7L171.48 169.98L168.39 171.77L165.35 173.03L164.28 169.12L162.61 167.08L160.14 166.31L156.66 166.19L154.45 167.35L153.17 170.06L151.86 175.71L148.95 182.34L148.34 184.57L148.1 187.17L148.98 189.37L156.12 195.83L154.16 196.97L152.55 196.81L151.02 196.16L149.31 195.83L146.53 196.23L144.84 196.88L143.38 197.7L141.29 198.52L136.36 199.83L120.87 201.43L117.57 202.44L115.04 202.66L113.75 202.01L110.74 199.16L109.69 198.52L104.66 198.78L100.17 199.57L91.58 202.66L83.89 199.31L76.54 199.73L69.97 202.97L64.72 208.03L61.78 213.63L59.5 215.42L54.71 216.08L52.26 215.59L50.38 214.66L48.48 214.12L46.03 214.74L44.55 216.13L40.56 222.79L37.92 226.06L34.35 229.9L31.2 234.41L29.86 241.02L31.34 243.72L34.6 245.38L37.85 247.56L40.47 255.64L45.72 262.36L47.35 265.83L47.08 269.55L45.51 272.96L42.01 278.03L38.91 288.03L35.6 293.59L31.99 302.32L30.55 308.82L28.7 311.39L26.45 313.89L24.52 316.91L23.74 320.51L24.36 323.59L25.42 326.58L25.96 329.83L25.55 334.78L24.28 338.65L22.11 341.98L5.06 359.44L2.34 363.62L2 367.68L4.47 376.13L7.03 392.82L8.96 399.76L13.7 405.73L26.58 415.9L29.77 419.64L39.69 434.2L43.86 443.13L44.69 446.9L45.22 455.8L46.38 459.94L48.58 463.58L51.83 465.66L61.4 469.63L68.87 474.42L69.58 475.84L70.56 479.27L72.12 482.17L72.29 482.87L72.54 483.54L73.42 484.52L74.37 484.93L76.48 485.21L76.89 485.8L77.65 486.17L81.73 488.54L84.94 492.18L84.65 495.64L81.68 501.42L81.71 502.7L82.13 505.13L82.02 506.45L81.03 509.99L80.91 511.62L81.31 513.67L82.16 515.99L82.82 516.99L83.78 517.81L85.44 518.5L90.97 519.64L94.26 521.48L94.31 521.51L100.38 524.9L102.52 525.5L104.32 525.23L106.23 521.38L108.75 521.87L111.25 523.36L112.37 524.21L113.95 524.28L115.49 524.56L116.65 525.15L117.11 526.16L117.79 527.03L119.25 526.2L120.64 524.87L121.12 524.21L126.66 522.78L128.02 521.06L127.81 517.51L133.99 520.19L139.22 521.8L144.45 520.91L150.65 516.06L155.51 526.08L156.12 528.83L155.66 535.64L155.38 536.87L153.76 539.32L154.2 540.95L155.42 542.56L156.12 544.9L155.87 547.23L154.81 551.27L154.65 553.67L155.1 555.82L157.2 560.35L156.66 562.73L155.39 564.29L155.03 565.57L157.2 567.16L159.16 567.49L161.11 566.86L162.82 565.72L164.14 564.5L164.51 565.09L164.55 565.26L164.68 565.36L165.35 565.71L162.36 571.46L164.14 575.04L167.52 578.15L169.35 582.5L169.56 584.01L170.5 586.49L170.7 587.97L170.06 588.77L167.32 588.63L166.69 589.32L167.04 591.69L167.6 593.4L167.72 594.94L166.69 596.75L165.09 599.3L167.59 600.74L174.1 601.43L175.04 604.33L172.9 607.09L169.85 609.52L168.03 611.47L170.63 621.61L171.43 623.63L172.99 624.46L173.62 626.31L174.49 628.14L176.84 628.98L178.67 628.57L182.6 626.73L184.91 626.31L186.28 627.59L182.9 634.65L184.19 638.35L184.84 637.9L191.54 636.89L193.43 637.81L192.99 639.94L191.64 642.42L190.87 644.37L191.89 646.93L196.95 652.28L198.89 655.87L200.07 663.59L201.63 664.74L205.69 662.44L207.02 664.95L206.49 667.26L205.56 669.82L205.69 673.15L206.64 674.92L211.59 680.68L211.94 682.11L210.91 688.72L212.18 690.54L214.94 689.59L218.94 686.65L220.56 688.46L220.3 690.6L219.34 692.77L218.94 694.67L219.57 697.36L220.49 699.08L223.74 702.09L224.68 704L224.33 706.03L223.07 708.85L224.57 712.4L231.57 718.52L233.76 722.89L233.65 729.95L234.49 731.7L236.31 732.61L240.82 733.45L242.57 734.38L245.05 738.19L246.98 746.83L248.47 751.1L249.89 756.94L268.74 783.65L274.1 785.85L293.3 786.16L300.68 790.01L301.77 791.68L303.16 793.02L304.81 794.01L308.92 795.33L310.64 796.72L311.83 798.62L312.47 800.89L322.66 804.6L325.52 805.18L329.17 804.8L334.92 803.39L338.68 803.83L342.46 805.43L349.5 809.93L353.2 811.49L356.3 811.85L365.73 811.29L378.36 814.57L390.62 819.51L402.95 822.07Z" fill="#CCCCCC" stroke="white" stroke-width="2"/>
<path d="M594.899 69.84L585.059 66.89L580.099 66.65L559.179 70.71L552.589 70.89L533.629 68.69L534.719 70.71L535.189 72.03L535.139 73.37L534.239 74.49L532.319 75.4L529.019 76.2L526.769 77.78L526.299 79.09L526.989 80.25L528.039 81.3L528.759 82.58L528.979 83.99L528.379 85.43L527.239 86.74L525.599 88.2L525.029 89.61L524.499 92.4L523.179 95.01L523.249 96.3L524.109 97.65L527.029 99.96L527.929 101.19L528.069 102.46L527.699 103.87L526.809 105.27L525.879 106.49L525.399 107.69L525.119 110.15L524.549 111.21L523.079 112.12L520.159 113.43L518.479 113.42L517.409 114.53L517.009 115.69L516.379 116.75L515.329 117.14L513.969 116.12L512.859 115.09L511.659 114.46L510.089 115.07L508.889 115.88L506.509 116.51L447.019 121.18L439.309 119.13L436.889 118.99L428.069 121.29L426.379 120.92L424.949 119.86L424.519 116.69L423.699 114.25L423.739 111.55L425.189 108.29L427.109 106.35L428.269 104.33L428.419 102.35L426.409 100.26L425.629 97.82L423.079 94.82L412.759 126.1L406.849 170.64L406.689 177.27L407.039 180.74L416.289 183.14L418.309 183.31L420.489 183.17L430.029 180.35L434.529 179.48L438.709 179.22L442.649 179.74L455.109 183.81L457.359 184.9L459.539 186.43L462.009 188.79L463.179 190.9L463.709 193.01L463.899 195.54L464.429 198.45L465.889 202.82L467.899 204.55L470.119 205.27L478.569 203.47L484.519 200.95L487.999 198.96L490.109 198.05L490.849 197.52L493.019 196.85L494.149 196.12L494.979 195.04L495.569 192.59L495.999 191.51L496.889 190.64L497.829 189.49L499.369 187.16L500.439 186.48L502.609 186.08L504.099 185.15L510.829 177.43L520.329 170.4L526.829 163.78L533.789 152.28L534.489 150.49L534.619 149.19L534.339 147.95L533.529 146.77L532.529 145.55L531.629 143.82L532.049 141.88L533.989 139.08L539.079 138.05L597.519 137.54L601.499 138.17L602.849 139.66L603.729 141.52L604.369 153.41L604.879 155.55L606.089 157.54L607.879 159.19L618.229 166.3L620.079 168.02L621.609 169.99L622.719 171.98L623.399 174.07L623.619 176.15L622.709 180.25L622.749 182.08L623.789 183.87L625.269 185.26L626.809 187.02L627.439 188.92L627.739 190.92L627.769 198.78L627.119 201.89L626.969 203.41L627.509 204.87L628.829 205.85L630.089 205.83L631.689 204.71L634.979 195.39L636.939 184.05L641.109 169L641.929 167.55L643.339 165.68L650.289 159.55L651.479 157.8L653.879 151.46L665.429 129.27L667.319 126.4L670.129 127.32L676.579 118.21L677.619 116.12L678.429 114.03L678.959 111.63L679.269 108.96L679.349 104.79L678.329 98.01L675.399 91L600.529 96.48L596.609 96.35L592.949 95.18L593.329 84.16L593.169 82.15L592.549 81.3L591.789 80.93L591.869 80.13L592.119 79.23L591.879 78.62L590.679 78.56L589.449 79.08L588.429 79.71L587.869 79.96L585.909 79.67L585.169 80.02L585.099 79.84L585.189 77.95L585.609 77.52L587.869 73.25L594.899 69.84Z" fill="#CCCCCC" stroke="white" stroke-width="2"/>
<path d="M764.88 132.48L773.19 119.52L774.36 115.76L775.16 113.92L776.99 111.94L780.38 108.97L783.94 104.66L786.39 100.13L788.49 92.42L791.22 77.19L792.25 69.36L794.48 65.49L799.15 56.53L801.02 54.33L799.9 50.82L795.16 41.73L795.48 39.68L794.35 37.69L792.29 36.91L791.16 35.31L786.21 35.66L783.78 34.81L779.28 34.33L765.2 30.28L748.88 24.98L730.1 21.25L705.99 15.9L666.49 10.34L660.35 9.24001L659.36 11.64L657.98 15.88L659.4 31.58L658.05 34.38L654.23 38.96L653.43 41.16L653.2 43.6L653.79 48.68L654.09 50.17L655.72 54.42L657.25 57.53L658.93 63.41L660.46 66.74L666.51 75.73L670.55 83.9L675.4 91L678.33 98.01L679.35 104.79L679.27 108.96L678.96 111.63L678.43 114.03L677.62 116.12L676.58 118.21L670.13 127.32L705.75 140.71L708.43 142.13L719.33 149.59L726.35 152.01L729.12 153.31L730.89 154.37L735.49 159.11L735.58 159.2L737.4 156.58L745.66 148.07L761.06 136.93L764.88 132.48Z" fill="#CCCCCC" stroke="white" stroke-width="2"/>
<path d="M628.83 205.85L627.51 204.87L626.97 203.41L627.12 201.89L627.77 198.78L627.74 190.92L627.44 188.92L626.81 187.02L625.27 185.26L623.79 183.87L622.75 182.08L622.71 180.25L623.62 176.15L623.4 174.07L622.72 171.98L621.61 169.99L620.08 168.02L618.23 166.3L607.88 159.19L606.09 157.54L604.88 155.55L604.37 153.41L603.73 141.52L602.85 139.66L601.5 138.17L597.52 137.54L539.08 138.05L533.99 139.08L532.05 141.88L531.63 143.82L532.53 145.55L533.53 146.77L534.34 147.95L534.62 149.19L534.49 150.49L533.79 152.28L526.83 163.78L520.33 170.4L510.83 177.43L504.1 185.15L523.95 216.38L526.53 222.34L528.87 229.72L532.14 261.91L530.69 299.73L530.8 301.07L530.91 301.23L531.1 301.31L533.41 304.16L535.96 308.63L537.15 311.74L537.78 314.48L541.68 383.63L543.07 390.16L544.1 392.09L545.76 393.65L547.64 394.56L549.7 395.02L551.75 394.84L553.78 394.29L566.5 387.71L568.48 386.15L576.87 378.16L579.06 376.82L581.25 375.92L583.49 375.35L589.89 374.58L591.82 373.95L593.66 372.55L595.24 370.63L597.63 366.56L598.88 364.86L600.37 363.56L602.1 363.31L603.46 363.81L605.78 365.72L609.11 370.91L610.98 372.05L612.87 371.24L614.3 369.6L615.19 367.58L616.54 363.26L617.53 361.01L622.68 352.33L627.04 340.56L627.37 338.85L627.32 334.59L627.01 332.56L623.54 322.17L622.62 317.85L622.36 315.55L622.35 313.1L622.65 310.89L623.66 308.46L625.23 306.32L631.82 300.32L635.49 296.11L636.8 293.96L637.69 291.77L638.46 287.24L638.11 269.91L638.3 267.72L638.93 265.65L641.97 259.66L642.61 257.51L643.17 253.04L643.62 250.94L644.47 248.82L646.74 244.51L647.65 242.2L648.17 239.84L648.45 234.98L648.92 232.73L649.91 230.66L652.49 226.56L653.26 224.51L653.46 222.51L653.08 220.37L652.47 218.78L650.16 214.62L644.86 209.83L631.69 204.71L630.09 205.83L628.83 205.85Z" fill="#CCCCCC" stroke="white" stroke-width="2"/>
<path d="M182.23 63.61L181.33 61.37L181.34 59.13L180.44 55.4L181.19 52.71L182.09 50.17L182.69 46.58L182.7 43.15L182.4 41.8L180.9 44.79L180.15 47.03L179.7 48.82L177.91 52.11L177.01 54.8L178.5 58.38L179.84 61.37L180.88 63.91L181.78 64.51L182.23 63.61ZM219.53 2L218.1 2.48L216 4.65L214.02 5.01L212.1 5.72L211 6.64L208.52 9.42L207.61 10L206.58 10.39L205.56 11.28L204.21 12.17L199.73 12.96L198.1 14.1L197 15.85L196.19 18.06L191 26.64L188.74 32.06L186.4 40.07L185.97 44.99L184.62 51.53L183.69 70.18L178.98 91.44L177.71 94.24L175.88 96.65L173.24 98.78L166.96 101.18L165.21 102.86L162.54 105.63L160.72 109.72L160.11 112.85L159.88 117.07L159.1 121.67L157.09 124.81L147.57 134.4L145.97 136.51L145.3 138.67L146.08 140.49H147.82L150.65 139.34L152.62 139.82L153.85 139.76L154.48 140.31L154.78 154.04L155.14 155.59L156.12 156.67L157.84 157.16L159.53 156.93L160.82 156.09L161.34 154.78L159.34 152.4L158.32 150.5L158.67 148.62L160.32 147.65L162.54 147.54L164.51 148.14L165.35 149.35L165.5 149.74L175.11 148.29L186.54 147.66L265.08 135.45L312.07 138.69L314.17 136.39L315.59 135.47L316.49 133.67L316.44 131.84L315.44 129.92L314.09 126.59L312.96 124.45L311.38 122.38L310.11 121.68L308.99 121.8L308.11 122.47L307.4 123.76L306.8 126.69L306.31 127.67L305.11 128.1L303.37 127.4L300.25 126.69L298.87 126.14L298.65 125.29L299.08 124.09L299.83 122.87L299.99 120.7L300.83 119.48L301.79 118.48L302.87 117.09L303.76 115.21L303.95 112.45L303.41 110.55L302.44 108.97L295.96 102.3L295.23 100.31L295.53 99.11L296.61 98.95L297.92 99.19L299.15 99.04L300.29 98.18L301.3 97.12L302.44 96.16L303.67 95.9L304.96 96.32L307.28 97.73L308.29 97.57L308.87 96.65L309.32 94.2L308.94 92.2L308.48 90.86L301.31 82.17L296.38 72.17L295.91 70.08L295.53 65.6L294.74 63.83L292.58 60.48L289.57 53.77L289.01 48.81L288.64 15.96L288.61 14.06L287.1 13.4L281.03 9.55L277.68 8.27L269.24 7.78L253.95 7.13L244.24 7.12L237.07 6.32L224.96 3.44L219.53 2Z" fill="#CCCCCC" stroke="white" stroke-width="2"/>
</svg>
