<svg width="802" height="871" viewBox="0 0 802 871" fill="none" xmlns="http://www.w3.org/2000/svg">
<path d="M234.701 407.05L231.391 406.85L227.731 405.97L223.001 403.07L214.801 399.28L212.551 398.7L210.901 398.54L210.141 398.82L208.621 399.67L205.791 401.79L204.291 402.64L203.461 403L201.511 403.36L191.991 403.49L190.591 403.79L188.991 404.57L179.191 411.71L178.061 412.22L176.601 412.66L173.901 413.09L172.401 412.93L170.981 412.48L167.761 411.03L166.471 410.92L165.411 411.09L163.121 412.43L160.541 413.35L156.641 414.02L155.211 413.94L149.831 413.01L147.841 412.91L146.331 413.05L145.551 413.46L144.211 414.55L143.011 415.81L142.541 416.44L141.151 417.76L140.451 418.15L136.911 419.28L136.071 419.64L135.411 420.19L134.851 420.87L134.131 422.3L133.981 422.66L133.931 422.78L132.951 425.33L132.501 426.16L131.431 427.57L130.811 428.22L129.351 429.24L103.291 433.17L102.611 433.74L102.131 434.5L101.731 435.37L101.491 436.42L100.961 440L100.251 440.97L99.1906 441.96L96.9406 443.01L95.5806 443.14L94.4706 442.91L93.6805 442.44L80.5406 441.08L78.7105 440.67L77.2206 439.64L74.0906 438.74L70.5305 438.35L68.7306 437.93L67.5505 437.41L67.1305 436.86L66.9405 436.49L66.0105 433.41L65.2105 431.85L64.7105 431.14L64.0705 430.56L60.8005 428.77L60.0805 428.25L59.4105 427.67L55.3505 422.85L55.3305 422.82L54.8405 422.25L54.1605 421.67L53.1805 421.04L51.5105 420.33L50.2405 420.1L42.5805 420.55L38.2005 421.36L38.1805 421.37L40.3305 430.82L41.5305 433.63L43.3105 436.17L44.9605 448.6L46.2305 453.19L45.1205 454.52L46.2405 457.62L46.5205 461.68L46.2305 469.72L46.4705 473.45L47.2805 476.72L48.8205 479.68L55.3105 486.57L58.3205 490.84L59.6205 496.19L58.5205 503.35L56.2905 510.09L55.5905 513.31L55.3405 517.45L54.3305 520.47L51.8705 523.7L46.2305 528.99L40.7305 531.73L34.2905 532.28L20.3605 531.43L14.1905 533.74L11.8605 539.48L12.0005 547.06L14.5205 562.61L14.2905 566.73L12.7205 570.32L7.32055 575.69L5.02055 578.56L4.06055 581.84L5.02055 585.38L8.17055 588.04L8.20055 588.03L22.5205 579.52L30.5905 568.89L33.3605 567.14H40.5305L44.8005 567.87L46.4905 567.08L47.1805 564.03L47.2505 557.26L47.6905 555.45L49.3105 553.84L54.3505 551.12L56.1205 552.21L58.6705 554.67L59.4605 554.79L61.0105 556.12L62.2105 554.58L62.8205 551.62L62.6305 548.67L62.2105 548.38L60.3005 546.54L59.4505 545.52L59.4105 544.13L59.5205 542.55L59.4605 541.33L57.8505 537.77L57.9105 536.52L59.4605 535.21L61.9005 534.55L64.0505 535.06L66.2405 535.9L68.7805 536.21L72.1305 535.41L72.7606 533.9L72.4406 531.72L72.9605 528.99L74.4605 527.53L78.9205 526.38L81.1606 525.43L83.2805 523.49L84.8406 521.49L86.6005 519.89L89.3505 519.11L91.9506 519.52L96.1506 522.06L98.4706 522.88L100.301 522.83L103.441 521.89L105.221 521.66L106.881 522.05L109.071 523.71L113.561 524.82L119.311 527.17L122.211 526.54L123.321 525.13L124.811 521.24L125.831 520.44L130.841 519.06L131.981 518.55L134.881 516.51L138.061 515.79L141.411 516.3L147.991 519.78L149.371 520.91L149.941 522.27L149.951 524.27L150.171 526.48L150.931 528.25L152.551 528.99L154.281 528.52L157.361 526.23L159.151 525.43L160.821 525.31L162.371 525.57L168.491 527.64L171.131 529.05L172.921 531.21L174.581 538.26L176.861 537.62L179.311 534.96L180.851 532.66L181.731 537.42L182.551 539.33L184.331 540.11L185.991 539.81L192.721 536.82L196.471 534.48L197.791 533.99V532.93L196.961 527.56L197.321 525.43L194.061 524.1L192.631 524.79L191.071 524.66L190.001 523.63L190.061 521.66L190.831 520.87L193.451 520.47L194.621 519.77L196.571 517.68L199.081 515.51L201.801 513.8L204.391 513.11L207.161 513.69L213.281 516.3L216.211 516.88H219.621L221.481 516.52L221.491 515.27L219.331 512.56L219.071 510.82L221.591 510.2L224.891 510.01L227.011 509.56L226.881 508.73L226.271 507.34L226.301 505.83L228.041 504.56L229.591 504.62L230.861 505.5L231.881 506.52L232.691 507L235.161 509.24L236.611 509.7L237.251 507.67L236.511 504.33L236.421 502.54L237.251 500.91L239.821 500.19L242.641 500.69L244.571 500.08L244.511 497.24L244.491 496.04L246.161 492.15L247.481 490.74L249.511 488.83L252.141 487.65L256.581 487.49L259.541 486.15L261.241 483.96L263.961 483.03L266.821 483.96L268.141 478.63L270.741 473.31L272.231 467.33L271.861 463.79V461.58L272.421 458.27L273.911 455.61L276.891 452.07L277.511 449.45L282.241 429.59L282.931 421.47L278.131 418.92L276.101 417.55L267.861 410.58L266.271 409.62L258.051 407.07L255.461 406.73L254.401 406.79L252.551 407.24L251.081 407.34L249.121 407.18L243.301 406.08L241.711 405.97L237.951 406.85L234.701 407.05Z" fill="#C7C7C7" stroke="white" stroke-width="2"/>
<path d="M207.97 300.44L206.63 300.43L204.69 299.86L192.02 298.31L190.28 297.84L184.74 293.54L183.11 292.68L171.22 289.24L167.83 287.59L165.8 285.95L164.69 284.66L161.41 279.56L160.7 278.83L159.14 278.21L156.38 277.55L152.14 277.4L148.51 276.89L144.93 275.49L143.33 274.57L138.28 270.98L127.57 265.43L105.5 260.59L104.42 260.18L103.66 259.74L102.97 259.19L102.42 258.52L101.99 257.76L101.66 256.95L99.75 250.75L99.32 249.99L98.79 249.34L97.49 248.18L87.57 242.56L83.62 241.04L82.07 240.77L80.89 240.8L75.34 242.21L74.65 242.65L74.16 243.31L74 244.24L73.84 245.92L73.81 246.02L73.63 246.15L72.86 246.27L71.19 246.33L68.59 245.64L66.23 245.34L63.98 245.97L61.53 247.23L61.04 247.49L64.89 250.48L68.86 255.5L69.95 263.36L68.59 271.11L59.56 298.32L58 300.85L54.37 302.31L47.27 303.73L43.97 305.17L41.6 306.94L37.49 311.63L36.5 315.27L38.35 318.83L43.07 324.23L44.54 329.77L45.1 337.31L44.65 345.28L43.07 352.12L39.77 357.59L38.91 361.21L40.61 364.97L50.86 378.74L52.41 383.91L51.65 389.3L42.15 403.17L38.4 411.07L36.94 413L36.88 413.41V413.42L37.28 417.45L38.18 421.37L38.2 421.36L42.58 420.55L50.24 420.1L51.51 420.33L53.18 421.04L54.16 421.67L54.84 422.25L55.33 422.82L55.35 422.85L59.41 427.67L60.08 428.25L60.8 428.77L64.07 430.56L64.71 431.14L65.21 431.85L66.01 433.41L66.94 436.49L67.13 436.86L67.55 437.41L68.73 437.93L70.53 438.35L74.09 438.74L77.22 439.64L78.71 440.67L80.54 441.08L93.68 442.44L94.47 442.91L95.58 443.14L96.94 443.01L99.19 441.96L100.25 440.97L100.96 440L101.49 436.42L101.73 435.37L102.13 434.5L102.61 433.74L103.29 433.17L129.35 429.24L130.81 428.22L131.43 427.57L132.5 426.16L132.95 425.33L133.93 422.78L133.98 422.66L134.13 422.3L134.85 420.87L135.41 420.19L136.07 419.64L136.91 419.28L140.45 418.15L141.15 417.76L142.54 416.44L143.01 415.81L144.21 414.55L145.55 413.46L146.33 413.05L147.84 412.91L149.83 413.01L155.21 413.94L156.64 414.02L160.54 413.35L163.12 412.43L165.41 411.09L166.47 410.92L167.76 411.03L170.98 412.48L172.4 412.93L173.9 413.09L176.6 412.66L178.06 412.22L179.19 411.71L188.99 404.57L190.59 403.79L191.99 403.49L201.51 403.36L203.46 403L204.29 402.64L205.79 401.79L208.62 399.67L210.14 398.82L210.9 398.54L212.55 398.7L214.8 399.28L223 403.07L227.73 405.97L231.39 406.85L234.7 407.05L237.95 406.85L241.71 405.97L243.3 406.08L249.12 407.18L251.08 407.34L252.55 407.24L254.4 406.79L255.46 406.73L258.05 407.07L266.27 409.62L267.86 410.58L276.1 417.55L278.13 418.92L282.93 421.47L290.94 397.32L293.45 393.43L297.88 389.35L303.45 385.25L308.48 380.53L313.01 375.21L314.11 372.09L318.43 352.4L319.14 350.32L320.86 347.18L321.63 345.4L322.63 341.7L323.26 334.2L323.27 334.17L323.36 332.95L323.3 325.42L323.65 323.63L324.14 322.38L324.81 321.83L325.57 321.39L327.16 320.83L328.44 320.61L329.09 320.39L329.63 319.87L329.99 318.99L330.09 317.73L329.78 316.62L329.22 315.55L325.64 311.07L325.2 309.99L324.84 308.59L324.68 304.44L324.91 300.6L324.86 299.45L324.22 297.71L323.5 296.16L318.59 290.23L310.68 292.31L308.43 294.01L308.14 295.01L307.32 296.5L306 298.29L301.42 303.2L300.48 304.53L300.06 306.51L299.77 307.35L299.02 308.84L298.29 309.64L297.47 310.27L295.48 310.93L293.02 311.37L291.39 311.41L290.43 311.31L279.79 308.06L272.06 307.78L271.02 307.62L269.11 307L261.53 302.16L260.29 301.8L258.64 301.56L252.37 301.51L251.34 301.32L250.42 300.98L247.49 298.99L246.42 298.47L244.99 298.03L242.45 297.65H240.65L227.68 300.49L225.96 300.55L222.86 299.8L216.27 297.27L215.13 297.3L214.2 297.62L213.55 298.18L212.63 298.83L211.48 299.46L209.41 300.21L207.97 300.44Z" fill="#C7C7C7" stroke="white" stroke-width="2"/>
<path d="M212.62 544.96L210.98 544.55L204.85 541.03L197.79 533.99L195.74 539.64L194.76 541.28L184.05 555L182.09 556.7L166.36 575.55L164.72 578.44L164.66 580.07L164.82 581.24L165.16 582.2L165.62 582.94L166.21 583.61L170.05 586.17L170.72 586.75L171.3 587.42L171.75 588.19L172.12 589L173.81 596.71L174.11 597.6L174.51 598.38L176.95 601.58L176.98 601.66L177 601.68L177.18 602.17L177.51 604.47L177.59 606.59L177.78 607.98L178.1 609.06L178.59 609.81L179.16 610.48L179.78 611.09L182.86 615.35L184.17 616.55L185.66 617.58L186.56 617.96L190.7 619.06L191.58 619.58L192.31 620.26L192.79 621.44L192.78 622.52L192.52 623.47L192.2 624.33L191.8 625.14L191.47 626.09L191.21 627.12L188.95 644.79L188.9 647.06L189.06 647.64L189.3 648.29L195.56 659.11L197.34 663.37L197.61 664.39L198.03 667.05L198.63 669.15L199.01 670.19L199.37 671.44L200.03 675.98L200.59 677.82L200.92 678.68L201.35 679.47L203.99 683.1L205.19 685.11L211.61 685.48L233.28 689.7L234.99 689.53L237.06 689.02L240.76 687.56L242.51 686.66L243.73 685.85L249.96 678.24L252.46 676.08L252.89 675.78L253.53 675.46L263.81 672.87L267.25 671.49L270.33 669.67L276.4 664.64L281.02 665.77L297.43 674.16L299.25 672.65L300.51 671.33L301.04 670.61L301.52 669.81L301.93 668.96L302.27 668L302.56 666.97L302.73 665.8L303.56 648.98L303.23 647.37L302.58 645.46L299.99 640.36L297.75 636.93L289.21 605.56L286.89 600.82L284.03 597.44L283.04 595.32L282.89 594.32L282.63 589.98L282.48 588.98L281.98 587.31L281.52 586.3L280.7 585.03L279.71 583.89L279.04 582.94L269.77 572.72L266.8 567.23L266.27 566.55L264.67 565.55L256.36 562.28L251.38 561.06L245.53 560.78L244.21 560.34L242.85 559.61L241.02 557.89L240.21 556.68L239.76 555.5L239.32 552.43L238.73 550.65L237.88 549.1L236.76 547.75L236.08 547.18L234.35 546.46L225.7 544.41L220.73 543.8L212.62 544.96Z" fill="#C7C7C7" stroke="white" stroke-width="2"/>
<path d="M223.67 1L220.66 1.11L215.16 2.15L214.11 2.54L211.17 4.08L209.57 4.06L206.77 2.72L205.29 2.59L201.51 5.21L197.42 10.21L194.23 15.82L193.11 20.25L192.28 25.7L189.3 30.6L184.97 34.05L180.1 35.09L179.35 34.59L177.49 32.54L176.3 31.93L175.43 32.38L173.57 34.64L172.39 35.09L170.21 34.21L168.6 32.74L166.72 31.5L163.79 31.37L161.87 32.29L158.46 35.36L156.98 36.09L154.64 35.5L152.4 31.98L150.4 30.94L146.79 31.01L140.22 32.2L136.47 31.8L131.75 28.66L128.85 19.59L125.12 15.93L121.78 16.04L120.51 17.69L121.18 21.51L123.31 28.97L122.21 35.74L118.97 41.3L89.4399 68.46L85.3199 73.6L83.4199 79.86L84.0199 86.67L87.3899 93.42L89.5999 96.79L92.9499 104.07L94.1999 107.96L95.5799 114.12L96.5999 118.65L96.9699 121.82L96.9799 121.81L100.57 116.44L101.35 115.77L102.39 115.04L103.89 114.98L108 115.44L109.63 115.98L111.69 117.19L121.41 124.52L123.94 126.83L125.05 128.1L127.54 131.57L128.28 132.37L129.26 133.22L131.06 134.37L132.46 134.86L133.78 135.11L139.08 135.09L142.15 135.52L143.76 135.97L144.98 136.48L147.43 138.37L148.34 139.27L153.27 142.79L173.13 153.4L180.28 155.72L181.44 156.42L183.68 158.29L183.75 158.34L190.65 165.25L193.51 167.28L197.13 169.2L206.15 171.91L207.65 172.05L208.64 171.89L209.52 171.62L210.32 171.26L214.38 168.15L215.82 167.36L216.81 166.98L226.68 165.74L230.28 165.95L247.29 169.05L249.43 169.15L252.98 168.15L260.19 167.45L262.05 167.01L263.69 166.34L265.06 165.6L273.86 158.22L275.26 157.34L276.97 156.75L281.98 156.09L283.74 155.53L284.49 155.08L285.13 154.54L287.27 151.84L287.92 151.28L289.41 150.39L292.78 148.99L293.45 148.61L294.75 147.52L295.29 146.82L296.17 145.23L297.27 142.62L298.13 141.01L298.65 140.31L299.24 139.67L300.3 139.14L301.78 138.79L304.5 138.52L306 138.73L307.19 139.02L315.52 142.09L339.33 147.33L340.32 147.71L342.77 149.22L345.85 151.9L346.92 153.24L349.17 156.89L350.89 158.94L354.72 162.24L355.83 163.49L357.34 165.58L358.53 166.79L364.12 171.16L364.26 171.27L363.49 170.02L363.46 166.24L364.36 158.24L364.49 146.78L365.11 142.99L367.73 138.24L368.47 133.06L367.52 127.82L365.11 123L355.29 114.99L353.03 112.16L348.06 102.43L347.07 100.97L345.77 99.72L342.87 97.83L341.2 96.41L340.54 94.72L340.15 92.88L339.29 90.97L334.56 85.28L331.56 82.4L326.63 79.92L317.85 72.47L310.94 68.56L308.93 66.8L306.76 63.87L303.13 57.72L300.64 55.15L292.65 50.03L290.14 47.71L288.27 46.2L282.72 39.81L281.39 37.64L280.58 36.67L278.96 35.65L277.49 35.45L276.06 35.48L274.53 35.09L272.14 33.58L271.97 32.45L272.45 30.64L271.95 27.12L270.57 24.77L268.31 22.58L265.78 20.84L261.12 18.6L251.79 12.18L250.35 10.37L247.57 5.68L242.15 1.9L236.46 2.06L230.89 3.02L223.67 1Z" fill="#C7C7C7" stroke="white" stroke-width="2"/>
<path d="M297.43 674.16L281.02 665.77L276.4 664.64L270.33 669.67L267.25 671.49L263.81 672.87L253.53 675.46L252.89 675.78L252.46 676.08L249.96 678.24L243.73 685.85L242.51 686.66L240.76 687.56L237.06 689.02L234.99 689.53L233.28 689.7L211.61 685.48L205.19 685.11L207.2 689.53L208.45 694.93L209.13 696.51L209.84 697.6L210.6 698.11L213.14 699.42L214.21 700.23L219.1 706.05L224.64 714.88L225.48 716.79L225.58 717.98L225.56 718.53L225.37 719.04L225.07 719.5L224.03 720.77L217.37 726.21L216.7 726.64L215.59 727.2L209.18 729.06L206.8 730.36L203.21 732.96L202.52 733.89L201.94 735.23L201.33 737.62L201.26 739.11L201.44 740.31L201.84 741.14L202.3 741.91L205.26 745.44L205.86 746.46L205.78 747.72L204.68 751.48L203.94 752.9L203.04 753.99L202.2 755.93L202.02 757.93L202.16 761.44L201.96 763.16L201.54 764.39L200.96 765.08L191.74 773.1L194.06 773.59L198.85 775.78L201.56 778.12L204.38 781.35L205.3 782.18L207.49 783.7L208.47 784.96L208.24 787.45L210.44 789.46L214.48 792L217.24 794.18L220.36 797.27L223.92 801.35L228.89 804.96L231.22 807.19L233.24 811.67L235.76 813.51L247.55 818.68L259.81 820.24L269.88 823.08L272.56 824.9L275.19 826.15L280.8 829.71L283.13 830.83L285.55 831.18L288.77 828.96L294.07 828.72L299.57 829.59L307.47 832.8L310.41 834.05L312.14 836.02L312.98 835.17L313.41 834.5L313.67 832.98L313.69 831.66L312.2 825.18L311.12 823.37L308.84 820.64L303.45 815.9L298.6 813.04L297.9 812.47L297.39 811.52L297.09 810.2L296.87 805.2L296.04 800.12L296.22 798.88L296.69 797.65L297.77 796.26L298.75 795.57L300.55 794.69L301.27 794.2L301.92 793.61L302.48 792.9L303.47 791.3L304.59 789.89L307.12 787.45L307.46 786.31L307.45 784.85L306.74 782.38L306.19 781.13L305.68 780.24L305.57 779.45L305.59 778.12L306.56 773.76L306.63 770.33L305.51 768L304.76 766.9L296.5 757.93L296.15 757.05L296.17 755.9L296.79 754.35L297.5 753.43L298.31 752.86L301.2 751.29L301.85 750.72L302.4 750.01L302.83 749.16L303.15 747.44L303.81 735.44L303.64 733.69L302.92 730.98L300.17 724L299.92 723.06L299.89 721.96L300.27 720.58L300.71 719.54L303.97 713.77L304.32 712.82L304.55 711.3L304.64 709.31L304.02 701.84L299.48 680.06L297.43 674.16Z" fill="#C7C7C7" stroke="white" stroke-width="2"/>
<path d="M70.4706 667.4L68.9305 667.19L67.7605 666.88L67.1005 666.52L66.6905 666.22L66.1405 665.74L65.6505 665.1L64.7605 663.56L64.4105 662.7L63.8405 660.9L63.1105 659.22L62.6905 658.46L61.7505 657.22L60.9605 656.39L44.0405 652.01L41.4505 651.7L39.0505 652.42L25.0505 662.16L11.5405 667.84L9.44055 668.45L4.66055 669.31L4.57055 669.32H4.56055L5.40055 674.14L6.50055 677.84L8.58055 681.33L11.0405 683.55L16.6805 686.98L19.4205 689.36L32.1205 707.88L33.8505 711.72L35.5905 718.53L37.4705 720.67L41.5305 721.5L45.0105 721.7L48.9905 722.44L52.7005 724.01L55.3405 726.57L57.6805 732.5L59.4205 735.28L64.3505 737.66L75.4806 750.94L78.4706 755.92L82.2405 760.03L81.8605 767.33L84.5806 771.73L88.7805 773.04L90.0406 775.78L88.5806 777.23L93.5005 777.99L97.8905 777.46L102.261 777.84L106.101 775.48L108.831 775.85L117.231 772.59L123.251 769.87L127.621 768.96L131.451 769.15L136.181 774.08L141.471 771.71L145.671 769.7L149.501 770.06L151.321 772.43L155.151 770.06L162.081 769.86L164.821 772.23L173.041 771.66L186.381 771.98L191.741 773.1L200.961 765.08L201.541 764.39L201.961 763.16L202.161 761.44L202.021 757.93L202.201 755.93L203.041 753.99L203.941 752.9L204.681 751.48L205.781 747.72L205.861 746.46L205.261 745.44L202.301 741.91L201.841 741.14L201.441 740.31L201.261 739.11L201.331 737.62L201.941 735.23L202.521 733.89L203.211 732.96L206.801 730.36L209.181 729.06L215.591 727.2L216.701 726.64L217.371 726.21L224.031 720.77L225.071 719.5L225.371 719.04L225.561 718.53L225.581 717.98L225.481 716.79L224.641 714.88L219.101 706.05L214.211 700.23L213.141 699.42L210.601 698.11L209.841 697.6L209.131 696.51L208.451 694.93L207.201 689.53L205.191 685.11L189.561 682.65L177.161 682.66L172.921 682.1L172.101 681.65L169.271 679.44L166.711 677.01L163.881 675.3L160.651 673.79L157.891 673.02L132.041 680.08L122.971 680.97L118.751 680.62L98.2805 673.52L96.8205 672.46L96.1105 671.78L95.1405 670.55L95.3406 670.77L95.0906 670.44L94.7906 669.94L93.9806 669.14L92.9006 668.31L90.8605 667.26L89.3505 666.84L77.6206 666.47L73.1405 667.28L70.4706 667.4Z" fill="#C7C7C7" stroke="white" stroke-width="2"/>
<path d="M739.99 635.88L735.77 628.49L736.2 612.39L739.62 582.74L736.3 555.77L736.19 542.54L738.62 534.33L738.52 534.35L724.3 537.68L713.39 542.39L701.45 545.86L700.61 546.6L699.03 548.53L698.31 550.6L697.86 552.66L697.07 554.55L695.48 556.23L691.9 557.79L689.84 559L687.14 561.97L682.43 568.58L678.93 570.92L673.81 572.41L672.22 573.97L668.42 581.94L665.39 585.49L661.86 588.41L658.21 590.64L650.3 592.64L648.53 594.29L647.89 595.39L647.17 596.24L646.31 596.9L645.26 597.44L641.66 598.04L638.13 598.1L635.48 599.31L632.26 610.43L626.62 615.55L614.58 622.6L611.37 626.17L609.97 628.97L609.3 632.7L610.72 642.96L610.48 644.51L609.82 646.47L606.51 651.94L605.54 653.18L604.96 654.29L604.42 655.77L603.92 658.68L603.65 664.09L603.26 666.19L602.63 667.31L598.08 672.59L594.43 678.43L597.62 709L597.53 709.89L597.12 711.86L596.8 712.84L595.1 716.31L594.76 717.25L594.48 718.26L592.94 728.25L593.31 739.41L593.86 742.5L594.2 746.65L593.63 757.58L592.87 762.65L592.49 763.27L592.12 763.57L591.47 763.75L590.65 763.57L589.81 763.24H588.77L587.74 763.74L586.64 766.02L586.25 768.22L586.03 771.76L586.21 773.54L586.51 774.87L587.55 776.31L588.03 777.45L588.35 779.08L588.67 783.89L588.92 785.25L589.41 786L590.69 787.58L591.32 788.77L591.96 790.95L592.06 792.45L591.91 793.75L591.64 794.79L590.93 796.66L588.63 800.72L588.1 801.98L586.85 806.78L586.43 810.79L586.78 818.09L587.13 820.15L589.11 826.91L589.18 827.91L589.06 828.76L588.68 829.5L587.52 831.06L586.89 832.13L586.32 833.96L586.25 835.37L586.38 836.36L587.1 838.31L587.14 838.46L620.78 820.36L623.54 818.04L624.73 815.73L623.37 811.7L620.6 809.36L618.36 808.87L618.58 810.3L616.14 810.7L615.03 808.78L615.06 806.3L615.98 805.09L618.28 804.26L621.08 802.29L623.53 799.78L624.73 797.5L619.14 795.01L617.46 793.76L620.41 793.84L624.7 794.89L628.76 796.64L630.96 798.86L630.59 799.63L629.07 804.07L628.82 806.33L629.18 807.89L629.9 809.27L630.85 810.4L631.9 811.32L629.32 813.66L628.41 814.85L627.8 816.39L631.23 816.13L644.86 813.04L645.67 811.01L645.6 808.2L646.23 805.09L648.05 802.63L670.9 780.19L681.99 772.32L695.86 764.51L702 762.59L702.18 759.33L699.75 752.71L702.99 742.26L703.33 740.3L704.73 738.44L710.08 727.81L712.69 724.71L720.73 718.53L728.04 709.08L730.55 706.77L735.8 703.1L737.23 700.51L738.02 692.23L740.89 683.18L743.88 668.18L745.76 661.91L749.08 655.94L754.5 649.25L757.26 646.75L759.85 644.97L755.02 645.26L753.17 643.22L752.09 640.06L750.65 637.11L748.21 635.38L745.74 635.36L743.06 635.88H739.99Z" fill="#C7C7C7" stroke="white" stroke-width="2"/>
<path d="M334.04 830.66L333.21 830.55L331.95 830.21L329.82 829.05L328.87 828.37L328.21 827.68L326.46 824.67L325.93 823.97L324.74 822.66L323.89 822.12L322.8 821.69L321.19 821.43L319.9 821.4L317.17 822.22L312.2 825.18L313.69 831.66L313.67 832.98L313.41 834.5L312.98 835.17L312.14 836.02L312.63 836.59L308.8 837.55L306.27 840.14L303.71 842.36L304.06 845.07L306.39 847.21L315.41 852.55L320.13 856.61L323.63 856.12L326.95 856.62L328.37 856.61L331.35 854.18L332.24 851.41L334.63 851.75L336.3 853.19L336.12 855.24L334.87 856.89L337.64 857.95L340.23 858.46L343.41 863.01L344.34 859.2L346.47 857.82L351.04 855.19L356.37 855.66L361.06 852.88L359.96 851.21L359.41 849.39L358.9 845.97V842.49L359.02 841.32L359.22 840.32L360.79 836.57L361.37 834.58L361.43 833.48L360.98 832.6L360.07 832.06L358.07 832.16L356.81 832.46L355.56 832.58L354.47 832.35L353.2 831.34L352.57 830.47L352.12 829.69L351.81 829.33L351.16 828.88L350.31 828.56L349.51 828.06L348.82 827.49L347.95 825.83L347.61 824.99L346.96 823.73L346.12 823.49L344.75 823.46L341.77 824.42L340.32 825.24L339.34 826.17L338.3 827.75L337.74 828.48L337.1 829.1L336.4 829.64L335.61 830.07L334.04 830.66Z" fill="#C7C7C7" stroke="white" stroke-width="2"/>
<path d="M522.98 868.91L525.88 868.27L529.71 863.75L532.72 862.65L535.86 862.1L561.85 849.53L568.23 847.55L571.29 846.12L576.14 842.03L585.45 839.36L587.14 838.46L587.1 838.31L586.38 836.36L586.25 835.37L586.32 833.96L586.89 832.13L587.52 831.06L588.68 829.5L589.06 828.76L589.18 827.91L589.11 826.91L587.13 820.15L586.78 818.09L586.43 810.79L586.85 806.78L588.1 801.98L588.63 800.72L590.93 796.66L591.64 794.79L591.91 793.75L592.06 792.45L591.96 790.95L591.32 788.77L590.69 787.58L589.41 786L588.92 785.25L588.67 783.89L588.35 779.08L588.03 777.45L587.55 776.31L586.51 774.87L586.21 773.54L586.03 771.76L586.25 768.22L586.64 766.02L587.74 763.74L588.77 763.24H589.81L590.65 763.57L591.47 763.75L592.12 763.57L592.49 763.27L592.87 762.65L593.63 757.58L594.2 746.65L593.86 742.5L593.31 739.41L592.94 728.25L594.48 718.26L594.76 717.25L595.1 716.31L596.8 712.84L597.12 711.86L597.53 709.89L597.62 709L594.43 678.43L588.18 683.17L586.48 685.67L586.24 686.74L586.08 687.87L584.82 691.94L582.9 696.08L581.71 697.86L580.64 699.01L577.16 700.38L569.79 701.33L568.31 701.85L566.51 702.73L563.32 704.82L561.91 706.14L561 707.3L560.66 708.27L560.01 709.73L555.67 716.34L553.44 721.33L550.22 726.92L549.77 728.35L549.84 728.92L550.24 730.25L550.37 730.84L550.46 731.6L550.45 732.56L550.3 733.58L550.02 734.58L549.55 738.28L549.01 740.08L548.28 741.21L547.31 742.11L545.9 743.12L545.11 744.07L544.65 745.16L541.99 754.18L541.59 756.38L541.3 760.27L540.78 762.09L540.11 763.04L539.25 763.63L536.57 765.02L534.32 766.93L532.92 767.82L531.67 768.3L528.9 768.75L524.25 771.19L522.43 771.79L519.21 772.15L517.17 773.31L514.4 775.36L506.17 783.22L504.32 784.63L503.4 784.94L501.33 785.25L496.67 784.88L494.47 784.94L493.46 785.1L491.63 785.73L474.61 800.18L473.51 800.89L469.96 802.6L466.04 803.59L445.8 804.72L448.07 809.88L449.64 811.83L451.85 813.55L453.71 815.32L454.45 816.63L454.77 817.89L454 822.38L453.91 823.63L454.01 825.16L454.45 826.14L455 826.91L456.12 828.08L459.07 832.46L460.34 834.93L460.61 836.32L460.73 837.73L466.05 840.63L473.81 851.13L477.75 855.05L483.52 856.16L497.31 852.9L504.46 852.55L507.72 853.25L509.09 853.9L510.61 855.05L511.6 856.67L511.46 857.83L511.82 858.54L517.74 859.32L520.41 860.69L522.44 862.73L524.01 865.15L524 865.9L523.68 867.06L522.98 868.91Z" fill="#C7C7C7" stroke="white" stroke-width="2"/>
<path d="M592.87 592.49L591.11 592.28L580.91 589.05L580.1 588.6L578.13 586.86L577.25 586.48L576.27 586.17L564.08 584.21L559.57 582.94L554.41 579.44L550.29 574.97L549.42 574.36L548.24 573.88L546.32 573.41L544.04 572.55L542.91 572.34L541.41 572.47L537.58 573.94L530.86 577.39L529.68 577.69L528.19 577.77L525.58 577.36L524.26 576.81L523.26 576.16L522.6 575.57L521.76 575.14L518.81 574.27L517.38 573.46L516.94 573.29L516.14 573.35L508.33 574.72L505.42 576.02L498.08 580.39L499.05 581.77L499.85 583.28L500.16 584.19L500.34 585.19L500.49 588.49L500.3 590.83L499.84 592.26L499.09 593.81L497.31 596.04L496.36 596.99L495.55 597.6L490.42 599.46L488.86 600.32L487.6 601.21L487.19 601.6L487.13 601.69L487.01 601.8L486.68 602.22L485.94 603.47L484.94 605.61L482.27 613.11L481.51 614.26L480.07 615.81L479.04 616.66L478.11 617.29L476.42 618.01L471.67 619.22L469.96 619.92L469.24 620.43L468.55 621.43L467.97 622.85L467.43 625.66L467.38 627.29L467.56 628.57L467.89 629.43L468.29 630.24L472.06 636.26L472.46 637.07L472.77 637.97L472.97 638.97L473.05 640.05L473.03 641.14L472.59 645.89L472.08 648.09L466.97 659.79L466.4 661.61L465.99 667.56L465.51 668.85L464.68 670.15L462.81 671.87L459.83 673.86L458.48 675.01L457.9 675.69L456.64 677.94L454.77 682.78L453.18 685.06L451.44 686.94L450.41 688.29L449.67 689.51L449.1 691.81L449.11 691.83L449.17 693.19L449.12 694.19L448.95 695.27L448.67 696.25L448 697.35L447.05 698.48L439.79 704.8L438.01 706.78L437.28 707.94L436.46 709.48L435.2 712.54L434.2 715.86L433.55 717.22L432.49 718.7L428.3 723.13L423.93 729.43L428.01 745.86L430.01 751.8L436.25 763.5L436.82 765.19L437.04 766.72L436.93 767.88L435.13 776.92L435.02 778.52L435.16 782.49L435.5 783.24L436.31 784.65L442.5 792.25L444.98 796.99L445.82 799.64L445.8 804.72L466.04 803.59L469.96 802.6L473.51 800.89L474.61 800.18L491.63 785.73L493.46 785.1L494.47 784.94L496.67 784.88L501.33 785.25L503.4 784.94L504.32 784.63L506.17 783.22L514.4 775.36L517.17 773.31L519.21 772.15L522.43 771.79L524.25 771.19L528.9 768.75L531.67 768.3L532.92 767.82L534.32 766.93L536.57 765.02L539.25 763.63L540.11 763.04L540.78 762.09L541.3 760.27L541.59 756.38L541.99 754.18L544.65 745.16L545.11 744.07L545.9 743.12L547.31 742.11L548.28 741.21L549.01 740.08L549.55 738.28L550.02 734.58L550.3 733.58L550.45 732.56L550.46 731.6L550.37 730.84L550.24 730.25L549.84 728.92L549.77 728.35L550.22 726.92L553.44 721.33L555.67 716.34L560.01 709.73L560.66 708.27L561 707.3L561.91 706.14L563.32 704.82L566.51 702.73L568.31 701.85L569.79 701.33L577.16 700.38L580.64 699.01L581.71 697.86L582.9 696.08L584.82 691.94L586.08 687.87L586.24 686.74L586.48 685.67L588.18 683.17L594.43 678.43L598.08 672.59L602.63 667.31L603.26 666.19L603.65 664.09L603.92 658.68L604.42 655.77L604.96 654.29L605.54 653.18L606.51 651.94L609.82 646.47L610.48 644.51L610.72 642.96L609.3 632.7L609.97 628.97L611.37 626.17L614.58 622.6L626.62 615.55L632.26 610.43L635.48 599.31L638.13 598.1L641.66 598.04L645.26 597.44L646.31 596.9L647.17 596.24L647.89 595.39L644.17 593.58L640.22 591.01L634.81 588.81L631.61 586.98L630.3 585.86L627.98 583.3L625.74 579.46L624.23 576.13L623.75 575.41L623.05 574.85L622.2 574.46L620.82 574.3L619.1 574.38L614.73 575.44L613.56 575.96L608.7 579.8L607.92 580.22L606.21 580.96L605.4 581.42L604.73 582.02L604.22 582.77L603.89 583.71L603.45 585.74L602.67 587.47L602.15 588.21L601.59 588.88L600.92 589.47L600.2 589.94L594.23 592.4L592.87 592.49Z" fill="#C7C7C7" stroke="white" stroke-width="2"/>
<path d="M498.081 580.39L495.101 576.58L494.741 575.39L494.521 573.55L494.791 572.41L495.211 571.46L495.731 570.71L496.331 570.05L498.551 568.54L499.551 567.33L500.651 565.49L502.331 561.19L502.891 558.92L503.121 557.17L501.641 549.06L501.491 542.87L500.121 533.12L492.511 537.32L489.971 539.06L481.731 546.96L479.691 548.42L478.061 549.21L476.991 549.13L476.031 548.85L473.551 547.5L472.541 547.18L471.201 547.11L467.891 548.74L464.491 550.99L456.321 555.22L455.051 556.54L452.081 560.39L423.441 576.67L420.051 578.05L418.941 578.08L413.391 577.09L412.041 577.03L410.201 577.27L409.141 577.77L408.401 578.49L407.881 579.24L406.911 580.32L405.481 581.59L401.541 584.16L392.331 588.38L387.311 589.98L386.201 590.14L384.031 590.01L383.001 589.77L382.081 589.44L379.631 588.07L378.681 587.78L377.581 587.67L376.491 587.69L368.631 589.25L363.561 589.7L362.161 590.25L361.361 590.94L361.001 591.92L360.621 593.98L360.131 595.07L359.281 596.09L356.161 598.42L354.721 599.73L353.611 600.19L352.471 600.3L345.171 598.07L341.001 597.6L332.501 598.26L331.421 598.08L330.461 597.74L329.631 597.3L328.971 596.73L328.451 596.02L328.031 595.23L326.911 591.59L326.561 590.76L326.101 590L325.511 589.36L324.791 588.86L323.801 588.59L322.631 588.6L315.651 589.39L314.551 589.27L313.531 588.99L311.771 588.21L309.511 586.69L308.841 586.12L307.531 584.78L306.641 584.22L305.141 583.92L304.341 584.36L303.911 585.23L303.841 586.28L303.891 587.39L304.401 591.62L304.481 596.13L304.121 597.37L303.281 598.59L301.341 600.16L299.951 600.79L298.741 601.1L286.891 600.82L289.211 605.56L297.751 636.93L299.991 640.36L302.581 645.46L303.231 647.37L303.561 648.98L302.731 665.8L302.561 666.97L302.271 668L301.931 668.96L301.521 669.81L301.041 670.61L300.511 671.33L299.251 672.65L297.431 674.16L299.481 680.06L304.021 701.84L304.641 709.31L304.551 711.3L304.321 712.82L303.971 713.77L300.711 719.54L300.271 720.58L299.891 721.96L299.921 723.06L300.171 724L302.921 730.98L303.641 733.69L303.811 735.44L303.151 747.44L302.831 749.16L302.401 750.01L301.851 750.72L301.201 751.29L298.311 752.86L297.501 753.43L296.791 754.35L296.171 755.9L296.151 757.05L296.501 757.93L304.761 766.9L305.511 768L306.631 770.33L309.241 761.1L310.771 758.31L312.291 757.39L314.231 756.58L316.751 755.93L321.231 755.61L323.431 755.7L324.911 755.95L326.611 756.54L333.241 760.24L334.981 760.44L337.491 760.27L344.941 758.61L346.481 757.89L347.621 756.47L348.941 753.93L350.861 748.07L351.271 747.18L352.191 746.12L353.621 744.92L367.021 736.07L368.461 735.92L370.471 736.07L373.561 736.99L381.491 740.9L382.721 741.13L384.461 741.17L387.851 740.72L389.551 740.25L390.831 739.76L401.031 733.48L405.171 732.08L423.931 729.43L428.301 723.13L432.491 718.7L433.551 717.22L434.201 715.86L435.201 712.54L436.461 709.48L437.281 707.94L438.011 706.78L439.791 704.8L447.051 698.48L448.001 697.35L448.671 696.25L448.951 695.27L449.121 694.19L449.171 693.19L449.111 691.83L449.101 691.81L449.671 689.51L450.411 688.29L451.441 686.94L453.181 685.06L454.771 682.78L456.641 677.94L457.901 675.69L458.481 675.01L459.831 673.86L462.811 671.87L464.681 670.15L465.511 668.85L465.991 667.56L466.401 661.61L466.971 659.79L472.081 648.09L472.591 645.89L473.031 641.14L473.051 640.05L472.971 638.97L472.771 637.97L472.461 637.07L472.061 636.26L468.291 630.24L467.891 629.43L467.561 628.57L467.381 627.29L467.431 625.66L467.971 622.85L468.551 621.43L469.241 620.43L469.961 619.92L471.671 619.22L476.421 618.01L478.111 617.29L479.041 616.66L480.071 615.81L481.511 614.26L482.271 613.11L484.941 605.61L485.941 603.47L486.681 602.22L487.011 601.8L487.131 601.69L487.191 601.6L487.601 601.21L488.861 600.32L490.421 599.46L495.551 597.6L496.361 596.99L497.311 596.04L499.091 593.81L499.841 592.26L500.301 590.83L500.491 588.49L500.341 585.19L500.161 584.19L499.851 583.28L499.051 581.77L498.081 580.39Z" fill="#C7C7C7" stroke="white" stroke-width="2"/>
<path d="M445.8 804.72L445.82 799.64L444.98 796.99L442.5 792.25L436.31 784.65L435.5 783.24L435.16 782.49L435.02 778.52L435.13 776.92L436.93 767.88L437.04 766.72L436.82 765.19L436.25 763.5L430.01 751.8L428.01 745.86L423.93 729.43L405.17 732.08L401.03 733.48L390.83 739.76L389.55 740.25L387.85 740.72L384.46 741.17L382.72 741.13L381.49 740.9L373.56 736.99L370.47 736.07L368.46 735.92L367.02 736.07L353.62 744.92L352.19 746.12L351.27 747.18L350.86 748.07L348.94 753.93L347.62 756.47L346.48 757.89L344.94 758.61L337.49 760.27L334.98 760.44L333.24 760.24L326.61 756.54L324.91 755.95L323.43 755.7L321.23 755.61L316.75 755.93L314.23 756.58L312.29 757.39L310.77 758.31L309.24 761.1L306.63 770.33L306.56 773.76L305.59 778.12L305.57 779.45L305.68 780.24L306.19 781.13L306.74 782.38L307.45 784.85L307.46 786.31L307.12 787.45L304.59 789.89L303.47 791.3L302.48 792.9L301.92 793.61L301.27 794.2L300.55 794.69L298.75 795.57L297.77 796.26L296.69 797.65L296.22 798.88L296.04 800.12L296.87 805.2L297.09 810.2L297.39 811.52L297.9 812.47L298.6 813.04L303.45 815.9L308.84 820.64L311.12 823.37L312.2 825.18L317.17 822.22L319.9 821.4L321.19 821.43L322.8 821.69L323.89 822.12L324.74 822.66L325.93 823.97L326.46 824.67L328.21 827.68L328.87 828.37L329.82 829.05L331.95 830.21L333.21 830.55L334.04 830.66L335.61 830.07L336.4 829.64L337.1 829.1L337.74 828.48L338.3 827.75L339.34 826.17L340.32 825.24L341.77 824.42L344.75 823.46L346.12 823.49L346.96 823.73L347.61 824.99L347.95 825.83L348.82 827.49L349.51 828.06L350.31 828.56L351.16 828.88L351.81 829.33L352.12 829.69L352.57 830.47L353.2 831.34L354.47 832.35L355.56 832.58L356.81 832.46L358.07 832.16L360.07 832.06L360.98 832.6L361.43 833.48L361.37 834.58L360.79 836.57L359.22 840.32L359.02 841.32L358.9 842.49V845.97L359.41 849.39L359.96 851.21L361.06 852.88L366.21 849.83L373.65 844.4L383.44 837.84L387.99 835.94L398 832.48L403.33 834.04L412.78 830.77L419.79 833.75L426.53 832.17L432.62 834.98L440.35 837.03L446.56 836.37L456.5 837.2L460.25 837.47L460.73 837.73L460.61 836.32L460.34 834.93L459.07 832.46L456.12 828.08L455 826.91L454.45 826.14L454.01 825.16L453.91 823.63L454 822.38L454.77 817.89L454.45 816.63L453.71 815.32L451.85 813.55L449.64 811.83L448.07 809.88L445.8 804.72Z" fill="#C7C7C7" stroke="white" stroke-width="2"/>
<path d="M691.63 470.17L690.13 470.02L688.92 469.75L688.07 469.34L686.53 468.36L677.02 460.59L675.47 459.68L674.55 459.32L673.18 459.37L671.48 459.79L667.31 462.22L666.55 462.83L665.57 464.01L662.32 466.89L661.78 467.57L661.36 468.34L661.23 469.26L661.42 470.13L661.77 470.94L662.65 472.48L663.03 473.33L663.24 474.25L662.87 475.19L662.02 475.9L659.94 476.05L658.74 475.74L657.74 475.27L657.07 474.7L648.94 469.15L648.12 468.75L647.22 468.47L646.21 468.43L643.04 468.67L641.9 468.62L640.829 468.46L639.85 468.18L639.07 467.72L637.63 466.69L636.759 466.3L632.57 465.8L629.49 464.75L623.8 463.99L622.829 463.7L622 463.29L621.3 462.76L620.04 461.56L619.329 461.04L617.829 461.18L615.61 462.09L608.17 466.3L605.06 467.28L596.65 467.85L594.54 467.53L593.449 467.63L592.5 468.15L591.61 469.62L590.86 471.91L590.47 472.79L589.68 473.53L588.56 474.12L586.389 474.47L585.07 474.33L583.96 474.06H583.02L582.18 474.49L581.43 475.53L580.389 477.32L579.34 478.75L578.46 479.46L577.25 480L574.96 480.44L573.52 480.38L572.28 480.18L569.56 479.08L567.509 478.61L565.5 478.55L564.139 478.78L557.18 481.66L554.8 482.17L549.949 482.12L545.72 482.57L543.82 483.05L535 487.57L532.44 489.8L530.12 492.4L528.81 493.53L528.04 493.97L522.91 496.07L521.139 497.35L519.96 498.58L519.04 499.3L515.699 501.24L514.92 501.88L513.98 502.98L513.199 504.25L512.67 505.33L512.579 506.64L512.9 508.16L515.07 511.95L515.3 513.18L515.28 516.43L513.87 519.22L513.389 519.94L512.32 521.13L510.99 522.28L502.6 527.74L501.31 529.35L500.12 533.12L501.49 542.87L501.64 549.06L503.12 557.17L502.89 558.92L502.33 561.19L500.65 565.49L499.55 567.33L498.55 568.54L496.33 570.05L495.73 570.71L495.21 571.46L494.79 572.41L494.52 573.55L494.74 575.39L495.1 576.58L498.08 580.39L505.42 576.02L508.33 574.72L516.139 573.35L516.94 573.29L517.38 573.46L518.81 574.27L521.759 575.14L522.6 575.57L523.259 576.16L524.259 576.81L525.579 577.36L528.19 577.77L529.68 577.69L530.86 577.39L537.579 573.94L541.41 572.47L542.91 572.34L544.04 572.55L546.32 573.41L548.24 573.88L549.42 574.36L550.29 574.97L554.41 579.44L559.57 582.94L564.079 584.21L576.27 586.17L577.25 586.48L578.13 586.86L580.1 588.6L580.91 589.05L591.11 592.28L592.87 592.49L594.23 592.4L600.199 589.94L600.92 589.47L601.59 588.88L602.15 588.21L602.67 587.47L603.449 585.74L603.889 583.71L604.22 582.77L604.73 582.02L605.4 581.42L606.21 580.96L607.92 580.22L608.699 579.8L613.56 575.96L614.73 575.44L619.1 574.38L620.82 574.3L622.199 574.46L623.05 574.85L623.75 575.41L624.23 576.13L625.74 579.46L627.98 583.3L630.3 585.86L631.61 586.98L634.81 588.81L640.22 591.01L644.17 593.58L647.889 595.39L648.53 594.29L650.3 592.64L658.21 590.64L661.86 588.41L665.389 585.49L668.42 581.94L672.22 573.97L673.81 572.41L678.93 570.92L682.43 568.58L687.139 561.97L689.84 559L691.9 557.79L695.48 556.23L697.07 554.55L697.86 552.66L698.31 550.6L699.03 548.53L700.61 546.6L701.449 545.86L713.389 542.39L724.3 537.68L738.52 534.35L738.62 534.33L739.97 529.75L739.98 529.73L739.99 529.72L744.22 524L749.35 519.49L767.62 507.25L769.27 505.29L770.27 502.02L770.66 495.38L771.889 492.15L776.09 487.63L786.13 480.25L789.28 476.23L789.199 476.21L771.139 472.41L767.389 471.96L766.19 472.07L764.68 472.37L762.21 473.88L761.009 474.27L759.72 474.36L757.759 474.12L756.55 473.72L755.6 473.2L753.63 471.49L752.47 471.13L750.829 471L747.99 471.19L746.48 470.94L745.47 470.47L744.449 469.06L743.85 468.42L743.16 467.9L742.48 467.55L741.73 467.36L725.6 469.31L722.009 469.17L716.66 468.17L691.63 470.17Z" fill="#C7C7C7" stroke="white" stroke-width="2"/>
<path d="M426.42 299.89L425.36 299.75L424.18 299.15L423.03 298.06L421.41 295.66L420.03 293.07L419.41 291.34L419.33 290.33L419.66 287.15L419.52 286.22L419.18 285.42L418.29 283.93L417.92 283.11L417.72 282.18L417.66 281.08L417.84 278.8L418.33 276.7L419.58 272.94L419.76 271.9L419.78 270.84L419.57 269.91L418.93 268.2L417.59 262.48L416.97 260.72L416.12 259.2L415.15 258.39L413.78 257.51L410.91 256.25L405.97 254.65L404.91 254.12L403.82 253.33L398.8 248.64L398.15 247.85L397.73 247.14L397.21 246.03L397.16 245.94L396.86 245.32L394.6 238.48L394.48 237.48L394.71 234.13L394.59 231.98L394.35 231.05L393.73 229.33L392.18 226.16L391.59 225.35L390.81 224.54L388.28 222.58L377.44 218.01L370.28 213.94L358.01 204.14L357.19 203.71L355 203.14L352.16 203.13L351.13 203.35L348.61 204.35L346.7 206.11L343.12 211.65L342.24 214.94L340.88 217.96L339.76 224.63L339.31 226.36L338.75 227.56L338.06 228.07L336.22 229.96L334.74 232.01L333.78 233.07L332.86 233.83L332.07 234.22L329.28 235.22L328.21 235.9L327.42 237.04L324.89 242.4L324.2 243.42L319.31 248.13L318.6 249.37L314.16 261.71L313.73 263.51L314.03 264.32L314.43 265.09L315.46 266.47L316.32 268L316.9 269.74L317.24 271.7L317.69 279.2L318.04 281.14L318.57 282.94L318.86 285.36L318.59 290.23L323.5 296.16L324.22 297.71L324.86 299.45L324.91 300.6L324.68 304.44L324.84 308.59L325.2 309.99L325.64 311.07L329.22 315.55L329.78 316.62L330.09 317.73L329.99 318.99L329.63 319.87L329.09 320.39L328.44 320.61L327.16 320.83L325.57 321.39L324.81 321.83L324.14 322.38L323.65 323.63L323.3 325.42L323.36 332.95L323.27 334.17L323.26 334.2L322.63 341.7L321.63 345.4L320.86 347.18L319.14 350.32L318.43 352.4L314.11 372.09L313.01 375.21L308.48 380.53L303.45 385.25L297.88 389.35L293.45 393.43L290.94 397.32L282.93 421.47L282.24 429.59L277.51 449.45L276.89 452.07L273.91 455.61L272.42 458.27L271.86 461.58V463.79L272.23 467.33L270.74 473.31L268.14 478.63L266.82 483.96L271.29 486.62L274.01 485.93L276.87 483.74L279.39 482.59L283.02 481.95L286.02 481.87L288.6 481.95L292.42 481.43L296.24 481.73L299.33 483.55L302.56 486.84L305.82 487.15L307.4 483.96L308.47 482.2L312.59 478.88L317.45 479.3L322.51 480.38L328.25 480.62L333.09 480.35L334.02 475.1L336.65 470.47L339.42 466.69L341.4 463.04L347.99 462.03L354.25 459.7L359.53 459.37L364.74 458.41L368.84 453.64L373.05 449.45L375.17 446.12L377.75 443.19L381.31 441.24L384.54 441.07L388.2 445.23L392.25 446.61L395.46 444.35L397.88 442.01L398.62 439.03L399.39 436.92L400.85 435.29L400.76 432.82L399.55 429.53L399.88 427.4L401.6 426.45L404.53 426.76L407.74 429.53L410.21 431.3L412.96 431.08L415.4 429.89L417.38 424.75L419.29 422.25L421.66 421.97L424.87 423.37L428.29 424.28L432.13 424.69L435.53 424.36L438.65 423.37L440.65 421.03L441.25 418.06L442.02 415.45L442.37 412.98L443.74 411.1L446.09 409.89L448.69 410.64L450.01 411.88H450.03L450.27 414.7L450.56 415.65L451.15 416.61L452.26 417.66L453.18 417.79L454.07 417.63L455.15 417.84L460.42 420.9L461.03 421.69L461.68 422.33L462.87 422.58L467.52 421.72L480.84 415.51L486.02 415.18L495.78 419.08L500.9 420.15L506.16 419.36L510.78 417.24L514.72 414.18L517.89 410.55L520.94 405.36L523.24 403.03L528.57 401.41L529.81 399.83L530.84 397.84L532.22 396L533.75 394.93L536.89 393.44L538.36 392.37L540.83 389.15L544.01 381.85L546.14 378.28L546.72 376.33L546.11 374.36L545.12 372.39L544.6 370.46L544.83 368.79L545.39 367.02L546.65 364.41L550.11 360.49L551.31 358.1L551.77 354.02L553.41 352.18L557.1 353.45L563.12 357.04L565.35 356.79L568.59 355.89L566.36 353.45L565.36 351.8L563.52 347.7L561.62 344.79L556.1 339.33L553.65 335.76L547.41 328.59L544.8 323.97L542.56 321.42L538.47 318.12L537.88 317.49L534.91 313.25L534.34 312.62L533.69 312.05L530.31 310.32L523.8 307.89L521.97 307.46L510.44 306.44L507.42 305.46L501.72 302.87L499.4 302.37L494.73 302.16L488.55 302.88L479.28 302.14L464.65 298.45L460.31 297.98L458.12 298.1L454.38 299.04L441.25 299.95L437.07 299.45L432.95 298.48L431.86 298.45L430.88 298.63L428.42 299.67L427.46 299.86L426.42 299.89Z" fill="#C7C7C7" stroke="white" stroke-width="2"/>
<path d="M503.69 215.53L501.41 215.1L498.44 213.21L491.34 206.7L488.54 204.96L482.65 202.67L480.13 201.12L477.79 198.32L476.47 195.15L474.45 187.87L472.73 185.17L467.75 181.89L466.08 180.26L465.04 177.26L464.52 171L463.71 168.12L461.5 164.81L450.41 152.24L443.43 145.97L440.1 141.85L437.67 139.83L432.22 136.67L428.02 131.76L424.86 130.89L421.69 131.63L419.35 133.96L418.61 137.06L419.14 144.27L418.89 147.6L416.93 149.4L413.56 149.13L409.89 148.37L407.02 148.72L405.07 151.03L403.48 157.03L402.27 159.74L400.08 161.84L391.94 167.32L391.05 168.44L390.49 169.46L389.82 170.4L388.62 171.32L387.17 171.7L383.58 171.74L378.91 172.7L369.04 172.06L365.33 172.61L361.33 186.36L360.31 188.91L358.46 192.57L356.91 194.04L355.02 195.2L344.62 198.25L342.61 199.22L340.49 200.68L339.41 202.07L338.79 203.29L338.63 204.3L338.59 205.36L338.93 206.41L339.48 207.34L341.81 209.87L343.12 211.65L346.7 206.11L348.61 204.35L351.13 203.35L352.16 203.13L355 203.14L357.19 203.71L358.01 204.14L370.28 213.94L377.44 218.01L388.28 222.58L390.81 224.54L391.59 225.35L392.18 226.16L393.73 229.33L394.35 231.05L394.59 231.98L394.71 234.13L394.48 237.48L394.6 238.48L396.86 245.32L397.16 245.94L397.21 246.03L397.73 247.14L398.15 247.85L398.8 248.64L403.82 253.33L404.91 254.12L405.97 254.65L410.91 256.25L413.78 257.51L415.15 258.39L416.12 259.2L416.97 260.72L417.59 262.48L418.93 268.2L419.57 269.91L419.78 270.84L419.76 271.9L419.58 272.94L418.33 276.7L417.84 278.8L417.66 281.08L417.72 282.18L417.92 283.11L418.29 283.93L419.18 285.42L419.52 286.22L419.66 287.15L419.33 290.33L419.41 291.34L420.03 293.07L421.41 295.66L423.03 298.06L424.18 299.15L425.36 299.75L426.42 299.89L427.46 299.86L428.42 299.67L430.88 298.63L431.86 298.45L432.95 298.48L437.07 299.45L441.25 299.95L454.38 299.04L458.12 298.1L460.31 297.98L464.65 298.45L479.28 302.14L488.55 302.88L494.73 302.16L499.4 302.37L501.72 302.87L507.42 305.46L510.44 306.44L521.97 307.46L523.8 307.89L530.31 310.32L533.69 312.05L534.34 312.62L534.91 313.25L537.88 317.49L538.47 318.12L542.56 321.42L544.8 323.97L547.41 328.59L553.65 335.76L556.1 339.33L561.62 344.79L563.52 347.7L565.36 351.8L566.36 353.45L568.59 355.89L571.75 355.04L574.9 354.63L578.35 353.55L580.51 350.92L581.02 347.75L579.5 344.96L581 342.82L584.82 339.84L585.74 337.6L585.22 334.64L583.33 333.89L580.84 333.5L578.48 331.57L583.6 324.21L585.44 319.05L587.53 315.22L591.14 306.31L591.88 303.17L591.17 298.9L588.55 291.11L588.72 286.85L589.51 285.16L590.85 283.17L592.3 281.52L593.38 280.84L593.83 280.13L595.89 275.91L596.62 274.95L596.67 274.89L595.15 270.99L594.91 263.83L594.28 260.74L592.5 257.52L590.31 255.17L582.4 248.77L580.68 246.41L578.03 240.88L576.08 238.9L573.81 238.18L568.64 238.19L543.8 234.6L539.28 232.8L537.27 231.49L535.35 229.51L533.6 227.2L531.73 225.24L525.65 222.36L521.33 218L517.47 212.9L515.05 208.69L512.37 205.36L510.43 206.03L507.61 211.69L505.64 214.45L503.69 215.53Z" fill="#C7C7C7" stroke="white" stroke-width="2"/>
<path d="M450.01 411.88L448.69 410.64L446.09 409.89L443.74 411.1L442.37 412.98L442.02 415.45L441.25 418.06L440.65 421.03L438.65 423.37L435.53 424.36L432.13 424.69L428.29 424.28L424.87 423.37L421.66 421.97L419.29 422.25L417.38 424.75L415.4 429.89L412.96 431.08L410.21 431.3L407.74 429.53L404.53 426.76L401.6 426.45L399.88 427.4L399.55 429.53L400.76 432.82L400.85 435.29L399.39 436.92L398.62 439.03L397.88 442.01L395.46 444.35L392.25 446.61L388.2 445.23L384.54 441.07L381.31 441.24L377.75 443.19L375.17 446.12L373.05 449.45L368.84 453.64L364.74 458.41L359.53 459.37L354.25 459.7L347.99 462.03L341.4 463.04L339.42 466.69L336.65 470.47L334.02 475.1L333.09 480.35L328.25 480.62L322.51 480.38L317.45 479.3L312.59 478.88L308.47 482.2L307.4 483.96L305.82 487.15L302.56 486.84L299.33 483.55L296.24 481.73L292.42 481.43L288.6 481.95L286.02 481.87L283.02 481.95L279.39 482.59L276.87 483.74L274.01 485.93L271.29 486.62L266.82 483.96L263.96 483.03L261.24 483.96L259.54 486.15L256.58 487.49L252.14 487.65L249.51 488.83L247.48 490.74L246.16 492.15L244.49 496.04L244.51 497.24L244.57 500.08L242.64 500.69L239.82 500.19L237.25 500.91L236.42 502.54L236.51 504.33L237.25 507.67L236.61 509.7L235.16 509.24L232.69 507L231.88 506.52L230.86 505.5L229.59 504.62L228.04 504.56L226.3 505.83L226.27 507.34L226.88 508.73L227.01 509.56L224.89 510.01L221.59 510.2L219.07 510.82L219.33 512.56L221.49 515.27L221.48 516.52L219.62 516.88H216.21L213.28 516.3L207.16 513.69L204.39 513.11L201.8 513.8L199.08 515.51L196.57 517.68L194.62 519.77L193.45 520.47L190.83 520.87L190.06 521.66L190 523.63L191.07 524.66L192.63 524.79L194.06 524.1L197.32 525.43L196.96 527.56L197.79 532.93V533.99L204.85 541.03L210.98 544.55L212.62 544.96L220.73 543.8L225.7 544.41L234.35 546.46L236.08 547.18L236.76 547.75L237.88 549.1L238.73 550.65L239.32 552.43L239.76 555.5L240.21 556.68L241.02 557.89L242.85 559.61L244.21 560.34L245.53 560.78L251.38 561.06L256.36 562.28L264.67 565.55L266.27 566.55L266.8 567.23L269.77 572.72L279.04 582.94L279.71 583.89L280.7 585.03L281.52 586.3L281.98 587.31L282.48 588.98L282.63 589.98L282.89 594.32L283.04 595.32L284.03 597.44L286.89 600.82L298.74 601.1L299.95 600.79L301.34 600.16L303.28 598.59L304.12 597.37L304.48 596.13L304.4 591.62L303.89 587.39L303.84 586.28L303.91 585.23L304.34 584.36L305.14 583.92L306.64 584.22L307.53 584.78L308.84 586.12L309.51 586.69L311.77 588.21L313.53 588.99L314.55 589.27L315.65 589.39L322.63 588.6L323.8 588.59L324.79 588.86L325.51 589.36L326.1 590L326.56 590.76L326.91 591.59L328.03 595.23L328.45 596.02L328.97 596.73L329.63 597.3L330.46 597.74L331.42 598.08L332.5 598.26L341 597.6L345.17 598.07L352.47 600.3L353.61 600.19L354.72 599.73L356.16 598.42L359.28 596.09L360.13 595.07L360.62 593.98L361 591.92L361.36 590.94L362.16 590.25L363.56 589.7L368.63 589.25L376.49 587.69L377.58 587.67L378.68 587.78L379.63 588.07L382.08 589.44L383 589.77L384.03 590.01L386.2 590.14L387.31 589.98L392.33 588.38L401.54 584.16L405.48 581.59L406.91 580.32L407.88 579.24L408.4 578.49L409.14 577.77L410.2 577.27L412.04 577.03L413.39 577.09L418.94 578.08L420.05 578.05L423.44 576.67L452.08 560.39L455.05 556.54L456.32 555.22L464.49 550.99L467.89 548.74L471.2 547.11L472.54 547.18L473.55 547.5L476.03 548.85L476.99 549.13L478.06 549.21L479.69 548.42L481.73 546.96L489.97 539.06L492.51 537.32L500.12 533.12L501.31 529.35L502.6 527.74L510.99 522.28L512.32 521.13L513.39 519.94L513.87 519.22L515.28 516.43L507.57 515.3L496.8 515.74L494.43 515.55L492.86 515.12L492.27 514.5L490.59 512.03L490.57 511.98L490.54 511.95L490.14 511.5L475.86 502.3L473.88 500.56L471.06 497.27L469.42 494.39L468.67 492.45L468.31 490.52L468.37 489.43L469.22 485.21L469.45 481.82L469.36 480.8L469.12 479.88L468.54 478.69L466.03 474.88L465.34 473.4L465.07 472.07L465.32 471.16L465.74 470.36L466.39 469.78L467.19 469.4L469.16 469.01L469.97 468.65L470.51 467.98L470.77 467.03L470.78 466.01L470.58 464.93L466.72 455.87L466.46 454.83L466.49 452.69L467.03 450.73L469.05 445.12L471.2 435.77L471.34 433.56L471.27 431.41L470.58 427.53L467.52 421.72L462.87 422.58L461.68 422.33L461.03 421.69L460.42 420.9L455.15 417.84L454.07 417.63L453.18 417.79L452.26 417.66L451.15 416.61L450.56 415.65L450.27 414.7L450.03 411.88H450.01Z" fill="#C7C7C7" stroke="white" stroke-width="2"/>
<path d="M644.8 318.22L641.31 315.76L633.93 308.82L625.61 302.95L615.31 293.41L610.73 288.05L606.2 283.77L601.28 280.18L597.2 276.23L596.67 274.89L596.62 274.95L595.89 275.91L593.83 280.13L593.38 280.84L592.3 281.52L590.85 283.17L589.51 285.16L588.72 286.85L588.55 291.11L591.17 298.9L591.88 303.17L591.14 306.31L587.53 315.22L585.44 319.05L583.6 324.21L578.48 331.57L580.84 333.5L583.33 333.89L585.22 334.64L585.74 337.6L584.82 339.84L581 342.82L579.5 344.96L581.02 347.75L580.51 350.92L578.35 353.55L574.9 354.63L571.75 355.04L568.59 355.89L565.35 356.79L563.12 357.04L557.1 353.45L553.41 352.18L551.77 354.02L551.31 358.1L550.11 360.49L546.65 364.41L545.39 367.02L544.83 368.79L544.6 370.46L545.12 372.39L546.11 374.36L546.72 376.33L546.14 378.28L544.01 381.85L540.83 389.15L538.36 392.37L536.89 393.44L533.75 394.93L532.22 396L530.84 397.84L529.81 399.83L528.57 401.41L523.24 403.03L520.94 405.36L517.89 410.55L514.72 414.18L510.78 417.24L506.16 419.36L500.9 420.15L495.78 419.08L486.02 415.18L480.84 415.51L467.52 421.72L470.58 427.53L471.27 431.41L471.34 433.56L471.2 435.77L469.05 445.12L467.03 450.73L466.49 452.69L466.46 454.83L466.72 455.87L470.58 464.93L470.78 466.01L470.77 467.03L470.51 467.98L469.97 468.65L469.16 469.01L467.19 469.4L466.39 469.78L465.74 470.36L465.32 471.16L465.07 472.07L465.34 473.4L466.03 474.88L468.54 478.69L469.12 479.88L469.36 480.8L469.45 481.82L469.22 485.21L468.37 489.43L468.31 490.52L468.67 492.45L469.42 494.39L471.06 497.27L473.88 500.56L475.86 502.3L490.14 511.5L490.54 511.95L490.57 511.98L490.59 512.03L492.27 514.5L492.86 515.12L494.43 515.55L496.8 515.74L507.57 515.3L515.28 516.43L515.3 513.18L515.07 511.95L512.9 508.16L512.58 506.64L512.67 505.33L513.2 504.25L513.98 502.98L514.92 501.88L515.7 501.24L519.04 499.3L519.96 498.58L521.14 497.35L522.91 496.07L528.04 493.97L528.81 493.53L530.12 492.4L532.44 489.8L535 487.57L543.82 483.05L545.72 482.57L549.95 482.12L554.8 482.17L557.18 481.66L564.14 478.78L565.5 478.55L567.51 478.61L569.56 479.08L572.28 480.18L573.52 480.38L574.96 480.44L577.25 480L578.46 479.46L579.34 478.75L580.39 477.32L581.43 475.53L582.18 474.49L583.02 474.06H583.96L585.07 474.33L586.39 474.47L588.56 474.12L589.68 473.53L590.47 472.79L590.86 471.91L591.61 469.62L592.5 468.15L593.45 467.63L594.54 467.53L596.65 467.85L605.06 467.28L608.17 466.3L615.61 462.09L617.83 461.18L619.33 461.04L620.04 461.56L621.3 462.76L622 463.29L622.83 463.7L623.8 463.99L629.49 464.75L632.57 465.8L636.76 466.3L637.63 466.69L639.07 467.72L639.85 468.18L640.83 468.46L641.9 468.62L643.04 468.67L646.21 468.43L647.22 468.47L648.12 468.75L648.94 469.15L657.07 474.7L657.74 475.27L658.74 475.74L659.94 476.05L662.02 475.9L662.87 475.19L663.24 474.25L663.03 473.33L662.65 472.48L661.77 470.94L661.42 470.13L661.23 469.26L661.36 468.34L661.78 467.57L662.32 466.89L665.57 464.01L666.55 462.83L667.31 462.22L671.48 459.79L673.18 459.37L674.55 459.32L675.47 459.68L677.02 460.59L686.53 468.36L688.07 469.34L688.92 469.75L690.13 470.02L691.63 470.17L716.66 468.17L722.01 469.17L725.6 469.31L741.73 467.36L742.48 467.55L743.16 467.9L743.85 468.42L744.45 469.06L745.47 470.47L746.48 470.94L747.99 471.19L750.83 471L752.47 471.13L753.63 471.49L755.6 473.2L756.55 473.72L757.76 474.12L759.72 474.36L761.01 474.27L762.21 473.88L764.68 472.37L766.19 472.07L767.39 471.96L771.14 472.41L789.2 476.21L789.28 476.23L792.24 472.45L797.68 468.19L799.6 465.65L800.08 462.4L798.74 459.73L788.79 448.92L786.49 447.23L781.65 444.98L776.68 441.91L771.85 441.87L769.31 441.08L762.85 437.09L754.37 434.22L745.52 424.28L736.08 417.51L732.53 413.84L729.43 409.62L726.89 405.03L725.33 402.88L721.51 399.48L720.14 397.15L719.42 394.15L718.95 385.21L717.94 379.18L716.14 374.24L708.51 362.9L704.23 352.56L704.02 346.32L703.13 343.89L700.96 342.48L692.17 340.6L688.02 337.9L686.07 336.18L684.52 334.37L683.64 332.47L683.27 330.68L682.61 328.87L680.86 326.95L676.58 323.99L674.42 323.01L671.84 322.22L666.9 321.73L665.43 321.16L664.08 319.94L662.74 317.33L661.84 316.14L659.28 314.21L656.42 312.93L653.47 312.62L650.65 313.64L647.92 316.22L646.48 318.06L644.8 318.22Z" fill="#C7C7C7" stroke="white" stroke-width="2"/>
<path d="M152.55 528.99L150.93 528.25L150.17 526.48L149.95 524.27L149.94 522.27L149.37 520.91L147.99 519.78L141.41 516.3L138.06 515.79L134.88 516.51L131.98 518.55L130.84 519.06L125.83 520.44L124.81 521.24L123.32 525.13L122.21 526.54L119.31 527.17L113.56 524.82L109.07 523.71L106.88 522.05L105.22 521.66L103.44 521.89L100.3 522.83L98.47 522.88L96.15 522.06L91.95 519.52L89.35 519.11L86.6 519.89L84.84 521.49L83.28 523.49L81.16 525.43L78.92 526.38L74.46 527.53L72.96 528.99L72.44 531.72L72.76 533.9L72.13 535.41L68.78 536.21L66.24 535.9L64.05 535.06L61.9 534.55L59.46 535.21L57.91 536.52L57.85 537.77L59.46 541.33L59.52 542.55L59.41 544.13L59.45 545.52L60.3 546.54L62.21 548.38L62.63 548.67L62.82 551.62L62.21 554.58L61.01 556.12L59.46 554.79L58.67 554.67L56.12 552.21L54.35 551.12L49.31 553.84L47.69 555.45L47.25 557.26L47.18 564.03L46.49 567.08L44.8 567.87L40.53 567.14H33.36L30.59 568.89L22.52 579.52L8.2 588.03L8.17 588.04L9.17 588.88L10.12 592.39L9.1 596.29L3.97 603.11L1.92 606.62L1.15 610.88L1.65 614.64L2.55 618.19L3.04 621.94L1 637.36L1.71 652.95L4.56 669.32H4.57L4.66 669.31L9.44 668.45L11.54 667.84L25.05 662.16L39.05 652.42L41.45 651.7L44.04 652.01L60.96 656.39L61.75 657.22L62.69 658.46L63.11 659.22L63.84 660.9L64.41 662.7L64.76 663.56L65.65 665.1L66.14 665.74L66.69 666.22L67.1 666.52L67.76 666.88L68.93 667.19L70.47 667.4L73.14 667.28L77.62 666.47L89.35 666.84L90.86 667.26L92.9 668.31L93.98 669.14L94.79 669.94L95.09 670.44L95.34 670.77L95.14 670.55L96.11 671.78L96.82 672.46L98.28 673.52L118.75 680.62L122.97 680.97L132.04 680.08L157.89 673.02L160.65 673.79L163.88 675.3L166.71 677.01L169.27 679.44L172.1 681.65L172.92 682.1L177.16 682.66L189.56 682.65L205.19 685.11L203.99 683.1L201.35 679.47L200.92 678.68L200.59 677.82L200.03 675.98L199.37 671.44L199.01 670.19L198.63 669.15L198.03 667.05L197.61 664.39L197.34 663.37L195.56 659.11L189.3 648.29L189.06 647.64L188.9 647.06L188.95 644.79L191.21 627.12L191.47 626.09L191.8 625.14L192.2 624.33L192.52 623.47L192.78 622.52L192.79 621.44L192.31 620.26L191.58 619.58L190.7 619.06L186.56 617.96L185.66 617.58L184.17 616.55L182.86 615.35L179.78 611.09L179.16 610.48L178.59 609.81L178.1 609.06L177.78 607.98L177.59 606.59L177.51 604.47L177.18 602.17L177 601.68L176.98 601.66L176.95 601.58L174.51 598.38L174.11 597.6L173.81 596.71L172.12 589L171.75 588.19L171.3 587.42L170.72 586.75L170.05 586.17L166.21 583.61L165.62 582.94L165.16 582.2L164.82 581.24L164.66 580.07L164.72 578.44L166.36 575.55L182.09 556.7L184.05 555L194.76 541.28L195.74 539.64L197.79 533.99L196.47 534.48L192.72 536.82L185.99 539.81L184.33 540.11L182.55 539.33L181.73 537.42L180.85 532.66L179.31 534.96L176.86 537.62L174.58 538.26L172.92 531.21L171.13 529.05L168.49 527.64L162.37 525.57L160.82 525.31L159.15 525.43L157.36 526.23L154.28 528.52L152.55 528.99Z" fill="#C7C7C7" stroke="white" stroke-width="2"/>
<path d="M133.78 135.11L132.46 134.86L131.06 134.37L129.26 133.22L128.28 132.37L127.54 131.57L125.05 128.1L123.94 126.83L121.41 124.52L111.69 117.19L109.63 115.98L108 115.44L103.89 114.98L102.39 115.04L101.35 115.77L100.57 116.44L96.9804 121.81L96.9704 121.82L97.4804 126.14L97.6303 133.44L97.4604 135.26L96.6003 139.47L95.7904 142.1L93.9304 142.81L90.4604 142.39L84.0904 144.07L81.2904 145.97L80.1303 149.06L81.0603 151.07L87.3904 160.41L88.6003 168.59L85.8204 174.56L82.0303 180.41L80.1303 188.14L81.1303 195.93L81.1204 200.48L79.6604 202.49L76.5404 209.13L75.4404 210.27L72.9604 212.23L71.9304 213.39L70.5504 217L69.8103 224.97L68.3503 228.28L66.0004 230.33L60.3604 233.78L57.5004 236.18L55.6104 241.61L59.2704 246.12L61.0404 247.49L61.5304 247.23L63.9804 245.97L66.2304 245.34L68.5904 245.64L71.1904 246.33L72.8604 246.27L73.6303 246.15L73.8103 246.02L73.8404 245.92L74.0004 244.24L74.1604 243.31L74.6504 242.65L75.3404 242.21L80.8904 240.8L82.0704 240.77L83.6204 241.04L87.5704 242.56L97.4903 248.18L98.7904 249.34L99.3204 249.99L99.7504 250.75L101.66 256.95L101.99 257.76L102.42 258.52L102.97 259.19L103.66 259.74L104.42 260.18L105.5 260.59L127.57 265.43L138.28 270.98L143.33 274.57L144.93 275.49L148.51 276.89L152.14 277.4L156.38 277.55L159.14 278.21L160.7 278.83L161.41 279.56L164.69 284.66L165.8 285.95L167.83 287.59L171.22 289.24L183.11 292.68L184.74 293.54L190.28 297.84L192.02 298.31L204.69 299.86L206.63 300.43L207.97 300.44L209.41 300.21L211.48 299.46L212.63 298.83L213.55 298.18L214.2 297.62L215.13 297.3L216.27 297.27L222.86 299.8L225.96 300.55L227.68 300.49L240.65 297.65H242.45L244.99 298.03L246.42 298.47L247.49 298.99L250.42 300.98L251.34 301.32L252.37 301.51L258.64 301.56L260.29 301.8L261.53 302.16L269.11 307L271.02 307.62L272.06 307.78L279.79 308.06L290.43 311.31L291.39 311.41L293.02 311.37L295.48 310.93L297.47 310.27L298.29 309.64L299.02 308.84L299.77 307.35L300.06 306.51L300.48 304.53L301.42 303.2L306 298.29L307.32 296.5L308.14 295.01L308.43 294.01L310.68 292.31L318.59 290.23L318.86 285.36L318.57 282.94L318.04 281.14L317.69 279.2L317.24 271.7L316.9 269.74L316.32 268L315.46 266.47L314.43 265.09L314.03 264.32L313.73 263.51L314.16 261.71L318.6 249.37L319.31 248.13L324.2 243.42L324.89 242.4L327.42 237.04L328.21 235.9L329.28 235.22L332.07 234.22L332.86 233.83L333.78 233.07L334.74 232.01L336.22 229.96L338.06 228.07L338.75 227.56L339.31 226.36L339.76 224.63L340.88 217.96L342.24 214.94L343.12 211.65L341.81 209.87L339.48 207.34L338.93 206.41L338.59 205.36L338.63 204.3L338.79 203.29L339.41 202.07L340.49 200.68L342.61 199.22L344.62 198.25L355.02 195.2L356.91 194.04L358.46 192.57L360.31 188.91L361.33 186.36L365.33 172.61L365.11 172.64L364.26 171.27L364.12 171.16L358.53 166.79L357.34 165.58L355.83 163.49L354.72 162.24L350.89 158.94L349.17 156.89L346.92 153.24L345.85 151.9L342.77 149.22L340.32 147.71L339.33 147.33L315.52 142.09L307.19 139.02L306 138.73L304.5 138.52L301.78 138.79L300.3 139.14L299.24 139.67L298.65 140.31L298.13 141.01L297.27 142.62L296.17 145.23L295.29 146.82L294.75 147.52L293.45 148.61L292.78 148.99L289.41 150.39L287.92 151.28L287.27 151.84L285.13 154.54L284.49 155.08L283.74 155.53L281.98 156.09L276.97 156.75L275.26 157.34L273.86 158.22L265.06 165.6L263.69 166.34L262.05 167.01L260.19 167.45L252.98 168.15L249.43 169.15L247.29 169.05L230.28 165.95L226.68 165.74L216.81 166.98L215.82 167.36L214.38 168.15L210.32 171.26L209.52 171.62L208.64 171.89L207.65 172.05L206.15 171.91L197.13 169.2L193.51 167.28L190.65 165.25L183.75 158.34L183.68 158.29L181.44 156.42L180.28 155.72L173.13 153.4L153.27 142.79L148.34 139.27L147.43 138.37L144.98 136.48L143.76 135.97L142.15 135.52L139.08 135.09L133.78 135.11Z" fill="#C7C7C7" stroke="white" stroke-width="2"/>
</svg>
