<svg width="616" height="478" viewBox="0 0 616 478" fill="none" xmlns="http://www.w3.org/2000/svg">
<path d="M476.758 2L489.073 75.975L581.644 105.906L581.099 165.28L578.735 200.319L576.327 256.529L576.872 272.589L586.461 278.184L594.868 287.188L604.457 298.624L608.684 306.411L613.455 324.174L615 343.883L614.728 349.722L614.546 355.318L612.592 366.268L605.32 381.597L590.551 398.143L576.872 405.686L569.237 408.362L556.922 409.093L542.471 405.686L530.064 400.09L524.384 394.25L518.612 389.14L503.025 393.763L483.983 401.063L451.536 413.472L420.452 420.528L409.092 424.908L405.683 430.017L406.047 437.074L406.683 451.673L412.908 457.999L413.408 465.785L410.455 473.328L405.683 476.491L396.186 470.165L350.014 452.403L349.56 463.109L343.379 462.622L269.94 451.673L244.219 447.293L238.993 437.074L226.541 431.965L203.683 429.288L194.685 424.908L182.733 422.474L168.963 420.528L153.194 421.014L153.785 432.694L129.335 437.804L112.249 439.507L107.931 435.128L101.75 427.585L106.931 422.474L112.703 417.365L97.479 403.253L81.21 389.87L69.803 381.597L51.625 366.268L43.582 377.218L20.224 363.592L3 356.778L58.351 323.443L78.574 309.817L82.709 306.897L89.344 295.461L94.525 278.184L98.433 268.695L105.522 259.692L115.521 251.419L127.018 239.253L137.47 230.979L143.741 221.489L147.877 208.593L152.648 179.393L157.011 155.79L164.146 150.679L174.598 146.3L187.095 140.46L202.274 125.859L215.089 107.366L224.224 83.032L230.858 64.538L276.575 58.699L301.343 60.158L308.932 58.699L342.788 46.045L356.694 41.664L363.783 53.588L393.322 44.828L391.913 29.984L412 23.657L476.758 2Z" fill="#C7C7C7" stroke="white" stroke-width="2"/>
</svg>
