<svg width="603" height="530" viewBox="0 0 603 530" fill="none" xmlns="http://www.w3.org/2000/svg">
<path d="M149.29 2.64L150.2 2L151.1 2.64V4.06L152 4.32L152.13 4.83L153.16 5.09L154.83 6.25L156.63 8.95V10.24L155.86 11.01L153.8 10.63L153.54 9.72L152.26 8.95L151.61 8.82L149.29 7.28L148.91 5.6L147.62 5.22L148.52 4.7L149.04 4.19L149.29 2.64Z" fill="#C7C7C7" stroke="white" stroke-width="2"/>
<path d="M228.99 19.12L229.37 21.05L229.25 23.11L228.47 24.4L228.6 27.23L227.83 28.14L226.54 27.62L225.77 26.72L225.51 25.3V22.47L225 21.31L223.19 20.28L222.42 19.25L221.01 19.38L219.85 18.48L219.59 16.55L220.49 15.52L222.68 15.39L223.71 16.42L224.87 17.19L227.96 18.48L228.99 19.12Z" fill="#C7C7C7" stroke="white" stroke-width="2"/>
<path d="M197.19 20.28L198.09 21.18H199.25L201.44 21.83L203.24 24.53L204.91 25.05L205.94 26.08L206.2 27.36L205.43 28.14H204.27L203.88 26.85L201.82 27.11L199.25 26.98L197.96 25.3L194.1 23.24L191.39 20.93L191.01 19.12L190.24 18.22L189.59 17.71L188.56 16.29V15.26L187.02 14.36L187.15 12.69H188.69L190.24 12.94L191.78 13.84L192.94 15.78L192.68 17.84L195.39 19.64L197.19 20.28Z" fill="#C7C7C7" stroke="white" stroke-width="2"/>
<path d="M291.74 92.15L291.49 94.84L290.25 95.83L284.82 98.67L282.85 98.91L280.25 98.67L279.27 98.05L278.21 96.75L278.77 96.07L279.51 95.46L280.75 93.23L281.86 93.11L282.48 92.49L282.72 91.38L284.08 91.14L284.95 92.25L286.18 92.12H291.49L291.74 92.15Z" fill="#C7C7C7" stroke="white" stroke-width="2"/>
<path d="M474.46 186.63L473.62 186.95H472.76L471.4 187.32L470.78 188.93L469.79 189.91L468.68 190.78L466.83 191.77L464.98 191.64L463.5 190.9L461.52 190.78L456.71 188.93L454.85 189.05L453.5 189.79L451.77 188.93L450.41 190.04L449.42 191.27L447.69 191.64H446.46L445.1 193.99L443.5 194.98L441.89 195.59L441.03 196.33L437.82 198.06L435.59 198.31L433.86 198.19L432.63 197.44L430.78 197.69L428.06 199.42H426.58L424.85 200.65L422.38 204.48L421.52 205.59L419.91 206.71L417.81 207.94L415.34 207.82L412.38 207.32L410.78 205.35L408.31 203.87L406.7 202.14L404.6 202.01L400.16 204.11L398.43 205.1L396.58 204.36L393.98 204.24L393.12 204.98L391.39 205.96L389.91 207.69L390.16 210.16L390.53 211.27L391.64 212.26L393 213L393.12 214.24L392.25 215.47L388.06 215.72L384.23 217.82L382.5 219.42L379.17 220.41H377.19L375.59 220.16L373.61 218.68L371.51 217.32L370.03 215.35L367.93 214.48L365.09 213.87L362.99 213.25L358.05 211.4L355.95 210.9L353.73 210.78L352.25 209.67L350.77 208.68L350.03 207.45L351.02 205.72L351.14 203L352.37 201.64L353.61 199.17L354.84 197.32L358.05 193.25L359.41 192.26L361.02 190.53L362.25 189.05L363.49 187.2L363.61 184.97L364.47 183L365.58 179.79L365.71 177.81L364.6 176.45L364.84 174.48L365.58 173L366.94 171.76L370.65 171.52L374.6 171.64L375.46 172.5L376.45 173.86H378.92L379.66 172.63L380.4 170.4L381.51 168.55L382.01 166.58L381.14 164.6L378.3 163.24L376.45 162.01L375.34 161.02L373.73 160.28V157.81L371.51 155.59L369.17 154.35L366.7 153.49L364.6 153.12L362.99 151.64L361.26 149.78L360.15 147.56L358.79 145.83L359.41 144.1L361.39 143.86L362.5 142.99L363.49 141.88L363.24 140.4L362 139.41L360.15 139.17L358.05 138.06L352.99 133.49L351.88 133.73L351.14 135.09L348.18 135.59L344.96 135.34L343.36 135.09V132.38L341.75 131.63L341.63 128.92L342.25 126.94V124.84L341.38 122.74L340.47 121.14L340.35 119.29L340.72 117.93L343.06 118.05L344.67 117.19L346.52 115.95L347.88 114.72L349.24 113.11L350.22 112.5L351.58 111.26L352.82 110.4L352.94 109.6L359.93 110.8L368.54 113.25L372.55 112.25L379.86 112.28L381.49 111.96L382.54 111.62L383.94 110.89L384.73 107.94L388.41 105.65L390.7 105.27L392.86 105.65L394.99 105.34L395.18 105.02L395.69 105.8L396.18 106.17L397.42 107.53L397.91 109.38L399.27 110.25L400.5 110.62L401.86 111.24L403.22 111.61L404.33 112.35H408.78L410.01 111.73L413.59 110.37H416.8L417.67 110.74L418.78 111.48H419.11L419.13 112.22L417.16 113.34L414.44 114.08L413.95 115.68L414.2 117.66L415.31 118.52L416.67 119.02L417.53 119.76L417.9 121.24L419.13 122.1L420 123.95L419.13 124.82L418.64 126.55L419.13 128.52L420.74 129.76L421.97 131.36L423.33 135.81V137.29L422.34 137.78L421.23 138.89L419.26 140.5L417.9 142.23L418.02 144.33L419.01 146.43L420 148.15L420.74 150.25L421.48 151.24L423.83 150.62L425.06 150.13L426.54 149.88L428.15 150.75L430.86 151.86L435.56 155.44L437.9 158.03L439.88 159.14L441.36 160.5L445.19 163.34L446.17 165.07L446.79 166.68L447.04 168.4L448.15 170.38L449.26 171.86L457.04 171.49L459.63 170.63H462.1L462.6 171.86L460.74 173.59L458.15 173.47L458.4 174.33L458.03 176.8L458.89 178.04L460.74 179.39L463.34 180.38L468.52 181.86L470.5 182.6L472.84 183.84L474.57 184.33L474.46 186.63Z" fill="#C7C7C7" stroke="white" stroke-width="2"/>
<path d="M314.03 220.41L313.08 221.48L311.76 222.3L309.46 222.8L308.47 224.94L307.32 226.91L304.19 231.36L303.04 232.35L301.72 234.82L297.77 236.63H294.97L292.67 237.78L289.87 240.58L287.4 241.56L284.44 241.4L281.97 242.22L279.83 243.38L278.34 246.01L277.69 248.97L278.67 250.62L280.15 250.29L281.47 251.94L281.64 253.42L280.98 260L278.67 262.8L277.85 266.42L276.37 269.39L276.53 272.19L276.2 274L274.89 276.3L272.75 276.96L271.92 277.78L271.1 280.09L269.13 281.08L267.97 282.56L266.49 283.05L265.67 284.04L264.3 284.97L262.89 284.68L258 282.2L255.53 281.58L249.85 281.45L248.5 280.59L244.05 281.58L243.43 282.94L242.57 284.17L240.59 284.79L235.02 283.48L233.75 283.39L232.32 284.29L231.21 285.78L229.45 284.48L227.82 284.91L227.2 285.78L225.48 285.84L221.64 284.54L219.54 284.85L217.81 285.65H213.37L211.39 287.28L209.28 287.01L208.14 286.33L206.3 285.78L203.02 285.03L194.27 283.78L192.92 283.72L191.27 282.69L188.43 283.31L186.58 285.9L185.46 287.88L184.74 289.55L182.38 289.36L181.64 288.25L181.45 286.7L179.02 286.82L176.44 288.02L174.72 286.76L174.85 284.67L170.77 281.58L166.45 277.38L165.96 274.05L163.4 271.77L157.81 265.4L157.44 263.43L153.12 259.72L148.11 253.02L147.51 250.93L145.9 249.2H144.05L140.72 249.57L139.24 250.31L138.13 251.3L136.04 251.19L135.3 250.69L134.42 248.83L131.58 247.97L129.98 247.23L127.75 244.27H112.44L111.7 245.25L110.72 246.24L108.99 247.35L107.63 248.46L106.83 249.41L104.05 249.33L102.44 247.35L82.6297 247.1L81.2097 245.25L78.9797 245.13L77.2497 246.24L73.4297 246.98L70.9597 248.09L63.6697 248.34L61.3297 246.24L60.3397 244.88L57.0097 241.42L56.4597 240.31L55.6097 237.48L55.6297 236.29L56.0497 234.7L57.0797 233.4L55.2297 231.79L53.4997 230.93H48.8097L47.7197 229.96L48.1397 229.02L51.2697 228.86L53.5797 229.02L54.8897 228.36L56.2097 228.2L57.1997 229.35L58.3497 230.34L59.9997 231.33L62.4697 231.65H65.4297L66.9097 231L68.2297 230.67L68.7197 229.68V228.86L69.7097 227.37L69.7997 227.08H72.8197L74.1397 228.4L76.2797 229.71L78.9097 230.04L80.2297 229.05H81.0497L82.0397 230.04H84.5097L85.9897 229.22L91.4297 229.05L93.2397 229.88L97.3497 230.21L99.1597 231.52L100.64 232.84H103.44L108.38 234.98L114.54 234.82L116.84 235.64L120.3 236.13L122.61 235.31L122.94 233.99L126.06 234.16L128.04 232.68L130.01 230.37L132.65 229.88L134.46 228.56L136.6 221.97L139.73 221.65L143.18 220.99L145.32 218.68L148.45 216.54L152.4 216.38L157.34 212.59L161.79 212.92L164.26 211.44L169.69 206.99L174.3 203.54L178.09 203.04L185.66 203.21L188.95 203.7L191.26 205.18L196.03 205.51L199.16 207.98L201.63 209.3L205.41 209.13L210.19 208.64L213.65 207.98L218.25 207.82L220.89 208.15L224.35 209.13L228.13 207.98L229.61 207.32H231.26L231.92 207.98L237.35 208.97L244.6 209.63L250.36 208.97L252.66 208.31L254.64 207.16L256.94 206.99L258.38 206.21L260.17 208.28L264.28 209.76L267.91 211.24L270.05 212.89L274.66 214.53L280.09 214.7L285.03 215.19L288.81 216.51L293.26 218.48L297.38 219.31L298.69 218.32L299.35 215.52L301.82 215.36L302.97 214.53L305.44 214.04L308.24 215.85L309.39 217L312.36 217.33L313.18 219.47L314.03 220.41Z" fill="#C7C7C7" stroke="white" stroke-width="2"/>
<path d="M262.12 117.74L262 117.56L259.78 116.2L255.95 116.08L254.72 115.71L254.35 113.98L254.6 112.25L255.21 109.41L255.58 106.69L256.33 105.09V103.24L255.21 102L253.11 101.75L250.27 101.88L248.42 101.51L246.69 100.64L245.58 99.41L245.71 97.68L247.93 95.58L249.04 95.21L249.21 94.61L258.01 93.47L263.59 93.09L266.38 92.58L267.69 92.5L267.91 94.35L268.65 95.09L268.4 96.32L269.39 97.68L269.51 98.79L270.62 98.91L271.36 98.42L271.86 97.43L272.97 96.69L273.96 96.94L274.82 97.93H275.93L277.04 97.31L277.09 97.29L277.27 98.67V101.51L278.5 103.24L278.99 104.35L280.23 105.71L280.11 107.43L279.12 108.42V110.15L279.98 111.39L284.06 112.87L285.29 113.61L286.65 114.84L287.76 116.08H290.11L296.16 116.45L298.13 117.19L300.97 117.06H301.15V120.4L301.64 121.88L302.38 122.62V124.47L301.27 125.09L300.9 126.33L299.54 127.81L300.28 128.67L301.52 129.78L303 131.51L303.37 133.61L302.13 134.84L302.38 138.06L303.24 139.17V140.15L302.13 142.99L301.15 143.98L300.65 145.22L299.91 146.33L298.43 147.07L294.85 145.34L293 144.23L289.29 143.12L287.93 142.25L286.45 141.76L284.85 140.65L283.98 138.92L284.23 137.56L285.71 137.07H287.32L288.55 136.33L289.17 135.22L290.16 133.86V131.51L289.04 130.03L286.82 129.29V128.18L285.34 127.81L283.74 126.82L279.66 123.61L278.3 122.25L277.44 120.77L276.33 120.03H272.99L269.04 118.67L268.18 117.44L267.07 117.19L264.35 117.06L262.13 117.68L262.12 117.74Z" fill="#C7C7C7" stroke="white" stroke-width="2"/>
<path d="M258.38 206.21L256.94 206.99L254.64 207.16L252.66 208.31L250.36 208.97L244.6 209.63L237.35 208.97L231.92 207.98L231.26 207.32H229.61L228.13 207.98L224.35 209.13L220.89 208.15L218.25 207.82L213.65 207.98L210.19 208.64L205.41 209.13L201.63 209.3L199.16 207.98L196.03 205.51L191.26 205.18L188.95 203.7L185.66 203.21L178.09 203.04L174.3 203.54L169.69 206.99L164.26 211.44L161.79 212.92L157.34 212.59L152.4 216.38L148.45 216.54L145.32 218.68L143.18 220.99L139.73 221.65L136.6 221.97L134.46 228.56L132.65 229.88L130.01 230.37L128.04 232.68L126.06 234.16L122.94 233.99L122.61 235.31L120.3 236.13L116.84 235.64L114.54 234.82L108.38 234.98L103.44 232.84H100.64L99.1598 231.52L97.3498 230.21L93.2398 229.88L91.4298 229.05L85.9898 229.22L84.5098 230.04H82.0398L81.0498 229.05H80.2298L78.9098 230.04L76.2798 229.71L74.1398 228.4L72.8198 227.08H69.7998L70.0398 226.22L71.0298 225.4L72.9998 225.07L74.4798 224.25L76.7898 225.07L80.2498 225.56L82.2198 226.22H84.5298L86.1698 226.88L87.4898 227.21L91.1098 227.04L90.9498 225.89L90.1198 224.9L88.8098 223.92L87.6598 222.76L86.6698 222.27L85.6798 221.12V219.47L85.8398 217.83L86.8298 217.5L86.3398 214.86L86.4098 214.6L87.3798 213.92L88.9798 213.05L92.8098 210.46L95.0298 209.35L96.8898 207.25L99.5998 205.15L102.07 202.93L103.68 201.2L105.16 199.35L105.78 197.99L106.02 196.88L106.89 195.89V192.8L105.9 191.81V189.72L104.91 189.1L104.67 187.99H105.9L106.39 187L107.75 185.64V183.79L108.62 182.31V180.33L109.85 178.11L111.09 177.37L112.57 175.52L113.56 174.65L114.79 173.05L115.9 171.94L117.51 170.95L119.23 170.7L120.22 170.33L121.21 168.97V168.73L121.7 167.98L122.82 167.86L123.8 167L125.04 166.75L126.15 165.89L125.78 164.65L127.63 162.06L128.04 161.23L129.85 161.02L132.32 160.16L139.73 160.03L141.58 161.02H142.94L144.5 161.26L146.02 162.02L147.33 163.66L148.98 164.82L151.28 166.79L153.59 167.94L155.73 169.75L158.53 170.58L161.49 171.73L162.64 172.72H169.72L171.86 174.69L177.13 176.67L179.93 176.01L182.73 177L184.87 178.97L185.86 180.46L187.67 182.76L188 184.74L189.97 185.56L190.63 186.88L189.31 188.03L188.98 189.51L190.3 190.17L191.95 191.65L193.59 193.46L195.73 194.28L197.22 195.77L197.71 197.58L199.03 198.4L200.34 200.38L202.48 201.36L204.46 201.03L204.62 194.28L204.95 192.47L206.43 191.98L207.75 189.67L209.73 188.69L211.87 188.03L213.18 185.89L213.68 183.91L214.5 182.6L215 180.46L214.86 178.22L225.1 178.64L227.41 179.14H228.56L229.22 178.48L232.68 178.31L234.32 178.81L237.29 181.28L237.87 181.79L237.94 182.1L239.76 183.25L239.59 186.55H241.24L243.05 187.7L246.01 189.02L248.97 192.47L251.61 195.27L253.58 195.6L256.05 197.08L255.89 200.54L257.37 202.19L258.03 205.81L258.38 206.21Z" fill="#C7C7C7" stroke="white" stroke-width="2"/>
<path d="M389.3 372.32L389.71 365.6V363.62L388.4 361.97V359.01L387.9 356.87L386.26 356.38L384.45 355.55L382.97 355.39L381.98 356.21L381.15 356.38L379.34 355.22L376.54 354.57L373.75 352.43L367.98 344.19L365.19 339.09L363.54 336.46L362.72 333.99L362.06 330.2L360.74 328.55L360.41 325.76L361.73 324.93L366.5 324.44L367.49 323.45V321.31L365.68 319.83L364.53 319.17L364.36 317.03L366.01 316.37L366.34 315.22V314.07L364.69 312.75L362.72 310.77L360.58 307.98L360.74 306.99L362.22 306.17L362.72 305.01L362.22 303.7H361.4L359.26 302.54H353.5L351.52 304.02L349.38 306.66H346.91L344.61 303.7L344.44 298.92L346.09 294.64L346.42 290.2L345.43 288.22L342.3 287.4L339.34 287.73L337.86 288.22L335.88 289.21L333.25 295.3L331.11 297.6L329.63 299.74L328.31 301.39L325.18 302.87L321.89 302.71L320.74 303.7L318.6 304.68L316.95 304.85L316.62 302.87L315.47 302.05L315.63 298.26L314.97 296.95L312.34 297.28L309.05 300.4L306.74 302.21L305.75 303.53L300.98 306L298.35 305.67L295.71 306.49L289.46 306.66L285.67 307.48L284.35 308.47L282.05 308.14L280.4 306.33L276.12 306.66L275.46 304.68V302.38L276.29 300.4L276.45 298.59L275.96 297.11L277.27 296.45V293.49L276.29 291.84V289.87L274.64 289.04L271.35 288.22L269.21 288.39L267.56 287.89L266.74 287.23L264.6 286.41H264.15L264.3 284.97L265.67 284.04L266.49 283.05L267.97 282.56L269.13 281.08L271.1 280.09L271.92 277.78L272.75 276.96L274.89 276.3L276.2 274L276.53 272.19L276.37 269.39L277.85 266.42L278.67 262.8L280.98 260L281.64 253.42L281.47 251.94L280.15 250.29L278.67 250.62L277.69 248.97L278.34 246.01L279.83 243.38L281.97 242.22L284.44 241.4L287.4 241.56L289.87 240.58L292.67 237.78L294.97 236.63H297.77L301.72 234.82L303.04 232.35L304.19 231.36L307.32 226.91L308.47 224.94L309.46 222.8L311.76 222.3L313.08 221.48L314.03 220.41L314.83 221.28L317.95 221.61L320.92 219.47L322.23 217.83L322.89 218.81L324.21 218.98H326.84L328.98 219.8L331.62 218.98L333.76 218.48L335.57 216.18L337.38 214.37L338.7 212.23L339.68 211.41L341.5 211.08L342.81 210.25L345.28 209.92L346.27 209.1L348.25 209.27L348.41 210.09H349.89L351.04 210.58L351.87 211.57H353.51L353.72 210.77L353.73 210.78L355.95 210.9L358.05 211.4L362.99 213.25L365.09 213.87L367.93 214.48L370.03 215.35L371.51 217.32L373.61 218.68L375.59 220.16L377.19 220.41H379.17L382.5 219.42L384.23 217.82L388.06 215.72L392.25 215.47L393.12 214.24L393 213L391.64 212.26L390.53 211.27L390.16 210.16L389.91 207.69L391.39 205.96L393.12 204.98L393.98 204.24L396.58 204.36L398.43 205.1L400.16 204.11L404.6 202.01L406.7 202.14L408.31 203.87L410.78 205.35L412.38 207.32L415.34 207.82L417.81 207.94L419.91 206.71L421.52 205.59L422.38 204.48L424.85 200.65L426.58 199.42H428.06L430.78 197.69L432.63 197.44L433.86 198.19L435.59 198.31L437.82 198.06L441.03 196.33L441.89 195.59L443.5 194.98L445.1 193.99L446.46 191.64H447.69L449.42 191.27L450.41 190.04L451.77 188.93L453.5 189.79L454.85 189.05L456.71 188.93L461.52 190.78L463.5 190.9L464.98 191.64L466.83 191.77L468.68 190.78L469.79 189.91L470.78 188.93L471.4 187.32L472.76 186.95H473.62L474.46 186.63L474.45 186.92H475.93L477.41 185.32L478.89 183.96L479.76 183.65L480.08 185.84L480.2 187.81L481.44 188.93L482.18 189.91L483.78 191.39L484.89 192.63L485.39 194.36L489.71 194.23L492.8 194.36L494.9 195.1L499.22 198.06L500.45 199.54L501.44 201.03L502.06 202.26L502.3 203.74L503.54 204.48L506.63 205.47L507.98 204.36L509.22 203.99L509.96 203.12H511.44L513.29 202.88L514.4 202.38L516.75 203L517.86 205.1L518.6 206.83L519.84 208.8L520.58 210.53L521.94 211.77L524.28 213.62L526.88 213.99L528.23 214.73L530.21 214.85L531.57 215.84H533.42L534.16 214.48L535.27 213.74L536.63 213H538.73L540.09 212.01L541.69 211.64L542.06 210.9L544.9 209.3L546.63 207.94L548.61 207.82L549.72 208.43L550.33 209.42L551.08 212.26L552.19 213.13L553.67 213.99L555.77 212.88L557.13 213L557.99 212.01L559.47 211.64L560.21 210.9L560.71 210.04L561.94 210.16L562.43 210.9H563.18L563.55 210.29L565.4 209.92L566.51 209.05L580.13 208.8L578.9 210.25L576.94 211.44L570.3 211.73L568.66 213.37L567.64 217.44L567.01 220.8L564.09 222.65L561.66 223.22L561.36 225.2L561.48 226.93L562.62 229.03L563.83 229.31L566.07 232.19L566.9 234.21L566.72 235.55L564.95 237.24L566.23 238.53L568.45 240.31L569.8 240.46L571.61 239.72L573.14 239.44H576.12L577.87 240.03L579.32 241.24L580.71 242.15L581.75 244.09L580.85 245.97L578.83 247.98L575.98 250.34L572.79 251.87L571.19 253.95L569.11 255.07L565.38 254.95L564.02 255.66L563 257.71L561.61 258.96L559.04 258.89L557.23 257.84L554.73 257.64L553.41 257.36L551.81 259.58L549.8 260.07L548.13 260.62L545.91 260.55L544.17 259.65L541.54 259.72L540.18 258.42L539.25 258.56L539.45 260.69L540.63 262.08L541.6 264.06L541.82 265.63L541.46 267.41L543.2 270.51L543.34 280.79L544.52 280.72V283.64L543.41 283.78L543.27 285.65L541.4 287.18L539.17 288.36L537.58 289.4L536.67 291.9L534.8 292.95L533.25 293L531.47 294.36L532.11 295.71L544.46 308.42L555.24 321.55L559.02 325.34L560.59 327.05L561.61 328.41L563.45 329.91L566.23 333.51L567.29 337.85L567.23 338.93L566.16 339.79L564.31 342.21L562.16 344.64L555.91 348.55L553.86 350.13L552.88 351.92V354.07L550.84 356.47L546.75 356.54L545.91 357.44H540.91L539.73 356.4L536.05 356.47L535.63 361.26H530.08L528.06 362.09L526.95 363.27L527.09 365.56L527.02 367.02L525.35 368.83L523.06 368.97L518.41 368.83L518.13 370.01H515.98L512.85 373.62L510.7 373.9L508.62 373.54L506.78 373.9L504.35 373.69L502.32 374.76L501.16 375.87L498.41 376.25L495.24 374.97L492.68 374.52L491.02 373.61L488.74 372.9L487.54 372.65L486.02 372.72L484.97 374.25L482.82 375.43L482.03 376.68L482.06 378.48L480.04 379.66L474.21 379.39L472.49 379.67L471.19 380.47L470.32 382.39L470.68 385.32L471.75 386.39L472.46 389.39L473.65 392.19L473.17 393.72L472.24 395.59L471.32 396.96L469.82 397.81L468.17 399.28L465.54 399.24L464.11 398.67L454.26 389.32L449.76 383.96L448.51 382.04L447.01 381.18L443.09 381.36L442.8 382.68L441.73 382.82L441.8 384.46L441.5 385.8L439.62 386.15L438.09 385.53L436.59 384.18L435.66 383.04L434.52 382.04L432.88 382.19L431.02 382.04L429.55 383.3L425.94 383.23L424.9 382.26L423.23 382.12L422.67 383.3L421.08 383.02L420.87 384.21L418.99 384.9L418.24 386.15L417.07 386.03L415.78 385.66L415.04 384.65L413.83 379.18L412.26 377.24L410.13 375.94L406.52 375.39L405.31 374.85L401.48 374.58L399.53 374.61L397.3 375.21L395.66 375.48L392.44 375.57L391.05 374.74L389.48 372.42L389.3 372.32Z" fill="#C7C7C7" stroke="white" stroke-width="2"/>
<path d="M249.21 94.61L249.04 95.21L247.93 95.58L245.71 97.68L245.58 99.41L246.69 100.64L248.42 101.51L250.27 101.88L253.11 101.75L255.21 102L256.33 103.24V105.09L255.58 106.69L255.21 109.41L254.6 112.25L254.35 113.98L254.72 115.71L255.95 116.08L259.78 116.2L262 117.56L262.12 117.74L261.76 119.9L261.63 120.89L259.54 120.77L258.55 121.88L256.94 122.13L255.95 122.74L255.21 123.86L253.49 123.73L253.36 122.87L252.5 121.88L249.9 119.9L248.42 120.03L247.68 120.89L247.44 122.25V123.61L242.87 123.86L240.4 122.13L237.93 121.76L235.21 121.02L232.62 119.41L231.51 118.05L230.03 117.81L229.41 115.95L229.78 114.6L230.77 113.85L231.75 112.37L231.63 111.39L230.4 110.4L229.53 111.01L228.54 112.13L225.83 113.98L224.96 115.34L223.85 115.09L223.48 113.36L223.36 112L222.62 111.14V108.55L223.36 107.43L223.98 106.08L224.96 104.84V103.85L224.1 102.37L222.74 101.51L222.49 100.52L222.74 96.82L223.73 94.59L223.48 92.62L224.59 92.25L225.95 93.11L227.31 92.99L227.93 92.49L229.53 92.12H230.94L232.3 93.7L233.89 95.12H242.02L243.54 96.01L245.29 95.21L249.21 94.61Z" fill="#C7C7C7" stroke="white" stroke-width="2"/>
<path d="M247.44 122.5L247.82 122.67L249.3 124.65L250.62 125.96L251.11 127.12L251.61 129.09L250.95 130.24L249.63 131.89L247.66 133.04L245.19 133.7L243.54 134.85L242.22 135.51V138.15L242.55 140.94L243.71 141.6L244.04 147.86L245.19 149.34L246.34 151.81V160.54L245.02 162.35L243.71 163.33L241.4 165.8L240.91 167.28L238.44 171.07L238.77 172.39L239.76 173.21L239.92 180.29L238.44 180.78L238.6 182.43L237.29 181.28L234.32 178.81L232.68 178.31L229.22 178.48L228.56 179.14H227.41L225.1 178.64L214.86 178.22L214.83 177.66L213.18 176.34L211.37 175.52L210.88 173.54L209.56 171.89L208.08 171.56L206.27 170.41L207.26 169.42L208.9 168.6L209.89 167.94L212.53 167.61L213.35 166.46L212.53 164.32L212.03 162.18L211.04 160.21L211.54 158.56L213.35 156.58L210.22 153.79V151.81L209.73 150.16L207.92 149.67L204.79 146.38L202.32 145.06L201.99 143.25L202.15 141.77L199.03 136.01V134.19L198.86 132.71L197.54 131.89V130.24L195.86 126.06L196.28 125.58L197.64 124.6L197.89 121.39L198.75 121.26L199 119.29L198.87 117.06L198.95 116.02L200.27 115.83L201.26 114.84L202.99 114.97L205.46 117.31L207.18 118.42L208.42 119.04L211.5 118.05L211.88 117.06L213.48 116.08L216.07 115.95L215.95 117.31L216.32 119.29L217.18 120.15L218.67 120.03L221.38 118.55L222.49 117.31L223.73 116.82L224.46 115.23L224.96 115.34L225.83 113.98L228.54 112.13L229.53 111.01L230.4 110.4L231.63 111.39L231.75 112.37L230.77 113.85L229.78 114.6L229.41 115.95L230.03 117.81L231.51 118.05L232.62 119.41L235.21 121.02L237.93 121.76L240.4 122.13L242.87 123.86L247.44 123.61V122.5Z" fill="#C7C7C7" stroke="white" stroke-width="2"/>
<path d="M202.37 88.35L201.81 87.23L200.95 86.25L199.71 85.63L197.86 85.51L195.64 86.25L194.53 87.36L192.43 87.6L190.58 86.49L188.23 86.12L184.4 85.26H180.33L177.24 85.51L175.39 86.25L173.04 85.26L171.44 84.02L169.83 83.41L168.35 83.28L166.87 82.42L165.51 83.28L164.65 84.27L162.55 85.51L160.57 85.38L159.34 85.14L159.83 83.78L158.1 84.39L157.12 85.38L155.39 85.75L152.67 86.62L150.82 87.36L148.97 88.35H146.25L144.65 88.96L143.16 90.44L141.44 91.06L138.97 91.19L138.22 91.93L136.25 92.91L129.46 93.28L127.73 93.9L124.03 95.63L119.95 96.12L117.11 95.88L114.02 96L111.8 95.75L109.95 94.4L107.85 93.65L104.64 89.7L104.02 87.73L102.79 86L103.04 84.39L103.78 83.41L103.9 82.17L103.16 80.94L101.92 79.46L100.44 78.59L99.4502 76.86L98.1002 75.75L96.2402 73.53L94.4902 72.23L95.0802 71.62L99.1902 69.87L103.19 67.45L105.05 65.93L107.54 65.35L111.92 62.99L114.77 61.86L118.68 61.02L122.3 60.64L123.79 60.74L127.08 60.49L128.77 60.21L129.5 59.55L131.5 58.34L132.62 58.24L136.95 56.47L140.67 55.52L143.72 54.26L144.94 52.59L146.93 51.21L150.47 50.88L150.18 49.32L150.66 48.5H153.87L156.15 50.02L157.14 51.63L158.62 51.75L159.98 51.63L163.18 51.04L163.86 47.15L162.82 44.46L160.98 40.89L159.34 40.38L157.54 40.44L156.41 41.56L151.03 42.2L143.29 44.29L142.32 43.11L141.95 40.64L143.19 39.77V36.69L140.23 33.48L139.83 31.92L139.66 29.72L141.21 27.05L142.36 24.14L144.06 21.43L148.23 18.73L150.61 17.65L155.23 17.88L157.76 20.08L159.12 22.61L158.95 24.64L159.96 26.84L161.32 28.87L161.66 31.75L161.83 34.8L163.69 40.21L166.15 43.85L167.14 45.95L167.58 48L168.93 48.84L170.96 49.86L173.02 48.62L176.72 48L177.73 48.84L179.5 49.23L180.94 48.37L183.27 47.41L187.38 48.33L190.73 49.54L193.81 50.87L202.32 51.31L210.42 55.66L213.23 57.43L215.33 58.05L220.27 61.75L221.98 64.24L224.94 67.96L227.56 70.89V73.6L226.13 75.24L227.71 76.42L227.82 76.93L226.81 77.95L226.13 79.81L225.94 81.67L226.57 84.84L227.8 86.57L230.02 90.72L225.58 91.38L219.16 91.26L217.06 90.89L215.46 90.15L214.22 89.28L213.11 88.05L212.74 84.59H210.15L206.2 85.46L203.48 88.05L202.37 88.35Z" fill="#C7C7C7" stroke="white" stroke-width="2"/>
<path d="M353.72 210.77L353.51 211.57H351.87L351.04 210.58L349.89 210.09H348.41L348.25 209.27L346.27 209.1L345.28 209.92L342.81 210.25L341.5 211.08L339.68 211.41L338.7 212.23L337.38 214.37L335.57 216.18L333.76 218.48L331.62 218.98L328.98 219.8L326.84 218.98H324.21L322.89 218.81L322.23 217.83L320.92 219.47L317.95 221.61L314.83 221.28L313.18 219.47L312.36 217.33L309.39 217L308.24 215.85L305.44 214.04L302.97 214.53L301.82 215.36L299.35 215.52L298.69 218.32L297.38 219.31L293.26 218.48L288.81 216.51L285.03 215.19L280.09 214.7L274.66 214.53L270.05 212.89L267.91 211.24L264.28 209.76L260.17 208.28L258.03 205.81L257.37 202.19L255.89 200.54L256.05 197.08L253.58 195.6L251.61 195.27L248.97 192.47L246.01 189.02L243.05 187.7L241.24 186.55H239.59L239.76 183.25L237.94 182.1L237.87 181.79L238.6 182.43L238.44 180.78L239.92 180.29L239.76 173.21L238.77 172.39L238.44 171.07L240.91 167.28L241.4 165.8L243.71 163.33L245.02 162.35L246.34 160.54V151.81L245.19 149.34L244.04 147.86L243.71 141.6L242.55 140.94L242.22 138.15V135.51L243.54 134.85L245.19 133.7L247.66 133.04L249.63 131.89L250.95 130.24L251.61 129.09L251.11 127.12L250.62 125.96L249.3 124.65L247.82 122.67L247.44 122.5V122.25L247.68 120.89L248.42 120.03L249.9 119.9L252.5 121.88L253.36 122.87L253.49 123.73L255.21 123.86L255.95 122.74L256.94 122.13L258.55 121.88L259.54 120.77L261.63 120.89L261.76 119.9L262.13 117.68L264.35 117.06L267.07 117.19L268.18 117.44L269.04 118.67L272.99 120.03H276.33L277.44 120.77L278.3 122.25L279.66 123.61L283.74 126.82L285.34 127.81L286.82 128.18V129.29L289.04 130.03L290.16 131.51V133.86L289.17 135.22L288.55 136.33L287.32 137.07H285.71L284.23 137.56L283.98 138.92L284.85 140.65L286.45 141.76L287.93 142.25L289.29 143.12L293 144.23L294.85 145.34L298.43 147.07L299.91 146.33L300.65 145.22L301.15 143.98L302.13 142.99L303.24 140.15V139.17L302.38 138.06L302.13 134.84L303.37 133.61L303 131.51L301.52 129.78L300.28 128.67L299.54 127.81L300.9 126.33L301.27 125.09L302.38 124.47V122.62L301.64 121.88L301.15 120.4V117.06L304.68 116.94L306.16 116.57L307.64 115.58L309.12 115.09L310.73 114.35L312.21 113.98L313.57 114.84L315.42 116.45L316.65 117.19L319 116.82L320.6 117.68L322.33 116.94L324.06 116.82L326.28 117.81L328.14 117.93L331.72 117.81L333.45 117.31L334.56 116.82L336.16 116.94L337.4 118.05H338.75L339.74 118.67L340.48 118.78L340.35 119.29L340.47 121.14L341.38 122.74L342.25 124.84V126.94L341.63 128.92L341.75 131.63L343.36 132.38V135.09L344.96 135.34L348.18 135.59L351.14 135.09L351.88 133.73L352.99 133.49L358.05 138.06L360.15 139.17L362 139.41L363.24 140.4L363.49 141.88L362.5 142.99L361.39 143.86L359.41 144.1L358.79 145.83L360.15 147.56L361.26 149.78L362.99 151.64L364.6 153.12L366.7 153.49L369.17 154.35L371.51 155.59L373.73 157.81V160.28L375.34 161.02L376.45 162.01L378.3 163.24L381.14 164.6L382.01 166.58L381.51 168.55L380.4 170.4L379.66 172.63L378.92 173.86H376.45L375.46 172.5L374.6 171.64L370.65 171.52L366.94 171.76L365.58 173L364.84 174.48L364.6 176.45L365.71 177.81L365.58 179.79L364.47 183L363.61 184.97L363.49 187.2L362.25 189.05L361.02 190.53L359.41 192.26L358.05 193.25L354.84 197.32L353.61 199.17L352.37 201.64L351.14 203L351.02 205.72L350.03 207.45L350.77 208.68L352.25 209.67L353.72 210.77Z" fill="#C7C7C7" stroke="white" stroke-width="2"/>
<path d="M198.95 116.02L198.87 117.06L199 119.29L198.75 121.26L197.89 121.39L197.64 124.6L196.28 125.58L195.29 126.7L193.94 127.68L192.82 128.79L191.47 129.54H189.86L188.13 129.78L187.64 130.4L186.53 129.54L185.17 129.17L185.29 123.86L184.43 122.74L183.81 122.5L182.58 123.61L182.33 124.84L181.22 125.96L180.6 126.94L180.35 128.3L179.37 129.04V130.15L178.5 130.52L178.62 131.39L179.98 133.24L178.38 133.61L176.9 131.26L175.78 131.63V133.73L177.14 134.35L176.9 135.46L175.78 135.09L173.32 133.12L171.96 133.49V134.35L173.19 135.34L173.07 136.33L172.08 136.2L171.22 134.97L168.87 135.46L168.01 136.33L167.88 141.88L166.9 142.75L165.78 142.99L164.55 142.87L163.93 142.01H162.33L161.22 142.99L159.86 142.62L158.13 140.77L159.36 139.54L160.23 138.43L160.72 137.31L161.22 135.96L160.84 134.6L159.36 134.84L158.62 135.34L158 136.2L154.92 136.08L152.7 138.43L151.95 138.8L151.21 140.9L149.98 140.03L149.49 138.55L146.89 135.59V133.61L148 131.88L148.5 130.77L152.2 130.4L153.07 130.03L152.33 128.55L150.23 128.05L148.62 126.7L146.77 125.71L145.04 125.46L143.81 123.98H142.32L141.21 124.6L139.11 123.73L137.51 122.87L136.52 121.51L135.29 120.77L133.93 121.26L131.95 121.76L130.47 120.89L128.74 120.65V117.81L127.51 116.82L126.03 116.2L126.15 114.97L124.54 114.1L122.94 114.84L122.2 116.08L121.95 118.05L122.2 119.04L121.07 119.34L121.1 119.14L118.51 118.89L116.41 117.78L115.54 117.04L114.06 116.55L112.21 115.31L111.35 113.46L112.09 111.85L114.43 110.5L118.38 108.52L120.48 106.67V104.69L121.22 103.58L121.35 102.47L120.48 101.61L119.49 101.85L118.51 101.24L118.26 100.37L118.38 99.14L118.01 97.53L117.27 96.79L117.22 95.89L119.95 96.12L124.03 95.63L127.73 93.9L129.46 93.28L136.25 92.91L138.22 91.93L138.97 91.19L141.44 91.06L143.16 90.44L144.65 88.96L146.25 88.35H148.97L150.82 87.36L152.67 86.62L155.39 85.75L157.12 85.38L158.1 84.39L159.83 83.78L159.34 85.14L160.57 85.38L162.55 85.51L164.65 84.27L165.51 83.28L166.87 82.42L168.35 83.28L169.83 83.41L171.44 84.02L173.04 85.26L175.39 86.25L177.24 85.51L180.33 85.26H184.4L188.23 86.12L190.58 86.49L192.43 87.6L194.53 87.36L195.64 86.25L197.86 85.51L199.71 85.63L200.95 86.25L201.81 87.23L202.37 88.35L202.12 88.42L201.63 89.04L200.52 89.9L199.53 91.26L197.92 91.88L195.58 92.12L193.85 93.11L192.98 94.47L192.61 96.82L194.71 100.15L194.84 103.48L195.82 104.59V105.95L190.89 106.08L190.51 107.68L189.53 108.92L188.05 109.29L186.69 110.27L186.32 111.14L187.06 112.37L188.17 113.11L190.14 115.46L189.28 116.69L189.03 117.93L189.53 119.9L190.64 120.89L192 121.63L193.11 122L193.97 120.65L194.22 118.3L195.33 116.94L196.44 115.95L198.54 116.08L198.95 116.02Z" fill="#C7C7C7" stroke="white" stroke-width="2"/>
<path d="M128.04 161.23L127.63 162.06L125.78 164.65L126.15 165.89L125.04 166.75L123.8 167L122.82 167.86L121.7 167.98L121.21 168.73V168.97L120.22 170.33L119.23 170.7L117.51 170.95L115.9 171.94L114.79 173.05L113.56 174.65L112.57 175.52L111.09 177.37L109.85 178.11L108.62 180.33V182.31L107.75 183.79V185.64L106.39 187L105.9 187.99H104.67L104.91 189.1L105.9 189.72V191.81L106.89 192.8V195.89L106.02 196.88L105.78 197.99L105.16 199.35L103.68 201.2L102.07 202.93L99.5995 205.15L96.8895 207.25L95.0295 209.35L92.8095 210.46L88.9795 213.05L87.3795 213.92L86.1395 214.78L85.1595 214.29L84.4195 213.55L83.5495 212.31L83.6795 208.73L83.2995 205.4L82.6895 204.16L80.9595 203.3H77.2495L75.8995 203.05L74.5395 201.32L71.0795 198.48L67.8695 197.99L66.2695 197.37L66.3895 195.52L67.8695 194.04L68.8595 192.56L69.5995 190.95L71.0795 190.33V185.89L71.3295 184.04L72.4395 182.8L72.0695 181.57L71.1995 180.58L70.8295 178.36L69.9695 178.11L69.6395 176.62L70.6495 176.28L72.1295 176.41L73.9795 177.15L75.7095 177.39L76.5795 173.81L78.0595 173.57L80.1595 172.33L83.7395 168.5L87.0695 166.65L88.7995 164.55L91.3895 163.32L93.9795 160.85L95.0995 159.98L96.6995 159.12L96.5795 157.76L95.9595 157.51L95.3395 156.65L95.4695 154.67L95.3895 154.23L96.3995 153.54L97.1195 152.71L97.4495 151.64L99.4795 151.71L99.9695 152.45L101.21 152.58L102.32 153.56L103.92 154.55L104.79 155.91L106.27 156.4L107.13 155.54L109.6 155.42L110.59 154.55L111.96 154.66L112.32 155.34H113.68L116.77 156.82L120.47 160.77L122.2 162.38L123.93 159.79L126.15 160.03L127.75 161.27L128.04 161.23Z" fill="#C7C7C7" stroke="white" stroke-width="2"/>
<path d="M340.48 118.78L339.74 118.67L338.75 118.05H337.4L336.16 116.94L334.56 116.82L333.45 117.31L331.72 117.81L328.14 117.93L326.28 117.81L324.06 116.82L322.33 116.94L320.6 117.68L319 116.82L316.65 117.19L315.42 116.45L313.57 114.84L312.21 113.98L310.73 114.35L309.12 115.09L307.64 115.58L306.16 116.57L304.68 116.94L300.97 117.06L298.13 117.19L296.16 116.45L290.11 116.08H287.76L286.65 114.84L285.29 113.61L284.06 112.87L279.98 111.39L279.12 110.15V108.42L280.11 107.43L280.23 105.71L278.99 104.35L278.5 103.24L277.27 101.51V98.67L277.09 97.29L278.21 96.75L279.27 98.05L280.25 98.67L282.85 98.91L284.82 98.67L290.25 95.83L291.49 94.84L291.74 92.15L293.84 92.37L295.56 91.51L297.17 91.14L307.42 91.26L308.78 92.25L309.89 92.37L311.74 92.12L313.1 91.75L313.71 90.52L313.6 88.61L315.45 87.19L317.8 87.37L318.69 87.73L320 89.66L323.3 89.79L324.34 90.23L324.32 91.44L322.72 92.45L322.66 93.65L323.61 94.88L324.93 96.18L329.78 100.04L332.06 101.34L335.11 104.38L337.38 106.12L338.32 106.28L340.09 106.18L343.87 107.56L347.92 108.01L352.94 109.6L352.82 110.4L351.58 111.26L350.22 112.5L349.24 113.11L347.88 114.72L346.52 115.95L344.67 117.19L343.06 118.05L340.72 117.93L340.48 118.78Z" fill="#C7C7C7" stroke="white" stroke-width="2"/>
<path d="M488.56 128.63L487.69 131.1L486.04 133.08L484.06 135.05L484.72 137.36L486.04 141.14L485.88 144.43V147.73L487.19 149.04L489.17 150.2L489.33 153.16L489.83 154.81L489.66 156.62L490.65 157.44L492.79 157.93L496.9 158.43L498.88 157.93L500.03 156.95L501.18 157.11L501.84 159.42L502.01 165.67L501.35 169.79L500.2 171.76L497.89 173.08L493.94 177.52L493.12 178.84L490.81 179.5L488.34 181.64L485.38 182.3L482.09 182.46L479.29 183.62L479.22 183.84L478.89 183.96L477.41 185.32L475.93 186.92H474.45L474.57 184.33L472.84 183.84L470.5 182.6L468.52 181.86L463.34 180.38L460.74 179.39L458.89 178.04L458.03 176.8L458.4 174.33L458.15 173.47L460.74 173.59L462.6 171.86L462.1 170.63H459.63L457.04 171.49L449.26 171.86L448.15 170.38L447.04 168.4L446.79 166.68L446.17 165.07L445.19 163.34L441.36 160.5L439.88 159.14L437.9 158.03L435.56 155.44L430.86 151.86L428.15 150.75L426.54 149.88L425.06 150.13L423.83 150.62L421.48 151.24L420.74 150.25L420 148.15L419.01 146.43L418.02 144.33L417.9 142.23L419.26 140.5L421.23 138.89L422.34 137.78L423.33 137.29V135.81L421.97 131.36L420.74 129.76L419.13 128.52L418.64 126.55L419.13 124.82L420 123.95L419.13 122.1L417.9 121.24L417.53 119.76L416.67 119.02L415.31 118.52L414.2 117.66L413.95 115.68L414.44 114.08L417.16 113.34L419.13 112.22L419.11 111.48H420.01L422.23 110.37L423.71 110.25L425.94 109.14L427.05 107.53L428.41 106.54L434.21 106.42L435.07 105.8L436.68 105.06L437.3 104.32L437.91 103.95L438.78 103.09L439.64 102.59L441.25 102.96L442.11 103.46L443.47 104.45L444.09 105.43L446.06 105.68L447.3 106.92L448.53 107.66L449.52 107.41L451 108.15L455.08 108.52L457.55 109.51L459.15 110.87L462.36 113.21L464.34 113.09L465.57 113.95L468.04 114.2L470.26 114.08L472.12 113.34L476.19 113.46L476.68 111.85L477.67 110.62L477.38 107.14L477.75 106.57L479.24 106.46L481.02 106.93L482.52 108.18L483.07 109.13L483.89 111.89L485.8 116.88L485.99 120.04L487.76 121.8L488.77 124.11L488.83 126.52L488.56 128.63Z" fill="#C7C7C7" stroke="white" stroke-width="2"/>
<path d="M420.72 83.5L419.27 83.6L417.82 83.21L418.3 83.02L417.24 82.73L417.05 82.05L418.21 80.6L420.53 80.79L420.92 81.37L421.11 82.43L420.72 83.5ZM410.68 81.56L408.85 81.66L407.31 81.56L406.54 80.4L406.93 79.72L410.5 79.53L411.18 80.01L411.28 80.78L410.68 81.56ZM425.94 71.52V72.68L424.97 73.16L424.49 73.93L423.04 74.03L422.46 74.8L421.4 75.57L418.99 75.96L418.02 76.73L413.39 76.83L412.71 76.54L412.03 75.57L410.39 74.32L408.65 73.84L407.98 75L404.21 74.9L403.34 74.03L401.31 73.84L399.77 72.78L399.87 70.75L401.32 69.4L403.83 68.92L407.5 69.11L409.33 71.04L411.07 72.01L413.77 72.3L415.41 71.43L416.76 71.14L417.72 68.24L418.4 67.95L419.75 66.79L421 65.44L421.48 65.34L423.22 65.53L423.7 66.11L424.09 67.65L425.44 68.62L425.83 69.97L425.94 71.52Z" fill="#C7C7C7" stroke="white" stroke-width="2"/>
<path d="M195.86 126.06L197.54 130.24V131.89L198.86 132.71L199.03 134.19V136.01L202.15 141.77L201.99 143.25L202.32 145.06L204.79 146.38L207.92 149.67L209.73 150.16L210.22 151.81V153.79L213.35 156.58L211.54 158.56L211.04 160.21L212.03 162.18L212.53 164.32L213.35 166.46L212.53 167.61L209.89 167.94L208.9 168.6L207.26 169.42L206.27 170.41L208.08 171.56L209.56 171.89L210.88 173.54L211.37 175.52L213.18 176.34L214.83 177.66L215 180.46L214.5 182.6L213.68 183.91L213.18 185.89L211.87 188.03L209.73 188.69L207.75 189.67L206.43 191.98L204.95 192.47L204.62 194.28L204.46 201.03L202.48 201.36L200.34 200.38L199.03 198.4L197.71 197.58L197.22 195.77L195.73 194.28L193.59 193.46L191.95 191.65L190.3 190.17L188.98 189.51L189.31 188.03L190.63 186.88L189.97 185.56L188 184.74L187.67 182.76L185.86 180.46L184.87 178.97L182.73 177L179.93 176.01L177.13 176.67L171.86 174.69L169.72 172.72H162.64L161.49 171.73L158.53 170.58L155.73 169.75L153.59 167.94L151.28 166.79L148.98 164.82L147.33 163.66L146.02 162.02L144.5 161.26L144.55 161.27L146.03 159.29L148.25 156.7L148.74 155.46L148.99 154.23V151.14L146.27 150.16L145.78 148.06L148 145.46L150.35 143.61L150.97 142.13L151.32 140.59L151.95 138.8L152.7 138.43L154.92 136.08L158 136.2L158.62 135.34L159.36 134.84L160.84 134.6L161.22 135.96L160.72 137.31L160.23 138.43L159.36 139.54L158.13 140.77L159.86 142.62L161.22 142.99L162.33 142.01H163.93L164.55 142.87L165.78 142.99L166.9 142.75L167.88 141.88L168.01 136.33L168.87 135.46L171.22 134.97L172.08 136.2L173.07 136.33L173.19 135.34L171.96 134.35V133.49L173.32 133.12L175.78 135.09L176.9 135.46L177.14 134.35L175.78 133.73V131.63L176.9 131.26L178.38 133.61L179.98 133.24L178.62 131.39L178.5 130.52L179.37 130.15V129.04L180.35 128.3L180.6 126.94L181.22 125.96L182.33 124.84L182.58 123.61L183.81 122.5L184.43 122.74L185.29 123.86L185.17 129.17L186.53 129.54L187.64 130.4L188.13 129.78L189.86 129.54H191.47L192.82 128.79L193.94 127.68L195.29 126.7L195.86 126.06Z" fill="#C7C7C7" stroke="white" stroke-width="2"/>
<path d="M477.38 107.14L477.67 110.62L476.68 111.85L476.19 113.46L472.12 113.34L470.26 114.08L468.04 114.2L465.57 113.95L464.34 113.09L462.36 113.21L459.15 110.87L457.55 109.51L455.08 108.52L451 108.15L449.52 107.41L448.53 107.66L447.3 106.92L446.06 105.68L444.09 105.43L443.47 104.45L442.11 103.46L441.25 102.96L439.64 102.59L438.78 103.09L437.91 103.95L437.3 104.32L436.68 105.06L435.07 105.8L434.21 106.42L428.41 106.54L427.05 107.53L425.94 109.14L423.71 110.25L422.23 110.37L420.01 111.48H418.78L417.67 110.74L416.8 110.37H413.59L410.01 111.73L408.78 112.35H404.33L403.22 111.61L401.86 111.24L400.5 110.62L399.27 110.25L397.91 109.38L397.42 107.53L396.18 106.17L395.69 105.8L395.18 105.02L396.54 102.73L398.82 100.91L399.84 99.94L401.24 98.89L404.21 98.52L407.96 94.61L409.99 94.87L411.77 96.26L414.05 96.9L421.54 97.02L424.58 96.79L425.44 96.03L428.88 94.9L429.67 94.29L425.6 93.34L423.57 92.2H420.78L419.51 90.42H417.48L416.97 91.44L409.74 91.19L405.9 93.01L404.87 92.1L405.32 91.23L403.77 88.77L404.66 88.01L405.85 87.45L407.32 88.52L413.29 88.27L413.67 87.25L416.97 87.13L417.73 88.39H422.17L423.25 87.14L429.92 87.15L431.95 88.01L436.88 87.97L443.5 86.49L449.08 86.62L450.31 85.24L451.87 84.71L461.69 84.48L463.04 85.48H466.21L467.74 84.59L470.15 84.08L471.92 83.06H474.46L477 83.7L480.68 83.83L483.9 83.51L488.85 84.36L494.77 85.09L498.84 84.66L502.89 84.46L504.67 83.95L509.99 83.45L509.82 84.95L507.84 85.73L506.19 86.74L503.65 87.38L501.12 87.63L499.6 87.93L498.68 87.63L497.49 87.55L493.66 87.98L492.47 89.17L491.35 91.18L490.04 92.23L484.8 92.16L481.37 91.84L479.04 91.18L473.83 91.06L467.84 92.16L466.71 92.54L466.18 93.45L467.46 93.88L468.05 94.84L467.96 96.85L467.63 97.79L466.23 98.11L465.38 97.94L464.52 98.16L463.4 98.05L462.49 98.21L461.74 98.75L460.88 99.66L460.56 103.84L461.14 104.64H462.53L463.07 103.67L463.02 100.46L463.88 99.61L464.79 99.45L465.75 99.93L467.68 99.87L468.33 98.75L469.76 98.05L469.71 96.66L470.53 96.14L472.18 97.91L473.57 98.04L474.84 100.07L475.23 103.44V107.9L476.25 108.23L477.13 107.54L477.38 107.14Z" fill="#C7C7C7" stroke="white" stroke-width="2"/>
<path d="M86.4097 214.6L86.3396 214.86L86.8297 217.5L85.8396 217.83L85.6796 219.47V221.12L86.6696 222.27L87.6597 222.76L88.8096 223.92L90.1197 224.9L90.9496 225.89L91.1096 227.04L87.4896 227.21L86.1696 226.88L84.5296 226.22H82.2197L80.2496 225.56L76.7896 225.07L74.4797 224.25L72.9996 225.07L71.0296 225.4L70.0396 226.22L69.7096 227.37L68.7197 228.86V229.68L68.2297 230.67L66.9097 231L65.4296 231.65H62.4697L59.9996 231.33L58.3496 230.34L57.1996 229.35L56.2096 228.2L54.8896 228.36L53.5797 229.02L51.2696 228.86L48.1396 229.02L47.7197 229.96L44.7296 229.82L44.2397 227.6L42.7596 227.1L42.3896 219.82L42.5696 208.34L43.8696 203.82L45.6796 202.72L47.5996 202.71L48.3596 202.08L48.5196 200.88L46.4596 198.63L46.2596 189.88L45.7296 188.44L45.1297 187.79L44.1896 187.54L43.8396 187.14L45.8297 186.65L47.1896 185.17L48.1796 184.92L48.4196 183.07L54.0996 180.23H56.5696L60.2796 178.87L62.6196 176.65L63.4897 176.41L64.7197 177.02L64.9697 178.26H66.5696L67.1897 177.27L69.1696 176.78L69.6396 176.62L69.9697 178.11L70.8297 178.36L71.1996 180.58L72.0696 181.57L72.4397 182.8L71.3297 184.04L71.0797 185.89V190.33L69.5996 190.95L68.8596 192.56L67.8697 194.04L66.3896 195.52L66.2696 197.37L67.8697 197.99L71.0797 198.48L74.5396 201.32L75.8997 203.05L77.2496 203.3H80.9596L82.6897 204.16L83.2997 205.4L83.6796 208.73L83.5497 212.31L84.4196 213.55L85.1597 214.29L86.1396 214.78L86.4097 214.6Z" fill="#C7C7C7" stroke="white" stroke-width="2"/>
<path d="M151.32 140.59L150.97 142.13L150.35 143.61L148 145.46L145.78 148.06L146.27 150.16L148.99 151.14V154.23L148.74 155.46L148.25 156.7L146.03 159.29L144.55 161.27L142.94 161.02H141.58L139.73 160.03L132.32 160.16L129.85 161.02L127.75 161.27L126.15 160.03L123.93 159.79L122.2 162.38L120.47 160.77L116.77 156.82L113.68 155.34H112.32L111.96 154.66L112.2 154.67L112.57 153.69L112.69 152.33L111.83 151.22L111.46 150.35L111.21 148.87L110.22 147.02L106.27 145.54L104.47 145.56L104.59 145.39L104.91 143.02L104.88 137.17L105.22 135.31L105.39 132.1L108.51 133.34L110.85 133.83L113.94 133.59L115.91 132.23L117.52 130.75V129.14L118.01 128.4L118.75 126.55L120.11 126.67L121.59 126.18L122.09 125.19L121.84 121.86L120.85 120.62L121.07 119.34L122.2 119.04L121.95 118.05L122.2 116.08L122.94 114.84L124.54 114.1L126.15 114.97L126.03 116.2L127.51 116.82L128.74 117.81V120.65L130.47 120.89L131.95 121.76L133.93 121.26L135.29 120.77L136.52 121.51L137.51 122.87L139.11 123.73L141.21 124.6L142.32 123.98H143.81L145.04 125.46L146.77 125.71L148.62 126.7L150.23 128.05L152.33 128.55L153.07 130.03L152.2 130.4L148.5 130.77L148 131.88L146.89 133.61V135.59L149.49 138.55L149.98 140.03L151.21 140.9L151.32 140.59Z" fill="#C7C7C7" stroke="white" stroke-width="2"/>
<path d="M230.02 90.72L230.52 91.63L230.94 92.12H229.53L227.93 92.49L227.31 92.99L225.95 93.11L224.59 92.25L223.48 92.62L223.73 94.59L222.74 96.82L222.49 100.52L222.74 101.51L224.1 102.37L224.96 103.85V104.84L223.98 106.08L223.36 107.43L222.62 108.55V111.14L223.36 112L223.48 113.36L223.85 115.09L224.46 115.23L223.73 116.82L222.49 117.31L221.38 118.55L218.67 120.03L217.18 120.15L216.32 119.29L215.95 117.31L216.07 115.95L213.48 116.08L211.88 117.06L211.5 118.05L208.42 119.04L207.18 118.42L205.46 117.31L202.99 114.97L201.26 114.84L200.27 115.83L198.54 116.08L196.44 115.95L195.33 116.94L194.22 118.3L193.97 120.65L193.11 122L192 121.63L190.64 120.89L189.53 119.9L189.03 117.93L189.28 116.69L190.14 115.46L188.17 113.11L187.06 112.37L186.32 111.14L186.69 110.27L188.05 109.29L189.53 108.92L190.51 107.68L190.89 106.08L195.82 105.95V104.59L194.84 103.48L194.71 100.15L192.61 96.82L192.98 94.47L193.85 93.11L195.58 92.12L197.92 91.88L199.53 91.26L200.52 89.9L201.63 89.04L202.12 88.42L203.48 88.05L206.2 85.46L210.15 84.59H212.74L213.11 88.05L214.22 89.28L215.46 90.15L217.06 90.89L219.16 91.26L225.58 91.38L230.02 90.72Z" fill="#C7C7C7" stroke="white" stroke-width="2"/>
<path d="M104.47 145.56L106.28 145.54L110.23 147.02L111.22 148.87L111.47 150.35L111.84 151.21L112.7 152.32L112.58 153.68L112.21 154.67L110.6 154.55L109.61 155.41L107.14 155.53L106.28 156.39L104.8 155.9L103.94 154.54L102.34 153.55L101.23 152.56L100 152.44L99.51 151.7L99.29 151.69L99.86 148.21L100.58 147.69L101.88 147.4L103.78 146.55L104.47 145.56ZM94.49 72.23L96.24 73.53L98.09 75.75L99.45 76.86L100.44 78.59L101.92 79.45L103.15 80.93L103.89 82.16L103.77 83.39L103.03 84.38L102.78 85.98L104.01 87.71L104.63 89.69L107.84 93.64L109.94 94.38L111.79 95.74L114.01 95.99L117.1 95.87L117.21 95.88L117.26 96.78L118 97.52L118.37 99.12L118.25 100.35L118.5 101.21L119.49 101.83L120.48 101.58L121.34 102.44L121.22 103.55L120.48 104.66V106.64L118.38 108.49L114.43 110.47L112.08 111.83L111.34 113.43L112.2 115.28L114.05 116.51L115.53 117L116.39 117.74L118.49 118.85L121.08 119.1L120.83 120.58L121.82 121.81L122.07 125.14L121.58 126.13L120.1 126.62L118.74 126.5L118 128.35L117.51 129.09V130.69L115.91 132.17L113.93 133.53L110.84 133.78L108.49 133.29L105.37 132.05V129.68L106.22 129.51L105.88 127.82L104.19 122.07L102.7 120.6L100.52 118.1L98.43 117.72L97.42 114.8L97.44 111.3L95.14 109.22L94.12 108.09L93.05 107.32L90.02 103.31L87.76 99.44L86.94 96.36L88.12 95.34L87.95 93.31L85.58 92.63L84.06 91.11L84.24 88.81L85.25 88.07L84.73 86.09L84.57 81.97L83.5 80.9L83.62 79.54L86.58 79.29L88.31 79.78L88.29 77.73L89.81 76.04L89.64 75.02L88.55 74.34L88.43 72.61L91.52 72.73L92.01 73.83L92.35 76.37L94.21 75.86L93.7 72.98L94.49 72.23ZM79.67 41.4L76.12 41.74L73.23 41.67L71 42.34L67.66 44.29L65.97 46.66L65.46 49.03L66.47 53.42L66.35 55.27L67.83 55.89L69.56 60.83L70.92 62.81L72.9 64.91L74.61 67.65L80.19 69.34L80.53 70.52L79.51 70.86H76.97L74.94 70.01L74.38 71.2L77.1 73.18L77.35 76.39L79.01 80.84L80.31 81.82L81.17 82.81L82.65 83.8L82.73 85.75L81.91 90.59L80.84 90.99L79.24 94.73L78.41 96.24L73.69 99.49L71.98 101.63L70.62 104.6L70.68 106.64L69.57 109.23L64.46 111.47L63.78 114.85L57.36 124.07L59.46 127.75L60.85 128.99L62.55 130.96L64.42 133.67L64.52 138.37L66.85 138.52L74.7 143.77L75.12 145.14L74.75 147.32L72.25 147.86L71.74 149.72L74.27 150.73V154.43L74.65 156.01L75.5 157.02L76.64 157.67L79.52 158.57L80.65 158.71L82.66 158.67L85.11 158.24L93.22 155.57L94.24 155.08L95.41 154.27L95.48 154.71L95.36 156.69L95.98 157.55L96.6 157.8L96.72 159.16L95.12 160.02L94.01 160.88L91.42 163.35L88.83 164.58L87.1 166.68L83.77 168.53L80.19 172.36L78.09 173.59L76.61 173.84L75.75 177.42L74.02 177.17L72.17 176.43L70.69 176.31L69.21 176.8L67.23 177.29L66.61 178.28H65.01L64.76 177.05L63.53 176.43L62.67 176.68L60.32 178.9L56.62 180.26H54.1L48.42 183.1L48.17 184.95L47.18 185.2L45.82 186.68L43.83 187.17L34.6 176.56L28.8 154.09L25.47 153.47L24.36 154.58L21.52 154.33L20.36 152.56L20.54 151.54L19.53 148.88L18.25 147.05L12.35 150.52L11.37 151.77L8.88 152.87L5.08 152.48L3.42 153.08L2 152.83L2.63 150.41L5.97 147.64L6.09 143.81L7.88 142.29L9.43 139.12L13.52 135.49L15.1 133.35L19.06 125.05L20.29 123.94L20.54 121.22L19.31 120.19L19.71 115.87L21.04 112.95L22.4 110.6L22.28 103.12L23.51 102.13V97.8L24.62 95.58L26.35 91.63L29.31 87.31L31.78 84.96L31.76 81.56L34.9 75.94L39.31 70.88L40.08 67.96L41.77 66.27L45.66 65.59L49.72 65.25L52.94 59.33L58.86 47.82L62.24 43.25L65.46 41.73L72.45 39.4L74.92 38.41L87.51 35.94L89.61 34.09L92.72 33.11L94.23 34.46L93.55 36.83L90.84 38.18L88.13 39.36L79.67 41.4Z" fill="#C7C7C7" stroke="white" stroke-width="2"/>
<path d="M359.54 71.27L360.57 72.3L362.24 71.91L363.01 72.68L363.27 73.84L364.3 75.13L364.04 76.03L363.14 76.93L362.24 77.7L361.21 77.83L357.73 77.7L356.57 76.93L355.8 76.8L354.9 76.93L353.87 76.54L352.97 74.74L353.1 73.71L353.61 72.81L354.9 71.65L358.5 70.62L359.54 71.27ZM458.93 55.34L457.39 57.23L456.19 56.03L455.68 54.49L456.71 52.77L458.43 52.6L459.63 52.94L460.32 53.8L460.15 54.83L458.93 55.34ZM400.89 38.11L400.57 40.23L399.71 40.75L398.85 39.55L399.02 37.66H400.74L400.89 38.11ZM321.88 37.66H320.59L319.3 37.02L318.66 36.25L317.24 35.09L318.14 34.45L318.66 33.55H321.62L322.26 33.16L322.77 32.13L323.8 30.84L325.34 31.61L325.47 33.03L326.11 34.06V35.73L324.95 37.02L323.79 37.53L321.88 37.66ZM391.27 36.5H389.34L388.05 35.86L387.41 34.7V33.15L388.18 31.86L389.6 30.96L392.18 30.83L393.08 31.99L393.34 33.15V34.95L391.27 36.5ZM303.47 29.68L304.11 31.35V35.08L303.21 37.01L301.92 38.04L299.99 38.56H297.54L295.74 37.79L294.2 37.66H291.62L290.59 36.63L290.72 35.86L299.47 35.34L300.76 33.41L301.15 32.51L300.25 31.09L299.22 29.8V31.47L298.45 32.89L297.42 33.79L293.56 33.66L290.73 31.21V29.92L291.5 28.89H293.17L294.33 28.12L296 27.73L298.32 26.96L300.77 26.83L302.57 27.99L303.47 29.68ZM267.03 28.78L265.61 28.91L263.81 28.52L263.68 27.88L263.81 27.11L265.35 26.85L265.22 25.95L263.42 24.79L264.06 23.76L264.96 23.12L266.5 23.64L267.92 26.34L267.53 27.88L267.03 28.78ZM258.41 23.37L258.8 25.17L258.16 27.23L256.49 27.87H254.3L253 26.85V25.3L253.9 24.14L255.19 24.27L255.32 23.24L252.49 22.08L250.95 21.05L252.37 20.15L253.91 20.28L257 21.95L258.41 23.37Z" fill="#C7C7C7" stroke="white" stroke-width="2"/>
<path d="M313.6 88.61L313.71 90.52L313.1 91.75L311.74 92.12L309.89 92.37L308.78 92.25L307.42 91.26L297.17 91.14L295.56 91.51L293.84 92.37L291.49 92.12H286.18L284.95 92.25L284.08 91.14L282.72 91.38L282.48 92.49L281.86 93.11L280.75 93.23L279.51 95.46L278.77 96.07L278.15 96.82L277.04 97.31L275.93 97.93H274.82L273.96 96.94L272.97 96.69L271.86 97.43L271.36 98.42L270.62 98.91L269.51 98.79L269.39 97.68L268.4 96.32L268.65 95.09L267.91 94.35L267.69 92.5L274 92.07L279 90.11L283.68 88.72L294.88 87.51H303.76L309.47 88.04L310.94 88.46L313.6 88.61Z" fill="#C7C7C7" stroke="white" stroke-width="2"/>
<path d="M547.11 180.26L546.19 180.91L544.49 179.86V178.94L544.88 177.89L546.06 177.37L547.11 177.76L547.5 179.07L547.11 180.26ZM542.92 179.21L542 179.6L541.21 179.34L540.69 178.29L540.95 177.64L542.13 176.85L543.57 176.98V178.03L542.92 179.21ZM562.94 173.97L563.2 175.15L562.28 176.2L560.32 176.72L559.53 175.8V174.49L561.23 174.62L562.94 173.97ZM560.85 173.32L560.46 173.45L559.67 172.53L560.72 171.61L561.77 172.66L560.85 173.32ZM551.95 170.7L550.12 172.14L549.47 173.32L548.68 174.37L548.42 175.16L546.59 175.95L544.63 176.47H542.8L542.93 174.51L544.37 174.25H545.94L546.33 173.07L546.2 171.76L545.15 171.5L544.23 172.15L542.53 173.85L541.61 173.59V172.54L543.18 171.49L543.31 170.57L543.96 170.44L545.4 169.65L546.71 169.52L548.15 168.6L551.29 168.47L552.47 168.86L551.95 170.7ZM556.27 168.61L555.62 169.92L554.44 169.79L554.05 169V168.08L555.23 167.56L556.27 168.61ZM559.15 170.57L557.19 171.62L556.93 172.93L556.01 173.58L555.09 174.76L553.65 175.55L552.6 175.29L552.99 174.24V173.72L553.91 172.93L554.7 172.01L555.35 170.83L556.53 170.57L558.23 170.7L559.15 170.05L560.46 167.96L561.51 167.57L561.9 168.62L561.25 169.01L560.46 170.06L559.15 170.57ZM551.29 166.91L549.85 167.04L549.33 166.65L549.2 165.6L548.28 164.16L552.73 159.97H553.52L554.83 160.36L555.09 161.54L554.57 163.11L553.13 164.94L551.29 166.91ZM557.58 160.1L556.01 160.23L554.31 158.79L555.36 157.74L558.63 159.44L557.58 160.1ZM545.8 165.08H544.1L544.75 163.51L545.8 161.81L547.76 160.63L549.2 159.58L550.77 157.62L552.08 156.97L552.6 158.15L552.08 159.2L550.64 159.99L549.07 162.08L547.76 163L547.11 164.31L545.8 165.08ZM554.3 155.52L553.65 156.04L552.21 155.91L551.82 154.86L552.21 153.42L552.86 152.63L553.65 152.24L554.83 152.37L555.48 153.81L554.96 155.25L554.3 155.52ZM560.32 154.34L560.97 155.39L561.89 155.26L562.02 156.31L561.37 157.36H560.58L559.79 156.18L558.35 155.26L556.78 154.47L556.65 153.42L556.91 152.63L558.09 150.8L559.01 150.54L559.8 151.33L559.41 151.98L558.76 152.37L559.15 153.68L560.32 154.34ZM551.98 150.66L550.32 151.62L549.57 151.03L549.52 150.43L550.12 149.89L551.17 149.24L552.35 146.62L551.83 142.82L551.37 141.28L551.78 140.96L551.89 139.78L552.85 139.4L553.63 139.5L555.32 140.67L556.86 142.45L558.09 145.66L557.88 146.68L556.27 146.84L555.52 147.86L553.49 149.73L551.98 150.66ZM538.73 132.36L538.21 133.67L537.16 133.41L536.24 132.49L535.59 130.92L536.11 130.27L538.33 131.71L538.73 132.36ZM512.55 127.64L513.35 127.75L513.56 126.95L512.81 125.93L512.33 124.97L512.6 124.33L513.82 123.48L514.74 123.52L515.44 124.76L517.37 124.71L519.89 125.73L522.3 126.43L523.43 126.38L521.93 124.13L520.91 123.17L520.59 121.83L521.02 120.92L521.88 120.71L526.97 124.35L530.05 127.83L530.55 128.74L531.93 130.22L533.76 132.75L537.55 134.28L540.13 134.75L545.06 134.89L546.8 134.83L549.4 135.93L550.38 138.47V140.99L550.91 141.65L551.69 146.25L550.9 148.21L549.22 149.41L549.04 149.07L547.85 151.26L547.61 152.84L546.04 153.34L544.54 153.27L544.18 154.48L542.39 154.55L540.89 154.84L539.18 155.48L538.47 156.91L539.61 157.62L540.97 156.55L542.04 155.91H543.4L543.74 157.06L544.97 156.7L545.9 155.77L548.11 154.13L549.04 153.27L549.47 153.7L549.4 155.84L547.47 159.04L545.45 160.69L544.55 162.1L543.06 163.02L542.55 165.16L541.85 166.45L542.56 167.59L543.56 168.16L541.77 170.66L539.77 174.23L539.63 177.09L538.7 177.88L538.41 178.95L539.12 180.02L540.33 180.16L541.97 181.3L543.25 181.73L543.54 182.59L546.68 183.16L548.07 184.05L549.04 183.81L549.68 179.83L550.46 178.96L551.95 178.84L552.6 179.89L553.6 179.53L553.74 178.89L556.23 178.48L561.39 178.05L562.88 178.46L565.31 180.42L572.44 181.44L573.3 180.11H577.94L578.73 179.18L576.23 178.47L574.95 178.33L574.97 177.31L576.14 176.83L582.59 177.05L583.93 177.3L591.08 179.34L594.58 181.27L597.58 183.91L598.94 186.84L601.08 188.55L602.01 189.98V191.98L600.51 193.76L598.15 193.62L596.22 194.83L594.94 195.47L593.23 196.75L593.16 199.08L592.16 200.72L592.54 202.25L591.36 203.24L588.89 203.05L587.51 203.62L582.87 206.14L581.16 207.64L580.13 208.85L566.51 209.1L565.4 209.96L563.55 210.33L563.18 210.95H562.44L561.95 210.21L560.71 210.09L560.22 210.95L559.48 211.69L558 212.06L557.14 213.05L555.78 212.93L553.68 214.04L552.2 213.18L551.09 212.32L550.35 209.48L549.73 208.49L548.62 207.87L546.64 207.99L544.91 209.35L542.07 210.96L541.7 211.7L540.1 212.07L538.74 213.06H536.64L535.28 213.8L534.17 214.54L533.43 215.9H531.58L530.22 214.91L528.24 214.79L526.88 214.05L524.29 213.68L521.94 211.83L520.58 210.6L519.84 208.87L518.6 206.89L517.86 205.16L516.75 203.06L514.4 202.44L513.29 202.93L511.44 203.18H509.96L509.22 204.04L507.99 204.41L506.63 205.52L503.54 204.53L502.31 203.79L502.06 202.31L501.44 201.08L500.45 199.6L499.22 198.12L494.9 195.16L492.8 194.42L489.71 194.3L485.39 194.42L484.9 192.69L483.79 191.46L482.18 189.98L481.44 188.99L480.21 187.88L480.11 186.34L479.95 186.31L479.79 183.7L479.22 183.91L479.29 183.68L482.09 182.53L485.38 182.37L488.34 181.71L490.81 179.57L493.11 178.91L493.93 177.59L497.88 173.15L500.18 171.83L501.33 169.85L501.99 165.73L501.83 159.47L501.17 157.17L500.02 157.01L498.87 158L496.89 158.49L492.77 158L490.63 157.51L489.64 156.69L489.81 154.88L489.32 153.23L489.15 150.27L487.17 149.12L485.85 147.8V144.51L486.01 141.22L484.69 137.43L484.03 135.12L486.01 133.14L487.66 131.16L488.53 128.69L488.51 128.82L489.99 129.68L490.24 129.37L490.51 126.91L490.35 125.2L490.89 123.06L491.05 121.24L491.59 119.85L492.34 118.56L493.58 117.5L493.95 116.74L495.34 116.1L497 115.78L500.05 116.16L501.17 116.91L504.6 120.12L511.51 127.08L512.55 127.64Z" fill="#C7C7C7" stroke="white" stroke-width="2"/>
<path d="M389.3 372.32L387.94 371.52L387.51 370.84L386.5 370.04L384.32 368.99L383.34 368.73L381.78 368.77L380.97 369.7L380.88 372.09L382.53 374.55L384.8 375.03L385.63 377.76L387.11 380.63L387.94 382.06L388.62 382.88L393.42 387.77L396.59 390.73L400.15 392.34L402.7 393.75L407.07 397.24L408.92 400.48L409.11 402.24L408.65 404L407.35 405.2L407.63 407.43L407.35 410.67L407.24 416.83L407.63 420.39L409.85 423.59L412.5 425.77L415.59 430.95L417.94 436.02L418.06 442.31L417.44 444.29L416.21 445.77V447.13L417.32 448.98L421.27 449.84L425.84 451.45L434.79 450.17L444.34 450.81L445.18 451.42L446.46 454.78L447.2 457.38L444.69 460.43L444.61 461.95L439.42 462.69L436.39 463.55L434.11 465.65L430.41 468.61L428.06 469.48L422.38 469.6L419.54 470.59L417.81 471.58L416.08 474.29L415.47 476.27L415.22 484.29L414.36 486.64L411.76 489.23L406.58 493.31H403.74L403.37 491.58H400.4L398.3 493.18L395.34 494.67L392.5 496.86L390.77 498.96L386.45 502.42L384.48 502.17L382.38 500.94L380.12 500.89L377.81 503.28L375.43 504.31L372.75 506.74L368.18 507.6L366.94 508.1L365.66 508.87L365.33 510.72L365.02 513.64L364.45 515.35L364.23 516.87H360.95L359.04 517.24L357.68 517.85L354.68 521.12L354.45 523.95L353.24 527.73L350.89 528.59L348.17 528.44L347.45 527.81L347.93 526.5L348.55 525.51L350.03 524.03L350.77 522.54L350.89 517.24L349.78 515.51L349.04 514.77L345.46 514.15L340.03 514.52L333.85 517.61L332.74 519.33L331.51 520.69L330.15 521.8L329.28 522.92L326.69 523.16L323.48 525.14L320.76 525.26L318.79 524.27L317.31 525.14L314.22 524.77L313.02 523.43L305.36 516.93L303.73 516.49L293.17 506.6L289.29 503.24L289.53 501.92L289.4 498.34L287.8 497.73L287.03 492.98L286.93 487.6L284.96 485.63L284.14 482.61L282.06 477.87L281.69 474.66L279.63 471.36L279.09 465.53L277.49 464.54L277.36 463.06L275.64 460.09L275.14 457.38L276.13 456.27L276.87 454.54L275.27 452.02L274.08 451.11L271.34 449.98L269.59 446.88L262.32 440.56L259.24 440.46L258.87 437.5L257.72 435.69L256.4 434.66L253.68 434.78L251.95 434.04L250.35 434.16H247.26L245.53 433.18L247.63 431.2L263.68 417.25L266.89 416.75L266.52 413.79L269.12 411.82L272.33 408.98L272.08 406.01L268.69 404.83L267.63 403.54L265.54 402.18L265.66 398.36L265.04 395.76L263.31 393.91L261.96 393.79L260.23 394.04L257.27 392.77L257.26 391.44L256.52 389.71L255.29 385.89L254.05 385.22L254.18 382.87L256.28 381.15L255.29 378.92L251.83 377.07L249.02 374.04L248.15 371.17L248.19 369.36L248.38 368.16L249.1 366.64L249.24 364.11L248.5 361.27L246.4 359.91L245.83 356.67L245.9 353.73L247.51 351.39L247.83 344.78L247.63 337.68L249.24 335.21L249.48 333.36L247.53 333.23L247.12 331.56L247.51 323.48L249.24 321.51L251.21 320.52L253.31 318.92L255.04 317.93L256.65 315.46L257.02 304.17L261.21 298L263.93 295.41L264.67 294.3L266.89 293.93L266.65 290.71L265.04 290.47L264.42 289.23L264.05 287.38L264.15 286.41H264.6L266.74 287.23L267.56 287.89L269.21 288.39L271.35 288.22L274.64 289.04L276.29 289.87V291.84L277.27 293.49V296.45L275.96 297.11L276.45 298.59L276.29 300.4L275.46 302.38V304.68L276.12 306.66L280.4 306.33L282.05 308.14L284.35 308.47L285.67 307.48L289.46 306.66L295.71 306.49L298.35 305.67L300.98 306L305.75 303.53L306.74 302.21L309.05 300.4L312.34 297.28L314.97 296.95L315.63 298.26L315.47 302.05L316.62 302.87L316.95 304.85L318.6 304.68L320.74 303.7L321.89 302.71L325.18 302.87L328.31 301.39L329.63 299.74L331.11 297.6L333.25 295.3L335.88 289.21L337.86 288.22L339.34 287.73L342.3 287.4L345.43 288.22L346.42 290.2L346.09 294.64L344.44 298.92L344.61 303.7L346.91 306.66H349.38L351.52 304.02L353.5 302.54H359.26L361.4 303.7H362.22L362.72 305.01L362.22 306.17L360.74 306.99L360.58 307.98L362.72 310.77L364.69 312.75L366.34 314.07V315.22L366.01 316.37L364.36 317.03L364.53 319.17L365.68 319.83L367.49 321.31V323.45L366.5 324.44L361.73 324.93L360.41 325.76L360.74 328.55L362.06 330.2L362.72 333.99L363.54 336.46L365.19 339.09L367.98 344.19L373.75 352.43L376.54 354.57L379.34 355.22L381.15 356.38L381.98 356.21L382.97 355.39L384.45 355.55L386.26 356.38L387.9 356.87L388.4 359.01V361.97L389.71 363.62V365.6L389.3 372.32Z" fill="#C7C7C7" stroke="white" stroke-width="2"/>
</svg>
